mtllib Tomas_Marín_Ojeda_fase_2.mtl
o Tomas_Marín_Ojeda_fase_2
v -4.0000 1.0000 1.0000
v -3.0000 1.0000 1.0000
v -3.0000 1.0000 -0.0000
v -4.0000 1.0000 -0.0000
v -4.0000 0.0000 1.0000
v -4.0000 0.0000 -0.0000
v -3.0000 0.0000 -0.0000
v -3.0000 0.0000 1.0000
v -4.0000 4.0000 1.0000
v -3.0000 4.0000 1.0000
v -3.0000 4.0000 -0.0000
v -4.0000 4.0000 -0.0000
v -4.0000 3.0000 1.0000
v -4.0000 3.0000 -0.0000
v -3.0000 3.0000 -0.0000
v -3.0000 3.0000 1.0000
v -4.0000 -1.0000 -0.0000
v -4.0000 -1.0000 -1.0000
v -3.0000 -1.0000 -1.0000
v -3.0000 -1.0000 -0.0000
v -4.0000 0.0000 -1.0000
v -3.0000 0.0000 -1.0000
v -3.0000 1.0000 -1.0000
v -4.0000 1.0000 -1.0000
v -3.0000 1.0000 -2.0000
v -4.0000 1.0000 -2.0000
v -4.0000 0.0000 -2.0000
v -3.0000 0.0000 -2.0000
v -3.0000 1.0000 3.0000
v -2.0000 1.0000 3.0000
v -2.0000 1.0000 2.0000
v -3.0000 1.0000 2.0000
v -3.0000 0.0000 3.0000
v -3.0000 0.0000 2.0000
v -2.0000 0.0000 2.0000
v -2.0000 0.0000 3.0000
v -3.0000 4.0000 2.0000
v -2.0000 4.0000 2.0000
v -2.0000 4.0000 1.0000
v -3.0000 3.0000 2.0000
v -2.0000 3.0000 1.0000
v -2.0000 3.0000 2.0000
v -3.0000 2.0000 1.0000
v -3.0000 2.0000 -0.0000
v -2.0000 2.0000 -0.0000
v -2.0000 2.0000 1.0000
v -2.0000 3.0000 -0.0000
v -2.0000 4.0000 -0.0000
v -2.0000 0.0000 -0.0000
v -2.0000 0.0000 -1.0000
v -2.0000 -1.0000 -1.0000
v -2.0000 -1.0000 -0.0000
v -2.0000 4.0000 -1.0000
v -3.0000 4.0000 -1.0000
v -3.0000 3.0000 -1.0000
v -2.0000 3.0000 -1.0000
v -2.0000 1.0000 -1.0000
v -2.0000 1.0000 -2.0000
v -2.0000 0.0000 -2.0000
v -2.0000 1.0000 -3.0000
v -3.0000 1.0000 -3.0000
v -3.0000 0.0000 -3.0000
v -2.0000 0.0000 -3.0000
v -2.0000 1.0000 4.0000
v -1.0000 1.0000 4.0000
v -1.0000 1.0000 3.0000
v -2.0000 0.0000 4.0000
v -1.0000 0.0000 3.0000
v -1.0000 0.0000 4.0000
v -1.0000 1.0000 2.0000
v -1.0000 0.0000 2.0000
v -2.0000 -1.0000 1.0000
v -1.0000 -1.0000 1.0000
v -1.0000 -1.0000 -0.0000
v -2.0000 -2.0000 1.0000
v -2.0000 -2.0000 -0.0000
v -1.0000 -2.0000 -0.0000
v -1.0000 -2.0000 1.0000
v -2.0000 1.0000 1.0000
v -2.0000 1.0000 -0.0000
v -1.0000 1.0000 -0.0000
v -1.0000 1.0000 1.0000
v -1.0000 2.0000 1.0000
v -1.0000 2.0000 -0.0000
v -1.0000 3.0000 1.0000
v -1.0000 3.0000 -0.0000
v -2.0000 -2.0000 -1.0000
v -1.0000 -2.0000 -1.0000
v -1.0000 -1.0000 -1.0000
v -1.0000 0.0000 -0.0000
v -1.0000 0.0000 -1.0000
v -1.0000 4.0000 -0.0000
v -1.0000 4.0000 -1.0000
v -1.0000 3.0000 -1.0000
v -2.0000 4.0000 -2.0000
v -1.0000 4.0000 -2.0000
v -1.0000 4.0000 -3.0000
v -2.0000 4.0000 -3.0000
v -2.0000 3.0000 -2.0000
v -2.0000 3.0000 -3.0000
v -1.0000 3.0000 -3.0000
v -1.0000 3.0000 -2.0000
v -1.0000 -1.0000 4.0000
v -1.0000 -1.0000 3.0000
v 0.0000 -1.0000 3.0000
v 0.0000 -1.0000 4.0000
v 0.0000 0.0000 4.0000
v 0.0000 0.0000 3.0000
v 0.0000 1.0000 4.0000
v 0.0000 1.0000 3.0000
v 0.0000 0.0000 2.0000
v -1.0000 -1.0000 2.0000
v 0.0000 -1.0000 2.0000
v -1.0000 4.0000 3.0000
v 0.0000 4.0000 3.0000
v 0.0000 4.0000 2.0000
v -1.0000 4.0000 2.0000
v -1.0000 3.0000 3.0000
v -1.0000 3.0000 2.0000
v 0.0000 3.0000 2.0000
v 0.0000 3.0000 3.0000
v -1.0000 -2.0000 2.0000
v 0.0000 -2.0000 1.0000
v 0.0000 -2.0000 2.0000
v 0.0000 0.0000 1.0000
v -1.0000 0.0000 1.0000
v 0.0000 -1.0000 1.0000
v 0.0000 4.0000 1.0000
v -1.0000 4.0000 1.0000
v 0.0000 3.0000 1.0000
v -1.0000 -4.0000 1.0000
v -1.0000 -4.0000 -0.0000
v 0.0000 -4.0000 -0.0000
v 0.0000 -4.0000 1.0000
v 0.0000 -3.0000 1.0000
v -1.0000 -3.0000 1.0000
v -1.0000 -3.0000 -0.0000
v 0.0000 1.0000 1.0000
v 0.0000 1.0000 -0.0000
v 0.0000 3.0000 -0.0000
v 0.0000 2.0000 -0.0000
v 0.0000 2.0000 1.0000
v -1.0000 -4.0000 -1.0000
v 0.0000 -4.0000 -1.0000
v -1.0000 -3.0000 -1.0000
v 0.0000 -3.0000 -1.0000
v 0.0000 -2.0000 -1.0000
v 0.0000 0.0000 -1.0000
v 0.0000 -1.0000 -1.0000
v -1.0000 1.0000 -1.0000
v 0.0000 1.0000 -1.0000
v -1.0000 2.0000 -1.0000
v 0.0000 3.0000 -1.0000
v 0.0000 -1.0000 -2.0000
v -1.0000 -1.0000 -2.0000
v -1.0000 -2.0000 -2.0000
v 0.0000 -2.0000 -2.0000
v -1.0000 1.0000 -2.0000
v 0.0000 1.0000 -2.0000
v -1.0000 2.0000 -2.0000
v 0.0000 2.0000 -2.0000
v 0.0000 3.0000 -2.0000
v 0.0000 2.0000 -1.0000
v -1.0000 2.0000 -3.0000
v 0.0000 2.0000 -3.0000
v 0.0000 3.0000 -3.0000
v 0.0000 4.0000 -2.0000
v 0.0000 4.0000 -3.0000
v -1.0000 1.0000 -3.0000
v 0.0000 1.0000 -3.0000
v 0.0000 1.0000 -4.0000
v -1.0000 1.0000 -4.0000
v -1.0000 0.0000 -3.0000
v -1.0000 0.0000 -4.0000
v 0.0000 0.0000 -4.0000
v 0.0000 0.0000 -3.0000
v 0.0000 4.0000 -4.0000
v -1.0000 4.0000 -4.0000
v -1.0000 3.0000 -4.0000
v 0.0000 3.0000 -4.0000
v 1.0000 1.0000 4.0000
v 1.0000 1.0000 3.0000
v 1.0000 0.0000 3.0000
v 1.0000 0.0000 4.0000
v 0.0000 4.0000 4.0000
v 1.0000 4.0000 4.0000
v 1.0000 4.0000 3.0000
v 0.0000 3.0000 4.0000
v 1.0000 3.0000 3.0000
v 1.0000 3.0000 4.0000
v 0.0000 2.0000 3.0000
v 0.0000 2.0000 2.0000
v 1.0000 2.0000 2.0000
v 1.0000 2.0000 3.0000
v 1.0000 3.0000 2.0000
v 1.0000 4.0000 2.0000
v 1.0000 -1.0000 2.0000
v 1.0000 -1.0000 1.0000
v 1.0000 -2.0000 1.0000
v 1.0000 -2.0000 2.0000
v 1.0000 3.0000 1.0000
v 1.0000 2.0000 1.0000
v 1.0000 -4.0000 -0.0000
v 1.0000 -4.0000 1.0000
v 1.0000 -3.0000 1.0000
v 1.0000 -3.0000 -0.0000
v 1.0000 -2.0000 -0.0000
v 1.0000 0.0000 1.0000
v 1.0000 1.0000 1.0000
v 1.0000 1.0000 -0.0000
v 1.0000 0.0000 -0.0000
v 1.0000 3.0000 -0.0000
v 1.0000 2.0000 -0.0000
v 1.0000 -4.0000 -1.0000
v 1.0000 -3.0000 -1.0000
v 1.0000 -2.0000 -1.0000
v 1.0000 -1.0000 -0.0000
v 1.0000 -1.0000 -1.0000
v 1.0000 0.0000 -1.0000
v 1.0000 1.0000 -1.0000
v 1.0000 2.0000 -1.0000
v 1.0000 3.0000 -1.0000
v 1.0000 -2.0000 -2.0000
v 1.0000 -1.0000 -2.0000
v 1.0000 0.0000 -2.0000
v 0.0000 0.0000 -2.0000
v 1.0000 2.0000 -2.0000
v 1.0000 1.0000 -2.0000
v 0.0000 4.0000 -1.0000
v 1.0000 4.0000 -1.0000
v 1.0000 4.0000 -2.0000
v 1.0000 3.0000 -2.0000
v 1.0000 0.0000 -3.0000
v 0.0000 -1.0000 -3.0000
v 1.0000 -1.0000 -3.0000
v 1.0000 4.0000 -3.0000
v 1.0000 3.0000 -3.0000
v 0.0000 -1.0000 -4.0000
v 1.0000 -1.0000 -4.0000
v 1.0000 0.0000 -4.0000
v 1.0000 1.0000 -3.0000
v 1.0000 1.0000 -4.0000
v 2.0000 4.0000 3.0000
v 2.0000 4.0000 2.0000
v 2.0000 3.0000 2.0000
v 2.0000 3.0000 3.0000
v 2.0000 -2.0000 -0.0000
v 2.0000 -2.0000 1.0000
v 2.0000 -1.0000 1.0000
v 2.0000 -1.0000 -0.0000
v 2.0000 0.0000 1.0000
v 2.0000 0.0000 -0.0000
v 2.0000 2.0000 1.0000
v 2.0000 2.0000 -0.0000
v 2.0000 1.0000 -0.0000
v 2.0000 1.0000 1.0000
v 1.0000 4.0000 1.0000
v 2.0000 4.0000 1.0000
v 2.0000 4.0000 -0.0000
v 1.0000 4.0000 -0.0000
v 2.0000 3.0000 -0.0000
v 2.0000 3.0000 1.0000
v 2.0000 -1.0000 -1.0000
v 2.0000 -2.0000 -1.0000
v 2.0000 3.0000 -1.0000
v 2.0000 2.0000 -1.0000
v 2.0000 1.0000 -2.0000
v 2.0000 1.0000 -3.0000
v 2.0000 0.0000 -3.0000
v 2.0000 0.0000 -2.0000
v 2.0000 1.0000 -4.0000
v 2.0000 0.0000 -4.0000
v 2.0000 1.0000 3.0000
v 3.0000 1.0000 3.0000
v 3.0000 1.0000 2.0000
v 2.0000 1.0000 2.0000
v 2.0000 0.0000 3.0000
v 2.0000 0.0000 2.0000
v 3.0000 0.0000 2.0000
v 3.0000 0.0000 3.0000
v 3.0000 1.0000 1.0000
v 3.0000 0.0000 1.0000
v 3.0000 0.0000 -0.0000
v 3.0000 -1.0000 -0.0000
v 3.0000 -1.0000 1.0000
v 3.0000 4.0000 1.0000
v 3.0000 4.0000 -0.0000
v 3.0000 3.0000 -0.0000
v 3.0000 3.0000 1.0000
v 3.0000 2.0000 -1.0000
v 3.0000 2.0000 -0.0000
v 3.0000 3.0000 -1.0000
v 3.0000 4.0000 -1.0000
v 2.0000 4.0000 -1.0000
v 3.0000 4.0000 -2.0000
v 2.0000 4.0000 -2.0000
v 2.0000 3.0000 -2.0000
v 3.0000 3.0000 -2.0000
v 3.0000 1.0000 -2.0000
v 3.0000 1.0000 -3.0000
v 3.0000 0.0000 -3.0000
v 3.0000 0.0000 -2.0000
v 4.0000 1.0000 2.0000
v 4.0000 1.0000 1.0000
v 4.0000 0.0000 1.0000
v 4.0000 0.0000 2.0000
v 4.0000 -1.0000 -0.0000
v 4.0000 -1.0000 1.0000
v 4.0000 0.0000 -0.0000
v 4.0000 1.0000 -0.0000
v 3.0000 1.0000 -0.0000
v 4.0000 1.0000 -1.0000
v 3.0000 1.0000 -1.0000
v 3.0000 0.0000 -1.0000
v 4.0000 0.0000 -1.0000
v 4.0000 4.0000 -0.0000
v 4.0000 4.0000 -1.0000
v 4.0000 3.0000 -1.0000
v 4.0000 3.0000 -0.0000
vt 0.001953 0.500000
vt 0.005859 0.500000
vt 0.009766 0.500000
vt 0.013672 0.500000
vt 0.017578 0.500000
vt 0.021484 0.500000
vt 0.025391 0.500000
vn 0.0 -1.0 0.0
vn 0.0 1.0 0.0
vn 0.0 0.0 1.0
vn 0.0 0.0 -1.0
vn -1.0 0.0 0.0
vn 1.0 0.0 0.0
usemtl mat_Tomas_Marín_Ojeda_fase_2
s off
f 1/1/2 2/1/2 3/1/2 4/1/2
f 5/1/1 6/1/1 7/1/1 8/1/1
f 5/1/3 8/1/3 2/1/3 1/1/3
f 8/1/6 7/1/6 3/1/6 2/1/6
f 5/1/5 1/1/5 4/1/5 6/1/5
f 9/1/2 10/1/2 11/1/2 12/1/2
f 13/1/1 14/1/1 15/1/1 16/1/1
f 13/1/3 16/1/3 10/1/3 9/1/3
f 14/1/4 12/1/4 11/1/4 15/1/4
f 13/1/5 9/1/5 12/1/5 14/1/5
f 17/2/1 18/2/1 19/2/1 20/2/1
f 17/2/3 20/2/3 7/2/3 6/2/3
f 18/2/4 21/2/4 22/2/4 19/2/4
f 17/2/5 6/2/5 21/2/5 18/2/5
f 4/3/2 3/3/2 23/3/2 24/3/2
f 7/3/6 22/3/6 23/3/6 3/3/6
f 6/3/5 4/3/5 24/3/5 21/3/5
f 24/4/2 23/4/2 25/4/2 26/4/2
f 21/4/1 27/4/1 28/4/1 22/4/1
f 27/4/4 26/4/4 25/4/4 28/4/4
f 21/4/5 24/4/5 26/4/5 27/4/5
f 29/1/2 30/1/2 31/1/2 32/1/2
f 33/1/1 34/1/1 35/1/1 36/1/1
f 33/1/3 36/1/3 30/1/3 29/1/3
f 34/1/4 32/1/4 31/1/4 35/1/4
f 33/1/5 29/1/5 32/1/5 34/1/5
f 37/1/2 38/1/2 39/1/2 10/1/2
f 40/1/1 16/1/1 41/1/1 42/1/1
f 40/1/3 42/1/3 38/1/3 37/1/3
f 42/1/6 41/1/6 39/1/6 38/1/6
f 40/1/5 37/1/5 10/1/5 16/1/5
f 43/3/1 44/3/1 45/3/1 46/3/1
f 43/3/3 46/3/3 41/3/3 16/3/3
f 44/3/4 15/3/4 47/3/4 45/3/4
f 43/3/5 16/3/5 15/3/5 44/3/5
f 10/5/2 39/5/2 48/5/2 11/5/2
f 41/5/6 47/5/6 48/5/6 39/5/6
f 7/2/2 49/2/2 50/2/2 22/2/2
f 20/2/1 19/2/1 51/2/1 52/2/1
f 20/2/3 52/2/3 49/2/3 7/2/3
f 19/2/4 22/2/4 50/2/4 51/2/4
f 11/1/2 48/1/2 53/1/2 54/1/2
f 15/1/1 55/1/1 56/1/1 47/1/1
f 55/1/4 54/1/4 53/1/4 56/1/4
f 15/1/5 11/1/5 54/1/5 55/1/5
f 23/3/2 57/3/2 58/3/2 25/3/2
f 22/3/1 28/3/1 59/3/1 50/3/1
f 22/3/3 50/3/3 57/3/3 23/3/3
f 50/3/6 59/3/6 58/3/6 57/3/6
f 25/4/2 58/4/2 60/4/2 61/4/2
f 28/4/1 62/4/1 63/4/1 59/4/1
f 62/4/4 61/4/4 60/4/4 63/4/4
f 59/4/6 63/4/6 60/4/6 58/4/6
f 28/4/5 25/4/5 61/4/5 62/4/5
f 64/1/2 65/1/2 66/1/2 30/1/2
f 67/1/1 36/1/1 68/1/1 69/1/1
f 67/1/3 69/1/3 65/1/3 64/1/3
f 67/1/5 64/1/5 30/1/5 36/1/5
f 30/5/2 66/5/2 70/5/2 31/5/2
f 36/5/1 35/5/1 71/5/1 68/5/1
f 35/5/4 31/5/4 70/5/4 71/5/4
f 68/5/6 71/5/6 70/5/6 66/5/6
f 72/4/2 73/4/2 74/4/2 52/4/2
f 75/4/1 76/4/1 77/4/1 78/4/1
f 75/4/3 78/4/3 73/4/3 72/4/3
f 75/4/5 72/4/5 52/4/5 76/4/5
f 79/6/1 80/6/1 81/6/1 82/6/1
f 79/6/3 82/6/3 83/6/3 46/6/3
f 80/6/4 45/6/4 84/6/4 81/6/4
f 82/6/6 81/6/6 84/6/6 83/6/6
f 79/6/5 46/6/5 45/6/5 80/6/5
f 41/3/2 85/3/2 86/3/2 47/3/2
f 46/3/3 83/3/3 85/3/3 41/3/3
f 45/3/4 47/3/4 86/3/4 84/3/4
f 76/2/1 87/2/1 88/2/1 77/2/1
f 87/2/4 51/2/4 89/2/4 88/2/4
f 76/2/5 52/2/5 51/2/5 87/2/5
f 49/2/2 90/2/2 91/2/2 50/2/2
f 52/2/3 74/2/3 90/2/3 49/2/3
f 51/2/4 50/2/4 91/2/4 89/2/4
f 48/5/2 92/5/2 93/5/2 53/5/2
f 47/5/1 56/5/1 94/5/1 86/5/1
f 47/5/3 86/5/3 92/5/3 48/5/3
f 56/5/4 53/5/4 93/5/4 94/5/4
f 86/5/6 94/5/6 93/5/6 92/5/6
f 95/1/2 96/1/2 97/1/2 98/1/2
f 99/1/1 100/1/1 101/1/1 102/1/1
f 99/1/3 102/1/3 96/1/3 95/1/3
f 100/1/4 98/1/4 97/1/4 101/1/4
f 99/1/5 95/1/5 98/1/5 100/1/5
f 103/5/1 104/5/1 105/5/1 106/5/1
f 103/5/3 106/5/3 107/5/3 69/5/3
f 106/5/6 105/5/6 108/5/6 107/5/6
f 103/5/5 69/5/5 68/5/5 104/5/5
f 65/5/2 109/5/2 110/5/2 66/5/2
f 69/5/3 107/5/3 109/5/3 65/5/3
f 68/5/4 66/5/4 110/5/4 108/5/4
f 68/5/2 108/5/2 111/5/2 71/5/2
f 104/5/1 112/5/1 113/5/1 105/5/1
f 105/5/6 113/5/6 111/5/6 108/5/6
f 104/5/5 68/5/5 71/5/5 112/5/5
f 114/7/2 115/7/2 116/7/2 117/7/2
f 118/7/1 119/7/1 120/7/1 121/7/1
f 118/7/3 121/7/3 115/7/3 114/7/3
f 118/7/5 114/7/5 117/7/5 119/7/5
f 122/3/1 78/3/1 123/3/1 124/3/1
f 122/3/3 124/3/3 113/3/3 112/3/3
f 122/3/5 112/3/5 73/3/5 78/3/5
f 71/5/2 111/5/2 125/5/2 126/5/2
f 113/5/6 127/5/6 125/5/6 111/5/6
f 112/5/5 71/5/5 126/5/5 73/5/5
f 117/5/2 116/5/2 128/5/2 129/5/2
f 119/5/1 85/5/1 130/5/1 120/5/1
f 85/5/4 129/5/4 128/5/4 130/5/4
f 120/5/6 130/5/6 128/5/6 116/5/6
f 119/5/5 117/5/5 129/5/5 85/5/5
f 131/2/1 132/2/1 133/2/1 134/2/1
f 131/2/3 134/2/3 135/2/3 136/2/3
f 131/2/5 136/2/5 137/2/5 132/2/5
f 136/2/3 135/2/3 123/2/3 78/2/3
f 136/2/5 78/2/5 77/2/5 137/2/5
f 73/3/5 126/3/5 90/3/5 74/3/5
f 82/3/2 138/3/2 139/3/2 81/3/2
f 126/3/3 125/3/3 138/3/3 82/3/3
f 126/3/5 82/3/5 81/3/5 90/3/5
f 85/3/2 130/3/2 140/3/2 86/3/2
f 83/3/1 84/3/1 141/3/1 142/3/1
f 83/3/3 142/3/3 130/3/3 85/3/3
f 132/2/1 143/2/1 144/2/1 133/2/1
f 143/2/4 145/2/4 146/2/4 144/2/4
f 132/2/5 137/2/5 145/2/5 143/2/5
f 145/2/4 88/2/4 147/2/4 146/2/4
f 137/2/5 77/2/5 88/2/5 145/2/5
f 89/2/4 91/2/4 148/2/4 149/2/4
f 91/2/4 150/2/4 151/2/4 148/2/4
f 90/2/5 81/2/5 150/2/5 91/2/5
f 81/2/3 139/2/3 141/2/3 84/2/3
f 81/2/5 84/2/5 152/2/5 150/2/5
f 86/3/2 140/3/2 153/3/2 94/3/2
f 84/3/5 86/3/5 94/3/5 152/3/5
f 89/4/2 149/4/2 154/4/2 155/4/2
f 88/4/1 156/4/1 157/4/1 147/4/1
f 156/4/4 155/4/4 154/4/4 157/4/4
f 88/4/5 89/4/5 155/4/5 156/4/5
f 150/2/1 158/2/1 159/2/1 151/2/1
f 158/2/4 160/2/4 161/2/4 159/2/4
f 150/2/5 152/2/5 160/2/5 158/2/5
f 94/3/2 153/3/2 162/3/2 102/3/2
f 163/3/6 161/3/6 162/3/6 153/3/6
f 152/3/5 94/3/5 102/3/5 160/3/5
f 160/3/1 164/3/1 165/3/1 161/3/1
f 164/3/4 101/3/4 166/3/4 165/3/4
f 161/3/6 165/3/6 166/3/6 162/3/6
f 160/3/5 102/3/5 101/3/5 164/3/5
f 96/5/2 167/5/2 168/5/2 97/5/2
f 102/5/3 162/5/3 167/5/3 96/5/3
f 169/4/2 170/4/2 171/4/2 172/4/2
f 173/4/1 174/4/1 175/4/1 176/4/1
f 173/4/3 176/4/3 170/4/3 169/4/3
f 174/4/4 172/4/4 171/4/4 175/4/4
f 173/4/5 169/4/5 172/4/5 174/4/5
f 97/1/2 168/1/2 177/1/2 178/1/2
f 101/1/1 179/1/1 180/1/1 166/1/1
f 179/1/4 178/1/4 177/1/4 180/1/4
f 166/1/6 180/1/6 177/1/6 168/1/6
f 101/1/5 97/1/5 178/1/5 179/1/5
f 109/7/2 181/7/2 182/7/2 110/7/2
f 107/7/1 108/7/1 183/7/1 184/7/1
f 107/7/3 184/7/3 181/7/3 109/7/3
f 108/7/4 110/7/4 182/7/4 183/7/4
f 184/7/6 183/7/6 182/7/6 181/7/6
f 185/7/2 186/7/2 187/7/2 115/7/2
f 188/7/1 121/7/1 189/7/1 190/7/1
f 188/7/3 190/7/3 186/7/3 185/7/3
f 190/7/6 189/7/6 187/7/6 186/7/6
f 188/7/5 185/7/5 115/7/5 121/7/5
f 191/5/1 192/5/1 193/5/1 194/5/1
f 191/5/3 194/5/3 189/5/3 121/5/3
f 194/5/6 193/5/6 195/5/6 189/5/6
f 191/5/5 121/5/5 120/5/5 192/5/5
f 115/5/2 187/5/2 196/5/2 116/5/2
f 120/5/4 116/5/4 196/5/4 195/5/4
f 113/1/2 197/1/2 198/1/2 127/1/2
f 124/1/1 123/1/1 199/1/1 200/1/1
f 124/1/3 200/1/3 197/1/3 113/1/3
f 200/1/6 199/1/6 198/1/6 197/1/6
f 120/5/2 195/5/2 201/5/2 130/5/2
f 192/5/1 142/5/1 202/5/1 193/5/1
f 193/5/6 202/5/6 201/5/6 195/5/6
f 192/5/5 120/5/5 130/5/5 142/5/5
f 134/3/1 133/3/1 203/3/1 204/3/1
f 134/3/3 204/3/3 205/3/3 135/3/3
f 204/3/6 203/3/6 206/3/6 205/3/6
f 135/3/3 205/3/3 199/3/3 123/3/3
f 205/3/6 206/3/6 207/3/6 199/3/6
f 127/3/3 198/3/3 208/3/3 125/3/3
f 138/3/2 209/3/2 210/3/2 139/3/2
f 125/3/3 208/3/3 209/3/3 138/3/3
f 208/3/6 211/3/6 210/3/6 209/3/6
f 130/5/2 201/5/2 212/5/2 140/5/2
f 142/5/1 141/5/1 213/5/1 202/5/1
f 202/5/6 213/5/6 212/5/6 201/5/6
f 133/2/1 144/2/1 214/2/1 203/2/1
f 144/2/4 146/2/4 215/2/4 214/2/4
f 203/2/6 214/2/6 215/2/6 206/2/6
f 146/2/4 147/2/4 216/2/4 215/2/4
f 206/2/6 215/2/6 216/2/6 207/2/6
f 217/3/6 218/3/6 219/3/6 211/3/6
f 148/3/4 151/3/4 220/3/4 219/3/4
f 211/3/6 219/3/6 220/3/6 210/3/6
f 139/3/3 210/3/3 213/3/3 141/3/3
f 210/3/6 220/3/6 221/3/6 213/3/6
f 140/3/2 212/3/2 222/3/2 153/3/2
f 163/3/4 153/3/4 222/3/4 221/3/4
f 147/2/1 157/2/1 223/2/1 216/2/1
f 157/2/4 154/2/4 224/2/4 223/2/4
f 216/2/6 223/2/6 224/2/6 218/2/6
f 148/2/2 219/2/2 225/2/2 226/2/2
f 218/2/6 224/2/6 225/2/6 219/2/6
f 149/2/5 148/2/5 226/2/5 154/2/5
f 163/4/2 221/4/2 227/4/2 161/4/2
f 151/4/1 159/4/1 228/4/1 220/4/1
f 159/4/4 161/4/4 227/4/4 228/4/4
f 220/4/6 228/4/6 227/4/6 221/4/6
f 229/5/2 230/5/2 231/5/2 167/5/2
f 153/5/1 162/5/1 232/5/1 222/5/1
f 153/5/3 222/5/3 230/5/3 229/5/3
f 222/5/6 232/5/6 231/5/6 230/5/6
f 153/5/5 229/5/5 167/5/5 162/5/5
f 226/2/2 225/2/2 233/2/2 176/2/2
f 154/2/1 234/2/1 235/2/1 224/2/1
f 224/2/6 235/2/6 233/2/6 225/2/6
f 154/2/5 226/2/5 176/2/5 234/2/5
f 167/1/2 231/1/2 236/1/2 168/1/2
f 162/1/1 166/1/1 237/1/1 232/1/1
f 166/1/4 168/1/4 236/1/4 237/1/4
f 232/1/6 237/1/6 236/1/6 231/1/6
f 234/2/1 238/2/1 239/2/1 235/2/1
f 238/2/4 175/2/4 240/2/4 239/2/4
f 235/2/6 239/2/6 240/2/6 233/2/6
f 234/2/5 176/2/5 175/2/5 238/2/5
f 170/3/2 241/3/2 242/3/2 171/3/2
f 176/3/3 233/3/3 241/3/3 170/3/3
f 175/3/4 171/3/4 242/3/4 240/3/4
f 187/7/2 243/7/2 244/7/2 196/7/2
f 189/7/1 195/7/1 245/7/1 246/7/1
f 189/7/3 246/7/3 243/7/3 187/7/3
f 195/7/4 196/7/4 244/7/4 245/7/4
f 246/7/6 245/7/6 244/7/6 243/7/6
f 199/3/1 207/3/1 247/3/1 248/3/1
f 199/3/3 248/3/3 249/3/3 198/3/3
f 248/3/6 247/3/6 250/3/6 249/3/6
f 208/5/2 251/5/2 252/5/2 211/5/2
f 198/5/3 249/5/3 251/5/3 208/5/3
f 217/5/4 211/5/4 252/5/4 250/5/4
f 202/6/2 253/6/2 254/6/2 213/6/2
f 209/6/1 210/6/1 255/6/1 256/6/1
f 209/6/3 256/6/3 253/6/3 202/6/3
f 210/6/4 213/6/4 254/6/4 255/6/4
f 256/6/6 255/6/6 254/6/6 253/6/6
f 209/6/5 202/6/5 213/6/5 210/6/5
f 257/5/2 258/5/2 259/5/2 260/5/2
f 201/5/1 212/5/1 261/5/1 262/5/1
f 201/5/3 262/5/3 258/5/3 257/5/3
f 212/5/4 260/5/4 259/5/4 261/5/4
f 201/5/5 257/5/5 260/5/5 212/5/5
f 217/4/2 250/4/2 263/4/2 218/4/2
f 207/4/1 216/4/1 264/4/1 247/4/1
f 216/4/4 218/4/4 263/4/4 264/4/4
f 247/4/6 264/4/6 263/4/6 250/4/6
f 212/3/2 261/3/2 265/3/2 222/3/2
f 213/3/1 221/3/1 266/3/1 254/3/1
f 213/3/3 254/3/3 261/3/3 212/3/3
f 221/3/4 222/3/4 265/3/4 266/3/4
f 228/3/2 267/3/2 268/3/2 241/3/2
f 225/3/1 233/3/1 269/3/1 270/3/1
f 225/3/3 270/3/3 267/3/3 228/3/3
f 225/3/5 228/3/5 241/3/5 233/3/5
f 241/1/2 268/1/2 271/1/2 242/1/2
f 233/1/1 240/1/1 272/1/1 269/1/1
f 240/1/4 242/1/4 271/1/4 272/1/4
f 269/1/6 272/1/6 271/1/6 268/1/6
f 273/7/2 274/7/2 275/7/2 276/7/2
f 277/7/1 278/7/1 279/7/1 280/7/1
f 277/7/3 280/7/3 274/7/3 273/7/3
f 280/7/6 279/7/6 275/7/6 274/7/6
f 277/7/5 273/7/5 276/7/5 278/7/5
f 276/5/2 275/5/2 281/5/2 256/5/2
f 278/5/1 251/5/1 282/5/1 279/5/1
f 251/5/4 256/5/4 281/5/4 282/5/4
f 278/5/5 276/5/5 256/5/5 251/5/5
f 251/5/2 282/5/2 283/5/2 252/5/2
f 249/5/1 250/5/1 284/5/1 285/5/1
f 249/5/3 285/5/3 282/5/3 251/5/3
f 250/5/4 252/5/4 283/5/4 284/5/4
f 258/7/2 286/7/2 287/7/2 259/7/2
f 262/7/1 261/7/1 288/7/1 289/7/1
f 262/7/3 289/7/3 286/7/3 258/7/3
f 289/7/6 288/7/6 287/7/6 286/7/6
f 254/5/1 266/5/1 290/5/1 291/5/1
f 254/5/3 291/5/3 288/5/3 261/5/3
f 266/5/4 265/5/4 292/5/4 290/5/4
f 291/5/6 290/5/6 292/5/6 288/5/6
f 259/5/2 287/5/2 293/5/2 294/5/2
f 261/5/5 259/5/5 294/5/5 265/5/5
f 294/1/2 293/1/2 295/1/2 296/1/2
f 265/1/1 297/1/1 298/1/1 292/1/1
f 297/1/4 296/1/4 295/1/4 298/1/4
f 292/1/6 298/1/6 295/1/6 293/1/6
f 265/1/5 294/1/5 296/1/5 297/1/5
f 267/1/2 299/1/2 300/1/2 268/1/2
f 270/1/1 269/1/1 301/1/1 302/1/1
f 270/1/3 302/1/3 299/1/3 267/1/3
f 269/1/4 268/1/4 300/1/4 301/1/4
f 302/1/6 301/1/6 300/1/6 299/1/6
f 275/7/2 303/7/2 304/7/2 281/7/2
f 279/7/1 282/7/1 305/7/1 306/7/1
f 279/7/3 306/7/3 303/7/3 275/7/3
f 306/7/6 305/7/6 304/7/6 303/7/6
f 285/5/1 284/5/1 307/5/1 308/5/1
f 285/5/3 308/5/3 305/5/3 282/5/3
f 284/5/4 283/5/4 309/5/4 307/5/4
f 308/5/6 307/5/6 309/5/6 305/5/6
f 281/5/2 304/5/2 310/5/2 311/5/2
f 305/5/6 309/5/6 310/5/6 304/5/6
f 282/5/5 281/5/5 311/5/5 283/5/5
f 311/1/2 310/1/2 312/1/2 313/1/2
f 283/1/1 314/1/1 315/1/1 309/1/1
f 314/1/4 313/1/4 312/1/4 315/1/4
f 309/1/6 315/1/6 312/1/6 310/1/6
f 283/1/5 311/1/5 313/1/5 314/1/5
f 287/7/2 316/7/2 317/7/2 293/7/2
f 288/7/1 292/7/1 318/7/1 319/7/1
f 288/7/3 319/7/3 316/7/3 287/7/3
f 292/7/4 293/7/4 317/7/4 318/7/4
f 319/7/6 318/7/6 317/7/6 316/7/6
