mtllib Laura_Sofia_Parra_Ledezma_fase_1.mtl
o Laura_Sofia_Parra_Ledezma_fase_1
v -2.0000 0.0000 2.0000
v -1.0000 0.0000 2.0000
v -1.0000 0.0000 1.0000
v -2.0000 0.0000 1.0000
v -2.0000 -1.0000 2.0000
v -2.0000 -1.0000 1.0000
v -1.0000 -1.0000 1.0000
v -1.0000 -1.0000 2.0000
v -2.0000 -2.0000 1.0000
v -2.0000 -2.0000 -0.0000
v -1.0000 -2.0000 -0.0000
v -1.0000 -2.0000 1.0000
v -2.0000 -1.0000 -0.0000
v -2.0000 0.0000 -0.0000
v -2.0000 1.0000 1.0000
v -1.0000 1.0000 1.0000
v -1.0000 1.0000 -0.0000
v -2.0000 1.0000 -0.0000
v -2.0000 -2.0000 -1.0000
v -1.0000 -2.0000 -1.0000
v -2.0000 -1.0000 -1.0000
v -1.0000 -1.0000 -1.0000
v -2.0000 0.0000 -1.0000
v -1.0000 1.0000 -1.0000
v -2.0000 1.0000 -1.0000
v -1.0000 0.0000 -1.0000
v -1.0000 0.0000 -2.0000
v -2.0000 0.0000 -2.0000
v -2.0000 -1.0000 -2.0000
v -1.0000 -1.0000 -2.0000
v -1.0000 -2.0000 2.0000
v 0.0000 -2.0000 1.0000
v 0.0000 -2.0000 2.0000
v 0.0000 -1.0000 2.0000
v 0.0000 0.0000 2.0000
v -1.0000 1.0000 2.0000
v 0.0000 1.0000 2.0000
v 0.0000 1.0000 1.0000
v 0.0000 -2.0000 -0.0000
v -1.0000 2.0000 1.0000
v 0.0000 2.0000 1.0000
v 0.0000 2.0000 -0.0000
v -1.0000 2.0000 -0.0000
v 0.0000 -2.0000 -1.0000
v 0.0000 2.0000 -1.0000
v -1.0000 2.0000 -1.0000
v 0.0000 1.0000 -1.0000
v -1.0000 -2.0000 -2.0000
v 0.0000 -2.0000 -2.0000
v 0.0000 -1.0000 -2.0000
v 0.0000 0.0000 -2.0000
v 0.0000 1.0000 -2.0000
v -1.0000 1.0000 -2.0000
v 1.0000 -2.0000 1.0000
v 1.0000 -2.0000 2.0000
v 1.0000 -1.0000 2.0000
v 1.0000 -1.0000 1.0000
v 1.0000 0.0000 2.0000
v 1.0000 1.0000 2.0000
v 1.0000 1.0000 1.0000
v 1.0000 0.0000 1.0000
v 1.0000 -2.0000 -0.0000
v 1.0000 2.0000 1.0000
v 1.0000 2.0000 -0.0000
v 1.0000 1.0000 -0.0000
v 1.0000 -2.0000 -1.0000
v 1.0000 2.0000 -1.0000
v 1.0000 1.0000 -1.0000
v 1.0000 -2.0000 -2.0000
v 1.0000 -1.0000 -2.0000
v 1.0000 -1.0000 -1.0000
v 1.0000 0.0000 -2.0000
v 1.0000 1.0000 -2.0000
v 1.0000 0.0000 -1.0000
v 2.0000 0.0000 2.0000
v 2.0000 0.0000 1.0000
v 2.0000 -1.0000 1.0000
v 2.0000 -1.0000 2.0000
v 2.0000 -2.0000 -0.0000
v 2.0000 -2.0000 1.0000
v 2.0000 -1.0000 -0.0000
v 2.0000 0.0000 -0.0000
v 2.0000 1.0000 1.0000
v 2.0000 1.0000 -0.0000
v 2.0000 -2.0000 -1.0000
v 2.0000 -1.0000 -1.0000
v 2.0000 0.0000 -1.0000
v 2.0000 1.0000 -1.0000
v 2.0000 0.0000 -2.0000
v 2.0000 -1.0000 -2.0000
vt 0.001953 0.500000
vt 0.005859 0.500000
vt 0.009766 0.500000
vn 0.0 -1.0 0.0
vn 0.0 1.0 0.0
vn 0.0 0.0 1.0
vn 0.0 0.0 -1.0
vn -1.0 0.0 0.0
vn 1.0 0.0 0.0
usemtl mat_Laura_Sofia_Parra_Ledezma_fase_1
s off
f 1/1/2 2/1/2 3/1/2 4/1/2
f 5/1/1 6/1/1 7/1/1 8/1/1
f 5/1/3 8/1/3 2/1/3 1/1/3
f 5/1/5 1/1/5 4/1/5 6/1/5
f 9/1/1 10/1/1 11/1/1 12/1/1
f 9/1/3 12/1/3 7/1/3 6/1/3
f 9/1/5 6/1/5 13/1/5 10/1/5
f 6/1/5 4/1/5 14/1/5 13/1/5
f 15/1/2 16/1/2 17/1/2 18/1/2
f 4/1/3 3/1/3 16/1/3 15/1/3
f 4/1/5 15/1/5 18/1/5 14/1/5
f 10/1/1 19/1/1 20/1/1 11/1/1
f 19/1/4 21/1/4 22/1/4 20/1/4
f 10/1/5 13/1/5 21/1/5 19/1/5
f 13/1/5 14/1/5 23/1/5 21/1/5
f 18/1/2 17/1/2 24/1/2 25/1/2
f 23/1/4 25/1/4 24/1/4 26/1/4
f 14/1/5 18/1/5 25/1/5 23/1/5
f 23/2/2 26/2/2 27/2/2 28/2/2
f 21/2/1 29/2/1 30/2/1 22/2/1
f 29/2/4 28/2/4 27/2/4 30/2/4
f 21/2/5 23/2/5 28/2/5 29/2/5
f 31/1/1 12/1/1 32/1/1 33/1/1
f 31/1/3 33/1/3 34/1/3 8/1/3
f 31/1/5 8/1/5 7/1/5 12/1/5
f 8/1/3 34/1/3 35/1/3 2/1/3
f 36/1/2 37/1/2 38/1/2 16/1/2
f 2/1/3 35/1/3 37/1/3 36/1/3
f 2/1/5 36/1/5 16/1/5 3/1/5
f 12/1/1 11/1/1 39/1/1 32/1/1
f 40/3/2 41/3/2 42/3/2 43/3/2
f 16/3/3 38/3/3 41/3/3 40/3/3
f 16/3/5 40/3/5 43/3/5 17/3/5
f 11/1/1 20/1/1 44/1/1 39/1/1
f 43/3/2 42/3/2 45/3/2 46/3/2
f 24/3/4 46/3/4 45/3/4 47/3/4
f 17/3/5 43/3/5 46/3/5 24/3/5
f 20/1/1 48/1/1 49/1/1 44/1/1
f 48/1/4 30/1/4 50/1/4 49/1/4
f 20/1/5 22/1/5 30/1/5 48/1/5
f 30/1/4 27/1/4 51/1/4 50/1/4
f 24/1/2 47/1/2 52/1/2 53/1/2
f 27/1/4 53/1/4 52/1/4 51/1/4
f 26/1/5 24/1/5 53/1/5 27/1/5
f 33/1/1 32/1/1 54/1/1 55/1/1
f 33/1/3 55/1/3 56/1/3 34/1/3
f 55/1/6 54/1/6 57/1/6 56/1/6
f 34/1/3 56/1/3 58/1/3 35/1/3
f 37/1/2 59/1/2 60/1/2 38/1/2
f 35/1/3 58/1/3 59/1/3 37/1/3
f 58/1/6 61/1/6 60/1/6 59/1/6
f 32/1/1 39/1/1 62/1/1 54/1/1
f 41/3/2 63/3/2 64/3/2 42/3/2
f 38/3/3 60/3/3 63/3/3 41/3/3
f 60/3/6 65/3/6 64/3/6 63/3/6
f 39/1/1 44/1/1 66/1/1 62/1/1
f 42/3/2 64/3/2 67/3/2 45/3/2
f 47/3/4 45/3/4 67/3/4 68/3/4
f 65/3/6 68/3/6 67/3/6 64/3/6
f 44/1/1 49/1/1 69/1/1 66/1/1
f 49/1/4 50/1/4 70/1/4 69/1/4
f 66/1/6 69/1/6 70/1/6 71/1/6
f 50/1/4 51/1/4 72/1/4 70/1/4
f 47/1/2 68/1/2 73/1/2 52/1/2
f 51/1/4 52/1/4 73/1/4 72/1/4
f 74/1/6 72/1/6 73/1/6 68/1/6
f 58/2/2 75/2/2 76/2/2 61/2/2
f 56/2/1 57/2/1 77/2/1 78/2/1
f 56/2/3 78/2/3 75/2/3 58/2/3
f 78/2/6 77/2/6 76/2/6 75/2/6
f 54/1/1 62/1/1 79/1/1 80/1/1
f 54/1/3 80/1/3 77/1/3 57/1/3
f 80/1/6 79/1/6 81/1/6 77/1/6
f 77/1/6 81/1/6 82/1/6 76/1/6
f 60/2/2 83/2/2 84/2/2 65/2/2
f 61/2/3 76/2/3 83/2/3 60/2/3
f 76/2/6 82/2/6 84/2/6 83/2/6
f 62/1/1 66/1/1 85/1/1 79/1/1
f 66/1/4 71/1/4 86/1/4 85/1/4
f 79/1/6 85/1/6 86/1/6 81/1/6
f 81/1/6 86/1/6 87/1/6 82/1/6
f 65/2/2 84/2/2 88/2/2 68/2/2
f 74/2/4 68/2/4 88/2/4 87/2/4
f 82/2/6 87/2/6 88/2/6 84/2/6
f 74/1/2 87/1/2 89/1/2 72/1/2
f 71/1/1 70/1/1 90/1/1 86/1/1
f 70/1/4 72/1/4 89/1/4 90/1/4
f 86/1/6 90/1/6 89/1/6 87/1/6
