mtllib Laura_Sofia_Parra_Ledezma_fase_2.mtl
o Laura_Sofia_Parra_Ledezma_fase_2
v -4.0000 1.0000 1.0000
v -3.0000 1.0000 1.0000
v -3.0000 1.0000 -0.0000
v -4.0000 1.0000 -0.0000
v -4.0000 0.0000 1.0000
v -4.0000 0.0000 -0.0000
v -3.0000 0.0000 -0.0000
v -3.0000 0.0000 1.0000
v -4.0000 4.0000 1.0000
v -3.0000 4.0000 1.0000
v -3.0000 4.0000 -0.0000
v -4.0000 4.0000 -0.0000
v -4.0000 3.0000 1.0000
v -4.0000 3.0000 -0.0000
v -3.0000 3.0000 -0.0000
v -3.0000 3.0000 1.0000
v -4.0000 -1.0000 -0.0000
v -4.0000 -1.0000 -1.0000
v -3.0000 -1.0000 -1.0000
v -3.0000 -1.0000 -0.0000
v -4.0000 0.0000 -1.0000
v -3.0000 0.0000 -1.0000
v -3.0000 1.0000 -1.0000
v -4.0000 1.0000 -1.0000
v -4.0000 0.0000 -2.0000
v -3.0000 0.0000 -2.0000
v -4.0000 1.0000 -2.0000
v -3.0000 1.0000 -2.0000
v -4.0000 2.0000 -1.0000
v -3.0000 2.0000 -1.0000
v -3.0000 2.0000 -2.0000
v -4.0000 2.0000 -2.0000
v -4.0000 0.0000 -3.0000
v -3.0000 0.0000 -3.0000
v -3.0000 0.0000 -4.0000
v -4.0000 0.0000 -4.0000
v -4.0000 -1.0000 -3.0000
v -4.0000 -1.0000 -4.0000
v -3.0000 -1.0000 -4.0000
v -3.0000 -1.0000 -3.0000
v -3.0000 1.0000 3.0000
v -2.0000 1.0000 3.0000
v -2.0000 1.0000 2.0000
v -3.0000 1.0000 2.0000
v -3.0000 0.0000 3.0000
v -3.0000 0.0000 2.0000
v -2.0000 0.0000 2.0000
v -2.0000 0.0000 3.0000
v -3.0000 4.0000 2.0000
v -2.0000 4.0000 2.0000
v -2.0000 4.0000 1.0000
v -3.0000 3.0000 2.0000
v -2.0000 3.0000 1.0000
v -2.0000 3.0000 2.0000
v -3.0000 2.0000 1.0000
v -3.0000 2.0000 -0.0000
v -2.0000 2.0000 -0.0000
v -2.0000 2.0000 1.0000
v -2.0000 3.0000 -0.0000
v -2.0000 4.0000 -0.0000
v -2.0000 0.0000 -0.0000
v -2.0000 0.0000 -1.0000
v -2.0000 -1.0000 -1.0000
v -2.0000 -1.0000 -0.0000
v -2.0000 4.0000 -1.0000
v -3.0000 4.0000 -1.0000
v -3.0000 3.0000 -1.0000
v -2.0000 3.0000 -1.0000
v -2.0000 1.0000 -1.0000
v -2.0000 1.0000 -2.0000
v -2.0000 0.0000 -2.0000
v -2.0000 1.0000 -3.0000
v -3.0000 1.0000 -3.0000
v -2.0000 0.0000 -3.0000
v -2.0000 1.0000 4.0000
v -1.0000 1.0000 4.0000
v -1.0000 1.0000 3.0000
v -2.0000 0.0000 4.0000
v -1.0000 0.0000 3.0000
v -1.0000 0.0000 4.0000
v -1.0000 0.0000 2.0000
v -1.0000 1.0000 2.0000
v -2.0000 2.0000 3.0000
v -1.0000 2.0000 3.0000
v -1.0000 2.0000 2.0000
v -2.0000 2.0000 2.0000
v -2.0000 -1.0000 1.0000
v -1.0000 -1.0000 1.0000
v -1.0000 -1.0000 -0.0000
v -2.0000 -2.0000 1.0000
v -2.0000 -2.0000 -0.0000
v -1.0000 -2.0000 -0.0000
v -1.0000 -2.0000 1.0000
v -2.0000 1.0000 1.0000
v -2.0000 1.0000 -0.0000
v -1.0000 1.0000 -0.0000
v -1.0000 1.0000 1.0000
v -1.0000 2.0000 1.0000
v -1.0000 3.0000 1.0000
v -1.0000 3.0000 -0.0000
v -1.0000 2.0000 -0.0000
v -1.0000 4.0000 1.0000
v -1.0000 4.0000 -0.0000
v -2.0000 -2.0000 -1.0000
v -1.0000 -2.0000 -1.0000
v -1.0000 -1.0000 -1.0000
v -1.0000 0.0000 -0.0000
v -1.0000 0.0000 -1.0000
v -1.0000 2.0000 -1.0000
v -2.0000 2.0000 -1.0000
v -1.0000 1.0000 -1.0000
v -1.0000 4.0000 -1.0000
v -1.0000 3.0000 -1.0000
v -2.0000 4.0000 -2.0000
v -1.0000 4.0000 -2.0000
v -1.0000 4.0000 -3.0000
v -2.0000 4.0000 -3.0000
v -2.0000 3.0000 -2.0000
v -2.0000 3.0000 -3.0000
v -1.0000 3.0000 -3.0000
v -1.0000 3.0000 -2.0000
v -1.0000 -1.0000 4.0000
v -1.0000 -1.0000 3.0000
v 0.0000 -1.0000 3.0000
v 0.0000 -1.0000 4.0000
v 0.0000 0.0000 4.0000
v 0.0000 0.0000 3.0000
v 0.0000 1.0000 4.0000
v 0.0000 1.0000 3.0000
v -1.0000 -1.0000 2.0000
v 0.0000 -1.0000 2.0000
v 0.0000 1.0000 2.0000
v 0.0000 0.0000 2.0000
v -1.0000 4.0000 3.0000
v 0.0000 4.0000 3.0000
v 0.0000 4.0000 2.0000
v -1.0000 4.0000 2.0000
v -1.0000 3.0000 3.0000
v -1.0000 3.0000 2.0000
v 0.0000 3.0000 2.0000
v 0.0000 3.0000 3.0000
v -1.0000 -2.0000 2.0000
v 0.0000 -2.0000 1.0000
v 0.0000 -2.0000 2.0000
v 0.0000 0.0000 1.0000
v -1.0000 0.0000 1.0000
v 0.0000 -1.0000 1.0000
v 0.0000 2.0000 2.0000
v 0.0000 2.0000 1.0000
v 0.0000 1.0000 1.0000
v 0.0000 4.0000 1.0000
v 0.0000 3.0000 1.0000
v -1.0000 -4.0000 1.0000
v -1.0000 -4.0000 -0.0000
v 0.0000 -4.0000 -0.0000
v 0.0000 -4.0000 1.0000
v 0.0000 -3.0000 1.0000
v -1.0000 -3.0000 1.0000
v -1.0000 -3.0000 -0.0000
v 0.0000 3.0000 -0.0000
v -1.0000 -4.0000 -1.0000
v 0.0000 -4.0000 -1.0000
v -1.0000 -3.0000 -1.0000
v 0.0000 -3.0000 -1.0000
v 0.0000 -2.0000 -1.0000
v 0.0000 0.0000 -1.0000
v 0.0000 -1.0000 -1.0000
v 0.0000 1.0000 -1.0000
v 0.0000 4.0000 -0.0000
v 0.0000 4.0000 -1.0000
v 0.0000 3.0000 -1.0000
v 0.0000 -1.0000 -2.0000
v -1.0000 -1.0000 -2.0000
v -1.0000 -2.0000 -2.0000
v 0.0000 -2.0000 -2.0000
v -1.0000 1.0000 -2.0000
v 0.0000 1.0000 -2.0000
v -1.0000 2.0000 -2.0000
v 0.0000 2.0000 -2.0000
v 0.0000 3.0000 -2.0000
v 0.0000 2.0000 -1.0000
v -1.0000 2.0000 -3.0000
v 0.0000 2.0000 -3.0000
v 0.0000 3.0000 -3.0000
v 0.0000 4.0000 -2.0000
v 0.0000 4.0000 -3.0000
v -1.0000 1.0000 -3.0000
v 0.0000 1.0000 -3.0000
v 0.0000 1.0000 -4.0000
v -1.0000 1.0000 -4.0000
v -1.0000 0.0000 -3.0000
v -1.0000 0.0000 -4.0000
v 0.0000 0.0000 -4.0000
v 0.0000 0.0000 -3.0000
v 0.0000 4.0000 -4.0000
v -1.0000 4.0000 -4.0000
v -1.0000 3.0000 -4.0000
v 0.0000 3.0000 -4.0000
v 1.0000 0.0000 3.0000
v 1.0000 0.0000 4.0000
v 1.0000 1.0000 4.0000
v 1.0000 1.0000 3.0000
v 0.0000 2.0000 4.0000
v 1.0000 2.0000 4.0000
v 1.0000 2.0000 3.0000
v 0.0000 2.0000 3.0000
v 0.0000 4.0000 4.0000
v 1.0000 4.0000 4.0000
v 1.0000 4.0000 3.0000
v 0.0000 3.0000 4.0000
v 1.0000 3.0000 3.0000
v 1.0000 3.0000 4.0000
v 1.0000 0.0000 2.0000
v 1.0000 -1.0000 2.0000
v 1.0000 -1.0000 3.0000
v 1.0000 2.0000 2.0000
v 1.0000 4.0000 2.0000
v 1.0000 3.0000 2.0000
v 1.0000 -1.0000 1.0000
v 1.0000 -2.0000 1.0000
v 1.0000 -2.0000 2.0000
v 1.0000 1.0000 1.0000
v 1.0000 1.0000 2.0000
v 1.0000 2.0000 1.0000
v 1.0000 3.0000 1.0000
v 1.0000 -4.0000 -0.0000
v 1.0000 -4.0000 1.0000
v 1.0000 -3.0000 1.0000
v 1.0000 -3.0000 -0.0000
v 1.0000 -2.0000 -0.0000
v 1.0000 0.0000 1.0000
v 1.0000 3.0000 -0.0000
v 1.0000 -4.0000 -1.0000
v 1.0000 -3.0000 -1.0000
v 1.0000 -2.0000 -1.0000
v 1.0000 -1.0000 -0.0000
v 1.0000 -1.0000 -1.0000
v 1.0000 0.0000 -1.0000
v 1.0000 0.0000 -0.0000
v 1.0000 1.0000 -1.0000
v 1.0000 1.0000 -0.0000
v 1.0000 3.0000 -1.0000
v 1.0000 2.0000 -1.0000
v 1.0000 -2.0000 -2.0000
v 1.0000 -1.0000 -2.0000
v 1.0000 0.0000 -2.0000
v 0.0000 0.0000 -2.0000
v 1.0000 1.0000 -2.0000
v 1.0000 2.0000 -2.0000
v 1.0000 4.0000 -1.0000
v 1.0000 4.0000 -2.0000
v 1.0000 3.0000 -2.0000
v 1.0000 0.0000 -3.0000
v 0.0000 -1.0000 -3.0000
v 1.0000 -1.0000 -3.0000
v 1.0000 4.0000 -3.0000
v 1.0000 3.0000 -3.0000
v 0.0000 -1.0000 -4.0000
v 1.0000 -1.0000 -4.0000
v 1.0000 0.0000 -4.0000
v 1.0000 1.0000 -3.0000
v 1.0000 1.0000 -4.0000
v 2.0000 2.0000 2.0000
v 2.0000 2.0000 3.0000
v 2.0000 3.0000 3.0000
v 2.0000 3.0000 2.0000
v 2.0000 4.0000 3.0000
v 2.0000 4.0000 2.0000
v 2.0000 3.0000 1.0000
v 2.0000 2.0000 1.0000
v 2.0000 -2.0000 -0.0000
v 2.0000 -2.0000 1.0000
v 2.0000 -1.0000 1.0000
v 2.0000 -1.0000 -0.0000
v 2.0000 0.0000 1.0000
v 2.0000 0.0000 -0.0000
v 2.0000 1.0000 1.0000
v 2.0000 1.0000 -0.0000
v 2.0000 2.0000 -0.0000
v 1.0000 4.0000 1.0000
v 2.0000 4.0000 1.0000
v 2.0000 4.0000 -0.0000
v 1.0000 4.0000 -0.0000
v 2.0000 3.0000 -0.0000
v 2.0000 -1.0000 -1.0000
v 2.0000 -2.0000 -1.0000
v 2.0000 1.0000 -1.0000
v 2.0000 2.0000 -1.0000
v 2.0000 3.0000 -1.0000
v 2.0000 1.0000 -2.0000
v 2.0000 1.0000 -3.0000
v 2.0000 0.0000 -3.0000
v 2.0000 0.0000 -2.0000
v 2.0000 0.0000 -4.0000
v 2.0000 1.0000 -4.0000
v 1.0000 2.0000 -3.0000
v 2.0000 2.0000 -3.0000
v 2.0000 2.0000 -4.0000
v 1.0000 2.0000 -4.0000
v 2.0000 0.0000 3.0000
v 2.0000 0.0000 2.0000
v 3.0000 0.0000 2.0000
v 3.0000 0.0000 3.0000
v 3.0000 1.0000 3.0000
v 2.0000 1.0000 3.0000
v 3.0000 1.0000 2.0000
v 2.0000 1.0000 2.0000
v 3.0000 2.0000 3.0000
v 3.0000 2.0000 2.0000
v 3.0000 1.0000 1.0000
v 3.0000 0.0000 1.0000
v 3.0000 0.0000 -0.0000
v 3.0000 -1.0000 -0.0000
v 3.0000 -1.0000 1.0000
v 3.0000 2.0000 -0.0000
v 3.0000 2.0000 1.0000
v 3.0000 3.0000 1.0000
v 3.0000 3.0000 -0.0000
v 3.0000 4.0000 1.0000
v 3.0000 4.0000 -0.0000
v 3.0000 2.0000 -1.0000
v 3.0000 3.0000 -1.0000
v 3.0000 4.0000 -1.0000
v 2.0000 4.0000 -1.0000
v 3.0000 4.0000 -2.0000
v 2.0000 4.0000 -2.0000
v 2.0000 3.0000 -2.0000
v 3.0000 3.0000 -2.0000
v 3.0000 1.0000 -2.0000
v 3.0000 1.0000 -3.0000
v 3.0000 0.0000 -3.0000
v 3.0000 0.0000 -2.0000
v 4.0000 0.0000 1.0000
v 4.0000 0.0000 2.0000
v 4.0000 1.0000 2.0000
v 4.0000 1.0000 1.0000
v 4.0000 2.0000 2.0000
v 4.0000 2.0000 1.0000
v 4.0000 -1.0000 -0.0000
v 4.0000 -1.0000 1.0000
v 4.0000 0.0000 -0.0000
v 4.0000 1.0000 -0.0000
v 3.0000 1.0000 -0.0000
v 4.0000 1.0000 -1.0000
v 3.0000 1.0000 -1.0000
v 3.0000 0.0000 -1.0000
v 4.0000 0.0000 -1.0000
v 4.0000 4.0000 -0.0000
v 4.0000 4.0000 -1.0000
v 4.0000 3.0000 -1.0000
v 4.0000 3.0000 -0.0000
vt 0.001953 0.500000
vt 0.005859 0.500000
vt 0.009766 0.500000
vt 0.013672 0.500000
vt 0.017578 0.500000
vn 0.0 -1.0 0.0
vn 0.0 1.0 0.0
vn 0.0 0.0 1.0
vn 0.0 0.0 -1.0
vn -1.0 0.0 0.0
vn 1.0 0.0 0.0
usemtl mat_Laura_Sofia_Parra_Ledezma_fase_2
s off
f 1/1/2 2/1/2 3/1/2 4/1/2
f 5/1/1 6/1/1 7/1/1 8/1/1
f 5/1/3 8/1/3 2/1/3 1/1/3
f 8/1/6 7/1/6 3/1/6 2/1/6
f 5/1/5 1/1/5 4/1/5 6/1/5
f 9/1/2 10/1/2 11/1/2 12/1/2
f 13/1/1 14/1/1 15/1/1 16/1/1
f 13/1/3 16/1/3 10/1/3 9/1/3
f 14/1/4 12/1/4 11/1/4 15/1/4
f 13/1/5 9/1/5 12/1/5 14/1/5
f 17/2/1 18/2/1 19/2/1 20/2/1
f 17/2/3 20/2/3 7/2/3 6/2/3
f 18/2/4 21/2/4 22/2/4 19/2/4
f 17/2/5 6/2/5 21/2/5 18/2/5
f 4/3/2 3/3/2 23/3/2 24/3/2
f 7/3/6 22/3/6 23/3/6 3/3/6
f 6/3/5 4/3/5 24/3/5 21/3/5
f 21/1/1 25/1/1 26/1/1 22/1/1
f 25/1/4 27/1/4 28/1/4 26/1/4
f 21/1/5 24/1/5 27/1/5 25/1/5
f 29/4/2 30/4/2 31/4/2 32/4/2
f 24/4/3 23/4/3 30/4/3 29/4/3
f 27/4/4 32/4/4 31/4/4 28/4/4
f 23/4/6 28/4/6 31/4/6 30/4/6
f 24/4/5 29/4/5 32/4/5 27/4/5
f 33/4/2 34/4/2 35/4/2 36/4/2
f 37/4/1 38/4/1 39/4/1 40/4/1
f 37/4/3 40/4/3 34/4/3 33/4/3
f 38/4/4 36/4/4 35/4/4 39/4/4
f 40/4/6 39/4/6 35/4/6 34/4/6
f 37/4/5 33/4/5 36/4/5 38/4/5
f 41/1/2 42/1/2 43/1/2 44/1/2
f 45/1/1 46/1/1 47/1/1 48/1/1
f 45/1/3 48/1/3 42/1/3 41/1/3
f 46/1/4 44/1/4 43/1/4 47/1/4
f 45/1/5 41/1/5 44/1/5 46/1/5
f 49/1/2 50/1/2 51/1/2 10/1/2
f 52/1/1 16/1/1 53/1/1 54/1/1
f 52/1/3 54/1/3 50/1/3 49/1/3
f 54/1/6 53/1/6 51/1/6 50/1/6
f 52/1/5 49/1/5 10/1/5 16/1/5
f 55/1/1 56/1/1 57/1/1 58/1/1
f 55/1/3 58/1/3 53/1/3 16/1/3
f 56/1/4 15/1/4 59/1/4 57/1/4
f 55/1/5 16/1/5 15/1/5 56/1/5
f 10/1/2 51/1/2 60/1/2 11/1/2
f 7/2/2 61/2/2 62/2/2 22/2/2
f 20/2/1 19/2/1 63/2/1 64/2/1
f 20/2/3 64/2/3 61/2/3 7/2/3
f 19/2/4 22/2/4 62/2/4 63/2/4
f 11/1/2 60/1/2 65/1/2 66/1/2
f 15/1/1 67/1/1 68/1/1 59/1/1
f 67/1/4 66/1/4 65/1/4 68/1/4
f 15/1/5 11/1/5 66/1/5 67/1/5
f 23/3/2 69/3/2 70/3/2 28/3/2
f 22/3/1 26/3/1 71/3/1 62/3/1
f 22/3/3 62/3/3 69/3/3 23/3/3
f 62/3/6 71/3/6 70/3/6 69/3/6
f 28/1/2 70/1/2 72/1/2 73/1/2
f 26/1/1 34/1/1 74/1/1 71/1/1
f 34/1/4 73/1/4 72/1/4 74/1/4
f 71/1/6 74/1/6 72/1/6 70/1/6
f 26/1/5 28/1/5 73/1/5 34/1/5
f 75/1/2 76/1/2 77/1/2 42/1/2
f 78/1/1 48/1/1 79/1/1 80/1/1
f 78/1/3 80/1/3 76/1/3 75/1/3
f 78/1/5 75/1/5 42/1/5 48/1/5
f 48/1/1 47/1/1 81/1/1 79/1/1
f 47/1/4 43/1/4 82/1/4 81/1/4
f 83/4/2 84/4/2 85/4/2 86/4/2
f 42/4/3 77/4/3 84/4/3 83/4/3
f 43/4/4 86/4/4 85/4/4 82/4/4
f 77/4/6 82/4/6 85/4/6 84/4/6
f 42/4/5 83/4/5 86/4/5 43/4/5
f 87/1/2 88/1/2 89/1/2 64/1/2
f 90/1/1 91/1/1 92/1/1 93/1/1
f 90/1/3 93/1/3 88/1/3 87/1/3
f 90/1/5 87/1/5 64/1/5 91/1/5
f 94/2/1 95/2/1 96/2/1 97/2/1
f 94/2/3 97/2/3 98/2/3 58/2/3
f 94/2/5 58/2/5 57/2/5 95/2/5
f 58/1/3 98/1/3 99/1/3 53/1/3
f 57/1/4 59/1/4 100/1/4 101/1/4
f 51/4/2 102/4/2 103/4/2 60/4/2
f 53/4/3 99/4/3 102/4/3 51/4/3
f 99/4/6 100/4/6 103/4/6 102/4/6
f 91/2/1 104/2/1 105/2/1 92/2/1
f 104/2/4 63/2/4 106/2/4 105/2/4
f 91/2/5 64/2/5 63/2/5 104/2/5
f 61/2/2 107/2/2 108/2/2 62/2/2
f 64/2/3 89/2/3 107/2/3 61/2/3
f 63/2/4 62/2/4 108/2/4 106/2/4
f 57/1/2 101/1/2 109/1/2 110/1/2
f 95/1/1 69/1/1 111/1/1 96/1/1
f 69/1/4 110/1/4 109/1/4 111/1/4
f 95/1/5 57/1/5 110/1/5 69/1/5
f 60/1/2 103/1/2 112/1/2 65/1/2
f 59/1/1 68/1/1 113/1/1 100/1/1
f 68/1/4 65/1/4 112/1/4 113/1/4
f 114/1/2 115/1/2 116/1/2 117/1/2
f 118/1/1 119/1/1 120/1/1 121/1/1
f 118/1/3 121/1/3 115/1/3 114/1/3
f 119/1/4 117/1/4 116/1/4 120/1/4
f 118/1/5 114/1/5 117/1/5 119/1/5
f 122/1/1 123/1/1 124/1/1 125/1/1
f 122/1/3 125/1/3 126/1/3 80/1/3
f 125/1/6 124/1/6 127/1/6 126/1/6
f 122/1/5 80/1/5 79/1/5 123/1/5
f 76/1/2 128/1/2 129/1/2 77/1/2
f 80/1/3 126/1/3 128/1/3 76/1/3
f 123/1/1 130/1/1 131/1/1 124/1/1
f 123/1/5 79/1/5 81/1/5 130/1/5
f 77/4/2 129/4/2 132/4/2 82/4/2
f 81/4/4 82/4/4 132/4/4 133/4/4
f 127/4/6 133/4/6 132/4/6 129/4/6
f 134/1/2 135/1/2 136/1/2 137/1/2
f 138/1/1 139/1/1 140/1/1 141/1/1
f 138/1/3 141/1/3 135/1/3 134/1/3
f 138/1/5 134/1/5 137/1/5 139/1/5
f 142/1/1 93/1/1 143/1/1 144/1/1
f 142/1/3 144/1/3 131/1/3 130/1/3
f 142/1/5 130/1/5 88/1/5 93/1/5
f 81/1/2 133/1/2 145/1/2 146/1/2
f 131/1/6 147/1/6 145/1/6 133/1/6
f 130/1/5 81/1/5 146/1/5 88/1/5
f 85/1/2 148/1/2 149/1/2 98/1/2
f 82/1/1 97/1/1 150/1/1 132/1/1
f 82/1/3 132/1/3 148/1/3 85/1/3
f 82/1/5 85/1/5 98/1/5 97/1/5
f 137/1/2 136/1/2 151/1/2 102/1/2
f 139/1/1 99/1/1 152/1/1 140/1/1
f 99/1/4 102/1/4 151/1/4 152/1/4
f 140/1/6 152/1/6 151/1/6 136/1/6
f 139/1/5 137/1/5 102/1/5 99/1/5
f 153/2/1 154/2/1 155/2/1 156/2/1
f 153/2/3 156/2/3 157/2/3 158/2/3
f 153/2/5 158/2/5 159/2/5 154/2/5
f 158/2/3 157/2/3 143/2/3 93/2/3
f 158/2/5 93/2/5 92/2/5 159/2/5
f 88/1/5 146/1/5 107/1/5 89/1/5
f 146/1/3 145/1/3 150/1/3 97/1/3
f 146/1/5 97/1/5 96/1/5 107/1/5
f 99/1/2 152/1/2 160/1/2 100/1/2
f 98/1/3 149/1/3 152/1/3 99/1/3
f 154/2/1 161/2/1 162/2/1 155/2/1
f 161/2/4 163/2/4 164/2/4 162/2/4
f 154/2/5 159/2/5 163/2/5 161/2/5
f 163/2/4 105/2/4 165/2/4 164/2/4
f 159/2/5 92/2/5 105/2/5 163/2/5
f 106/2/4 108/2/4 166/2/4 167/2/4
f 108/2/4 111/2/4 168/2/4 166/2/4
f 107/2/5 96/2/5 111/2/5 108/2/5
f 101/1/5 100/1/5 113/1/5 109/1/5
f 103/4/2 169/4/2 170/4/2 112/4/2
f 100/4/3 160/4/3 169/4/3 103/4/3
f 113/4/4 112/4/4 170/4/4 171/4/4
f 160/4/6 171/4/6 170/4/6 169/4/6
f 106/1/2 167/1/2 172/1/2 173/1/2
f 105/1/1 174/1/1 175/1/1 165/1/1
f 174/1/4 173/1/4 172/1/4 175/1/4
f 105/1/5 106/1/5 173/1/5 174/1/5
f 111/2/1 176/2/1 177/2/1 168/2/1
f 176/2/4 178/2/4 179/2/4 177/2/4
f 111/2/5 109/2/5 178/2/5 176/2/5
f 113/1/2 171/1/2 180/1/2 121/1/2
f 181/1/6 179/1/6 180/1/6 171/1/6
f 109/1/5 113/1/5 121/1/5 178/1/5
f 178/1/1 182/1/1 183/1/1 179/1/1
f 182/1/4 120/1/4 184/1/4 183/1/4
f 179/1/6 183/1/6 184/1/6 180/1/6
f 178/1/5 121/1/5 120/1/5 182/1/5
f 115/1/2 185/1/2 186/1/2 116/1/2
f 121/1/3 180/1/3 185/1/3 115/1/3
f 187/1/2 188/1/2 189/1/2 190/1/2
f 191/1/1 192/1/1 193/1/1 194/1/1
f 191/1/3 194/1/3 188/1/3 187/1/3
f 192/1/4 190/1/4 189/1/4 193/1/4
f 191/1/5 187/1/5 190/1/5 192/1/5
f 116/1/2 186/1/2 195/1/2 196/1/2
f 120/1/1 197/1/1 198/1/1 184/1/1
f 197/1/4 196/1/4 195/1/4 198/1/4
f 184/1/6 198/1/6 195/1/6 186/1/6
f 120/1/5 116/1/5 196/1/5 197/1/5
f 126/1/1 127/1/1 199/1/1 200/1/1
f 126/1/3 200/1/3 201/1/3 128/1/3
f 127/1/4 129/1/4 202/1/4 199/1/4
f 200/1/6 199/1/6 202/1/6 201/1/6
f 203/4/2 204/4/2 205/4/2 206/4/2
f 128/4/3 201/4/3 204/4/3 203/4/3
f 129/4/4 206/4/4 205/4/4 202/4/4
f 201/4/6 202/4/6 205/4/6 204/4/6
f 128/4/5 203/4/5 206/4/5 129/4/5
f 207/1/2 208/1/2 209/1/2 135/1/2
f 210/1/1 141/1/1 211/1/1 212/1/1
f 210/1/3 212/1/3 208/1/3 207/1/3
f 212/1/6 211/1/6 209/1/6 208/1/6
f 210/1/5 207/1/5 135/1/5 141/1/5
f 127/4/2 199/4/2 213/4/2 133/4/2
f 124/4/1 131/4/1 214/4/1 215/4/1
f 124/4/3 215/4/3 199/4/3 127/4/3
f 131/4/4 133/4/4 213/4/4 214/4/4
f 215/4/6 214/4/6 213/4/6 199/4/6
f 206/1/1 148/1/1 216/1/1 205/1/1
f 206/1/3 205/1/3 211/1/3 141/1/3
f 206/1/5 141/1/5 140/1/5 148/1/5
f 135/1/2 209/1/2 217/1/2 136/1/2
f 140/1/4 136/1/4 217/1/4 218/1/4
f 131/1/2 214/1/2 219/1/2 147/1/2
f 144/1/1 143/1/1 220/1/1 221/1/1
f 144/1/3 221/1/3 214/1/3 131/1/3
f 221/1/6 220/1/6 219/1/6 214/1/6
f 132/1/1 150/1/1 222/1/1 223/1/1
f 132/1/3 223/1/3 216/1/3 148/1/3
f 223/1/6 222/1/6 224/1/6 216/1/6
f 140/1/2 218/1/2 225/1/2 152/1/2
f 148/1/5 140/1/5 152/1/5 149/1/5
f 156/3/1 155/3/1 226/3/1 227/3/1
f 156/3/3 227/3/3 228/3/3 157/3/3
f 227/3/6 226/3/6 229/3/6 228/3/6
f 157/3/3 228/3/3 220/3/3 143/3/3
f 228/3/6 229/3/6 230/3/6 220/3/6
f 147/1/3 219/1/3 231/1/3 145/1/3
f 145/1/3 231/1/3 222/1/3 150/1/3
f 152/1/2 225/1/2 232/1/2 160/1/2
f 155/2/1 162/2/1 233/2/1 226/2/1
f 162/2/4 164/2/4 234/2/4 233/2/4
f 226/2/6 233/2/6 234/2/6 229/2/6
f 164/2/4 165/2/4 235/2/4 234/2/4
f 229/2/6 234/2/6 235/2/6 230/2/6
f 236/1/6 237/1/6 238/1/6 239/1/6
f 239/1/6 238/1/6 240/1/6 241/1/6
f 160/1/2 232/1/2 242/1/2 171/1/2
f 181/1/4 171/1/4 242/1/4 243/1/4
f 165/2/1 175/2/1 244/2/1 235/2/1
f 175/2/4 172/2/4 245/2/4 244/2/4
f 235/2/6 244/2/6 245/2/6 237/2/6
f 237/2/6 245/2/6 246/2/6 238/2/6
f 167/2/5 166/2/5 247/2/5 172/2/5
f 247/4/4 177/4/4 248/4/4 246/4/4
f 238/4/6 246/4/6 248/4/6 240/4/6
f 166/4/5 168/4/5 177/4/5 247/4/5
f 181/1/2 243/1/2 249/1/2 179/1/2
f 177/1/4 179/1/4 249/1/4 248/1/4
f 240/1/6 248/1/6 249/1/6 243/1/6
f 170/1/2 250/1/2 251/1/2 185/1/2
f 171/1/1 180/1/1 252/1/1 242/1/1
f 171/1/3 242/1/3 250/1/3 170/1/3
f 242/1/6 252/1/6 251/1/6 250/1/6
f 171/1/5 170/1/5 185/1/5 180/1/5
f 247/2/2 246/2/2 253/2/2 194/2/2
f 172/2/1 254/2/1 255/2/1 245/2/1
f 245/2/6 255/2/6 253/2/6 246/2/6
f 172/2/5 247/2/5 194/2/5 254/2/5
f 185/1/2 251/1/2 256/1/2 186/1/2
f 180/1/1 184/1/1 257/1/1 252/1/1
f 184/1/4 186/1/4 256/1/4 257/1/4
f 252/1/6 257/1/6 256/1/6 251/1/6
f 254/2/1 258/2/1 259/2/1 255/2/1
f 258/2/4 193/2/4 260/2/4 259/2/4
f 255/2/6 259/2/6 260/2/6 253/2/6
f 254/2/5 194/2/5 193/2/5 258/2/5
f 188/1/2 261/1/2 262/1/2 189/1/2
f 194/1/3 253/1/3 261/1/3 188/1/3
f 193/1/4 189/1/4 262/1/4 260/1/4
f 205/4/1 216/4/1 263/4/1 264/4/1
f 205/4/3 264/4/3 265/4/3 211/4/3
f 264/4/6 263/4/6 266/4/6 265/4/6
f 209/1/2 267/1/2 268/1/2 217/1/2
f 211/1/3 265/1/3 267/1/3 209/1/3
f 218/1/4 217/1/4 268/1/4 266/1/4
f 265/1/6 266/1/6 268/1/6 267/1/6
f 218/4/2 266/4/2 269/4/2 225/4/2
f 216/4/1 224/4/1 270/4/1 263/4/1
f 263/4/6 270/4/6 269/4/6 266/4/6
f 220/1/1 230/1/1 271/1/1 272/1/1
f 220/1/3 272/1/3 273/1/3 219/1/3
f 272/1/6 271/1/6 274/1/6 273/1/6
f 219/1/3 273/1/3 275/1/3 231/1/3
f 236/1/4 239/1/4 276/1/4 274/1/4
f 231/4/3 275/4/3 277/4/3 222/4/3
f 239/4/4 241/4/4 278/4/4 276/4/4
f 275/4/6 276/4/6 278/4/6 277/4/6
f 222/1/3 277/1/3 270/1/3 224/1/3
f 277/1/6 278/1/6 279/1/6 270/1/6
f 280/1/2 281/1/2 282/1/2 283/1/2
f 225/1/3 269/1/3 281/1/3 280/1/3
f 232/1/4 283/1/4 282/1/4 284/1/4
f 225/1/5 280/1/5 283/1/5 232/1/5
f 236/1/2 274/1/2 285/1/2 237/1/2
f 230/1/1 235/1/1 286/1/1 271/1/1
f 235/1/4 237/1/4 285/1/4 286/1/4
f 271/1/6 286/1/6 285/1/6 274/1/6
f 241/1/1 240/1/1 287/1/1 278/1/1
f 240/1/4 243/1/4 288/1/4 287/1/4
f 278/1/6 287/1/6 288/1/6 279/1/6
f 232/1/2 284/1/2 289/1/2 242/1/2
f 243/1/4 242/1/4 289/1/4 288/1/4
f 248/1/2 290/1/2 291/1/2 261/1/2
f 246/1/1 253/1/1 292/1/1 293/1/1
f 246/1/3 293/1/3 290/1/3 248/1/3
f 246/1/5 248/1/5 261/1/5 253/1/5
f 253/1/1 260/1/1 294/1/1 292/1/1
f 260/1/4 262/1/4 295/1/4 294/1/4
f 292/1/6 294/1/6 295/1/6 291/1/6
f 296/4/2 297/4/2 298/4/2 299/4/2
f 261/4/3 291/4/3 297/4/3 296/4/3
f 262/4/4 299/4/4 298/4/4 295/4/4
f 291/4/6 295/4/6 298/4/6 297/4/6
f 261/4/5 296/4/5 299/4/5 262/4/5
f 300/1/1 301/1/1 302/1/1 303/1/1
f 300/1/3 303/1/3 304/1/3 305/1/3
f 303/1/6 302/1/6 306/1/6 304/1/6
f 300/1/5 305/1/5 307/1/5 301/1/5
f 264/4/2 308/4/2 309/4/2 263/4/2
f 305/4/3 304/4/3 308/4/3 264/4/3
f 307/4/4 263/4/4 309/4/4 306/4/4
f 304/4/6 306/4/6 309/4/6 308/4/6
f 305/4/5 264/4/5 263/4/5 307/4/5
f 307/1/2 306/1/2 310/1/2 277/1/2
f 301/1/1 275/1/1 311/1/1 302/1/1
f 275/1/4 277/1/4 310/1/4 311/1/4
f 301/1/5 307/1/5 277/1/5 275/1/5
f 275/1/2 311/1/2 312/1/2 276/1/2
f 273/1/1 274/1/1 313/1/1 314/1/1
f 273/1/3 314/1/3 311/1/3 275/1/3
f 274/1/4 276/1/4 312/1/4 313/1/4
f 270/1/1 279/1/1 315/1/1 316/1/1
f 270/1/3 316/1/3 317/1/3 269/1/3
f 316/1/6 315/1/6 318/1/6 317/1/6
f 281/1/2 319/1/2 320/1/2 282/1/2
f 269/1/3 317/1/3 319/1/3 281/1/3
f 317/1/6 318/1/6 320/1/6 319/1/6
f 279/1/1 288/1/1 321/1/1 315/1/1
f 288/1/4 289/1/4 322/1/4 321/1/4
f 315/1/6 321/1/6 322/1/6 318/1/6
f 282/1/2 320/1/2 323/1/2 324/1/2
f 284/1/5 282/1/5 324/1/5 289/1/5
f 324/1/2 323/1/2 325/1/2 326/1/2
f 289/1/1 327/1/1 328/1/1 322/1/1
f 327/1/4 326/1/4 325/1/4 328/1/4
f 322/1/6 328/1/6 325/1/6 323/1/6
f 289/1/5 324/1/5 326/1/5 327/1/5
f 290/1/2 329/1/2 330/1/2 291/1/2
f 293/1/1 292/1/1 331/1/1 332/1/1
f 293/1/3 332/1/3 329/1/3 290/1/3
f 292/1/4 291/1/4 330/1/4 331/1/4
f 332/1/6 331/1/6 330/1/6 329/1/6
f 302/1/1 311/1/1 333/1/1 334/1/1
f 302/1/3 334/1/3 335/1/3 306/1/3
f 334/1/6 333/1/6 336/1/6 335/1/6
f 309/4/2 337/4/2 338/4/2 316/4/2
f 306/4/3 335/4/3 337/4/3 309/4/3
f 310/4/4 316/4/4 338/4/4 336/4/4
f 335/4/6 336/4/6 338/4/6 337/4/6
f 306/4/5 309/4/5 316/4/5 310/4/5
f 314/1/1 313/1/1 339/1/1 340/1/1
f 314/1/3 340/1/3 333/1/3 311/1/3
f 313/1/4 312/1/4 341/1/4 339/1/4
f 340/1/6 339/1/6 341/1/6 333/1/6
f 310/1/2 336/1/2 342/1/2 343/1/2
f 333/1/6 341/1/6 342/1/6 336/1/6
f 311/1/5 310/1/5 343/1/5 312/1/5
f 343/1/2 342/1/2 344/1/2 345/1/2
f 312/1/1 346/1/1 347/1/1 341/1/1
f 346/1/4 345/1/4 344/1/4 347/1/4
f 341/1/6 347/1/6 344/1/6 342/1/6
f 312/1/5 343/1/5 345/1/5 346/1/5
f 320/1/2 348/1/2 349/1/2 323/1/2
f 318/1/1 322/1/1 350/1/1 351/1/1
f 318/1/3 351/1/3 348/1/3 320/1/3
f 322/1/4 323/1/4 349/1/4 350/1/4
f 351/1/6 350/1/6 349/1/6 348/1/6
