mtllib Lyander_Anthony_Hernández_Acosta_fase_2.mtl
o Lyander_Anthony_Hernández_Acosta_fase_2
v -4.0000 3.0000 2.0000
v -3.0000 3.0000 2.0000
v -3.0000 3.0000 1.0000
v -4.0000 3.0000 1.0000
v -4.0000 2.0000 2.0000
v -4.0000 2.0000 1.0000
v -3.0000 2.0000 1.0000
v -3.0000 2.0000 2.0000
v -3.0000 3.0000 -0.0000
v -4.0000 3.0000 -0.0000
v -4.0000 2.0000 -0.0000
v -3.0000 2.0000 -0.0000
v -3.0000 2.0000 -1.0000
v -4.0000 2.0000 -1.0000
v -4.0000 1.0000 -0.0000
v -4.0000 1.0000 -1.0000
v -3.0000 1.0000 -1.0000
v -3.0000 1.0000 -0.0000
v -3.0000 3.0000 3.0000
v -2.0000 3.0000 3.0000
v -2.0000 3.0000 2.0000
v -3.0000 2.0000 3.0000
v -2.0000 2.0000 2.0000
v -2.0000 2.0000 3.0000
v -3.0000 -3.0000 2.0000
v -2.0000 -3.0000 2.0000
v -2.0000 -3.0000 1.0000
v -3.0000 -3.0000 1.0000
v -3.0000 -4.0000 2.0000
v -3.0000 -4.0000 1.0000
v -2.0000 -4.0000 1.0000
v -2.0000 -4.0000 2.0000
v -2.0000 3.0000 1.0000
v -2.0000 2.0000 1.0000
v -3.0000 0.0000 1.0000
v -3.0000 0.0000 -0.0000
v -2.0000 0.0000 -0.0000
v -2.0000 0.0000 1.0000
v -2.0000 1.0000 1.0000
v -3.0000 1.0000 1.0000
v -3.0000 4.0000 1.0000
v -2.0000 4.0000 1.0000
v -2.0000 4.0000 -0.0000
v -3.0000 4.0000 -0.0000
v -2.0000 3.0000 -0.0000
v -3.0000 0.0000 -1.0000
v -2.0000 0.0000 -1.0000
v -2.0000 1.0000 -1.0000
v -2.0000 3.0000 -1.0000
v -3.0000 3.0000 -1.0000
v -3.0000 1.0000 -2.0000
v -2.0000 1.0000 -2.0000
v -3.0000 2.0000 -2.0000
v -2.0000 2.0000 -2.0000
v -2.0000 3.0000 -2.0000
v -3.0000 3.0000 -2.0000
v -3.0000 2.0000 -3.0000
v -2.0000 2.0000 -3.0000
v -3.0000 3.0000 -3.0000
v -2.0000 3.0000 -3.0000
v -3.0000 4.0000 -2.0000
v -2.0000 4.0000 -2.0000
v -2.0000 4.0000 -3.0000
v -3.0000 4.0000 -3.0000
v -2.0000 2.0000 4.0000
v -1.0000 2.0000 3.0000
v -1.0000 2.0000 4.0000
v -1.0000 3.0000 4.0000
v -2.0000 3.0000 4.0000
v -1.0000 3.0000 3.0000
v -2.0000 4.0000 4.0000
v -1.0000 4.0000 4.0000
v -1.0000 4.0000 3.0000
v -2.0000 4.0000 3.0000
v -2.0000 1.0000 3.0000
v -2.0000 1.0000 2.0000
v -1.0000 1.0000 2.0000
v -1.0000 1.0000 3.0000
v -1.0000 4.0000 2.0000
v -2.0000 4.0000 2.0000
v -1.0000 1.0000 1.0000
v -1.0000 4.0000 1.0000
v -1.0000 3.0000 2.0000
v -1.0000 3.0000 1.0000
v -1.0000 -3.0000 1.0000
v -1.0000 -3.0000 -0.0000
v -2.0000 -3.0000 -0.0000
v -2.0000 -4.0000 -0.0000
v -1.0000 -4.0000 -0.0000
v -1.0000 -4.0000 1.0000
v -2.0000 -1.0000 1.0000
v -2.0000 -1.0000 -0.0000
v -1.0000 -1.0000 -0.0000
v -1.0000 -1.0000 1.0000
v -1.0000 0.0000 1.0000
v -1.0000 0.0000 -0.0000
v -1.0000 4.0000 -0.0000
v -1.0000 3.0000 -0.0000
v -1.0000 -3.0000 -1.0000
v -2.0000 -3.0000 -1.0000
v -2.0000 -4.0000 -1.0000
v -1.0000 -4.0000 -1.0000
v -1.0000 0.0000 -1.0000
v -1.0000 3.0000 -1.0000
v -1.0000 -3.0000 -2.0000
v -2.0000 -3.0000 -2.0000
v -2.0000 -4.0000 -2.0000
v -1.0000 -4.0000 -2.0000
v -2.0000 0.0000 -2.0000
v -1.0000 0.0000 -2.0000
v -1.0000 1.0000 -2.0000
v -2.0000 4.0000 -1.0000
v -1.0000 4.0000 -1.0000
v -1.0000 4.0000 -2.0000
v -1.0000 3.0000 -2.0000
v -2.0000 1.0000 -3.0000
v -1.0000 1.0000 -3.0000
v -1.0000 2.0000 -3.0000
v -1.0000 3.0000 -3.0000
v -1.0000 3.0000 -4.0000
v -2.0000 3.0000 -4.0000
v -2.0000 2.0000 -4.0000
v -1.0000 2.0000 -4.0000
v 0.0000 4.0000 4.0000
v 0.0000 4.0000 3.0000
v 0.0000 3.0000 3.0000
v 0.0000 3.0000 4.0000
v 0.0000 1.0000 2.0000
v 0.0000 1.0000 3.0000
v 0.0000 2.0000 3.0000
v 0.0000 4.0000 2.0000
v 0.0000 3.0000 2.0000
v -1.0000 -3.0000 2.0000
v 0.0000 -3.0000 2.0000
v 0.0000 -3.0000 1.0000
v -1.0000 -4.0000 2.0000
v 0.0000 -4.0000 1.0000
v 0.0000 -4.0000 2.0000
v -1.0000 0.0000 2.0000
v 0.0000 0.0000 1.0000
v 0.0000 0.0000 2.0000
v 0.0000 3.0000 1.0000
v 0.0000 -4.0000 -0.0000
v 0.0000 -2.0000 1.0000
v -1.0000 -2.0000 1.0000
v -1.0000 -2.0000 -0.0000
v 0.0000 -1.0000 1.0000
v 0.0000 4.0000 1.0000
v 0.0000 4.0000 -0.0000
v 0.0000 3.0000 -0.0000
v 0.0000 -4.0000 -1.0000
v -1.0000 -2.0000 -1.0000
v 0.0000 -2.0000 -1.0000
v 0.0000 -3.0000 -1.0000
v -1.0000 -1.0000 -1.0000
v 0.0000 -1.0000 -1.0000
v 0.0000 0.0000 -1.0000
v 0.0000 4.0000 -1.0000
v 0.0000 3.0000 -1.0000
v 0.0000 -3.0000 -2.0000
v 0.0000 -4.0000 -2.0000
v 0.0000 0.0000 -2.0000
v 0.0000 1.0000 -2.0000
v 0.0000 3.0000 -2.0000
v 0.0000 1.0000 -3.0000
v 0.0000 4.0000 -2.0000
v 0.0000 4.0000 -3.0000
v -1.0000 4.0000 -3.0000
v 0.0000 3.0000 -3.0000
v -1.0000 1.0000 -4.0000
v 0.0000 1.0000 -4.0000
v 0.0000 2.0000 -4.0000
v 0.0000 3.0000 -4.0000
v 1.0000 4.0000 4.0000
v 1.0000 4.0000 3.0000
v 1.0000 3.0000 3.0000
v 1.0000 3.0000 4.0000
v 0.0000 -3.0000 3.0000
v 1.0000 -3.0000 3.0000
v 1.0000 -3.0000 2.0000
v 0.0000 -4.0000 3.0000
v 1.0000 -4.0000 2.0000
v 1.0000 -4.0000 3.0000
v 0.0000 0.0000 3.0000
v 1.0000 0.0000 2.0000
v 1.0000 0.0000 3.0000
v 1.0000 1.0000 3.0000
v 1.0000 2.0000 3.0000
v 1.0000 4.0000 2.0000
v 1.0000 -3.0000 1.0000
v 1.0000 -4.0000 1.0000
v 1.0000 0.0000 1.0000
v 1.0000 4.0000 1.0000
v 1.0000 3.0000 1.0000
v 1.0000 3.0000 2.0000
v 1.0000 -4.0000 -0.0000
v 1.0000 -2.0000 1.0000
v 1.0000 -3.0000 -0.0000
v 1.0000 -2.0000 -0.0000
v 1.0000 -1.0000 1.0000
v 1.0000 -1.0000 -0.0000
v 1.0000 0.0000 -0.0000
v 1.0000 3.0000 -0.0000
v 1.0000 -4.0000 -1.0000
v 1.0000 -3.0000 -1.0000
v 1.0000 -2.0000 -1.0000
v 1.0000 -1.0000 -1.0000
v 1.0000 0.0000 -1.0000
v 1.0000 1.0000 -0.0000
v 1.0000 1.0000 -1.0000
v 1.0000 2.0000 -1.0000
v 1.0000 2.0000 -0.0000
v 1.0000 3.0000 -1.0000
v 1.0000 0.0000 -2.0000
v 1.0000 1.0000 -2.0000
v 1.0000 3.0000 -2.0000
v 1.0000 1.0000 -3.0000
v 1.0000 4.0000 -2.0000
v 1.0000 4.0000 -3.0000
v 1.0000 3.0000 -3.0000
v 1.0000 1.0000 -4.0000
v 1.0000 2.0000 -4.0000
v 1.0000 3.0000 -4.0000
v 1.0000 -3.0000 4.0000
v 2.0000 -3.0000 4.0000
v 2.0000 -3.0000 3.0000
v 1.0000 -4.0000 4.0000
v 2.0000 -4.0000 3.0000
v 2.0000 -4.0000 4.0000
v 1.0000 2.0000 4.0000
v 2.0000 2.0000 4.0000
v 2.0000 2.0000 3.0000
v 1.0000 1.0000 4.0000
v 2.0000 1.0000 3.0000
v 2.0000 1.0000 4.0000
v 2.0000 -3.0000 2.0000
v 2.0000 -4.0000 2.0000
v 2.0000 0.0000 2.0000
v 2.0000 0.0000 3.0000
v 2.0000 3.0000 3.0000
v 2.0000 4.0000 3.0000
v 2.0000 4.0000 2.0000
v 2.0000 3.0000 2.0000
v 2.0000 0.0000 1.0000
v 2.0000 1.0000 1.0000
v 2.0000 1.0000 2.0000
v 2.0000 3.0000 1.0000
v 2.0000 -3.0000 1.0000
v 2.0000 -3.0000 -0.0000
v 2.0000 -4.0000 -0.0000
v 2.0000 -4.0000 1.0000
v 2.0000 0.0000 -0.0000
v 2.0000 1.0000 -0.0000
v 2.0000 2.0000 -0.0000
v 2.0000 4.0000 1.0000
v 2.0000 4.0000 -0.0000
v 1.0000 4.0000 -0.0000
v 2.0000 3.0000 -0.0000
v 2.0000 1.0000 -1.0000
v 2.0000 0.0000 -1.0000
v 2.0000 3.0000 -1.0000
v 2.0000 2.0000 -1.0000
v 2.0000 -3.0000 -1.0000
v 2.0000 -3.0000 -2.0000
v 1.0000 -3.0000 -2.0000
v 1.0000 -4.0000 -2.0000
v 2.0000 -4.0000 -2.0000
v 2.0000 -4.0000 -1.0000
v 2.0000 0.0000 -2.0000
v 2.0000 1.0000 -2.0000
v 1.0000 4.0000 -1.0000
v 2.0000 4.0000 -1.0000
v 2.0000 4.0000 -2.0000
v 2.0000 3.0000 -2.0000
v 2.0000 1.0000 -3.0000
v 2.0000 4.0000 -3.0000
v 2.0000 3.0000 -3.0000
v 2.0000 1.0000 -4.0000
v 2.0000 2.0000 -4.0000
v 2.0000 2.0000 -3.0000
v 2.0000 3.0000 -4.0000
v 3.0000 0.0000 2.0000
v 3.0000 0.0000 3.0000
v 3.0000 1.0000 3.0000
v 3.0000 1.0000 2.0000
v 3.0000 2.0000 3.0000
v 3.0000 2.0000 2.0000
v 3.0000 3.0000 3.0000
v 3.0000 3.0000 2.0000
v 3.0000 1.0000 1.0000
v 3.0000 2.0000 1.0000
v 3.0000 3.0000 1.0000
v 3.0000 4.0000 2.0000
v 3.0000 4.0000 1.0000
v 3.0000 1.0000 -0.0000
v 3.0000 2.0000 -0.0000
v 3.0000 3.0000 -0.0000
v 3.0000 4.0000 -0.0000
v 3.0000 1.0000 -1.0000
v 3.0000 2.0000 -1.0000
v 3.0000 4.0000 -1.0000
v 3.0000 3.0000 -1.0000
v 3.0000 -3.0000 -1.0000
v 3.0000 -3.0000 -2.0000
v 3.0000 -4.0000 -2.0000
v 3.0000 -4.0000 -1.0000
v 3.0000 1.0000 -2.0000
v 3.0000 3.0000 -2.0000
v 3.0000 2.0000 -2.0000
v 3.0000 -3.0000 -3.0000
v 2.0000 -3.0000 -3.0000
v 2.0000 -4.0000 -3.0000
v 3.0000 -4.0000 -3.0000
v 3.0000 1.0000 -3.0000
v 3.0000 2.0000 -3.0000
v 3.0000 3.0000 -3.0000
v 4.0000 3.0000 3.0000
v 4.0000 3.0000 2.0000
v 4.0000 2.0000 2.0000
v 4.0000 2.0000 3.0000
v 4.0000 3.0000 -0.0000
v 4.0000 3.0000 -1.0000
v 4.0000 2.0000 -1.0000
v 4.0000 2.0000 -0.0000
v 4.0000 2.0000 -2.0000
v 4.0000 1.0000 -2.0000
v 4.0000 1.0000 -1.0000
v 4.0000 2.0000 -3.0000
v 4.0000 1.0000 -3.0000
vt 0.001953 0.500000
vt 0.005859 0.500000
vt 0.009766 0.500000
vt 0.013672 0.500000
vt 0.017578 0.500000
vt 0.021484 0.500000
vt 0.025391 0.500000
vt 0.029297 0.500000
vt 0.033203 0.500000
vn 0.0 -1.0 0.0
vn 0.0 1.0 0.0
vn 0.0 0.0 1.0
vn 0.0 0.0 -1.0
vn -1.0 0.0 0.0
vn 1.0 0.0 0.0
usemtl mat_Lyander_Anthony_Hernández_Acosta_fase_2
s off
f 1/1/2 2/1/2 3/1/2 4/1/2
f 5/1/1 6/1/1 7/1/1 8/1/1
f 5/1/3 8/1/3 2/1/3 1/1/3
f 5/1/5 1/1/5 4/1/5 6/1/5
f 4/1/2 3/1/2 9/1/2 10/1/2
f 6/1/1 11/1/1 12/1/1 7/1/1
f 11/1/4 10/1/4 9/1/4 12/1/4
f 6/1/5 4/1/5 10/1/5 11/1/5
f 11/2/2 12/2/2 13/2/2 14/2/2
f 15/2/1 16/2/1 17/2/1 18/2/1
f 15/2/3 18/2/3 12/2/3 11/2/3
f 16/2/4 14/2/4 13/2/4 17/2/4
f 15/2/5 11/2/5 14/2/5 16/2/5
f 19/1/2 20/1/2 21/1/2 2/1/2
f 22/1/1 8/1/1 23/1/1 24/1/1
f 22/1/3 24/1/3 20/1/3 19/1/3
f 22/1/5 19/1/5 2/1/5 8/1/5
f 25/3/2 26/3/2 27/3/2 28/3/2
f 29/3/1 30/3/1 31/3/1 32/3/1
f 29/3/3 32/3/3 26/3/3 25/3/3
f 30/3/4 28/3/4 27/3/4 31/3/4
f 32/3/6 31/3/6 27/3/6 26/3/6
f 29/3/5 25/3/5 28/3/5 30/3/5
f 2/1/2 21/1/2 33/1/2 3/1/2
f 8/1/1 7/1/1 34/1/1 23/1/1
f 35/3/1 36/3/1 37/3/1 38/3/1
f 35/3/3 38/3/3 39/3/3 40/3/3
f 35/3/5 40/3/5 18/3/5 36/3/5
f 40/4/3 39/4/3 34/4/3 7/4/3
f 40/4/5 7/4/5 12/4/5 18/4/5
f 41/5/2 42/5/2 43/5/2 44/5/2
f 3/5/3 33/5/3 42/5/3 41/5/3
f 9/5/4 44/5/4 43/5/4 45/5/4
f 3/5/5 41/5/5 44/5/5 9/5/5
f 36/6/1 46/6/1 47/6/1 37/6/1
f 46/6/4 17/6/4 48/6/4 47/6/4
f 36/6/5 18/6/5 17/6/5 46/6/5
f 9/2/2 45/2/2 49/2/2 50/2/2
f 12/2/5 9/2/5 50/2/5 13/2/5
f 17/1/1 51/1/1 52/1/1 48/1/1
f 51/1/4 53/1/4 54/1/4 52/1/4
f 17/1/5 13/1/5 53/1/5 51/1/5
f 50/1/2 49/1/2 55/1/2 56/1/2
f 13/1/5 50/1/5 56/1/5 53/1/5
f 53/5/1 57/5/1 58/5/1 54/5/1
f 57/5/4 59/5/4 60/5/4 58/5/4
f 53/5/5 56/5/5 59/5/5 57/5/5
f 61/1/2 62/1/2 63/1/2 64/1/2
f 56/1/3 55/1/3 62/1/3 61/1/3
f 59/1/4 64/1/4 63/1/4 60/1/4
f 55/1/6 60/1/6 63/1/6 62/1/6
f 56/1/5 61/1/5 64/1/5 59/1/5
f 65/7/1 24/7/1 66/7/1 67/7/1
f 65/7/3 67/7/3 68/7/3 69/7/3
f 67/7/6 66/7/6 70/7/6 68/7/6
f 65/7/5 69/7/5 20/7/5 24/7/5
f 71/4/2 72/4/2 73/4/2 74/4/2
f 69/4/3 68/4/3 72/4/3 71/4/3
f 69/4/5 71/4/5 74/4/5 20/4/5
f 75/6/1 76/6/1 77/6/1 78/6/1
f 75/6/3 78/6/3 66/6/3 24/6/3
f 75/6/5 24/6/5 23/6/5 76/6/5
f 74/1/2 73/1/2 79/1/2 80/1/2
f 20/1/5 74/1/5 80/1/5 21/1/5
f 76/5/1 39/5/1 81/5/1 77/5/1
f 76/5/5 23/5/5 34/5/5 39/5/5
f 80/7/2 79/7/2 82/7/2 42/7/2
f 83/7/6 84/7/6 82/7/6 79/7/6
f 21/7/5 80/7/5 42/7/5 33/7/5
f 27/8/2 85/8/2 86/8/2 87/8/2
f 31/8/1 88/8/1 89/8/1 90/8/1
f 31/8/3 90/8/3 85/8/3 27/8/3
f 31/8/5 27/8/5 87/8/5 88/8/5
f 91/9/1 92/9/1 93/9/1 94/9/1
f 91/9/3 94/9/3 95/9/3 38/9/3
f 92/9/4 37/9/4 96/9/4 93/9/4
f 91/9/5 38/9/5 37/9/5 92/9/5
f 38/5/3 95/5/3 81/5/3 39/5/3
f 42/1/2 82/1/2 97/1/2 43/1/2
f 45/1/4 43/1/4 97/1/4 98/1/4
f 87/3/2 86/3/2 99/3/2 100/3/2
f 88/3/1 101/3/1 102/3/1 89/3/1
f 88/3/5 87/3/5 100/3/5 101/3/5
f 37/4/1 47/4/1 103/4/1 96/4/1
f 45/1/2 98/1/2 104/1/2 49/1/2
f 100/3/2 99/3/2 105/3/2 106/3/2
f 101/3/1 107/3/1 108/3/1 102/3/1
f 107/3/4 106/3/4 105/3/4 108/3/4
f 101/3/5 100/3/5 106/3/5 107/3/5
f 47/9/1 109/9/1 110/9/1 103/9/1
f 109/9/4 52/9/4 111/9/4 110/9/4
f 47/9/5 48/9/5 52/9/5 109/9/5
f 112/2/2 113/2/2 114/2/2 62/2/2
f 49/2/3 104/2/3 113/2/3 112/2/3
f 55/2/4 62/2/4 114/2/4 115/2/4
f 104/2/6 115/2/6 114/2/6 113/2/6
f 49/2/5 112/2/5 62/2/5 55/2/5
f 52/9/1 116/9/1 117/9/1 111/9/1
f 116/9/4 58/9/4 118/9/4 117/9/4
f 52/9/5 54/9/5 58/9/5 116/9/5
f 55/7/2 115/7/2 119/7/2 60/7/2
f 60/5/2 119/5/2 120/5/2 121/5/2
f 58/5/1 122/5/1 123/5/1 118/5/1
f 122/5/4 121/5/4 120/5/4 123/5/4
f 58/5/5 60/5/5 121/5/5 122/5/5
f 72/5/2 124/5/2 125/5/2 73/5/2
f 68/5/1 70/5/1 126/5/1 127/5/1
f 68/5/3 127/5/3 124/5/3 72/5/3
f 78/6/1 77/6/1 128/6/1 129/6/1
f 78/6/3 129/6/3 130/6/3 66/6/3
f 66/1/3 130/1/3 126/1/3 70/1/3
f 73/1/2 125/1/2 131/1/2 79/1/2
f 83/1/4 79/1/4 131/1/4 132/1/4
f 133/8/2 134/8/2 135/8/2 85/8/2
f 136/8/1 90/8/1 137/8/1 138/8/1
f 136/8/3 138/8/3 134/8/3 133/8/3
f 136/8/5 133/8/5 85/8/5 90/8/5
f 139/3/1 95/3/1 140/3/1 141/3/1
f 139/3/3 141/3/3 128/3/3 77/3/3
f 139/3/5 77/3/5 81/3/5 95/3/5
f 83/1/2 132/1/2 142/1/2 84/1/2
f 90/8/1 89/8/1 143/8/1 137/8/1
f 85/8/3 135/8/3 144/8/3 145/8/3
f 85/8/5 145/8/5 146/8/5 86/8/5
f 145/8/3 144/8/3 147/8/3 94/8/3
f 145/8/5 94/8/5 93/8/5 146/8/5
f 94/8/3 147/8/3 140/8/3 95/8/3
f 82/7/2 148/7/2 149/7/2 97/7/2
f 84/7/3 142/7/3 148/7/3 82/7/3
f 142/7/6 150/7/6 149/7/6 148/7/6
f 89/8/1 102/8/1 151/8/1 143/8/1
f 99/9/4 152/9/4 153/9/4 154/9/4
f 86/9/5 146/9/5 152/9/5 99/9/5
f 152/8/4 155/8/4 156/8/4 153/8/4
f 146/8/5 93/8/5 155/8/5 152/8/5
f 155/8/4 103/8/4 157/8/4 156/8/4
f 93/8/5 96/8/5 103/8/5 155/8/5
f 97/2/2 149/2/2 158/2/2 113/2/2
f 104/2/4 113/2/4 158/2/4 159/2/4
f 150/2/6 159/2/6 158/2/6 149/2/6
f 98/2/5 97/2/5 113/2/5 104/2/5
f 99/3/2 154/3/2 160/3/2 105/3/2
f 102/3/1 108/3/1 161/3/1 151/3/1
f 108/3/4 105/3/4 160/3/4 161/3/4
f 151/3/6 161/3/6 160/3/6 154/3/6
f 103/6/1 110/6/1 162/6/1 157/6/1
f 110/6/4 111/6/4 163/6/4 162/6/4
f 104/1/2 159/1/2 164/1/2 115/1/2
f 111/1/1 117/1/1 165/1/1 163/1/1
f 114/7/2 166/7/2 167/7/2 168/7/2
f 115/7/3 164/7/3 166/7/3 114/7/3
f 119/7/4 168/7/4 167/7/4 169/7/4
f 115/7/5 114/7/5 168/7/5 119/7/5
f 117/1/1 170/1/1 171/1/1 165/1/1
f 170/1/4 123/1/4 172/1/4 171/1/4
f 117/1/5 118/1/5 123/1/5 170/1/5
f 119/7/2 169/7/2 173/7/2 120/7/2
f 123/7/4 120/7/4 173/7/4 172/7/4
f 124/1/2 174/1/2 175/1/2 125/1/2
f 127/1/1 126/1/1 176/1/1 177/1/1
f 127/1/3 177/1/3 174/1/3 124/1/3
f 177/1/6 176/1/6 175/1/6 174/1/6
f 178/8/2 179/8/2 180/8/2 134/8/2
f 181/8/1 138/8/1 182/8/1 183/8/1
f 181/8/3 183/8/3 179/8/3 178/8/3
f 181/8/5 178/8/5 134/8/5 138/8/5
f 184/4/1 141/4/1 185/4/1 186/4/1
f 184/4/3 186/4/3 187/4/3 129/4/3
f 184/4/5 129/4/5 128/4/5 141/4/5
f 129/1/3 187/1/3 188/1/3 130/1/3
f 130/7/3 188/7/3 176/7/3 126/7/3
f 125/1/2 175/1/2 189/1/2 131/1/2
f 134/8/2 180/8/2 190/8/2 135/8/2
f 138/8/1 137/8/1 191/8/1 182/8/1
f 182/8/6 191/8/6 190/8/6 180/8/6
f 141/6/1 140/6/1 192/6/1 185/6/1
f 131/7/2 189/7/2 193/7/2 148/7/2
f 142/7/4 148/7/4 193/7/4 194/7/4
f 195/7/6 194/7/6 193/7/6 189/7/6
f 132/7/5 131/7/5 148/7/5 142/7/5
f 137/3/1 143/3/1 196/3/1 191/3/1
f 135/8/3 190/8/3 197/8/3 144/8/3
f 190/8/6 198/8/6 199/8/6 197/8/6
f 144/8/3 197/8/3 200/8/3 147/8/3
f 197/8/6 199/8/6 201/8/6 200/8/6
f 147/3/3 200/3/3 192/3/3 140/3/3
f 200/3/6 201/3/6 202/3/6 192/3/6
f 142/7/2 194/7/2 203/7/2 150/7/2
f 143/8/1 151/8/1 204/8/1 196/8/1
f 151/8/4 154/8/4 205/8/4 204/8/4
f 196/8/6 204/8/6 205/8/6 198/8/6
f 154/8/4 153/8/4 206/8/4 205/8/4
f 198/8/6 205/8/6 206/8/6 199/8/6
f 153/3/4 156/3/4 207/3/4 206/3/4
f 199/3/6 206/3/6 207/3/6 201/3/6
f 156/3/4 157/3/4 208/3/4 207/3/4
f 201/3/6 207/3/6 208/3/6 202/3/6
f 209/9/6 210/9/6 211/9/6 212/9/6
f 150/1/2 203/1/2 213/1/2 159/1/2
f 157/9/1 162/9/1 214/9/1 208/9/1
f 162/9/4 163/9/4 215/9/4 214/9/4
f 159/7/2 213/7/2 216/7/2 164/7/2
f 163/3/1 165/3/1 217/3/1 215/3/1
f 166/2/2 218/2/2 219/2/2 167/2/2
f 164/2/3 216/2/3 218/2/3 166/2/3
f 169/2/4 167/2/4 219/2/4 220/2/4
f 165/1/1 171/1/1 221/1/1 217/1/1
f 171/1/4 172/1/4 222/1/4 221/1/4
f 169/1/2 220/1/2 223/1/2 173/1/2
f 172/1/4 173/1/4 223/1/4 222/1/4
f 224/3/2 225/3/2 226/3/2 179/3/2
f 227/3/1 183/3/1 228/3/1 229/3/1
f 227/3/3 229/3/3 225/3/3 224/3/3
f 229/3/6 228/3/6 226/3/6 225/3/6
f 227/3/5 224/3/5 179/3/5 183/3/5
f 230/1/2 231/1/2 232/1/2 188/1/2
f 233/1/1 187/1/1 234/1/1 235/1/1
f 233/1/3 235/1/3 231/1/3 230/1/3
f 235/1/6 234/1/6 232/1/6 231/1/6
f 233/1/5 230/1/5 188/1/5 187/1/5
f 179/8/2 226/8/2 236/8/2 180/8/2
f 183/8/1 182/8/1 237/8/1 228/8/1
f 182/8/4 180/8/4 236/8/4 237/8/4
f 228/8/6 237/8/6 236/8/6 226/8/6
f 186/2/1 185/2/1 238/2/1 239/2/1
f 186/2/3 239/2/3 234/2/3 187/2/3
f 188/1/3 232/1/3 240/1/3 176/1/3
f 175/5/2 241/5/2 242/5/2 189/5/2
f 176/5/3 240/5/3 241/5/3 175/5/3
f 195/5/4 189/5/4 242/5/4 243/5/4
f 240/5/6 243/5/6 242/5/6 241/5/6
f 185/4/1 192/4/1 244/4/1 238/4/1
f 238/4/6 244/4/6 245/4/6 246/4/6
f 195/1/2 243/1/2 247/1/2 194/1/2
f 190/3/2 248/3/2 249/3/2 198/3/2
f 191/3/1 196/3/1 250/3/1 251/3/1
f 191/3/3 251/3/3 248/3/3 190/3/3
f 196/3/4 198/3/4 249/3/4 250/3/4
f 251/3/6 250/3/6 249/3/6 248/3/6
f 192/8/1 202/8/1 252/8/1 244/8/1
f 244/8/6 252/8/6 253/8/6 245/8/6
f 209/6/4 212/6/4 254/6/4 253/6/4
f 193/5/2 255/5/2 256/5/2 257/5/2
f 194/5/3 247/5/3 255/5/3 193/5/3
f 203/5/4 257/5/4 256/5/4 258/5/4
f 194/5/5 193/5/5 257/5/5 203/5/5
f 209/6/2 253/6/2 259/6/2 210/6/2
f 202/6/1 208/6/1 260/6/1 252/6/1
f 252/6/6 260/6/6 259/6/6 253/6/6
f 203/6/2 258/6/2 261/6/2 213/6/2
f 212/6/1 211/6/1 262/6/1 254/6/1
f 205/8/2 263/8/2 264/8/2 265/8/2
f 204/8/1 266/8/1 267/8/1 268/8/1
f 204/8/3 268/8/3 263/8/3 205/8/3
f 266/8/4 265/8/4 264/8/4 267/8/4
f 204/8/5 205/8/5 265/8/5 266/8/5
f 208/4/1 214/4/1 269/4/1 260/4/1
f 214/4/4 215/4/4 270/4/4 269/4/4
f 260/4/6 269/4/6 270/4/6 259/4/6
f 210/6/3 259/6/3 262/6/3 211/6/3
f 271/7/2 272/7/2 273/7/2 218/7/2
f 213/7/3 261/7/3 272/7/3 271/7/3
f 261/7/6 274/7/6 273/7/6 272/7/6
f 213/7/5 271/7/5 218/7/5 216/7/5
f 215/1/1 217/1/1 275/1/1 270/1/1
f 218/1/2 273/1/2 276/1/2 219/1/2
f 220/1/4 219/1/4 276/1/4 277/1/4
f 274/1/6 277/1/6 276/1/6 273/1/6
f 217/2/1 221/2/1 278/2/1 275/2/1
f 221/2/4 222/2/4 279/2/4 278/2/4
f 275/2/6 278/2/6 279/2/6 280/2/6
f 220/6/2 277/6/2 281/6/2 223/6/2
f 222/6/4 223/6/4 281/6/4 279/6/4
f 280/6/6 279/6/6 281/6/6 277/6/6
f 239/1/1 238/1/1 282/1/1 283/1/1
f 239/1/3 283/1/3 284/1/3 234/1/3
f 238/1/4 246/1/4 285/1/4 282/1/4
f 283/1/6 282/1/6 285/1/6 284/1/6
f 234/2/3 284/2/3 286/2/3 232/2/3
f 284/2/6 285/2/6 287/2/6 286/2/6
f 240/1/2 288/1/2 289/1/2 243/1/2
f 232/1/3 286/1/3 288/1/3 240/1/3
f 246/6/1 245/6/1 290/6/1 285/6/1
f 285/6/6 290/6/6 291/6/6 287/6/6
f 287/6/6 291/6/6 292/6/6 289/6/6
f 242/2/2 293/2/2 294/2/2 255/2/2
f 243/2/3 289/2/3 293/2/3 242/2/3
f 289/2/6 292/2/6 294/2/6 293/2/6
f 243/2/5 242/2/5 255/2/5 247/2/5
f 245/9/1 253/9/1 295/9/1 290/9/1
f 290/9/6 295/9/6 296/9/6 291/9/6
f 291/6/6 296/6/6 297/6/6 292/6/6
f 255/6/2 294/6/2 298/6/2 256/6/2
f 292/6/6 297/6/6 298/6/6 294/6/6
f 253/2/1 259/2/1 299/2/1 295/2/1
f 295/2/6 299/2/6 300/2/6 296/2/6
f 253/2/5 254/2/5 262/2/5 259/2/5
f 256/1/2 298/1/2 301/1/2 272/1/2
f 261/1/4 272/1/4 301/1/4 302/1/4
f 297/1/6 302/1/6 301/1/6 298/1/6
f 258/1/5 256/1/5 272/1/5 261/1/5
f 263/8/2 303/8/2 304/8/2 264/8/2
f 268/8/1 267/8/1 305/8/1 306/8/1
f 268/8/3 306/8/3 303/8/3 263/8/3
f 306/8/6 305/8/6 304/8/6 303/8/6
f 259/6/1 270/6/1 307/6/1 299/6/1
f 261/7/2 302/7/2 308/7/2 274/7/2
f 300/7/6 309/7/6 308/7/6 302/7/6
f 264/3/2 304/3/2 310/3/2 311/3/2
f 267/3/1 312/3/1 313/3/1 305/3/1
f 312/3/4 311/3/4 310/3/4 313/3/4
f 305/3/6 313/3/6 310/3/6 304/3/6
f 267/3/5 264/3/5 311/3/5 312/3/5
f 270/6/1 275/6/1 314/6/1 307/6/1
f 275/6/4 280/6/4 315/6/4 314/6/4
f 274/2/2 308/2/2 316/2/2 277/2/2
f 280/2/4 277/2/4 316/2/4 315/2/4
f 309/2/6 315/2/6 316/2/6 308/2/6
f 288/7/2 317/7/2 318/7/2 289/7/2
f 286/7/1 287/7/1 319/7/1 320/7/1
f 286/7/3 320/7/3 317/7/3 288/7/3
f 287/7/4 289/7/4 318/7/4 319/7/4
f 320/7/6 319/7/6 318/7/6 317/7/6
f 297/7/2 321/7/2 322/7/2 302/7/2
f 296/7/1 300/7/1 323/7/1 324/7/1
f 296/7/3 324/7/3 321/7/3 297/7/3
f 300/7/4 302/7/4 322/7/4 323/7/4
f 324/7/6 323/7/6 322/7/6 321/7/6
f 300/6/2 323/6/2 325/6/2 309/6/2
f 299/6/1 307/6/1 326/6/1 327/6/1
f 299/6/3 327/6/3 323/6/3 300/6/3
f 327/6/6 326/6/6 325/6/6 323/6/6
f 309/1/2 325/1/2 328/1/2 315/1/2
f 307/1/1 314/1/1 329/1/1 326/1/1
f 314/1/4 315/1/4 328/1/4 329/1/4
f 326/1/6 329/1/6 328/1/6 325/1/6
