mtllib Maria_Jose_Castaño_Celis_fase_1.mtl
o Maria_Jose_Castaño_Celis_fase_1
v -3.0000 -3.0000 1.0000
v -3.0000 -3.0000 -0.0000
v -2.0000 -3.0000 -0.0000
v -2.0000 -3.0000 1.0000
v -2.0000 -2.0000 1.0000
v -3.0000 -2.0000 1.0000
v -3.0000 -2.0000 -0.0000
v -2.0000 -1.0000 1.0000
v -3.0000 -1.0000 1.0000
v -3.0000 -1.0000 -0.0000
v -2.0000 0.0000 1.0000
v -3.0000 0.0000 1.0000
v -3.0000 0.0000 -0.0000
v -3.0000 1.0000 1.0000
v -2.0000 1.0000 1.0000
v -2.0000 1.0000 -0.0000
v -3.0000 1.0000 -0.0000
v -3.0000 -3.0000 -1.0000
v -2.0000 -3.0000 -1.0000
v -3.0000 -2.0000 -1.0000
v -3.0000 -1.0000 -1.0000
v -3.0000 0.0000 -1.0000
v -2.0000 1.0000 -1.0000
v -3.0000 1.0000 -1.0000
v -3.0000 -3.0000 -2.0000
v -2.0000 -3.0000 -2.0000
v -3.0000 -2.0000 -2.0000
v -3.0000 -1.0000 -2.0000
v -3.0000 0.0000 -2.0000
v -2.0000 1.0000 -2.0000
v -3.0000 1.0000 -2.0000
v -3.0000 -3.0000 -3.0000
v -2.0000 -3.0000 -3.0000
v -3.0000 -2.0000 -3.0000
v -2.0000 -2.0000 -3.0000
v -3.0000 -1.0000 -3.0000
v -2.0000 -1.0000 -3.0000
v -3.0000 0.0000 -3.0000
v -2.0000 0.0000 -3.0000
v -2.0000 1.0000 -3.0000
v -3.0000 1.0000 -3.0000
v -1.0000 -3.0000 -0.0000
v -1.0000 -3.0000 1.0000
v -1.0000 -2.0000 1.0000
v -1.0000 -1.0000 1.0000
v -1.0000 0.0000 1.0000
v -1.0000 1.0000 1.0000
v -1.0000 1.0000 -0.0000
v -1.0000 -3.0000 -1.0000
v -1.0000 1.0000 -1.0000
v -1.0000 -3.0000 -2.0000
v -1.0000 1.0000 -2.0000
v -1.0000 -3.0000 -3.0000
v -1.0000 -2.0000 -3.0000
v -1.0000 -1.0000 -3.0000
v -1.0000 0.0000 -3.0000
v -1.0000 1.0000 -3.0000
v 0.0000 -3.0000 -0.0000
v 0.0000 -3.0000 1.0000
v 0.0000 -2.0000 1.0000
v 0.0000 -1.0000 1.0000
v 0.0000 0.0000 1.0000
v 0.0000 1.0000 1.0000
v 0.0000 1.0000 -0.0000
v 0.0000 -3.0000 -1.0000
v 0.0000 1.0000 -1.0000
v 0.0000 -3.0000 -2.0000
v 0.0000 2.0000 -1.0000
v -1.0000 2.0000 -1.0000
v -1.0000 2.0000 -2.0000
v -1.0000 3.0000 -1.0000
v 0.0000 3.0000 -1.0000
v 0.0000 3.0000 -2.0000
v -1.0000 3.0000 -2.0000
v 0.0000 -3.0000 -3.0000
v 0.0000 -2.0000 -3.0000
v 0.0000 -1.0000 -3.0000
v 0.0000 0.0000 -3.0000
v 0.0000 1.0000 -3.0000
v -1.0000 2.0000 -3.0000
v 0.0000 2.0000 -3.0000
v 0.0000 3.0000 -3.0000
v -1.0000 3.0000 -3.0000
v 1.0000 -3.0000 -0.0000
v 1.0000 -3.0000 1.0000
v 1.0000 -2.0000 1.0000
v 1.0000 -2.0000 -0.0000
v 1.0000 -1.0000 1.0000
v 1.0000 -1.0000 -0.0000
v 1.0000 0.0000 1.0000
v 1.0000 0.0000 -0.0000
v 1.0000 1.0000 1.0000
v 1.0000 1.0000 -0.0000
v 1.0000 -3.0000 -1.0000
v 1.0000 -2.0000 -1.0000
v 1.0000 -1.0000 -1.0000
v 1.0000 0.0000 -1.0000
v 1.0000 1.0000 -1.0000
v 1.0000 -3.0000 -2.0000
v 1.0000 -2.0000 -2.0000
v 1.0000 -1.0000 -2.0000
v 1.0000 0.0000 -2.0000
v 1.0000 1.0000 -2.0000
v 1.0000 2.0000 -1.0000
v 1.0000 2.0000 -2.0000
v 1.0000 3.0000 -1.0000
v 1.0000 3.0000 -2.0000
v 1.0000 -3.0000 -3.0000
v 1.0000 -2.0000 -3.0000
v 1.0000 -1.0000 -3.0000
v 1.0000 0.0000 -3.0000
v 1.0000 1.0000 -3.0000
v 1.0000 2.0000 -3.0000
v 1.0000 3.0000 -3.0000
vt 0.001953 0.500000
vt 0.005859 0.500000
vt 0.009766 0.500000
vt 0.013672 0.500000
vt 0.017578 0.500000
vn 0.0 -1.0 0.0
vn 0.0 1.0 0.0
vn 0.0 0.0 1.0
vn 0.0 0.0 -1.0
vn -1.0 0.0 0.0
vn 1.0 0.0 0.0
usemtl mat_Maria_Jose_Castaño_Celis_fase_1
s off
f 1/1/1 2/1/1 3/1/1 4/1/1
f 1/1/3 4/1/3 5/1/3 6/1/3
f 1/1/5 6/1/5 7/1/5 2/1/5
f 6/1/3 5/1/3 8/1/3 9/1/3
f 6/1/5 9/1/5 10/1/5 7/1/5
f 9/2/3 8/2/3 11/2/3 12/2/3
f 9/2/5 12/2/5 13/2/5 10/2/5
f 14/2/2 15/2/2 16/2/2 17/2/2
f 12/2/3 11/2/3 15/2/3 14/2/3
f 12/2/5 14/2/5 17/2/5 13/2/5
f 2/1/1 18/1/1 19/1/1 3/1/1
f 2/1/5 7/1/5 20/1/5 18/1/5
f 7/1/5 10/1/5 21/1/5 20/1/5
f 10/2/5 13/2/5 22/2/5 21/2/5
f 17/2/2 16/2/2 23/2/2 24/2/2
f 13/2/5 17/2/5 24/2/5 22/2/5
f 18/3/1 25/3/1 26/3/1 19/3/1
f 18/3/5 20/3/5 27/3/5 25/3/5
f 20/3/5 21/3/5 28/3/5 27/3/5
f 21/3/5 22/3/5 29/3/5 28/3/5
f 24/3/2 23/3/2 30/3/2 31/3/2
f 22/3/5 24/3/5 31/3/5 29/3/5
f 25/3/1 32/3/1 33/3/1 26/3/1
f 32/3/4 34/3/4 35/3/4 33/3/4
f 25/3/5 27/3/5 34/3/5 32/3/5
f 34/3/4 36/3/4 37/3/4 35/3/4
f 27/3/5 28/3/5 36/3/5 34/3/5
f 36/3/4 38/3/4 39/3/4 37/3/4
f 28/3/5 29/3/5 38/3/5 36/3/5
f 31/3/2 30/3/2 40/3/2 41/3/2
f 38/3/4 41/3/4 40/3/4 39/3/4
f 29/3/5 31/3/5 41/3/5 38/3/5
f 4/1/1 3/1/1 42/1/1 43/1/1
f 4/1/3 43/1/3 44/1/3 5/1/3
f 5/1/3 44/1/3 45/1/3 8/1/3
f 8/2/3 45/2/3 46/2/3 11/2/3
f 15/2/2 47/2/2 48/2/2 16/2/2
f 11/2/3 46/2/3 47/2/3 15/2/3
f 3/1/1 19/1/1 49/1/1 42/1/1
f 16/2/2 48/2/2 50/2/2 23/2/2
f 19/3/1 26/3/1 51/3/1 49/3/1
f 23/3/2 50/3/2 52/3/2 30/3/2
f 26/3/1 33/3/1 53/3/1 51/3/1
f 33/3/4 35/3/4 54/3/4 53/3/4
f 35/3/4 37/3/4 55/3/4 54/3/4
f 37/3/4 39/3/4 56/3/4 55/3/4
f 30/3/2 52/3/2 57/3/2 40/3/2
f 39/3/4 40/3/4 57/3/4 56/3/4
f 43/3/1 42/3/1 58/3/1 59/3/1
f 43/3/3 59/3/3 60/3/3 44/3/3
f 44/3/3 60/3/3 61/3/3 45/3/3
f 45/4/3 61/4/3 62/4/3 46/4/3
f 47/4/2 63/4/2 64/4/2 48/4/2
f 46/4/3 62/4/3 63/4/3 47/4/3
f 42/3/1 49/3/1 65/3/1 58/3/1
f 48/4/2 64/4/2 66/4/2 50/4/2
f 49/1/1 51/1/1 67/1/1 65/1/1
f 50/4/3 66/4/3 68/4/3 69/4/3
f 50/4/5 69/4/5 70/4/5 52/4/5
f 71/4/2 72/4/2 73/4/2 74/4/2
f 69/4/3 68/4/3 72/4/3 71/4/3
f 69/4/5 71/4/5 74/4/5 70/4/5
f 51/1/1 53/1/1 75/1/1 67/1/1
f 53/1/4 54/1/4 76/1/4 75/1/4
f 54/1/4 55/1/4 77/1/4 76/1/4
f 55/5/4 56/5/4 78/5/4 77/5/4
f 56/5/4 57/5/4 79/5/4 78/5/4
f 57/4/4 80/4/4 81/4/4 79/4/4
f 52/4/5 70/4/5 80/4/5 57/4/5
f 74/4/2 73/4/2 82/4/2 83/4/2
f 80/4/4 83/4/4 82/4/4 81/4/4
f 70/4/5 74/4/5 83/4/5 80/4/5
f 59/3/1 58/3/1 84/3/1 85/3/1
f 59/3/3 85/3/3 86/3/3 60/3/3
f 85/3/6 84/3/6 87/3/6 86/3/6
f 60/3/3 86/3/3 88/3/3 61/3/3
f 86/3/6 87/3/6 89/3/6 88/3/6
f 61/4/3 88/4/3 90/4/3 62/4/3
f 88/4/6 89/4/6 91/4/6 90/4/6
f 63/4/2 92/4/2 93/4/2 64/4/2
f 62/4/3 90/4/3 92/4/3 63/4/3
f 90/4/6 91/4/6 93/4/6 92/4/6
f 58/3/1 65/3/1 94/3/1 84/3/1
f 84/3/6 94/3/6 95/3/6 87/3/6
f 87/3/6 95/3/6 96/3/6 89/3/6
f 89/4/6 96/4/6 97/4/6 91/4/6
f 64/4/2 93/4/2 98/4/2 66/4/2
f 91/4/6 97/4/6 98/4/6 93/4/6
f 65/1/1 67/1/1 99/1/1 94/1/1
f 94/1/6 99/1/6 100/1/6 95/1/6
f 95/1/6 100/1/6 101/1/6 96/1/6
f 96/5/6 101/5/6 102/5/6 97/5/6
f 97/5/6 102/5/6 103/5/6 98/5/6
f 66/4/3 98/4/3 104/4/3 68/4/3
f 98/4/6 103/4/6 105/4/6 104/4/6
f 72/4/2 106/4/2 107/4/2 73/4/2
f 68/4/3 104/4/3 106/4/3 72/4/3
f 104/4/6 105/4/6 107/4/6 106/4/6
f 67/1/1 75/1/1 108/1/1 99/1/1
f 75/1/4 76/1/4 109/1/4 108/1/4
f 99/1/6 108/1/6 109/1/6 100/1/6
f 76/1/4 77/1/4 110/1/4 109/1/4
f 100/1/6 109/1/6 110/1/6 101/1/6
f 77/5/4 78/5/4 111/5/4 110/5/4
f 101/5/6 110/5/6 111/5/6 102/5/6
f 78/5/4 79/5/4 112/5/4 111/5/4
f 102/5/6 111/5/6 112/5/6 103/5/6
f 79/4/4 81/4/4 113/4/4 112/4/4
f 103/4/6 112/4/6 113/4/6 105/4/6
f 73/4/2 107/4/2 114/4/2 82/4/2
f 81/4/4 82/4/4 114/4/4 113/4/4
f 105/4/6 113/4/6 114/4/6 107/4/6
