mtllib Drago_Adriana_Sofia_Espitia_Contreras_fase_3.mtl
o Drago_Adriana_Sofia_Espitia_Contreras_fase_3
v -8.0000 4.0000 2.0000
v -8.0000 4.0000 1.0000
v -7.0000 4.0000 1.0000
v -7.0000 4.0000 2.0000
v -7.0000 5.0000 2.0000
v -8.0000 5.0000 2.0000
v -7.0000 5.0000 1.0000
v -8.0000 5.0000 1.0000
v -8.0000 6.0000 2.0000
v -7.0000 6.0000 2.0000
v -7.0000 6.0000 1.0000
v -8.0000 6.0000 1.0000
v -8.0000 4.0000 -0.0000
v -7.0000 4.0000 -0.0000
v -7.0000 5.0000 -0.0000
v -8.0000 5.0000 -0.0000
v -7.0000 6.0000 -0.0000
v -8.0000 6.0000 -0.0000
v -8.0000 4.0000 -1.0000
v -7.0000 4.0000 -1.0000
v -8.0000 5.0000 -1.0000
v -7.0000 6.0000 -1.0000
v -8.0000 6.0000 -1.0000
v -7.0000 5.0000 -1.0000
v -8.0000 4.0000 -2.0000
v -7.0000 4.0000 -2.0000
v -8.0000 5.0000 -2.0000
v -7.0000 5.0000 -2.0000
v -7.0000 6.0000 -2.0000
v -8.0000 6.0000 -2.0000
v -7.0000 6.0000 -3.0000
v -8.0000 6.0000 -3.0000
v -8.0000 5.0000 -3.0000
v -7.0000 5.0000 -3.0000
v -7.0000 8.0000 5.0000
v -6.0000 8.0000 5.0000
v -6.0000 8.0000 4.0000
v -7.0000 8.0000 4.0000
v -7.0000 7.0000 5.0000
v -7.0000 7.0000 4.0000
v -6.0000 7.0000 4.0000
v -6.0000 7.0000 5.0000
v -6.0000 8.0000 3.0000
v -7.0000 8.0000 3.0000
v -7.0000 7.0000 3.0000
v -6.0000 7.0000 3.0000
v -6.0000 8.0000 2.0000
v -7.0000 8.0000 2.0000
v -7.0000 7.0000 2.0000
v -6.0000 7.0000 2.0000
v -6.0000 5.0000 -0.0000
v -6.0000 5.0000 -1.0000
v -6.0000 4.0000 -1.0000
v -6.0000 4.0000 -0.0000
v -7.0000 8.0000 -0.0000
v -6.0000 8.0000 -0.0000
v -6.0000 8.0000 -1.0000
v -7.0000 8.0000 -1.0000
v -7.0000 7.0000 -0.0000
v -7.0000 7.0000 -1.0000
v -6.0000 7.0000 -1.0000
v -6.0000 7.0000 -0.0000
v -7.0000 8.0000 -2.0000
v -6.0000 8.0000 -2.0000
v -6.0000 8.0000 -3.0000
v -7.0000 8.0000 -3.0000
v -7.0000 7.0000 -2.0000
v -7.0000 7.0000 -3.0000
v -6.0000 7.0000 -3.0000
v -6.0000 7.0000 -2.0000
v -6.0000 4.0000 6.0000
v -6.0000 4.0000 5.0000
v -5.0000 4.0000 5.0000
v -5.0000 4.0000 6.0000
v -5.0000 5.0000 6.0000
v -6.0000 5.0000 6.0000
v -6.0000 5.0000 5.0000
v -5.0000 5.0000 5.0000
v -6.0000 6.0000 6.0000
v -5.0000 6.0000 6.0000
v -5.0000 6.0000 5.0000
v -6.0000 6.0000 5.0000
v -5.0000 8.0000 5.0000
v -5.0000 8.0000 4.0000
v -5.0000 7.0000 4.0000
v -5.0000 7.0000 5.0000
v -5.0000 8.0000 2.0000
v -5.0000 8.0000 1.0000
v -6.0000 8.0000 1.0000
v -6.0000 7.0000 1.0000
v -5.0000 7.0000 1.0000
v -5.0000 7.0000 2.0000
v -6.0000 5.0000 1.0000
v -5.0000 5.0000 1.0000
v -5.0000 5.0000 -0.0000
v -6.0000 4.0000 1.0000
v -5.0000 4.0000 -0.0000
v -5.0000 4.0000 1.0000
v -5.0000 5.0000 -1.0000
v -5.0000 4.0000 -1.0000
v -6.0000 6.0000 -0.0000
v -6.0000 6.0000 -1.0000
v -5.0000 6.0000 -1.0000
v -5.0000 6.0000 -0.0000
v -5.0000 7.0000 -0.0000
v -5.0000 8.0000 -0.0000
v -5.0000 8.0000 -1.0000
v -5.0000 7.0000 -1.0000
v -5.0000 5.0000 -2.0000
v -6.0000 5.0000 -2.0000
v -6.0000 4.0000 -2.0000
v -5.0000 4.0000 -2.0000
v -6.0000 6.0000 -2.0000
v -5.0000 6.0000 -2.0000
v -5.0000 7.0000 -2.0000
v -5.0000 8.0000 -2.0000
v -6.0000 6.0000 -4.0000
v -6.0000 6.0000 -5.0000
v -5.0000 6.0000 -5.0000
v -5.0000 6.0000 -4.0000
v -5.0000 7.0000 -4.0000
v -6.0000 7.0000 -4.0000
v -6.0000 7.0000 -5.0000
v -6.0000 8.0000 -4.0000
v -5.0000 8.0000 -4.0000
v -5.0000 8.0000 -5.0000
v -6.0000 8.0000 -5.0000
v -5.0000 7.0000 -5.0000
v -6.0000 5.0000 -5.0000
v -6.0000 5.0000 -6.0000
v -5.0000 5.0000 -6.0000
v -5.0000 5.0000 -5.0000
v -5.0000 6.0000 -6.0000
v -6.0000 6.0000 -6.0000
v -5.0000 7.0000 -6.0000
v -6.0000 7.0000 -6.0000
v -6.0000 5.0000 -7.0000
v -5.0000 5.0000 -7.0000
v -5.0000 6.0000 -7.0000
v -6.0000 6.0000 -7.0000
v -5.0000 7.0000 -7.0000
v -6.0000 7.0000 -7.0000
v -5.0000 6.0000 -8.0000
v -6.0000 6.0000 -8.0000
v -6.0000 5.0000 -8.0000
v -5.0000 5.0000 -8.0000
v -4.0000 5.0000 6.0000
v -4.0000 5.0000 5.0000
v -4.0000 4.0000 5.0000
v -4.0000 4.0000 6.0000
v -5.0000 4.0000 2.0000
v -4.0000 4.0000 1.0000
v -4.0000 4.0000 2.0000
v -4.0000 5.0000 2.0000
v -5.0000 5.0000 2.0000
v -4.0000 6.0000 2.0000
v -5.0000 6.0000 2.0000
v -5.0000 6.0000 1.0000
v -4.0000 6.0000 1.0000
v -4.0000 5.0000 1.0000
v -4.0000 7.0000 2.0000
v -4.0000 7.0000 1.0000
v -5.0000 2.0000 1.0000
v -5.0000 2.0000 -0.0000
v -4.0000 2.0000 -0.0000
v -4.0000 2.0000 1.0000
v -4.0000 3.0000 1.0000
v -5.0000 3.0000 1.0000
v -5.0000 3.0000 -0.0000
v -4.0000 3.0000 -0.0000
v -4.0000 4.0000 -0.0000
v -4.0000 5.0000 -0.0000
v -4.0000 7.0000 -0.0000
v -4.0000 6.0000 -0.0000
v -5.0000 2.0000 -1.0000
v -4.0000 2.0000 -1.0000
v -5.0000 3.0000 -1.0000
v -4.0000 3.0000 -1.0000
v -4.0000 4.0000 -1.0000
v -4.0000 5.0000 -1.0000
v -4.0000 7.0000 -1.0000
v -4.0000 6.0000 -1.0000
v -4.0000 5.0000 -2.0000
v -4.0000 6.0000 -2.0000
v -4.0000 7.0000 -2.0000
v -4.0000 5.0000 -3.0000
v -5.0000 5.0000 -3.0000
v -5.0000 4.0000 -3.0000
v -4.0000 4.0000 -3.0000
v -4.0000 4.0000 -2.0000
v -4.0000 8.0000 -2.0000
v -4.0000 8.0000 -3.0000
v -5.0000 8.0000 -3.0000
v -5.0000 7.0000 -3.0000
v -4.0000 7.0000 -3.0000
v -4.0000 8.0000 -4.0000
v -4.0000 7.0000 -4.0000
v -5.0000 5.0000 -4.0000
v -4.0000 5.0000 -5.0000
v -4.0000 5.0000 -4.0000
v -4.0000 6.0000 -4.0000
v -4.0000 6.0000 -5.0000
v -4.0000 7.0000 -5.0000
v -4.0000 8.0000 -5.0000
v -4.0000 8.0000 -6.0000
v -5.0000 8.0000 -6.0000
v -4.0000 7.0000 -6.0000
v -4.0000 8.0000 6.0000
v -3.0000 8.0000 6.0000
v -3.0000 8.0000 5.0000
v -4.0000 8.0000 5.0000
v -4.0000 7.0000 6.0000
v -4.0000 7.0000 5.0000
v -3.0000 7.0000 5.0000
v -3.0000 7.0000 6.0000
v -4.0000 4.0000 4.0000
v -3.0000 4.0000 4.0000
v -3.0000 4.0000 5.0000
v -3.0000 5.0000 5.0000
v -4.0000 5.0000 4.0000
v -3.0000 6.0000 5.0000
v -4.0000 6.0000 5.0000
v -4.0000 6.0000 4.0000
v -3.0000 6.0000 4.0000
v -3.0000 5.0000 4.0000
v -3.0000 7.0000 4.0000
v -4.0000 7.0000 4.0000
v -3.0000 5.0000 3.0000
v -4.0000 5.0000 3.0000
v -4.0000 4.0000 3.0000
v -3.0000 4.0000 3.0000
v -3.0000 7.0000 3.0000
v -4.0000 7.0000 3.0000
v -4.0000 6.0000 3.0000
v -3.0000 6.0000 3.0000
v -3.0000 5.0000 2.0000
v -3.0000 4.0000 2.0000
v -3.0000 7.0000 2.0000
v -3.0000 6.0000 2.0000
v -3.0000 5.0000 1.0000
v -3.0000 4.0000 1.0000
v -3.0000 7.0000 1.0000
v -3.0000 6.0000 1.0000
v -4.0000 1.0000 1.0000
v -4.0000 1.0000 -0.0000
v -3.0000 1.0000 -0.0000
v -3.0000 1.0000 1.0000
v -3.0000 2.0000 1.0000
v -3.0000 3.0000 1.0000
v -3.0000 3.0000 -0.0000
v -3.0000 2.0000 -0.0000
v -3.0000 5.0000 -0.0000
v -3.0000 4.0000 -0.0000
v -4.0000 -7.0000 -0.0000
v -3.0000 -7.0000 -0.0000
v -3.0000 -7.0000 -1.0000
v -4.0000 -7.0000 -1.0000
v -4.0000 -8.0000 -0.0000
v -4.0000 -8.0000 -1.0000
v -3.0000 -8.0000 -1.0000
v -3.0000 -8.0000 -0.0000
v -4.0000 1.0000 -1.0000
v -3.0000 1.0000 -1.0000
v -3.0000 2.0000 -1.0000
v -3.0000 3.0000 -1.0000
v -3.0000 6.0000 -0.0000
v -3.0000 6.0000 -1.0000
v -3.0000 5.0000 -1.0000
v -3.0000 4.0000 -2.0000
v -3.0000 4.0000 -1.0000
v -3.0000 5.0000 -2.0000
v -3.0000 6.0000 -2.0000
v -3.0000 5.0000 -3.0000
v -3.0000 5.0000 -4.0000
v -4.0000 4.0000 -4.0000
v -3.0000 4.0000 -4.0000
v -3.0000 4.0000 -3.0000
v -3.0000 8.0000 -4.0000
v -3.0000 8.0000 -5.0000
v -3.0000 7.0000 -5.0000
v -3.0000 7.0000 -4.0000
v -3.0000 8.0000 -6.0000
v -3.0000 7.0000 -6.0000
v -3.0000 8.0000 -7.0000
v -4.0000 8.0000 -7.0000
v -4.0000 7.0000 -7.0000
v -3.0000 7.0000 -7.0000
v -4.0000 5.0000 -7.0000
v -4.0000 5.0000 -8.0000
v -3.0000 5.0000 -8.0000
v -3.0000 5.0000 -7.0000
v -3.0000 6.0000 -7.0000
v -4.0000 6.0000 -7.0000
v -4.0000 6.0000 -8.0000
v -3.0000 6.0000 -8.0000
v -4.0000 7.0000 -8.0000
v -3.0000 7.0000 -8.0000
v -3.0000 8.0000 -8.0000
v -4.0000 8.0000 -8.0000
v -2.0000 8.0000 6.0000
v -2.0000 8.0000 5.0000
v -2.0000 7.0000 5.0000
v -2.0000 7.0000 6.0000
v -2.0000 4.0000 4.0000
v -2.0000 4.0000 5.0000
v -2.0000 5.0000 5.0000
v -2.0000 5.0000 4.0000
v -2.0000 6.0000 5.0000
v -2.0000 6.0000 4.0000
v -3.0000 3.0000 4.0000
v -3.0000 3.0000 3.0000
v -2.0000 3.0000 3.0000
v -2.0000 3.0000 4.0000
v -2.0000 4.0000 3.0000
v -2.0000 5.0000 3.0000
v -3.0000 2.0000 3.0000
v -3.0000 2.0000 2.0000
v -2.0000 2.0000 2.0000
v -2.0000 2.0000 3.0000
v -2.0000 3.0000 2.0000
v -3.0000 3.0000 2.0000
v -2.0000 4.0000 2.0000
v -2.0000 5.0000 2.0000
v -3.0000 -7.0000 2.0000
v -2.0000 -7.0000 2.0000
v -2.0000 -7.0000 1.0000
v -3.0000 -7.0000 1.0000
v -3.0000 -8.0000 2.0000
v -3.0000 -8.0000 1.0000
v -2.0000 -8.0000 1.0000
v -2.0000 -8.0000 2.0000
v -3.0000 1.0000 2.0000
v -2.0000 1.0000 1.0000
v -2.0000 1.0000 2.0000
v -2.0000 2.0000 1.0000
v -2.0000 3.0000 1.0000
v -2.0000 5.0000 1.0000
v -2.0000 6.0000 2.0000
v -2.0000 7.0000 2.0000
v -2.0000 7.0000 1.0000
v -2.0000 6.0000 1.0000
v -2.0000 -8.0000 -0.0000
v -3.0000 -6.0000 1.0000
v -2.0000 -6.0000 1.0000
v -2.0000 -6.0000 -0.0000
v -3.0000 -6.0000 -0.0000
v -2.0000 2.0000 -0.0000
v -2.0000 1.0000 -0.0000
v -2.0000 6.0000 -0.0000
v -2.0000 5.0000 -0.0000
v -2.0000 -8.0000 -1.0000
v -2.0000 -6.0000 -1.0000
v -3.0000 -6.0000 -1.0000
v -2.0000 -7.0000 -1.0000
v -3.0000 0.0000 -0.0000
v -3.0000 0.0000 -1.0000
v -2.0000 0.0000 -1.0000
v -2.0000 0.0000 -0.0000
v -2.0000 1.0000 -1.0000
v -2.0000 2.0000 -1.0000
v -2.0000 -7.0000 -2.0000
v -3.0000 -7.0000 -2.0000
v -3.0000 -8.0000 -2.0000
v -2.0000 -8.0000 -2.0000
v -3.0000 1.0000 -2.0000
v -2.0000 1.0000 -2.0000
v -3.0000 2.0000 -2.0000
v -2.0000 2.0000 -2.0000
v -2.0000 3.0000 -1.0000
v -2.0000 3.0000 -2.0000
v -3.0000 3.0000 -2.0000
v -2.0000 6.0000 -2.0000
v -2.0000 6.0000 -1.0000
v -2.0000 7.0000 -1.0000
v -3.0000 7.0000 -1.0000
v -3.0000 7.0000 -2.0000
v -2.0000 7.0000 -2.0000
v -3.0000 8.0000 -1.0000
v -2.0000 8.0000 -1.0000
v -2.0000 8.0000 -2.0000
v -3.0000 8.0000 -2.0000
v -3.0000 2.0000 -3.0000
v -2.0000 2.0000 -3.0000
v -3.0000 3.0000 -3.0000
v -2.0000 3.0000 -3.0000
v -2.0000 4.0000 -2.0000
v -2.0000 4.0000 -3.0000
v -2.0000 5.0000 -2.0000
v -2.0000 5.0000 -3.0000
v -2.0000 4.0000 -4.0000
v -3.0000 6.0000 -3.0000
v -2.0000 6.0000 -3.0000
v -2.0000 6.0000 -4.0000
v -3.0000 6.0000 -4.0000
v -2.0000 5.0000 -4.0000
v -3.0000 4.0000 -5.0000
v -2.0000 4.0000 -5.0000
v -2.0000 5.0000 -5.0000
v -3.0000 5.0000 -5.0000
v -2.0000 6.0000 -5.0000
v -3.0000 6.0000 -5.0000
v -2.0000 8.0000 -4.0000
v -2.0000 8.0000 -5.0000
v -2.0000 7.0000 -5.0000
v -2.0000 7.0000 -4.0000
v -2.0000 5.0000 -6.0000
v -3.0000 5.0000 -6.0000
v -3.0000 4.0000 -6.0000
v -2.0000 4.0000 -6.0000
v -2.0000 6.0000 -7.0000
v -2.0000 6.0000 -8.0000
v -2.0000 5.0000 -8.0000
v -2.0000 5.0000 -7.0000
v -1.0000 8.0000 6.0000
v -1.0000 8.0000 5.0000
v -1.0000 7.0000 5.0000
v -1.0000 7.0000 6.0000
v -1.0000 5.0000 4.0000
v -1.0000 5.0000 3.0000
v -1.0000 4.0000 3.0000
v -1.0000 4.0000 4.0000
v -2.0000 -7.0000 3.0000
v -1.0000 -7.0000 3.0000
v -1.0000 -7.0000 2.0000
v -2.0000 -8.0000 3.0000
v -1.0000 -8.0000 2.0000
v -1.0000 -8.0000 3.0000
v -2.0000 6.0000 3.0000
v -1.0000 6.0000 3.0000
v -1.0000 6.0000 2.0000
v -1.0000 5.0000 2.0000
v -1.0000 -7.0000 1.0000
v -1.0000 -8.0000 1.0000
v -1.0000 5.0000 1.0000
v -1.0000 7.0000 2.0000
v -1.0000 7.0000 1.0000
v -1.0000 -8.0000 -0.0000
v -1.0000 -6.0000 1.0000
v -1.0000 -5.0000 1.0000
v -2.0000 -5.0000 1.0000
v -2.0000 -5.0000 -0.0000
v -1.0000 -4.0000 1.0000
v -2.0000 -4.0000 1.0000
v -2.0000 -4.0000 -0.0000
v -1.0000 -3.0000 1.0000
v -2.0000 -3.0000 1.0000
v -2.0000 -3.0000 -0.0000
v -1.0000 -2.0000 1.0000
v -2.0000 -2.0000 1.0000
v -2.0000 -2.0000 -0.0000
v -1.0000 -1.0000 1.0000
v -2.0000 -1.0000 1.0000
v -2.0000 -1.0000 -0.0000
v -1.0000 0.0000 1.0000
v -2.0000 0.0000 1.0000
v -1.0000 1.0000 1.0000
v -1.0000 1.0000 -0.0000
v -1.0000 0.0000 -0.0000
v -1.0000 5.0000 -0.0000
v -2.0000 7.0000 -0.0000
v -2.0000 8.0000 1.0000
v -1.0000 8.0000 1.0000
v -1.0000 8.0000 -0.0000
v -2.0000 8.0000 -0.0000
v -1.0000 -8.0000 -1.0000
v -2.0000 -5.0000 -1.0000
v -1.0000 -5.0000 -1.0000
v -1.0000 -6.0000 -1.0000
v -2.0000 -4.0000 -1.0000
v -1.0000 -4.0000 -1.0000
v -2.0000 -3.0000 -1.0000
v -1.0000 -3.0000 -1.0000
v -2.0000 -2.0000 -1.0000
v -1.0000 -2.0000 -1.0000
v -2.0000 -1.0000 -1.0000
v -1.0000 -1.0000 -1.0000
v -1.0000 0.0000 -1.0000
v -1.0000 1.0000 -1.0000
v -2.0000 4.0000 -0.0000
v -2.0000 4.0000 -1.0000
v -1.0000 4.0000 -1.0000
v -1.0000 4.0000 -0.0000
v -2.0000 5.0000 -1.0000
v -1.0000 5.0000 -1.0000
v -1.0000 8.0000 -1.0000
v -1.0000 7.0000 -1.0000
v -1.0000 -8.0000 -2.0000
v -1.0000 -6.0000 -2.0000
v -2.0000 -6.0000 -2.0000
v -1.0000 -7.0000 -2.0000
v -1.0000 5.0000 -2.0000
v -1.0000 6.0000 -2.0000
v -1.0000 7.0000 -2.0000
v -1.0000 -7.0000 -3.0000
v -2.0000 -7.0000 -3.0000
v -2.0000 -8.0000 -3.0000
v -1.0000 -8.0000 -3.0000
v -1.0000 7.0000 -3.0000
v -2.0000 7.0000 -3.0000
v -1.0000 6.0000 -3.0000
v -1.0000 5.0000 -3.0000
v -1.0000 5.0000 -4.0000
v -1.0000 4.0000 -4.0000
v -1.0000 4.0000 -3.0000
v -1.0000 8.0000 -4.0000
v -1.0000 8.0000 -5.0000
v -1.0000 7.0000 -5.0000
v -1.0000 7.0000 -4.0000
v -1.0000 5.0000 -8.0000
v -1.0000 5.0000 -7.0000
v -1.0000 6.0000 -7.0000
v -1.0000 6.0000 -8.0000
v -2.0000 7.0000 -7.0000
v -1.0000 7.0000 -7.0000
v -1.0000 7.0000 -8.0000
v -2.0000 7.0000 -8.0000
v -1.0000 5.0000 8.0000
v -1.0000 5.0000 7.0000
v 0.0000 5.0000 7.0000
v 0.0000 5.0000 8.0000
v 0.0000 6.0000 8.0000
v -1.0000 6.0000 8.0000
v 0.0000 6.0000 7.0000
v -1.0000 6.0000 7.0000
v -1.0000 7.0000 8.0000
v 0.0000 7.0000 8.0000
v 0.0000 7.0000 7.0000
v -1.0000 7.0000 7.0000
v 0.0000 6.0000 6.0000
v -1.0000 6.0000 6.0000
v -1.0000 5.0000 6.0000
v 0.0000 5.0000 6.0000
v -1.0000 8.0000 7.0000
v 0.0000 8.0000 7.0000
v 0.0000 8.0000 6.0000
v 0.0000 7.0000 6.0000
v 0.0000 5.0000 5.0000
v -1.0000 5.0000 5.0000
v -1.0000 4.0000 6.0000
v -1.0000 4.0000 5.0000
v 0.0000 4.0000 5.0000
v 0.0000 4.0000 6.0000
v 0.0000 8.0000 5.0000
v 0.0000 7.0000 5.0000
v -1.0000 6.0000 5.0000
v -1.0000 6.0000 4.0000
v 0.0000 6.0000 4.0000
v 0.0000 6.0000 5.0000
v -1.0000 7.0000 4.0000
v 0.0000 8.0000 4.0000
v -1.0000 8.0000 4.0000
v 0.0000 7.0000 4.0000
v 0.0000 5.0000 3.0000
v 0.0000 5.0000 4.0000
v 0.0000 7.0000 3.0000
v -1.0000 7.0000 3.0000
v 0.0000 6.0000 3.0000
v 0.0000 -7.0000 3.0000
v 0.0000 -7.0000 2.0000
v 0.0000 -8.0000 2.0000
v 0.0000 -8.0000 3.0000
v -1.0000 4.0000 2.0000
v 0.0000 4.0000 2.0000
v 0.0000 4.0000 3.0000
v 0.0000 6.0000 2.0000
v 0.0000 -8.0000 1.0000
v 0.0000 -6.0000 2.0000
v -1.0000 -6.0000 2.0000
v 0.0000 -5.0000 2.0000
v -1.0000 -5.0000 2.0000
v 0.0000 -4.0000 2.0000
v -1.0000 -4.0000 2.0000
v 0.0000 -3.0000 2.0000
v -1.0000 -3.0000 2.0000
v 0.0000 -2.0000 2.0000
v -1.0000 -2.0000 2.0000
v 0.0000 -1.0000 2.0000
v -1.0000 -1.0000 2.0000
v -1.0000 0.0000 2.0000
v 0.0000 0.0000 2.0000
v 0.0000 0.0000 1.0000
v -1.0000 4.0000 1.0000
v 0.0000 4.0000 1.0000
v 0.0000 7.0000 2.0000
v -1.0000 8.0000 2.0000
v 0.0000 8.0000 2.0000
v 0.0000 8.0000 1.0000
v 0.0000 -8.0000 -0.0000
v 0.0000 0.0000 -0.0000
v 0.0000 4.0000 -0.0000
v 0.0000 5.0000 -0.0000
v 0.0000 8.0000 -0.0000
v 0.0000 -8.0000 -1.0000
v 0.0000 0.0000 -1.0000
v 0.0000 5.0000 -1.0000
v 0.0000 8.0000 -1.0000
v 0.0000 -8.0000 -2.0000
v -1.0000 -5.0000 -2.0000
v 0.0000 -5.0000 -2.0000
v 0.0000 -6.0000 -2.0000
v -1.0000 -4.0000 -2.0000
v 0.0000 -4.0000 -2.0000
v -1.0000 -3.0000 -2.0000
v 0.0000 -3.0000 -2.0000
v -1.0000 -2.0000 -2.0000
v 0.0000 -2.0000 -2.0000
v -1.0000 -1.0000 -2.0000
v 0.0000 -1.0000 -2.0000
v 0.0000 0.0000 -2.0000
v -1.0000 0.0000 -2.0000
v 0.0000 5.0000 -2.0000
v 0.0000 6.0000 -2.0000
v 0.0000 8.0000 -2.0000
v -1.0000 8.0000 -2.0000
v 0.0000 7.0000 -2.0000
v 0.0000 -8.0000 -3.0000
v 0.0000 -6.0000 -3.0000
v -1.0000 -6.0000 -3.0000
v 0.0000 -7.0000 -3.0000
v 0.0000 7.0000 -3.0000
v 0.0000 6.0000 -3.0000
v 0.0000 -7.0000 -4.0000
v -1.0000 -7.0000 -4.0000
v -1.0000 -8.0000 -4.0000
v 0.0000 -8.0000 -4.0000
v 0.0000 8.0000 -4.0000
v 0.0000 8.0000 -5.0000
v 0.0000 7.0000 -5.0000
v 0.0000 7.0000 -4.0000
v 0.0000 8.0000 -6.0000
v -1.0000 8.0000 -6.0000
v -1.0000 7.0000 -6.0000
v 0.0000 7.0000 -6.0000
v -1.0000 6.0000 -6.0000
v 0.0000 6.0000 -6.0000
v 0.0000 6.0000 -7.0000
v -1.0000 5.0000 -6.0000
v 0.0000 5.0000 -7.0000
v 0.0000 5.0000 -6.0000
v 0.0000 6.0000 -8.0000
v 0.0000 5.0000 -8.0000
v 0.0000 4.0000 7.0000
v 1.0000 4.0000 6.0000
v 1.0000 4.0000 7.0000
v 1.0000 5.0000 7.0000
v 1.0000 6.0000 7.0000
v 1.0000 6.0000 6.0000
v 1.0000 5.0000 6.0000
v 1.0000 5.0000 5.0000
v 1.0000 4.0000 5.0000
v 1.0000 8.0000 6.0000
v 1.0000 8.0000 5.0000
v 1.0000 7.0000 5.0000
v 1.0000 7.0000 6.0000
v 1.0000 6.0000 4.0000
v 1.0000 6.0000 5.0000
v 1.0000 7.0000 4.0000
v 1.0000 8.0000 4.0000
v 0.0000 -7.0000 4.0000
v 1.0000 -7.0000 4.0000
v 1.0000 -7.0000 3.0000
v 0.0000 -8.0000 4.0000
v 1.0000 -8.0000 3.0000
v 1.0000 -8.0000 4.0000
v 1.0000 5.0000 3.0000
v 1.0000 5.0000 4.0000
v 1.0000 6.0000 3.0000
v 1.0000 7.0000 3.0000
v 1.0000 -8.0000 2.0000
v 0.0000 -6.0000 3.0000
v 1.0000 -6.0000 3.0000
v 1.0000 -6.0000 2.0000
v 1.0000 -7.0000 2.0000
v 1.0000 4.0000 2.0000
v 1.0000 4.0000 3.0000
v 1.0000 5.0000 2.0000
v 1.0000 6.0000 2.0000
v 1.0000 -8.0000 1.0000
v 1.0000 -5.0000 2.0000
v 1.0000 -6.0000 1.0000
v 1.0000 -5.0000 1.0000
v 1.0000 -4.0000 2.0000
v 1.0000 -4.0000 1.0000
v 1.0000 -3.0000 2.0000
v 1.0000 -3.0000 1.0000
v 1.0000 -2.0000 2.0000
v 1.0000 -2.0000 1.0000
v 1.0000 -1.0000 2.0000
v 1.0000 -1.0000 1.0000
v 1.0000 0.0000 2.0000
v 1.0000 0.0000 1.0000
v 1.0000 4.0000 1.0000
v 1.0000 7.0000 2.0000
v 1.0000 8.0000 2.0000
v 1.0000 8.0000 1.0000
v 1.0000 -8.0000 -0.0000
v 1.0000 0.0000 -0.0000
v 1.0000 4.0000 -0.0000
v 1.0000 5.0000 -0.0000
v 1.0000 5.0000 1.0000
v 1.0000 8.0000 -0.0000
v 1.0000 7.0000 1.0000
v 1.0000 7.0000 -0.0000
v 1.0000 -8.0000 -1.0000
v 1.0000 0.0000 -1.0000
v 0.0000 4.0000 -1.0000
v 1.0000 4.0000 -1.0000
v 1.0000 5.0000 -1.0000
v 1.0000 8.0000 -1.0000
v 1.0000 7.0000 -1.0000
v 1.0000 -8.0000 -2.0000
v 1.0000 -5.0000 -2.0000
v 1.0000 -6.0000 -2.0000
v 1.0000 -6.0000 -1.0000
v 1.0000 -5.0000 -1.0000
v 1.0000 -4.0000 -2.0000
v 1.0000 -4.0000 -1.0000
v 1.0000 -3.0000 -2.0000
v 1.0000 -3.0000 -1.0000
v 1.0000 -2.0000 -2.0000
v 1.0000 -2.0000 -1.0000
v 1.0000 -1.0000 -2.0000
v 1.0000 -1.0000 -1.0000
v 1.0000 0.0000 -2.0000
v 1.0000 5.0000 -2.0000
v 1.0000 7.0000 -2.0000
v 1.0000 6.0000 -2.0000
v 1.0000 8.0000 -2.0000
v 1.0000 -8.0000 -3.0000
v 1.0000 -7.0000 -3.0000
v 1.0000 -6.0000 -3.0000
v 1.0000 -7.0000 -2.0000
v 1.0000 6.0000 -3.0000
v 0.0000 5.0000 -3.0000
v 1.0000 5.0000 -3.0000
v 0.0000 5.0000 -4.0000
v 1.0000 5.0000 -4.0000
v 0.0000 6.0000 -4.0000
v 1.0000 6.0000 -4.0000
v 1.0000 7.0000 -3.0000
v 1.0000 7.0000 -4.0000
v 0.0000 6.0000 -5.0000
v 1.0000 6.0000 -5.0000
v 1.0000 7.0000 -5.0000
v 1.0000 8.0000 -4.0000
v 1.0000 8.0000 -5.0000
v 1.0000 8.0000 -6.0000
v 1.0000 7.0000 -6.0000
v 1.0000 6.0000 -6.0000
v 1.0000 6.0000 -7.0000
v 1.0000 5.0000 -7.0000
v 1.0000 5.0000 -6.0000
v 1.0000 8.0000 -7.0000
v 0.0000 8.0000 -7.0000
v 0.0000 7.0000 -7.0000
v 1.0000 7.0000 -7.0000
v 1.0000 5.0000 -8.0000
v 1.0000 6.0000 -8.0000
v 1.0000 7.0000 -8.0000
v 0.0000 7.0000 -8.0000
v 1.0000 6.0000 8.0000
v 2.0000 6.0000 8.0000
v 2.0000 6.0000 7.0000
v 1.0000 5.0000 8.0000
v 2.0000 5.0000 7.0000
v 2.0000 5.0000 8.0000
v 2.0000 4.0000 6.0000
v 2.0000 4.0000 7.0000
v 2.0000 5.0000 6.0000
v 2.0000 6.0000 6.0000
v 2.0000 5.0000 5.0000
v 2.0000 4.0000 5.0000
v 2.0000 8.0000 6.0000
v 2.0000 8.0000 5.0000
v 2.0000 7.0000 5.0000
v 2.0000 7.0000 6.0000
v 2.0000 7.0000 4.0000
v 2.0000 7.0000 3.0000
v 2.0000 6.0000 3.0000
v 2.0000 6.0000 4.0000
v 2.0000 -7.0000 3.0000
v 2.0000 -7.0000 2.0000
v 2.0000 -8.0000 2.0000
v 2.0000 -8.0000 3.0000
v 2.0000 -8.0000 1.0000
v 2.0000 -6.0000 2.0000
v 2.0000 -6.0000 1.0000
v 2.0000 -7.0000 1.0000
v 2.0000 4.0000 1.0000
v 2.0000 4.0000 2.0000
v 2.0000 5.0000 2.0000
v 2.0000 5.0000 1.0000
v 2.0000 6.0000 2.0000
v 2.0000 6.0000 1.0000
v 2.0000 7.0000 2.0000
v 2.0000 8.0000 2.0000
v 2.0000 8.0000 1.0000
v 2.0000 7.0000 1.0000
v 2.0000 -8.0000 -0.0000
v 2.0000 -5.0000 1.0000
v 2.0000 -6.0000 -0.0000
v 2.0000 -5.0000 -0.0000
v 2.0000 -4.0000 1.0000
v 2.0000 -4.0000 -0.0000
v 2.0000 -3.0000 1.0000
v 2.0000 -3.0000 -0.0000
v 2.0000 -2.0000 1.0000
v 2.0000 -2.0000 -0.0000
v 2.0000 -1.0000 1.0000
v 2.0000 -1.0000 -0.0000
v 2.0000 0.0000 1.0000
v 2.0000 0.0000 -0.0000
v 1.0000 1.0000 1.0000
v 2.0000 1.0000 1.0000
v 2.0000 1.0000 -0.0000
v 1.0000 1.0000 -0.0000
v 2.0000 5.0000 -0.0000
v 2.0000 6.0000 -0.0000
v 2.0000 7.0000 -0.0000
v 2.0000 -8.0000 -1.0000
v 2.0000 -5.0000 -1.0000
v 2.0000 -6.0000 -1.0000
v 2.0000 -4.0000 -1.0000
v 2.0000 -3.0000 -1.0000
v 2.0000 -2.0000 -1.0000
v 2.0000 -1.0000 -1.0000
v 2.0000 0.0000 -1.0000
v 2.0000 1.0000 -1.0000
v 1.0000 1.0000 -1.0000
v 2.0000 5.0000 -1.0000
v 2.0000 7.0000 -1.0000
v 2.0000 6.0000 -1.0000
v 2.0000 -8.0000 -2.0000
v 2.0000 -6.0000 -2.0000
v 2.0000 -7.0000 -2.0000
v 2.0000 -7.0000 -1.0000
v 2.0000 5.0000 -2.0000
v 2.0000 7.0000 -2.0000
v 2.0000 6.0000 -2.0000
v 2.0000 8.0000 -1.0000
v 2.0000 8.0000 -2.0000
v 2.0000 -7.0000 -3.0000
v 2.0000 -8.0000 -3.0000
v 2.0000 6.0000 -3.0000
v 2.0000 5.0000 -3.0000
v 1.0000 4.0000 -3.0000
v 1.0000 4.0000 -4.0000
v 2.0000 4.0000 -4.0000
v 2.0000 4.0000 -3.0000
v 2.0000 5.0000 -4.0000
v 2.0000 6.0000 -4.0000
v 2.0000 7.0000 -3.0000
v 2.0000 7.0000 -4.0000
v 2.0000 6.0000 -5.0000
v 2.0000 7.0000 -5.0000
v 2.0000 8.0000 -4.0000
v 2.0000 8.0000 -5.0000
v 2.0000 8.0000 -6.0000
v 2.0000 7.0000 -6.0000
v 2.0000 8.0000 -7.0000
v 2.0000 7.0000 -7.0000
v 2.0000 6.0000 -7.0000
v 2.0000 6.0000 -8.0000
v 2.0000 5.0000 -8.0000
v 2.0000 5.0000 -7.0000
v 3.0000 6.0000 8.0000
v 3.0000 6.0000 7.0000
v 3.0000 5.0000 7.0000
v 3.0000 5.0000 8.0000
v 3.0000 6.0000 6.0000
v 3.0000 5.0000 6.0000
v 3.0000 5.0000 5.0000
v 2.0000 6.0000 5.0000
v 3.0000 6.0000 5.0000
v 3.0000 7.0000 6.0000
v 3.0000 7.0000 5.0000
v 3.0000 5.0000 4.0000
v 2.0000 5.0000 4.0000
v 2.0000 4.0000 4.0000
v 3.0000 4.0000 4.0000
v 3.0000 4.0000 5.0000
v 2.0000 3.0000 4.0000
v 2.0000 3.0000 3.0000
v 3.0000 3.0000 3.0000
v 3.0000 3.0000 4.0000
v 3.0000 4.0000 3.0000
v 2.0000 4.0000 3.0000
v 3.0000 5.0000 3.0000
v 2.0000 5.0000 3.0000
v 3.0000 7.0000 4.0000
v 3.0000 7.0000 3.0000
v 3.0000 6.0000 3.0000
v 3.0000 6.0000 4.0000
v 2.0000 2.0000 3.0000
v 2.0000 2.0000 2.0000
v 3.0000 2.0000 2.0000
v 3.0000 2.0000 3.0000
v 3.0000 3.0000 2.0000
v 2.0000 3.0000 2.0000
v 3.0000 4.0000 2.0000
v 3.0000 5.0000 2.0000
v 3.0000 -7.0000 2.0000
v 3.0000 -7.0000 1.0000
v 3.0000 -8.0000 1.0000
v 3.0000 -8.0000 2.0000
v 2.0000 1.0000 2.0000
v 3.0000 1.0000 1.0000
v 3.0000 1.0000 2.0000
v 3.0000 2.0000 1.0000
v 2.0000 2.0000 1.0000
v 3.0000 3.0000 1.0000
v 2.0000 3.0000 1.0000
v 3.0000 6.0000 1.0000
v 3.0000 6.0000 2.0000
v 3.0000 7.0000 2.0000
v 3.0000 7.0000 1.0000
v 3.0000 8.0000 2.0000
v 3.0000 8.0000 1.0000
v 3.0000 -8.0000 -0.0000
v 3.0000 -6.0000 1.0000
v 3.0000 -6.0000 -0.0000
v 3.0000 -7.0000 -0.0000
v 3.0000 0.0000 -0.0000
v 3.0000 0.0000 1.0000
v 3.0000 1.0000 -0.0000
v 3.0000 2.0000 -0.0000
v 2.0000 2.0000 -0.0000
v 3.0000 6.0000 -0.0000
v 3.0000 7.0000 -0.0000
v 3.0000 8.0000 -0.0000
v 2.0000 8.0000 -0.0000
v 3.0000 -8.0000 -1.0000
v 3.0000 -7.0000 -1.0000
v 3.0000 -6.0000 -1.0000
v 3.0000 0.0000 -1.0000
v 3.0000 1.0000 -1.0000
v 3.0000 2.0000 -1.0000
v 2.0000 2.0000 -1.0000
v 3.0000 6.0000 -1.0000
v 3.0000 5.0000 -1.0000
v 3.0000 5.0000 -0.0000
v 3.0000 -7.0000 -2.0000
v 3.0000 -8.0000 -2.0000
v 2.0000 1.0000 -2.0000
v 3.0000 1.0000 -2.0000
v 2.0000 2.0000 -2.0000
v 3.0000 2.0000 -2.0000
v 2.0000 3.0000 -1.0000
v 3.0000 3.0000 -1.0000
v 3.0000 3.0000 -2.0000
v 2.0000 3.0000 -2.0000
v 3.0000 5.0000 -2.0000
v 3.0000 6.0000 -2.0000
v 3.0000 7.0000 -1.0000
v 3.0000 7.0000 -2.0000
v 2.0000 2.0000 -3.0000
v 3.0000 2.0000 -3.0000
v 2.0000 3.0000 -3.0000
v 3.0000 3.0000 -3.0000
v 3.0000 4.0000 -2.0000
v 2.0000 4.0000 -2.0000
v 3.0000 4.0000 -3.0000
v 3.0000 6.0000 -3.0000
v 3.0000 5.0000 -3.0000
v 2.0000 3.0000 -4.0000
v 3.0000 3.0000 -4.0000
v 3.0000 4.0000 -4.0000
v 3.0000 5.0000 -4.0000
v 3.0000 8.0000 -5.0000
v 3.0000 8.0000 -6.0000
v 3.0000 7.0000 -6.0000
v 3.0000 7.0000 -5.0000
v 4.0000 6.0000 7.0000
v 4.0000 6.0000 6.0000
v 4.0000 5.0000 6.0000
v 4.0000 5.0000 7.0000
v 4.0000 5.0000 5.0000
v 3.0000 4.0000 6.0000
v 4.0000 4.0000 5.0000
v 4.0000 4.0000 6.0000
v 3.0000 8.0000 6.0000
v 4.0000 8.0000 6.0000
v 4.0000 8.0000 5.0000
v 3.0000 8.0000 5.0000
v 4.0000 7.0000 5.0000
v 4.0000 7.0000 6.0000
v 4.0000 8.0000 4.0000
v 3.0000 8.0000 4.0000
v 4.0000 7.0000 4.0000
v 4.0000 5.0000 4.0000
v 4.0000 5.0000 3.0000
v 4.0000 4.0000 3.0000
v 4.0000 4.0000 4.0000
v 4.0000 6.0000 3.0000
v 4.0000 6.0000 4.0000
v 4.0000 7.0000 3.0000
v 4.0000 8.0000 3.0000
v 3.0000 8.0000 3.0000
v 4.0000 8.0000 2.0000
v 4.0000 7.0000 2.0000
v 4.0000 5.0000 2.0000
v 4.0000 5.0000 1.0000
v 3.0000 5.0000 1.0000
v 3.0000 4.0000 1.0000
v 4.0000 4.0000 1.0000
v 4.0000 4.0000 2.0000
v 4.0000 8.0000 1.0000
v 4.0000 7.0000 1.0000
v 4.0000 -7.0000 1.0000
v 4.0000 -7.0000 -0.0000
v 4.0000 -8.0000 -0.0000
v 4.0000 -8.0000 1.0000
v 4.0000 1.0000 -0.0000
v 4.0000 1.0000 1.0000
v 4.0000 2.0000 1.0000
v 4.0000 2.0000 -0.0000
v 4.0000 3.0000 1.0000
v 4.0000 3.0000 -0.0000
v 3.0000 3.0000 -0.0000
v 4.0000 5.0000 -0.0000
v 3.0000 4.0000 -0.0000
v 4.0000 4.0000 -0.0000
v 4.0000 8.0000 -0.0000
v 4.0000 7.0000 -0.0000
v 4.0000 1.0000 -1.0000
v 4.0000 2.0000 -1.0000
v 4.0000 3.0000 -1.0000
v 4.0000 8.0000 -1.0000
v 3.0000 8.0000 -1.0000
v 4.0000 7.0000 -1.0000
v 4.0000 5.0000 -2.0000
v 4.0000 5.0000 -3.0000
v 4.0000 4.0000 -3.0000
v 4.0000 4.0000 -2.0000
v 4.0000 5.0000 -4.0000
v 4.0000 4.0000 -4.0000
v 3.0000 6.0000 -5.0000
v 4.0000 6.0000 -5.0000
v 4.0000 6.0000 -6.0000
v 3.0000 6.0000 -6.0000
v 3.0000 5.0000 -5.0000
v 3.0000 5.0000 -6.0000
v 4.0000 5.0000 -6.0000
v 4.0000 5.0000 -5.0000
v 4.0000 6.0000 -7.0000
v 3.0000 6.0000 -7.0000
v 3.0000 5.0000 -7.0000
v 4.0000 5.0000 -7.0000
v 4.0000 6.0000 -8.0000
v 3.0000 6.0000 -8.0000
v 3.0000 5.0000 -8.0000
v 4.0000 5.0000 -8.0000
v 5.0000 8.0000 6.0000
v 5.0000 8.0000 5.0000
v 5.0000 7.0000 5.0000
v 5.0000 7.0000 6.0000
v 5.0000 8.0000 4.0000
v 5.0000 7.0000 4.0000
v 5.0000 7.0000 3.0000
v 5.0000 6.0000 3.0000
v 5.0000 6.0000 4.0000
v 5.0000 8.0000 3.0000
v 5.0000 8.0000 2.0000
v 5.0000 7.0000 2.0000
v 5.0000 8.0000 1.0000
v 5.0000 7.0000 1.0000
v 5.0000 2.0000 -0.0000
v 5.0000 2.0000 1.0000
v 5.0000 3.0000 1.0000
v 5.0000 3.0000 -0.0000
v 5.0000 4.0000 1.0000
v 5.0000 4.0000 -0.0000
v 5.0000 5.0000 1.0000
v 5.0000 5.0000 -0.0000
v 5.0000 8.0000 -0.0000
v 5.0000 7.0000 -0.0000
v 5.0000 2.0000 -1.0000
v 5.0000 3.0000 -1.0000
v 4.0000 4.0000 -1.0000
v 5.0000 4.0000 -1.0000
v 4.0000 5.0000 -1.0000
v 5.0000 5.0000 -1.0000
v 4.0000 6.0000 -0.0000
v 5.0000 6.0000 -0.0000
v 5.0000 6.0000 -1.0000
v 4.0000 6.0000 -1.0000
v 5.0000 6.0000 -2.0000
v 4.0000 6.0000 -2.0000
v 5.0000 5.0000 -2.0000
v 5.0000 5.0000 -4.0000
v 5.0000 5.0000 -3.0000
v 5.0000 6.0000 -3.0000
v 4.0000 6.0000 -3.0000
v 5.0000 6.0000 -4.0000
v 4.0000 6.0000 -4.0000
v 4.0000 7.0000 -3.0000
v 5.0000 7.0000 -3.0000
v 5.0000 7.0000 -4.0000
v 4.0000 7.0000 -4.0000
v 5.0000 6.0000 -5.0000
v 5.0000 5.0000 -5.0000
v 5.0000 6.0000 -6.0000
v 5.0000 5.0000 -6.0000
v 5.0000 5.0000 -7.0000
v 4.0000 7.0000 -6.0000
v 5.0000 7.0000 -6.0000
v 5.0000 7.0000 -7.0000
v 4.0000 7.0000 -7.0000
v 5.0000 6.0000 -7.0000
v 5.0000 6.0000 -8.0000
v 5.0000 5.0000 -8.0000
v 6.0000 7.0000 4.0000
v 6.0000 7.0000 3.0000
v 6.0000 6.0000 3.0000
v 6.0000 6.0000 4.0000
v 6.0000 5.0000 1.0000
v 6.0000 5.0000 -0.0000
v 6.0000 4.0000 -0.0000
v 6.0000 4.0000 1.0000
v 6.0000 7.0000 1.0000
v 6.0000 7.0000 -0.0000
v 5.0000 6.0000 1.0000
v 6.0000 6.0000 -0.0000
v 6.0000 6.0000 1.0000
v 6.0000 5.0000 -1.0000
v 6.0000 4.0000 -1.0000
v 6.0000 7.0000 -1.0000
v 5.0000 7.0000 -1.0000
v 6.0000 6.0000 -1.0000
v 6.0000 6.0000 -5.0000
v 6.0000 6.0000 -6.0000
v 6.0000 5.0000 -6.0000
v 6.0000 5.0000 -5.0000
v 6.0000 6.0000 -7.0000
v 6.0000 5.0000 -7.0000
v 7.0000 6.0000 -0.0000
v 7.0000 6.0000 1.0000
v 7.0000 7.0000 1.0000
v 7.0000 7.0000 -0.0000
v 6.0000 8.0000 1.0000
v 7.0000 8.0000 1.0000
v 7.0000 8.0000 -0.0000
v 6.0000 8.0000 -0.0000
v 7.0000 5.0000 -1.0000
v 7.0000 5.0000 -0.0000
v 7.0000 6.0000 -1.0000
v 7.0000 7.0000 -1.0000
v 7.0000 8.0000 -1.0000
v 6.0000 8.0000 -1.0000
v 7.0000 6.0000 2.0000
v 8.0000 6.0000 1.0000
v 8.0000 6.0000 2.0000
v 8.0000 7.0000 2.0000
v 7.0000 7.0000 2.0000
v 8.0000 7.0000 1.0000
v 7.0000 8.0000 2.0000
v 8.0000 8.0000 2.0000
v 8.0000 8.0000 1.0000
v 8.0000 6.0000 -0.0000
v 8.0000 6.0000 -1.0000
v 8.0000 5.0000 -1.0000
v 8.0000 5.0000 -0.0000
v 8.0000 8.0000 -0.0000
v 8.0000 8.0000 -1.0000
v 8.0000 7.0000 -1.0000
v 8.0000 7.0000 -0.0000
v 8.0000 7.0000 -2.0000
v 7.0000 7.0000 -2.0000
v 7.0000 6.0000 -2.0000
v 8.0000 6.0000 -2.0000
vt 0.001953 0.500000
vt 0.005859 0.500000
vt 0.009766 0.500000
vt 0.013672 0.500000
vt 0.017578 0.500000
vn 0.0 -1.0 0.0
vn 0.0 1.0 0.0
vn 0.0 0.0 1.0
vn 0.0 0.0 -1.0
vn -1.0 0.0 0.0
vn 1.0 0.0 0.0
usemtl mat_Drago_Adriana_Sofia_Espitia_Contreras_fase_3
s off
f 1/1/1 2/1/1 3/1/1 4/1/1
f 1/1/3 4/1/3 5/1/3 6/1/3
f 4/1/6 3/1/6 7/1/6 5/1/6
f 1/1/5 6/1/5 8/1/5 2/1/5
f 9/1/2 10/1/2 11/1/2 12/1/2
f 6/1/3 5/1/3 10/1/3 9/1/3
f 5/1/6 7/1/6 11/1/6 10/1/6
f 6/1/5 9/1/5 12/1/5 8/1/5
f 2/1/1 13/1/1 14/1/1 3/1/1
f 3/1/6 14/1/6 15/1/6 7/1/6
f 2/1/5 8/1/5 16/1/5 13/1/5
f 12/1/2 11/1/2 17/1/2 18/1/2
f 7/1/6 15/1/6 17/1/6 11/1/6
f 8/1/5 12/1/5 18/1/5 16/1/5
f 13/1/1 19/1/1 20/1/1 14/1/1
f 13/1/5 16/1/5 21/1/5 19/1/5
f 18/2/2 17/2/2 22/2/2 23/2/2
f 15/2/6 24/2/6 22/2/6 17/2/6
f 16/2/5 18/2/5 23/2/5 21/2/5
f 19/1/1 25/1/1 26/1/1 20/1/1
f 25/1/4 27/1/4 28/1/4 26/1/4
f 20/1/6 26/1/6 28/1/6 24/1/6
f 19/1/5 21/1/5 27/1/5 25/1/5
f 23/2/2 22/2/2 29/2/2 30/2/2
f 24/2/6 28/2/6 29/2/6 22/2/6
f 21/2/5 23/2/5 30/2/5 27/2/5
f 30/1/2 29/1/2 31/1/2 32/1/2
f 27/1/1 33/1/1 34/1/1 28/1/1
f 33/1/4 32/1/4 31/1/4 34/1/4
f 28/1/6 34/1/6 31/1/6 29/1/6
f 27/1/5 30/1/5 32/1/5 33/1/5
f 35/2/2 36/2/2 37/2/2 38/2/2
f 39/2/1 40/2/1 41/2/1 42/2/1
f 39/2/3 42/2/3 36/2/3 35/2/3
f 39/2/5 35/2/5 38/2/5 40/2/5
f 38/2/2 37/2/2 43/2/2 44/2/2
f 40/2/1 45/2/1 46/2/1 41/2/1
f 41/2/6 46/2/6 43/2/6 37/2/6
f 40/2/5 38/2/5 44/2/5 45/2/5
f 44/1/2 43/1/2 47/1/2 48/1/2
f 45/1/1 49/1/1 50/1/1 46/1/1
f 49/1/4 48/1/4 47/1/4 50/1/4
f 46/1/6 50/1/6 47/1/6 43/1/6
f 45/1/5 44/1/5 48/1/5 49/1/5
f 15/2/2 51/2/2 52/2/2 24/2/2
f 14/2/1 20/2/1 53/2/1 54/2/1
f 14/2/3 54/2/3 51/2/3 15/2/3
f 20/2/4 24/2/4 52/2/4 53/2/4
f 55/2/2 56/2/2 57/2/2 58/2/2
f 59/2/1 60/2/1 61/2/1 62/2/1
f 59/2/3 62/2/3 56/2/3 55/2/3
f 60/2/4 58/2/4 57/2/4 61/2/4
f 59/2/5 55/2/5 58/2/5 60/2/5
f 63/1/2 64/1/2 65/1/2 66/1/2
f 67/1/1 68/1/1 69/1/1 70/1/1
f 67/1/3 70/1/3 64/1/3 63/1/3
f 68/1/4 66/1/4 65/1/4 69/1/4
f 70/1/6 69/1/6 65/1/6 64/1/6
f 67/1/5 63/1/5 66/1/5 68/1/5
f 71/1/1 72/1/1 73/1/1 74/1/1
f 71/1/3 74/1/3 75/1/3 76/1/3
f 72/1/4 77/1/4 78/1/4 73/1/4
f 71/1/5 76/1/5 77/1/5 72/1/5
f 79/2/2 80/2/2 81/2/2 82/2/2
f 76/2/3 75/2/3 80/2/3 79/2/3
f 77/2/4 82/2/4 81/2/4 78/2/4
f 75/2/6 78/2/6 81/2/6 80/2/6
f 76/2/5 79/2/5 82/2/5 77/2/5
f 36/1/2 83/1/2 84/1/2 37/1/2
f 42/1/1 41/1/1 85/1/1 86/1/1
f 42/1/3 86/1/3 83/1/3 36/1/3
f 41/1/4 37/1/4 84/1/4 85/1/4
f 86/1/6 85/1/6 84/1/6 83/1/6
f 47/2/2 87/2/2 88/2/2 89/2/2
f 50/2/1 90/2/1 91/2/1 92/2/1
f 50/2/3 92/2/3 87/2/3 47/2/3
f 90/2/4 89/2/4 88/2/4 91/2/4
f 92/2/6 91/2/6 88/2/6 87/2/6
f 50/2/5 47/2/5 89/2/5 90/2/5
f 93/2/2 94/2/2 95/2/2 51/2/2
f 96/2/1 54/2/1 97/2/1 98/2/1
f 96/2/3 98/2/3 94/2/3 93/2/3
f 96/2/5 93/2/5 51/2/5 54/2/5
f 51/2/2 95/2/2 99/2/2 52/2/2
f 54/2/1 53/2/1 100/2/1 97/2/1
f 101/1/1 102/1/1 103/1/1 104/1/1
f 101/1/3 104/1/3 105/1/3 62/1/3
f 101/1/5 62/1/5 61/1/5 102/1/5
f 56/2/2 106/2/2 107/2/2 57/2/2
f 62/2/3 105/2/3 106/2/3 56/2/3
f 105/2/6 108/2/6 107/2/6 106/2/6
f 52/1/2 99/1/2 109/1/2 110/1/2
f 53/1/1 111/1/1 112/1/1 100/1/1
f 111/1/4 110/1/4 109/1/4 112/1/4
f 100/1/6 112/1/6 109/1/6 99/1/6
f 53/1/5 52/1/5 110/1/5 111/1/5
f 102/1/1 113/1/1 114/1/1 103/1/1
f 113/1/4 70/1/4 115/1/4 114/1/4
f 102/1/5 61/1/5 70/1/5 113/1/5
f 57/1/2 107/1/2 116/1/2 64/1/2
f 70/1/4 64/1/4 116/1/4 115/1/4
f 108/1/6 115/1/6 116/1/6 107/1/6
f 61/1/5 57/1/5 64/1/5 70/1/5
f 117/1/1 118/1/1 119/1/1 120/1/1
f 117/1/3 120/1/3 121/1/3 122/1/3
f 117/1/5 122/1/5 123/1/5 118/1/5
f 124/2/2 125/2/2 126/2/2 127/2/2
f 122/2/3 121/2/3 125/2/3 124/2/3
f 123/2/4 127/2/4 126/2/4 128/2/4
f 121/2/6 128/2/6 126/2/6 125/2/6
f 122/2/5 124/2/5 127/2/5 123/2/5
f 129/1/1 130/1/1 131/1/1 132/1/1
f 129/1/3 132/1/3 119/1/3 118/1/3
f 132/1/6 131/1/6 133/1/6 119/1/6
f 129/1/5 118/1/5 134/1/5 130/1/5
f 123/2/2 128/2/2 135/2/2 136/2/2
f 119/2/6 133/2/6 135/2/6 128/2/6
f 118/2/5 123/2/5 136/2/5 134/2/5
f 130/1/1 137/1/1 138/1/1 131/1/1
f 131/1/6 138/1/6 139/1/6 133/1/6
f 130/1/5 134/1/5 140/1/5 137/1/5
f 136/2/2 135/2/2 141/2/2 142/2/2
f 140/2/4 142/2/4 141/2/4 139/2/4
f 133/2/6 139/2/6 141/2/6 135/2/6
f 134/2/5 136/2/5 142/2/5 140/2/5
f 140/1/2 139/1/2 143/1/2 144/1/2
f 137/1/1 145/1/1 146/1/1 138/1/1
f 145/1/4 144/1/4 143/1/4 146/1/4
f 138/1/6 146/1/6 143/1/6 139/1/6
f 137/1/5 140/1/5 144/1/5 145/1/5
f 75/1/2 147/1/2 148/1/2 78/1/2
f 74/1/1 73/1/1 149/1/1 150/1/1
f 74/1/3 150/1/3 147/1/3 75/1/3
f 73/1/4 78/1/4 148/1/4 149/1/4
f 150/1/6 149/1/6 148/1/6 147/1/6
f 151/1/1 98/1/1 152/1/1 153/1/1
f 151/1/3 153/1/3 154/1/3 155/1/3
f 151/1/5 155/1/5 94/1/5 98/1/5
f 155/1/3 154/1/3 156/1/3 157/1/3
f 94/1/4 158/1/4 159/1/4 160/1/4
f 154/1/6 160/1/6 159/1/6 156/1/6
f 155/1/5 157/1/5 158/1/5 94/1/5
f 92/2/2 161/2/2 162/2/2 91/2/2
f 157/2/3 156/2/3 161/2/3 92/2/3
f 157/2/5 92/2/5 91/2/5 158/2/5
f 163/3/1 164/3/1 165/3/1 166/3/1
f 163/3/3 166/3/3 167/3/3 168/3/3
f 163/3/5 168/3/5 169/3/5 164/3/5
f 168/4/3 167/4/3 152/4/3 98/4/3
f 167/4/6 170/4/6 171/4/6 152/4/6
f 168/4/5 98/4/5 97/4/5 169/4/5
f 94/1/2 160/1/2 172/1/2 95/1/2
f 91/2/2 162/2/2 173/2/2 105/2/2
f 158/2/1 104/2/1 174/2/1 159/2/1
f 159/2/6 174/2/6 173/2/6 162/2/6
f 158/2/5 91/2/5 105/2/5 104/2/5
f 164/4/1 175/4/1 176/4/1 165/4/1
f 175/4/4 177/4/4 178/4/4 176/4/4
f 164/4/5 169/4/5 177/4/5 175/4/5
f 177/4/4 100/4/4 179/4/4 178/4/4
f 170/4/6 178/4/6 179/4/6 171/4/6
f 169/4/5 97/4/5 100/4/5 177/4/5
f 100/1/4 99/1/4 180/1/4 179/1/4
f 171/1/6 179/1/6 180/1/6 172/1/6
f 95/1/3 172/1/3 174/1/3 104/1/3
f 95/1/5 104/1/5 103/1/5 99/1/5
f 105/1/2 173/1/2 181/1/2 108/1/2
f 174/1/6 182/1/6 181/1/6 173/1/6
f 99/1/1 109/1/1 183/1/1 180/1/1
f 109/1/4 114/1/4 184/1/4 183/1/4
f 99/1/5 103/1/5 114/1/5 109/1/5
f 108/1/2 181/1/2 185/1/2 115/1/2
f 114/1/4 115/1/4 185/1/4 184/1/4
f 182/1/6 184/1/6 185/1/6 181/1/6
f 109/1/2 183/1/2 186/1/2 187/1/2
f 112/1/1 188/1/1 189/1/1 190/1/1
f 112/1/3 190/1/3 183/1/3 109/1/3
f 188/1/4 187/1/4 186/1/4 189/1/4
f 190/1/6 189/1/6 186/1/6 183/1/6
f 112/1/5 109/1/5 187/1/5 188/1/5
f 116/2/2 191/2/2 192/2/2 193/2/2
f 115/2/1 194/2/1 195/2/1 185/2/1
f 115/2/3 185/2/3 191/2/3 116/2/3
f 185/2/6 195/2/6 192/2/6 191/2/6
f 115/2/5 116/2/5 193/2/5 194/2/5
f 193/1/2 192/1/2 196/1/2 125/1/2
f 194/1/1 121/1/1 197/1/1 195/1/1
f 121/1/4 125/1/4 196/1/4 197/1/4
f 195/1/6 197/1/6 196/1/6 192/1/6
f 194/1/5 193/1/5 125/1/5 121/1/5
f 198/1/1 132/1/1 199/1/1 200/1/1
f 198/1/3 200/1/3 201/1/3 120/1/3
f 132/1/4 119/1/4 202/1/4 199/1/4
f 200/1/6 199/1/6 202/1/6 201/1/6
f 198/1/5 120/1/5 119/1/5 132/1/5
f 121/1/2 197/1/2 203/1/2 128/1/2
f 120/1/3 201/1/3 197/1/3 121/1/3
f 119/1/4 128/1/4 203/1/4 202/1/4
f 201/1/6 202/1/6 203/1/6 197/1/6
f 126/2/2 204/2/2 205/2/2 206/2/2
f 128/2/1 135/2/1 207/2/1 203/2/1
f 128/2/3 203/2/3 204/2/3 126/2/3
f 135/2/4 206/2/4 205/2/4 207/2/4
f 128/2/5 126/2/5 206/2/5 135/2/5
f 208/1/2 209/1/2 210/1/2 211/1/2
f 212/1/1 213/1/1 214/1/1 215/1/1
f 212/1/3 215/1/3 209/1/3 208/1/3
f 213/1/4 211/1/4 210/1/4 214/1/4
f 212/1/5 208/1/5 211/1/5 213/1/5
f 149/1/1 216/1/1 217/1/1 218/1/1
f 149/1/3 218/1/3 219/1/3 148/1/3
f 149/1/5 148/1/5 220/1/5 216/1/5
f 148/1/3 219/1/3 221/1/3 222/1/3
f 220/1/4 223/1/4 224/1/4 225/1/4
f 148/1/5 222/1/5 223/1/5 220/1/5
f 213/1/2 214/1/2 226/1/2 227/1/2
f 222/1/3 221/1/3 214/1/3 213/1/3
f 221/1/6 224/1/6 226/1/6 214/1/6
f 222/1/5 213/1/5 227/1/5 223/1/5
f 220/1/2 225/1/2 228/1/2 229/1/2
f 216/1/1 230/1/1 231/1/1 217/1/1
f 216/1/5 220/1/5 229/1/5 230/1/5
f 227/2/2 226/2/2 232/2/2 233/2/2
f 223/2/1 234/2/1 235/2/1 224/2/1
f 224/2/6 235/2/6 232/2/6 226/2/6
f 223/2/5 227/2/5 233/2/5 234/2/5
f 229/2/2 228/2/2 236/2/2 154/2/2
f 230/2/1 153/2/1 237/2/1 231/2/1
f 230/2/5 229/2/5 154/2/5 153/2/5
f 233/1/2 232/1/2 238/1/2 161/1/2
f 234/1/1 156/1/1 239/1/1 235/1/1
f 235/1/6 239/1/6 238/1/6 232/1/6
f 234/1/5 233/1/5 161/1/5 156/1/5
f 154/1/2 236/1/2 240/1/2 160/1/2
f 153/1/1 152/1/1 241/1/1 237/1/1
f 237/1/6 241/1/6 240/1/6 236/1/6
f 161/2/2 238/2/2 242/2/2 162/2/2
f 156/2/1 159/2/1 243/2/1 239/2/1
f 159/2/4 162/2/4 242/2/4 243/2/4
f 244/4/1 245/4/1 246/4/1 247/4/1
f 244/4/3 247/4/3 248/4/3 166/4/3
f 244/4/5 166/4/5 165/4/5 245/4/5
f 167/4/2 249/4/2 250/4/2 170/4/2
f 166/4/3 248/4/3 249/4/3 167/4/3
f 248/4/6 251/4/6 250/4/6 249/4/6
f 160/1/2 240/1/2 252/1/2 172/1/2
f 152/1/1 171/1/1 253/1/1 241/1/1
f 171/1/4 172/1/4 252/1/4 253/1/4
f 241/1/6 253/1/6 252/1/6 240/1/6
f 254/3/2 255/3/2 256/3/2 257/3/2
f 258/3/1 259/3/1 260/3/1 261/3/1
f 258/3/3 261/3/3 255/3/3 254/3/3
f 259/3/4 257/3/4 256/3/4 260/3/4
f 258/3/5 254/3/5 257/3/5 259/3/5
f 245/4/1 262/4/1 263/4/1 246/4/1
f 262/4/4 176/4/4 264/4/4 263/4/4
f 245/4/5 165/4/5 176/4/5 262/4/5
f 170/4/2 250/4/2 265/4/2 178/4/2
f 176/4/4 178/4/4 265/4/4 264/4/4
f 251/4/6 264/4/6 265/4/6 250/4/6
f 174/2/2 266/2/2 267/2/2 182/2/2
f 172/2/1 180/2/1 268/2/1 252/2/1
f 172/2/3 252/2/3 266/2/3 174/2/3
f 252/2/6 268/2/6 267/2/6 266/2/6
f 179/4/1 190/4/1 269/4/1 270/4/1
f 179/4/3 270/4/3 268/4/3 180/4/3
f 190/4/4 183/4/4 271/4/4 269/4/4
f 270/4/6 269/4/6 271/4/6 268/4/6
f 179/4/5 180/4/5 183/4/5 190/4/5
f 182/2/2 267/2/2 272/2/2 184/2/2
f 183/2/4 184/2/4 272/2/4 271/2/4
f 268/2/6 271/2/6 272/2/6 267/2/6
f 186/1/2 273/1/2 274/1/2 200/1/2
f 189/1/1 275/1/1 276/1/1 277/1/1
f 189/1/3 277/1/3 273/1/3 186/1/3
f 275/1/4 200/1/4 274/1/4 276/1/4
f 189/1/5 186/1/5 200/1/5 275/1/5
f 196/2/2 278/2/2 279/2/2 204/2/2
f 197/2/1 203/2/1 280/2/1 281/2/1
f 197/2/3 281/2/3 278/2/3 196/2/3
f 197/2/5 196/2/5 204/2/5 203/2/5
f 204/1/2 279/1/2 282/1/2 205/1/2
f 203/1/1 207/1/1 283/1/1 280/1/1
f 280/1/6 283/1/6 282/1/6 279/1/6
f 205/1/2 282/1/2 284/1/2 285/1/2
f 207/1/1 286/1/1 287/1/1 283/1/1
f 283/1/6 287/1/6 284/1/6 282/1/6
f 207/1/5 205/1/5 285/1/5 286/1/5
f 288/1/1 289/1/1 290/1/1 291/1/1
f 288/1/3 291/1/3 292/1/3 293/1/3
f 289/1/4 294/1/4 295/1/4 290/1/4
f 288/1/5 293/1/5 294/1/5 289/1/5
f 293/1/3 292/1/3 287/1/3 286/1/3
f 294/1/4 296/1/4 297/1/4 295/1/4
f 292/1/6 295/1/6 297/1/6 287/1/6
f 293/1/5 286/1/5 296/1/5 294/1/5
f 285/1/2 284/1/2 298/1/2 299/1/2
f 296/1/4 299/1/4 298/1/4 297/1/4
f 287/1/6 297/1/6 298/1/6 284/1/6
f 286/1/5 285/1/5 299/1/5 296/1/5
f 209/1/2 300/1/2 301/1/2 210/1/2
f 215/1/1 214/1/1 302/1/1 303/1/1
f 215/1/3 303/1/3 300/1/3 209/1/3
f 214/1/4 210/1/4 301/1/4 302/1/4
f 218/1/1 217/1/1 304/1/1 305/1/1
f 218/1/3 305/1/3 306/1/3 219/1/3
f 305/1/6 304/1/6 307/1/6 306/1/6
f 221/2/2 308/2/2 309/2/2 224/2/2
f 219/2/3 306/2/3 308/2/3 221/2/3
f 225/2/4 224/2/4 309/2/4 307/2/4
f 306/2/6 307/2/6 309/2/6 308/2/6
f 310/3/1 311/3/1 312/3/1 313/3/1
f 310/3/3 313/3/3 304/3/3 217/3/3
f 313/3/6 312/3/6 314/3/6 304/3/6
f 310/3/5 217/3/5 231/3/5 311/3/5
f 225/2/2 307/2/2 315/2/2 228/2/2
f 316/3/1 317/3/1 318/3/1 319/3/1
f 316/3/3 319/3/3 312/3/3 311/3/3
f 319/3/6 318/3/6 320/3/6 312/3/6
f 316/3/5 311/3/5 321/3/5 317/3/5
f 321/4/4 237/4/4 322/4/4 320/4/4
f 312/4/6 320/4/6 322/4/6 314/4/6
f 311/4/5 231/4/5 237/4/5 321/4/5
f 228/2/2 315/2/2 323/2/2 236/2/2
f 237/2/4 236/2/4 323/2/4 322/2/4
f 314/2/6 322/2/6 323/2/6 315/2/6
f 324/4/2 325/4/2 326/4/2 327/4/2
f 328/4/1 329/4/1 330/4/1 331/4/1
f 328/4/3 331/4/3 325/4/3 324/4/3
f 328/4/5 324/4/5 327/4/5 329/4/5
f 332/4/1 247/4/1 333/4/1 334/4/1
f 332/4/3 334/4/3 318/4/3 317/4/3
f 334/4/6 333/4/6 335/4/6 318/4/6
f 332/4/5 317/4/5 248/4/5 247/4/5
f 321/4/2 320/4/2 336/4/2 249/4/2
f 248/4/4 249/4/4 336/4/4 335/4/4
f 318/4/6 335/4/6 336/4/6 320/4/6
f 317/4/5 321/4/5 249/4/5 248/4/5
f 236/1/1 240/1/1 337/1/1 323/1/1
f 236/1/3 323/1/3 338/1/3 239/1/3
f 236/1/5 239/1/5 243/1/5 240/1/5
f 238/2/2 339/2/2 340/2/2 242/2/2
f 239/2/3 338/2/3 339/2/3 238/2/3
f 243/2/4 242/2/4 340/2/4 341/2/4
f 329/3/1 261/3/1 342/3/1 330/3/1
f 329/3/5 327/3/5 255/3/5 261/3/5
f 343/4/2 344/4/2 345/4/2 346/4/2
f 327/4/3 326/4/3 344/4/3 343/4/3
f 327/4/5 343/4/5 346/4/5 255/4/5
f 248/4/2 335/4/2 347/4/2 251/4/2
f 247/4/1 246/4/1 348/4/1 333/4/1
f 333/4/6 348/4/6 347/4/6 335/4/6
f 243/2/2 341/2/2 349/2/2 266/2/2
f 240/2/1 252/2/1 350/2/1 337/2/1
f 252/2/4 266/2/4 349/2/4 350/2/4
f 240/2/5 243/2/5 266/2/5 252/2/5
f 261/3/1 260/3/1 351/3/1 342/3/1
f 346/3/2 345/3/2 352/3/2 353/3/2
f 256/3/4 353/3/4 352/3/4 354/3/4
f 255/3/5 346/3/5 353/3/5 256/3/5
f 355/4/1 356/4/1 357/4/1 358/4/1
f 355/4/3 358/4/3 348/4/3 246/4/3
f 356/4/4 263/4/4 359/4/4 357/4/4
f 355/4/5 246/4/5 263/4/5 356/4/5
f 251/4/2 347/4/2 360/4/2 264/4/2
f 348/4/6 359/4/6 360/4/6 347/4/6
f 256/3/2 354/3/2 361/3/2 362/3/2
f 260/3/1 363/3/1 364/3/1 351/3/1
f 363/3/4 362/3/4 361/3/4 364/3/4
f 260/3/5 256/3/5 362/3/5 363/3/5
f 263/3/1 365/3/1 366/3/1 359/3/1
f 365/3/4 367/3/4 368/3/4 366/3/4
f 359/3/6 366/3/6 368/3/6 360/3/6
f 263/3/5 264/3/5 367/3/5 365/3/5
f 265/4/2 369/4/2 370/4/2 371/4/2
f 264/4/3 360/4/3 369/4/3 265/4/3
f 360/4/6 368/4/6 370/4/6 369/4/6
f 264/4/5 265/4/5 371/4/5 367/4/5
f 267/1/1 272/1/1 372/1/1 373/1/1
f 267/1/3 373/1/3 374/1/3 375/1/3
f 272/1/4 376/1/4 377/1/4 372/1/4
f 267/1/5 375/1/5 376/1/5 272/1/5
f 378/1/2 379/1/2 380/1/2 381/1/2
f 375/1/3 374/1/3 379/1/3 378/1/3
f 376/1/4 381/1/4 380/1/4 377/1/4
f 374/1/6 377/1/6 380/1/6 379/1/6
f 375/1/5 378/1/5 381/1/5 376/1/5
f 367/3/1 382/3/1 383/3/1 368/3/1
f 382/3/4 384/3/4 385/3/4 383/3/4
f 368/3/6 383/3/6 385/3/6 370/3/6
f 367/3/5 371/3/5 384/3/5 382/3/5
f 371/4/3 370/4/3 386/4/3 269/4/3
f 384/4/4 277/4/4 387/4/4 385/4/4
f 370/4/6 385/4/6 387/4/6 386/4/6
f 371/4/5 269/4/5 277/4/5 384/4/5
f 271/1/2 388/1/2 389/1/2 273/1/2
f 269/1/3 386/1/3 388/1/3 271/1/3
f 386/1/6 387/1/6 389/1/6 388/1/6
f 269/1/5 271/1/5 273/1/5 277/1/5
f 277/1/1 276/1/1 390/1/1 387/1/1
f 391/2/2 392/2/2 393/2/2 394/2/2
f 273/2/3 389/2/3 392/2/3 391/2/3
f 389/2/6 395/2/6 393/2/6 392/2/6
f 273/2/5 391/2/5 394/2/5 274/2/5
f 276/2/1 396/2/1 397/2/1 390/2/1
f 390/2/6 397/2/6 398/2/6 395/2/6
f 276/2/5 274/2/5 399/2/5 396/2/5
f 394/1/2 393/1/2 400/1/2 401/1/2
f 399/1/4 401/1/4 400/1/4 398/1/4
f 395/1/6 398/1/6 400/1/6 393/1/6
f 274/1/5 394/1/5 401/1/5 399/1/5
f 278/1/2 402/1/2 403/1/2 279/1/2
f 281/1/1 280/1/1 404/1/1 405/1/1
f 281/1/3 405/1/3 402/1/3 278/1/3
f 280/1/4 279/1/4 403/1/4 404/1/4
f 399/1/2 398/1/2 406/1/2 407/1/2
f 396/1/1 408/1/1 409/1/1 397/1/1
f 408/1/4 407/1/4 406/1/4 409/1/4
f 397/1/6 409/1/6 406/1/6 398/1/6
f 396/1/5 399/1/5 407/1/5 408/1/5
f 292/1/2 410/1/2 411/1/2 295/1/2
f 291/1/1 290/1/1 412/1/1 413/1/1
f 291/1/3 413/1/3 410/1/3 292/1/3
f 290/1/4 295/1/4 411/1/4 412/1/4
f 300/2/2 414/2/2 415/2/2 301/2/2
f 303/2/1 302/2/1 416/2/1 417/2/1
f 303/2/3 417/2/3 414/2/3 300/2/3
f 302/2/4 301/2/4 415/2/4 416/2/4
f 307/2/2 418/2/2 419/2/2 315/2/2
f 304/2/1 314/2/1 420/2/1 421/2/1
f 304/2/3 421/2/3 418/2/3 307/2/3
f 314/2/4 315/2/4 419/2/4 420/2/4
f 421/2/6 420/2/6 419/2/6 418/2/6
f 422/3/2 423/3/2 424/3/2 325/3/2
f 425/3/1 331/3/1 426/3/1 427/3/1
f 425/3/3 427/3/3 423/3/3 422/3/3
f 425/3/5 422/3/5 325/3/5 331/3/5
f 428/2/2 429/2/2 430/2/2 338/2/2
f 315/2/1 323/2/1 431/2/1 419/2/1
f 315/2/3 419/2/3 429/2/3 428/2/3
f 315/2/5 428/2/5 338/2/5 323/2/5
f 325/4/2 424/4/2 432/4/2 326/4/2
f 331/4/1 330/4/1 433/4/1 426/4/1
f 323/1/1 337/1/1 434/1/1 431/1/1
f 339/1/2 435/1/2 436/1/2 340/1/2
f 338/1/3 430/1/3 435/1/3 339/1/3
f 330/3/1 342/3/1 437/3/1 433/3/1
f 326/4/3 432/4/3 438/4/3 344/4/3
f 344/4/3 438/4/3 439/4/3 440/4/3
f 344/4/5 440/4/5 441/4/5 345/4/5
f 440/4/3 439/4/3 442/4/3 443/4/3
f 440/4/5 443/4/5 444/4/5 441/4/5
f 443/4/3 442/4/3 445/4/3 446/4/3
f 443/4/5 446/4/5 447/4/5 444/4/5
f 446/4/3 445/4/3 448/4/3 449/4/3
f 446/4/5 449/4/5 450/4/5 447/4/5
f 449/4/3 448/4/3 451/4/3 452/4/3
f 449/4/5 452/4/5 453/4/5 450/4/5
f 452/4/3 451/4/3 454/4/3 455/4/3
f 452/4/5 455/4/5 358/4/5 453/4/5
f 333/3/2 456/3/2 457/3/2 348/3/2
f 455/3/3 454/3/3 456/3/3 333/3/3
f 454/3/6 458/3/6 457/3/6 456/3/6
f 455/3/5 333/3/5 348/3/5 358/3/5
f 337/1/1 350/1/1 459/1/1 434/1/1
f 341/5/5 340/5/5 460/5/5 349/5/5
f 461/1/2 462/1/2 463/1/2 464/1/2
f 340/1/3 436/1/3 462/1/3 461/1/3
f 340/1/5 461/1/5 464/1/5 460/1/5
f 342/4/1 351/4/1 465/4/1 437/4/1
f 352/3/4 466/3/4 467/3/4 468/3/4
f 345/3/5 441/3/5 466/3/5 352/3/5
f 466/3/4 469/3/4 470/3/4 467/3/4
f 441/3/5 444/3/5 469/3/5 466/3/5
f 469/3/4 471/3/4 472/3/4 470/3/4
f 444/3/5 447/3/5 471/3/5 469/3/5
f 471/3/4 473/3/4 474/3/4 472/3/4
f 447/3/5 450/3/5 473/3/5 471/3/5
f 473/3/4 475/3/4 476/3/4 474/3/4
f 450/3/5 453/3/5 475/3/5 473/3/5
f 475/3/4 357/3/4 477/3/4 476/3/4
f 453/3/5 358/3/5 357/3/5 475/3/5
f 348/3/2 457/3/2 478/3/2 359/3/2
f 357/3/4 359/3/4 478/3/4 477/3/4
f 458/3/6 477/3/6 478/3/6 457/3/6
f 479/1/1 480/1/1 481/1/1 482/1/1
f 479/1/3 482/1/3 459/1/3 350/1/3
f 480/1/4 483/1/4 484/1/4 481/1/4
f 482/1/6 481/1/6 484/1/6 459/1/6
f 479/1/5 350/1/5 483/1/5 480/1/5
f 350/5/5 349/5/5 373/5/5 483/5/5
f 349/5/5 460/5/5 374/5/5 373/5/5
f 464/1/2 463/1/2 485/1/2 379/1/2
f 374/1/4 379/1/4 485/1/4 486/1/4
f 460/1/5 464/1/5 379/1/5 374/1/5
f 351/3/1 364/3/1 487/3/1 465/3/1
f 352/4/2 468/4/2 488/4/2 489/4/2
f 361/4/4 489/4/4 488/4/4 490/4/4
f 354/4/5 352/4/5 489/4/5 361/4/5
f 483/2/1 388/2/1 491/2/1 484/2/1
f 388/2/4 372/2/4 492/2/4 491/2/4
f 483/2/5 373/2/5 372/2/5 388/2/5
f 374/2/2 486/2/2 493/2/2 377/2/2
f 361/3/2 490/3/2 494/3/2 495/3/2
f 364/3/1 496/3/1 497/3/1 487/3/1
f 496/3/4 495/3/4 494/3/4 497/3/4
f 364/3/5 361/3/5 495/3/5 496/3/5
f 377/2/2 493/2/2 498/2/2 499/2/2
f 372/2/1 392/2/1 500/2/1 492/2/1
f 392/2/4 499/2/4 498/2/4 500/2/4
f 372/2/5 377/2/5 499/2/5 392/2/5
f 389/1/2 501/1/2 502/1/2 395/1/2
f 387/1/1 390/1/1 503/1/1 504/1/1
f 387/1/3 504/1/3 501/1/3 389/1/3
f 390/1/4 395/1/4 502/1/4 503/1/4
f 504/1/6 503/1/6 502/1/6 501/1/6
f 402/1/2 505/1/2 506/1/2 403/1/2
f 405/1/1 404/1/1 507/1/1 508/1/1
f 405/1/3 508/1/3 505/1/3 402/1/3
f 404/1/4 403/1/4 506/1/4 507/1/4
f 413/1/1 412/1/1 509/1/1 510/1/1
f 413/1/3 510/1/3 511/1/3 410/1/3
f 412/1/4 411/1/4 512/1/4 509/1/4
f 513/2/2 514/2/2 515/2/2 516/2/2
f 410/2/3 511/2/3 514/2/3 513/2/3
f 411/2/4 516/2/4 515/2/4 512/2/4
f 511/2/6 512/2/6 515/2/6 514/2/6
f 410/2/5 513/2/5 516/2/5 411/2/5
f 517/1/1 518/1/1 519/1/1 520/1/1
f 517/1/3 520/1/3 521/1/3 522/1/3
f 520/1/6 519/1/6 523/1/6 521/1/6
f 517/1/5 522/1/5 524/1/5 518/1/5
f 525/1/2 526/1/2 527/1/2 528/1/2
f 522/1/3 521/1/3 526/1/3 525/1/3
f 524/1/4 528/1/4 527/1/4 523/1/4
f 521/1/6 523/1/6 527/1/6 526/1/6
f 522/1/5 525/1/5 528/1/5 524/1/5
f 524/1/2 523/1/2 529/1/2 530/1/2
f 518/1/1 531/1/1 532/1/1 519/1/1
f 531/1/4 530/1/4 529/1/4 532/1/4
f 518/1/5 524/1/5 530/1/5 531/1/5
f 533/2/2 534/2/2 535/2/2 414/2/2
f 528/2/1 417/2/1 536/2/1 527/2/1
f 528/2/3 527/2/3 534/2/3 533/2/3
f 527/2/6 536/2/6 535/2/6 534/2/6
f 528/2/5 533/2/5 414/2/5 417/2/5
f 531/2/2 532/2/2 537/2/2 538/2/2
f 539/2/1 540/2/1 541/2/1 542/2/1
f 539/2/3 542/2/3 532/2/3 531/2/3
f 540/2/4 538/2/4 537/2/4 541/2/4
f 539/2/5 531/2/5 538/2/5 540/2/5
f 414/2/2 535/2/2 543/2/2 415/2/2
f 417/2/1 416/2/1 544/2/1 536/2/1
f 545/2/1 546/2/1 547/2/1 548/2/1
f 545/2/3 548/2/3 544/2/3 416/2/3
f 545/2/5 416/2/5 549/2/5 546/2/5
f 415/2/2 543/2/2 550/2/2 551/2/2
f 549/2/4 551/2/4 550/2/4 552/2/4
f 416/2/5 415/2/5 551/2/5 549/2/5
f 418/2/1 419/2/1 553/2/1 554/2/1
f 418/2/3 554/2/3 547/2/3 546/2/3
f 418/2/5 546/2/5 429/2/5 419/2/5
f 549/2/2 552/2/2 555/2/2 556/2/2
f 429/2/4 556/2/4 555/2/4 557/2/4
f 546/2/5 549/2/5 556/2/5 429/2/5
f 423/4/2 558/4/2 559/4/2 424/4/2
f 427/4/1 426/4/1 560/4/1 561/4/1
f 427/4/3 561/4/3 558/4/3 423/4/3
f 420/1/1 562/1/1 563/1/1 564/1/1
f 420/1/3 564/1/3 553/1/3 419/1/3
f 420/1/5 419/1/5 431/1/5 562/1/5
f 429/2/2 557/2/2 565/2/2 430/2/2
f 426/3/1 433/3/1 566/3/1 560/3/1
f 424/4/3 559/4/3 567/4/3 568/4/3
f 424/4/5 568/4/5 438/4/5 432/4/5
f 568/4/3 567/4/3 569/4/3 570/4/3
f 568/4/5 570/4/5 439/4/5 438/4/5
f 570/4/3 569/4/3 571/4/3 572/4/3
f 570/4/5 572/4/5 442/4/5 439/4/5
f 572/4/3 571/4/3 573/4/3 574/4/3
f 572/4/5 574/4/5 445/4/5 442/4/5
f 574/4/3 573/4/3 575/4/3 576/4/3
f 574/4/5 576/4/5 448/4/5 445/4/5
f 576/4/3 575/4/3 577/4/3 578/4/3
f 576/4/5 578/4/5 451/4/5 448/4/5
f 579/4/2 580/4/2 581/4/2 454/4/2
f 578/4/3 577/4/3 580/4/3 579/4/3
f 578/4/5 579/4/5 454/4/5 451/4/5
f 562/1/1 582/1/1 583/1/1 563/1/1
f 562/1/5 431/1/5 434/1/5 582/1/5
f 430/1/3 565/1/3 584/1/3 435/1/3
f 585/2/2 586/2/2 587/2/2 462/2/2
f 435/2/3 584/2/3 586/2/3 585/2/3
f 435/2/5 585/2/5 462/2/5 436/2/5
f 433/3/1 437/3/1 588/3/1 566/3/1
f 454/4/2 581/4/2 589/4/2 458/4/2
f 582/2/1 482/2/1 590/2/1 583/2/1
f 482/2/4 459/2/4 591/2/4 590/2/4
f 582/2/5 434/2/5 459/2/5 482/2/5
f 462/2/2 587/2/2 592/2/2 463/2/2
f 437/3/1 465/3/1 593/3/1 588/3/1
f 458/4/2 589/4/2 594/4/2 477/4/2
f 459/2/1 484/2/1 595/2/1 591/2/1
f 463/1/2 592/1/2 596/1/2 485/1/2
f 465/3/1 487/3/1 597/3/1 593/3/1
f 488/4/4 598/4/4 599/4/4 600/4/4
f 468/4/5 467/4/5 598/4/5 488/4/5
f 598/4/4 601/4/4 602/4/4 599/4/4
f 467/4/5 470/4/5 601/4/5 598/4/5
f 601/4/4 603/4/4 604/4/4 602/4/4
f 470/4/5 472/4/5 603/4/5 601/4/5
f 603/4/4 605/4/4 606/4/4 604/4/4
f 472/4/5 474/4/5 605/4/5 603/4/5
f 605/4/4 607/4/4 608/4/4 606/4/4
f 474/4/5 476/4/5 607/4/5 605/4/5
f 477/4/2 594/4/2 609/4/2 610/4/2
f 607/4/4 610/4/4 609/4/4 608/4/4
f 476/4/5 477/4/5 610/4/5 607/4/5
f 484/1/1 491/1/1 611/1/1 595/1/1
f 491/1/4 492/1/4 612/1/4 611/1/4
f 485/2/2 596/2/2 613/2/2 614/2/2
f 493/2/4 614/2/4 613/2/4 615/2/4
f 486/2/5 485/2/5 614/2/5 493/2/5
f 487/3/1 497/3/1 616/3/1 597/3/1
f 488/4/2 600/4/2 617/4/2 618/4/2
f 494/4/4 618/4/4 617/4/4 619/4/4
f 490/4/5 488/4/5 618/4/5 494/4/5
f 493/1/2 615/1/2 620/1/2 498/1/2
f 492/1/1 500/1/1 621/1/1 612/1/1
f 500/1/4 498/1/4 620/1/4 621/1/4
f 612/1/6 621/1/6 620/1/6 615/1/6
f 494/3/2 619/3/2 622/3/2 623/3/2
f 497/3/1 624/3/1 625/3/1 616/3/1
f 624/3/4 623/3/4 622/3/4 625/3/4
f 616/3/6 625/3/6 622/3/6 619/3/6
f 497/3/5 494/3/5 623/3/5 624/3/5
f 505/1/2 626/1/2 627/1/2 506/1/2
f 508/1/1 507/1/1 628/1/1 629/1/1
f 508/1/3 629/1/3 626/1/3 505/1/3
f 506/2/2 627/2/2 630/2/2 631/2/2
f 507/2/1 632/2/1 633/2/1 628/2/1
f 632/2/4 631/2/4 630/2/4 633/2/4
f 507/2/5 506/2/5 631/2/5 632/2/5
f 634/2/2 635/2/2 636/2/2 511/2/2
f 637/2/1 510/2/1 638/2/1 639/2/1
f 637/2/3 639/2/3 635/2/3 634/2/3
f 637/2/5 634/2/5 511/2/5 510/2/5
f 511/2/2 636/2/2 640/2/2 512/2/2
f 510/2/1 509/2/1 641/2/1 638/2/1
f 509/2/4 512/2/4 640/2/4 641/2/4
f 642/1/1 542/1/1 643/1/1 644/1/1
f 642/1/3 644/1/3 645/1/3 519/1/3
f 642/1/5 519/1/5 532/1/5 542/1/5
f 523/2/2 646/2/2 647/2/2 529/2/2
f 519/2/3 645/2/3 646/2/3 523/2/3
f 532/2/4 529/2/4 647/2/4 648/2/4
f 532/1/2 648/1/2 649/1/2 537/1/2
f 542/1/1 541/1/1 650/1/1 643/1/1
f 541/1/4 537/1/4 649/1/4 650/1/4
f 535/2/2 651/2/2 652/2/2 543/2/2
f 536/2/1 544/2/1 653/2/1 654/2/1
f 536/2/3 654/2/3 651/2/3 535/2/3
f 548/1/1 547/1/1 655/1/1 656/1/1
f 548/1/3 656/1/3 653/1/3 544/1/3
f 656/1/6 655/1/6 657/1/6 653/1/6
f 543/1/2 652/1/2 658/1/2 550/1/2
f 552/1/4 550/1/4 658/1/4 657/1/4
f 653/1/6 657/1/6 658/1/6 652/1/6
f 659/3/2 660/3/2 661/3/2 558/3/2
f 662/3/1 561/3/1 663/3/1 664/3/1
f 662/3/3 664/3/3 660/3/3 659/3/3
f 664/3/6 663/3/6 661/3/6 660/3/6
f 662/3/5 659/3/5 558/3/5 561/3/5
f 554/1/1 553/1/1 665/1/1 666/1/1
f 554/1/3 666/1/3 655/1/3 547/1/3
f 666/1/6 665/1/6 667/1/6 655/1/6
f 552/1/2 657/1/2 668/1/2 555/1/2
f 557/1/4 555/1/4 668/1/4 667/1/4
f 561/3/1 560/3/1 669/3/1 663/3/1
f 670/3/2 671/3/2 672/3/2 567/3/2
f 558/3/3 661/3/3 671/3/3 670/3/3
f 661/3/6 673/3/6 672/3/6 671/3/6
f 558/3/5 670/3/5 567/3/5 559/3/5
f 564/2/1 563/2/1 674/2/1 675/2/1
f 564/2/3 675/2/3 665/2/3 553/2/3
f 675/2/6 674/2/6 676/2/6 665/2/6
f 557/1/2 667/1/2 677/1/2 565/1/2
f 665/1/6 676/1/6 677/1/6 667/1/6
f 560/3/1 566/3/1 678/3/1 669/3/1
f 567/4/3 672/4/3 679/4/3 569/4/3
f 672/4/6 680/4/6 681/4/6 679/4/6
f 569/4/3 679/4/3 682/4/3 571/4/3
f 679/4/6 681/4/6 683/4/6 682/4/6
f 571/4/3 682/4/3 684/4/3 573/4/3
f 682/4/6 683/4/6 685/4/6 684/4/6
f 573/4/3 684/4/3 686/4/3 575/4/3
f 684/4/6 685/4/6 687/4/6 686/4/6
f 575/4/3 686/4/3 688/4/3 577/4/3
f 686/4/6 687/4/6 689/4/6 688/4/6
f 580/4/2 690/4/2 691/4/2 581/4/2
f 577/4/3 688/4/3 690/4/3 580/4/3
f 688/4/6 689/4/6 691/4/6 690/4/6
f 563/2/1 583/2/1 692/2/1 674/2/1
f 565/1/3 677/1/3 693/1/3 584/1/3
f 586/1/2 694/1/2 695/1/2 587/1/2
f 584/1/3 693/1/3 694/1/3 586/1/3
f 566/4/1 588/4/1 696/4/1 678/4/1
f 581/4/2 691/4/2 697/4/2 589/4/2
f 583/1/1 590/1/1 698/1/1 692/1/1
f 692/1/6 698/1/6 699/1/6 700/1/6
f 587/2/2 695/2/2 701/2/2 592/2/2
f 702/2/6 703/2/6 701/2/6 695/2/6
f 588/3/1 593/3/1 704/3/1 696/3/1
f 589/4/2 697/4/2 705/4/2 594/4/2
f 590/1/1 706/1/1 707/1/1 698/1/1
f 706/1/4 595/1/4 708/1/4 707/1/4
f 698/1/6 707/1/6 708/1/6 699/1/6
f 590/1/5 591/1/5 595/1/5 706/1/5
f 592/2/2 701/2/2 709/2/2 596/2/2
f 703/2/6 710/2/6 709/2/6 701/2/6
f 593/4/1 597/4/1 711/4/1 704/4/1
f 600/4/4 599/4/4 712/4/4 713/4/4
f 714/4/6 713/4/6 712/4/6 715/4/6
f 599/4/4 602/4/4 716/4/4 712/4/4
f 715/4/6 712/4/6 716/4/6 717/4/6
f 602/4/4 604/4/4 718/4/4 716/4/4
f 717/4/6 716/4/6 718/4/6 719/4/6
f 604/4/4 606/4/4 720/4/4 718/4/4
f 719/4/6 718/4/6 720/4/6 721/4/6
f 606/4/4 608/4/4 722/4/4 720/4/4
f 721/4/6 720/4/6 722/4/6 723/4/6
f 594/4/2 705/4/2 724/4/2 609/4/2
f 608/4/4 609/4/4 724/4/4 722/4/4
f 723/4/6 722/4/6 724/4/6 705/4/6
f 595/2/1 611/2/1 725/2/1 708/2/1
f 612/5/4 615/5/4 726/5/4 727/5/4
f 596/1/2 709/1/2 728/1/2 613/1/2
f 615/1/4 613/1/4 728/1/4 726/1/4
f 597/3/1 616/3/1 729/3/1 711/3/1
f 616/3/4 619/3/4 730/3/4 729/3/4
f 600/3/2 713/3/2 731/3/2 617/3/2
f 619/3/4 617/3/4 731/3/4 730/3/4
f 732/3/6 730/3/6 731/3/6 713/3/6
f 612/2/2 727/2/2 733/2/2 621/2/2
f 611/2/1 734/2/1 735/2/1 725/2/1
f 611/2/5 612/2/5 621/2/5 734/2/5
f 734/1/1 736/1/1 737/1/1 735/1/1
f 736/1/4 738/1/4 739/1/4 737/1/4
f 734/1/5 621/1/5 738/1/5 736/1/5
f 620/2/2 740/2/2 741/2/2 629/2/2
f 621/2/3 733/2/3 740/2/3 620/2/3
f 621/2/5 620/2/5 629/2/5 738/2/5
f 738/1/1 742/1/1 743/1/1 739/1/1
f 742/1/4 628/1/4 744/1/4 743/1/4
f 738/1/5 629/1/5 628/1/5 742/1/5
f 626/2/2 745/2/2 746/2/2 627/2/2
f 629/2/3 741/2/3 745/2/3 626/2/3
f 627/1/2 746/1/2 747/1/2 630/1/2
f 628/1/1 633/1/1 748/1/1 744/1/1
f 635/1/2 749/1/2 750/1/2 636/1/2
f 639/1/1 638/1/1 751/1/1 752/1/1
f 639/1/3 752/1/3 749/1/3 635/1/3
f 752/1/6 751/1/6 750/1/6 749/1/6
f 630/2/2 747/2/2 753/2/2 754/2/2
f 633/2/1 755/2/1 756/2/1 748/2/1
f 755/2/4 754/2/4 753/2/4 756/2/4
f 633/2/5 630/2/5 754/2/5 755/2/5
f 638/1/1 641/1/1 757/1/1 751/1/1
f 641/1/4 640/1/4 758/1/4 757/1/4
f 755/2/2 756/2/2 759/2/2 760/2/2
f 636/2/3 750/2/3 756/2/3 755/2/3
f 640/2/4 760/2/4 759/2/4 758/2/4
f 750/2/6 758/2/6 759/2/6 756/2/6
f 636/2/5 755/2/5 760/2/5 640/2/5
f 761/2/2 762/2/2 763/2/2 646/2/2
f 764/2/1 645/2/1 765/2/1 766/2/1
f 764/2/3 766/2/3 762/2/3 761/2/3
f 764/2/5 761/2/5 646/2/5 645/2/5
f 644/1/1 643/1/1 767/1/1 768/1/1
f 644/1/3 768/1/3 765/1/3 645/1/3
f 768/1/6 767/1/6 769/1/6 765/1/6
f 646/2/2 763/2/2 770/2/2 647/2/2
f 648/2/4 647/2/4 770/2/4 769/2/4
f 648/2/2 769/2/2 771/2/2 649/2/2
f 643/2/1 650/2/1 772/2/1 767/2/1
f 650/2/4 649/2/4 771/2/4 772/2/4
f 767/2/6 772/2/6 771/2/6 769/2/6
f 651/1/2 773/1/2 774/1/2 652/1/2
f 654/1/1 653/1/1 775/1/1 776/1/1
f 654/1/3 776/1/3 773/1/3 651/1/3
f 653/1/4 652/1/4 774/1/4 775/1/4
f 776/1/6 775/1/6 774/1/6 773/1/6
f 657/1/2 777/1/2 778/1/2 668/1/2
f 655/1/1 667/1/1 779/1/1 780/1/1
f 655/1/3 780/1/3 777/1/3 657/1/3
f 667/1/4 668/1/4 778/1/4 779/1/4
f 661/4/2 781/4/2 782/4/2 673/4/2
f 663/4/1 669/4/1 783/4/1 784/4/1
f 663/4/3 784/4/3 781/4/3 661/4/3
f 784/4/6 783/4/6 782/4/6 781/4/6
f 669/3/1 678/3/1 785/3/1 783/3/1
f 672/3/2 786/3/2 787/3/2 680/3/2
f 673/3/3 782/3/3 786/3/3 672/3/3
f 782/3/6 788/3/6 787/3/6 786/3/6
f 674/1/1 692/1/1 789/1/1 790/1/1
f 674/1/3 790/1/3 791/1/3 676/1/3
f 692/1/4 700/1/4 792/1/4 789/1/4
f 790/1/6 789/1/6 792/1/6 791/1/6
f 676/1/3 791/1/3 793/1/3 677/1/3
f 791/1/6 792/1/6 794/1/6 793/1/6
f 677/1/3 793/1/3 795/1/3 693/1/3
f 694/1/2 796/1/2 797/1/2 695/1/2
f 693/1/3 795/1/3 796/1/3 694/1/3
f 702/1/4 695/1/4 797/1/4 798/1/4
f 678/3/1 696/3/1 799/3/1 785/3/1
f 680/3/3 787/3/3 800/3/3 681/3/3
f 787/3/6 801/3/6 802/3/6 800/3/6
f 681/3/3 800/3/3 803/3/3 683/3/3
f 800/3/6 802/3/6 804/3/6 803/3/6
f 683/3/3 803/3/3 805/3/3 685/3/3
f 803/3/6 804/3/6 806/3/6 805/3/6
f 685/3/3 805/3/3 807/3/3 687/3/3
f 805/3/6 806/3/6 808/3/6 807/3/6
f 687/3/3 807/3/3 809/3/3 689/3/3
f 807/3/6 808/3/6 810/3/6 809/3/6
f 689/3/3 809/3/3 811/3/3 691/3/3
f 809/3/6 810/3/6 812/3/6 811/3/6
f 813/3/2 814/3/2 815/3/2 816/3/2
f 691/3/3 811/3/3 814/3/3 813/3/3
f 691/3/5 813/3/5 816/3/5 697/3/5
f 700/2/1 699/2/1 817/2/1 792/2/1
f 792/2/6 817/2/6 818/2/6 794/2/6
f 702/2/2 798/2/2 819/2/2 703/2/2
f 696/3/1 704/3/1 820/3/1 799/3/1
f 714/4/4 715/4/4 821/4/4 822/4/4
f 801/4/6 822/4/6 821/4/6 802/4/6
f 715/4/4 717/4/4 823/4/4 821/4/4
f 802/4/6 821/4/6 823/4/6 804/4/6
f 717/4/4 719/4/4 824/4/4 823/4/4
f 804/4/6 823/4/6 824/4/6 806/4/6
f 719/4/4 721/4/4 825/4/4 824/4/4
f 806/4/6 824/4/6 825/4/6 808/4/6
f 721/4/4 723/4/4 826/4/4 825/4/4
f 808/4/6 825/4/6 826/4/6 810/4/6
f 723/4/4 705/4/4 827/4/4 826/4/4
f 810/4/6 826/4/6 827/4/6 812/4/6
f 816/3/2 815/3/2 828/3/2 829/3/2
f 705/3/4 829/3/4 828/3/4 827/3/4
f 697/3/5 816/3/5 829/3/5 705/3/5
f 699/1/1 708/1/1 830/1/1 817/1/1
f 703/1/2 819/1/2 831/1/2 710/1/2
f 818/1/6 832/1/6 831/1/6 819/1/6
f 704/3/1 711/3/1 833/3/1 820/3/1
f 714/4/2 822/4/2 834/4/2 713/4/2
f 732/4/4 713/4/4 834/4/4 835/4/4
f 836/4/6 835/4/6 834/4/6 822/4/6
f 708/1/1 725/1/1 837/1/1 830/1/1
f 727/1/4 726/1/4 838/1/4 839/1/4
f 709/2/2 840/2/2 841/2/2 728/2/2
f 710/2/3 831/2/3 840/2/3 709/2/3
f 726/2/4 728/2/4 841/2/4 838/2/4
f 831/2/6 838/2/6 841/2/6 840/2/6
f 732/3/2 835/3/2 842/3/2 730/3/2
f 711/3/1 729/3/1 843/3/1 833/3/1
f 729/3/4 730/3/4 842/3/4 843/3/4
f 833/3/6 843/3/6 842/3/6 835/3/6
f 727/1/2 839/1/2 844/1/2 733/1/2
f 725/1/1 735/1/1 845/1/1 837/1/1
f 846/1/1 847/1/1 848/1/1 849/1/1
f 846/1/3 849/1/3 845/1/3 735/1/3
f 847/1/4 737/1/4 850/1/4 848/1/4
f 846/1/5 735/1/5 737/1/5 847/1/5
f 737/1/4 739/1/4 851/1/4 850/1/4
f 845/1/6 850/1/6 851/1/6 844/1/6
f 740/2/2 852/2/2 853/2/2 741/2/2
f 733/2/3 844/2/3 852/2/3 740/2/3
f 844/2/6 851/2/6 853/2/6 852/2/6
f 739/1/1 743/1/1 854/1/1 851/1/1
f 743/1/4 744/1/4 855/1/4 854/1/4
f 851/1/6 854/1/6 855/1/6 853/1/6
f 745/1/2 856/1/2 857/1/2 746/1/2
f 741/1/3 853/1/3 856/1/3 745/1/3
f 853/1/6 855/1/6 857/1/6 856/1/6
f 746/1/2 857/1/2 858/1/2 747/1/2
f 744/1/1 748/1/1 859/1/1 855/1/1
f 747/1/2 858/1/2 860/1/2 753/1/2
f 748/1/1 756/1/1 861/1/1 859/1/1
f 756/1/4 753/1/4 860/1/4 861/1/4
f 859/1/6 861/1/6 860/1/6 858/1/6
f 750/1/2 862/1/2 863/1/2 758/1/2
f 751/1/1 757/1/1 864/1/1 865/1/1
f 751/1/3 865/1/3 862/1/3 750/1/3
f 757/1/4 758/1/4 863/1/4 864/1/4
f 865/1/6 864/1/6 863/1/6 862/1/6
f 762/2/2 866/2/2 867/2/2 763/2/2
f 766/2/1 765/2/1 868/2/1 869/2/1
f 766/2/3 869/2/3 866/2/3 762/2/3
f 869/2/6 868/2/6 867/2/6 866/2/6
f 763/1/2 867/1/2 870/1/2 770/1/2
f 765/1/1 769/1/1 871/1/1 868/1/1
f 769/2/1 771/2/1 872/2/1 871/2/1
f 771/2/4 873/2/4 874/2/4 872/2/4
f 871/2/6 872/2/6 874/2/6 870/2/6
f 769/2/5 770/2/5 873/2/5 771/2/5
f 776/1/2 875/1/2 876/1/2 775/1/2
f 770/1/3 870/1/3 875/1/3 776/1/3
f 873/1/4 775/1/4 876/1/4 874/1/4
f 870/1/6 874/1/6 876/1/6 875/1/6
f 770/1/5 776/1/5 775/1/5 873/1/5
f 771/1/2 872/1/2 877/1/2 878/1/2
f 772/1/1 879/1/1 880/1/1 881/1/1
f 772/1/3 881/1/3 872/1/3 771/1/3
f 881/1/6 880/1/6 877/1/6 872/1/6
f 772/1/5 771/1/5 878/1/5 879/1/5
f 882/3/1 883/3/1 884/3/1 885/3/1
f 882/3/3 885/3/3 880/3/3 879/3/3
f 885/3/6 884/3/6 886/3/6 880/3/6
f 882/3/5 879/3/5 887/3/5 883/3/5
f 878/1/2 877/1/2 888/1/2 889/1/2
f 879/1/5 878/1/5 889/1/5 887/1/5
f 777/1/2 890/1/2 891/1/2 778/1/2
f 780/1/1 779/1/1 892/1/1 893/1/1
f 780/1/3 893/1/3 890/1/3 777/1/3
f 779/1/4 778/1/4 891/1/4 892/1/4
f 894/3/1 895/3/1 896/3/1 897/3/1
f 894/3/3 897/3/3 884/3/3 883/3/3
f 897/3/6 896/3/6 898/3/6 884/3/6
f 894/3/5 883/3/5 899/3/5 895/3/5
f 899/4/4 790/4/4 900/4/4 898/4/4
f 884/4/6 898/4/6 900/4/6 886/4/6
f 883/4/5 887/4/5 790/4/5 899/4/5
f 889/1/2 888/1/2 901/1/2 791/1/2
f 790/1/4 791/1/4 901/1/4 900/1/4
f 886/1/6 900/1/6 901/1/6 888/1/6
f 887/1/5 889/1/5 791/1/5 790/1/5
f 782/3/2 902/3/2 903/3/2 788/3/2
f 783/3/1 785/3/1 904/3/1 905/3/1
f 783/3/3 905/3/3 902/3/3 782/3/3
f 905/3/6 904/3/6 903/3/6 902/3/6
f 906/3/1 814/3/1 907/3/1 908/3/1
f 906/3/3 908/3/3 896/3/3 895/3/3
f 908/3/6 907/3/6 909/3/6 896/3/6
f 906/3/5 895/3/5 910/3/5 814/3/5
f 899/4/2 898/4/2 911/4/2 912/4/2
f 910/4/4 912/4/4 911/4/4 909/4/4
f 896/4/6 909/4/6 911/4/6 898/4/6
f 895/4/5 899/4/5 912/4/5 910/4/5
f 793/1/1 794/1/1 913/1/1 914/1/1
f 793/1/3 914/1/3 915/1/3 795/1/3
f 914/1/6 913/1/6 916/1/6 915/1/6
f 796/2/2 917/2/2 918/2/2 797/2/2
f 795/2/3 915/2/3 917/2/3 796/2/3
f 785/3/1 799/3/1 919/3/1 904/3/1
f 787/3/2 920/3/2 921/3/2 801/3/2
f 788/3/3 903/3/3 920/3/3 787/3/3
f 903/3/6 922/3/6 921/3/6 920/3/6
f 811/3/1 812/3/1 923/3/1 924/3/1
f 811/3/3 924/3/3 907/3/3 814/3/3
f 924/3/6 923/3/6 925/3/6 907/3/6
f 910/4/2 909/4/2 926/4/2 927/4/2
f 814/4/5 910/4/5 927/4/5 815/4/5
f 794/1/1 818/1/1 928/1/1 913/1/1
f 818/1/4 819/1/4 929/1/4 928/1/4
f 913/1/6 928/1/6 929/1/6 916/1/6
f 797/2/2 918/2/2 930/2/2 931/2/2
f 819/2/4 931/2/4 930/2/4 929/2/4
f 798/2/5 797/2/5 931/2/5 819/2/5
f 799/4/1 820/4/1 932/4/1 919/4/1
f 919/4/6 932/4/6 933/4/6 922/4/6
f 801/4/2 921/4/2 934/4/2 822/4/2
f 836/4/4 822/4/4 934/4/4 933/4/4
f 922/4/6 933/4/6 934/4/6 921/4/6
f 812/3/1 827/3/1 935/3/1 923/3/1
f 827/3/4 828/3/4 936/3/4 935/3/4
f 923/3/6 935/3/6 936/3/6 925/3/6
f 927/4/2 926/4/2 937/4/2 938/4/2
f 815/4/5 927/4/5 938/4/5 828/4/5
f 818/1/2 928/1/2 939/1/2 832/1/2
f 817/1/1 830/1/1 940/1/1 941/1/1
f 817/1/3 941/1/3 928/1/3 818/1/3
f 941/1/6 940/1/6 939/1/6 928/1/6
f 836/4/2 933/4/2 942/4/2 835/4/2
f 820/4/1 833/4/1 943/4/1 932/4/1
f 833/4/4 835/4/4 942/4/4 943/4/4
f 932/4/6 943/4/6 942/4/6 933/4/6
f 828/3/1 944/3/1 945/3/1 936/3/1
f 944/3/4 946/3/4 947/3/4 945/3/4
f 936/3/6 945/3/6 947/3/6 937/3/6
f 828/3/5 938/3/5 946/3/5 944/3/5
f 948/4/2 949/4/2 950/4/2 951/4/2
f 938/4/3 937/4/3 949/4/3 948/4/3
f 937/4/6 947/4/6 950/4/6 949/4/6
f 938/4/5 948/4/5 951/4/5 946/4/5
f 830/1/1 837/1/1 952/1/1 940/1/1
f 940/1/6 952/1/6 953/1/6 939/1/6
f 831/1/2 954/1/2 955/1/2 838/1/2
f 832/1/3 939/1/3 954/1/3 831/1/3
f 839/1/4 838/1/4 955/1/4 953/1/4
f 939/1/6 953/1/6 955/1/6 954/1/6
f 946/3/1 956/3/1 957/3/1 947/3/1
f 956/3/4 958/3/4 959/3/4 957/3/4
f 947/3/6 957/3/6 959/3/6 950/3/6
f 946/3/5 951/3/5 958/3/5 956/3/5
f 951/4/3 950/4/3 960/4/3 961/4/3
f 950/4/6 959/4/6 962/4/6 960/4/6
f 951/4/5 961/4/5 849/4/5 958/4/5
f 961/1/3 960/1/3 952/1/3 837/1/3
f 961/1/5 837/1/5 845/1/5 849/1/5
f 839/2/2 953/2/2 963/2/2 844/2/2
f 845/2/4 844/2/4 963/2/4 964/2/4
f 952/2/6 964/2/6 963/2/6 953/2/6
f 958/3/1 965/3/1 966/3/1 959/3/1
f 965/3/4 848/3/4 967/3/4 966/3/4
f 959/3/6 966/3/6 967/3/6 962/3/6
f 958/3/5 849/3/5 848/3/5 965/3/5
f 845/1/2 964/1/2 968/1/2 850/1/2
f 848/1/4 850/1/4 968/1/4 967/1/4
f 857/1/2 969/1/2 970/1/2 858/1/2
f 855/1/1 859/1/1 971/1/1 972/1/1
f 855/1/3 972/1/3 969/1/3 857/1/3
f 859/1/4 858/1/4 970/1/4 971/1/4
f 972/1/6 971/1/6 970/1/6 969/1/6
f 867/1/2 973/1/2 974/1/2 870/1/2
f 868/1/1 871/1/1 975/1/1 976/1/1
f 868/1/3 976/1/3 973/1/3 867/1/3
f 871/1/4 870/1/4 974/1/4 975/1/4
f 976/1/6 975/1/6 974/1/6 973/1/6
f 871/1/2 975/1/2 977/1/2 872/1/2
f 978/1/1 881/1/1 979/1/1 980/1/1
f 978/1/3 980/1/3 975/1/3 871/1/3
f 881/1/4 872/1/4 977/1/4 979/1/4
f 980/1/6 979/1/6 977/1/6 975/1/6
f 978/1/5 871/1/5 872/1/5 881/1/5
f 981/1/2 982/1/2 983/1/2 984/1/2
f 875/1/1 876/1/1 985/1/1 986/1/1
f 875/1/3 986/1/3 982/1/3 981/1/3
f 875/1/5 981/1/5 984/1/5 876/1/5
f 984/1/2 983/1/2 987/1/2 988/1/2
f 876/1/1 890/1/1 989/1/1 985/1/1
f 876/1/5 984/1/5 988/1/5 890/1/5
f 877/2/2 990/2/2 991/2/2 888/2/2
f 880/2/1 886/2/1 992/2/1 993/2/1
f 880/2/3 993/2/3 990/2/3 877/2/3
f 886/2/4 888/2/4 991/2/4 992/2/4
f 993/2/6 992/2/6 991/2/6 990/2/6
f 893/1/1 892/1/1 994/1/1 995/1/1
f 893/1/3 995/1/3 989/1/3 890/1/3
f 892/1/4 891/1/4 996/1/4 994/1/4
f 988/1/2 987/1/2 997/1/2 998/1/2
f 989/1/6 996/1/6 997/1/6 987/1/6
f 890/1/5 988/1/5 998/1/5 891/1/5
f 998/2/2 997/2/2 999/2/2 917/2/2
f 891/2/1 915/2/1 1000/2/1 996/2/1
f 891/2/5 998/2/5 917/2/5 915/2/5
f 901/1/2 1001/1/2 1002/1/2 1003/1/2
f 900/1/1 1004/1/1 1005/1/1 1006/1/1
f 900/1/3 1006/1/3 1001/1/3 901/1/3
f 1006/1/6 1005/1/6 1002/1/6 1001/1/6
f 900/1/5 901/1/5 1003/1/5 1004/1/5
f 917/1/2 999/1/2 1007/1/2 918/1/2
f 915/1/1 916/1/1 1008/1/1 1000/1/1
f 903/3/2 1009/3/2 1010/3/2 922/3/2
f 904/3/1 919/3/1 1011/3/1 1012/3/1
f 904/3/3 1012/3/3 1009/3/3 903/3/3
f 919/3/4 922/3/4 1010/3/4 1011/3/4
f 1012/3/6 1011/3/6 1010/3/6 1009/3/6
f 907/4/1 925/4/1 1013/4/1 1014/4/1
f 907/4/3 1014/4/3 1015/4/3 909/4/3
f 1014/4/6 1013/4/6 1016/4/6 1015/4/6
f 911/4/2 1017/4/2 1018/4/2 1019/4/2
f 909/4/3 1015/4/3 1017/4/3 911/4/3
f 909/4/5 911/4/5 1019/4/5 926/4/5
f 1003/1/2 1002/1/2 1020/1/2 941/1/2
f 1004/1/1 1021/1/1 1022/1/1 1005/1/1
f 1021/1/4 941/1/4 1020/1/4 1022/1/4
f 1004/1/5 1003/1/5 941/1/5 1021/1/5
f 918/1/2 1007/1/2 1023/1/2 930/1/2
f 916/1/1 929/1/1 1024/1/1 1008/1/1
f 925/4/1 936/4/1 1025/4/1 1013/4/1
f 936/4/4 937/4/4 1026/4/4 1025/4/4
f 1013/4/6 1025/4/6 1026/4/6 1016/4/6
f 1019/4/2 1018/4/2 1027/4/2 949/4/2
f 937/4/4 949/4/4 1027/4/4 1026/4/4
f 926/4/5 1019/4/5 949/4/5 937/4/5
f 930/2/2 1023/2/2 1028/2/2 1029/2/2
f 929/2/1 954/2/1 1030/2/1 1024/2/1
f 954/2/4 1029/2/4 1028/2/4 1030/2/4
f 1024/2/6 1030/2/6 1028/2/6 1023/2/6
f 929/2/5 930/2/5 1029/2/5 954/2/5
f 952/2/2 1031/2/2 1032/2/2 964/2/2
f 960/2/1 962/2/1 1033/2/1 1034/2/1
f 960/2/3 1034/2/3 1031/2/3 952/2/3
f 1034/2/6 1033/2/6 1032/2/6 1031/2/6
f 964/1/2 1032/1/2 1035/1/2 968/1/2
f 962/1/1 967/1/1 1036/1/1 1033/1/1
f 967/1/4 968/1/4 1035/1/4 1036/1/4
f 1033/1/6 1036/1/6 1035/1/6 1032/1/6
f 1037/1/2 1038/1/2 1039/1/2 1040/1/2
f 1041/1/1 1042/1/1 1043/1/1 1044/1/1
f 1041/1/3 1044/1/3 1038/1/3 1037/1/3
f 1041/1/5 1037/1/5 1040/1/5 1042/1/5
f 1040/2/2 1039/2/2 1045/2/2 1046/2/2
f 1042/2/1 1047/2/1 1048/2/1 1043/2/1
f 1042/2/5 1040/2/5 1046/2/5 1047/2/5
f 1046/2/2 1045/2/2 1049/2/2 1050/2/2
f 1047/2/1 1051/2/1 1052/2/1 1048/2/1
f 1051/2/4 1050/2/4 1049/2/4 1052/2/4
f 1047/2/5 1046/2/5 1050/2/5 1051/2/5
f 982/1/2 1053/1/2 1054/1/2 983/1/2
f 986/1/1 985/1/1 1055/1/1 1056/1/1
f 986/1/3 1056/1/3 1053/1/3 982/1/3
f 1056/1/6 1055/1/6 1054/1/6 1053/1/6
f 983/1/2 1054/1/2 1057/1/2 987/1/2
f 985/1/1 989/1/1 1058/1/1 1055/1/1
f 989/1/4 987/1/4 1057/1/4 1058/1/4
f 1055/1/6 1058/1/6 1057/1/6 1054/1/6
f 989/2/2 1058/2/2 1059/2/2 996/2/2
f 995/2/1 994/2/1 1060/2/1 1061/2/1
f 995/2/3 1061/2/3 1058/2/3 989/2/3
f 994/2/4 996/2/4 1059/2/4 1060/2/4
f 997/2/2 1062/2/2 1063/2/2 999/2/2
f 996/2/1 1000/2/1 1064/2/1 1059/2/1
f 996/2/3 1059/2/3 1062/2/3 997/2/3
f 1059/2/6 1064/2/6 1063/2/6 1062/2/6
f 999/1/2 1063/1/2 1065/1/2 1007/1/2
f 1000/1/1 1008/1/1 1066/1/1 1064/1/1
f 1064/1/6 1066/1/6 1065/1/6 1063/1/6
f 1015/4/1 1016/4/1 1067/4/1 1068/4/1
f 1015/4/3 1068/4/3 1069/4/3 1017/4/3
f 1068/4/6 1067/4/6 1070/4/6 1069/4/6
f 1017/4/3 1069/4/3 1071/4/3 1005/4/3
f 1069/4/6 1070/4/6 1072/4/6 1071/4/6
f 1017/4/5 1005/4/5 1022/4/5 1018/4/5
f 1002/1/2 1073/1/2 1074/1/2 1020/1/2
f 1005/1/3 1071/1/3 1073/1/3 1002/1/3
f 1007/2/2 1065/2/2 1075/2/2 1023/2/2
f 1008/2/1 1024/2/1 1076/2/1 1066/2/1
f 1024/2/4 1023/2/4 1075/2/4 1076/2/4
f 1066/2/6 1076/2/6 1075/2/6 1065/2/6
f 1016/3/1 1026/3/1 1077/3/1 1067/3/1
f 1026/3/4 1027/3/4 1078/3/4 1077/3/4
f 1067/3/6 1077/3/6 1078/3/6 1070/3/6
f 1027/3/4 1079/3/4 1080/3/4 1078/3/4
f 1070/3/6 1078/3/6 1080/3/6 1072/3/6
f 1018/3/5 1022/3/5 1079/3/5 1027/3/5
f 1079/1/4 1081/1/4 1082/1/4 1080/1/4
f 1022/1/5 1020/1/5 1081/1/5 1079/1/5
f 1083/1/2 1084/1/2 1085/1/2 1086/1/2
f 1020/1/3 1074/1/3 1084/1/3 1083/1/3
f 1074/1/6 1082/1/6 1085/1/6 1084/1/6
f 1020/1/5 1083/1/5 1086/1/5 1081/1/5
f 1086/2/2 1085/2/2 1087/2/2 1088/2/2
f 1081/2/1 1031/2/1 1089/2/1 1082/2/1
f 1031/2/4 1088/2/4 1087/2/4 1089/2/4
f 1082/2/6 1089/2/6 1087/2/6 1085/2/6
f 1081/2/5 1086/2/5 1088/2/5 1031/2/5
f 1032/2/1 1035/2/1 1090/2/1 1091/2/1
f 1032/2/3 1091/2/3 1092/2/3 1093/2/3
f 1091/2/6 1090/2/6 1094/2/6 1092/2/6
f 1032/2/5 1093/2/5 1095/2/5 1035/2/5
f 1096/2/2 1097/2/2 1098/2/2 1099/2/2
f 1093/2/3 1092/2/3 1097/2/3 1096/2/3
f 1095/2/4 1099/2/4 1098/2/4 1094/2/4
f 1092/2/6 1094/2/6 1098/2/6 1097/2/6
f 1093/2/5 1096/2/5 1099/2/5 1095/2/5
f 1095/2/2 1094/2/2 1100/2/2 1038/2/2
f 1035/2/1 1044/2/1 1101/2/1 1090/2/1
f 1090/2/6 1101/2/6 1100/2/6 1094/2/6
f 1035/2/5 1095/2/5 1038/2/5 1044/2/5
f 1038/2/2 1100/2/2 1102/2/2 1039/2/2
f 1044/2/1 1043/2/1 1103/2/1 1101/2/1
f 1043/1/1 1048/1/1 1104/1/1 1103/1/1
f 1105/1/2 1106/1/2 1107/1/2 1108/1/2
f 1039/1/3 1102/1/3 1106/1/3 1105/1/3
f 1045/1/4 1108/1/4 1107/1/4 1109/1/4
f 1102/1/6 1109/1/6 1107/1/6 1106/1/6
f 1039/1/5 1105/1/5 1108/1/5 1045/1/5
f 1045/1/2 1109/1/2 1110/1/2 1049/1/2
f 1048/1/1 1052/1/1 1111/1/1 1104/1/1
f 1052/1/4 1049/1/4 1110/1/4 1111/1/4
f 1104/1/6 1111/1/6 1110/1/6 1109/1/6
f 1058/2/2 1112/2/2 1113/2/2 1059/2/2
f 1061/2/1 1060/2/1 1114/2/1 1115/2/1
f 1061/2/3 1115/2/3 1112/2/3 1058/2/3
f 1060/2/4 1059/2/4 1113/2/4 1114/2/4
f 1115/2/6 1114/2/6 1113/2/6 1112/2/6
f 1073/1/2 1116/1/2 1117/1/2 1074/1/2
f 1071/1/1 1072/1/1 1118/1/1 1119/1/1
f 1071/1/3 1119/1/3 1116/1/3 1073/1/3
f 1119/1/6 1118/1/6 1117/1/6 1116/1/6
f 1066/2/2 1120/2/2 1121/2/2 1076/2/2
f 1122/2/1 1084/2/1 1123/2/1 1124/2/1
f 1122/2/3 1124/2/3 1120/2/3 1066/2/3
f 1122/2/5 1066/2/5 1076/2/5 1084/2/5
f 1074/1/2 1117/1/2 1125/1/2 1082/1/2
f 1072/1/1 1080/1/1 1126/1/1 1118/1/1
f 1080/1/4 1082/1/4 1125/1/4 1126/1/4
f 1118/1/6 1126/1/6 1125/1/6 1117/1/6
f 1076/2/2 1121/2/2 1127/2/2 1128/2/2
f 1084/2/1 1085/2/1 1129/2/1 1123/2/1
f 1085/2/4 1128/2/4 1127/2/4 1129/2/4
f 1084/2/5 1076/2/5 1128/2/5 1085/2/5
f 1100/1/2 1130/1/2 1131/1/2 1102/1/2
f 1101/1/1 1103/1/1 1132/1/1 1133/1/1
f 1101/1/3 1133/1/3 1130/1/3 1100/1/3
f 1133/1/6 1132/1/6 1131/1/6 1130/1/6
f 1102/1/2 1131/1/2 1134/1/2 1109/1/2
f 1103/1/1 1104/1/1 1135/1/1 1132/1/1
f 1104/1/4 1109/1/4 1134/1/4 1135/1/4
f 1132/1/6 1135/1/6 1134/1/6 1131/1/6
f 1124/1/1 1123/1/1 1136/1/1 1137/1/1
f 1124/1/3 1137/1/3 1138/1/3 1120/1/3
f 1137/1/6 1136/1/6 1139/1/6 1138/1/6
f 1140/2/2 1141/2/2 1142/2/2 1143/2/2
f 1120/2/3 1138/2/3 1141/2/3 1140/2/3
f 1138/2/6 1139/2/6 1142/2/6 1141/2/6
f 1120/2/5 1140/2/5 1143/2/5 1121/2/5
f 1117/1/1 1125/1/1 1144/1/1 1145/1/1
f 1117/1/3 1145/1/3 1136/1/3 1123/1/3
f 1125/1/4 1129/1/4 1146/1/4 1144/1/4
f 1117/1/5 1123/1/5 1129/1/5 1125/1/5
f 1129/1/4 1127/1/4 1147/1/4 1146/1/4
f 1136/1/6 1146/1/6 1147/1/6 1139/1/6
f 1143/1/2 1142/1/2 1148/1/2 1149/1/2
f 1127/1/4 1149/1/4 1148/1/4 1147/1/4
f 1121/1/5 1143/1/5 1149/1/5 1127/1/5
f 1150/2/1 1137/2/1 1151/2/1 1152/2/1
f 1150/2/3 1152/2/3 1153/2/3 1154/2/3
f 1137/2/4 1138/2/4 1155/2/4 1151/2/4
f 1152/2/6 1151/2/6 1155/2/6 1153/2/6
f 1150/2/5 1154/2/5 1138/2/5 1137/2/5
f 1156/2/2 1157/2/2 1158/2/2 1141/2/2
f 1154/2/3 1153/2/3 1157/2/3 1156/2/3
f 1138/2/4 1141/2/4 1158/2/4 1155/2/4
f 1153/2/6 1155/2/6 1158/2/6 1157/2/6
f 1154/2/5 1156/2/5 1141/2/5 1138/2/5
f 1136/1/2 1159/1/2 1160/1/2 1146/1/2
f 1145/1/1 1144/1/1 1161/1/1 1162/1/1
f 1145/1/3 1162/1/3 1159/1/3 1136/1/3
f 1144/1/4 1146/1/4 1160/1/4 1161/1/4
f 1162/1/6 1161/1/6 1160/1/6 1159/1/6
f 1142/1/2 1163/1/2 1164/1/2 1148/1/2
f 1139/1/1 1147/1/1 1165/1/1 1166/1/1
f 1139/1/3 1166/1/3 1163/1/3 1142/1/3
f 1147/1/4 1148/1/4 1164/1/4 1165/1/4
f 1166/1/6 1165/1/6 1164/1/6 1163/1/6
f 1147/1/2 1165/1/2 1167/1/2 1168/1/2
f 1146/1/1 1169/1/1 1170/1/1 1160/1/1
f 1146/1/3 1160/1/3 1165/1/3 1147/1/3
f 1169/1/4 1168/1/4 1167/1/4 1170/1/4
f 1160/1/6 1170/1/6 1167/1/6 1165/1/6
f 1146/1/5 1147/1/5 1168/1/5 1169/1/5
