mtllib Drago_Tomas_Mateo_Buitrago_Gutiérrez_fase_3.mtl
o Drago_Tomas_Mateo_Buitrago_Gutiérrez_fase_3
v -6.5000 6.5000 1.5000
v -5.5000 6.5000 1.5000
v -5.5000 6.5000 0.5000
v -6.5000 6.5000 0.5000
v -6.5000 5.5000 1.5000
v -6.5000 5.5000 0.5000
v -5.5000 5.5000 0.5000
v -5.5000 5.5000 1.5000
v -6.5000 -11.5000 0.5000
v -5.5000 -11.5000 0.5000
v -5.5000 -11.5000 -0.5000
v -6.5000 -11.5000 -0.5000
v -6.5000 -12.5000 0.5000
v -6.5000 -12.5000 -0.5000
v -5.5000 -12.5000 -0.5000
v -5.5000 -12.5000 0.5000
v -5.5000 6.5000 -0.5000
v -6.5000 6.5000 -0.5000
v -6.5000 5.5000 -0.5000
v -5.5000 5.5000 -0.5000
v -6.5000 10.5000 0.5000
v -5.5000 10.5000 0.5000
v -5.5000 10.5000 -0.5000
v -6.5000 10.5000 -0.5000
v -6.5000 9.5000 0.5000
v -6.5000 9.5000 -0.5000
v -5.5000 9.5000 -0.5000
v -5.5000 9.5000 0.5000
v -5.5000 6.5000 -1.5000
v -6.5000 6.5000 -1.5000
v -6.5000 5.5000 -1.5000
v -5.5000 5.5000 -1.5000
v -4.5000 6.5000 1.5000
v -4.5000 6.5000 0.5000
v -4.5000 5.5000 0.5000
v -4.5000 5.5000 1.5000
v -5.5000 10.5000 1.5000
v -4.5000 10.5000 1.5000
v -4.5000 10.5000 0.5000
v -5.5000 9.5000 1.5000
v -4.5000 9.5000 0.5000
v -4.5000 9.5000 1.5000
v -4.5000 -12.5000 -0.5000
v -4.5000 -12.5000 0.5000
v -4.5000 -11.5000 0.5000
v -4.5000 -11.5000 -0.5000
v -5.5000 -10.5000 0.5000
v -4.5000 -10.5000 0.5000
v -4.5000 -10.5000 -0.5000
v -5.5000 -10.5000 -0.5000
v -5.5000 4.5000 0.5000
v -5.5000 4.5000 -0.5000
v -4.5000 4.5000 -0.5000
v -4.5000 4.5000 0.5000
v -4.5000 5.5000 -0.5000
v -5.5000 7.5000 0.5000
v -4.5000 7.5000 0.5000
v -4.5000 7.5000 -0.5000
v -5.5000 7.5000 -0.5000
v -4.5000 6.5000 -0.5000
v -4.5000 9.5000 -0.5000
v -5.5000 11.5000 0.5000
v -4.5000 11.5000 0.5000
v -4.5000 11.5000 -0.5000
v -5.5000 11.5000 -0.5000
v -4.5000 10.5000 -0.5000
v -4.5000 6.5000 -1.5000
v -4.5000 5.5000 -1.5000
v -4.5000 10.5000 -1.5000
v -5.5000 10.5000 -1.5000
v -5.5000 9.5000 -1.5000
v -4.5000 9.5000 -1.5000
v -4.5000 -11.5000 1.5000
v -3.5000 -11.5000 1.5000
v -3.5000 -11.5000 0.5000
v -4.5000 -12.5000 1.5000
v -3.5000 -12.5000 0.5000
v -3.5000 -12.5000 1.5000
v -4.5000 4.5000 1.5000
v -3.5000 4.5000 0.5000
v -3.5000 4.5000 1.5000
v -3.5000 5.5000 1.5000
v -3.5000 6.5000 1.5000
v -3.5000 6.5000 0.5000
v -3.5000 5.5000 0.5000
v -4.5000 8.5000 1.5000
v -4.5000 8.5000 0.5000
v -3.5000 8.5000 0.5000
v -3.5000 8.5000 1.5000
v -3.5000 9.5000 1.5000
v -3.5000 10.5000 1.5000
v -3.5000 10.5000 0.5000
v -3.5000 9.5000 0.5000
v -3.5000 -12.5000 -0.5000
v -3.5000 -10.5000 0.5000
v -3.5000 -10.5000 -0.5000
v -3.5000 -11.5000 -0.5000
v -4.5000 -9.5000 0.5000
v -3.5000 -9.5000 0.5000
v -3.5000 -9.5000 -0.5000
v -4.5000 -9.5000 -0.5000
v -3.5000 4.5000 -0.5000
v -3.5000 6.5000 -0.5000
v -3.5000 5.5000 -0.5000
v -4.5000 8.5000 -0.5000
v -3.5000 8.5000 -0.5000
v -3.5000 10.5000 -0.5000
v -3.5000 9.5000 -0.5000
v -3.5000 -11.5000 -1.5000
v -4.5000 -11.5000 -1.5000
v -4.5000 -12.5000 -1.5000
v -3.5000 -12.5000 -1.5000
v -4.5000 4.5000 -1.5000
v -3.5000 4.5000 -1.5000
v -3.5000 5.5000 -1.5000
v -3.5000 6.5000 -1.5000
v -4.5000 8.5000 -1.5000
v -3.5000 8.5000 -1.5000
v -3.5000 9.5000 -1.5000
v -3.5000 10.5000 -1.5000
v -2.5000 -12.5000 0.5000
v -2.5000 -12.5000 1.5000
v -2.5000 -11.5000 1.5000
v -3.5000 -10.5000 1.5000
v -2.5000 -10.5000 1.5000
v -2.5000 -10.5000 0.5000
v -3.5000 3.5000 1.5000
v -3.5000 3.5000 0.5000
v -2.5000 3.5000 0.5000
v -2.5000 3.5000 1.5000
v -2.5000 4.5000 1.5000
v -2.5000 5.5000 1.5000
v -2.5000 5.5000 0.5000
v -2.5000 4.5000 0.5000
v -3.5000 7.5000 1.5000
v -3.5000 7.5000 0.5000
v -2.5000 7.5000 0.5000
v -2.5000 7.5000 1.5000
v -2.5000 8.5000 1.5000
v -2.5000 8.5000 0.5000
v -2.5000 9.5000 1.5000
v -2.5000 9.5000 0.5000
v -2.5000 -12.5000 -0.5000
v -2.5000 -9.5000 0.5000
v -2.5000 -9.5000 -0.5000
v -2.5000 -10.5000 -0.5000
v -3.5000 -8.5000 0.5000
v -2.5000 -8.5000 0.5000
v -2.5000 -8.5000 -0.5000
v -3.5000 -8.5000 -0.5000
v -3.5000 3.5000 -0.5000
v -2.5000 3.5000 -0.5000
v -2.5000 5.5000 -0.5000
v -3.5000 7.5000 -0.5000
v -2.5000 7.5000 -0.5000
v -2.5000 9.5000 -0.5000
v -2.5000 -12.5000 -1.5000
v -2.5000 -11.5000 -1.5000
v -2.5000 -10.5000 -1.5000
v -3.5000 -10.5000 -1.5000
v -3.5000 3.5000 -1.5000
v -2.5000 3.5000 -1.5000
v -2.5000 4.5000 -1.5000
v -2.5000 5.5000 -1.5000
v -2.5000 4.5000 -0.5000
v -3.5000 7.5000 -1.5000
v -2.5000 7.5000 -1.5000
v -2.5000 8.5000 -1.5000
v -2.5000 8.5000 -0.5000
v -2.5000 9.5000 -1.5000
v -2.5000 -11.5000 2.5000
v -1.5000 -11.5000 2.5000
v -1.5000 -11.5000 1.5000
v -2.5000 -12.5000 2.5000
v -1.5000 -12.5000 1.5000
v -1.5000 -12.5000 2.5000
v -2.5000 3.5000 2.5000
v -1.5000 3.5000 1.5000
v -1.5000 3.5000 2.5000
v -1.5000 4.5000 2.5000
v -2.5000 4.5000 2.5000
v -1.5000 5.5000 2.5000
v -2.5000 5.5000 2.5000
v -1.5000 5.5000 1.5000
v -1.5000 4.5000 1.5000
v -1.5000 6.5000 2.5000
v -2.5000 6.5000 2.5000
v -2.5000 6.5000 1.5000
v -1.5000 6.5000 1.5000
v -1.5000 7.5000 2.5000
v -2.5000 7.5000 2.5000
v -1.5000 7.5000 1.5000
v -1.5000 8.5000 2.5000
v -2.5000 8.5000 2.5000
v -1.5000 8.5000 1.5000
v -2.5000 9.5000 2.5000
v -1.5000 9.5000 2.5000
v -1.5000 9.5000 1.5000
v -1.5000 -12.5000 0.5000
v -1.5000 -10.5000 1.5000
v -2.5000 -9.5000 1.5000
v -1.5000 -9.5000 1.5000
v -1.5000 -9.5000 0.5000
v -2.5000 0.5000 1.5000
v -2.5000 0.5000 0.5000
v -1.5000 0.5000 0.5000
v -1.5000 0.5000 1.5000
v -1.5000 1.5000 1.5000
v -2.5000 1.5000 1.5000
v -2.5000 1.5000 0.5000
v -1.5000 2.5000 1.5000
v -2.5000 2.5000 1.5000
v -2.5000 2.5000 0.5000
v -1.5000 4.5000 0.5000
v -1.5000 -12.5000 -0.5000
v -1.5000 -8.5000 0.5000
v -1.5000 -8.5000 -0.5000
v -1.5000 -9.5000 -0.5000
v -2.5000 -7.5000 0.5000
v -1.5000 -7.5000 0.5000
v -1.5000 -7.5000 -0.5000
v -2.5000 -7.5000 -0.5000
v -2.5000 0.5000 -0.5000
v -1.5000 0.5000 -0.5000
v -2.5000 1.5000 -0.5000
v -2.5000 2.5000 -0.5000
v -1.5000 5.5000 0.5000
v -1.5000 5.5000 -0.5000
v -1.5000 4.5000 -0.5000
v -1.5000 7.5000 -0.5000
v -1.5000 7.5000 0.5000
v -1.5000 8.5000 0.5000
v -1.5000 8.5000 -0.5000
v -1.5000 9.5000 0.5000
v -1.5000 9.5000 -0.5000
v -1.5000 -12.5000 -1.5000
v -1.5000 -10.5000 -1.5000
v -1.5000 -11.5000 -1.5000
v -1.5000 -9.5000 -1.5000
v -2.5000 -9.5000 -1.5000
v -2.5000 0.5000 -1.5000
v -1.5000 0.5000 -1.5000
v -2.5000 1.5000 -1.5000
v -1.5000 1.5000 -1.5000
v -2.5000 2.5000 -1.5000
v -1.5000 2.5000 -1.5000
v -1.5000 3.5000 -1.5000
v -1.5000 4.5000 -1.5000
v -1.5000 -11.5000 -2.5000
v -2.5000 -11.5000 -2.5000
v -2.5000 -12.5000 -2.5000
v -1.5000 -12.5000 -2.5000
v -2.5000 3.5000 -2.5000
v -1.5000 3.5000 -2.5000
v -2.5000 4.5000 -2.5000
v -1.5000 4.5000 -2.5000
v -1.5000 5.5000 -1.5000
v -2.5000 5.5000 -2.5000
v -1.5000 5.5000 -2.5000
v -1.5000 6.5000 -1.5000
v -2.5000 6.5000 -1.5000
v -2.5000 6.5000 -2.5000
v -1.5000 6.5000 -2.5000
v -1.5000 7.5000 -1.5000
v -2.5000 7.5000 -2.5000
v -1.5000 7.5000 -2.5000
v -1.5000 8.5000 -1.5000
v -2.5000 8.5000 -2.5000
v -1.5000 8.5000 -2.5000
v -1.5000 9.5000 -1.5000
v -1.5000 9.5000 -2.5000
v -2.5000 9.5000 -2.5000
v -1.5000 6.5000 6.5000
v -0.5000 6.5000 6.5000
v -0.5000 6.5000 5.5000
v -1.5000 6.5000 5.5000
v -1.5000 5.5000 6.5000
v -1.5000 5.5000 5.5000
v -0.5000 5.5000 5.5000
v -0.5000 5.5000 6.5000
v -0.5000 6.5000 4.5000
v -1.5000 6.5000 4.5000
v -1.5000 5.5000 4.5000
v -0.5000 5.5000 4.5000
v -1.5000 10.5000 5.5000
v -0.5000 10.5000 5.5000
v -0.5000 10.5000 4.5000
v -1.5000 10.5000 4.5000
v -1.5000 9.5000 5.5000
v -1.5000 9.5000 4.5000
v -0.5000 9.5000 4.5000
v -0.5000 9.5000 5.5000
v -1.5000 -11.5000 4.5000
v -0.5000 -11.5000 4.5000
v -0.5000 -11.5000 3.5000
v -1.5000 -11.5000 3.5000
v -1.5000 -12.5000 4.5000
v -1.5000 -12.5000 3.5000
v -0.5000 -12.5000 3.5000
v -0.5000 -12.5000 4.5000
v -1.5000 4.5000 4.5000
v -1.5000 4.5000 3.5000
v -0.5000 4.5000 3.5000
v -0.5000 4.5000 4.5000
v -1.5000 5.5000 3.5000
v -0.5000 6.5000 3.5000
v -1.5000 6.5000 3.5000
v -0.5000 5.5000 3.5000
v -1.5000 8.5000 4.5000
v -1.5000 8.5000 3.5000
v -0.5000 8.5000 3.5000
v -0.5000 8.5000 4.5000
v -1.5000 9.5000 3.5000
v -0.5000 10.5000 3.5000
v -1.5000 10.5000 3.5000
v -0.5000 9.5000 3.5000
v -0.5000 -12.5000 2.5000
v -1.5000 -10.5000 3.5000
v -0.5000 -10.5000 3.5000
v -0.5000 -10.5000 2.5000
v -1.5000 -10.5000 2.5000
v -1.5000 3.5000 3.5000
v -0.5000 3.5000 2.5000
v -0.5000 3.5000 3.5000
v -0.5000 5.5000 2.5000
v -0.5000 4.5000 2.5000
v -1.5000 7.5000 3.5000
v -0.5000 7.5000 2.5000
v -0.5000 7.5000 3.5000
v -0.5000 8.5000 2.5000
v -0.5000 9.5000 2.5000
v -0.5000 -12.5000 1.5000
v -1.5000 -9.5000 2.5000
v -0.5000 -9.5000 2.5000
v -0.5000 -9.5000 1.5000
v -1.5000 0.5000 2.5000
v -0.5000 0.5000 1.5000
v -0.5000 0.5000 2.5000
v -0.5000 1.5000 2.5000
v -1.5000 1.5000 2.5000
v -0.5000 2.5000 2.5000
v -1.5000 2.5000 2.5000
v -0.5000 4.5000 1.5000
v -0.5000 -12.5000 0.5000
v -0.5000 -8.5000 1.5000
v -1.5000 -8.5000 1.5000
v -0.5000 -7.5000 1.5000
v -1.5000 -7.5000 1.5000
v -0.5000 -6.5000 1.5000
v -1.5000 -6.5000 1.5000
v -1.5000 -6.5000 0.5000
v -0.5000 -5.5000 1.5000
v -1.5000 -5.5000 1.5000
v -1.5000 -5.5000 0.5000
v -0.5000 -4.5000 1.5000
v -1.5000 -4.5000 1.5000
v -1.5000 -4.5000 0.5000
v -0.5000 -3.5000 1.5000
v -1.5000 -3.5000 1.5000
v -1.5000 -3.5000 0.5000
v -0.5000 -2.5000 1.5000
v -1.5000 -2.5000 1.5000
v -1.5000 -2.5000 0.5000
v -0.5000 -1.5000 1.5000
v -1.5000 -1.5000 1.5000
v -1.5000 -1.5000 0.5000
v -0.5000 -0.5000 1.5000
v -1.5000 -0.5000 1.5000
v -1.5000 -0.5000 0.5000
v -0.5000 5.5000 1.5000
v -0.5000 6.5000 1.5000
v -1.5000 6.5000 0.5000
v -0.5000 7.5000 1.5000
v -0.5000 8.5000 1.5000
v -0.5000 9.5000 1.5000
v -1.5000 10.5000 1.5000
v -0.5000 10.5000 1.5000
v -0.5000 10.5000 0.5000
v -1.5000 10.5000 0.5000
v -0.5000 -12.5000 -0.5000
v -0.5000 -10.5000 0.5000
v -0.5000 -10.5000 -0.5000
v -0.5000 -9.5000 -0.5000
v -0.5000 -9.5000 0.5000
v -0.5000 -8.5000 -0.5000
v -0.5000 -8.5000 0.5000
v -0.5000 -7.5000 -0.5000
v -0.5000 -7.5000 0.5000
v -0.5000 -6.5000 -0.5000
v -0.5000 -6.5000 0.5000
v -1.5000 -6.5000 -0.5000
v -0.5000 -5.5000 -0.5000
v -0.5000 -5.5000 0.5000
v -1.5000 -5.5000 -0.5000
v -0.5000 -4.5000 -0.5000
v -0.5000 -4.5000 0.5000
v -1.5000 -4.5000 -0.5000
v -0.5000 -3.5000 -0.5000
v -0.5000 -3.5000 0.5000
v -1.5000 -3.5000 -0.5000
v -0.5000 -2.5000 -0.5000
v -0.5000 -2.5000 0.5000
v -1.5000 -2.5000 -0.5000
v -0.5000 -1.5000 -0.5000
v -0.5000 -1.5000 0.5000
v -1.5000 -1.5000 -0.5000
v -0.5000 -0.5000 -0.5000
v -0.5000 -0.5000 0.5000
v -1.5000 -0.5000 -0.5000
v -0.5000 0.5000 -0.5000
v -0.5000 0.5000 0.5000
v -0.5000 1.5000 -0.5000
v -0.5000 1.5000 0.5000
v -0.5000 2.5000 -0.5000
v -0.5000 2.5000 0.5000
v -0.5000 3.5000 -0.5000
v -0.5000 3.5000 0.5000
v -0.5000 4.5000 -0.5000
v -0.5000 4.5000 0.5000
v -0.5000 5.5000 -0.5000
v -0.5000 5.5000 0.5000
v -0.5000 6.5000 -0.5000
v -0.5000 6.5000 0.5000
v -1.5000 6.5000 -0.5000
v -0.5000 7.5000 -0.5000
v -0.5000 7.5000 0.5000
v -0.5000 8.5000 -0.5000
v -0.5000 8.5000 0.5000
v -1.5000 10.5000 -0.5000
v -1.5000 11.5000 0.5000
v -0.5000 11.5000 0.5000
v -0.5000 11.5000 -0.5000
v -1.5000 11.5000 -0.5000
v -0.5000 10.5000 -0.5000
v -0.5000 -12.5000 -1.5000
v -1.5000 -8.5000 -1.5000
v -0.5000 -8.5000 -1.5000
v -0.5000 -9.5000 -1.5000
v -1.5000 -7.5000 -1.5000
v -0.5000 -7.5000 -1.5000
v -1.5000 -6.5000 -1.5000
v -0.5000 -6.5000 -1.5000
v -1.5000 -5.5000 -1.5000
v -0.5000 -5.5000 -1.5000
v -1.5000 -4.5000 -1.5000
v -0.5000 -4.5000 -1.5000
v -1.5000 -3.5000 -1.5000
v -0.5000 -3.5000 -1.5000
v -1.5000 -2.5000 -1.5000
v -0.5000 -2.5000 -1.5000
v -1.5000 -1.5000 -1.5000
v -0.5000 -1.5000 -1.5000
v -1.5000 -0.5000 -1.5000
v -0.5000 -0.5000 -1.5000
v -0.5000 0.5000 -1.5000
v -0.5000 5.5000 -1.5000
v -0.5000 4.5000 -1.5000
v -0.5000 6.5000 -1.5000
v -0.5000 7.5000 -1.5000
v -0.5000 8.5000 -1.5000
v -0.5000 9.5000 -1.5000
v -0.5000 10.5000 -1.5000
v -1.5000 10.5000 -1.5000
v -0.5000 -12.5000 -2.5000
v -1.5000 -10.5000 -2.5000
v -0.5000 -9.5000 -2.5000
v -1.5000 -9.5000 -2.5000
v -0.5000 -10.5000 -2.5000
v -1.5000 0.5000 -2.5000
v -0.5000 0.5000 -2.5000
v -1.5000 1.5000 -2.5000
v -0.5000 1.5000 -2.5000
v -1.5000 2.5000 -2.5000
v -0.5000 2.5000 -2.5000
v -0.5000 3.5000 -2.5000
v -0.5000 4.5000 -2.5000
v -1.5000 -12.5000 -3.5000
v -0.5000 -12.5000 -3.5000
v -1.5000 -11.5000 -3.5000
v -0.5000 -10.5000 -3.5000
v -1.5000 -10.5000 -3.5000
v -0.5000 -11.5000 -3.5000
v -1.5000 3.5000 -3.5000
v -0.5000 3.5000 -3.5000
v -1.5000 4.5000 -3.5000
v -0.5000 4.5000 -3.5000
v -0.5000 5.5000 -2.5000
v -0.5000 5.5000 -3.5000
v -1.5000 5.5000 -3.5000
v -1.5000 7.5000 -3.5000
v -0.5000 7.5000 -3.5000
v -0.5000 7.5000 -2.5000
v -0.5000 8.5000 -2.5000
v -1.5000 8.5000 -3.5000
v -0.5000 8.5000 -3.5000
v -0.5000 9.5000 -2.5000
v -0.5000 9.5000 -3.5000
v -1.5000 9.5000 -3.5000
v -0.5000 -11.5000 -4.5000
v -1.5000 -11.5000 -4.5000
v -1.5000 -12.5000 -4.5000
v -0.5000 -12.5000 -4.5000
v -1.5000 4.5000 -4.5000
v -0.5000 4.5000 -4.5000
v -1.5000 5.5000 -4.5000
v -0.5000 5.5000 -4.5000
v -1.5000 6.5000 -3.5000
v -0.5000 6.5000 -3.5000
v -0.5000 6.5000 -4.5000
v -1.5000 6.5000 -4.5000
v -1.5000 8.5000 -4.5000
v -0.5000 8.5000 -4.5000
v -1.5000 9.5000 -4.5000
v -0.5000 9.5000 -4.5000
v -1.5000 10.5000 -3.5000
v -0.5000 10.5000 -3.5000
v -0.5000 10.5000 -4.5000
v -1.5000 10.5000 -4.5000
v -0.5000 6.5000 -5.5000
v -1.5000 6.5000 -5.5000
v -1.5000 5.5000 -5.5000
v -0.5000 5.5000 -5.5000
v -0.5000 10.5000 -5.5000
v -1.5000 10.5000 -5.5000
v -1.5000 9.5000 -5.5000
v -0.5000 9.5000 -5.5000
v -0.5000 6.5000 -6.5000
v -1.5000 6.5000 -6.5000
v -1.5000 5.5000 -6.5000
v -0.5000 5.5000 -6.5000
v -0.5000 -11.5000 6.5000
v 0.5000 -11.5000 6.5000
v 0.5000 -11.5000 5.5000
v -0.5000 -11.5000 5.5000
v -0.5000 -12.5000 6.5000
v -0.5000 -12.5000 5.5000
v 0.5000 -12.5000 5.5000
v 0.5000 -12.5000 6.5000
v 0.5000 6.5000 6.5000
v 0.5000 6.5000 5.5000
v 0.5000 5.5000 5.5000
v 0.5000 5.5000 6.5000
v -0.5000 10.5000 6.5000
v 0.5000 10.5000 6.5000
v 0.5000 10.5000 5.5000
v -0.5000 9.5000 6.5000
v 0.5000 9.5000 5.5000
v 0.5000 9.5000 6.5000
v 0.5000 -12.5000 4.5000
v 0.5000 -11.5000 4.5000
v -0.5000 -10.5000 5.5000
v 0.5000 -10.5000 5.5000
v 0.5000 -10.5000 4.5000
v -0.5000 -10.5000 4.5000
v -0.5000 4.5000 5.5000
v 0.5000 4.5000 4.5000
v 0.5000 4.5000 5.5000
v 0.5000 5.5000 4.5000
v -0.5000 7.5000 5.5000
v 0.5000 7.5000 5.5000
v 0.5000 7.5000 4.5000
v -0.5000 7.5000 4.5000
v 0.5000 6.5000 4.5000
v 0.5000 9.5000 4.5000
v -0.5000 11.5000 5.5000
v 0.5000 11.5000 5.5000
v 0.5000 11.5000 4.5000
v -0.5000 11.5000 4.5000
v 0.5000 10.5000 4.5000
v 0.5000 -12.5000 3.5000
v 0.5000 -11.5000 3.5000
v 0.5000 -10.5000 3.5000
v -0.5000 -9.5000 4.5000
v 0.5000 -9.5000 4.5000
v 0.5000 -9.5000 3.5000
v -0.5000 -9.5000 3.5000
v 0.5000 4.5000 3.5000
v 0.5000 6.5000 3.5000
v 0.5000 5.5000 3.5000
v 0.5000 8.5000 3.5000
v 0.5000 8.5000 4.5000
v 0.5000 10.5000 3.5000
v 0.5000 9.5000 3.5000
v 0.5000 -12.5000 2.5000
v 0.5000 -10.5000 2.5000
v 0.5000 -9.5000 2.5000
v -0.5000 -8.5000 3.5000
v 0.5000 -8.5000 3.5000
v 0.5000 -8.5000 2.5000
v -0.5000 -8.5000 2.5000
v 0.5000 3.5000 2.5000
v 0.5000 3.5000 3.5000
v 0.5000 5.5000 2.5000
v 0.5000 7.5000 2.5000
v 0.5000 7.5000 3.5000
v 0.5000 9.5000 2.5000
v 0.5000 -12.5000 1.5000
v 0.5000 -9.5000 1.5000
v 0.5000 -8.5000 1.5000
v -0.5000 -7.5000 2.5000
v 0.5000 -7.5000 2.5000
v 0.5000 -7.5000 1.5000
v 0.5000 0.5000 1.5000
v 0.5000 0.5000 2.5000
v 0.5000 1.5000 2.5000
v 0.5000 2.5000 2.5000
v 0.5000 5.5000 1.5000
v 0.5000 4.5000 2.5000
v 0.5000 4.5000 1.5000
v 0.5000 7.5000 1.5000
v 0.5000 8.5000 1.5000
v 0.5000 8.5000 2.5000
v 0.5000 9.5000 1.5000
v 0.5000 -12.5000 0.5000
v 0.5000 -9.5000 0.5000
v 0.5000 -10.5000 0.5000
v 0.5000 -8.5000 0.5000
v 0.5000 -7.5000 0.5000
v 0.5000 -6.5000 1.5000
v 0.5000 -6.5000 0.5000
v 0.5000 -5.5000 1.5000
v 0.5000 -5.5000 0.5000
v 0.5000 -4.5000 1.5000
v 0.5000 -4.5000 0.5000
v 0.5000 -3.5000 1.5000
v 0.5000 -3.5000 0.5000
v 0.5000 -2.5000 1.5000
v 0.5000 -2.5000 0.5000
v 0.5000 -1.5000 1.5000
v 0.5000 -1.5000 0.5000
v 0.5000 -0.5000 1.5000
v 0.5000 -0.5000 0.5000
v 0.5000 0.5000 0.5000
v 0.5000 1.5000 0.5000
v 0.5000 2.5000 0.5000
v 0.5000 3.5000 0.5000
v 0.5000 4.5000 0.5000
v 0.5000 5.5000 0.5000
v 0.5000 6.5000 1.5000
v 0.5000 6.5000 0.5000
v 0.5000 7.5000 0.5000
v 0.5000 8.5000 0.5000
v 0.5000 10.5000 1.5000
v -0.5000 11.5000 1.5000
v 0.5000 11.5000 1.5000
v 0.5000 11.5000 0.5000
v 0.5000 10.5000 0.5000
v 0.5000 -12.5000 -0.5000
v 0.5000 -10.5000 -0.5000
v 0.5000 8.5000 -0.5000
v -0.5000 12.5000 0.5000
v 0.5000 12.5000 0.5000
v 0.5000 12.5000 -0.5000
v -0.5000 12.5000 -0.5000
v 0.5000 11.5000 -0.5000
v 0.5000 -12.5000 -1.5000
v 0.5000 -9.5000 -0.5000
v 0.5000 -8.5000 -0.5000
v 0.5000 -7.5000 -0.5000
v 0.5000 -6.5000 -0.5000
v 0.5000 -6.5000 -1.5000
v 0.5000 -7.5000 -1.5000
v 0.5000 -5.5000 -0.5000
v 0.5000 -5.5000 -1.5000
v 0.5000 -4.5000 -0.5000
v 0.5000 -4.5000 -1.5000
v 0.5000 -3.5000 -0.5000
v 0.5000 -3.5000 -1.5000
v 0.5000 -2.5000 -0.5000
v 0.5000 -2.5000 -1.5000
v 0.5000 -1.5000 -0.5000
v 0.5000 -1.5000 -1.5000
v 0.5000 -0.5000 -0.5000
v 0.5000 -0.5000 -1.5000
v 0.5000 0.5000 -0.5000
v 0.5000 0.5000 -1.5000
v 0.5000 1.5000 -0.5000
v 0.5000 2.5000 -0.5000
v 0.5000 3.5000 -0.5000
v 0.5000 4.5000 -0.5000
v 0.5000 5.5000 -0.5000
v 0.5000 6.5000 -0.5000
v 0.5000 6.5000 -1.5000
v 0.5000 5.5000 -1.5000
v 0.5000 7.5000 -0.5000
v 0.5000 7.5000 -1.5000
v 0.5000 10.5000 -1.5000
v 0.5000 9.5000 -1.5000
v 0.5000 11.5000 -1.5000
v -0.5000 11.5000 -1.5000
v 0.5000 10.5000 -0.5000
v 0.5000 -12.5000 -2.5000
v 0.5000 -9.5000 -1.5000
v 0.5000 -9.5000 -2.5000
v 0.5000 -8.5000 -2.5000
v 0.5000 -8.5000 -1.5000
v -0.5000 -8.5000 -2.5000
v 0.5000 -7.5000 -2.5000
v -0.5000 -7.5000 -2.5000
v 0.5000 0.5000 -2.5000
v 0.5000 1.5000 -2.5000
v 0.5000 2.5000 -2.5000
v 0.5000 3.5000 -2.5000
v 0.5000 5.5000 -2.5000
v 0.5000 4.5000 -1.5000
v 0.5000 4.5000 -2.5000
v 0.5000 7.5000 -2.5000
v 0.5000 8.5000 -2.5000
v 0.5000 8.5000 -1.5000
v 0.5000 9.5000 -2.5000
v 0.5000 -12.5000 -3.5000
v 0.5000 -10.5000 -2.5000
v 0.5000 -10.5000 -3.5000
v 0.5000 -9.5000 -3.5000
v -0.5000 -9.5000 -3.5000
v 0.5000 -8.5000 -3.5000
v -0.5000 -8.5000 -3.5000
v 0.5000 3.5000 -3.5000
v 0.5000 4.5000 -3.5000
v 0.5000 5.5000 -3.5000
v 0.5000 7.5000 -3.5000
v 0.5000 8.5000 -3.5000
v 0.5000 9.5000 -3.5000
v 0.5000 -12.5000 -4.5000
v 0.5000 -11.5000 -3.5000
v 0.5000 -11.5000 -4.5000
v 0.5000 -10.5000 -4.5000
v -0.5000 -10.5000 -4.5000
v 0.5000 -9.5000 -4.5000
v -0.5000 -9.5000 -4.5000
v 0.5000 4.5000 -4.5000
v 0.5000 6.5000 -3.5000
v 0.5000 6.5000 -4.5000
v 0.5000 8.5000 -4.5000
v 0.5000 9.5000 -4.5000
v 0.5000 10.5000 -3.5000
v 0.5000 10.5000 -4.5000
v -0.5000 -12.5000 -5.5000
v 0.5000 -12.5000 -5.5000
v 0.5000 -11.5000 -5.5000
v -0.5000 -11.5000 -5.5000
v 0.5000 -10.5000 -5.5000
v -0.5000 -10.5000 -5.5000
v -0.5000 4.5000 -5.5000
v 0.5000 4.5000 -5.5000
v 0.5000 5.5000 -5.5000
v 0.5000 5.5000 -4.5000
v -0.5000 7.5000 -4.5000
v 0.5000 7.5000 -4.5000
v 0.5000 7.5000 -5.5000
v -0.5000 7.5000 -5.5000
v 0.5000 6.5000 -5.5000
v 0.5000 9.5000 -5.5000
v -0.5000 11.5000 -4.5000
v 0.5000 11.5000 -4.5000
v 0.5000 11.5000 -5.5000
v -0.5000 11.5000 -5.5000
v 0.5000 10.5000 -5.5000
v 0.5000 -11.5000 -6.5000
v -0.5000 -11.5000 -6.5000
v -0.5000 -12.5000 -6.5000
v 0.5000 -12.5000 -6.5000
v 0.5000 6.5000 -6.5000
v 0.5000 5.5000 -6.5000
v 0.5000 10.5000 -6.5000
v -0.5000 10.5000 -6.5000
v -0.5000 9.5000 -6.5000
v 0.5000 9.5000 -6.5000
v 1.5000 6.5000 6.5000
v 1.5000 6.5000 5.5000
v 1.5000 5.5000 5.5000
v 1.5000 5.5000 6.5000
v 1.5000 6.5000 4.5000
v 1.5000 5.5000 4.5000
v 1.5000 10.5000 5.5000
v 1.5000 10.5000 4.5000
v 1.5000 9.5000 4.5000
v 1.5000 9.5000 5.5000
v 1.5000 -11.5000 4.5000
v 1.5000 -11.5000 3.5000
v 1.5000 -12.5000 3.5000
v 1.5000 -12.5000 4.5000
v 1.5000 4.5000 3.5000
v 1.5000 4.5000 4.5000
v 1.5000 5.5000 3.5000
v 1.5000 6.5000 3.5000
v 1.5000 8.5000 3.5000
v 1.5000 8.5000 4.5000
v 1.5000 9.5000 3.5000
v 1.5000 10.5000 3.5000
v 1.5000 -12.5000 2.5000
v 1.5000 -11.5000 2.5000
v 1.5000 -10.5000 3.5000
v 1.5000 -10.5000 2.5000
v 1.5000 3.5000 2.5000
v 1.5000 3.5000 3.5000
v 1.5000 4.5000 2.5000
v 1.5000 5.5000 2.5000
v 1.5000 7.5000 2.5000
v 1.5000 7.5000 3.5000
v 1.5000 8.5000 2.5000
v 1.5000 9.5000 2.5000
v 1.5000 -12.5000 1.5000
v 1.5000 -11.5000 1.5000
v 1.5000 -10.5000 1.5000
v 1.5000 -9.5000 2.5000
v 1.5000 -9.5000 1.5000
v 1.5000 0.5000 1.5000
v 1.5000 0.5000 2.5000
v 1.5000 1.5000 2.5000
v 1.5000 1.5000 1.5000
v 1.5000 2.5000 2.5000
v 1.5000 2.5000 1.5000
v 1.5000 3.5000 1.5000
v 1.5000 4.5000 1.5000
v 1.5000 -12.5000 0.5000
v 1.5000 -8.5000 1.5000
v 1.5000 -9.5000 0.5000
v 1.5000 -8.5000 0.5000
v 1.5000 -7.5000 1.5000
v 1.5000 -7.5000 0.5000
v 1.5000 -6.5000 1.5000
v 1.5000 -6.5000 0.5000
v 1.5000 -5.5000 1.5000
v 1.5000 -5.5000 0.5000
v 1.5000 -4.5000 1.5000
v 1.5000 -4.5000 0.5000
v 1.5000 -3.5000 1.5000
v 1.5000 -3.5000 0.5000
v 1.5000 -2.5000 1.5000
v 1.5000 -2.5000 0.5000
v 1.5000 -1.5000 1.5000
v 1.5000 -1.5000 0.5000
v 1.5000 -0.5000 1.5000
v 1.5000 -0.5000 0.5000
v 1.5000 0.5000 0.5000
v 1.5000 5.5000 1.5000
v 1.5000 4.5000 0.5000
v 1.5000 5.5000 0.5000
v 1.5000 6.5000 1.5000
v 1.5000 6.5000 0.5000
v 1.5000 7.5000 1.5000
v 1.5000 7.5000 0.5000
v 1.5000 8.5000 1.5000
v 1.5000 8.5000 0.5000
v 1.5000 9.5000 1.5000
v 1.5000 9.5000 0.5000
v 1.5000 10.5000 1.5000
v 1.5000 10.5000 0.5000
v 1.5000 -12.5000 -0.5000
v 1.5000 -7.5000 -0.5000
v 1.5000 -6.5000 -0.5000
v 1.5000 -5.5000 -0.5000
v 1.5000 -4.5000 -0.5000
v 1.5000 -3.5000 -0.5000
v 1.5000 -2.5000 -0.5000
v 1.5000 -1.5000 -0.5000
v 1.5000 -0.5000 -0.5000
v 1.5000 0.5000 -0.5000
v 1.5000 5.5000 -0.5000
v 1.5000 6.5000 -0.5000
v 1.5000 7.5000 -0.5000
v 1.5000 9.5000 -0.5000
v 1.5000 10.5000 -0.5000
v 1.5000 11.5000 0.5000
v 1.5000 11.5000 -0.5000
v 1.5000 -12.5000 -1.5000
v 1.5000 -8.5000 -1.5000
v 1.5000 -9.5000 -1.5000
v 1.5000 -9.5000 -0.5000
v 1.5000 -8.5000 -0.5000
v 1.5000 -7.5000 -1.5000
v 1.5000 -6.5000 -1.5000
v 1.5000 -5.5000 -1.5000
v 1.5000 -4.5000 -1.5000
v 1.5000 -3.5000 -1.5000
v 1.5000 -2.5000 -1.5000
v 1.5000 -1.5000 -1.5000
v 1.5000 -0.5000 -1.5000
v 1.5000 0.5000 -1.5000
v 1.5000 5.5000 -1.5000
v 1.5000 4.5000 -1.5000
v 1.5000 4.5000 -0.5000
v 1.5000 6.5000 -1.5000
v 1.5000 7.5000 -1.5000
v 1.5000 8.5000 -1.5000
v 1.5000 8.5000 -0.5000
v 1.5000 9.5000 -1.5000
v 1.5000 10.5000 -1.5000
v 1.5000 -12.5000 -2.5000
v 1.5000 -11.5000 -1.5000
v 1.5000 -11.5000 -2.5000
v 1.5000 -10.5000 -2.5000
v 1.5000 -10.5000 -1.5000
v 1.5000 -9.5000 -2.5000
v 1.5000 0.5000 -2.5000
v 1.5000 1.5000 -2.5000
v 1.5000 1.5000 -1.5000
v 1.5000 2.5000 -2.5000
v 1.5000 2.5000 -1.5000
v 1.5000 3.5000 -2.5000
v 1.5000 3.5000 -1.5000
v 1.5000 4.5000 -2.5000
v 1.5000 -12.5000 -3.5000
v 1.5000 -11.5000 -3.5000
v 1.5000 -10.5000 -3.5000
v 1.5000 3.5000 -3.5000
v 1.5000 4.5000 -3.5000
v 1.5000 5.5000 -2.5000
v 1.5000 5.5000 -3.5000
v 1.5000 7.5000 -3.5000
v 1.5000 7.5000 -2.5000
v 1.5000 8.5000 -2.5000
v 1.5000 8.5000 -3.5000
v 1.5000 9.5000 -2.5000
v 1.5000 9.5000 -3.5000
v 1.5000 -11.5000 -4.5000
v 1.5000 -12.5000 -4.5000
v 1.5000 4.5000 -4.5000
v 1.5000 5.5000 -4.5000
v 1.5000 6.5000 -3.5000
v 1.5000 6.5000 -4.5000
v 1.5000 8.5000 -4.5000
v 1.5000 9.5000 -4.5000
v 1.5000 10.5000 -3.5000
v 1.5000 10.5000 -4.5000
v 1.5000 6.5000 -5.5000
v 1.5000 5.5000 -5.5000
v 1.5000 10.5000 -5.5000
v 1.5000 9.5000 -5.5000
v 1.5000 6.5000 -6.5000
v 1.5000 5.5000 -6.5000
v 2.5000 -11.5000 2.5000
v 2.5000 -11.5000 1.5000
v 2.5000 -12.5000 1.5000
v 2.5000 -12.5000 2.5000
v 2.5000 3.5000 1.5000
v 2.5000 3.5000 2.5000
v 2.5000 4.5000 2.5000
v 2.5000 4.5000 1.5000
v 2.5000 5.5000 2.5000
v 2.5000 5.5000 1.5000
v 2.5000 6.5000 2.5000
v 1.5000 6.5000 2.5000
v 2.5000 6.5000 1.5000
v 2.5000 7.5000 2.5000
v 2.5000 7.5000 1.5000
v 2.5000 8.5000 2.5000
v 2.5000 8.5000 1.5000
v 2.5000 9.5000 2.5000
v 2.5000 9.5000 1.5000
v 2.5000 -12.5000 0.5000
v 2.5000 -10.5000 1.5000
v 2.5000 -9.5000 1.5000
v 2.5000 -9.5000 0.5000
v 2.5000 -10.5000 0.5000
v 2.5000 0.5000 0.5000
v 2.5000 0.5000 1.5000
v 2.5000 1.5000 1.5000
v 2.5000 1.5000 0.5000
v 2.5000 2.5000 1.5000
v 2.5000 2.5000 0.5000
v 2.5000 3.5000 0.5000
v 2.5000 4.5000 0.5000
v 2.5000 -12.5000 -0.5000
v 2.5000 -8.5000 0.5000
v 2.5000 -8.5000 -0.5000
v 2.5000 -9.5000 -0.5000
v 2.5000 -7.5000 0.5000
v 2.5000 -7.5000 -0.5000
v 2.5000 0.5000 -0.5000
v 2.5000 1.5000 -0.5000
v 2.5000 2.5000 -0.5000
v 2.5000 3.5000 -0.5000
v 2.5000 5.5000 0.5000
v 2.5000 5.5000 -0.5000
v 2.5000 4.5000 -0.5000
v 2.5000 7.5000 -0.5000
v 2.5000 7.5000 0.5000
v 2.5000 8.5000 0.5000
v 2.5000 8.5000 -0.5000
v 2.5000 9.5000 0.5000
v 2.5000 9.5000 -0.5000
v 2.5000 -12.5000 -1.5000
v 2.5000 -10.5000 -1.5000
v 2.5000 -11.5000 -1.5000
v 2.5000 -9.5000 -1.5000
v 2.5000 -10.5000 -0.5000
v 2.5000 0.5000 -1.5000
v 2.5000 1.5000 -1.5000
v 2.5000 2.5000 -1.5000
v 2.5000 3.5000 -1.5000
v 2.5000 4.5000 -1.5000
v 2.5000 -11.5000 -2.5000
v 2.5000 -12.5000 -2.5000
v 2.5000 3.5000 -2.5000
v 2.5000 4.5000 -2.5000
v 2.5000 5.5000 -1.5000
v 2.5000 5.5000 -2.5000
v 2.5000 6.5000 -1.5000
v 1.5000 6.5000 -2.5000
v 2.5000 6.5000 -2.5000
v 2.5000 7.5000 -1.5000
v 2.5000 7.5000 -2.5000
v 2.5000 8.5000 -1.5000
v 2.5000 8.5000 -2.5000
v 2.5000 9.5000 -1.5000
v 2.5000 9.5000 -2.5000
v 3.5000 -12.5000 0.5000
v 3.5000 -12.5000 1.5000
v 3.5000 -11.5000 1.5000
v 3.5000 -10.5000 1.5000
v 3.5000 -10.5000 0.5000
v 3.5000 -11.5000 0.5000
v 3.5000 3.5000 0.5000
v 3.5000 3.5000 1.5000
v 3.5000 4.5000 1.5000
v 3.5000 4.5000 0.5000
v 3.5000 5.5000 1.5000
v 3.5000 5.5000 0.5000
v 3.5000 7.5000 0.5000
v 3.5000 7.5000 1.5000
v 3.5000 8.5000 1.5000
v 3.5000 8.5000 0.5000
v 3.5000 9.5000 1.5000
v 3.5000 9.5000 0.5000
v 3.5000 -12.5000 -0.5000
v 3.5000 -9.5000 0.5000
v 3.5000 -9.5000 -0.5000
v 3.5000 -10.5000 -0.5000
v 3.5000 -8.5000 0.5000
v 3.5000 -8.5000 -0.5000
v 3.5000 3.5000 -0.5000
v 3.5000 4.5000 -0.5000
v 3.5000 5.5000 -0.5000
v 3.5000 7.5000 -0.5000
v 3.5000 8.5000 -0.5000
v 3.5000 9.5000 -0.5000
v 3.5000 -12.5000 -1.5000
v 3.5000 -11.5000 -1.5000
v 3.5000 -10.5000 -1.5000
v 3.5000 -11.5000 -0.5000
v 3.5000 3.5000 -1.5000
v 3.5000 4.5000 -1.5000
v 3.5000 5.5000 -1.5000
v 3.5000 7.5000 -1.5000
v 3.5000 8.5000 -1.5000
v 3.5000 9.5000 -1.5000
v 4.5000 -11.5000 1.5000
v 4.5000 -11.5000 0.5000
v 4.5000 -12.5000 0.5000
v 4.5000 -12.5000 1.5000
v 4.5000 4.5000 0.5000
v 4.5000 4.5000 1.5000
v 4.5000 5.5000 1.5000
v 4.5000 5.5000 0.5000
v 3.5000 6.5000 1.5000
v 4.5000 6.5000 1.5000
v 4.5000 6.5000 0.5000
v 3.5000 6.5000 0.5000
v 4.5000 8.5000 0.5000
v 4.5000 8.5000 1.5000
v 4.5000 9.5000 1.5000
v 4.5000 9.5000 0.5000
v 3.5000 10.5000 1.5000
v 4.5000 10.5000 1.5000
v 4.5000 10.5000 0.5000
v 3.5000 10.5000 0.5000
v 4.5000 -12.5000 -0.5000
v 4.5000 -10.5000 0.5000
v 4.5000 -10.5000 -0.5000
v 4.5000 -11.5000 -0.5000
v 4.5000 -9.5000 0.5000
v 4.5000 -9.5000 -0.5000
v 4.5000 4.5000 -0.5000
v 4.5000 6.5000 -0.5000
v 3.5000 6.5000 -0.5000
v 4.5000 8.5000 -0.5000
v 4.5000 9.5000 -0.5000
v 4.5000 10.5000 -0.5000
v 3.5000 10.5000 -0.5000
v 4.5000 -11.5000 -1.5000
v 4.5000 -12.5000 -1.5000
v 4.5000 4.5000 -1.5000
v 4.5000 5.5000 -1.5000
v 4.5000 5.5000 -0.5000
v 4.5000 6.5000 -1.5000
v 3.5000 6.5000 -1.5000
v 4.5000 8.5000 -1.5000
v 4.5000 9.5000 -1.5000
v 4.5000 10.5000 -1.5000
v 3.5000 10.5000 -1.5000
v 5.5000 6.5000 1.5000
v 5.5000 6.5000 0.5000
v 5.5000 5.5000 0.5000
v 5.5000 5.5000 1.5000
v 5.5000 10.5000 1.5000
v 5.5000 10.5000 0.5000
v 5.5000 9.5000 0.5000
v 5.5000 9.5000 1.5000
v 5.5000 -12.5000 -0.5000
v 5.5000 -12.5000 0.5000
v 5.5000 -11.5000 0.5000
v 5.5000 -11.5000 -0.5000
v 5.5000 -10.5000 0.5000
v 5.5000 -10.5000 -0.5000
v 5.5000 4.5000 -0.5000
v 5.5000 4.5000 0.5000
v 5.5000 5.5000 -0.5000
v 4.5000 7.5000 0.5000
v 5.5000 7.5000 0.5000
v 5.5000 7.5000 -0.5000
v 4.5000 7.5000 -0.5000
v 5.5000 6.5000 -0.5000
v 5.5000 9.5000 -0.5000
v 4.5000 11.5000 0.5000
v 5.5000 11.5000 0.5000
v 5.5000 11.5000 -0.5000
v 4.5000 11.5000 -0.5000
v 5.5000 10.5000 -0.5000
v 5.5000 6.5000 -1.5000
v 5.5000 5.5000 -1.5000
v 5.5000 10.5000 -1.5000
v 5.5000 9.5000 -1.5000
v 6.5000 6.5000 1.5000
v 6.5000 6.5000 0.5000
v 6.5000 5.5000 0.5000
v 6.5000 5.5000 1.5000
v 6.5000 -11.5000 0.5000
v 6.5000 -11.5000 -0.5000
v 6.5000 -12.5000 -0.5000
v 6.5000 -12.5000 0.5000
v 6.5000 6.5000 -0.5000
v 6.5000 5.5000 -0.5000
v 6.5000 10.5000 0.5000
v 6.5000 10.5000 -0.5000
v 6.5000 9.5000 -0.5000
v 6.5000 9.5000 0.5000
v 6.5000 6.5000 -1.5000
v 6.5000 5.5000 -1.5000
vt 0.001953 0.500000
vt 0.005859 0.500000
vt 0.009766 0.500000
vt 0.013672 0.500000
vt 0.017578 0.500000
vt 0.021484 0.500000
vt 0.025391 0.500000
vt 0.029297 0.500000
vt 0.033203 0.500000
vn 0.0 -1.0 0.0
vn 0.0 1.0 0.0
vn 0.0 0.0 1.0
vn 0.0 0.0 -1.0
vn -1.0 0.0 0.0
vn 1.0 0.0 0.0
usemtl mat_Drago_Tomas_Mateo_Buitrago_Gutiérrez_fase_3
s off
f 1/1/2 2/1/2 3/1/2 4/1/2
f 5/1/1 6/1/1 7/1/1 8/1/1
f 5/1/3 8/1/3 2/1/3 1/1/3
f 5/1/5 1/1/5 4/1/5 6/1/5
f 9/2/2 10/2/2 11/2/2 12/2/2
f 13/2/1 14/2/1 15/2/1 16/2/1
f 13/2/3 16/2/3 10/2/3 9/2/3
f 14/2/4 12/2/4 11/2/4 15/2/4
f 13/2/5 9/2/5 12/2/5 14/2/5
f 4/1/2 3/1/2 17/1/2 18/1/2
f 6/1/1 19/1/1 20/1/1 7/1/1
f 6/1/5 4/1/5 18/1/5 19/1/5
f 21/1/2 22/1/2 23/1/2 24/1/2
f 25/1/1 26/1/1 27/1/1 28/1/1
f 25/1/3 28/1/3 22/1/3 21/1/3
f 26/1/4 24/1/4 23/1/4 27/1/4
f 25/1/5 21/1/5 24/1/5 26/1/5
f 18/1/2 17/1/2 29/1/2 30/1/2
f 19/1/1 31/1/1 32/1/1 20/1/1
f 31/1/4 30/1/4 29/1/4 32/1/4
f 19/1/5 18/1/5 30/1/5 31/1/5
f 2/1/2 33/1/2 34/1/2 3/1/2
f 8/1/1 7/1/1 35/1/1 36/1/1
f 8/1/3 36/1/3 33/1/3 2/1/3
f 37/1/2 38/1/2 39/1/2 22/1/2
f 40/1/1 28/1/1 41/1/1 42/1/1
f 40/1/3 42/1/3 38/1/3 37/1/3
f 40/1/5 37/1/5 22/1/5 28/1/5
f 16/2/1 15/2/1 43/2/1 44/2/1
f 16/2/3 44/2/3 45/2/3 10/2/3
f 15/2/4 11/2/4 46/2/4 43/2/4
f 47/3/2 48/3/2 49/3/2 50/3/2
f 10/3/3 45/3/3 48/3/3 47/3/3
f 11/3/4 50/3/4 49/3/4 46/3/4
f 10/3/5 47/3/5 50/3/5 11/3/5
f 51/1/1 52/1/1 53/1/1 54/1/1
f 51/1/3 54/1/3 35/1/3 7/1/3
f 52/1/4 20/1/4 55/1/4 53/1/4
f 51/1/5 7/1/5 20/1/5 52/1/5
f 56/1/2 57/1/2 58/1/2 59/1/2
f 3/1/3 34/1/3 57/1/3 56/1/3
f 17/1/4 59/1/4 58/1/4 60/1/4
f 34/1/6 60/1/6 58/1/6 57/1/6
f 3/1/5 56/1/5 59/1/5 17/1/5
f 28/2/1 27/2/1 61/2/1 41/2/1
f 62/1/2 63/1/2 64/1/2 65/1/2
f 22/1/3 39/1/3 63/1/3 62/1/3
f 23/1/4 65/1/4 64/1/4 66/1/4
f 39/1/6 66/1/6 64/1/6 63/1/6
f 22/1/5 62/1/5 65/1/5 23/1/5
f 17/1/2 60/1/2 67/1/2 29/1/2
f 20/1/1 32/1/1 68/1/1 55/1/1
f 32/1/4 29/1/4 67/1/4 68/1/4
f 23/1/2 66/1/2 69/1/2 70/1/2
f 27/1/1 71/1/1 72/1/1 61/1/1
f 71/1/4 70/1/4 69/1/4 72/1/4
f 27/1/5 23/1/5 70/1/5 71/1/5
f 73/2/2 74/2/2 75/2/2 45/2/2
f 76/2/1 44/2/1 77/2/1 78/2/1
f 76/2/3 78/2/3 74/2/3 73/2/3
f 76/2/5 73/2/5 45/2/5 44/2/5
f 79/4/1 54/4/1 80/4/1 81/4/1
f 79/4/3 81/4/3 82/4/3 36/4/3
f 79/4/5 36/4/5 35/4/5 54/4/5
f 33/4/2 83/4/2 84/4/2 34/4/2
f 36/4/3 82/4/3 83/4/3 33/4/3
f 82/4/6 85/4/6 84/4/6 83/4/6
f 86/4/1 87/4/1 88/4/1 89/4/1
f 86/4/3 89/4/3 90/4/3 42/4/3
f 86/4/5 42/4/5 41/4/5 87/4/5
f 38/4/2 91/4/2 92/4/2 39/4/2
f 42/4/3 90/4/3 91/4/3 38/4/3
f 90/4/6 93/4/6 92/4/6 91/4/6
f 44/2/1 43/2/1 94/2/1 77/2/1
f 45/3/3 75/3/3 95/3/3 48/3/3
f 46/3/4 49/3/4 96/3/4 97/3/4
f 98/2/2 99/2/2 100/2/2 101/2/2
f 48/2/3 95/2/3 99/2/3 98/2/3
f 49/2/4 101/2/4 100/2/4 96/2/4
f 48/2/5 98/2/5 101/2/5 49/2/5
f 54/2/1 53/2/1 102/2/1 80/2/1
f 34/2/2 84/2/2 103/2/2 60/2/2
f 85/2/6 104/2/6 103/2/6 84/2/6
f 87/2/1 105/2/1 106/2/1 88/2/1
f 87/2/5 41/2/5 61/2/5 105/2/5
f 39/2/2 92/2/2 107/2/2 66/2/2
f 93/2/6 108/2/6 107/2/6 92/2/6
f 46/2/2 97/2/2 109/2/2 110/2/2
f 43/2/1 111/2/1 112/2/1 94/2/1
f 111/2/4 110/2/4 109/2/4 112/2/4
f 43/2/5 46/2/5 110/2/5 111/2/5
f 53/4/1 113/4/1 114/4/1 102/4/1
f 113/4/4 68/4/4 115/4/4 114/4/4
f 53/4/5 55/4/5 68/4/5 113/4/5
f 60/4/2 103/4/2 116/4/2 67/4/2
f 68/4/4 67/4/4 116/4/4 115/4/4
f 104/4/6 115/4/6 116/4/6 103/4/6
f 105/4/1 117/4/1 118/4/1 106/4/1
f 117/4/4 72/4/4 119/4/4 118/4/4
f 105/4/5 61/4/5 72/4/5 117/4/5
f 66/4/2 107/4/2 120/4/2 69/4/2
f 72/4/4 69/4/4 120/4/4 119/4/4
f 108/4/6 119/4/6 120/4/6 107/4/6
f 78/2/1 77/2/1 121/2/1 122/2/1
f 78/2/3 122/2/3 123/2/3 74/2/3
f 124/3/2 125/3/2 126/3/2 95/3/2
f 74/3/3 123/3/3 125/3/3 124/3/3
f 74/3/5 124/3/5 95/3/5 75/3/5
f 127/5/1 128/5/1 129/5/1 130/5/1
f 127/5/3 130/5/3 131/5/3 81/5/3
f 127/5/5 81/5/5 80/5/5 128/5/5
f 82/5/2 132/5/2 133/5/2 85/5/2
f 81/5/3 131/5/3 132/5/3 82/5/3
f 131/5/6 134/5/6 133/5/6 132/5/6
f 135/5/1 136/5/1 137/5/1 138/5/1
f 135/5/3 138/5/3 139/5/3 89/5/3
f 138/5/6 137/5/6 140/5/6 139/5/6
f 135/5/5 89/5/5 88/5/5 136/5/5
f 90/5/2 141/5/2 142/5/2 93/5/2
f 89/5/3 139/5/3 141/5/3 90/5/3
f 139/5/6 140/5/6 142/5/6 141/5/6
f 77/2/1 94/2/1 143/2/1 121/2/1
f 95/2/3 126/2/3 144/2/3 99/2/3
f 96/2/4 100/2/4 145/2/4 146/2/4
f 147/2/2 148/2/2 149/2/2 150/2/2
f 99/2/3 144/2/3 148/2/3 147/2/3
f 100/2/4 150/2/4 149/2/4 145/2/4
f 99/2/5 147/2/5 150/2/5 100/2/5
f 128/2/1 151/2/1 152/2/1 129/2/1
f 128/2/5 80/2/5 102/2/5 151/2/5
f 85/2/2 133/2/2 153/2/2 104/2/2
f 136/2/1 154/2/1 155/2/1 137/2/1
f 136/2/5 88/2/5 106/2/5 154/2/5
f 93/2/2 142/2/2 156/2/2 108/2/2
f 94/2/1 112/2/1 157/2/1 143/2/1
f 112/2/4 109/2/4 158/2/4 157/2/4
f 96/3/2 146/3/2 159/3/2 160/3/2
f 109/3/4 160/3/4 159/3/4 158/3/4
f 97/3/5 96/3/5 160/3/5 109/3/5
f 151/6/1 161/6/1 162/6/1 152/6/1
f 161/6/4 114/6/4 163/6/4 162/6/4
f 151/6/5 102/6/5 114/6/5 161/6/5
f 104/6/2 153/6/2 164/6/2 115/6/2
f 114/6/4 115/6/4 164/6/4 163/6/4
f 165/6/6 163/6/6 164/6/6 153/6/6
f 154/6/1 166/6/1 167/6/1 155/6/1
f 166/6/4 118/6/4 168/6/4 167/6/4
f 155/6/6 167/6/6 168/6/6 169/6/6
f 154/6/5 106/6/5 118/6/5 166/6/5
f 108/6/2 156/6/2 170/6/2 119/6/2
f 118/6/4 119/6/4 170/6/4 168/6/4
f 169/6/6 168/6/6 170/6/6 156/6/6
f 171/2/2 172/2/2 173/2/2 123/2/2
f 174/2/1 122/2/1 175/2/1 176/2/1
f 174/2/3 176/2/3 172/2/3 171/2/3
f 174/2/5 171/2/5 123/2/5 122/2/5
f 177/1/1 130/1/1 178/1/1 179/1/1
f 177/1/3 179/1/3 180/1/3 181/1/3
f 177/1/5 181/1/5 131/1/5 130/1/5
f 181/1/3 180/1/3 182/1/3 183/1/3
f 131/1/4 132/1/4 184/1/4 185/1/4
f 180/1/6 185/1/6 184/1/6 182/1/6
f 181/1/5 183/1/5 132/1/5 131/1/5
f 183/1/3 182/1/3 186/1/3 187/1/3
f 132/1/4 188/1/4 189/1/4 184/1/4
f 182/1/6 184/1/6 189/1/6 186/1/6
f 183/1/5 187/1/5 188/1/5 132/1/5
f 187/1/3 186/1/3 190/1/3 191/1/3
f 188/1/4 138/1/4 192/1/4 189/1/4
f 186/1/6 189/1/6 192/1/6 190/1/6
f 187/1/5 191/1/5 138/1/5 188/1/5
f 191/1/3 190/1/3 193/1/3 194/1/3
f 138/1/4 139/1/4 195/1/4 192/1/4
f 190/1/6 192/1/6 195/1/6 193/1/6
f 191/1/5 194/1/5 139/1/5 138/1/5
f 196/1/2 197/1/2 198/1/2 141/1/2
f 194/1/3 193/1/3 197/1/3 196/1/3
f 139/1/4 141/1/4 198/1/4 195/1/4
f 193/1/6 195/1/6 198/1/6 197/1/6
f 194/1/5 196/1/5 141/1/5 139/1/5
f 122/7/1 121/7/1 199/7/1 175/7/1
f 123/8/3 173/8/3 200/8/3 125/8/3
f 201/2/2 202/2/2 203/2/2 144/2/2
f 125/2/3 200/2/3 202/2/3 201/2/3
f 125/2/5 201/2/5 144/2/5 126/2/5
f 204/4/1 205/4/1 206/4/1 207/4/1
f 204/4/3 207/4/3 208/4/3 209/4/3
f 204/4/5 209/4/5 210/4/5 205/4/5
f 209/4/3 208/4/3 211/4/3 212/4/3
f 209/4/5 212/4/5 213/4/5 210/4/5
f 212/4/3 211/4/3 178/4/3 130/4/3
f 212/4/5 130/4/5 129/4/5 213/4/5
f 131/4/2 185/4/2 214/4/2 134/4/2
f 121/7/1 143/7/1 215/7/1 199/7/1
f 144/2/3 203/2/3 216/2/3 148/2/3
f 145/2/4 149/2/4 217/2/4 218/2/4
f 219/3/2 220/3/2 221/3/2 222/3/2
f 148/3/3 216/3/3 220/3/3 219/3/3
f 149/3/4 222/3/4 221/3/4 217/3/4
f 148/3/5 219/3/5 222/3/5 149/3/5
f 205/1/1 223/1/1 224/1/1 206/1/1
f 205/1/5 210/1/5 225/1/5 223/1/5
f 210/1/5 213/1/5 226/1/5 225/1/5
f 213/1/5 129/1/5 152/1/5 226/1/5
f 133/4/2 227/4/2 228/4/2 153/4/2
f 134/4/3 214/4/3 227/4/3 133/4/3
f 165/4/4 153/4/4 228/4/4 229/4/4
f 137/2/1 155/2/1 230/2/1 231/2/1
f 137/2/3 231/2/3 232/2/3 140/2/3
f 155/2/4 169/2/4 233/2/4 230/2/4
f 142/4/2 234/4/2 235/4/2 156/4/2
f 140/4/3 232/4/3 234/4/3 142/4/3
f 169/4/4 156/4/4 235/4/4 233/4/4
f 143/7/1 157/7/1 236/7/1 215/7/1
f 158/8/4 159/8/4 237/8/4 238/8/4
f 145/2/2 218/2/2 239/2/2 240/2/2
f 159/2/4 240/2/4 239/2/4 237/2/4
f 146/2/5 145/2/5 240/2/5 159/2/5
f 223/4/1 241/4/1 242/4/1 224/4/1
f 241/4/4 243/4/4 244/4/4 242/4/4
f 223/4/5 225/4/5 243/4/5 241/4/5
f 243/4/4 245/4/4 246/4/4 244/4/4
f 225/4/5 226/4/5 245/4/5 243/4/5
f 245/4/4 162/4/4 247/4/4 246/4/4
f 226/4/5 152/4/5 162/4/5 245/4/5
f 165/4/2 229/4/2 248/4/2 163/4/2
f 158/2/2 238/2/2 249/2/2 250/2/2
f 157/2/1 251/2/1 252/2/1 236/2/1
f 251/2/4 250/2/4 249/2/4 252/2/4
f 157/2/5 158/2/5 250/2/5 251/2/5
f 162/1/1 253/1/1 254/1/1 247/1/1
f 253/1/4 255/1/4 256/1/4 254/1/4
f 162/1/5 163/1/5 255/1/5 253/1/5
f 163/1/3 248/1/3 257/1/3 164/1/3
f 255/1/4 258/1/4 259/1/4 256/1/4
f 248/1/6 256/1/6 259/1/6 257/1/6
f 163/1/5 164/1/5 258/1/5 255/1/5
f 164/1/3 257/1/3 260/1/3 261/1/3
f 258/1/4 262/1/4 263/1/4 259/1/4
f 257/1/6 259/1/6 263/1/6 260/1/6
f 164/1/5 261/1/5 262/1/5 258/1/5
f 261/1/3 260/1/3 264/1/3 167/1/3
f 262/1/4 265/1/4 266/1/4 263/1/4
f 260/1/6 263/1/6 266/1/6 264/1/6
f 261/1/5 167/1/5 265/1/5 262/1/5
f 167/1/3 264/1/3 267/1/3 168/1/3
f 265/1/4 268/1/4 269/1/4 266/1/4
f 264/1/6 266/1/6 269/1/6 267/1/6
f 167/1/5 168/1/5 268/1/5 265/1/5
f 170/1/2 270/1/2 271/1/2 272/1/2
f 168/1/3 267/1/3 270/1/3 170/1/3
f 268/1/4 272/1/4 271/1/4 269/1/4
f 267/1/6 269/1/6 271/1/6 270/1/6
f 168/1/5 170/1/5 272/1/5 268/1/5
f 273/1/2 274/1/2 275/1/2 276/1/2
f 277/1/1 278/1/1 279/1/1 280/1/1
f 277/1/3 280/1/3 274/1/3 273/1/3
f 277/1/5 273/1/5 276/1/5 278/1/5
f 276/1/2 275/1/2 281/1/2 282/1/2
f 278/1/1 283/1/1 284/1/1 279/1/1
f 278/1/5 276/1/5 282/1/5 283/1/5
f 285/1/2 286/1/2 287/1/2 288/1/2
f 289/1/1 290/1/1 291/1/1 292/1/1
f 289/1/3 292/1/3 286/1/3 285/1/3
f 289/1/5 285/1/5 288/1/5 290/1/5
f 293/2/2 294/2/2 295/2/2 296/2/2
f 297/2/1 298/2/1 299/2/1 300/2/1
f 297/2/3 300/2/3 294/2/3 293/2/3
f 297/2/5 293/2/5 296/2/5 298/2/5
f 301/4/1 302/4/1 303/4/1 304/4/1
f 301/4/3 304/4/3 284/4/3 283/4/3
f 301/4/5 283/4/5 305/4/5 302/4/5
f 282/4/2 281/4/2 306/4/2 307/4/2
f 305/4/4 307/4/4 306/4/4 308/4/4
f 283/4/5 282/4/5 307/4/5 305/4/5
f 309/4/1 310/4/1 311/4/1 312/4/1
f 309/4/3 312/4/3 291/4/3 290/4/3
f 309/4/5 290/4/5 313/4/5 310/4/5
f 288/4/2 287/4/2 314/4/2 315/4/2
f 313/4/4 315/4/4 314/4/4 316/4/4
f 290/4/5 288/4/5 315/4/5 313/4/5
f 298/2/1 176/2/1 317/2/1 299/2/1
f 298/2/5 296/2/5 172/2/5 176/2/5
f 318/3/2 319/3/2 320/3/2 321/3/2
f 296/3/3 295/3/3 319/3/3 318/3/3
f 296/3/5 318/3/5 321/3/5 172/3/5
f 322/6/1 179/6/1 323/6/1 324/6/1
f 322/6/3 324/6/3 303/6/3 302/6/3
f 322/6/5 302/6/5 180/6/5 179/6/5
f 305/6/2 308/6/2 325/6/2 182/6/2
f 180/6/4 182/6/4 325/6/4 326/6/4
f 302/6/5 305/6/5 182/6/5 180/6/5
f 327/6/1 190/6/1 328/6/1 329/6/1
f 327/6/3 329/6/3 311/6/3 310/6/3
f 190/6/4 193/6/4 330/6/4 328/6/4
f 327/6/5 310/6/5 193/6/5 190/6/5
f 313/6/2 316/6/2 331/6/2 197/6/2
f 193/6/4 197/6/4 331/6/4 330/6/4
f 310/6/5 313/6/5 197/6/5 193/6/5
f 176/7/1 175/7/1 332/7/1 317/7/1
f 172/8/5 321/8/5 200/8/5 173/8/5
f 333/2/2 334/2/2 335/2/2 202/2/2
f 321/2/3 320/2/3 334/2/3 333/2/3
f 321/2/5 333/2/5 202/2/5 200/2/5
f 336/4/1 207/4/1 337/4/1 338/4/1
f 336/4/3 338/4/3 339/4/3 340/4/3
f 336/4/5 340/4/5 208/4/5 207/4/5
f 340/4/3 339/4/3 341/4/3 342/4/3
f 340/4/5 342/4/5 211/4/5 208/4/5
f 342/4/3 341/4/3 323/4/3 179/4/3
f 342/4/5 179/4/5 178/4/5 211/4/5
f 180/4/2 326/4/2 343/4/2 185/4/2
f 175/3/1 199/3/1 344/3/1 332/3/1
f 202/2/3 335/2/3 345/2/3 346/2/3
f 202/2/5 346/2/5 216/2/5 203/2/5
f 346/2/3 345/2/3 347/2/3 348/2/3
f 346/2/5 348/2/5 220/2/5 216/2/5
f 348/2/3 347/2/3 349/2/3 350/2/3
f 348/2/5 350/2/5 351/2/5 220/2/5
f 350/3/3 349/3/3 352/3/3 353/3/3
f 350/3/5 353/3/5 354/3/5 351/3/5
f 353/3/3 352/3/3 355/3/3 356/3/3
f 353/3/5 356/3/5 357/3/5 354/3/5
f 356/3/3 355/3/3 358/3/3 359/3/3
f 356/3/5 359/3/5 360/3/5 357/3/5
f 359/3/3 358/3/3 361/3/3 362/3/3
f 359/3/5 362/3/5 363/3/5 360/3/5
f 362/2/3 361/2/3 364/2/3 365/2/3
f 362/2/5 365/2/5 366/2/5 363/2/5
f 365/2/3 364/2/3 367/2/3 368/2/3
f 365/2/5 368/2/5 369/2/5 366/2/5
f 368/2/3 367/2/3 337/2/3 207/2/3
f 368/2/5 207/2/5 206/2/5 369/2/5
f 185/3/3 343/3/3 370/3/3 184/3/3
f 185/3/5 184/3/5 227/3/5 214/3/5
f 184/3/3 370/3/3 371/3/3 189/3/3
f 184/3/5 189/3/5 372/3/5 227/3/5
f 189/3/3 371/3/3 373/3/3 192/3/3
f 189/3/5 192/3/5 231/3/5 372/3/5
f 192/3/3 373/3/3 374/3/3 195/3/3
f 192/3/5 195/3/5 232/3/5 231/3/5
f 195/3/3 374/3/3 375/3/3 198/3/3
f 195/3/5 198/3/5 234/3/5 232/3/5
f 376/4/2 377/4/2 378/4/2 379/4/2
f 198/4/3 375/4/3 377/4/3 376/4/3
f 198/4/5 376/4/5 379/4/5 234/4/5
f 199/3/1 215/3/1 380/3/1 344/3/1
f 381/3/6 382/3/6 383/3/6 384/3/6
f 384/3/6 383/3/6 385/3/6 386/3/6
f 386/3/6 385/3/6 387/3/6 388/3/6
f 388/3/6 387/3/6 389/3/6 390/3/6
f 220/3/5 351/3/5 391/3/5 221/3/5
f 390/2/6 389/2/6 392/2/6 393/2/6
f 351/2/5 354/2/5 394/2/5 391/2/5
f 393/2/6 392/2/6 395/2/6 396/2/6
f 354/2/5 357/2/5 397/2/5 394/2/5
f 396/2/6 395/2/6 398/2/6 399/2/6
f 357/2/5 360/2/5 400/2/5 397/2/5
f 399/2/6 398/2/6 401/2/6 402/2/6
f 360/2/5 363/2/5 403/2/5 400/2/5
f 402/3/6 401/3/6 404/3/6 405/3/6
f 363/3/5 366/3/5 406/3/5 403/3/5
f 405/3/6 404/3/6 407/3/6 408/3/6
f 366/3/5 369/3/5 409/3/5 406/3/5
f 408/3/6 407/3/6 410/3/6 411/3/6
f 369/3/5 206/3/5 224/3/5 409/3/5
f 411/3/6 410/3/6 412/3/6 413/3/6
f 413/3/6 412/3/6 414/3/6 415/3/6
f 415/3/6 414/3/6 416/3/6 417/3/6
f 417/2/6 416/2/6 418/2/6 419/2/6
f 419/2/6 418/2/6 420/2/6 421/2/6
f 421/2/6 420/2/6 422/2/6 423/2/6
f 227/2/5 372/2/5 424/2/5 228/2/5
f 423/2/6 422/2/6 425/2/6 426/2/6
f 372/2/5 231/2/5 230/2/5 424/2/5
f 426/2/6 425/2/6 427/2/6 428/2/6
f 234/4/5 379/4/5 429/4/5 235/4/5
f 430/1/2 431/1/2 432/1/2 433/1/2
f 379/1/3 378/1/3 431/1/3 430/1/3
f 429/1/4 433/1/4 432/1/4 434/1/4
f 379/1/5 430/1/5 433/1/5 429/1/5
f 215/8/1 236/8/1 435/8/1 380/8/1
f 239/2/4 436/2/4 437/2/4 438/2/4
f 218/2/5 217/2/5 436/2/5 239/2/5
f 436/2/4 439/2/4 440/2/4 437/2/4
f 217/2/5 221/2/5 439/2/5 436/2/5
f 439/2/4 441/2/4 442/2/4 440/2/4
f 221/2/5 391/2/5 441/2/5 439/2/5
f 441/3/4 443/3/4 444/3/4 442/3/4
f 391/3/5 394/3/5 443/3/5 441/3/5
f 443/3/4 445/3/4 446/3/4 444/3/4
f 394/3/5 397/3/5 445/3/5 443/3/5
f 445/3/4 447/3/4 448/3/4 446/3/4
f 397/3/5 400/3/5 447/3/5 445/3/5
f 447/3/4 449/3/4 450/3/4 448/3/4
f 400/3/5 403/3/5 449/3/5 447/3/5
f 449/2/4 451/2/4 452/2/4 450/2/4
f 403/2/5 406/2/5 451/2/5 449/2/5
f 451/2/4 453/2/4 454/2/4 452/2/4
f 406/2/5 409/2/5 453/2/5 451/2/5
f 453/2/4 242/2/4 455/2/4 454/2/4
f 409/2/5 224/2/5 242/2/5 453/2/5
f 248/3/4 257/3/4 456/3/4 457/3/4
f 229/3/5 228/3/5 257/3/5 248/3/5
f 257/3/4 260/3/4 458/3/4 456/3/4
f 228/3/5 424/3/5 260/3/5 257/3/5
f 260/3/4 264/3/4 459/3/4 458/3/4
f 424/3/5 230/3/5 264/3/5 260/3/5
f 264/3/4 267/3/4 460/3/4 459/3/4
f 230/3/5 233/3/5 267/3/5 264/3/5
f 267/3/4 270/3/4 461/3/4 460/3/4
f 233/3/5 235/3/5 270/3/5 267/3/5
f 429/4/2 434/4/2 462/4/2 463/4/2
f 270/4/4 463/4/4 462/4/4 461/4/4
f 235/4/5 429/4/5 463/4/5 270/4/5
f 236/7/1 252/7/1 464/7/1 435/7/1
f 238/8/5 237/8/5 465/8/5 249/8/5
f 239/2/2 438/2/2 466/2/2 467/2/2
f 465/2/4 467/2/4 466/2/4 468/2/4
f 237/2/5 239/2/5 467/2/5 465/2/5
f 242/4/1 469/4/1 470/4/1 455/4/1
f 469/4/4 471/4/4 472/4/4 470/4/4
f 242/4/5 244/4/5 471/4/5 469/4/5
f 471/4/4 473/4/4 474/4/4 472/4/4
f 244/4/5 246/4/5 473/4/5 471/4/5
f 473/4/4 254/4/4 475/4/4 474/4/4
f 246/4/5 247/4/5 254/4/5 473/4/5
f 248/4/2 457/4/2 476/4/2 256/4/2
f 252/2/1 477/2/1 478/2/1 464/2/1
f 252/2/5 249/2/5 479/2/5 477/2/5
f 465/3/2 468/3/2 480/3/2 481/3/2
f 479/3/4 481/3/4 480/3/4 482/3/4
f 249/3/5 465/3/5 481/3/5 479/3/5
f 254/5/1 483/5/1 484/5/1 475/5/1
f 483/5/4 485/5/4 486/5/4 484/5/4
f 254/5/5 256/5/5 485/5/5 483/5/5
f 259/5/2 487/5/2 488/5/2 489/5/2
f 256/5/3 476/5/3 487/5/3 259/5/3
f 256/5/5 259/5/5 489/5/5 485/5/5
f 266/5/1 490/5/1 491/5/1 492/5/1
f 266/5/3 492/5/3 493/5/3 269/5/3
f 490/5/4 494/5/4 495/5/4 491/5/4
f 266/5/5 269/5/5 494/5/5 490/5/5
f 271/5/2 496/5/2 497/5/2 498/5/2
f 269/5/3 493/5/3 496/5/3 271/5/3
f 269/5/5 271/5/5 498/5/5 494/5/5
f 479/2/2 482/2/2 499/2/2 500/2/2
f 477/2/1 501/2/1 502/2/1 478/2/1
f 501/2/4 500/2/4 499/2/4 502/2/4
f 477/2/5 479/2/5 500/2/5 501/2/5
f 485/4/1 503/4/1 504/4/1 486/4/1
f 503/4/4 505/4/4 506/4/4 504/4/4
f 485/4/5 489/4/5 505/4/5 503/4/5
f 507/4/2 508/4/2 509/4/2 510/4/2
f 489/4/3 488/4/3 508/4/3 507/4/3
f 489/4/5 507/4/5 510/4/5 505/4/5
f 494/4/1 511/4/1 512/4/1 495/4/1
f 511/4/4 513/4/4 514/4/4 512/4/4
f 494/4/5 498/4/5 513/4/5 511/4/5
f 515/4/2 516/4/2 517/4/2 518/4/2
f 498/4/3 497/4/3 516/4/3 515/4/3
f 498/4/5 515/4/5 518/4/5 513/4/5
f 510/1/2 509/1/2 519/1/2 520/1/2
f 505/1/1 521/1/1 522/1/1 506/1/1
f 505/1/5 510/1/5 520/1/5 521/1/5
f 518/1/2 517/1/2 523/1/2 524/1/2
f 513/1/1 525/1/1 526/1/1 514/1/1
f 525/1/4 524/1/4 523/1/4 526/1/4
f 513/1/5 518/1/5 524/1/5 525/1/5
f 520/1/2 519/1/2 527/1/2 528/1/2
f 521/1/1 529/1/1 530/1/1 522/1/1
f 529/1/4 528/1/4 527/1/4 530/1/4
f 521/1/5 520/1/5 528/1/5 529/1/5
f 531/2/2 532/2/2 533/2/2 534/2/2
f 535/2/1 536/2/1 537/2/1 538/2/1
f 535/2/3 538/2/3 532/2/3 531/2/3
f 538/2/6 537/2/6 533/2/6 532/2/6
f 535/2/5 531/2/5 534/2/5 536/2/5
f 274/1/2 539/1/2 540/1/2 275/1/2
f 280/1/1 279/1/1 541/1/1 542/1/1
f 280/1/3 542/1/3 539/1/3 274/1/3
f 543/1/2 544/1/2 545/1/2 286/1/2
f 546/1/1 292/1/1 547/1/1 548/1/1
f 546/1/3 548/1/3 544/1/3 543/1/3
f 548/1/6 547/1/6 545/1/6 544/1/6
f 546/1/5 543/1/5 286/1/5 292/1/5
f 536/2/1 300/2/1 549/2/1 537/2/1
f 537/2/6 549/2/6 550/2/6 533/2/6
f 536/2/5 534/2/5 294/2/5 300/2/5
f 551/3/2 552/3/2 553/3/2 554/3/2
f 534/3/3 533/3/3 552/3/3 551/3/3
f 533/3/6 550/3/6 553/3/6 552/3/6
f 534/3/5 551/3/5 554/3/5 294/3/5
f 555/1/1 304/1/1 556/1/1 557/1/1
f 555/1/3 557/1/3 541/1/3 279/1/3
f 557/1/6 556/1/6 558/1/6 541/1/6
f 555/1/5 279/1/5 284/1/5 304/1/5
f 559/1/2 560/1/2 561/1/2 562/1/2
f 275/1/3 540/1/3 560/1/3 559/1/3
f 281/1/4 562/1/4 561/1/4 563/1/4
f 540/1/6 563/1/6 561/1/6 560/1/6
f 275/1/5 559/1/5 562/1/5 281/1/5
f 292/2/1 291/2/1 564/2/1 547/2/1
f 565/1/2 566/1/2 567/1/2 568/1/2
f 286/1/3 545/1/3 566/1/3 565/1/3
f 287/1/4 568/1/4 567/1/4 569/1/4
f 545/1/6 569/1/6 567/1/6 566/1/6
f 286/1/5 565/1/5 568/1/5 287/1/5
f 300/2/1 299/2/1 570/2/1 549/2/1
f 550/3/6 571/3/6 572/3/6 553/3/6
f 294/3/5 554/3/5 319/3/5 295/3/5
f 573/2/2 574/2/2 575/2/2 576/2/2
f 554/2/3 553/2/3 574/2/3 573/2/3
f 553/2/6 572/2/6 575/2/6 574/2/6
f 554/2/5 573/2/5 576/2/5 319/2/5
f 304/2/1 303/2/1 577/2/1 556/2/1
f 281/2/2 563/2/2 578/2/2 306/2/2
f 308/2/4 306/2/4 578/2/4 579/2/4
f 312/2/1 311/2/1 580/2/1 581/2/1
f 312/2/3 581/2/3 564/2/3 291/2/3
f 287/2/2 569/2/2 582/2/2 314/2/2
f 316/2/4 314/2/4 582/2/4 583/2/4
f 299/2/1 317/2/1 584/2/1 570/2/1
f 572/2/6 585/2/6 586/2/6 575/2/6
f 319/2/5 576/2/5 334/2/5 320/2/5
f 587/2/2 588/2/2 589/2/2 590/2/2
f 576/2/3 575/2/3 588/2/3 587/2/3
f 575/2/6 586/2/6 589/2/6 588/2/6
f 576/2/5 587/2/5 590/2/5 334/2/5
f 324/2/1 323/2/1 591/2/1 592/2/1
f 324/2/3 592/2/3 577/2/3 303/2/3
f 308/2/2 579/2/2 593/2/2 325/2/2
f 329/2/1 328/2/1 594/2/1 595/2/1
f 329/2/3 595/2/3 580/2/3 311/2/3
f 316/2/2 583/2/2 596/2/2 331/2/2
f 317/7/1 332/7/1 597/7/1 584/7/1
f 586/2/6 598/2/6 599/2/6 589/2/6
f 334/2/5 590/2/5 345/2/5 335/2/5
f 600/3/2 601/3/2 602/3/2 347/3/2
f 590/3/3 589/3/3 601/3/3 600/3/3
f 589/3/6 599/3/6 602/3/6 601/3/6
f 590/3/5 600/3/5 347/3/5 345/3/5
f 338/1/1 337/1/1 603/1/1 604/1/1
f 338/1/3 604/1/3 605/1/3 339/1/3
f 339/1/3 605/1/3 606/1/3 341/1/3
f 341/1/3 606/1/3 591/1/3 323/1/3
f 325/4/2 593/4/2 607/4/2 370/4/2
f 608/4/6 609/4/6 607/4/6 593/4/6
f 326/4/5 325/4/5 370/4/5 343/4/5
f 328/2/1 373/2/1 610/2/1 594/2/1
f 594/2/6 610/2/6 611/2/6 612/2/6
f 328/2/5 330/2/5 374/2/5 373/2/5
f 331/4/2 596/4/2 613/4/2 375/4/2
f 612/4/6 611/4/6 613/4/6 596/4/6
f 330/4/5 331/4/5 375/4/5 374/4/5
f 332/3/1 344/3/1 614/3/1 597/3/1
f 381/3/4 384/3/4 615/3/4 616/3/4
f 384/3/4 386/3/4 617/3/4 615/3/4
f 386/3/4 388/3/4 618/3/4 617/3/4
f 347/3/3 602/3/3 619/3/3 349/3/3
f 388/3/4 390/3/4 620/3/4 618/3/4
f 349/2/3 619/2/3 621/2/3 352/2/3
f 390/2/4 393/2/4 622/2/4 620/2/4
f 352/2/3 621/2/3 623/2/3 355/2/3
f 393/2/4 396/2/4 624/2/4 622/2/4
f 355/2/3 623/2/3 625/2/3 358/2/3
f 396/2/4 399/2/4 626/2/4 624/2/4
f 358/2/3 625/2/3 627/2/3 361/2/3
f 399/2/4 402/2/4 628/2/4 626/2/4
f 361/3/3 627/3/3 629/3/3 364/3/3
f 402/3/4 405/3/4 630/3/4 628/3/4
f 364/3/3 629/3/3 631/3/3 367/3/3
f 405/3/4 408/3/4 632/3/4 630/3/4
f 367/3/3 631/3/3 603/3/3 337/3/3
f 408/3/4 411/3/4 633/3/4 632/3/4
f 411/3/4 413/3/4 634/3/4 633/3/4
f 413/3/4 415/3/4 635/3/4 634/3/4
f 415/3/4 417/3/4 636/3/4 635/3/4
f 417/2/4 419/2/4 637/2/4 636/2/4
f 419/2/4 421/2/4 638/2/4 637/2/4
f 370/2/3 607/2/3 639/2/3 371/2/3
f 421/2/4 423/2/4 640/2/4 638/2/4
f 371/2/3 639/2/3 610/2/3 373/2/3
f 423/2/4 426/2/4 641/2/4 640/2/4
f 426/2/4 428/2/4 642/2/4 641/2/4
f 375/4/3 613/4/3 643/4/3 377/4/3
f 644/1/2 645/1/2 646/1/2 431/1/2
f 377/1/3 643/1/3 645/1/3 644/1/3
f 643/1/6 647/1/6 646/1/6 645/1/6
f 377/1/5 644/1/5 431/1/5 378/1/5
f 344/3/1 380/3/1 648/3/1 614/3/1
f 381/9/2 616/9/2 649/9/2 382/9/2
f 428/2/1 427/2/1 650/2/1 642/2/1
f 651/1/2 652/1/2 653/1/2 654/1/2
f 431/1/3 646/1/3 652/1/3 651/1/3
f 432/1/4 654/1/4 653/1/4 655/1/4
f 646/1/6 655/1/6 653/1/6 652/1/6
f 431/1/5 651/1/5 654/1/5 432/1/5
f 380/3/1 435/3/1 656/3/1 648/3/1
f 382/3/3 649/3/3 657/3/3 383/3/3
f 383/3/3 657/3/3 658/3/3 385/3/3
f 385/3/3 658/3/3 659/3/3 387/3/3
f 387/3/3 659/3/3 660/3/3 389/3/3
f 440/3/4 442/3/4 661/3/4 662/3/4
f 389/2/3 660/2/3 663/2/3 392/2/3
f 442/2/4 444/2/4 664/2/4 661/2/4
f 392/2/3 663/2/3 665/2/3 395/2/3
f 444/2/4 446/2/4 666/2/4 664/2/4
f 395/2/3 665/2/3 667/2/3 398/2/3
f 446/2/4 448/2/4 668/2/4 666/2/4
f 398/2/3 667/2/3 669/2/3 401/2/3
f 448/2/4 450/2/4 670/2/4 668/2/4
f 401/3/3 669/3/3 671/3/3 404/3/3
f 450/3/4 452/3/4 672/3/4 670/3/4
f 404/3/3 671/3/3 673/3/3 407/3/3
f 452/3/4 454/3/4 674/3/4 672/3/4
f 407/3/3 673/3/3 675/3/3 410/3/3
f 454/3/4 455/3/4 676/3/4 674/3/4
f 410/3/3 675/3/3 677/3/3 412/3/3
f 412/3/3 677/3/3 678/3/3 414/3/3
f 414/3/3 678/3/3 679/3/3 416/3/3
f 416/2/3 679/2/3 680/2/3 418/2/3
f 418/2/3 680/2/3 681/2/3 420/2/3
f 420/2/3 681/2/3 682/2/3 422/2/3
f 456/2/4 458/2/4 683/2/4 684/2/4
f 422/2/3 682/2/3 685/2/3 425/2/3
f 458/2/4 459/2/4 686/2/4 683/2/4
f 425/2/3 685/2/3 650/2/3 427/2/3
f 461/4/4 462/4/4 687/4/4 688/4/4
f 432/1/2 655/1/2 689/1/2 690/1/2
f 462/1/4 690/1/4 689/1/4 687/1/4
f 691/1/6 687/1/6 689/1/6 655/1/6
f 434/1/5 432/1/5 690/1/5 462/1/5
f 435/7/1 464/7/1 692/7/1 656/7/1
f 693/2/6 694/2/6 695/2/6 696/2/6
f 438/2/5 437/2/5 697/2/5 466/2/5
f 440/3/2 662/3/2 698/3/2 699/3/2
f 697/3/4 699/3/4 698/3/4 695/3/4
f 696/3/6 695/3/6 698/3/6 662/3/6
f 437/3/5 440/3/5 699/3/5 697/3/5
f 455/1/1 470/1/1 700/1/1 676/1/1
f 470/1/4 472/1/4 701/1/4 700/1/4
f 472/1/4 474/1/4 702/1/4 701/1/4
f 474/1/4 475/1/4 703/1/4 702/1/4
f 456/4/2 684/4/2 704/4/2 487/4/2
f 705/4/6 706/4/6 704/4/6 684/4/6
f 457/4/5 456/4/5 487/4/5 476/4/5
f 459/2/1 492/2/1 707/2/1 686/2/1
f 686/2/6 707/2/6 708/2/6 709/2/6
f 459/2/5 460/2/5 493/2/5 492/2/5
f 461/4/2 688/4/2 710/4/2 496/4/2
f 709/4/6 708/4/6 710/4/6 688/4/6
f 460/4/5 461/4/5 496/4/5 493/4/5
f 464/2/1 478/2/1 711/2/1 692/2/1
f 712/2/6 713/2/6 714/2/6 694/2/6
f 468/2/5 466/2/5 715/2/5 480/2/5
f 697/2/2 695/2/2 716/2/2 717/2/2
f 715/2/4 717/2/4 716/2/4 714/2/4
f 694/2/6 714/2/6 716/2/6 695/2/6
f 466/2/5 697/2/5 717/2/5 715/2/5
f 475/2/1 484/2/1 718/2/1 703/2/1
f 484/2/4 486/2/4 719/2/4 718/2/4
f 487/2/2 704/2/2 720/2/2 488/2/2
f 492/2/1 491/2/1 721/2/1 707/2/1
f 491/2/4 495/2/4 722/2/4 721/2/4
f 496/2/2 710/2/2 723/2/2 497/2/2
f 478/2/1 502/2/1 724/2/1 711/2/1
f 725/3/6 726/3/6 727/3/6 713/3/6
f 482/3/5 480/3/5 728/3/5 499/3/5
f 715/2/2 714/2/2 729/2/2 730/2/2
f 728/2/4 730/2/4 729/2/4 727/2/4
f 713/2/6 727/2/6 729/2/6 714/2/6
f 480/2/5 715/2/5 730/2/5 728/2/5
f 486/2/1 504/2/1 731/2/1 719/2/1
f 508/2/2 732/2/2 733/2/2 509/2/2
f 488/2/3 720/2/3 732/2/3 508/2/3
f 495/2/1 512/2/1 734/2/1 722/2/1
f 512/2/4 514/2/4 735/2/4 734/2/4
f 516/2/2 736/2/2 737/2/2 517/2/2
f 497/2/3 723/2/3 736/2/3 516/2/3
f 502/2/1 738/2/1 739/2/1 724/2/1
f 724/2/6 739/2/6 740/2/6 726/2/6
f 502/2/5 499/2/5 741/2/5 738/2/5
f 728/3/2 727/3/2 742/3/2 743/3/2
f 741/3/4 743/3/4 742/3/4 740/3/4
f 726/3/6 740/3/6 742/3/6 727/3/6
f 499/3/5 728/3/5 743/3/5 741/3/5
f 504/1/1 744/1/1 745/1/1 731/1/1
f 744/1/4 522/1/4 746/1/4 745/1/4
f 731/1/6 745/1/6 746/1/6 747/1/6
f 504/1/5 506/1/5 522/1/5 744/1/5
f 748/1/2 749/1/2 750/1/2 751/1/2
f 509/1/3 733/1/3 749/1/3 748/1/3
f 519/1/4 751/1/4 750/1/4 752/1/4
f 733/1/6 752/1/6 750/1/6 749/1/6
f 509/1/5 748/1/5 751/1/5 519/1/5
f 514/2/1 526/2/1 753/2/1 735/2/1
f 754/1/2 755/1/2 756/1/2 757/1/2
f 517/1/3 737/1/3 755/1/3 754/1/3
f 523/1/4 757/1/4 756/1/4 758/1/4
f 737/1/6 758/1/6 756/1/6 755/1/6
f 517/1/5 754/1/5 757/1/5 523/1/5
f 741/2/2 740/2/2 759/2/2 760/2/2
f 738/2/1 761/2/1 762/2/1 739/2/1
f 761/2/4 760/2/4 759/2/4 762/2/4
f 739/2/6 762/2/6 759/2/6 740/2/6
f 738/2/5 741/2/5 760/2/5 761/2/5
f 519/1/2 752/1/2 763/1/2 527/1/2
f 522/1/1 530/1/1 764/1/1 746/1/1
f 530/1/4 527/1/4 763/1/4 764/1/4
f 523/1/2 758/1/2 765/1/2 766/1/2
f 526/1/1 767/1/1 768/1/1 753/1/1
f 767/1/4 766/1/4 765/1/4 768/1/4
f 753/1/6 768/1/6 765/1/6 758/1/6
f 526/1/5 523/1/5 766/1/5 767/1/5
f 539/1/2 769/1/2 770/1/2 540/1/2
f 542/1/1 541/1/1 771/1/1 772/1/1
f 542/1/3 772/1/3 769/1/3 539/1/3
f 772/1/6 771/1/6 770/1/6 769/1/6
f 540/1/2 770/1/2 773/1/2 563/1/2
f 541/1/1 558/1/1 774/1/1 771/1/1
f 771/1/6 774/1/6 773/1/6 770/1/6
f 545/1/2 775/1/2 776/1/2 569/1/2
f 547/1/1 564/1/1 777/1/1 778/1/1
f 547/1/3 778/1/3 775/1/3 545/1/3
f 778/1/6 777/1/6 776/1/6 775/1/6
f 550/2/2 779/2/2 780/2/2 571/2/2
f 549/2/1 570/2/1 781/2/1 782/2/1
f 549/2/3 782/2/3 779/2/3 550/2/3
f 782/2/6 781/2/6 780/2/6 779/2/6
f 556/4/1 577/4/1 783/4/1 784/4/1
f 556/4/3 784/4/3 774/4/3 558/4/3
f 784/4/6 783/4/6 785/4/6 774/4/6
f 563/4/2 773/4/2 786/4/2 578/4/2
f 579/4/4 578/4/4 786/4/4 785/4/4
f 774/4/6 785/4/6 786/4/6 773/4/6
f 581/4/1 580/4/1 787/4/1 788/4/1
f 581/4/3 788/4/3 777/4/3 564/4/3
f 788/4/6 787/4/6 789/4/6 777/4/6
f 569/4/2 776/4/2 790/4/2 582/4/2
f 583/4/4 582/4/4 790/4/4 789/4/4
f 777/4/6 789/4/6 790/4/6 776/4/6
f 570/2/1 584/2/1 791/2/1 781/2/1
f 781/2/6 791/2/6 792/2/6 780/2/6
f 572/3/2 793/3/2 794/3/2 585/3/2
f 571/3/3 780/3/3 793/3/3 572/3/3
f 780/3/6 792/3/6 794/3/6 793/3/6
f 592/5/1 591/5/1 795/5/1 796/5/1
f 592/5/3 796/5/3 783/5/3 577/5/3
f 796/5/6 795/5/6 797/5/6 783/5/6
f 579/5/2 785/5/2 798/5/2 593/5/2
f 608/5/4 593/5/4 798/5/4 797/5/4
f 783/5/6 797/5/6 798/5/6 785/5/6
f 595/5/1 594/5/1 799/5/1 800/5/1
f 595/5/3 800/5/3 787/5/3 580/5/3
f 594/5/4 612/5/4 801/5/4 799/5/4
f 800/5/6 799/5/6 801/5/6 787/5/6
f 583/5/2 789/5/2 802/5/2 596/5/2
f 612/5/4 596/5/4 802/5/4 801/5/4
f 787/5/6 801/5/6 802/5/6 789/5/6
f 584/7/1 597/7/1 803/7/1 791/7/1
f 792/8/6 804/8/6 805/8/6 794/8/6
f 586/2/2 806/2/2 807/2/2 598/2/2
f 585/2/3 794/2/3 806/2/3 586/2/3
f 794/2/6 805/2/6 807/2/6 806/2/6
f 604/4/1 603/4/1 808/4/1 809/4/1
f 604/4/3 809/4/3 810/4/3 605/4/3
f 809/4/6 808/4/6 811/4/6 810/4/6
f 605/4/3 810/4/3 812/4/3 606/4/3
f 810/4/6 811/4/6 813/4/6 812/4/6
f 606/4/3 812/4/3 795/4/3 591/4/3
f 812/4/6 813/4/6 814/4/6 795/4/6
f 608/4/2 797/4/2 815/4/2 609/4/2
f 597/3/1 614/3/1 816/3/1 803/3/1
f 598/2/3 807/2/3 817/2/3 599/2/3
f 807/2/6 818/2/6 819/2/6 817/2/6
f 599/2/3 817/2/3 820/2/3 602/2/3
f 817/2/6 819/2/6 821/2/6 820/2/6
f 602/2/3 820/2/3 822/2/3 619/2/3
f 820/2/6 821/2/6 823/2/6 822/2/6
f 619/3/3 822/3/3 824/3/3 621/3/3
f 822/3/6 823/3/6 825/3/6 824/3/6
f 621/3/3 824/3/3 826/3/3 623/3/3
f 824/3/6 825/3/6 827/3/6 826/3/6
f 623/3/3 826/3/3 828/3/3 625/3/3
f 826/3/6 827/3/6 829/3/6 828/3/6
f 625/3/3 828/3/3 830/3/3 627/3/3
f 828/3/6 829/3/6 831/3/6 830/3/6
f 627/2/3 830/2/3 832/2/3 629/2/3
f 830/2/6 831/2/6 833/2/6 832/2/6
f 629/2/3 832/2/3 834/2/3 631/2/3
f 832/2/6 833/2/6 835/2/6 834/2/6
f 631/2/3 834/2/3 808/2/3 603/2/3
f 834/2/6 835/2/6 836/2/6 808/2/6
f 609/3/3 815/3/3 837/3/3 607/3/3
f 815/3/6 838/3/6 839/3/6 837/3/6
f 607/3/3 837/3/3 840/3/3 639/3/3
f 837/3/6 839/3/6 841/3/6 840/3/6
f 639/3/3 840/3/3 842/3/3 610/3/3
f 840/3/6 841/3/6 843/3/6 842/3/6
f 610/3/3 842/3/3 844/3/3 611/3/3
f 842/3/6 843/3/6 845/3/6 844/3/6
f 611/3/3 844/3/3 846/3/3 613/3/3
f 844/3/6 845/3/6 847/3/6 846/3/6
f 643/4/2 848/4/2 849/4/2 647/4/2
f 613/4/3 846/4/3 848/4/3 643/4/3
f 846/4/6 847/4/6 849/4/6 848/4/6
f 614/3/1 648/3/1 850/3/1 816/3/1
f 616/3/5 615/3/5 657/3/5 649/3/5
f 615/3/5 617/3/5 658/3/5 657/3/5
f 617/3/5 618/3/5 659/3/5 658/3/5
f 821/3/6 851/3/6 852/3/6 823/3/6
f 618/3/5 620/3/5 660/3/5 659/3/5
f 823/2/6 852/2/6 853/2/6 825/2/6
f 620/2/5 622/2/5 663/2/5 660/2/5
f 825/2/6 853/2/6 854/2/6 827/2/6
f 622/2/5 624/2/5 665/2/5 663/2/5
f 827/2/6 854/2/6 855/2/6 829/2/6
f 624/2/5 626/2/5 667/2/5 665/2/5
f 829/2/6 855/2/6 856/2/6 831/2/6
f 626/2/5 628/2/5 669/2/5 667/2/5
f 831/3/6 856/3/6 857/3/6 833/3/6
f 628/3/5 630/3/5 671/3/5 669/3/5
f 833/3/6 857/3/6 858/3/6 835/3/6
f 630/3/5 632/3/5 673/3/5 671/3/5
f 835/3/6 858/3/6 859/3/6 836/3/6
f 632/3/5 633/3/5 675/3/5 673/3/5
f 633/3/5 634/3/5 677/3/5 675/3/5
f 634/3/5 635/3/5 678/3/5 677/3/5
f 635/3/5 636/3/5 679/3/5 678/3/5
f 636/2/5 637/2/5 680/2/5 679/2/5
f 637/2/5 638/2/5 681/2/5 680/2/5
f 839/2/6 860/2/6 861/2/6 841/2/6
f 638/2/5 640/2/5 682/2/5 681/2/5
f 841/2/6 861/2/6 862/2/6 843/2/6
f 640/2/5 641/2/5 685/2/5 682/2/5
f 641/2/5 642/2/5 650/2/5 685/2/5
f 847/4/6 863/4/6 864/4/6 849/4/6
f 646/1/2 865/1/2 866/1/2 655/1/2
f 647/1/3 849/1/3 865/1/3 646/1/3
f 691/1/4 655/1/4 866/1/4 864/1/4
f 849/1/6 864/1/6 866/1/6 865/1/6
f 648/3/1 656/3/1 867/3/1 850/3/1
f 693/2/4 696/2/4 868/2/4 869/2/4
f 870/2/6 869/2/6 868/2/6 871/2/6
f 696/2/4 662/2/4 872/2/4 868/2/4
f 871/2/6 868/2/6 872/2/6 851/2/6
f 662/2/4 661/2/4 873/2/4 872/2/4
f 851/2/6 872/2/6 873/2/6 852/2/6
f 661/3/4 664/3/4 874/3/4 873/3/4
f 852/3/6 873/3/6 874/3/6 853/3/6
f 664/3/4 666/3/4 875/3/4 874/3/4
f 853/3/6 874/3/6 875/3/6 854/3/6
f 666/3/4 668/3/4 876/3/4 875/3/4
f 854/3/6 875/3/6 876/3/6 855/3/6
f 668/3/4 670/3/4 877/3/4 876/3/4
f 855/3/6 876/3/6 877/3/6 856/3/6
f 670/2/4 672/2/4 878/2/4 877/2/4
f 856/2/6 877/2/6 878/2/6 857/2/6
f 672/2/4 674/2/4 879/2/4 878/2/4
f 857/2/6 878/2/6 879/2/6 858/2/6
f 674/2/4 676/2/4 880/2/4 879/2/4
f 858/2/6 879/2/6 880/2/6 859/2/6
f 705/3/4 684/3/4 881/3/4 882/3/4
f 883/3/6 882/3/6 881/3/6 860/3/6
f 684/3/4 683/3/4 884/3/4 881/3/4
f 860/3/6 881/3/6 884/3/6 861/3/6
f 683/3/4 686/3/4 885/3/4 884/3/4
f 861/3/6 884/3/6 885/3/6 862/3/6
f 686/3/4 709/3/4 886/3/4 885/3/4
f 862/3/6 885/3/6 886/3/6 887/3/6
f 709/3/4 688/3/4 888/3/4 886/3/4
f 887/3/6 886/3/6 888/3/6 863/3/6
f 691/4/2 864/4/2 889/4/2 687/4/2
f 688/4/4 687/4/4 889/4/4 888/4/4
f 863/4/6 888/4/6 889/4/6 864/4/6
f 656/7/1 692/7/1 890/7/1 867/7/1
f 891/8/6 892/8/6 893/8/6 894/8/6
f 693/2/2 869/2/2 895/2/2 694/2/2
f 712/2/4 694/2/4 895/2/4 893/2/4
f 894/2/6 893/2/6 895/2/6 869/2/6
f 676/4/1 700/4/1 896/4/1 880/4/1
f 700/4/4 701/4/4 897/4/4 896/4/4
f 880/4/6 896/4/6 897/4/6 898/4/6
f 701/4/4 702/4/4 899/4/4 897/4/4
f 898/4/6 897/4/6 899/4/6 900/4/6
f 702/4/4 703/4/4 901/4/4 899/4/4
f 900/4/6 899/4/6 901/4/6 902/4/6
f 705/4/2 882/4/2 903/4/2 706/4/2
f 692/2/1 711/2/1 904/2/1 890/2/1
f 890/2/6 904/2/6 905/2/6 892/2/6
f 712/3/2 893/3/2 906/3/2 713/3/2
f 725/3/4 713/3/4 906/3/4 905/3/4
f 892/3/6 905/3/6 906/3/6 893/3/6
f 703/6/1 718/6/1 907/6/1 901/6/1
f 718/6/4 719/6/4 908/6/4 907/6/4
f 901/6/6 907/6/6 908/6/6 903/6/6
f 704/6/2 909/6/2 910/6/2 720/6/2
f 706/6/3 903/6/3 909/6/3 704/6/3
f 903/6/6 908/6/6 910/6/6 909/6/6
f 707/6/1 721/6/1 911/6/1 912/6/1
f 707/6/3 912/6/3 913/6/3 708/6/3
f 721/6/4 722/6/4 914/6/4 911/6/4
f 912/6/6 911/6/6 914/6/6 913/6/6
f 710/6/2 915/6/2 916/6/2 723/6/2
f 708/6/3 913/6/3 915/6/3 710/6/3
f 913/6/6 914/6/6 916/6/6 915/6/6
f 725/2/2 905/2/2 917/2/2 726/2/2
f 711/2/1 724/2/1 918/2/1 904/2/1
f 724/2/4 726/2/4 917/2/4 918/2/4
f 904/2/6 918/2/6 917/2/6 905/2/6
f 719/4/1 731/4/1 919/4/1 908/4/1
f 731/4/4 747/4/4 920/4/4 919/4/4
f 908/4/6 919/4/6 920/4/6 910/4/6
f 732/4/2 921/4/2 922/4/2 733/4/2
f 720/4/3 910/4/3 921/4/3 732/4/3
f 910/4/6 920/4/6 922/4/6 921/4/6
f 722/4/1 734/4/1 923/4/1 914/4/1
f 734/4/4 735/4/4 924/4/4 923/4/4
f 914/4/6 923/4/6 924/4/6 916/4/6
f 736/4/2 925/4/2 926/4/2 737/4/2
f 723/4/3 916/4/3 925/4/3 736/4/3
f 916/4/6 924/4/6 926/4/6 925/4/6
f 733/1/2 922/1/2 927/1/2 752/1/2
f 747/1/1 746/1/1 928/1/1 920/1/1
f 920/1/6 928/1/6 927/1/6 922/1/6
f 737/1/2 926/1/2 929/1/2 758/1/2
f 735/1/1 753/1/1 930/1/1 924/1/1
f 753/1/4 758/1/4 929/1/4 930/1/4
f 924/1/6 930/1/6 929/1/6 926/1/6
f 752/1/2 927/1/2 931/1/2 763/1/2
f 746/1/1 764/1/1 932/1/1 928/1/1
f 764/1/4 763/1/4 931/1/4 932/1/4
f 928/1/6 932/1/6 931/1/6 927/1/6
f 792/2/2 933/2/2 934/2/2 804/2/2
f 791/2/1 803/2/1 935/2/1 936/2/1
f 791/2/3 936/2/3 933/2/3 792/2/3
f 936/2/6 935/2/6 934/2/6 933/2/6
f 795/1/1 814/1/1 937/1/1 938/1/1
f 795/1/3 938/1/3 939/1/3 797/1/3
f 938/1/6 937/1/6 940/1/6 939/1/6
f 797/1/3 939/1/3 941/1/3 798/1/3
f 815/1/4 837/1/4 942/1/4 940/1/4
f 939/1/6 940/1/6 942/1/6 941/1/6
f 797/1/5 798/1/5 837/1/5 815/1/5
f 798/1/3 941/1/3 943/1/3 944/1/3
f 837/1/4 840/1/4 945/1/4 942/1/4
f 941/1/6 942/1/6 945/1/6 943/1/6
f 798/1/5 944/1/5 840/1/5 837/1/5
f 944/1/3 943/1/3 946/1/3 799/1/3
f 840/1/4 842/1/4 947/1/4 945/1/4
f 943/1/6 945/1/6 947/1/6 946/1/6
f 944/1/5 799/1/5 842/1/5 840/1/5
f 799/1/3 946/1/3 948/1/3 801/1/3
f 842/1/4 844/1/4 949/1/4 947/1/4
f 946/1/6 947/1/6 949/1/6 948/1/6
f 799/1/5 801/1/5 844/1/5 842/1/5
f 802/1/2 950/1/2 951/1/2 846/1/2
f 801/1/3 948/1/3 950/1/3 802/1/3
f 844/1/4 846/1/4 951/1/4 949/1/4
f 948/1/6 949/1/6 951/1/6 950/1/6
f 801/1/5 802/1/5 846/1/5 844/1/5
f 803/7/1 816/7/1 952/7/1 935/7/1
f 804/8/3 934/8/3 953/8/3 805/8/3
f 807/2/2 954/2/2 955/2/2 818/2/2
f 805/2/3 953/2/3 954/2/3 807/2/3
f 953/2/6 956/2/6 955/2/6 954/2/6
f 808/4/1 836/4/1 957/4/1 958/4/1
f 808/4/3 958/4/3 959/4/3 811/4/3
f 958/4/6 957/4/6 960/4/6 959/4/6
f 811/4/3 959/4/3 961/4/3 813/4/3
f 959/4/6 960/4/6 962/4/6 961/4/6
f 813/4/3 961/4/3 937/4/3 814/4/3
f 961/4/6 962/4/6 963/4/6 937/4/6
f 815/4/2 940/4/2 964/4/2 838/4/2
f 816/7/1 850/7/1 965/7/1 952/7/1
f 818/2/3 955/2/3 966/2/3 819/2/3
f 870/2/4 871/2/4 967/2/4 968/2/4
f 821/3/2 969/3/2 970/3/2 851/3/2
f 819/3/3 966/3/3 969/3/3 821/3/3
f 871/3/4 851/3/4 970/3/4 967/3/4
f 966/3/6 967/3/6 970/3/6 969/3/6
f 836/1/1 859/1/1 971/1/1 957/1/1
f 957/1/6 971/1/6 972/1/6 960/1/6
f 960/1/6 972/1/6 973/1/6 962/1/6
f 962/1/6 973/1/6 974/1/6 963/1/6
f 839/4/2 975/4/2 976/4/2 860/4/2
f 838/4/3 964/4/3 975/4/3 839/4/3
f 883/4/4 860/4/4 976/4/4 977/4/4
f 843/2/1 862/2/1 978/2/1 979/2/1
f 843/2/3 979/2/3 980/2/3 845/2/3
f 862/2/4 887/2/4 981/2/4 978/2/4
f 847/4/2 982/4/2 983/4/2 863/4/2
f 845/4/3 980/4/3 982/4/3 847/4/3
f 887/4/4 863/4/4 983/4/4 981/4/4
f 850/7/1 867/7/1 984/7/1 965/7/1
f 891/8/4 894/8/4 985/8/4 986/8/4
f 870/2/2 968/2/2 987/2/2 869/2/2
f 894/2/4 869/2/4 987/2/4 985/2/4
f 988/2/6 985/2/6 987/2/6 968/2/6
f 859/4/1 880/4/1 989/4/1 971/4/1
f 880/4/4 898/4/4 990/4/4 989/4/4
f 971/4/6 989/4/6 990/4/6 972/4/6
f 898/4/4 900/4/4 991/4/4 990/4/4
f 972/4/6 990/4/6 991/4/6 973/4/6
f 900/4/4 902/4/4 992/4/4 991/4/4
f 973/4/6 991/4/6 992/4/6 974/4/6
f 883/4/2 977/4/2 993/4/2 882/4/2
f 891/2/2 986/2/2 994/2/2 892/2/2
f 867/2/1 890/2/1 995/2/1 984/2/1
f 890/2/4 892/2/4 994/2/4 995/2/4
f 984/2/6 995/2/6 994/2/6 986/2/6
f 902/1/1 901/1/1 996/1/1 992/1/1
f 901/1/4 903/1/4 997/1/4 996/1/4
f 992/1/6 996/1/6 997/1/6 993/1/6
f 882/1/3 993/1/3 998/1/3 881/1/3
f 903/1/4 909/1/4 999/1/4 997/1/4
f 993/1/6 997/1/6 999/1/6 998/1/6
f 882/1/5 881/1/5 909/1/5 903/1/5
f 881/1/3 998/1/3 1000/1/3 884/1/3
f 909/1/4 1001/1/4 1002/1/4 999/1/4
f 998/1/6 999/1/6 1002/1/6 1000/1/6
f 881/1/5 884/1/5 1001/1/5 909/1/5
f 884/1/3 1000/1/3 1003/1/3 885/1/3
f 1001/1/4 912/1/4 1004/1/4 1002/1/4
f 1000/1/6 1002/1/6 1004/1/6 1003/1/6
f 884/1/5 885/1/5 912/1/5 1001/1/5
f 885/1/3 1003/1/3 1005/1/3 886/1/3
f 912/1/4 913/1/4 1006/1/4 1004/1/4
f 1003/1/6 1004/1/6 1006/1/6 1005/1/6
f 885/1/5 886/1/5 913/1/5 912/1/5
f 888/1/2 1007/1/2 1008/1/2 915/1/2
f 886/1/3 1005/1/3 1007/1/3 888/1/3
f 913/1/4 915/1/4 1008/1/4 1006/1/4
f 1005/1/6 1006/1/6 1008/1/6 1007/1/6
f 886/1/5 888/1/5 915/1/5 913/1/5
f 935/2/1 952/2/1 1009/2/1 1010/2/1
f 935/2/3 1010/2/3 1011/2/3 934/2/3
f 953/3/2 1012/3/2 1013/3/2 956/3/2
f 934/3/3 1011/3/3 1012/3/3 953/3/3
f 1011/3/6 1014/3/6 1013/3/6 1012/3/6
f 937/6/1 963/6/1 1015/6/1 1016/6/1
f 937/6/3 1016/6/3 1017/6/3 940/6/3
f 1016/6/6 1015/6/6 1018/6/6 1017/6/6
f 942/6/2 1019/6/2 1020/6/2 975/6/2
f 940/6/3 1017/6/3 1019/6/3 942/6/3
f 940/6/5 942/6/5 975/6/5 964/6/5
f 947/6/1 979/6/1 1021/6/1 1022/6/1
f 947/6/3 1022/6/3 1023/6/3 949/6/3
f 1022/6/6 1021/6/6 1024/6/6 1023/6/6
f 947/6/5 949/6/5 980/6/5 979/6/5
f 951/6/2 1025/6/2 1026/6/2 982/6/2
f 949/6/3 1023/6/3 1025/6/3 951/6/3
f 949/6/5 951/6/5 982/6/5 980/6/5
f 952/2/1 965/2/1 1027/2/1 1009/2/1
f 956/2/3 1013/2/3 1028/2/3 955/2/3
f 988/2/4 968/2/4 1029/2/4 1030/2/4
f 966/2/2 1031/2/2 1032/2/2 967/2/2
f 955/2/3 1028/2/3 1031/2/3 966/2/3
f 968/2/4 967/2/4 1032/2/4 1029/2/4
f 1028/2/6 1029/2/6 1032/2/6 1031/2/6
f 963/2/1 974/2/1 1033/2/1 1015/2/1
f 1015/2/6 1033/2/6 1034/2/6 1018/2/6
f 975/2/2 1020/2/2 1035/2/2 976/2/2
f 979/2/1 978/2/1 1036/2/1 1021/2/1
f 1021/2/6 1036/2/6 1037/2/6 1024/2/6
f 982/2/2 1026/2/2 1038/2/2 983/2/2
f 965/2/1 984/2/1 1039/2/1 1027/2/1
f 984/2/4 986/2/4 1040/2/4 1039/2/4
f 988/3/2 1030/3/2 1041/3/2 985/3/2
f 986/3/4 985/3/4 1041/3/4 1040/3/4
f 1042/3/6 1040/3/6 1041/3/6 1030/3/6
f 974/5/1 992/5/1 1043/5/1 1033/5/1
f 992/5/4 993/5/4 1044/5/4 1043/5/4
f 1033/5/6 1043/5/6 1044/5/6 1034/5/6
f 976/5/2 1035/5/2 1045/5/2 998/5/2
f 993/5/4 998/5/4 1045/5/4 1044/5/4
f 977/5/5 976/5/5 998/5/5 993/5/5
f 978/5/1 1003/5/1 1046/5/1 1036/5/1
f 1003/5/4 1005/5/4 1047/5/4 1046/5/4
f 1036/5/6 1046/5/6 1047/5/6 1037/5/6
f 978/5/5 981/5/5 1005/5/5 1003/5/5
f 983/5/2 1038/5/2 1048/5/2 1007/5/2
f 1005/5/4 1007/5/4 1048/5/4 1047/5/4
f 981/5/5 983/5/5 1007/5/5 1005/5/5
f 1011/2/2 1049/2/2 1050/2/2 1014/2/2
f 1010/2/1 1009/2/1 1051/2/1 1052/2/1
f 1010/2/3 1052/2/3 1049/2/3 1011/2/3
f 1052/2/6 1051/2/6 1050/2/6 1049/2/6
f 1017/4/1 1018/4/1 1053/4/1 1054/4/1
f 1017/4/3 1054/4/3 1055/4/3 1019/4/3
f 1054/4/6 1053/4/6 1056/4/6 1055/4/6
f 1057/4/2 1058/4/2 1059/4/2 1060/4/2
f 1019/4/3 1055/4/3 1058/4/3 1057/4/3
f 1019/4/5 1057/4/5 1060/4/5 1020/4/5
f 1023/4/1 1024/4/1 1061/4/1 1062/4/1
f 1023/4/3 1062/4/3 1063/4/3 1025/4/3
f 1062/4/6 1061/4/6 1064/4/6 1063/4/6
f 1065/4/2 1066/4/2 1067/4/2 1068/4/2
f 1025/4/3 1063/4/3 1066/4/3 1065/4/3
f 1025/4/5 1065/4/5 1068/4/5 1026/4/5
f 1009/2/1 1027/2/1 1069/2/1 1051/2/1
f 1014/3/3 1050/3/3 1070/3/3 1013/3/3
f 1042/3/4 1030/3/4 1071/3/4 1072/3/4
f 1028/2/2 1073/2/2 1074/2/2 1029/2/2
f 1013/2/3 1070/2/3 1073/2/3 1028/2/3
f 1030/2/4 1029/2/4 1074/2/4 1071/2/4
f 1070/2/6 1071/2/6 1074/2/6 1073/2/6
f 1018/2/1 1034/2/1 1075/2/1 1053/2/1
f 1060/2/2 1059/2/2 1076/2/2 1077/2/2
f 1020/2/5 1060/2/5 1077/2/5 1035/2/5
f 1024/2/1 1037/2/1 1078/2/1 1061/2/1
f 1061/2/6 1078/2/6 1079/2/6 1064/2/6
f 1068/2/2 1067/2/2 1080/2/2 1081/2/2
f 1026/2/5 1068/2/5 1081/2/5 1038/2/5
f 1042/2/2 1072/2/2 1082/2/2 1040/2/2
f 1027/2/1 1039/2/1 1083/2/1 1069/2/1
f 1039/2/4 1040/2/4 1082/2/4 1083/2/4
f 1069/2/6 1083/2/6 1082/2/6 1072/2/6
f 1034/4/1 1044/4/1 1084/4/1 1075/4/1
f 1044/4/4 1045/4/4 1085/4/4 1084/4/4
f 1075/4/6 1084/4/6 1085/4/6 1086/4/6
f 1077/4/2 1076/4/2 1087/4/2 1088/4/2
f 1045/4/4 1088/4/4 1087/4/4 1085/4/4
f 1035/4/5 1077/4/5 1088/4/5 1045/4/5
f 1037/4/1 1047/4/1 1089/4/1 1078/4/1
f 1047/4/4 1048/4/4 1090/4/4 1089/4/4
f 1078/4/6 1089/4/6 1090/4/6 1079/4/6
f 1081/4/2 1080/4/2 1091/4/2 1092/4/2
f 1048/4/4 1092/4/4 1091/4/4 1090/4/4
f 1038/4/5 1081/4/5 1092/4/5 1048/4/5
f 1058/1/2 1093/1/2 1094/1/2 1059/1/2
f 1055/1/1 1056/1/1 1095/1/1 1096/1/1
f 1055/1/3 1096/1/3 1093/1/3 1058/1/3
f 1066/1/2 1097/1/2 1098/1/2 1067/1/2
f 1063/1/1 1064/1/1 1099/1/1 1100/1/1
f 1063/1/3 1100/1/3 1097/1/3 1066/1/3
f 1100/1/6 1099/1/6 1098/1/6 1097/1/6
f 1051/2/1 1069/2/1 1101/2/1 1102/2/1
f 1051/2/3 1102/2/3 1103/2/3 1050/2/3
f 1069/2/4 1072/2/4 1104/2/4 1101/2/4
f 1070/3/2 1105/3/2 1106/3/2 1071/3/2
f 1050/3/3 1103/3/3 1105/3/3 1070/3/3
f 1072/3/4 1071/3/4 1106/3/4 1104/3/4
f 1103/3/6 1104/3/6 1106/3/6 1105/3/6
f 1053/1/1 1075/1/1 1107/1/1 1108/1/1
f 1053/1/3 1108/1/3 1095/1/3 1056/1/3
f 1075/1/4 1086/1/4 1109/1/4 1107/1/4
f 1108/1/6 1107/1/6 1109/1/6 1095/1/6
f 1110/1/2 1111/1/2 1112/1/2 1113/1/2
f 1059/1/3 1094/1/3 1111/1/3 1110/1/3
f 1076/1/4 1113/1/4 1112/1/4 1114/1/4
f 1094/1/6 1114/1/6 1112/1/6 1111/1/6
f 1059/1/5 1110/1/5 1113/1/5 1076/1/5
f 1064/2/1 1079/2/1 1115/2/1 1099/2/1
f 1116/1/2 1117/1/2 1118/1/2 1119/1/2
f 1067/1/3 1098/1/3 1117/1/3 1116/1/3
f 1080/1/4 1119/1/4 1118/1/4 1120/1/4
f 1098/1/6 1120/1/6 1118/1/6 1117/1/6
f 1067/1/5 1116/1/5 1119/1/5 1080/1/5
f 1076/1/2 1114/1/2 1121/1/2 1087/1/2
f 1086/1/1 1085/1/1 1122/1/1 1109/1/1
f 1085/1/4 1087/1/4 1121/1/4 1122/1/4
f 1080/1/2 1120/1/2 1123/1/2 1091/1/2
f 1079/1/1 1090/1/1 1124/1/1 1115/1/1
f 1090/1/4 1091/1/4 1123/1/4 1124/1/4
f 1115/1/6 1124/1/6 1123/1/6 1120/1/6
f 1093/1/2 1125/1/2 1126/1/2 1094/1/2
f 1096/1/1 1095/1/1 1127/1/1 1128/1/1
f 1096/1/3 1128/1/3 1125/1/3 1093/1/3
f 1128/1/6 1127/1/6 1126/1/6 1125/1/6
f 1103/2/2 1129/2/2 1130/2/2 1104/2/2
f 1102/2/1 1101/2/1 1131/2/1 1132/2/1
f 1102/2/3 1132/2/3 1129/2/3 1103/2/3
f 1101/2/4 1104/2/4 1130/2/4 1131/2/4
f 1132/2/6 1131/2/6 1130/2/6 1129/2/6
f 1094/1/2 1126/1/2 1133/1/2 1114/1/2
f 1095/1/1 1109/1/1 1134/1/1 1127/1/1
f 1127/1/6 1134/1/6 1133/1/6 1126/1/6
f 1098/1/2 1135/1/2 1136/1/2 1120/1/2
f 1099/1/1 1115/1/1 1137/1/1 1138/1/1
f 1099/1/3 1138/1/3 1135/1/3 1098/1/3
f 1115/1/4 1120/1/4 1136/1/4 1137/1/4
f 1138/1/6 1137/1/6 1136/1/6 1135/1/6
f 1114/1/2 1133/1/2 1139/1/2 1121/1/2
f 1109/1/1 1122/1/1 1140/1/1 1134/1/1
f 1122/1/4 1121/1/4 1139/1/4 1140/1/4
f 1134/1/6 1140/1/6 1139/1/6 1133/1/6
