mtllib Manzano_Mateo_Andres_Guzmán_Reyes_fase_3.mtl
o Manzano_Mateo_Andres_Guzmán_Reyes_fase_3
v -8.0000 4.0000 8.0000
v -8.0000 4.0000 7.0000
v -7.0000 4.0000 7.0000
v -7.0000 4.0000 8.0000
v -7.0000 5.0000 8.0000
v -8.0000 5.0000 8.0000
v -8.0000 5.0000 7.0000
v -8.0000 6.0000 8.0000
v -7.0000 6.0000 8.0000
v -7.0000 6.0000 7.0000
v -8.0000 6.0000 7.0000
v -8.0000 4.0000 6.0000
v -7.0000 4.0000 6.0000
v -8.0000 5.0000 6.0000
v -7.0000 5.0000 6.0000
v -7.0000 6.0000 6.0000
v -8.0000 6.0000 6.0000
v -8.0000 0.0000 6.0000
v -8.0000 0.0000 5.0000
v -7.0000 0.0000 5.0000
v -7.0000 0.0000 6.0000
v -7.0000 1.0000 6.0000
v -8.0000 1.0000 6.0000
v -8.0000 1.0000 5.0000
v -7.0000 2.0000 6.0000
v -8.0000 2.0000 6.0000
v -8.0000 2.0000 5.0000
v -7.0000 3.0000 6.0000
v -8.0000 3.0000 6.0000
v -8.0000 3.0000 5.0000
v -7.0000 4.0000 5.0000
v -8.0000 4.0000 5.0000
v -7.0000 6.0000 5.0000
v -8.0000 6.0000 5.0000
v -8.0000 5.0000 5.0000
v -7.0000 5.0000 5.0000
v -8.0000 0.0000 4.0000
v -7.0000 0.0000 4.0000
v -8.0000 1.0000 4.0000
v -8.0000 2.0000 4.0000
v -8.0000 3.0000 4.0000
v -8.0000 4.0000 4.0000
v -8.0000 5.0000 4.0000
v -8.0000 6.0000 4.0000
v -8.0000 7.0000 5.0000
v -7.0000 7.0000 5.0000
v -7.0000 7.0000 4.0000
v -8.0000 7.0000 4.0000
v -8.0000 0.0000 3.0000
v -7.0000 0.0000 3.0000
v -8.0000 1.0000 3.0000
v -8.0000 2.0000 3.0000
v -8.0000 3.0000 3.0000
v -8.0000 4.0000 3.0000
v -8.0000 5.0000 3.0000
v -8.0000 6.0000 3.0000
v -7.0000 7.0000 3.0000
v -8.0000 7.0000 3.0000
v -8.0000 0.0000 2.0000
v -7.0000 0.0000 2.0000
v -8.0000 1.0000 2.0000
v -8.0000 2.0000 2.0000
v -8.0000 3.0000 2.0000
v -8.0000 4.0000 2.0000
v -8.0000 5.0000 2.0000
v -8.0000 6.0000 2.0000
v -7.0000 7.0000 2.0000
v -8.0000 7.0000 2.0000
v -8.0000 0.0000 1.0000
v -7.0000 0.0000 1.0000
v -8.0000 1.0000 1.0000
v -8.0000 2.0000 1.0000
v -8.0000 3.0000 1.0000
v -8.0000 4.0000 1.0000
v -8.0000 5.0000 1.0000
v -8.0000 6.0000 1.0000
v -7.0000 7.0000 1.0000
v -8.0000 7.0000 1.0000
v -8.0000 0.0000 -0.0000
v -7.0000 0.0000 -0.0000
v -8.0000 1.0000 -0.0000
v -8.0000 2.0000 -0.0000
v -8.0000 3.0000 -0.0000
v -8.0000 4.0000 -0.0000
v -8.0000 5.0000 -0.0000
v -8.0000 6.0000 -0.0000
v -7.0000 7.0000 -0.0000
v -8.0000 7.0000 -0.0000
v -8.0000 0.0000 -1.0000
v -7.0000 0.0000 -1.0000
v -8.0000 1.0000 -1.0000
v -8.0000 2.0000 -1.0000
v -8.0000 3.0000 -1.0000
v -8.0000 4.0000 -1.0000
v -8.0000 5.0000 -1.0000
v -8.0000 6.0000 -1.0000
v -7.0000 7.0000 -1.0000
v -8.0000 7.0000 -1.0000
v -8.0000 0.0000 -2.0000
v -7.0000 0.0000 -2.0000
v -8.0000 1.0000 -2.0000
v -8.0000 2.0000 -2.0000
v -8.0000 3.0000 -2.0000
v -8.0000 4.0000 -2.0000
v -8.0000 5.0000 -2.0000
v -8.0000 6.0000 -2.0000
v -7.0000 7.0000 -2.0000
v -8.0000 7.0000 -2.0000
v -8.0000 0.0000 -3.0000
v -7.0000 0.0000 -3.0000
v -8.0000 1.0000 -3.0000
v -8.0000 2.0000 -3.0000
v -8.0000 3.0000 -3.0000
v -8.0000 4.0000 -3.0000
v -8.0000 5.0000 -3.0000
v -8.0000 6.0000 -3.0000
v -7.0000 7.0000 -3.0000
v -8.0000 7.0000 -3.0000
v -8.0000 0.0000 -4.0000
v -7.0000 0.0000 -4.0000
v -8.0000 1.0000 -4.0000
v -8.0000 2.0000 -4.0000
v -8.0000 3.0000 -4.0000
v -8.0000 4.0000 -4.0000
v -8.0000 5.0000 -4.0000
v -8.0000 6.0000 -4.0000
v -7.0000 7.0000 -4.0000
v -8.0000 7.0000 -4.0000
v -8.0000 0.0000 -5.0000
v -7.0000 0.0000 -5.0000
v -8.0000 1.0000 -5.0000
v -7.0000 1.0000 -5.0000
v -8.0000 2.0000 -5.0000
v -7.0000 2.0000 -5.0000
v -8.0000 3.0000 -5.0000
v -7.0000 3.0000 -5.0000
v -8.0000 4.0000 -5.0000
v -7.0000 4.0000 -5.0000
v -8.0000 5.0000 -5.0000
v -7.0000 5.0000 -5.0000
v -8.0000 6.0000 -5.0000
v -7.0000 7.0000 -5.0000
v -8.0000 7.0000 -5.0000
v -7.0000 6.0000 -5.0000
v -7.0000 6.0000 -6.0000
v -8.0000 6.0000 -6.0000
v -8.0000 5.0000 -6.0000
v -7.0000 5.0000 -6.0000
v -7.0000 6.0000 -7.0000
v -8.0000 6.0000 -7.0000
v -8.0000 5.0000 -7.0000
v -7.0000 5.0000 -7.0000
v -7.0000 2.0000 8.0000
v -7.0000 2.0000 7.0000
v -6.0000 2.0000 7.0000
v -6.0000 2.0000 8.0000
v -6.0000 3.0000 8.0000
v -7.0000 3.0000 8.0000
v -7.0000 3.0000 7.0000
v -6.0000 4.0000 8.0000
v -6.0000 5.0000 8.0000
v -6.0000 4.0000 7.0000
v -6.0000 5.0000 7.0000
v -6.0000 6.0000 8.0000
v -6.0000 6.0000 7.0000
v -7.0000 0.0000 7.0000
v -6.0000 0.0000 6.0000
v -6.0000 0.0000 7.0000
v -6.0000 1.0000 7.0000
v -7.0000 1.0000 7.0000
v -6.0000 6.0000 6.0000
v -6.0000 0.0000 5.0000
v -6.0000 6.0000 5.0000
v -6.0000 0.0000 4.0000
v -6.0000 7.0000 5.0000
v -6.0000 7.0000 4.0000
v -6.0000 0.0000 3.0000
v -6.0000 7.0000 3.0000
v -6.0000 0.0000 2.0000
v -6.0000 7.0000 2.0000
v -6.0000 0.0000 1.0000
v -6.0000 7.0000 1.0000
v -6.0000 0.0000 -0.0000
v -6.0000 7.0000 -0.0000
v -6.0000 0.0000 -1.0000
v -6.0000 7.0000 -1.0000
v -6.0000 0.0000 -2.0000
v -6.0000 7.0000 -2.0000
v -6.0000 0.0000 -3.0000
v -6.0000 7.0000 -3.0000
v -6.0000 0.0000 -4.0000
v -6.0000 7.0000 -4.0000
v -6.0000 0.0000 -5.0000
v -6.0000 1.0000 -5.0000
v -6.0000 2.0000 -5.0000
v -6.0000 7.0000 -5.0000
v -6.0000 6.0000 -5.0000
v -7.0000 2.0000 -6.0000
v -6.0000 2.0000 -6.0000
v -7.0000 3.0000 -6.0000
v -7.0000 4.0000 -6.0000
v -6.0000 6.0000 -6.0000
v -7.0000 2.0000 -7.0000
v -6.0000 2.0000 -7.0000
v -7.0000 3.0000 -7.0000
v -7.0000 4.0000 -7.0000
v -6.0000 6.0000 -7.0000
v -7.0000 2.0000 -8.0000
v -6.0000 2.0000 -8.0000
v -7.0000 3.0000 -8.0000
v -6.0000 3.0000 -8.0000
v -7.0000 4.0000 -8.0000
v -6.0000 4.0000 -8.0000
v -7.0000 5.0000 -8.0000
v -6.0000 5.0000 -8.0000
v -6.0000 6.0000 -8.0000
v -7.0000 6.0000 -8.0000
v -6.0000 0.0000 8.0000
v -5.0000 0.0000 7.0000
v -5.0000 0.0000 8.0000
v -5.0000 1.0000 8.0000
v -6.0000 1.0000 8.0000
v -5.0000 1.0000 7.0000
v -5.0000 2.0000 8.0000
v -5.0000 3.0000 8.0000
v -5.0000 4.0000 8.0000
v -5.0000 4.0000 7.0000
v -5.0000 3.0000 7.0000
v -5.0000 6.0000 8.0000
v -5.0000 6.0000 7.0000
v -5.0000 5.0000 7.0000
v -5.0000 5.0000 8.0000
v -5.0000 0.0000 6.0000
v -5.0000 6.0000 6.0000
v -5.0000 0.0000 5.0000
v -5.0000 6.0000 5.0000
v -5.0000 0.0000 4.0000
v -5.0000 7.0000 5.0000
v -5.0000 7.0000 4.0000
v -5.0000 0.0000 3.0000
v -5.0000 7.0000 3.0000
v -5.0000 0.0000 2.0000
v -5.0000 7.0000 2.0000
v -5.0000 0.0000 1.0000
v -5.0000 7.0000 1.0000
v -5.0000 0.0000 -0.0000
v -5.0000 7.0000 -0.0000
v -5.0000 0.0000 -1.0000
v -5.0000 7.0000 -1.0000
v -5.0000 0.0000 -2.0000
v -5.0000 7.0000 -2.0000
v -5.0000 0.0000 -3.0000
v -5.0000 7.0000 -3.0000
v -5.0000 0.0000 -4.0000
v -5.0000 7.0000 -4.0000
v -5.0000 0.0000 -5.0000
v -5.0000 1.0000 -5.0000
v -5.0000 2.0000 -5.0000
v -5.0000 7.0000 -5.0000
v -5.0000 6.0000 -5.0000
v -5.0000 2.0000 -6.0000
v -5.0000 6.0000 -6.0000
v -5.0000 2.0000 -7.0000
v -5.0000 6.0000 -7.0000
v -5.0000 2.0000 -8.0000
v -5.0000 3.0000 -8.0000
v -5.0000 4.0000 -8.0000
v -5.0000 5.0000 -8.0000
v -5.0000 6.0000 -8.0000
v -4.0000 1.0000 7.0000
v -4.0000 1.0000 8.0000
v -4.0000 2.0000 8.0000
v -4.0000 2.0000 7.0000
v -4.0000 3.0000 8.0000
v -4.0000 3.0000 7.0000
v -4.0000 4.0000 7.0000
v -4.0000 4.0000 8.0000
v -4.0000 5.0000 8.0000
v -4.0000 6.0000 8.0000
v -4.0000 6.0000 7.0000
v -4.0000 0.0000 6.0000
v -4.0000 0.0000 7.0000
v -4.0000 6.0000 6.0000
v -4.0000 0.0000 5.0000
v -4.0000 6.0000 5.0000
v -4.0000 0.0000 4.0000
v -4.0000 7.0000 5.0000
v -5.0000 8.0000 5.0000
v -4.0000 8.0000 5.0000
v -4.0000 8.0000 4.0000
v -5.0000 8.0000 4.0000
v -4.0000 0.0000 3.0000
v -4.0000 8.0000 3.0000
v -5.0000 8.0000 3.0000
v -4.0000 0.0000 2.0000
v -4.0000 8.0000 2.0000
v -5.0000 8.0000 2.0000
v -4.0000 0.0000 1.0000
v -4.0000 8.0000 1.0000
v -5.0000 8.0000 1.0000
v -4.0000 0.0000 -0.0000
v -4.0000 8.0000 -0.0000
v -5.0000 8.0000 -0.0000
v -4.0000 0.0000 -1.0000
v -4.0000 8.0000 -1.0000
v -5.0000 8.0000 -1.0000
v -4.0000 0.0000 -2.0000
v -4.0000 8.0000 -2.0000
v -5.0000 8.0000 -2.0000
v -4.0000 0.0000 -3.0000
v -4.0000 8.0000 -3.0000
v -5.0000 8.0000 -3.0000
v -4.0000 0.0000 -4.0000
v -4.0000 8.0000 -4.0000
v -5.0000 8.0000 -4.0000
v -4.0000 0.0000 -5.0000
v -4.0000 1.0000 -5.0000
v -4.0000 2.0000 -5.0000
v -4.0000 7.0000 -5.0000
v -4.0000 6.0000 -5.0000
v -4.0000 8.0000 -5.0000
v -5.0000 8.0000 -5.0000
v -4.0000 2.0000 -6.0000
v -4.0000 6.0000 -6.0000
v -4.0000 8.0000 -6.0000
v -5.0000 8.0000 -6.0000
v -5.0000 7.0000 -6.0000
v -4.0000 7.0000 -6.0000
v -4.0000 2.0000 -7.0000
v -4.0000 6.0000 -7.0000
v -4.0000 2.0000 -8.0000
v -4.0000 3.0000 -8.0000
v -4.0000 4.0000 -8.0000
v -4.0000 5.0000 -8.0000
v -4.0000 6.0000 -8.0000
v -3.0000 1.0000 8.0000
v -3.0000 1.0000 7.0000
v -4.0000 0.0000 8.0000
v -3.0000 0.0000 7.0000
v -3.0000 0.0000 8.0000
v -3.0000 2.0000 7.0000
v -3.0000 2.0000 8.0000
v -3.0000 3.0000 8.0000
v -3.0000 4.0000 8.0000
v -3.0000 5.0000 8.0000
v -3.0000 6.0000 8.0000
v -3.0000 6.0000 7.0000
v -4.0000 8.0000 8.0000
v -3.0000 8.0000 8.0000
v -3.0000 8.0000 7.0000
v -4.0000 8.0000 7.0000
v -4.0000 7.0000 8.0000
v -4.0000 7.0000 7.0000
v -3.0000 7.0000 7.0000
v -3.0000 7.0000 8.0000
v -3.0000 0.0000 6.0000
v -4.0000 7.0000 6.0000
v -3.0000 8.0000 6.0000
v -4.0000 8.0000 6.0000
v -3.0000 0.0000 5.0000
v -3.0000 8.0000 5.0000
v -3.0000 0.0000 4.0000
v -3.0000 8.0000 4.0000
v -3.0000 0.0000 3.0000
v -3.0000 8.0000 3.0000
v -3.0000 0.0000 2.0000
v -3.0000 8.0000 2.0000
v -3.0000 0.0000 1.0000
v -3.0000 8.0000 1.0000
v -3.0000 0.0000 -0.0000
v -3.0000 8.0000 -0.0000
v -3.0000 0.0000 -1.0000
v -3.0000 8.0000 -1.0000
v -3.0000 0.0000 -2.0000
v -3.0000 8.0000 -2.0000
v -3.0000 0.0000 -3.0000
v -3.0000 8.0000 -3.0000
v -3.0000 0.0000 -4.0000
v -3.0000 8.0000 -4.0000
v -3.0000 0.0000 -5.0000
v -3.0000 1.0000 -5.0000
v -3.0000 2.0000 -5.0000
v -3.0000 7.0000 -5.0000
v -3.0000 6.0000 -5.0000
v -3.0000 8.0000 -5.0000
v -3.0000 2.0000 -6.0000
v -3.0000 6.0000 -6.0000
v -3.0000 8.0000 -6.0000
v -3.0000 7.0000 -6.0000
v -3.0000 2.0000 -7.0000
v -3.0000 6.0000 -7.0000
v -3.0000 8.0000 -7.0000
v -4.0000 8.0000 -7.0000
v -4.0000 7.0000 -7.0000
v -3.0000 7.0000 -7.0000
v -3.0000 2.0000 -8.0000
v -3.0000 3.0000 -8.0000
v -3.0000 4.0000 -8.0000
v -3.0000 5.0000 -8.0000
v -3.0000 6.0000 -8.0000
v -4.0000 7.0000 -8.0000
v -3.0000 7.0000 -8.0000
v -3.0000 8.0000 -8.0000
v -4.0000 8.0000 -8.0000
v -2.0000 0.0000 7.0000
v -2.0000 0.0000 8.0000
v -2.0000 1.0000 8.0000
v -2.0000 2.0000 8.0000
v -2.0000 3.0000 8.0000
v -2.0000 4.0000 8.0000
v -2.0000 5.0000 8.0000
v -2.0000 6.0000 8.0000
v -2.0000 7.0000 8.0000
v -2.0000 6.0000 7.0000
v -2.0000 7.0000 7.0000
v -2.0000 8.0000 8.0000
v -2.0000 8.0000 7.0000
v -2.0000 0.0000 6.0000
v -2.0000 8.0000 6.0000
v -2.0000 0.0000 5.0000
v -2.0000 8.0000 5.0000
v -2.0000 0.0000 4.0000
v -2.0000 8.0000 4.0000
v -2.0000 0.0000 3.0000
v -2.0000 8.0000 3.0000
v -2.0000 0.0000 2.0000
v -2.0000 8.0000 2.0000
v -3.0000 -7.0000 2.0000
v -2.0000 -7.0000 2.0000
v -2.0000 -7.0000 1.0000
v -3.0000 -7.0000 1.0000
v -3.0000 -8.0000 2.0000
v -3.0000 -8.0000 1.0000
v -2.0000 -8.0000 1.0000
v -2.0000 -8.0000 2.0000
v -3.0000 -1.0000 2.0000
v -2.0000 -1.0000 2.0000
v -2.0000 -1.0000 1.0000
v -3.0000 -1.0000 1.0000
v -3.0000 -2.0000 2.0000
v -3.0000 -2.0000 1.0000
v -2.0000 -2.0000 1.0000
v -2.0000 -2.0000 2.0000
v -2.0000 0.0000 1.0000
v -2.0000 8.0000 1.0000
v -3.0000 -8.0000 -0.0000
v -2.0000 -8.0000 -0.0000
v -3.0000 -7.0000 -0.0000
v -3.0000 -6.0000 1.0000
v -2.0000 -6.0000 1.0000
v -2.0000 -6.0000 -0.0000
v -3.0000 -6.0000 -0.0000
v -3.0000 -2.0000 -0.0000
v -2.0000 -2.0000 -0.0000
v -3.0000 -1.0000 -0.0000
v -2.0000 -1.0000 -0.0000
v -2.0000 8.0000 -0.0000
v -3.0000 -8.0000 -1.0000
v -2.0000 -8.0000 -1.0000
v -3.0000 -7.0000 -1.0000
v -2.0000 -6.0000 -1.0000
v -3.0000 -6.0000 -1.0000
v -2.0000 -7.0000 -1.0000
v -3.0000 -1.0000 -1.0000
v -2.0000 -1.0000 -1.0000
v -2.0000 0.0000 -1.0000
v -2.0000 8.0000 -1.0000
v -2.0000 -7.0000 -2.0000
v -3.0000 -7.0000 -2.0000
v -3.0000 -8.0000 -2.0000
v -2.0000 -8.0000 -2.0000
v -3.0000 -2.0000 -1.0000
v -2.0000 -2.0000 -1.0000
v -2.0000 -2.0000 -2.0000
v -3.0000 -2.0000 -2.0000
v -3.0000 -3.0000 -1.0000
v -3.0000 -3.0000 -2.0000
v -2.0000 -3.0000 -2.0000
v -2.0000 -3.0000 -1.0000
v -2.0000 0.0000 -2.0000
v -2.0000 8.0000 -2.0000
v -2.0000 -2.0000 -3.0000
v -3.0000 -2.0000 -3.0000
v -3.0000 -3.0000 -3.0000
v -2.0000 -3.0000 -3.0000
v -2.0000 0.0000 -3.0000
v -2.0000 8.0000 -3.0000
v -2.0000 -2.0000 -4.0000
v -3.0000 -2.0000 -4.0000
v -3.0000 -3.0000 -4.0000
v -2.0000 -3.0000 -4.0000
v -2.0000 0.0000 -4.0000
v -2.0000 8.0000 -4.0000
v -3.0000 -1.0000 -4.0000
v -3.0000 -1.0000 -5.0000
v -2.0000 -1.0000 -5.0000
v -2.0000 -1.0000 -4.0000
v -2.0000 1.0000 -5.0000
v -2.0000 0.0000 -5.0000
v -2.0000 2.0000 -5.0000
v -2.0000 8.0000 -5.0000
v -2.0000 0.0000 -6.0000
v -3.0000 0.0000 -6.0000
v -3.0000 -1.0000 -6.0000
v -2.0000 -1.0000 -6.0000
v -2.0000 2.0000 -6.0000
v -2.0000 8.0000 -6.0000
v -2.0000 2.0000 -7.0000
v -2.0000 8.0000 -7.0000
v -3.0000 1.0000 -7.0000
v -3.0000 1.0000 -8.0000
v -2.0000 1.0000 -8.0000
v -2.0000 1.0000 -7.0000
v -2.0000 2.0000 -8.0000
v -2.0000 3.0000 -8.0000
v -2.0000 4.0000 -8.0000
v -2.0000 5.0000 -8.0000
v -2.0000 6.0000 -8.0000
v -2.0000 7.0000 -8.0000
v -2.0000 8.0000 -8.0000
v -1.0000 0.0000 7.0000
v -1.0000 0.0000 8.0000
v -1.0000 1.0000 8.0000
v -1.0000 2.0000 8.0000
v -1.0000 3.0000 8.0000
v -1.0000 4.0000 8.0000
v -1.0000 5.0000 8.0000
v -1.0000 6.0000 8.0000
v -1.0000 6.0000 7.0000
v -1.0000 0.0000 6.0000
v -1.0000 7.0000 7.0000
v -1.0000 8.0000 7.0000
v -1.0000 8.0000 6.0000
v -1.0000 0.0000 5.0000
v -1.0000 8.0000 5.0000
v -1.0000 0.0000 4.0000
v -1.0000 8.0000 4.0000
v -1.0000 0.0000 3.0000
v -1.0000 8.0000 3.0000
v -2.0000 -7.0000 3.0000
v -1.0000 -7.0000 3.0000
v -1.0000 -7.0000 2.0000
v -2.0000 -8.0000 3.0000
v -1.0000 -8.0000 2.0000
v -1.0000 -8.0000 3.0000
v -2.0000 -1.0000 3.0000
v -1.0000 -1.0000 3.0000
v -1.0000 -1.0000 2.0000
v -2.0000 -2.0000 3.0000
v -1.0000 -2.0000 2.0000
v -1.0000 -2.0000 3.0000
v -1.0000 0.0000 2.0000
v -1.0000 8.0000 2.0000
v -1.0000 -8.0000 1.0000
v -2.0000 -6.0000 2.0000
v -1.0000 -6.0000 2.0000
v -1.0000 -6.0000 1.0000
v -1.0000 -2.0000 1.0000
v -1.0000 8.0000 1.0000
v -1.0000 -8.0000 -0.0000
v -1.0000 -5.0000 1.0000
v -2.0000 -5.0000 1.0000
v -2.0000 -5.0000 -0.0000
v -1.0000 -4.0000 1.0000
v -2.0000 -4.0000 1.0000
v -2.0000 -4.0000 -0.0000
v -1.0000 -3.0000 1.0000
v -2.0000 -3.0000 1.0000
v -2.0000 -3.0000 -0.0000
v -1.0000 8.0000 -0.0000
v -1.0000 -8.0000 -1.0000
v -2.0000 -5.0000 -1.0000
v -1.0000 -5.0000 -1.0000
v -1.0000 -6.0000 -1.0000
v -2.0000 -4.0000 -1.0000
v -1.0000 -4.0000 -1.0000
v -1.0000 -3.0000 -1.0000
v -1.0000 8.0000 -1.0000
v -1.0000 -8.0000 -2.0000
v -1.0000 -6.0000 -2.0000
v -2.0000 -6.0000 -2.0000
v -1.0000 -7.0000 -2.0000
v -1.0000 -3.0000 -2.0000
v -2.0000 -1.0000 -2.0000
v -1.0000 -1.0000 -2.0000
v -1.0000 -2.0000 -2.0000
v -1.0000 0.0000 -2.0000
v -1.0000 8.0000 -2.0000
v -1.0000 -7.0000 -3.0000
v -2.0000 -7.0000 -3.0000
v -2.0000 -8.0000 -3.0000
v -1.0000 -8.0000 -3.0000
v -1.0000 -2.0000 -3.0000
v -1.0000 -3.0000 -3.0000
v -1.0000 0.0000 -3.0000
v -1.0000 8.0000 -3.0000
v -1.0000 -3.0000 -4.0000
v -2.0000 -1.0000 -3.0000
v -1.0000 -1.0000 -3.0000
v -1.0000 -1.0000 -4.0000
v -1.0000 0.0000 -4.0000
v -1.0000 8.0000 -4.0000
v -2.0000 -3.0000 -5.0000
v -1.0000 -3.0000 -5.0000
v -2.0000 -2.0000 -5.0000
v -1.0000 -2.0000 -5.0000
v -1.0000 -1.0000 -5.0000
v -1.0000 2.0000 -5.0000
v -1.0000 1.0000 -5.0000
v -1.0000 8.0000 -5.0000
v -1.0000 -1.0000 -6.0000
v -1.0000 1.0000 -6.0000
v -2.0000 1.0000 -6.0000
v -1.0000 2.0000 -6.0000
v -1.0000 8.0000 -6.0000
v -2.0000 -1.0000 -7.0000
v -1.0000 -1.0000 -7.0000
v -2.0000 0.0000 -7.0000
v -1.0000 0.0000 -7.0000
v -1.0000 1.0000 -7.0000
v -1.0000 8.0000 -7.0000
v -1.0000 1.0000 -8.0000
v -1.0000 2.0000 -8.0000
v -1.0000 3.0000 -8.0000
v -1.0000 4.0000 -8.0000
v -1.0000 5.0000 -8.0000
v -1.0000 6.0000 -8.0000
v -1.0000 7.0000 -8.0000
v -1.0000 8.0000 -8.0000
v 0.0000 0.0000 7.0000
v 0.0000 0.0000 8.0000
v 0.0000 1.0000 8.0000
v 0.0000 2.0000 8.0000
v 0.0000 3.0000 8.0000
v 0.0000 2.0000 7.0000
v 0.0000 3.0000 7.0000
v 0.0000 4.0000 8.0000
v 0.0000 4.0000 7.0000
v 0.0000 5.0000 8.0000
v 0.0000 6.0000 8.0000
v 0.0000 7.0000 8.0000
v -1.0000 7.0000 8.0000
v -1.0000 8.0000 8.0000
v 0.0000 8.0000 8.0000
v 0.0000 8.0000 7.0000
v 0.0000 0.0000 6.0000
v 0.0000 8.0000 6.0000
v 0.0000 0.0000 5.0000
v 0.0000 8.0000 5.0000
v 0.0000 0.0000 4.0000
v 0.0000 8.0000 4.0000
v 0.0000 0.0000 3.0000
v 0.0000 8.0000 3.0000
v 0.0000 -8.0000 2.0000
v 0.0000 -8.0000 3.0000
v 0.0000 -7.0000 3.0000
v -1.0000 -6.0000 3.0000
v 0.0000 -6.0000 3.0000
v 0.0000 -6.0000 2.0000
v 0.0000 -1.0000 3.0000
v 0.0000 -1.0000 2.0000
v 0.0000 -2.0000 2.0000
v 0.0000 -2.0000 3.0000
v 0.0000 0.0000 2.0000
v 0.0000 8.0000 2.0000
v 0.0000 -8.0000 1.0000
v 0.0000 -5.0000 2.0000
v -1.0000 -5.0000 2.0000
v 0.0000 -4.0000 2.0000
v -1.0000 -4.0000 2.0000
v 0.0000 -3.0000 2.0000
v -1.0000 -3.0000 2.0000
v 0.0000 8.0000 1.0000
v 0.0000 -8.0000 -0.0000
v 0.0000 8.0000 -0.0000
v 0.0000 -8.0000 -1.0000
v 0.0000 8.0000 -1.0000
v 0.0000 -8.0000 -2.0000
v -1.0000 -5.0000 -2.0000
v 0.0000 -5.0000 -2.0000
v 0.0000 -6.0000 -2.0000
v -1.0000 -4.0000 -2.0000
v 0.0000 -4.0000 -2.0000
v 0.0000 -1.0000 -2.0000
v 0.0000 -2.0000 -2.0000
v 0.0000 0.0000 -2.0000
v 0.0000 8.0000 -2.0000
v 0.0000 -8.0000 -3.0000
v 0.0000 -7.0000 -3.0000
v 0.0000 -6.0000 -3.0000
v -1.0000 -6.0000 -3.0000
v -1.0000 -4.0000 -3.0000
v 0.0000 -4.0000 -3.0000
v 0.0000 -3.0000 -3.0000
v 0.0000 -3.0000 -2.0000
v 0.0000 -2.0000 -3.0000
v 0.0000 0.0000 -3.0000
v 0.0000 8.0000 -3.0000
v 0.0000 -3.0000 -4.0000
v 0.0000 -1.0000 -3.0000
v 0.0000 -1.0000 -4.0000
v 0.0000 -2.0000 -4.0000
v 0.0000 0.0000 -4.0000
v 0.0000 8.0000 -4.0000
v 0.0000 -3.0000 -5.0000
v 0.0000 -2.0000 -5.0000
v 0.0000 -1.0000 -5.0000
v 0.0000 8.0000 -5.0000
v 0.0000 -1.0000 -6.0000
v 0.0000 0.0000 -5.0000
v 0.0000 0.0000 -6.0000
v 0.0000 1.0000 -6.0000
v 0.0000 1.0000 -5.0000
v 0.0000 8.0000 -6.0000
v 0.0000 -1.0000 -7.0000
v 0.0000 0.0000 -7.0000
v 0.0000 1.0000 -7.0000
v 0.0000 8.0000 -7.0000
v 0.0000 1.0000 -8.0000
v 0.0000 2.0000 -8.0000
v 0.0000 3.0000 -8.0000
v 0.0000 4.0000 -8.0000
v 0.0000 5.0000 -8.0000
v 0.0000 6.0000 -8.0000
v 0.0000 7.0000 -8.0000
v 0.0000 8.0000 -8.0000
v 1.0000 0.0000 7.0000
v 1.0000 0.0000 8.0000
v 1.0000 1.0000 8.0000
v 1.0000 2.0000 8.0000
v 1.0000 2.0000 7.0000
v 1.0000 4.0000 7.0000
v 1.0000 4.0000 8.0000
v 1.0000 5.0000 8.0000
v 1.0000 6.0000 8.0000
v 1.0000 7.0000 8.0000
v 1.0000 8.0000 8.0000
v 1.0000 8.0000 7.0000
v 1.0000 0.0000 6.0000
v 1.0000 3.0000 7.0000
v 1.0000 8.0000 6.0000
v 1.0000 0.0000 5.0000
v 1.0000 8.0000 5.0000
v 1.0000 0.0000 4.0000
v 1.0000 8.0000 4.0000
v 1.0000 0.0000 3.0000
v 1.0000 8.0000 3.0000
v 1.0000 -8.0000 2.0000
v 1.0000 -8.0000 3.0000
v 1.0000 -7.0000 3.0000
v 1.0000 -6.0000 3.0000
v 1.0000 -6.0000 2.0000
v 1.0000 -7.0000 2.0000
v 1.0000 0.0000 2.0000
v 1.0000 8.0000 2.0000
v 1.0000 -8.0000 1.0000
v 1.0000 -5.0000 2.0000
v 1.0000 -6.0000 1.0000
v 1.0000 -5.0000 1.0000
v 1.0000 -4.0000 2.0000
v 1.0000 -4.0000 1.0000
v 1.0000 -3.0000 2.0000
v 1.0000 -3.0000 1.0000
v 1.0000 -2.0000 2.0000
v 1.0000 -2.0000 1.0000
v 1.0000 -1.0000 2.0000
v 1.0000 -1.0000 1.0000
v 1.0000 8.0000 1.0000
v 1.0000 -8.0000 -0.0000
v 1.0000 8.0000 -0.0000
v 1.0000 -8.0000 -1.0000
v 1.0000 8.0000 -1.0000
v 1.0000 -8.0000 -2.0000
v 1.0000 -5.0000 -2.0000
v 1.0000 -6.0000 -2.0000
v 1.0000 -6.0000 -1.0000
v 1.0000 -5.0000 -1.0000
v 1.0000 -4.0000 -2.0000
v 1.0000 -4.0000 -1.0000
v 1.0000 -3.0000 -2.0000
v 1.0000 -3.0000 -1.0000
v 1.0000 -1.0000 -2.0000
v 1.0000 -2.0000 -2.0000
v 1.0000 0.0000 -2.0000
v 1.0000 8.0000 -2.0000
v 1.0000 -8.0000 -3.0000
v 1.0000 -7.0000 -3.0000
v 1.0000 -6.0000 -3.0000
v 1.0000 -7.0000 -2.0000
v 1.0000 -2.0000 -3.0000
v 1.0000 -3.0000 -3.0000
v 1.0000 0.0000 -3.0000
v 1.0000 8.0000 -3.0000
v 1.0000 -2.0000 -4.0000
v 1.0000 -3.0000 -4.0000
v 1.0000 0.0000 -4.0000
v 1.0000 8.0000 -4.0000
v 1.0000 -1.0000 -5.0000
v 1.0000 -1.0000 -4.0000
v 1.0000 0.0000 -5.0000
v 1.0000 1.0000 -5.0000
v 1.0000 8.0000 -5.0000
v 1.0000 0.0000 -6.0000
v 1.0000 -1.0000 -6.0000
v 1.0000 1.0000 -6.0000
v 1.0000 8.0000 -6.0000
v 1.0000 0.0000 -7.0000
v 1.0000 1.0000 -7.0000
v 1.0000 8.0000 -7.0000
v 1.0000 1.0000 -8.0000
v 1.0000 2.0000 -8.0000
v 1.0000 3.0000 -8.0000
v 1.0000 4.0000 -8.0000
v 1.0000 5.0000 -8.0000
v 1.0000 6.0000 -8.0000
v 1.0000 7.0000 -8.0000
v 1.0000 8.0000 -8.0000
v 2.0000 0.0000 7.0000
v 2.0000 0.0000 8.0000
v 2.0000 1.0000 8.0000
v 2.0000 2.0000 8.0000
v 2.0000 2.0000 7.0000
v 1.0000 3.0000 8.0000
v 2.0000 3.0000 7.0000
v 2.0000 3.0000 8.0000
v 2.0000 4.0000 8.0000
v 2.0000 4.0000 7.0000
v 2.0000 5.0000 8.0000
v 2.0000 5.0000 7.0000
v 2.0000 6.0000 8.0000
v 2.0000 7.0000 8.0000
v 2.0000 8.0000 8.0000
v 2.0000 8.0000 7.0000
v 2.0000 0.0000 6.0000
v 2.0000 8.0000 6.0000
v 2.0000 0.0000 5.0000
v 2.0000 8.0000 5.0000
v 2.0000 0.0000 4.0000
v 2.0000 8.0000 4.0000
v 2.0000 0.0000 3.0000
v 2.0000 8.0000 3.0000
v 2.0000 -7.0000 3.0000
v 2.0000 -7.0000 2.0000
v 2.0000 -8.0000 2.0000
v 2.0000 -8.0000 3.0000
v 2.0000 0.0000 2.0000
v 2.0000 8.0000 2.0000
v 2.0000 -8.0000 1.0000
v 2.0000 -6.0000 2.0000
v 2.0000 -6.0000 1.0000
v 2.0000 -7.0000 1.0000
v 2.0000 -1.0000 1.0000
v 2.0000 -1.0000 2.0000
v 2.0000 0.0000 1.0000
v 2.0000 8.0000 1.0000
v 2.0000 -8.0000 -0.0000
v 2.0000 -5.0000 1.0000
v 2.0000 -6.0000 -0.0000
v 2.0000 -5.0000 -0.0000
v 2.0000 -4.0000 1.0000
v 2.0000 -4.0000 -0.0000
v 2.0000 -3.0000 1.0000
v 2.0000 -3.0000 -0.0000
v 2.0000 -2.0000 1.0000
v 2.0000 -2.0000 -0.0000
v 2.0000 -1.0000 -0.0000
v 2.0000 8.0000 -0.0000
v 2.0000 -8.0000 -1.0000
v 2.0000 -5.0000 -1.0000
v 2.0000 -6.0000 -1.0000
v 2.0000 -4.0000 -1.0000
v 2.0000 -3.0000 -1.0000
v 2.0000 -2.0000 -1.0000
v 2.0000 8.0000 -1.0000
v 2.0000 -8.0000 -2.0000
v 2.0000 -6.0000 -2.0000
v 2.0000 -7.0000 -2.0000
v 2.0000 -7.0000 -1.0000
v 2.0000 -3.0000 -2.0000
v 2.0000 -2.0000 -2.0000
v 2.0000 -1.0000 -2.0000
v 2.0000 8.0000 -2.0000
v 2.0000 -7.0000 -3.0000
v 2.0000 -8.0000 -3.0000
v 1.0000 -1.0000 -3.0000
v 2.0000 -1.0000 -3.0000
v 2.0000 0.0000 -3.0000
v 2.0000 8.0000 -3.0000
v 2.0000 0.0000 -4.0000
v 2.0000 8.0000 -4.0000
v 2.0000 0.0000 -5.0000
v 2.0000 1.0000 -5.0000
v 2.0000 8.0000 -5.0000
v 2.0000 1.0000 -6.0000
v 2.0000 8.0000 -6.0000
v 2.0000 1.0000 -7.0000
v 2.0000 8.0000 -7.0000
v 2.0000 1.0000 -8.0000
v 2.0000 2.0000 -8.0000
v 2.0000 3.0000 -8.0000
v 2.0000 4.0000 -8.0000
v 2.0000 5.0000 -8.0000
v 2.0000 6.0000 -8.0000
v 2.0000 7.0000 -8.0000
v 2.0000 8.0000 -8.0000
v 3.0000 0.0000 7.0000
v 3.0000 0.0000 8.0000
v 3.0000 1.0000 8.0000
v 3.0000 2.0000 8.0000
v 3.0000 2.0000 7.0000
v 3.0000 5.0000 7.0000
v 3.0000 5.0000 8.0000
v 3.0000 6.0000 8.0000
v 3.0000 7.0000 8.0000
v 3.0000 8.0000 8.0000
v 3.0000 8.0000 7.0000
v 3.0000 0.0000 6.0000
v 3.0000 3.0000 7.0000
v 3.0000 4.0000 7.0000
v 3.0000 8.0000 6.0000
v 3.0000 0.0000 5.0000
v 3.0000 8.0000 5.0000
v 3.0000 0.0000 4.0000
v 3.0000 8.0000 4.0000
v 3.0000 0.0000 3.0000
v 3.0000 8.0000 3.0000
v 3.0000 0.0000 2.0000
v 3.0000 8.0000 2.0000
v 3.0000 -7.0000 2.0000
v 3.0000 -7.0000 1.0000
v 3.0000 -8.0000 1.0000
v 3.0000 -8.0000 2.0000
v 3.0000 0.0000 1.0000
v 3.0000 8.0000 1.0000
v 3.0000 -8.0000 -0.0000
v 3.0000 -7.0000 -0.0000
v 3.0000 -6.0000 1.0000
v 3.0000 -6.0000 -0.0000
v 3.0000 -1.0000 -0.0000
v 3.0000 -1.0000 1.0000
v 3.0000 8.0000 -0.0000
v 3.0000 -8.0000 -1.0000
v 3.0000 -7.0000 -1.0000
v 3.0000 -6.0000 -1.0000
v 3.0000 -2.0000 -1.0000
v 3.0000 -2.0000 -0.0000
v 3.0000 -1.0000 -1.0000
v 3.0000 8.0000 -1.0000
v 3.0000 -7.0000 -2.0000
v 3.0000 -8.0000 -2.0000
v 3.0000 -2.0000 -2.0000
v 3.0000 -1.0000 -2.0000
v 3.0000 8.0000 -2.0000
v 3.0000 -1.0000 -3.0000
v 3.0000 0.0000 -3.0000
v 3.0000 8.0000 -3.0000
v 3.0000 0.0000 -4.0000
v 3.0000 8.0000 -4.0000
v 3.0000 0.0000 -5.0000
v 3.0000 1.0000 -5.0000
v 3.0000 8.0000 -5.0000
v 3.0000 1.0000 -6.0000
v 3.0000 8.0000 -6.0000
v 3.0000 1.0000 -7.0000
v 3.0000 8.0000 -7.0000
v 3.0000 1.0000 -8.0000
v 3.0000 2.0000 -8.0000
v 3.0000 3.0000 -8.0000
v 3.0000 4.0000 -8.0000
v 3.0000 5.0000 -8.0000
v 3.0000 6.0000 -8.0000
v 3.0000 7.0000 -8.0000
v 3.0000 8.0000 -8.0000
v 4.0000 0.0000 7.0000
v 4.0000 0.0000 8.0000
v 4.0000 1.0000 8.0000
v 4.0000 2.0000 8.0000
v 3.0000 3.0000 8.0000
v 4.0000 3.0000 8.0000
v 4.0000 3.0000 7.0000
v 4.0000 5.0000 7.0000
v 4.0000 5.0000 8.0000
v 4.0000 6.0000 8.0000
v 4.0000 7.0000 8.0000
v 4.0000 8.0000 8.0000
v 4.0000 8.0000 7.0000
v 4.0000 0.0000 6.0000
v 4.0000 4.0000 7.0000
v 4.0000 8.0000 6.0000
v 4.0000 0.0000 5.0000
v 4.0000 8.0000 5.0000
v 4.0000 0.0000 4.0000
v 4.0000 8.0000 4.0000
v 4.0000 0.0000 3.0000
v 4.0000 8.0000 3.0000
v 4.0000 0.0000 2.0000
v 4.0000 8.0000 2.0000
v 4.0000 0.0000 1.0000
v 4.0000 8.0000 1.0000
v 4.0000 -1.0000 -0.0000
v 4.0000 -1.0000 1.0000
v 4.0000 0.0000 -0.0000
v 4.0000 8.0000 -0.0000
v 4.0000 -1.0000 -1.0000
v 4.0000 8.0000 -1.0000
v 4.0000 -1.0000 -2.0000
v 4.0000 8.0000 -2.0000
v 4.0000 -1.0000 -3.0000
v 4.0000 0.0000 -3.0000
v 4.0000 0.0000 -2.0000
v 4.0000 8.0000 -3.0000
v 4.0000 0.0000 -4.0000
v 4.0000 8.0000 -4.0000
v 4.0000 0.0000 -5.0000
v 4.0000 1.0000 -5.0000
v 4.0000 8.0000 -5.0000
v 4.0000 1.0000 -6.0000
v 4.0000 8.0000 -6.0000
v 4.0000 1.0000 -7.0000
v 4.0000 8.0000 -7.0000
v 4.0000 1.0000 -8.0000
v 4.0000 2.0000 -8.0000
v 4.0000 3.0000 -8.0000
v 4.0000 4.0000 -8.0000
v 4.0000 5.0000 -8.0000
v 4.0000 6.0000 -8.0000
v 4.0000 7.0000 -8.0000
v 4.0000 8.0000 -8.0000
v 5.0000 0.0000 7.0000
v 5.0000 0.0000 8.0000
v 5.0000 1.0000 8.0000
v 5.0000 1.0000 7.0000
v 5.0000 2.0000 8.0000
v 5.0000 2.0000 7.0000
v 5.0000 3.0000 8.0000
v 5.0000 3.0000 7.0000
v 4.0000 4.0000 8.0000
v 5.0000 4.0000 7.0000
v 5.0000 4.0000 8.0000
v 5.0000 5.0000 8.0000
v 5.0000 5.0000 7.0000
v 5.0000 6.0000 8.0000
v 5.0000 6.0000 7.0000
v 5.0000 7.0000 8.0000
v 5.0000 7.0000 7.0000
v 5.0000 8.0000 8.0000
v 5.0000 8.0000 7.0000
v 5.0000 0.0000 6.0000
v 5.0000 1.0000 6.0000
v 5.0000 2.0000 6.0000
v 5.0000 3.0000 6.0000
v 5.0000 4.0000 6.0000
v 5.0000 5.0000 6.0000
v 5.0000 6.0000 6.0000
v 5.0000 7.0000 6.0000
v 5.0000 8.0000 6.0000
v 5.0000 0.0000 5.0000
v 5.0000 1.0000 5.0000
v 5.0000 2.0000 5.0000
v 5.0000 3.0000 5.0000
v 5.0000 4.0000 5.0000
v 5.0000 5.0000 5.0000
v 5.0000 6.0000 5.0000
v 5.0000 7.0000 5.0000
v 5.0000 8.0000 5.0000
v 5.0000 0.0000 4.0000
v 5.0000 1.0000 4.0000
v 5.0000 8.0000 4.0000
v 5.0000 7.0000 4.0000
v 5.0000 0.0000 3.0000
v 5.0000 1.0000 3.0000
v 5.0000 8.0000 3.0000
v 5.0000 0.0000 2.0000
v 5.0000 1.0000 2.0000
v 5.0000 8.0000 2.0000
v 5.0000 0.0000 1.0000
v 5.0000 1.0000 1.0000
v 5.0000 8.0000 1.0000
v 5.0000 0.0000 -0.0000
v 5.0000 1.0000 -0.0000
v 5.0000 8.0000 -0.0000
v 5.0000 -1.0000 -1.0000
v 5.0000 -1.0000 -0.0000
v 5.0000 0.0000 -1.0000
v 5.0000 1.0000 -1.0000
v 5.0000 8.0000 -1.0000
v 5.0000 -1.0000 -2.0000
v 5.0000 0.0000 -2.0000
v 5.0000 1.0000 -2.0000
v 5.0000 8.0000 -2.0000
v 5.0000 0.0000 -3.0000
v 5.0000 1.0000 -3.0000
v 5.0000 8.0000 -3.0000
v 5.0000 0.0000 -4.0000
v 5.0000 1.0000 -4.0000
v 5.0000 2.0000 -4.0000
v 5.0000 2.0000 -3.0000
v 5.0000 3.0000 -4.0000
v 5.0000 3.0000 -3.0000
v 5.0000 4.0000 -4.0000
v 5.0000 4.0000 -3.0000
v 5.0000 5.0000 -4.0000
v 5.0000 5.0000 -3.0000
v 5.0000 6.0000 -4.0000
v 5.0000 6.0000 -3.0000
v 5.0000 7.0000 -4.0000
v 5.0000 7.0000 -3.0000
v 5.0000 8.0000 -4.0000
v 5.0000 0.0000 -5.0000
v 5.0000 1.0000 -5.0000
v 5.0000 6.0000 -5.0000
v 5.0000 7.0000 -5.0000
v 5.0000 8.0000 -5.0000
v 5.0000 1.0000 -6.0000
v 5.0000 6.0000 -6.0000
v 5.0000 7.0000 -6.0000
v 5.0000 8.0000 -6.0000
v 5.0000 1.0000 -7.0000
v 5.0000 6.0000 -7.0000
v 5.0000 7.0000 -7.0000
v 5.0000 8.0000 -7.0000
v 5.0000 1.0000 -8.0000
v 5.0000 2.0000 -8.0000
v 5.0000 3.0000 -8.0000
v 5.0000 4.0000 -8.0000
v 5.0000 5.0000 -8.0000
v 5.0000 6.0000 -8.0000
v 5.0000 7.0000 -8.0000
v 5.0000 8.0000 -8.0000
v 6.0000 1.0000 4.0000
v 6.0000 1.0000 5.0000
v 6.0000 2.0000 5.0000
v 6.0000 2.0000 4.0000
v 6.0000 3.0000 5.0000
v 6.0000 3.0000 4.0000
v 6.0000 4.0000 5.0000
v 6.0000 4.0000 4.0000
v 6.0000 5.0000 5.0000
v 6.0000 5.0000 4.0000
v 6.0000 6.0000 5.0000
v 6.0000 6.0000 4.0000
v 6.0000 7.0000 5.0000
v 6.0000 7.0000 4.0000
v 6.0000 1.0000 3.0000
v 6.0000 2.0000 3.0000
v 6.0000 8.0000 4.0000
v 6.0000 8.0000 3.0000
v 6.0000 1.0000 2.0000
v 6.0000 2.0000 2.0000
v 6.0000 8.0000 2.0000
v 6.0000 1.0000 1.0000
v 6.0000 2.0000 1.0000
v 6.0000 8.0000 1.0000
v 6.0000 1.0000 -0.0000
v 6.0000 2.0000 -0.0000
v 6.0000 8.0000 -0.0000
v 6.0000 1.0000 -1.0000
v 6.0000 8.0000 -1.0000
v 6.0000 1.0000 -2.0000
v 6.0000 8.0000 -2.0000
v 6.0000 1.0000 -3.0000
v 6.0000 2.0000 -3.0000
v 6.0000 2.0000 -2.0000
v 6.0000 3.0000 -3.0000
v 6.0000 4.0000 -3.0000
v 6.0000 5.0000 -3.0000
v 6.0000 6.0000 -3.0000
v 6.0000 7.0000 -3.0000
v 6.0000 8.0000 -3.0000
v 6.0000 1.0000 -5.0000
v 6.0000 1.0000 -4.0000
v 6.0000 2.0000 -4.0000
v 6.0000 3.0000 -4.0000
v 6.0000 4.0000 -4.0000
v 6.0000 5.0000 -4.0000
v 6.0000 6.0000 -4.0000
v 6.0000 6.0000 -5.0000
v 6.0000 1.0000 -6.0000
v 6.0000 6.0000 -6.0000
v 6.0000 1.0000 -7.0000
v 6.0000 6.0000 -7.0000
v 6.0000 1.0000 -8.0000
v 6.0000 2.0000 -8.0000
v 6.0000 3.0000 -8.0000
v 6.0000 4.0000 -8.0000
v 6.0000 5.0000 -8.0000
v 6.0000 6.0000 -8.0000
v 7.0000 2.0000 3.0000
v 7.0000 2.0000 4.0000
v 7.0000 3.0000 4.0000
v 7.0000 3.0000 3.0000
v 7.0000 4.0000 4.0000
v 7.0000 4.0000 3.0000
v 7.0000 5.0000 4.0000
v 7.0000 5.0000 3.0000
v 7.0000 6.0000 4.0000
v 7.0000 6.0000 3.0000
v 7.0000 7.0000 4.0000
v 7.0000 7.0000 3.0000
v 7.0000 8.0000 4.0000
v 7.0000 8.0000 3.0000
v 7.0000 2.0000 2.0000
v 7.0000 8.0000 2.0000
v 7.0000 2.0000 1.0000
v 7.0000 8.0000 1.0000
v 7.0000 2.0000 -0.0000
v 7.0000 8.0000 -0.0000
v 7.0000 1.0000 -1.0000
v 7.0000 1.0000 -0.0000
v 7.0000 2.0000 -1.0000
v 7.0000 8.0000 -1.0000
v 7.0000 1.0000 -2.0000
v 7.0000 2.0000 -2.0000
v 7.0000 8.0000 -2.0000
v 7.0000 2.0000 -3.0000
v 7.0000 3.0000 -3.0000
v 7.0000 4.0000 -3.0000
v 7.0000 5.0000 -3.0000
v 7.0000 6.0000 -3.0000
v 7.0000 7.0000 -3.0000
v 7.0000 8.0000 -3.0000
v 7.0000 1.0000 -5.0000
v 7.0000 1.0000 -4.0000
v 7.0000 2.0000 -4.0000
v 7.0000 2.0000 -5.0000
v 7.0000 3.0000 -4.0000
v 7.0000 4.0000 -4.0000
v 7.0000 5.0000 -4.0000
v 7.0000 6.0000 -4.0000
v 7.0000 6.0000 -5.0000
v 7.0000 1.0000 -6.0000
v 7.0000 2.0000 -6.0000
v 7.0000 6.0000 -6.0000
v 7.0000 1.0000 -7.0000
v 7.0000 2.0000 -7.0000
v 7.0000 3.0000 -7.0000
v 7.0000 3.0000 -6.0000
v 7.0000 4.0000 -7.0000
v 7.0000 4.0000 -6.0000
v 7.0000 5.0000 -7.0000
v 7.0000 5.0000 -6.0000
v 7.0000 6.0000 -7.0000
v 7.0000 1.0000 -8.0000
v 7.0000 2.0000 -8.0000
v 7.0000 3.0000 -8.0000
v 7.0000 4.0000 -8.0000
v 7.0000 5.0000 -8.0000
v 7.0000 6.0000 -8.0000
v 8.0000 2.0000 2.0000
v 8.0000 2.0000 3.0000
v 8.0000 3.0000 3.0000
v 8.0000 3.0000 2.0000
v 8.0000 4.0000 3.0000
v 8.0000 4.0000 2.0000
v 8.0000 5.0000 3.0000
v 8.0000 5.0000 2.0000
v 8.0000 6.0000 3.0000
v 8.0000 6.0000 2.0000
v 8.0000 7.0000 3.0000
v 8.0000 7.0000 2.0000
v 8.0000 8.0000 3.0000
v 8.0000 8.0000 2.0000
v 8.0000 2.0000 1.0000
v 8.0000 3.0000 1.0000
v 8.0000 4.0000 1.0000
v 8.0000 5.0000 1.0000
v 8.0000 6.0000 1.0000
v 8.0000 7.0000 1.0000
v 8.0000 8.0000 1.0000
v 8.0000 2.0000 -0.0000
v 8.0000 3.0000 -0.0000
v 8.0000 4.0000 -0.0000
v 8.0000 5.0000 -0.0000
v 8.0000 6.0000 -0.0000
v 8.0000 7.0000 -0.0000
v 8.0000 8.0000 -0.0000
v 8.0000 2.0000 -1.0000
v 8.0000 3.0000 -1.0000
v 8.0000 4.0000 -1.0000
v 8.0000 5.0000 -1.0000
v 8.0000 6.0000 -1.0000
v 8.0000 7.0000 -1.0000
v 8.0000 8.0000 -1.0000
v 8.0000 2.0000 -2.0000
v 8.0000 3.0000 -2.0000
v 8.0000 4.0000 -2.0000
v 8.0000 5.0000 -2.0000
v 8.0000 6.0000 -2.0000
v 8.0000 7.0000 -2.0000
v 8.0000 8.0000 -2.0000
v 8.0000 2.0000 -3.0000
v 8.0000 3.0000 -3.0000
v 8.0000 4.0000 -3.0000
v 8.0000 5.0000 -3.0000
v 8.0000 6.0000 -3.0000
v 8.0000 7.0000 -3.0000
v 8.0000 8.0000 -3.0000
v 8.0000 2.0000 -4.0000
v 8.0000 3.0000 -4.0000
v 8.0000 4.0000 -4.0000
v 8.0000 5.0000 -4.0000
v 8.0000 6.0000 -4.0000
v 8.0000 7.0000 -4.0000
v 7.0000 7.0000 -4.0000
v 8.0000 8.0000 -4.0000
v 7.0000 8.0000 -4.0000
v 8.0000 2.0000 -5.0000
v 8.0000 3.0000 -5.0000
v 8.0000 4.0000 -5.0000
v 8.0000 5.0000 -5.0000
v 8.0000 6.0000 -5.0000
v 8.0000 7.0000 -5.0000
v 7.0000 7.0000 -5.0000
v 8.0000 8.0000 -5.0000
v 7.0000 8.0000 -5.0000
v 8.0000 2.0000 -6.0000
v 8.0000 3.0000 -6.0000
v 8.0000 4.0000 -6.0000
v 8.0000 5.0000 -6.0000
v 8.0000 6.0000 -6.0000
v 7.0000 7.0000 -6.0000
v 8.0000 7.0000 -6.0000
v 8.0000 8.0000 -6.0000
v 7.0000 8.0000 -6.0000
vt 0.001953 0.500000
vt 0.005859 0.500000
vt 0.009766 0.500000
vt 0.013672 0.500000
vt 0.017578 0.500000
vt 0.021484 0.500000
vt 0.025391 0.500000
vn 0.0 -1.0 0.0
vn 0.0 1.0 0.0
vn 0.0 0.0 1.0
vn 0.0 0.0 -1.0
vn -1.0 0.0 0.0
vn 1.0 0.0 0.0
usemtl mat_Manzano_Mateo_Andres_Guzmán_Reyes_fase_3
s off
f 1/1/1 2/1/1 3/1/1 4/1/1
f 1/1/3 4/1/3 5/1/3 6/1/3
f 1/1/5 6/1/5 7/1/5 2/1/5
f 8/2/2 9/2/2 10/2/2 11/2/2
f 6/2/3 5/2/3 9/2/3 8/2/3
f 6/2/5 8/2/5 11/2/5 7/2/5
f 2/1/1 12/1/1 13/1/1 3/1/1
f 12/1/4 14/1/4 15/1/4 13/1/4
f 2/1/5 7/1/5 14/1/5 12/1/5
f 11/1/2 10/1/2 16/1/2 17/1/2
f 7/1/5 11/1/5 17/1/5 14/1/5
f 18/1/1 19/1/1 20/1/1 21/1/1
f 18/1/3 21/1/3 22/1/3 23/1/3
f 18/1/5 23/1/5 24/1/5 19/1/5
f 23/1/3 22/1/3 25/1/3 26/1/3
f 23/1/5 26/1/5 27/1/5 24/1/5
f 26/1/3 25/1/3 28/1/3 29/1/3
f 26/1/5 29/1/5 30/1/5 27/1/5
f 12/2/2 13/2/2 31/2/2 32/2/2
f 29/2/3 28/2/3 13/2/3 12/2/3
f 29/2/5 12/2/5 32/2/5 30/2/5
f 17/1/2 16/1/2 33/1/2 34/1/2
f 14/1/1 35/1/1 36/1/1 15/1/1
f 14/1/5 17/1/5 34/1/5 35/1/5
f 19/1/1 37/1/1 38/1/1 20/1/1
f 19/1/5 24/1/5 39/1/5 37/1/5
f 24/2/5 27/2/5 40/2/5 39/2/5
f 27/1/5 30/1/5 41/1/5 40/1/5
f 30/1/5 32/1/5 42/1/5 41/1/5
f 32/2/3 31/2/3 36/2/3 35/2/3
f 32/2/5 35/2/5 43/2/5 42/2/5
f 35/1/5 34/1/5 44/1/5 43/1/5
f 45/2/2 46/2/2 47/2/2 48/2/2
f 34/2/3 33/2/3 46/2/3 45/2/3
f 34/2/5 45/2/5 48/2/5 44/2/5
f 37/1/1 49/1/1 50/1/1 38/1/1
f 37/1/5 39/1/5 51/1/5 49/1/5
f 39/1/5 40/1/5 52/1/5 51/1/5
f 40/1/5 41/1/5 53/1/5 52/1/5
f 41/2/5 42/2/5 54/2/5 53/2/5
f 42/1/5 43/1/5 55/1/5 54/1/5
f 43/1/5 44/1/5 56/1/5 55/1/5
f 48/1/2 47/1/2 57/1/2 58/1/2
f 44/1/5 48/1/5 58/1/5 56/1/5
f 49/1/1 59/1/1 60/1/1 50/1/1
f 49/1/5 51/1/5 61/1/5 59/1/5
f 51/1/5 52/1/5 62/1/5 61/1/5
f 52/1/5 53/1/5 63/1/5 62/1/5
f 53/1/5 54/1/5 64/1/5 63/1/5
f 54/1/5 55/1/5 65/1/5 64/1/5
f 55/1/5 56/1/5 66/1/5 65/1/5
f 58/1/2 57/1/2 67/1/2 68/1/2
f 56/1/5 58/1/5 68/1/5 66/1/5
f 59/2/1 69/2/1 70/2/1 60/2/1
f 59/2/5 61/2/5 71/2/5 69/2/5
f 61/1/5 62/1/5 72/1/5 71/1/5
f 62/1/5 63/1/5 73/1/5 72/1/5
f 63/1/5 64/1/5 74/1/5 73/1/5
f 64/3/5 65/3/5 75/3/5 74/3/5
f 65/3/5 66/3/5 76/3/5 75/3/5
f 68/1/2 67/1/2 77/1/2 78/1/2
f 66/1/5 68/1/5 78/1/5 76/1/5
f 69/1/1 79/1/1 80/1/1 70/1/1
f 69/1/5 71/1/5 81/1/5 79/1/5
f 71/1/5 72/1/5 82/1/5 81/1/5
f 72/2/5 73/2/5 83/2/5 82/2/5
f 73/2/5 74/2/5 84/2/5 83/2/5
f 74/4/5 75/4/5 85/4/5 84/4/5
f 75/3/5 76/3/5 86/3/5 85/3/5
f 78/2/2 77/2/2 87/2/2 88/2/2
f 76/2/5 78/2/5 88/2/5 86/2/5
f 79/1/1 89/1/1 90/1/1 80/1/1
f 79/1/5 81/1/5 91/1/5 89/1/5
f 81/1/5 82/1/5 92/1/5 91/1/5
f 82/1/5 83/1/5 93/1/5 92/1/5
f 83/1/5 84/1/5 94/1/5 93/1/5
f 84/4/5 85/4/5 95/4/5 94/4/5
f 85/3/5 86/3/5 96/3/5 95/3/5
f 88/1/2 87/1/2 97/1/2 98/1/2
f 86/1/5 88/1/5 98/1/5 96/1/5
f 89/1/1 99/1/1 100/1/1 90/1/1
f 89/1/5 91/1/5 101/1/5 99/1/5
f 91/2/5 92/2/5 102/2/5 101/2/5
f 92/1/5 93/1/5 103/1/5 102/1/5
f 93/1/5 94/1/5 104/1/5 103/1/5
f 94/3/5 95/3/5 105/3/5 104/3/5
f 95/2/5 96/2/5 106/2/5 105/2/5
f 98/1/2 97/1/2 107/1/2 108/1/2
f 96/1/5 98/1/5 108/1/5 106/1/5
f 99/1/1 109/1/1 110/1/1 100/1/1
f 99/1/5 101/1/5 111/1/5 109/1/5
f 101/2/5 102/2/5 112/2/5 111/2/5
f 102/2/5 103/2/5 113/2/5 112/2/5
f 103/2/5 104/2/5 114/2/5 113/2/5
f 104/1/5 105/1/5 115/1/5 114/1/5
f 105/3/5 106/3/5 116/3/5 115/3/5
f 108/2/2 107/2/2 117/2/2 118/2/2
f 106/2/5 108/2/5 118/2/5 116/2/5
f 109/2/1 119/2/1 120/2/1 110/2/1
f 109/2/5 111/2/5 121/2/5 119/2/5
f 111/1/5 112/1/5 122/1/5 121/1/5
f 112/1/5 113/1/5 123/1/5 122/1/5
f 113/1/5 114/1/5 124/1/5 123/1/5
f 114/1/5 115/1/5 125/1/5 124/1/5
f 115/3/5 116/3/5 126/3/5 125/3/5
f 118/1/2 117/1/2 127/1/2 128/1/2
f 116/1/5 118/1/5 128/1/5 126/1/5
f 119/1/1 129/1/1 130/1/1 120/1/1
f 129/1/4 131/1/4 132/1/4 130/1/4
f 119/1/5 121/1/5 131/1/5 129/1/5
f 131/1/4 133/1/4 134/1/4 132/1/4
f 121/1/5 122/1/5 133/1/5 131/1/5
f 133/1/4 135/1/4 136/1/4 134/1/4
f 122/1/5 123/1/5 135/1/5 133/1/5
f 135/1/4 137/1/4 138/1/4 136/1/4
f 123/1/5 124/1/5 137/1/5 135/1/5
f 137/1/4 139/1/4 140/1/4 138/1/4
f 124/1/5 125/1/5 139/1/5 137/1/5
f 125/3/5 126/3/5 141/3/5 139/3/5
f 128/1/2 127/1/2 142/1/2 143/1/2
f 141/1/4 143/1/4 142/1/4 144/1/4
f 126/1/5 128/1/5 143/1/5 141/1/5
f 141/3/2 144/3/2 145/3/2 146/3/2
f 139/3/1 147/3/1 148/3/1 140/3/1
f 139/3/5 141/3/5 146/3/5 147/3/5
f 146/3/2 145/3/2 149/3/2 150/3/2
f 147/3/1 151/3/1 152/3/1 148/3/1
f 151/3/4 150/3/4 149/3/4 152/3/4
f 147/3/5 146/3/5 150/3/5 151/3/5
f 153/1/1 154/1/1 155/1/1 156/1/1
f 153/1/3 156/1/3 157/1/3 158/1/3
f 153/1/5 158/1/5 159/1/5 154/1/5
f 158/1/3 157/1/3 160/1/3 4/1/3
f 158/1/5 4/1/5 3/1/5 159/1/5
f 4/1/3 160/1/3 161/1/3 5/1/3
f 160/1/6 162/1/6 163/1/6 161/1/6
f 9/1/2 164/1/2 165/1/2 10/1/2
f 5/1/3 161/1/3 164/1/3 9/1/3
f 166/1/1 21/1/1 167/1/1 168/1/1
f 166/1/3 168/1/3 169/1/3 170/1/3
f 166/1/5 170/1/5 22/1/5 21/1/5
f 170/1/3 169/1/3 155/1/3 154/1/3
f 170/1/5 154/1/5 25/1/5 22/1/5
f 154/1/5 159/1/5 28/1/5 25/1/5
f 159/1/5 3/1/5 13/1/5 28/1/5
f 10/1/2 165/1/2 171/1/2 16/1/2
f 21/1/1 20/1/1 172/1/1 167/1/1
f 13/1/5 15/1/5 36/1/5 31/1/5
f 16/1/2 171/1/2 173/1/2 33/1/2
f 20/1/1 38/1/1 174/1/1 172/1/1
f 46/1/2 175/1/2 176/1/2 47/1/2
f 33/1/3 173/1/3 175/1/3 46/1/3
f 38/1/1 50/1/1 177/1/1 174/1/1
f 47/1/2 176/1/2 178/1/2 57/1/2
f 50/1/1 60/1/1 179/1/1 177/1/1
f 57/1/2 178/1/2 180/1/2 67/1/2
f 60/1/1 70/1/1 181/1/1 179/1/1
f 67/1/2 180/1/2 182/1/2 77/1/2
f 70/1/1 80/1/1 183/1/1 181/1/1
f 77/1/2 182/1/2 184/1/2 87/1/2
f 80/1/1 90/1/1 185/1/1 183/1/1
f 87/1/2 184/1/2 186/1/2 97/1/2
f 90/1/1 100/1/1 187/1/1 185/1/1
f 97/1/2 186/1/2 188/1/2 107/1/2
f 100/1/1 110/1/1 189/1/1 187/1/1
f 107/1/2 188/1/2 190/1/2 117/1/2
f 110/1/1 120/1/1 191/1/1 189/1/1
f 117/1/2 190/1/2 192/1/2 127/1/2
f 120/1/1 130/1/1 193/1/1 191/1/1
f 130/1/4 132/1/4 194/1/4 193/1/4
f 132/1/4 134/1/4 195/1/4 194/1/4
f 127/1/2 192/1/2 196/1/2 142/1/2
f 144/1/4 142/1/4 196/1/4 197/1/4
f 134/1/1 198/1/1 199/1/1 195/1/1
f 134/1/5 136/1/5 200/1/5 198/1/5
f 136/2/5 138/2/5 201/2/5 200/2/5
f 138/1/5 140/1/5 148/1/5 201/1/5
f 144/1/2 197/1/2 202/1/2 145/1/2
f 198/1/1 203/1/1 204/1/1 199/1/1
f 198/1/5 200/1/5 205/1/5 203/1/5
f 200/1/5 201/1/5 206/1/5 205/1/5
f 201/1/5 148/1/5 152/1/5 206/1/5
f 145/1/2 202/1/2 207/1/2 149/1/2
f 203/1/1 208/1/1 209/1/1 204/1/1
f 208/1/4 210/1/4 211/1/4 209/1/4
f 203/1/5 205/1/5 210/1/5 208/1/5
f 210/2/4 212/2/4 213/2/4 211/2/4
f 205/2/5 206/2/5 212/2/5 210/2/5
f 212/1/4 214/1/4 215/1/4 213/1/4
f 206/1/5 152/1/5 214/1/5 212/1/5
f 149/2/2 207/2/2 216/2/2 217/2/2
f 214/2/4 217/2/4 216/2/4 215/2/4
f 152/2/5 149/2/5 217/2/5 214/2/5
f 218/1/1 168/1/1 219/1/1 220/1/1
f 218/1/3 220/1/3 221/1/3 222/1/3
f 220/1/6 219/1/6 223/1/6 221/1/6
f 218/1/5 222/1/5 169/1/5 168/1/5
f 222/1/3 221/1/3 224/1/3 156/1/3
f 222/1/5 156/1/5 155/1/5 169/1/5
f 156/1/3 224/1/3 225/1/3 157/1/3
f 160/1/2 226/1/2 227/1/2 162/1/2
f 157/1/3 225/1/3 226/1/3 160/1/3
f 225/1/6 228/1/6 227/1/6 226/1/6
f 164/1/2 229/1/2 230/1/2 165/1/2
f 161/1/1 163/1/1 231/1/1 232/1/1
f 161/1/3 232/1/3 229/1/3 164/1/3
f 168/1/1 167/1/1 233/1/1 219/1/1
f 162/1/3 227/1/3 231/1/3 163/1/3
f 165/1/2 230/1/2 234/1/2 171/1/2
f 167/1/1 172/1/1 235/1/1 233/1/1
f 171/1/2 234/1/2 236/1/2 173/1/2
f 172/1/1 174/1/1 237/1/1 235/1/1
f 175/1/2 238/1/2 239/1/2 176/1/2
f 173/1/3 236/1/3 238/1/3 175/1/3
f 174/1/1 177/1/1 240/1/1 237/1/1
f 176/1/2 239/1/2 241/1/2 178/1/2
f 177/5/1 179/5/1 242/5/1 240/5/1
f 178/1/2 241/1/2 243/1/2 180/1/2
f 179/5/1 181/5/1 244/5/1 242/5/1
f 180/1/2 243/1/2 245/1/2 182/1/2
f 181/1/1 183/1/1 246/1/1 244/1/1
f 182/1/2 245/1/2 247/1/2 184/1/2
f 183/1/1 185/1/1 248/1/1 246/1/1
f 184/4/2 247/4/2 249/4/2 186/4/2
f 185/1/1 187/1/1 250/1/1 248/1/1
f 186/4/2 249/4/2 251/4/2 188/4/2
f 187/1/1 189/1/1 252/1/1 250/1/1
f 188/1/2 251/1/2 253/1/2 190/1/2
f 189/1/1 191/1/1 254/1/1 252/1/1
f 190/1/2 253/1/2 255/1/2 192/1/2
f 191/1/1 193/1/1 256/1/1 254/1/1
f 193/1/4 194/1/4 257/1/4 256/1/4
f 194/1/4 195/1/4 258/1/4 257/1/4
f 192/1/2 255/1/2 259/1/2 196/1/2
f 197/1/4 196/1/4 259/1/4 260/1/4
f 195/1/1 199/1/1 261/1/1 258/1/1
f 197/1/2 260/1/2 262/1/2 202/1/2
f 199/1/1 204/1/1 263/1/1 261/1/1
f 202/1/2 262/1/2 264/1/2 207/1/2
f 204/1/1 209/1/1 265/1/1 263/1/1
f 209/1/4 211/1/4 266/1/4 265/1/4
f 211/1/4 213/1/4 267/1/4 266/1/4
f 213/1/4 215/1/4 268/1/4 267/1/4
f 207/3/2 264/3/2 269/3/2 216/3/2
f 215/3/4 216/3/4 269/3/4 268/3/4
f 221/1/1 223/1/1 270/1/1 271/1/1
f 221/1/3 271/1/3 272/1/3 224/1/3
f 271/1/6 270/1/6 273/1/6 272/1/6
f 225/1/2 274/1/2 275/1/2 228/1/2
f 224/1/3 272/1/3 274/1/3 225/1/3
f 226/1/1 227/1/1 276/1/1 277/1/1
f 226/1/3 277/1/3 278/1/3 232/1/3
f 226/1/5 232/1/5 231/1/5 227/1/5
f 229/7/2 279/7/2 280/7/2 230/7/2
f 232/7/3 278/7/3 279/7/3 229/7/3
f 219/1/1 233/1/1 281/1/1 282/1/1
f 219/1/3 282/1/3 270/1/3 223/1/3
f 228/1/3 275/1/3 276/1/3 227/1/3
f 230/1/2 280/1/2 283/1/2 234/1/2
f 233/1/1 235/1/1 284/1/1 281/1/1
f 234/1/2 283/1/2 285/1/2 236/1/2
f 235/1/1 237/1/1 286/1/1 284/1/1
f 236/1/3 285/1/3 287/1/3 238/1/3
f 288/2/2 289/2/2 290/2/2 291/2/2
f 238/2/3 287/2/3 289/2/3 288/2/3
f 238/2/5 288/2/5 291/2/5 239/2/5
f 237/1/1 240/1/1 292/1/1 286/1/1
f 291/1/2 290/1/2 293/1/2 294/1/2
f 239/1/5 291/1/5 294/1/5 241/1/5
f 240/1/1 242/1/1 295/1/1 292/1/1
f 294/1/2 293/1/2 296/1/2 297/1/2
f 241/1/5 294/1/5 297/1/5 243/1/5
f 242/1/1 244/1/1 298/1/1 295/1/1
f 297/1/2 296/1/2 299/1/2 300/1/2
f 243/1/5 297/1/5 300/1/5 245/1/5
f 244/5/1 246/5/1 301/5/1 298/5/1
f 300/1/2 299/1/2 302/1/2 303/1/2
f 245/1/5 300/1/5 303/1/5 247/1/5
f 246/5/1 248/5/1 304/5/1 301/5/1
f 303/1/2 302/1/2 305/1/2 306/1/2
f 247/1/5 303/1/5 306/1/5 249/1/5
f 248/1/1 250/1/1 307/1/1 304/1/1
f 306/1/2 305/1/2 308/1/2 309/1/2
f 249/1/5 306/1/5 309/1/5 251/1/5
f 250/1/1 252/1/1 310/1/1 307/1/1
f 309/3/2 308/3/2 311/3/2 312/3/2
f 251/3/5 309/3/5 312/3/5 253/3/5
f 252/1/1 254/1/1 313/1/1 310/1/1
f 312/3/2 311/3/2 314/3/2 315/3/2
f 253/3/5 312/3/5 315/3/5 255/3/5
f 254/1/1 256/1/1 316/1/1 313/1/1
f 256/1/4 257/1/4 317/1/4 316/1/4
f 257/1/4 258/1/4 318/1/4 317/1/4
f 260/4/4 259/4/4 319/4/4 320/4/4
f 315/3/2 314/3/2 321/3/2 322/3/2
f 255/3/5 315/3/5 322/3/5 259/3/5
f 258/1/1 261/1/1 323/1/1 318/1/1
f 260/1/2 320/1/2 324/1/2 262/1/2
f 322/3/2 321/3/2 325/3/2 326/3/2
f 259/3/1 327/3/1 328/3/1 319/3/1
f 327/3/4 326/3/4 325/3/4 328/3/4
f 259/3/5 322/3/5 326/3/5 327/3/5
f 261/1/1 263/1/1 329/1/1 323/1/1
f 262/1/2 324/1/2 330/1/2 264/1/2
f 263/1/1 265/1/1 331/1/1 329/1/1
f 265/1/4 266/1/4 332/1/4 331/1/4
f 266/1/4 267/1/4 333/1/4 332/1/4
f 267/1/4 268/1/4 334/1/4 333/1/4
f 264/3/2 330/3/2 335/3/2 269/3/2
f 268/3/4 269/3/4 335/3/4 334/3/4
f 271/1/2 336/1/2 337/1/2 270/1/2
f 338/1/1 282/1/1 339/1/1 340/1/1
f 338/1/3 340/1/3 336/1/3 271/1/3
f 338/1/5 271/1/5 270/1/5 282/1/5
f 272/1/1 273/1/1 341/1/1 342/1/1
f 272/1/3 342/1/3 343/1/3 274/1/3
f 274/1/3 343/1/3 344/1/3 277/1/3
f 274/1/5 277/1/5 276/1/5 275/1/5
f 277/2/3 344/2/3 345/2/3 278/2/3
f 279/7/2 346/7/2 347/7/2 280/7/2
f 278/7/3 345/7/3 346/7/3 279/7/3
f 348/1/2 349/1/2 350/1/2 351/1/2
f 352/1/1 353/1/1 354/1/1 355/1/1
f 352/1/3 355/1/3 349/1/3 348/1/3
f 352/1/5 348/1/5 351/1/5 353/1/5
f 282/1/1 281/1/1 356/1/1 339/1/1
f 270/1/3 337/1/3 341/1/3 273/1/3
f 280/1/3 347/1/3 354/1/3 353/1/3
f 280/1/5 353/1/5 357/1/5 283/1/5
f 351/1/2 350/1/2 358/1/2 359/1/2
f 353/1/5 351/1/5 359/1/5 357/1/5
f 281/1/1 284/1/1 360/1/1 356/1/1
f 283/1/5 357/1/5 287/1/5 285/1/5
f 359/3/2 358/3/2 361/3/2 289/3/2
f 357/3/5 359/3/5 289/3/5 287/3/5
f 284/1/1 286/1/1 362/1/1 360/1/1
f 289/1/2 361/1/2 363/1/2 290/1/2
f 286/1/1 292/1/1 364/1/1 362/1/1
f 290/1/2 363/1/2 365/1/2 293/1/2
f 292/1/1 295/1/1 366/1/1 364/1/1
f 293/1/2 365/1/2 367/1/2 296/1/2
f 295/3/1 298/3/1 368/3/1 366/3/1
f 296/1/2 367/1/2 369/1/2 299/1/2
f 298/6/1 301/6/1 370/6/1 368/6/1
f 299/1/2 369/1/2 371/1/2 302/1/2
f 301/6/1 304/6/1 372/6/1 370/6/1
f 302/1/2 371/1/2 373/1/2 305/1/2
f 304/5/1 307/5/1 374/5/1 372/5/1
f 305/1/2 373/1/2 375/1/2 308/1/2
f 307/1/1 310/1/1 376/1/1 374/1/1
f 308/1/2 375/1/2 377/1/2 311/1/2
f 310/1/1 313/1/1 378/1/1 376/1/1
f 311/1/2 377/1/2 379/1/2 314/1/2
f 313/1/1 316/1/1 380/1/1 378/1/1
f 316/1/4 317/1/4 381/1/4 380/1/4
f 317/1/4 318/1/4 382/1/4 381/1/4
f 320/1/4 319/1/4 383/1/4 384/1/4
f 314/3/2 379/3/2 385/3/2 321/3/2
f 318/1/1 323/1/1 386/1/1 382/1/1
f 320/1/2 384/1/2 387/1/2 324/1/2
f 321/3/2 385/3/2 388/3/2 325/3/2
f 319/3/1 328/3/1 389/3/1 383/3/1
f 323/1/1 329/1/1 390/1/1 386/1/1
f 324/1/2 387/1/2 391/1/2 330/1/2
f 325/3/2 388/3/2 392/3/2 393/3/2
f 328/3/1 394/3/1 395/3/1 389/3/1
f 328/3/5 325/3/5 393/3/5 394/3/5
f 329/1/1 331/1/1 396/1/1 390/1/1
f 331/1/4 332/1/4 397/1/4 396/1/4
f 332/1/4 333/1/4 398/1/4 397/1/4
f 333/1/4 334/1/4 399/1/4 398/1/4
f 334/3/4 335/3/4 400/3/4 399/3/4
f 330/3/3 391/3/3 395/3/3 394/3/3
f 335/3/4 401/3/4 402/3/4 400/3/4
f 330/3/5 394/3/5 401/3/5 335/3/5
f 393/2/2 392/2/2 403/2/2 404/2/2
f 401/2/4 404/2/4 403/2/4 402/2/4
f 394/2/5 393/2/5 404/2/5 401/2/5
f 340/1/1 339/1/1 405/1/1 406/1/1
f 340/1/3 406/1/3 407/1/3 336/1/3
f 336/1/3 407/1/3 408/1/3 342/1/3
f 336/1/5 342/1/5 341/1/5 337/1/5
f 342/1/3 408/1/3 409/1/3 343/1/3
f 343/7/3 409/7/3 410/7/3 344/7/3
f 344/1/3 410/1/3 411/1/3 345/1/3
f 345/1/3 411/1/3 412/1/3 346/1/3
f 346/1/3 412/1/3 413/1/3 355/1/3
f 412/1/6 414/1/6 415/1/6 413/1/6
f 346/1/5 355/1/5 354/1/5 347/1/5
f 349/1/2 416/1/2 417/1/2 350/1/2
f 355/1/3 413/1/3 416/1/3 349/1/3
f 413/1/6 415/1/6 417/1/6 416/1/6
f 339/1/1 356/1/1 418/1/1 405/1/1
f 350/1/2 417/1/2 419/1/2 358/1/2
f 356/1/1 360/1/1 420/1/1 418/1/1
f 358/3/2 419/3/2 421/3/2 361/3/2
f 360/1/1 362/1/1 422/1/1 420/1/1
f 361/1/2 421/1/2 423/1/2 363/1/2
f 362/1/1 364/1/1 424/1/1 422/1/1
f 363/1/2 423/1/2 425/1/2 365/1/2
f 364/1/1 366/1/1 426/1/1 424/1/1
f 365/1/2 425/1/2 427/1/2 367/1/2
f 428/6/2 429/6/2 430/6/2 431/6/2
f 432/6/1 433/6/1 434/6/1 435/6/1
f 432/6/3 435/6/3 429/6/3 428/6/3
f 432/6/5 428/6/5 431/6/5 433/6/5
f 436/5/2 437/5/2 438/5/2 439/5/2
f 440/5/1 441/5/1 442/5/1 443/5/1
f 440/5/3 443/5/3 437/5/3 436/5/3
f 440/5/5 436/5/5 439/5/5 441/5/5
f 366/3/1 368/3/1 444/3/1 426/3/1
f 367/1/2 427/1/2 445/1/2 369/1/2
f 433/6/1 446/6/1 447/6/1 434/6/1
f 433/6/5 431/6/5 448/6/5 446/6/5
f 449/4/2 450/4/2 451/4/2 452/4/2
f 431/4/3 430/4/3 450/4/3 449/4/3
f 431/4/5 449/4/5 452/4/5 448/4/5
f 441/5/1 453/5/1 454/5/1 442/5/1
f 453/5/4 455/5/4 456/5/4 454/5/4
f 441/5/5 439/5/5 455/5/5 453/5/5
f 439/4/3 438/4/3 444/4/3 368/4/3
f 439/4/5 368/4/5 370/4/5 455/4/5
f 369/1/2 445/1/2 457/1/2 371/1/2
f 446/6/1 458/6/1 459/6/1 447/6/1
f 446/6/5 448/6/5 460/6/5 458/6/5
f 452/6/2 451/6/2 461/6/2 462/6/2
f 460/6/4 462/6/4 461/6/4 463/6/4
f 448/6/5 452/6/5 462/6/5 460/6/5
f 455/6/1 464/6/1 465/6/1 456/6/1
f 464/6/4 372/6/4 466/6/4 465/6/4
f 455/6/5 370/6/5 372/6/5 464/6/5
f 371/1/2 457/1/2 467/1/2 373/1/2
f 460/6/2 463/6/2 468/6/2 469/6/2
f 458/6/1 470/6/1 471/6/1 459/6/1
f 470/6/4 469/6/4 468/6/4 471/6/4
f 458/6/5 460/6/5 469/6/5 470/6/5
f 472/5/2 473/5/2 474/5/2 475/5/2
f 476/5/1 477/5/1 478/5/1 479/5/1
f 476/5/3 479/5/3 473/5/3 472/5/3
f 476/5/5 472/5/5 475/5/5 477/5/5
f 372/5/1 374/5/1 480/5/1 466/5/1
f 373/1/2 467/1/2 481/1/2 375/1/2
f 475/5/2 474/5/2 482/5/2 483/5/2
f 477/5/1 484/5/1 485/5/1 478/5/1
f 477/5/5 475/5/5 483/5/5 484/5/5
f 374/1/1 376/1/1 486/1/1 480/1/1
f 375/1/2 481/1/2 487/1/2 377/1/2
f 483/5/2 482/5/2 488/5/2 489/5/2
f 484/5/1 490/5/1 491/5/1 485/5/1
f 490/5/4 489/5/4 488/5/4 491/5/4
f 484/5/5 483/5/5 489/5/5 490/5/5
f 376/1/1 378/1/1 492/1/1 486/1/1
f 377/1/2 487/1/2 493/1/2 379/1/2
f 494/5/1 495/5/1 496/5/1 497/5/1
f 494/5/3 497/5/3 492/5/3 378/5/3
f 494/5/5 378/5/5 380/5/5 495/5/5
f 380/1/4 381/1/4 498/1/4 499/1/4
f 381/1/4 382/1/4 500/1/4 498/1/4
f 379/3/2 493/3/2 501/3/2 385/3/2
f 380/5/2 499/5/2 502/5/2 503/5/2
f 495/5/1 504/5/1 505/5/1 496/5/1
f 504/5/4 503/5/4 502/5/4 505/5/4
f 495/5/5 380/5/5 503/5/5 504/5/5
f 382/1/1 386/1/1 506/1/1 500/1/1
f 384/1/5 383/1/5 389/1/5 387/1/5
f 385/1/2 501/1/2 507/1/2 388/1/2
f 386/1/1 390/1/1 508/1/1 506/1/1
f 387/1/5 389/1/5 395/1/5 391/1/5
f 388/1/2 507/1/2 509/1/2 392/1/2
f 510/5/1 511/5/1 512/5/1 513/5/1
f 510/5/3 513/5/3 508/5/3 390/5/3
f 511/5/4 396/5/4 514/5/4 512/5/4
f 510/5/5 390/5/5 396/5/5 511/5/5
f 396/3/4 397/3/4 515/3/4 514/3/4
f 397/1/4 398/1/4 516/1/4 515/1/4
f 398/1/4 399/1/4 517/1/4 516/1/4
f 399/3/4 400/3/4 518/3/4 517/3/4
f 400/1/4 402/1/4 519/1/4 518/1/4
f 392/1/2 509/1/2 520/1/2 403/1/2
f 402/1/4 403/1/4 520/1/4 519/1/4
f 406/7/1 405/7/1 521/7/1 522/7/1
f 406/7/3 522/7/3 523/7/3 407/7/3
f 407/1/3 523/1/3 524/1/3 408/1/3
f 408/1/3 524/1/3 525/1/3 409/1/3
f 409/1/3 525/1/3 526/1/3 410/1/3
f 410/1/3 526/1/3 527/1/3 411/1/3
f 412/1/2 528/1/2 529/1/2 414/1/2
f 411/1/3 527/1/3 528/1/3 412/1/3
f 405/1/1 418/1/1 530/1/1 521/1/1
f 414/1/3 529/1/3 531/1/3 415/1/3
f 417/1/2 532/1/2 533/1/2 419/1/2
f 415/1/3 531/1/3 532/1/3 417/1/3
f 418/1/1 420/1/1 534/1/1 530/1/1
f 419/3/2 533/3/2 535/3/2 421/3/2
f 420/1/1 422/1/1 536/1/1 534/1/1
f 421/1/2 535/1/2 537/1/2 423/1/2
f 422/1/1 424/1/1 538/1/1 536/1/1
f 423/1/2 537/1/2 539/1/2 425/1/2
f 540/4/2 541/4/2 542/4/2 429/4/2
f 543/4/1 435/4/1 544/4/1 545/4/1
f 543/4/3 545/4/3 541/4/3 540/4/3
f 543/4/5 540/4/5 429/4/5 435/4/5
f 546/5/2 547/5/2 548/5/2 437/5/2
f 549/5/1 443/5/1 550/5/1 551/5/1
f 549/5/3 551/5/3 547/5/3 546/5/3
f 549/5/5 546/5/5 437/5/5 443/5/5
f 424/1/1 426/1/1 552/1/1 538/1/1
f 425/1/2 539/1/2 553/1/2 427/1/2
f 435/6/1 434/6/1 554/6/1 544/6/1
f 555/4/2 556/4/2 557/4/2 450/4/2
f 429/4/3 542/4/3 556/4/3 555/4/3
f 429/4/5 555/4/5 450/4/5 430/4/5
f 443/4/1 442/4/1 558/4/1 550/4/1
f 437/4/3 548/4/3 552/4/3 426/4/3
f 437/4/5 426/4/5 444/4/5 438/4/5
f 427/1/2 553/1/2 559/1/2 445/1/2
f 434/6/1 447/6/1 560/6/1 554/6/1
f 450/4/3 557/4/3 561/4/3 562/4/3
f 450/4/5 562/4/5 563/4/5 451/4/5
f 562/4/3 561/4/3 564/4/3 565/4/3
f 562/4/5 565/4/5 566/4/5 563/4/5
f 565/4/3 564/4/3 567/4/3 568/4/3
f 565/4/5 568/4/5 569/4/5 566/4/5
f 568/4/3 567/4/3 558/4/3 442/4/3
f 568/4/5 442/4/5 454/4/5 569/4/5
f 445/3/2 559/3/2 570/3/2 457/3/2
f 447/6/1 459/6/1 571/6/1 560/6/1
f 461/6/4 572/6/4 573/6/4 574/6/4
f 451/6/5 563/6/5 572/6/5 461/6/5
f 572/6/4 575/6/4 576/6/4 573/6/4
f 563/6/5 566/6/5 575/6/5 572/6/5
f 575/6/4 479/6/4 577/6/4 576/6/4
f 566/6/5 569/6/5 479/6/5 575/6/5
f 569/6/5 454/6/5 473/6/5 479/6/5
f 454/6/5 456/6/5 465/6/5 473/6/5
f 457/3/2 570/3/2 578/3/2 467/3/2
f 459/6/1 471/6/1 579/6/1 571/6/1
f 461/6/2 574/6/2 580/6/2 581/6/2
f 468/6/4 581/6/4 580/6/4 582/6/4
f 463/6/5 461/6/5 581/6/5 468/6/5
f 479/6/1 478/6/1 583/6/1 577/6/1
f 474/6/4 584/6/4 585/6/4 586/6/4
f 473/6/5 465/6/5 584/6/5 474/6/5
f 584/6/4 480/6/4 587/6/4 585/6/4
f 465/6/5 466/6/5 480/6/5 584/6/5
f 467/1/2 578/1/2 588/1/2 481/1/2
f 468/6/2 582/6/2 589/6/2 590/6/2
f 471/6/1 591/6/1 592/6/1 579/6/1
f 591/6/4 590/6/4 589/6/4 592/6/4
f 471/6/5 468/6/5 590/6/5 591/6/5
f 474/6/2 586/6/2 593/6/2 482/6/2
f 478/6/1 485/6/1 594/6/1 583/6/1
f 480/1/1 486/1/1 595/1/1 587/1/1
f 481/1/2 588/1/2 596/1/2 487/1/2
f 485/6/1 491/6/1 597/6/1 594/6/1
f 598/4/2 599/4/2 600/4/2 497/4/2
f 482/4/3 593/4/3 599/4/3 598/4/3
f 482/4/5 598/4/5 497/4/5 488/4/5
f 486/1/1 492/1/1 601/1/1 595/1/1
f 487/1/2 596/1/2 602/1/2 493/1/2
f 491/5/1 603/5/1 604/5/1 597/5/1
f 603/5/4 605/5/4 606/5/4 604/5/4
f 491/5/5 488/5/5 605/5/5 603/5/5
f 605/4/4 496/4/4 607/4/4 606/4/4
f 488/4/5 497/4/5 496/4/5 605/4/5
f 497/4/3 600/4/3 601/4/3 492/4/3
f 498/1/4 500/1/4 608/1/4 609/1/4
f 493/3/2 602/3/2 610/3/2 501/3/2
f 496/6/1 505/6/1 611/6/1 607/6/1
f 498/4/2 609/4/2 612/4/2 613/4/2
f 499/4/5 498/4/5 613/4/5 502/4/5
f 500/1/1 506/1/1 614/1/1 608/1/1
f 501/1/2 610/1/2 615/1/2 507/1/2
f 505/5/1 616/5/1 617/5/1 611/5/1
f 616/5/4 618/5/4 619/5/4 617/5/4
f 505/5/5 502/5/5 618/5/5 616/5/5
f 618/4/4 513/4/4 620/4/4 619/4/4
f 502/4/5 613/4/5 513/4/5 618/4/5
f 613/4/3 612/4/3 614/4/3 506/4/3
f 613/4/5 506/4/5 508/4/5 513/4/5
f 507/1/2 615/1/2 621/1/2 509/1/2
f 513/4/1 512/4/1 622/4/1 620/4/1
f 512/4/4 514/4/4 623/4/4 622/4/4
f 514/3/4 515/3/4 624/3/4 623/3/4
f 515/1/4 516/1/4 625/1/4 624/1/4
f 516/1/4 517/1/4 626/1/4 625/1/4
f 517/3/4 518/3/4 627/3/4 626/3/4
f 518/3/4 519/3/4 628/3/4 627/3/4
f 509/1/2 621/1/2 629/1/2 520/1/2
f 519/1/4 520/1/4 629/1/4 628/1/4
f 522/1/1 521/1/1 630/1/1 631/1/1
f 522/1/3 631/1/3 632/1/3 523/1/3
f 523/1/3 632/1/3 633/1/3 524/1/3
f 524/1/3 633/1/3 634/1/3 525/1/3
f 633/1/6 635/1/6 636/1/6 634/1/6
f 525/1/3 634/1/3 637/1/3 526/1/3
f 634/1/6 636/1/6 638/1/6 637/1/6
f 526/1/3 637/1/3 639/1/3 527/1/3
f 527/3/3 639/3/3 640/3/3 528/3/3
f 528/3/3 640/3/3 641/3/3 642/3/3
f 528/3/5 642/3/5 531/3/5 529/3/5
f 643/1/2 644/1/2 645/1/2 532/1/2
f 642/1/3 641/1/3 644/1/3 643/1/3
f 642/1/5 643/1/5 532/1/5 531/1/5
f 521/1/1 530/1/1 646/1/1 630/1/1
f 532/3/2 645/3/2 647/3/2 533/3/2
f 530/1/1 534/1/1 648/1/1 646/1/1
f 533/3/2 647/3/2 649/3/2 535/3/2
f 534/1/1 536/1/1 650/1/1 648/1/1
f 535/3/2 649/3/2 651/3/2 537/3/2
f 536/1/1 538/1/1 652/1/1 650/1/1
f 537/1/2 651/1/2 653/1/2 539/1/2
f 545/4/1 544/4/1 654/4/1 655/4/1
f 545/4/3 655/4/3 656/4/3 541/4/3
f 657/4/2 658/4/2 659/4/2 556/4/2
f 541/4/3 656/4/3 658/4/3 657/4/3
f 541/4/5 657/4/5 556/4/5 542/4/5
f 547/5/2 660/5/2 661/5/2 548/5/2
f 551/5/1 550/5/1 662/5/1 663/5/1
f 551/5/3 663/5/3 660/5/3 547/5/3
f 663/5/6 662/5/6 661/5/6 660/5/6
f 538/1/1 552/1/1 664/1/1 652/1/1
f 539/1/2 653/1/2 665/1/2 553/1/2
f 544/6/1 554/6/1 666/6/1 654/6/1
f 556/4/3 659/4/3 667/4/3 668/4/3
f 556/4/5 668/4/5 561/4/5 557/4/5
f 668/4/3 667/4/3 669/4/3 670/4/3
f 668/4/5 670/4/5 564/4/5 561/4/5
f 670/4/3 669/4/3 671/4/3 672/4/3
f 670/4/5 672/4/5 567/4/5 564/4/5
f 672/4/3 671/4/3 662/4/3 550/4/3
f 672/4/5 550/4/5 558/4/5 567/4/5
f 548/4/3 661/4/3 664/4/3 552/4/3
f 553/3/2 665/3/2 673/3/2 559/3/2
f 554/6/1 560/6/1 674/6/1 666/6/1
f 559/3/2 673/3/2 675/3/2 570/3/2
f 560/6/1 571/6/1 676/6/1 674/6/1
f 570/3/2 675/3/2 677/3/2 578/3/2
f 571/6/1 579/6/1 678/6/1 676/6/1
f 580/6/4 679/6/4 680/6/4 681/6/4
f 574/6/5 573/6/5 679/6/5 580/6/5
f 679/6/4 682/6/4 683/6/4 680/6/4
f 573/6/5 576/6/5 682/6/5 679/6/5
f 576/6/5 577/6/5 583/6/5 682/6/5
f 586/6/4 585/6/4 684/6/4 685/6/4
f 585/6/4 587/6/4 686/6/4 684/6/4
f 578/3/2 677/3/2 687/3/2 588/3/2
f 579/6/1 592/6/1 688/6/1 678/6/1
f 592/6/4 589/6/4 689/6/4 688/6/4
f 580/6/2 681/6/2 690/6/2 691/6/2
f 589/6/4 691/6/4 690/6/4 689/6/4
f 582/6/5 580/6/5 691/6/5 589/6/5
f 682/6/1 692/6/1 693/6/1 683/6/1
f 692/6/4 594/6/4 694/6/4 693/6/4
f 683/6/6 693/6/6 694/6/6 695/6/6
f 682/6/5 583/6/5 594/6/5 692/6/5
f 586/6/2 685/6/2 696/6/2 593/6/2
f 587/6/1 595/6/1 697/6/1 686/6/1
f 588/1/2 687/1/2 698/1/2 596/1/2
f 594/6/1 597/6/1 699/6/1 694/6/1
f 599/4/2 700/4/2 701/4/2 600/4/2
f 593/4/3 696/4/3 700/4/3 599/4/3
f 696/4/6 702/4/6 701/4/6 700/4/6
f 595/1/1 601/1/1 703/1/1 697/1/1
f 596/1/2 698/1/2 704/1/2 602/1/2
f 597/5/1 604/5/1 705/5/1 699/5/1
f 604/5/4 606/5/4 706/5/4 705/5/4
f 699/5/6 705/5/6 706/5/6 702/5/6
f 606/4/4 607/4/4 707/4/4 706/4/4
f 702/4/6 706/4/6 707/4/6 701/4/6
f 600/4/3 701/4/3 703/4/3 601/4/3
f 602/3/2 704/3/2 708/3/2 610/3/2
f 607/6/1 611/6/1 709/6/1 707/6/1
f 710/4/6 711/4/6 712/4/6 713/4/6
f 609/1/5 608/1/5 614/1/5 612/1/5
f 610/3/2 708/3/2 714/3/2 615/3/2
f 611/5/1 617/5/1 715/5/1 709/5/1
f 617/5/4 619/5/4 716/5/4 715/5/4
f 709/5/6 715/5/6 716/5/6 711/5/6
f 619/4/4 620/4/4 717/4/4 716/4/4
f 615/1/2 714/1/2 718/1/2 621/1/2
f 620/4/1 622/4/1 719/4/1 717/4/1
f 622/4/4 623/4/4 720/4/4 719/4/4
f 623/3/4 624/3/4 721/3/4 720/3/4
f 624/1/4 625/1/4 722/1/4 721/1/4
f 625/1/4 626/1/4 723/1/4 722/1/4
f 626/4/4 627/4/4 724/4/4 723/4/4
f 627/3/4 628/3/4 725/3/4 724/3/4
f 621/1/2 718/1/2 726/1/2 629/1/2
f 628/1/4 629/1/4 726/1/4 725/1/4
f 631/1/1 630/1/1 727/1/1 728/1/1
f 631/1/3 728/1/3 729/1/3 632/1/3
f 633/1/2 730/1/2 731/1/2 635/1/2
f 632/1/3 729/1/3 730/1/3 633/1/3
f 637/1/1 638/1/1 732/1/1 733/1/1
f 637/1/3 733/1/3 734/1/3 639/1/3
f 639/7/3 734/7/3 735/7/3 640/7/3
f 640/3/3 735/3/3 736/3/3 641/3/3
f 644/1/2 737/1/2 738/1/2 645/1/2
f 641/1/3 736/1/3 737/1/3 644/1/3
f 630/1/1 646/1/1 739/1/1 727/1/1
f 635/1/3 731/1/3 740/1/3 636/1/3
f 636/3/3 740/3/3 732/3/3 638/3/3
f 645/3/2 738/3/2 741/3/2 647/3/2
f 646/1/1 648/1/1 742/1/1 739/1/1
f 647/3/2 741/3/2 743/3/2 649/3/2
f 648/1/1 650/1/1 744/1/1 742/1/1
f 649/3/2 743/3/2 745/3/2 651/3/2
f 650/1/1 652/1/1 746/1/1 744/1/1
f 651/1/2 745/1/2 747/1/2 653/1/2
f 655/4/1 654/4/1 748/4/1 749/4/1
f 655/4/3 749/4/3 750/4/3 656/4/3
f 658/4/2 751/4/2 752/4/2 659/4/2
f 656/4/3 750/4/3 751/4/3 658/4/3
f 750/4/6 753/4/6 752/4/6 751/4/6
f 652/4/1 664/4/1 754/4/1 746/4/1
f 653/1/2 747/1/2 755/1/2 665/1/2
f 654/6/1 666/6/1 756/6/1 748/6/1
f 659/4/3 752/4/3 757/4/3 667/4/3
f 752/4/6 758/4/6 759/4/6 757/4/6
f 667/4/3 757/4/3 760/4/3 669/4/3
f 757/4/6 759/4/6 761/4/6 760/4/6
f 669/4/3 760/4/3 762/4/3 671/4/3
f 760/4/6 761/4/6 763/4/6 762/4/6
f 671/4/3 762/4/3 764/4/3 662/4/3
f 762/4/6 763/4/6 765/4/6 764/4/6
f 662/4/3 764/4/3 766/4/3 661/4/3
f 764/4/6 765/4/6 767/4/6 766/4/6
f 661/4/3 766/4/3 754/4/3 664/4/3
f 665/3/2 755/3/2 768/3/2 673/3/2
f 666/6/1 674/6/1 769/6/1 756/6/1
f 673/7/2 768/7/2 770/7/2 675/7/2
f 674/6/1 676/6/1 771/6/1 769/6/1
f 675/3/2 770/3/2 772/3/2 677/3/2
f 676/6/1 678/6/1 773/6/1 771/6/1
f 681/4/4 680/4/4 774/4/4 775/4/4
f 776/4/6 775/4/6 774/4/6 777/4/6
f 680/4/4 683/4/4 778/4/4 774/4/4
f 777/4/6 774/4/6 778/4/6 779/4/6
f 683/4/4 695/4/4 780/4/4 778/4/4
f 779/4/6 778/4/6 780/4/6 781/4/6
f 685/4/4 684/4/4 782/4/4 783/4/4
f 684/4/4 686/4/4 784/4/4 782/4/4
f 677/3/2 772/3/2 785/3/2 687/3/2
f 678/6/1 688/6/1 786/6/1 773/6/1
f 688/6/4 689/6/4 787/6/4 786/6/4
f 681/4/2 775/4/2 788/4/2 690/4/2
f 689/4/4 690/4/4 788/4/4 787/4/4
f 789/4/6 787/4/6 788/4/6 775/4/6
f 685/5/2 783/5/2 790/5/2 696/5/2
f 695/5/1 694/5/1 791/5/1 780/5/1
f 780/5/6 791/5/6 790/5/6 783/5/6
f 686/4/1 697/4/1 792/4/1 784/4/1
f 687/1/2 785/1/2 793/1/2 698/1/2
f 696/5/2 790/5/2 794/5/2 702/5/2
f 694/5/1 699/5/1 795/5/1 791/5/1
f 699/5/4 702/5/4 794/5/4 795/5/4
f 791/5/6 795/5/6 794/5/6 790/5/6
f 697/1/1 703/1/1 796/1/1 792/1/1
f 698/1/2 793/1/2 797/1/2 704/1/2
f 701/5/1 707/5/1 798/5/1 799/5/1
f 701/5/3 799/5/3 796/5/3 703/5/3
f 799/5/6 798/5/6 800/5/6 796/5/6
f 710/1/4 713/1/4 801/1/4 800/1/4
f 704/3/2 797/3/2 802/3/2 708/3/2
f 710/5/2 800/5/2 803/5/2 711/5/2
f 707/5/1 709/5/1 804/5/1 798/5/1
f 709/5/4 711/5/4 803/5/4 804/5/4
f 798/5/6 804/5/6 803/5/6 800/5/6
f 713/1/1 712/1/1 805/1/1 801/1/1
f 708/3/2 802/3/2 806/3/2 714/3/2
f 711/3/1 716/3/1 807/3/1 803/3/1
f 711/3/3 803/3/3 805/3/3 712/3/3
f 716/3/4 717/3/4 808/3/4 807/3/4
f 803/3/6 807/3/6 808/3/6 805/3/6
f 714/3/2 806/3/2 809/3/2 718/3/2
f 717/5/1 719/5/1 810/5/1 808/5/1
f 719/5/4 720/5/4 811/5/4 810/5/4
f 720/3/4 721/3/4 812/3/4 811/3/4
f 721/1/4 722/1/4 813/1/4 812/1/4
f 722/1/4 723/1/4 814/1/4 813/1/4
f 723/4/4 724/4/4 815/4/4 814/4/4
f 724/3/4 725/3/4 816/3/4 815/3/4
f 718/1/2 809/1/2 817/1/2 726/1/2
f 725/1/4 726/1/4 817/1/4 816/1/4
f 728/1/1 727/1/1 818/1/1 819/1/1
f 728/1/3 819/1/3 820/1/3 729/1/3
f 730/1/2 821/1/2 822/1/2 731/1/2
f 729/1/3 820/1/3 821/1/3 730/1/3
f 823/1/1 740/1/1 824/1/1 825/1/1
f 823/1/3 825/1/3 826/1/3 733/1/3
f 825/1/6 824/1/6 827/1/6 826/1/6
f 823/1/5 733/1/5 732/1/5 740/1/5
f 733/1/3 826/1/3 828/1/3 734/1/3
f 826/1/6 827/1/6 829/1/6 828/1/6
f 734/3/3 828/3/3 830/3/3 735/3/3
f 735/3/3 830/3/3 831/3/3 736/3/3
f 737/1/2 832/1/2 833/1/2 738/1/2
f 736/1/3 831/1/3 832/1/3 737/1/3
f 727/1/1 739/1/1 834/1/1 818/1/1
f 731/1/3 822/1/3 824/1/3 740/1/3
f 738/1/2 833/1/2 835/1/2 741/1/2
f 739/1/1 742/1/1 836/1/1 834/1/1
f 741/3/2 835/3/2 837/3/2 743/3/2
f 742/1/1 744/1/1 838/1/1 836/1/1
f 743/1/2 837/1/2 839/1/2 745/1/2
f 744/1/1 746/1/1 840/1/1 838/1/1
f 745/1/2 839/1/2 841/1/2 747/1/2
f 750/3/2 842/3/2 843/3/2 753/3/2
f 749/3/1 748/3/1 844/3/1 845/3/1
f 749/3/3 845/3/3 842/3/3 750/3/3
f 845/3/6 844/3/6 843/3/6 842/3/6
f 746/4/1 754/4/1 846/4/1 840/4/1
f 747/1/2 841/1/2 847/1/2 755/1/2
f 748/4/1 756/4/1 848/4/1 844/4/1
f 752/3/2 849/3/2 850/3/2 758/3/2
f 753/3/3 843/3/3 849/3/3 752/3/3
f 843/3/6 851/3/6 850/3/6 849/3/6
f 766/4/1 767/4/1 852/4/1 853/4/1
f 766/4/3 853/4/3 846/4/3 754/4/3
f 853/4/6 852/4/6 854/4/6 846/4/6
f 755/1/2 847/1/2 855/1/2 768/1/2
f 756/4/1 769/4/1 856/4/1 848/4/1
f 758/4/3 850/4/3 857/4/3 759/4/3
f 850/4/6 858/4/6 859/4/6 857/4/6
f 759/4/3 857/4/3 860/4/3 761/4/3
f 857/4/6 859/4/6 861/4/6 860/4/6
f 761/4/3 860/4/3 862/4/3 763/4/3
f 860/4/6 861/4/6 863/4/6 862/4/6
f 763/4/3 862/4/3 864/4/3 765/4/3
f 862/4/6 863/4/6 865/4/6 864/4/6
f 765/4/3 864/4/3 852/4/3 767/4/3
f 864/4/6 865/4/6 866/4/6 852/4/6
f 768/1/2 855/1/2 867/1/2 770/1/2
f 769/4/1 771/4/1 868/4/1 856/4/1
f 776/4/4 777/4/4 869/4/4 870/4/4
f 858/4/6 870/4/6 869/4/6 859/4/6
f 777/4/4 779/4/4 871/4/4 869/4/4
f 859/4/6 869/4/6 871/4/6 861/4/6
f 779/4/4 781/4/4 872/4/4 871/4/4
f 861/4/6 871/4/6 872/4/6 863/4/6
f 863/4/6 872/4/6 873/4/6 865/4/6
f 770/1/2 867/1/2 874/1/2 772/1/2
f 771/4/1 773/4/1 875/4/1 868/4/1
f 776/4/2 870/4/2 876/4/2 775/4/2
f 789/4/4 775/4/4 876/4/4 877/4/4
f 878/4/6 877/4/6 876/4/6 870/4/6
f 781/4/1 780/4/1 879/4/1 872/4/1
f 780/4/4 783/4/4 880/4/4 879/4/4
f 872/4/6 879/4/6 880/4/6 873/4/6
f 783/4/4 782/4/4 881/4/4 880/4/4
f 772/1/2 874/1/2 882/1/2 785/1/2
f 789/6/2 877/6/2 883/6/2 787/6/2
f 773/6/1 786/6/1 884/6/1 875/6/1
f 786/6/4 787/6/4 883/6/4 884/6/4
f 875/6/6 884/6/6 883/6/6 877/6/6
f 782/5/1 885/5/1 886/5/1 881/5/1
f 885/5/4 792/5/4 887/5/4 886/5/4
f 782/5/5 784/5/5 792/5/5 885/5/5
f 785/1/2 882/1/2 888/1/2 793/1/2
f 792/1/1 796/1/1 889/1/1 887/1/1
f 793/1/2 888/1/2 890/1/2 797/1/2
f 796/1/1 800/1/1 891/1/1 889/1/1
f 800/1/4 801/1/4 892/1/4 891/1/4
f 797/3/2 890/3/2 893/3/2 802/3/2
f 801/1/1 805/1/1 894/1/1 892/1/1
f 802/3/2 893/3/2 895/3/2 806/3/2
f 805/1/1 808/1/1 896/1/1 894/1/1
f 806/3/2 895/3/2 897/3/2 809/3/2
f 808/1/1 810/1/1 898/1/1 896/1/1
f 810/1/4 811/1/4 899/1/4 898/1/4
f 811/1/4 812/1/4 900/1/4 899/1/4
f 812/1/4 813/1/4 901/1/4 900/1/4
f 813/1/4 814/1/4 902/1/4 901/1/4
f 814/3/4 815/3/4 903/3/4 902/3/4
f 815/3/4 816/3/4 904/3/4 903/3/4
f 809/1/2 897/1/2 905/1/2 817/1/2
f 816/1/4 817/1/4 905/1/4 904/1/4
f 819/1/1 818/1/1 906/1/1 907/1/1
f 819/1/3 907/1/3 908/1/3 820/1/3
f 821/1/2 909/1/2 910/1/2 822/1/2
f 820/1/3 908/1/3 909/1/3 821/1/3
f 828/3/1 829/3/1 911/3/1 912/3/1
f 828/3/3 912/3/3 913/3/3 830/3/3
f 830/3/3 913/3/3 914/3/3 831/3/3
f 832/1/2 915/1/2 916/1/2 833/1/2
f 831/1/3 914/1/3 915/1/3 832/1/3
f 818/1/1 834/1/1 917/1/1 906/1/1
f 822/1/3 910/1/3 918/1/3 824/1/3
f 824/1/3 918/1/3 919/1/3 827/1/3
f 827/1/3 919/1/3 911/1/3 829/1/3
f 833/1/2 916/1/2 920/1/2 835/1/2
f 834/1/1 836/1/1 921/1/1 917/1/1
f 835/3/2 920/3/2 922/3/2 837/3/2
f 836/1/1 838/1/1 923/1/1 921/1/1
f 837/1/2 922/1/2 924/1/2 839/1/2
f 838/1/1 840/1/1 925/1/1 923/1/1
f 839/1/2 924/1/2 926/1/2 841/1/2
f 840/1/1 846/1/1 927/1/1 925/1/1
f 841/1/2 926/1/2 928/1/2 847/1/2
f 843/3/2 929/3/2 930/3/2 851/3/2
f 844/3/1 848/3/1 931/3/1 932/3/1
f 844/3/3 932/3/3 929/3/3 843/3/3
f 932/3/6 931/3/6 930/3/6 929/3/6
f 846/1/1 854/1/1 933/1/1 927/1/1
f 847/3/2 928/3/2 934/3/2 855/3/2
f 848/4/1 856/4/1 935/4/1 931/4/1
f 931/4/6 935/4/6 936/4/6 930/4/6
f 850/4/2 937/4/2 938/4/2 858/4/2
f 851/4/3 930/4/3 937/4/3 850/4/3
f 930/4/6 936/4/6 938/4/6 937/4/6
f 852/5/1 866/5/1 939/5/1 940/5/1
f 852/5/3 940/5/3 933/5/3 854/5/3
f 855/3/2 934/3/2 941/3/2 867/3/2
f 856/4/1 868/4/1 942/4/1 935/4/1
f 935/4/6 942/4/6 943/4/6 936/4/6
f 858/4/2 938/4/2 944/4/2 870/4/2
f 878/4/4 870/4/4 944/4/4 943/4/4
f 936/4/6 943/4/6 944/4/6 938/4/6
f 865/4/1 873/4/1 945/4/1 946/4/1
f 865/4/3 946/4/3 939/4/3 866/4/3
f 946/4/6 945/4/6 947/4/6 939/4/6
f 867/1/2 941/1/2 948/1/2 874/1/2
f 878/4/2 943/4/2 949/4/2 877/4/2
f 868/4/1 875/4/1 950/4/1 942/4/1
f 875/4/4 877/4/4 949/4/4 950/4/4
f 942/4/6 950/4/6 949/4/6 943/4/6
f 873/4/1 880/4/1 951/4/1 945/4/1
f 880/4/4 881/4/4 952/4/4 951/4/4
f 945/4/6 951/4/6 952/4/6 947/4/6
f 874/1/2 948/1/2 953/1/2 882/1/2
f 881/5/1 886/5/1 954/5/1 952/5/1
f 886/5/4 887/5/4 955/5/4 954/5/4
f 882/1/2 953/1/2 956/1/2 888/1/2
f 887/4/1 889/4/1 957/4/1 955/4/1
f 888/1/2 956/1/2 958/1/2 890/1/2
f 889/4/1 891/4/1 959/4/1 957/4/1
f 891/4/4 892/4/4 960/4/4 959/4/4
f 890/1/2 958/1/2 961/1/2 893/1/2
f 892/1/1 894/1/1 962/1/1 960/1/1
f 893/3/2 961/3/2 963/3/2 895/3/2
f 894/1/1 896/1/1 964/1/1 962/1/1
f 895/1/2 963/1/2 965/1/2 897/1/2
f 896/1/1 898/1/1 966/1/1 964/1/1
f 898/1/4 899/1/4 967/1/4 966/1/4
f 899/1/4 900/1/4 968/1/4 967/1/4
f 900/1/4 901/1/4 969/1/4 968/1/4
f 901/1/4 902/1/4 970/1/4 969/1/4
f 902/1/4 903/1/4 971/1/4 970/1/4
f 903/1/4 904/1/4 972/1/4 971/1/4
f 897/1/2 965/1/2 973/1/2 905/1/2
f 904/1/4 905/1/4 973/1/4 972/1/4
f 907/1/1 906/1/1 974/1/1 975/1/1
f 907/1/3 975/1/3 976/1/3 908/1/3
f 908/2/3 976/2/3 977/2/3 909/2/3
f 978/1/2 979/1/2 980/1/2 918/1/2
f 909/1/3 977/1/3 979/1/3 978/1/3
f 909/1/5 978/1/5 918/1/5 910/1/5
f 912/1/1 911/1/1 981/1/1 982/1/1
f 912/1/3 982/1/3 983/1/3 913/1/3
f 913/1/3 983/1/3 984/1/3 914/1/3
f 915/7/2 985/7/2 986/7/2 916/7/2
f 914/7/3 984/7/3 985/7/3 915/7/3
f 906/1/1 917/1/1 987/1/1 974/1/1
f 918/1/3 980/1/3 988/1/3 919/1/3
f 919/1/3 988/1/3 981/1/3 911/1/3
f 916/1/2 986/1/2 989/1/2 920/1/2
f 917/1/1 921/1/1 990/1/1 987/1/1
f 920/2/2 989/2/2 991/2/2 922/2/2
f 921/1/1 923/1/1 992/1/1 990/1/1
f 922/3/2 991/3/2 993/3/2 924/3/2
f 923/1/1 925/1/1 994/1/1 992/1/1
f 924/3/2 993/3/2 995/3/2 926/3/2
f 925/1/1 927/1/1 996/1/1 994/1/1
f 926/3/2 995/3/2 997/3/2 928/3/2
f 927/1/1 933/1/1 998/1/1 996/1/1
f 928/3/2 997/3/2 999/3/2 934/3/2
f 940/5/1 939/5/1 1000/5/1 1001/5/1
f 940/5/3 1001/5/3 998/5/3 933/5/3
f 1001/5/6 1000/5/6 1002/5/6 998/5/6
f 934/3/2 999/3/2 1003/3/2 941/3/2
f 939/4/1 947/4/1 1004/4/1 1000/4/1
f 941/3/2 1003/3/2 1005/3/2 948/3/2
f 947/4/1 952/4/1 1006/4/1 1004/4/1
f 948/1/2 1005/1/2 1007/1/2 953/1/2
f 952/5/1 954/5/1 1008/5/1 1006/5/1
f 954/5/4 955/5/4 1009/5/4 1008/5/4
f 1006/5/6 1008/5/6 1009/5/6 1010/5/6
f 953/1/2 1007/1/2 1011/1/2 956/1/2
f 955/1/1 957/1/1 1012/1/1 1009/1/1
f 956/1/2 1011/1/2 1013/1/2 958/1/2
f 957/4/1 959/4/1 1014/4/1 1012/4/1
f 959/4/4 960/4/4 1015/4/4 1014/4/4
f 958/1/2 1013/1/2 1016/1/2 961/1/2
f 960/1/1 962/1/1 1017/1/1 1015/1/1
f 961/1/2 1016/1/2 1018/1/2 963/1/2
f 962/5/1 964/5/1 1019/5/1 1017/5/1
f 963/1/2 1018/1/2 1020/1/2 965/1/2
f 964/5/1 966/5/1 1021/5/1 1019/5/1
f 966/5/4 967/5/4 1022/5/4 1021/5/4
f 967/1/4 968/1/4 1023/1/4 1022/1/4
f 968/1/4 969/1/4 1024/1/4 1023/1/4
f 969/1/4 970/1/4 1025/1/4 1024/1/4
f 970/3/4 971/3/4 1026/3/4 1025/3/4
f 971/1/4 972/1/4 1027/1/4 1026/1/4
f 965/1/2 1020/1/2 1028/1/2 973/1/2
f 972/1/4 973/1/4 1028/1/4 1027/1/4
f 975/1/1 974/1/1 1029/1/1 1030/1/1
f 975/1/3 1030/1/3 1031/1/3 976/1/3
f 1030/1/6 1029/1/6 1032/1/6 1031/1/6
f 976/1/3 1031/1/3 1033/1/3 977/1/3
f 1031/1/6 1032/1/6 1034/1/6 1033/1/6
f 979/1/2 1035/1/2 1036/1/2 980/1/2
f 977/1/3 1033/1/3 1035/1/3 979/1/3
f 1033/1/6 1034/1/6 1036/1/6 1035/1/6
f 1037/1/1 988/1/1 1038/1/1 1039/1/1
f 1037/1/3 1039/1/3 1040/1/3 982/1/3
f 1039/1/6 1038/1/6 1041/1/6 1040/1/6
f 1037/1/5 982/1/5 981/1/5 988/1/5
f 982/1/3 1040/1/3 1042/1/3 983/1/3
f 1040/1/6 1041/1/6 1043/1/6 1042/1/6
f 983/1/3 1042/1/3 1044/1/3 984/1/3
f 1042/1/6 1043/1/6 1045/1/6 1044/1/6
f 985/1/2 1046/1/2 1047/1/2 986/1/2
f 984/1/3 1044/1/3 1046/1/3 985/1/3
f 1044/1/6 1045/1/6 1047/1/6 1046/1/6
f 974/1/1 987/1/1 1048/1/1 1029/1/1
f 1029/1/6 1048/1/6 1049/1/6 1032/1/6
f 1032/1/6 1049/1/6 1050/1/6 1034/1/6
f 1034/1/6 1050/1/6 1051/1/6 1036/1/6
f 980/1/3 1036/1/3 1038/1/3 988/1/3
f 1036/1/6 1051/1/6 1052/1/6 1038/1/6
f 1038/1/6 1052/1/6 1053/1/6 1041/1/6
f 1041/1/6 1053/1/6 1054/1/6 1043/1/6
f 1043/2/6 1054/2/6 1055/2/6 1045/2/6
f 986/1/2 1047/1/2 1056/1/2 989/1/2
f 1045/1/6 1055/1/6 1056/1/6 1047/1/6
f 987/1/1 990/1/1 1057/1/1 1048/1/1
f 1048/1/6 1057/1/6 1058/1/6 1049/1/6
f 1049/1/6 1058/1/6 1059/1/6 1050/1/6
f 1050/1/6 1059/1/6 1060/1/6 1051/1/6
f 1051/7/6 1060/7/6 1061/7/6 1052/7/6
f 1052/1/6 1061/1/6 1062/1/6 1053/1/6
f 1053/1/6 1062/1/6 1063/1/6 1054/1/6
f 1054/1/6 1063/1/6 1064/1/6 1055/1/6
f 989/1/2 1056/1/2 1065/1/2 991/1/2
f 1055/1/6 1064/1/6 1065/1/6 1056/1/6
f 990/1/1 992/1/1 1066/1/1 1057/1/1
f 1057/1/6 1066/1/6 1067/1/6 1058/1/6
f 991/1/2 1065/1/2 1068/1/2 993/1/2
f 1064/1/6 1069/1/6 1068/1/6 1065/1/6
f 992/1/1 994/1/1 1070/1/1 1066/1/1
f 1066/1/6 1070/1/6 1071/1/6 1067/1/6
f 993/1/2 1068/1/2 1072/1/2 995/1/2
f 994/1/1 996/1/1 1073/1/1 1070/1/1
f 1070/1/6 1073/1/6 1074/1/6 1071/1/6
f 995/1/2 1072/1/2 1075/1/2 997/1/2
f 996/1/1 998/1/1 1076/1/1 1073/1/1
f 1073/1/6 1076/1/6 1077/1/6 1074/1/6
f 997/3/2 1075/3/2 1078/3/2 999/3/2
f 998/1/1 1002/1/1 1079/1/1 1076/1/1
f 1076/1/6 1079/1/6 1080/1/6 1077/1/6
f 999/3/2 1078/3/2 1081/3/2 1003/3/2
f 1000/5/1 1004/5/1 1082/5/1 1083/5/1
f 1000/5/3 1083/5/3 1079/5/3 1002/5/3
f 1083/5/6 1082/5/6 1084/5/6 1079/5/6
f 1079/4/6 1084/4/6 1085/4/6 1080/4/6
f 1003/1/2 1081/1/2 1086/1/2 1005/1/2
f 1004/5/1 1006/5/1 1087/5/1 1082/5/1
f 1006/5/4 1010/5/4 1088/5/4 1087/5/4
f 1082/5/6 1087/5/6 1088/5/6 1084/5/6
f 1084/4/6 1088/4/6 1089/4/6 1085/4/6
f 1005/1/2 1086/1/2 1090/1/2 1007/1/2
f 1010/1/1 1009/1/1 1091/1/1 1088/1/1
f 1088/1/6 1091/1/6 1092/1/6 1089/1/6
f 1007/1/2 1090/1/2 1093/1/2 1011/1/2
f 1009/1/1 1012/1/1 1094/1/1 1091/1/1
f 1091/1/6 1094/1/6 1095/1/6 1092/1/6
f 1092/1/6 1095/1/6 1096/1/6 1097/1/6
f 1097/1/6 1096/1/6 1098/1/6 1099/1/6
f 1099/1/6 1098/1/6 1100/1/6 1101/1/6
f 1101/1/6 1100/1/6 1102/1/6 1103/1/6
f 1103/3/6 1102/3/6 1104/3/6 1105/3/6
f 1105/1/6 1104/1/6 1106/1/6 1107/1/6
f 1011/1/2 1093/1/2 1108/1/2 1013/1/2
f 1107/1/6 1106/1/6 1108/1/6 1093/1/6
f 1012/1/1 1014/1/1 1109/1/1 1094/1/1
f 1014/1/4 1015/1/4 1110/1/4 1109/1/4
f 1094/1/6 1109/1/6 1110/1/6 1095/1/6
f 1104/1/6 1111/1/6 1112/1/6 1106/1/6
f 1013/1/2 1108/1/2 1113/1/2 1016/1/2
f 1106/1/6 1112/1/6 1113/1/6 1108/1/6
f 1015/4/1 1017/4/1 1114/4/1 1110/4/1
f 1111/1/6 1115/1/6 1116/1/6 1112/1/6
f 1016/7/2 1113/7/2 1117/7/2 1018/7/2
f 1112/7/6 1116/7/6 1117/7/6 1113/7/6
f 1017/4/1 1019/4/1 1118/4/1 1114/4/1
f 1115/3/6 1119/3/6 1120/3/6 1116/3/6
f 1018/1/2 1117/1/2 1121/1/2 1020/1/2
f 1116/1/6 1120/1/6 1121/1/6 1117/1/6
f 1019/5/1 1021/5/1 1122/5/1 1118/5/1
f 1021/5/4 1022/5/4 1123/5/4 1122/5/4
f 1022/1/4 1023/1/4 1124/1/4 1123/1/4
f 1023/3/4 1024/3/4 1125/3/4 1124/3/4
f 1024/1/4 1025/1/4 1126/1/4 1125/1/4
f 1025/3/4 1026/3/4 1127/3/4 1126/3/4
f 1026/1/4 1027/1/4 1128/1/4 1127/1/4
f 1119/1/6 1127/1/6 1128/1/6 1120/1/6
f 1020/1/2 1121/1/2 1129/1/2 1028/1/2
f 1027/1/4 1028/1/4 1129/1/4 1128/1/4
f 1120/1/6 1128/1/6 1129/1/6 1121/1/6
f 1058/1/1 1067/1/1 1130/1/1 1131/1/1
f 1058/1/3 1131/1/3 1132/1/3 1059/1/3
f 1131/1/6 1130/1/6 1133/1/6 1132/1/6
f 1059/1/3 1132/1/3 1134/1/3 1060/1/3
f 1132/1/6 1133/1/6 1135/1/6 1134/1/6
f 1060/1/3 1134/1/3 1136/1/3 1061/1/3
f 1134/1/6 1135/1/6 1137/1/6 1136/1/6
f 1061/1/3 1136/1/3 1138/1/3 1062/1/3
f 1136/1/6 1137/1/6 1139/1/6 1138/1/6
f 1062/1/3 1138/1/3 1140/1/3 1063/1/3
f 1138/1/6 1139/1/6 1141/1/6 1140/1/6
f 1064/1/2 1142/1/2 1143/1/2 1069/1/2
f 1063/1/3 1140/1/3 1142/1/3 1064/1/3
f 1140/1/6 1141/1/6 1143/1/6 1142/1/6
f 1067/1/1 1071/1/1 1144/1/1 1130/1/1
f 1130/1/6 1144/1/6 1145/1/6 1133/1/6
f 1068/1/2 1146/1/2 1147/1/2 1072/1/2
f 1069/1/3 1143/1/3 1146/1/3 1068/1/3
f 1071/1/1 1074/1/1 1148/1/1 1144/1/1
f 1144/1/6 1148/1/6 1149/1/6 1145/1/6
f 1072/1/2 1147/1/2 1150/1/2 1075/1/2
f 1074/1/1 1077/1/1 1151/1/1 1148/1/1
f 1148/1/6 1151/1/6 1152/1/6 1149/1/6
f 1075/1/2 1150/1/2 1153/1/2 1078/1/2
f 1077/3/1 1080/3/1 1154/3/1 1151/3/1
f 1151/3/6 1154/3/6 1155/3/6 1152/3/6
f 1078/1/2 1153/1/2 1156/1/2 1081/1/2
f 1080/4/1 1085/4/1 1157/4/1 1154/4/1
f 1081/1/2 1156/1/2 1158/1/2 1086/1/2
f 1085/4/1 1089/4/1 1159/4/1 1157/4/1
f 1086/1/2 1158/1/2 1160/1/2 1090/1/2
f 1089/5/1 1092/5/1 1161/5/1 1159/5/1
f 1092/5/4 1097/5/4 1162/5/4 1161/5/4
f 1159/5/6 1161/5/6 1162/5/6 1163/5/6
f 1097/1/4 1099/1/4 1164/1/4 1162/1/4
f 1099/1/4 1101/1/4 1165/1/4 1164/1/4
f 1101/1/4 1103/1/4 1166/1/4 1165/1/4
f 1103/1/4 1105/1/4 1167/1/4 1166/1/4
f 1105/1/4 1107/1/4 1168/1/4 1167/1/4
f 1090/1/2 1160/1/2 1169/1/2 1093/1/2
f 1107/1/4 1093/1/4 1169/1/4 1168/1/4
f 1095/3/1 1110/3/1 1170/3/1 1171/3/1
f 1095/3/3 1171/3/3 1172/3/3 1096/3/3
f 1096/1/3 1172/1/3 1173/1/3 1098/1/3
f 1098/1/3 1173/1/3 1174/1/3 1100/1/3
f 1100/1/3 1174/1/3 1175/1/3 1102/1/3
f 1104/1/2 1176/1/2 1177/1/2 1111/1/2
f 1102/1/3 1175/1/3 1176/1/3 1104/1/3
f 1110/3/1 1114/3/1 1178/3/1 1170/3/1
f 1111/3/2 1177/3/2 1179/3/2 1115/3/2
f 1114/1/1 1118/1/1 1180/1/1 1178/1/1
f 1115/3/2 1179/3/2 1181/3/2 1119/3/2
f 1118/1/1 1122/1/1 1182/1/1 1180/1/1
f 1122/1/4 1123/1/4 1183/1/4 1182/1/4
f 1123/1/4 1124/1/4 1184/1/4 1183/1/4
f 1124/3/4 1125/3/4 1185/3/4 1184/3/4
f 1125/1/4 1126/1/4 1186/1/4 1185/1/4
f 1119/1/2 1181/1/2 1187/1/2 1127/1/2
f 1126/1/4 1127/1/4 1187/1/4 1186/1/4
f 1133/1/1 1145/1/1 1188/1/1 1189/1/1
f 1133/1/3 1189/1/3 1190/1/3 1135/1/3
f 1189/1/6 1188/1/6 1191/1/6 1190/1/6
f 1135/1/3 1190/1/3 1192/1/3 1137/1/3
f 1190/1/6 1191/1/6 1193/1/6 1192/1/6
f 1137/7/3 1192/7/3 1194/7/3 1139/7/3
f 1192/7/6 1193/7/6 1195/7/6 1194/7/6
f 1139/1/3 1194/1/3 1196/1/3 1141/1/3
f 1194/1/6 1195/1/6 1197/1/6 1196/1/6
f 1141/1/3 1196/1/3 1198/1/3 1143/1/3
f 1196/1/6 1197/1/6 1199/1/6 1198/1/6
f 1146/1/2 1200/1/2 1201/1/2 1147/1/2
f 1143/1/3 1198/1/3 1200/1/3 1146/1/3
f 1198/1/6 1199/1/6 1201/1/6 1200/1/6
f 1145/3/1 1149/3/1 1202/3/1 1188/3/1
f 1147/1/2 1201/1/2 1203/1/2 1150/1/2
f 1149/3/1 1152/3/1 1204/3/1 1202/3/1
f 1150/1/2 1203/1/2 1205/1/2 1153/1/2
f 1152/3/1 1155/3/1 1206/3/1 1204/3/1
f 1153/3/2 1205/3/2 1207/3/2 1156/3/2
f 1154/3/1 1157/3/1 1208/3/1 1209/3/1
f 1154/3/3 1209/3/3 1206/3/3 1155/3/3
f 1209/3/6 1208/3/6 1210/3/6 1206/3/6
f 1156/3/2 1207/3/2 1211/3/2 1158/3/2
f 1157/3/1 1159/3/1 1212/3/1 1208/3/1
f 1159/3/4 1163/3/4 1213/3/4 1212/3/4
f 1208/3/6 1212/3/6 1213/3/6 1210/3/6
f 1158/7/2 1211/7/2 1214/7/2 1160/7/2
f 1163/1/1 1162/1/1 1215/1/1 1213/1/1
f 1162/1/4 1164/1/4 1216/1/4 1215/1/4
f 1164/1/4 1165/1/4 1217/1/4 1216/1/4
f 1165/1/4 1166/1/4 1218/1/4 1217/1/4
f 1166/1/4 1167/1/4 1219/1/4 1218/1/4
f 1167/1/4 1168/1/4 1220/1/4 1219/1/4
f 1160/1/2 1214/1/2 1221/1/2 1169/1/2
f 1168/1/4 1169/1/4 1221/1/4 1220/1/4
f 1171/1/1 1170/1/1 1222/1/1 1223/1/1
f 1171/1/3 1223/1/3 1224/1/3 1172/1/3
f 1223/1/6 1222/1/6 1225/1/6 1224/1/6
f 1172/1/3 1224/1/3 1226/1/3 1173/1/3
f 1173/1/3 1226/1/3 1227/1/3 1174/1/3
f 1174/1/3 1227/1/3 1228/1/3 1175/1/3
f 1176/1/2 1229/1/2 1230/1/2 1177/1/2
f 1175/1/3 1228/1/3 1229/1/3 1176/1/3
f 1170/1/1 1178/1/1 1231/1/1 1222/1/1
f 1222/1/6 1231/1/6 1232/1/6 1225/1/6
f 1177/1/2 1230/1/2 1233/1/2 1179/1/2
f 1178/1/1 1180/1/1 1234/1/1 1231/1/1
f 1231/1/6 1234/1/6 1235/1/6 1232/1/6
f 1232/1/6 1235/1/6 1236/1/6 1237/1/6
f 1237/1/6 1236/1/6 1238/1/6 1239/1/6
f 1239/1/6 1238/1/6 1240/1/6 1241/1/6
f 1179/1/2 1233/1/2 1242/1/2 1181/1/2
f 1241/1/6 1240/1/6 1242/1/6 1233/1/6
f 1180/1/1 1182/1/1 1243/1/1 1234/1/1
f 1182/1/4 1183/1/4 1244/1/4 1243/1/4
f 1234/1/6 1243/1/6 1244/1/6 1235/1/6
f 1183/1/4 1184/1/4 1245/1/4 1244/1/4
f 1235/1/6 1244/1/6 1245/1/6 1236/1/6
f 1184/1/4 1185/1/4 1246/1/4 1245/1/4
f 1236/1/6 1245/1/6 1246/1/6 1238/1/6
f 1185/1/4 1186/1/4 1247/1/4 1246/1/4
f 1238/1/6 1246/1/6 1247/1/6 1240/1/6
f 1181/1/2 1242/1/2 1248/1/2 1187/1/2
f 1186/1/4 1187/1/4 1248/1/4 1247/1/4
f 1240/1/6 1247/1/6 1248/1/6 1242/1/6
f 1188/1/1 1202/1/1 1249/1/1 1250/1/1
f 1188/1/3 1250/1/3 1251/1/3 1191/1/3
f 1250/1/6 1249/1/6 1252/1/6 1251/1/6
f 1191/1/3 1251/1/3 1253/1/3 1193/1/3
f 1251/1/6 1252/1/6 1254/1/6 1253/1/6
f 1193/1/3 1253/1/3 1255/1/3 1195/1/3
f 1253/1/6 1254/1/6 1256/1/6 1255/1/6
f 1195/1/3 1255/1/3 1257/1/3 1197/1/3
f 1255/1/6 1256/1/6 1258/1/6 1257/1/6
f 1197/1/3 1257/1/3 1259/1/3 1199/1/3
f 1257/1/6 1258/1/6 1260/1/6 1259/1/6
f 1201/1/2 1261/1/2 1262/1/2 1203/1/2
f 1199/1/3 1259/1/3 1261/1/3 1201/1/3
f 1259/1/6 1260/1/6 1262/1/6 1261/1/6
f 1202/1/1 1204/1/1 1263/1/1 1249/1/1
f 1249/1/6 1263/1/6 1264/1/6 1252/1/6
f 1252/1/6 1264/1/6 1265/1/6 1254/1/6
f 1254/1/6 1265/1/6 1266/1/6 1256/1/6
f 1256/1/6 1266/1/6 1267/1/6 1258/1/6
f 1258/3/6 1267/3/6 1268/3/6 1260/3/6
f 1203/3/2 1262/3/2 1269/3/2 1205/3/2
f 1260/3/6 1268/3/6 1269/3/6 1262/3/6
f 1204/1/1 1206/1/1 1270/1/1 1263/1/1
f 1263/1/6 1270/1/6 1271/1/6 1264/1/6
f 1264/3/6 1271/3/6 1272/3/6 1265/3/6
f 1265/3/6 1272/3/6 1273/3/6 1266/3/6
f 1266/7/6 1273/7/6 1274/7/6 1267/7/6
f 1267/1/6 1274/1/6 1275/1/6 1268/1/6
f 1205/3/2 1269/3/2 1276/3/2 1207/3/2
f 1268/3/6 1275/3/6 1276/3/6 1269/3/6
f 1206/1/1 1210/1/1 1277/1/1 1270/1/1
f 1270/1/6 1277/1/6 1278/1/6 1271/1/6
f 1271/4/6 1278/4/6 1279/4/6 1272/4/6
f 1272/2/6 1279/2/6 1280/2/6 1273/2/6
f 1273/1/6 1280/1/6 1281/1/6 1274/1/6
f 1274/1/6 1281/1/6 1282/1/6 1275/1/6
f 1207/3/2 1276/3/2 1283/3/2 1211/3/2
f 1275/3/6 1282/3/6 1283/3/6 1276/3/6
f 1210/1/1 1213/1/1 1284/1/1 1277/1/1
f 1277/1/6 1284/1/6 1285/1/6 1278/1/6
f 1278/4/6 1285/4/6 1286/4/6 1279/4/6
f 1279/3/6 1286/3/6 1287/3/6 1280/3/6
f 1280/1/6 1287/1/6 1288/1/6 1281/1/6
f 1281/3/6 1288/3/6 1289/3/6 1282/3/6
f 1211/3/2 1283/3/2 1290/3/2 1214/3/2
f 1282/3/6 1289/3/6 1290/3/6 1283/3/6
f 1213/1/1 1215/1/1 1291/1/1 1284/1/1
f 1284/1/6 1291/1/6 1292/1/6 1285/1/6
f 1285/3/6 1292/3/6 1293/3/6 1286/3/6
f 1286/3/6 1293/3/6 1294/3/6 1287/3/6
f 1287/1/6 1294/1/6 1295/1/6 1288/1/6
f 1288/1/6 1295/1/6 1296/1/6 1289/1/6
f 1214/1/2 1290/1/2 1297/1/2 1221/1/2
f 1289/1/6 1296/1/6 1297/1/6 1290/1/6
f 1215/1/1 1224/1/1 1298/1/1 1291/1/1
f 1291/1/6 1298/1/6 1299/1/6 1292/1/6
f 1215/1/5 1216/1/5 1226/1/5 1224/1/5
f 1292/1/6 1299/1/6 1300/1/6 1293/1/6
f 1216/1/5 1217/1/5 1227/1/5 1226/1/5
f 1293/1/6 1300/1/6 1301/1/6 1294/1/6
f 1217/1/5 1218/1/5 1228/1/5 1227/1/5
f 1294/1/6 1301/1/6 1302/1/6 1295/1/6
f 1218/1/5 1219/1/5 1229/1/5 1228/1/5
f 1295/1/6 1302/1/6 1303/1/6 1296/1/6
f 1219/1/5 1220/1/5 1304/1/5 1229/1/5
f 1221/1/2 1297/1/2 1305/1/2 1306/1/2
f 1296/1/6 1303/1/6 1305/1/6 1297/1/6
f 1220/1/5 1221/1/5 1306/1/5 1304/1/5
f 1224/1/1 1225/1/1 1307/1/1 1298/1/1
f 1298/1/6 1307/1/6 1308/1/6 1299/1/6
f 1299/1/6 1308/1/6 1309/1/6 1300/1/6
f 1300/1/6 1309/1/6 1310/1/6 1301/1/6
f 1301/1/6 1310/1/6 1311/1/6 1302/1/6
f 1302/1/6 1311/1/6 1312/1/6 1303/1/6
f 1229/1/5 1304/1/5 1313/1/5 1230/1/5
f 1306/1/2 1305/1/2 1314/1/2 1315/1/2
f 1303/1/6 1312/1/6 1314/1/6 1305/1/6
f 1304/1/5 1306/1/5 1315/1/5 1313/1/5
f 1225/1/1 1232/1/1 1316/1/1 1307/1/1
f 1232/1/4 1237/1/4 1317/1/4 1316/1/4
f 1307/1/6 1316/1/6 1317/1/6 1308/1/6
f 1237/1/4 1239/1/4 1318/1/4 1317/1/4
f 1308/1/6 1317/1/6 1318/1/6 1309/1/6
f 1239/1/4 1241/1/4 1319/1/4 1318/1/4
f 1309/1/6 1318/1/6 1319/1/6 1310/1/6
f 1241/1/4 1233/1/4 1320/1/4 1319/1/4
f 1310/1/6 1319/1/6 1320/1/6 1311/1/6
f 1233/1/4 1321/1/4 1322/1/4 1320/1/4
f 1311/1/6 1320/1/6 1322/1/6 1312/1/6
f 1230/1/5 1313/1/5 1321/1/5 1233/1/5
f 1315/1/2 1314/1/2 1323/1/2 1324/1/2
f 1321/1/4 1324/1/4 1323/1/4 1322/1/4
f 1312/1/6 1322/1/6 1323/1/6 1314/1/6
f 1313/1/5 1315/1/5 1324/1/5 1321/1/5
