mtllib Manzano_Julian_David_Almonacid_Vanegas_fase_3.mtl
o Manzano_Julian_David_Almonacid_Vanegas_fase_3
v -8.5000 0.0000 5.0000
v -7.5000 0.0000 5.0000
v -7.5000 0.0000 4.0000
v -8.5000 0.0000 4.0000
v -8.5000 -1.0000 5.0000
v -8.5000 -1.0000 4.0000
v -7.5000 -1.0000 4.0000
v -7.5000 -1.0000 5.0000
v -8.5000 5.0000 5.0000
v -8.5000 5.0000 4.0000
v -7.5000 5.0000 4.0000
v -7.5000 5.0000 5.0000
v -7.5000 6.0000 5.0000
v -8.5000 6.0000 5.0000
v -8.5000 6.0000 4.0000
v -7.5000 6.0000 4.0000
v -8.5000 7.0000 5.0000
v -7.5000 7.0000 5.0000
v -7.5000 7.0000 4.0000
v -8.5000 7.0000 4.0000
v -8.5000 3.0000 4.0000
v -8.5000 3.0000 3.0000
v -7.5000 3.0000 3.0000
v -7.5000 3.0000 4.0000
v -7.5000 4.0000 4.0000
v -8.5000 4.0000 4.0000
v -8.5000 4.0000 3.0000
v -7.5000 5.0000 3.0000
v -8.5000 5.0000 3.0000
v -8.5000 3.0000 2.0000
v -7.5000 3.0000 2.0000
v -8.5000 4.0000 2.0000
v -7.5000 4.0000 2.0000
v -7.5000 5.0000 2.0000
v -8.5000 5.0000 2.0000
v -6.5000 -1.0000 4.0000
v -6.5000 -1.0000 5.0000
v -6.5000 0.0000 5.0000
v -7.5000 1.0000 5.0000
v -6.5000 1.0000 5.0000
v -6.5000 1.0000 4.0000
v -7.5000 1.0000 4.0000
v -6.5000 6.0000 5.0000
v -6.5000 6.0000 4.0000
v -6.5000 5.0000 4.0000
v -6.5000 5.0000 5.0000
v -7.5000 -1.0000 3.0000
v -6.5000 -1.0000 3.0000
v -7.5000 0.0000 3.0000
v -6.5000 0.0000 3.0000
v -7.5000 1.0000 3.0000
v -6.5000 1.0000 3.0000
v -7.5000 2.0000 4.0000
v -6.5000 2.0000 4.0000
v -6.5000 2.0000 3.0000
v -7.5000 2.0000 3.0000
v -6.5000 3.0000 3.0000
v -6.5000 3.0000 4.0000
v -6.5000 4.0000 4.0000
v -7.5000 6.0000 3.0000
v -6.5000 7.0000 4.0000
v -6.5000 7.0000 3.0000
v -7.5000 7.0000 3.0000
v -6.5000 3.0000 2.0000
v -7.5000 6.0000 2.0000
v -6.5000 6.0000 2.0000
v -6.5000 5.0000 2.0000
v -6.5000 7.0000 2.0000
v -7.5000 7.0000 2.0000
v -7.5000 1.0000 2.0000
v -6.5000 1.0000 2.0000
v -6.5000 1.0000 1.0000
v -7.5000 1.0000 1.0000
v -7.5000 0.0000 2.0000
v -7.5000 0.0000 1.0000
v -6.5000 0.0000 1.0000
v -6.5000 0.0000 2.0000
v -7.5000 3.0000 1.0000
v -6.5000 3.0000 1.0000
v -7.5000 4.0000 1.0000
v -6.5000 4.0000 1.0000
v -6.5000 5.0000 1.0000
v -7.5000 5.0000 1.0000
v -7.5000 2.0000 -0.0000
v -7.5000 2.0000 -1.0000
v -6.5000 2.0000 -1.0000
v -6.5000 2.0000 -0.0000
v -6.5000 3.0000 -0.0000
v -7.5000 3.0000 -0.0000
v -7.5000 3.0000 -1.0000
v -7.5000 4.0000 -0.0000
v -6.5000 4.0000 -0.0000
v -6.5000 4.0000 -1.0000
v -7.5000 4.0000 -1.0000
v -7.5000 2.0000 -2.0000
v -6.5000 2.0000 -2.0000
v -7.5000 3.0000 -2.0000
v -6.5000 3.0000 -2.0000
v -6.5000 4.0000 -2.0000
v -7.5000 4.0000 -2.0000
v -6.5000 -1.0000 6.0000
v -5.5000 -1.0000 5.0000
v -5.5000 -1.0000 6.0000
v -5.5000 0.0000 6.0000
v -6.5000 0.0000 6.0000
v -6.5000 1.0000 6.0000
v -5.5000 1.0000 6.0000
v -5.5000 1.0000 5.0000
v -5.5000 -1.0000 4.0000
v -5.5000 1.0000 4.0000
v -5.5000 5.0000 5.0000
v -5.5000 5.0000 4.0000
v -6.5000 4.0000 5.0000
v -5.5000 4.0000 4.0000
v -5.5000 4.0000 5.0000
v -6.5000 -2.0000 4.0000
v -6.5000 -2.0000 3.0000
v -5.5000 -2.0000 3.0000
v -5.5000 -2.0000 4.0000
v -5.5000 -1.0000 3.0000
v -5.5000 0.0000 3.0000
v -5.5000 1.0000 3.0000
v -5.5000 2.0000 4.0000
v -5.5000 2.0000 3.0000
v -5.5000 3.0000 3.0000
v -5.5000 3.0000 4.0000
v -5.5000 6.0000 4.0000
v -5.5000 5.0000 3.0000
v -5.5000 6.0000 3.0000
v -5.5000 7.0000 4.0000
v -5.5000 7.0000 3.0000
v -6.5000 8.0000 4.0000
v -5.5000 8.0000 4.0000
v -5.5000 8.0000 3.0000
v -6.5000 8.0000 3.0000
v -5.5000 3.0000 2.0000
v -5.5000 5.0000 2.0000
v -5.5000 6.0000 2.0000
v -5.5000 7.0000 2.0000
v -5.5000 8.0000 2.0000
v -6.5000 8.0000 2.0000
v -5.5000 1.0000 2.0000
v -5.5000 1.0000 1.0000
v -5.5000 0.0000 1.0000
v -5.5000 0.0000 2.0000
v -5.5000 3.0000 1.0000
v -6.5000 6.0000 1.0000
v -5.5000 6.0000 1.0000
v -5.5000 5.0000 1.0000
v -5.5000 7.0000 1.0000
v -6.5000 7.0000 1.0000
v -6.5000 2.0000 1.0000
v -5.5000 2.0000 -0.0000
v -5.5000 2.0000 1.0000
v -5.5000 5.0000 -0.0000
v -6.5000 5.0000 -0.0000
v -5.5000 2.0000 -1.0000
v -5.5000 5.0000 -1.0000
v -6.5000 5.0000 -1.0000
v -5.5000 4.0000 -1.0000
v -6.5000 1.0000 -1.0000
v -6.5000 1.0000 -2.0000
v -5.5000 1.0000 -2.0000
v -5.5000 1.0000 -1.0000
v -5.5000 2.0000 -2.0000
v -5.5000 4.0000 -2.0000
v -5.5000 3.0000 -2.0000
v -5.5000 3.0000 -3.0000
v -6.5000 3.0000 -3.0000
v -6.5000 2.0000 -3.0000
v -5.5000 2.0000 -3.0000
v -4.5000 -1.0000 5.0000
v -4.5000 -1.0000 6.0000
v -4.5000 0.0000 6.0000
v -4.5000 0.0000 5.0000
v -4.5000 1.0000 6.0000
v -4.5000 1.0000 5.0000
v -5.5000 7.0000 6.0000
v -4.5000 7.0000 6.0000
v -4.5000 7.0000 5.0000
v -5.5000 7.0000 5.0000
v -5.5000 6.0000 6.0000
v -5.5000 6.0000 5.0000
v -4.5000 6.0000 5.0000
v -4.5000 6.0000 6.0000
v -4.5000 -1.0000 4.0000
v -4.5000 1.0000 4.0000
v -4.5000 -2.0000 3.0000
v -4.5000 -2.0000 4.0000
v -4.5000 2.0000 4.0000
v -4.5000 2.0000 3.0000
v -4.5000 3.0000 3.0000
v -4.5000 3.0000 4.0000
v -4.5000 4.0000 4.0000
v -4.5000 5.0000 4.0000
v -4.5000 5.0000 3.0000
v -5.5000 -2.0000 2.0000
v -4.5000 -2.0000 2.0000
v -5.5000 -1.0000 2.0000
v -4.5000 0.0000 2.0000
v -4.5000 -1.0000 2.0000
v -4.5000 2.0000 2.0000
v -5.5000 2.0000 2.0000
v -4.5000 3.0000 2.0000
v -4.5000 5.0000 2.0000
v -4.5000 -1.0000 1.0000
v -5.5000 -1.0000 1.0000
v -5.5000 -2.0000 1.0000
v -4.5000 -2.0000 1.0000
v -4.5000 0.0000 1.0000
v -4.5000 1.0000 1.0000
v -4.5000 6.0000 2.0000
v -4.5000 6.0000 1.0000
v -4.5000 5.0000 1.0000
v -4.5000 -1.0000 -0.0000
v -5.5000 -1.0000 -0.0000
v -5.5000 -2.0000 -0.0000
v -4.5000 -2.0000 -0.0000
v -5.5000 1.0000 -0.0000
v -4.5000 1.0000 -0.0000
v -4.5000 2.0000 1.0000
v -4.5000 2.0000 -0.0000
v -4.5000 3.0000 -0.0000
v -4.5000 3.0000 1.0000
v -4.5000 6.0000 -0.0000
v -5.5000 6.0000 -0.0000
v -4.5000 5.0000 -0.0000
v -5.5000 0.0000 -0.0000
v -5.5000 0.0000 -1.0000
v -4.5000 0.0000 -1.0000
v -4.5000 0.0000 -0.0000
v -4.5000 1.0000 -1.0000
v -4.5000 2.0000 -1.0000
v -4.5000 3.0000 -1.0000
v -4.5000 5.0000 -1.0000
v -4.5000 4.0000 -1.0000
v -4.5000 1.0000 -2.0000
v -4.5000 2.0000 -2.0000
v -4.5000 3.0000 -2.0000
v -4.5000 4.0000 -2.0000
v -4.5000 1.0000 -3.0000
v -5.5000 1.0000 -3.0000
v -5.5000 0.0000 -2.0000
v -5.5000 0.0000 -3.0000
v -4.5000 0.0000 -3.0000
v -4.5000 0.0000 -2.0000
v -4.5000 4.0000 8.0000
v -4.5000 4.0000 7.0000
v -3.5000 4.0000 7.0000
v -3.5000 4.0000 8.0000
v -3.5000 5.0000 8.0000
v -4.5000 5.0000 8.0000
v -3.5000 5.0000 7.0000
v -4.5000 5.0000 7.0000
v -3.5000 6.0000 8.0000
v -4.5000 6.0000 8.0000
v -3.5000 6.0000 7.0000
v -4.5000 6.0000 7.0000
v -4.5000 7.0000 8.0000
v -3.5000 7.0000 8.0000
v -3.5000 7.0000 7.0000
v -4.5000 7.0000 7.0000
v -4.5000 4.0000 6.0000
v -3.5000 4.0000 6.0000
v -3.5000 5.0000 6.0000
v -4.5000 5.0000 6.0000
v -3.5000 7.0000 6.0000
v -4.5000 4.0000 5.0000
v -3.5000 4.0000 5.0000
v -3.5000 5.0000 5.0000
v -4.5000 5.0000 5.0000
v -3.5000 7.0000 5.0000
v -3.5000 -1.0000 4.0000
v -3.5000 -1.0000 5.0000
v -3.5000 0.0000 5.0000
v -3.5000 1.0000 5.0000
v -3.5000 1.0000 4.0000
v -3.5000 4.0000 4.0000
v -3.5000 5.0000 4.0000
v -3.5000 6.0000 4.0000
v -3.5000 6.0000 5.0000
v -4.5000 6.0000 4.0000
v -3.5000 7.0000 4.0000
v -4.5000 7.0000 4.0000
v -3.5000 -2.0000 3.0000
v -3.5000 -2.0000 4.0000
v -3.5000 2.0000 4.0000
v -3.5000 2.0000 3.0000
v -3.5000 3.0000 3.0000
v -3.5000 3.0000 4.0000
v -3.5000 4.0000 3.0000
v -3.5000 5.0000 3.0000
v -4.5000 6.0000 3.0000
v -3.5000 6.0000 3.0000
v -3.5000 7.0000 3.0000
v -4.5000 7.0000 3.0000
v -3.5000 -2.0000 2.0000
v -3.5000 -1.0000 2.0000
v -3.5000 0.0000 2.0000
v -3.5000 2.0000 2.0000
v -3.5000 3.0000 2.0000
v -3.5000 4.0000 2.0000
v -3.5000 5.0000 2.0000
v -3.5000 0.0000 1.0000
v -3.5000 3.0000 1.0000
v -3.5000 2.0000 1.0000
v -3.5000 5.0000 1.0000
v -3.5000 -1.0000 1.0000
v -3.5000 -1.0000 -0.0000
v -3.5000 -2.0000 -0.0000
v -3.5000 -2.0000 1.0000
v -3.5000 0.0000 -0.0000
v -3.5000 2.0000 -0.0000
v -3.5000 1.0000 -0.0000
v -3.5000 3.0000 -0.0000
v -3.5000 6.0000 1.0000
v -3.5000 6.0000 -0.0000
v -3.5000 5.0000 -0.0000
v -3.5000 1.0000 -1.0000
v -3.5000 0.0000 -1.0000
v -3.5000 3.0000 -1.0000
v -3.5000 5.0000 -1.0000
v -3.5000 0.0000 -2.0000
v -3.5000 2.0000 -1.0000
v -3.5000 2.0000 -2.0000
v -3.5000 3.0000 -2.0000
v -3.5000 5.0000 -2.0000
v -4.5000 5.0000 -2.0000
v -3.5000 0.0000 -3.0000
v -4.5000 2.0000 -3.0000
v -4.5000 3.0000 -3.0000
v -3.5000 3.0000 -3.0000
v -3.5000 2.0000 -3.0000
v -4.5000 4.0000 -3.0000
v -3.5000 4.0000 -3.0000
v -3.5000 5.0000 -3.0000
v -4.5000 5.0000 -3.0000
v -4.5000 0.0000 -4.0000
v -3.5000 0.0000 -4.0000
v -4.5000 1.0000 -4.0000
v -3.5000 2.0000 -4.0000
v -4.5000 2.0000 -4.0000
v -4.5000 0.0000 -5.0000
v -3.5000 0.0000 -5.0000
v -4.5000 1.0000 -5.0000
v -3.5000 2.0000 -5.0000
v -4.5000 2.0000 -5.0000
v -4.5000 0.0000 -6.0000
v -3.5000 0.0000 -6.0000
v -4.5000 1.0000 -6.0000
v -3.5000 1.0000 -6.0000
v -4.5000 2.0000 -6.0000
v -3.5000 2.0000 -6.0000
v -4.5000 3.0000 -5.0000
v -3.5000 3.0000 -5.0000
v -3.5000 3.0000 -6.0000
v -4.5000 3.0000 -6.0000
v -3.5000 3.0000 -7.0000
v -4.5000 3.0000 -7.0000
v -4.5000 2.0000 -7.0000
v -3.5000 2.0000 -7.0000
v -2.5000 5.0000 6.0000
v -2.5000 5.0000 7.0000
v -2.5000 6.0000 7.0000
v -2.5000 6.0000 6.0000
v -2.5000 7.0000 7.0000
v -2.5000 7.0000 6.0000
v -2.5000 5.0000 5.0000
v -2.5000 6.0000 5.0000
v -2.5000 7.0000 5.0000
v -2.5000 -1.0000 4.0000
v -2.5000 -1.0000 5.0000
v -2.5000 0.0000 5.0000
v -2.5000 1.0000 5.0000
v -2.5000 1.0000 4.0000
v -2.5000 0.0000 4.0000
v -2.5000 -2.0000 3.0000
v -2.5000 -2.0000 4.0000
v -2.5000 2.0000 4.0000
v -2.5000 2.0000 3.0000
v -2.5000 -2.0000 2.0000
v -2.5000 -1.0000 2.0000
v -2.5000 0.0000 2.0000
v -2.5000 2.0000 2.0000
v -2.5000 5.0000 3.0000
v -2.5000 5.0000 2.0000
v -2.5000 4.0000 2.0000
v -2.5000 4.0000 3.0000
v -2.5000 0.0000 1.0000
v -2.5000 1.0000 1.0000
v -2.5000 1.0000 2.0000
v -2.5000 2.0000 1.0000
v -2.5000 3.0000 2.0000
v -2.5000 3.0000 1.0000
v -2.5000 5.0000 1.0000
v -2.5000 -1.0000 1.0000
v -2.5000 -1.0000 -0.0000
v -2.5000 -2.0000 -0.0000
v -2.5000 -2.0000 1.0000
v -2.5000 0.0000 -0.0000
v -2.5000 2.0000 -0.0000
v -2.5000 3.0000 -0.0000
v -2.5000 5.0000 -0.0000
v -3.5000 -2.0000 -1.0000
v -2.5000 -2.0000 -1.0000
v -3.5000 -1.0000 -1.0000
v -2.5000 -1.0000 -1.0000
v -2.5000 0.0000 -1.0000
v -2.5000 1.0000 -1.0000
v -2.5000 1.0000 -0.0000
v -2.5000 2.0000 -1.0000
v -2.5000 3.0000 -1.0000
v -2.5000 6.0000 -0.0000
v -2.5000 6.0000 -1.0000
v -3.5000 6.0000 -1.0000
v -2.5000 0.0000 -2.0000
v -2.5000 2.0000 -2.0000
v -2.5000 3.0000 -2.0000
v -2.5000 6.0000 -2.0000
v -3.5000 6.0000 -2.0000
v -2.5000 5.0000 -2.0000
v -2.5000 0.0000 -3.0000
v -2.5000 3.0000 -3.0000
v -2.5000 2.0000 -3.0000
v -2.5000 5.0000 -3.0000
v -2.5000 4.0000 -3.0000
v -2.5000 0.0000 -4.0000
v -2.5000 2.0000 -4.0000
v -2.5000 4.0000 -4.0000
v -3.5000 4.0000 -4.0000
v -3.5000 3.0000 -4.0000
v -2.5000 3.0000 -4.0000
v -2.5000 0.0000 -5.0000
v -2.5000 2.0000 -5.0000
v -2.5000 4.0000 -5.0000
v -3.5000 4.0000 -5.0000
v -2.5000 3.0000 -5.0000
v -2.5000 0.0000 -6.0000
v -2.5000 1.0000 -6.0000
v -2.5000 2.0000 -6.0000
v -2.5000 4.0000 -6.0000
v -3.5000 4.0000 -6.0000
v -2.5000 3.0000 -6.0000
v -2.5000 9.0000 7.0000
v -1.5000 9.0000 7.0000
v -1.5000 9.0000 6.0000
v -2.5000 9.0000 6.0000
v -2.5000 8.0000 7.0000
v -2.5000 8.0000 6.0000
v -1.5000 8.0000 6.0000
v -1.5000 8.0000 7.0000
v -2.5000 4.0000 6.0000
v -2.5000 4.0000 5.0000
v -1.5000 4.0000 5.0000
v -1.5000 4.0000 6.0000
v -1.5000 5.0000 6.0000
v -1.5000 5.0000 5.0000
v -1.5000 6.0000 6.0000
v -1.5000 6.0000 5.0000
v -1.5000 7.0000 5.0000
v -1.5000 7.0000 6.0000
v -1.5000 8.0000 5.0000
v -2.5000 8.0000 5.0000
v -1.5000 9.0000 5.0000
v -2.5000 9.0000 5.0000
v -1.5000 0.0000 5.0000
v -1.5000 0.0000 4.0000
v -1.5000 -1.0000 4.0000
v -1.5000 -1.0000 5.0000
v -2.5000 2.0000 5.0000
v -1.5000 2.0000 5.0000
v -1.5000 2.0000 4.0000
v -1.5000 1.0000 4.0000
v -1.5000 1.0000 5.0000
v -2.5000 3.0000 5.0000
v -2.5000 3.0000 4.0000
v -1.5000 3.0000 4.0000
v -1.5000 3.0000 5.0000
v -2.5000 4.0000 4.0000
v -1.5000 5.0000 4.0000
v -2.5000 5.0000 4.0000
v -1.5000 4.0000 4.0000
v -2.5000 6.0000 4.0000
v -1.5000 6.0000 4.0000
v -2.5000 7.0000 4.0000
v -1.5000 7.0000 4.0000
v -1.5000 8.0000 4.0000
v -2.5000 8.0000 4.0000
v -1.5000 -2.0000 3.0000
v -1.5000 -2.0000 4.0000
v -1.5000 -1.0000 3.0000
v -1.5000 2.0000 3.0000
v -2.5000 3.0000 3.0000
v -1.5000 3.0000 3.0000
v -1.5000 4.0000 3.0000
v -1.5000 5.0000 3.0000
v -1.5000 -2.0000 2.0000
v -1.5000 -1.0000 2.0000
v -1.5000 0.0000 2.0000
v -1.5000 1.0000 2.0000
v -1.5000 2.0000 2.0000
v -1.5000 3.0000 2.0000
v -2.5000 6.0000 3.0000
v -1.5000 6.0000 3.0000
v -1.5000 6.0000 2.0000
v -2.5000 6.0000 2.0000
v -1.5000 3.0000 1.0000
v -1.5000 6.0000 1.0000
v -2.5000 6.0000 1.0000
v -2.5000 -8.0000 1.0000
v -1.5000 -8.0000 1.0000
v -1.5000 -8.0000 -0.0000
v -2.5000 -8.0000 -0.0000
v -2.5000 -9.0000 1.0000
v -2.5000 -9.0000 -0.0000
v -1.5000 -9.0000 -0.0000
v -1.5000 -9.0000 1.0000
v -1.5000 -1.0000 -0.0000
v -1.5000 -1.0000 1.0000
v -1.5000 0.0000 1.0000
v -1.5000 1.0000 1.0000
v -1.5000 1.0000 -0.0000
v -1.5000 0.0000 -0.0000
v -1.5000 2.0000 1.0000
v -1.5000 2.0000 -0.0000
v -1.5000 3.0000 -0.0000
v -2.5000 7.0000 1.0000
v -1.5000 7.0000 1.0000
v -1.5000 7.0000 -0.0000
v -2.5000 7.0000 -0.0000
v -1.5000 -2.0000 -1.0000
v -1.5000 -2.0000 -0.0000
v -1.5000 0.0000 -1.0000
v -1.5000 -1.0000 -1.0000
v -1.5000 2.0000 -1.0000
v -1.5000 1.0000 -1.0000
v -1.5000 3.0000 -1.0000
v -1.5000 7.0000 -1.0000
v -2.5000 7.0000 -1.0000
v -2.5000 -8.0000 -1.0000
v -1.5000 -8.0000 -1.0000
v -1.5000 -8.0000 -2.0000
v -2.5000 -8.0000 -2.0000
v -2.5000 -9.0000 -1.0000
v -2.5000 -9.0000 -2.0000
v -1.5000 -9.0000 -2.0000
v -1.5000 -9.0000 -1.0000
v -1.5000 -1.0000 -2.0000
v -2.5000 -1.0000 -2.0000
v -2.5000 -2.0000 -2.0000
v -1.5000 -2.0000 -2.0000
v -1.5000 0.0000 -2.0000
v -1.5000 2.0000 -2.0000
v -1.5000 3.0000 -2.0000
v -1.5000 7.0000 -2.0000
v -2.5000 7.0000 -2.0000
v -1.5000 6.0000 -2.0000
v -1.5000 0.0000 -3.0000
v -1.5000 3.0000 -3.0000
v -1.5000 4.0000 -3.0000
v -1.5000 4.0000 -2.0000
v -1.5000 5.0000 -3.0000
v -1.5000 6.0000 -3.0000
v -2.5000 6.0000 -3.0000
v -1.5000 0.0000 -4.0000
v -1.5000 3.0000 -4.0000
v -1.5000 2.0000 -4.0000
v -1.5000 4.0000 -4.0000
v -1.5000 6.0000 -4.0000
v -2.5000 6.0000 -4.0000
v -2.5000 5.0000 -4.0000
v -1.5000 5.0000 -4.0000
v -1.5000 0.0000 -5.0000
v -1.5000 2.0000 -5.0000
v -1.5000 0.0000 -6.0000
v -1.5000 2.0000 -6.0000
v -2.5000 0.0000 -7.0000
v -1.5000 0.0000 -7.0000
v -2.5000 1.0000 -7.0000
v -1.5000 2.0000 -7.0000
v -2.5000 2.0000 -7.0000
v -2.5000 0.0000 -8.0000
v -1.5000 0.0000 -8.0000
v -2.5000 1.0000 -8.0000
v -1.5000 1.0000 -8.0000
v -1.5000 2.0000 -8.0000
v -2.5000 2.0000 -8.0000
v -1.5000 6.0000 8.0000
v -0.5000 6.0000 8.0000
v -0.5000 6.0000 7.0000
v -1.5000 6.0000 7.0000
v -1.5000 5.0000 8.0000
v -1.5000 5.0000 7.0000
v -0.5000 5.0000 7.0000
v -0.5000 5.0000 8.0000
v -0.5000 5.0000 6.0000
v -1.5000 7.0000 7.0000
v -0.5000 7.0000 7.0000
v -0.5000 7.0000 6.0000
v -0.5000 5.0000 5.0000
v -0.5000 7.0000 5.0000
v -0.5000 0.0000 5.0000
v -0.5000 0.0000 4.0000
v -0.5000 -1.0000 4.0000
v -0.5000 -1.0000 5.0000
v -0.5000 2.0000 4.0000
v -0.5000 2.0000 5.0000
v -0.5000 3.0000 5.0000
v -0.5000 3.0000 4.0000
v -0.5000 4.0000 5.0000
v -0.5000 4.0000 4.0000
v -0.5000 5.0000 4.0000
v -0.5000 8.0000 5.0000
v -0.5000 8.0000 4.0000
v -0.5000 7.0000 4.0000
v -0.5000 -1.0000 3.0000
v -0.5000 1.0000 4.0000
v -0.5000 3.0000 3.0000
v -0.5000 5.0000 3.0000
v -0.5000 7.0000 3.0000
v -1.5000 7.0000 3.0000
v -0.5000 6.0000 3.0000
v -0.5000 -2.0000 2.0000
v -0.5000 -2.0000 3.0000
v -0.5000 -1.0000 2.0000
v -0.5000 0.0000 2.0000
v -0.5000 0.0000 3.0000
v -0.5000 1.0000 2.0000
v -0.5000 1.0000 3.0000
v -0.5000 3.0000 2.0000
v -0.5000 2.0000 2.0000
v -0.5000 2.0000 3.0000
v -0.5000 4.0000 3.0000
v -0.5000 4.0000 2.0000
v -0.5000 5.0000 2.0000
v -0.5000 6.0000 2.0000
v -0.5000 -2.0000 1.0000
v -1.5000 -2.0000 1.0000
v -1.5000 -3.0000 2.0000
v -1.5000 -3.0000 1.0000
v -0.5000 -3.0000 1.0000
v -0.5000 -3.0000 2.0000
v -0.5000 2.0000 1.0000
v -0.5000 1.0000 1.0000
v -0.5000 3.0000 1.0000
v -1.5000 7.0000 2.0000
v -0.5000 7.0000 2.0000
v -0.5000 7.0000 1.0000
v -0.5000 -8.0000 1.0000
v -0.5000 -8.0000 -0.0000
v -0.5000 -9.0000 -0.0000
v -0.5000 -9.0000 1.0000
v -1.5000 -7.0000 1.0000
v -1.5000 -7.0000 -0.0000
v -0.5000 -7.0000 -0.0000
v -0.5000 -7.0000 1.0000
v -0.5000 -6.0000 1.0000
v -1.5000 -6.0000 1.0000
v -1.5000 -6.0000 -0.0000
v -0.5000 -6.0000 -0.0000
v -0.5000 -5.0000 1.0000
v -1.5000 -5.0000 1.0000
v -1.5000 -5.0000 -0.0000
v -1.5000 -4.0000 1.0000
v -0.5000 -4.0000 1.0000
v -0.5000 -4.0000 -0.0000
v -1.5000 -4.0000 -0.0000
v -0.5000 -5.0000 -0.0000
v -1.5000 -3.0000 -0.0000
v -0.5000 -3.0000 -0.0000
v -0.5000 -2.0000 -0.0000
v -0.5000 -1.0000 1.0000
v -0.5000 0.0000 1.0000
v -0.5000 0.0000 -0.0000
v -0.5000 -1.0000 -0.0000
v -0.5000 3.0000 -0.0000
v -0.5000 7.0000 -0.0000
v -0.5000 -9.0000 -1.0000
v -0.5000 -7.0000 -1.0000
v -1.5000 -7.0000 -1.0000
v -0.5000 -8.0000 -1.0000
v -0.5000 -5.0000 -1.0000
v -1.5000 -5.0000 -1.0000
v -1.5000 -6.0000 -1.0000
v -0.5000 -6.0000 -1.0000
v -0.5000 -1.0000 -1.0000
v -0.5000 -2.0000 -1.0000
v -0.5000 2.0000 -0.0000
v -0.5000 2.0000 -1.0000
v -0.5000 1.0000 -1.0000
v -0.5000 1.0000 -0.0000
v -0.5000 3.0000 -1.0000
v -0.5000 7.0000 -1.0000
v -0.5000 -8.0000 -2.0000
v -0.5000 -9.0000 -2.0000
v -1.5000 -7.0000 -2.0000
v -0.5000 -7.0000 -2.0000
v -1.5000 -6.0000 -2.0000
v -0.5000 -6.0000 -2.0000
v -1.5000 -5.0000 -2.0000
v -1.5000 -4.0000 -1.0000
v -0.5000 -4.0000 -1.0000
v -0.5000 -4.0000 -2.0000
v -1.5000 -4.0000 -2.0000
v -0.5000 -5.0000 -2.0000
v -0.5000 -2.0000 -2.0000
v -0.5000 -1.0000 -2.0000
v -0.5000 0.0000 -1.0000
v -0.5000 0.0000 -2.0000
v -0.5000 1.0000 -2.0000
v -0.5000 2.0000 -2.0000
v -0.5000 3.0000 -2.0000
v -0.5000 4.0000 -2.0000
v -0.5000 7.0000 -2.0000
v -0.5000 -5.0000 -3.0000
v -1.5000 -5.0000 -3.0000
v -1.5000 -6.0000 -3.0000
v -0.5000 -6.0000 -3.0000
v -1.5000 -1.0000 -3.0000
v -0.5000 -1.0000 -3.0000
v -0.5000 3.0000 -3.0000
v -0.5000 4.0000 -3.0000
v -0.5000 7.0000 -3.0000
v -1.5000 7.0000 -3.0000
v -1.5000 -1.0000 -4.0000
v -0.5000 -1.0000 -4.0000
v -0.5000 3.0000 -4.0000
v -0.5000 2.0000 -4.0000
v -0.5000 4.0000 -4.0000
v -0.5000 5.0000 -4.0000
v -0.5000 6.0000 -4.0000
v -0.5000 7.0000 -4.0000
v -1.5000 7.0000 -4.0000
v -0.5000 6.0000 -3.0000
v -1.5000 -1.0000 -5.0000
v -0.5000 -1.0000 -5.0000
v -0.5000 0.0000 -5.0000
v -0.5000 2.0000 -5.0000
v -0.5000 0.0000 -6.0000
v -0.5000 1.0000 -6.0000
v -0.5000 1.0000 -5.0000
v -0.5000 2.0000 -6.0000
v -0.5000 0.0000 -7.0000
v -0.5000 1.0000 -7.0000
v -0.5000 2.0000 -7.0000
v -0.5000 0.0000 -8.0000
v -0.5000 1.0000 -8.0000
v -0.5000 2.0000 -8.0000
v -0.5000 4.0000 7.0000
v 0.5000 4.0000 7.0000
v 0.5000 4.0000 6.0000
v -0.5000 4.0000 6.0000
v -0.5000 3.0000 7.0000
v -0.5000 3.0000 6.0000
v 0.5000 3.0000 6.0000
v 0.5000 3.0000 7.0000
v 0.5000 5.0000 6.0000
v 0.5000 5.0000 7.0000
v 0.5000 6.0000 7.0000
v 0.5000 6.0000 6.0000
v 0.5000 7.0000 7.0000
v 0.5000 7.0000 6.0000
v 0.5000 4.0000 5.0000
v 0.5000 3.0000 5.0000
v 0.5000 5.0000 5.0000
v 0.5000 6.0000 5.0000
v -0.5000 8.0000 6.0000
v 0.5000 8.0000 6.0000
v 0.5000 8.0000 5.0000
v 0.5000 7.0000 5.0000
v 0.5000 -1.0000 4.0000
v 0.5000 -1.0000 5.0000
v 0.5000 0.0000 5.0000
v -0.5000 1.0000 5.0000
v 0.5000 1.0000 5.0000
v 0.5000 1.0000 4.0000
v 0.5000 4.0000 4.0000
v 0.5000 3.0000 4.0000
v 0.5000 5.0000 4.0000
v 0.5000 6.0000 4.0000
v 0.5000 8.0000 4.0000
v 0.5000 -1.0000 3.0000
v 0.5000 0.0000 3.0000
v 0.5000 1.0000 3.0000
v 0.5000 2.0000 4.0000
v 0.5000 3.0000 3.0000
v 0.5000 2.0000 3.0000
v 0.5000 5.0000 3.0000
v 0.5000 6.0000 3.0000
v 0.5000 8.0000 3.0000
v -0.5000 8.0000 3.0000
v 0.5000 7.0000 4.0000
v 0.5000 7.0000 3.0000
v 0.5000 -1.0000 2.0000
v 0.5000 -2.0000 2.0000
v 0.5000 -2.0000 3.0000
v 0.5000 2.0000 2.0000
v 0.5000 1.0000 2.0000
v 0.5000 5.0000 2.0000
v 0.5000 8.0000 2.0000
v -0.5000 8.0000 2.0000
v -0.5000 -4.0000 2.0000
v 0.5000 -4.0000 1.0000
v 0.5000 -4.0000 2.0000
v 0.5000 -3.0000 2.0000
v 0.5000 -1.0000 1.0000
v 0.5000 2.0000 1.0000
v 0.5000 1.0000 1.0000
v 0.5000 3.0000 1.0000
v 0.5000 3.0000 2.0000
v 0.5000 4.0000 2.0000
v 0.5000 8.0000 1.0000
v -0.5000 8.0000 1.0000
v 0.5000 -9.0000 -0.0000
v 0.5000 -9.0000 1.0000
v 0.5000 -8.0000 1.0000
v 0.5000 -7.0000 1.0000
v 0.5000 -7.0000 -0.0000
v 0.5000 -8.0000 -0.0000
v 0.5000 -5.0000 1.0000
v 0.5000 -5.0000 -0.0000
v 0.5000 -6.0000 -0.0000
v 0.5000 -6.0000 1.0000
v 0.5000 -4.0000 -0.0000
v 0.5000 -1.0000 -0.0000
v 0.5000 -2.0000 -0.0000
v 0.5000 2.0000 -0.0000
v 0.5000 1.0000 -0.0000
v 0.5000 3.0000 -0.0000
v 0.5000 8.0000 -0.0000
v -0.5000 8.0000 -0.0000
v 0.5000 -9.0000 -1.0000
v 0.5000 -8.0000 -1.0000
v 0.5000 -7.0000 -1.0000
v 0.5000 -6.0000 -1.0000
v 0.5000 -5.0000 -1.0000
v 0.5000 -4.0000 -1.0000
v 0.5000 -3.0000 -1.0000
v 0.5000 -3.0000 -0.0000
v -0.5000 -3.0000 -1.0000
v 0.5000 -2.0000 -1.0000
v 0.5000 2.0000 -1.0000
v 0.5000 1.0000 -1.0000
v 0.5000 3.0000 -1.0000
v 0.5000 8.0000 -1.0000
v -0.5000 8.0000 -1.0000
v 0.5000 7.0000 -1.0000
v 0.5000 -9.0000 -2.0000
v 0.5000 -8.0000 -2.0000
v 0.5000 -7.0000 -2.0000
v 0.5000 -6.0000 -2.0000
v 0.5000 -4.0000 -2.0000
v 0.5000 -5.0000 -2.0000
v 0.5000 -3.0000 -2.0000
v -0.5000 -3.0000 -2.0000
v 0.5000 -2.0000 -2.0000
v 0.5000 -1.0000 -1.0000
v 0.5000 -1.0000 -2.0000
v 0.5000 0.0000 -1.0000
v 0.5000 0.0000 -2.0000
v 0.5000 2.0000 -2.0000
v 0.5000 1.0000 -2.0000
v 0.5000 3.0000 -2.0000
v 0.5000 7.0000 -2.0000
v 0.5000 6.0000 -1.0000
v 0.5000 6.0000 -2.0000
v 0.5000 -5.0000 -3.0000
v 0.5000 -6.0000 -3.0000
v 0.5000 -1.0000 -3.0000
v 0.5000 7.0000 -3.0000
v 0.5000 6.0000 -3.0000
v -0.5000 -2.0000 -3.0000
v -0.5000 -2.0000 -4.0000
v 0.5000 -2.0000 -4.0000
v 0.5000 -2.0000 -3.0000
v 0.5000 3.0000 -4.0000
v 0.5000 2.0000 -4.0000
v 0.5000 5.0000 -4.0000
v 0.5000 4.0000 -4.0000
v 0.5000 6.0000 -4.0000
v -0.5000 -2.0000 -5.0000
v 0.5000 -2.0000 -5.0000
v 0.5000 -1.0000 -5.0000
v 0.5000 -1.0000 -4.0000
v 0.5000 0.0000 -5.0000
v 0.5000 0.0000 -4.0000
v 0.5000 1.0000 -5.0000
v 0.5000 1.0000 -4.0000
v 0.5000 2.0000 -5.0000
v 0.5000 4.0000 -5.0000
v -0.5000 4.0000 -5.0000
v -0.5000 3.0000 -5.0000
v 0.5000 3.0000 -5.0000
v 1.5000 7.0000 6.0000
v 1.5000 7.0000 5.0000
v 1.5000 6.0000 5.0000
v 1.5000 6.0000 6.0000
v 0.5000 -2.0000 5.0000
v 0.5000 -2.0000 4.0000
v 1.5000 -2.0000 4.0000
v 1.5000 -2.0000 5.0000
v 1.5000 -1.0000 5.0000
v 1.5000 -1.0000 4.0000
v 1.5000 0.0000 5.0000
v 1.5000 0.0000 4.0000
v 1.5000 1.0000 5.0000
v 1.5000 1.0000 4.0000
v 1.5000 6.0000 4.0000
v 1.5000 7.0000 4.0000
v 1.5000 8.0000 5.0000
v 1.5000 8.0000 4.0000
v 1.5000 -2.0000 3.0000
v 1.5000 -1.0000 3.0000
v 1.5000 0.0000 3.0000
v 1.5000 2.0000 4.0000
v 1.5000 2.0000 3.0000
v 1.5000 7.0000 3.0000
v 1.5000 6.0000 3.0000
v 1.5000 -2.0000 2.0000
v 1.5000 -1.0000 2.0000
v 1.5000 0.0000 2.0000
v 0.5000 0.0000 2.0000
v 1.5000 1.0000 2.0000
v 1.5000 1.0000 3.0000
v 1.5000 2.0000 2.0000
v 1.5000 3.0000 2.0000
v 1.5000 3.0000 3.0000
v 1.5000 4.0000 3.0000
v 0.5000 4.0000 3.0000
v 1.5000 5.0000 3.0000
v 1.5000 8.0000 3.0000
v 1.5000 8.0000 2.0000
v 1.5000 -4.0000 1.0000
v 1.5000 -4.0000 2.0000
v 1.5000 -3.0000 2.0000
v 1.5000 -3.0000 1.0000
v 1.5000 0.0000 1.0000
v 0.5000 0.0000 1.0000
v 1.5000 2.0000 1.0000
v 1.5000 1.0000 1.0000
v 1.5000 3.0000 1.0000
v 1.5000 8.0000 1.0000
v 1.5000 -8.0000 1.0000
v 1.5000 -8.0000 -0.0000
v 1.5000 -9.0000 -0.0000
v 1.5000 -9.0000 1.0000
v 1.5000 -6.0000 1.0000
v 1.5000 -6.0000 -0.0000
v 1.5000 -7.0000 -0.0000
v 1.5000 -7.0000 1.0000
v 1.5000 -5.0000 -0.0000
v 1.5000 -5.0000 1.0000
v 1.5000 -4.0000 -0.0000
v 1.5000 -3.0000 -0.0000
v 1.5000 -2.0000 -0.0000
v 1.5000 0.0000 -0.0000
v 0.5000 0.0000 -0.0000
v 1.5000 1.0000 -0.0000
v 1.5000 2.0000 -0.0000
v 1.5000 3.0000 -0.0000
v 1.5000 6.0000 1.0000
v 1.5000 6.0000 -0.0000
v 1.5000 7.0000 -0.0000
v 1.5000 7.0000 1.0000
v 1.5000 8.0000 -0.0000
v 1.5000 -8.0000 -1.0000
v 1.5000 -9.0000 -1.0000
v 1.5000 -6.0000 -1.0000
v 1.5000 -7.0000 -1.0000
v 1.5000 -2.0000 -1.0000
v 1.5000 -1.0000 -1.0000
v 1.5000 -1.0000 -0.0000
v 1.5000 0.0000 -1.0000
v 1.5000 1.0000 -1.0000
v 1.5000 3.0000 -1.0000
v 1.5000 2.0000 -1.0000
v 1.5000 7.0000 -1.0000
v 1.5000 6.0000 -1.0000
v 1.5000 8.0000 -1.0000
v 1.5000 -8.0000 -2.0000
v 1.5000 -9.0000 -2.0000
v 1.5000 -6.0000 -2.0000
v 1.5000 -5.0000 -1.0000
v 1.5000 -5.0000 -2.0000
v 1.5000 -4.0000 -1.0000
v 1.5000 -4.0000 -2.0000
v 1.5000 -3.0000 -2.0000
v 1.5000 -3.0000 -1.0000
v 1.5000 0.0000 -2.0000
v 1.5000 2.0000 -2.0000
v 1.5000 1.0000 -2.0000
v 1.5000 3.0000 -2.0000
v 1.5000 6.0000 -2.0000
v 0.5000 -3.0000 -3.0000
v 1.5000 -3.0000 -3.0000
v 1.5000 -2.0000 -3.0000
v 1.5000 -2.0000 -2.0000
v 1.5000 -1.0000 -3.0000
v 1.5000 -1.0000 -2.0000
v 1.5000 6.0000 -3.0000
v 1.5000 -2.0000 -4.0000
v 1.5000 -1.0000 -4.0000
v 1.5000 0.0000 -4.0000
v 1.5000 1.0000 -4.0000
v 1.5000 3.0000 -4.0000
v 1.5000 2.0000 -4.0000
v 1.5000 4.0000 -4.0000
v 1.5000 5.0000 -4.0000
v 1.5000 6.0000 -4.0000
v 1.5000 2.0000 -5.0000
v 1.5000 1.0000 -5.0000
v 2.5000 1.0000 5.0000
v 2.5000 1.0000 4.0000
v 2.5000 0.0000 4.0000
v 2.5000 0.0000 5.0000
v 2.5000 0.0000 3.0000
v 2.5000 1.0000 3.0000
v 2.5000 2.0000 4.0000
v 2.5000 2.0000 3.0000
v 2.5000 2.0000 2.0000
v 2.5000 1.0000 2.0000
v 2.5000 3.0000 2.0000
v 2.5000 3.0000 3.0000
v 2.5000 4.0000 3.0000
v 2.5000 5.0000 3.0000
v 2.5000 6.0000 3.0000
v 2.5000 7.0000 3.0000
v 2.5000 8.0000 3.0000
v 2.5000 8.0000 2.0000
v 2.5000 -3.0000 1.0000
v 2.5000 -3.0000 2.0000
v 2.5000 -2.0000 2.0000
v 2.5000 -1.0000 2.0000
v 2.5000 -2.0000 1.0000
v 2.5000 -1.0000 1.0000
v 2.5000 0.0000 2.0000
v 2.5000 0.0000 1.0000
v 2.5000 2.0000 1.0000
v 2.5000 1.0000 1.0000
v 2.5000 3.0000 1.0000
v 2.5000 7.0000 1.0000
v 2.5000 6.0000 1.0000
v 2.5000 8.0000 1.0000
v 2.5000 -3.0000 -0.0000
v 2.5000 -1.0000 -0.0000
v 2.5000 -2.0000 -0.0000
v 2.5000 0.0000 -0.0000
v 2.5000 1.0000 -0.0000
v 2.5000 2.0000 -0.0000
v 2.5000 3.0000 -0.0000
v 2.5000 6.0000 -0.0000
v 2.5000 -2.0000 -1.0000
v 2.5000 -3.0000 -1.0000
v 2.5000 0.0000 -1.0000
v 2.5000 2.0000 -1.0000
v 2.5000 3.0000 -1.0000
v 2.5000 6.0000 -1.0000
v 2.5000 -3.0000 -2.0000
v 2.5000 -2.0000 -2.0000
v 2.5000 -1.0000 -1.0000
v 2.5000 -1.0000 -2.0000
v 2.5000 2.0000 -2.0000
v 2.5000 3.0000 -2.0000
v 2.5000 7.0000 -1.0000
v 2.5000 7.0000 -2.0000
v 1.5000 7.0000 -2.0000
v 2.5000 -1.0000 -3.0000
v 2.5000 7.0000 -3.0000
v 1.5000 7.0000 -3.0000
v 2.5000 6.0000 -3.0000
v 2.5000 -1.0000 -4.0000
v 2.5000 0.0000 -4.0000
v 2.5000 2.0000 -4.0000
v 2.5000 1.0000 -4.0000
v 2.5000 3.0000 -4.0000
v 2.5000 4.0000 -4.0000
v 2.5000 6.0000 -4.0000
v 2.5000 5.0000 -4.0000
v 2.5000 1.0000 -5.0000
v 1.5000 0.0000 -5.0000
v 2.5000 0.0000 -5.0000
v 2.5000 5.0000 -5.0000
v 1.5000 5.0000 -5.0000
v 1.5000 4.0000 -5.0000
v 2.5000 4.0000 -5.0000
v 1.5000 0.0000 -6.0000
v 2.5000 0.0000 -6.0000
v 1.5000 1.0000 -6.0000
v 2.5000 1.0000 -6.0000
v 2.5000 2.0000 -5.0000
v 2.5000 2.0000 -6.0000
v 1.5000 2.0000 -6.0000
v 2.5000 2.0000 -7.0000
v 1.5000 2.0000 -7.0000
v 1.5000 1.0000 -7.0000
v 2.5000 1.0000 -7.0000
v 2.5000 4.0000 5.0000
v 2.5000 4.0000 4.0000
v 3.5000 4.0000 4.0000
v 3.5000 4.0000 5.0000
v 3.5000 5.0000 5.0000
v 2.5000 5.0000 5.0000
v 2.5000 5.0000 4.0000
v 2.5000 6.0000 5.0000
v 3.5000 6.0000 5.0000
v 3.5000 6.0000 4.0000
v 2.5000 6.0000 4.0000
v 3.5000 2.0000 4.0000
v 3.5000 2.0000 3.0000
v 3.5000 1.0000 3.0000
v 3.5000 1.0000 4.0000
v 3.5000 4.0000 3.0000
v 3.5000 6.0000 3.0000
v 2.5000 -2.0000 3.0000
v 3.5000 -2.0000 3.0000
v 3.5000 -2.0000 2.0000
v 2.5000 -3.0000 3.0000
v 3.5000 -3.0000 2.0000
v 3.5000 -3.0000 3.0000
v 2.5000 -1.0000 3.0000
v 3.5000 -1.0000 2.0000
v 3.5000 -1.0000 3.0000
v 3.5000 0.0000 3.0000
v 3.5000 0.0000 2.0000
v 3.5000 1.0000 2.0000
v 3.5000 2.0000 2.0000
v 3.5000 3.0000 2.0000
v 3.5000 3.0000 3.0000
v 3.5000 7.0000 3.0000
v 3.5000 8.0000 3.0000
v 3.5000 8.0000 2.0000
v 3.5000 -2.0000 1.0000
v 3.5000 -3.0000 1.0000
v 3.5000 -1.0000 1.0000
v 3.5000 0.0000 1.0000
v 3.5000 1.0000 1.0000
v 3.5000 2.0000 1.0000
v 3.5000 3.0000 1.0000
v 3.5000 7.0000 1.0000
v 3.5000 6.0000 1.0000
v 3.5000 8.0000 1.0000
v 3.5000 -3.0000 -0.0000
v 3.5000 -2.0000 -0.0000
v 3.5000 -1.0000 -0.0000
v 3.5000 0.0000 -0.0000
v 3.5000 2.0000 -0.0000
v 3.5000 1.0000 -0.0000
v 3.5000 3.0000 -0.0000
v 3.5000 6.0000 -0.0000
v 3.5000 5.0000 1.0000
v 3.5000 5.0000 -0.0000
v 3.5000 -1.0000 -1.0000
v 3.5000 0.0000 -1.0000
v 3.5000 6.0000 -1.0000
v 3.5000 5.0000 -1.0000
v 3.5000 -2.0000 -2.0000
v 3.5000 -2.0000 -1.0000
v 3.5000 -1.0000 -2.0000
v 3.5000 0.0000 -2.0000
v 3.5000 1.0000 -2.0000
v 3.5000 1.0000 -1.0000
v 3.5000 7.0000 -1.0000
v 3.5000 7.0000 -2.0000
v 3.5000 6.0000 -2.0000
v 3.5000 -1.0000 -3.0000
v 3.5000 7.0000 -3.0000
v 3.5000 6.0000 -3.0000
v 3.5000 -1.0000 -4.0000
v 3.5000 0.0000 -4.0000
v 3.5000 1.0000 -4.0000
v 3.5000 4.0000 -4.0000
v 3.5000 3.0000 -4.0000
v 3.5000 5.0000 -4.0000
v 3.5000 6.0000 -4.0000
v 3.5000 1.0000 -5.0000
v 3.5000 2.0000 -5.0000
v 3.5000 2.0000 -4.0000
v 3.5000 3.0000 -5.0000
v 2.5000 3.0000 -5.0000
v 3.5000 3.0000 -6.0000
v 2.5000 3.0000 -6.0000
v 3.5000 2.0000 -6.0000
v 3.5000 3.0000 -7.0000
v 2.5000 3.0000 -7.0000
v 3.5000 2.0000 -7.0000
v 4.5000 4.0000 4.0000
v 4.5000 4.0000 5.0000
v 4.5000 5.0000 5.0000
v 4.5000 6.0000 5.0000
v 4.5000 6.0000 4.0000
v 4.5000 1.0000 3.0000
v 4.5000 1.0000 4.0000
v 4.5000 2.0000 4.0000
v 3.5000 3.0000 4.0000
v 4.5000 3.0000 4.0000
v 4.5000 3.0000 3.0000
v 4.5000 4.0000 3.0000
v 4.5000 6.0000 3.0000
v 4.5000 0.0000 3.0000
v 4.5000 0.0000 2.0000
v 4.5000 -1.0000 2.0000
v 4.5000 -1.0000 3.0000
v 4.5000 1.0000 2.0000
v 4.5000 2.0000 2.0000
v 4.5000 3.0000 2.0000
v 4.5000 2.0000 3.0000
v 4.5000 7.0000 3.0000
v 4.5000 8.0000 3.0000
v 4.5000 8.0000 2.0000
v 4.5000 3.0000 1.0000
v 4.5000 4.0000 1.0000
v 4.5000 4.0000 2.0000
v 4.5000 6.0000 1.0000
v 4.5000 5.0000 1.0000
v 4.5000 7.0000 1.0000
v 4.5000 8.0000 1.0000
v 4.5000 7.0000 2.0000
v 4.5000 0.0000 1.0000
v 4.5000 0.0000 -0.0000
v 4.5000 -1.0000 -0.0000
v 4.5000 -1.0000 1.0000
v 4.5000 3.0000 -0.0000
v 4.5000 4.0000 -0.0000
v 4.5000 5.0000 -0.0000
v 4.5000 0.0000 -1.0000
v 4.5000 1.0000 -0.0000
v 4.5000 1.0000 -1.0000
v 4.5000 2.0000 -0.0000
v 4.5000 2.0000 -1.0000
v 4.5000 3.0000 -1.0000
v 4.5000 5.0000 -1.0000
v 4.5000 -1.0000 -1.0000
v 4.5000 -1.0000 -2.0000
v 4.5000 -2.0000 -2.0000
v 4.5000 -2.0000 -1.0000
v 4.5000 1.0000 -2.0000
v 4.5000 2.0000 -2.0000
v 4.5000 6.0000 -1.0000
v 4.5000 6.0000 -2.0000
v 4.5000 -1.0000 -3.0000
v 4.5000 0.0000 -2.0000
v 4.5000 1.0000 -3.0000
v 4.5000 2.0000 -3.0000
v 4.5000 3.0000 -3.0000
v 4.5000 3.0000 -2.0000
v 4.5000 6.0000 -3.0000
v 4.5000 -1.0000 -4.0000
v 4.5000 0.0000 -4.0000
v 4.5000 0.0000 -3.0000
v 4.5000 1.0000 -4.0000
v 4.5000 2.0000 -4.0000
v 4.5000 3.0000 -4.0000
v 4.5000 4.0000 -4.0000
v 4.5000 4.0000 -3.0000
v 4.5000 5.0000 -4.0000
v 4.5000 5.0000 -3.0000
v 4.5000 6.0000 -4.0000
v 3.5000 4.0000 -5.0000
v 4.5000 4.0000 -5.0000
v 3.5000 5.0000 -5.0000
v 4.5000 5.0000 -5.0000
v 4.5000 6.0000 -5.0000
v 3.5000 6.0000 -5.0000
v 4.5000 3.0000 -5.0000
v 4.5000 3.0000 -6.0000
v 4.5000 2.0000 -6.0000
v 4.5000 2.0000 -5.0000
v 4.5000 3.0000 -7.0000
v 4.5000 2.0000 -7.0000
v 4.5000 3.0000 5.0000
v 5.5000 3.0000 5.0000
v 5.5000 3.0000 4.0000
v 4.5000 2.0000 5.0000
v 5.5000 2.0000 4.0000
v 5.5000 2.0000 5.0000
v 5.5000 4.0000 4.0000
v 5.5000 4.0000 5.0000
v 5.5000 5.0000 5.0000
v 5.5000 5.0000 4.0000
v 5.5000 6.0000 5.0000
v 5.5000 6.0000 4.0000
v 5.5000 1.0000 3.0000
v 5.5000 1.0000 4.0000
v 5.5000 2.0000 3.0000
v 5.5000 3.0000 3.0000
v 5.5000 4.0000 3.0000
v 5.5000 5.0000 3.0000
v 5.5000 6.0000 3.0000
v 5.5000 -1.0000 2.0000
v 5.5000 -1.0000 3.0000
v 5.5000 0.0000 3.0000
v 5.5000 0.0000 2.0000
v 5.5000 1.0000 2.0000
v 5.5000 2.0000 2.0000
v 5.5000 3.0000 2.0000
v 5.5000 4.0000 2.0000
v 5.5000 7.0000 3.0000
v 5.5000 6.0000 2.0000
v 5.5000 7.0000 2.0000
v 5.5000 8.0000 3.0000
v 5.5000 8.0000 2.0000
v 5.5000 4.0000 1.0000
v 5.5000 7.0000 1.0000
v 5.5000 -1.0000 -0.0000
v 5.5000 -1.0000 1.0000
v 5.5000 0.0000 1.0000
v 5.5000 0.0000 -0.0000
v 4.5000 1.0000 1.0000
v 5.5000 1.0000 1.0000
v 5.5000 1.0000 -0.0000
v 5.5000 4.0000 -0.0000
v 4.5000 6.0000 -0.0000
v 5.5000 7.0000 -0.0000
v 4.5000 7.0000 -0.0000
v 5.5000 1.0000 -1.0000
v 5.5000 0.0000 -1.0000
v 5.5000 3.0000 -1.0000
v 5.5000 3.0000 -0.0000
v 5.5000 4.0000 -1.0000
v 5.5000 7.0000 -1.0000
v 4.5000 7.0000 -1.0000
v 5.5000 2.0000 -2.0000
v 5.5000 2.0000 -1.0000
v 5.5000 3.0000 -2.0000
v 5.5000 4.0000 -2.0000
v 5.5000 7.0000 -2.0000
v 4.5000 7.0000 -2.0000
v 5.5000 6.0000 -2.0000
v 5.5000 -1.0000 -3.0000
v 5.5000 -1.0000 -2.0000
v 5.5000 0.0000 -2.0000
v 5.5000 0.0000 -3.0000
v 5.5000 1.0000 -2.0000
v 5.5000 1.0000 -3.0000
v 5.5000 3.0000 -3.0000
v 5.5000 4.0000 -3.0000
v 5.5000 5.0000 -3.0000
v 5.5000 6.0000 -3.0000
v 5.5000 2.0000 -3.0000
v 5.5000 2.0000 -4.0000
v 5.5000 1.0000 -4.0000
v 5.5000 4.0000 -4.0000
v 5.5000 3.0000 -4.0000
v 5.5000 3.0000 -5.0000
v 5.5000 4.0000 -5.0000
v 5.5000 5.0000 -4.0000
v 5.5000 5.0000 -5.0000
v 5.5000 5.0000 -6.0000
v 4.5000 5.0000 -6.0000
v 4.5000 4.0000 -6.0000
v 5.5000 4.0000 -6.0000
v 5.5000 3.0000 -6.0000
v 5.5000 3.0000 -7.0000
v 5.5000 2.0000 -7.0000
v 5.5000 2.0000 -6.0000
v 6.5000 -1.0000 2.0000
v 6.5000 -1.0000 3.0000
v 6.5000 0.0000 3.0000
v 6.5000 0.0000 2.0000
v 6.5000 1.0000 3.0000
v 6.5000 1.0000 2.0000
v 6.5000 4.0000 2.0000
v 6.5000 4.0000 3.0000
v 6.5000 5.0000 3.0000
v 6.5000 5.0000 2.0000
v 6.5000 6.0000 3.0000
v 6.5000 6.0000 2.0000
v 6.5000 8.0000 3.0000
v 6.5000 8.0000 2.0000
v 6.5000 7.0000 2.0000
v 6.5000 7.0000 3.0000
v 6.5000 4.0000 1.0000
v 6.5000 5.0000 1.0000
v 6.5000 6.0000 1.0000
v 6.5000 7.0000 1.0000
v 6.5000 4.0000 -0.0000
v 6.5000 5.0000 -0.0000
v 6.5000 7.0000 -0.0000
v 6.5000 6.0000 -0.0000
v 6.5000 1.0000 -0.0000
v 6.5000 1.0000 -1.0000
v 6.5000 0.0000 -1.0000
v 6.5000 0.0000 -0.0000
v 6.5000 4.0000 -1.0000
v 6.5000 5.0000 -1.0000
v 6.5000 7.0000 -1.0000
v 6.5000 6.0000 -1.0000
v 6.5000 4.0000 -2.0000
v 6.5000 5.0000 -2.0000
v 6.5000 6.0000 -2.0000
v 6.5000 7.0000 -2.0000
v 6.5000 4.0000 -3.0000
v 6.5000 5.0000 -3.0000
v 6.5000 6.0000 -3.0000
v 6.5000 1.0000 4.0000
v 7.5000 1.0000 4.0000
v 7.5000 1.0000 3.0000
v 6.5000 0.0000 4.0000
v 7.5000 0.0000 3.0000
v 7.5000 0.0000 4.0000
v 7.5000 1.0000 2.0000
v 7.5000 0.0000 2.0000
v 7.5000 5.0000 2.0000
v 7.5000 5.0000 3.0000
v 7.5000 6.0000 3.0000
v 7.5000 6.0000 2.0000
v 7.5000 7.0000 3.0000
v 7.5000 7.0000 2.0000
v 7.5000 6.0000 1.0000
v 7.5000 7.0000 1.0000
v 7.5000 8.0000 2.0000
v 7.5000 8.0000 1.0000
v 6.5000 8.0000 1.0000
v 7.5000 6.0000 -0.0000
v 7.5000 5.0000 -0.0000
v 7.5000 5.0000 1.0000
v 7.5000 6.0000 -1.0000
v 7.5000 5.0000 -1.0000
v 7.5000 5.0000 -2.0000
v 7.5000 5.0000 -3.0000
v 7.5000 4.0000 -3.0000
v 7.5000 4.0000 -2.0000
v 8.5000 1.0000 4.0000
v 8.5000 1.0000 3.0000
v 8.5000 0.0000 3.0000
v 8.5000 0.0000 4.0000
v 8.5000 1.0000 2.0000
v 8.5000 0.0000 2.0000
vt 0.001953 0.500000
vt 0.005859 0.500000
vt 0.009766 0.500000
vt 0.013672 0.500000
vt 0.017578 0.500000
vt 0.021484 0.500000
vt 0.025391 0.500000
vt 0.029297 0.500000
vn 0.0 -1.0 0.0
vn 0.0 1.0 0.0
vn 0.0 0.0 1.0
vn 0.0 0.0 -1.0
vn -1.0 0.0 0.0
vn 1.0 0.0 0.0
usemtl mat_Manzano_Julian_David_Almonacid_Vanegas_fase_3
s off
f 1/1/2 2/1/2 3/1/2 4/1/2
f 5/1/1 6/1/1 7/1/1 8/1/1
f 5/1/3 8/1/3 2/1/3 1/1/3
f 6/1/4 4/1/4 3/1/4 7/1/4
f 5/1/5 1/1/5 4/1/5 6/1/5
f 9/1/1 10/1/1 11/1/1 12/1/1
f 9/1/3 12/1/3 13/1/3 14/1/3
f 10/1/4 15/1/4 16/1/4 11/1/4
f 9/1/5 14/1/5 15/1/5 10/1/5
f 17/1/2 18/1/2 19/1/2 20/1/2
f 14/1/3 13/1/3 18/1/3 17/1/3
f 15/1/4 20/1/4 19/1/4 16/1/4
f 13/1/6 16/1/6 19/1/6 18/1/6
f 14/1/5 17/1/5 20/1/5 15/1/5
f 21/2/1 22/2/1 23/2/1 24/2/1
f 21/2/3 24/2/3 25/2/3 26/2/3
f 21/2/5 26/2/5 27/2/5 22/2/5
f 10/2/2 11/2/2 28/2/2 29/2/2
f 26/2/3 25/2/3 11/2/3 10/2/3
f 26/2/5 10/2/5 29/2/5 27/2/5
f 22/2/1 30/2/1 31/2/1 23/2/1
f 30/2/4 32/2/4 33/2/4 31/2/4
f 22/2/5 27/2/5 32/2/5 30/2/5
f 29/2/2 28/2/2 34/2/2 35/2/2
f 32/2/4 35/2/4 34/2/4 33/2/4
f 27/2/5 29/2/5 35/2/5 32/2/5
f 8/1/1 7/1/1 36/1/1 37/1/1
f 8/1/3 37/1/3 38/1/3 2/1/3
f 39/1/2 40/1/2 41/1/2 42/1/2
f 2/1/3 38/1/3 40/1/3 39/1/3
f 2/1/5 39/1/5 42/1/5 3/1/5
f 13/1/2 43/1/2 44/1/2 16/1/2
f 12/1/1 11/1/1 45/1/1 46/1/1
f 12/1/3 46/1/3 43/1/3 13/1/3
f 46/1/6 45/1/6 44/1/6 43/1/6
f 7/1/1 47/1/1 48/1/1 36/1/1
f 47/1/4 49/1/4 50/1/4 48/1/4
f 7/1/5 3/1/5 49/1/5 47/1/5
f 49/3/4 51/3/4 52/3/4 50/3/4
f 3/3/5 42/3/5 51/3/5 49/3/5
f 53/1/2 54/1/2 55/1/2 56/1/2
f 42/1/3 41/1/3 54/1/3 53/1/3
f 51/1/4 56/1/4 55/1/4 52/1/4
f 42/1/5 53/1/5 56/1/5 51/1/5
f 24/4/1 23/4/1 57/4/1 58/4/1
f 24/4/3 58/4/3 59/4/3 25/4/3
f 25/1/3 59/1/3 45/1/3 11/1/3
f 11/5/5 16/5/5 60/5/5 28/5/5
f 19/1/2 61/1/2 62/1/2 63/1/2
f 16/1/3 44/1/3 61/1/3 19/1/3
f 16/1/5 19/1/5 63/1/5 60/1/5
f 23/1/1 31/1/1 64/1/1 57/1/1
f 34/1/4 65/1/4 66/1/4 67/1/4
f 28/1/5 60/1/5 65/1/5 34/1/5
f 63/4/2 62/4/2 68/4/2 69/4/2
f 65/4/4 69/4/4 68/4/4 66/4/4
f 60/4/5 63/4/5 69/4/5 65/4/5
f 70/5/2 71/5/2 72/5/2 73/5/2
f 74/5/1 75/5/1 76/5/1 77/5/1
f 74/5/3 77/5/3 71/5/3 70/5/3
f 75/5/4 73/5/4 72/5/4 76/5/4
f 74/5/5 70/5/5 73/5/5 75/5/5
f 31/5/1 78/5/1 79/5/1 64/5/1
f 78/5/4 80/5/4 81/5/4 79/5/4
f 31/5/5 33/5/5 80/5/5 78/5/5
f 34/5/2 67/5/2 82/5/2 83/5/2
f 80/5/4 83/5/4 82/5/4 81/5/4
f 33/5/5 34/5/5 83/5/5 80/5/5
f 84/2/1 85/2/1 86/2/1 87/2/1
f 84/2/3 87/2/3 88/2/3 89/2/3
f 84/2/5 89/2/5 90/2/5 85/2/5
f 91/2/2 92/2/2 93/2/2 94/2/2
f 89/2/3 88/2/3 92/2/3 91/2/3
f 89/2/5 91/2/5 94/2/5 90/2/5
f 85/2/1 95/2/1 96/2/1 86/2/1
f 95/2/4 97/2/4 98/2/4 96/2/4
f 85/2/5 90/2/5 97/2/5 95/2/5
f 94/2/2 93/2/2 99/2/2 100/2/2
f 97/2/4 100/2/4 99/2/4 98/2/4
f 90/2/5 94/2/5 100/2/5 97/2/5
f 101/2/1 37/2/1 102/2/1 103/2/1
f 101/2/3 103/2/3 104/2/3 105/2/3
f 101/2/5 105/2/5 38/2/5 37/2/5
f 106/2/2 107/2/2 108/2/2 40/2/2
f 105/2/3 104/2/3 107/2/3 106/2/3
f 105/2/5 106/2/5 40/2/5 38/2/5
f 37/1/1 36/1/1 109/1/1 102/1/1
f 40/1/2 108/1/2 110/1/2 41/1/2
f 46/1/2 111/1/2 112/1/2 45/1/2
f 113/1/1 59/1/1 114/1/1 115/1/1
f 113/1/3 115/1/3 111/1/3 46/1/3
f 115/1/6 114/1/6 112/1/6 111/1/6
f 113/1/5 46/1/5 45/1/5 59/1/5
f 116/1/1 117/1/1 118/1/1 119/1/1
f 116/1/3 119/1/3 109/1/3 36/1/3
f 117/1/4 48/1/4 120/1/4 118/1/4
f 116/1/5 36/1/5 48/1/5 117/1/5
f 48/1/4 50/1/4 121/1/4 120/1/4
f 50/1/4 52/1/4 122/1/4 121/1/4
f 54/1/2 123/1/2 124/1/2 55/1/2
f 41/1/3 110/1/3 123/1/3 54/1/3
f 52/1/4 55/1/4 124/1/4 122/1/4
f 58/1/1 57/1/1 125/1/1 126/1/1
f 58/1/3 126/1/3 114/1/3 59/1/3
f 45/1/3 112/1/3 127/1/3 44/1/3
f 112/1/6 128/1/6 129/1/6 127/1/6
f 44/1/3 127/1/3 130/1/3 61/1/3
f 127/1/6 129/1/6 131/1/6 130/1/6
f 132/1/2 133/1/2 134/1/2 135/1/2
f 61/1/3 130/1/3 133/1/3 132/1/3
f 130/1/6 131/1/6 134/1/6 133/1/6
f 61/1/5 132/1/5 135/1/5 62/1/5
f 57/1/1 64/1/1 136/1/1 125/1/1
f 128/1/6 137/1/6 138/1/6 129/1/6
f 129/1/6 138/1/6 139/1/6 131/1/6
f 135/1/2 134/1/2 140/1/2 141/1/2
f 68/1/4 141/1/4 140/1/4 139/1/4
f 131/1/6 139/1/6 140/1/6 134/1/6
f 62/1/5 135/1/5 141/1/5 68/1/5
f 71/5/2 142/5/2 143/5/2 72/5/2
f 77/5/1 76/5/1 144/5/1 145/5/1
f 77/5/3 145/5/3 142/5/3 71/5/3
f 76/5/4 72/5/4 143/5/4 144/5/4
f 64/5/1 79/5/1 146/5/1 136/5/1
f 82/1/4 147/1/4 148/1/4 149/1/4
f 67/1/5 66/1/5 147/1/5 82/1/5
f 68/1/2 139/1/2 150/1/2 151/1/2
f 147/1/4 151/1/4 150/1/4 148/1/4
f 138/1/6 148/1/6 150/1/6 139/1/6
f 66/1/5 68/1/5 151/1/5 147/1/5
f 152/5/1 87/5/1 153/5/1 154/5/1
f 152/5/3 154/5/3 146/5/3 79/5/3
f 152/5/5 79/5/5 88/5/5 87/5/5
f 79/5/5 81/5/5 92/5/5 88/5/5
f 82/5/2 149/5/2 155/5/2 156/5/2
f 81/5/5 82/5/5 156/5/5 92/5/5
f 87/5/1 86/5/1 157/5/1 153/5/1
f 156/1/2 155/1/2 158/1/2 159/1/2
f 93/1/4 159/1/4 158/1/4 160/1/4
f 92/1/5 156/1/5 159/1/5 93/1/5
f 161/4/1 162/4/1 163/4/1 164/4/1
f 161/4/3 164/4/3 157/4/3 86/4/3
f 162/4/4 96/4/4 165/4/4 163/4/4
f 161/4/5 86/4/5 96/4/5 162/4/5
f 93/4/2 160/4/2 166/4/2 99/4/2
f 98/4/4 99/4/4 166/4/4 167/4/4
f 98/1/2 167/1/2 168/1/2 169/1/2
f 96/1/1 170/1/1 171/1/1 165/1/1
f 170/1/4 169/1/4 168/1/4 171/1/4
f 165/1/6 171/1/6 168/1/6 167/1/6
f 96/1/5 98/1/5 169/1/5 170/1/5
f 103/2/1 102/2/1 172/2/1 173/2/1
f 103/2/3 173/2/3 174/2/3 104/2/3
f 173/2/6 172/2/6 175/2/6 174/2/6
f 107/2/2 176/2/2 177/2/2 108/2/2
f 104/2/3 174/2/3 176/2/3 107/2/3
f 174/2/6 175/2/6 177/2/6 176/2/6
f 178/4/2 179/4/2 180/4/2 181/4/2
f 182/4/1 183/4/1 184/4/1 185/4/1
f 182/4/3 185/4/3 179/4/3 178/4/3
f 183/4/4 181/4/4 180/4/4 184/4/4
f 182/4/5 178/4/5 181/4/5 183/4/5
f 102/5/1 109/5/1 186/5/1 172/5/1
f 108/5/2 177/5/2 187/5/2 110/5/2
f 119/1/1 118/1/1 188/1/1 189/1/1
f 119/1/3 189/1/3 186/1/3 109/1/3
f 123/1/2 190/1/2 191/1/2 124/1/2
f 110/1/3 187/1/3 190/1/3 123/1/3
f 126/1/1 125/1/1 192/1/1 193/1/1
f 126/1/3 193/1/3 194/1/3 114/1/3
f 112/1/2 195/1/2 196/1/2 128/1/2
f 114/1/3 194/1/3 195/1/3 112/1/3
f 118/1/1 197/1/1 198/1/1 188/1/1
f 118/1/5 120/1/5 199/1/5 197/1/5
f 199/1/4 145/1/4 200/1/4 201/1/4
f 120/1/5 121/1/5 145/1/5 199/1/5
f 121/1/5 122/1/5 142/1/5 145/1/5
f 124/1/2 191/1/2 202/1/2 203/1/2
f 122/1/5 124/1/5 203/1/5 142/1/5
f 125/1/1 136/1/1 204/1/1 192/1/1
f 128/1/2 196/1/2 205/1/2 137/1/2
f 199/2/2 201/2/2 206/2/2 207/2/2
f 197/2/1 208/2/1 209/2/1 198/2/1
f 198/2/6 209/2/6 206/2/6 201/2/6
f 197/2/5 199/2/5 207/2/5 208/2/5
f 145/1/1 144/1/1 210/1/1 200/1/1
f 144/1/4 143/1/4 211/1/4 210/1/4
f 142/1/5 203/1/5 154/1/5 143/1/5
f 203/1/3 202/1/3 204/1/3 136/1/3
f 203/1/5 136/1/5 146/1/5 154/1/5
f 138/1/2 212/1/2 213/1/2 148/1/2
f 137/1/3 205/1/3 212/1/3 138/1/3
f 205/1/6 214/1/6 213/1/6 212/1/6
f 207/3/2 206/3/2 215/3/2 216/3/2
f 208/3/1 217/3/1 218/3/1 209/3/1
f 217/3/4 216/3/4 215/3/4 218/3/4
f 208/3/5 207/3/5 216/3/5 217/3/5
f 143/1/1 219/1/1 220/1/1 211/1/1
f 143/1/5 154/1/5 153/1/5 219/1/5
f 221/1/6 222/1/6 223/1/6 224/1/6
f 148/1/2 213/1/2 225/1/2 226/1/2
f 155/1/4 226/1/4 225/1/4 227/1/4
f 149/1/5 148/1/5 226/1/5 155/1/5
f 228/6/1 229/6/1 230/6/1 231/6/1
f 228/6/3 231/6/3 220/6/3 219/6/3
f 229/6/4 164/6/4 232/6/4 230/6/4
f 228/6/5 219/6/5 164/6/5 229/6/5
f 220/6/6 232/6/6 233/6/6 222/6/6
f 219/6/5 153/6/5 157/6/5 164/6/5
f 222/1/6 233/1/6 234/1/6 223/1/6
f 155/1/2 227/1/2 235/1/2 158/1/2
f 160/1/4 158/1/4 235/1/4 236/1/4
f 164/1/1 163/1/1 237/1/1 232/1/1
f 163/1/4 165/1/4 238/1/4 237/1/4
f 165/6/4 167/6/4 239/6/4 238/6/4
f 160/6/2 236/6/2 240/6/2 166/6/2
f 167/6/4 166/6/4 240/6/4 239/6/4
f 163/2/2 237/2/2 241/2/2 242/2/2
f 243/2/1 244/2/1 245/2/1 246/2/1
f 243/2/3 246/2/3 237/2/3 163/2/3
f 244/2/4 242/2/4 241/2/4 245/2/4
f 243/2/5 163/2/5 242/2/5 244/2/5
f 247/1/1 248/1/1 249/1/1 250/1/1
f 247/1/3 250/1/3 251/1/3 252/1/3
f 250/1/6 249/1/6 253/1/6 251/1/6
f 247/1/5 252/1/5 254/1/5 248/1/5
f 252/1/3 251/1/3 255/1/3 256/1/3
f 251/1/6 253/1/6 257/1/6 255/1/6
f 252/1/5 256/1/5 258/1/5 254/1/5
f 259/1/2 260/1/2 261/1/2 262/1/2
f 256/1/3 255/1/3 260/1/3 259/1/3
f 255/1/6 257/1/6 261/1/6 260/1/6
f 256/1/5 259/1/5 262/1/5 258/1/5
f 248/1/1 263/1/1 264/1/1 249/1/1
f 249/1/6 264/1/6 265/1/6 253/1/6
f 248/1/5 254/1/5 266/1/5 263/1/5
f 254/4/5 258/4/5 185/4/5 266/4/5
f 262/4/2 261/4/2 267/4/2 179/4/2
f 258/4/5 262/4/5 179/4/5 185/4/5
f 263/1/1 268/1/1 269/1/1 264/1/1
f 264/1/6 269/1/6 270/1/6 265/1/6
f 263/1/5 266/1/5 271/1/5 268/1/5
f 266/1/5 185/1/5 184/1/5 271/1/5
f 179/1/2 267/1/2 272/1/2 180/1/2
f 172/1/1 186/1/1 273/1/1 274/1/1
f 172/1/3 274/1/3 275/1/3 175/1/3
f 177/1/2 276/1/2 277/1/2 187/1/2
f 175/1/3 275/1/3 276/1/3 177/1/3
f 268/1/1 194/1/1 278/1/1 269/1/1
f 269/1/6 278/1/6 279/1/6 270/1/6
f 268/1/5 271/1/5 195/1/5 194/1/5
f 270/1/6 279/1/6 280/1/6 281/1/6
f 271/1/5 184/1/5 282/1/5 195/1/5
f 180/1/2 272/1/2 283/1/2 284/1/2
f 281/1/6 280/1/6 283/1/6 272/1/6
f 184/1/5 180/1/5 284/1/5 282/1/5
f 189/1/1 188/1/1 285/1/1 286/1/1
f 189/1/3 286/1/3 273/1/3 186/1/3
f 190/1/2 287/1/2 288/1/2 191/1/2
f 187/1/3 277/1/3 287/1/3 190/1/3
f 193/1/1 192/1/1 289/1/1 290/1/1
f 193/1/3 290/1/3 278/1/3 194/1/3
f 290/1/6 289/1/6 291/1/6 278/1/6
f 278/1/6 291/1/6 292/1/6 279/1/6
f 196/1/4 293/1/4 294/1/4 292/1/4
f 279/1/6 292/1/6 294/1/6 280/1/6
f 195/1/5 282/1/5 293/1/5 196/1/5
f 284/4/2 283/4/2 295/4/2 296/4/2
f 293/4/4 296/4/4 295/4/4 294/4/4
f 280/4/6 294/4/6 295/4/6 283/4/6
f 282/4/5 284/4/5 296/4/5 293/4/5
f 188/1/1 198/1/1 297/1/1 285/1/1
f 198/1/4 201/1/4 298/1/4 297/1/4
f 201/1/4 200/1/4 299/1/4 298/1/4
f 191/6/3 288/6/3 289/6/3 192/6/3
f 288/6/6 300/6/6 301/6/6 289/6/6
f 191/6/5 192/6/5 204/6/5 202/6/5
f 289/6/6 301/6/6 302/6/6 291/6/6
f 196/1/2 292/1/2 303/1/2 205/1/2
f 200/1/1 210/1/1 304/1/1 299/1/1
f 221/6/4 224/6/4 305/6/4 306/6/4
f 205/1/2 303/1/2 307/1/2 214/1/2
f 206/1/2 308/1/2 309/1/2 215/1/2
f 209/1/1 218/1/1 310/1/1 311/1/1
f 209/1/3 311/1/3 308/1/3 206/1/3
f 218/1/4 215/1/4 309/1/4 310/1/4
f 210/1/1 231/1/1 312/1/1 304/1/1
f 210/1/5 211/1/5 220/1/5 231/1/5
f 221/1/2 306/1/2 313/1/2 222/1/2
f 220/1/4 222/1/4 313/1/4 314/1/4
f 224/1/1 223/1/1 315/1/1 305/1/1
f 213/1/2 316/1/2 317/1/2 225/1/2
f 214/1/3 307/1/3 316/1/3 213/1/3
f 227/1/4 225/1/4 317/1/4 318/1/4
f 307/1/6 318/1/6 317/1/6 316/1/6
f 220/6/2 314/6/2 319/6/2 232/6/2
f 231/6/1 230/6/1 320/6/1 312/6/1
f 223/1/1 234/1/1 321/1/1 315/1/1
f 227/1/2 318/1/2 322/1/2 235/1/2
f 230/1/1 246/1/1 323/1/1 320/1/1
f 230/1/5 232/1/5 237/1/5 246/1/5
f 232/1/3 319/1/3 324/1/3 233/1/3
f 233/6/3 324/6/3 321/6/3 234/6/3
f 324/6/6 325/6/6 326/6/6 321/6/6
f 235/1/2 322/1/2 327/1/2 328/1/2
f 236/1/5 235/1/5 328/1/5 240/1/5
f 246/1/1 245/1/1 329/1/1 323/1/1
f 237/1/5 238/1/5 330/1/5 241/1/5
f 330/6/4 331/6/4 332/6/4 333/6/4
f 238/6/5 239/6/5 331/6/5 330/6/5
f 331/1/4 334/1/4 335/1/4 332/1/4
f 239/1/5 240/1/5 334/1/5 331/1/5
f 328/1/2 327/1/2 336/1/2 337/1/2
f 334/1/4 337/1/4 336/1/4 335/1/4
f 240/1/5 328/1/5 337/1/5 334/1/5
f 245/1/1 338/1/1 339/1/1 329/1/1
f 245/1/5 241/1/5 340/1/5 338/1/5
f 330/5/2 333/5/2 341/5/2 342/5/2
f 241/5/5 330/5/5 342/5/5 340/5/5
f 338/1/1 343/1/1 344/1/1 339/1/1
f 338/1/5 340/1/5 345/1/5 343/1/5
f 342/1/2 341/1/2 346/1/2 347/1/2
f 340/1/5 342/1/5 347/1/5 345/1/5
f 343/1/1 348/1/1 349/1/1 344/1/1
f 348/1/4 350/1/4 351/1/4 349/1/4
f 343/1/5 345/1/5 350/1/5 348/1/5
f 350/1/4 352/1/4 353/1/4 351/1/4
f 345/1/5 347/1/5 352/1/5 350/1/5
f 354/1/2 355/1/2 356/1/2 357/1/2
f 347/1/3 346/1/3 355/1/3 354/1/3
f 346/1/6 353/1/6 356/1/6 355/1/6
f 347/1/5 354/1/5 357/1/5 352/1/5
f 357/5/2 356/5/2 358/5/2 359/5/2
f 352/5/1 360/5/1 361/5/1 353/5/1
f 360/5/4 359/5/4 358/5/4 361/5/4
f 353/5/6 361/5/6 358/5/6 356/5/6
f 352/5/5 357/5/5 359/5/5 360/5/5
f 253/1/1 265/1/1 362/1/1 363/1/1
f 253/1/3 363/1/3 364/1/3 257/1/3
f 363/1/6 362/1/6 365/1/6 364/1/6
f 261/4/2 366/4/2 367/4/2 267/4/2
f 257/4/3 364/4/3 366/4/3 261/4/3
f 364/4/6 365/4/6 367/4/6 366/4/6
f 265/1/1 270/1/1 368/1/1 362/1/1
f 270/1/4 281/1/4 369/1/4 368/1/4
f 267/1/2 367/1/2 370/1/2 272/1/2
f 281/1/4 272/1/4 370/1/4 369/1/4
f 365/1/6 369/1/6 370/1/6 367/1/6
f 274/5/1 273/5/1 371/5/1 372/5/1
f 274/5/3 372/5/3 373/5/3 275/5/3
f 276/5/2 374/5/2 375/5/2 277/5/2
f 275/5/3 373/5/3 374/5/3 276/5/3
f 373/5/6 376/5/6 375/5/6 374/5/6
f 286/5/1 285/5/1 377/5/1 378/5/1
f 286/5/3 378/5/3 371/5/3 273/5/3
f 287/1/2 379/1/2 380/1/2 288/1/2
f 277/1/3 375/1/3 379/1/3 287/1/3
f 285/1/1 297/1/1 381/1/1 377/1/1
f 297/1/4 298/1/4 382/1/4 381/1/4
f 298/1/4 299/1/4 383/1/4 382/1/4
f 288/1/2 380/1/2 384/1/2 300/1/2
f 292/1/2 385/1/2 386/1/2 303/1/2
f 291/1/1 302/1/1 387/1/1 388/1/1
f 291/1/3 388/1/3 385/1/3 292/1/3
f 299/6/1 304/6/1 389/6/1 383/6/1
f 383/6/6 389/6/6 390/6/6 391/6/6
f 391/6/6 390/6/6 392/6/6 384/6/6
f 300/7/3 384/7/3 393/7/3 301/7/3
f 306/7/4 305/7/4 394/7/4 392/7/4
f 384/7/6 392/7/6 394/7/6 393/7/6
f 301/8/3 393/8/3 387/8/3 302/8/3
f 303/1/2 386/1/2 395/1/2 307/1/2
f 308/1/2 396/1/2 397/1/2 309/1/2
f 311/1/1 310/1/1 398/1/1 399/1/1
f 311/1/3 399/1/3 396/1/3 308/1/3
f 399/1/6 398/1/6 397/1/6 396/1/6
f 304/6/1 312/6/1 400/6/1 389/6/1
f 306/1/2 392/1/2 401/1/2 313/1/2
f 305/1/1 315/1/1 402/1/1 394/1/1
f 307/1/2 395/1/2 403/1/2 318/1/2
f 310/1/1 404/1/1 405/1/1 398/1/1
f 404/1/4 406/1/4 407/1/4 405/1/4
f 310/1/5 309/1/5 406/1/5 404/1/5
f 309/6/3 397/6/3 400/6/3 312/6/3
f 406/6/4 320/6/4 408/6/4 407/6/4
f 309/6/5 312/6/5 320/6/5 406/6/5
f 400/6/6 408/6/6 409/6/6 410/6/6
f 313/6/2 401/6/2 411/6/2 324/6/2
f 314/6/5 313/6/5 324/6/5 319/6/5
f 315/1/1 321/1/1 412/1/1 402/1/1
f 317/5/2 413/5/2 414/5/2 415/5/2
f 318/5/3 403/5/3 413/5/3 317/5/3
f 318/5/5 317/5/5 415/5/5 322/5/5
f 320/1/1 323/1/1 416/1/1 408/1/1
f 324/1/2 411/1/2 417/1/2 325/1/2
f 321/5/1 326/5/1 418/5/1 412/5/1
f 415/5/2 414/5/2 419/5/2 420/5/2
f 327/5/4 420/5/4 419/5/4 421/5/4
f 322/5/5 415/5/5 420/5/5 327/5/5
f 323/1/1 329/1/1 422/1/1 416/1/1
f 325/6/3 417/6/3 418/6/3 326/6/3
f 333/6/4 332/6/4 423/6/4 424/6/4
f 327/5/2 421/5/2 425/5/2 336/5/2
f 335/5/4 336/5/4 425/5/4 426/5/4
f 329/1/1 339/1/1 427/1/1 422/1/1
f 333/1/2 424/1/2 428/1/2 341/1/2
f 335/5/2 426/5/2 429/5/2 430/5/2
f 332/5/1 431/5/1 432/5/1 423/5/1
f 332/5/5 335/5/5 430/5/5 431/5/5
f 339/1/1 344/1/1 433/1/1 427/1/1
f 341/1/2 428/1/2 434/1/2 346/1/2
f 430/5/2 429/5/2 435/5/2 436/5/2
f 431/5/1 355/5/1 437/5/1 432/5/1
f 432/5/6 437/5/6 435/5/6 429/5/6
f 431/5/5 430/5/5 436/5/5 355/5/5
f 344/1/1 349/1/1 438/1/1 433/1/1
f 349/1/4 351/1/4 439/1/4 438/1/4
f 346/1/2 434/1/2 440/1/2 353/1/2
f 351/1/4 353/1/4 440/1/4 439/1/4
f 436/2/2 435/2/2 441/2/2 442/2/2
f 355/2/1 356/2/1 443/2/1 437/2/1
f 356/2/4 442/2/4 441/2/4 443/2/4
f 437/2/6 443/2/6 441/2/6 435/2/6
f 355/2/5 436/2/5 442/2/5 356/2/5
f 444/4/2 445/4/2 446/4/2 447/4/2
f 448/4/1 449/4/1 450/4/1 451/4/1
f 448/4/3 451/4/3 445/4/3 444/4/3
f 451/4/6 450/4/6 446/4/6 445/4/6
f 448/4/5 444/4/5 447/4/5 449/4/5
f 452/1/1 453/1/1 454/1/1 455/1/1
f 452/1/3 455/1/3 456/1/3 362/1/3
f 455/1/6 454/1/6 457/1/6 456/1/6
f 452/1/5 362/1/5 368/1/5 453/1/5
f 365/1/2 458/1/2 459/1/2 369/1/2
f 362/1/3 456/1/3 458/1/3 365/1/3
f 368/1/4 369/1/4 459/1/4 457/1/4
f 367/1/1 370/1/1 460/1/1 461/1/1
f 367/1/3 461/1/3 450/1/3 449/1/3
f 461/1/6 460/1/6 462/1/6 450/1/6
f 367/1/5 449/1/5 463/1/5 370/1/5
f 447/4/2 446/4/2 464/4/2 465/4/2
f 463/4/4 465/4/4 464/4/4 462/4/4
f 450/4/6 462/4/6 464/4/6 446/4/6
f 449/4/5 447/4/5 465/4/5 463/4/5
f 373/5/2 466/5/2 467/5/2 376/5/2
f 372/5/1 371/5/1 468/5/1 469/5/1
f 372/5/3 469/5/3 466/5/3 373/5/3
f 470/6/2 471/6/2 472/6/2 379/6/2
f 374/6/1 375/6/1 473/6/1 474/6/1
f 374/6/3 474/6/3 471/6/3 470/6/3
f 474/6/6 473/6/6 472/6/6 471/6/6
f 374/6/5 470/6/5 379/6/5 375/6/5
f 475/6/1 476/6/1 477/6/1 478/6/1
f 475/6/3 478/6/3 454/6/3 453/6/3
f 475/6/5 453/6/5 479/6/5 476/6/5
f 368/1/2 457/1/2 480/1/2 481/1/2
f 454/1/6 482/1/6 480/1/6 457/1/6
f 453/1/5 368/1/5 481/1/5 479/1/5
f 369/1/1 483/1/1 484/1/1 459/1/1
f 369/1/3 459/1/3 460/1/3 370/1/3
f 483/1/4 485/1/4 486/1/4 484/1/4
f 369/1/5 370/1/5 485/1/5 483/1/5
f 463/1/2 462/1/2 487/1/2 488/1/2
f 485/1/4 488/1/4 487/1/4 486/1/4
f 370/1/5 463/1/5 488/1/5 485/1/5
f 378/5/1 377/5/1 489/5/1 490/5/1
f 378/5/3 490/5/3 468/5/3 371/5/3
f 490/5/6 489/5/6 491/5/6 468/5/6
f 376/5/3 467/5/3 473/5/3 375/5/3
f 379/6/2 472/6/2 492/6/2 380/6/2
f 476/1/1 493/1/1 494/1/1 477/1/1
f 477/1/6 494/1/6 495/1/6 482/1/6
f 476/1/5 479/1/5 388/1/5 493/1/5
f 481/1/2 480/1/2 496/1/2 385/1/2
f 482/1/6 495/1/6 496/1/6 480/1/6
f 479/1/5 481/1/5 385/1/5 388/1/5
f 377/1/1 381/1/1 497/1/1 489/1/1
f 381/1/4 382/1/4 498/1/4 497/1/4
f 382/1/4 383/1/4 499/1/4 498/1/4
f 383/1/4 391/1/4 500/1/4 499/1/4
f 380/1/2 492/1/2 501/1/2 384/1/2
f 391/1/4 384/1/4 501/1/4 500/1/4
f 493/1/1 393/1/1 502/1/1 494/1/1
f 493/1/5 388/1/5 387/1/5 393/1/5
f 503/1/2 504/1/2 505/1/2 506/1/2
f 385/1/3 496/1/3 504/1/3 503/1/3
f 385/1/5 503/1/5 506/1/5 386/1/5
f 393/1/1 394/1/1 507/1/1 502/1/1
f 506/1/2 505/1/2 508/1/2 509/1/2
f 386/1/5 506/1/5 509/1/5 395/1/5
f 510/6/2 511/6/2 512/6/2 513/6/2
f 514/6/1 515/6/1 516/6/1 517/6/1
f 514/6/3 517/6/3 511/6/3 510/6/3
f 515/6/4 513/6/4 512/6/4 516/6/4
f 514/6/5 510/6/5 513/6/5 515/6/5
f 396/6/1 397/6/1 518/6/1 519/6/1
f 396/6/3 519/6/3 520/6/3 389/6/3
f 396/6/5 389/6/5 400/6/5 397/6/5
f 389/6/3 520/6/3 521/6/3 390/6/3
f 400/6/4 410/6/4 522/6/4 523/6/4
f 520/6/6 523/6/6 522/6/6 521/6/6
f 392/1/2 524/1/2 525/1/2 401/1/2
f 390/1/3 521/1/3 524/1/3 392/1/3
f 521/1/6 522/1/6 525/1/6 524/1/6
f 394/1/1 402/1/1 526/1/1 507/1/1
f 395/1/5 509/1/5 413/1/5 403/1/5
f 527/4/2 528/4/2 529/4/2 530/4/2
f 509/4/3 508/4/3 528/4/3 527/4/3
f 509/4/5 527/4/5 530/4/5 413/4/5
f 398/6/1 405/6/1 531/6/1 532/6/1
f 398/6/3 532/6/3 518/6/3 397/6/3
f 400/6/2 523/6/2 533/6/2 408/6/2
f 407/6/4 408/6/4 533/6/4 534/6/4
f 518/6/6 534/6/6 533/6/6 523/6/6
f 401/1/2 525/1/2 535/1/2 411/1/2
f 410/1/1 409/1/1 536/1/1 522/1/1
f 402/1/1 412/1/1 537/1/1 526/1/1
f 530/1/2 529/1/2 538/1/2 539/1/2
f 413/1/5 530/1/5 539/1/5 414/1/5
f 540/6/2 541/6/2 542/6/2 543/6/2
f 544/6/1 545/6/1 546/6/1 547/6/1
f 544/6/3 547/6/3 541/6/3 540/6/3
f 545/6/4 543/6/4 542/6/4 546/6/4
f 544/6/5 540/6/5 543/6/5 545/6/5
f 407/6/2 534/6/2 548/6/2 549/6/2
f 405/6/1 550/6/1 551/6/1 531/6/1
f 550/6/4 549/6/4 548/6/4 551/6/4
f 405/6/5 407/6/5 549/6/5 550/6/5
f 408/1/1 416/1/1 552/1/1 533/1/1
f 408/1/3 533/1/3 536/1/3 409/1/3
f 411/1/2 535/1/2 553/1/2 417/1/2
f 412/1/1 418/1/1 554/1/1 537/1/1
f 539/1/2 538/1/2 555/1/2 556/1/2
f 419/1/4 556/1/4 555/1/4 557/1/4
f 414/1/5 539/1/5 556/1/5 419/1/5
f 416/6/1 422/6/1 558/6/1 552/6/1
f 417/7/3 553/7/3 554/7/3 418/7/3
f 554/8/6 559/8/6 560/8/6 561/8/6
f 426/1/4 425/1/4 562/1/4 560/1/4
f 419/1/2 557/1/2 563/1/2 564/1/2
f 421/1/5 419/1/5 564/1/5 425/1/5
f 422/6/1 427/6/1 565/6/1 558/6/1
f 428/6/4 432/6/4 566/6/4 567/6/4
f 424/6/5 423/6/5 432/6/5 428/6/5
f 426/5/2 560/5/2 568/5/2 429/5/2
f 432/5/4 429/5/4 568/5/4 566/5/4
f 564/1/2 563/1/2 569/1/2 570/1/2
f 425/1/1 571/1/1 572/1/1 562/1/1
f 571/1/4 570/1/4 569/1/4 572/1/4
f 425/1/5 564/1/5 570/1/5 571/1/5
f 427/1/1 433/1/1 573/1/1 565/1/1
f 428/1/2 567/1/2 574/1/2 434/1/2
f 433/3/1 438/3/1 575/3/1 573/3/1
f 434/1/2 574/1/2 576/1/2 440/1/2
f 438/2/1 577/2/1 578/2/1 575/2/1
f 438/2/5 439/2/5 579/2/5 577/2/5
f 440/2/2 576/2/2 580/2/2 581/2/2
f 439/2/5 440/2/5 581/2/5 579/2/5
f 577/2/1 582/2/1 583/2/1 578/2/1
f 582/2/4 584/2/4 585/2/4 583/2/4
f 577/2/5 579/2/5 584/2/5 582/2/5
f 581/2/2 580/2/2 586/2/2 587/2/2
f 584/2/4 587/2/4 586/2/4 585/2/4
f 579/2/5 581/2/5 587/2/5 584/2/5
f 588/1/2 589/1/2 590/1/2 591/1/2
f 592/1/1 593/1/1 594/1/1 595/1/1
f 592/1/3 595/1/3 589/1/3 588/1/3
f 595/1/6 594/1/6 590/1/6 589/1/6
f 592/1/5 588/1/5 591/1/5 593/1/5
f 593/1/1 456/1/1 596/1/1 594/1/1
f 593/1/5 591/1/5 458/1/5 456/1/5
f 597/1/2 598/1/2 599/1/2 461/1/2
f 591/1/3 590/1/3 598/1/3 597/1/3
f 591/1/5 597/1/5 461/1/5 458/1/5
f 456/1/1 457/1/1 600/1/1 596/1/1
f 461/1/2 599/1/2 601/1/2 460/1/2
f 458/1/5 461/1/5 460/1/5 459/1/5
f 466/5/2 602/5/2 603/5/2 467/5/2
f 469/5/1 468/5/1 604/5/1 605/5/1
f 469/5/3 605/5/3 602/5/3 466/5/3
f 471/6/1 472/6/1 606/6/1 607/6/1
f 471/6/3 607/6/3 608/6/3 478/6/3
f 607/6/6 606/6/6 609/6/6 608/6/6
f 471/6/5 478/6/5 477/6/5 472/6/5
f 454/6/2 610/6/2 611/6/2 482/6/2
f 478/6/3 608/6/3 610/6/3 454/6/3
f 477/6/4 482/6/4 611/6/4 609/6/4
f 457/1/1 480/1/1 612/1/1 600/1/1
f 457/1/5 459/1/5 484/1/5 480/1/5
f 462/1/2 613/1/2 614/1/2 487/1/2
f 460/1/3 601/1/3 613/1/3 462/1/3
f 486/1/4 487/1/4 614/1/4 615/1/4
f 468/5/1 491/5/1 616/5/1 604/5/1
f 467/5/3 603/5/3 617/5/3 473/5/3
f 473/6/3 617/6/3 606/6/3 472/6/3
f 477/6/2 609/6/2 618/6/2 494/6/2
f 472/6/5 477/6/5 494/6/5 492/6/5
f 480/1/1 496/1/1 619/1/1 612/1/1
f 480/1/5 484/1/5 504/1/5 496/1/5
f 486/1/2 615/1/2 620/1/2 621/1/2
f 504/1/4 621/1/4 620/1/4 622/1/4
f 484/1/5 486/1/5 621/1/5 504/1/5
f 489/6/1 497/6/1 623/6/1 624/6/1
f 489/6/3 624/6/3 616/6/3 491/6/3
f 497/6/4 498/6/4 625/6/4 623/6/4
f 498/6/4 499/6/4 626/6/4 625/6/4
f 616/6/6 625/6/6 626/6/6 627/6/6
f 499/6/4 500/6/4 628/6/4 626/6/4
f 627/6/6 626/6/6 628/6/6 629/6/6
f 501/8/4 502/8/4 630/8/4 631/8/4
f 632/8/6 631/8/6 630/8/6 618/8/6
f 492/8/5 494/8/5 502/8/5 501/8/5
f 494/1/3 618/1/3 633/1/3 495/1/3
f 618/1/6 630/1/6 634/1/6 633/1/6
f 495/1/3 633/1/3 619/1/3 496/1/3
f 633/1/6 634/1/6 635/1/6 619/1/6
f 504/1/2 622/1/2 636/1/2 505/1/2
f 497/6/2 623/6/2 637/6/2 638/6/2
f 639/6/1 640/6/1 641/6/1 642/6/1
f 639/6/3 642/6/3 623/6/3 497/6/3
f 639/6/5 497/6/5 638/6/5 640/6/5
f 501/8/2 631/8/2 643/8/2 524/8/2
f 500/8/1 521/8/1 644/8/1 628/8/1
f 521/8/4 524/8/4 643/8/4 644/8/4
f 500/8/5 501/8/5 524/8/5 521/8/5
f 502/1/1 507/1/1 645/1/1 630/1/1
f 646/1/2 647/1/2 648/1/2 528/1/2
f 505/1/3 636/1/3 647/1/3 646/1/3
f 505/1/5 646/1/5 528/1/5 508/1/5
f 511/6/2 649/6/2 650/6/2 512/6/2
f 517/6/1 516/6/1 651/6/1 652/6/1
f 517/6/3 652/6/3 649/6/3 511/6/3
f 653/6/1 654/6/1 655/6/1 656/6/1
f 653/6/3 656/6/3 657/6/3 658/6/3
f 654/6/4 659/6/4 660/6/4 655/6/4
f 656/6/6 655/6/6 660/6/6 657/6/6
f 653/6/5 658/6/5 659/6/5 654/6/5
f 658/6/3 657/6/3 661/6/3 662/6/3
f 658/6/5 662/6/5 663/6/5 659/6/5
f 664/6/2 665/6/2 666/6/2 667/6/2
f 662/6/3 661/6/3 665/6/3 664/6/3
f 663/6/4 667/6/4 666/6/4 668/6/4
f 661/6/6 668/6/6 666/6/6 665/6/6
f 662/6/5 664/6/5 667/6/5 663/6/5
f 640/6/1 669/6/1 670/6/1 641/6/1
f 669/6/4 532/6/4 671/6/4 670/6/4
f 640/6/5 638/6/5 532/6/5 669/6/5
f 638/6/3 637/6/3 672/6/3 519/6/3
f 638/6/5 519/6/5 518/6/5 532/6/5
f 520/6/2 673/6/2 674/6/2 523/6/2
f 519/6/3 672/6/3 673/6/3 520/6/3
f 518/6/4 523/6/4 674/6/4 675/6/4
f 672/6/6 675/6/6 674/6/6 673/6/6
f 507/1/1 526/1/1 676/1/1 645/1/1
f 528/1/2 648/1/2 677/1/2 529/1/2
f 516/7/1 547/7/1 678/7/1 651/7/1
f 516/7/5 512/7/5 541/7/5 547/7/5
f 654/7/2 655/7/2 679/7/2 680/7/2
f 512/7/3 650/7/3 655/7/3 654/7/3
f 541/7/4 680/7/4 679/7/4 681/7/4
f 512/7/5 654/7/5 680/7/5 541/7/5
f 663/6/2 668/6/2 682/6/2 683/6/2
f 659/6/1 684/6/1 685/6/1 660/6/1
f 659/6/5 663/6/5 683/6/5 684/6/5
f 518/6/2 675/6/2 686/6/2 534/6/2
f 532/6/1 531/6/1 687/6/1 671/6/1
f 671/6/6 687/6/6 686/6/6 675/6/6
f 525/1/2 688/1/2 689/1/2 535/1/2
f 522/1/1 536/1/1 690/1/1 691/1/1
f 522/1/3 691/1/3 688/1/3 525/1/3
f 526/1/1 537/1/1 692/1/1 676/1/1
f 529/1/2 677/1/2 693/1/2 538/1/2
f 541/6/2 681/6/2 694/6/2 542/6/2
f 547/6/1 546/6/1 695/6/1 678/6/1
f 546/6/4 542/6/4 694/6/4 695/6/4
f 680/6/1 696/6/1 697/6/1 679/6/1
f 680/6/3 679/6/3 685/6/3 684/6/3
f 696/6/4 698/6/4 699/6/4 697/6/4
f 680/6/5 684/6/5 698/6/5 696/6/5
f 684/6/5 683/6/5 700/6/5 698/6/5
f 701/6/2 702/6/2 703/6/2 704/6/2
f 683/6/3 682/6/3 702/6/3 701/6/3
f 700/6/4 704/6/4 703/6/4 705/6/4
f 683/6/5 701/6/5 704/6/5 700/6/5
f 531/6/1 551/6/1 706/6/1 687/6/1
f 551/6/4 548/6/4 707/6/4 706/6/4
f 534/6/3 686/6/3 708/6/3 533/6/3
f 534/6/5 533/6/5 552/6/5 548/6/5
f 533/1/3 708/1/3 690/1/3 536/1/3
f 708/1/6 709/1/6 710/1/6 690/1/6
f 535/1/2 689/1/2 711/1/2 553/1/2
f 537/1/1 554/1/1 712/1/1 692/1/1
f 554/1/4 561/1/4 713/1/4 712/1/4
f 538/1/2 693/1/2 714/1/2 555/1/2
f 700/6/2 705/6/2 715/6/2 716/6/2
f 698/6/1 717/6/1 718/6/1 699/6/1
f 717/6/4 716/6/4 715/6/4 718/6/4
f 698/6/5 700/6/5 716/6/5 717/6/5
f 548/6/1 719/6/1 720/6/1 707/6/1
f 548/6/5 552/6/5 558/6/5 719/6/5
f 554/1/2 712/1/2 721/1/2 559/1/2
f 553/1/3 711/1/3 712/1/3 554/1/3
f 561/1/1 560/1/1 722/1/1 713/1/1
f 555/5/2 714/5/2 723/5/2 724/5/2
f 557/5/5 555/5/5 724/5/5 563/5/5
f 719/1/1 725/1/1 726/1/1 720/1/1
f 719/1/5 558/1/5 565/1/5 725/1/5
f 567/1/4 566/1/4 727/1/4 728/1/4
f 559/5/3 721/5/3 722/5/3 560/5/3
f 566/5/4 568/5/4 729/5/4 727/5/4
f 568/2/4 572/2/4 730/2/4 729/2/4
f 560/2/5 562/2/5 572/2/5 568/2/5
f 572/1/4 569/1/4 731/1/4 730/1/4
f 724/5/2 723/5/2 732/5/2 733/5/2
f 569/5/4 733/5/4 732/5/4 731/5/4
f 734/5/6 731/5/6 732/5/6 723/5/6
f 563/5/5 724/5/5 733/5/5 569/5/5
f 725/1/1 735/1/1 736/1/1 726/1/1
f 735/1/4 573/1/4 737/1/4 736/1/4
f 725/1/5 565/1/5 573/1/5 735/1/5
f 567/1/2 728/1/2 738/1/2 574/1/2
f 573/1/1 575/1/1 739/1/1 737/1/1
f 737/1/6 739/1/6 740/1/6 741/1/6
f 574/1/2 738/1/2 742/1/2 576/1/2
f 741/1/6 740/1/6 742/1/6 738/1/6
f 575/2/1 578/2/1 743/2/1 739/2/1
f 739/2/6 743/2/6 744/2/6 740/2/6
f 576/2/2 742/2/2 745/2/2 580/2/2
f 740/2/6 744/2/6 745/2/6 742/2/6
f 578/2/1 583/2/1 746/2/1 743/2/1
f 583/2/4 585/2/4 747/2/4 746/2/4
f 743/2/6 746/2/6 747/2/6 744/2/6
f 580/2/2 745/2/2 748/2/2 586/2/2
f 585/2/4 586/2/4 748/2/4 747/2/4
f 744/2/6 747/2/6 748/2/6 745/2/6
f 749/1/2 750/1/2 751/1/2 752/1/2
f 753/1/1 754/1/1 755/1/1 756/1/1
f 753/1/3 756/1/3 750/1/3 749/1/3
f 756/1/6 755/1/6 751/1/6 750/1/6
f 753/1/5 749/1/5 752/1/5 754/1/5
f 594/1/1 596/1/1 757/1/1 758/1/1
f 594/1/3 758/1/3 759/1/3 590/1/3
f 758/1/6 757/1/6 760/1/6 759/1/6
f 598/1/2 761/1/2 762/1/2 599/1/2
f 590/1/3 759/1/3 761/1/3 598/1/3
f 759/1/6 760/1/6 762/1/6 761/1/6
f 752/1/2 751/1/2 763/1/2 610/1/2
f 754/1/1 608/1/1 764/1/1 755/1/1
f 755/1/6 764/1/6 763/1/6 751/1/6
f 754/1/5 752/1/5 610/1/5 608/1/5
f 596/1/1 600/1/1 765/1/1 757/1/1
f 757/1/6 765/1/6 766/1/6 760/1/6
f 767/4/2 768/4/2 769/4/2 613/4/2
f 599/4/3 762/4/3 768/4/3 767/4/3
f 762/4/6 770/4/6 769/4/6 768/4/6
f 599/4/5 767/4/5 613/4/5 601/4/5
f 605/2/1 604/2/1 771/2/1 772/2/1
f 605/2/3 772/2/3 773/2/3 602/2/3
f 774/2/2 775/2/2 776/2/2 617/2/2
f 602/2/3 773/2/3 775/2/3 774/2/3
f 602/2/5 774/2/5 617/2/5 603/2/5
f 610/1/2 763/1/2 777/1/2 611/1/2
f 608/1/1 609/1/1 778/1/1 764/1/1
f 609/1/4 611/1/4 777/1/4 778/1/4
f 764/1/6 778/1/6 777/1/6 763/1/6
f 600/1/1 612/1/1 779/1/1 765/1/1
f 765/1/6 779/1/6 780/1/6 766/1/6
f 613/1/2 769/1/2 781/1/2 614/1/2
f 604/5/1 616/5/1 782/5/1 771/5/1
f 616/5/4 627/5/4 783/5/4 782/5/4
f 627/5/4 629/5/4 784/5/4 783/5/4
f 617/1/3 776/1/3 785/1/3 606/1/3
f 609/1/2 778/1/2 786/1/2 618/1/2
f 606/1/3 785/1/3 778/1/3 609/1/3
f 632/1/4 618/1/4 786/1/4 787/1/4
f 785/1/6 787/1/6 786/1/6 778/1/6
f 612/1/1 619/1/1 788/1/1 779/1/1
f 779/1/6 788/1/6 789/1/6 780/1/6
f 614/4/2 781/4/2 790/4/2 791/4/2
f 792/4/6 793/4/6 790/4/6 781/4/6
f 615/4/5 614/4/5 791/4/5 620/4/5
f 616/6/2 782/6/2 794/6/2 625/6/2
f 624/6/1 623/6/1 795/6/1 796/6/1
f 624/6/3 796/6/3 782/6/3 616/6/3
f 632/1/2 787/1/2 797/1/2 631/1/2
f 629/1/1 628/1/1 798/1/1 784/1/1
f 619/1/1 635/1/1 799/1/1 788/1/1
f 622/1/5 620/1/5 647/1/5 636/1/5
f 791/1/2 790/1/2 800/1/2 801/1/2
f 620/1/5 791/1/5 801/1/5 647/1/5
f 802/1/1 665/1/1 803/1/1 804/1/1
f 802/1/3 804/1/3 805/1/3 642/1/3
f 802/1/5 642/1/5 641/1/5 665/1/5
f 642/6/3 805/6/3 795/6/3 623/6/3
f 625/6/2 794/6/2 806/6/2 672/6/2
f 623/6/5 625/6/5 672/6/5 637/6/5
f 631/1/2 797/1/2 807/1/2 643/1/2
f 628/1/1 644/1/1 808/1/1 798/1/1
f 630/1/1 645/1/1 809/1/1 810/1/1
f 630/1/3 810/1/3 811/1/3 634/1/3
f 634/1/3 811/1/3 799/1/3 635/1/3
f 801/4/2 800/4/2 812/4/2 813/4/2
f 647/4/5 801/4/5 813/4/5 648/4/5
f 652/6/1 651/6/1 814/6/1 815/6/1
f 652/6/3 815/6/3 816/6/3 649/6/3
f 656/6/2 817/6/2 818/6/2 655/6/2
f 649/6/3 816/6/3 817/6/3 656/6/3
f 816/6/6 819/6/6 818/6/6 817/6/6
f 649/6/5 656/6/5 655/6/5 650/6/5
f 661/6/2 820/6/2 821/6/2 668/6/2
f 657/6/1 660/6/1 822/6/1 823/6/1
f 657/6/3 823/6/3 820/6/3 661/6/3
f 823/6/6 822/6/6 821/6/6 820/6/6
f 665/6/1 666/6/1 824/6/1 803/6/1
f 665/6/5 641/6/5 670/6/5 666/6/5
f 672/6/2 806/6/2 825/6/2 675/6/2
f 671/6/4 675/6/4 825/6/4 826/6/4
f 643/1/2 807/1/2 827/1/2 688/1/2
f 644/1/1 691/1/1 828/1/1 808/1/1
f 644/1/5 643/1/5 688/1/5 691/1/5
f 645/1/1 676/1/1 829/1/1 809/1/1
f 813/1/2 812/1/2 830/1/2 831/1/2
f 648/1/5 813/1/5 831/1/5 677/1/5
f 651/6/1 678/6/1 832/6/1 814/6/1
f 819/6/6 833/6/6 834/6/6 818/6/6
f 655/6/3 818/6/3 822/6/3 660/6/3
f 655/6/5 660/6/5 685/6/5 679/6/5
f 822/6/6 835/6/6 836/6/6 821/6/6
f 668/6/3 821/6/3 824/6/3 666/6/3
f 821/6/6 836/6/6 837/6/6 824/6/6
f 668/6/5 666/6/5 702/6/5 682/6/5
f 824/6/6 837/6/6 838/6/6 839/6/6
f 666/6/5 670/6/5 840/6/5 702/6/5
f 671/6/2 826/6/2 841/6/2 687/6/2
f 840/6/4 687/6/4 841/6/4 838/6/4
f 839/6/6 838/6/6 841/6/6 826/6/6
f 670/6/5 671/6/5 687/6/5 840/6/5
f 688/1/2 827/1/2 842/1/2 689/1/2
f 691/1/1 690/1/1 843/1/1 828/1/1
f 676/1/1 692/1/1 844/1/1 829/1/1
f 831/1/2 830/1/2 845/1/2 846/1/2
f 693/1/4 846/1/4 845/1/4 847/1/4
f 677/1/5 831/1/5 846/1/5 693/1/5
f 678/6/1 695/6/1 848/6/1 832/6/1
f 695/6/4 694/6/4 849/6/4 848/6/4
f 694/6/4 697/6/4 850/6/4 849/6/4
f 833/6/6 849/6/6 850/6/6 834/6/6
f 681/6/5 679/6/5 697/6/5 694/6/5
f 697/6/4 699/6/4 851/6/4 850/6/4
f 834/6/6 850/6/6 851/6/6 835/6/6
f 705/6/4 703/6/4 852/6/4 853/6/4
f 840/6/2 838/6/2 854/6/2 855/6/2
f 703/6/4 855/6/4 854/6/4 852/6/4
f 837/6/6 852/6/6 854/6/6 838/6/6
f 702/6/5 840/6/5 855/6/5 703/6/5
f 687/6/1 706/6/1 856/6/1 841/6/1
f 687/6/3 841/6/3 857/6/3 686/6/3
f 706/6/4 707/6/4 858/6/4 856/6/4
f 708/6/2 859/6/2 860/6/2 709/6/2
f 686/6/3 857/6/3 859/6/3 708/6/3
f 689/1/2 842/1/2 861/1/2 711/1/2
f 690/1/1 710/1/1 862/1/1 843/1/1
f 692/1/1 712/1/1 863/1/1 844/1/1
f 693/1/2 847/1/2 864/1/2 714/1/2
f 865/1/6 866/1/6 864/1/6 847/1/6
f 705/6/2 853/6/2 867/6/2 715/6/2
f 699/6/1 718/6/1 868/6/1 851/6/1
f 718/6/4 715/6/4 867/6/4 868/6/4
f 851/6/6 868/6/6 867/6/6 853/6/6
f 707/6/1 720/6/1 869/6/1 858/6/1
f 709/6/3 860/6/3 862/6/3 710/6/3
f 711/1/3 861/1/3 863/1/3 712/1/3
f 712/1/5 713/1/5 722/1/5 721/1/5
f 714/5/2 864/5/2 870/5/2 723/5/2
f 734/5/4 723/5/4 870/5/4 871/5/4
f 866/5/6 871/5/6 870/5/6 864/5/6
f 872/1/1 873/1/1 874/1/1 875/1/1
f 872/1/3 875/1/3 869/1/3 720/1/3
f 872/1/5 720/1/5 726/1/5 873/1/5
f 728/1/4 727/1/4 876/1/4 877/1/4
f 729/1/4 730/1/4 878/1/4 879/1/4
f 734/1/2 871/1/2 880/1/2 731/1/2
f 730/1/4 731/1/4 880/1/4 878/1/4
f 873/3/1 881/3/1 882/3/1 874/3/1
f 881/3/4 736/3/4 883/3/4 882/3/4
f 874/3/6 882/3/6 883/3/6 884/3/6
f 873/3/5 726/3/5 736/3/5 881/3/5
f 736/1/4 737/1/4 885/1/4 883/1/4
f 884/1/6 883/1/6 885/1/6 886/1/6
f 737/1/4 741/1/4 887/1/4 885/1/4
f 886/1/6 885/1/6 887/1/6 888/1/6
f 728/5/2 877/5/2 889/5/2 738/5/2
f 741/5/4 738/5/4 889/5/4 887/5/4
f 729/5/2 879/5/2 890/5/2 891/5/2
f 727/5/1 892/5/1 893/5/1 876/5/1
f 892/5/4 891/5/4 890/5/4 893/5/4
f 876/5/6 893/5/6 890/5/6 879/5/6
f 727/5/5 729/5/5 891/5/5 892/5/5
f 762/1/2 894/1/2 895/1/2 770/1/2
f 760/1/1 766/1/1 896/1/1 897/1/1
f 760/1/3 897/1/3 894/1/3 762/1/3
f 897/1/6 896/1/6 895/1/6 894/1/6
f 898/2/1 899/2/1 900/2/1 901/2/1
f 898/2/3 901/2/3 902/2/3 772/2/3
f 901/2/6 900/2/6 903/2/6 902/2/6
f 898/2/5 772/2/5 771/2/5 899/2/5
f 772/2/3 902/2/3 904/2/3 773/2/3
f 902/2/6 903/2/6 905/2/6 904/2/6
f 775/2/2 906/2/2 907/2/2 776/2/2
f 773/2/3 904/2/3 906/2/3 775/2/3
f 766/1/1 780/1/1 908/1/1 896/1/1
f 896/1/6 908/1/6 909/1/6 895/1/6
f 769/1/2 910/1/2 911/1/2 781/1/2
f 770/1/3 895/1/3 910/1/3 769/1/3
f 792/1/4 781/1/4 911/1/4 909/1/4
f 895/1/6 909/1/6 911/1/6 910/1/6
f 899/5/1 796/5/1 912/5/1 900/5/1
f 900/5/6 912/5/6 913/5/6 903/5/6
f 899/5/5 771/5/5 782/5/5 796/5/5
f 903/5/6 913/5/6 914/5/6 905/5/6
f 785/1/2 915/1/2 916/1/2 787/1/2
f 776/1/3 907/1/3 915/1/3 785/1/3
f 792/1/2 909/1/2 917/1/2 793/1/2
f 780/1/1 789/1/1 918/1/1 908/1/1
f 908/1/6 918/1/6 917/1/6 909/1/6
f 796/1/1 795/1/1 919/1/1 912/1/1
f 912/1/6 919/1/6 920/1/6 913/1/6
f 913/6/6 920/6/6 921/6/6 914/6/6
f 782/6/5 783/6/5 922/6/5 794/6/5
f 922/6/4 798/6/4 923/6/4 921/6/4
f 914/6/6 921/6/6 923/6/6 924/6/6
f 783/6/5 784/6/5 798/6/5 922/6/5
f 787/1/2 916/1/2 925/1/2 797/1/2
f 786/1/1 810/1/1 926/1/1 927/1/1
f 786/1/3 927/1/3 928/1/3 929/1/3
f 786/1/5 929/1/5 811/1/5 810/1/5
f 929/1/3 928/1/3 930/1/3 788/1/3
f 929/1/5 788/1/5 799/1/5 811/1/5
f 788/1/3 930/1/3 918/1/3 789/1/3
f 790/5/2 931/5/2 932/5/2 800/5/2
f 793/5/3 917/5/3 931/5/3 790/5/3
f 804/1/1 803/1/1 933/1/1 934/1/1
f 804/1/3 934/1/3 935/1/3 805/1/3
f 934/1/6 933/1/6 936/1/6 935/1/6
f 805/1/3 935/1/3 919/1/3 795/1/3
f 922/6/2 921/6/2 937/6/2 938/6/2
f 794/6/5 922/6/5 938/6/5 806/6/5
f 797/1/2 925/1/2 939/1/2 807/1/2
f 798/1/1 808/1/1 940/1/1 923/1/1
f 810/1/1 809/1/1 941/1/1 926/1/1
f 800/4/2 932/4/2 942/4/2 812/4/2
f 816/6/2 943/6/2 944/6/2 819/6/2
f 815/6/1 814/6/1 945/6/1 946/6/1
f 815/6/3 946/6/3 943/6/3 816/6/3
f 946/6/6 945/6/6 944/6/6 943/6/6
f 823/6/2 947/6/2 948/6/2 822/6/2
f 817/6/1 818/6/1 949/6/1 950/6/1
f 817/6/3 950/6/3 947/6/3 823/6/3
f 950/6/6 949/6/6 948/6/6 947/6/6
f 817/6/5 823/6/5 822/6/5 818/6/5
f 820/6/1 821/6/1 951/6/1 952/6/1
f 820/6/3 952/6/3 933/6/3 803/6/3
f 821/6/4 824/6/4 953/6/4 951/6/4
f 952/6/6 951/6/6 953/6/6 933/6/6
f 820/6/5 803/6/5 824/6/5 821/6/5
f 824/6/4 839/6/4 954/6/4 953/6/4
f 933/6/6 953/6/6 954/6/6 936/6/6
f 839/6/4 826/6/4 955/6/4 954/6/4
f 938/6/2 937/6/2 956/6/2 957/6/2
f 806/6/5 938/6/5 957/6/5 825/6/5
f 808/1/1 828/1/1 958/1/1 940/1/1
f 807/1/3 939/1/3 941/1/3 809/1/3
f 939/1/6 959/1/6 960/1/6 941/1/6
f 807/1/5 809/1/5 829/1/5 827/1/5
f 961/3/6 962/3/6 963/3/6 964/3/6
f 812/4/2 942/4/2 965/4/2 830/4/2
f 964/4/6 963/4/6 965/4/6 942/4/6
f 819/7/2 944/7/2 966/7/2 833/7/2
f 814/7/1 832/7/1 967/7/1 945/7/1
f 945/7/6 967/7/6 966/7/6 944/7/6
f 822/6/2 948/6/2 968/6/2 835/6/2
f 818/6/1 834/6/1 969/6/1 949/6/1
f 834/6/4 835/6/4 968/6/4 969/6/4
f 949/6/6 969/6/6 968/6/6 948/6/6
f 826/6/1 841/6/1 970/6/1 955/6/1
f 955/6/6 970/6/6 971/6/6 972/6/6
f 826/6/5 825/6/5 857/6/5 841/6/5
f 957/6/2 956/6/2 973/6/2 859/6/2
f 972/6/6 971/6/6 973/6/6 956/6/6
f 825/6/5 957/6/5 859/6/5 857/6/5
f 828/1/1 843/1/1 974/1/1 958/1/1
f 842/1/4 844/1/4 975/1/4 976/1/4
f 959/1/6 976/1/6 975/1/6 960/1/6
f 827/1/5 829/1/5 844/1/5 842/1/5
f 865/1/4 847/1/4 977/1/4 978/1/4
f 962/1/6 978/1/6 977/1/6 963/1/6
f 830/4/2 965/4/2 979/4/2 845/4/2
f 847/4/4 845/4/4 979/4/4 977/4/4
f 963/4/6 977/4/6 979/4/6 965/4/6
f 833/6/2 966/6/2 980/6/2 849/6/2
f 832/6/1 848/6/1 981/6/1 967/6/1
f 848/6/4 849/6/4 980/6/4 981/6/4
f 967/6/6 981/6/6 980/6/6 966/6/6
f 835/6/1 851/6/1 982/6/1 968/6/1
f 835/6/3 968/6/3 983/6/3 836/6/3
f 851/6/4 853/6/4 984/6/4 982/6/4
f 968/6/6 982/6/6 984/6/6 983/6/6
f 837/6/2 985/6/2 986/6/2 852/6/2
f 836/6/3 983/6/3 985/6/3 837/6/3
f 853/6/4 852/6/4 986/6/4 984/6/4
f 983/6/6 984/6/6 986/6/6 985/6/6
f 838/6/1 854/6/1 987/6/1 988/6/1
f 838/6/3 988/6/3 970/6/3 841/6/3
f 838/6/5 841/6/5 856/6/5 854/6/5
f 859/6/2 973/6/2 989/6/2 860/6/2
f 842/1/2 976/1/2 990/1/2 861/1/2
f 843/1/1 862/1/1 991/1/1 974/1/1
f 844/1/1 863/1/1 992/1/1 975/1/1
f 865/1/2 978/1/2 993/1/2 866/1/2
f 854/6/1 994/6/1 995/6/1 987/6/1
f 994/6/4 875/6/4 996/6/4 995/6/4
f 987/6/6 995/6/6 996/6/6 997/6/6
f 854/6/5 856/6/5 875/6/5 994/6/5
f 997/3/6 996/3/6 998/3/6 999/3/6
f 856/3/5 858/3/5 869/3/5 875/3/5
f 860/6/3 989/6/3 991/6/3 862/6/3
f 861/1/3 990/1/3 992/1/3 863/1/3
f 866/1/2 993/1/2 1000/1/2 871/1/2
f 875/1/1 874/1/1 1001/1/1 996/1/1
f 874/1/4 884/1/4 1002/1/4 1001/1/4
f 996/1/6 1001/1/6 1002/1/6 998/1/6
f 884/3/4 886/3/4 1003/3/4 1002/3/4
f 886/3/4 888/3/4 1004/3/4 1003/3/4
f 877/3/4 876/3/4 1005/3/4 1006/3/4
f 876/5/4 879/5/4 1007/5/4 1005/5/4
f 879/1/4 878/1/4 1008/1/4 1007/1/4
f 871/1/2 1000/1/2 1009/1/2 880/1/2
f 878/1/4 880/1/4 1009/1/4 1008/1/4
f 877/1/2 1006/1/2 1010/1/2 889/1/2
f 888/1/1 887/1/1 1011/1/1 1004/1/1
f 887/1/4 889/1/4 1010/1/4 1011/1/4
f 1004/1/6 1011/1/6 1010/1/6 1006/1/6
f 906/1/2 1012/1/2 1013/1/2 907/1/2
f 904/1/1 905/1/1 1014/1/1 1015/1/1
f 904/1/3 1015/1/3 1012/1/3 906/1/3
f 1015/1/6 1014/1/6 1013/1/6 1012/1/6
f 905/1/1 914/1/1 1016/1/1 1014/1/1
f 914/1/4 924/1/4 1017/1/4 1016/1/4
f 1014/1/6 1016/1/6 1017/1/6 1013/1/6
f 915/1/2 1018/1/2 1019/1/2 916/1/2
f 907/1/3 1013/1/3 1018/1/3 915/1/3
f 916/5/2 1019/5/2 1020/5/2 925/5/2
f 924/5/1 923/5/1 1021/5/1 1017/5/1
f 927/5/1 926/5/1 1022/5/1 1023/5/1
f 927/5/3 1023/5/3 1024/5/3 928/5/3
f 928/5/3 1024/5/3 1025/5/3 930/5/3
f 930/5/3 1025/5/3 1026/5/3 918/5/3
f 918/5/3 1026/5/3 1027/5/3 917/5/3
f 931/5/2 1028/5/2 1029/5/2 932/5/2
f 917/5/3 1027/5/3 1028/5/3 931/5/3
f 935/1/1 936/1/1 1030/1/1 1031/1/1
f 935/1/3 1031/1/3 1032/1/3 919/1/3
f 919/1/3 1032/1/3 1033/1/3 920/1/3
f 1032/1/6 1034/1/6 1035/1/6 1033/1/6
f 921/6/2 1036/6/2 1037/6/2 937/6/2
f 920/6/3 1033/6/3 1036/6/3 921/6/3
f 925/5/2 1020/5/2 1038/5/2 939/5/2
f 923/5/1 940/5/1 1039/5/1 1021/5/1
f 926/5/1 941/5/1 1040/5/1 1022/5/1
f 961/5/4 964/5/4 1041/5/4 1042/5/4
f 932/1/2 1029/1/2 1043/1/2 942/1/2
f 964/1/4 942/1/4 1043/1/4 1041/1/4
f 936/1/1 954/1/1 1044/1/1 1030/1/1
f 955/1/4 972/1/4 1045/1/4 1046/1/4
f 972/6/4 956/6/4 1047/6/4 1045/6/4
f 937/6/3 1037/6/3 1039/6/3 940/6/3
f 1037/6/6 1047/6/6 1048/6/6 1039/6/6
f 937/6/5 940/6/5 958/6/5 956/6/5
f 939/1/2 1038/1/2 1049/1/2 959/1/2
f 941/1/1 960/1/1 1050/1/1 1040/1/1
f 961/1/2 1042/1/2 1051/1/2 962/1/2
f 955/3/2 1046/3/2 1052/3/2 970/3/2
f 954/3/1 988/3/1 1053/3/1 1044/3/1
f 1044/3/6 1053/3/6 1052/3/6 1046/3/6
f 954/3/5 955/3/5 970/3/5 988/3/5
f 956/6/1 973/6/1 1054/6/1 1047/6/1
f 956/6/5 958/6/5 974/6/5 973/6/5
f 959/1/2 1049/1/2 1055/1/2 976/1/2
f 960/1/1 975/1/1 1056/1/1 1050/1/1
f 962/1/2 1051/1/2 1057/1/2 978/1/2
f 988/3/1 987/3/1 1058/3/1 1053/3/1
f 987/3/4 997/3/4 1059/3/4 1058/3/4
f 1053/3/6 1058/3/6 1059/3/6 1052/3/6
f 970/3/3 1052/3/3 1060/3/3 971/3/3
f 997/3/4 999/3/4 1061/3/4 1059/3/4
f 971/3/3 1060/3/3 1054/3/3 973/3/3
f 973/6/5 974/6/5 991/6/5 989/6/5
f 976/1/2 1055/1/2 1062/1/2 990/1/2
f 975/1/1 992/1/1 1063/1/1 1056/1/1
f 977/2/2 1064/2/2 1065/2/2 1066/2/2
f 978/2/3 1057/2/3 1064/2/3 977/2/3
f 978/2/5 977/2/5 1066/2/5 993/2/5
f 999/3/1 998/3/1 1067/3/1 1061/3/1
f 990/1/3 1062/1/3 1063/1/3 992/1/3
f 1066/2/2 1065/2/2 1068/2/2 1069/2/2
f 1000/2/4 1069/2/4 1068/2/4 1070/2/4
f 993/2/5 1066/2/5 1069/2/5 1000/2/5
f 998/3/1 1002/3/1 1071/3/1 1067/3/1
f 1002/3/4 1003/3/4 1072/3/4 1071/3/4
f 1004/3/4 1006/3/4 1073/3/4 1074/3/4
f 1006/3/4 1005/3/4 1075/3/4 1073/3/4
f 1005/5/4 1007/5/4 1076/5/4 1075/5/4
f 1000/1/2 1070/1/2 1077/1/2 1009/1/2
f 1008/1/4 1009/1/4 1077/1/4 1078/1/4
f 1004/1/2 1074/1/2 1079/1/2 1011/1/2
f 1003/1/1 1080/1/1 1081/1/1 1072/1/1
f 1072/1/6 1081/1/6 1079/1/6 1074/1/6
f 1003/1/5 1004/1/5 1011/1/5 1080/1/5
f 1008/2/2 1078/2/2 1082/2/2 1083/2/2
f 1007/2/1 1084/2/1 1085/2/1 1076/2/1
f 1084/2/4 1083/2/4 1082/2/4 1085/2/4
f 1076/2/6 1085/2/6 1082/2/6 1078/2/6
f 1007/2/5 1008/2/5 1083/2/5 1084/2/5
f 1080/1/1 1086/1/1 1087/1/1 1081/1/1
f 1086/1/4 1088/1/4 1089/1/4 1087/1/4
f 1081/1/6 1087/1/6 1089/1/6 1079/1/6
f 1080/1/5 1011/1/5 1088/1/5 1086/1/5
f 1010/1/2 1090/1/2 1091/1/2 1092/1/2
f 1011/1/3 1079/1/3 1090/1/3 1010/1/3
f 1079/1/6 1089/1/6 1091/1/6 1090/1/6
f 1011/1/5 1010/1/5 1092/1/5 1088/1/5
f 1092/1/2 1091/1/2 1093/1/2 1094/1/2
f 1088/1/1 1095/1/1 1096/1/1 1089/1/1
f 1095/1/4 1094/1/4 1093/1/4 1096/1/4
f 1089/1/6 1096/1/6 1093/1/6 1091/1/6
f 1088/1/5 1092/1/5 1094/1/5 1095/1/5
f 1097/2/1 1098/2/1 1099/2/1 1100/2/1
f 1097/2/3 1100/2/3 1101/2/3 1102/2/3
f 1097/2/5 1102/2/5 1103/2/5 1098/2/5
f 1104/2/2 1105/2/2 1106/2/2 1107/2/2
f 1102/2/3 1101/2/3 1105/2/3 1104/2/3
f 1102/2/5 1104/2/5 1107/2/5 1103/2/5
f 1018/1/2 1108/1/2 1109/1/2 1019/1/2
f 1013/1/1 1017/1/1 1110/1/1 1111/1/1
f 1013/1/3 1111/1/3 1108/1/3 1018/1/3
f 1098/2/1 1024/2/1 1112/2/1 1099/2/1
f 1098/2/5 1103/2/5 1025/2/5 1024/2/5
f 1107/2/2 1106/2/2 1113/2/2 1026/2/2
f 1103/2/5 1107/2/5 1026/2/5 1025/2/5
f 1114/1/2 1115/1/2 1116/1/2 1032/1/2
f 1117/1/1 1031/1/1 1118/1/1 1119/1/1
f 1117/1/3 1119/1/3 1115/1/3 1114/1/3
f 1119/1/6 1118/1/6 1116/1/6 1115/1/6
f 1117/1/5 1114/1/5 1032/1/5 1031/1/5
f 1120/1/1 1033/1/1 1121/1/1 1122/1/1
f 1120/1/3 1122/1/3 1123/1/3 1016/1/3
f 1120/1/5 1016/1/5 1036/1/5 1033/1/5
f 1016/6/3 1123/6/3 1110/6/3 1017/6/3
f 1123/6/6 1124/6/6 1125/6/6 1110/6/6
f 1016/6/5 1017/6/5 1021/6/5 1036/6/5
f 1019/6/2 1109/6/2 1126/6/2 1020/6/2
f 1023/1/1 1022/1/1 1127/1/1 1128/1/1
f 1023/1/3 1128/1/3 1112/1/3 1024/1/3
f 1026/1/3 1113/1/3 1129/1/3 1027/1/3
f 1028/5/2 1130/5/2 1131/5/2 1029/5/2
f 1027/5/3 1129/5/3 1130/5/3 1028/5/3
f 1032/1/2 1116/1/2 1132/1/2 1034/1/2
f 1031/1/1 1030/1/1 1133/1/1 1118/1/1
f 1118/1/6 1133/1/6 1132/1/6 1116/1/6
f 1033/6/1 1035/6/1 1134/6/1 1121/6/1
f 1121/6/6 1134/6/6 1135/6/6 1124/6/6
f 1037/6/4 1039/6/4 1136/6/4 1135/6/4
f 1124/6/6 1135/6/6 1136/6/6 1125/6/6
f 1036/6/5 1021/6/5 1039/6/5 1037/6/5
f 1020/1/2 1126/1/2 1137/1/2 1038/1/2
f 1125/1/6 1136/1/6 1137/1/6 1126/1/6
f 1022/1/1 1040/1/1 1138/1/1 1127/1/1
f 1042/1/4 1041/1/4 1139/1/4 1140/1/4
f 1029/1/2 1131/1/2 1141/1/2 1043/1/2
f 1041/1/4 1043/1/4 1141/1/4 1139/1/4
f 1030/1/1 1044/1/1 1142/1/1 1133/1/1
f 1044/1/4 1046/1/4 1143/1/4 1142/1/4
f 1133/1/6 1142/1/6 1143/1/6 1132/1/6
f 1034/1/3 1132/1/3 1134/1/3 1035/1/3
f 1046/1/4 1045/1/4 1144/1/4 1143/1/4
f 1132/1/6 1143/1/6 1144/1/6 1134/1/6
f 1037/1/2 1135/1/2 1145/1/2 1047/1/2
f 1038/1/2 1137/1/2 1146/1/2 1049/1/2
f 1039/1/1 1048/1/1 1147/1/1 1136/1/1
f 1136/1/6 1147/1/6 1146/1/6 1137/1/6
f 1040/1/1 1050/1/1 1148/1/1 1138/1/1
f 1042/1/2 1140/1/2 1149/1/2 1051/1/2
f 1150/1/6 1151/1/6 1149/1/6 1140/1/6
f 1045/1/1 1060/1/1 1152/1/1 1144/1/1
f 1144/1/6 1152/1/6 1153/1/6 1145/1/6
f 1045/1/5 1047/1/5 1054/1/5 1060/1/5
f 1047/6/3 1145/6/3 1147/6/3 1048/6/3
f 1049/1/3 1146/1/3 1148/1/3 1050/1/3
f 1049/1/5 1050/1/5 1056/1/5 1055/1/5
f 1051/1/2 1149/1/2 1154/1/2 1057/1/2
f 1151/1/6 1155/1/6 1154/1/6 1149/1/6
f 1052/1/1 1059/1/1 1156/1/1 1157/1/1
f 1052/1/3 1157/1/3 1152/1/3 1060/1/3
f 1059/1/4 1061/1/4 1158/1/4 1156/1/4
f 1152/1/6 1158/1/6 1159/1/6 1153/1/6
f 1153/6/6 1159/6/6 1160/6/6 1161/6/6
f 1055/8/5 1056/8/5 1063/8/5 1062/8/5
f 1064/2/2 1162/2/2 1163/2/2 1065/2/2
f 1057/2/3 1154/2/3 1162/2/3 1064/2/3
f 1154/2/6 1164/2/6 1163/2/6 1162/2/6
f 1061/1/1 1067/1/1 1165/1/1 1158/1/1
f 1065/2/2 1163/2/2 1166/2/2 1068/2/2
f 1070/2/4 1068/2/4 1166/2/4 1167/2/4
f 1164/2/6 1167/2/6 1166/2/6 1163/2/6
f 1067/1/1 1071/1/1 1168/1/1 1165/1/1
f 1071/1/4 1072/1/4 1169/1/4 1168/1/4
f 1072/1/4 1074/1/4 1170/1/4 1169/1/4
f 1075/3/4 1076/3/4 1171/3/4 1172/3/4
f 1076/1/4 1078/1/4 1173/1/4 1171/1/4
f 1070/1/2 1167/1/2 1174/1/2 1077/1/2
f 1078/1/4 1077/1/4 1174/1/4 1173/1/4
f 1074/6/1 1079/6/1 1175/6/1 1170/6/1
f 1079/6/4 1090/6/4 1176/6/4 1175/6/4
f 1170/6/6 1175/6/6 1176/6/6 1177/6/6
f 1074/6/5 1073/6/5 1090/6/5 1079/6/5
f 1075/6/2 1172/6/2 1178/6/2 1179/6/2
f 1177/6/6 1176/6/6 1178/6/6 1172/6/6
f 1073/6/5 1075/6/5 1179/6/5 1090/6/5
f 1179/1/2 1178/1/2 1180/1/2 1181/1/2
f 1090/1/1 1091/1/1 1182/1/1 1176/1/1
f 1090/1/5 1179/1/5 1181/1/5 1091/1/5
f 1181/2/2 1180/2/2 1183/2/2 1184/2/2
f 1091/2/1 1093/2/1 1185/2/1 1182/2/1
f 1093/2/4 1184/2/4 1183/2/4 1185/2/4
f 1091/2/5 1181/2/5 1184/2/5 1093/2/5
f 1100/2/1 1099/2/1 1186/2/1 1187/2/1
f 1100/2/3 1187/2/3 1188/2/3 1101/2/3
f 1105/2/2 1189/2/2 1190/2/2 1106/2/2
f 1101/2/3 1188/2/3 1189/2/3 1105/2/3
f 1111/6/1 1110/6/1 1191/6/1 1192/6/1
f 1111/6/3 1192/6/3 1193/6/3 1108/6/3
f 1194/6/2 1195/6/2 1196/6/2 1128/6/2
f 1108/6/3 1193/6/3 1195/6/3 1194/6/3
f 1108/6/5 1194/6/5 1128/6/5 1109/6/5
f 1099/2/1 1112/2/1 1197/2/1 1186/2/1
f 1106/2/2 1190/2/2 1198/2/2 1113/2/2
f 1123/1/2 1199/1/2 1200/1/2 1124/1/2
f 1122/1/1 1121/1/1 1201/1/1 1202/1/1
f 1122/1/3 1202/1/3 1199/1/3 1123/1/3
f 1121/1/4 1124/1/4 1200/1/4 1201/1/4
f 1110/6/1 1125/6/1 1203/6/1 1191/6/1
f 1125/6/4 1126/6/4 1204/6/4 1203/6/4
f 1126/7/4 1127/7/4 1205/7/4 1204/7/4
f 1206/7/6 1204/7/6 1205/7/6 1196/7/6
f 1109/7/5 1128/7/5 1127/7/5 1126/7/5
f 1128/8/3 1196/8/3 1197/8/3 1112/8/3
f 1113/1/3 1198/1/3 1207/1/3 1129/1/3
f 1130/5/2 1208/5/2 1209/5/2 1131/5/2
f 1129/5/3 1207/5/3 1208/5/3 1130/5/3
f 1127/1/1 1138/1/1 1210/1/1 1205/1/1
f 1205/1/6 1210/1/6 1211/1/6 1212/1/6
f 1150/1/4 1140/1/4 1213/1/4 1214/1/4
f 1140/1/4 1139/1/4 1215/1/4 1213/1/4
f 1131/3/2 1209/3/2 1216/3/2 1141/3/2
f 1139/3/4 1141/3/4 1216/3/4 1215/3/4
f 1217/3/6 1215/3/6 1216/3/6 1209/3/6
f 1135/1/2 1218/1/2 1219/1/2 1145/1/2
f 1134/1/1 1144/1/1 1220/1/1 1221/1/1
f 1134/1/3 1221/1/3 1218/1/3 1135/1/3
f 1144/1/4 1145/1/4 1219/1/4 1220/1/4
f 1138/1/1 1148/1/1 1222/1/1 1210/1/1
f 1210/1/6 1222/1/6 1223/1/6 1211/1/6
f 1150/1/2 1214/1/2 1224/1/2 1151/1/2
f 1145/1/1 1153/1/1 1225/1/1 1219/1/1
f 1145/1/3 1219/1/3 1226/1/3 1147/1/3
f 1153/1/4 1161/1/4 1227/1/4 1225/1/4
f 1147/1/3 1226/1/3 1228/1/3 1146/1/3
f 1226/1/6 1227/1/6 1229/1/6 1228/1/6
f 1146/1/3 1228/1/3 1222/1/3 1148/1/3
f 1228/1/6 1229/1/6 1230/1/6 1222/1/6
f 1151/1/2 1224/1/2 1231/1/2 1155/1/2
f 1152/1/2 1232/1/2 1233/1/2 1158/1/2
f 1157/1/1 1156/1/1 1234/1/1 1235/1/1
f 1157/1/3 1235/1/3 1232/1/3 1152/1/3
f 1156/1/4 1158/1/4 1233/1/4 1234/1/4
f 1235/1/6 1234/1/6 1233/1/6 1232/1/6
f 1161/8/1 1160/8/1 1236/8/1 1227/8/1
f 1227/8/6 1236/8/6 1237/8/6 1229/8/6
f 1154/1/2 1238/1/2 1239/1/2 1164/1/2
f 1155/1/3 1231/1/3 1238/1/3 1154/1/3
f 1158/1/1 1165/1/1 1240/1/1 1233/1/1
f 1158/1/3 1233/1/3 1241/1/3 1159/1/3
f 1159/1/3 1241/1/3 1236/1/3 1160/1/3
f 1236/1/6 1242/1/6 1243/1/6 1237/1/6
f 1237/3/6 1243/3/6 1244/3/6 1245/3/6
f 1164/4/2 1239/4/2 1246/4/2 1167/4/2
f 1165/1/1 1168/1/1 1247/1/1 1240/1/1
f 1168/1/4 1169/1/4 1248/1/4 1247/1/4
f 1240/1/6 1247/1/6 1248/1/6 1249/1/6
f 1169/3/4 1170/3/4 1250/3/4 1248/3/4
f 1249/3/6 1248/3/6 1250/3/6 1242/3/6
f 1170/1/4 1177/1/4 1251/1/4 1250/1/4
f 1177/3/4 1172/3/4 1252/3/4 1251/3/4
f 1243/3/6 1251/3/6 1252/3/6 1244/3/6
f 1172/3/4 1171/3/4 1253/3/4 1252/3/4
f 1254/3/6 1253/3/6 1255/3/6 1256/3/6
f 1167/1/2 1246/1/2 1257/1/2 1174/1/2
f 1256/1/6 1255/1/6 1257/1/6 1246/1/6
f 1171/1/1 1258/1/1 1259/1/1 1253/1/1
f 1258/1/4 1260/1/4 1261/1/4 1259/1/4
f 1171/1/5 1173/1/5 1260/1/5 1258/1/5
f 1174/1/2 1257/1/2 1262/1/2 1263/1/2
f 1260/1/4 1263/1/4 1262/1/4 1261/1/4
f 1255/1/6 1261/1/6 1262/1/6 1257/1/6
f 1173/1/5 1174/1/5 1263/1/5 1260/1/5
f 1178/1/2 1264/1/2 1265/1/2 1180/1/2
f 1176/1/1 1182/1/1 1266/1/1 1267/1/1
f 1176/1/3 1267/1/3 1264/1/3 1178/1/3
f 1267/1/6 1266/1/6 1265/1/6 1264/1/6
f 1180/1/2 1265/1/2 1268/1/2 1183/1/2
f 1182/1/1 1185/1/1 1269/1/1 1266/1/1
f 1185/1/4 1183/1/4 1268/1/4 1269/1/4
f 1270/1/2 1271/1/2 1272/1/2 1195/1/2
f 1273/1/1 1193/1/1 1274/1/1 1275/1/1
f 1273/1/3 1275/1/3 1271/1/3 1270/1/3
f 1275/1/6 1274/1/6 1272/1/6 1271/1/6
f 1273/1/5 1270/1/5 1195/1/5 1193/1/5
f 1187/2/1 1186/2/1 1276/2/1 1277/2/1
f 1187/2/3 1277/2/3 1278/2/3 1188/2/3
f 1277/2/6 1276/2/6 1279/2/6 1278/2/6
f 1189/2/2 1280/2/2 1281/2/2 1190/2/2
f 1188/2/3 1278/2/3 1280/2/3 1189/2/3
f 1278/2/6 1279/2/6 1281/2/6 1280/2/6
f 1192/1/1 1191/1/1 1282/1/1 1283/1/1
f 1192/1/3 1283/1/3 1274/1/3 1193/1/3
f 1283/1/6 1282/1/6 1284/1/6 1274/1/6
f 1195/1/2 1272/1/2 1285/1/2 1196/1/2
f 1206/1/4 1196/1/4 1285/1/4 1284/1/4
f 1274/1/6 1284/1/6 1285/1/6 1272/1/6
f 1186/2/1 1197/2/1 1286/2/1 1276/2/1
f 1276/2/6 1286/2/6 1287/2/6 1279/2/6
f 1190/2/2 1281/2/2 1288/2/2 1198/2/2
f 1279/2/6 1287/2/6 1288/2/6 1281/2/6
f 1202/1/1 1201/1/1 1289/1/1 1290/1/1
f 1202/1/3 1290/1/3 1291/1/3 1199/1/3
f 1201/1/4 1200/1/4 1292/1/4 1289/1/4
f 1199/3/3 1291/3/3 1282/3/3 1191/3/3
f 1200/3/4 1203/3/4 1293/3/4 1292/3/4
f 1199/3/5 1191/3/5 1203/3/5 1200/3/5
f 1206/1/2 1284/1/2 1294/1/2 1204/1/2
f 1203/1/4 1204/1/4 1294/1/4 1293/1/4
f 1282/1/6 1293/1/6 1294/1/6 1284/1/6
f 1196/5/1 1205/5/1 1295/5/1 1285/5/1
f 1196/5/3 1285/5/3 1286/5/3 1197/5/3
f 1205/5/4 1212/5/4 1296/5/4 1295/5/4
f 1285/5/6 1295/5/6 1296/5/6 1286/5/6
f 1198/5/3 1288/5/3 1297/5/3 1207/5/3
f 1288/5/6 1298/5/6 1299/5/6 1297/5/6
f 1208/1/2 1300/1/2 1301/1/2 1209/1/2
f 1207/1/3 1297/1/3 1300/1/3 1208/1/3
f 1217/1/4 1209/1/4 1301/1/4 1299/1/4
f 1212/1/1 1211/1/1 1302/1/1 1296/1/1
f 1217/1/2 1299/1/2 1303/1/2 1215/1/2
f 1221/3/1 1220/3/1 1304/3/1 1305/3/1
f 1221/3/3 1305/3/3 1306/3/3 1218/3/3
f 1220/3/4 1219/3/4 1307/3/4 1304/3/4
f 1305/3/6 1304/3/6 1307/3/6 1306/3/6
f 1308/3/2 1309/3/2 1310/3/2 1226/3/2
f 1218/3/3 1306/3/3 1309/3/3 1308/3/3
f 1306/3/6 1307/3/6 1310/3/6 1309/3/6
f 1218/3/5 1308/3/5 1226/3/5 1219/3/5
f 1211/3/1 1223/3/1 1311/3/1 1302/3/1
f 1214/1/5 1213/1/5 1312/1/5 1224/1/5
f 1215/1/2 1303/1/2 1313/1/2 1314/1/2
f 1213/1/5 1215/1/5 1314/1/5 1312/1/5
f 1226/1/2 1310/1/2 1315/1/2 1227/1/2
f 1219/1/1 1225/1/1 1316/1/1 1307/1/1
f 1225/1/4 1227/1/4 1315/1/4 1316/1/4
f 1222/3/1 1230/3/1 1317/3/1 1318/3/1
f 1222/3/3 1318/3/3 1311/3/3 1223/3/3
f 1318/3/6 1317/3/6 1319/3/6 1311/3/6
f 1224/1/5 1312/1/5 1238/1/5 1231/1/5
f 1314/1/2 1313/1/2 1320/1/2 1321/1/2
f 1312/1/5 1314/1/5 1321/1/5 1238/1/5
f 1229/3/1 1237/3/1 1322/3/1 1323/3/1
f 1229/3/3 1323/3/3 1317/3/3 1230/3/3
f 1237/3/4 1245/3/4 1324/3/4 1322/3/4
f 1323/3/6 1322/3/6 1324/3/6 1317/3/6
f 1317/1/6 1324/1/6 1325/1/6 1319/1/6
f 1321/1/2 1320/1/2 1326/1/2 1327/1/2
f 1239/1/4 1327/1/4 1326/1/4 1328/1/4
f 1238/1/5 1321/1/5 1327/1/5 1239/1/5
f 1233/3/1 1240/3/1 1329/3/1 1330/3/1
f 1233/3/3 1330/3/3 1331/3/3 1241/3/3
f 1240/3/4 1249/3/4 1332/3/4 1329/3/4
f 1330/3/6 1329/3/6 1332/3/6 1331/3/6
f 1236/1/2 1333/1/2 1334/1/2 1242/1/2
f 1241/1/3 1331/1/3 1333/1/3 1236/1/3
f 1249/1/4 1242/1/4 1334/1/4 1332/1/4
f 1331/1/6 1332/1/6 1334/1/6 1333/1/6
f 1245/3/1 1244/3/1 1335/3/1 1324/3/1
f 1324/3/6 1335/3/6 1336/3/6 1325/3/6
f 1254/3/4 1256/3/4 1337/3/4 1336/3/4
f 1239/1/2 1328/1/2 1338/1/2 1246/1/2
f 1256/1/4 1246/1/4 1338/1/4 1337/1/4
f 1243/2/2 1339/2/2 1340/2/2 1251/2/2
f 1242/2/1 1250/2/1 1341/2/1 1334/2/1
f 1242/2/3 1334/2/3 1339/2/3 1243/2/3
f 1250/2/4 1251/2/4 1340/2/4 1341/2/4
f 1334/2/6 1341/2/6 1340/2/6 1339/2/6
f 1254/3/2 1336/3/2 1342/3/2 1253/3/2
f 1244/3/1 1252/3/1 1343/3/1 1335/3/1
f 1335/3/6 1343/3/6 1342/3/6 1336/3/6
f 1252/1/1 1264/1/1 1344/1/1 1343/1/1
f 1264/1/4 1259/1/4 1345/1/4 1344/1/4
f 1343/1/6 1344/1/6 1345/1/6 1342/1/6
f 1252/1/5 1253/1/5 1259/1/5 1264/1/5
f 1255/1/2 1346/1/2 1347/1/2 1261/1/2
f 1253/1/3 1342/1/3 1346/1/3 1255/1/3
f 1342/1/6 1345/1/6 1347/1/6 1346/1/6
f 1261/1/2 1347/1/2 1348/1/2 1349/1/2
f 1259/1/1 1350/1/1 1351/1/1 1345/1/1
f 1350/1/4 1349/1/4 1348/1/4 1351/1/4
f 1345/1/6 1351/1/6 1348/1/6 1347/1/6
f 1259/1/5 1261/1/5 1349/1/5 1350/1/5
f 1265/1/2 1352/1/2 1353/1/2 1268/1/2
f 1266/1/1 1269/1/1 1354/1/1 1355/1/1
f 1266/1/3 1355/1/3 1352/1/3 1265/1/3
f 1269/1/4 1268/1/4 1353/1/4 1354/1/4
f 1355/1/6 1354/1/6 1353/1/6 1352/1/6
f 1290/1/1 1289/1/1 1356/1/1 1357/1/1
f 1290/1/3 1357/1/3 1358/1/3 1291/1/3
f 1289/1/4 1292/1/4 1359/1/4 1356/1/4
f 1357/1/6 1356/1/6 1359/1/6 1358/1/6
f 1282/1/2 1360/1/2 1361/1/2 1293/1/2
f 1291/1/3 1358/1/3 1360/1/3 1282/1/3
f 1292/1/4 1293/1/4 1361/1/4 1359/1/4
f 1286/1/1 1296/1/1 1362/1/1 1363/1/1
f 1286/1/3 1363/1/3 1364/1/3 1287/1/3
f 1363/1/6 1362/1/6 1365/1/6 1364/1/6
f 1288/1/2 1366/1/2 1367/1/2 1298/1/2
f 1287/1/3 1364/1/3 1366/1/3 1288/1/3
f 1300/1/2 1368/1/2 1369/1/2 1301/1/2
f 1297/1/1 1299/1/1 1370/1/1 1371/1/1
f 1297/1/3 1371/1/3 1368/1/3 1300/1/3
f 1299/1/4 1301/1/4 1369/1/4 1370/1/4
f 1371/1/6 1370/1/6 1369/1/6 1368/1/6
f 1296/1/1 1302/1/1 1372/1/1 1362/1/1
f 1362/1/6 1372/1/6 1373/1/6 1365/1/6
f 1365/1/6 1373/1/6 1374/1/6 1367/1/6
f 1299/1/2 1370/1/2 1375/1/2 1303/1/2
f 1298/1/3 1367/1/3 1370/1/3 1299/1/3
f 1302/3/1 1311/3/1 1376/3/1 1372/3/1
f 1372/3/6 1376/3/6 1377/3/6 1373/3/6
f 1303/1/2 1375/1/2 1378/1/2 1313/1/2
f 1374/1/6 1379/1/6 1378/1/6 1375/1/6
f 1310/2/2 1380/2/2 1381/2/2 1315/2/2
f 1307/2/1 1316/2/1 1382/2/1 1383/2/1
f 1307/2/3 1383/2/3 1380/2/3 1310/2/3
f 1316/2/4 1315/2/4 1381/2/4 1382/2/4
f 1383/2/6 1382/2/6 1381/2/6 1380/2/6
f 1311/3/1 1319/3/1 1384/3/1 1376/3/1
f 1376/3/6 1384/3/6 1385/3/6 1377/3/6
f 1313/1/2 1378/1/2 1386/1/2 1320/1/2
f 1379/1/6 1387/1/6 1386/1/6 1378/1/6
f 1319/1/1 1325/1/1 1388/1/1 1384/1/1
f 1384/1/6 1388/1/6 1389/1/6 1385/1/6
f 1385/1/6 1389/1/6 1390/1/6 1387/1/6
f 1320/1/2 1386/1/2 1391/1/2 1326/1/2
f 1328/1/4 1326/1/4 1391/1/4 1390/1/4
f 1387/1/6 1390/1/6 1391/1/6 1386/1/6
f 1325/3/1 1336/3/1 1392/3/1 1388/3/1
f 1336/3/4 1337/3/4 1393/3/4 1392/3/4
f 1328/1/2 1390/1/2 1394/1/2 1338/1/2
f 1337/1/4 1338/1/4 1394/1/4 1393/1/4
f 1389/1/6 1393/1/6 1394/1/6 1390/1/6
f 1395/1/2 1396/1/2 1397/1/2 1360/1/2
f 1398/1/1 1358/1/1 1399/1/1 1400/1/1
f 1398/1/3 1400/1/3 1396/1/3 1395/1/3
f 1398/1/5 1395/1/5 1360/1/5 1358/1/5
f 1360/1/2 1397/1/2 1401/1/2 1361/1/2
f 1358/1/1 1359/1/1 1402/1/1 1399/1/1
f 1359/1/4 1361/1/4 1401/1/4 1402/1/4
f 1364/1/1 1365/1/1 1403/1/1 1404/1/1
f 1364/1/3 1404/1/3 1405/1/3 1366/1/3
f 1365/1/4 1367/1/4 1406/1/4 1403/1/4
f 1404/1/6 1403/1/6 1406/1/6 1405/1/6
f 1371/1/2 1407/1/2 1408/1/2 1370/1/2
f 1366/1/3 1405/1/3 1407/1/3 1371/1/3
f 1405/1/6 1406/1/6 1408/1/6 1407/1/6
f 1366/1/5 1371/1/5 1370/1/5 1367/1/5
f 1367/3/1 1374/3/1 1409/3/1 1406/3/1
f 1374/3/4 1375/3/4 1410/3/4 1409/3/4
f 1406/3/6 1409/3/6 1410/3/6 1408/3/6
f 1369/1/2 1411/1/2 1412/1/2 1413/1/2
f 1370/1/3 1408/1/3 1411/1/3 1369/1/3
f 1375/1/4 1413/1/4 1412/1/4 1410/1/4
f 1408/1/6 1410/1/6 1412/1/6 1411/1/6
f 1370/1/5 1369/1/5 1413/1/5 1375/1/5
f 1374/2/2 1409/2/2 1414/2/2 1379/2/2
f 1373/2/1 1377/2/1 1415/2/1 1416/2/1
f 1373/2/3 1416/2/3 1409/2/3 1374/2/3
f 1416/2/6 1415/2/6 1414/2/6 1409/2/6
f 1379/1/2 1414/1/2 1417/1/2 1387/1/2
f 1377/1/1 1385/1/1 1418/1/1 1415/1/1
f 1385/1/4 1387/1/4 1417/1/4 1418/1/4
f 1415/1/6 1418/1/6 1417/1/6 1414/1/6
f 1389/2/2 1419/2/2 1420/2/2 1393/2/2
f 1388/2/1 1392/2/1 1421/2/1 1422/2/1
f 1388/2/3 1422/2/3 1419/2/3 1389/2/3
f 1392/2/4 1393/2/4 1420/2/4 1421/2/4
f 1422/2/6 1421/2/6 1420/2/6 1419/2/6
f 1396/1/2 1423/1/2 1424/1/2 1397/1/2
f 1400/1/1 1399/1/1 1425/1/1 1426/1/1
f 1400/1/3 1426/1/3 1423/1/3 1396/1/3
f 1426/1/6 1425/1/6 1424/1/6 1423/1/6
f 1397/2/2 1424/2/2 1427/2/2 1401/2/2
f 1399/2/1 1402/2/1 1428/2/1 1425/2/1
f 1402/2/4 1401/2/4 1427/2/4 1428/2/4
f 1425/2/6 1428/2/6 1427/2/6 1424/2/6
