mtllib Pino_romeron_Juan_Esteban_Acosta_Peña_fase_3.mtl
o Pino_romeron_Juan_Esteban_Acosta_Peña_fase_3
v -8.0000 -7.0000 1.0000
v -7.0000 -7.0000 1.0000
v -7.0000 -7.0000 -0.0000
v -8.0000 -7.0000 -0.0000
v -8.0000 -8.0000 1.0000
v -8.0000 -8.0000 -0.0000
v -7.0000 -8.0000 -0.0000
v -7.0000 -8.0000 1.0000
v -8.0000 7.0000 1.0000
v -7.0000 7.0000 1.0000
v -7.0000 7.0000 -0.0000
v -8.0000 7.0000 -0.0000
v -8.0000 6.0000 1.0000
v -8.0000 6.0000 -0.0000
v -7.0000 6.0000 -0.0000
v -7.0000 6.0000 1.0000
v -8.0000 6.0000 -1.0000
v -7.0000 6.0000 -1.0000
v -8.0000 7.0000 -1.0000
v -7.0000 7.0000 -1.0000
v -8.0000 8.0000 -0.0000
v -7.0000 8.0000 -0.0000
v -7.0000 8.0000 -1.0000
v -8.0000 8.0000 -1.0000
v -7.0000 -7.0000 2.0000
v -6.0000 -7.0000 2.0000
v -6.0000 -7.0000 1.0000
v -7.0000 -8.0000 2.0000
v -6.0000 -8.0000 1.0000
v -6.0000 -8.0000 2.0000
v -7.0000 -6.0000 1.0000
v -6.0000 -6.0000 1.0000
v -6.0000 -6.0000 -0.0000
v -7.0000 -6.0000 -0.0000
v -6.0000 -7.0000 -0.0000
v -7.0000 8.0000 1.0000
v -6.0000 8.0000 1.0000
v -6.0000 8.0000 -0.0000
v -6.0000 7.0000 -0.0000
v -6.0000 7.0000 1.0000
v -6.0000 -7.0000 -1.0000
v -7.0000 -7.0000 -1.0000
v -7.0000 -8.0000 -1.0000
v -6.0000 -8.0000 -1.0000
v -6.0000 -8.0000 -0.0000
v -6.0000 6.0000 -1.0000
v -6.0000 6.0000 -0.0000
v -6.0000 7.0000 -1.0000
v -6.0000 8.0000 -1.0000
v -6.0000 6.0000 5.0000
v -6.0000 6.0000 4.0000
v -5.0000 6.0000 4.0000
v -5.0000 6.0000 5.0000
v -5.0000 7.0000 5.0000
v -6.0000 7.0000 5.0000
v -6.0000 7.0000 4.0000
v -6.0000 8.0000 5.0000
v -5.0000 8.0000 5.0000
v -5.0000 8.0000 4.0000
v -6.0000 8.0000 4.0000
v -5.0000 7.0000 4.0000
v -5.0000 7.0000 3.0000
v -6.0000 7.0000 3.0000
v -6.0000 6.0000 3.0000
v -5.0000 6.0000 3.0000
v -6.0000 -7.0000 3.0000
v -5.0000 -7.0000 3.0000
v -5.0000 -7.0000 2.0000
v -6.0000 -8.0000 3.0000
v -5.0000 -8.0000 2.0000
v -5.0000 -8.0000 3.0000
v -5.0000 6.0000 2.0000
v -6.0000 6.0000 2.0000
v -6.0000 5.0000 3.0000
v -6.0000 5.0000 2.0000
v -5.0000 5.0000 2.0000
v -5.0000 5.0000 3.0000
v -6.0000 -6.0000 2.0000
v -5.0000 -6.0000 2.0000
v -5.0000 -6.0000 1.0000
v -5.0000 -7.0000 1.0000
v -5.0000 6.0000 1.0000
v -6.0000 6.0000 1.0000
v -6.0000 5.0000 1.0000
v -5.0000 5.0000 1.0000
v -5.0000 -8.0000 -0.0000
v -5.0000 -8.0000 1.0000
v -5.0000 -7.0000 -0.0000
v -5.0000 -6.0000 -0.0000
v -6.0000 -5.0000 1.0000
v -5.0000 -5.0000 1.0000
v -5.0000 -5.0000 -0.0000
v -6.0000 -5.0000 -0.0000
v -5.0000 -6.0000 -1.0000
v -6.0000 -6.0000 -1.0000
v -5.0000 -7.0000 -1.0000
v -5.0000 7.0000 -0.0000
v -5.0000 7.0000 -1.0000
v -5.0000 6.0000 -1.0000
v -5.0000 6.0000 -0.0000
v -5.0000 -7.0000 -2.0000
v -6.0000 -7.0000 -2.0000
v -6.0000 -8.0000 -2.0000
v -5.0000 -8.0000 -2.0000
v -5.0000 -8.0000 -1.0000
v -4.0000 7.0000 5.0000
v -4.0000 7.0000 4.0000
v -4.0000 6.0000 4.0000
v -4.0000 6.0000 5.0000
v -5.0000 -7.0000 4.0000
v -4.0000 -7.0000 4.0000
v -4.0000 -7.0000 3.0000
v -5.0000 -8.0000 4.0000
v -4.0000 -8.0000 3.0000
v -4.0000 -8.0000 4.0000
v -4.0000 6.0000 3.0000
v -4.0000 7.0000 3.0000
v -4.0000 8.0000 4.0000
v -4.0000 8.0000 3.0000
v -5.0000 8.0000 3.0000
v -5.0000 -6.0000 3.0000
v -4.0000 -6.0000 3.0000
v -4.0000 -6.0000 2.0000
v -4.0000 -7.0000 2.0000
v -4.0000 5.0000 3.0000
v -4.0000 5.0000 2.0000
v -5.0000 4.0000 3.0000
v -5.0000 4.0000 2.0000
v -4.0000 4.0000 2.0000
v -4.0000 4.0000 3.0000
v -4.0000 -8.0000 1.0000
v -4.0000 -8.0000 2.0000
v -4.0000 -7.0000 1.0000
v -4.0000 -6.0000 1.0000
v -5.0000 -5.0000 2.0000
v -4.0000 -5.0000 2.0000
v -4.0000 -5.0000 1.0000
v -4.0000 -7.0000 -0.0000
v -4.0000 -8.0000 -0.0000
v -4.0000 -6.0000 -0.0000
v -4.0000 -5.0000 -0.0000
v -5.0000 -4.0000 1.0000
v -4.0000 -4.0000 1.0000
v -4.0000 -4.0000 -0.0000
v -5.0000 -4.0000 -0.0000
v -4.0000 6.0000 1.0000
v -4.0000 6.0000 -0.0000
v -5.0000 5.0000 -0.0000
v -4.0000 5.0000 -0.0000
v -4.0000 5.0000 1.0000
v -4.0000 -8.0000 -1.0000
v -4.0000 -7.0000 -1.0000
v -4.0000 -6.0000 -1.0000
v -4.0000 -5.0000 -1.0000
v -5.0000 -5.0000 -1.0000
v -5.0000 4.0000 -0.0000
v -4.0000 4.0000 -0.0000
v -4.0000 4.0000 -1.0000
v -5.0000 4.0000 -1.0000
v -5.0000 3.0000 -0.0000
v -5.0000 3.0000 -1.0000
v -4.0000 3.0000 -1.0000
v -4.0000 3.0000 -0.0000
v -4.0000 -6.0000 -2.0000
v -5.0000 -6.0000 -2.0000
v -4.0000 -7.0000 -2.0000
v -5.0000 4.0000 -2.0000
v -4.0000 4.0000 -2.0000
v -4.0000 5.0000 -1.0000
v -5.0000 5.0000 -1.0000
v -5.0000 5.0000 -2.0000
v -4.0000 5.0000 -2.0000
v -4.0000 6.0000 -1.0000
v -5.0000 6.0000 -2.0000
v -4.0000 6.0000 -2.0000
v -4.0000 7.0000 -1.0000
v -4.0000 7.0000 -2.0000
v -5.0000 7.0000 -2.0000
v -4.0000 -7.0000 -3.0000
v -5.0000 -7.0000 -3.0000
v -5.0000 -8.0000 -3.0000
v -4.0000 -8.0000 -3.0000
v -4.0000 -8.0000 -2.0000
v -4.0000 7.0000 -3.0000
v -5.0000 7.0000 -3.0000
v -5.0000 6.0000 -3.0000
v -4.0000 6.0000 -3.0000
v -4.0000 -7.0000 5.0000
v -3.0000 -7.0000 5.0000
v -3.0000 -7.0000 4.0000
v -4.0000 -8.0000 5.0000
v -3.0000 -8.0000 4.0000
v -3.0000 -8.0000 5.0000
v -4.0000 -6.0000 4.0000
v -3.0000 -6.0000 4.0000
v -3.0000 -6.0000 3.0000
v -3.0000 -7.0000 3.0000
v -3.0000 6.0000 4.0000
v -3.0000 6.0000 3.0000
v -4.0000 5.0000 4.0000
v -3.0000 5.0000 3.0000
v -3.0000 5.0000 4.0000
v -3.0000 -8.0000 2.0000
v -3.0000 -8.0000 3.0000
v -3.0000 -7.0000 2.0000
v -3.0000 -6.0000 2.0000
v -4.0000 -5.0000 3.0000
v -3.0000 -5.0000 3.0000
v -3.0000 -5.0000 2.0000
v -4.0000 2.0000 3.0000
v -3.0000 2.0000 3.0000
v -3.0000 2.0000 2.0000
v -4.0000 2.0000 2.0000
v -4.0000 1.0000 3.0000
v -4.0000 1.0000 2.0000
v -3.0000 1.0000 2.0000
v -3.0000 1.0000 3.0000
v -3.0000 4.0000 3.0000
v -3.0000 4.0000 2.0000
v -4.0000 3.0000 3.0000
v -4.0000 3.0000 2.0000
v -3.0000 3.0000 2.0000
v -3.0000 3.0000 3.0000
v -4.0000 -4.0000 2.0000
v -3.0000 -4.0000 2.0000
v -3.0000 -4.0000 1.0000
v -3.0000 -5.0000 1.0000
v -3.0000 1.0000 1.0000
v -4.0000 1.0000 1.0000
v -4.0000 0.0000 2.0000
v -4.0000 0.0000 1.0000
v -3.0000 0.0000 1.0000
v -3.0000 0.0000 2.0000
v -3.0000 3.0000 1.0000
v -4.0000 3.0000 1.0000
v -4.0000 2.0000 1.0000
v -3.0000 2.0000 1.0000
v -3.0000 5.0000 2.0000
v -3.0000 5.0000 1.0000
v -4.0000 4.0000 1.0000
v -3.0000 4.0000 1.0000
v -4.0000 -3.0000 1.0000
v -3.0000 -3.0000 1.0000
v -3.0000 -3.0000 -0.0000
v -4.0000 -3.0000 -0.0000
v -3.0000 -4.0000 -0.0000
v -4.0000 0.0000 -0.0000
v -3.0000 0.0000 -0.0000
v -4.0000 1.0000 -0.0000
v -4.0000 2.0000 -0.0000
v -3.0000 2.0000 -0.0000
v -3.0000 1.0000 -0.0000
v -3.0000 3.0000 -0.0000
v -3.0000 4.0000 -0.0000
v -3.0000 5.0000 -0.0000
v -3.0000 -4.0000 -1.0000
v -4.0000 -4.0000 -1.0000
v -3.0000 -5.0000 -1.0000
v -3.0000 -5.0000 -0.0000
v -3.0000 1.0000 -1.0000
v -4.0000 1.0000 -1.0000
v -4.0000 0.0000 -1.0000
v -3.0000 0.0000 -1.0000
v -4.0000 2.0000 -1.0000
v -3.0000 2.0000 -1.0000
v -3.0000 3.0000 -1.0000
v -3.0000 4.0000 -1.0000
v -3.0000 6.0000 -0.0000
v -3.0000 6.0000 -1.0000
v -3.0000 5.0000 -1.0000
v -3.0000 -8.0000 -2.0000
v -3.0000 -8.0000 -1.0000
v -3.0000 -7.0000 -1.0000
v -3.0000 -7.0000 -2.0000
v -3.0000 -6.0000 -1.0000
v -3.0000 -6.0000 -2.0000
v -3.0000 -5.0000 -2.0000
v -4.0000 -5.0000 -2.0000
v -3.0000 2.0000 -2.0000
v -4.0000 2.0000 -2.0000
v -4.0000 1.0000 -2.0000
v -3.0000 1.0000 -2.0000
v -3.0000 4.0000 -2.0000
v -4.0000 3.0000 -2.0000
v -3.0000 3.0000 -2.0000
v -3.0000 -6.0000 -3.0000
v -4.0000 -6.0000 -3.0000
v -3.0000 -7.0000 -3.0000
v -3.0000 5.0000 -2.0000
v -3.0000 5.0000 -3.0000
v -4.0000 5.0000 -3.0000
v -4.0000 4.0000 -3.0000
v -3.0000 4.0000 -3.0000
v -3.0000 -7.0000 -4.0000
v -4.0000 -7.0000 -4.0000
v -4.0000 -8.0000 -4.0000
v -3.0000 -8.0000 -4.0000
v -3.0000 -8.0000 -3.0000
v -3.0000 7.0000 -3.0000
v -3.0000 7.0000 -4.0000
v -4.0000 7.0000 -4.0000
v -4.0000 6.0000 -4.0000
v -3.0000 6.0000 -4.0000
v -3.0000 6.0000 -3.0000
v -3.0000 6.0000 -5.0000
v -4.0000 6.0000 -5.0000
v -4.0000 5.0000 -4.0000
v -4.0000 5.0000 -5.0000
v -3.0000 5.0000 -5.0000
v -3.0000 5.0000 -4.0000
v -3.0000 6.0000 -6.0000
v -4.0000 6.0000 -6.0000
v -4.0000 5.0000 -6.0000
v -3.0000 5.0000 -6.0000
v -3.0000 7.0000 7.0000
v -2.0000 7.0000 7.0000
v -2.0000 7.0000 6.0000
v -3.0000 7.0000 6.0000
v -3.0000 6.0000 7.0000
v -3.0000 6.0000 6.0000
v -2.0000 6.0000 6.0000
v -2.0000 6.0000 7.0000
v -3.0000 -7.0000 6.0000
v -2.0000 -7.0000 6.0000
v -2.0000 -7.0000 5.0000
v -3.0000 -8.0000 6.0000
v -2.0000 -8.0000 5.0000
v -2.0000 -8.0000 6.0000
v -2.0000 6.0000 5.0000
v -3.0000 6.0000 5.0000
v -3.0000 5.0000 6.0000
v -3.0000 5.0000 5.0000
v -2.0000 5.0000 5.0000
v -2.0000 5.0000 6.0000
v -3.0000 -6.0000 5.0000
v -2.0000 -6.0000 5.0000
v -2.0000 -6.0000 4.0000
v -2.0000 -7.0000 4.0000
v -2.0000 -8.0000 3.0000
v -2.0000 -8.0000 4.0000
v -2.0000 -7.0000 3.0000
v -2.0000 -6.0000 3.0000
v -3.0000 -5.0000 4.0000
v -2.0000 -5.0000 4.0000
v -2.0000 -5.0000 3.0000
v -3.0000 2.0000 4.0000
v -2.0000 2.0000 4.0000
v -2.0000 2.0000 3.0000
v -3.0000 1.0000 4.0000
v -2.0000 1.0000 3.0000
v -2.0000 1.0000 4.0000
v -3.0000 3.0000 4.0000
v -2.0000 3.0000 3.0000
v -2.0000 3.0000 4.0000
v -2.0000 4.0000 4.0000
v -3.0000 4.0000 4.0000
v -2.0000 4.0000 3.0000
v -2.0000 5.0000 4.0000
v -2.0000 5.0000 3.0000
v -3.0000 -4.0000 3.0000
v -2.0000 -4.0000 3.0000
v -2.0000 -4.0000 2.0000
v -2.0000 -5.0000 2.0000
v -3.0000 -1.0000 3.0000
v -3.0000 -1.0000 2.0000
v -2.0000 -1.0000 2.0000
v -2.0000 -1.0000 3.0000
v -2.0000 0.0000 3.0000
v -3.0000 0.0000 3.0000
v -2.0000 0.0000 2.0000
v -2.0000 3.0000 2.0000
v -2.0000 6.0000 3.0000
v -2.0000 6.0000 2.0000
v -3.0000 6.0000 2.0000
v -2.0000 5.0000 2.0000
v -2.0000 -4.0000 1.0000
v -2.0000 -3.0000 2.0000
v -3.0000 -3.0000 2.0000
v -3.0000 -2.0000 2.0000
v -2.0000 -2.0000 2.0000
v -2.0000 -2.0000 1.0000
v -3.0000 -2.0000 1.0000
v -3.0000 -1.0000 1.0000
v -2.0000 -1.0000 1.0000
v -2.0000 3.0000 1.0000
v -2.0000 6.0000 1.0000
v -3.0000 6.0000 1.0000
v -2.0000 5.0000 1.0000
v -2.0000 -4.0000 -0.0000
v -3.0000 -2.0000 -0.0000
v -3.0000 -1.0000 -0.0000
v -2.0000 3.0000 -0.0000
v -3.0000 7.0000 1.0000
v -2.0000 7.0000 1.0000
v -2.0000 7.0000 -0.0000
v -3.0000 7.0000 -0.0000
v -2.0000 6.0000 -0.0000
v -2.0000 -4.0000 -1.0000
v -3.0000 -3.0000 -1.0000
v -2.0000 -3.0000 -1.0000
v -3.0000 -2.0000 -1.0000
v -2.0000 -2.0000 -1.0000
v -3.0000 -1.0000 -1.0000
v -2.0000 -1.0000 -1.0000
v -2.0000 3.0000 -1.0000
v -2.0000 6.0000 -1.0000
v -2.0000 5.0000 -1.0000
v -2.0000 5.0000 -0.0000
v -2.0000 -4.0000 -2.0000
v -3.0000 -4.0000 -2.0000
v -2.0000 -5.0000 -2.0000
v -2.0000 -5.0000 -1.0000
v -3.0000 -1.0000 -2.0000
v -2.0000 -1.0000 -2.0000
v -3.0000 0.0000 -2.0000
v -2.0000 0.0000 -2.0000
v -2.0000 3.0000 -2.0000
v -2.0000 2.0000 -2.0000
v -2.0000 6.0000 -2.0000
v -3.0000 6.0000 -2.0000
v -2.0000 5.0000 -2.0000
v -2.0000 -8.0000 -3.0000
v -2.0000 -8.0000 -2.0000
v -2.0000 -7.0000 -2.0000
v -2.0000 -7.0000 -3.0000
v -2.0000 -6.0000 -2.0000
v -2.0000 -6.0000 -3.0000
v -2.0000 -5.0000 -3.0000
v -3.0000 -5.0000 -3.0000
v -3.0000 0.0000 -3.0000
v -2.0000 0.0000 -3.0000
v -3.0000 1.0000 -3.0000
v -2.0000 1.0000 -3.0000
v -2.0000 2.0000 -3.0000
v -3.0000 2.0000 -3.0000
v -2.0000 -6.0000 -4.0000
v -3.0000 -6.0000 -4.0000
v -2.0000 -7.0000 -4.0000
v -3.0000 3.0000 -3.0000
v -3.0000 3.0000 -4.0000
v -2.0000 3.0000 -4.0000
v -2.0000 3.0000 -3.0000
v -2.0000 4.0000 -3.0000
v -3.0000 4.0000 -4.0000
v -2.0000 4.0000 -4.0000
v -2.0000 5.0000 -3.0000
v -2.0000 5.0000 -4.0000
v -2.0000 6.0000 -3.0000
v -2.0000 6.0000 -4.0000
v -2.0000 -7.0000 -5.0000
v -3.0000 -7.0000 -5.0000
v -3.0000 -8.0000 -5.0000
v -2.0000 -8.0000 -5.0000
v -2.0000 -8.0000 -4.0000
v -3.0000 7.0000 -5.0000
v -2.0000 7.0000 -5.0000
v -2.0000 7.0000 -6.0000
v -3.0000 7.0000 -6.0000
v -2.0000 6.0000 -6.0000
v -2.0000 6.0000 -5.0000
v -2.0000 7.0000 -7.0000
v -3.0000 7.0000 -7.0000
v -3.0000 6.0000 -7.0000
v -2.0000 6.0000 -7.0000
v -2.0000 -7.0000 7.0000
v -1.0000 -7.0000 7.0000
v -1.0000 -7.0000 6.0000
v -2.0000 -8.0000 7.0000
v -1.0000 -8.0000 6.0000
v -1.0000 -8.0000 7.0000
v -2.0000 -6.0000 6.0000
v -1.0000 -6.0000 6.0000
v -1.0000 -6.0000 5.0000
v -1.0000 -7.0000 5.0000
v -1.0000 5.0000 6.0000
v -1.0000 5.0000 5.0000
v -2.0000 4.0000 6.0000
v -2.0000 4.0000 5.0000
v -1.0000 4.0000 5.0000
v -1.0000 4.0000 6.0000
v -1.0000 -8.0000 4.0000
v -1.0000 -8.0000 5.0000
v -1.0000 -7.0000 4.0000
v -1.0000 -6.0000 4.0000
v -2.0000 -5.0000 5.0000
v -1.0000 -5.0000 5.0000
v -1.0000 -5.0000 4.0000
v -2.0000 2.0000 5.0000
v -1.0000 2.0000 5.0000
v -1.0000 2.0000 4.0000
v -2.0000 1.0000 5.0000
v -1.0000 1.0000 4.0000
v -1.0000 1.0000 5.0000
v -1.0000 4.0000 4.0000
v -2.0000 3.0000 5.0000
v -1.0000 3.0000 4.0000
v -1.0000 3.0000 5.0000
v -2.0000 -4.0000 4.0000
v -1.0000 -4.0000 4.0000
v -1.0000 -4.0000 3.0000
v -1.0000 -5.0000 3.0000
v -1.0000 1.0000 3.0000
v -2.0000 0.0000 4.0000
v -1.0000 0.0000 3.0000
v -1.0000 0.0000 4.0000
v -1.0000 3.0000 3.0000
v -1.0000 2.0000 3.0000
v -1.0000 5.0000 4.0000
v -1.0000 5.0000 3.0000
v -1.0000 4.0000 3.0000
v -1.0000 -4.0000 2.0000
v -1.0000 -3.0000 3.0000
v -2.0000 -3.0000 3.0000
v -1.0000 -2.0000 3.0000
v -2.0000 -2.0000 3.0000
v -1.0000 -1.0000 3.0000
v -1.0000 -1.0000 2.0000
v -1.0000 0.0000 2.0000
v -1.0000 3.0000 2.0000
v -2.0000 4.0000 2.0000
v -1.0000 4.0000 2.0000
v -1.0000 5.0000 2.0000
v -1.0000 6.0000 3.0000
v -1.0000 6.0000 2.0000
v -2.0000 -5.0000 1.0000
v -1.0000 -5.0000 1.0000
v -1.0000 -5.0000 2.0000
v -1.0000 3.0000 1.0000
v -2.0000 7.0000 2.0000
v -1.0000 7.0000 2.0000
v -1.0000 7.0000 1.0000
v -1.0000 6.0000 1.0000
v -2.0000 -5.0000 -0.0000
v -1.0000 -5.0000 -0.0000
v -2.0000 4.0000 1.0000
v -1.0000 4.0000 1.0000
v -1.0000 4.0000 -0.0000
v -2.0000 4.0000 -0.0000
v -1.0000 3.0000 -0.0000
v -1.0000 6.0000 -0.0000
v -2.0000 8.0000 1.0000
v -1.0000 8.0000 1.0000
v -1.0000 8.0000 -0.0000
v -2.0000 8.0000 -0.0000
v -1.0000 7.0000 -0.0000
v -1.0000 -5.0000 -1.0000
v -1.0000 -4.0000 -1.0000
v -1.0000 3.0000 -1.0000
v -2.0000 4.0000 -1.0000
v -1.0000 4.0000 -1.0000
v -1.0000 5.0000 -0.0000
v -1.0000 5.0000 -1.0000
v -1.0000 7.0000 -1.0000
v -2.0000 7.0000 -1.0000
v -1.0000 6.0000 -1.0000
v -1.0000 -4.0000 -2.0000
v -2.0000 -3.0000 -2.0000
v -1.0000 -3.0000 -2.0000
v -2.0000 -2.0000 -2.0000
v -1.0000 -2.0000 -2.0000
v -1.0000 -1.0000 -2.0000
v -1.0000 3.0000 -2.0000
v -1.0000 2.0000 -2.0000
v -1.0000 6.0000 -2.0000
v -1.0000 5.0000 -2.0000
v -1.0000 -4.0000 -3.0000
v -2.0000 -4.0000 -3.0000
v -1.0000 -5.0000 -3.0000
v -1.0000 -5.0000 -2.0000
v -2.0000 -1.0000 -3.0000
v -1.0000 -1.0000 -3.0000
v -1.0000 0.0000 -3.0000
v -1.0000 1.0000 -3.0000
v -1.0000 2.0000 -3.0000
v -2.0000 4.0000 -2.0000
v -1.0000 4.0000 -3.0000
v -1.0000 4.0000 -2.0000
v -1.0000 5.0000 -3.0000
v -1.0000 6.0000 -3.0000
v -1.0000 -8.0000 -4.0000
v -1.0000 -8.0000 -3.0000
v -1.0000 -7.0000 -3.0000
v -1.0000 -7.0000 -4.0000
v -1.0000 -6.0000 -3.0000
v -1.0000 -6.0000 -4.0000
v -1.0000 -5.0000 -4.0000
v -2.0000 -5.0000 -4.0000
v -2.0000 1.0000 -4.0000
v -1.0000 1.0000 -4.0000
v -2.0000 2.0000 -4.0000
v -1.0000 2.0000 -4.0000
v -1.0000 3.0000 -3.0000
v -1.0000 3.0000 -4.0000
v -1.0000 -6.0000 -5.0000
v -2.0000 -6.0000 -5.0000
v -1.0000 -7.0000 -5.0000
v -1.0000 5.0000 -4.0000
v -1.0000 5.0000 -5.0000
v -2.0000 5.0000 -5.0000
v -2.0000 4.0000 -5.0000
v -1.0000 4.0000 -5.0000
v -1.0000 4.0000 -4.0000
v -2.0000 8.0000 -4.0000
v -1.0000 8.0000 -4.0000
v -1.0000 8.0000 -5.0000
v -2.0000 8.0000 -5.0000
v -2.0000 7.0000 -4.0000
v -1.0000 7.0000 -5.0000
v -1.0000 7.0000 -4.0000
v -1.0000 -7.0000 -6.0000
v -2.0000 -7.0000 -6.0000
v -2.0000 -8.0000 -6.0000
v -1.0000 -8.0000 -6.0000
v -1.0000 -8.0000 -5.0000
v -2.0000 8.0000 -7.0000
v -1.0000 8.0000 -7.0000
v -1.0000 8.0000 -8.0000
v -2.0000 8.0000 -8.0000
v -2.0000 7.0000 -8.0000
v -1.0000 7.0000 -8.0000
v -1.0000 7.0000 -7.0000
v -1.0000 -7.0000 8.0000
v 0.0000 -7.0000 8.0000
v 0.0000 -7.0000 7.0000
v -1.0000 -8.0000 8.0000
v 0.0000 -8.0000 7.0000
v 0.0000 -8.0000 8.0000
v 0.0000 -8.0000 6.0000
v -1.0000 -6.0000 7.0000
v 0.0000 -6.0000 7.0000
v 0.0000 -6.0000 6.0000
v 0.0000 -8.0000 5.0000
v 0.0000 -7.0000 5.0000
v 0.0000 -6.0000 5.0000
v -1.0000 -5.0000 6.0000
v 0.0000 -5.0000 6.0000
v 0.0000 -5.0000 5.0000
v -1.0000 -4.0000 5.0000
v 0.0000 -4.0000 5.0000
v 0.0000 -4.0000 4.0000
v 0.0000 -5.0000 4.0000
v 0.0000 2.0000 4.0000
v 0.0000 2.0000 5.0000
v 0.0000 3.0000 5.0000
v 0.0000 4.0000 5.0000
v 0.0000 5.0000 5.0000
v 0.0000 5.0000 4.0000
v 0.0000 4.0000 4.0000
v 0.0000 -4.0000 3.0000
v 0.0000 -3.0000 4.0000
v -1.0000 -3.0000 4.0000
v 0.0000 -2.0000 4.0000
v -1.0000 -2.0000 4.0000
v 0.0000 -1.0000 4.0000
v -1.0000 -1.0000 4.0000
v 0.0000 0.0000 4.0000
v 0.0000 0.0000 3.0000
v 0.0000 1.0000 3.0000
v 0.0000 1.0000 4.0000
v 0.0000 2.0000 3.0000
v 0.0000 4.0000 3.0000
v 0.0000 3.0000 3.0000
v 0.0000 3.0000 4.0000
v 0.0000 5.0000 3.0000
v -1.0000 6.0000 4.0000
v 0.0000 6.0000 4.0000
v 0.0000 6.0000 3.0000
v 0.0000 -5.0000 2.0000
v 0.0000 -5.0000 3.0000
v 0.0000 3.0000 2.0000
v -1.0000 7.0000 3.0000
v 0.0000 7.0000 3.0000
v 0.0000 7.0000 2.0000
v 0.0000 6.0000 2.0000
v -1.0000 -6.0000 2.0000
v -1.0000 -6.0000 1.0000
v 0.0000 -6.0000 1.0000
v 0.0000 -6.0000 2.0000
v 0.0000 4.0000 2.0000
v 0.0000 4.0000 1.0000
v 0.0000 3.0000 1.0000
v 0.0000 6.0000 1.0000
v -1.0000 8.0000 2.0000
v 0.0000 8.0000 2.0000
v 0.0000 8.0000 1.0000
v -1.0000 -6.0000 -0.0000
v 0.0000 -6.0000 -0.0000
v 0.0000 4.0000 -0.0000
v 0.0000 3.0000 -0.0000
v 0.0000 5.0000 1.0000
v -1.0000 5.0000 1.0000
v 0.0000 5.0000 -0.0000
v 0.0000 8.0000 -0.0000
v -1.0000 -6.0000 -1.0000
v 0.0000 -6.0000 -1.0000
v 0.0000 -5.0000 -1.0000
v 0.0000 3.0000 -1.0000
v 0.0000 5.0000 -1.0000
v 0.0000 6.0000 -1.0000
v 0.0000 8.0000 -1.0000
v -1.0000 8.0000 -1.0000
v 0.0000 7.0000 -1.0000
v 0.0000 -5.0000 -2.0000
v 0.0000 -4.0000 -2.0000
v 0.0000 3.0000 -2.0000
v 0.0000 7.0000 -2.0000
v -1.0000 7.0000 -2.0000
v 0.0000 6.0000 -2.0000
v 0.0000 -4.0000 -3.0000
v -1.0000 -3.0000 -3.0000
v 0.0000 -3.0000 -3.0000
v -1.0000 -2.0000 -3.0000
v 0.0000 -2.0000 -3.0000
v 0.0000 -1.0000 -3.0000
v 0.0000 2.0000 -3.0000
v 0.0000 1.0000 -3.0000
v 0.0000 3.0000 -3.0000
v 0.0000 6.0000 -3.0000
v 0.0000 5.0000 -3.0000
v 0.0000 5.0000 -2.0000
v 0.0000 -4.0000 -4.0000
v -1.0000 -4.0000 -4.0000
v 0.0000 -5.0000 -4.0000
v 0.0000 -5.0000 -3.0000
v -1.0000 -1.0000 -4.0000
v 0.0000 -1.0000 -4.0000
v -1.0000 0.0000 -4.0000
v 0.0000 0.0000 -4.0000
v 0.0000 1.0000 -4.0000
v 0.0000 2.0000 -4.0000
v 0.0000 3.0000 -4.0000
v 0.0000 4.0000 -3.0000
v 0.0000 4.0000 -4.0000
v 0.0000 -8.0000 -5.0000
v 0.0000 -8.0000 -4.0000
v 0.0000 -7.0000 -4.0000
v 0.0000 -7.0000 -5.0000
v 0.0000 -6.0000 -4.0000
v 0.0000 -5.0000 -5.0000
v -1.0000 -5.0000 -5.0000
v 0.0000 -6.0000 -5.0000
v -1.0000 3.0000 -5.0000
v 0.0000 3.0000 -5.0000
v 0.0000 4.0000 -5.0000
v 0.0000 5.0000 -4.0000
v 0.0000 5.0000 -5.0000
v 0.0000 7.0000 -4.0000
v 0.0000 7.0000 -5.0000
v -1.0000 6.0000 -4.0000
v -1.0000 6.0000 -5.0000
v 0.0000 6.0000 -5.0000
v 0.0000 6.0000 -4.0000
v 0.0000 -6.0000 -6.0000
v -1.0000 -6.0000 -6.0000
v 0.0000 -7.0000 -6.0000
v 0.0000 -7.0000 -7.0000
v -1.0000 -7.0000 -7.0000
v -1.0000 -8.0000 -7.0000
v 0.0000 -8.0000 -7.0000
v 0.0000 -8.0000 -6.0000
v 1.0000 -7.0000 8.0000
v 1.0000 -7.0000 7.0000
v 1.0000 -8.0000 7.0000
v 1.0000 -8.0000 8.0000
v 1.0000 -8.0000 6.0000
v 1.0000 -6.0000 7.0000
v 1.0000 -6.0000 6.0000
v 1.0000 -7.0000 6.0000
v 1.0000 -8.0000 5.0000
v 1.0000 -7.0000 5.0000
v 1.0000 -6.0000 5.0000
v 1.0000 -5.0000 6.0000
v 1.0000 -5.0000 5.0000
v 1.0000 -4.0000 5.0000
v 1.0000 -4.0000 4.0000
v 1.0000 -5.0000 4.0000
v 1.0000 2.0000 4.0000
v 1.0000 2.0000 5.0000
v 1.0000 3.0000 5.0000
v 1.0000 3.0000 4.0000
v 1.0000 4.0000 5.0000
v 1.0000 4.0000 4.0000
v 1.0000 -4.0000 3.0000
v 1.0000 -3.0000 4.0000
v 1.0000 -3.0000 3.0000
v 1.0000 -2.0000 4.0000
v 1.0000 -2.0000 3.0000
v 1.0000 -1.0000 4.0000
v 1.0000 -1.0000 3.0000
v 1.0000 0.0000 4.0000
v 1.0000 1.0000 4.0000
v 1.0000 1.0000 3.0000
v 1.0000 3.0000 3.0000
v 1.0000 2.0000 3.0000
v 1.0000 4.0000 3.0000
v 1.0000 5.0000 4.0000
v 1.0000 6.0000 4.0000
v 1.0000 6.0000 3.0000
v 1.0000 5.0000 3.0000
v 0.0000 7.0000 4.0000
v 1.0000 7.0000 4.0000
v 1.0000 7.0000 3.0000
v 1.0000 -5.0000 2.0000
v 1.0000 -5.0000 3.0000
v 1.0000 -4.0000 2.0000
v 1.0000 0.0000 3.0000
v 1.0000 0.0000 2.0000
v 1.0000 1.0000 2.0000
v 1.0000 3.0000 2.0000
v 1.0000 5.0000 2.0000
v 0.0000 5.0000 2.0000
v 1.0000 4.0000 2.0000
v 1.0000 7.0000 2.0000
v 1.0000 6.0000 2.0000
v 1.0000 -6.0000 1.0000
v 1.0000 -6.0000 2.0000
v 1.0000 -5.0000 1.0000
v 1.0000 0.0000 1.0000
v 1.0000 1.0000 1.0000
v 1.0000 3.0000 1.0000
v 1.0000 6.0000 1.0000
v 1.0000 8.0000 2.0000
v 1.0000 8.0000 1.0000
v 1.0000 7.0000 1.0000
v 1.0000 -6.0000 -0.0000
v 1.0000 -5.0000 -0.0000
v 1.0000 0.0000 -0.0000
v 1.0000 1.0000 -0.0000
v 1.0000 4.0000 1.0000
v 1.0000 4.0000 -0.0000
v 1.0000 3.0000 -0.0000
v 1.0000 5.0000 1.0000
v 1.0000 5.0000 -0.0000
v 1.0000 6.0000 -0.0000
v 1.0000 8.0000 -0.0000
v 1.0000 -6.0000 -1.0000
v 1.0000 -5.0000 -1.0000
v 1.0000 3.0000 -1.0000
v 1.0000 5.0000 -1.0000
v 1.0000 6.0000 -1.0000
v 1.0000 8.0000 -1.0000
v 1.0000 7.0000 -1.0000
v 1.0000 7.0000 -0.0000
v 1.0000 -5.0000 -2.0000
v 1.0000 -4.0000 -2.0000
v 1.0000 -4.0000 -1.0000
v 1.0000 0.0000 -1.0000
v 1.0000 0.0000 -2.0000
v 1.0000 1.0000 -2.0000
v 1.0000 1.0000 -1.0000
v 0.0000 4.0000 -1.0000
v 1.0000 4.0000 -1.0000
v 1.0000 4.0000 -2.0000
v 0.0000 4.0000 -2.0000
v 1.0000 3.0000 -2.0000
v 1.0000 7.0000 -2.0000
v 1.0000 6.0000 -2.0000
v 1.0000 -4.0000 -3.0000
v 1.0000 -3.0000 -3.0000
v 1.0000 -3.0000 -2.0000
v 1.0000 -2.0000 -3.0000
v 1.0000 -2.0000 -2.0000
v 1.0000 -1.0000 -3.0000
v 1.0000 -1.0000 -2.0000
v 1.0000 0.0000 -3.0000
v 1.0000 1.0000 -3.0000
v 1.0000 2.0000 -3.0000
v 1.0000 3.0000 -3.0000
v 1.0000 4.0000 -3.0000
v 1.0000 5.0000 -2.0000
v 1.0000 5.0000 -3.0000
v 1.0000 6.0000 -3.0000
v 1.0000 -4.0000 -4.0000
v 1.0000 -5.0000 -4.0000
v 1.0000 -5.0000 -3.0000
v 1.0000 -1.0000 -4.0000
v 1.0000 0.0000 -4.0000
v 1.0000 1.0000 -4.0000
v 1.0000 2.0000 -4.0000
v 1.0000 4.0000 -4.0000
v 1.0000 3.0000 -4.0000
v 1.0000 -8.0000 -5.0000
v 1.0000 -8.0000 -4.0000
v 1.0000 -7.0000 -4.0000
v 1.0000 -7.0000 -5.0000
v 1.0000 -6.0000 -4.0000
v 1.0000 -5.0000 -5.0000
v 1.0000 -6.0000 -5.0000
v 1.0000 3.0000 -5.0000
v 0.0000 2.0000 -5.0000
v 1.0000 2.0000 -5.0000
v 1.0000 6.0000 -4.0000
v 1.0000 6.0000 -5.0000
v 1.0000 5.0000 -5.0000
v 1.0000 5.0000 -4.0000
v 0.0000 8.0000 -4.0000
v 1.0000 8.0000 -4.0000
v 1.0000 8.0000 -5.0000
v 0.0000 8.0000 -5.0000
v 1.0000 7.0000 -5.0000
v 1.0000 7.0000 -4.0000
v 1.0000 -6.0000 -6.0000
v 1.0000 -7.0000 -6.0000
v 1.0000 -7.0000 -7.0000
v 1.0000 -8.0000 -7.0000
v 1.0000 -8.0000 -6.0000
v 2.0000 -7.0000 7.0000
v 2.0000 -7.0000 6.0000
v 2.0000 -8.0000 6.0000
v 2.0000 -8.0000 7.0000
v 2.0000 -6.0000 6.0000
v 2.0000 -6.0000 5.0000
v 2.0000 -7.0000 5.0000
v 1.0000 -8.0000 4.0000
v 2.0000 -8.0000 4.0000
v 2.0000 -8.0000 5.0000
v 1.0000 -7.0000 4.0000
v 2.0000 -7.0000 4.0000
v 1.0000 -6.0000 4.0000
v 2.0000 -6.0000 4.0000
v 2.0000 -5.0000 5.0000
v 2.0000 -5.0000 4.0000
v 2.0000 2.0000 5.0000
v 2.0000 2.0000 4.0000
v 1.0000 1.0000 5.0000
v 2.0000 1.0000 4.0000
v 2.0000 1.0000 5.0000
v 2.0000 4.0000 5.0000
v 2.0000 4.0000 4.0000
v 2.0000 3.0000 4.0000
v 2.0000 3.0000 5.0000
v 1.0000 7.0000 5.0000
v 2.0000 7.0000 5.0000
v 2.0000 7.0000 4.0000
v 1.0000 6.0000 5.0000
v 2.0000 6.0000 4.0000
v 2.0000 6.0000 5.0000
v 2.0000 -4.0000 4.0000
v 2.0000 -4.0000 3.0000
v 2.0000 -5.0000 3.0000
v 2.0000 -1.0000 3.0000
v 2.0000 -1.0000 4.0000
v 2.0000 0.0000 4.0000
v 2.0000 0.0000 3.0000
v 2.0000 1.0000 3.0000
v 2.0000 3.0000 3.0000
v 2.0000 2.0000 3.0000
v 2.0000 4.0000 3.0000
v 2.0000 5.0000 4.0000
v 2.0000 5.0000 3.0000
v 2.0000 6.0000 3.0000
v 1.0000 8.0000 4.0000
v 2.0000 8.0000 4.0000
v 2.0000 8.0000 3.0000
v 1.0000 8.0000 3.0000
v 2.0000 7.0000 3.0000
v 2.0000 -4.0000 2.0000
v 2.0000 -3.0000 3.0000
v 2.0000 -3.0000 2.0000
v 2.0000 -2.0000 3.0000
v 2.0000 -2.0000 2.0000
v 2.0000 -1.0000 2.0000
v 2.0000 0.0000 2.0000
v 2.0000 1.0000 2.0000
v 2.0000 4.0000 2.0000
v 2.0000 3.0000 2.0000
v 2.0000 5.0000 2.0000
v 2.0000 6.0000 2.0000
v 2.0000 7.0000 2.0000
v 2.0000 -5.0000 1.0000
v 2.0000 -5.0000 2.0000
v 2.0000 -4.0000 1.0000
v 2.0000 0.0000 1.0000
v 2.0000 1.0000 1.0000
v 2.0000 3.0000 1.0000
v 2.0000 7.0000 1.0000
v 2.0000 6.0000 1.0000
v 2.0000 -5.0000 -0.0000
v 2.0000 -4.0000 -0.0000
v 2.0000 0.0000 -0.0000
v 2.0000 -1.0000 1.0000
v 2.0000 -1.0000 -0.0000
v 2.0000 1.0000 -0.0000
v 2.0000 3.0000 -0.0000
v 2.0000 5.0000 1.0000
v 2.0000 5.0000 -0.0000
v 2.0000 4.0000 -0.0000
v 2.0000 4.0000 1.0000
v 2.0000 6.0000 -0.0000
v 2.0000 8.0000 1.0000
v 2.0000 8.0000 -0.0000
v 2.0000 7.0000 -0.0000
v 2.0000 -5.0000 -1.0000
v 2.0000 -4.0000 -1.0000
v 2.0000 1.0000 -1.0000
v 2.0000 0.0000 -1.0000
v 2.0000 3.0000 -1.0000
v 2.0000 5.0000 -1.0000
v 2.0000 6.0000 -1.0000
v 2.0000 7.0000 -1.0000
v 2.0000 -4.0000 -2.0000
v 2.0000 -3.0000 -2.0000
v 2.0000 -3.0000 -1.0000
v 2.0000 -2.0000 -2.0000
v 2.0000 -2.0000 -1.0000
v 2.0000 -1.0000 -2.0000
v 2.0000 -1.0000 -1.0000
v 2.0000 0.0000 -2.0000
v 2.0000 1.0000 -2.0000
v 2.0000 3.0000 -2.0000
v 2.0000 6.0000 -2.0000
v 2.0000 5.0000 -2.0000
v 2.0000 -4.0000 -3.0000
v 2.0000 -5.0000 -3.0000
v 2.0000 -5.0000 -2.0000
v 2.0000 0.0000 -3.0000
v 2.0000 -1.0000 -3.0000
v 2.0000 1.0000 -3.0000
v 2.0000 3.0000 -3.0000
v 2.0000 2.0000 -2.0000
v 2.0000 2.0000 -3.0000
v 2.0000 4.0000 -3.0000
v 2.0000 4.0000 -2.0000
v 2.0000 5.0000 -3.0000
v 2.0000 6.0000 -3.0000
v 1.0000 -8.0000 -3.0000
v 2.0000 -8.0000 -4.0000
v 2.0000 -8.0000 -3.0000
v 2.0000 -7.0000 -3.0000
v 1.0000 -7.0000 -3.0000
v 2.0000 -7.0000 -4.0000
v 2.0000 -6.0000 -3.0000
v 1.0000 -6.0000 -3.0000
v 2.0000 -5.0000 -4.0000
v 2.0000 -6.0000 -4.0000
v 2.0000 1.0000 -4.0000
v 2.0000 2.0000 -4.0000
v 2.0000 3.0000 -4.0000
v 2.0000 4.0000 -4.0000
v 2.0000 5.0000 -4.0000
v 2.0000 6.0000 -4.0000
v 2.0000 7.0000 -3.0000
v 1.0000 7.0000 -3.0000
v 2.0000 7.0000 -4.0000
v 1.0000 8.0000 -3.0000
v 2.0000 8.0000 -3.0000
v 2.0000 8.0000 -4.0000
v 2.0000 -6.0000 -5.0000
v 2.0000 -7.0000 -5.0000
v 2.0000 -7.0000 -6.0000
v 2.0000 -8.0000 -6.0000
v 2.0000 -8.0000 -5.0000
v 3.0000 -7.0000 6.0000
v 3.0000 -7.0000 5.0000
v 3.0000 -8.0000 5.0000
v 3.0000 -8.0000 6.0000
v 3.0000 -6.0000 5.0000
v 3.0000 -6.0000 4.0000
v 3.0000 -7.0000 4.0000
v 2.0000 -8.0000 3.0000
v 3.0000 -8.0000 3.0000
v 3.0000 -8.0000 4.0000
v 2.0000 -7.0000 3.0000
v 3.0000 -7.0000 3.0000
v 2.0000 -6.0000 3.0000
v 3.0000 -6.0000 3.0000
v 3.0000 -5.0000 4.0000
v 3.0000 -5.0000 3.0000
v 3.0000 2.0000 4.0000
v 3.0000 2.0000 3.0000
v 3.0000 1.0000 3.0000
v 3.0000 1.0000 4.0000
v 3.0000 3.0000 3.0000
v 3.0000 3.0000 4.0000
v 3.0000 4.0000 4.0000
v 3.0000 4.0000 3.0000
v 3.0000 5.0000 4.0000
v 3.0000 5.0000 3.0000
v 3.0000 7.0000 4.0000
v 3.0000 7.0000 3.0000
v 3.0000 6.0000 3.0000
v 3.0000 6.0000 4.0000
v 3.0000 -4.0000 3.0000
v 3.0000 -4.0000 2.0000
v 3.0000 -5.0000 2.0000
v 3.0000 1.0000 2.0000
v 3.0000 3.0000 2.0000
v 3.0000 2.0000 2.0000
v 3.0000 6.0000 2.0000
v 3.0000 5.0000 2.0000
v 3.0000 -4.0000 1.0000
v 3.0000 -3.0000 2.0000
v 3.0000 -3.0000 1.0000
v 3.0000 -2.0000 2.0000
v 3.0000 -2.0000 1.0000
v 3.0000 -1.0000 2.0000
v 3.0000 -1.0000 1.0000
v 3.0000 0.0000 2.0000
v 3.0000 0.0000 1.0000
v 3.0000 1.0000 1.0000
v 3.0000 2.0000 1.0000
v 3.0000 3.0000 1.0000
v 3.0000 4.0000 1.0000
v 3.0000 4.0000 2.0000
v 3.0000 5.0000 1.0000
v 3.0000 6.0000 1.0000
v 3.0000 -4.0000 -0.0000
v 3.0000 -3.0000 -0.0000
v 3.0000 -2.0000 -0.0000
v 3.0000 -1.0000 -0.0000
v 3.0000 1.0000 -0.0000
v 3.0000 3.0000 -0.0000
v 3.0000 7.0000 1.0000
v 3.0000 7.0000 -0.0000
v 3.0000 6.0000 -0.0000
v 3.0000 -4.0000 -1.0000
v 3.0000 -3.0000 -1.0000
v 3.0000 -2.0000 -1.0000
v 3.0000 -1.0000 -1.0000
v 3.0000 0.0000 -0.0000
v 3.0000 0.0000 -1.0000
v 3.0000 1.0000 -1.0000
v 3.0000 2.0000 -1.0000
v 3.0000 2.0000 -0.0000
v 3.0000 3.0000 -1.0000
v 3.0000 5.0000 -0.0000
v 3.0000 5.0000 -1.0000
v 2.0000 4.0000 -1.0000
v 3.0000 4.0000 -1.0000
v 3.0000 4.0000 -0.0000
v 3.0000 -4.0000 -2.0000
v 3.0000 -5.0000 -2.0000
v 3.0000 -5.0000 -1.0000
v 3.0000 0.0000 -2.0000
v 3.0000 -1.0000 -2.0000
v 3.0000 1.0000 -2.0000
v 3.0000 3.0000 -2.0000
v 3.0000 2.0000 -2.0000
v 3.0000 4.0000 -2.0000
v 3.0000 5.0000 -2.0000
v 3.0000 6.0000 -1.0000
v 3.0000 6.0000 -2.0000
v 2.0000 -8.0000 -2.0000
v 3.0000 -8.0000 -3.0000
v 3.0000 -8.0000 -2.0000
v 3.0000 -7.0000 -2.0000
v 2.0000 -7.0000 -2.0000
v 3.0000 -7.0000 -3.0000
v 3.0000 -6.0000 -2.0000
v 2.0000 -6.0000 -2.0000
v 3.0000 -5.0000 -3.0000
v 3.0000 -6.0000 -3.0000
v 3.0000 0.0000 -3.0000
v 3.0000 1.0000 -3.0000
v 3.0000 2.0000 -3.0000
v 3.0000 -6.0000 -4.0000
v 3.0000 -7.0000 -4.0000
v 3.0000 4.0000 -3.0000
v 3.0000 4.0000 -4.0000
v 3.0000 3.0000 -4.0000
v 3.0000 3.0000 -3.0000
v 3.0000 -7.0000 -5.0000
v 3.0000 -8.0000 -5.0000
v 3.0000 -8.0000 -4.0000
v 2.0000 6.0000 -5.0000
v 3.0000 6.0000 -5.0000
v 3.0000 6.0000 -4.0000
v 3.0000 7.0000 -4.0000
v 2.0000 7.0000 -5.0000
v 3.0000 8.0000 -4.0000
v 3.0000 8.0000 -5.0000
v 2.0000 8.0000 -5.0000
v 3.0000 7.0000 -5.0000
v 2.0000 6.0000 -6.0000
v 3.0000 6.0000 -6.0000
v 2.0000 7.0000 -6.0000
v 3.0000 7.0000 -6.0000
v 3.0000 8.0000 -6.0000
v 2.0000 8.0000 -6.0000
v 4.0000 -7.0000 5.0000
v 4.0000 -7.0000 4.0000
v 4.0000 -8.0000 4.0000
v 4.0000 -8.0000 5.0000
v 4.0000 -6.0000 4.0000
v 4.0000 -6.0000 3.0000
v 4.0000 -7.0000 3.0000
v 4.0000 6.0000 4.0000
v 4.0000 6.0000 3.0000
v 4.0000 5.0000 3.0000
v 4.0000 5.0000 4.0000
v 3.0000 -8.0000 2.0000
v 4.0000 -8.0000 2.0000
v 4.0000 -8.0000 3.0000
v 3.0000 -7.0000 2.0000
v 4.0000 -7.0000 2.0000
v 3.0000 -6.0000 2.0000
v 4.0000 -6.0000 2.0000
v 4.0000 -5.0000 3.0000
v 4.0000 -5.0000 2.0000
v 4.0000 2.0000 3.0000
v 4.0000 2.0000 2.0000
v 4.0000 1.0000 2.0000
v 4.0000 1.0000 3.0000
v 4.0000 4.0000 3.0000
v 4.0000 4.0000 2.0000
v 4.0000 3.0000 2.0000
v 4.0000 3.0000 3.0000
v 4.0000 6.0000 2.0000
v 4.0000 5.0000 2.0000
v 4.0000 -4.0000 2.0000
v 4.0000 -4.0000 1.0000
v 3.0000 -5.0000 1.0000
v 4.0000 -5.0000 1.0000
v 4.0000 1.0000 1.0000
v 4.0000 0.0000 1.0000
v 4.0000 0.0000 2.0000
v 4.0000 4.0000 1.0000
v 4.0000 3.0000 1.0000
v 4.0000 -3.0000 1.0000
v 4.0000 -3.0000 -0.0000
v 4.0000 -4.0000 -0.0000
v 4.0000 0.0000 -0.0000
v 4.0000 1.0000 -0.0000
v 4.0000 2.0000 1.0000
v 4.0000 2.0000 -0.0000
v 4.0000 3.0000 -0.0000
v 4.0000 6.0000 1.0000
v 4.0000 6.0000 -0.0000
v 4.0000 5.0000 -0.0000
v 4.0000 5.0000 1.0000
v 4.0000 -4.0000 -1.0000
v 3.0000 -5.0000 -0.0000
v 4.0000 -5.0000 -1.0000
v 4.0000 -5.0000 -0.0000
v 4.0000 1.0000 -1.0000
v 4.0000 0.0000 -1.0000
v 4.0000 2.0000 -1.0000
v 4.0000 3.0000 -1.0000
v 4.0000 4.0000 -0.0000
v 4.0000 4.0000 -1.0000
v 4.0000 5.0000 -1.0000
v 4.0000 6.0000 -1.0000
v 4.0000 7.0000 -0.0000
v 4.0000 7.0000 -1.0000
v 3.0000 7.0000 -1.0000
v 3.0000 -8.0000 -1.0000
v 4.0000 -8.0000 -2.0000
v 4.0000 -8.0000 -1.0000
v 4.0000 -7.0000 -1.0000
v 3.0000 -7.0000 -1.0000
v 4.0000 -7.0000 -2.0000
v 4.0000 -6.0000 -1.0000
v 3.0000 -6.0000 -1.0000
v 4.0000 -5.0000 -2.0000
v 4.0000 -6.0000 -2.0000
v 4.0000 2.0000 -2.0000
v 4.0000 1.0000 -2.0000
v 4.0000 3.0000 -2.0000
v 4.0000 4.0000 -2.0000
v 4.0000 5.0000 -2.0000
v 4.0000 6.0000 -2.0000
v 3.0000 7.0000 -2.0000
v 4.0000 7.0000 -2.0000
v 3.0000 8.0000 -1.0000
v 4.0000 8.0000 -1.0000
v 4.0000 8.0000 -2.0000
v 3.0000 8.0000 -2.0000
v 4.0000 -6.0000 -3.0000
v 4.0000 -7.0000 -3.0000
v 4.0000 5.0000 -3.0000
v 3.0000 5.0000 -3.0000
v 4.0000 4.0000 -3.0000
v 4.0000 -7.0000 -4.0000
v 4.0000 -8.0000 -4.0000
v 4.0000 -8.0000 -3.0000
v 4.0000 7.0000 -4.0000
v 4.0000 7.0000 -5.0000
v 4.0000 6.0000 -5.0000
v 4.0000 6.0000 -4.0000
v 4.0000 8.0000 -5.0000
v 4.0000 8.0000 -6.0000
v 4.0000 7.0000 -6.0000
v 4.0000 6.0000 6.0000
v 4.0000 6.0000 5.0000
v 5.0000 6.0000 5.0000
v 5.0000 6.0000 6.0000
v 5.0000 7.0000 6.0000
v 4.0000 7.0000 6.0000
v 4.0000 7.0000 5.0000
v 5.0000 7.0000 5.0000
v 4.0000 8.0000 6.0000
v 5.0000 8.0000 6.0000
v 5.0000 8.0000 5.0000
v 4.0000 8.0000 5.0000
v 5.0000 8.0000 4.0000
v 4.0000 8.0000 4.0000
v 4.0000 7.0000 4.0000
v 5.0000 7.0000 4.0000
v 5.0000 -7.0000 4.0000
v 5.0000 -7.0000 3.0000
v 5.0000 -8.0000 3.0000
v 5.0000 -8.0000 4.0000
v 5.0000 7.0000 3.0000
v 4.0000 7.0000 3.0000
v 5.0000 6.0000 3.0000
v 5.0000 6.0000 4.0000
v 5.0000 -6.0000 3.0000
v 5.0000 -6.0000 2.0000
v 5.0000 -7.0000 2.0000
v 5.0000 6.0000 2.0000
v 5.0000 5.0000 2.0000
v 5.0000 5.0000 3.0000
v 4.0000 -8.0000 1.0000
v 5.0000 -8.0000 1.0000
v 5.0000 -8.0000 2.0000
v 5.0000 -7.0000 1.0000
v 4.0000 -7.0000 1.0000
v 4.0000 -6.0000 1.0000
v 5.0000 -6.0000 1.0000
v 5.0000 -5.0000 2.0000
v 5.0000 -5.0000 1.0000
v 5.0000 5.0000 1.0000
v 5.0000 4.0000 1.0000
v 5.0000 4.0000 2.0000
v 5.0000 -7.0000 -0.0000
v 4.0000 -7.0000 -0.0000
v 4.0000 -8.0000 -0.0000
v 5.0000 -8.0000 -0.0000
v 4.0000 -6.0000 -0.0000
v 5.0000 -6.0000 -0.0000
v 5.0000 -4.0000 1.0000
v 5.0000 -4.0000 -0.0000
v 5.0000 -5.0000 -0.0000
v 5.0000 -8.0000 -1.0000
v 5.0000 -7.0000 -1.0000
v 5.0000 -5.0000 -1.0000
v 5.0000 -6.0000 -1.0000
v 5.0000 6.0000 -1.0000
v 5.0000 6.0000 -0.0000
v 5.0000 7.0000 -0.0000
v 5.0000 7.0000 -1.0000
v 4.0000 8.0000 -0.0000
v 5.0000 8.0000 -0.0000
v 5.0000 8.0000 -1.0000
v 5.0000 -6.0000 -2.0000
v 5.0000 -7.0000 -2.0000
v 5.0000 4.0000 -1.0000
v 5.0000 4.0000 -2.0000
v 5.0000 3.0000 -2.0000
v 5.0000 3.0000 -1.0000
v 5.0000 7.0000 -2.0000
v 5.0000 6.0000 -2.0000
v 5.0000 -7.0000 -3.0000
v 5.0000 -8.0000 -3.0000
v 5.0000 -8.0000 -2.0000
v 6.0000 8.0000 6.0000
v 6.0000 8.0000 5.0000
v 6.0000 7.0000 5.0000
v 6.0000 7.0000 6.0000
v 6.0000 6.0000 4.0000
v 6.0000 6.0000 5.0000
v 6.0000 7.0000 4.0000
v 6.0000 8.0000 4.0000
v 6.0000 -7.0000 3.0000
v 6.0000 -7.0000 2.0000
v 6.0000 -8.0000 2.0000
v 6.0000 -8.0000 3.0000
v 6.0000 -6.0000 2.0000
v 6.0000 -6.0000 1.0000
v 6.0000 -7.0000 1.0000
v 6.0000 -8.0000 -0.0000
v 6.0000 -8.0000 1.0000
v 6.0000 -7.0000 -0.0000
v 6.0000 -5.0000 1.0000
v 6.0000 -5.0000 -0.0000
v 6.0000 -6.0000 -0.0000
v 5.0000 4.0000 -0.0000
v 6.0000 4.0000 -0.0000
v 6.0000 4.0000 1.0000
v 6.0000 5.0000 1.0000
v 5.0000 5.0000 -0.0000
v 6.0000 5.0000 -0.0000
v 6.0000 6.0000 1.0000
v 5.0000 6.0000 1.0000
v 6.0000 6.0000 -0.0000
v 5.0000 7.0000 1.0000
v 6.0000 7.0000 1.0000
v 6.0000 7.0000 -0.0000
v 6.0000 -6.0000 -1.0000
v 6.0000 -7.0000 -1.0000
v 6.0000 4.0000 -1.0000
v 5.0000 3.0000 -0.0000
v 6.0000 3.0000 -1.0000
v 6.0000 3.0000 -0.0000
v 6.0000 -7.0000 -2.0000
v 6.0000 -8.0000 -2.0000
v 6.0000 -8.0000 -1.0000
v 6.0000 6.0000 -1.0000
v 6.0000 6.0000 -2.0000
v 5.0000 5.0000 -1.0000
v 5.0000 5.0000 -2.0000
v 6.0000 5.0000 -2.0000
v 6.0000 5.0000 -1.0000
v 7.0000 -7.0000 2.0000
v 7.0000 -7.0000 1.0000
v 7.0000 -8.0000 1.0000
v 7.0000 -8.0000 2.0000
v 7.0000 -6.0000 1.0000
v 7.0000 -6.0000 -0.0000
v 7.0000 -7.0000 -0.0000
v 7.0000 -7.0000 -1.0000
v 7.0000 -8.0000 -1.0000
v 7.0000 -8.0000 -0.0000
v 7.0000 5.0000 -0.0000
v 7.0000 5.0000 -1.0000
v 7.0000 4.0000 -1.0000
v 7.0000 4.0000 -0.0000
v 7.0000 6.0000 -1.0000
v 7.0000 6.0000 -2.0000
v 7.0000 5.0000 -2.0000
v 8.0000 -7.0000 1.0000
v 8.0000 -7.0000 -0.0000
v 8.0000 -8.0000 -0.0000
v 8.0000 -8.0000 1.0000
v 8.0000 4.0000 -1.0000
v 8.0000 4.0000 -0.0000
v 8.0000 5.0000 -0.0000
v 8.0000 5.0000 -1.0000
v 7.0000 6.0000 -0.0000
v 8.0000 6.0000 -0.0000
v 8.0000 6.0000 -1.0000
v 7.0000 4.0000 -2.0000
v 8.0000 4.0000 -2.0000
v 8.0000 5.0000 -2.0000
v 8.0000 6.0000 -2.0000
vt 0.001953 0.500000
vt 0.005859 0.500000
vt 0.009766 0.500000
vt 0.013672 0.500000
vt 0.017578 0.500000
vt 0.021484 0.500000
vt 0.025391 0.500000
vt 0.029297 0.500000
vt 0.033203 0.500000
vt 0.037109 0.500000
vn 0.0 -1.0 0.0
vn 0.0 1.0 0.0
vn 0.0 0.0 1.0
vn 0.0 0.0 -1.0
vn -1.0 0.0 0.0
vn 1.0 0.0 0.0
usemtl mat_Pino_romeron_Juan_Esteban_Acosta_Peña_fase_3
s off
f 1/1/2 2/1/2 3/1/2 4/1/2
f 5/1/1 6/1/1 7/1/1 8/1/1
f 5/1/3 8/1/3 2/1/3 1/1/3
f 6/1/4 4/1/4 3/1/4 7/1/4
f 8/1/6 7/1/6 3/1/6 2/1/6
f 5/1/5 1/1/5 4/1/5 6/1/5
f 9/2/2 10/2/2 11/2/2 12/2/2
f 13/2/1 14/2/1 15/2/1 16/2/1
f 13/2/3 16/2/3 10/2/3 9/2/3
f 16/2/6 15/2/6 11/2/6 10/2/6
f 13/2/5 9/2/5 12/2/5 14/2/5
f 14/3/1 17/3/1 18/3/1 15/3/1
f 17/3/4 19/3/4 20/3/4 18/3/4
f 14/3/5 12/3/5 19/3/5 17/3/5
f 21/4/2 22/4/2 23/4/2 24/4/2
f 12/4/3 11/4/3 22/4/3 21/4/3
f 19/4/4 24/4/4 23/4/4 20/4/4
f 12/4/5 21/4/5 24/4/5 19/4/5
f 25/5/2 26/5/2 27/5/2 2/5/2
f 28/5/1 8/5/1 29/5/1 30/5/1
f 28/5/3 30/5/3 26/5/3 25/5/3
f 8/5/4 2/5/4 27/5/4 29/5/4
f 30/5/6 29/5/6 27/5/6 26/5/6
f 28/5/5 25/5/5 2/5/5 8/5/5
f 31/6/2 32/6/2 33/6/2 34/6/2
f 2/6/1 3/6/1 35/6/1 27/6/1
f 2/6/3 27/6/3 32/6/3 31/6/3
f 3/6/4 34/6/4 33/6/4 35/6/4
f 2/6/5 31/6/5 34/6/5 3/6/5
f 36/7/2 37/7/2 38/7/2 22/7/2
f 10/7/1 11/7/1 39/7/1 40/7/1
f 10/7/3 40/7/3 37/7/3 36/7/3
f 40/7/6 39/7/6 38/7/6 37/7/6
f 10/7/5 36/7/5 22/7/5 11/7/5
f 3/5/2 35/5/2 41/5/2 42/5/2
f 7/5/1 43/5/1 44/5/1 45/5/1
f 7/5/3 45/5/3 35/5/3 3/5/3
f 43/5/4 42/5/4 41/5/4 44/5/4
f 45/5/6 44/5/6 41/5/6 35/5/6
f 7/5/5 3/5/5 42/5/5 43/5/5
f 15/7/1 18/7/1 46/7/1 47/7/1
f 15/7/3 47/7/3 39/7/3 11/7/3
f 18/7/4 20/7/4 48/7/4 46/7/4
f 22/4/2 38/4/2 49/4/2 23/4/2
f 20/4/4 23/4/4 49/4/4 48/4/4
f 39/4/6 48/4/6 49/4/6 38/4/6
f 50/3/1 51/3/1 52/3/1 53/3/1
f 50/3/3 53/3/3 54/3/3 55/3/3
f 50/3/5 55/3/5 56/3/5 51/3/5
f 57/4/2 58/4/2 59/4/2 60/4/2
f 55/4/3 54/4/3 58/4/3 57/4/3
f 56/4/4 60/4/4 59/4/4 61/4/4
f 54/4/6 61/4/6 59/4/6 58/4/6
f 55/4/5 57/4/5 60/4/5 56/4/5
f 56/2/2 61/2/2 62/2/2 63/2/2
f 51/2/1 64/2/1 65/2/1 52/2/1
f 64/2/4 63/2/4 62/2/4 65/2/4
f 51/2/5 56/2/5 63/2/5 64/2/5
f 66/6/2 67/6/2 68/6/2 26/6/2
f 69/6/1 30/6/1 70/6/1 71/6/1
f 69/6/3 71/6/3 67/6/3 66/6/3
f 30/6/4 26/6/4 68/6/4 70/6/4
f 71/6/6 70/6/6 68/6/6 67/6/6
f 69/6/5 66/6/5 26/6/5 30/6/5
f 64/4/2 65/4/2 72/4/2 73/4/2
f 74/4/1 75/4/1 76/4/1 77/4/1
f 74/4/3 77/4/3 65/4/3 64/4/3
f 77/4/6 76/4/6 72/4/6 65/4/6
f 74/4/5 64/4/5 73/4/5 75/4/5
f 78/8/2 79/8/2 80/8/2 32/8/2
f 26/8/1 27/8/1 81/8/1 68/8/1
f 26/8/3 68/8/3 79/8/3 78/8/3
f 26/8/5 78/8/5 32/8/5 27/8/5
f 73/4/2 72/4/2 82/4/2 83/4/2
f 75/4/1 84/4/1 85/4/1 76/4/1
f 84/4/4 83/4/4 82/4/4 85/4/4
f 76/4/6 85/4/6 82/4/6 72/4/6
f 75/4/5 73/4/5 83/4/5 84/4/5
f 29/5/1 45/5/1 86/5/1 87/5/1
f 29/5/3 87/5/3 81/5/3 27/5/3
f 45/5/4 35/5/4 88/5/4 86/5/4
f 29/5/5 27/5/5 35/5/5 45/5/5
f 81/5/6 88/5/6 89/5/6 80/5/6
f 90/6/2 91/6/2 92/6/2 93/6/2
f 32/6/3 80/6/3 91/6/3 90/6/3
f 33/6/4 93/6/4 92/6/4 89/6/4
f 32/6/5 90/6/5 93/6/5 33/6/5
f 33/6/2 89/6/2 94/6/2 95/6/2
f 35/6/1 41/6/1 96/6/1 88/6/1
f 41/6/4 95/6/4 94/6/4 96/6/4
f 35/6/5 33/6/5 95/6/5 41/6/5
f 39/4/2 97/4/2 98/4/2 48/4/2
f 47/4/1 46/4/1 99/4/1 100/4/1
f 47/4/3 100/4/3 97/4/3 39/4/3
f 46/4/4 48/4/4 98/4/4 99/4/4
f 100/4/6 99/4/6 98/4/6 97/4/6
f 41/8/2 96/8/2 101/8/2 102/8/2
f 44/8/1 103/8/1 104/8/1 105/8/1
f 44/8/3 105/8/3 96/8/3 41/8/3
f 103/8/4 102/8/4 101/8/4 104/8/4
f 105/8/6 104/8/6 101/8/6 96/8/6
f 44/8/5 41/8/5 102/8/5 103/8/5
f 54/2/2 106/2/2 107/2/2 61/2/2
f 53/2/1 52/2/1 108/2/1 109/2/1
f 53/2/3 109/2/3 106/2/3 54/2/3
f 109/2/6 108/2/6 107/2/6 106/2/6
f 110/8/2 111/8/2 112/8/2 67/8/2
f 113/8/1 71/8/1 114/8/1 115/8/1
f 113/8/3 115/8/3 111/8/3 110/8/3
f 71/8/4 67/8/4 112/8/4 114/8/4
f 115/8/6 114/8/6 112/8/6 111/8/6
f 113/8/5 110/8/5 67/8/5 71/8/5
f 52/2/1 65/2/1 116/2/1 108/2/1
f 65/2/4 62/2/4 117/2/4 116/2/4
f 108/2/6 116/2/6 117/2/6 107/2/6
f 59/9/2 118/9/2 119/9/2 120/9/2
f 61/9/3 107/9/3 118/9/3 59/9/3
f 62/9/4 120/9/4 119/9/4 117/9/4
f 107/9/6 117/9/6 119/9/6 118/9/6
f 61/9/5 59/9/5 120/9/5 62/9/5
f 121/5/2 122/5/2 123/5/2 79/5/2
f 67/5/1 68/5/1 124/5/1 112/5/1
f 67/5/3 112/5/3 122/5/3 121/5/3
f 67/5/5 121/5/5 79/5/5 68/5/5
f 77/2/2 125/2/2 126/2/2 76/2/2
f 127/2/1 128/2/1 129/2/1 130/2/1
f 127/2/3 130/2/3 125/2/3 77/2/3
f 128/2/4 76/2/4 126/2/4 129/2/4
f 130/2/6 129/2/6 126/2/6 125/2/6
f 127/2/5 77/2/5 76/2/5 128/2/5
f 70/5/1 87/5/1 131/5/1 132/5/1
f 70/5/3 132/5/3 124/5/3 68/5/3
f 132/5/6 131/5/6 133/5/6 124/5/6
f 70/5/5 68/5/5 81/5/5 87/5/5
f 81/5/4 80/5/4 134/5/4 133/5/4
f 124/5/6 133/5/6 134/5/6 123/5/6
f 135/5/2 136/5/2 137/5/2 91/5/2
f 79/5/3 123/5/3 136/5/3 135/5/3
f 123/5/6 134/5/6 137/5/6 136/5/6
f 79/5/5 135/5/5 91/5/5 80/5/5
f 81/5/2 133/5/2 138/5/2 88/5/2
f 87/5/1 86/5/1 139/5/1 131/5/1
f 131/5/6 139/5/6 138/5/6 133/5/6
f 80/5/1 89/5/1 140/5/1 134/5/1
f 134/5/6 140/5/6 141/5/6 137/5/6
f 142/6/2 143/6/2 144/6/2 145/6/2
f 91/6/3 137/6/3 143/6/3 142/6/3
f 92/6/4 145/6/4 144/6/4 141/6/4
f 137/6/6 141/6/6 144/6/6 143/6/6
f 91/6/5 142/6/5 145/6/5 92/6/5
f 82/2/2 146/2/2 147/2/2 100/2/2
f 85/2/1 148/2/1 149/2/1 150/2/1
f 85/2/3 150/2/3 146/2/3 82/2/3
f 148/2/4 100/2/4 147/2/4 149/2/4
f 150/2/6 149/2/6 147/2/6 146/2/6
f 85/2/5 82/2/5 100/2/5 148/2/5
f 86/5/1 105/5/1 151/5/1 139/5/1
f 105/5/4 96/5/4 152/5/4 151/5/4
f 139/5/6 151/5/6 152/5/6 138/5/6
f 86/5/5 88/5/5 96/5/5 105/5/5
f 88/5/3 138/5/3 140/5/3 89/5/3
f 138/5/6 152/5/6 153/5/6 140/5/6
f 92/5/2 141/5/2 154/5/2 155/5/2
f 94/5/4 155/5/4 154/5/4 153/5/4
f 140/5/6 153/5/6 154/5/6 141/5/6
f 89/5/5 92/5/5 155/5/5 94/5/5
f 156/2/2 157/2/2 158/2/2 159/2/2
f 160/2/1 161/2/1 162/2/1 163/2/1
f 160/2/3 163/2/3 157/2/3 156/2/3
f 161/2/4 159/2/4 158/2/4 162/2/4
f 160/2/5 156/2/5 159/2/5 161/2/5
f 94/5/2 153/5/2 164/5/2 165/5/2
f 96/5/1 101/5/1 166/5/1 152/5/1
f 101/5/4 165/5/4 164/5/4 166/5/4
f 96/5/5 94/5/5 165/5/5 101/5/5
f 159/7/1 167/7/1 168/7/1 158/7/1
f 159/7/3 158/7/3 169/7/3 170/7/3
f 167/7/4 171/7/4 172/7/4 168/7/4
f 158/7/6 168/7/6 172/7/6 169/7/6
f 159/7/5 170/7/5 171/7/5 167/7/5
f 170/4/3 169/4/3 173/4/3 99/4/3
f 171/4/4 174/4/4 175/4/4 172/4/4
f 169/4/6 172/4/6 175/4/6 173/4/6
f 170/4/5 99/4/5 174/4/5 171/4/5
f 98/4/2 176/4/2 177/4/2 178/4/2
f 99/4/3 173/4/3 176/4/3 98/4/3
f 173/4/6 175/4/6 177/4/6 176/4/6
f 99/4/5 98/4/5 178/4/5 174/4/5
f 101/6/2 166/6/2 179/6/2 180/6/2
f 104/6/1 181/6/1 182/6/1 183/6/1
f 104/6/3 183/6/3 166/6/3 101/6/3
f 181/6/4 180/6/4 179/6/4 182/6/4
f 183/6/6 182/6/6 179/6/6 166/6/6
f 104/6/5 101/6/5 180/6/5 181/6/5
f 178/7/2 177/7/2 184/7/2 185/7/2
f 174/7/1 186/7/1 187/7/1 175/7/1
f 186/7/4 185/7/4 184/7/4 187/7/4
f 175/7/6 187/7/6 184/7/6 177/7/6
f 174/7/5 178/7/5 185/7/5 186/7/5
f 188/1/2 189/1/2 190/1/2 111/1/2
f 191/1/1 115/1/1 192/1/1 193/1/1
f 191/1/3 193/1/3 189/1/3 188/1/3
f 115/1/4 111/1/4 190/1/4 192/1/4
f 193/1/6 192/1/6 190/1/6 189/1/6
f 191/1/5 188/1/5 111/1/5 115/1/5
f 194/5/2 195/5/2 196/5/2 122/5/2
f 111/5/1 112/5/1 197/5/1 190/5/1
f 111/5/3 190/5/3 195/5/3 194/5/3
f 111/5/5 194/5/5 122/5/5 112/5/5
f 108/4/2 198/4/2 199/4/2 116/4/2
f 200/4/1 125/4/1 201/4/1 202/4/1
f 200/4/3 202/4/3 198/4/3 108/4/3
f 125/4/4 116/4/4 199/4/4 201/4/4
f 202/4/6 201/4/6 199/4/6 198/4/6
f 200/4/5 108/4/5 116/4/5 125/4/5
f 114/5/1 132/5/1 203/5/1 204/5/1
f 114/5/3 204/5/3 197/5/3 112/5/3
f 132/5/4 124/5/4 205/5/4 203/5/4
f 204/5/6 203/5/6 205/5/6 197/5/6
f 114/5/5 112/5/5 124/5/5 132/5/5
f 124/5/4 123/5/4 206/5/4 205/5/4
f 197/5/6 205/5/6 206/5/6 196/5/6
f 207/6/2 208/6/2 209/6/2 136/6/2
f 122/6/3 196/6/3 208/6/3 207/6/3
f 123/6/4 136/6/4 209/6/4 206/6/4
f 196/6/6 206/6/6 209/6/6 208/6/6
f 122/6/5 207/6/5 136/6/5 123/6/5
f 210/4/2 211/4/2 212/4/2 213/4/2
f 214/4/1 215/4/1 216/4/1 217/4/1
f 214/4/3 217/4/3 211/4/3 210/4/3
f 215/4/4 213/4/4 212/4/4 216/4/4
f 214/4/5 210/4/5 213/4/5 215/4/5
f 130/7/2 218/7/2 219/7/2 129/7/2
f 220/7/1 221/7/1 222/7/1 223/7/1
f 220/7/3 223/7/3 218/7/3 130/7/3
f 221/7/4 129/7/4 219/7/4 222/7/4
f 223/7/6 222/7/6 219/7/6 218/7/6
f 220/7/5 130/7/5 129/7/5 221/7/5
f 224/10/2 225/10/2 226/10/2 143/10/2
f 136/10/1 137/10/1 227/10/1 209/10/1
f 136/10/3 209/10/3 225/10/3 224/10/3
f 137/10/4 143/10/4 226/10/4 227/10/4
f 209/10/6 227/10/6 226/10/6 225/10/6
f 136/10/5 224/10/5 143/10/5 137/10/5
f 215/4/2 216/4/2 228/4/2 229/4/2
f 230/4/1 231/4/1 232/4/1 233/4/1
f 230/4/3 233/4/3 216/4/3 215/4/3
f 230/4/5 215/4/5 229/4/5 231/4/5
f 221/7/2 222/7/2 234/7/2 235/7/2
f 213/7/1 236/7/1 237/7/1 212/7/1
f 213/7/3 212/7/3 222/7/3 221/7/3
f 213/7/5 221/7/5 235/7/5 236/7/5
f 126/9/2 238/9/2 239/9/2 150/9/2
f 129/9/1 240/9/1 241/9/1 219/9/1
f 129/9/3 219/9/3 238/9/3 126/9/3
f 219/9/6 241/9/6 239/9/6 238/9/6
f 129/9/5 126/9/5 150/9/5 240/9/5
f 242/1/2 243/1/2 244/1/2 245/1/2
f 143/1/1 144/1/1 246/1/1 226/1/1
f 143/1/3 226/1/3 243/1/3 242/1/3
f 144/1/4 245/1/4 244/1/4 246/1/4
f 143/1/5 242/1/5 245/1/5 144/1/5
f 231/2/1 247/2/1 248/2/1 232/2/1
f 231/2/5 229/2/5 249/2/5 247/2/5
f 229/2/3 228/2/3 237/2/3 236/2/3
f 249/2/4 250/2/4 251/2/4 252/2/4
f 229/2/5 236/2/5 250/2/5 249/2/5
f 236/4/5 235/4/5 163/4/5 250/4/5
f 235/5/3 234/5/3 241/5/3 240/5/3
f 234/5/6 253/5/6 254/5/6 241/5/6
f 235/5/5 240/5/5 157/5/5 163/5/5
f 150/7/2 239/7/2 255/7/2 149/7/2
f 157/7/4 149/7/4 255/7/4 254/7/4
f 241/7/6 254/7/6 255/7/6 239/7/6
f 240/7/5 150/7/5 149/7/5 157/7/5
f 144/1/2 246/1/2 256/1/2 257/1/2
f 141/1/1 154/1/1 258/1/1 259/1/1
f 141/1/3 259/1/3 246/1/3 144/1/3
f 154/1/4 257/1/4 256/1/4 258/1/4
f 259/1/6 258/1/6 256/1/6 246/1/6
f 141/1/5 144/1/5 257/1/5 154/1/5
f 249/3/2 252/3/2 260/3/2 261/3/2
f 247/3/1 262/3/1 263/3/1 248/3/1
f 262/3/4 261/3/4 260/3/4 263/3/4
f 247/3/5 249/3/5 261/3/5 262/3/5
f 250/2/1 264/2/1 265/2/1 251/2/1
f 264/2/4 162/2/4 266/2/4 265/2/4
f 250/2/5 163/2/5 162/2/5 264/2/5
f 157/2/2 254/2/2 267/2/2 158/2/2
f 253/2/6 266/2/6 267/2/6 254/2/6
f 147/2/2 268/2/2 269/2/2 173/2/2
f 149/2/1 169/2/1 270/2/1 255/2/1
f 149/2/3 255/2/3 268/2/3 147/2/3
f 169/2/4 173/2/4 269/2/4 270/2/4
f 149/2/5 147/2/5 173/2/5 169/2/5
f 151/6/1 183/6/1 271/6/1 272/6/1
f 151/6/3 272/6/3 273/6/3 152/6/3
f 183/6/4 166/6/4 274/6/4 271/6/4
f 272/6/6 271/6/6 274/6/6 273/6/6
f 151/6/5 152/6/5 166/6/5 183/6/5
f 152/5/3 273/5/3 275/5/3 153/5/3
f 273/5/6 274/5/6 276/5/6 275/5/6
f 154/6/2 258/6/2 277/6/2 278/6/2
f 153/6/3 275/6/3 258/6/3 154/6/3
f 164/6/4 278/6/4 277/6/4 276/6/4
f 275/6/6 276/6/6 277/6/6 258/6/6
f 153/6/5 154/6/5 278/6/5 164/6/5
f 264/7/2 265/7/2 279/7/2 280/7/2
f 261/7/1 281/7/1 282/7/1 260/7/1
f 261/7/3 260/7/3 265/7/3 264/7/3
f 281/7/4 280/7/4 279/7/4 282/7/4
f 261/7/5 264/7/5 280/7/5 281/7/5
f 158/2/2 267/2/2 283/2/2 168/2/2
f 162/2/1 284/2/1 285/2/1 266/2/1
f 284/2/4 168/2/4 283/2/4 285/2/4
f 266/2/6 285/2/6 283/2/6 267/2/6
f 162/2/5 158/2/5 168/2/5 284/2/5
f 164/8/2 276/8/2 286/8/2 287/8/2
f 166/8/1 179/8/1 288/8/1 274/8/1
f 179/8/4 287/8/4 286/8/4 288/8/4
f 166/8/5 164/8/5 287/8/5 179/8/5
f 172/4/2 289/4/2 290/4/2 291/4/2
f 168/4/1 292/4/1 293/4/1 283/4/1
f 168/4/3 283/4/3 289/4/3 172/4/3
f 292/4/4 291/4/4 290/4/4 293/4/4
f 283/4/6 293/4/6 290/4/6 289/4/6
f 168/4/5 172/4/5 291/4/5 292/4/5
f 179/1/2 288/1/2 294/1/2 295/1/2
f 182/1/1 296/1/1 297/1/1 298/1/1
f 182/1/3 298/1/3 288/1/3 179/1/3
f 296/1/4 295/1/4 294/1/4 297/1/4
f 298/1/6 297/1/6 294/1/6 288/1/6
f 182/1/5 179/1/5 295/1/5 296/1/5
f 184/3/2 299/3/2 300/3/2 301/3/2
f 187/3/1 302/3/1 303/3/1 304/3/1
f 187/3/3 304/3/3 299/3/3 184/3/3
f 302/3/4 301/3/4 300/3/4 303/3/4
f 304/3/6 303/3/6 300/3/6 299/3/6
f 187/3/5 184/3/5 301/3/5 302/3/5
f 302/2/2 303/2/2 305/2/2 306/2/2
f 307/2/1 308/2/1 309/2/1 310/2/1
f 307/2/3 310/2/3 303/2/3 302/2/3
f 310/2/6 309/2/6 305/2/6 303/2/6
f 307/2/5 302/2/5 306/2/5 308/2/5
f 306/4/2 305/4/2 311/4/2 312/4/2
f 308/4/1 313/4/1 314/4/1 309/4/1
f 313/4/4 312/4/4 311/4/4 314/4/4
f 309/4/6 314/4/6 311/4/6 305/4/6
f 308/4/5 306/4/5 312/4/5 313/4/5
f 315/2/2 316/2/2 317/2/2 318/2/2
f 319/2/1 320/2/1 321/2/1 322/2/1
f 319/2/3 322/2/3 316/2/3 315/2/3
f 320/2/4 318/2/4 317/2/4 321/2/4
f 322/2/6 321/2/6 317/2/6 316/2/6
f 319/2/5 315/2/5 318/2/5 320/2/5
f 323/8/2 324/8/2 325/8/2 189/8/2
f 326/8/1 193/8/1 327/8/1 328/8/1
f 326/8/3 328/8/3 324/8/3 323/8/3
f 193/8/4 189/8/4 325/8/4 327/8/4
f 328/8/6 327/8/6 325/8/6 324/8/6
f 326/8/5 323/8/5 189/8/5 193/8/5
f 320/4/2 321/4/2 329/4/2 330/4/2
f 331/4/1 332/4/1 333/4/1 334/4/1
f 331/4/3 334/4/3 321/4/3 320/4/3
f 332/4/4 330/4/4 329/4/4 333/4/4
f 334/4/6 333/4/6 329/4/6 321/4/6
f 331/4/5 320/4/5 330/4/5 332/4/5
f 335/5/2 336/5/2 337/5/2 195/5/2
f 189/5/1 190/5/1 338/5/1 325/5/1
f 189/5/3 325/5/3 336/5/3 335/5/3
f 189/5/5 335/5/5 195/5/5 190/5/5
f 192/5/1 204/5/1 339/5/1 340/5/1
f 192/5/3 340/5/3 338/5/3 190/5/3
f 204/5/4 197/5/4 341/5/4 339/5/4
f 340/5/6 339/5/6 341/5/6 338/5/6
f 192/5/5 190/5/5 197/5/5 204/5/5
f 197/5/4 196/5/4 342/5/4 341/5/4
f 338/5/6 341/5/6 342/5/6 337/5/6
f 343/8/2 344/8/2 345/8/2 208/8/2
f 195/8/3 337/8/3 344/8/3 343/8/3
f 196/8/4 208/8/4 345/8/4 342/8/4
f 337/8/6 342/8/6 345/8/6 344/8/6
f 195/8/5 343/8/5 208/8/5 196/8/5
f 346/5/2 347/5/2 348/5/2 211/5/2
f 349/5/1 217/5/1 350/5/1 351/5/1
f 349/5/3 351/5/3 347/5/3 346/5/3
f 351/5/6 350/5/6 348/5/6 347/5/6
f 349/5/5 346/5/5 211/5/5 217/5/5
f 352/7/1 223/7/1 353/7/1 354/7/1
f 352/7/3 354/7/3 355/7/3 356/7/3
f 223/7/4 218/7/4 357/7/4 353/7/4
f 354/7/6 353/7/6 357/7/6 355/7/6
f 352/7/5 356/7/5 218/7/5 223/7/5
f 202/2/2 358/2/2 359/2/2 201/2/2
f 356/2/3 355/2/3 358/2/3 202/2/3
f 218/2/4 201/2/4 359/2/4 357/2/4
f 356/2/5 202/2/5 201/2/5 218/2/5
f 360/1/2 361/1/2 362/1/2 225/1/2
f 208/1/1 209/1/1 363/1/1 345/1/1
f 208/1/3 345/1/3 361/1/3 360/1/3
f 209/1/4 225/1/4 362/1/4 363/1/4
f 345/1/6 363/1/6 362/1/6 361/1/6
f 208/1/5 360/1/5 225/1/5 209/1/5
f 364/1/1 365/1/1 366/1/1 367/1/1
f 364/1/3 367/1/3 368/1/3 369/1/3
f 367/1/6 366/1/6 370/1/6 368/1/6
f 364/1/5 369/1/5 233/1/5 365/1/5
f 369/4/3 368/4/3 350/4/3 217/4/3
f 369/4/5 217/4/5 216/4/5 233/4/5
f 223/10/2 353/10/2 371/10/2 222/10/2
f 211/10/3 348/10/3 353/10/3 223/10/3
f 211/10/5 223/10/5 222/10/5 212/10/5
f 199/3/2 372/3/2 373/3/2 374/3/2
f 201/3/1 238/3/1 375/3/1 359/3/1
f 201/3/3 359/3/3 372/3/3 199/3/3
f 201/3/5 199/3/5 374/3/5 238/3/5
f 225/6/1 226/6/1 376/6/1 362/6/1
f 225/6/3 362/6/3 377/6/3 378/6/3
f 225/6/5 378/6/5 243/6/5 226/6/5
f 379/6/2 380/6/2 381/6/2 382/6/2
f 378/6/3 377/6/3 380/6/3 379/6/3
f 378/6/5 379/6/5 382/6/5 243/6/5
f 365/5/1 383/5/1 384/5/1 366/5/1
f 365/5/5 233/5/5 232/5/5 383/5/5
f 216/2/5 212/2/5 237/2/5 228/2/5
f 222/2/2 371/2/2 385/2/2 234/2/2
f 374/2/2 373/2/2 386/2/2 387/2/2
f 238/2/1 239/2/1 388/2/1 375/2/1
f 239/2/4 387/2/4 386/2/4 388/2/4
f 375/2/6 388/2/6 386/2/6 373/2/6
f 238/2/5 374/2/5 387/2/5 239/2/5
f 226/5/1 246/5/1 389/5/1 376/5/1
f 243/8/5 382/8/5 390/8/5 244/8/5
f 382/6/3 381/6/3 384/6/3 383/6/3
f 382/6/5 383/6/5 391/6/5 390/6/5
f 383/6/5 232/6/5 248/6/5 391/6/5
f 234/2/2 385/2/2 392/2/2 253/2/2
f 393/3/2 394/3/2 395/3/2 396/3/2
f 387/3/1 268/3/1 397/3/1 386/3/1
f 387/3/3 386/3/3 394/3/3 393/3/3
f 268/3/4 396/3/4 395/3/4 397/3/4
f 387/3/5 393/3/5 396/3/5 268/3/5
f 246/5/1 256/5/1 398/5/1 389/5/1
f 256/5/4 399/5/4 400/5/4 398/5/4
f 246/5/5 244/5/5 399/5/5 256/5/5
f 399/6/4 401/6/4 402/6/4 400/6/4
f 244/6/5 390/6/5 401/6/5 399/6/5
f 401/1/4 403/1/4 404/1/4 402/1/4
f 390/1/5 391/1/5 403/1/5 401/1/5
f 391/5/5 248/5/5 263/5/5 403/5/5
f 252/4/5 251/4/5 265/4/5 260/4/5
f 253/2/2 392/2/2 405/2/2 266/2/2
f 268/4/2 397/4/2 406/4/2 269/4/2
f 255/4/1 270/4/1 407/4/1 408/4/1
f 255/4/3 408/4/3 397/4/3 268/4/3
f 256/5/2 398/5/2 409/5/2 410/5/2
f 258/5/1 277/5/1 411/5/1 412/5/1
f 258/5/3 412/5/3 398/5/3 256/5/3
f 277/5/4 410/5/4 409/5/4 411/5/4
f 412/5/6 411/5/6 409/5/6 398/5/6
f 258/5/5 256/5/5 410/5/5 277/5/5
f 403/5/1 413/5/1 414/5/1 404/5/1
f 413/5/4 415/5/4 416/5/4 414/5/4
f 403/5/5 263/5/5 415/5/5 413/5/5
f 263/10/5 260/10/5 282/10/5 415/10/5
f 266/4/2 405/4/2 417/4/2 285/4/2
f 279/4/4 285/4/4 417/4/4 418/4/4
f 265/4/5 266/4/5 285/4/5 279/4/5
f 269/3/2 406/3/2 419/3/2 420/3/2
f 270/3/1 289/3/1 421/3/1 407/3/1
f 289/3/4 420/3/4 419/3/4 421/3/4
f 270/3/5 269/3/5 420/3/5 289/3/5
f 271/6/1 298/6/1 422/6/1 423/6/1
f 271/6/3 423/6/3 424/6/3 274/6/3
f 298/6/4 288/6/4 425/6/4 422/6/4
f 423/6/6 422/6/6 425/6/6 424/6/6
f 271/6/5 274/6/5 288/6/5 298/6/5
f 274/5/3 424/5/3 426/5/3 276/5/3
f 424/5/6 425/5/6 427/5/6 426/5/6
f 277/1/2 411/1/2 428/1/2 429/1/2
f 276/1/3 426/1/3 411/1/3 277/1/3
f 286/1/4 429/1/4 428/1/4 427/1/4
f 426/1/6 427/1/6 428/1/6 411/1/6
f 276/1/5 277/1/5 429/1/5 286/1/5
f 415/5/1 430/5/1 431/5/1 416/5/1
f 430/5/4 432/5/4 433/5/4 431/5/4
f 415/5/5 282/5/5 432/5/5 430/5/5
f 279/4/2 418/4/2 434/4/2 435/4/2
f 432/4/4 435/4/4 434/4/4 433/4/4
f 282/4/5 279/4/5 435/4/5 432/4/5
f 286/5/2 427/5/2 436/5/2 437/5/2
f 288/5/1 294/5/1 438/5/1 425/5/1
f 294/5/4 437/5/4 436/5/4 438/5/4
f 288/5/5 286/5/5 437/5/5 294/5/5
f 439/4/1 440/4/1 441/4/1 442/4/1
f 439/4/3 442/4/3 443/4/3 293/4/3
f 440/4/4 444/4/4 445/4/4 441/4/4
f 442/4/6 441/4/6 445/4/6 443/4/6
f 439/4/5 293/4/5 444/4/5 440/4/5
f 293/2/3 443/2/3 446/2/3 290/2/3
f 444/2/4 310/2/4 447/2/4 445/2/4
f 443/2/6 445/2/6 447/2/6 446/2/6
f 293/2/5 290/2/5 310/2/5 444/2/5
f 304/4/2 448/4/2 449/4/2 303/4/2
f 290/4/3 446/4/3 448/4/3 304/4/3
f 310/4/4 303/4/4 449/4/4 447/4/4
f 446/4/6 447/4/6 449/4/6 448/4/6
f 290/4/5 304/4/5 303/4/5 310/4/5
f 294/10/2 438/10/2 450/10/2 451/10/2
f 297/10/1 452/10/1 453/10/1 454/10/1
f 297/10/3 454/10/3 438/10/3 294/10/3
f 452/10/4 451/10/4 450/10/4 453/10/4
f 454/10/6 453/10/6 450/10/6 438/10/6
f 297/10/5 294/10/5 451/10/5 452/10/5
f 455/2/2 456/2/2 457/2/2 458/2/2
f 305/2/1 311/2/1 459/2/1 460/2/1
f 305/2/3 460/2/3 456/2/3 455/2/3
f 460/2/6 459/2/6 457/2/6 456/2/6
f 305/2/5 455/2/5 458/2/5 311/2/5
f 458/9/2 457/9/2 461/9/2 462/9/2
f 311/9/1 463/9/1 464/9/1 459/9/1
f 463/9/4 462/9/4 461/9/4 464/9/4
f 459/9/6 464/9/6 461/9/6 457/9/6
f 311/9/5 458/9/5 462/9/5 463/9/5
f 465/5/2 466/5/2 467/5/2 324/5/2
f 468/5/1 328/5/1 469/5/1 470/5/1
f 468/5/3 470/5/3 466/5/3 465/5/3
f 328/5/4 324/5/4 467/5/4 469/5/4
f 468/5/5 465/5/5 324/5/5 328/5/5
f 471/6/2 472/6/2 473/6/2 336/6/2
f 324/6/1 325/6/1 474/6/1 467/6/1
f 324/6/3 467/6/3 472/6/3 471/6/3
f 324/6/5 471/6/5 336/6/5 325/6/5
f 334/7/2 475/7/2 476/7/2 333/7/2
f 477/7/1 478/7/1 479/7/1 480/7/1
f 477/7/3 480/7/3 475/7/3 334/7/3
f 478/7/4 333/7/4 476/7/4 479/7/4
f 480/7/6 479/7/6 476/7/6 475/7/6
f 477/7/5 334/7/5 333/7/5 478/7/5
f 327/5/1 340/5/1 481/5/1 482/5/1
f 327/5/3 482/5/3 474/5/3 325/5/3
f 340/5/4 338/5/4 483/5/4 481/5/4
f 482/5/6 481/5/6 483/5/6 474/5/6
f 327/5/5 325/5/5 338/5/5 340/5/5
f 338/6/4 337/6/4 484/6/4 483/6/4
f 474/6/6 483/6/6 484/6/6 473/6/6
f 485/5/2 486/5/2 487/5/2 344/5/2
f 336/5/3 473/5/3 486/5/3 485/5/3
f 337/5/4 344/5/4 487/5/4 484/5/4
f 473/5/6 484/5/6 487/5/6 486/5/6
f 336/5/5 485/5/5 344/5/5 337/5/5
f 488/2/2 489/2/2 490/2/2 347/2/2
f 491/2/1 351/2/1 492/2/1 493/2/1
f 491/2/3 493/2/3 489/2/3 488/2/3
f 351/2/4 347/2/4 490/2/4 492/2/4
f 493/2/6 492/2/6 490/2/6 489/2/6
f 491/2/5 488/2/5 347/2/5 351/2/5
f 478/4/2 479/4/2 494/4/2 355/4/2
f 495/4/1 354/4/1 496/4/1 497/4/1
f 495/4/3 497/4/3 479/4/3 478/4/3
f 354/4/4 355/4/4 494/4/4 496/4/4
f 495/4/5 478/4/5 355/4/5 354/4/5
f 498/6/2 499/6/2 500/6/2 361/6/2
f 344/6/1 345/6/1 501/6/1 487/6/1
f 344/6/3 487/6/3 499/6/3 498/6/3
f 345/6/4 361/6/4 500/6/4 501/6/4
f 487/6/6 501/6/6 500/6/6 499/6/6
f 344/6/5 498/6/5 361/6/5 345/6/5
f 351/3/2 492/3/2 502/3/2 350/3/2
f 503/3/1 368/3/1 504/3/1 505/3/1
f 503/3/3 505/3/3 492/3/3 351/3/3
f 505/3/6 504/3/6 502/3/6 492/3/6
f 503/3/5 351/3/5 350/3/5 368/3/5
f 354/4/2 496/4/2 506/4/2 353/4/2
f 347/4/1 348/4/1 507/4/1 490/4/1
f 347/4/3 490/4/3 496/4/3 354/4/3
f 347/4/5 354/4/5 353/4/5 348/4/5
f 358/4/2 508/4/2 509/4/2 359/4/2
f 355/4/1 357/4/1 510/4/1 494/4/1
f 355/4/3 494/4/3 508/4/3 358/4/3
f 361/5/1 362/5/1 511/5/1 500/5/1
f 361/5/3 500/5/3 512/5/3 513/5/3
f 361/5/5 513/5/5 377/5/5 362/5/5
f 513/6/3 512/6/3 514/6/3 515/6/3
f 513/6/5 515/6/5 380/6/5 377/6/5
f 367/8/2 516/8/2 517/8/2 366/8/2
f 515/8/3 514/8/3 516/8/3 367/8/3
f 515/8/5 367/8/5 366/8/5 380/8/5
f 368/5/1 370/5/1 518/5/1 504/5/1
f 350/2/3 502/2/3 507/2/3 348/2/3
f 353/2/2 506/2/2 519/2/2 371/2/2
f 357/2/1 520/2/1 521/2/1 510/2/1
f 520/2/4 375/2/4 522/2/4 521/2/4
f 510/2/6 521/2/6 522/2/6 509/2/6
f 357/2/5 359/2/5 375/2/5 520/2/5
f 372/2/2 523/2/2 524/2/2 373/2/2
f 359/2/3 509/2/3 523/2/3 372/2/3
f 375/2/4 373/2/4 524/2/4 522/2/4
f 509/2/6 522/2/6 524/2/6 523/2/6
f 363/5/1 525/5/1 526/5/1 527/5/1
f 363/5/3 527/5/3 511/5/3 362/5/3
f 363/5/5 362/5/5 376/5/5 525/5/5
f 380/6/5 366/6/5 384/6/5 381/6/5
f 366/5/3 517/5/3 518/5/3 370/5/3
f 371/6/2 519/6/2 528/6/2 385/6/2
f 529/2/2 530/2/2 531/2/2 394/2/2
f 373/2/1 386/2/1 532/2/1 524/2/1
f 373/2/3 524/2/3 530/2/3 529/2/3
f 373/2/5 529/2/5 394/2/5 386/2/5
f 525/5/1 533/5/1 534/5/1 526/5/1
f 525/5/5 376/5/5 389/5/5 533/5/5
f 535/6/2 536/6/2 537/6/2 538/6/2
f 385/6/3 528/6/3 536/6/3 535/6/3
f 392/6/4 538/6/4 537/6/4 539/6/4
f 385/6/5 535/6/5 538/6/5 392/6/5
f 386/2/1 397/2/1 540/2/1 532/2/1
f 541/4/2 542/4/2 543/4/2 544/4/2
f 394/4/3 531/4/3 542/4/3 541/4/3
f 395/4/4 544/4/4 543/4/4 545/4/4
f 394/4/5 541/4/5 544/4/5 395/4/5
f 533/5/1 412/5/1 546/5/1 534/5/1
f 412/5/4 398/5/4 547/5/4 546/5/4
f 533/5/5 389/5/5 398/5/5 412/5/5
f 392/2/2 539/2/2 548/2/2 405/2/2
f 538/4/1 549/4/1 550/4/1 537/4/1
f 538/4/3 537/4/3 551/4/3 408/4/3
f 549/4/4 407/4/4 552/4/4 550/4/4
f 537/4/6 550/4/6 552/4/6 551/4/6
f 538/4/5 408/4/5 407/4/5 549/4/5
f 408/4/3 551/4/3 540/4/3 397/4/3
f 395/4/2 545/4/2 553/4/2 554/4/2
f 406/4/4 554/4/4 553/4/4 555/4/4
f 397/4/5 395/4/5 554/4/5 406/4/5
f 398/8/1 409/8/1 556/8/1 547/8/1
f 409/8/4 557/8/4 558/8/4 556/8/4
f 398/8/5 400/8/5 557/8/5 409/8/5
f 557/10/4 559/10/4 560/10/4 558/10/4
f 400/10/5 402/10/5 559/10/5 557/10/5
f 559/5/4 414/5/4 561/5/4 560/5/4
f 402/5/5 404/5/5 414/5/5 559/5/5
f 405/2/2 548/2/2 562/2/2 417/2/2
f 418/2/4 417/2/4 562/2/4 563/2/4
f 406/4/2 555/4/2 564/4/2 419/4/2
f 407/4/1 421/4/1 565/4/1 552/4/1
f 552/4/6 565/4/6 564/4/6 555/4/6
f 409/6/2 556/6/2 566/6/2 567/6/2
f 411/6/1 428/6/1 568/6/1 569/6/1
f 411/6/3 569/6/3 556/6/3 409/6/3
f 428/6/4 567/6/4 566/6/4 568/6/4
f 569/6/6 568/6/6 566/6/6 556/6/6
f 411/6/5 409/6/5 567/6/5 428/6/5
f 414/6/1 570/6/1 571/6/1 561/6/1
f 570/6/4 431/6/4 572/6/4 571/6/4
f 414/6/5 416/6/5 431/6/5 570/6/5
f 431/5/4 433/5/4 573/5/4 572/5/4
f 418/2/2 563/2/2 574/2/2 434/2/2
f 575/7/1 443/7/1 576/7/1 577/7/1
f 575/7/3 577/7/3 565/7/3 421/7/3
f 443/7/4 446/7/4 578/7/4 576/7/4
f 577/7/6 576/7/6 578/7/6 565/7/6
f 575/7/5 421/7/5 446/7/5 443/7/5
f 419/7/2 564/7/2 579/7/2 448/7/2
f 446/7/4 448/7/4 579/7/4 578/7/4
f 421/7/5 419/7/5 448/7/5 446/7/5
f 422/5/1 454/5/1 580/5/1 581/5/1
f 422/5/3 581/5/3 582/5/3 425/5/3
f 454/5/4 438/5/4 583/5/4 580/5/4
f 581/5/6 580/5/6 583/5/6 582/5/6
f 422/5/5 425/5/5 438/5/5 454/5/5
f 425/6/3 582/6/3 584/6/3 427/6/3
f 582/6/6 583/6/6 585/6/6 584/6/6
f 428/5/2 568/5/2 586/5/2 587/5/2
f 427/5/3 584/5/3 568/5/3 428/5/3
f 436/5/4 587/5/4 586/5/4 585/5/4
f 584/5/6 585/5/6 586/5/6 568/5/6
f 427/5/5 428/5/5 587/5/5 436/5/5
f 433/2/1 588/2/1 589/2/1 573/2/1
f 588/2/4 590/2/4 591/2/4 589/2/4
f 573/2/6 589/2/6 591/2/6 574/2/6
f 433/2/5 434/2/5 590/2/5 588/2/5
f 442/4/2 592/4/2 593/4/2 441/4/2
f 434/4/3 574/4/3 592/4/3 442/4/3
f 590/4/4 441/4/4 593/4/4 591/4/4
f 434/4/5 442/4/5 441/4/5 590/4/5
f 436/6/2 585/6/2 594/6/2 595/6/2
f 438/6/1 450/6/1 596/6/1 583/6/1
f 450/6/4 595/6/4 594/6/4 596/6/4
f 438/6/5 436/6/5 595/6/5 450/6/5
f 447/2/2 597/2/2 598/2/2 599/2/2
f 445/2/1 600/2/1 601/2/1 602/2/1
f 445/2/3 602/2/3 597/2/3 447/2/3
f 600/2/4 599/2/4 598/2/4 601/2/4
f 445/2/5 447/2/5 599/2/5 600/2/5
f 603/3/2 604/3/2 605/3/2 606/3/2
f 607/3/1 456/3/1 608/3/1 609/3/1
f 607/3/3 609/3/3 604/3/3 603/3/3
f 456/3/4 606/3/4 605/3/4 608/3/4
f 609/3/6 608/3/6 605/3/6 604/3/6
f 607/3/5 603/3/5 606/3/5 456/3/5
f 450/1/2 596/1/2 610/1/2 611/1/2
f 453/1/1 612/1/1 613/1/1 614/1/1
f 453/1/3 614/1/3 596/1/3 450/1/3
f 612/1/4 611/1/4 610/1/4 613/1/4
f 614/1/6 613/1/6 610/1/6 596/1/6
f 453/1/5 450/1/5 611/1/5 612/1/5
f 615/4/2 616/4/2 617/4/2 618/4/2
f 461/4/1 619/4/1 620/4/1 621/4/1
f 461/4/3 621/4/3 616/4/3 615/4/3
f 619/4/4 618/4/4 617/4/4 620/4/4
f 621/4/6 620/4/6 617/4/6 616/4/6
f 461/4/5 615/4/5 618/4/5 619/4/5
f 622/1/2 623/1/2 624/1/2 466/1/2
f 625/1/1 470/1/1 626/1/1 627/1/1
f 625/1/3 627/1/3 623/1/3 622/1/3
f 625/1/5 622/1/5 466/1/5 470/1/5
f 470/5/1 469/5/1 628/5/1 626/5/1
f 629/8/2 630/8/2 631/8/2 472/8/2
f 466/8/3 624/8/3 630/8/3 629/8/3
f 466/8/5 629/8/5 472/8/5 467/8/5
f 469/5/1 482/5/1 632/5/1 628/5/1
f 482/5/4 474/5/4 633/5/4 632/5/4
f 469/5/5 467/5/5 474/5/5 482/5/5
f 474/5/4 473/5/4 634/5/4 633/5/4
f 635/6/2 636/6/2 637/6/2 486/6/2
f 472/6/3 631/6/3 636/6/3 635/6/3
f 473/6/4 486/6/4 637/6/4 634/6/4
f 472/6/5 635/6/5 486/6/5 473/6/5
f 638/8/2 639/8/2 640/8/2 499/8/2
f 486/8/1 487/8/1 641/8/1 637/8/1
f 486/8/3 637/8/3 639/8/3 638/8/3
f 487/8/4 499/8/4 640/8/4 641/8/4
f 486/8/5 638/8/5 499/8/5 487/8/5
f 489/6/1 490/6/1 642/6/1 643/6/1
f 489/6/3 643/6/3 644/6/3 497/6/3
f 489/6/5 497/6/5 496/6/5 490/6/5
f 497/2/3 644/2/3 645/2/3 479/2/3
f 476/4/2 646/4/2 647/4/2 508/4/2
f 479/4/3 645/4/3 646/4/3 476/4/3
f 645/4/6 648/4/6 647/4/6 646/4/6
f 479/4/5 476/4/5 508/4/5 494/4/5
f 499/6/1 500/6/1 649/6/1 640/6/1
f 499/6/3 640/6/3 650/6/3 651/6/3
f 499/6/5 651/6/5 512/6/5 500/6/5
f 651/6/3 650/6/3 652/6/3 653/6/3
f 651/6/5 653/6/5 514/6/5 512/6/5
f 653/5/3 652/5/3 654/5/3 655/5/3
f 653/5/5 655/5/5 516/5/5 514/5/5
f 505/1/2 656/1/2 657/1/2 504/1/2
f 655/1/3 654/1/3 656/1/3 505/1/3
f 655/1/5 505/1/5 504/1/5 516/1/5
f 492/2/1 502/2/1 658/2/1 659/2/1
f 492/2/3 659/2/3 642/2/3 490/2/3
f 659/2/6 658/2/6 660/2/6 642/2/6
f 492/2/5 490/2/5 507/2/5 502/2/5
f 506/2/4 510/2/4 661/2/4 662/2/4
f 663/2/6 662/2/6 661/2/6 648/2/6
f 496/2/5 494/2/5 510/2/5 506/2/5
f 510/4/4 509/4/4 664/4/4 661/4/4
f 665/3/2 666/3/2 667/3/2 523/3/2
f 508/3/3 647/3/3 666/3/3 665/3/3
f 509/3/4 523/3/4 667/3/4 664/3/4
f 508/3/5 665/3/5 523/3/5 509/3/5
f 501/5/1 527/5/1 668/5/1 669/5/1
f 501/5/3 669/5/3 649/5/3 500/5/3
f 501/5/5 500/5/5 511/5/5 527/5/5
f 516/5/5 504/5/5 518/5/5 517/5/5
f 504/4/3 657/4/3 658/4/3 502/4/3
f 506/2/2 662/2/2 670/2/2 519/2/2
f 671/2/2 672/2/2 673/2/2 530/2/2
f 523/2/1 524/2/1 674/2/1 667/2/1
f 523/2/3 667/2/3 672/2/3 671/2/3
f 523/2/5 671/2/5 530/2/5 524/2/5
f 675/5/1 676/5/1 677/5/1 678/5/1
f 675/5/3 678/5/3 668/5/3 527/5/3
f 675/5/5 527/5/5 526/5/5 676/5/5
f 521/6/2 679/6/2 680/6/2 536/6/2
f 519/6/3 670/6/3 679/6/3 521/6/3
f 670/6/6 681/6/6 680/6/6 679/6/6
f 519/6/5 521/6/5 536/6/5 528/6/5
f 524/2/1 532/2/1 682/2/1 674/2/1
f 683/7/2 684/7/2 685/7/2 542/7/2
f 530/7/3 673/7/3 684/7/3 683/7/3
f 530/7/5 683/7/5 542/7/5 531/7/5
f 676/5/1 686/5/1 687/5/1 677/5/1
f 676/5/5 526/5/5 534/5/5 686/5/5
f 539/2/4 537/2/4 688/2/4 689/2/4
f 536/7/3 680/7/3 690/7/3 691/7/3
f 537/7/4 551/7/4 692/7/4 688/7/4
f 536/7/5 691/7/5 551/7/5 537/7/5
f 691/2/3 690/2/3 682/2/3 532/2/3
f 691/2/5 532/2/5 540/2/5 551/2/5
f 542/3/2 685/3/2 693/3/2 543/3/2
f 686/5/1 694/5/1 695/5/1 687/5/1
f 694/5/4 546/5/4 696/5/4 695/5/4
f 686/5/5 534/5/5 546/5/5 694/5/5
f 539/2/2 689/2/2 697/2/2 548/2/2
f 551/2/1 552/2/1 698/2/1 692/2/1
f 552/2/4 555/2/4 699/2/4 698/2/4
f 543/2/2 693/2/2 700/2/2 701/2/2
f 553/2/4 701/2/4 700/2/4 702/2/4
f 545/2/5 543/2/5 701/2/5 553/2/5
f 546/5/1 569/5/1 703/5/1 696/5/1
f 569/5/4 556/5/4 704/5/4 703/5/4
f 546/5/5 547/5/5 556/5/5 569/5/5
f 548/2/2 697/2/2 705/2/2 562/2/2
f 553/3/2 702/3/2 706/3/2 707/3/2
f 555/3/1 564/3/1 708/3/1 699/3/1
f 564/3/4 707/3/4 706/3/4 708/3/4
f 555/3/5 553/3/5 707/3/5 564/3/5
f 556/8/1 566/8/1 709/8/1 704/8/1
f 566/8/4 710/8/4 711/8/4 709/8/4
f 556/8/5 558/8/5 710/8/5 566/8/5
f 710/1/4 712/1/4 713/1/4 711/1/4
f 558/1/5 560/1/5 712/1/5 710/1/5
f 712/5/4 571/5/4 714/5/4 713/5/4
f 560/5/5 561/5/5 571/5/5 712/5/5
f 573/9/4 574/9/4 715/9/4 716/9/4
f 562/7/2 705/7/2 717/7/2 592/7/2
f 563/7/5 562/7/5 592/7/5 574/7/5
f 564/2/2 708/2/2 718/2/2 579/2/2
f 565/2/1 578/2/1 719/2/1 720/2/1
f 565/2/3 720/2/3 708/2/3 564/2/3
f 578/2/4 579/2/4 718/2/4 719/2/4
f 566/8/2 709/8/2 721/8/2 722/8/2
f 568/8/1 586/8/1 723/8/1 724/8/1
f 568/8/3 724/8/3 709/8/3 566/8/3
f 586/8/4 722/8/4 721/8/4 723/8/4
f 568/8/5 566/8/5 722/8/5 586/8/5
f 571/5/1 725/5/1 726/5/1 714/5/1
f 725/5/4 727/5/4 728/5/4 726/5/4
f 571/5/5 572/5/5 727/5/5 725/5/5
f 573/3/2 716/3/2 729/3/2 589/3/2
f 727/3/4 589/3/4 729/3/4 728/3/4
f 572/3/5 573/3/5 589/3/5 727/3/5
f 574/3/1 591/3/1 730/3/1 715/3/1
f 591/3/4 593/3/4 731/3/4 730/3/4
f 576/3/2 732/3/2 733/3/2 602/3/2
f 592/3/3 717/3/3 732/3/3 576/3/3
f 592/3/5 576/3/5 602/3/5 593/3/5
f 580/5/1 614/5/1 734/5/1 735/5/1
f 580/5/3 735/5/3 736/5/3 583/5/3
f 614/5/4 596/5/4 737/5/4 734/5/4
f 580/5/5 583/5/5 596/5/5 614/5/5
f 583/5/3 736/5/3 738/5/3 585/5/3
f 586/6/2 723/6/2 739/6/2 740/6/2
f 585/6/3 738/6/3 723/6/3 586/6/3
f 594/6/4 740/6/4 739/6/4 741/6/4
f 585/6/5 586/6/5 740/6/5 594/6/5
f 593/4/1 742/4/1 743/4/1 731/4/1
f 742/4/4 601/4/4 744/4/4 743/4/4
f 731/4/6 743/4/6 744/4/6 733/4/6
f 593/4/5 602/4/5 601/4/5 742/4/5
f 597/7/2 745/7/2 746/7/2 598/7/2
f 602/7/3 733/7/3 745/7/3 597/7/3
f 601/7/4 598/7/4 746/7/4 744/7/4
f 733/7/6 744/7/6 746/7/6 745/7/6
f 609/4/2 747/4/2 748/4/2 608/4/2
f 749/4/1 750/4/1 751/4/1 752/4/1
f 749/4/3 752/4/3 747/4/3 609/4/3
f 750/4/4 608/4/4 748/4/4 751/4/4
f 752/4/6 751/4/6 748/4/6 747/4/6
f 749/4/5 609/4/5 608/4/5 750/4/5
f 594/8/2 741/8/2 753/8/2 754/8/2
f 596/8/1 610/8/1 755/8/1 737/8/1
f 610/8/4 754/8/4 753/8/4 755/8/4
f 596/8/5 594/8/5 754/8/5 610/8/5
f 610/8/2 755/8/2 756/8/2 757/8/2
f 613/8/1 758/8/1 759/8/1 760/8/1
f 613/8/3 760/8/3 755/8/3 610/8/3
f 758/8/4 757/8/4 756/8/4 759/8/4
f 613/8/5 610/8/5 757/8/5 758/8/5
f 623/5/2 761/5/2 762/5/2 624/5/2
f 627/5/1 626/5/1 763/5/1 764/5/1
f 627/5/3 764/5/3 761/5/3 623/5/3
f 764/5/6 763/5/6 762/5/6 761/5/6
f 626/5/1 628/5/1 765/5/1 763/5/1
f 630/10/2 766/10/2 767/10/2 631/10/2
f 624/10/3 762/10/3 766/10/3 630/10/3
f 762/10/6 768/10/6 767/10/6 766/10/6
f 628/5/1 632/5/1 769/5/1 765/5/1
f 632/5/4 633/5/4 770/5/4 769/5/4
f 765/5/6 769/5/6 770/5/6 768/5/6
f 633/5/4 634/5/4 771/5/4 770/5/4
f 636/6/2 772/6/2 773/6/2 637/6/2
f 631/6/3 767/6/3 772/6/3 636/6/3
f 634/6/4 637/6/4 773/6/4 771/6/4
f 767/6/6 771/6/6 773/6/6 772/6/6
f 639/1/2 774/1/2 775/1/2 640/1/2
f 637/1/1 641/1/1 776/1/1 773/1/1
f 637/1/3 773/1/3 774/1/3 639/1/3
f 641/1/4 640/1/4 775/1/4 776/1/4
f 773/1/6 776/1/6 775/1/6 774/1/6
f 643/3/1 642/3/1 777/3/1 778/3/1
f 643/3/3 778/3/3 779/3/3 644/3/3
f 778/3/6 777/3/6 780/3/6 779/3/6
f 645/9/2 781/9/2 782/9/2 648/9/2
f 644/9/3 779/9/3 781/9/3 645/9/3
f 663/9/4 648/9/4 782/9/4 780/9/4
f 640/10/1 649/10/1 783/10/1 775/10/1
f 640/10/3 775/10/3 784/10/3 650/10/3
f 775/10/6 783/10/6 785/10/6 784/10/6
f 650/5/3 784/5/3 786/5/3 652/5/3
f 784/5/6 785/5/6 787/5/6 786/5/6
f 652/8/3 786/8/3 788/8/3 654/8/3
f 786/8/6 787/8/6 789/8/6 788/8/6
f 654/8/3 788/8/3 790/8/3 656/8/3
f 659/7/2 791/7/2 792/7/2 658/7/2
f 656/7/3 790/7/3 791/7/3 659/7/3
f 656/7/5 659/7/5 658/7/5 657/7/5
f 663/2/2 780/2/2 793/2/2 662/2/2
f 642/2/1 660/2/1 794/2/1 777/2/1
f 648/4/1 661/4/1 795/4/1 782/4/1
f 648/4/3 782/4/3 796/4/3 647/4/3
f 647/4/3 796/4/3 797/4/3 666/4/3
f 664/4/4 667/4/4 798/4/4 799/4/4
f 800/9/2 801/9/2 802/9/2 672/9/2
f 666/9/3 797/9/3 801/9/3 800/9/3
f 666/9/5 800/9/5 672/9/5 667/9/5
f 669/5/1 668/5/1 803/5/1 804/5/1
f 669/5/3 804/5/3 783/5/3 649/5/3
f 804/5/6 803/5/6 805/5/6 783/5/6
f 806/9/6 807/9/6 808/9/6 792/9/6
f 658/2/3 792/2/3 794/2/3 660/2/3
f 662/2/2 793/2/2 809/2/2 670/2/2
f 664/2/2 799/2/2 810/2/2 811/2/2
f 661/2/1 679/2/1 812/2/1 795/2/1
f 679/2/4 811/2/4 810/2/4 812/2/4
f 795/2/6 812/2/6 810/2/6 799/2/6
f 661/2/5 664/2/5 811/2/5 679/2/5
f 672/2/2 802/2/2 813/2/2 673/2/2
f 667/2/1 674/2/1 814/2/1 798/2/1
f 678/5/1 677/5/1 815/5/1 816/5/1
f 678/5/3 816/5/3 803/5/3 668/5/3
f 816/5/6 815/5/6 817/5/6 803/5/6
f 807/3/6 818/3/6 819/3/6 808/3/6
f 670/5/2 809/5/2 820/5/2 681/5/2
f 674/2/1 682/2/1 821/2/1 814/2/1
f 684/4/2 822/4/2 823/4/2 685/4/2
f 673/4/3 813/4/3 822/4/3 684/4/3
f 813/4/6 824/4/6 823/4/6 822/4/6
f 677/5/1 687/5/1 825/5/1 815/5/1
f 815/5/6 825/5/6 826/5/6 817/5/6
f 818/4/6 827/4/6 828/4/6 819/4/6
f 681/5/3 820/5/3 829/5/3 680/5/3
f 689/5/4 688/5/4 830/5/4 831/5/4
f 820/5/6 831/5/6 830/5/6 829/5/6
f 680/4/3 829/4/3 832/4/3 690/4/3
f 688/4/4 692/4/4 833/4/4 830/4/4
f 690/5/3 832/5/3 821/5/3 682/5/3
f 832/5/6 833/5/6 834/5/6 821/5/6
f 685/9/2 823/9/2 835/9/2 693/9/2
f 687/5/1 695/5/1 836/5/1 825/5/1
f 695/5/4 696/5/4 837/5/4 836/5/4
f 825/5/6 836/5/6 837/5/6 826/5/6
f 689/2/2 831/2/2 838/2/2 697/2/2
f 692/5/1 698/5/1 839/5/1 833/5/1
f 698/5/4 699/5/4 840/5/4 839/5/4
f 693/4/2 835/4/2 841/4/2 700/4/2
f 702/4/4 700/4/4 841/4/4 842/4/4
f 843/4/6 842/4/6 841/4/6 835/4/6
f 696/5/1 703/5/1 844/5/1 837/5/1
f 703/5/4 704/5/4 845/5/4 844/5/4
f 837/5/6 844/5/6 845/5/6 846/5/6
f 847/10/6 848/10/6 849/10/6 850/10/6
f 851/4/2 852/4/2 853/4/2 854/4/2
f 697/4/3 838/4/3 852/4/3 851/4/3
f 705/4/4 854/4/4 853/4/4 855/4/4
f 838/4/6 855/4/6 853/4/6 852/4/6
f 697/4/5 851/4/5 854/4/5 705/4/5
f 702/2/2 842/2/2 856/2/2 706/2/2
f 699/2/1 708/2/1 857/2/1 840/2/1
f 708/2/4 706/2/4 856/2/4 857/2/4
f 840/2/6 857/2/6 856/2/6 842/2/6
f 704/1/1 709/1/1 858/1/1 845/1/1
f 709/1/4 711/1/4 859/1/4 858/1/4
f 845/1/6 858/1/6 859/1/6 860/1/6
f 711/5/4 713/5/4 861/5/4 859/5/4
f 860/5/6 859/5/6 861/5/6 862/5/6
f 713/6/4 714/6/4 863/6/4 861/6/4
f 862/6/6 861/6/6 863/6/6 864/6/6
f 848/6/6 865/6/6 866/6/6 849/6/6
f 716/2/4 715/2/4 867/2/4 866/2/4
f 705/2/2 855/2/2 868/2/2 717/2/2
f 854/2/1 732/2/1 869/2/1 853/2/1
f 854/2/3 853/2/3 870/2/3 720/2/3
f 732/2/4 719/2/4 871/2/4 869/2/4
f 854/2/5 720/2/5 719/2/5 732/2/5
f 708/2/2 857/2/2 872/2/2 718/2/2
f 720/2/3 870/2/3 857/2/3 708/2/3
f 719/2/4 718/2/4 872/2/4 871/2/4
f 709/6/2 858/6/2 873/6/2 721/6/2
f 724/6/1 723/6/1 874/6/1 875/6/1
f 724/6/3 875/6/3 858/6/3 709/6/3
f 723/6/4 721/6/4 873/6/4 874/6/4
f 875/6/6 874/6/6 873/6/6 858/6/6
f 714/6/1 726/6/1 876/6/1 863/6/1
f 726/6/4 728/6/4 877/6/4 876/6/4
f 863/6/6 876/6/6 877/6/6 865/6/6
f 716/1/2 866/1/2 878/1/2 729/1/2
f 728/1/4 729/1/4 878/1/4 877/1/4
f 865/1/6 877/1/6 878/1/6 866/1/6
f 715/4/1 730/4/1 879/4/1 867/4/1
f 732/2/2 869/2/2 880/2/2 733/2/2
f 717/2/3 868/2/3 869/2/3 732/2/3
f 731/2/4 733/2/4 880/2/4 881/2/4
f 735/5/1 734/5/1 882/5/1 883/5/1
f 735/5/3 883/5/3 884/5/3 736/5/3
f 734/5/4 737/5/4 885/5/4 882/5/4
f 883/5/6 882/5/6 885/5/6 884/5/6
f 736/5/3 884/5/3 886/5/3 738/5/3
f 723/10/2 874/10/2 887/10/2 739/10/2
f 738/10/3 886/10/3 874/10/3 723/10/3
f 741/10/4 739/10/4 887/10/4 888/10/4
f 886/10/6 888/10/6 887/10/6 874/10/6
f 731/4/2 881/4/2 889/4/2 743/4/2
f 730/4/1 890/4/1 891/4/1 879/4/1
f 890/4/4 743/4/4 889/4/4 891/4/4
f 879/4/6 891/4/6 889/4/6 881/4/6
f 730/4/5 731/4/5 743/4/5 890/4/5
f 752/4/2 892/4/2 893/4/2 751/4/2
f 745/4/1 746/4/1 894/4/1 895/4/1
f 745/4/3 895/4/3 892/4/3 752/4/3
f 746/4/4 751/4/4 893/4/4 894/4/4
f 895/4/6 894/4/6 893/4/6 892/4/6
f 745/4/5 752/4/5 751/4/5 746/4/5
f 896/9/2 897/9/2 898/9/2 899/9/2
f 747/9/1 748/9/1 900/9/1 901/9/1
f 747/9/3 901/9/3 897/9/3 896/9/3
f 748/9/4 899/9/4 898/9/4 900/9/4
f 901/9/6 900/9/6 898/9/6 897/9/6
f 747/9/5 896/9/5 899/9/5 748/9/5
f 741/8/2 888/8/2 902/8/2 753/8/2
f 737/8/1 755/8/1 903/8/1 885/8/1
f 755/8/4 753/8/4 902/8/4 903/8/4
f 885/8/6 903/8/6 902/8/6 888/8/6
f 755/1/2 903/1/2 904/1/2 756/1/2
f 760/1/1 759/1/1 905/1/1 906/1/1
f 760/1/3 906/1/3 903/1/3 755/1/3
f 759/1/4 756/1/4 904/1/4 905/1/4
f 906/1/6 905/1/6 904/1/6 903/1/6
f 762/8/2 907/8/2 908/8/2 768/8/2
f 763/8/1 765/8/1 909/8/1 910/8/1
f 763/8/3 910/8/3 907/8/3 762/8/3
f 765/8/4 768/8/4 908/8/4 909/8/4
f 910/8/6 909/8/6 908/8/6 907/8/6
f 767/6/2 911/6/2 912/6/2 771/6/2
f 768/6/1 770/6/1 913/6/1 908/6/1
f 768/6/3 908/6/3 911/6/3 767/6/3
f 908/6/6 913/6/6 912/6/6 911/6/6
f 769/5/1 914/5/1 915/5/1 916/5/1
f 769/5/3 916/5/3 913/5/3 770/5/3
f 914/5/4 917/5/4 918/5/4 915/5/4
f 916/5/6 915/5/6 918/5/6 913/5/6
f 769/5/5 770/5/5 917/5/5 914/5/5
f 917/6/4 919/6/4 920/6/4 918/6/4
f 770/6/5 771/6/5 919/6/5 917/6/5
f 773/5/2 921/5/2 922/5/2 776/5/2
f 771/5/3 912/5/3 921/5/3 773/5/3
f 919/5/4 776/5/4 922/5/4 920/5/4
f 912/5/6 920/5/6 922/5/6 921/5/6
f 771/5/5 773/5/5 776/5/5 919/5/5
f 778/5/2 923/5/2 924/5/2 777/5/2
f 925/5/1 791/5/1 926/5/1 927/5/1
f 925/5/3 927/5/3 923/5/3 778/5/3
f 791/5/4 777/5/4 924/5/4 926/5/4
f 927/5/6 926/5/6 924/5/6 923/5/6
f 925/5/5 778/5/5 777/5/5 791/5/5
f 781/4/2 928/4/2 929/4/2 782/4/2
f 779/4/1 780/4/1 930/4/1 931/4/1
f 779/4/3 931/4/3 928/4/3 781/4/3
f 780/4/4 782/4/4 929/4/4 930/4/4
f 931/4/6 930/4/6 929/4/6 928/4/6
f 932/4/2 933/4/2 934/4/2 801/4/2
f 935/4/1 797/4/1 936/4/1 937/4/1
f 935/4/3 937/4/3 933/4/3 932/4/3
f 937/4/6 936/4/6 934/4/6 933/4/6
f 935/4/5 932/4/5 801/4/5 797/4/5
f 775/6/2 938/6/2 939/6/2 783/6/2
f 776/6/1 804/6/1 940/6/1 922/6/1
f 776/6/3 922/6/3 938/6/3 775/6/3
f 804/6/4 783/6/4 939/6/4 940/6/4
f 922/6/6 940/6/6 939/6/6 938/6/6
f 776/6/5 775/6/5 783/6/5 804/6/5
f 788/5/1 789/5/1 941/5/1 942/5/1
f 788/5/3 942/5/3 943/5/3 790/5/3
f 942/5/6 941/5/6 944/5/6 943/5/6
f 791/2/2 926/2/2 945/2/2 792/2/2
f 790/2/3 943/2/3 926/2/3 791/2/3
f 806/2/4 792/2/4 945/2/4 944/2/4
f 943/2/6 944/2/6 945/2/6 926/2/6
f 780/7/2 930/7/2 946/7/2 793/7/2
f 777/7/1 794/7/1 947/7/1 924/7/1
f 777/7/3 924/7/3 930/7/3 780/7/3
f 924/7/6 947/7/6 946/7/6 930/7/6
f 782/2/1 795/2/1 948/2/1 929/2/1
f 782/2/3 929/2/3 949/2/3 796/2/3
f 795/2/4 799/2/4 950/2/4 948/2/4
f 796/2/3 949/2/3 936/2/3 797/2/3
f 949/2/6 950/2/6 951/2/6 936/2/6
f 952/4/2 953/4/2 954/4/2 955/4/2
f 801/4/3 934/4/3 953/4/3 952/4/3
f 802/4/4 955/4/4 954/4/4 956/4/4
f 934/4/6 956/4/6 954/4/6 953/4/6
f 801/4/5 952/4/5 955/4/5 802/4/5
f 783/8/1 805/8/1 957/8/1 939/8/1
f 783/8/3 939/8/3 958/8/3 785/8/3
f 939/8/6 957/8/6 959/8/6 958/8/6
f 785/6/3 958/6/3 960/6/3 787/6/3
f 958/6/6 959/6/6 961/6/6 960/6/6
f 787/1/3 960/1/3 941/1/3 789/1/3
f 960/1/6 961/1/6 962/1/6 941/1/6
f 806/3/2 944/3/2 963/3/2 807/3/2
f 941/3/6 962/3/6 963/3/6 944/3/6
f 792/2/1 808/2/1 964/2/1 945/2/1
f 792/2/3 945/2/3 947/2/3 794/2/3
f 795/2/2 948/2/2 965/2/2 812/2/2
f 793/2/3 946/2/3 948/2/3 795/2/3
f 809/2/4 812/2/4 965/2/4 966/2/4
f 946/2/6 966/2/6 965/2/6 948/2/6
f 793/2/5 795/2/5 812/2/5 809/2/5
f 799/2/1 810/2/1 967/2/1 950/2/1
f 810/2/4 814/2/4 968/2/4 967/2/4
f 799/2/5 798/2/5 814/2/5 810/2/5
f 802/3/2 956/3/2 969/3/2 813/3/2
f 951/3/6 968/3/6 969/3/6 956/3/6
f 803/5/1 817/5/1 970/5/1 971/5/1
f 803/5/3 971/5/3 957/5/3 805/5/3
f 971/5/6 970/5/6 972/5/6 957/5/6
f 807/5/2 963/5/2 973/5/2 818/5/2
f 808/5/1 819/5/1 974/5/1 964/5/1
f 809/5/2 966/5/2 975/5/2 820/5/2
f 813/2/2 969/2/2 976/2/2 824/2/2
f 814/2/1 821/2/1 977/2/1 968/2/1
f 968/2/6 977/2/6 976/2/6 969/2/6
f 817/5/1 826/5/1 978/5/1 970/5/1
f 970/5/6 978/5/6 979/5/6 972/5/6
f 818/5/2 973/5/2 980/5/2 827/5/2
f 981/5/6 982/5/6 980/5/6 973/5/6
f 819/5/1 828/5/1 983/5/1 974/5/1
f 820/2/2 975/2/2 984/2/2 831/2/2
f 832/5/2 985/5/2 986/5/2 833/5/2
f 829/5/1 830/5/1 987/5/1 988/5/1
f 829/5/3 988/5/3 985/5/3 832/5/3
f 830/5/4 833/5/4 986/5/4 987/5/4
f 988/5/6 987/5/6 986/5/6 985/5/6
f 821/2/1 834/2/1 989/2/1 977/2/1
f 823/2/2 990/2/2 991/2/2 835/2/2
f 824/2/3 976/2/3 990/2/3 823/2/3
f 843/2/4 835/2/4 991/2/4 992/2/4
f 976/2/6 992/2/6 991/2/6 990/2/6
f 826/5/1 837/5/1 993/5/1 978/5/1
f 837/5/4 846/5/4 994/5/4 993/5/4
f 978/5/6 993/5/6 994/5/6 979/5/6
f 827/6/3 980/6/3 983/6/3 828/6/3
f 847/6/4 850/6/4 995/6/4 996/6/4
f 980/6/6 996/6/6 995/6/6 983/6/6
f 831/3/2 984/3/2 997/3/2 838/3/2
f 833/2/1 839/2/1 998/2/1 986/2/1
f 833/2/3 986/2/3 989/2/3 834/2/3
f 986/2/6 998/2/6 999/2/6 989/2/6
f 843/2/2 992/2/2 1000/2/2 842/2/2
f 840/2/4 842/2/4 1000/2/4 999/2/4
f 989/2/6 999/2/6 1000/2/6 992/2/6
f 846/6/1 845/6/1 1001/6/1 994/6/1
f 845/6/4 860/6/4 1002/6/4 1001/6/4
f 994/6/6 1001/6/6 1002/6/6 1003/6/6
f 860/1/4 862/1/4 1004/1/4 1002/1/4
f 1003/1/6 1002/1/6 1004/1/6 1005/1/6
f 862/5/4 864/5/4 1006/5/4 1004/5/4
f 1005/5/6 1004/5/6 1006/5/6 1007/5/6
f 847/5/2 996/5/2 1008/5/2 848/5/2
f 850/2/1 849/2/1 1009/2/1 995/2/1
f 838/2/2 997/2/2 1010/2/2 855/2/2
f 840/4/2 999/4/2 1011/4/2 857/4/2
f 839/4/1 870/4/1 1012/4/1 998/4/1
f 839/4/5 840/4/5 857/4/5 870/4/5
f 845/8/2 1001/8/2 1013/8/2 858/8/2
f 844/8/1 875/8/1 1014/8/1 1015/8/1
f 844/8/3 1015/8/3 1001/8/3 845/8/3
f 875/8/4 858/8/4 1013/8/4 1014/8/4
f 1015/8/6 1014/8/6 1013/8/6 1001/8/6
f 844/8/5 845/8/5 858/8/5 875/8/5
f 848/5/2 1008/5/2 1016/5/2 865/5/2
f 864/5/1 863/5/1 1017/5/1 1006/5/1
f 863/5/4 865/5/4 1016/5/4 1017/5/4
f 1006/5/6 1017/5/6 1016/5/6 1008/5/6
f 849/2/1 866/2/1 1018/2/1 1009/2/1
f 855/2/2 1010/2/2 1019/2/2 868/2/2
f 1020/2/6 1021/2/6 1019/2/6 1010/2/6
f 853/9/1 869/9/1 1022/9/1 1023/9/1
f 853/9/3 1023/9/3 1012/9/3 870/9/3
f 1023/9/6 1022/9/6 1024/9/6 1012/9/6
f 857/4/2 1011/4/2 1025/4/2 872/4/2
f 871/4/4 872/4/4 1025/4/4 1024/4/4
f 1012/4/6 1024/4/6 1025/4/6 1011/4/6
f 1026/5/1 883/5/1 1027/5/1 1028/5/1
f 1026/5/3 1028/5/3 1029/5/3 1030/5/3
f 883/5/4 884/5/4 1031/5/4 1027/5/4
f 1028/5/6 1027/5/6 1031/5/6 1029/5/6
f 1026/5/5 1030/5/5 884/5/5 883/5/5
f 1030/6/3 1029/6/3 1032/6/3 1033/6/3
f 1030/6/5 1033/6/5 886/6/5 884/6/5
f 875/5/2 1014/5/2 1034/5/2 874/5/2
f 1033/5/3 1032/5/3 1014/5/3 875/5/3
f 886/5/4 874/5/4 1034/5/4 1035/5/4
f 1032/5/6 1035/5/6 1034/5/6 1014/5/6
f 1033/5/5 875/5/5 874/5/5 886/5/5
f 866/3/1 878/3/1 1036/3/1 1018/3/1
f 878/3/4 879/3/4 1037/3/4 1036/3/4
f 1018/3/6 1036/3/6 1037/3/6 1021/3/6
f 866/3/5 867/3/5 879/3/5 878/3/5
f 879/7/4 881/7/4 1038/7/4 1037/7/4
f 1021/7/6 1037/7/6 1038/7/6 1019/7/6
f 868/5/3 1019/5/3 1022/5/3 869/5/3
f 881/5/4 880/5/4 1039/5/4 1038/5/4
f 871/3/2 1024/3/2 1040/3/2 895/3/2
f 880/3/4 895/3/4 1040/3/4 1039/3/4
f 1022/3/6 1039/3/6 1040/3/6 1024/3/6
f 869/3/5 871/3/5 895/3/5 880/3/5
f 872/3/1 892/3/1 1041/3/1 1025/3/1
f 872/3/3 1025/3/3 1042/3/3 1043/3/3
f 892/3/4 901/3/4 1044/3/4 1041/3/4
f 1025/3/6 1041/3/6 1044/3/6 1042/3/6
f 872/3/5 1043/3/5 901/3/5 892/3/5
f 1045/2/2 1046/2/2 1047/2/2 897/2/2
f 1043/2/3 1042/2/3 1046/2/3 1045/2/3
f 901/2/4 897/2/4 1047/2/4 1044/2/4
f 1042/2/6 1044/2/6 1047/2/6 1046/2/6
f 1043/2/5 1045/2/5 897/2/5 901/2/5
f 886/6/2 1035/6/2 1048/6/2 888/6/2
f 884/6/1 885/6/1 1049/6/1 1031/6/1
f 885/6/4 888/6/4 1048/6/4 1049/6/4
f 1031/6/6 1049/6/6 1048/6/6 1035/6/6
f 885/5/2 1049/5/2 1050/5/2 903/5/2
f 882/5/1 906/5/1 1051/5/1 1052/5/1
f 882/5/3 1052/5/3 1049/5/3 885/5/3
f 906/5/4 903/5/4 1050/5/4 1051/5/4
f 1052/5/6 1051/5/6 1050/5/6 1049/5/6
f 882/5/5 885/5/5 903/5/5 906/5/5
f 908/8/2 1053/8/2 1054/8/2 913/8/2
f 909/8/1 916/8/1 1055/8/1 1056/8/1
f 909/8/3 1056/8/3 1053/8/3 908/8/3
f 916/8/4 913/8/4 1054/8/4 1055/8/4
f 1056/8/6 1055/8/6 1054/8/6 1053/8/6
f 909/8/5 908/8/5 913/8/5 916/8/5
f 912/5/2 1057/5/2 1058/5/2 920/5/2
f 913/5/1 918/5/1 1059/5/1 1054/5/1
f 913/5/3 1054/5/3 1057/5/3 912/5/3
f 1054/5/6 1059/5/6 1058/5/6 1057/5/6
f 915/5/1 1060/5/1 1061/5/1 1062/5/1
f 915/5/3 1062/5/3 1059/5/3 918/5/3
f 1060/5/4 1063/5/4 1064/5/4 1061/5/4
f 1062/5/6 1061/5/6 1064/5/6 1059/5/6
f 915/5/5 918/5/5 1063/5/5 1060/5/5
f 1063/5/4 1065/5/4 1066/5/4 1064/5/4
f 918/5/5 920/5/5 1065/5/5 1063/5/5
f 922/1/2 1067/1/2 1068/1/2 940/1/2
f 920/1/3 1058/1/3 1067/1/3 922/1/3
f 1065/1/4 940/1/4 1068/1/4 1066/1/4
f 1058/1/6 1066/1/6 1068/1/6 1067/1/6
f 920/1/5 922/1/5 940/1/5 1065/1/5
f 924/2/2 1069/2/2 1070/2/2 947/2/2
f 926/2/1 945/2/1 1071/2/1 1072/2/1
f 926/2/3 1072/2/3 1069/2/3 924/2/3
f 1072/2/6 1071/2/6 1070/2/6 1069/2/6
f 926/2/5 924/2/5 947/2/5 945/2/5
f 930/7/1 946/7/1 1073/7/1 1074/7/1
f 930/7/3 1074/7/3 1075/7/3 929/7/3
f 946/7/4 948/7/4 1076/7/4 1073/7/4
f 1074/7/6 1073/7/6 1076/7/6 1075/7/6
f 930/7/5 929/7/5 948/7/5 946/7/5
f 949/4/2 1077/4/2 1078/4/2 950/4/2
f 929/4/3 1075/4/3 1077/4/3 949/4/3
f 948/4/4 950/4/4 1078/4/4 1076/4/4
f 1075/4/6 1076/4/6 1078/4/6 1077/4/6
f 934/3/2 1079/3/2 1080/3/2 956/3/2
f 936/3/1 951/3/1 1081/3/1 1082/3/1
f 936/3/3 1082/3/3 1079/3/3 934/3/3
f 951/3/4 956/3/4 1080/3/4 1081/3/4
f 1082/3/6 1081/3/6 1080/3/6 1079/3/6
f 939/5/2 1083/5/2 1084/5/2 957/5/2
f 940/5/1 971/5/1 1085/5/1 1068/5/1
f 940/5/3 1068/5/3 1083/5/3 939/5/3
f 971/5/4 957/5/4 1084/5/4 1085/5/4
f 1068/5/6 1085/5/6 1084/5/6 1083/5/6
f 940/5/5 939/5/5 957/5/5 971/5/5
f 945/2/1 964/2/1 1086/2/1 1071/2/1
f 946/6/2 1073/6/2 1087/6/2 966/6/2
f 947/6/3 1070/6/3 1073/6/3 946/6/3
f 1070/6/6 1088/6/6 1087/6/6 1073/6/6
f 951/2/2 1081/2/2 1089/2/2 968/2/2
f 950/2/1 967/2/1 1090/2/1 1078/2/1
f 950/2/3 1078/2/3 1081/2/3 951/2/3
f 957/8/1 972/8/1 1091/8/1 1084/8/1
f 957/8/3 1084/8/3 1092/8/3 959/8/3
f 1084/8/6 1091/8/6 1093/8/6 1092/8/6
f 959/5/3 1092/5/3 1094/5/3 961/5/3
f 1092/5/6 1093/5/6 1095/5/6 1094/5/6
f 961/6/3 1094/6/3 1096/6/3 962/6/3
f 1094/6/6 1095/6/6 1097/6/6 1096/6/6
f 962/5/3 1096/5/3 1098/5/3 963/5/3
f 981/5/4 973/5/4 1099/5/4 1097/5/4
f 1096/5/6 1097/5/6 1099/5/6 1098/5/6
f 963/5/3 1098/5/3 1086/5/3 964/5/3
f 973/5/4 974/5/4 1100/5/4 1099/5/4
f 963/5/5 964/5/5 974/5/5 973/5/5
f 1086/4/6 1100/4/6 1101/4/6 1088/4/6
f 966/6/2 1087/6/2 1102/6/2 975/6/2
f 1088/6/6 1101/6/6 1102/6/6 1087/6/6
f 965/3/1 988/3/1 1103/3/1 1104/3/1
f 965/3/3 1104/3/3 1090/3/3 967/3/3
f 988/3/4 985/3/4 1105/3/4 1103/3/4
f 1104/3/6 1103/3/6 1105/3/6 1090/3/6
f 965/3/5 967/3/5 985/3/5 988/3/5
f 968/2/2 1089/2/2 1106/2/2 977/2/2
f 985/2/4 977/2/4 1106/2/4 1105/2/4
f 1090/2/6 1105/2/6 1106/2/6 1089/2/6
f 967/2/5 968/2/5 977/2/5 985/2/5
f 972/5/1 979/5/1 1107/5/1 1091/5/1
f 1093/6/6 1108/6/6 1109/6/6 1095/6/6
f 981/5/2 1097/5/2 1110/5/2 982/5/2
f 1095/5/6 1109/5/6 1110/5/6 1097/5/6
f 974/5/1 983/5/1 1111/5/1 1100/5/1
f 975/2/2 1102/2/2 1112/2/2 984/2/2
f 976/4/2 1113/4/2 1114/4/2 992/4/2
f 977/4/1 989/4/1 1115/4/1 1106/4/1
f 977/4/3 1106/4/3 1113/4/3 976/4/3
f 989/4/4 992/4/4 1114/4/4 1115/4/4
f 1106/4/6 1115/4/6 1114/4/6 1113/4/6
f 979/5/1 994/5/1 1116/5/1 1107/5/1
f 994/5/4 1003/5/4 1117/5/4 1116/5/4
f 1107/5/6 1116/5/6 1117/5/6 1108/5/6
f 1003/8/4 1005/8/4 1118/8/4 1117/8/4
f 1108/8/6 1117/8/6 1118/8/6 1109/8/6
f 1005/6/4 1007/6/4 1119/6/4 1118/6/4
f 1109/6/6 1118/6/6 1119/6/6 1110/6/6
f 980/5/2 1120/5/2 1121/5/2 996/5/2
f 982/5/3 1110/5/3 1120/5/3 980/5/3
f 1110/5/6 1119/5/6 1121/5/6 1120/5/6
f 983/5/1 995/5/1 1122/5/1 1111/5/1
f 1111/5/6 1122/5/6 1123/5/6 1124/5/6
f 984/5/2 1112/5/2 1125/5/2 997/5/2
f 986/2/2 1126/2/2 1127/2/2 998/2/2
f 987/2/1 1128/2/1 1129/2/1 1130/2/1
f 987/2/3 1130/2/3 1126/2/3 986/2/3
f 987/2/5 986/2/5 998/2/5 1128/2/5
f 994/5/2 1116/5/2 1131/5/2 1001/5/2
f 993/5/1 1015/5/1 1132/5/1 1133/5/1
f 993/5/3 1133/5/3 1116/5/3 994/5/3
f 1015/5/4 1001/5/4 1131/5/4 1132/5/4
f 1133/5/6 1132/5/6 1131/5/6 1116/5/6
f 993/5/5 994/5/5 1001/5/5 1015/5/5
f 996/10/2 1121/10/2 1134/10/2 1008/10/2
f 1007/10/1 1006/10/1 1135/10/1 1119/10/1
f 1006/10/4 1008/10/4 1134/10/4 1135/10/4
f 1119/10/6 1135/10/6 1134/10/6 1121/10/6
f 995/2/1 1009/2/1 1136/2/1 1122/2/1
f 997/2/2 1125/2/2 1137/2/2 1010/2/2
f 1020/2/4 1010/2/4 1137/2/4 1138/2/4
f 1123/2/6 1138/2/6 1137/2/6 1125/2/6
f 1128/2/1 1023/2/1 1139/2/1 1129/2/1
f 1023/2/4 1012/2/4 1140/2/4 1139/2/4
f 1128/2/5 998/2/5 1012/2/5 1023/2/5
f 999/3/2 1141/3/2 1142/3/2 1011/3/2
f 998/3/3 1127/3/3 1141/3/3 999/3/3
f 1012/3/4 1011/3/4 1142/3/4 1140/3/4
f 1127/3/6 1140/3/6 1142/3/6 1141/3/6
f 1143/6/1 1028/6/1 1144/6/1 1145/6/1
f 1143/6/3 1145/6/3 1146/6/3 1147/6/3
f 1028/6/4 1029/6/4 1148/6/4 1144/6/4
f 1145/6/6 1144/6/6 1148/6/6 1146/6/6
f 1143/6/5 1147/6/5 1029/6/5 1028/6/5
f 1147/5/3 1146/5/3 1149/5/3 1150/5/3
f 1147/5/5 1150/5/5 1032/5/5 1029/5/5
f 1015/6/2 1132/6/2 1151/6/2 1014/6/2
f 1150/6/3 1149/6/3 1132/6/3 1015/6/3
f 1032/6/4 1014/6/4 1151/6/4 1152/6/4
f 1149/6/6 1152/6/6 1151/6/6 1132/6/6
f 1150/6/5 1015/6/5 1014/6/5 1032/6/5
f 1008/6/1 1016/6/1 1153/6/1 1134/6/1
f 1008/6/3 1134/6/3 1136/6/3 1009/6/3
f 1016/6/4 1018/6/4 1154/6/4 1153/6/4
f 1134/6/6 1153/6/6 1154/6/6 1136/6/6
f 1008/6/5 1009/6/5 1018/6/5 1016/6/5
f 1020/7/2 1138/7/2 1155/7/2 1021/7/2
f 1018/7/4 1021/7/4 1155/7/4 1154/7/4
f 1136/7/6 1154/7/6 1155/7/6 1138/7/6
f 1032/5/2 1152/5/2 1156/5/2 1035/5/2
f 1029/5/1 1031/5/1 1157/5/1 1148/5/1
f 1031/5/4 1035/5/4 1156/5/4 1157/5/4
f 1148/5/6 1157/5/6 1156/5/6 1152/5/6
f 1022/2/2 1158/2/2 1159/2/2 1039/2/2
f 1019/2/1 1038/2/1 1160/2/1 1161/2/1
f 1019/2/3 1161/2/3 1158/2/3 1022/2/3
f 1038/2/4 1039/2/4 1159/2/4 1160/2/4
f 1161/2/6 1160/2/6 1159/2/6 1158/2/6
f 1031/8/2 1157/8/2 1162/8/2 1049/8/2
f 1027/8/1 1052/8/1 1163/8/1 1164/8/1
f 1027/8/3 1164/8/3 1157/8/3 1031/8/3
f 1052/8/4 1049/8/4 1162/8/4 1163/8/4
f 1164/8/6 1163/8/6 1162/8/6 1157/8/6
f 1027/8/5 1031/8/5 1049/8/5 1052/8/5
f 1041/4/1 1165/4/1 1166/4/1 1167/4/1
f 1041/4/3 1167/4/3 1168/4/3 1044/4/3
f 1041/4/5 1044/4/5 1169/4/5 1165/4/5
f 1047/2/2 1170/2/2 1171/2/2 1172/2/2
f 1044/2/3 1168/2/3 1170/2/3 1047/2/3
f 1168/2/6 1173/2/6 1171/2/6 1170/2/6
f 1044/2/5 1047/2/5 1172/2/5 1169/2/5
f 1165/4/1 1174/4/1 1175/4/1 1166/4/1
f 1174/4/4 1176/4/4 1177/4/4 1175/4/4
f 1166/4/6 1175/4/6 1177/4/6 1173/4/6
f 1165/4/5 1169/4/5 1176/4/5 1174/4/5
f 1172/4/2 1171/4/2 1178/4/2 1179/4/2
f 1176/4/4 1179/4/4 1178/4/4 1177/4/4
f 1169/4/5 1172/4/5 1179/4/5 1176/4/5
f 1054/6/2 1180/6/2 1181/6/2 1059/6/2
f 1055/6/1 1062/6/1 1182/6/1 1183/6/1
f 1055/6/3 1183/6/3 1180/6/3 1054/6/3
f 1062/6/4 1059/6/4 1181/6/4 1182/6/4
f 1183/6/6 1182/6/6 1181/6/6 1180/6/6
f 1055/6/5 1054/6/5 1059/6/5 1062/6/5
f 1058/5/2 1184/5/2 1185/5/2 1066/5/2
f 1059/5/1 1064/5/1 1186/5/1 1181/5/1
f 1059/5/3 1181/5/3 1184/5/3 1058/5/3
f 1181/5/6 1186/5/6 1185/5/6 1184/5/6
f 1082/4/2 1187/4/2 1188/4/2 1081/4/2
f 1077/4/1 1078/4/1 1189/4/1 1190/4/1
f 1077/4/3 1190/4/3 1187/4/3 1082/4/3
f 1190/4/6 1189/4/6 1188/4/6 1187/4/6
f 1077/4/5 1082/4/5 1081/4/5 1078/4/5
f 1061/5/1 1191/5/1 1192/5/1 1193/5/1
f 1061/5/3 1193/5/3 1186/5/3 1064/5/3
f 1191/5/4 1194/5/4 1195/5/4 1192/5/4
f 1193/5/6 1192/5/6 1195/5/6 1186/5/6
f 1061/5/5 1064/5/5 1194/5/5 1191/5/5
f 1194/5/4 1196/5/4 1197/5/4 1195/5/4
f 1064/5/5 1066/5/5 1196/5/5 1194/5/5
f 1068/6/2 1198/6/2 1199/6/2 1085/6/2
f 1066/6/3 1185/6/3 1198/6/3 1068/6/3
f 1196/6/4 1085/6/4 1199/6/4 1197/6/4
f 1185/6/6 1197/6/6 1199/6/6 1198/6/6
f 1066/6/5 1068/6/5 1085/6/5 1196/6/5
f 1070/3/2 1200/3/2 1201/3/2 1088/3/2
f 1071/3/1 1086/3/1 1202/3/1 1203/3/1
f 1071/3/3 1203/3/3 1200/3/3 1070/3/3
f 1086/3/4 1088/3/4 1201/3/4 1202/3/4
f 1203/3/6 1202/3/6 1201/3/6 1200/3/6
f 1076/4/2 1204/4/2 1205/4/2 1104/4/2
f 1073/4/1 1087/4/1 1206/4/1 1207/4/1
f 1073/4/3 1207/4/3 1204/4/3 1076/4/3
f 1207/4/6 1206/4/6 1205/4/6 1204/4/6
f 1073/4/5 1076/4/5 1104/4/5 1087/4/5
f 1081/4/2 1188/4/2 1208/4/2 1089/4/2
f 1078/4/1 1090/4/1 1209/4/1 1189/4/1
f 1090/4/4 1089/4/4 1208/4/4 1209/4/4
f 1084/8/2 1210/8/2 1211/8/2 1091/8/2
f 1085/8/1 1212/8/1 1213/8/1 1199/8/1
f 1085/8/3 1199/8/3 1210/8/3 1084/8/3
f 1212/8/4 1091/8/4 1211/8/4 1213/8/4
f 1199/8/6 1213/8/6 1211/8/6 1210/8/6
f 1085/8/5 1084/8/5 1091/8/5 1212/8/5
f 1086/6/2 1202/6/2 1214/6/2 1100/6/2
f 1098/6/1 1099/6/1 1215/6/1 1216/6/1
f 1098/6/3 1216/6/3 1202/6/3 1086/6/3
f 1216/6/6 1215/6/6 1214/6/6 1202/6/6
f 1104/3/2 1205/3/2 1217/3/2 1103/3/2
f 1087/3/1 1102/3/1 1218/3/1 1206/3/1
f 1102/3/4 1103/3/4 1217/3/4 1218/3/4
f 1206/3/6 1218/3/6 1217/3/6 1205/3/6
f 1087/3/5 1104/3/5 1103/3/5 1102/3/5
f 1093/10/2 1219/10/2 1220/10/2 1108/10/2
f 1091/10/1 1107/10/1 1221/10/1 1211/10/1
f 1091/10/3 1211/10/3 1219/10/3 1093/10/3
f 1107/10/4 1108/10/4 1220/10/4 1221/10/4
f 1211/10/6 1221/10/6 1220/10/6 1219/10/6
f 1099/2/1 1120/2/1 1222/2/1 1215/2/1
f 1215/2/6 1222/2/6 1223/2/6 1214/2/6
f 1099/2/5 1100/2/5 1111/2/5 1120/2/5
f 1100/7/3 1214/7/3 1224/7/3 1101/7/3
f 1111/7/4 1124/7/4 1225/7/4 1223/7/4
f 1214/7/6 1223/7/6 1225/7/6 1224/7/6
f 1102/3/2 1218/3/2 1226/3/2 1112/3/2
f 1101/3/3 1224/3/3 1218/3/3 1102/3/3
f 1224/3/6 1225/3/6 1226/3/6 1218/3/6
f 1106/2/2 1227/2/2 1228/2/2 1115/2/2
f 1105/2/1 1126/2/1 1229/2/1 1230/2/1
f 1105/2/3 1230/2/3 1227/2/3 1106/2/3
f 1230/2/6 1229/2/6 1228/2/6 1227/2/6
f 1105/2/5 1106/2/5 1115/2/5 1126/2/5
f 1107/6/2 1221/6/2 1231/6/2 1116/6/2
f 1232/6/1 1133/6/1 1233/6/1 1234/6/1
f 1232/6/3 1234/6/3 1221/6/3 1107/6/3
f 1133/6/4 1116/6/4 1231/6/4 1233/6/4
f 1234/6/6 1233/6/6 1231/6/6 1221/6/6
f 1232/6/5 1107/6/5 1116/6/5 1133/6/5
f 1111/3/2 1223/3/2 1235/3/2 1122/3/2
f 1120/3/1 1121/3/1 1236/3/1 1222/3/1
f 1121/3/4 1122/3/4 1235/3/4 1236/3/4
f 1222/3/6 1236/3/6 1235/3/6 1223/3/6
f 1120/3/5 1111/3/5 1122/3/5 1121/3/5
f 1124/4/1 1123/4/1 1237/4/1 1225/4/1
f 1123/4/4 1125/4/4 1238/4/4 1237/4/4
f 1225/4/6 1237/4/6 1238/4/6 1226/4/6
f 1112/5/3 1226/5/3 1239/5/3 1130/5/3
f 1226/5/6 1238/5/6 1240/5/6 1239/5/6
f 1112/5/5 1130/5/5 1129/5/5 1125/5/5
f 1130/2/3 1239/2/3 1229/2/3 1126/2/3
f 1239/2/6 1240/2/6 1241/2/6 1229/2/6
f 1127/2/4 1141/2/4 1242/2/4 1241/2/4
f 1229/2/6 1241/2/6 1242/2/6 1228/2/6
f 1126/2/5 1115/2/5 1141/2/5 1127/2/5
f 1114/2/2 1243/2/2 1244/2/2 1245/2/2
f 1115/2/3 1228/2/3 1243/2/3 1114/2/3
f 1115/2/5 1114/2/5 1245/2/5 1141/2/5
f 1246/5/1 1145/5/1 1247/5/1 1248/5/1
f 1246/5/3 1248/5/3 1249/5/3 1250/5/3
f 1145/5/4 1146/5/4 1251/5/4 1247/5/4
f 1248/5/6 1247/5/6 1251/5/6 1249/5/6
f 1246/5/5 1250/5/5 1146/5/5 1145/5/5
f 1250/5/3 1249/5/3 1252/5/3 1253/5/3
f 1250/5/5 1253/5/5 1149/5/5 1146/5/5
f 1133/8/2 1233/8/2 1254/8/2 1132/8/2
f 1253/8/3 1252/8/3 1233/8/3 1133/8/3
f 1149/8/4 1132/8/4 1254/8/4 1255/8/4
f 1252/8/6 1255/8/6 1254/8/6 1233/8/6
f 1253/8/5 1133/8/5 1132/8/5 1149/8/5
f 1123/4/2 1237/4/2 1256/4/2 1138/4/2
f 1122/4/1 1136/4/1 1257/4/1 1235/4/1
f 1122/4/3 1235/4/3 1237/4/3 1123/4/3
f 1136/4/4 1138/4/4 1256/4/4 1257/4/4
f 1235/4/6 1257/4/6 1256/4/6 1237/4/6
f 1125/2/1 1137/2/1 1258/2/1 1238/2/1
f 1137/2/4 1139/2/4 1259/2/4 1258/2/4
f 1125/2/5 1129/2/5 1139/2/5 1137/2/5
f 1127/2/2 1241/2/2 1260/2/2 1140/2/2
f 1240/2/6 1259/2/6 1260/2/6 1241/2/6
f 1141/4/1 1142/4/1 1261/4/1 1242/4/1
f 1142/4/4 1262/4/4 1263/4/4 1261/4/4
f 1141/4/5 1245/4/5 1262/4/5 1142/4/5
f 1264/3/2 1265/3/2 1266/3/2 1267/3/2
f 1245/3/3 1244/3/3 1265/3/3 1264/3/3
f 1262/3/4 1267/3/4 1266/3/4 1263/3/4
f 1244/3/6 1263/3/6 1266/3/6 1265/3/6
f 1245/3/5 1264/3/5 1267/3/5 1262/3/5
f 1149/1/2 1255/1/2 1268/1/2 1152/1/2
f 1146/1/1 1148/1/1 1269/1/1 1251/1/1
f 1148/1/4 1152/1/4 1268/1/4 1269/1/4
f 1251/1/6 1269/1/6 1268/1/6 1255/1/6
f 1140/7/2 1260/7/2 1270/7/2 1271/7/2
f 1139/7/1 1158/7/1 1272/7/1 1259/7/1
f 1158/7/4 1271/7/4 1270/7/4 1272/7/4
f 1259/7/6 1272/7/6 1270/7/6 1260/7/6
f 1139/7/5 1140/7/5 1271/7/5 1158/7/5
f 1148/6/2 1269/6/2 1273/6/2 1157/6/2
f 1144/6/1 1164/6/1 1274/6/1 1275/6/1
f 1144/6/3 1275/6/3 1269/6/3 1148/6/3
f 1164/6/4 1157/6/4 1273/6/4 1274/6/4
f 1275/6/6 1274/6/6 1273/6/6 1269/6/6
f 1144/6/5 1148/6/5 1157/6/5 1164/6/5
f 1168/4/2 1276/4/2 1277/4/2 1173/4/2
f 1167/4/1 1166/4/1 1278/4/1 1279/4/1
f 1167/4/3 1279/4/3 1276/4/3 1168/4/3
f 1166/4/4 1173/4/4 1277/4/4 1278/4/4
f 1279/4/6 1278/4/6 1277/4/6 1276/4/6
f 1171/3/2 1280/3/2 1281/3/2 1178/3/2
f 1173/3/1 1177/3/1 1282/3/1 1277/3/1
f 1173/3/3 1277/3/3 1280/3/3 1171/3/3
f 1177/3/4 1178/3/4 1281/3/4 1282/3/4
f 1277/3/6 1282/3/6 1281/3/6 1280/3/6
f 1283/4/1 1284/4/1 1285/4/1 1286/4/1
f 1283/4/3 1286/4/3 1287/4/3 1288/4/3
f 1284/4/4 1289/4/4 1290/4/4 1285/4/4
f 1286/4/6 1285/4/6 1290/4/6 1287/4/6
f 1283/4/5 1288/4/5 1289/4/5 1284/4/5
f 1291/2/2 1292/2/2 1293/2/2 1294/2/2
f 1288/2/3 1287/2/3 1292/2/3 1291/2/3
f 1288/2/5 1291/2/5 1294/2/5 1289/2/5
f 1294/7/2 1293/7/2 1295/7/2 1296/7/2
f 1289/7/1 1297/7/1 1298/7/1 1290/7/1
f 1297/7/4 1296/7/4 1295/7/4 1298/7/4
f 1289/7/5 1294/7/5 1296/7/5 1297/7/5
f 1181/6/2 1299/6/2 1300/6/2 1186/6/2
f 1182/6/1 1193/6/1 1301/6/1 1302/6/1
f 1182/6/3 1302/6/3 1299/6/3 1181/6/3
f 1193/6/4 1186/6/4 1300/6/4 1301/6/4
f 1302/6/6 1301/6/6 1300/6/6 1299/6/6
f 1182/6/5 1181/6/5 1186/6/5 1193/6/5
f 1297/3/2 1298/3/2 1303/3/2 1304/3/2
f 1187/3/1 1188/3/1 1305/3/1 1306/3/1
f 1187/3/3 1306/3/3 1298/3/3 1297/3/3
f 1188/3/4 1304/3/4 1303/3/4 1305/3/4
f 1306/3/6 1305/3/6 1303/3/6 1298/3/6
f 1187/3/5 1297/3/5 1304/3/5 1188/3/5
f 1185/5/2 1307/5/2 1308/5/2 1197/5/2
f 1186/5/1 1195/5/1 1309/5/1 1300/5/1
f 1186/5/3 1300/5/3 1307/5/3 1185/5/3
f 1300/5/6 1309/5/6 1308/5/6 1307/5/6
f 1188/4/2 1305/4/2 1310/4/2 1208/4/2
f 1189/4/1 1209/4/1 1311/4/1 1312/4/1
f 1189/4/3 1312/4/3 1305/4/3 1188/4/3
f 1209/4/4 1208/4/4 1310/4/4 1311/4/4
f 1312/4/6 1311/4/6 1310/4/6 1305/4/6
f 1192/5/1 1313/5/1 1314/5/1 1315/5/1
f 1192/5/3 1315/5/3 1309/5/3 1195/5/3
f 1315/5/6 1314/5/6 1316/5/6 1309/5/6
f 1192/5/5 1195/5/5 1317/5/5 1313/5/5
f 1317/5/4 1318/5/4 1319/5/4 1316/5/4
f 1195/5/5 1197/5/5 1318/5/5 1317/5/5
f 1199/5/2 1320/5/2 1321/5/2 1213/5/2
f 1197/5/3 1308/5/3 1320/5/3 1199/5/3
f 1308/5/6 1319/5/6 1321/5/6 1320/5/6
f 1197/5/5 1199/5/5 1213/5/5 1318/5/5
f 1209/9/2 1311/9/2 1322/9/2 1230/9/2
f 1205/9/1 1217/9/1 1323/9/1 1324/9/1
f 1205/9/3 1324/9/3 1311/9/3 1209/9/3
f 1217/9/4 1230/9/4 1322/9/4 1323/9/4
f 1324/9/6 1323/9/6 1322/9/6 1311/9/6
f 1205/9/5 1209/9/5 1230/9/5 1217/9/5
f 1317/5/2 1316/5/2 1325/5/2 1326/5/2
f 1313/5/1 1327/5/1 1328/5/1 1314/5/1
f 1313/5/5 1317/5/5 1326/5/5 1327/5/5
f 1318/5/1 1329/5/1 1330/5/1 1319/5/1
f 1318/5/5 1213/5/5 1234/5/5 1329/5/5
f 1211/8/2 1331/8/2 1332/8/2 1221/8/2
f 1213/8/3 1321/8/3 1331/8/3 1211/8/3
f 1234/8/4 1221/8/4 1332/8/4 1333/8/4
f 1321/8/6 1333/8/6 1332/8/6 1331/8/6
f 1213/8/5 1211/8/5 1221/8/5 1234/8/5
f 1327/5/1 1248/5/1 1334/5/1 1328/5/1
f 1248/5/4 1249/5/4 1335/5/4 1334/5/4
f 1328/5/6 1334/5/6 1335/5/6 1325/5/6
f 1327/5/5 1326/5/5 1249/5/5 1248/5/5
f 1326/5/3 1325/5/3 1330/5/3 1329/5/3
f 1326/5/5 1329/5/5 1252/5/5 1249/5/5
f 1234/5/2 1333/5/2 1336/5/2 1233/5/2
f 1252/5/4 1233/5/4 1336/5/4 1337/5/4
f 1330/5/6 1337/5/6 1336/5/6 1333/5/6
f 1329/5/5 1234/5/5 1233/5/5 1252/5/5
f 1228/2/1 1242/2/1 1338/2/1 1339/2/1
f 1228/2/3 1339/2/3 1340/2/3 1243/2/3
f 1339/2/6 1338/2/6 1341/2/6 1340/2/6
f 1342/4/2 1343/4/2 1344/4/2 1265/4/2
f 1243/4/3 1340/4/3 1343/4/3 1342/4/3
f 1244/4/4 1265/4/4 1344/4/4 1341/4/4
f 1340/4/6 1341/4/6 1344/4/6 1343/4/6
f 1243/4/5 1342/4/5 1265/4/5 1244/4/5
f 1252/10/2 1337/10/2 1345/10/2 1255/10/2
f 1249/10/1 1251/10/1 1346/10/1 1335/10/1
f 1251/10/4 1255/10/4 1345/10/4 1346/10/4
f 1335/10/6 1346/10/6 1345/10/6 1337/10/6
f 1240/4/2 1347/4/2 1348/4/2 1259/4/2
f 1238/4/1 1258/4/1 1349/4/1 1350/4/1
f 1238/4/3 1350/4/3 1347/4/3 1240/4/3
f 1258/4/4 1259/4/4 1348/4/4 1349/4/4
f 1350/4/6 1349/4/6 1348/4/6 1347/4/6
f 1244/7/2 1341/7/2 1351/7/2 1263/7/2
f 1242/7/1 1261/7/1 1352/7/1 1338/7/1
f 1261/7/4 1263/7/4 1351/7/4 1352/7/4
f 1338/7/6 1352/7/6 1351/7/6 1341/7/6
f 1251/8/2 1346/8/2 1353/8/2 1269/8/2
f 1247/8/1 1275/8/1 1354/8/1 1355/8/1
f 1247/8/3 1355/8/3 1346/8/3 1251/8/3
f 1275/8/4 1269/8/4 1353/8/4 1354/8/4
f 1355/8/6 1354/8/6 1353/8/6 1346/8/6
f 1247/8/5 1251/8/5 1269/8/5 1275/8/5
f 1292/7/2 1356/7/2 1357/7/2 1293/7/2
f 1287/7/1 1290/7/1 1358/7/1 1359/7/1
f 1287/7/3 1359/7/3 1356/7/3 1292/7/3
f 1359/7/6 1358/7/6 1357/7/6 1356/7/6
f 1285/4/1 1306/4/1 1360/4/1 1361/4/1
f 1285/4/3 1361/4/3 1358/4/3 1290/4/3
f 1306/4/4 1298/4/4 1362/4/4 1360/4/4
f 1361/4/6 1360/4/6 1362/4/6 1358/4/6
f 1285/4/5 1290/4/5 1298/4/5 1306/4/5
f 1293/4/2 1357/4/2 1363/4/2 1295/4/2
f 1298/4/4 1295/4/4 1363/4/4 1362/4/4
f 1358/4/6 1362/4/6 1363/4/6 1357/4/6
f 1300/1/2 1364/1/2 1365/1/2 1309/1/2
f 1301/1/1 1315/1/1 1366/1/1 1367/1/1
f 1301/1/3 1367/1/3 1364/1/3 1300/1/3
f 1315/1/4 1309/1/4 1365/1/4 1366/1/4
f 1367/1/6 1366/1/6 1365/1/6 1364/1/6
f 1301/1/5 1300/1/5 1309/1/5 1315/1/5
f 1308/8/2 1368/8/2 1369/8/2 1319/8/2
f 1309/8/1 1316/8/1 1370/8/1 1365/8/1
f 1309/8/3 1365/8/3 1368/8/3 1308/8/3
f 1365/8/6 1370/8/6 1369/8/6 1368/8/6
f 1314/5/1 1328/5/1 1371/5/1 1372/5/1
f 1314/5/3 1372/5/3 1370/5/3 1316/5/3
f 1328/5/4 1325/5/4 1373/5/4 1371/5/4
f 1372/5/6 1371/5/6 1373/5/6 1370/5/6
f 1316/5/5 1319/5/5 1330/5/5 1325/5/5
f 1321/6/2 1374/6/2 1375/6/2 1333/6/2
f 1319/6/3 1369/6/3 1374/6/3 1321/6/3
f 1330/6/4 1333/6/4 1375/6/4 1376/6/4
f 1369/6/6 1376/6/6 1375/6/6 1374/6/6
f 1323/7/1 1377/7/1 1378/7/1 1379/7/1
f 1323/7/3 1379/7/3 1380/7/3 1322/7/3
f 1377/7/4 1381/7/4 1382/7/4 1378/7/4
f 1379/7/6 1378/7/6 1382/7/6 1380/7/6
f 1323/7/5 1322/7/5 1381/7/5 1377/7/5
f 1322/2/3 1380/2/3 1383/2/3 1384/2/3
f 1381/2/4 1339/2/4 1385/2/4 1382/2/4
f 1380/2/6 1382/2/6 1385/2/6 1383/2/6
f 1322/2/5 1384/2/5 1339/2/5 1381/2/5
f 1386/7/2 1387/7/2 1388/7/2 1340/7/2
f 1384/7/3 1383/7/3 1387/7/3 1386/7/3
f 1339/7/4 1340/7/4 1388/7/4 1385/7/4
f 1383/7/6 1385/7/6 1388/7/6 1387/7/6
f 1384/7/5 1386/7/5 1340/7/5 1339/7/5
f 1330/8/2 1376/8/2 1389/8/2 1337/8/2
f 1325/8/1 1335/8/1 1390/8/1 1373/8/1
f 1335/8/4 1337/8/4 1389/8/4 1390/8/4
f 1373/8/6 1390/8/6 1389/8/6 1376/8/6
f 1377/2/2 1378/2/2 1391/2/2 1347/2/2
f 1392/2/1 1350/2/1 1393/2/1 1394/2/1
f 1392/2/3 1394/2/3 1378/2/3 1377/2/3
f 1350/2/4 1347/2/4 1391/2/4 1393/2/4
f 1394/2/6 1393/2/6 1391/2/6 1378/2/6
f 1392/2/5 1377/2/5 1347/2/5 1350/2/5
f 1335/8/2 1390/8/2 1395/8/2 1346/8/2
f 1334/8/1 1355/8/1 1396/8/1 1397/8/1
f 1334/8/3 1397/8/3 1390/8/3 1335/8/3
f 1355/8/4 1346/8/4 1395/8/4 1396/8/4
f 1397/8/6 1396/8/6 1395/8/6 1390/8/6
f 1334/8/5 1335/8/5 1346/8/5 1355/8/5
f 1338/9/2 1398/9/2 1399/9/2 1352/9/2
f 1400/9/1 1401/9/1 1402/9/1 1403/9/1
f 1400/9/3 1403/9/3 1398/9/3 1338/9/3
f 1401/9/4 1352/9/4 1399/9/4 1402/9/4
f 1400/9/5 1338/9/5 1352/9/5 1401/9/5
f 1365/5/2 1404/5/2 1405/5/2 1370/5/2
f 1366/5/1 1372/5/1 1406/5/1 1407/5/1
f 1366/5/3 1407/5/3 1404/5/3 1365/5/3
f 1372/5/4 1370/5/4 1405/5/4 1406/5/4
f 1407/5/6 1406/5/6 1405/5/6 1404/5/6
f 1366/5/5 1365/5/5 1370/5/5 1372/5/5
f 1369/6/2 1408/6/2 1409/6/2 1376/6/2
f 1370/6/1 1373/6/1 1410/6/1 1405/6/1
f 1370/6/3 1405/6/3 1408/6/3 1369/6/3
f 1373/6/4 1376/6/4 1409/6/4 1410/6/4
f 1405/6/6 1410/6/6 1409/6/6 1408/6/6
f 1373/1/2 1410/1/2 1411/1/2 1390/1/2
f 1371/1/1 1397/1/1 1412/1/1 1413/1/1
f 1371/1/3 1413/1/3 1410/1/3 1373/1/3
f 1397/1/4 1390/1/4 1411/1/4 1412/1/4
f 1413/1/6 1412/1/6 1411/1/6 1410/1/6
f 1371/1/5 1373/1/5 1390/1/5 1397/1/5
f 1382/2/2 1414/2/2 1415/2/2 1403/2/2
f 1378/2/1 1391/2/1 1416/2/1 1417/2/1
f 1378/2/3 1417/2/3 1414/2/3 1382/2/3
f 1391/2/4 1403/2/4 1415/2/4 1416/2/4
f 1378/2/5 1382/2/5 1403/2/5 1391/2/5
f 1398/2/2 1418/2/2 1419/2/2 1399/2/2
f 1403/2/1 1402/2/1 1420/2/1 1415/2/1
f 1403/2/3 1415/2/3 1418/2/3 1398/2/3
f 1402/2/4 1399/2/4 1419/2/4 1420/2/4
f 1405/5/2 1421/5/2 1422/5/2 1410/5/2
f 1406/5/1 1413/5/1 1423/5/1 1424/5/1
f 1406/5/3 1424/5/3 1421/5/3 1405/5/3
f 1413/5/4 1410/5/4 1422/5/4 1423/5/4
f 1424/5/6 1423/5/6 1422/5/6 1421/5/6
f 1406/5/5 1405/5/5 1410/5/5 1413/5/5
f 1417/7/1 1416/7/1 1425/7/1 1426/7/1
f 1417/7/3 1426/7/3 1427/7/3 1414/7/3
f 1426/7/6 1425/7/6 1428/7/6 1427/7/6
f 1429/2/2 1430/2/2 1431/2/2 1418/2/2
f 1414/2/3 1427/2/3 1430/2/3 1429/2/3
f 1427/2/6 1428/2/6 1431/2/6 1430/2/6
f 1414/2/5 1429/2/5 1418/2/5 1415/2/5
f 1416/3/1 1432/3/1 1433/3/1 1425/3/1
f 1432/3/4 1420/3/4 1434/3/4 1433/3/4
f 1425/3/6 1433/3/6 1434/3/6 1428/3/6
f 1416/3/5 1415/3/5 1420/3/5 1432/3/5
f 1418/4/2 1431/4/2 1435/4/2 1419/4/2
f 1420/4/4 1419/4/4 1435/4/4 1434/4/4
f 1428/4/6 1434/4/6 1435/4/6 1431/4/6
