mtllib Sietecueros_Sergio_Danilo_Palacios_Castillo_fase_3.mtl
o Sietecueros_Sergio_Danilo_Palacios_Castillo_fase_3
v -8.0000 4.0000 2.0000
v -8.0000 4.0000 1.0000
v -7.0000 4.0000 1.0000
v -7.0000 4.0000 2.0000
v -7.0000 5.0000 2.0000
v -8.0000 5.0000 2.0000
v -7.0000 5.0000 1.0000
v -8.0000 5.0000 1.0000
v -8.0000 6.0000 2.0000
v -7.0000 6.0000 2.0000
v -7.0000 6.0000 1.0000
v -8.0000 6.0000 1.0000
v -8.0000 4.0000 -0.0000
v -7.0000 4.0000 -0.0000
v -8.0000 5.0000 -0.0000
v -7.0000 6.0000 -0.0000
v -8.0000 6.0000 -0.0000
v -7.0000 5.0000 -0.0000
v -8.0000 4.0000 -1.0000
v -7.0000 4.0000 -1.0000
v -8.0000 5.0000 -1.0000
v -7.0000 6.0000 -1.0000
v -8.0000 6.0000 -1.0000
v -7.0000 5.0000 -1.0000
v -8.0000 4.0000 -2.0000
v -7.0000 4.0000 -2.0000
v -8.0000 5.0000 -2.0000
v -7.0000 5.0000 -2.0000
v -7.0000 6.0000 -2.0000
v -8.0000 6.0000 -2.0000
v -7.0000 6.0000 -3.0000
v -8.0000 6.0000 -3.0000
v -8.0000 5.0000 -3.0000
v -7.0000 5.0000 -3.0000
v -7.0000 6.0000 -4.0000
v -8.0000 6.0000 -4.0000
v -8.0000 5.0000 -4.0000
v -7.0000 5.0000 -4.0000
v -7.0000 6.0000 -5.0000
v -8.0000 6.0000 -5.0000
v -8.0000 5.0000 -5.0000
v -7.0000 5.0000 -5.0000
v -7.0000 6.0000 -6.0000
v -8.0000 6.0000 -6.0000
v -8.0000 5.0000 -6.0000
v -7.0000 5.0000 -6.0000
v -7.0000 6.0000 -7.0000
v -8.0000 6.0000 -7.0000
v -8.0000 5.0000 -7.0000
v -7.0000 5.0000 -7.0000
v -7.0000 8.0000 5.0000
v -6.0000 8.0000 5.0000
v -6.0000 8.0000 4.0000
v -7.0000 8.0000 4.0000
v -7.0000 7.0000 5.0000
v -7.0000 7.0000 4.0000
v -6.0000 7.0000 4.0000
v -6.0000 7.0000 5.0000
v -6.0000 8.0000 3.0000
v -7.0000 8.0000 3.0000
v -7.0000 7.0000 3.0000
v -6.0000 7.0000 3.0000
v -6.0000 8.0000 2.0000
v -7.0000 8.0000 2.0000
v -7.0000 7.0000 2.0000
v -6.0000 7.0000 2.0000
v -6.0000 8.0000 1.0000
v -7.0000 8.0000 1.0000
v -7.0000 7.0000 1.0000
v -6.0000 7.0000 1.0000
v -7.0000 2.0000 1.0000
v -7.0000 2.0000 -0.0000
v -6.0000 2.0000 -0.0000
v -6.0000 2.0000 1.0000
v -6.0000 3.0000 1.0000
v -7.0000 3.0000 1.0000
v -7.0000 3.0000 -0.0000
v -6.0000 4.0000 1.0000
v -6.0000 5.0000 1.0000
v -6.0000 5.0000 -0.0000
v -6.0000 4.0000 -0.0000
v -6.0000 8.0000 -0.0000
v -7.0000 8.0000 -0.0000
v -7.0000 7.0000 -0.0000
v -6.0000 7.0000 -0.0000
v -7.0000 2.0000 -1.0000
v -6.0000 2.0000 -1.0000
v -7.0000 3.0000 -1.0000
v -6.0000 3.0000 -1.0000
v -6.0000 4.0000 -1.0000
v -6.0000 5.0000 -1.0000
v -6.0000 8.0000 -1.0000
v -7.0000 8.0000 -1.0000
v -7.0000 7.0000 -1.0000
v -6.0000 7.0000 -1.0000
v -6.0000 8.0000 -2.0000
v -7.0000 8.0000 -2.0000
v -7.0000 7.0000 -2.0000
v -6.0000 7.0000 -2.0000
v -6.0000 8.0000 -3.0000
v -7.0000 8.0000 -3.0000
v -7.0000 7.0000 -3.0000
v -6.0000 7.0000 -3.0000
v -6.0000 6.0000 -7.0000
v -6.0000 6.0000 -8.0000
v -7.0000 6.0000 -8.0000
v -7.0000 5.0000 -8.0000
v -6.0000 5.0000 -8.0000
v -6.0000 5.0000 -7.0000
v -6.0000 3.0000 6.0000
v -6.0000 3.0000 5.0000
v -5.0000 3.0000 5.0000
v -5.0000 3.0000 6.0000
v -5.0000 4.0000 6.0000
v -6.0000 4.0000 6.0000
v -6.0000 4.0000 5.0000
v -5.0000 4.0000 5.0000
v -6.0000 5.0000 6.0000
v -5.0000 5.0000 6.0000
v -5.0000 5.0000 5.0000
v -6.0000 5.0000 5.0000
v -5.0000 3.0000 4.0000
v -6.0000 3.0000 4.0000
v -6.0000 2.0000 5.0000
v -6.0000 2.0000 4.0000
v -5.0000 2.0000 4.0000
v -5.0000 2.0000 5.0000
v -6.0000 1.0000 4.0000
v -6.0000 1.0000 3.0000
v -5.0000 1.0000 3.0000
v -5.0000 1.0000 4.0000
v -6.0000 2.0000 3.0000
v -5.0000 2.0000 3.0000
v -5.0000 3.0000 3.0000
v -6.0000 3.0000 3.0000
v -5.0000 1.0000 2.0000
v -6.0000 1.0000 2.0000
v -6.0000 0.0000 3.0000
v -6.0000 0.0000 2.0000
v -5.0000 0.0000 2.0000
v -5.0000 0.0000 3.0000
v -5.0000 1.0000 1.0000
v -6.0000 1.0000 1.0000
v -6.0000 0.0000 1.0000
v -5.0000 0.0000 1.0000
v -6.0000 3.0000 2.0000
v -5.0000 3.0000 2.0000
v -5.0000 3.0000 1.0000
v -6.0000 2.0000 2.0000
v -5.0000 2.0000 1.0000
v -5.0000 2.0000 2.0000
v -5.0000 2.0000 -0.0000
v -5.0000 4.0000 1.0000
v -5.0000 4.0000 -0.0000
v -5.0000 3.0000 -0.0000
v -5.0000 2.0000 -1.0000
v -5.0000 4.0000 -1.0000
v -5.0000 3.0000 -1.0000
v -6.0000 6.0000 -0.0000
v -6.0000 6.0000 -1.0000
v -5.0000 6.0000 -1.0000
v -5.0000 6.0000 -0.0000
v -5.0000 7.0000 -0.0000
v -5.0000 8.0000 -0.0000
v -5.0000 8.0000 -1.0000
v -5.0000 7.0000 -1.0000
v -5.0000 3.0000 -2.0000
v -6.0000 3.0000 -2.0000
v -6.0000 2.0000 -2.0000
v -5.0000 2.0000 -2.0000
v -6.0000 6.0000 -2.0000
v -5.0000 6.0000 -2.0000
v -5.0000 7.0000 -2.0000
v -5.0000 8.0000 -2.0000
v -6.0000 5.0000 -3.0000
v -5.0000 5.0000 -3.0000
v -5.0000 5.0000 -4.0000
v -6.0000 5.0000 -4.0000
v -6.0000 4.0000 -3.0000
v -6.0000 4.0000 -4.0000
v -5.0000 4.0000 -4.0000
v -5.0000 4.0000 -3.0000
v -6.0000 3.0000 -4.0000
v -6.0000 3.0000 -5.0000
v -5.0000 3.0000 -5.0000
v -5.0000 3.0000 -4.0000
v -6.0000 4.0000 -5.0000
v -5.0000 4.0000 -5.0000
v -5.0000 5.0000 -5.0000
v -6.0000 5.0000 -5.0000
v -6.0000 8.0000 -4.0000
v -5.0000 8.0000 -4.0000
v -5.0000 8.0000 -5.0000
v -6.0000 8.0000 -5.0000
v -6.0000 7.0000 -4.0000
v -6.0000 7.0000 -5.0000
v -5.0000 7.0000 -5.0000
v -5.0000 7.0000 -4.0000
v -5.0000 5.0000 -6.0000
v -6.0000 5.0000 -6.0000
v -6.0000 4.0000 -6.0000
v -5.0000 4.0000 -6.0000
v -5.0000 8.0000 -6.0000
v -6.0000 8.0000 -6.0000
v -6.0000 7.0000 -6.0000
v -5.0000 7.0000 -6.0000
v -5.0000 6.0000 -7.0000
v -5.0000 6.0000 -8.0000
v -5.0000 5.0000 -8.0000
v -5.0000 5.0000 -7.0000
v -4.0000 5.0000 6.0000
v -4.0000 5.0000 5.0000
v -4.0000 4.0000 5.0000
v -4.0000 4.0000 6.0000
v -4.0000 1.0000 1.0000
v -4.0000 1.0000 2.0000
v -4.0000 2.0000 2.0000
v -4.0000 2.0000 1.0000
v -4.0000 3.0000 2.0000
v -4.0000 3.0000 1.0000
v -5.0000 4.0000 2.0000
v -4.0000 4.0000 1.0000
v -4.0000 4.0000 2.0000
v -4.0000 5.0000 2.0000
v -5.0000 5.0000 2.0000
v -5.0000 5.0000 1.0000
v -4.0000 5.0000 1.0000
v -4.0000 6.0000 2.0000
v -5.0000 6.0000 2.0000
v -5.0000 6.0000 1.0000
v -4.0000 6.0000 1.0000
v -5.0000 7.0000 2.0000
v -4.0000 7.0000 2.0000
v -4.0000 7.0000 1.0000
v -5.0000 7.0000 1.0000
v -5.0000 0.0000 -0.0000
v -4.0000 0.0000 -0.0000
v -4.0000 0.0000 1.0000
v -5.0000 1.0000 -0.0000
v -4.0000 3.0000 -0.0000
v -4.0000 2.0000 -0.0000
v -4.0000 7.0000 -0.0000
v -4.0000 6.0000 -0.0000
v -5.0000 0.0000 -1.0000
v -4.0000 0.0000 -1.0000
v -5.0000 1.0000 -1.0000
v -4.0000 1.0000 -1.0000
v -4.0000 2.0000 -1.0000
v -4.0000 3.0000 -1.0000
v -5.0000 5.0000 -0.0000
v -5.0000 5.0000 -1.0000
v -4.0000 5.0000 -1.0000
v -4.0000 5.0000 -0.0000
v -4.0000 7.0000 -1.0000
v -4.0000 3.0000 -2.0000
v -4.0000 2.0000 -2.0000
v -5.0000 5.0000 -2.0000
v -4.0000 5.0000 -2.0000
v -4.0000 6.0000 -2.0000
v -4.0000 7.0000 -2.0000
v -4.0000 5.0000 -3.0000
v -5.0000 4.0000 -2.0000
v -4.0000 4.0000 -3.0000
v -4.0000 4.0000 -2.0000
v -4.0000 8.0000 -2.0000
v -4.0000 8.0000 -3.0000
v -5.0000 8.0000 -3.0000
v -5.0000 7.0000 -3.0000
v -4.0000 7.0000 -3.0000
v -4.0000 5.0000 -4.0000
v -4.0000 4.0000 -4.0000
v -4.0000 8.0000 -4.0000
v -4.0000 7.0000 -4.0000
v -5.0000 2.0000 -4.0000
v -5.0000 2.0000 -5.0000
v -4.0000 2.0000 -5.0000
v -4.0000 2.0000 -4.0000
v -4.0000 3.0000 -4.0000
v -4.0000 3.0000 -5.0000
v -4.0000 4.0000 -5.0000
v -4.0000 6.0000 -4.0000
v -5.0000 6.0000 -4.0000
v -5.0000 6.0000 -5.0000
v -4.0000 6.0000 -5.0000
v -4.0000 5.0000 -5.0000
v -4.0000 7.0000 -5.0000
v -4.0000 8.0000 -5.0000
v -4.0000 5.0000 -6.0000
v -4.0000 4.0000 -6.0000
v -4.0000 8.0000 -6.0000
v -4.0000 7.0000 -6.0000
v -4.0000 6.0000 -7.0000
v -4.0000 6.0000 -8.0000
v -4.0000 5.0000 -8.0000
v -4.0000 5.0000 -7.0000
v -3.0000 5.0000 6.0000
v -3.0000 5.0000 5.0000
v -3.0000 4.0000 5.0000
v -3.0000 4.0000 6.0000
v -4.0000 8.0000 6.0000
v -3.0000 8.0000 6.0000
v -3.0000 8.0000 5.0000
v -4.0000 8.0000 5.0000
v -4.0000 7.0000 6.0000
v -4.0000 7.0000 5.0000
v -3.0000 7.0000 5.0000
v -3.0000 7.0000 6.0000
v -4.0000 4.0000 4.0000
v -3.0000 4.0000 4.0000
v -4.0000 5.0000 4.0000
v -3.0000 6.0000 5.0000
v -4.0000 6.0000 5.0000
v -4.0000 6.0000 4.0000
v -3.0000 6.0000 4.0000
v -3.0000 5.0000 4.0000
v -3.0000 7.0000 4.0000
v -4.0000 7.0000 4.0000
v -3.0000 5.0000 3.0000
v -4.0000 5.0000 3.0000
v -4.0000 4.0000 3.0000
v -3.0000 4.0000 3.0000
v -3.0000 7.0000 3.0000
v -4.0000 7.0000 3.0000
v -4.0000 6.0000 3.0000
v -3.0000 6.0000 3.0000
v -3.0000 5.0000 2.0000
v -3.0000 4.0000 2.0000
v -3.0000 7.0000 2.0000
v -3.0000 6.0000 2.0000
v -3.0000 1.0000 2.0000
v -3.0000 1.0000 1.0000
v -4.0000 0.0000 2.0000
v -3.0000 0.0000 1.0000
v -3.0000 0.0000 2.0000
v -3.0000 4.0000 1.0000
v -3.0000 6.0000 1.0000
v -3.0000 5.0000 1.0000
v -3.0000 7.0000 1.0000
v -3.0000 0.0000 -0.0000
v -3.0000 2.0000 1.0000
v -3.0000 2.0000 -0.0000
v -3.0000 1.0000 -0.0000
v -3.0000 5.0000 -0.0000
v -4.0000 4.0000 -0.0000
v -3.0000 4.0000 -0.0000
v -3.0000 0.0000 -1.0000
v -3.0000 2.0000 -1.0000
v -3.0000 1.0000 -1.0000
v -4.0000 4.0000 -1.0000
v -3.0000 4.0000 -1.0000
v -3.0000 6.0000 -0.0000
v -3.0000 7.0000 -0.0000
v -3.0000 7.0000 -1.0000
v -3.0000 1.0000 -2.0000
v -4.0000 1.0000 -2.0000
v -4.0000 0.0000 -2.0000
v -3.0000 0.0000 -2.0000
v -3.0000 4.0000 -2.0000
v -3.0000 6.0000 -2.0000
v -3.0000 5.0000 -2.0000
v -3.0000 7.0000 -2.0000
v -4.0000 8.0000 -1.0000
v -3.0000 8.0000 -1.0000
v -3.0000 8.0000 -2.0000
v -3.0000 5.0000 -3.0000
v -3.0000 4.0000 -3.0000
v -3.0000 5.0000 -4.0000
v -3.0000 4.0000 -4.0000
v -4.0000 0.0000 -4.0000
v -3.0000 0.0000 -4.0000
v -3.0000 0.0000 -5.0000
v -4.0000 0.0000 -5.0000
v -4.0000 -1.0000 -4.0000
v -4.0000 -1.0000 -5.0000
v -3.0000 -1.0000 -5.0000
v -3.0000 -1.0000 -4.0000
v -3.0000 3.0000 -4.0000
v -3.0000 3.0000 -5.0000
v -3.0000 2.0000 -5.0000
v -3.0000 2.0000 -4.0000
v -3.0000 4.0000 -5.0000
v -3.0000 5.0000 -5.0000
v -3.0000 6.0000 -4.0000
v -3.0000 6.0000 -5.0000
v -3.0000 8.0000 -4.0000
v -3.0000 8.0000 -5.0000
v -3.0000 7.0000 -5.0000
v -3.0000 7.0000 -4.0000
v -3.0000 4.0000 -6.0000
v -3.0000 5.0000 -6.0000
v -3.0000 6.0000 -6.0000
v -4.0000 6.0000 -6.0000
v -3.0000 8.0000 -6.0000
v -3.0000 7.0000 -6.0000
v -3.0000 8.0000 -7.0000
v -4.0000 8.0000 -7.0000
v -4.0000 7.0000 -7.0000
v -3.0000 7.0000 -7.0000
v -4.0000 3.0000 -7.0000
v -3.0000 3.0000 -7.0000
v -3.0000 3.0000 -8.0000
v -4.0000 3.0000 -8.0000
v -4.0000 2.0000 -7.0000
v -4.0000 2.0000 -8.0000
v -3.0000 2.0000 -8.0000
v -3.0000 2.0000 -7.0000
v -3.0000 5.0000 -8.0000
v -3.0000 5.0000 -7.0000
v -3.0000 6.0000 -7.0000
v -3.0000 6.0000 -8.0000
v -4.0000 7.0000 -8.0000
v -3.0000 7.0000 -8.0000
v -3.0000 8.0000 -8.0000
v -4.0000 8.0000 -8.0000
v -2.0000 5.0000 6.0000
v -2.0000 5.0000 5.0000
v -2.0000 4.0000 5.0000
v -2.0000 4.0000 6.0000
v -3.0000 2.0000 5.0000
v -3.0000 2.0000 4.0000
v -2.0000 2.0000 4.0000
v -2.0000 2.0000 5.0000
v -2.0000 3.0000 5.0000
v -3.0000 3.0000 5.0000
v -3.0000 3.0000 4.0000
v -2.0000 3.0000 4.0000
v -2.0000 4.0000 4.0000
v -2.0000 5.0000 4.0000
v -3.0000 -7.0000 2.0000
v -2.0000 -7.0000 2.0000
v -2.0000 -7.0000 1.0000
v -3.0000 -7.0000 1.0000
v -3.0000 -8.0000 2.0000
v -3.0000 -8.0000 1.0000
v -2.0000 -8.0000 1.0000
v -2.0000 -8.0000 2.0000
v -2.0000 1.0000 2.0000
v -2.0000 1.0000 1.0000
v -2.0000 0.0000 1.0000
v -2.0000 0.0000 2.0000
v -2.0000 4.0000 1.0000
v -2.0000 4.0000 2.0000
v -2.0000 5.0000 2.0000
v -2.0000 5.0000 1.0000
v -2.0000 6.0000 2.0000
v -2.0000 6.0000 1.0000
v -3.0000 -8.0000 -0.0000
v -2.0000 -8.0000 -0.0000
v -3.0000 -7.0000 -0.0000
v -3.0000 -6.0000 1.0000
v -2.0000 -6.0000 1.0000
v -2.0000 -6.0000 -0.0000
v -3.0000 -6.0000 -0.0000
v -3.0000 -1.0000 1.0000
v -3.0000 -1.0000 -0.0000
v -2.0000 -1.0000 -0.0000
v -2.0000 -1.0000 1.0000
v -2.0000 1.0000 -0.0000
v -2.0000 5.0000 -0.0000
v -2.0000 7.0000 1.0000
v -2.0000 7.0000 -0.0000
v -3.0000 -8.0000 -1.0000
v -2.0000 -8.0000 -1.0000
v -3.0000 -7.0000 -1.0000
v -2.0000 -6.0000 -1.0000
v -3.0000 -6.0000 -1.0000
v -2.0000 -7.0000 -1.0000
v -3.0000 -1.0000 -1.0000
v -2.0000 -1.0000 -1.0000
v -2.0000 0.0000 -1.0000
v -2.0000 1.0000 -1.0000
v -3.0000 3.0000 -0.0000
v -3.0000 3.0000 -1.0000
v -2.0000 3.0000 -1.0000
v -2.0000 3.0000 -0.0000
v -2.0000 4.0000 -0.0000
v -2.0000 7.0000 -1.0000
v -2.0000 -7.0000 -2.0000
v -3.0000 -7.0000 -2.0000
v -3.0000 -8.0000 -2.0000
v -2.0000 -8.0000 -2.0000
v -2.0000 1.0000 -2.0000
v -2.0000 0.0000 -2.0000
v -3.0000 3.0000 -2.0000
v -2.0000 3.0000 -2.0000
v -2.0000 4.0000 -2.0000
v -2.0000 6.0000 -2.0000
v -2.0000 5.0000 -2.0000
v -2.0000 7.0000 -2.0000
v -2.0000 5.0000 -3.0000
v -2.0000 4.0000 -3.0000
v -2.0000 7.0000 -3.0000
v -3.0000 7.0000 -3.0000
v -3.0000 6.0000 -3.0000
v -2.0000 6.0000 -3.0000
v -2.0000 0.0000 -4.0000
v -2.0000 0.0000 -5.0000
v -2.0000 -1.0000 -5.0000
v -2.0000 -1.0000 -4.0000
v -2.0000 3.0000 -4.0000
v -2.0000 3.0000 -5.0000
v -2.0000 2.0000 -5.0000
v -2.0000 2.0000 -4.0000
v -2.0000 8.0000 -4.0000
v -2.0000 8.0000 -5.0000
v -2.0000 7.0000 -5.0000
v -2.0000 7.0000 -4.0000
v -2.0000 0.0000 -6.0000
v -3.0000 0.0000 -6.0000
v -3.0000 -1.0000 -6.0000
v -2.0000 -1.0000 -6.0000
v -2.0000 4.0000 -5.0000
v -2.0000 4.0000 -6.0000
v -3.0000 3.0000 -6.0000
v -2.0000 3.0000 -6.0000
v -3.0000 2.0000 -6.0000
v -2.0000 2.0000 -6.0000
v -2.0000 2.0000 -7.0000
v -3.0000 1.0000 -6.0000
v -3.0000 1.0000 -7.0000
v -2.0000 1.0000 -7.0000
v -2.0000 1.0000 -6.0000
v -3.0000 1.0000 -8.0000
v -2.0000 1.0000 -8.0000
v -2.0000 2.0000 -8.0000
v -2.0000 3.0000 -7.0000
v -2.0000 3.0000 -8.0000
v -3.0000 4.0000 -7.0000
v -2.0000 4.0000 -7.0000
v -2.0000 4.0000 -8.0000
v -3.0000 4.0000 -8.0000
v -2.0000 6.0000 -7.0000
v -2.0000 6.0000 -8.0000
v -2.0000 5.0000 -8.0000
v -2.0000 5.0000 -7.0000
v -1.0000 5.0000 6.0000
v -1.0000 5.0000 5.0000
v -1.0000 4.0000 5.0000
v -1.0000 4.0000 6.0000
v -1.0000 3.0000 5.0000
v -1.0000 3.0000 4.0000
v -1.0000 2.0000 4.0000
v -1.0000 2.0000 5.0000
v -1.0000 2.0000 3.0000
v -2.0000 2.0000 3.0000
v -2.0000 1.0000 4.0000
v -2.0000 1.0000 3.0000
v -1.0000 1.0000 3.0000
v -1.0000 1.0000 4.0000
v -2.0000 -7.0000 3.0000
v -1.0000 -7.0000 3.0000
v -1.0000 -7.0000 2.0000
v -2.0000 -8.0000 3.0000
v -1.0000 -8.0000 2.0000
v -1.0000 -8.0000 3.0000
v -2.0000 8.0000 3.0000
v -1.0000 8.0000 3.0000
v -1.0000 8.0000 2.0000
v -2.0000 8.0000 2.0000
v -2.0000 7.0000 3.0000
v -2.0000 7.0000 2.0000
v -1.0000 7.0000 2.0000
v -1.0000 7.0000 3.0000
v -1.0000 -8.0000 1.0000
v -2.0000 -6.0000 2.0000
v -1.0000 -6.0000 2.0000
v -1.0000 -6.0000 1.0000
v -2.0000 -2.0000 2.0000
v -2.0000 -2.0000 1.0000
v -1.0000 -2.0000 1.0000
v -1.0000 -2.0000 2.0000
v -1.0000 -1.0000 2.0000
v -2.0000 -1.0000 2.0000
v -1.0000 0.0000 2.0000
v -1.0000 1.0000 2.0000
v -1.0000 1.0000 1.0000
v -2.0000 3.0000 2.0000
v -2.0000 3.0000 1.0000
v -1.0000 3.0000 1.0000
v -1.0000 3.0000 2.0000
v -1.0000 4.0000 2.0000
v -1.0000 5.0000 2.0000
v -1.0000 6.0000 2.0000
v -1.0000 8.0000 1.0000
v -2.0000 8.0000 1.0000
v -1.0000 -8.0000 -0.0000
v -1.0000 -5.0000 1.0000
v -2.0000 -5.0000 1.0000
v -2.0000 -5.0000 -0.0000
v -1.0000 -4.0000 1.0000
v -2.0000 -4.0000 1.0000
v -2.0000 -4.0000 -0.0000
v -1.0000 -3.0000 1.0000
v -2.0000 -3.0000 1.0000
v -2.0000 -3.0000 -0.0000
v -2.0000 -2.0000 -0.0000
v -1.0000 2.0000 1.0000
v -2.0000 2.0000 1.0000
v -2.0000 2.0000 -0.0000
v -1.0000 8.0000 -0.0000
v -2.0000 8.0000 -0.0000
v -1.0000 7.0000 1.0000
v -1.0000 7.0000 -0.0000
v -1.0000 -8.0000 -1.0000
v -2.0000 -5.0000 -1.0000
v -1.0000 -5.0000 -1.0000
v -1.0000 -6.0000 -1.0000
v -2.0000 -4.0000 -1.0000
v -1.0000 -4.0000 -1.0000
v -2.0000 -3.0000 -1.0000
v -1.0000 -3.0000 -1.0000
v -2.0000 -2.0000 -1.0000
v -2.0000 2.0000 -1.0000
v -1.0000 8.0000 -1.0000
v -2.0000 8.0000 -1.0000
v -1.0000 -8.0000 -2.0000
v -1.0000 -6.0000 -2.0000
v -2.0000 -6.0000 -2.0000
v -1.0000 -7.0000 -2.0000
v -2.0000 -3.0000 -2.0000
v -1.0000 -3.0000 -2.0000
v -2.0000 -2.0000 -2.0000
v -2.0000 -1.0000 -2.0000
v -1.0000 -1.0000 -2.0000
v -1.0000 -2.0000 -2.0000
v -1.0000 0.0000 -2.0000
v -1.0000 1.0000 -2.0000
v -2.0000 2.0000 -2.0000
v -1.0000 3.0000 -2.0000
v -1.0000 2.0000 -2.0000
v -1.0000 4.0000 -2.0000
v -1.0000 6.0000 -2.0000
v -1.0000 5.0000 -2.0000
v -1.0000 8.0000 -2.0000
v -2.0000 8.0000 -2.0000
v -1.0000 -7.0000 -3.0000
v -2.0000 -7.0000 -3.0000
v -2.0000 -8.0000 -3.0000
v -1.0000 -8.0000 -3.0000
v -1.0000 -2.0000 -3.0000
v -2.0000 -2.0000 -3.0000
v -2.0000 -3.0000 -3.0000
v -1.0000 -3.0000 -3.0000
v -1.0000 2.0000 -3.0000
v -2.0000 2.0000 -3.0000
v -2.0000 1.0000 -3.0000
v -1.0000 1.0000 -3.0000
v -1.0000 5.0000 -3.0000
v -1.0000 4.0000 -3.0000
v -1.0000 6.0000 -3.0000
v -1.0000 7.0000 -3.0000
v -1.0000 8.0000 -3.0000
v -2.0000 8.0000 -3.0000
v -2.0000 -3.0000 -4.0000
v -1.0000 -3.0000 -4.0000
v -2.0000 -2.0000 -4.0000
v -1.0000 -2.0000 -4.0000
v -2.0000 -1.0000 -3.0000
v -1.0000 -1.0000 -3.0000
v -1.0000 -1.0000 -4.0000
v -1.0000 2.0000 -4.0000
v -2.0000 1.0000 -4.0000
v -1.0000 1.0000 -4.0000
v -2.0000 -2.0000 -5.0000
v -1.0000 -2.0000 -5.0000
v -1.0000 -1.0000 -5.0000
v -1.0000 0.0000 -4.0000
v -1.0000 0.0000 -5.0000
v -1.0000 2.0000 -5.0000
v -1.0000 3.0000 -4.0000
v -1.0000 3.0000 -5.0000
v -2.0000 4.0000 -4.0000
v -1.0000 4.0000 -4.0000
v -1.0000 4.0000 -5.0000
v -1.0000 -1.0000 -6.0000
v -2.0000 1.0000 -5.0000
v -1.0000 1.0000 -5.0000
v -1.0000 1.0000 -6.0000
v -1.0000 3.0000 -6.0000
v -2.0000 5.0000 -5.0000
v -1.0000 5.0000 -5.0000
v -1.0000 5.0000 -6.0000
v -2.0000 5.0000 -6.0000
v -1.0000 4.0000 -6.0000
v -2.0000 -1.0000 -7.0000
v -1.0000 -1.0000 -7.0000
v -2.0000 0.0000 -7.0000
v -1.0000 0.0000 -7.0000
v -1.0000 1.0000 -7.0000
v -1.0000 2.0000 -6.0000
v -1.0000 2.0000 -7.0000
v -1.0000 3.0000 -7.0000
v -1.0000 4.0000 -7.0000
v -1.0000 1.0000 -8.0000
v -1.0000 2.0000 -8.0000
v -1.0000 3.0000 -8.0000
v -1.0000 4.0000 -8.0000
v -1.0000 5.0000 -8.0000
v -1.0000 5.0000 -7.0000
v -1.0000 6.0000 -7.0000
v -1.0000 6.0000 -8.0000
v -2.0000 7.0000 -7.0000
v -1.0000 7.0000 -7.0000
v -1.0000 7.0000 -8.0000
v -2.0000 7.0000 -8.0000
v -1.0000 5.0000 8.0000
v -1.0000 5.0000 7.0000
v 0.0000 5.0000 7.0000
v 0.0000 5.0000 8.0000
v 0.0000 6.0000 8.0000
v -1.0000 6.0000 8.0000
v -1.0000 6.0000 7.0000
v -1.0000 7.0000 8.0000
v 0.0000 7.0000 8.0000
v 0.0000 7.0000 7.0000
v -1.0000 7.0000 7.0000
v 0.0000 6.0000 7.0000
v 0.0000 6.0000 6.0000
v -1.0000 6.0000 6.0000
v 0.0000 5.0000 6.0000
v -1.0000 3.0000 6.0000
v 0.0000 3.0000 5.0000
v 0.0000 3.0000 6.0000
v 0.0000 4.0000 6.0000
v 0.0000 5.0000 5.0000
v 0.0000 4.0000 5.0000
v 0.0000 2.0000 4.0000
v 0.0000 2.0000 5.0000
v 0.0000 3.0000 4.0000
v 0.0000 4.0000 4.0000
v -1.0000 4.0000 4.0000
v -1.0000 7.0000 5.0000
v 0.0000 7.0000 5.0000
v 0.0000 7.0000 4.0000
v -1.0000 7.0000 4.0000
v -1.0000 6.0000 5.0000
v -1.0000 6.0000 4.0000
v 0.0000 6.0000 4.0000
v 0.0000 6.0000 5.0000
v -1.0000 -1.0000 4.0000
v -1.0000 -1.0000 3.0000
v 0.0000 -1.0000 3.0000
v 0.0000 -1.0000 4.0000
v 0.0000 0.0000 4.0000
v -1.0000 0.0000 4.0000
v -1.0000 0.0000 3.0000
v 0.0000 0.0000 3.0000
v 0.0000 1.0000 4.0000
v 0.0000 1.0000 3.0000
v 0.0000 2.0000 3.0000
v -1.0000 5.0000 4.0000
v -1.0000 5.0000 3.0000
v 0.0000 5.0000 3.0000
v 0.0000 5.0000 4.0000
v -1.0000 6.0000 3.0000
v -1.0000 8.0000 4.0000
v 0.0000 8.0000 4.0000
v 0.0000 8.0000 3.0000
v 0.0000 -8.0000 2.0000
v 0.0000 -8.0000 3.0000
v 0.0000 -7.0000 3.0000
v -1.0000 -6.0000 3.0000
v 0.0000 -6.0000 3.0000
v 0.0000 -6.0000 2.0000
v 0.0000 0.0000 2.0000
v 0.0000 2.0000 2.0000
v -1.0000 2.0000 2.0000
v -1.0000 4.0000 3.0000
v 0.0000 4.0000 2.0000
v 0.0000 4.0000 3.0000
v 0.0000 6.0000 3.0000
v 0.0000 6.0000 2.0000
v 0.0000 7.0000 2.0000
v 0.0000 7.0000 3.0000
v 0.0000 8.0000 2.0000
v 0.0000 -8.0000 1.0000
v 0.0000 -5.0000 2.0000
v -1.0000 -5.0000 2.0000
v 0.0000 -4.0000 2.0000
v -1.0000 -4.0000 2.0000
v 0.0000 -3.0000 2.0000
v -1.0000 -3.0000 2.0000
v 0.0000 -2.0000 2.0000
v 0.0000 -1.0000 2.0000
v 0.0000 3.0000 2.0000
v 0.0000 8.0000 1.0000
v 0.0000 7.0000 1.0000
v 0.0000 -8.0000 -0.0000
v 0.0000 7.0000 -0.0000
v 0.0000 -8.0000 -1.0000
v 0.0000 8.0000 -0.0000
v 0.0000 8.0000 -1.0000
v 0.0000 -8.0000 -2.0000
v -1.0000 -5.0000 -2.0000
v 0.0000 -5.0000 -2.0000
v 0.0000 -6.0000 -2.0000
v -1.0000 -4.0000 -2.0000
v 0.0000 -4.0000 -2.0000
v 0.0000 -1.0000 -2.0000
v 0.0000 -2.0000 -2.0000
v 0.0000 0.0000 -2.0000
v 0.0000 3.0000 -2.0000
v 0.0000 2.0000 -2.0000
v 0.0000 4.0000 -2.0000
v 0.0000 5.0000 -2.0000
v 0.0000 6.0000 -2.0000
v 0.0000 8.0000 -2.0000
v 0.0000 7.0000 -1.0000
v 0.0000 7.0000 -2.0000
v 0.0000 -8.0000 -3.0000
v 0.0000 -7.0000 -3.0000
v 0.0000 -6.0000 -3.0000
v -1.0000 -6.0000 -3.0000
v -1.0000 -4.0000 -3.0000
v 0.0000 -4.0000 -3.0000
v 0.0000 -3.0000 -3.0000
v 0.0000 -3.0000 -2.0000
v 0.0000 -2.0000 -3.0000
v -1.0000 0.0000 -3.0000
v 0.0000 0.0000 -3.0000
v 0.0000 1.0000 -3.0000
v 0.0000 2.0000 -3.0000
v 0.0000 6.0000 -3.0000
v 0.0000 7.0000 -3.0000
v 0.0000 8.0000 -3.0000
v 0.0000 -3.0000 -4.0000
v 0.0000 -2.0000 -4.0000
v 0.0000 -1.0000 -3.0000
v 0.0000 -1.0000 -4.0000
v 0.0000 1.0000 -4.0000
v -1.0000 3.0000 -3.0000
v 0.0000 3.0000 -3.0000
v 0.0000 3.0000 -4.0000
v -1.0000 6.0000 -4.0000
v 0.0000 6.0000 -4.0000
v -1.0000 7.0000 -4.0000
v 0.0000 8.0000 -4.0000
v -1.0000 8.0000 -4.0000
v 0.0000 7.0000 -4.0000
v 0.0000 -2.0000 -5.0000
v 0.0000 -1.0000 -5.0000
v 0.0000 0.0000 -4.0000
v 0.0000 0.0000 -5.0000
v 0.0000 1.0000 -5.0000
v 0.0000 2.0000 -5.0000
v 0.0000 3.0000 -5.0000
v 0.0000 4.0000 -4.0000
v 0.0000 4.0000 -5.0000
v 0.0000 7.0000 -5.0000
v -1.0000 7.0000 -5.0000
v -1.0000 6.0000 -5.0000
v 0.0000 6.0000 -5.0000
v 0.0000 -1.0000 -6.0000
v 0.0000 1.0000 -6.0000
v 0.0000 0.0000 -6.0000
v 0.0000 3.0000 -6.0000
v 0.0000 5.0000 -5.0000
v 0.0000 6.0000 -6.0000
v -1.0000 6.0000 -6.0000
v -1.0000 8.0000 -5.0000
v 0.0000 8.0000 -5.0000
v 0.0000 8.0000 -6.0000
v -1.0000 8.0000 -6.0000
v -1.0000 7.0000 -6.0000
v 0.0000 7.0000 -6.0000
v 0.0000 -1.0000 -7.0000
v 0.0000 0.0000 -7.0000
v 0.0000 1.0000 -7.0000
v 0.0000 2.0000 -6.0000
v 0.0000 2.0000 -7.0000
v 0.0000 3.0000 -7.0000
v 0.0000 4.0000 -7.0000
v 0.0000 5.0000 -7.0000
v 0.0000 6.0000 -7.0000
v 0.0000 1.0000 -8.0000
v 0.0000 2.0000 -8.0000
v 0.0000 3.0000 -8.0000
v 0.0000 5.0000 -8.0000
v 0.0000 6.0000 -8.0000
v 0.0000 7.0000 -7.0000
v 0.0000 7.0000 -8.0000
v 1.0000 5.0000 7.0000
v 1.0000 5.0000 8.0000
v 1.0000 6.0000 8.0000
v 1.0000 7.0000 8.0000
v 1.0000 7.0000 7.0000
v 1.0000 6.0000 7.0000
v 0.0000 3.0000 7.0000
v 1.0000 3.0000 6.0000
v 1.0000 3.0000 7.0000
v 1.0000 4.0000 7.0000
v 0.0000 4.0000 7.0000
v 1.0000 6.0000 6.0000
v 1.0000 5.0000 6.0000
v 1.0000 3.0000 5.0000
v 1.0000 5.0000 5.0000
v 1.0000 4.0000 5.0000
v 0.0000 1.0000 5.0000
v 1.0000 1.0000 4.0000
v 1.0000 1.0000 5.0000
v 1.0000 2.0000 5.0000
v 1.0000 4.0000 4.0000
v 1.0000 3.0000 4.0000
v 1.0000 7.0000 5.0000
v 1.0000 7.0000 4.0000
v 1.0000 6.0000 4.0000
v 1.0000 6.0000 5.0000
v 1.0000 1.0000 3.0000
v 1.0000 3.0000 3.0000
v 0.0000 3.0000 3.0000
v 1.0000 2.0000 3.0000
v 1.0000 5.0000 3.0000
v 1.0000 5.0000 4.0000
v 1.0000 6.0000 3.0000
v 1.0000 7.0000 3.0000
v 1.0000 8.0000 4.0000
v 1.0000 8.0000 3.0000
v 1.0000 -8.0000 2.0000
v 1.0000 -8.0000 3.0000
v 1.0000 -7.0000 3.0000
v 1.0000 -6.0000 3.0000
v 1.0000 -6.0000 2.0000
v 1.0000 -7.0000 2.0000
v 1.0000 0.0000 2.0000
v 1.0000 0.0000 3.0000
v 1.0000 2.0000 2.0000
v 1.0000 4.0000 2.0000
v 1.0000 4.0000 3.0000
v 1.0000 5.0000 2.0000
v 1.0000 6.0000 2.0000
v 1.0000 -8.0000 1.0000
v 1.0000 -5.0000 2.0000
v 1.0000 -6.0000 1.0000
v 1.0000 -5.0000 1.0000
v 1.0000 -4.0000 2.0000
v 1.0000 -4.0000 1.0000
v 1.0000 -3.0000 2.0000
v 1.0000 -3.0000 1.0000
v 1.0000 -2.0000 2.0000
v 1.0000 -2.0000 1.0000
v 1.0000 -1.0000 2.0000
v 1.0000 -1.0000 1.0000
v 1.0000 3.0000 2.0000
v 1.0000 2.0000 1.0000
v 1.0000 3.0000 1.0000
v 1.0000 4.0000 1.0000
v 1.0000 7.0000 2.0000
v 1.0000 7.0000 1.0000
v 1.0000 -8.0000 -0.0000
v 1.0000 -2.0000 -0.0000
v 1.0000 -1.0000 -0.0000
v 1.0000 7.0000 -0.0000
v 1.0000 -8.0000 -1.0000
v 1.0000 8.0000 -0.0000
v 1.0000 8.0000 -1.0000
v 1.0000 7.0000 -1.0000
v 1.0000 -8.0000 -2.0000
v 1.0000 -5.0000 -2.0000
v 1.0000 -6.0000 -2.0000
v 1.0000 -6.0000 -1.0000
v 1.0000 -5.0000 -1.0000
v 1.0000 -4.0000 -2.0000
v 1.0000 -4.0000 -1.0000
v 1.0000 -3.0000 -2.0000
v 1.0000 -3.0000 -1.0000
v 1.0000 -2.0000 -2.0000
v 1.0000 -1.0000 -2.0000
v 1.0000 0.0000 -2.0000
v 1.0000 7.0000 -2.0000
v 1.0000 6.0000 -2.0000
v 1.0000 -8.0000 -3.0000
v 1.0000 -7.0000 -3.0000
v 1.0000 -6.0000 -3.0000
v 1.0000 -7.0000 -2.0000
v 1.0000 0.0000 -3.0000
v 1.0000 1.0000 -3.0000
v 1.0000 1.0000 -2.0000
v 1.0000 2.0000 -2.0000
v 1.0000 2.0000 -3.0000
v 1.0000 3.0000 -3.0000
v 1.0000 3.0000 -2.0000
v 0.0000 4.0000 -3.0000
v 1.0000 4.0000 -3.0000
v 1.0000 4.0000 -2.0000
v 0.0000 5.0000 -3.0000
v 1.0000 5.0000 -3.0000
v 1.0000 6.0000 -3.0000
v 1.0000 8.0000 -2.0000
v 1.0000 8.0000 -3.0000
v 1.0000 7.0000 -3.0000
v 1.0000 1.0000 -4.0000
v 1.0000 3.0000 -4.0000
v 1.0000 2.0000 -4.0000
v 0.0000 5.0000 -4.0000
v 1.0000 5.0000 -4.0000
v 1.0000 6.0000 -4.0000
v 1.0000 8.0000 -4.0000
v 1.0000 7.0000 -4.0000
v 1.0000 0.0000 -4.0000
v 1.0000 0.0000 -5.0000
v 1.0000 -1.0000 -5.0000
v 1.0000 -1.0000 -4.0000
v 1.0000 1.0000 -5.0000
v 1.0000 2.0000 -5.0000
v 1.0000 3.0000 -5.0000
v 1.0000 4.0000 -4.0000
v 1.0000 4.0000 -5.0000
v 1.0000 7.0000 -5.0000
v 1.0000 6.0000 -5.0000
v 1.0000 0.0000 -6.0000
v 1.0000 -1.0000 -6.0000
v 1.0000 3.0000 -6.0000
v 1.0000 5.0000 -5.0000
v 1.0000 4.0000 -6.0000
v 1.0000 5.0000 -6.0000
v 1.0000 6.0000 -6.0000
v 1.0000 8.0000 -5.0000
v 1.0000 8.0000 -6.0000
v 1.0000 7.0000 -6.0000
v 1.0000 1.0000 -6.0000
v 1.0000 1.0000 -7.0000
v 1.0000 0.0000 -7.0000
v 1.0000 3.0000 -7.0000
v 1.0000 4.0000 -7.0000
v 1.0000 5.0000 -7.0000
v 1.0000 6.0000 -7.0000
v 1.0000 8.0000 -7.0000
v 0.0000 8.0000 -7.0000
v 1.0000 7.0000 -7.0000
v 1.0000 1.0000 -8.0000
v 1.0000 2.0000 -7.0000
v 1.0000 2.0000 -8.0000
v 1.0000 3.0000 -8.0000
v 1.0000 5.0000 -8.0000
v 1.0000 6.0000 -8.0000
v 1.0000 7.0000 -8.0000
v 2.0000 5.0000 7.0000
v 2.0000 5.0000 8.0000
v 2.0000 6.0000 8.0000
v 2.0000 7.0000 8.0000
v 2.0000 7.0000 7.0000
v 2.0000 6.0000 7.0000
v 2.0000 3.0000 6.0000
v 2.0000 3.0000 7.0000
v 2.0000 4.0000 7.0000
v 2.0000 4.0000 6.0000
v 2.0000 5.0000 6.0000
v 2.0000 6.0000 6.0000
v 2.0000 3.0000 5.0000
v 2.0000 5.0000 5.0000
v 2.0000 4.0000 5.0000
v 2.0000 1.0000 4.0000
v 2.0000 1.0000 5.0000
v 2.0000 2.0000 5.0000
v 2.0000 2.0000 4.0000
v 2.0000 4.0000 4.0000
v 2.0000 3.0000 4.0000
v 2.0000 1.0000 3.0000
v 2.0000 3.0000 3.0000
v 2.0000 2.0000 3.0000
v 2.0000 7.0000 4.0000
v 2.0000 7.0000 3.0000
v 2.0000 6.0000 3.0000
v 2.0000 6.0000 4.0000
v 2.0000 -7.0000 3.0000
v 2.0000 -7.0000 2.0000
v 2.0000 -8.0000 2.0000
v 2.0000 -8.0000 3.0000
v 2.0000 0.0000 2.0000
v 2.0000 0.0000 3.0000
v 2.0000 1.0000 2.0000
v 2.0000 2.0000 2.0000
v 2.0000 -8.0000 1.0000
v 2.0000 -6.0000 2.0000
v 2.0000 -6.0000 1.0000
v 2.0000 -7.0000 1.0000
v 2.0000 -1.0000 1.0000
v 2.0000 -1.0000 2.0000
v 2.0000 0.0000 1.0000
v 2.0000 2.0000 1.0000
v 2.0000 1.0000 1.0000
v 2.0000 4.0000 1.0000
v 2.0000 4.0000 2.0000
v 2.0000 5.0000 2.0000
v 2.0000 5.0000 1.0000
v 2.0000 6.0000 2.0000
v 2.0000 6.0000 1.0000
v 2.0000 7.0000 2.0000
v 2.0000 7.0000 1.0000
v 2.0000 -8.0000 -0.0000
v 2.0000 -5.0000 1.0000
v 2.0000 -6.0000 -0.0000
v 2.0000 -5.0000 -0.0000
v 2.0000 -4.0000 1.0000
v 2.0000 -4.0000 -0.0000
v 2.0000 -3.0000 1.0000
v 2.0000 -3.0000 -0.0000
v 2.0000 -2.0000 1.0000
v 2.0000 -2.0000 -0.0000
v 2.0000 -1.0000 -0.0000
v 2.0000 0.0000 -0.0000
v 2.0000 1.0000 -0.0000
v 2.0000 2.0000 -0.0000
v 2.0000 3.0000 1.0000
v 2.0000 4.0000 -0.0000
v 2.0000 5.0000 -0.0000
v 2.0000 6.0000 -0.0000
v 2.0000 7.0000 -0.0000
v 2.0000 -8.0000 -1.0000
v 2.0000 -5.0000 -1.0000
v 2.0000 -6.0000 -1.0000
v 2.0000 -4.0000 -1.0000
v 2.0000 -3.0000 -1.0000
v 2.0000 -2.0000 -1.0000
v 2.0000 -1.0000 -1.0000
v 2.0000 0.0000 -1.0000
v 2.0000 1.0000 -1.0000
v 2.0000 2.0000 -1.0000
v 2.0000 4.0000 -1.0000
v 2.0000 5.0000 -1.0000
v 2.0000 8.0000 -0.0000
v 2.0000 8.0000 -1.0000
v 2.0000 -8.0000 -2.0000
v 2.0000 -6.0000 -2.0000
v 2.0000 -7.0000 -2.0000
v 2.0000 -7.0000 -1.0000
v 2.0000 -3.0000 -2.0000
v 2.0000 -2.0000 -2.0000
v 2.0000 -1.0000 -2.0000
v 2.0000 1.0000 -2.0000
v 2.0000 0.0000 -2.0000
v 2.0000 2.0000 -2.0000
v 2.0000 3.0000 -2.0000
v 2.0000 4.0000 -2.0000
v 2.0000 5.0000 -2.0000
v 2.0000 8.0000 -2.0000
v 2.0000 7.0000 -2.0000
v 2.0000 7.0000 -1.0000
v 2.0000 -7.0000 -3.0000
v 2.0000 -8.0000 -3.0000
v 2.0000 0.0000 -3.0000
v 1.0000 -1.0000 -3.0000
v 2.0000 -1.0000 -3.0000
v 2.0000 2.0000 -3.0000
v 2.0000 1.0000 -3.0000
v 2.0000 4.0000 -3.0000
v 2.0000 5.0000 -3.0000
v 2.0000 7.0000 -3.0000
v 2.0000 2.0000 -4.0000
v 2.0000 1.0000 -4.0000
v 2.0000 5.0000 -4.0000
v 2.0000 6.0000 -4.0000
v 2.0000 6.0000 -3.0000
v 2.0000 7.0000 -4.0000
v 2.0000 4.0000 -4.0000
v 2.0000 4.0000 -5.0000
v 2.0000 3.0000 -5.0000
v 2.0000 3.0000 -4.0000
v 2.0000 7.0000 -5.0000
v 2.0000 6.0000 -5.0000
v 2.0000 4.0000 -6.0000
v 2.0000 3.0000 -6.0000
v 2.0000 1.0000 -6.0000
v 2.0000 1.0000 -7.0000
v 2.0000 0.0000 -7.0000
v 2.0000 0.0000 -6.0000
v 2.0000 8.0000 -6.0000
v 2.0000 8.0000 -7.0000
v 2.0000 7.0000 -7.0000
v 2.0000 7.0000 -6.0000
v 2.0000 5.0000 -8.0000
v 2.0000 5.0000 -7.0000
v 2.0000 6.0000 -7.0000
v 2.0000 6.0000 -8.0000
v 2.0000 7.0000 -8.0000
v 3.0000 5.0000 7.0000
v 3.0000 5.0000 8.0000
v 3.0000 6.0000 8.0000
v 3.0000 6.0000 7.0000
v 3.0000 7.0000 8.0000
v 3.0000 7.0000 7.0000
v 3.0000 6.0000 6.0000
v 3.0000 5.0000 6.0000
v 3.0000 3.0000 5.0000
v 3.0000 3.0000 6.0000
v 3.0000 4.0000 6.0000
v 3.0000 4.0000 5.0000
v 3.0000 5.0000 5.0000
v 3.0000 2.0000 4.0000
v 3.0000 2.0000 5.0000
v 3.0000 3.0000 4.0000
v 3.0000 4.0000 4.0000
v 3.0000 1.0000 3.0000
v 3.0000 1.0000 4.0000
v 3.0000 2.0000 3.0000
v 3.0000 3.0000 3.0000
v 3.0000 7.0000 4.0000
v 3.0000 7.0000 3.0000
v 3.0000 6.0000 3.0000
v 3.0000 6.0000 4.0000
v 3.0000 2.0000 2.0000
v 3.0000 1.0000 2.0000
v 3.0000 7.0000 2.0000
v 3.0000 6.0000 2.0000
v 3.0000 -7.0000 2.0000
v 3.0000 -7.0000 1.0000
v 3.0000 -8.0000 1.0000
v 3.0000 -8.0000 2.0000
v 3.0000 1.0000 1.0000
v 3.0000 0.0000 1.0000
v 3.0000 0.0000 2.0000
v 3.0000 7.0000 1.0000
v 3.0000 6.0000 1.0000
v 3.0000 -8.0000 -0.0000
v 3.0000 -7.0000 -0.0000
v 3.0000 -6.0000 1.0000
v 3.0000 -6.0000 -0.0000
v 3.0000 0.0000 -0.0000
v 3.0000 -1.0000 -0.0000
v 3.0000 -1.0000 1.0000
v 3.0000 2.0000 -0.0000
v 3.0000 2.0000 1.0000
v 3.0000 3.0000 1.0000
v 3.0000 3.0000 -0.0000
v 3.0000 4.0000 1.0000
v 3.0000 4.0000 -0.0000
v 3.0000 6.0000 -0.0000
v 3.0000 7.0000 -0.0000
v 2.0000 8.0000 1.0000
v 3.0000 8.0000 1.0000
v 3.0000 8.0000 -0.0000
v 3.0000 -8.0000 -1.0000
v 3.0000 -7.0000 -1.0000
v 3.0000 -6.0000 -1.0000
v 3.0000 -1.0000 -1.0000
v 3.0000 -2.0000 -1.0000
v 3.0000 -2.0000 -0.0000
v 3.0000 2.0000 -1.0000
v 3.0000 3.0000 -1.0000
v 3.0000 4.0000 -1.0000
v 3.0000 5.0000 -1.0000
v 3.0000 5.0000 -0.0000
v 3.0000 6.0000 -1.0000
v 3.0000 7.0000 -1.0000
v 3.0000 8.0000 -1.0000
v 3.0000 -7.0000 -2.0000
v 3.0000 -8.0000 -2.0000
v 3.0000 -2.0000 -2.0000
v 3.0000 -1.0000 -2.0000
v 3.0000 0.0000 -1.0000
v 3.0000 0.0000 -2.0000
v 3.0000 1.0000 -1.0000
v 3.0000 1.0000 -2.0000
v 3.0000 2.0000 -2.0000
v 3.0000 3.0000 -2.0000
v 3.0000 4.0000 -2.0000
v 3.0000 5.0000 -2.0000
v 3.0000 6.0000 -2.0000
v 3.0000 7.0000 -2.0000
v 3.0000 1.0000 -3.0000
v 3.0000 0.0000 -3.0000
v 3.0000 5.0000 -3.0000
v 3.0000 6.0000 -3.0000
v 3.0000 7.0000 -3.0000
v 2.0000 -1.0000 -4.0000
v 3.0000 -1.0000 -4.0000
v 3.0000 -1.0000 -3.0000
v 3.0000 0.0000 -4.0000
v 2.0000 0.0000 -4.0000
v 3.0000 1.0000 -4.0000
v 2.0000 -1.0000 -5.0000
v 3.0000 -1.0000 -5.0000
v 2.0000 0.0000 -5.0000
v 3.0000 0.0000 -5.0000
v 3.0000 1.0000 -5.0000
v 2.0000 1.0000 -5.0000
v 4.0000 5.0000 6.0000
v 4.0000 5.0000 5.0000
v 4.0000 4.0000 5.0000
v 4.0000 4.0000 6.0000
v 4.0000 3.0000 4.0000
v 4.0000 3.0000 5.0000
v 4.0000 4.0000 4.0000
v 4.0000 5.0000 4.0000
v 3.0000 5.0000 4.0000
v 4.0000 3.0000 3.0000
v 4.0000 2.0000 3.0000
v 4.0000 2.0000 4.0000
v 4.0000 5.0000 3.0000
v 3.0000 5.0000 3.0000
v 3.0000 4.0000 3.0000
v 4.0000 4.0000 3.0000
v 4.0000 7.0000 4.0000
v 4.0000 7.0000 3.0000
v 4.0000 6.0000 3.0000
v 4.0000 6.0000 4.0000
v 4.0000 5.0000 2.0000
v 3.0000 5.0000 2.0000
v 3.0000 4.0000 2.0000
v 4.0000 4.0000 2.0000
v 4.0000 5.0000 1.0000
v 3.0000 5.0000 1.0000
v 4.0000 4.0000 1.0000
v 4.0000 0.0000 1.0000
v 4.0000 0.0000 -0.0000
v 4.0000 -1.0000 -0.0000
v 4.0000 -1.0000 1.0000
v 4.0000 3.0000 -0.0000
v 4.0000 3.0000 1.0000
v 4.0000 4.0000 -0.0000
v 4.0000 5.0000 -0.0000
v 4.0000 0.0000 -1.0000
v 4.0000 -1.0000 -1.0000
v 4.0000 3.0000 -1.0000
v 4.0000 5.0000 -1.0000
v 4.0000 4.0000 -1.0000
v 4.0000 -1.0000 -2.0000
v 4.0000 0.0000 -2.0000
v 4.0000 1.0000 -1.0000
v 4.0000 1.0000 -2.0000
v 4.0000 4.0000 -2.0000
v 4.0000 3.0000 -2.0000
v 4.0000 1.0000 -3.0000
v 4.0000 1.0000 -4.0000
v 4.0000 0.0000 -4.0000
v 4.0000 0.0000 -3.0000
v 4.0000 0.0000 -5.0000
v 4.0000 1.0000 -5.0000
v 3.0000 2.0000 -4.0000
v 4.0000 2.0000 -4.0000
v 4.0000 2.0000 -5.0000
v 3.0000 2.0000 -5.0000
v 3.0000 6.0000 -5.0000
v 4.0000 6.0000 -5.0000
v 4.0000 6.0000 -6.0000
v 3.0000 6.0000 -6.0000
v 3.0000 5.0000 -5.0000
v 3.0000 5.0000 -6.0000
v 4.0000 5.0000 -6.0000
v 4.0000 5.0000 -5.0000
v 3.0000 1.0000 -6.0000
v 3.0000 1.0000 -7.0000
v 4.0000 1.0000 -7.0000
v 4.0000 1.0000 -6.0000
v 4.0000 2.0000 -6.0000
v 3.0000 2.0000 -6.0000
v 3.0000 2.0000 -7.0000
v 3.0000 3.0000 -6.0000
v 4.0000 3.0000 -6.0000
v 4.0000 3.0000 -7.0000
v 3.0000 3.0000 -7.0000
v 3.0000 1.0000 -8.0000
v 4.0000 1.0000 -8.0000
v 3.0000 2.0000 -8.0000
v 4.0000 2.0000 -8.0000
v 4.0000 3.0000 -8.0000
v 3.0000 3.0000 -8.0000
v 4.0000 2.0000 -7.0000
v 5.0000 3.0000 4.0000
v 5.0000 3.0000 3.0000
v 5.0000 2.0000 3.0000
v 5.0000 2.0000 4.0000
v 5.0000 7.0000 4.0000
v 5.0000 7.0000 3.0000
v 5.0000 6.0000 3.0000
v 5.0000 6.0000 4.0000
v 4.0000 2.0000 1.0000
v 5.0000 2.0000 1.0000
v 5.0000 2.0000 -0.0000
v 4.0000 2.0000 -0.0000
v 4.0000 1.0000 1.0000
v 4.0000 1.0000 -0.0000
v 5.0000 1.0000 -0.0000
v 5.0000 1.0000 1.0000
v 5.0000 4.0000 -0.0000
v 5.0000 4.0000 1.0000
v 5.0000 5.0000 1.0000
v 5.0000 5.0000 -0.0000
v 4.0000 6.0000 1.0000
v 5.0000 6.0000 1.0000
v 5.0000 6.0000 -0.0000
v 4.0000 6.0000 -0.0000
v 5.0000 0.0000 -1.0000
v 5.0000 0.0000 -0.0000
v 5.0000 2.0000 -1.0000
v 4.0000 2.0000 -1.0000
v 5.0000 3.0000 -1.0000
v 5.0000 3.0000 -0.0000
v 5.0000 4.0000 -1.0000
v 5.0000 5.0000 -1.0000
v 5.0000 6.0000 -1.0000
v 4.0000 6.0000 -1.0000
v 5.0000 -1.0000 -2.0000
v 5.0000 -1.0000 -1.0000
v 5.0000 0.0000 -2.0000
v 5.0000 1.0000 -2.0000
v 5.0000 1.0000 -1.0000
v 5.0000 2.0000 -2.0000
v 4.0000 2.0000 -2.0000
v 5.0000 6.0000 -2.0000
v 4.0000 6.0000 -2.0000
v 4.0000 5.0000 -2.0000
v 5.0000 5.0000 -2.0000
v 5.0000 2.0000 -3.0000
v 4.0000 2.0000 -3.0000
v 5.0000 1.0000 -3.0000
v 5.0000 6.0000 -3.0000
v 4.0000 6.0000 -3.0000
v 4.0000 5.0000 -3.0000
v 5.0000 5.0000 -3.0000
v 5.0000 6.0000 -4.0000
v 4.0000 6.0000 -4.0000
v 4.0000 5.0000 -4.0000
v 5.0000 5.0000 -4.0000
v 5.0000 2.0000 -4.0000
v 5.0000 2.0000 -5.0000
v 5.0000 1.0000 -5.0000
v 5.0000 1.0000 -4.0000
v 5.0000 2.0000 -6.0000
v 5.0000 1.0000 -6.0000
v 5.0000 1.0000 -7.0000
v 5.0000 2.0000 -7.0000
v 5.0000 3.0000 -6.0000
v 5.0000 3.0000 -7.0000
v 5.0000 4.0000 -6.0000
v 4.0000 4.0000 -6.0000
v 4.0000 4.0000 -7.0000
v 5.0000 5.0000 -6.0000
v 5.0000 5.0000 -7.0000
v 4.0000 5.0000 -7.0000
v 5.0000 4.0000 -7.0000
v 5.0000 2.0000 -8.0000
v 5.0000 1.0000 -8.0000
v 5.0000 4.0000 -8.0000
v 4.0000 4.0000 -8.0000
v 5.0000 3.0000 -8.0000
v 6.0000 3.0000 3.0000
v 6.0000 3.0000 4.0000
v 6.0000 4.0000 4.0000
v 5.0000 4.0000 4.0000
v 5.0000 4.0000 3.0000
v 6.0000 4.0000 3.0000
v 6.0000 5.0000 4.0000
v 5.0000 5.0000 4.0000
v 5.0000 5.0000 3.0000
v 6.0000 5.0000 3.0000
v 6.0000 6.0000 4.0000
v 6.0000 6.0000 3.0000
v 6.0000 2.0000 1.0000
v 6.0000 2.0000 -0.0000
v 6.0000 1.0000 -0.0000
v 6.0000 1.0000 1.0000
v 6.0000 5.0000 -0.0000
v 6.0000 5.0000 1.0000
v 6.0000 6.0000 1.0000
v 6.0000 6.0000 -0.0000
v 6.0000 7.0000 1.0000
v 5.0000 7.0000 1.0000
v 5.0000 7.0000 -0.0000
v 5.0000 8.0000 1.0000
v 6.0000 8.0000 1.0000
v 6.0000 8.0000 -0.0000
v 5.0000 8.0000 -0.0000
v 6.0000 7.0000 -0.0000
v 6.0000 0.0000 -1.0000
v 6.0000 0.0000 -0.0000
v 6.0000 1.0000 -1.0000
v 6.0000 3.0000 -0.0000
v 6.0000 3.0000 -1.0000
v 6.0000 5.0000 -1.0000
v 6.0000 6.0000 -1.0000
v 6.0000 7.0000 -1.0000
v 5.0000 7.0000 -1.0000
v 6.0000 1.0000 -2.0000
v 6.0000 3.0000 -2.0000
v 5.0000 3.0000 -2.0000
v 6.0000 2.0000 -2.0000
v 6.0000 2.0000 -3.0000
v 6.0000 1.0000 -3.0000
v 6.0000 2.0000 -4.0000
v 6.0000 2.0000 -5.0000
v 6.0000 1.0000 -5.0000
v 6.0000 1.0000 -4.0000
v 6.0000 2.0000 -6.0000
v 6.0000 1.0000 -6.0000
v 6.0000 4.0000 -6.0000
v 6.0000 4.0000 -7.0000
v 6.0000 3.0000 -7.0000
v 6.0000 3.0000 -6.0000
v 6.0000 4.0000 -8.0000
v 6.0000 3.0000 -8.0000
v 7.0000 3.0000 3.0000
v 7.0000 3.0000 2.0000
v 6.0000 3.0000 2.0000
v 6.0000 2.0000 3.0000
v 6.0000 2.0000 2.0000
v 7.0000 2.0000 2.0000
v 7.0000 2.0000 3.0000
v 7.0000 3.0000 1.0000
v 6.0000 3.0000 1.0000
v 7.0000 2.0000 1.0000
v 7.0000 3.0000 -0.0000
v 7.0000 2.0000 -0.0000
v 7.0000 6.0000 -0.0000
v 7.0000 6.0000 1.0000
v 7.0000 7.0000 1.0000
v 7.0000 7.0000 -0.0000
v 7.0000 8.0000 1.0000
v 7.0000 8.0000 -0.0000
v 7.0000 1.0000 -1.0000
v 7.0000 1.0000 -0.0000
v 7.0000 2.0000 -1.0000
v 7.0000 3.0000 -1.0000
v 6.0000 4.0000 -0.0000
v 7.0000 4.0000 -0.0000
v 7.0000 4.0000 -1.0000
v 6.0000 4.0000 -1.0000
v 7.0000 6.0000 -1.0000
v 7.0000 7.0000 -1.0000
v 7.0000 8.0000 -1.0000
v 6.0000 8.0000 -1.0000
v 7.0000 1.0000 -2.0000
v 7.0000 2.0000 -2.0000
v 7.0000 3.0000 -2.0000
v 7.0000 4.0000 -2.0000
v 6.0000 4.0000 -2.0000
v 7.0000 6.0000 2.0000
v 8.0000 6.0000 1.0000
v 8.0000 6.0000 2.0000
v 8.0000 7.0000 2.0000
v 7.0000 7.0000 2.0000
v 8.0000 7.0000 1.0000
v 7.0000 8.0000 2.0000
v 8.0000 8.0000 2.0000
v 8.0000 8.0000 1.0000
v 8.0000 3.0000 -0.0000
v 8.0000 3.0000 1.0000
v 8.0000 4.0000 1.0000
v 7.0000 4.0000 1.0000
v 8.0000 4.0000 -0.0000
v 7.0000 5.0000 1.0000
v 8.0000 5.0000 1.0000
v 8.0000 5.0000 -0.0000
v 7.0000 5.0000 -0.0000
v 8.0000 8.0000 -0.0000
v 8.0000 7.0000 -0.0000
v 8.0000 3.0000 -1.0000
v 8.0000 4.0000 -1.0000
v 8.0000 5.0000 -1.0000
v 7.0000 5.0000 -1.0000
v 8.0000 8.0000 -1.0000
v 8.0000 7.0000 -1.0000
v 8.0000 3.0000 -2.0000
v 8.0000 4.0000 -2.0000
v 8.0000 5.0000 -2.0000
v 7.0000 5.0000 -2.0000
v 7.0000 6.0000 -2.0000
v 8.0000 6.0000 -2.0000
v 8.0000 6.0000 -1.0000
v 7.0000 7.0000 -2.0000
v 8.0000 7.0000 -2.0000
v 8.0000 8.0000 -2.0000
v 7.0000 8.0000 -2.0000
v 7.0000 3.0000 -3.0000
v 8.0000 3.0000 -3.0000
v 7.0000 4.0000 -3.0000
v 8.0000 4.0000 -3.0000
v 8.0000 5.0000 -3.0000
v 7.0000 5.0000 -3.0000
vt 0.001953 0.500000
vt 0.005859 0.500000
vt 0.009766 0.500000
vt 0.013672 0.500000
vt 0.017578 0.500000
vt 0.021484 0.500000
vt 0.025391 0.500000
vt 0.029297 0.500000
vt 0.033203 0.500000
vt 0.037109 0.500000
vt 0.041016 0.500000
vt 0.044922 0.500000
vn 0.0 -1.0 0.0
vn 0.0 1.0 0.0
vn 0.0 0.0 1.0
vn 0.0 0.0 -1.0
vn -1.0 0.0 0.0
vn 1.0 0.0 0.0
usemtl mat_Sietecueros_Sergio_Danilo_Palacios_Castillo_fase_3
s off
f 1/1/1 2/1/1 3/1/1 4/1/1
f 1/1/3 4/1/3 5/1/3 6/1/3
f 4/1/6 3/1/6 7/1/6 5/1/6
f 1/1/5 6/1/5 8/1/5 2/1/5
f 9/1/2 10/1/2 11/1/2 12/1/2
f 6/1/3 5/1/3 10/1/3 9/1/3
f 5/1/6 7/1/6 11/1/6 10/1/6
f 6/1/5 9/1/5 12/1/5 8/1/5
f 2/2/1 13/2/1 14/2/1 3/2/1
f 2/2/5 8/2/5 15/2/5 13/2/5
f 12/1/2 11/1/2 16/1/2 17/1/2
f 7/1/6 18/1/6 16/1/6 11/1/6
f 8/1/5 12/1/5 17/1/5 15/1/5
f 13/2/1 19/2/1 20/2/1 14/2/1
f 13/2/5 15/2/5 21/2/5 19/2/5
f 17/1/2 16/1/2 22/1/2 23/1/2
f 18/1/6 24/1/6 22/1/6 16/1/6
f 15/1/5 17/1/5 23/1/5 21/1/5
f 19/1/1 25/1/1 26/1/1 20/1/1
f 25/1/4 27/1/4 28/1/4 26/1/4
f 20/1/6 26/1/6 28/1/6 24/1/6
f 19/1/5 21/1/5 27/1/5 25/1/5
f 23/1/2 22/1/2 29/1/2 30/1/2
f 24/1/6 28/1/6 29/1/6 22/1/6
f 21/1/5 23/1/5 30/1/5 27/1/5
f 30/1/2 29/1/2 31/1/2 32/1/2
f 27/1/1 33/1/1 34/1/1 28/1/1
f 28/1/6 34/1/6 31/1/6 29/1/6
f 27/1/5 30/1/5 32/1/5 33/1/5
f 32/1/2 31/1/2 35/1/2 36/1/2
f 33/1/1 37/1/1 38/1/1 34/1/1
f 34/1/6 38/1/6 35/1/6 31/1/6
f 33/1/5 32/1/5 36/1/5 37/1/5
f 36/1/2 35/1/2 39/1/2 40/1/2
f 37/1/1 41/1/1 42/1/1 38/1/1
f 38/1/6 42/1/6 39/1/6 35/1/6
f 37/1/5 36/1/5 40/1/5 41/1/5
f 40/1/2 39/1/2 43/1/2 44/1/2
f 41/1/1 45/1/1 46/1/1 42/1/1
f 42/1/6 46/1/6 43/1/6 39/1/6
f 41/1/5 40/1/5 44/1/5 45/1/5
f 44/1/2 43/1/2 47/1/2 48/1/2
f 45/1/1 49/1/1 50/1/1 46/1/1
f 49/1/4 48/1/4 47/1/4 50/1/4
f 46/1/6 50/1/6 47/1/6 43/1/6
f 45/1/5 44/1/5 48/1/5 49/1/5
f 51/1/2 52/1/2 53/1/2 54/1/2
f 55/1/1 56/1/1 57/1/1 58/1/1
f 55/1/3 58/1/3 52/1/3 51/1/3
f 58/1/6 57/1/6 53/1/6 52/1/6
f 55/1/5 51/1/5 54/1/5 56/1/5
f 54/1/2 53/1/2 59/1/2 60/1/2
f 56/1/1 61/1/1 62/1/1 57/1/1
f 57/1/6 62/1/6 59/1/6 53/1/6
f 56/1/5 54/1/5 60/1/5 61/1/5
f 60/1/2 59/1/2 63/1/2 64/1/2
f 61/1/1 65/1/1 66/1/1 62/1/1
f 62/1/6 66/1/6 63/1/6 59/1/6
f 61/1/5 60/1/5 64/1/5 65/1/5
f 64/1/2 63/1/2 67/1/2 68/1/2
f 65/1/1 69/1/1 70/1/1 66/1/1
f 66/1/6 70/1/6 67/1/6 63/1/6
f 65/1/5 64/1/5 68/1/5 69/1/5
f 71/3/1 72/3/1 73/3/1 74/3/1
f 71/3/3 74/3/3 75/3/3 76/3/3
f 71/3/5 76/3/5 77/3/5 72/3/5
f 76/2/3 75/2/3 78/2/3 3/2/3
f 76/2/5 3/2/5 14/2/5 77/2/5
f 7/2/2 79/2/2 80/2/2 18/2/2
f 3/2/3 78/2/3 79/2/3 7/2/3
f 78/2/6 81/2/6 80/2/6 79/2/6
f 68/1/2 67/1/2 82/1/2 83/1/2
f 69/1/1 84/1/1 85/1/1 70/1/1
f 70/1/6 85/1/6 82/1/6 67/1/6
f 69/1/5 68/1/5 83/1/5 84/1/5
f 72/3/1 86/3/1 87/3/1 73/3/1
f 86/3/4 88/3/4 89/3/4 87/3/4
f 72/3/5 77/3/5 88/3/5 86/3/5
f 88/2/4 20/2/4 90/2/4 89/2/4
f 77/2/5 14/2/5 20/2/5 88/2/5
f 18/2/2 80/2/2 91/2/2 24/2/2
f 20/2/4 24/2/4 91/2/4 90/2/4
f 81/2/6 90/2/6 91/2/6 80/2/6
f 83/1/2 82/1/2 92/1/2 93/1/2
f 84/1/1 94/1/1 95/1/1 85/1/1
f 84/1/5 83/1/5 93/1/5 94/1/5
f 93/1/2 92/1/2 96/1/2 97/1/2
f 94/1/1 98/1/1 99/1/1 95/1/1
f 94/1/5 93/1/5 97/1/5 98/1/5
f 97/1/2 96/1/2 100/1/2 101/1/2
f 98/1/1 102/1/1 103/1/1 99/1/1
f 102/1/4 101/1/4 100/1/4 103/1/4
f 99/1/6 103/1/6 100/1/6 96/1/6
f 98/1/5 97/1/5 101/1/5 102/1/5
f 47/1/2 104/1/2 105/1/2 106/1/2
f 50/1/1 107/1/1 108/1/1 109/1/1
f 50/1/3 109/1/3 104/1/3 47/1/3
f 107/1/4 106/1/4 105/1/4 108/1/4
f 50/1/5 47/1/5 106/1/5 107/1/5
f 110/1/1 111/1/1 112/1/1 113/1/1
f 110/1/3 113/1/3 114/1/3 115/1/3
f 111/1/4 116/1/4 117/1/4 112/1/4
f 113/1/6 112/1/6 117/1/6 114/1/6
f 110/1/5 115/1/5 116/1/5 111/1/5
f 118/1/2 119/1/2 120/1/2 121/1/2
f 115/1/3 114/1/3 119/1/3 118/1/3
f 116/1/4 121/1/4 120/1/4 117/1/4
f 115/1/5 118/1/5 121/1/5 116/1/5
f 111/1/2 112/1/2 122/1/2 123/1/2
f 124/1/1 125/1/1 126/1/1 127/1/1
f 124/1/3 127/1/3 112/1/3 111/1/3
f 127/1/6 126/1/6 122/1/6 112/1/6
f 124/1/5 111/1/5 123/1/5 125/1/5
f 128/1/1 129/1/1 130/1/1 131/1/1
f 128/1/3 131/1/3 126/1/3 125/1/3
f 129/1/4 132/1/4 133/1/4 130/1/4
f 131/1/6 130/1/6 133/1/6 126/1/6
f 128/1/5 125/1/5 132/1/5 129/1/5
f 123/1/2 122/1/2 134/1/2 135/1/2
f 132/1/4 135/1/4 134/1/4 133/1/4
f 126/1/6 133/1/6 134/1/6 122/1/6
f 125/1/5 123/1/5 135/1/5 132/1/5
f 129/3/2 130/3/2 136/3/2 137/3/2
f 138/3/1 139/3/1 140/3/1 141/3/1
f 138/3/3 141/3/3 130/3/3 129/3/3
f 141/3/6 140/3/6 136/3/6 130/3/6
f 138/3/5 129/3/5 137/3/5 139/3/5
f 137/3/2 136/3/2 142/3/2 143/3/2
f 139/3/1 144/3/1 145/3/1 140/3/1
f 144/3/4 143/3/4 142/3/4 145/3/4
f 140/3/6 145/3/6 142/3/6 136/3/6
f 139/3/5 137/3/5 143/3/5 144/3/5
f 146/1/2 147/1/2 148/1/2 75/1/2
f 149/1/1 74/1/1 150/1/1 151/1/1
f 149/1/3 151/1/3 147/1/3 146/1/3
f 149/1/5 146/1/5 75/1/5 74/1/5
f 74/4/1 73/4/1 152/4/1 150/4/1
f 78/2/2 153/2/2 154/2/2 81/2/2
f 75/2/3 148/2/3 153/2/3 78/2/3
f 148/2/6 155/2/6 154/2/6 153/2/6
f 73/4/1 87/4/1 156/4/1 152/4/1
f 81/2/2 154/2/2 157/2/2 90/2/2
f 89/2/4 90/2/4 157/2/4 158/2/4
f 155/2/6 158/2/6 157/2/6 154/2/6
f 159/2/1 160/2/1 161/2/1 162/2/1
f 159/2/3 162/2/3 163/2/3 85/2/3
f 159/2/5 85/2/5 95/2/5 160/2/5
f 82/5/2 164/5/2 165/5/2 92/5/2
f 85/5/3 163/5/3 164/5/3 82/5/3
f 163/5/6 166/5/6 165/5/6 164/5/6
f 89/3/2 158/3/2 167/3/2 168/3/2
f 87/3/1 169/3/1 170/3/1 156/3/1
f 169/3/4 168/3/4 167/3/4 170/3/4
f 87/3/5 89/3/5 168/3/5 169/3/5
f 160/2/1 171/2/1 172/2/1 161/2/1
f 171/2/4 99/2/4 173/2/4 172/2/4
f 160/2/5 95/2/5 99/2/5 171/2/5
f 92/5/2 165/5/2 174/5/2 96/5/2
f 99/5/4 96/5/4 174/5/4 173/5/4
f 166/5/6 173/5/6 174/5/6 165/5/6
f 175/3/2 176/3/2 177/3/2 178/3/2
f 179/3/1 180/3/1 181/3/1 182/3/1
f 179/3/3 182/3/3 176/3/3 175/3/3
f 179/3/5 175/3/5 178/3/5 180/3/5
f 183/6/1 184/6/1 185/6/1 186/6/1
f 183/6/3 186/6/3 181/6/3 180/6/3
f 184/6/4 187/6/4 188/6/4 185/6/4
f 183/6/5 180/6/5 187/6/5 184/6/5
f 178/3/2 177/3/2 189/3/2 190/3/2
f 180/3/5 178/3/5 190/3/5 187/3/5
f 191/1/2 192/1/2 193/1/2 194/1/2
f 195/1/1 196/1/1 197/1/1 198/1/1
f 195/1/3 198/1/3 192/1/3 191/1/3
f 195/1/5 191/1/5 194/1/5 196/1/5
f 190/3/2 189/3/2 199/3/2 200/3/2
f 187/3/1 201/3/1 202/3/1 188/3/1
f 201/3/4 200/3/4 199/3/4 202/3/4
f 187/3/5 190/3/5 200/3/5 201/3/5
f 194/1/2 193/1/2 203/1/2 204/1/2
f 196/1/1 205/1/1 206/1/1 197/1/1
f 205/1/4 204/1/4 203/1/4 206/1/4
f 196/1/5 194/1/5 204/1/5 205/1/5
f 104/1/2 207/1/2 208/1/2 105/1/2
f 109/1/1 108/1/1 209/1/1 210/1/1
f 109/1/3 210/1/3 207/1/3 104/1/3
f 108/1/4 105/1/4 208/1/4 209/1/4
f 119/1/2 211/1/2 212/1/2 120/1/2
f 114/1/1 117/1/1 213/1/1 214/1/1
f 114/1/3 214/1/3 211/1/3 119/1/3
f 117/1/4 120/1/4 212/1/4 213/1/4
f 136/6/1 142/6/1 215/6/1 216/6/1
f 136/6/3 216/6/3 217/6/3 151/6/3
f 216/6/6 215/6/6 218/6/6 217/6/6
f 136/6/5 151/6/5 150/6/5 142/6/5
f 147/1/2 219/1/2 220/1/2 148/1/2
f 151/1/3 217/1/3 219/1/3 147/1/3
f 217/1/6 218/1/6 220/1/6 219/1/6
f 221/1/1 153/1/1 222/1/1 223/1/1
f 221/1/3 223/1/3 224/1/3 225/1/3
f 153/1/4 226/1/4 227/1/4 222/1/4
f 221/1/5 225/1/5 226/1/5 153/1/5
f 225/1/3 224/1/3 228/1/3 229/1/3
f 226/1/4 230/1/4 231/1/4 227/1/4
f 225/1/5 229/1/5 230/1/5 226/1/5
f 232/1/2 233/1/2 234/1/2 235/1/2
f 229/1/3 228/1/3 233/1/3 232/1/3
f 229/1/5 232/1/5 235/1/5 230/1/5
f 145/3/1 236/3/1 237/3/1 238/3/1
f 145/3/3 238/3/3 215/3/3 142/3/3
f 145/3/5 142/3/5 239/3/5 236/3/5
f 142/2/5 150/2/5 152/2/5 239/2/5
f 148/2/2 220/2/2 240/2/2 155/2/2
f 218/2/6 241/2/6 240/2/6 220/2/6
f 235/1/2 234/1/2 242/1/2 163/1/2
f 230/1/1 162/1/1 243/1/1 231/1/1
f 231/1/6 243/1/6 242/1/6 234/1/6
f 230/1/5 235/1/5 163/1/5 162/1/5
f 236/3/1 244/3/1 245/3/1 237/3/1
f 244/3/4 246/3/4 247/3/4 245/3/4
f 236/3/5 239/3/5 246/3/5 244/3/5
f 246/2/4 156/2/4 248/2/4 247/2/4
f 239/2/5 152/2/5 156/2/5 246/2/5
f 155/2/2 240/2/2 249/2/2 158/2/2
f 241/2/6 248/2/6 249/2/6 240/2/6
f 250/2/1 251/2/1 252/2/1 253/2/1
f 250/2/3 253/2/3 243/2/3 162/2/3
f 250/2/5 162/2/5 161/2/5 251/2/5
f 163/2/2 242/2/2 254/2/2 166/2/2
f 158/3/2 249/3/2 255/3/2 167/3/2
f 156/3/1 170/3/1 256/3/1 248/3/1
f 170/3/4 167/3/4 255/3/4 256/3/4
f 248/3/6 256/3/6 255/3/6 249/3/6
f 251/2/1 257/2/1 258/2/1 252/2/1
f 257/2/4 172/2/4 259/2/4 258/2/4
f 251/2/5 161/2/5 172/2/5 257/2/5
f 166/2/2 254/2/2 260/2/2 173/2/2
f 172/2/4 173/2/4 260/2/4 259/2/4
f 257/1/2 258/1/2 261/1/2 176/1/2
f 262/1/1 182/1/1 263/1/1 264/1/1
f 262/1/3 264/1/3 258/1/3 257/1/3
f 262/1/5 257/1/5 176/1/5 182/1/5
f 174/1/2 265/1/2 266/1/2 267/1/2
f 173/1/1 268/1/1 269/1/1 260/1/1
f 173/1/3 260/1/3 265/1/3 174/1/3
f 260/1/6 269/1/6 266/1/6 265/1/6
f 173/1/5 174/1/5 267/1/5 268/1/5
f 176/1/2 261/1/2 270/1/2 177/1/2
f 182/1/1 181/1/1 271/1/1 263/1/1
f 267/1/2 266/1/2 272/1/2 192/1/2
f 268/1/1 198/1/1 273/1/1 269/1/1
f 269/1/6 273/1/6 272/1/6 266/1/6
f 268/1/5 267/1/5 192/1/5 198/1/5
f 274/2/1 275/2/1 276/2/1 277/2/1
f 274/2/3 277/2/3 278/2/3 186/2/3
f 275/2/4 185/2/4 279/2/4 276/2/4
f 274/2/5 186/2/5 185/2/5 275/2/5
f 186/2/3 278/2/3 271/2/3 181/2/3
f 185/2/4 188/2/4 280/2/4 279/2/4
f 278/2/6 279/2/6 280/2/6 271/2/6
f 177/2/3 270/2/3 281/2/3 282/2/3
f 189/2/4 283/2/4 284/2/4 285/2/4
f 177/2/5 282/2/5 283/2/5 189/2/5
f 282/2/3 281/2/3 273/2/3 198/2/3
f 283/2/4 197/2/4 286/2/4 284/2/4
f 281/2/6 284/2/6 286/2/6 273/2/6
f 282/2/5 198/2/5 197/2/5 283/2/5
f 192/1/2 272/1/2 287/1/2 193/1/2
f 189/3/2 285/3/2 288/3/2 199/3/2
f 188/3/1 202/3/1 289/3/1 280/3/1
f 202/3/4 199/3/4 288/3/4 289/3/4
f 193/1/2 287/1/2 290/1/2 203/1/2
f 197/1/1 206/1/1 291/1/1 286/1/1
f 206/1/4 203/1/4 290/1/4 291/1/4
f 207/1/2 292/1/2 293/1/2 208/1/2
f 210/1/1 209/1/1 294/1/1 295/1/1
f 210/1/3 295/1/3 292/1/3 207/1/3
f 209/1/4 208/1/4 293/1/4 294/1/4
f 211/1/2 296/1/2 297/1/2 212/1/2
f 214/1/1 213/1/1 298/1/1 299/1/1
f 214/1/3 299/1/3 296/1/3 211/1/3
f 300/7/2 301/7/2 302/7/2 303/7/2
f 304/7/1 305/7/1 306/7/1 307/7/1
f 304/7/3 307/7/3 301/7/3 300/7/3
f 305/7/4 303/7/4 302/7/4 306/7/4
f 307/7/6 306/7/6 302/7/6 301/7/6
f 304/7/5 300/7/5 303/7/5 305/7/5
f 213/1/1 308/1/1 309/1/1 298/1/1
f 213/1/5 212/1/5 310/1/5 308/1/5
f 212/1/3 297/1/3 311/1/3 312/1/3
f 310/1/4 313/1/4 314/1/4 315/1/4
f 297/1/6 315/1/6 314/1/6 311/1/6
f 212/1/5 312/1/5 313/1/5 310/1/5
f 305/1/2 306/1/2 316/1/2 317/1/2
f 312/1/3 311/1/3 306/1/3 305/1/3
f 311/1/6 314/1/6 316/1/6 306/1/6
f 312/1/5 305/1/5 317/1/5 313/1/5
f 310/1/2 315/1/2 318/1/2 319/1/2
f 308/1/1 320/1/1 321/1/1 309/1/1
f 309/1/6 321/1/6 318/1/6 315/1/6
f 308/1/5 310/1/5 319/1/5 320/1/5
f 317/1/2 316/1/2 322/1/2 323/1/2
f 313/1/1 324/1/1 325/1/1 314/1/1
f 314/1/6 325/1/6 322/1/6 316/1/6
f 313/1/5 317/1/5 323/1/5 324/1/5
f 319/1/2 318/1/2 326/1/2 224/1/2
f 320/1/1 223/1/1 327/1/1 321/1/1
f 321/1/6 327/1/6 326/1/6 318/1/6
f 320/1/5 319/1/5 224/1/5 223/1/5
f 323/1/2 322/1/2 328/1/2 233/1/2
f 324/1/1 228/1/1 329/1/1 325/1/1
f 325/1/6 329/1/6 328/1/6 322/1/6
f 324/1/5 323/1/5 233/1/5 228/1/5
f 216/1/2 330/1/2 331/1/2 215/1/2
f 332/1/1 238/1/1 333/1/1 334/1/1
f 332/1/3 334/1/3 330/1/3 216/1/3
f 332/1/5 216/1/5 215/1/5 238/1/5
f 223/1/1 222/1/1 335/1/1 327/1/1
f 224/1/3 326/1/3 329/1/3 228/1/3
f 227/1/4 231/1/4 336/1/4 337/1/4
f 233/1/2 328/1/2 338/1/2 234/1/2
f 231/1/4 234/1/4 338/1/4 336/1/4
f 329/1/6 336/1/6 338/1/6 328/1/6
f 238/4/1 237/4/1 339/4/1 333/4/1
f 218/2/2 340/2/2 341/2/2 241/2/2
f 215/2/3 331/2/3 340/2/3 218/2/3
f 331/2/6 342/2/6 341/2/6 340/2/6
f 227/1/2 337/1/2 343/1/2 253/1/2
f 222/1/1 344/1/1 345/1/1 335/1/1
f 335/1/6 345/1/6 343/1/6 337/1/6
f 222/1/5 227/1/5 253/1/5 344/1/5
f 237/4/1 245/4/1 346/4/1 339/4/1
f 241/2/2 341/2/2 347/2/2 248/2/2
f 247/2/4 248/2/4 347/2/4 348/2/4
f 342/2/6 348/2/6 347/2/6 341/2/6
f 344/2/1 349/2/1 350/2/1 345/2/1
f 344/2/5 253/2/5 252/2/5 349/2/5
f 253/2/3 343/2/3 351/2/3 243/2/3
f 242/1/2 352/1/2 353/1/2 254/1/2
f 243/1/3 351/1/3 352/1/3 242/1/3
f 247/3/2 348/3/2 354/3/2 355/3/2
f 245/3/1 356/3/1 357/3/1 346/3/1
f 356/3/4 355/3/4 354/3/4 357/3/4
f 245/3/5 247/3/5 355/3/5 356/3/5
f 349/2/1 264/2/1 358/2/1 350/2/1
f 349/2/5 252/2/5 258/2/5 264/2/5
f 258/2/4 259/2/4 359/2/4 360/2/4
f 259/1/4 260/1/4 361/1/4 359/1/4
f 362/1/2 363/1/2 364/1/2 265/1/2
f 254/1/3 353/1/3 363/1/3 362/1/3
f 260/1/4 265/1/4 364/1/4 361/1/4
f 353/1/6 361/1/6 364/1/6 363/1/6
f 254/1/5 362/1/5 265/1/5 260/1/5
f 258/1/2 360/1/2 365/1/2 261/1/2
f 264/1/1 263/1/1 366/1/1 358/1/1
f 261/1/2 365/1/2 367/1/2 270/1/2
f 263/1/1 271/1/1 368/1/1 366/1/1
f 366/1/6 368/1/6 367/1/6 365/1/6
f 369/6/2 370/6/2 371/6/2 372/6/2
f 373/6/1 374/6/1 375/6/1 376/6/1
f 373/6/3 376/6/3 370/6/3 369/6/3
f 374/6/4 372/6/4 371/6/4 375/6/4
f 373/6/5 369/6/5 372/6/5 374/6/5
f 278/2/2 377/2/2 378/2/2 279/2/2
f 277/2/1 276/2/1 379/2/1 380/2/1
f 277/2/3 380/2/3 377/2/3 278/2/3
f 276/2/4 279/2/4 378/2/4 379/2/4
f 271/1/1 280/1/1 381/1/1 368/1/1
f 368/1/6 381/1/6 382/1/6 367/1/6
f 281/1/2 383/1/2 384/1/2 284/1/2
f 270/1/3 367/1/3 383/1/3 281/1/3
f 367/1/6 382/1/6 384/1/6 383/1/6
f 272/1/2 385/1/2 386/1/2 287/1/2
f 273/1/1 286/1/1 387/1/1 388/1/1
f 273/1/3 388/1/3 385/1/3 272/1/3
f 280/3/1 289/3/1 389/3/1 381/3/1
f 289/3/4 288/3/4 390/3/4 389/3/4
f 381/3/6 389/3/6 390/3/6 382/3/6
f 284/1/2 384/1/2 391/1/2 392/1/2
f 288/1/4 392/1/4 391/1/4 390/1/4
f 382/1/6 390/1/6 391/1/6 384/1/6
f 285/1/5 284/1/5 392/1/5 288/1/5
f 287/1/2 386/1/2 393/1/2 290/1/2
f 286/1/1 291/1/1 394/1/1 387/1/1
f 387/1/6 394/1/6 393/1/6 386/1/6
f 290/1/2 393/1/2 395/1/2 396/1/2
f 291/1/1 397/1/1 398/1/1 394/1/1
f 394/1/6 398/1/6 395/1/6 393/1/6
f 291/1/5 290/1/5 396/1/5 397/1/5
f 399/1/2 400/1/2 401/1/2 402/1/2
f 403/1/1 404/1/1 405/1/1 406/1/1
f 403/1/3 406/1/3 400/1/3 399/1/3
f 404/1/4 402/1/4 401/1/4 405/1/4
f 403/1/5 399/1/5 402/1/5 404/1/5
f 295/1/1 294/1/1 407/1/1 408/1/1
f 295/1/3 408/1/3 409/1/3 292/1/3
f 294/1/4 293/1/4 410/1/4 407/1/4
f 292/1/3 409/1/3 398/1/3 397/1/3
f 293/1/4 411/1/4 412/1/4 410/1/4
f 409/1/6 410/1/6 412/1/6 398/1/6
f 292/1/5 397/1/5 411/1/5 293/1/5
f 396/1/2 395/1/2 413/1/2 414/1/2
f 411/1/4 414/1/4 413/1/4 412/1/4
f 398/1/6 412/1/6 413/1/6 395/1/6
f 397/1/5 396/1/5 414/1/5 411/1/5
f 296/1/2 415/1/2 416/1/2 297/1/2
f 299/1/1 298/1/1 417/1/1 418/1/1
f 299/1/3 418/1/3 415/1/3 296/1/3
f 419/2/1 420/2/1 421/2/1 422/2/1
f 419/2/3 422/2/3 423/2/3 424/2/3
f 420/2/4 425/2/4 426/2/4 421/2/4
f 419/2/5 424/2/5 425/2/5 420/2/5
f 424/2/3 423/2/3 417/2/3 298/2/3
f 425/2/4 309/2/4 427/2/4 426/2/4
f 423/2/6 426/2/6 427/2/6 417/2/6
f 424/2/5 298/2/5 309/2/5 425/2/5
f 297/1/2 416/1/2 428/1/2 315/1/2
f 309/1/4 315/1/4 428/1/4 427/1/4
f 417/1/6 427/1/6 428/1/6 416/1/6
f 429/8/2 430/8/2 431/8/2 432/8/2
f 433/8/1 434/8/1 435/8/1 436/8/1
f 433/8/3 436/8/3 430/8/3 429/8/3
f 433/8/5 429/8/5 432/8/5 434/8/5
f 330/1/2 437/1/2 438/1/2 331/1/2
f 334/1/1 333/1/1 439/1/1 440/1/1
f 334/1/3 440/1/3 437/1/3 330/1/3
f 327/1/1 335/1/1 441/1/1 442/1/1
f 327/1/3 442/1/3 443/1/3 326/1/3
f 335/1/4 337/1/4 444/1/4 441/1/4
f 329/1/2 445/1/2 446/1/2 336/1/2
f 326/1/3 443/1/3 445/1/3 329/1/3
f 434/8/1 447/8/1 448/8/1 435/8/1
f 434/8/5 432/8/5 449/8/5 447/8/5
f 450/2/2 451/2/2 452/2/2 453/2/2
f 432/2/3 431/2/3 451/2/3 450/2/3
f 432/2/5 450/2/5 453/2/5 449/2/5
f 454/2/1 455/2/1 456/2/1 457/2/1
f 454/2/3 457/2/3 439/2/3 333/2/3
f 454/2/5 333/2/5 339/2/5 455/2/5
f 331/2/2 438/2/2 458/2/2 342/2/2
f 337/3/1 343/3/1 459/3/1 444/3/1
f 337/3/5 336/3/5 351/3/5 343/3/5
f 338/1/2 460/1/2 461/1/2 352/1/2
f 336/1/3 446/1/3 460/1/3 338/1/3
f 336/1/5 338/1/5 352/1/5 351/1/5
f 447/8/1 462/8/1 463/8/1 448/8/1
f 447/8/5 449/8/5 464/8/5 462/8/5
f 453/4/2 452/4/2 465/4/2 466/4/2
f 464/4/4 466/4/4 465/4/4 467/4/4
f 449/4/5 453/4/5 466/4/5 464/4/5
f 455/4/1 468/4/1 469/4/1 456/4/1
f 468/4/4 346/4/4 470/4/4 469/4/4
f 455/4/5 339/4/5 346/4/5 468/4/5
f 342/2/2 458/2/2 471/2/2 348/2/2
f 472/2/1 473/2/1 474/2/1 475/2/1
f 472/2/3 475/2/3 476/2/3 345/2/3
f 472/2/5 345/2/5 350/2/5 473/2/5
f 345/2/3 476/2/3 459/2/3 343/2/3
f 352/1/2 461/1/2 477/1/2 353/1/2
f 464/8/2 467/8/2 478/8/2 479/8/2
f 462/8/1 480/8/1 481/8/1 463/8/1
f 480/8/4 479/8/4 478/8/4 481/8/4
f 462/8/5 464/8/5 479/8/5 480/8/5
f 348/3/2 471/3/2 482/3/2 354/3/2
f 346/3/1 357/3/1 483/3/1 470/3/1
f 357/3/4 354/3/4 482/3/4 483/3/4
f 473/4/1 484/4/1 485/4/1 474/4/1
f 484/4/4 358/4/4 486/4/4 485/4/4
f 473/4/5 350/4/5 358/4/5 484/4/5
f 360/1/4 359/1/4 487/1/4 488/1/4
f 353/1/2 477/1/2 489/1/2 361/1/2
f 360/1/2 488/1/2 490/1/2 365/1/2
f 358/1/1 366/1/1 491/1/1 486/1/1
f 366/1/4 365/1/4 490/1/4 491/1/4
f 361/1/2 489/1/2 492/1/2 493/1/2
f 359/1/1 494/1/1 495/1/1 487/1/1
f 494/1/4 493/1/4 492/1/4 495/1/4
f 359/1/5 361/1/5 493/1/5 494/1/5
f 370/3/2 496/3/2 497/3/2 371/3/2
f 376/3/1 375/3/1 498/3/1 499/3/1
f 376/3/3 499/3/3 496/3/3 370/3/3
f 377/2/2 500/2/2 501/2/2 378/2/2
f 380/2/1 379/2/1 502/2/1 503/2/1
f 380/2/3 503/2/3 500/2/3 377/2/3
f 379/2/4 378/2/4 501/2/4 502/2/4
f 385/1/2 504/1/2 505/1/2 386/1/2
f 388/1/1 387/1/1 506/1/1 507/1/1
f 388/1/3 507/1/3 504/1/3 385/1/3
f 387/1/4 386/1/4 505/1/4 506/1/4
f 507/1/6 506/1/6 505/1/6 504/1/6
f 371/3/2 497/3/2 508/3/2 509/3/2
f 375/3/1 510/3/1 511/3/1 498/3/1
f 510/3/4 509/3/4 508/3/4 511/3/4
f 375/3/5 371/3/5 509/3/5 510/3/5
f 381/1/2 512/1/2 513/1/2 389/1/2
f 378/1/1 514/1/1 515/1/1 501/1/1
f 378/1/3 501/1/3 512/1/3 381/1/3
f 514/1/4 389/1/4 513/1/4 515/1/4
f 378/1/5 381/1/5 389/1/5 514/1/5
f 516/1/2 517/1/2 518/1/2 406/1/2
f 519/1/1 520/1/1 521/1/1 522/1/1
f 519/1/3 522/1/3 517/1/3 516/1/3
f 519/1/5 516/1/5 406/1/5 520/1/5
f 520/3/1 523/3/1 524/3/1 521/3/1
f 523/3/4 405/3/4 525/3/4 524/3/4
f 520/3/5 406/3/5 405/3/5 523/3/5
f 406/1/3 518/1/3 526/1/3 400/1/3
f 405/1/4 401/1/4 527/1/4 525/1/4
f 528/1/2 529/1/2 530/1/2 531/1/2
f 400/1/3 526/1/3 529/1/3 528/1/3
f 401/1/4 531/1/4 530/1/4 527/1/4
f 400/1/5 528/1/5 531/1/5 401/1/5
f 409/1/2 532/1/2 533/1/2 410/1/2
f 408/1/1 407/1/1 534/1/1 535/1/1
f 408/1/3 535/1/3 532/1/3 409/1/3
f 407/1/4 410/1/4 533/1/4 534/1/4
f 415/1/2 536/1/2 537/1/2 416/1/2
f 418/1/1 417/1/1 538/1/1 539/1/1
f 418/1/3 539/1/3 536/1/3 415/1/3
f 417/1/4 416/1/4 537/1/4 538/1/4
f 423/2/2 540/2/2 541/2/2 426/2/2
f 422/2/1 421/2/1 542/2/1 543/2/1
f 422/2/3 543/2/3 540/2/3 423/2/3
f 421/2/4 426/2/4 541/2/4 542/2/4
f 421/6/2 542/6/2 544/6/2 545/6/2
f 546/6/1 547/6/1 548/6/1 549/6/1
f 546/6/3 549/6/3 542/6/3 421/6/3
f 547/6/4 545/6/4 544/6/4 548/6/4
f 546/6/5 421/6/5 545/6/5 547/6/5
f 550/8/2 551/8/2 552/8/2 430/8/2
f 553/8/1 436/8/1 554/8/1 555/8/1
f 553/8/3 555/8/3 551/8/3 550/8/3
f 553/8/5 550/8/5 430/8/5 436/8/5
f 556/1/2 557/1/2 558/1/2 559/1/2
f 560/1/1 561/1/1 562/1/1 563/1/1
f 560/1/3 563/1/3 557/1/3 556/1/3
f 560/1/5 556/1/5 559/1/5 561/1/5
f 436/9/1 435/9/1 564/9/1 554/9/1
f 565/4/2 566/4/2 567/4/2 451/4/2
f 430/4/3 552/4/3 566/4/3 565/4/3
f 430/4/5 565/4/5 451/4/5 431/4/5
f 568/2/1 569/2/1 570/2/1 571/2/1
f 568/2/3 571/2/3 572/2/3 573/2/3
f 568/2/5 573/2/5 457/2/5 569/2/5
f 573/2/3 572/2/3 574/2/3 440/2/3
f 573/2/5 440/2/5 439/2/5 457/2/5
f 437/2/2 575/2/2 576/2/2 438/2/2
f 440/2/3 574/2/3 575/2/3 437/2/3
f 577/2/1 578/2/1 579/2/1 580/2/1
f 577/2/3 580/2/3 581/2/3 442/2/3
f 577/2/5 442/2/5 441/2/5 578/2/5
f 442/2/3 581/2/3 582/2/3 443/2/3
f 443/2/3 582/2/3 583/2/3 445/2/3
f 445/1/3 583/1/3 562/1/3 561/1/3
f 445/1/5 561/1/5 460/1/5 446/1/5
f 559/1/2 558/1/2 584/1/2 585/1/2
f 561/1/5 559/1/5 585/1/5 460/1/5
f 435/10/1 448/10/1 586/10/1 564/10/1
f 451/4/3 567/4/3 587/4/3 588/4/3
f 451/4/5 588/4/5 589/4/5 452/4/5
f 588/2/3 587/2/3 590/2/3 591/2/3
f 588/2/5 591/2/5 592/2/5 589/2/5
f 591/2/3 590/2/3 593/2/3 594/2/3
f 591/2/5 594/2/5 595/2/5 592/2/5
f 594/2/3 593/2/3 570/2/3 569/2/3
f 594/2/5 569/2/5 596/2/5 595/2/5
f 569/2/5 457/2/5 456/2/5 596/2/5
f 438/2/3 576/2/3 597/2/3 598/2/3
f 438/2/5 598/2/5 599/2/5 458/2/5
f 598/2/3 597/2/3 579/2/3 578/2/3
f 598/2/5 578/2/5 475/2/5 599/2/5
f 578/2/5 441/2/5 476/2/5 475/2/5
f 441/2/5 444/2/5 459/2/5 476/2/5
f 585/1/2 584/1/2 600/1/2 601/1/2
f 602/1/6 603/1/6 600/1/6 584/1/6
f 460/1/5 585/1/5 601/1/5 461/1/5
f 448/10/1 463/10/1 604/10/1 586/10/1
f 465/5/4 605/5/4 606/5/4 607/5/4
f 452/5/5 589/5/5 605/5/5 465/5/5
f 605/5/4 608/5/4 609/5/4 606/5/4
f 589/5/5 592/5/5 608/5/5 605/5/5
f 608/5/4 610/5/4 611/5/4 609/5/4
f 592/5/5 595/5/5 610/5/5 608/5/5
f 595/5/5 596/5/5 612/5/5 610/5/5
f 596/2/5 456/2/5 469/2/5 612/2/5
f 458/2/5 599/2/5 613/2/5 471/2/5
f 599/2/5 475/2/5 474/2/5 613/2/5
f 601/1/2 600/1/2 614/1/2 615/1/2
f 461/1/5 601/1/5 615/1/5 477/1/5
f 463/11/1 481/11/1 616/11/1 604/11/1
f 465/4/2 607/4/2 617/4/2 618/4/2
f 478/4/4 618/4/4 617/4/4 619/4/4
f 467/4/5 465/4/5 618/4/5 478/4/5
f 610/4/1 620/4/1 621/4/1 611/4/1
f 610/4/5 612/4/5 622/4/5 620/4/5
f 622/4/4 623/4/4 624/4/4 625/4/4
f 612/4/5 469/4/5 623/4/5 622/4/5
f 623/4/4 483/4/4 626/4/4 624/4/4
f 469/4/5 470/4/5 483/4/5 623/4/5
f 483/4/4 482/4/4 627/4/4 626/4/4
f 471/4/5 613/4/5 628/4/5 482/4/5
f 628/4/4 485/4/4 629/4/4 630/4/4
f 613/4/5 474/4/5 485/4/5 628/4/5
f 485/4/4 486/4/4 631/4/4 629/4/4
f 488/2/4 487/2/4 632/2/4 633/2/4
f 615/1/2 614/1/2 634/1/2 635/1/2
f 477/1/5 615/1/5 635/1/5 489/1/5
f 478/4/2 619/4/2 636/4/2 637/4/2
f 481/4/1 638/4/1 639/4/1 616/4/1
f 638/4/4 637/4/4 636/4/4 639/4/4
f 481/4/5 478/4/5 637/4/5 638/4/5
f 622/4/2 625/4/2 640/4/2 641/4/2
f 620/4/1 642/4/1 643/4/1 621/4/1
f 620/4/5 622/4/5 641/4/5 642/4/5
f 628/3/2 630/3/2 644/3/2 645/3/2
f 482/3/1 646/3/1 647/3/1 627/3/1
f 482/3/5 628/3/5 645/3/5 646/3/5
f 488/1/2 633/1/2 648/1/2 490/1/2
f 486/1/1 491/1/1 649/1/1 631/1/1
f 491/1/4 490/1/4 648/1/4 649/1/4
f 631/1/6 649/1/6 648/1/6 633/1/6
f 487/1/1 495/1/1 650/1/1 632/1/1
f 495/1/4 492/1/4 651/1/4 650/1/4
f 635/1/2 634/1/2 652/1/2 653/1/2
f 492/1/4 653/1/4 652/1/4 651/1/4
f 489/1/5 635/1/5 653/1/5 492/1/5
f 642/4/1 654/4/1 655/4/1 643/4/1
f 654/4/4 656/4/4 657/4/4 655/4/4
f 642/4/5 641/4/5 656/4/5 654/4/5
f 658/2/2 659/2/2 660/2/2 499/2/2
f 641/2/3 640/2/3 659/2/3 658/2/3
f 641/2/5 658/2/5 499/2/5 656/2/5
f 645/3/2 644/3/2 661/3/2 503/3/2
f 646/3/1 662/3/1 663/3/1 647/3/1
f 662/3/4 503/3/4 661/3/4 663/3/4
f 646/3/5 645/3/5 503/3/5 662/3/5
f 656/2/1 664/2/1 665/2/1 657/2/1
f 664/2/4 498/2/4 666/2/4 665/2/4
f 656/2/5 499/2/5 498/2/5 664/2/5
f 496/2/2 667/2/2 668/2/2 497/2/2
f 499/2/3 660/2/3 667/2/3 496/2/3
f 503/2/1 502/2/1 669/2/1 661/2/1
f 503/2/3 661/2/3 670/2/3 500/2/3
f 502/2/4 501/2/4 671/2/4 669/2/4
f 672/1/2 673/1/2 674/1/2 512/1/2
f 500/1/3 670/1/3 673/1/3 672/1/3
f 500/1/5 672/1/5 512/1/5 501/1/5
f 498/4/1 511/4/1 675/4/1 666/4/1
f 676/2/2 677/2/2 678/2/2 522/2/2
f 497/2/3 668/2/3 677/2/3 676/2/3
f 497/2/5 676/2/5 522/2/5 508/2/5
f 501/1/1 515/1/1 679/1/1 671/1/1
f 680/1/2 681/1/2 682/1/2 683/1/2
f 512/1/3 674/1/3 681/1/3 680/1/3
f 513/1/4 683/1/4 682/1/4 684/1/4
f 512/1/5 680/1/5 683/1/5 513/1/5
f 511/3/1 685/3/1 686/3/1 675/3/1
f 685/3/4 687/3/4 688/3/4 686/3/4
f 511/3/5 508/3/5 687/3/5 685/3/5
f 687/2/4 521/2/4 689/2/4 688/2/4
f 508/2/5 522/2/5 521/2/5 687/2/5
f 522/2/3 678/2/3 690/2/3 517/2/3
f 517/1/3 690/1/3 679/1/3 515/1/3
f 690/1/6 691/1/6 692/1/6 679/1/6
f 517/1/5 515/1/5 526/1/5 518/1/5
f 513/1/2 684/1/2 693/1/2 529/1/2
f 515/1/5 513/1/5 529/1/5 526/1/5
f 521/2/1 524/2/1 694/2/1 689/2/1
f 524/2/4 525/2/4 695/2/4 694/2/4
f 525/1/4 527/1/4 696/1/4 695/1/4
f 529/1/2 693/1/2 697/1/2 530/1/2
f 527/1/4 530/1/4 697/1/4 696/1/4
f 692/1/6 696/1/6 697/1/6 693/1/6
f 535/1/1 534/1/1 698/1/1 699/1/1
f 535/1/3 699/1/3 700/1/3 532/1/3
f 534/1/4 533/1/4 701/1/4 698/1/4
f 702/1/2 703/1/2 704/1/2 705/1/2
f 532/1/3 700/1/3 703/1/3 702/1/3
f 533/1/4 705/1/4 704/1/4 701/1/4
f 532/1/5 702/1/5 705/1/5 533/1/5
f 706/1/1 707/1/1 708/1/1 709/1/1
f 706/1/3 709/1/3 710/1/3 711/1/3
f 706/1/5 711/1/5 712/1/5 707/1/5
f 713/7/2 714/7/2 715/7/2 716/7/2
f 711/7/3 710/7/3 714/7/3 713/7/3
f 712/7/4 716/7/4 715/7/4 717/7/4
f 711/7/5 713/7/5 716/7/5 712/7/5
f 712/1/2 717/1/2 718/1/2 719/1/2
f 707/1/1 536/1/1 720/1/1 708/1/1
f 536/1/4 719/1/4 718/1/4 720/1/4
f 707/1/5 712/1/5 719/1/5 536/1/5
f 721/1/1 540/1/1 722/1/1 723/1/1
f 721/1/3 723/1/3 724/1/3 539/1/3
f 721/1/5 539/1/5 538/1/5 540/1/5
f 536/1/2 720/1/2 725/1/2 537/1/2
f 539/1/3 724/1/3 720/1/3 536/1/3
f 538/1/4 537/1/4 725/1/4 726/1/4
f 543/2/1 542/2/1 727/2/1 728/2/1
f 543/2/3 728/2/3 722/2/3 540/2/3
f 542/2/4 541/2/4 729/2/4 727/2/4
f 538/1/2 726/1/2 730/1/2 731/1/2
f 541/1/4 731/1/4 730/1/4 729/1/4
f 540/1/5 538/1/5 731/1/5 541/1/5
f 732/2/2 733/2/2 734/2/2 735/2/2
f 736/2/1 737/2/1 738/2/1 739/2/1
f 736/2/3 739/2/3 733/2/3 732/2/3
f 736/2/5 732/2/5 735/2/5 737/2/5
f 740/6/1 741/6/1 742/6/1 743/6/1
f 740/6/3 743/6/3 744/6/3 745/6/3
f 741/6/4 746/6/4 747/6/4 742/6/4
f 743/6/6 742/6/6 747/6/6 744/6/6
f 740/6/5 745/6/5 746/6/5 741/6/5
f 745/12/3 744/12/3 748/12/3 549/12/3
f 744/12/6 747/12/6 749/12/6 748/12/6
f 745/12/5 549/12/5 548/12/5 746/12/5
f 542/3/2 727/3/2 750/3/2 544/3/2
f 549/3/3 748/3/3 727/3/3 542/3/3
f 751/2/1 752/2/1 753/2/1 754/2/1
f 751/2/3 754/2/3 738/2/3 737/2/3
f 751/2/5 737/2/5 755/2/5 752/2/5
f 737/2/5 735/2/5 563/2/5 755/2/5
f 756/1/2 757/1/2 758/1/2 557/1/2
f 735/1/3 734/1/3 757/1/3 756/1/3
f 735/1/5 756/1/5 557/1/5 563/1/5
f 555/2/1 554/2/1 759/2/1 760/2/1
f 555/2/3 760/2/3 761/2/3 551/2/3
f 762/4/2 763/4/2 764/4/2 566/4/2
f 551/4/3 761/4/3 763/4/3 762/4/3
f 551/4/5 762/4/5 566/4/5 552/4/5
f 746/12/1 574/12/1 765/12/1 747/12/1
f 746/12/5 548/12/5 575/12/5 574/12/5
f 544/3/2 750/3/2 766/3/2 767/3/2
f 548/3/5 544/3/5 767/3/5 575/3/5
f 768/2/1 581/2/1 769/2/1 770/2/1
f 768/2/3 770/2/3 753/2/3 752/2/3
f 768/2/5 752/2/5 582/2/5 581/2/5
f 752/2/5 755/2/5 583/2/5 582/2/5
f 771/6/6 772/6/6 773/6/6 774/6/6
f 755/6/5 563/6/5 562/6/5 583/6/5
f 557/1/2 758/1/2 775/1/2 558/1/2
f 774/1/6 773/1/6 775/1/6 758/1/6
f 554/10/1 564/10/1 776/10/1 759/10/1
f 566/4/3 764/4/3 777/4/3 778/4/3
f 566/4/5 778/4/5 587/4/5 567/4/5
f 778/2/3 777/2/3 779/2/3 780/2/3
f 778/2/5 780/2/5 590/2/5 587/2/5
f 780/2/3 779/2/3 781/2/3 782/2/3
f 780/2/5 782/2/5 593/2/5 590/2/5
f 782/2/3 781/2/3 783/2/3 571/2/3
f 782/2/5 571/2/5 570/2/5 593/2/5
f 571/2/3 783/2/3 784/2/3 572/2/3
f 572/2/3 784/2/3 765/2/3 574/2/3
f 575/2/5 767/2/5 597/2/5 576/2/5
f 767/2/3 766/2/3 785/2/3 580/2/3
f 767/2/5 580/2/5 579/2/5 597/2/5
f 580/2/3 785/2/3 769/2/3 581/2/3
f 558/1/2 775/1/2 786/1/2 584/1/2
f 602/1/4 584/1/4 786/1/4 787/1/4
f 773/1/6 787/1/6 786/1/6 775/1/6
f 564/10/1 586/10/1 788/10/1 776/10/1
f 602/2/2 787/2/2 789/2/2 603/2/2
f 586/10/1 604/10/1 790/10/1 788/10/1
f 600/1/2 791/1/2 792/1/2 614/1/2
f 603/1/3 789/1/3 791/1/3 600/1/3
f 604/9/1 616/9/1 793/9/1 790/9/1
f 617/4/4 794/4/4 795/4/4 796/4/4
f 607/4/5 606/4/5 794/4/5 617/4/5
f 794/4/4 797/4/4 798/4/4 795/4/4
f 606/4/5 609/4/5 797/4/5 794/4/5
f 609/4/5 611/4/5 621/4/5 797/4/5
f 625/4/4 624/4/4 799/4/4 800/4/4
f 624/4/4 626/4/4 801/4/4 799/4/4
f 630/2/4 629/2/4 802/2/4 803/2/4
f 629/2/4 631/2/4 804/2/4 802/2/4
f 631/2/4 633/2/4 805/2/4 804/2/4
f 633/2/4 632/2/4 806/2/4 805/2/4
f 614/1/2 792/1/2 807/1/2 634/1/2
f 808/1/6 809/1/6 807/1/6 792/1/6
f 616/4/1 639/4/1 810/4/1 793/4/1
f 639/4/4 636/4/4 811/4/4 810/4/4
f 617/4/2 796/4/2 812/4/2 813/4/2
f 636/4/4 813/4/4 812/4/4 811/4/4
f 619/4/5 617/4/5 813/4/5 636/4/5
f 797/4/1 814/4/1 815/4/1 798/4/1
f 814/4/4 643/4/4 816/4/4 815/4/4
f 798/4/6 815/4/6 816/4/6 817/4/6
f 797/4/5 621/4/5 643/4/5 814/4/5
f 625/4/2 800/4/2 818/4/2 640/4/2
f 817/4/6 816/4/6 818/4/6 800/4/6
f 626/4/1 819/4/1 820/4/1 801/4/1
f 819/4/4 647/4/4 821/4/4 820/4/4
f 626/4/5 627/4/5 647/4/5 819/4/5
f 630/2/2 803/2/2 822/2/2 644/2/2
f 632/1/1 650/1/1 823/1/1 806/1/1
f 806/1/6 823/1/6 824/1/6 809/1/6
f 634/1/2 807/1/2 825/1/2 652/1/2
f 643/4/1 655/4/1 826/4/1 816/4/1
f 655/4/4 657/4/4 827/4/4 826/4/4
f 816/4/6 826/4/6 827/4/6 818/4/6
f 659/2/2 828/2/2 829/2/2 660/2/2
f 640/2/3 818/2/3 828/2/3 659/2/3
f 818/2/6 827/2/6 829/2/6 828/2/6
f 647/2/1 663/2/1 830/2/1 821/2/1
f 831/2/2 832/2/2 833/2/2 670/2/2
f 644/2/3 822/2/3 832/2/3 831/2/3
f 644/2/5 831/2/5 670/2/5 661/2/5
f 650/1/1 834/1/1 835/1/1 823/1/1
f 650/1/5 651/1/5 836/1/5 834/1/5
f 652/1/2 825/1/2 837/1/2 838/1/2
f 836/1/4 838/1/4 837/1/4 839/1/4
f 651/1/5 652/1/5 838/1/5 836/1/5
f 657/2/1 665/2/1 840/2/1 827/2/1
f 665/2/4 666/2/4 841/2/4 840/2/4
f 827/2/6 840/2/6 841/2/6 829/2/6
f 667/2/2 842/2/2 843/2/2 668/2/2
f 660/2/3 829/2/3 842/2/3 667/2/3
f 663/3/1 677/3/1 844/3/1 830/3/1
f 677/3/4 669/3/4 845/3/4 844/3/4
f 663/3/5 661/3/5 669/3/5 677/3/5
f 669/2/4 671/2/4 846/2/4 845/2/4
f 673/2/2 847/2/2 848/2/2 674/2/2
f 670/2/3 833/2/3 847/2/3 673/2/3
f 836/1/2 839/1/2 849/1/2 850/1/2
f 834/1/1 851/1/1 852/1/1 835/1/1
f 851/1/4 850/1/4 849/1/4 852/1/4
f 834/1/5 836/1/5 850/1/5 851/1/5
f 666/4/1 675/4/1 853/4/1 841/4/1
f 677/2/2 844/2/2 854/2/2 678/2/2
f 668/2/3 843/2/3 844/2/3 677/2/3
f 843/2/6 855/2/6 854/2/6 844/2/6
f 671/2/1 679/2/1 856/2/1 846/2/1
f 674/2/3 848/2/3 857/2/3 681/2/3
f 851/1/2 852/1/2 858/1/2 859/1/2
f 681/1/3 857/1/3 852/1/3 851/1/3
f 681/1/5 851/1/5 859/1/5 682/1/5
f 860/1/2 861/1/2 862/1/2 863/1/2
f 850/1/1 864/1/1 865/1/1 849/1/1
f 850/1/3 849/1/3 861/1/3 860/1/3
f 864/1/4 863/1/4 862/1/4 865/1/4
f 850/1/5 860/1/5 863/1/5 864/1/5
f 675/3/1 686/3/1 866/3/1 853/3/1
f 686/3/4 688/3/4 867/3/4 866/3/4
f 853/3/6 866/3/6 867/3/6 855/3/6
f 688/2/4 689/2/4 868/2/4 867/2/4
f 690/2/2 869/2/2 870/2/2 691/2/2
f 678/2/3 854/2/3 869/2/3 690/2/3
f 854/2/6 868/2/6 870/2/6 869/2/6
f 679/1/1 692/1/1 871/1/1 856/1/1
f 692/1/4 693/1/4 872/1/4 871/1/4
f 693/2/4 699/2/4 873/2/4 872/2/4
f 684/2/5 682/2/5 699/2/5 693/2/5
f 859/2/2 858/2/2 874/2/2 700/2/2
f 682/2/5 859/2/5 700/2/5 699/2/5
f 689/2/1 694/2/1 875/2/1 868/2/1
f 694/2/4 695/2/4 876/2/4 875/2/4
f 692/1/2 871/1/2 877/1/2 696/1/2
f 691/1/3 870/1/3 871/1/3 692/1/3
f 695/1/4 696/1/4 877/1/4 876/1/4
f 699/2/1 698/2/1 878/2/1 873/2/1
f 698/2/4 701/2/4 879/2/4 878/2/4
f 703/1/2 880/1/2 881/1/2 704/1/2
f 700/1/3 874/1/3 880/1/3 703/1/3
f 701/1/4 704/1/4 881/1/4 879/1/4
f 709/5/1 708/5/1 882/5/1 883/5/1
f 709/5/3 883/5/3 884/5/3 710/5/3
f 714/7/2 885/7/2 886/7/2 715/7/2
f 710/7/3 884/7/3 885/7/3 714/7/3
f 717/7/4 715/7/4 886/7/4 887/7/4
f 888/1/1 723/1/1 889/1/1 890/1/1
f 888/1/3 890/1/3 891/1/3 892/1/3
f 888/1/5 892/1/5 724/1/5 723/1/5
f 892/2/3 891/2/3 882/2/3 708/2/3
f 892/2/5 708/2/5 720/2/5 724/2/5
f 717/2/2 887/2/2 893/2/2 718/2/2
f 720/2/4 718/2/4 893/2/4 894/2/4
f 723/2/1 722/2/1 895/2/1 889/2/1
f 720/2/2 894/2/2 896/2/2 725/2/2
f 726/2/4 725/2/4 896/2/4 897/2/4
f 898/3/1 748/3/1 899/3/1 900/3/1
f 898/3/3 900/3/3 901/3/3 728/3/3
f 898/3/5 728/3/5 727/3/5 748/3/5
f 728/2/3 901/2/3 895/2/3 722/2/3
f 726/2/2 897/2/2 902/2/2 730/2/2
f 729/2/4 730/2/4 902/2/4 903/2/4
f 733/2/2 904/2/2 905/2/2 734/2/2
f 739/2/1 738/2/1 906/2/1 907/2/1
f 739/2/3 907/2/3 904/2/3 733/2/3
f 907/2/6 906/2/6 905/2/6 904/2/6
f 748/2/1 749/2/1 908/2/1 899/2/1
f 729/2/2 903/2/2 909/2/2 910/2/2
f 750/2/4 910/2/4 909/2/4 911/2/4
f 727/2/5 729/2/5 910/2/5 750/2/5
f 754/2/1 753/2/1 912/2/1 913/2/1
f 754/2/3 913/2/3 906/2/3 738/2/3
f 913/2/6 912/2/6 914/2/6 906/2/6
f 771/2/4 774/2/4 915/2/4 914/2/4
f 757/1/2 916/1/2 917/1/2 758/1/2
f 734/1/3 905/1/3 916/1/3 757/1/3
f 774/1/4 758/1/4 917/1/4 915/1/4
f 905/1/6 915/1/6 917/1/6 916/1/6
f 760/5/1 759/5/1 918/5/1 919/5/1
f 760/5/3 919/5/3 920/5/3 761/5/3
f 763/5/2 921/5/2 922/5/2 764/5/2
f 761/5/3 920/5/3 921/5/3 763/5/3
f 920/5/6 923/5/6 922/5/6 921/5/6
f 747/2/1 765/2/1 924/2/1 925/2/1
f 747/2/3 925/2/3 908/2/3 749/2/3
f 750/2/2 911/2/2 926/2/2 766/2/2
f 770/2/1 769/2/1 927/2/1 928/2/1
f 770/2/3 928/2/3 912/2/3 753/2/3
f 928/2/6 927/2/6 929/2/6 912/2/6
f 771/2/2 914/2/2 930/2/2 772/2/2
f 912/2/6 929/2/6 930/2/6 914/2/6
f 759/11/1 776/11/1 931/11/1 918/11/1
f 764/5/3 922/5/3 932/5/3 777/5/3
f 922/5/6 933/5/6 934/5/6 932/5/6
f 777/5/3 932/5/3 935/5/3 779/5/3
f 932/5/6 934/5/6 936/5/6 935/5/6
f 779/5/3 935/5/3 937/5/3 781/5/3
f 935/5/6 936/5/6 938/5/6 937/5/6
f 781/2/3 937/2/3 939/2/3 783/2/3
f 937/2/6 938/2/6 940/2/6 939/2/6
f 783/2/3 939/2/3 941/2/3 784/2/3
f 939/2/6 940/2/6 942/2/6 941/2/6
f 784/2/3 941/2/3 924/2/3 765/2/3
f 766/2/3 926/2/3 943/2/3 785/2/3
f 926/2/6 944/2/6 945/2/6 943/2/6
f 785/2/3 943/2/3 927/2/3 769/2/3
f 943/2/6 945/2/6 946/2/6 927/2/6
f 773/2/2 947/2/2 948/2/2 787/2/2
f 772/2/3 930/2/3 947/2/3 773/2/3
f 776/9/1 788/9/1 949/9/1 931/9/1
f 940/2/6 950/2/6 951/2/6 942/2/6
f 787/2/2 948/2/2 952/2/2 789/2/2
f 788/9/1 790/9/1 953/9/1 949/9/1
f 791/1/2 954/1/2 955/1/2 792/1/2
f 789/1/3 952/1/3 954/1/3 791/1/3
f 808/1/4 792/1/4 955/1/4 956/1/4
f 790/9/1 793/9/1 957/9/1 953/9/1
f 796/4/4 795/4/4 958/4/4 959/4/4
f 960/4/6 959/4/6 958/4/6 961/4/6
f 795/2/4 798/2/4 962/2/4 958/2/4
f 961/2/6 958/2/6 962/2/6 963/2/6
f 798/2/4 817/2/4 964/2/4 962/2/4
f 963/2/6 962/2/6 964/2/6 965/2/6
f 817/2/4 800/2/4 966/2/4 964/2/4
f 800/2/4 799/2/4 967/2/4 966/2/4
f 799/2/4 801/2/4 968/2/4 967/2/4
f 808/2/2 956/2/2 969/2/2 809/2/2
f 806/2/4 809/2/4 969/2/4 970/2/4
f 793/4/1 810/4/1 971/4/1 957/4/1
f 810/4/4 811/4/4 972/4/4 971/4/4
f 796/8/2 959/8/2 973/8/2 812/8/2
f 811/8/4 812/8/4 973/8/4 972/8/4
f 974/8/6 972/8/6 973/8/6 959/8/6
f 801/2/1 820/2/1 975/2/1 968/2/1
f 820/2/4 821/2/4 976/2/4 975/2/4
f 968/2/6 975/2/6 976/2/6 977/2/6
f 978/12/6 979/12/6 980/12/6 981/12/6
f 803/12/5 802/12/5 832/12/5 822/12/5
f 832/12/4 982/12/4 983/12/4 980/12/4
f 981/12/6 980/12/6 983/12/6 984/12/6
f 802/12/5 804/12/5 982/12/5 832/12/5
f 982/2/4 985/2/4 986/2/4 983/2/4
f 804/2/5 805/2/5 985/2/5 982/2/5
f 806/2/2 970/2/2 987/2/2 823/2/2
f 805/2/5 806/2/5 823/2/5 985/2/5
f 807/1/2 988/1/2 989/1/2 825/1/2
f 809/1/1 824/1/1 990/1/1 969/1/1
f 809/1/3 969/1/3 988/1/3 807/1/3
f 969/1/6 990/1/6 989/1/6 988/1/6
f 821/2/1 830/2/1 991/2/1 976/2/1
f 832/2/2 980/2/2 992/2/2 833/2/2
f 979/2/6 993/2/6 992/2/6 980/2/6
f 985/2/1 994/2/1 995/2/1 986/2/1
f 994/2/4 835/2/4 996/2/4 995/2/4
f 985/2/5 823/2/5 835/2/5 994/2/5
f 823/2/3 987/2/3 990/2/3 824/2/3
f 825/1/2 989/1/2 997/1/2 837/1/2
f 839/1/4 837/1/4 997/1/4 998/1/4
f 990/1/6 998/1/6 997/1/6 989/1/6
f 842/3/2 999/3/2 1000/3/2 843/3/2
f 829/3/1 841/3/1 1001/3/1 1002/3/1
f 829/3/3 1002/3/3 999/3/3 842/3/3
f 1002/3/6 1001/3/6 1000/3/6 999/3/6
f 830/3/1 844/3/1 1003/3/1 991/3/1
f 844/3/4 845/3/4 1004/3/4 1003/3/4
f 991/3/6 1003/3/6 1004/3/6 993/3/6
f 845/2/4 846/2/4 1005/2/4 1004/2/4
f 993/2/6 1004/2/6 1005/2/6 992/2/6
f 847/2/2 1006/2/2 1007/2/2 848/2/2
f 833/2/3 992/2/3 1006/2/3 847/2/3
f 839/2/2 998/2/2 1008/2/2 849/2/2
f 835/2/1 852/2/1 1009/2/1 996/2/1
f 852/2/4 849/2/4 1008/2/4 1009/2/4
f 843/3/2 1000/3/2 1010/3/2 855/3/2
f 841/3/1 853/3/1 1011/3/1 1001/3/1
f 853/3/4 855/3/4 1010/3/4 1011/3/4
f 1001/3/6 1011/3/6 1010/3/6 1000/3/6
f 846/2/1 856/2/1 1012/2/1 1005/2/1
f 848/2/3 1007/2/3 1013/2/3 857/2/3
f 1007/2/6 1014/2/6 1015/2/6 1013/2/6
f 852/1/2 1009/1/2 1016/1/2 858/1/2
f 857/1/3 1013/1/3 1009/1/3 852/1/3
f 1013/1/6 1015/1/6 1016/1/6 1009/1/6
f 861/5/2 1017/5/2 1018/5/2 862/5/2
f 849/5/1 865/5/1 1019/5/1 1008/5/1
f 849/5/3 1008/5/3 1017/5/3 861/5/3
f 1008/5/6 1019/5/6 1018/5/6 1017/5/6
f 854/1/2 1020/1/2 1021/1/2 868/1/2
f 855/1/1 867/1/1 1022/1/1 1010/1/1
f 855/1/3 1010/1/3 1020/1/3 854/1/3
f 867/1/4 868/1/4 1021/1/4 1022/1/4
f 856/1/1 871/1/1 1023/1/1 1012/1/1
f 871/1/4 872/1/4 1024/1/4 1023/1/4
f 1012/1/6 1023/1/6 1024/1/6 1014/1/6
f 872/2/4 873/2/4 1025/2/4 1024/2/4
f 1014/2/6 1024/2/6 1025/2/6 1015/2/6
f 858/2/2 1016/2/2 1026/2/2 874/2/2
f 1015/2/6 1025/2/6 1026/2/6 1016/2/6
f 862/1/2 1018/1/2 1027/1/2 1028/1/2
f 865/1/1 880/1/1 1029/1/1 1019/1/1
f 880/1/4 1028/1/4 1027/1/4 1029/1/4
f 865/1/5 862/1/5 1028/1/5 880/1/5
f 868/3/1 875/3/1 1030/3/1 1021/3/1
f 868/3/3 1021/3/3 1031/3/3 870/3/3
f 875/3/4 876/3/4 1032/3/4 1030/3/4
f 1021/3/6 1030/3/6 1032/3/6 1031/3/6
f 871/1/2 1023/1/2 1033/1/2 877/1/2
f 870/1/3 1031/1/3 1023/1/3 871/1/3
f 876/1/4 877/1/4 1033/1/4 1032/1/4
f 1031/1/6 1032/1/6 1033/1/6 1023/1/6
f 873/2/1 878/2/1 1034/2/1 1025/2/1
f 878/2/4 879/2/4 1035/2/4 1034/2/4
f 880/1/2 1029/1/2 1036/1/2 881/1/2
f 874/1/3 1026/1/3 1029/1/3 880/1/3
f 879/1/4 881/1/4 1036/1/4 1035/1/4
f 883/5/1 882/5/1 1037/5/1 1038/5/1
f 883/5/3 1038/5/3 1039/5/3 884/5/3
f 885/7/2 1040/7/2 1041/7/2 886/7/2
f 884/7/3 1039/7/3 1040/7/3 885/7/3
f 887/7/4 886/7/4 1041/7/4 1042/7/4
f 890/1/1 889/1/1 1043/1/1 1044/1/1
f 890/1/3 1044/1/3 1045/1/3 891/1/3
f 1044/1/6 1043/1/6 1046/1/6 1045/1/6
f 891/2/3 1045/2/3 1037/2/3 882/2/3
f 1045/2/6 1046/2/6 1047/2/6 1037/2/6
f 887/2/2 1042/2/2 1048/2/2 893/2/2
f 894/2/4 893/2/4 1048/2/4 1047/2/4
f 889/2/1 895/2/1 1049/2/1 1043/2/1
f 894/2/2 1047/2/2 1050/2/2 896/2/2
f 897/2/4 896/2/4 1050/2/4 1051/2/4
f 900/3/1 899/3/1 1052/3/1 1053/3/1
f 900/3/3 1053/3/3 1054/3/3 901/3/3
f 1053/3/6 1052/3/6 1055/3/6 1054/3/6
f 901/2/3 1054/2/3 1049/2/3 895/2/3
f 897/2/2 1051/2/2 1056/2/2 902/2/2
f 903/2/4 902/2/4 1056/2/4 1057/2/4
f 899/2/1 908/2/1 1058/2/1 1052/2/1
f 903/2/2 1057/2/2 1059/2/2 909/2/2
f 911/2/4 909/2/4 1059/2/4 1060/2/4
f 905/1/2 1061/1/2 1062/1/2 915/1/2
f 906/1/1 914/1/1 1063/1/1 1064/1/1
f 906/1/3 1064/1/3 1061/1/3 905/1/3
f 914/1/4 915/1/4 1062/1/4 1063/1/4
f 920/8/2 1065/8/2 1066/8/2 923/8/2
f 919/8/1 918/8/1 1067/8/1 1068/8/1
f 919/8/3 1068/8/3 1065/8/3 920/8/3
f 1068/8/6 1067/8/6 1066/8/6 1065/8/6
f 925/2/1 924/2/1 1069/2/1 1070/2/1
f 925/2/3 1070/2/3 1058/2/3 908/2/3
f 1070/2/6 1069/2/6 1071/2/6 1058/2/6
f 911/2/2 1060/2/2 1072/2/2 926/2/2
f 918/9/1 931/9/1 1073/9/1 1067/9/1
f 922/8/2 1074/8/2 1075/8/2 933/8/2
f 923/8/3 1066/8/3 1074/8/3 922/8/3
f 1066/8/6 1076/8/6 1075/8/6 1074/8/6
f 941/2/1 942/2/1 1077/2/1 1078/2/1
f 941/2/3 1078/2/3 1069/2/3 924/2/3
f 1078/2/6 1077/2/6 1079/2/6 1069/2/6
f 926/2/2 1072/2/2 1080/2/2 944/2/2
f 1071/2/6 1081/2/6 1080/2/6 1072/2/6
f 927/2/1 946/2/1 1082/2/1 1083/2/1
f 927/2/3 1083/2/3 1084/2/3 929/2/3
f 1083/2/6 1082/2/6 1085/2/6 1084/2/6
f 929/2/3 1084/2/3 1086/2/3 930/2/3
f 1084/2/6 1085/2/6 1087/2/6 1086/2/6
f 947/2/2 1088/2/2 1089/2/2 948/2/2
f 930/2/3 1086/2/3 1088/2/3 947/2/3
f 931/9/1 949/9/1 1090/9/1 1073/9/1
f 933/2/3 1075/2/3 1091/2/3 934/2/3
f 1075/2/6 1092/2/6 1093/2/6 1091/2/6
f 934/2/3 1091/2/3 1094/2/3 936/2/3
f 1091/2/6 1093/2/6 1095/2/6 1094/2/6
f 936/2/3 1094/2/3 1096/2/3 938/2/3
f 1094/2/6 1095/2/6 1097/2/6 1096/2/6
f 940/2/2 1098/2/2 1099/2/2 950/2/2
f 938/2/3 1096/2/3 1098/2/3 940/2/3
f 1096/2/6 1097/2/6 1099/2/6 1098/2/6
f 942/2/1 951/2/1 1100/2/1 1077/2/1
f 1079/2/6 1101/2/6 1102/2/6 1081/2/6
f 1081/2/6 1102/2/6 1103/2/6 1080/2/6
f 944/2/3 1080/2/3 1104/2/3 945/2/3
f 945/2/3 1104/2/3 1082/2/3 946/2/3
f 1082/2/6 1105/2/6 1106/2/6 1085/2/6
f 1085/2/6 1106/2/6 1107/2/6 1087/2/6
f 948/2/2 1089/2/2 1108/2/2 952/2/2
f 949/9/1 953/9/1 1109/9/1 1090/9/1
f 960/2/4 961/2/4 1110/2/4 1111/2/4
f 1092/2/6 1111/2/6 1110/2/6 1093/2/6
f 961/2/4 963/2/4 1112/2/4 1110/2/4
f 1093/2/6 1110/2/6 1112/2/6 1095/2/6
f 963/2/4 965/2/4 1113/2/4 1112/2/4
f 1095/2/6 1112/2/6 1113/2/6 1097/2/6
f 1097/2/6 1113/2/6 1114/2/6 1099/2/6
f 950/2/3 1099/2/3 1100/2/3 951/2/3
f 1100/2/6 1115/2/6 1116/2/6 1101/2/6
f 1101/2/6 1116/2/6 1117/2/6 1102/2/6
f 1102/2/6 1117/2/6 1118/2/6 1103/2/6
f 1105/2/6 1119/2/6 1120/2/6 1106/2/6
f 954/1/2 1121/1/2 1122/1/2 955/1/2
f 952/1/3 1108/1/3 1121/1/3 954/1/3
f 953/9/1 957/9/1 1123/9/1 1109/9/1
f 960/4/2 1111/4/2 1124/4/2 959/4/2
f 974/4/4 959/4/4 1124/4/4 1125/4/4
f 1126/4/6 1125/4/6 1124/4/6 1111/4/6
f 965/2/1 964/2/1 1127/2/1 1113/2/1
f 964/2/4 966/2/4 1128/2/4 1127/2/4
f 1113/2/6 1127/2/6 1128/2/6 1114/2/6
f 966/2/4 967/2/4 1129/2/4 1128/2/4
f 968/2/4 977/2/4 1130/2/4 1131/2/4
f 1117/2/6 1130/2/6 1132/2/6 1118/2/6
f 978/12/4 981/12/4 1133/12/4 1132/12/4
f 981/2/4 984/2/4 1134/2/4 1133/2/4
f 1119/2/6 1134/2/6 1135/2/6 1120/2/6
f 955/1/2 1122/1/2 1136/1/2 988/1/2
f 969/1/4 988/1/4 1136/1/4 1137/1/4
f 1138/1/6 1137/1/6 1136/1/6 1122/1/6
f 956/1/5 955/1/5 988/1/5 969/1/5
f 974/4/2 1125/4/2 1139/4/2 972/4/2
f 957/4/1 971/4/1 1140/4/1 1123/4/1
f 971/4/4 972/4/4 1139/4/4 1140/4/4
f 1123/4/6 1140/4/6 1139/4/6 1125/4/6
f 968/12/2 1131/12/2 1141/12/2 975/12/2
f 967/12/1 1142/12/1 1143/12/1 1129/12/1
f 1142/12/4 975/12/4 1141/12/4 1143/12/4
f 1129/12/6 1143/12/6 1141/12/6 1131/12/6
f 967/12/5 968/12/5 975/12/5 1142/12/5
f 978/3/2 1132/3/2 1144/3/2 979/3/2
f 977/3/1 976/3/1 1145/3/1 1130/3/1
f 1130/3/6 1145/3/6 1144/3/6 1132/3/6
f 984/2/1 983/2/1 1146/2/1 1134/2/1
f 983/2/4 986/2/4 1147/2/4 1146/2/4
f 1134/2/6 1146/2/6 1147/2/6 1135/2/6
f 969/1/2 1137/1/2 1148/1/2 990/1/2
f 970/1/5 969/1/5 990/1/5 987/1/5
f 979/3/2 1144/3/2 1149/3/2 993/3/2
f 976/3/1 991/3/1 1150/3/1 1145/3/1
f 991/3/4 993/3/4 1149/3/4 1150/3/4
f 1145/3/6 1150/3/6 1149/3/6 1144/3/6
f 986/2/1 995/2/1 1151/2/1 1147/2/1
f 995/2/4 996/2/4 1152/2/4 1151/2/4
f 1147/2/6 1151/2/6 1152/2/6 1153/2/6
f 990/2/2 1148/2/2 1154/2/2 998/2/2
f 1153/2/6 1152/2/6 1154/2/6 1148/2/6
f 1006/1/2 1155/1/2 1156/1/2 1007/1/2
f 992/1/1 1005/1/1 1157/1/1 1158/1/1
f 992/1/3 1158/1/3 1155/1/3 1006/1/3
f 1158/1/6 1157/1/6 1156/1/6 1155/1/6
f 998/2/2 1154/2/2 1159/2/2 1008/2/2
f 996/2/1 1009/2/1 1160/2/1 1152/2/1
f 1009/2/4 1008/2/4 1159/2/4 1160/2/4
f 1152/2/6 1160/2/6 1159/2/6 1154/2/6
f 1007/1/2 1156/1/2 1161/1/2 1014/1/2
f 1005/1/1 1012/1/1 1162/1/1 1157/1/1
f 1012/1/4 1014/1/4 1161/1/4 1162/1/4
f 1157/1/6 1162/1/6 1161/1/6 1156/1/6
f 1020/6/2 1163/6/2 1164/6/2 1021/6/2
f 1010/6/1 1022/6/1 1165/6/1 1166/6/1
f 1010/6/3 1166/6/3 1163/6/3 1020/6/3
f 1022/6/4 1021/6/4 1164/6/4 1165/6/4
f 1166/6/6 1165/6/6 1164/6/6 1163/6/6
f 1018/1/2 1167/1/2 1168/1/2 1027/1/2
f 1019/1/1 1029/1/1 1169/1/1 1170/1/1
f 1019/1/3 1170/1/3 1167/1/3 1018/1/3
f 1029/1/4 1027/1/4 1168/1/4 1169/1/4
f 1170/1/6 1169/1/6 1168/1/6 1167/1/6
f 1025/1/1 1034/1/1 1171/1/1 1172/1/1
f 1025/1/3 1172/1/3 1173/1/3 1026/1/3
f 1034/1/4 1035/1/4 1174/1/4 1171/1/4
f 1172/1/6 1171/1/6 1174/1/6 1173/1/6
f 1029/1/2 1169/1/2 1175/1/2 1036/1/2
f 1026/1/3 1173/1/3 1169/1/3 1029/1/3
f 1035/1/4 1036/1/4 1175/1/4 1174/1/4
f 1173/1/6 1174/1/6 1175/1/6 1169/1/6
f 1038/7/1 1037/7/1 1176/7/1 1177/7/1
f 1038/7/3 1177/7/3 1178/7/3 1039/7/3
f 1177/7/6 1176/7/6 1179/7/6 1178/7/6
f 1040/7/2 1180/7/2 1181/7/2 1041/7/2
f 1039/7/3 1178/7/3 1180/7/3 1040/7/3
f 1042/7/4 1041/7/4 1181/7/4 1179/7/4
f 1178/7/6 1179/7/6 1181/7/6 1180/7/6
f 1042/1/2 1179/1/2 1182/1/2 1048/1/2
f 1037/1/1 1047/1/1 1183/1/1 1176/1/1
f 1047/1/4 1048/1/4 1182/1/4 1183/1/4
f 1176/1/6 1183/1/6 1182/1/6 1179/1/6
f 1043/3/1 1049/3/1 1184/3/1 1185/3/1
f 1043/3/3 1185/3/3 1186/3/3 1046/3/3
f 1185/3/6 1184/3/6 1187/3/6 1186/3/6
f 1047/1/2 1183/1/2 1188/1/2 1050/1/2
f 1046/1/3 1186/1/3 1183/1/3 1047/1/3
f 1051/1/4 1050/1/4 1188/1/4 1187/1/4
f 1054/6/1 1055/6/1 1189/6/1 1190/6/1
f 1054/6/3 1190/6/3 1184/6/3 1049/6/3
f 1190/6/6 1189/6/6 1191/6/6 1184/6/6
f 1051/3/2 1187/3/2 1192/3/2 1056/3/2
f 1057/3/4 1056/3/4 1192/3/4 1191/3/4
f 1052/3/1 1058/3/1 1193/3/1 1194/3/1
f 1052/3/3 1194/3/3 1189/3/3 1055/3/3
f 1194/3/6 1193/3/6 1195/3/6 1189/3/6
f 1057/1/2 1191/1/2 1196/1/2 1059/1/2
f 1060/1/4 1059/1/4 1196/1/4 1195/1/4
f 1061/1/2 1197/1/2 1198/1/2 1062/1/2
f 1064/1/1 1063/1/1 1199/1/1 1200/1/1
f 1064/1/3 1200/1/3 1197/1/3 1061/1/3
f 1060/3/2 1195/3/2 1201/3/2 1072/3/2
f 1058/3/1 1071/3/1 1202/3/1 1193/3/1
f 1071/3/4 1072/3/4 1201/3/4 1202/3/4
f 1193/3/6 1202/3/6 1201/3/6 1195/3/6
f 1062/1/2 1198/1/2 1203/1/2 1088/1/2
f 1063/1/1 1086/1/1 1204/1/1 1199/1/1
f 1199/1/6 1204/1/6 1203/1/6 1198/1/6
f 1063/1/5 1062/1/5 1088/1/5 1086/1/5
f 1066/4/2 1205/4/2 1206/4/2 1076/4/2
f 1067/4/1 1073/4/1 1207/4/1 1208/4/1
f 1067/4/3 1208/4/3 1205/4/3 1066/4/3
f 1208/4/6 1207/4/6 1206/4/6 1205/4/6
f 1071/12/2 1202/12/2 1209/12/2 1081/12/2
f 1069/12/1 1079/12/1 1210/12/1 1211/12/1
f 1069/12/3 1211/12/3 1202/12/3 1071/12/3
f 1079/12/4 1081/12/4 1209/12/4 1210/12/4
f 1211/12/6 1210/12/6 1209/12/6 1202/12/6
f 1088/2/2 1203/2/2 1212/2/2 1089/2/2
f 1086/2/1 1087/2/1 1213/2/1 1204/2/1
f 1204/2/6 1213/2/6 1212/2/6 1203/2/6
f 1073/4/1 1090/4/1 1214/4/1 1207/4/1
f 1207/4/6 1214/4/6 1215/4/6 1206/4/6
f 1075/4/2 1216/4/2 1217/4/2 1092/4/2
f 1076/4/3 1206/4/3 1216/4/3 1075/4/3
f 1206/4/6 1215/4/6 1217/4/6 1216/4/6
f 1079/12/2 1210/12/2 1218/12/2 1101/12/2
f 1077/12/1 1100/12/1 1219/12/1 1220/12/1
f 1077/12/3 1220/12/3 1210/12/3 1079/12/3
f 1100/12/4 1101/12/4 1218/12/4 1219/12/4
f 1080/2/1 1103/2/1 1221/2/1 1222/2/1
f 1080/2/3 1222/2/3 1223/2/3 1104/2/3
f 1222/2/6 1221/2/6 1224/2/6 1223/2/6
f 1082/2/2 1225/2/2 1226/2/2 1105/2/2
f 1104/2/3 1223/2/3 1225/2/3 1082/2/3
f 1087/2/1 1107/2/1 1227/2/1 1213/2/1
f 1213/2/6 1227/2/6 1228/2/6 1212/2/6
f 1229/5/2 1230/5/2 1231/5/2 1121/5/2
f 1089/5/3 1212/5/3 1230/5/3 1229/5/3
f 1212/5/6 1228/5/6 1231/5/6 1230/5/6
f 1089/5/5 1229/5/5 1121/5/5 1108/5/5
f 1090/8/1 1109/8/1 1232/8/1 1214/8/1
f 1214/8/6 1232/8/6 1233/8/6 1215/8/6
f 1092/4/2 1217/4/2 1234/4/2 1111/4/2
f 1126/4/4 1111/4/4 1234/4/4 1233/4/4
f 1215/4/6 1233/4/6 1234/4/6 1217/4/6
f 1100/2/2 1219/2/2 1235/2/2 1115/2/2
f 1099/2/1 1114/2/1 1236/2/1 1237/2/1
f 1099/2/3 1237/2/3 1219/2/3 1100/2/3
f 1237/2/6 1236/2/6 1235/2/6 1219/2/6
f 1103/2/1 1118/2/1 1238/2/1 1221/2/1
f 1221/2/6 1238/2/6 1239/2/6 1224/2/6
f 1105/2/2 1226/2/2 1240/2/2 1119/2/2
f 1106/3/1 1120/3/1 1241/3/1 1242/3/1
f 1106/3/3 1242/3/3 1227/3/3 1107/3/3
f 1242/3/6 1241/3/6 1243/3/6 1227/3/6
f 1227/1/6 1243/1/6 1244/1/6 1228/1/6
f 1121/1/2 1231/1/2 1245/1/2 1122/1/2
f 1138/1/4 1122/1/4 1245/1/4 1244/1/4
f 1228/1/6 1244/1/6 1245/1/6 1231/1/6
f 1126/8/2 1233/8/2 1246/8/2 1125/8/2
f 1109/8/1 1123/8/1 1247/8/1 1232/8/1
f 1123/8/4 1125/8/4 1246/8/4 1247/8/4
f 1232/8/6 1247/8/6 1246/8/6 1233/8/6
f 1114/2/1 1128/2/1 1248/2/1 1236/2/1
f 1128/2/4 1129/2/4 1249/2/4 1248/2/4
f 1236/2/6 1248/2/6 1249/2/6 1235/2/6
f 1115/2/3 1235/2/3 1250/2/3 1116/2/3
f 1129/2/4 1131/2/4 1251/2/4 1249/2/4
f 1117/2/2 1252/2/2 1253/2/2 1130/2/2
f 1116/2/3 1250/2/3 1252/2/3 1117/2/3
f 1118/12/1 1132/12/1 1254/12/1 1238/12/1
f 1132/12/4 1133/12/4 1255/12/4 1254/12/4
f 1238/12/6 1254/12/6 1255/12/6 1239/12/6
f 1119/12/2 1240/12/2 1256/12/2 1134/12/2
f 1133/12/4 1134/12/4 1256/12/4 1255/12/4
f 1120/1/1 1135/1/1 1257/1/1 1241/1/1
f 1241/1/6 1257/1/6 1258/1/6 1243/1/6
f 1138/1/2 1244/1/2 1259/1/2 1137/1/2
f 1243/1/6 1258/1/6 1259/1/6 1244/1/6
f 1130/2/2 1253/2/2 1260/2/2 1145/2/2
f 1131/2/1 1141/2/1 1261/2/1 1251/2/1
f 1251/2/6 1261/2/6 1260/2/6 1253/2/6
f 1131/2/5 1130/2/5 1145/2/5 1141/2/5
f 1135/1/1 1147/1/1 1262/1/1 1257/1/1
f 1147/1/4 1153/1/4 1263/1/4 1262/1/4
f 1257/1/6 1262/1/6 1263/1/6 1258/1/6
f 1137/1/2 1259/1/2 1264/1/2 1148/1/2
f 1153/1/4 1148/1/4 1264/1/4 1263/1/4
f 1258/1/6 1263/1/6 1264/1/6 1259/1/6
f 1143/6/1 1265/6/1 1266/6/1 1267/6/1
f 1143/6/3 1267/6/3 1261/6/3 1141/6/3
f 1267/6/6 1266/6/6 1268/6/6 1261/6/6
f 1143/6/5 1141/6/5 1269/6/5 1265/6/5
f 1145/2/2 1260/2/2 1270/2/2 1150/2/2
f 1141/2/5 1145/2/5 1150/2/5 1269/2/5
f 1265/6/1 1271/6/1 1272/6/1 1266/6/1
f 1271/6/4 1273/6/4 1274/6/4 1272/6/4
f 1266/6/6 1272/6/6 1274/6/6 1268/6/6
f 1265/6/5 1269/6/5 1273/6/5 1271/6/5
f 1150/2/2 1270/2/2 1275/2/2 1276/2/2
f 1273/2/4 1276/2/4 1275/2/4 1274/2/4
f 1269/2/5 1150/2/5 1276/2/5 1273/2/5
f 1183/1/2 1277/1/2 1278/1/2 1188/1/2
f 1186/1/1 1187/1/1 1279/1/1 1280/1/1
f 1186/1/3 1280/1/3 1277/1/3 1183/1/3
f 1280/1/6 1279/1/6 1278/1/6 1277/1/6
f 1184/6/1 1191/6/1 1281/6/1 1282/6/1
f 1184/6/3 1282/6/3 1279/6/3 1187/6/3
f 1191/6/4 1192/6/4 1283/6/4 1281/6/4
f 1282/6/6 1281/6/6 1283/6/6 1279/6/6
f 1188/1/2 1278/1/2 1284/1/2 1285/1/2
f 1279/1/6 1283/1/6 1284/1/6 1278/1/6
f 1187/1/5 1188/1/5 1285/1/5 1192/1/5
f 1191/1/2 1281/1/2 1286/1/2 1196/1/2
f 1189/1/1 1195/1/1 1287/1/1 1288/1/1
f 1189/1/3 1288/1/3 1281/1/3 1191/1/3
f 1195/1/4 1196/1/4 1286/1/4 1287/1/4
f 1285/1/2 1284/1/2 1289/1/2 1290/1/2
f 1192/1/1 1291/1/1 1292/1/1 1283/1/1
f 1283/1/6 1292/1/6 1289/1/6 1284/1/6
f 1192/1/5 1285/1/5 1290/1/5 1291/1/5
f 1197/1/2 1293/1/2 1294/1/2 1198/1/2
f 1200/1/1 1199/1/1 1295/1/1 1296/1/1
f 1200/1/3 1296/1/3 1293/1/3 1197/1/3
f 1199/1/4 1198/1/4 1294/1/4 1295/1/4
f 1290/1/2 1289/1/2 1297/1/2 1298/1/2
f 1291/1/1 1299/1/1 1300/1/1 1292/1/1
f 1292/1/6 1300/1/6 1297/1/6 1289/1/6
f 1291/1/5 1290/1/5 1298/1/5 1299/1/5
f 1298/1/2 1297/1/2 1301/1/2 1302/1/2
f 1299/1/1 1225/1/1 1303/1/1 1300/1/1
f 1300/1/6 1303/1/6 1301/1/6 1297/1/6
f 1299/1/5 1298/1/5 1302/1/5 1225/1/5
f 1210/6/2 1304/6/2 1305/6/2 1218/6/2
f 1220/6/1 1219/6/1 1306/6/1 1307/6/1
f 1220/6/3 1307/6/3 1304/6/3 1210/6/3
f 1307/6/6 1306/6/6 1305/6/6 1304/6/6
f 1223/2/1 1224/2/1 1308/2/1 1309/2/1
f 1223/2/3 1309/2/3 1303/2/3 1225/2/3
f 1309/2/6 1308/2/6 1310/2/6 1303/2/6
f 1302/5/2 1301/5/2 1311/5/2 1242/5/2
f 1225/5/5 1302/5/5 1242/5/5 1226/5/5
f 1218/2/2 1305/2/2 1312/2/2 1250/2/2
f 1219/2/1 1235/2/1 1313/2/1 1306/2/1
f 1306/2/6 1313/2/6 1312/2/6 1305/2/6
f 1219/2/5 1218/2/5 1250/2/5 1235/2/5
f 1224/2/1 1239/2/1 1314/2/1 1308/2/1
f 1242/2/2 1311/2/2 1315/2/2 1241/2/2
f 1240/2/4 1241/2/4 1315/2/4 1316/2/4
f 1226/2/5 1242/2/5 1241/2/5 1240/2/5
f 1235/2/1 1249/2/1 1317/2/1 1313/2/1
f 1249/2/4 1251/2/4 1318/2/4 1317/2/4
f 1252/2/2 1319/2/2 1320/2/2 1253/2/2
f 1250/2/3 1312/2/3 1319/2/3 1252/2/3
f 1251/2/4 1253/2/4 1320/2/4 1318/2/4
f 1240/3/2 1316/3/2 1321/3/2 1256/3/2
f 1239/3/1 1255/3/1 1322/3/1 1314/3/1
f 1255/3/4 1256/3/4 1321/3/4 1322/3/4
f 1314/3/6 1322/3/6 1321/3/6 1316/3/6
f 1260/12/2 1323/12/2 1324/12/2 1270/12/2
f 1261/12/1 1268/12/1 1325/12/1 1326/12/1
f 1261/12/3 1326/12/3 1323/12/3 1260/12/3
f 1326/12/6 1325/12/6 1324/12/6 1323/12/6
f 1268/2/1 1274/2/1 1327/2/1 1325/2/1
f 1274/2/4 1275/2/4 1328/2/4 1327/2/4
f 1325/2/6 1327/2/6 1328/2/6 1324/2/6
f 1329/2/2 1330/2/2 1331/2/2 1332/2/2
f 1270/2/3 1324/2/3 1330/2/3 1329/2/3
f 1275/2/4 1332/2/4 1331/2/4 1328/2/4
f 1270/2/5 1329/2/5 1332/2/5 1275/2/5
f 1333/1/2 1334/1/2 1335/1/2 1336/1/2
f 1337/1/1 1338/1/1 1339/1/1 1340/1/1
f 1337/1/3 1340/1/3 1334/1/3 1333/1/3
f 1338/1/4 1336/1/4 1335/1/4 1339/1/4
f 1340/1/6 1339/1/6 1335/1/6 1334/1/6
f 1337/1/5 1333/1/5 1336/1/5 1338/1/5
f 1341/3/1 1342/3/1 1343/3/1 1344/3/1
f 1341/3/3 1344/3/3 1345/3/3 1346/3/3
f 1341/3/5 1346/3/5 1347/3/5 1342/3/5
f 1348/1/2 1349/1/2 1350/1/2 1351/1/2
f 1346/1/3 1345/1/3 1349/1/3 1348/1/3
f 1346/1/5 1348/1/5 1351/1/5 1347/1/5
f 1342/3/1 1352/3/1 1353/3/1 1343/3/1
f 1352/3/4 1354/3/4 1355/3/4 1353/3/4
f 1342/3/5 1347/3/5 1354/3/5 1352/3/5
f 1351/1/2 1350/1/2 1356/1/2 1357/1/2
f 1354/1/4 1357/1/4 1356/1/4 1355/1/4
f 1358/1/6 1355/1/6 1356/1/6 1350/1/6
f 1347/1/5 1351/1/5 1357/1/5 1354/1/5
f 1281/1/2 1359/1/2 1360/1/2 1286/1/2
f 1288/1/1 1287/1/1 1361/1/1 1362/1/1
f 1288/1/3 1362/1/3 1359/1/3 1281/1/3
f 1287/1/4 1286/1/4 1360/1/4 1361/1/4
f 1362/1/6 1361/1/6 1360/1/6 1359/1/6
f 1293/1/2 1363/1/2 1364/1/2 1294/1/2
f 1296/1/1 1295/1/1 1365/1/1 1366/1/1
f 1296/1/3 1366/1/3 1363/1/3 1293/1/3
f 1295/1/4 1294/1/4 1364/1/4 1365/1/4
f 1366/1/6 1365/1/6 1364/1/6 1363/1/6
f 1367/1/2 1368/1/2 1369/1/2 1370/1/2
f 1371/1/1 1372/1/1 1373/1/1 1374/1/1
f 1371/1/3 1374/1/3 1368/1/3 1367/1/3
f 1371/1/5 1367/1/5 1370/1/5 1372/1/5
f 1303/5/1 1310/5/1 1375/5/1 1376/5/1
f 1303/5/3 1376/5/3 1377/5/3 1301/5/3
f 1376/5/6 1375/5/6 1378/5/6 1377/5/6
f 1379/5/2 1380/5/2 1381/5/2 1382/5/2
f 1301/5/3 1377/5/3 1380/5/3 1379/5/3
f 1301/5/5 1379/5/5 1382/5/5 1311/5/5
f 1305/2/1 1312/2/1 1383/2/1 1384/2/1
f 1305/2/3 1384/2/3 1373/2/3 1372/2/3
f 1305/2/5 1372/2/5 1319/2/5 1312/2/5
f 1370/2/2 1369/2/2 1385/2/2 1386/2/2
f 1372/2/5 1370/2/5 1386/2/5 1319/2/5
f 1308/3/1 1314/3/1 1387/3/1 1388/3/1
f 1308/3/3 1388/3/3 1375/3/3 1310/3/3
f 1314/3/4 1316/3/4 1389/3/4 1387/3/4
f 1388/3/6 1387/3/6 1389/3/6 1375/3/6
f 1316/2/4 1315/2/4 1390/2/4 1389/2/4
f 1375/2/6 1389/2/6 1390/2/6 1378/2/6
f 1382/2/2 1381/2/2 1391/2/2 1392/2/2
f 1311/2/5 1382/2/5 1392/2/5 1315/2/5
f 1313/12/1 1317/12/1 1393/12/1 1394/12/1
f 1313/12/3 1394/12/3 1383/12/3 1312/12/3
f 1317/12/4 1318/12/4 1395/12/4 1393/12/4
f 1394/12/6 1393/12/6 1395/12/6 1383/12/6
f 1318/2/4 1320/2/4 1396/2/4 1395/2/4
f 1383/2/6 1395/2/6 1396/2/6 1397/2/6
f 1386/2/2 1385/2/2 1398/2/2 1399/2/2
f 1319/2/5 1386/2/5 1399/2/5 1320/2/5
f 1392/1/2 1391/1/2 1400/1/2 1401/1/2
f 1315/1/1 1402/1/1 1403/1/1 1390/1/1
f 1390/1/6 1403/1/6 1400/1/6 1391/1/6
f 1315/1/5 1392/1/5 1401/1/5 1402/1/5
f 1399/3/2 1398/3/2 1404/3/2 1405/3/2
f 1320/3/1 1323/3/1 1406/3/1 1396/3/1
f 1323/3/4 1405/3/4 1404/3/4 1406/3/4
f 1320/3/5 1399/3/5 1405/3/5 1323/3/5
f 1401/1/2 1400/1/2 1407/1/2 1408/1/2
f 1402/1/1 1409/1/1 1410/1/1 1403/1/1
f 1403/1/6 1410/1/6 1407/1/6 1400/1/6
f 1402/1/5 1401/1/5 1408/1/5 1409/1/5
f 1408/1/2 1407/1/2 1411/1/2 1412/1/2
f 1409/1/1 1413/1/1 1414/1/1 1410/1/1
f 1413/1/4 1412/1/4 1411/1/4 1414/1/4
f 1410/1/6 1414/1/6 1411/1/6 1407/1/6
f 1409/1/5 1408/1/5 1412/1/5 1413/1/5
f 1330/2/2 1415/2/2 1416/2/2 1331/2/2
f 1324/2/1 1328/2/1 1417/2/1 1418/2/1
f 1324/2/3 1418/2/3 1415/2/3 1330/2/3
f 1331/2/2 1416/2/2 1419/2/2 1345/2/2
f 1328/2/1 1344/2/1 1420/2/1 1417/2/1
f 1328/2/5 1331/2/5 1345/2/5 1344/2/5
f 1344/2/1 1343/2/1 1421/2/1 1420/2/1
f 1420/2/6 1421/2/6 1422/2/6 1419/2/6
f 1345/2/3 1419/2/3 1423/2/3 1349/2/3
f 1358/2/4 1350/2/4 1424/2/4 1422/2/4
f 1419/2/6 1422/2/6 1424/2/6 1423/2/6
f 1349/2/3 1423/2/3 1425/2/3 1426/2/3
f 1349/2/5 1426/2/5 1427/2/5 1350/2/5
f 1339/2/2 1428/2/2 1429/2/2 1430/2/2
f 1426/2/3 1425/2/3 1428/2/3 1339/2/3
f 1427/2/4 1430/2/4 1429/2/4 1431/2/4
f 1425/2/6 1431/2/6 1429/2/6 1428/2/6
f 1426/2/5 1339/2/5 1430/2/5 1427/2/5
f 1358/3/2 1422/3/2 1432/3/2 1355/3/2
f 1343/3/1 1353/3/1 1433/3/1 1421/3/1
f 1353/3/4 1355/3/4 1432/3/4 1433/3/4
f 1421/3/6 1433/3/6 1432/3/6 1422/3/6
f 1427/1/2 1431/1/2 1434/1/2 1435/1/2
f 1350/1/1 1356/1/1 1436/1/1 1424/1/1
f 1356/1/4 1435/1/4 1434/1/4 1436/1/4
f 1350/1/5 1427/1/5 1435/1/5 1356/1/5
f 1359/7/1 1360/7/1 1437/7/1 1438/7/1
f 1359/7/3 1438/7/3 1439/7/3 1440/7/3
f 1360/7/4 1441/7/4 1442/7/4 1437/7/4
f 1438/7/6 1437/7/6 1442/7/6 1439/7/6
f 1359/7/5 1440/7/5 1441/7/5 1360/7/5
f 1440/7/3 1439/7/3 1443/7/3 1444/7/3
f 1441/7/4 1445/7/4 1446/7/4 1442/7/4
f 1439/7/6 1442/7/6 1446/7/6 1443/7/6
f 1440/7/5 1444/7/5 1445/7/5 1441/7/5
f 1366/7/2 1447/7/2 1448/7/2 1365/7/2
f 1444/7/3 1443/7/3 1447/7/3 1366/7/3
f 1445/7/4 1365/7/4 1448/7/4 1446/7/4
f 1443/7/6 1446/7/6 1448/7/6 1447/7/6
f 1444/7/5 1366/7/5 1365/7/5 1445/7/5
f 1368/1/2 1449/1/2 1450/1/2 1369/1/2
f 1374/1/1 1373/1/1 1451/1/1 1452/1/1
f 1374/1/3 1452/1/3 1449/1/3 1368/1/3
f 1452/1/6 1451/1/6 1450/1/6 1449/1/6
f 1377/5/1 1378/5/1 1453/5/1 1454/5/1
f 1377/5/3 1454/5/3 1455/5/3 1380/5/3
f 1454/5/6 1453/5/6 1456/5/6 1455/5/6
f 1380/5/3 1455/5/3 1457/5/3 1458/5/3
f 1380/5/5 1458/5/5 1459/5/5 1381/5/5
f 1460/6/2 1461/6/2 1462/6/2 1463/6/2
f 1458/6/3 1457/6/3 1461/6/3 1460/6/3
f 1459/6/4 1463/6/4 1462/6/4 1464/6/4
f 1458/6/5 1460/6/5 1463/6/5 1459/6/5
f 1384/6/1 1383/6/1 1465/6/1 1466/6/1
f 1384/6/3 1466/6/3 1451/6/3 1373/6/3
f 1383/6/4 1397/6/4 1467/6/4 1465/6/4
f 1466/6/6 1465/6/6 1467/6/6 1451/6/6
f 1388/2/2 1468/2/2 1469/2/2 1387/2/2
f 1369/2/3 1450/2/3 1468/2/3 1388/2/3
f 1369/2/5 1388/2/5 1387/2/5 1385/2/5
f 1378/2/1 1390/2/1 1470/2/1 1453/2/1
f 1390/2/4 1391/2/4 1471/2/4 1470/2/4
f 1453/2/6 1470/2/6 1471/2/6 1456/2/6
f 1459/2/2 1464/2/2 1472/2/2 1473/2/2
f 1391/2/4 1473/2/4 1472/2/4 1471/2/4
f 1381/2/5 1459/2/5 1473/2/5 1391/2/5
f 1397/2/1 1396/2/1 1474/2/1 1467/2/1
f 1387/2/2 1469/2/2 1475/2/2 1476/2/2
f 1398/2/4 1476/2/4 1475/2/4 1477/2/4
f 1385/2/5 1387/2/5 1476/2/5 1398/2/5
f 1398/3/2 1477/3/2 1478/3/2 1404/3/2
f 1396/3/1 1406/3/1 1479/3/1 1474/3/1
f 1406/3/4 1404/3/4 1478/3/4 1479/3/4
f 1474/3/6 1479/3/6 1478/3/6 1477/3/6
f 1415/1/2 1480/1/2 1481/1/2 1416/1/2
f 1418/1/1 1417/1/1 1482/1/1 1483/1/1
f 1418/1/3 1483/1/3 1480/1/3 1415/1/3
f 1483/1/6 1482/1/6 1481/1/6 1480/1/6
f 1416/1/2 1481/1/2 1484/1/2 1419/1/2
f 1417/1/1 1420/1/1 1485/1/1 1482/1/1
f 1420/1/4 1419/1/4 1484/1/4 1485/1/4
f 1482/1/6 1485/1/6 1484/1/6 1481/1/6
f 1425/1/2 1486/1/2 1487/1/2 1431/1/2
f 1423/1/1 1424/1/1 1488/1/1 1489/1/1
f 1423/1/3 1489/1/3 1486/1/3 1425/1/3
f 1489/1/6 1488/1/6 1487/1/6 1486/1/6
f 1431/1/2 1487/1/2 1490/1/2 1434/1/2
f 1424/1/1 1436/1/1 1491/1/1 1488/1/1
f 1436/1/4 1434/1/4 1490/1/4 1491/1/4
f 1488/1/6 1491/1/6 1490/1/6 1487/1/6
f 1437/1/2 1492/1/2 1493/1/2 1494/1/2
f 1495/1/1 1496/1/1 1497/1/1 1498/1/1
f 1495/1/3 1498/1/3 1492/1/3 1437/1/3
f 1498/1/6 1497/1/6 1493/1/6 1492/1/6
f 1495/1/5 1437/1/5 1494/1/5 1496/1/5
f 1494/1/2 1493/1/2 1499/1/2 1500/1/2
f 1496/1/1 1449/1/1 1501/1/1 1497/1/1
f 1497/1/6 1501/1/6 1499/1/6 1493/1/6
f 1496/1/5 1494/1/5 1500/1/5 1449/1/5
f 1500/1/2 1499/1/2 1502/1/2 1468/1/2
f 1449/1/1 1450/1/1 1503/1/1 1501/1/1
f 1501/1/6 1503/1/6 1502/1/6 1499/1/6
f 1449/1/5 1500/1/5 1468/1/5 1450/1/5
f 1455/5/1 1456/5/1 1504/5/1 1505/5/1
f 1455/5/3 1505/5/3 1506/5/3 1457/5/3
f 1505/5/6 1504/5/6 1507/5/6 1506/5/6
f 1461/5/2 1508/5/2 1509/5/2 1462/5/2
f 1457/5/3 1506/5/3 1508/5/3 1461/5/3
f 1451/1/1 1467/1/1 1510/1/1 1511/1/1
f 1451/1/3 1511/1/3 1503/1/3 1450/1/3
f 1511/1/6 1510/1/6 1512/1/6 1503/1/6
f 1503/2/6 1512/2/6 1513/2/6 1502/2/6
f 1514/2/2 1515/2/2 1516/2/2 1517/2/2
f 1468/2/3 1502/2/3 1515/2/3 1514/2/3
f 1468/2/5 1514/2/5 1517/2/5 1469/2/5
f 1456/2/1 1471/2/1 1518/2/1 1504/2/1
f 1471/2/4 1472/2/4 1519/2/4 1518/2/4
f 1504/2/6 1518/2/6 1519/2/6 1507/2/6
f 1462/5/2 1509/5/2 1520/5/2 1521/5/2
f 1472/5/4 1521/5/4 1520/5/4 1519/5/4
f 1464/5/5 1462/5/5 1521/5/5 1472/5/5
f 1467/1/1 1474/1/1 1522/1/1 1510/1/1
f 1474/1/4 1477/1/4 1523/1/4 1522/1/4
f 1510/1/6 1522/1/6 1523/1/6 1512/1/6
f 1477/2/4 1475/2/4 1524/2/4 1523/2/4
f 1512/2/6 1523/2/6 1524/2/6 1513/2/6
f 1517/2/2 1516/2/2 1525/2/2 1526/2/2
f 1475/2/4 1526/2/4 1525/2/4 1524/2/4
f 1469/2/5 1517/2/5 1526/2/5 1475/2/5
f 1527/7/1 1505/7/1 1528/7/1 1529/7/1
f 1527/7/3 1529/7/3 1530/7/3 1531/7/3
f 1505/7/4 1506/7/4 1532/7/4 1528/7/4
f 1529/7/6 1528/7/6 1532/7/6 1530/7/6
f 1527/7/5 1531/7/5 1506/7/5 1505/7/5
f 1533/7/2 1534/7/2 1535/7/2 1508/7/2
f 1531/7/3 1530/7/3 1534/7/3 1533/7/3
f 1530/7/6 1532/7/6 1535/7/6 1534/7/6
f 1531/7/5 1533/7/5 1508/7/5 1506/7/5
f 1499/1/1 1502/1/1 1536/1/1 1537/1/1
f 1499/1/3 1537/1/3 1538/1/3 1539/1/3
f 1537/1/6 1536/1/6 1540/1/6 1538/1/6
f 1499/1/5 1539/1/5 1515/1/5 1502/1/5
f 1541/1/2 1542/1/2 1543/1/2 1544/1/2
f 1539/1/3 1538/1/3 1542/1/3 1541/1/3
f 1538/1/6 1540/1/6 1543/1/6 1542/1/6
f 1539/1/5 1541/1/5 1544/1/5 1515/1/5
f 1508/7/2 1535/7/2 1545/7/2 1509/7/2
f 1506/7/1 1507/7/1 1546/7/1 1532/7/1
f 1532/7/6 1546/7/6 1545/7/6 1535/7/6
f 1502/2/1 1513/2/1 1547/2/1 1536/2/1
f 1536/2/6 1547/2/6 1548/2/6 1540/2/6
f 1544/1/2 1543/1/2 1549/1/2 1550/1/2
f 1540/1/6 1548/1/6 1549/1/6 1543/1/6
f 1515/1/5 1544/1/5 1550/1/5 1516/1/5
f 1509/7/2 1545/7/2 1551/7/2 1520/7/2
f 1507/7/1 1519/7/1 1552/7/1 1546/7/1
f 1546/7/6 1552/7/6 1551/7/6 1545/7/6
f 1513/2/1 1524/2/1 1553/2/1 1547/2/1
f 1547/2/6 1553/2/6 1554/2/6 1548/2/6
f 1550/1/2 1549/1/2 1555/1/2 1556/1/2
f 1548/1/6 1554/1/6 1555/1/6 1549/1/6
f 1516/1/5 1550/1/5 1556/1/5 1525/1/5
f 1518/1/1 1557/1/1 1558/1/1 1559/1/1
f 1518/1/3 1559/1/3 1552/1/3 1519/1/3
f 1557/1/4 1560/1/4 1561/1/4 1558/1/4
f 1559/1/6 1558/1/6 1561/1/6 1552/1/6
f 1518/1/5 1519/1/5 1560/1/5 1557/1/5
f 1520/1/2 1551/1/2 1562/1/2 1563/1/2
f 1560/1/4 1563/1/4 1562/1/4 1561/1/4
f 1552/1/6 1561/1/6 1562/1/6 1551/1/6
f 1519/1/5 1520/1/5 1563/1/5 1560/1/5
f 1524/1/1 1564/1/1 1565/1/1 1553/1/1
f 1564/1/4 1566/1/4 1567/1/4 1565/1/4
f 1553/1/6 1565/1/6 1567/1/6 1554/1/6
f 1524/1/5 1525/1/5 1566/1/5 1564/1/5
f 1556/1/2 1555/1/2 1568/1/2 1569/1/2
f 1566/1/4 1569/1/4 1568/1/4 1567/1/4
f 1554/1/6 1567/1/6 1568/1/6 1555/1/6
f 1525/1/5 1556/1/5 1569/1/5 1566/1/5
