mtllib Sietecueros_Karoll_Alexandra_Duran_Vásquez_fase_3.mtl
o Sietecueros_Karoll_Alexandra_Duran_Vásquez_fase_3
v -8.0000 4.0000 2.0000
v -8.0000 4.0000 1.0000
v -7.0000 4.0000 1.0000
v -7.0000 4.0000 2.0000
v -7.0000 5.0000 2.0000
v -8.0000 5.0000 2.0000
v -7.0000 5.0000 1.0000
v -8.0000 5.0000 1.0000
v -8.0000 6.0000 2.0000
v -7.0000 6.0000 2.0000
v -7.0000 6.0000 1.0000
v -8.0000 6.0000 1.0000
v -8.0000 4.0000 -0.0000
v -7.0000 4.0000 -0.0000
v -8.0000 5.0000 -0.0000
v -7.0000 6.0000 -0.0000
v -8.0000 6.0000 -0.0000
v -7.0000 5.0000 -0.0000
v -8.0000 4.0000 -1.0000
v -7.0000 4.0000 -1.0000
v -8.0000 5.0000 -1.0000
v -7.0000 6.0000 -1.0000
v -8.0000 6.0000 -1.0000
v -7.0000 5.0000 -1.0000
v -8.0000 4.0000 -2.0000
v -7.0000 4.0000 -2.0000
v -8.0000 5.0000 -2.0000
v -7.0000 5.0000 -2.0000
v -7.0000 6.0000 -2.0000
v -8.0000 6.0000 -2.0000
v -7.0000 6.0000 -3.0000
v -8.0000 6.0000 -3.0000
v -8.0000 5.0000 -3.0000
v -7.0000 5.0000 -3.0000
v -7.0000 6.0000 -4.0000
v -8.0000 6.0000 -4.0000
v -8.0000 5.0000 -4.0000
v -7.0000 5.0000 -4.0000
v -7.0000 6.0000 -5.0000
v -8.0000 6.0000 -5.0000
v -8.0000 5.0000 -5.0000
v -7.0000 5.0000 -5.0000
v -7.0000 6.0000 -6.0000
v -8.0000 6.0000 -6.0000
v -8.0000 5.0000 -6.0000
v -7.0000 5.0000 -6.0000
v -7.0000 6.0000 -7.0000
v -8.0000 6.0000 -7.0000
v -8.0000 5.0000 -7.0000
v -7.0000 5.0000 -7.0000
v -7.0000 8.0000 5.0000
v -6.0000 8.0000 5.0000
v -6.0000 8.0000 4.0000
v -7.0000 8.0000 4.0000
v -7.0000 7.0000 5.0000
v -7.0000 7.0000 4.0000
v -6.0000 7.0000 4.0000
v -6.0000 7.0000 5.0000
v -6.0000 8.0000 3.0000
v -7.0000 8.0000 3.0000
v -7.0000 7.0000 3.0000
v -6.0000 7.0000 3.0000
v -6.0000 8.0000 2.0000
v -7.0000 8.0000 2.0000
v -7.0000 7.0000 2.0000
v -6.0000 7.0000 2.0000
v -6.0000 8.0000 1.0000
v -7.0000 8.0000 1.0000
v -7.0000 7.0000 1.0000
v -6.0000 7.0000 1.0000
v -7.0000 2.0000 1.0000
v -7.0000 2.0000 -0.0000
v -6.0000 2.0000 -0.0000
v -6.0000 2.0000 1.0000
v -6.0000 3.0000 1.0000
v -7.0000 3.0000 1.0000
v -7.0000 3.0000 -0.0000
v -6.0000 4.0000 1.0000
v -6.0000 5.0000 1.0000
v -6.0000 5.0000 -0.0000
v -6.0000 4.0000 -0.0000
v -6.0000 8.0000 -0.0000
v -7.0000 8.0000 -0.0000
v -7.0000 7.0000 -0.0000
v -6.0000 7.0000 -0.0000
v -7.0000 2.0000 -1.0000
v -6.0000 2.0000 -1.0000
v -7.0000 3.0000 -1.0000
v -6.0000 3.0000 -1.0000
v -6.0000 4.0000 -1.0000
v -6.0000 5.0000 -1.0000
v -6.0000 8.0000 -1.0000
v -7.0000 8.0000 -1.0000
v -7.0000 7.0000 -1.0000
v -6.0000 7.0000 -1.0000
v -6.0000 8.0000 -2.0000
v -7.0000 8.0000 -2.0000
v -7.0000 7.0000 -2.0000
v -6.0000 7.0000 -2.0000
v -6.0000 8.0000 -3.0000
v -7.0000 8.0000 -3.0000
v -7.0000 7.0000 -3.0000
v -6.0000 7.0000 -3.0000
v -6.0000 6.0000 -7.0000
v -6.0000 6.0000 -8.0000
v -7.0000 6.0000 -8.0000
v -7.0000 5.0000 -8.0000
v -6.0000 5.0000 -8.0000
v -6.0000 5.0000 -7.0000
v -6.0000 3.0000 6.0000
v -6.0000 3.0000 5.0000
v -5.0000 3.0000 5.0000
v -5.0000 3.0000 6.0000
v -5.0000 4.0000 6.0000
v -6.0000 4.0000 6.0000
v -6.0000 4.0000 5.0000
v -5.0000 4.0000 5.0000
v -6.0000 5.0000 6.0000
v -5.0000 5.0000 6.0000
v -5.0000 5.0000 5.0000
v -6.0000 5.0000 5.0000
v -5.0000 3.0000 4.0000
v -6.0000 3.0000 4.0000
v -6.0000 2.0000 5.0000
v -6.0000 2.0000 4.0000
v -5.0000 2.0000 4.0000
v -5.0000 2.0000 5.0000
v -6.0000 1.0000 4.0000
v -6.0000 1.0000 3.0000
v -5.0000 1.0000 3.0000
v -5.0000 1.0000 4.0000
v -6.0000 2.0000 3.0000
v -5.0000 2.0000 3.0000
v -5.0000 3.0000 3.0000
v -6.0000 3.0000 3.0000
v -5.0000 1.0000 2.0000
v -6.0000 1.0000 2.0000
v -6.0000 0.0000 3.0000
v -6.0000 0.0000 2.0000
v -5.0000 0.0000 2.0000
v -5.0000 0.0000 3.0000
v -5.0000 1.0000 1.0000
v -6.0000 1.0000 1.0000
v -6.0000 0.0000 1.0000
v -5.0000 0.0000 1.0000
v -6.0000 3.0000 2.0000
v -5.0000 3.0000 2.0000
v -5.0000 3.0000 1.0000
v -6.0000 2.0000 2.0000
v -5.0000 2.0000 1.0000
v -5.0000 2.0000 2.0000
v -5.0000 2.0000 -0.0000
v -5.0000 4.0000 1.0000
v -5.0000 4.0000 -0.0000
v -5.0000 3.0000 -0.0000
v -5.0000 2.0000 -1.0000
v -5.0000 4.0000 -1.0000
v -5.0000 3.0000 -1.0000
v -6.0000 6.0000 -0.0000
v -6.0000 6.0000 -1.0000
v -5.0000 6.0000 -1.0000
v -5.0000 6.0000 -0.0000
v -5.0000 7.0000 -0.0000
v -5.0000 8.0000 -0.0000
v -5.0000 8.0000 -1.0000
v -5.0000 7.0000 -1.0000
v -5.0000 3.0000 -2.0000
v -6.0000 3.0000 -2.0000
v -6.0000 2.0000 -2.0000
v -5.0000 2.0000 -2.0000
v -6.0000 6.0000 -2.0000
v -5.0000 6.0000 -2.0000
v -5.0000 7.0000 -2.0000
v -5.0000 8.0000 -2.0000
v -6.0000 5.0000 -3.0000
v -5.0000 5.0000 -3.0000
v -5.0000 5.0000 -4.0000
v -6.0000 5.0000 -4.0000
v -6.0000 4.0000 -3.0000
v -6.0000 4.0000 -4.0000
v -5.0000 4.0000 -4.0000
v -5.0000 4.0000 -3.0000
v -5.0000 5.0000 -5.0000
v -6.0000 5.0000 -5.0000
v -6.0000 4.0000 -5.0000
v -5.0000 4.0000 -5.0000
v -6.0000 8.0000 -4.0000
v -5.0000 8.0000 -4.0000
v -5.0000 8.0000 -5.0000
v -6.0000 8.0000 -5.0000
v -6.0000 7.0000 -4.0000
v -6.0000 7.0000 -5.0000
v -5.0000 7.0000 -5.0000
v -5.0000 7.0000 -4.0000
v -5.0000 5.0000 -6.0000
v -6.0000 5.0000 -6.0000
v -6.0000 4.0000 -6.0000
v -5.0000 4.0000 -6.0000
v -5.0000 8.0000 -6.0000
v -6.0000 8.0000 -6.0000
v -6.0000 7.0000 -6.0000
v -5.0000 7.0000 -6.0000
v -5.0000 6.0000 -7.0000
v -5.0000 6.0000 -8.0000
v -5.0000 5.0000 -8.0000
v -5.0000 5.0000 -7.0000
v -4.0000 5.0000 6.0000
v -4.0000 5.0000 5.0000
v -4.0000 4.0000 5.0000
v -4.0000 4.0000 6.0000
v -4.0000 3.0000 2.0000
v -4.0000 3.0000 1.0000
v -4.0000 2.0000 1.0000
v -4.0000 2.0000 2.0000
v -5.0000 4.0000 2.0000
v -4.0000 4.0000 1.0000
v -4.0000 4.0000 2.0000
v -4.0000 5.0000 2.0000
v -5.0000 5.0000 2.0000
v -5.0000 5.0000 1.0000
v -4.0000 5.0000 1.0000
v -4.0000 6.0000 2.0000
v -5.0000 6.0000 2.0000
v -5.0000 6.0000 1.0000
v -4.0000 6.0000 1.0000
v -5.0000 7.0000 2.0000
v -4.0000 7.0000 2.0000
v -4.0000 7.0000 1.0000
v -5.0000 7.0000 1.0000
v -5.0000 0.0000 -0.0000
v -4.0000 0.0000 -0.0000
v -4.0000 0.0000 1.0000
v -4.0000 1.0000 1.0000
v -5.0000 1.0000 -0.0000
v -4.0000 3.0000 -0.0000
v -4.0000 2.0000 -0.0000
v -4.0000 7.0000 -0.0000
v -4.0000 6.0000 -0.0000
v -5.0000 0.0000 -1.0000
v -4.0000 0.0000 -1.0000
v -5.0000 1.0000 -1.0000
v -4.0000 1.0000 -1.0000
v -4.0000 2.0000 -1.0000
v -4.0000 3.0000 -1.0000
v -5.0000 5.0000 -0.0000
v -5.0000 5.0000 -1.0000
v -4.0000 5.0000 -1.0000
v -4.0000 5.0000 -0.0000
v -4.0000 7.0000 -1.0000
v -4.0000 6.0000 -1.0000
v -4.0000 3.0000 -2.0000
v -4.0000 2.0000 -2.0000
v -5.0000 5.0000 -2.0000
v -4.0000 5.0000 -2.0000
v -4.0000 6.0000 -2.0000
v -4.0000 7.0000 -2.0000
v -4.0000 5.0000 -3.0000
v -5.0000 4.0000 -2.0000
v -4.0000 4.0000 -3.0000
v -4.0000 4.0000 -2.0000
v -4.0000 8.0000 -2.0000
v -4.0000 8.0000 -3.0000
v -5.0000 8.0000 -3.0000
v -5.0000 7.0000 -3.0000
v -4.0000 7.0000 -3.0000
v -4.0000 5.0000 -4.0000
v -4.0000 4.0000 -4.0000
v -4.0000 8.0000 -4.0000
v -4.0000 7.0000 -4.0000
v -5.0000 2.0000 -4.0000
v -5.0000 2.0000 -5.0000
v -4.0000 2.0000 -5.0000
v -4.0000 2.0000 -4.0000
v -4.0000 3.0000 -4.0000
v -5.0000 3.0000 -4.0000
v -5.0000 3.0000 -5.0000
v -4.0000 3.0000 -5.0000
v -4.0000 4.0000 -5.0000
v -4.0000 6.0000 -4.0000
v -5.0000 6.0000 -4.0000
v -5.0000 6.0000 -5.0000
v -4.0000 6.0000 -5.0000
v -4.0000 5.0000 -5.0000
v -4.0000 7.0000 -5.0000
v -4.0000 8.0000 -5.0000
v -4.0000 5.0000 -6.0000
v -4.0000 4.0000 -6.0000
v -4.0000 8.0000 -6.0000
v -4.0000 7.0000 -6.0000
v -4.0000 6.0000 -7.0000
v -4.0000 6.0000 -8.0000
v -4.0000 5.0000 -8.0000
v -4.0000 5.0000 -7.0000
v -3.0000 5.0000 6.0000
v -3.0000 5.0000 5.0000
v -3.0000 4.0000 5.0000
v -3.0000 4.0000 6.0000
v -4.0000 8.0000 6.0000
v -3.0000 8.0000 6.0000
v -3.0000 8.0000 5.0000
v -4.0000 8.0000 5.0000
v -4.0000 7.0000 6.0000
v -4.0000 7.0000 5.0000
v -3.0000 7.0000 5.0000
v -3.0000 7.0000 6.0000
v -4.0000 4.0000 4.0000
v -3.0000 4.0000 4.0000
v -4.0000 5.0000 4.0000
v -3.0000 6.0000 5.0000
v -4.0000 6.0000 5.0000
v -4.0000 6.0000 4.0000
v -3.0000 6.0000 4.0000
v -3.0000 5.0000 4.0000
v -3.0000 7.0000 4.0000
v -4.0000 7.0000 4.0000
v -3.0000 5.0000 3.0000
v -4.0000 5.0000 3.0000
v -4.0000 4.0000 3.0000
v -3.0000 4.0000 3.0000
v -3.0000 7.0000 3.0000
v -4.0000 7.0000 3.0000
v -4.0000 6.0000 3.0000
v -3.0000 6.0000 3.0000
v -3.0000 5.0000 2.0000
v -3.0000 4.0000 2.0000
v -3.0000 7.0000 2.0000
v -3.0000 6.0000 2.0000
v -4.0000 1.0000 2.0000
v -3.0000 1.0000 2.0000
v -3.0000 1.0000 1.0000
v -4.0000 0.0000 2.0000
v -3.0000 0.0000 1.0000
v -3.0000 0.0000 2.0000
v -3.0000 5.0000 1.0000
v -3.0000 4.0000 1.0000
v -3.0000 7.0000 1.0000
v -3.0000 6.0000 1.0000
v -3.0000 0.0000 -0.0000
v -3.0000 2.0000 1.0000
v -3.0000 2.0000 -0.0000
v -3.0000 1.0000 -0.0000
v -3.0000 5.0000 -0.0000
v -4.0000 4.0000 -0.0000
v -3.0000 4.0000 -0.0000
v -3.0000 0.0000 -1.0000
v -3.0000 2.0000 -1.0000
v -3.0000 1.0000 -1.0000
v -4.0000 4.0000 -1.0000
v -3.0000 4.0000 -1.0000
v -3.0000 6.0000 -0.0000
v -3.0000 6.0000 -1.0000
v -3.0000 5.0000 -1.0000
v -3.0000 1.0000 -2.0000
v -4.0000 1.0000 -2.0000
v -4.0000 0.0000 -2.0000
v -3.0000 0.0000 -2.0000
v -3.0000 4.0000 -2.0000
v -3.0000 6.0000 -2.0000
v -3.0000 5.0000 -2.0000
v -3.0000 5.0000 -3.0000
v -3.0000 4.0000 -3.0000
v -3.0000 5.0000 -4.0000
v -3.0000 4.0000 -4.0000
v -3.0000 3.0000 -4.0000
v -3.0000 3.0000 -5.0000
v -3.0000 2.0000 -5.0000
v -3.0000 2.0000 -4.0000
v -3.0000 5.0000 -5.0000
v -3.0000 4.0000 -5.0000
v -3.0000 8.0000 -4.0000
v -3.0000 8.0000 -5.0000
v -3.0000 7.0000 -5.0000
v -3.0000 7.0000 -4.0000
v -3.0000 5.0000 -6.0000
v -3.0000 4.0000 -6.0000
v -3.0000 8.0000 -6.0000
v -3.0000 7.0000 -6.0000
v -3.0000 8.0000 -7.0000
v -4.0000 8.0000 -7.0000
v -4.0000 7.0000 -7.0000
v -3.0000 7.0000 -7.0000
v -3.0000 5.0000 -8.0000
v -3.0000 5.0000 -7.0000
v -3.0000 6.0000 -7.0000
v -3.0000 6.0000 -8.0000
v -4.0000 7.0000 -8.0000
v -3.0000 7.0000 -8.0000
v -3.0000 8.0000 -8.0000
v -4.0000 8.0000 -8.0000
v -2.0000 5.0000 6.0000
v -2.0000 5.0000 5.0000
v -2.0000 4.0000 5.0000
v -2.0000 4.0000 6.0000
v -2.0000 8.0000 6.0000
v -2.0000 8.0000 5.0000
v -2.0000 7.0000 5.0000
v -2.0000 7.0000 6.0000
v -3.0000 2.0000 5.0000
v -3.0000 2.0000 4.0000
v -2.0000 2.0000 4.0000
v -2.0000 2.0000 5.0000
v -2.0000 3.0000 5.0000
v -3.0000 3.0000 5.0000
v -3.0000 3.0000 4.0000
v -2.0000 3.0000 4.0000
v -2.0000 4.0000 4.0000
v -2.0000 5.0000 4.0000
v -3.0000 -7.0000 2.0000
v -2.0000 -7.0000 2.0000
v -2.0000 -7.0000 1.0000
v -3.0000 -7.0000 1.0000
v -3.0000 -8.0000 2.0000
v -3.0000 -8.0000 1.0000
v -2.0000 -8.0000 1.0000
v -2.0000 -8.0000 2.0000
v -3.0000 -1.0000 2.0000
v -2.0000 -1.0000 2.0000
v -2.0000 -1.0000 1.0000
v -3.0000 -1.0000 1.0000
v -3.0000 -2.0000 2.0000
v -3.0000 -2.0000 1.0000
v -2.0000 -2.0000 1.0000
v -2.0000 -2.0000 2.0000
v -2.0000 1.0000 2.0000
v -2.0000 1.0000 1.0000
v -2.0000 0.0000 1.0000
v -2.0000 0.0000 2.0000
v -2.0000 5.0000 1.0000
v -2.0000 5.0000 2.0000
v -2.0000 6.0000 2.0000
v -2.0000 7.0000 2.0000
v -2.0000 7.0000 1.0000
v -2.0000 6.0000 1.0000
v -3.0000 -8.0000 -0.0000
v -2.0000 -8.0000 -0.0000
v -3.0000 -7.0000 -0.0000
v -3.0000 -6.0000 1.0000
v -2.0000 -6.0000 1.0000
v -2.0000 -6.0000 -0.0000
v -3.0000 -6.0000 -0.0000
v -3.0000 -2.0000 -0.0000
v -2.0000 -2.0000 -0.0000
v -3.0000 -1.0000 -0.0000
v -2.0000 -1.0000 -0.0000
v -2.0000 1.0000 -0.0000
v -2.0000 6.0000 -0.0000
v -2.0000 5.0000 -0.0000
v -3.0000 -8.0000 -1.0000
v -2.0000 -8.0000 -1.0000
v -3.0000 -7.0000 -1.0000
v -2.0000 -6.0000 -1.0000
v -3.0000 -6.0000 -1.0000
v -2.0000 -7.0000 -1.0000
v -3.0000 -1.0000 -1.0000
v -2.0000 -1.0000 -1.0000
v -2.0000 0.0000 -1.0000
v -2.0000 1.0000 -1.0000
v -3.0000 3.0000 -0.0000
v -3.0000 3.0000 -1.0000
v -2.0000 3.0000 -1.0000
v -2.0000 3.0000 -0.0000
v -2.0000 4.0000 -0.0000
v -2.0000 5.0000 -1.0000
v -2.0000 -7.0000 -2.0000
v -3.0000 -7.0000 -2.0000
v -3.0000 -8.0000 -2.0000
v -2.0000 -8.0000 -2.0000
v -3.0000 -2.0000 -1.0000
v -2.0000 -2.0000 -1.0000
v -2.0000 -2.0000 -2.0000
v -3.0000 -2.0000 -2.0000
v -3.0000 -3.0000 -1.0000
v -3.0000 -3.0000 -2.0000
v -2.0000 -3.0000 -2.0000
v -2.0000 -3.0000 -1.0000
v -2.0000 1.0000 -2.0000
v -2.0000 0.0000 -2.0000
v -3.0000 3.0000 -2.0000
v -2.0000 3.0000 -2.0000
v -2.0000 4.0000 -2.0000
v -2.0000 5.0000 -2.0000
v -3.0000 7.0000 -1.0000
v -2.0000 7.0000 -1.0000
v -2.0000 7.0000 -2.0000
v -3.0000 7.0000 -2.0000
v -2.0000 6.0000 -2.0000
v -2.0000 6.0000 -1.0000
v -2.0000 -2.0000 -3.0000
v -3.0000 -2.0000 -3.0000
v -3.0000 -3.0000 -3.0000
v -2.0000 -3.0000 -3.0000
v -2.0000 5.0000 -3.0000
v -2.0000 4.0000 -3.0000
v -2.0000 -2.0000 -4.0000
v -3.0000 -2.0000 -4.0000
v -3.0000 -3.0000 -4.0000
v -2.0000 -3.0000 -4.0000
v -3.0000 0.0000 -4.0000
v -2.0000 0.0000 -4.0000
v -2.0000 0.0000 -5.0000
v -3.0000 0.0000 -5.0000
v -3.0000 -1.0000 -4.0000
v -3.0000 -1.0000 -5.0000
v -2.0000 -1.0000 -5.0000
v -2.0000 -1.0000 -4.0000
v -2.0000 3.0000 -4.0000
v -2.0000 3.0000 -5.0000
v -2.0000 2.0000 -5.0000
v -2.0000 2.0000 -4.0000
v -2.0000 8.0000 -4.0000
v -2.0000 8.0000 -5.0000
v -2.0000 7.0000 -5.0000
v -2.0000 7.0000 -4.0000
v -2.0000 0.0000 -6.0000
v -3.0000 0.0000 -6.0000
v -3.0000 -1.0000 -6.0000
v -2.0000 -1.0000 -6.0000
v -3.0000 1.0000 -7.0000
v -3.0000 1.0000 -8.0000
v -2.0000 1.0000 -8.0000
v -2.0000 1.0000 -7.0000
v -2.0000 2.0000 -7.0000
v -3.0000 2.0000 -7.0000
v -3.0000 2.0000 -8.0000
v -2.0000 2.0000 -8.0000
v -3.0000 3.0000 -7.0000
v -2.0000 3.0000 -7.0000
v -2.0000 3.0000 -8.0000
v -3.0000 3.0000 -8.0000
v -2.0000 6.0000 -7.0000
v -2.0000 6.0000 -8.0000
v -2.0000 5.0000 -8.0000
v -2.0000 5.0000 -7.0000
v -1.0000 5.0000 6.0000
v -1.0000 5.0000 5.0000
v -1.0000 4.0000 5.0000
v -1.0000 4.0000 6.0000
v -1.0000 8.0000 6.0000
v -1.0000 8.0000 5.0000
v -1.0000 7.0000 5.0000
v -1.0000 7.0000 6.0000
v -1.0000 3.0000 5.0000
v -1.0000 3.0000 4.0000
v -1.0000 2.0000 4.0000
v -1.0000 2.0000 5.0000
v -2.0000 -7.0000 3.0000
v -1.0000 -7.0000 3.0000
v -1.0000 -7.0000 2.0000
v -2.0000 -8.0000 3.0000
v -1.0000 -8.0000 2.0000
v -1.0000 -8.0000 3.0000
v -2.0000 -1.0000 3.0000
v -1.0000 -1.0000 3.0000
v -1.0000 -1.0000 2.0000
v -2.0000 -2.0000 3.0000
v -1.0000 -2.0000 2.0000
v -1.0000 -2.0000 3.0000
v -2.0000 6.0000 3.0000
v -1.0000 6.0000 3.0000
v -1.0000 6.0000 2.0000
v -2.0000 5.0000 3.0000
v -1.0000 5.0000 2.0000
v -1.0000 5.0000 3.0000
v -1.0000 -8.0000 1.0000
v -2.0000 -6.0000 2.0000
v -1.0000 -6.0000 2.0000
v -1.0000 -6.0000 1.0000
v -1.0000 -2.0000 1.0000
v -1.0000 0.0000 2.0000
v -1.0000 1.0000 2.0000
v -1.0000 1.0000 1.0000
v -2.0000 3.0000 2.0000
v -2.0000 3.0000 1.0000
v -1.0000 3.0000 1.0000
v -1.0000 3.0000 2.0000
v -1.0000 4.0000 2.0000
v -2.0000 4.0000 2.0000
v -2.0000 4.0000 1.0000
v -1.0000 7.0000 2.0000
v -1.0000 7.0000 1.0000
v -1.0000 -8.0000 -0.0000
v -1.0000 -5.0000 1.0000
v -2.0000 -5.0000 1.0000
v -2.0000 -5.0000 -0.0000
v -1.0000 -4.0000 1.0000
v -2.0000 -4.0000 1.0000
v -2.0000 -4.0000 -0.0000
v -1.0000 -3.0000 1.0000
v -2.0000 -3.0000 1.0000
v -2.0000 -3.0000 -0.0000
v -1.0000 2.0000 1.0000
v -2.0000 2.0000 1.0000
v -2.0000 2.0000 -0.0000
v -2.0000 7.0000 -0.0000
v -2.0000 8.0000 1.0000
v -1.0000 8.0000 1.0000
v -1.0000 8.0000 -0.0000
v -2.0000 8.0000 -0.0000
v -1.0000 -8.0000 -1.0000
v -2.0000 -5.0000 -1.0000
v -1.0000 -5.0000 -1.0000
v -1.0000 -6.0000 -1.0000
v -2.0000 -4.0000 -1.0000
v -1.0000 -4.0000 -1.0000
v -1.0000 -3.0000 -1.0000
v -2.0000 2.0000 -1.0000
v -1.0000 8.0000 -1.0000
v -2.0000 8.0000 -1.0000
v -1.0000 7.0000 -1.0000
v -1.0000 -8.0000 -2.0000
v -1.0000 -6.0000 -2.0000
v -2.0000 -6.0000 -2.0000
v -1.0000 -7.0000 -2.0000
v -1.0000 -3.0000 -2.0000
v -2.0000 -1.0000 -2.0000
v -1.0000 -1.0000 -2.0000
v -1.0000 -2.0000 -2.0000
v -1.0000 0.0000 -2.0000
v -1.0000 1.0000 -2.0000
v -2.0000 2.0000 -2.0000
v -1.0000 3.0000 -2.0000
v -1.0000 2.0000 -2.0000
v -1.0000 4.0000 -2.0000
v -1.0000 6.0000 -2.0000
v -1.0000 5.0000 -2.0000
v -1.0000 7.0000 -2.0000
v -1.0000 -7.0000 -3.0000
v -2.0000 -7.0000 -3.0000
v -2.0000 -8.0000 -3.0000
v -1.0000 -8.0000 -3.0000
v -1.0000 -2.0000 -3.0000
v -1.0000 -3.0000 -3.0000
v -1.0000 2.0000 -3.0000
v -2.0000 2.0000 -3.0000
v -2.0000 1.0000 -3.0000
v -1.0000 1.0000 -3.0000
v -1.0000 5.0000 -3.0000
v -1.0000 4.0000 -3.0000
v -1.0000 7.0000 -3.0000
v -2.0000 7.0000 -3.0000
v -2.0000 6.0000 -3.0000
v -1.0000 6.0000 -3.0000
v -1.0000 -3.0000 -4.0000
v -2.0000 -1.0000 -3.0000
v -1.0000 -1.0000 -3.0000
v -1.0000 -1.0000 -4.0000
v -1.0000 2.0000 -4.0000
v -2.0000 1.0000 -4.0000
v -1.0000 1.0000 -4.0000
v -2.0000 -3.0000 -5.0000
v -1.0000 -3.0000 -5.0000
v -2.0000 -2.0000 -5.0000
v -1.0000 -2.0000 -5.0000
v -1.0000 -1.0000 -5.0000
v -1.0000 0.0000 -4.0000
v -1.0000 0.0000 -5.0000
v -1.0000 2.0000 -5.0000
v -1.0000 3.0000 -4.0000
v -1.0000 3.0000 -5.0000
v -2.0000 4.0000 -4.0000
v -1.0000 4.0000 -4.0000
v -1.0000 4.0000 -5.0000
v -2.0000 4.0000 -5.0000
v -1.0000 8.0000 -4.0000
v -1.0000 8.0000 -5.0000
v -1.0000 7.0000 -5.0000
v -1.0000 7.0000 -4.0000
v -1.0000 -1.0000 -6.0000
v -2.0000 1.0000 -5.0000
v -1.0000 1.0000 -5.0000
v -1.0000 1.0000 -6.0000
v -2.0000 1.0000 -6.0000
v -1.0000 4.0000 -6.0000
v -2.0000 4.0000 -6.0000
v -2.0000 3.0000 -6.0000
v -1.0000 3.0000 -6.0000
v -2.0000 -1.0000 -7.0000
v -1.0000 -1.0000 -7.0000
v -2.0000 0.0000 -7.0000
v -1.0000 0.0000 -7.0000
v -1.0000 1.0000 -7.0000
v -2.0000 2.0000 -6.0000
v -1.0000 2.0000 -6.0000
v -1.0000 2.0000 -7.0000
v -1.0000 1.0000 -8.0000
v -1.0000 2.0000 -8.0000
v -1.0000 3.0000 -7.0000
v -1.0000 3.0000 -8.0000
v -1.0000 5.0000 -8.0000
v -1.0000 5.0000 -7.0000
v -1.0000 6.0000 -7.0000
v -1.0000 6.0000 -8.0000
v -2.0000 7.0000 -7.0000
v -1.0000 7.0000 -7.0000
v -1.0000 7.0000 -8.0000
v -2.0000 7.0000 -8.0000
v -1.0000 5.0000 8.0000
v -1.0000 5.0000 7.0000
v 0.0000 5.0000 7.0000
v 0.0000 5.0000 8.0000
v 0.0000 6.0000 8.0000
v -1.0000 6.0000 8.0000
v -1.0000 6.0000 7.0000
v -1.0000 7.0000 8.0000
v 0.0000 7.0000 8.0000
v 0.0000 7.0000 7.0000
v -1.0000 7.0000 7.0000
v 0.0000 6.0000 7.0000
v 0.0000 6.0000 6.0000
v -1.0000 6.0000 6.0000
v 0.0000 5.0000 6.0000
v -1.0000 8.0000 7.0000
v 0.0000 8.0000 7.0000
v 0.0000 8.0000 6.0000
v 0.0000 7.0000 6.0000
v -1.0000 3.0000 6.0000
v 0.0000 3.0000 5.0000
v 0.0000 3.0000 6.0000
v 0.0000 4.0000 6.0000
v 0.0000 5.0000 5.0000
v 0.0000 4.0000 5.0000
v 0.0000 8.0000 5.0000
v 0.0000 7.0000 5.0000
v 0.0000 2.0000 4.0000
v 0.0000 2.0000 5.0000
v 0.0000 3.0000 4.0000
v 0.0000 4.0000 4.0000
v -1.0000 4.0000 4.0000
v -1.0000 6.0000 5.0000
v -1.0000 6.0000 4.0000
v 0.0000 6.0000 4.0000
v 0.0000 6.0000 5.0000
v -1.0000 7.0000 4.0000
v 0.0000 8.0000 4.0000
v -1.0000 8.0000 4.0000
v 0.0000 7.0000 4.0000
v 0.0000 2.0000 3.0000
v -1.0000 2.0000 3.0000
v -1.0000 1.0000 4.0000
v -1.0000 1.0000 3.0000
v 0.0000 1.0000 3.0000
v 0.0000 1.0000 4.0000
v -1.0000 5.0000 4.0000
v 0.0000 5.0000 3.0000
v 0.0000 5.0000 4.0000
v 0.0000 7.0000 3.0000
v -1.0000 7.0000 3.0000
v 0.0000 6.0000 3.0000
v 0.0000 -8.0000 2.0000
v 0.0000 -8.0000 3.0000
v 0.0000 -7.0000 3.0000
v -1.0000 -6.0000 3.0000
v 0.0000 -6.0000 3.0000
v 0.0000 -6.0000 2.0000
v 0.0000 -1.0000 3.0000
v 0.0000 -1.0000 2.0000
v 0.0000 -2.0000 2.0000
v 0.0000 -2.0000 3.0000
v 0.0000 2.0000 2.0000
v -1.0000 2.0000 2.0000
v 0.0000 1.0000 2.0000
v -1.0000 4.0000 3.0000
v 0.0000 4.0000 2.0000
v 0.0000 4.0000 3.0000
v 0.0000 6.0000 2.0000
v 0.0000 -8.0000 1.0000
v 0.0000 -5.0000 2.0000
v -1.0000 -5.0000 2.0000
v 0.0000 -4.0000 2.0000
v -1.0000 -4.0000 2.0000
v 0.0000 -3.0000 2.0000
v -1.0000 -3.0000 2.0000
v 0.0000 0.0000 2.0000
v 0.0000 3.0000 2.0000
v 0.0000 7.0000 2.0000
v -1.0000 8.0000 2.0000
v 0.0000 8.0000 2.0000
v 0.0000 8.0000 1.0000
v 0.0000 -8.0000 -0.0000
v 0.0000 8.0000 -0.0000
v 0.0000 -8.0000 -1.0000
v 0.0000 8.0000 -1.0000
v 0.0000 -8.0000 -2.0000
v -1.0000 -5.0000 -2.0000
v 0.0000 -5.0000 -2.0000
v 0.0000 -6.0000 -2.0000
v -1.0000 -4.0000 -2.0000
v 0.0000 -4.0000 -2.0000
v 0.0000 -1.0000 -2.0000
v 0.0000 -2.0000 -2.0000
v 0.0000 0.0000 -2.0000
v 0.0000 3.0000 -2.0000
v 0.0000 2.0000 -2.0000
v 0.0000 4.0000 -2.0000
v 0.0000 5.0000 -2.0000
v 0.0000 6.0000 -2.0000
v 0.0000 8.0000 -2.0000
v -1.0000 8.0000 -2.0000
v 0.0000 7.0000 -2.0000
v 0.0000 -8.0000 -3.0000
v 0.0000 -7.0000 -3.0000
v 0.0000 -6.0000 -3.0000
v -1.0000 -6.0000 -3.0000
v -1.0000 -4.0000 -3.0000
v 0.0000 -4.0000 -3.0000
v 0.0000 -3.0000 -3.0000
v 0.0000 -3.0000 -2.0000
v 0.0000 -2.0000 -3.0000
v -1.0000 0.0000 -3.0000
v 0.0000 0.0000 -3.0000
v 0.0000 1.0000 -3.0000
v 0.0000 2.0000 -3.0000
v 0.0000 7.0000 -3.0000
v 0.0000 6.0000 -3.0000
v 0.0000 -3.0000 -4.0000
v 0.0000 -1.0000 -3.0000
v 0.0000 -1.0000 -4.0000
v 0.0000 -2.0000 -4.0000
v 0.0000 1.0000 -4.0000
v -1.0000 3.0000 -3.0000
v 0.0000 3.0000 -3.0000
v 0.0000 3.0000 -4.0000
v 0.0000 -3.0000 -5.0000
v 0.0000 -2.0000 -5.0000
v 0.0000 -1.0000 -5.0000
v 0.0000 0.0000 -4.0000
v 0.0000 0.0000 -5.0000
v 0.0000 1.0000 -5.0000
v 0.0000 2.0000 -5.0000
v 0.0000 3.0000 -5.0000
v 0.0000 4.0000 -4.0000
v 0.0000 4.0000 -5.0000
v 0.0000 8.0000 -4.0000
v 0.0000 8.0000 -5.0000
v 0.0000 7.0000 -5.0000
v 0.0000 7.0000 -4.0000
v 0.0000 -1.0000 -6.0000
v 0.0000 1.0000 -6.0000
v 0.0000 0.0000 -6.0000
v 0.0000 3.0000 -6.0000
v -1.0000 5.0000 -5.0000
v 0.0000 5.0000 -5.0000
v 0.0000 5.0000 -6.0000
v -1.0000 5.0000 -6.0000
v 0.0000 8.0000 -6.0000
v -1.0000 8.0000 -6.0000
v -1.0000 7.0000 -6.0000
v 0.0000 7.0000 -6.0000
v 0.0000 -1.0000 -7.0000
v 0.0000 0.0000 -7.0000
v 0.0000 1.0000 -7.0000
v 0.0000 2.0000 -6.0000
v 0.0000 2.0000 -7.0000
v 0.0000 3.0000 -7.0000
v -1.0000 4.0000 -7.0000
v 0.0000 4.0000 -7.0000
v 0.0000 5.0000 -7.0000
v -1.0000 6.0000 -6.0000
v 0.0000 6.0000 -6.0000
v 0.0000 6.0000 -7.0000
v 0.0000 1.0000 -8.0000
v 0.0000 2.0000 -8.0000
v 0.0000 3.0000 -8.0000
v 0.0000 5.0000 -8.0000
v 0.0000 6.0000 -8.0000
v 0.0000 7.0000 -7.0000
v 0.0000 7.0000 -8.0000
v 1.0000 5.0000 7.0000
v 1.0000 5.0000 8.0000
v 1.0000 6.0000 8.0000
v 1.0000 7.0000 8.0000
v 1.0000 7.0000 7.0000
v 1.0000 6.0000 7.0000
v 0.0000 3.0000 7.0000
v 1.0000 3.0000 6.0000
v 1.0000 3.0000 7.0000
v 1.0000 4.0000 7.0000
v 0.0000 4.0000 7.0000
v 1.0000 6.0000 6.0000
v 1.0000 5.0000 6.0000
v 1.0000 8.0000 7.0000
v 1.0000 8.0000 6.0000
v 1.0000 7.0000 6.0000
v 1.0000 3.0000 5.0000
v 1.0000 5.0000 5.0000
v 1.0000 4.0000 5.0000
v 1.0000 8.0000 5.0000
v 1.0000 7.0000 5.0000
v 0.0000 1.0000 5.0000
v 1.0000 1.0000 4.0000
v 1.0000 1.0000 5.0000
v 1.0000 2.0000 5.0000
v 1.0000 4.0000 4.0000
v 1.0000 3.0000 4.0000
v 1.0000 6.0000 4.0000
v 1.0000 6.0000 5.0000
v 1.0000 7.0000 4.0000
v 1.0000 8.0000 4.0000
v 1.0000 1.0000 3.0000
v 1.0000 3.0000 3.0000
v 0.0000 3.0000 3.0000
v 1.0000 2.0000 3.0000
v 1.0000 5.0000 3.0000
v 1.0000 5.0000 4.0000
v 1.0000 6.0000 3.0000
v 1.0000 7.0000 3.0000
v 1.0000 -8.0000 2.0000
v 1.0000 -8.0000 3.0000
v 1.0000 -7.0000 3.0000
v 1.0000 -6.0000 3.0000
v 1.0000 -6.0000 2.0000
v 1.0000 -7.0000 2.0000
v 0.0000 0.0000 3.0000
v 1.0000 0.0000 2.0000
v 1.0000 0.0000 3.0000
v 1.0000 2.0000 2.0000
v 1.0000 4.0000 2.0000
v 1.0000 4.0000 3.0000
v 1.0000 5.0000 2.0000
v 1.0000 6.0000 2.0000
v 1.0000 -8.0000 1.0000
v 1.0000 -5.0000 2.0000
v 1.0000 -6.0000 1.0000
v 1.0000 -5.0000 1.0000
v 1.0000 -4.0000 2.0000
v 1.0000 -4.0000 1.0000
v 1.0000 -3.0000 2.0000
v 1.0000 -3.0000 1.0000
v 1.0000 -2.0000 2.0000
v 1.0000 -2.0000 1.0000
v 1.0000 -1.0000 2.0000
v 1.0000 -1.0000 1.0000
v 1.0000 3.0000 2.0000
v 1.0000 2.0000 1.0000
v 1.0000 3.0000 1.0000
v 1.0000 7.0000 2.0000
v 1.0000 8.0000 2.0000
v 1.0000 8.0000 1.0000
v 1.0000 7.0000 1.0000
v 1.0000 -8.0000 -0.0000
v 1.0000 8.0000 -0.0000
v 1.0000 7.0000 -0.0000
v 1.0000 -8.0000 -1.0000
v 1.0000 8.0000 -1.0000
v 1.0000 7.0000 -1.0000
v 1.0000 -8.0000 -2.0000
v 1.0000 -5.0000 -2.0000
v 1.0000 -6.0000 -2.0000
v 1.0000 -6.0000 -1.0000
v 1.0000 -5.0000 -1.0000
v 1.0000 -4.0000 -2.0000
v 1.0000 -4.0000 -1.0000
v 1.0000 -3.0000 -2.0000
v 1.0000 -3.0000 -1.0000
v 1.0000 -1.0000 -2.0000
v 1.0000 -2.0000 -2.0000
v 1.0000 0.0000 -2.0000
v 1.0000 3.0000 -2.0000
v 1.0000 2.0000 -2.0000
v 1.0000 2.0000 -1.0000
v 1.0000 3.0000 -1.0000
v 1.0000 4.0000 -2.0000
v 1.0000 7.0000 -2.0000
v 1.0000 6.0000 -2.0000
v 1.0000 8.0000 -2.0000
v 1.0000 -8.0000 -3.0000
v 1.0000 -7.0000 -3.0000
v 1.0000 -6.0000 -3.0000
v 1.0000 -7.0000 -2.0000
v 1.0000 -2.0000 -3.0000
v 1.0000 -3.0000 -3.0000
v 1.0000 0.0000 -3.0000
v 1.0000 1.0000 -3.0000
v 1.0000 1.0000 -2.0000
v 1.0000 2.0000 -3.0000
v 0.0000 4.0000 -3.0000
v 1.0000 4.0000 -3.0000
v 0.0000 5.0000 -3.0000
v 1.0000 5.0000 -3.0000
v 1.0000 6.0000 -3.0000
v 1.0000 -2.0000 -4.0000
v 1.0000 -3.0000 -4.0000
v 1.0000 1.0000 -4.0000
v 1.0000 3.0000 -3.0000
v 1.0000 3.0000 -4.0000
v 1.0000 2.0000 -4.0000
v 0.0000 5.0000 -4.0000
v 1.0000 5.0000 -4.0000
v 0.0000 6.0000 -4.0000
v 1.0000 6.0000 -4.0000
v 1.0000 7.0000 -3.0000
v 1.0000 7.0000 -4.0000
v 1.0000 0.0000 -4.0000
v 1.0000 0.0000 -5.0000
v 1.0000 -1.0000 -5.0000
v 1.0000 -1.0000 -4.0000
v 1.0000 1.0000 -5.0000
v 1.0000 2.0000 -5.0000
v 1.0000 3.0000 -5.0000
v 1.0000 4.0000 -4.0000
v 1.0000 4.0000 -5.0000
v 0.0000 6.0000 -5.0000
v 1.0000 6.0000 -5.0000
v 1.0000 7.0000 -5.0000
v 1.0000 8.0000 -4.0000
v 1.0000 8.0000 -5.0000
v 1.0000 0.0000 -6.0000
v 1.0000 -1.0000 -6.0000
v 1.0000 3.0000 -6.0000
v 1.0000 5.0000 -5.0000
v 1.0000 5.0000 -6.0000
v 1.0000 4.0000 -6.0000
v 1.0000 8.0000 -6.0000
v 1.0000 7.0000 -6.0000
v 1.0000 1.0000 -6.0000
v 1.0000 1.0000 -7.0000
v 1.0000 0.0000 -7.0000
v 1.0000 3.0000 -7.0000
v 1.0000 4.0000 -7.0000
v 1.0000 5.0000 -7.0000
v 1.0000 6.0000 -6.0000
v 1.0000 6.0000 -7.0000
v 1.0000 8.0000 -7.0000
v 0.0000 8.0000 -7.0000
v 1.0000 7.0000 -7.0000
v 1.0000 1.0000 -8.0000
v 1.0000 2.0000 -7.0000
v 1.0000 2.0000 -8.0000
v 1.0000 3.0000 -8.0000
v 1.0000 5.0000 -8.0000
v 1.0000 6.0000 -8.0000
v 1.0000 7.0000 -8.0000
v 2.0000 5.0000 7.0000
v 2.0000 5.0000 8.0000
v 2.0000 6.0000 8.0000
v 2.0000 7.0000 8.0000
v 2.0000 7.0000 7.0000
v 2.0000 6.0000 7.0000
v 2.0000 3.0000 6.0000
v 2.0000 3.0000 7.0000
v 2.0000 4.0000 7.0000
v 2.0000 4.0000 6.0000
v 2.0000 5.0000 6.0000
v 2.0000 6.0000 6.0000
v 2.0000 3.0000 5.0000
v 2.0000 5.0000 5.0000
v 2.0000 4.0000 5.0000
v 2.0000 8.0000 6.0000
v 2.0000 8.0000 5.0000
v 2.0000 7.0000 5.0000
v 2.0000 7.0000 6.0000
v 2.0000 1.0000 4.0000
v 2.0000 1.0000 5.0000
v 2.0000 2.0000 5.0000
v 2.0000 2.0000 4.0000
v 2.0000 3.0000 4.0000
v 2.0000 4.0000 4.0000
v 2.0000 1.0000 3.0000
v 2.0000 3.0000 3.0000
v 2.0000 2.0000 3.0000
v 2.0000 7.0000 4.0000
v 2.0000 7.0000 3.0000
v 2.0000 6.0000 3.0000
v 2.0000 6.0000 4.0000
v 2.0000 -7.0000 3.0000
v 2.0000 -7.0000 2.0000
v 2.0000 -8.0000 2.0000
v 2.0000 -8.0000 3.0000
v 2.0000 0.0000 2.0000
v 2.0000 0.0000 3.0000
v 2.0000 1.0000 2.0000
v 2.0000 2.0000 2.0000
v 2.0000 -8.0000 1.0000
v 2.0000 -6.0000 2.0000
v 2.0000 -6.0000 1.0000
v 2.0000 -7.0000 1.0000
v 2.0000 -1.0000 1.0000
v 2.0000 -1.0000 2.0000
v 2.0000 0.0000 1.0000
v 2.0000 1.0000 1.0000
v 2.0000 2.0000 1.0000
v 2.0000 3.0000 1.0000
v 2.0000 3.0000 2.0000
v 2.0000 4.0000 2.0000
v 2.0000 4.0000 1.0000
v 2.0000 5.0000 2.0000
v 2.0000 5.0000 1.0000
v 2.0000 6.0000 2.0000
v 2.0000 6.0000 1.0000
v 2.0000 7.0000 2.0000
v 2.0000 7.0000 1.0000
v 2.0000 -8.0000 -0.0000
v 2.0000 -5.0000 1.0000
v 2.0000 -6.0000 -0.0000
v 2.0000 -5.0000 -0.0000
v 2.0000 -4.0000 1.0000
v 2.0000 -4.0000 -0.0000
v 2.0000 -3.0000 1.0000
v 2.0000 -3.0000 -0.0000
v 2.0000 -2.0000 1.0000
v 2.0000 -2.0000 -0.0000
v 2.0000 -1.0000 -0.0000
v 2.0000 0.0000 -0.0000
v 2.0000 1.0000 -0.0000
v 2.0000 2.0000 -0.0000
v 2.0000 4.0000 -0.0000
v 2.0000 5.0000 -0.0000
v 2.0000 6.0000 -0.0000
v 2.0000 7.0000 -0.0000
v 2.0000 -8.0000 -1.0000
v 2.0000 -5.0000 -1.0000
v 2.0000 -6.0000 -1.0000
v 2.0000 -4.0000 -1.0000
v 2.0000 -3.0000 -1.0000
v 2.0000 -2.0000 -1.0000
v 2.0000 0.0000 -1.0000
v 2.0000 1.0000 -1.0000
v 2.0000 2.0000 -1.0000
v 2.0000 3.0000 -1.0000
v 2.0000 4.0000 -1.0000
v 2.0000 5.0000 -1.0000
v 2.0000 7.0000 -1.0000
v 2.0000 6.0000 -1.0000
v 2.0000 -8.0000 -2.0000
v 2.0000 -6.0000 -2.0000
v 2.0000 -7.0000 -2.0000
v 2.0000 -7.0000 -1.0000
v 2.0000 -3.0000 -2.0000
v 2.0000 -2.0000 -2.0000
v 2.0000 -1.0000 -2.0000
v 2.0000 1.0000 -2.0000
v 2.0000 0.0000 -2.0000
v 2.0000 2.0000 -2.0000
v 2.0000 3.0000 -2.0000
v 2.0000 4.0000 -2.0000
v 2.0000 5.0000 -2.0000
v 2.0000 7.0000 -2.0000
v 2.0000 6.0000 -2.0000
v 2.0000 -7.0000 -3.0000
v 2.0000 -8.0000 -3.0000
v 2.0000 0.0000 -3.0000
v 1.0000 -1.0000 -3.0000
v 2.0000 -1.0000 -3.0000
v 2.0000 2.0000 -3.0000
v 2.0000 1.0000 -3.0000
v 2.0000 4.0000 -3.0000
v 2.0000 5.0000 -3.0000
v 2.0000 6.0000 -3.0000
v 2.0000 2.0000 -4.0000
v 2.0000 1.0000 -4.0000
v 2.0000 5.0000 -4.0000
v 2.0000 6.0000 -4.0000
v 2.0000 7.0000 -3.0000
v 2.0000 7.0000 -4.0000
v 2.0000 4.0000 -4.0000
v 2.0000 4.0000 -5.0000
v 2.0000 3.0000 -5.0000
v 2.0000 3.0000 -4.0000
v 2.0000 6.0000 -5.0000
v 2.0000 7.0000 -5.0000
v 2.0000 8.0000 -4.0000
v 2.0000 8.0000 -5.0000
v 2.0000 4.0000 -6.0000
v 2.0000 3.0000 -6.0000
v 2.0000 8.0000 -6.0000
v 2.0000 7.0000 -6.0000
v 2.0000 8.0000 -7.0000
v 2.0000 7.0000 -7.0000
v 2.0000 5.0000 -8.0000
v 2.0000 5.0000 -7.0000
v 2.0000 6.0000 -7.0000
v 2.0000 6.0000 -8.0000
v 2.0000 7.0000 -8.0000
v 3.0000 5.0000 7.0000
v 3.0000 5.0000 8.0000
v 3.0000 6.0000 8.0000
v 3.0000 6.0000 7.0000
v 3.0000 7.0000 8.0000
v 3.0000 7.0000 7.0000
v 3.0000 6.0000 6.0000
v 3.0000 5.0000 6.0000
v 3.0000 3.0000 5.0000
v 3.0000 3.0000 6.0000
v 3.0000 4.0000 6.0000
v 3.0000 4.0000 5.0000
v 3.0000 5.0000 5.0000
v 2.0000 6.0000 5.0000
v 3.0000 6.0000 5.0000
v 3.0000 7.0000 6.0000
v 3.0000 7.0000 5.0000
v 3.0000 8.0000 6.0000
v 3.0000 8.0000 5.0000
v 3.0000 4.0000 4.0000
v 3.0000 3.0000 4.0000
v 3.0000 1.0000 3.0000
v 3.0000 1.0000 4.0000
v 3.0000 2.0000 4.0000
v 3.0000 2.0000 3.0000
v 3.0000 3.0000 3.0000
v 3.0000 7.0000 4.0000
v 3.0000 7.0000 3.0000
v 3.0000 6.0000 3.0000
v 3.0000 6.0000 4.0000
v 3.0000 2.0000 2.0000
v 3.0000 1.0000 2.0000
v 3.0000 -7.0000 2.0000
v 3.0000 -7.0000 1.0000
v 3.0000 -8.0000 1.0000
v 3.0000 -8.0000 2.0000
v 3.0000 6.0000 1.0000
v 3.0000 6.0000 2.0000
v 3.0000 7.0000 2.0000
v 3.0000 7.0000 1.0000
v 2.0000 8.0000 2.0000
v 3.0000 8.0000 2.0000
v 3.0000 8.0000 1.0000
v 2.0000 8.0000 1.0000
v 3.0000 -8.0000 -0.0000
v 3.0000 -7.0000 -0.0000
v 3.0000 -6.0000 1.0000
v 3.0000 -6.0000 -0.0000
v 3.0000 0.0000 1.0000
v 3.0000 0.0000 -0.0000
v 3.0000 -1.0000 -0.0000
v 3.0000 -1.0000 1.0000
v 3.0000 2.0000 -0.0000
v 3.0000 2.0000 1.0000
v 3.0000 3.0000 1.0000
v 3.0000 3.0000 -0.0000
v 3.0000 4.0000 1.0000
v 3.0000 4.0000 -0.0000
v 3.0000 6.0000 -0.0000
v 3.0000 7.0000 -0.0000
v 3.0000 8.0000 -0.0000
v 2.0000 8.0000 -0.0000
v 3.0000 -8.0000 -1.0000
v 3.0000 -7.0000 -1.0000
v 3.0000 -6.0000 -1.0000
v 3.0000 -2.0000 -1.0000
v 3.0000 -2.0000 -0.0000
v 3.0000 -1.0000 -1.0000
v 3.0000 0.0000 -1.0000
v 3.0000 2.0000 -1.0000
v 3.0000 3.0000 -1.0000
v 3.0000 4.0000 -1.0000
v 3.0000 6.0000 -1.0000
v 3.0000 5.0000 -1.0000
v 3.0000 5.0000 -0.0000
v 3.0000 -7.0000 -2.0000
v 3.0000 -8.0000 -2.0000
v 3.0000 -2.0000 -2.0000
v 3.0000 -1.0000 -2.0000
v 3.0000 1.0000 -1.0000
v 3.0000 1.0000 -2.0000
v 3.0000 6.0000 -2.0000
v 3.0000 5.0000 -2.0000
v 3.0000 -1.0000 -3.0000
v 3.0000 0.0000 -3.0000
v 3.0000 1.0000 -3.0000
v 3.0000 0.0000 -2.0000
v 3.0000 6.0000 -3.0000
v 3.0000 5.0000 -3.0000
v 3.0000 1.0000 -4.0000
v 2.0000 0.0000 -4.0000
v 3.0000 0.0000 -4.0000
v 3.0000 1.0000 -5.0000
v 2.0000 1.0000 -5.0000
v 2.0000 0.0000 -5.0000
v 3.0000 0.0000 -5.0000
v 3.0000 8.0000 -5.0000
v 3.0000 8.0000 -6.0000
v 3.0000 7.0000 -6.0000
v 3.0000 7.0000 -5.0000
v 4.0000 5.0000 6.0000
v 4.0000 5.0000 5.0000
v 4.0000 4.0000 5.0000
v 4.0000 4.0000 6.0000
v 4.0000 8.0000 6.0000
v 4.0000 8.0000 5.0000
v 4.0000 7.0000 5.0000
v 4.0000 7.0000 6.0000
v 4.0000 5.0000 4.0000
v 3.0000 5.0000 4.0000
v 4.0000 4.0000 4.0000
v 4.0000 8.0000 4.0000
v 3.0000 8.0000 4.0000
v 4.0000 7.0000 4.0000
v 4.0000 3.0000 4.0000
v 4.0000 3.0000 3.0000
v 4.0000 2.0000 3.0000
v 4.0000 2.0000 4.0000
v 4.0000 5.0000 3.0000
v 3.0000 5.0000 3.0000
v 3.0000 4.0000 3.0000
v 4.0000 4.0000 3.0000
v 4.0000 6.0000 3.0000
v 4.0000 6.0000 4.0000
v 4.0000 7.0000 3.0000
v 4.0000 8.0000 3.0000
v 3.0000 8.0000 3.0000
v 4.0000 5.0000 2.0000
v 3.0000 5.0000 2.0000
v 3.0000 4.0000 2.0000
v 4.0000 4.0000 2.0000
v 4.0000 8.0000 2.0000
v 4.0000 7.0000 2.0000
v 4.0000 5.0000 1.0000
v 3.0000 5.0000 1.0000
v 4.0000 4.0000 1.0000
v 4.0000 8.0000 1.0000
v 4.0000 7.0000 1.0000
v 4.0000 0.0000 1.0000
v 4.0000 0.0000 -0.0000
v 4.0000 -1.0000 -0.0000
v 4.0000 -1.0000 1.0000
v 4.0000 3.0000 -0.0000
v 4.0000 3.0000 1.0000
v 4.0000 4.0000 -0.0000
v 4.0000 5.0000 -0.0000
v 4.0000 8.0000 -0.0000
v 4.0000 7.0000 -0.0000
v 4.0000 -1.0000 -1.0000
v 3.0000 1.0000 -0.0000
v 4.0000 1.0000 -0.0000
v 4.0000 1.0000 -1.0000
v 4.0000 3.0000 -1.0000
v 4.0000 5.0000 -1.0000
v 4.0000 4.0000 -1.0000
v 4.0000 8.0000 -1.0000
v 3.0000 8.0000 -1.0000
v 3.0000 7.0000 -1.0000
v 4.0000 7.0000 -1.0000
v 4.0000 -1.0000 -2.0000
v 4.0000 1.0000 -2.0000
v 4.0000 0.0000 -2.0000
v 4.0000 4.0000 -2.0000
v 3.0000 4.0000 -2.0000
v 3.0000 3.0000 -2.0000
v 4.0000 3.0000 -2.0000
v 4.0000 0.0000 -3.0000
v 4.0000 -1.0000 -3.0000
v 4.0000 0.0000 -5.0000
v 4.0000 0.0000 -4.0000
v 4.0000 1.0000 -4.0000
v 4.0000 1.0000 -5.0000
v 3.0000 2.0000 -4.0000
v 4.0000 2.0000 -4.0000
v 4.0000 2.0000 -5.0000
v 3.0000 2.0000 -5.0000
v 3.0000 6.0000 -5.0000
v 4.0000 6.0000 -5.0000
v 4.0000 6.0000 -6.0000
v 3.0000 6.0000 -6.0000
v 3.0000 5.0000 -5.0000
v 3.0000 5.0000 -6.0000
v 4.0000 5.0000 -6.0000
v 4.0000 5.0000 -5.0000
v 3.0000 2.0000 -6.0000
v 4.0000 2.0000 -6.0000
v 4.0000 2.0000 -7.0000
v 3.0000 2.0000 -7.0000
v 3.0000 1.0000 -6.0000
v 3.0000 1.0000 -7.0000
v 4.0000 1.0000 -7.0000
v 4.0000 1.0000 -6.0000
v 4.0000 6.0000 -7.0000
v 3.0000 6.0000 -7.0000
v 3.0000 5.0000 -7.0000
v 4.0000 5.0000 -7.0000
v 4.0000 2.0000 -8.0000
v 3.0000 2.0000 -8.0000
v 3.0000 1.0000 -8.0000
v 4.0000 1.0000 -8.0000
v 4.0000 6.0000 -8.0000
v 3.0000 6.0000 -8.0000
v 3.0000 5.0000 -8.0000
v 4.0000 5.0000 -8.0000
v 5.0000 3.0000 4.0000
v 5.0000 3.0000 3.0000
v 5.0000 2.0000 3.0000
v 5.0000 2.0000 4.0000
v 5.0000 7.0000 4.0000
v 5.0000 7.0000 3.0000
v 5.0000 6.0000 3.0000
v 5.0000 6.0000 4.0000
v 5.0000 8.0000 2.0000
v 5.0000 8.0000 1.0000
v 5.0000 7.0000 1.0000
v 5.0000 7.0000 2.0000
v 4.0000 2.0000 1.0000
v 5.0000 2.0000 1.0000
v 5.0000 2.0000 -0.0000
v 4.0000 2.0000 -0.0000
v 4.0000 1.0000 1.0000
v 5.0000 1.0000 -0.0000
v 5.0000 1.0000 1.0000
v 5.0000 4.0000 -0.0000
v 5.0000 4.0000 1.0000
v 5.0000 5.0000 1.0000
v 5.0000 5.0000 -0.0000
v 4.0000 6.0000 1.0000
v 5.0000 6.0000 1.0000
v 5.0000 6.0000 -0.0000
v 4.0000 6.0000 -0.0000
v 5.0000 8.0000 -0.0000
v 5.0000 7.0000 -0.0000
v 5.0000 -1.0000 -1.0000
v 5.0000 -1.0000 -0.0000
v 5.0000 0.0000 -0.0000
v 5.0000 0.0000 -1.0000
v 5.0000 1.0000 -1.0000
v 5.0000 2.0000 -1.0000
v 4.0000 2.0000 -1.0000
v 5.0000 3.0000 -1.0000
v 5.0000 3.0000 -0.0000
v 5.0000 4.0000 -1.0000
v 5.0000 5.0000 -1.0000
v 5.0000 6.0000 -1.0000
v 4.0000 6.0000 -1.0000
v 5.0000 -1.0000 -2.0000
v 5.0000 0.0000 -2.0000
v 5.0000 1.0000 -2.0000
v 5.0000 2.0000 -2.0000
v 4.0000 2.0000 -2.0000
v 5.0000 6.0000 -2.0000
v 4.0000 6.0000 -2.0000
v 4.0000 5.0000 -2.0000
v 5.0000 5.0000 -2.0000
v 5.0000 2.0000 -3.0000
v 4.0000 2.0000 -3.0000
v 4.0000 1.0000 -3.0000
v 5.0000 1.0000 -3.0000
v 5.0000 6.0000 -3.0000
v 4.0000 6.0000 -3.0000
v 4.0000 5.0000 -3.0000
v 5.0000 5.0000 -3.0000
v 5.0000 6.0000 -4.0000
v 4.0000 6.0000 -4.0000
v 4.0000 5.0000 -4.0000
v 5.0000 5.0000 -4.0000
v 5.0000 2.0000 -4.0000
v 5.0000 2.0000 -5.0000
v 5.0000 1.0000 -5.0000
v 5.0000 1.0000 -4.0000
v 5.0000 6.0000 -5.0000
v 5.0000 5.0000 -5.0000
v 5.0000 2.0000 -6.0000
v 5.0000 1.0000 -6.0000
v 5.0000 6.0000 -6.0000
v 5.0000 5.0000 -6.0000
v 5.0000 1.0000 -7.0000
v 5.0000 2.0000 -7.0000
v 5.0000 3.0000 -6.0000
v 4.0000 3.0000 -6.0000
v 4.0000 3.0000 -7.0000
v 5.0000 3.0000 -7.0000
v 5.0000 4.0000 -6.0000
v 4.0000 4.0000 -6.0000
v 4.0000 4.0000 -7.0000
v 5.0000 5.0000 -7.0000
v 5.0000 4.0000 -7.0000
v 4.0000 7.0000 -6.0000
v 5.0000 7.0000 -6.0000
v 5.0000 7.0000 -7.0000
v 4.0000 7.0000 -7.0000
v 5.0000 6.0000 -7.0000
v 5.0000 2.0000 -8.0000
v 5.0000 1.0000 -8.0000
v 5.0000 4.0000 -8.0000
v 4.0000 4.0000 -8.0000
v 4.0000 3.0000 -8.0000
v 5.0000 3.0000 -8.0000
v 5.0000 6.0000 -8.0000
v 5.0000 5.0000 -8.0000
v 6.0000 3.0000 3.0000
v 6.0000 3.0000 4.0000
v 6.0000 4.0000 4.0000
v 5.0000 4.0000 4.0000
v 5.0000 4.0000 3.0000
v 6.0000 4.0000 3.0000
v 6.0000 5.0000 4.0000
v 5.0000 5.0000 4.0000
v 5.0000 5.0000 3.0000
v 6.0000 5.0000 3.0000
v 6.0000 6.0000 4.0000
v 6.0000 6.0000 3.0000
v 6.0000 2.0000 1.0000
v 6.0000 2.0000 -0.0000
v 6.0000 1.0000 -0.0000
v 6.0000 1.0000 1.0000
v 6.0000 5.0000 -0.0000
v 6.0000 5.0000 1.0000
v 6.0000 6.0000 1.0000
v 6.0000 6.0000 -0.0000
v 6.0000 7.0000 1.0000
v 6.0000 7.0000 -0.0000
v 6.0000 1.0000 -1.0000
v 6.0000 3.0000 -0.0000
v 6.0000 3.0000 -1.0000
v 6.0000 5.0000 -1.0000
v 6.0000 6.0000 -1.0000
v 6.0000 7.0000 -1.0000
v 5.0000 7.0000 -1.0000
v 6.0000 1.0000 -2.0000
v 6.0000 3.0000 -2.0000
v 5.0000 3.0000 -2.0000
v 6.0000 2.0000 -2.0000
v 6.0000 2.0000 -3.0000
v 6.0000 1.0000 -3.0000
v 6.0000 2.0000 -4.0000
v 6.0000 2.0000 -5.0000
v 6.0000 1.0000 -5.0000
v 6.0000 1.0000 -4.0000
v 6.0000 2.0000 -6.0000
v 6.0000 1.0000 -6.0000
v 6.0000 6.0000 -5.0000
v 6.0000 6.0000 -6.0000
v 6.0000 5.0000 -6.0000
v 6.0000 5.0000 -5.0000
v 6.0000 4.0000 -6.0000
v 6.0000 4.0000 -7.0000
v 6.0000 3.0000 -7.0000
v 6.0000 3.0000 -6.0000
v 6.0000 6.0000 -7.0000
v 6.0000 5.0000 -7.0000
v 6.0000 4.0000 -8.0000
v 6.0000 3.0000 -8.0000
v 7.0000 3.0000 3.0000
v 7.0000 3.0000 2.0000
v 6.0000 3.0000 2.0000
v 6.0000 2.0000 3.0000
v 6.0000 2.0000 2.0000
v 7.0000 2.0000 2.0000
v 7.0000 2.0000 3.0000
v 7.0000 3.0000 1.0000
v 6.0000 3.0000 1.0000
v 7.0000 2.0000 1.0000
v 7.0000 3.0000 -0.0000
v 7.0000 2.0000 -0.0000
v 7.0000 6.0000 -0.0000
v 7.0000 6.0000 1.0000
v 7.0000 7.0000 1.0000
v 7.0000 7.0000 -0.0000
v 6.0000 8.0000 1.0000
v 7.0000 8.0000 1.0000
v 7.0000 8.0000 -0.0000
v 6.0000 8.0000 -0.0000
v 7.0000 1.0000 -1.0000
v 7.0000 1.0000 -0.0000
v 7.0000 2.0000 -1.0000
v 7.0000 3.0000 -1.0000
v 6.0000 4.0000 -0.0000
v 7.0000 4.0000 -0.0000
v 7.0000 4.0000 -1.0000
v 6.0000 4.0000 -1.0000
v 7.0000 6.0000 -1.0000
v 7.0000 7.0000 -1.0000
v 7.0000 8.0000 -1.0000
v 6.0000 8.0000 -1.0000
v 7.0000 1.0000 -2.0000
v 7.0000 2.0000 -2.0000
v 7.0000 3.0000 -2.0000
v 7.0000 4.0000 -2.0000
v 6.0000 4.0000 -2.0000
v 7.0000 6.0000 2.0000
v 8.0000 6.0000 1.0000
v 8.0000 6.0000 2.0000
v 8.0000 7.0000 2.0000
v 7.0000 7.0000 2.0000
v 8.0000 7.0000 1.0000
v 7.0000 8.0000 2.0000
v 8.0000 8.0000 2.0000
v 8.0000 8.0000 1.0000
v 8.0000 3.0000 -0.0000
v 8.0000 3.0000 1.0000
v 8.0000 4.0000 1.0000
v 7.0000 4.0000 1.0000
v 8.0000 4.0000 -0.0000
v 7.0000 5.0000 1.0000
v 8.0000 5.0000 1.0000
v 8.0000 5.0000 -0.0000
v 7.0000 5.0000 -0.0000
v 8.0000 8.0000 -0.0000
v 8.0000 7.0000 -0.0000
v 8.0000 3.0000 -1.0000
v 8.0000 4.0000 -1.0000
v 8.0000 5.0000 -1.0000
v 7.0000 5.0000 -1.0000
v 8.0000 8.0000 -1.0000
v 8.0000 7.0000 -1.0000
v 8.0000 3.0000 -2.0000
v 8.0000 4.0000 -2.0000
v 8.0000 5.0000 -2.0000
v 7.0000 5.0000 -2.0000
v 7.0000 6.0000 -2.0000
v 8.0000 6.0000 -2.0000
v 8.0000 6.0000 -1.0000
v 7.0000 7.0000 -2.0000
v 8.0000 7.0000 -2.0000
v 8.0000 8.0000 -2.0000
v 7.0000 8.0000 -2.0000
v 7.0000 3.0000 -3.0000
v 8.0000 3.0000 -3.0000
v 7.0000 4.0000 -3.0000
v 8.0000 4.0000 -3.0000
v 8.0000 5.0000 -3.0000
v 7.0000 5.0000 -3.0000
vt 0.001953 0.500000
vt 0.005859 0.500000
vt 0.009766 0.500000
vt 0.013672 0.500000
vt 0.017578 0.500000
vt 0.021484 0.500000
vt 0.025391 0.500000
vt 0.029297 0.500000
vn 0.0 -1.0 0.0
vn 0.0 1.0 0.0
vn 0.0 0.0 1.0
vn 0.0 0.0 -1.0
vn -1.0 0.0 0.0
vn 1.0 0.0 0.0
usemtl mat_Sietecueros_Karoll_Alexandra_Duran_Vásquez_fase_3
s off
f 1/1/1 2/1/1 3/1/1 4/1/1
f 1/1/3 4/1/3 5/1/3 6/1/3
f 4/1/6 3/1/6 7/1/6 5/1/6
f 1/1/5 6/1/5 8/1/5 2/1/5
f 9/2/2 10/2/2 11/2/2 12/2/2
f 6/2/3 5/2/3 10/2/3 9/2/3
f 5/2/6 7/2/6 11/2/6 10/2/6
f 6/2/5 9/2/5 12/2/5 8/2/5
f 2/3/1 13/3/1 14/3/1 3/3/1
f 2/3/5 8/3/5 15/3/5 13/3/5
f 12/4/2 11/4/2 16/4/2 17/4/2
f 7/4/6 18/4/6 16/4/6 11/4/6
f 8/4/5 12/4/5 17/4/5 15/4/5
f 13/3/1 19/3/1 20/3/1 14/3/1
f 13/3/5 15/3/5 21/3/5 19/3/5
f 17/2/2 16/2/2 22/2/2 23/2/2
f 18/2/6 24/2/6 22/2/6 16/2/6
f 15/2/5 17/2/5 23/2/5 21/2/5
f 19/2/1 25/2/1 26/2/1 20/2/1
f 25/2/4 27/2/4 28/2/4 26/2/4
f 20/2/6 26/2/6 28/2/6 24/2/6
f 19/2/5 21/2/5 27/2/5 25/2/5
f 23/5/2 22/5/2 29/5/2 30/5/2
f 24/5/6 28/5/6 29/5/6 22/5/6
f 21/5/5 23/5/5 30/5/5 27/5/5
f 30/4/2 29/4/2 31/4/2 32/4/2
f 27/4/1 33/4/1 34/4/1 28/4/1
f 28/4/6 34/4/6 31/4/6 29/4/6
f 27/4/5 30/4/5 32/4/5 33/4/5
f 32/2/2 31/2/2 35/2/2 36/2/2
f 33/2/1 37/2/1 38/2/1 34/2/1
f 34/2/6 38/2/6 35/2/6 31/2/6
f 33/2/5 32/2/5 36/2/5 37/2/5
f 36/4/2 35/4/2 39/4/2 40/4/2
f 37/4/1 41/4/1 42/4/1 38/4/1
f 38/4/6 42/4/6 39/4/6 35/4/6
f 37/4/5 36/4/5 40/4/5 41/4/5
f 40/4/2 39/4/2 43/4/2 44/4/2
f 41/4/1 45/4/1 46/4/1 42/4/1
f 42/4/6 46/4/6 43/4/6 39/4/6
f 41/4/5 40/4/5 44/4/5 45/4/5
f 44/2/2 43/2/2 47/2/2 48/2/2
f 45/2/1 49/2/1 50/2/1 46/2/1
f 49/2/4 48/2/4 47/2/4 50/2/4
f 46/2/6 50/2/6 47/2/6 43/2/6
f 45/2/5 44/2/5 48/2/5 49/2/5
f 51/1/2 52/1/2 53/1/2 54/1/2
f 55/1/1 56/1/1 57/1/1 58/1/1
f 55/1/3 58/1/3 52/1/3 51/1/3
f 58/1/6 57/1/6 53/1/6 52/1/6
f 55/1/5 51/1/5 54/1/5 56/1/5
f 54/2/2 53/2/2 59/2/2 60/2/2
f 56/2/1 61/2/1 62/2/1 57/2/1
f 57/2/6 62/2/6 59/2/6 53/2/6
f 56/2/5 54/2/5 60/2/5 61/2/5
f 60/2/2 59/2/2 63/2/2 64/2/2
f 61/2/1 65/2/1 66/2/1 62/2/1
f 62/2/6 66/2/6 63/2/6 59/2/6
f 61/2/5 60/2/5 64/2/5 65/2/5
f 64/4/2 63/4/2 67/4/2 68/4/2
f 65/4/1 69/4/1 70/4/1 66/4/1
f 66/4/6 70/4/6 67/4/6 63/4/6
f 65/4/5 64/4/5 68/4/5 69/4/5
f 71/5/1 72/5/1 73/5/1 74/5/1
f 71/5/3 74/5/3 75/5/3 76/5/3
f 71/5/5 76/5/5 77/5/5 72/5/5
f 76/3/3 75/3/3 78/3/3 3/3/3
f 76/3/5 3/3/5 14/3/5 77/3/5
f 7/3/2 79/3/2 80/3/2 18/3/2
f 3/3/3 78/3/3 79/3/3 7/3/3
f 78/3/6 81/3/6 80/3/6 79/3/6
f 68/5/2 67/5/2 82/5/2 83/5/2
f 69/5/1 84/5/1 85/5/1 70/5/1
f 70/5/6 85/5/6 82/5/6 67/5/6
f 69/5/5 68/5/5 83/5/5 84/5/5
f 72/2/1 86/2/1 87/2/1 73/2/1
f 86/2/4 88/2/4 89/2/4 87/2/4
f 72/2/5 77/2/5 88/2/5 86/2/5
f 88/4/4 20/4/4 90/4/4 89/4/4
f 77/4/5 14/4/5 20/4/5 88/4/5
f 18/3/2 80/3/2 91/3/2 24/3/2
f 20/3/4 24/3/4 91/3/4 90/3/4
f 81/3/6 90/3/6 91/3/6 80/3/6
f 83/2/2 82/2/2 92/2/2 93/2/2
f 84/2/1 94/2/1 95/2/1 85/2/1
f 84/2/5 83/2/5 93/2/5 94/2/5
f 93/1/2 92/1/2 96/1/2 97/1/2
f 94/1/1 98/1/1 99/1/1 95/1/1
f 94/1/5 93/1/5 97/1/5 98/1/5
f 97/2/2 96/2/2 100/2/2 101/2/2
f 98/2/1 102/2/1 103/2/1 99/2/1
f 102/2/4 101/2/4 100/2/4 103/2/4
f 99/2/6 103/2/6 100/2/6 96/2/6
f 98/2/5 97/2/5 101/2/5 102/2/5
f 47/4/2 104/4/2 105/4/2 106/4/2
f 50/4/1 107/4/1 108/4/1 109/4/1
f 50/4/3 109/4/3 104/4/3 47/4/3
f 107/4/4 106/4/4 105/4/4 108/4/4
f 50/4/5 47/4/5 106/4/5 107/4/5
f 110/2/1 111/2/1 112/2/1 113/2/1
f 110/2/3 113/2/3 114/2/3 115/2/3
f 111/2/4 116/2/4 117/2/4 112/2/4
f 113/2/6 112/2/6 117/2/6 114/2/6
f 110/2/5 115/2/5 116/2/5 111/2/5
f 118/2/2 119/2/2 120/2/2 121/2/2
f 115/2/3 114/2/3 119/2/3 118/2/3
f 116/2/4 121/2/4 120/2/4 117/2/4
f 115/2/5 118/2/5 121/2/5 116/2/5
f 111/2/2 112/2/2 122/2/2 123/2/2
f 124/2/1 125/2/1 126/2/1 127/2/1
f 124/2/3 127/2/3 112/2/3 111/2/3
f 127/2/6 126/2/6 122/2/6 112/2/6
f 124/2/5 111/2/5 123/2/5 125/2/5
f 128/1/1 129/1/1 130/1/1 131/1/1
f 128/1/3 131/1/3 126/1/3 125/1/3
f 129/1/4 132/1/4 133/1/4 130/1/4
f 131/1/6 130/1/6 133/1/6 126/1/6
f 128/1/5 125/1/5 132/1/5 129/1/5
f 123/2/2 122/2/2 134/2/2 135/2/2
f 132/2/4 135/2/4 134/2/4 133/2/4
f 126/2/6 133/2/6 134/2/6 122/2/6
f 125/2/5 123/2/5 135/2/5 132/2/5
f 129/2/2 130/2/2 136/2/2 137/2/2
f 138/2/1 139/2/1 140/2/1 141/2/1
f 138/2/3 141/2/3 130/2/3 129/2/3
f 141/2/6 140/2/6 136/2/6 130/2/6
f 138/2/5 129/2/5 137/2/5 139/2/5
f 137/5/2 136/5/2 142/5/2 143/5/2
f 139/5/1 144/5/1 145/5/1 140/5/1
f 144/5/4 143/5/4 142/5/4 145/5/4
f 140/5/6 145/5/6 142/5/6 136/5/6
f 139/5/5 137/5/5 143/5/5 144/5/5
f 146/1/2 147/1/2 148/1/2 75/1/2
f 149/1/1 74/1/1 150/1/1 151/1/1
f 149/1/3 151/1/3 147/1/3 146/1/3
f 149/1/5 146/1/5 75/1/5 74/1/5
f 74/6/1 73/6/1 152/6/1 150/6/1
f 78/2/2 153/2/2 154/2/2 81/2/2
f 75/2/3 148/2/3 153/2/3 78/2/3
f 148/2/6 155/2/6 154/2/6 153/2/6
f 73/6/1 87/6/1 156/6/1 152/6/1
f 81/3/2 154/3/2 157/3/2 90/3/2
f 89/3/4 90/3/4 157/3/4 158/3/4
f 155/3/6 158/3/6 157/3/6 154/3/6
f 159/3/1 160/3/1 161/3/1 162/3/1
f 159/3/3 162/3/3 163/3/3 85/3/3
f 159/3/5 85/3/5 95/3/5 160/3/5
f 82/5/2 164/5/2 165/5/2 92/5/2
f 85/5/3 163/5/3 164/5/3 82/5/3
f 163/5/6 166/5/6 165/5/6 164/5/6
f 89/5/2 158/5/2 167/5/2 168/5/2
f 87/5/1 169/5/1 170/5/1 156/5/1
f 169/5/4 168/5/4 167/5/4 170/5/4
f 87/5/5 89/5/5 168/5/5 169/5/5
f 160/4/1 171/4/1 172/4/1 161/4/1
f 171/4/4 99/4/4 173/4/4 172/4/4
f 160/4/5 95/4/5 99/4/5 171/4/5
f 92/7/2 165/7/2 174/7/2 96/7/2
f 99/7/4 96/7/4 174/7/4 173/7/4
f 166/7/6 173/7/6 174/7/6 165/7/6
f 175/5/2 176/5/2 177/5/2 178/5/2
f 179/5/1 180/5/1 181/5/1 182/5/1
f 179/5/3 182/5/3 176/5/3 175/5/3
f 179/5/5 175/5/5 178/5/5 180/5/5
f 178/5/2 177/5/2 183/5/2 184/5/2
f 180/5/1 185/5/1 186/5/1 181/5/1
f 180/5/5 178/5/5 184/5/5 185/5/5
f 187/5/2 188/5/2 189/5/2 190/5/2
f 191/5/1 192/5/1 193/5/1 194/5/1
f 191/5/3 194/5/3 188/5/3 187/5/3
f 191/5/5 187/5/5 190/5/5 192/5/5
f 184/4/2 183/4/2 195/4/2 196/4/2
f 185/4/1 197/4/1 198/4/1 186/4/1
f 197/4/4 196/4/4 195/4/4 198/4/4
f 185/4/5 184/4/5 196/4/5 197/4/5
f 190/4/2 189/4/2 199/4/2 200/4/2
f 192/4/1 201/4/1 202/4/1 193/4/1
f 201/4/4 200/4/4 199/4/4 202/4/4
f 192/4/5 190/4/5 200/4/5 201/4/5
f 104/2/2 203/2/2 204/2/2 105/2/2
f 109/2/1 108/2/1 205/2/1 206/2/1
f 109/2/3 206/2/3 203/2/3 104/2/3
f 108/2/4 105/2/4 204/2/4 205/2/4
f 119/1/2 207/1/2 208/1/2 120/1/2
f 114/1/1 117/1/1 209/1/1 210/1/1
f 114/1/3 210/1/3 207/1/3 119/1/3
f 117/1/4 120/1/4 208/1/4 209/1/4
f 147/1/2 211/1/2 212/1/2 148/1/2
f 151/1/1 150/1/1 213/1/1 214/1/1
f 151/1/3 214/1/3 211/1/3 147/1/3
f 214/1/6 213/1/6 212/1/6 211/1/6
f 215/1/1 153/1/1 216/1/1 217/1/1
f 215/1/3 217/1/3 218/1/3 219/1/3
f 153/1/4 220/1/4 221/1/4 216/1/4
f 215/1/5 219/1/5 220/1/5 153/1/5
f 219/1/3 218/1/3 222/1/3 223/1/3
f 220/1/4 224/1/4 225/1/4 221/1/4
f 218/1/6 221/1/6 225/1/6 222/1/6
f 219/1/5 223/1/5 224/1/5 220/1/5
f 226/4/2 227/4/2 228/4/2 229/4/2
f 223/4/3 222/4/3 227/4/3 226/4/3
f 223/4/5 226/4/5 229/4/5 224/4/5
f 145/5/1 230/5/1 231/5/1 232/5/1
f 145/5/3 232/5/3 233/5/3 142/5/3
f 145/5/5 142/5/5 234/5/5 230/5/5
f 142/3/3 233/3/3 213/3/3 150/3/3
f 142/3/5 150/3/5 152/3/5 234/3/5
f 148/3/2 212/3/2 235/3/2 155/3/2
f 213/3/6 236/3/6 235/3/6 212/3/6
f 229/1/2 228/1/2 237/1/2 163/1/2
f 224/1/1 162/1/1 238/1/1 225/1/1
f 225/1/6 238/1/6 237/1/6 228/1/6
f 224/1/5 229/1/5 163/1/5 162/1/5
f 230/5/1 239/5/1 240/5/1 231/5/1
f 239/5/4 241/5/4 242/5/4 240/5/4
f 230/5/5 234/5/5 241/5/5 239/5/5
f 241/8/4 156/8/4 243/8/4 242/8/4
f 234/8/5 152/8/5 156/8/5 241/8/5
f 155/3/2 235/3/2 244/3/2 158/3/2
f 236/3/6 243/3/6 244/3/6 235/3/6
f 245/3/1 246/3/1 247/3/1 248/3/1
f 245/3/3 248/3/3 238/3/3 162/3/3
f 245/3/5 162/3/5 161/3/5 246/3/5
f 163/5/2 237/5/2 249/5/2 166/5/2
f 238/5/6 250/5/6 249/5/6 237/5/6
f 158/5/2 244/5/2 251/5/2 167/5/2
f 156/5/1 170/5/1 252/5/1 243/5/1
f 170/5/4 167/5/4 251/5/4 252/5/4
f 243/5/6 252/5/6 251/5/6 244/5/6
f 246/3/1 253/3/1 254/3/1 247/3/1
f 253/3/4 172/3/4 255/3/4 254/3/4
f 246/3/5 161/3/5 172/3/5 253/3/5
f 166/1/2 249/1/2 256/1/2 173/1/2
f 172/1/4 173/1/4 256/1/4 255/1/4
f 250/1/6 255/1/6 256/1/6 249/1/6
f 253/2/2 254/2/2 257/2/2 176/2/2
f 258/2/1 182/2/1 259/2/1 260/2/1
f 258/2/3 260/2/3 254/2/3 253/2/3
f 258/2/5 253/2/5 176/2/5 182/2/5
f 174/1/2 261/1/2 262/1/2 263/1/2
f 173/1/1 264/1/1 265/1/1 256/1/1
f 173/1/3 256/1/3 261/1/3 174/1/3
f 256/1/6 265/1/6 262/1/6 261/1/6
f 173/1/5 174/1/5 263/1/5 264/1/5
f 176/1/2 257/1/2 266/1/2 177/1/2
f 182/1/1 181/1/1 267/1/1 259/1/1
f 263/2/2 262/2/2 268/2/2 188/2/2
f 264/2/1 194/2/1 269/2/1 265/2/1
f 265/2/6 269/2/6 268/2/6 262/2/6
f 264/2/5 263/2/5 188/2/5 194/2/5
f 270/2/1 271/2/1 272/2/1 273/2/1
f 270/2/3 273/2/3 274/2/3 275/2/3
f 271/2/4 276/2/4 277/2/4 272/2/4
f 270/2/5 275/2/5 276/2/5 271/2/5
f 275/4/3 274/4/3 267/4/3 181/4/3
f 276/4/4 186/4/4 278/4/4 277/4/4
f 274/4/6 277/4/6 278/4/6 267/4/6
f 275/4/5 181/4/5 186/4/5 276/4/5
f 177/4/3 266/4/3 279/4/3 280/4/3
f 183/4/4 281/4/4 282/4/4 283/4/4
f 266/4/6 283/4/6 282/4/6 279/4/6
f 177/4/5 280/4/5 281/4/5 183/4/5
f 280/4/3 279/4/3 269/4/3 194/4/3
f 281/4/4 193/4/4 284/4/4 282/4/4
f 279/4/6 282/4/6 284/4/6 269/4/6
f 280/4/5 194/4/5 193/4/5 281/4/5
f 188/4/2 268/4/2 285/4/2 189/4/2
f 183/4/2 283/4/2 286/4/2 195/4/2
f 186/4/1 198/4/1 287/4/1 278/4/1
f 198/4/4 195/4/4 286/4/4 287/4/4
f 189/4/2 285/4/2 288/4/2 199/4/2
f 193/4/1 202/4/1 289/4/1 284/4/1
f 202/4/4 199/4/4 288/4/4 289/4/4
f 203/4/2 290/4/2 291/4/2 204/4/2
f 206/4/1 205/4/1 292/4/1 293/4/1
f 206/4/3 293/4/3 290/4/3 203/4/3
f 205/4/4 204/4/4 291/4/4 292/4/4
f 207/1/2 294/1/2 295/1/2 208/1/2
f 210/1/1 209/1/1 296/1/1 297/1/1
f 210/1/3 297/1/3 294/1/3 207/1/3
f 298/5/2 299/5/2 300/5/2 301/5/2
f 302/5/1 303/5/1 304/5/1 305/5/1
f 302/5/3 305/5/3 299/5/3 298/5/3
f 303/5/4 301/5/4 300/5/4 304/5/4
f 302/5/5 298/5/5 301/5/5 303/5/5
f 209/1/1 306/1/1 307/1/1 296/1/1
f 209/1/5 208/1/5 308/1/5 306/1/5
f 208/1/3 295/1/3 309/1/3 310/1/3
f 308/1/4 311/1/4 312/1/4 313/1/4
f 295/1/6 313/1/6 312/1/6 309/1/6
f 208/1/5 310/1/5 311/1/5 308/1/5
f 303/4/2 304/4/2 314/4/2 315/4/2
f 310/4/3 309/4/3 304/4/3 303/4/3
f 309/4/6 312/4/6 314/4/6 304/4/6
f 310/4/5 303/4/5 315/4/5 311/4/5
f 308/1/2 313/1/2 316/1/2 317/1/2
f 306/1/1 318/1/1 319/1/1 307/1/1
f 307/1/6 319/1/6 316/1/6 313/1/6
f 306/1/5 308/1/5 317/1/5 318/1/5
f 315/4/2 314/4/2 320/4/2 321/4/2
f 311/4/1 322/4/1 323/4/1 312/4/1
f 312/4/6 323/4/6 320/4/6 314/4/6
f 311/4/5 315/4/5 321/4/5 322/4/5
f 317/1/2 316/1/2 324/1/2 218/1/2
f 318/1/1 217/1/1 325/1/1 319/1/1
f 319/1/6 325/1/6 324/1/6 316/1/6
f 318/1/5 317/1/5 218/1/5 217/1/5
f 321/1/2 320/1/2 326/1/2 227/1/2
f 322/1/1 222/1/1 327/1/1 323/1/1
f 323/1/6 327/1/6 326/1/6 320/1/6
f 322/1/5 321/1/5 227/1/5 222/1/5
f 328/1/2 329/1/2 330/1/2 233/1/2
f 331/1/1 232/1/1 332/1/1 333/1/1
f 331/1/3 333/1/3 329/1/3 328/1/3
f 331/1/5 328/1/5 233/1/5 232/1/5
f 218/1/2 324/1/2 334/1/2 221/1/2
f 217/1/1 216/1/1 335/1/1 325/1/1
f 325/1/6 335/1/6 334/1/6 324/1/6
f 227/4/2 326/4/2 336/4/2 228/4/2
f 222/4/1 225/4/1 337/4/1 327/4/1
f 225/4/4 228/4/4 336/4/4 337/4/4
f 232/6/1 231/6/1 338/6/1 332/6/1
f 213/3/2 339/3/2 340/3/2 236/3/2
f 233/3/3 330/3/3 339/3/3 213/3/3
f 330/3/6 341/3/6 340/3/6 339/3/6
f 221/1/2 334/1/2 342/1/2 248/1/2
f 216/1/1 343/1/1 344/1/1 335/1/1
f 335/1/6 344/1/6 342/1/6 334/1/6
f 216/1/5 221/1/5 248/1/5 343/1/5
f 231/6/1 240/6/1 345/6/1 338/6/1
f 236/3/2 340/3/2 346/3/2 243/3/2
f 242/3/4 243/3/4 346/3/4 347/3/4
f 341/3/6 347/3/6 346/3/6 340/3/6
f 343/3/1 348/3/1 349/3/1 344/3/1
f 343/3/5 248/3/5 247/3/5 348/3/5
f 238/1/2 350/1/2 351/1/2 250/1/2
f 248/1/3 342/1/3 350/1/3 238/1/3
f 342/1/6 352/1/6 351/1/6 350/1/6
f 242/5/2 347/5/2 353/5/2 354/5/2
f 240/5/1 355/5/1 356/5/1 345/5/1
f 355/5/4 354/5/4 353/5/4 356/5/4
f 240/5/5 242/5/5 354/5/5 355/5/5
f 348/3/1 260/3/1 357/3/1 349/3/1
f 348/3/5 247/3/5 254/3/5 260/3/5
f 250/1/2 351/1/2 358/1/2 255/1/2
f 254/1/4 255/1/4 358/1/4 359/1/4
f 352/1/6 359/1/6 358/1/6 351/1/6
f 254/1/2 359/1/2 360/1/2 257/1/2
f 260/1/1 259/1/1 361/1/1 357/1/1
f 257/1/2 360/1/2 362/1/2 266/1/2
f 259/1/1 267/1/1 363/1/1 361/1/1
f 361/1/6 363/1/6 362/1/6 360/1/6
f 274/4/2 364/4/2 365/4/2 277/4/2
f 273/4/1 272/4/1 366/4/1 367/4/1
f 273/4/3 367/4/3 364/4/3 274/4/3
f 272/4/4 277/4/4 365/4/4 366/4/4
f 266/4/2 362/4/2 368/4/2 283/4/2
f 267/4/1 278/4/1 369/4/1 363/4/1
f 363/4/6 369/4/6 368/4/6 362/4/6
f 268/4/2 370/4/2 371/4/2 285/4/2
f 269/4/1 284/4/1 372/4/1 373/4/1
f 269/4/3 373/4/3 370/4/3 268/4/3
f 283/4/2 368/4/2 374/4/2 286/4/2
f 278/4/1 287/4/1 375/4/1 369/4/1
f 287/4/4 286/4/4 374/4/4 375/4/4
f 369/4/6 375/4/6 374/4/6 368/4/6
f 285/4/2 371/4/2 376/4/2 288/4/2
f 284/4/1 289/4/1 377/4/1 372/4/1
f 372/4/6 377/4/6 376/4/6 371/4/6
f 288/2/2 376/2/2 378/2/2 379/2/2
f 289/2/1 380/2/1 381/2/1 377/2/1
f 377/2/6 381/2/6 378/2/6 376/2/6
f 289/2/5 288/2/5 379/2/5 380/2/5
f 293/4/1 292/4/1 382/4/1 383/4/1
f 293/4/3 383/4/3 384/4/3 290/4/3
f 292/4/4 291/4/4 385/4/4 382/4/4
f 290/4/3 384/4/3 381/4/3 380/4/3
f 291/4/4 386/4/4 387/4/4 385/4/4
f 384/4/6 385/4/6 387/4/6 381/4/6
f 290/4/5 380/4/5 386/4/5 291/4/5
f 379/2/2 378/2/2 388/2/2 389/2/2
f 386/2/4 389/2/4 388/2/4 387/2/4
f 381/2/6 387/2/6 388/2/6 378/2/6
f 380/2/5 379/2/5 389/2/5 386/2/5
f 294/4/2 390/4/2 391/4/2 295/4/2
f 297/4/1 296/4/1 392/4/1 393/4/1
f 297/4/3 393/4/3 390/4/3 294/4/3
f 299/5/2 394/5/2 395/5/2 300/5/2
f 305/5/1 304/5/1 396/5/1 397/5/1
f 305/5/3 397/5/3 394/5/3 299/5/3
f 304/5/4 300/5/4 395/5/4 396/5/4
f 398/3/1 399/3/1 400/3/1 401/3/1
f 398/3/3 401/3/3 402/3/3 403/3/3
f 399/3/4 404/3/4 405/3/4 400/3/4
f 398/3/5 403/3/5 404/3/5 399/3/5
f 403/8/3 402/8/3 392/8/3 296/8/3
f 404/8/4 307/8/4 406/8/4 405/8/4
f 402/8/6 405/8/6 406/8/6 392/8/6
f 403/8/5 296/8/5 307/8/5 404/8/5
f 295/1/2 391/1/2 407/1/2 313/1/2
f 307/1/4 313/1/4 407/1/4 406/1/4
f 392/1/6 406/1/6 407/1/6 391/1/6
f 408/8/2 409/8/2 410/8/2 411/8/2
f 412/8/1 413/8/1 414/8/1 415/8/1
f 412/8/3 415/8/3 409/8/3 408/8/3
f 412/8/5 408/8/5 411/8/5 413/8/5
f 416/2/2 417/2/2 418/2/2 419/2/2
f 420/2/1 421/2/1 422/2/1 423/2/1
f 420/2/3 423/2/3 417/2/3 416/2/3
f 420/2/5 416/2/5 419/2/5 421/2/5
f 329/1/2 424/1/2 425/1/2 330/1/2
f 333/1/1 332/1/1 426/1/1 427/1/1
f 333/1/3 427/1/3 424/1/3 329/1/3
f 324/1/1 334/1/1 428/1/1 429/1/1
f 324/1/3 429/1/3 430/1/3 327/1/3
f 324/1/5 327/1/5 337/1/5 334/1/5
f 326/1/2 431/1/2 432/1/2 336/1/2
f 327/1/3 430/1/3 431/1/3 326/1/3
f 337/1/4 336/1/4 432/1/4 433/1/4
f 413/8/1 434/8/1 435/8/1 414/8/1
f 413/8/5 411/8/5 436/8/5 434/8/5
f 437/3/2 438/3/2 439/3/2 440/3/2
f 411/3/3 410/3/3 438/3/3 437/3/3
f 411/3/5 437/3/5 440/3/5 436/3/5
f 421/5/1 441/5/1 442/5/1 422/5/1
f 441/5/4 443/5/4 444/5/4 442/5/4
f 421/5/5 419/5/5 443/5/5 441/5/5
f 419/2/3 418/2/3 426/2/3 332/2/3
f 419/2/5 332/2/5 338/2/5 443/2/5
f 330/3/2 425/3/2 445/3/2 341/3/2
f 337/1/2 433/1/2 446/1/2 350/1/2
f 334/1/1 342/1/1 447/1/1 428/1/1
f 342/1/4 350/1/4 446/1/4 447/1/4
f 334/1/5 337/1/5 350/1/5 342/1/5
f 434/6/1 448/6/1 449/6/1 435/6/1
f 434/6/5 436/6/5 450/6/5 448/6/5
f 440/6/2 439/6/2 451/6/2 452/6/2
f 450/6/4 452/6/4 451/6/4 453/6/4
f 436/6/5 440/6/5 452/6/5 450/6/5
f 443/6/1 454/6/1 455/6/1 444/6/1
f 454/6/4 345/6/4 456/6/4 455/6/4
f 443/6/5 338/6/5 345/6/5 454/6/5
f 341/3/2 445/3/2 457/3/2 347/3/2
f 458/3/1 459/3/1 460/3/1 461/3/1
f 458/3/3 461/3/3 462/3/3 344/3/3
f 458/3/5 344/3/5 349/3/5 459/3/5
f 342/1/2 447/1/2 463/1/2 352/1/2
f 344/1/3 462/1/3 447/1/3 342/1/3
f 450/6/2 453/6/2 464/6/2 465/6/2
f 448/6/1 466/6/1 467/6/1 449/6/1
f 466/6/4 465/6/4 464/6/4 467/6/4
f 448/6/5 450/6/5 465/6/5 466/6/5
f 468/5/2 469/5/2 470/5/2 471/5/2
f 472/5/1 473/5/1 474/5/1 475/5/1
f 472/5/3 475/5/3 469/5/3 468/5/3
f 472/5/5 468/5/5 471/5/5 473/5/5
f 347/5/2 457/5/2 476/5/2 353/5/2
f 345/5/1 356/5/1 477/5/1 456/5/1
f 356/5/4 353/5/4 476/5/4 477/5/4
f 459/6/1 478/6/1 479/6/1 460/6/1
f 478/6/4 357/6/4 480/6/4 479/6/4
f 459/6/5 349/6/5 357/6/5 478/6/5
f 352/1/2 463/1/2 481/1/2 359/1/2
f 482/5/2 483/5/2 484/5/2 485/5/2
f 351/5/1 358/5/1 486/5/1 487/5/1
f 351/5/3 487/5/3 483/5/3 482/5/3
f 358/5/4 485/5/4 484/5/4 486/5/4
f 351/5/5 482/5/5 485/5/5 358/5/5
f 471/2/2 470/2/2 488/2/2 489/2/2
f 473/2/1 490/2/1 491/2/1 474/2/1
f 473/2/5 471/2/5 489/2/5 490/2/5
f 359/1/2 481/1/2 492/1/2 360/1/2
f 357/1/1 361/1/1 493/1/1 480/1/1
f 361/1/4 360/1/4 492/1/4 493/1/4
f 489/2/2 488/2/2 494/2/2 495/2/2
f 490/2/1 496/2/1 497/2/1 491/2/1
f 496/2/4 495/2/4 494/2/4 497/2/4
f 490/2/5 489/2/5 495/2/5 496/2/5
f 498/5/2 499/5/2 500/5/2 501/5/2
f 502/5/1 503/5/1 504/5/1 505/5/1
f 502/5/3 505/5/3 499/5/3 498/5/3
f 502/5/5 498/5/5 501/5/5 503/5/5
f 364/3/2 506/3/2 507/3/2 365/3/2
f 367/3/1 366/3/1 508/3/1 509/3/1
f 367/3/3 509/3/3 506/3/3 364/3/3
f 366/3/4 365/3/4 507/3/4 508/3/4
f 370/2/2 510/2/2 511/2/2 371/2/2
f 373/2/1 372/2/1 512/2/1 513/2/1
f 373/2/3 513/2/3 510/2/3 370/2/3
f 372/2/4 371/2/4 511/2/4 512/2/4
f 501/4/2 500/4/2 514/4/2 515/4/2
f 503/4/1 516/4/1 517/4/1 504/4/1
f 516/4/4 515/4/4 514/4/4 517/4/4
f 503/4/5 501/4/5 515/4/5 516/4/5
f 518/4/1 519/4/1 520/4/1 521/4/1
f 518/4/3 521/4/3 522/4/3 523/4/3
f 519/4/4 524/4/4 525/4/4 520/4/4
f 518/4/5 523/4/5 524/4/5 519/4/5
f 526/4/2 527/4/2 528/4/2 529/4/2
f 523/4/3 522/4/3 527/4/3 526/4/3
f 524/4/4 529/4/4 528/4/4 525/4/4
f 523/4/5 526/4/5 529/4/5 524/4/5
f 384/1/2 530/1/2 531/1/2 385/1/2
f 383/1/1 382/1/1 532/1/1 533/1/1
f 383/1/3 533/1/3 530/1/3 384/1/3
f 382/1/4 385/1/4 531/1/4 532/1/4
f 390/4/2 534/4/2 535/4/2 391/4/2
f 393/4/1 392/4/1 536/4/1 537/4/1
f 393/4/3 537/4/3 534/4/3 390/4/3
f 392/4/4 391/4/4 535/4/4 536/4/4
f 394/4/2 538/4/2 539/4/2 395/4/2
f 397/4/1 396/4/1 540/4/1 541/4/1
f 397/4/3 541/4/3 538/4/3 394/4/3
f 396/4/4 395/4/4 539/4/4 540/4/4
f 402/3/2 542/3/2 543/3/2 405/3/2
f 401/3/1 400/3/1 544/3/1 545/3/1
f 401/3/3 545/3/3 542/3/3 402/3/3
f 400/3/4 405/3/4 543/3/4 544/3/4
f 546/8/2 547/8/2 548/8/2 409/8/2
f 549/8/1 415/8/1 550/8/1 551/8/1
f 549/8/3 551/8/3 547/8/3 546/8/3
f 549/8/5 546/8/5 409/8/5 415/8/5
f 552/5/2 553/5/2 554/5/2 417/5/2
f 555/5/1 423/5/1 556/5/1 557/5/1
f 555/5/3 557/5/3 553/5/3 552/5/3
f 555/5/5 552/5/5 417/5/5 423/5/5
f 558/1/2 559/1/2 560/1/2 430/1/2
f 561/1/1 429/1/1 562/1/1 563/1/1
f 561/1/3 563/1/3 559/1/3 558/1/3
f 561/1/5 558/1/5 430/1/5 429/1/5
f 415/8/1 414/8/1 564/8/1 550/8/1
f 565/3/2 566/3/2 567/3/2 438/3/2
f 409/3/3 548/3/3 566/3/3 565/3/3
f 409/3/5 565/3/5 438/3/5 410/3/5
f 423/3/1 422/3/1 568/3/1 556/3/1
f 417/3/3 554/3/3 569/3/3 427/3/3
f 417/3/5 427/3/5 426/3/5 418/3/5
f 424/3/2 570/3/2 571/3/2 425/3/2
f 427/3/3 569/3/3 570/3/3 424/3/3
f 572/3/1 573/3/1 574/3/1 575/3/1
f 572/3/3 575/3/3 576/3/3 577/3/3
f 572/3/5 577/3/5 578/3/5 573/3/5
f 577/1/3 576/1/3 562/1/3 429/1/3
f 577/1/5 429/1/5 428/1/5 578/1/5
f 431/1/2 579/1/2 580/1/2 432/1/2
f 430/1/3 560/1/3 579/1/3 431/1/3
f 414/8/1 435/8/1 581/8/1 564/8/1
f 438/3/3 567/3/3 582/3/3 583/3/3
f 438/3/5 583/3/5 584/3/5 439/3/5
f 583/3/3 582/3/3 585/3/3 586/3/3
f 583/3/5 586/3/5 587/3/5 584/3/5
f 586/3/3 585/3/3 588/3/3 589/3/3
f 586/3/5 589/3/5 590/3/5 587/3/5
f 589/3/3 588/3/3 568/3/3 422/3/3
f 589/3/5 422/3/5 442/3/5 590/3/5
f 425/3/3 571/3/3 591/3/3 592/3/3
f 425/3/5 592/3/5 593/3/5 445/3/5
f 592/3/3 591/3/3 574/3/3 573/3/3
f 592/3/5 573/3/5 461/3/5 593/3/5
f 573/3/5 578/3/5 462/3/5 461/3/5
f 578/1/5 428/1/5 447/1/5 462/1/5
f 433/1/5 432/1/5 594/1/5 446/1/5
f 595/5/2 596/5/2 597/5/2 598/5/2
f 432/5/3 580/5/3 596/5/3 595/5/3
f 432/5/5 595/5/5 598/5/5 594/5/5
f 435/6/1 449/6/1 599/6/1 581/6/1
f 451/6/4 600/6/4 601/6/4 602/6/4
f 439/6/5 584/6/5 600/6/5 451/6/5
f 600/6/4 603/6/4 604/6/4 601/6/4
f 584/6/5 587/6/5 603/6/5 600/6/5
f 603/6/4 475/6/4 605/6/4 604/6/4
f 587/6/5 590/6/5 475/6/5 603/6/5
f 590/6/5 442/6/5 469/6/5 475/6/5
f 442/6/5 444/6/5 455/6/5 469/6/5
f 445/3/5 593/3/5 606/3/5 457/3/5
f 593/3/5 461/3/5 460/3/5 606/3/5
f 447/1/5 446/1/5 487/1/5 463/1/5
f 446/1/5 594/1/5 483/1/5 487/1/5
f 598/1/2 597/1/2 607/1/2 608/1/2
f 483/1/4 608/1/4 607/1/4 609/1/4
f 594/1/5 598/1/5 608/1/5 483/1/5
f 449/6/1 467/6/1 610/6/1 599/6/1
f 451/6/2 602/6/2 611/6/2 612/6/2
f 464/6/4 612/6/4 611/6/4 613/6/4
f 453/6/5 451/6/5 612/6/5 464/6/5
f 475/6/1 474/6/1 614/6/1 605/6/1
f 470/6/4 615/6/4 616/6/4 617/6/4
f 469/6/5 455/6/5 615/6/5 470/6/5
f 615/6/4 477/6/4 618/6/4 616/6/4
f 455/6/5 456/6/5 477/6/5 615/6/5
f 477/6/4 476/6/4 619/6/4 618/6/4
f 457/6/5 606/6/5 620/6/5 476/6/5
f 620/6/4 479/6/4 621/6/4 622/6/4
f 606/6/5 460/6/5 479/6/5 620/6/5
f 479/6/4 480/6/4 623/6/4 621/6/4
f 481/1/4 486/1/4 624/1/4 625/1/4
f 463/1/5 487/1/5 486/1/5 481/1/5
f 483/1/2 609/1/2 626/1/2 484/1/2
f 464/6/2 613/6/2 627/6/2 628/6/2
f 467/6/1 629/6/1 630/6/1 610/6/1
f 629/6/4 628/6/4 627/6/4 630/6/4
f 467/6/5 464/6/5 628/6/5 629/6/5
f 470/6/2 617/6/2 631/6/2 488/6/2
f 474/6/1 491/6/1 632/6/1 614/6/1
f 620/2/2 622/2/2 633/2/2 634/2/2
f 476/2/1 635/2/1 636/2/1 619/2/1
f 476/2/5 620/2/5 634/2/5 635/2/5
f 481/1/2 625/1/2 637/1/2 492/1/2
f 480/1/1 493/1/1 638/1/1 623/1/1
f 493/1/4 492/1/4 637/1/4 638/1/4
f 623/1/6 638/1/6 637/1/6 625/1/6
f 484/1/2 626/1/2 639/1/2 640/1/2
f 486/1/1 641/1/1 642/1/1 624/1/1
f 641/1/4 640/1/4 639/1/4 642/1/4
f 486/1/5 484/1/5 640/1/5 641/1/5
f 491/6/1 497/6/1 643/6/1 632/6/1
f 644/3/2 645/3/2 646/3/2 505/3/2
f 488/3/3 631/3/3 645/3/3 644/3/3
f 488/3/5 644/3/5 505/3/5 494/3/5
f 634/2/2 633/2/2 647/2/2 509/2/2
f 635/2/1 648/2/1 649/2/1 636/2/1
f 648/2/4 509/2/4 647/2/4 649/2/4
f 635/2/5 634/2/5 509/2/5 648/2/5
f 497/5/1 650/5/1 651/5/1 643/5/1
f 650/5/4 652/5/4 653/5/4 651/5/4
f 497/5/5 494/5/5 652/5/5 650/5/5
f 652/3/4 504/3/4 654/3/4 653/3/4
f 494/3/5 505/3/5 504/3/5 652/3/5
f 499/3/2 655/3/2 656/3/2 500/3/2
f 505/3/3 646/3/3 655/3/3 499/3/3
f 509/3/1 508/3/1 657/3/1 647/3/1
f 509/3/3 647/3/3 658/3/3 506/3/3
f 508/3/4 507/3/4 659/3/4 657/3/4
f 660/1/2 661/1/2 662/1/2 663/1/2
f 506/1/3 658/1/3 661/1/3 660/1/3
f 506/1/5 660/1/5 663/1/5 507/1/5
f 510/4/2 664/4/2 665/4/2 511/4/2
f 513/4/1 512/4/1 666/4/1 667/4/1
f 513/4/3 667/4/3 664/4/3 510/4/3
f 512/4/4 511/4/4 665/4/4 666/4/4
f 504/4/1 517/4/1 668/4/1 654/4/1
f 669/4/2 670/4/2 671/4/2 672/4/2
f 500/4/3 656/4/3 670/4/3 669/4/3
f 500/4/5 669/4/5 672/4/5 514/4/5
f 663/1/2 662/1/2 673/1/2 674/1/2
f 507/1/1 675/1/1 676/1/1 659/1/1
f 675/1/4 674/1/4 673/1/4 676/1/4
f 507/1/5 663/1/5 674/1/5 675/1/5
f 517/4/1 677/4/1 678/4/1 668/4/1
f 677/4/4 679/4/4 680/4/4 678/4/4
f 517/4/5 514/4/5 679/4/5 677/4/5
f 679/2/4 521/2/4 681/2/4 680/2/4
f 514/2/5 672/2/5 521/2/5 679/2/5
f 682/4/2 683/4/2 684/4/2 522/4/2
f 672/4/3 671/4/3 683/4/3 682/4/3
f 672/4/5 682/4/5 522/4/5 521/4/5
f 521/4/1 520/4/1 685/4/1 681/4/1
f 520/4/4 525/4/4 686/4/4 685/4/4
f 527/2/2 687/2/2 688/2/2 528/2/2
f 522/2/3 684/2/3 687/2/3 527/2/3
f 525/2/4 528/2/4 688/2/4 686/2/4
f 533/1/1 532/1/1 689/1/1 690/1/1
f 533/1/3 690/1/3 691/1/3 530/1/3
f 532/1/4 531/1/4 692/1/4 689/1/4
f 693/2/2 694/2/2 695/2/2 696/2/2
f 530/2/3 691/2/3 694/2/3 693/2/3
f 531/2/4 696/2/4 695/2/4 692/2/4
f 530/2/5 693/2/5 696/2/5 531/2/5
f 697/1/1 698/1/1 699/1/1 700/1/1
f 697/1/3 700/1/3 701/1/3 702/1/3
f 697/1/5 702/1/5 703/1/5 698/1/5
f 704/2/2 705/2/2 706/2/2 707/2/2
f 702/2/3 701/2/3 705/2/3 704/2/3
f 703/2/4 707/2/4 706/2/4 708/2/4
f 702/2/5 704/2/5 707/2/5 703/2/5
f 703/2/2 708/2/2 709/2/2 710/2/2
f 698/2/1 534/2/1 711/2/1 699/2/1
f 534/2/4 710/2/4 709/2/4 711/2/4
f 698/2/5 703/2/5 710/2/5 534/2/5
f 712/4/2 713/4/2 714/4/2 538/4/2
f 707/4/1 541/4/1 715/4/1 706/4/1
f 707/4/3 706/4/3 713/4/3 712/4/3
f 707/4/5 712/4/5 538/4/5 541/4/5
f 716/1/1 542/1/1 717/1/1 718/1/1
f 716/1/3 718/1/3 719/1/3 537/1/3
f 716/1/5 537/1/5 536/1/5 542/1/5
f 534/4/2 711/4/2 720/4/2 535/4/2
f 537/4/3 719/4/3 711/4/3 534/4/3
f 536/4/4 535/4/4 720/4/4 721/4/4
f 538/4/2 714/4/2 722/4/2 539/4/2
f 541/4/1 540/4/1 723/4/1 715/4/1
f 545/3/1 544/3/1 724/3/1 725/3/1
f 545/3/3 725/3/3 717/3/3 542/3/3
f 544/3/4 543/3/4 726/3/4 724/3/4
f 536/1/2 721/1/2 727/1/2 728/1/2
f 543/1/4 728/1/4 727/1/4 726/1/4
f 542/1/5 536/1/5 728/1/5 543/1/5
f 729/1/1 730/1/1 731/1/1 732/1/1
f 729/1/3 732/1/3 723/1/3 540/1/3
f 729/1/5 540/1/5 733/1/5 730/1/5
f 539/5/2 722/5/2 734/5/2 735/5/2
f 733/5/4 735/5/4 734/5/4 736/5/4
f 540/5/5 539/5/5 735/5/5 733/5/5
f 544/5/2 724/5/2 737/5/2 738/5/2
f 739/5/1 740/5/1 741/5/1 742/5/1
f 739/5/3 742/5/3 724/5/3 544/5/3
f 739/5/5 544/5/5 738/5/5 740/5/5
f 743/1/1 563/1/1 744/1/1 745/1/1
f 743/1/3 745/1/3 731/1/3 730/1/3
f 743/1/5 730/1/5 559/1/5 563/1/5
f 733/1/2 736/1/2 746/1/2 747/1/2
f 559/1/4 747/1/4 746/1/4 748/1/4
f 730/1/5 733/1/5 747/1/5 559/1/5
f 551/8/1 550/8/1 749/8/1 750/8/1
f 551/8/3 750/8/3 751/8/3 547/8/3
f 752/3/2 753/3/2 754/3/2 566/3/2
f 547/3/3 751/3/3 753/3/3 752/3/3
f 547/3/5 752/3/5 566/3/5 548/3/5
f 553/5/2 755/5/2 756/5/2 554/5/2
f 557/5/1 556/5/1 757/5/1 758/5/1
f 557/5/3 758/5/3 755/5/3 553/5/3
f 758/5/6 757/5/6 756/5/6 755/5/6
f 738/5/2 737/5/2 759/5/2 760/5/2
f 740/5/1 570/5/1 761/5/1 741/5/1
f 740/5/5 738/5/5 760/5/5 570/5/5
f 762/1/1 576/1/1 763/1/1 764/1/1
f 762/1/3 764/1/3 744/1/3 563/1/3
f 762/1/5 563/1/5 562/1/5 576/1/5
f 559/1/2 748/1/2 765/1/2 560/1/2
f 550/8/1 564/8/1 766/8/1 749/8/1
f 566/3/3 754/3/3 767/3/3 768/3/3
f 566/3/5 768/3/5 582/3/5 567/3/5
f 768/3/3 767/3/3 769/3/3 770/3/3
f 768/3/5 770/3/5 585/3/5 582/3/5
f 770/3/3 769/3/3 771/3/3 772/3/3
f 770/3/5 772/3/5 588/3/5 585/3/5
f 772/3/3 771/3/3 757/3/3 556/3/3
f 772/3/5 556/3/5 568/3/5 588/3/5
f 554/3/3 756/3/3 773/3/3 569/3/3
f 569/3/3 773/3/3 761/3/3 570/3/3
f 570/3/5 760/3/5 591/3/5 571/3/5
f 760/3/3 759/3/3 774/3/3 575/3/3
f 760/3/5 575/3/5 574/3/5 591/3/5
f 575/3/3 774/3/3 763/3/3 576/3/3
f 560/1/3 765/1/3 775/1/3 579/1/3
f 776/5/2 777/5/2 778/5/2 596/5/2
f 579/5/3 775/5/3 777/5/3 776/5/3
f 579/5/5 776/5/5 596/5/5 580/5/5
f 564/8/1 581/8/1 779/8/1 766/8/1
f 596/5/2 778/5/2 780/5/2 597/5/2
f 581/6/1 599/6/1 781/6/1 779/6/1
f 597/5/2 780/5/2 782/5/2 607/5/2
f 599/6/1 610/6/1 783/6/1 781/6/1
f 611/6/4 784/6/4 785/6/4 786/6/4
f 602/6/5 601/6/5 784/6/5 611/6/5
f 784/6/4 787/6/4 788/6/4 785/6/4
f 601/6/5 604/6/5 787/6/5 784/6/5
f 604/6/5 605/6/5 614/6/5 787/6/5
f 617/6/4 616/6/4 789/6/4 790/6/4
f 616/6/4 618/6/4 791/6/4 789/6/4
f 622/3/4 621/3/4 792/3/4 793/3/4
f 621/3/4 623/3/4 794/3/4 792/3/4
f 623/1/4 625/1/4 795/1/4 794/1/4
f 625/1/4 624/1/4 796/1/4 795/1/4
f 607/1/2 782/1/2 797/1/2 798/1/2
f 626/1/4 798/1/4 797/1/4 799/1/4
f 609/1/5 607/1/5 798/1/5 626/1/5
f 610/6/1 630/6/1 800/6/1 783/6/1
f 630/6/4 627/6/4 801/6/4 800/6/4
f 611/6/2 786/6/2 802/6/2 803/6/2
f 627/6/4 803/6/4 802/6/4 801/6/4
f 613/6/5 611/6/5 803/6/5 627/6/5
f 787/6/1 804/6/1 805/6/1 788/6/1
f 804/6/4 632/6/4 806/6/4 805/6/4
f 788/6/6 805/6/6 806/6/6 807/6/6
f 787/6/5 614/6/5 632/6/5 804/6/5
f 617/6/2 790/6/2 808/6/2 631/6/2
f 618/6/1 809/6/1 810/6/1 791/6/1
f 809/6/4 636/6/4 811/6/4 810/6/4
f 618/6/5 619/6/5 636/6/5 809/6/5
f 622/3/2 793/3/2 812/3/2 633/3/2
f 626/2/2 799/2/2 813/2/2 639/2/2
f 624/2/1 642/2/1 814/2/1 796/2/1
f 642/2/4 639/2/4 813/2/4 814/2/4
f 796/2/6 814/2/6 813/2/6 799/2/6
f 632/6/1 643/6/1 815/6/1 806/6/1
f 645/3/2 816/3/2 817/3/2 646/3/2
f 631/3/3 808/3/3 816/3/3 645/3/3
f 808/3/6 818/3/6 817/3/6 816/3/6
f 636/3/1 649/3/1 819/3/1 811/3/1
f 820/3/2 821/3/2 822/3/2 658/3/2
f 633/3/3 812/3/3 821/3/3 820/3/3
f 633/3/5 820/3/5 658/3/5 647/3/5
f 643/5/1 651/5/1 823/5/1 815/5/1
f 651/5/4 653/5/4 824/5/4 823/5/4
f 815/5/6 823/5/6 824/5/6 818/5/6
f 653/3/4 654/3/4 825/3/4 824/3/4
f 818/3/6 824/3/6 825/3/6 817/3/6
f 655/3/2 826/3/2 827/3/2 656/3/2
f 646/3/3 817/3/3 826/3/3 655/3/3
f 649/5/1 670/5/1 828/5/1 819/5/1
f 670/5/4 657/5/4 829/5/4 828/5/4
f 649/5/5 647/5/5 657/5/5 670/5/5
f 657/3/4 659/3/4 830/3/4 829/3/4
f 661/3/2 831/3/2 832/3/2 662/3/2
f 658/3/3 822/3/3 831/3/3 661/3/3
f 664/1/2 833/1/2 834/1/2 665/1/2
f 667/1/1 666/1/1 835/1/1 836/1/1
f 667/1/3 836/1/3 833/1/3 664/1/3
f 654/4/1 668/4/1 837/4/1 825/4/1
f 670/4/2 828/4/2 838/4/2 671/4/2
f 656/4/3 827/4/3 828/4/3 670/4/3
f 827/4/6 839/4/6 838/4/6 828/4/6
f 659/3/1 676/3/1 840/3/1 830/3/1
f 841/1/2 842/1/2 843/1/2 844/1/2
f 662/1/3 832/1/3 842/1/3 841/1/3
f 662/1/5 841/1/5 844/1/5 673/1/5
f 665/1/2 834/1/2 845/1/2 846/1/2
f 666/1/1 847/1/1 848/1/1 835/1/1
f 847/1/4 846/1/4 845/1/4 848/1/4
f 666/1/5 665/1/5 846/1/5 847/1/5
f 668/4/1 678/4/1 849/4/1 837/4/1
f 678/4/4 680/4/4 850/4/4 849/4/4
f 837/4/6 849/4/6 850/4/6 839/4/6
f 680/4/4 681/4/4 851/4/4 850/4/4
f 683/4/2 852/4/2 853/4/2 684/4/2
f 671/4/3 838/4/3 852/4/3 683/4/3
f 838/4/6 851/4/6 853/4/6 852/4/6
f 676/1/1 687/1/1 854/1/1 840/1/1
f 687/1/4 855/1/4 856/1/4 854/1/4
f 676/1/5 673/1/5 855/1/5 687/1/5
f 855/2/4 690/2/4 857/2/4 856/2/4
f 673/2/5 844/2/5 690/2/5 855/2/5
f 858/3/2 859/3/2 860/3/2 691/3/2
f 844/3/3 843/3/3 859/3/3 858/3/3
f 844/3/5 858/3/5 691/3/5 690/3/5
f 681/2/1 685/2/1 861/2/1 851/2/1
f 685/2/4 686/2/4 862/2/4 861/2/4
f 687/4/2 854/4/2 863/4/2 688/4/2
f 684/4/3 853/4/3 854/4/3 687/4/3
f 686/4/4 688/4/4 863/4/4 862/4/4
f 690/4/1 689/4/1 864/4/1 857/4/1
f 689/4/4 692/4/4 865/4/4 864/4/4
f 694/2/2 866/2/2 867/2/2 695/2/2
f 691/2/3 860/2/3 866/2/3 694/2/3
f 692/2/4 695/2/4 867/2/4 865/2/4
f 700/7/1 699/7/1 868/7/1 869/7/1
f 700/7/3 869/7/3 870/7/3 701/7/3
f 705/4/2 871/4/2 872/4/2 706/4/2
f 701/4/3 870/4/3 871/4/3 705/4/3
f 708/4/4 706/4/4 872/4/4 873/4/4
f 874/1/1 718/1/1 875/1/1 876/1/1
f 874/1/3 876/1/3 877/1/3 878/1/3
f 874/1/5 878/1/5 719/1/5 718/1/5
f 878/3/3 877/3/3 868/3/3 699/3/3
f 878/3/5 699/3/5 711/3/5 719/3/5
f 708/3/2 873/3/2 879/3/2 709/3/2
f 711/3/4 709/3/4 879/3/4 880/3/4
f 713/4/2 881/4/2 882/4/2 714/4/2
f 706/4/1 715/4/1 883/4/1 872/4/1
f 706/4/3 872/4/3 881/4/3 713/4/3
f 872/4/6 883/4/6 882/4/6 881/4/6
f 718/3/1 717/3/1 884/3/1 875/3/1
f 711/3/2 880/3/2 885/3/2 720/3/2
f 721/3/4 720/3/4 885/3/4 886/3/4
f 714/4/2 882/4/2 887/4/2 722/4/2
f 715/4/1 723/4/1 888/4/1 883/4/1
f 889/5/1 742/5/1 890/5/1 891/5/1
f 889/5/3 891/5/3 892/5/3 725/5/3
f 889/5/5 725/5/5 724/5/5 742/5/5
f 725/3/3 892/3/3 884/3/3 717/3/3
f 721/3/2 886/3/2 893/3/2 727/3/2
f 726/3/4 727/3/4 893/3/4 894/3/4
f 732/1/1 731/1/1 895/1/1 896/1/1
f 732/1/3 896/1/3 888/1/3 723/1/3
f 896/1/6 895/1/6 897/1/6 888/1/6
f 722/5/2 887/5/2 898/5/2 734/5/2
f 736/5/4 734/5/4 898/5/4 897/5/4
f 888/5/6 897/5/6 898/5/6 887/5/6
f 742/3/1 741/3/1 899/3/1 890/3/1
f 726/3/2 894/3/2 900/3/2 901/3/2
f 737/3/4 901/3/4 900/3/4 902/3/4
f 724/3/5 726/3/5 901/3/5 737/3/5
f 745/1/1 744/1/1 903/1/1 904/1/1
f 745/1/3 904/1/3 895/1/3 731/1/3
f 904/1/6 903/1/6 905/1/6 895/1/6
f 736/1/2 897/1/2 906/1/2 746/1/2
f 748/1/4 746/1/4 906/1/4 905/1/4
f 750/8/1 749/8/1 907/8/1 908/8/1
f 750/8/3 908/8/3 909/8/3 751/8/3
f 753/3/2 910/3/2 911/3/2 754/3/2
f 751/3/3 909/3/3 910/3/3 753/3/3
f 909/3/6 912/3/6 911/3/6 910/3/6
f 913/3/1 773/3/1 914/3/1 915/3/1
f 913/3/3 915/3/3 899/3/3 741/3/3
f 913/3/5 741/3/5 761/3/5 773/3/5
f 737/3/2 902/3/2 916/3/2 759/3/2
f 764/1/1 763/1/1 917/1/1 918/1/1
f 764/1/3 918/1/3 903/1/3 744/1/3
f 918/1/6 917/1/6 919/1/6 903/1/6
f 748/1/2 905/1/2 920/1/2 765/1/2
f 903/1/6 919/1/6 920/1/6 905/1/6
f 749/8/1 766/8/1 921/8/1 907/8/1
f 754/3/3 911/3/3 922/3/3 767/3/3
f 911/3/6 923/3/6 924/3/6 922/3/6
f 767/3/3 922/3/3 925/3/3 769/3/3
f 922/3/6 924/3/6 926/3/6 925/3/6
f 769/3/3 925/3/3 927/3/3 771/3/3
f 925/3/6 926/3/6 928/3/6 927/3/6
f 771/3/3 927/3/3 929/3/3 757/3/3
f 927/3/6 928/3/6 930/3/6 929/3/6
f 757/3/3 929/3/3 931/3/3 756/3/3
f 929/3/6 930/3/6 932/3/6 931/3/6
f 756/3/3 931/3/3 914/3/3 773/3/3
f 759/3/3 916/3/3 933/3/3 774/3/3
f 916/3/6 934/3/6 935/3/6 933/3/6
f 774/3/3 933/3/3 917/3/3 763/3/3
f 765/1/3 920/1/3 936/1/3 775/1/3
f 777/2/2 937/2/2 938/2/2 778/2/2
f 775/2/3 936/2/3 937/2/3 777/2/3
f 936/2/6 939/2/6 938/2/6 937/2/6
f 766/8/1 779/8/1 940/8/1 921/8/1
f 778/5/2 938/5/2 941/5/2 780/5/2
f 939/5/6 942/5/6 941/5/6 938/5/6
f 779/6/1 781/6/1 943/6/1 940/6/1
f 780/5/2 941/5/2 944/5/2 782/5/2
f 942/5/6 945/5/6 944/5/6 941/5/6
f 781/6/1 783/6/1 946/6/1 943/6/1
f 786/3/4 785/3/4 947/3/4 948/3/4
f 949/3/6 948/3/6 947/3/6 950/3/6
f 785/3/4 788/3/4 951/3/4 947/3/4
f 950/3/6 947/3/6 951/3/6 952/3/6
f 788/3/4 807/3/4 953/3/4 951/3/4
f 952/3/6 951/3/6 953/3/6 954/3/6
f 790/3/4 789/3/4 955/3/4 956/3/4
f 789/3/4 791/3/4 957/3/4 955/3/4
f 793/3/4 792/3/4 958/3/4 959/3/4
f 960/3/6 959/3/6 958/3/6 961/3/6
f 792/3/4 794/3/4 962/3/4 958/3/4
f 796/1/4 799/1/4 963/1/4 964/1/4
f 782/1/2 944/1/2 965/1/2 797/1/2
f 799/1/4 797/1/4 965/1/4 963/1/4
f 945/1/6 963/1/6 965/1/6 944/1/6
f 783/6/1 800/6/1 966/6/1 946/6/1
f 800/6/4 801/6/4 967/6/4 966/6/4
f 786/3/2 948/3/2 968/3/2 802/3/2
f 801/3/4 802/3/4 968/3/4 967/3/4
f 969/3/6 967/3/6 968/3/6 948/3/6
f 790/5/2 956/5/2 970/5/2 808/5/2
f 807/5/1 806/5/1 971/5/1 953/5/1
f 953/5/6 971/5/6 970/5/6 956/5/6
f 791/3/1 810/3/1 972/3/1 957/3/1
f 810/3/4 811/3/4 973/3/4 972/3/4
f 957/3/6 972/3/6 973/3/6 974/3/6
f 793/3/2 959/3/2 975/3/2 812/3/2
f 794/1/1 976/1/1 977/1/1 962/1/1
f 976/1/4 978/1/4 979/1/4 977/1/4
f 794/1/5 795/1/5 978/1/5 976/1/5
f 796/1/2 964/1/2 980/1/2 814/1/2
f 795/1/5 796/1/5 814/1/5 978/1/5
f 808/5/2 970/5/2 981/5/2 818/5/2
f 806/5/1 815/5/1 982/5/1 971/5/1
f 815/5/4 818/5/4 981/5/4 982/5/4
f 971/5/6 982/5/6 981/5/6 970/5/6
f 811/3/1 819/3/1 983/3/1 973/3/1
f 821/3/2 984/3/2 985/3/2 822/3/2
f 812/3/3 975/3/3 984/3/3 821/3/3
f 975/3/6 986/3/6 985/3/6 984/3/6
f 978/1/1 987/1/1 988/1/1 979/1/1
f 987/1/4 989/1/4 990/1/4 988/1/4
f 978/1/5 814/1/5 989/1/5 987/1/5
f 813/1/2 991/1/2 992/1/2 836/1/2
f 814/1/3 980/1/3 991/1/3 813/1/3
f 814/1/5 813/1/5 836/1/5 989/1/5
f 826/5/2 993/5/2 994/5/2 827/5/2
f 817/5/1 825/5/1 995/5/1 996/5/1
f 817/5/3 996/5/3 993/5/3 826/5/3
f 996/5/6 995/5/6 994/5/6 993/5/6
f 819/5/1 828/5/1 997/5/1 983/5/1
f 828/5/4 829/5/4 998/5/4 997/5/4
f 983/5/6 997/5/6 998/5/6 986/5/6
f 829/3/4 830/3/4 999/3/4 998/3/4
f 986/3/6 998/3/6 999/3/6 985/3/6
f 831/3/2 1000/3/2 1001/3/2 832/3/2
f 822/3/3 985/3/3 1000/3/3 831/3/3
f 989/3/1 1002/3/1 1003/3/1 990/3/1
f 1002/3/4 835/3/4 1004/3/4 1003/3/4
f 989/3/5 836/3/5 835/3/5 1002/3/5
f 833/2/2 1005/2/2 1006/2/2 834/2/2
f 836/2/3 992/2/3 1005/2/3 833/2/3
f 827/5/2 994/5/2 1007/5/2 839/5/2
f 825/5/1 837/5/1 1008/5/1 995/5/1
f 837/5/4 839/5/4 1007/5/4 1008/5/4
f 995/5/6 1008/5/6 1007/5/6 994/5/6
f 830/3/1 840/3/1 1009/3/1 999/3/1
f 842/1/2 1010/1/2 1011/1/2 843/1/2
f 832/1/3 1001/1/3 1010/1/3 842/1/3
f 1001/1/6 1012/1/6 1011/1/6 1010/1/6
f 834/2/2 1006/2/2 1013/2/2 845/2/2
f 835/2/1 848/2/1 1014/2/1 1004/2/1
f 838/1/2 1015/1/2 1016/1/2 851/1/2
f 839/1/1 850/1/1 1017/1/1 1007/1/1
f 839/1/3 1007/1/3 1015/1/3 838/1/3
f 850/1/4 851/1/4 1016/1/4 1017/1/4
f 1007/1/6 1017/1/6 1016/1/6 1015/1/6
f 840/1/1 854/1/1 1018/1/1 1009/1/1
f 854/1/4 856/1/4 1019/1/4 1018/1/4
f 1009/1/6 1018/1/6 1019/1/6 1012/1/6
f 856/1/4 857/1/4 1020/1/4 1019/1/4
f 1012/1/6 1019/1/6 1020/1/6 1011/1/6
f 859/3/2 1021/3/2 1022/3/2 860/3/2
f 843/3/3 1011/3/3 1021/3/3 859/3/3
f 1011/3/6 1020/3/6 1022/3/6 1021/3/6
f 845/2/2 1013/2/2 1023/2/2 1024/2/2
f 848/2/1 866/2/1 1025/2/1 1014/2/1
f 866/2/4 1024/2/4 1023/2/4 1025/2/4
f 848/2/5 845/2/5 1024/2/5 866/2/5
f 851/5/1 861/5/1 1026/5/1 1016/5/1
f 851/5/3 1016/5/3 1027/5/3 853/5/3
f 861/5/4 862/5/4 1028/5/4 1026/5/4
f 1016/5/6 1026/5/6 1028/5/6 1027/5/6
f 854/1/2 1018/1/2 1029/1/2 863/1/2
f 853/1/3 1027/1/3 1018/1/3 854/1/3
f 862/1/4 863/1/4 1029/1/4 1028/1/4
f 1027/1/6 1028/1/6 1029/1/6 1018/1/6
f 857/4/1 864/4/1 1030/4/1 1020/4/1
f 864/4/4 865/4/4 1031/4/4 1030/4/4
f 866/4/2 1025/4/2 1032/4/2 867/4/2
f 860/4/3 1022/4/3 1025/4/3 866/4/3
f 865/4/4 867/4/4 1032/4/4 1031/4/4
f 869/7/1 868/7/1 1033/7/1 1034/7/1
f 869/7/3 1034/7/3 1035/7/3 870/7/3
f 871/2/2 1036/2/2 1037/2/2 872/2/2
f 870/2/3 1035/2/3 1036/2/3 871/2/3
f 873/2/4 872/2/4 1037/2/4 1038/2/4
f 876/1/1 875/1/1 1039/1/1 1040/1/1
f 876/1/3 1040/1/3 1041/1/3 877/1/3
f 1040/1/6 1039/1/6 1042/1/6 1041/1/6
f 877/2/3 1041/2/3 1033/2/3 868/2/3
f 1041/2/6 1042/2/6 1043/2/6 1033/2/6
f 873/3/2 1038/3/2 1044/3/2 879/3/2
f 880/3/4 879/3/4 1044/3/4 1043/3/4
f 875/3/1 884/3/1 1045/3/1 1039/3/1
f 880/3/2 1043/3/2 1046/3/2 885/3/2
f 886/3/4 885/3/4 1046/3/4 1047/3/4
f 882/4/2 1048/4/2 1049/4/2 887/4/2
f 883/4/1 888/4/1 1050/4/1 1051/4/1
f 883/4/3 1051/4/3 1048/4/3 882/4/3
f 888/4/4 887/4/4 1049/4/4 1050/4/4
f 891/5/1 890/5/1 1052/5/1 1053/5/1
f 891/5/3 1053/5/3 1054/5/3 892/5/3
f 1053/5/6 1052/5/6 1055/5/6 1054/5/6
f 892/3/3 1054/3/3 1045/3/3 884/3/3
f 1054/3/6 1055/3/6 1056/3/6 1045/3/6
f 886/3/2 1047/3/2 1057/3/2 893/3/2
f 894/3/4 893/3/4 1057/3/4 1056/3/4
f 890/3/1 899/3/1 1058/3/1 1052/3/1
f 894/3/2 1056/3/2 1059/3/2 900/3/2
f 902/3/4 900/3/4 1059/3/4 1060/3/4
f 897/1/2 1061/1/2 1062/1/2 906/1/2
f 895/1/1 905/1/1 1063/1/1 1064/1/1
f 895/1/3 1064/1/3 1061/1/3 897/1/3
f 905/1/4 906/1/4 1062/1/4 1063/1/4
f 909/8/2 1065/8/2 1066/8/2 912/8/2
f 908/8/1 907/8/1 1067/8/1 1068/8/1
f 908/8/3 1068/8/3 1065/8/3 909/8/3
f 1068/8/6 1067/8/6 1066/8/6 1065/8/6
f 915/3/1 914/3/1 1069/3/1 1070/3/1
f 915/3/3 1070/3/3 1058/3/3 899/3/3
f 1070/3/6 1069/3/6 1071/3/6 1058/3/6
f 902/3/2 1060/3/2 1072/3/2 916/3/2
f 907/8/1 921/8/1 1073/8/1 1067/8/1
f 911/7/2 1074/7/2 1075/7/2 923/7/2
f 912/7/3 1066/7/3 1074/7/3 911/7/3
f 1066/7/6 1076/7/6 1075/7/6 1074/7/6
f 931/3/1 932/3/1 1077/3/1 1078/3/1
f 931/3/3 1078/3/3 1069/3/3 914/3/3
f 1078/3/6 1077/3/6 1079/3/6 1069/3/6
f 1069/3/6 1079/3/6 1080/3/6 1071/3/6
f 916/3/2 1072/3/2 1081/3/2 934/3/2
f 1071/3/6 1080/3/6 1081/3/6 1072/3/6
f 933/3/1 935/3/1 1082/3/1 1083/3/1
f 933/3/3 1083/3/3 1084/3/3 917/3/3
f 1083/3/6 1082/3/6 1085/3/6 1084/3/6
f 917/1/3 1084/1/3 1086/1/3 919/1/3
f 1084/1/6 1085/1/6 1087/1/6 1086/1/6
f 919/1/3 1086/1/3 1088/1/3 920/1/3
f 1086/1/6 1087/1/6 1089/1/6 1088/1/6
f 936/1/2 1090/1/2 1091/1/2 939/1/2
f 920/1/3 1088/1/3 1090/1/3 936/1/3
f 921/8/1 940/8/1 1092/8/1 1073/8/1
f 923/3/3 1075/3/3 1093/3/3 924/3/3
f 1075/3/6 1094/3/6 1095/3/6 1093/3/6
f 924/3/3 1093/3/3 1096/3/3 926/3/3
f 1093/3/6 1095/3/6 1097/3/6 1096/3/6
f 926/3/3 1096/3/3 1098/3/3 928/3/3
f 1096/3/6 1097/3/6 1099/3/6 1098/3/6
f 928/3/3 1098/3/3 1100/3/3 930/3/3
f 1098/3/6 1099/3/6 1101/3/6 1100/3/6
f 930/3/3 1100/3/3 1077/3/3 932/3/3
f 1100/3/6 1101/3/6 1102/3/6 1077/3/6
f 1079/3/6 1103/3/6 1104/3/6 1080/3/6
f 1080/3/6 1104/3/6 1105/3/6 1081/3/6
f 934/3/3 1081/3/3 1082/3/3 935/3/3
f 1085/1/6 1106/1/6 1107/1/6 1087/1/6
f 1087/1/6 1107/1/6 1108/1/6 1089/1/6
f 939/1/2 1091/1/2 1109/1/2 942/1/2
f 940/3/1 943/3/1 1110/3/1 1092/3/1
f 949/3/4 950/3/4 1111/3/4 1112/3/4
f 1094/3/6 1112/3/6 1111/3/6 1095/3/6
f 950/3/4 952/3/4 1113/3/4 1111/3/4
f 1095/3/6 1111/3/6 1113/3/6 1097/3/6
f 952/3/4 954/3/4 1114/3/4 1113/3/4
f 1097/3/6 1113/3/6 1114/3/6 1099/3/6
f 1099/3/6 1114/3/6 1115/3/6 1101/3/6
f 1103/3/6 1116/3/6 1117/3/6 1104/3/6
f 1104/3/6 1117/3/6 1118/3/6 1105/3/6
f 960/3/4 961/3/4 1119/3/4 1118/3/4
f 1106/1/6 1120/1/6 1121/1/6 1107/1/6
f 942/1/2 1109/1/2 1122/1/2 945/1/2
f 1108/1/6 1123/1/6 1122/1/6 1109/1/6
f 943/3/1 946/3/1 1124/3/1 1110/3/1
f 949/3/2 1112/3/2 1125/3/2 948/3/2
f 969/3/4 948/3/4 1125/3/4 1126/3/4
f 1127/3/6 1126/3/6 1125/3/6 1112/3/6
f 954/3/1 953/3/1 1128/3/1 1114/3/1
f 953/3/4 956/3/4 1129/3/4 1128/3/4
f 1114/3/6 1128/3/6 1129/3/6 1115/3/6
f 956/3/4 955/3/4 1130/3/4 1129/3/4
f 957/3/4 974/3/4 1131/3/4 1132/3/4
f 960/3/2 1118/3/2 1133/3/2 959/3/2
f 1117/3/6 1131/3/6 1133/3/6 1118/3/6
f 961/3/1 958/3/1 1134/3/1 1119/3/1
f 958/3/4 962/3/4 1135/3/4 1134/3/4
f 1119/3/6 1134/3/6 1135/3/6 1120/3/6
f 1120/1/6 1135/1/6 1136/1/6 1121/1/6
f 945/1/2 1122/1/2 1137/1/2 963/1/2
f 964/1/4 963/1/4 1137/1/4 1138/1/4
f 1123/1/6 1138/1/6 1137/1/6 1122/1/6
f 969/6/2 1126/6/2 1139/6/2 967/6/2
f 946/6/1 966/6/1 1140/6/1 1124/6/1
f 966/6/4 967/6/4 1139/6/4 1140/6/4
f 1124/6/6 1140/6/6 1139/6/6 1126/6/6
f 957/5/2 1132/5/2 1141/5/2 972/5/2
f 955/5/1 1142/5/1 1143/5/1 1130/5/1
f 1142/5/4 972/5/4 1141/5/4 1143/5/4
f 955/5/5 957/5/5 972/5/5 1142/5/5
f 959/5/2 1133/5/2 1144/5/2 975/5/2
f 974/5/1 973/5/1 1145/5/1 1131/5/1
f 1131/5/6 1145/5/6 1144/5/6 1133/5/6
f 962/1/1 977/1/1 1146/1/1 1135/1/1
f 977/1/4 979/1/4 1147/1/4 1146/1/4
f 1135/1/6 1146/1/6 1147/1/6 1136/1/6
f 964/1/2 1138/1/2 1148/1/2 980/1/2
f 975/5/2 1144/5/2 1149/5/2 986/5/2
f 973/5/1 983/5/1 1150/5/1 1145/5/1
f 983/5/4 986/5/4 1149/5/4 1150/5/4
f 1145/5/6 1150/5/6 1149/5/6 1144/5/6
f 979/1/1 988/1/1 1151/1/1 1147/1/1
f 988/1/4 990/1/4 1152/1/4 1151/1/4
f 1147/1/6 1151/1/6 1152/1/6 1148/1/6
f 991/1/2 1153/1/2 1154/1/2 992/1/2
f 980/1/3 1148/1/3 1153/1/3 991/1/3
f 1148/1/6 1152/1/6 1154/1/6 1153/1/6
f 1000/1/2 1155/1/2 1156/1/2 1001/1/2
f 985/1/1 999/1/1 1157/1/1 1158/1/1
f 985/1/3 1158/1/3 1155/1/3 1000/1/3
f 1158/1/6 1157/1/6 1156/1/6 1155/1/6
f 990/3/1 1003/3/1 1159/3/1 1152/3/1
f 1003/3/4 1004/3/4 1160/3/4 1159/3/4
f 1152/3/6 1159/3/6 1160/3/6 1154/3/6
f 1005/2/2 1161/2/2 1162/2/2 1006/2/2
f 992/2/3 1154/2/3 1161/2/3 1005/2/3
f 1154/2/6 1160/2/6 1162/2/6 1161/2/6
f 1001/1/2 1156/1/2 1163/1/2 1012/1/2
f 999/1/1 1009/1/1 1164/1/1 1157/1/1
f 1009/1/4 1012/1/4 1163/1/4 1164/1/4
f 1157/1/6 1164/1/6 1163/1/6 1156/1/6
f 1006/7/2 1162/7/2 1165/7/2 1013/7/2
f 1004/7/1 1014/7/1 1166/7/1 1160/7/1
f 1013/1/2 1165/1/2 1167/1/2 1023/1/2
f 1014/1/1 1025/1/1 1168/1/1 1166/1/1
f 1025/1/4 1023/1/4 1167/1/4 1168/1/4
f 1166/1/6 1168/1/6 1167/1/6 1165/1/6
f 1020/2/1 1030/2/1 1169/2/1 1170/2/1
f 1020/2/3 1170/2/3 1171/2/3 1022/2/3
f 1030/2/4 1031/2/4 1172/2/4 1169/2/4
f 1170/2/6 1169/2/6 1172/2/6 1171/2/6
f 1025/1/2 1168/1/2 1173/1/2 1032/1/2
f 1022/1/3 1171/1/3 1168/1/3 1025/1/3
f 1031/1/4 1032/1/4 1173/1/4 1172/1/4
f 1171/1/6 1172/1/6 1173/1/6 1168/1/6
f 1034/2/1 1033/2/1 1174/2/1 1175/2/1
f 1034/2/3 1175/2/3 1176/2/3 1035/2/3
f 1175/2/6 1174/2/6 1177/2/6 1176/2/6
f 1036/4/2 1178/4/2 1179/4/2 1037/4/2
f 1035/4/3 1176/4/3 1178/4/3 1036/4/3
f 1038/4/4 1037/4/4 1179/4/4 1177/4/4
f 1176/4/6 1177/4/6 1179/4/6 1178/4/6
f 1038/1/2 1177/1/2 1180/1/2 1044/1/2
f 1033/1/1 1043/1/1 1181/1/1 1174/1/1
f 1174/1/6 1181/1/6 1180/1/6 1177/1/6
f 1039/5/1 1045/5/1 1182/5/1 1183/5/1
f 1039/5/3 1183/5/3 1184/5/3 1042/5/3
f 1183/5/6 1182/5/6 1185/5/6 1184/5/6
f 1042/1/3 1184/1/3 1181/1/3 1043/1/3
f 1047/1/4 1046/1/4 1186/1/4 1185/1/4
f 1046/5/4 1187/5/4 1188/5/4 1186/5/4
f 1181/5/6 1186/5/6 1188/5/6 1180/5/6
f 1043/5/5 1044/5/5 1187/5/5 1046/5/5
f 1044/1/3 1180/1/3 1189/1/3 1051/1/3
f 1187/1/4 1050/1/4 1190/1/4 1188/1/4
f 1180/1/6 1188/1/6 1190/1/6 1189/1/6
f 1044/1/5 1051/1/5 1050/1/5 1187/1/5
f 1048/2/2 1191/2/2 1192/2/2 1049/2/2
f 1051/2/3 1189/2/3 1191/2/3 1048/2/3
f 1050/2/4 1049/2/4 1192/2/4 1190/2/4
f 1047/5/2 1185/5/2 1193/5/2 1057/5/2
f 1045/5/1 1056/5/1 1194/5/1 1182/5/1
f 1056/5/4 1057/5/4 1193/5/4 1194/5/4
f 1182/5/6 1194/5/6 1193/5/6 1185/5/6
f 1052/5/1 1058/5/1 1195/5/1 1196/5/1
f 1052/5/3 1196/5/3 1197/5/3 1055/5/3
f 1196/5/6 1195/5/6 1198/5/6 1197/5/6
f 1056/1/2 1194/1/2 1199/1/2 1059/1/2
f 1055/1/3 1197/1/3 1194/1/3 1056/1/3
f 1060/1/4 1059/1/4 1199/1/4 1198/1/4
f 1061/4/2 1200/4/2 1201/4/2 1062/4/2
f 1064/4/1 1063/4/1 1202/4/1 1203/4/1
f 1064/4/3 1203/4/3 1200/4/3 1061/4/3
f 1063/4/4 1062/4/4 1201/4/4 1202/4/4
f 1060/5/2 1198/5/2 1204/5/2 1072/5/2
f 1058/5/1 1071/5/1 1205/5/1 1195/5/1
f 1071/5/4 1072/5/4 1204/5/4 1205/5/4
f 1195/5/6 1205/5/6 1204/5/6 1198/5/6
f 1066/8/2 1206/8/2 1207/8/2 1076/8/2
f 1067/8/1 1073/8/1 1208/8/1 1209/8/1
f 1067/8/3 1209/8/3 1206/8/3 1066/8/3
f 1209/8/6 1208/8/6 1207/8/6 1206/8/6
f 1088/3/1 1089/3/1 1210/3/1 1211/3/1
f 1088/3/3 1211/3/3 1212/3/3 1090/3/3
f 1211/3/6 1210/3/6 1213/3/6 1212/3/6
f 1214/5/2 1215/5/2 1216/5/2 1217/5/2
f 1090/5/3 1212/5/3 1215/5/3 1214/5/3
f 1090/5/5 1214/5/5 1217/5/5 1091/5/5
f 1073/8/1 1092/8/1 1218/8/1 1208/8/1
f 1208/8/6 1218/8/6 1219/8/6 1207/8/6
f 1075/3/2 1220/3/2 1221/3/2 1094/3/2
f 1076/3/3 1207/3/3 1220/3/3 1075/3/3
f 1207/3/6 1219/3/6 1221/3/6 1220/3/6
f 1079/5/2 1222/5/2 1223/5/2 1103/5/2
f 1077/5/1 1102/5/1 1224/5/1 1225/5/1
f 1077/5/3 1225/5/3 1222/5/3 1079/5/3
f 1081/3/1 1105/3/1 1226/3/1 1227/3/1
f 1081/3/3 1227/3/3 1228/3/3 1082/3/3
f 1227/3/6 1226/3/6 1229/3/6 1228/3/6
f 1085/3/2 1230/3/2 1231/3/2 1106/3/2
f 1082/3/3 1228/3/3 1230/3/3 1085/3/3
f 1089/2/1 1108/2/1 1232/2/1 1210/2/1
f 1108/2/4 1109/2/4 1233/2/4 1232/2/4
f 1210/2/6 1232/2/6 1233/2/6 1213/2/6
f 1217/2/2 1216/2/2 1234/2/2 1235/2/2
f 1109/2/4 1235/2/4 1234/2/4 1233/2/4
f 1091/2/5 1217/2/5 1235/2/5 1109/2/5
f 1092/8/1 1110/8/1 1236/8/1 1218/8/1
f 1218/8/6 1236/8/6 1237/8/6 1219/8/6
f 1094/3/2 1221/3/2 1238/3/2 1112/3/2
f 1127/3/4 1112/3/4 1238/3/4 1237/3/4
f 1219/3/6 1237/3/6 1238/3/6 1221/3/6
f 1101/3/1 1115/3/1 1239/3/1 1240/3/1
f 1101/3/3 1240/3/3 1224/3/3 1102/3/3
f 1240/3/6 1239/3/6 1241/3/6 1224/3/6
f 1103/3/2 1223/3/2 1242/3/2 1116/3/2
f 1105/3/1 1118/3/1 1243/3/1 1226/3/1
f 1118/3/4 1119/3/4 1244/3/4 1243/3/4
f 1226/3/6 1243/3/6 1244/3/6 1229/3/6
f 1106/3/2 1231/3/2 1245/3/2 1120/3/2
f 1119/3/4 1120/3/4 1245/3/4 1244/3/4
f 1108/5/2 1232/5/2 1246/5/2 1123/5/2
f 1107/5/1 1121/5/1 1247/5/1 1248/5/1
f 1107/5/3 1248/5/3 1232/5/3 1108/5/3
f 1248/5/6 1247/5/6 1246/5/6 1232/5/6
f 1127/3/2 1237/3/2 1249/3/2 1126/3/2
f 1110/3/1 1124/3/1 1250/3/1 1236/3/1
f 1124/3/4 1126/3/4 1249/3/4 1250/3/4
f 1236/3/6 1250/3/6 1249/3/6 1237/3/6
f 1115/3/1 1129/3/1 1251/3/1 1239/3/1
f 1129/3/4 1130/3/4 1252/3/4 1251/3/4
f 1239/3/6 1251/3/6 1252/3/6 1241/3/6
f 1117/1/2 1253/1/2 1254/1/2 1131/1/2
f 1116/1/3 1242/1/3 1253/1/3 1117/1/3
f 1123/1/2 1246/1/2 1255/1/2 1138/1/2
f 1121/1/1 1136/1/1 1256/1/1 1247/1/1
f 1247/1/6 1256/1/6 1255/1/6 1246/1/6
f 1130/5/1 1143/5/1 1257/5/1 1252/5/1
f 1143/5/4 1141/5/4 1258/5/4 1257/5/4
f 1131/1/2 1254/1/2 1259/1/2 1145/1/2
f 1260/1/6 1258/1/6 1259/1/6 1254/1/6
f 1132/1/5 1131/1/5 1145/1/5 1141/1/5
f 1138/2/2 1255/2/2 1261/2/2 1148/2/2
f 1136/2/1 1147/2/1 1262/2/1 1256/2/1
f 1147/2/4 1148/2/4 1261/2/4 1262/2/4
f 1256/2/6 1262/2/6 1261/2/6 1255/2/6
f 1145/1/2 1259/1/2 1263/1/2 1150/1/2
f 1141/1/1 1264/1/1 1265/1/1 1258/1/1
f 1258/1/6 1265/1/6 1263/1/6 1259/1/6
f 1141/1/5 1145/1/5 1150/1/5 1264/1/5
f 1150/1/2 1263/1/2 1266/1/2 1267/1/2
f 1264/1/1 1268/1/1 1269/1/1 1265/1/1
f 1268/1/4 1267/1/4 1266/1/4 1269/1/4
f 1264/1/5 1150/1/5 1267/1/5 1268/1/5
f 1162/1/2 1270/1/2 1271/1/2 1165/1/2
f 1160/1/1 1166/1/1 1272/1/1 1273/1/1
f 1160/1/3 1273/1/3 1270/1/3 1162/1/3
f 1166/1/4 1165/1/4 1271/1/4 1272/1/4
f 1273/1/6 1272/1/6 1271/1/6 1270/1/6
f 1181/1/2 1274/1/2 1275/1/2 1186/1/2
f 1184/1/1 1185/1/1 1276/1/1 1277/1/1
f 1184/1/3 1277/1/3 1274/1/3 1181/1/3
f 1277/1/6 1276/1/6 1275/1/6 1274/1/6
f 1191/2/2 1278/2/2 1279/2/2 1192/2/2
f 1189/2/1 1190/2/1 1280/2/1 1281/2/1
f 1189/2/3 1281/2/3 1278/2/3 1191/2/3
f 1281/2/6 1280/2/6 1279/2/6 1278/2/6
f 1186/1/2 1275/1/2 1282/1/2 1283/1/2
f 1185/1/1 1193/1/1 1284/1/1 1276/1/1
f 1276/1/6 1284/1/6 1282/1/6 1275/1/6
f 1185/1/5 1186/1/5 1283/1/5 1193/1/5
f 1192/4/2 1279/4/2 1285/4/2 1286/4/2
f 1190/4/1 1200/4/1 1287/4/1 1280/4/1
f 1280/4/6 1287/4/6 1285/4/6 1279/4/6
f 1190/4/5 1192/4/5 1286/4/5 1200/4/5
f 1194/4/2 1288/4/2 1289/4/2 1199/4/2
f 1197/4/1 1198/4/1 1290/4/1 1291/4/1
f 1197/4/3 1291/4/3 1288/4/3 1194/4/3
f 1198/4/4 1199/4/4 1289/4/4 1290/4/4
f 1283/4/2 1282/4/2 1292/4/2 1293/4/2
f 1193/4/1 1294/4/1 1295/4/1 1284/4/1
f 1284/4/6 1295/4/6 1292/4/6 1282/4/6
f 1193/4/5 1283/4/5 1293/4/5 1294/4/5
f 1203/4/1 1202/4/1 1296/4/1 1297/4/1
f 1203/4/3 1297/4/3 1287/4/3 1200/4/3
f 1202/4/4 1201/4/4 1298/4/4 1296/4/4
f 1286/4/2 1285/4/2 1299/4/2 1300/4/2
f 1287/4/6 1298/4/6 1299/4/6 1285/4/6
f 1200/4/5 1286/4/5 1300/4/5 1201/4/5
f 1293/4/2 1292/4/2 1301/4/2 1302/4/2
f 1294/4/1 1303/4/1 1304/4/1 1295/4/1
f 1295/4/6 1304/4/6 1301/4/6 1292/4/6
f 1294/4/5 1293/4/5 1302/4/5 1303/4/5
f 1300/4/2 1299/4/2 1305/4/2 1215/4/2
f 1201/4/1 1212/4/1 1306/4/1 1298/4/1
f 1298/4/6 1306/4/6 1305/4/6 1299/4/6
f 1201/4/5 1300/4/5 1215/4/5 1212/4/5
f 1302/1/2 1301/1/2 1307/1/2 1308/1/2
f 1303/1/1 1230/1/1 1309/1/1 1304/1/1
f 1304/1/6 1309/1/6 1307/1/6 1301/1/6
f 1303/1/5 1302/1/5 1308/1/5 1230/1/5
f 1215/2/2 1305/2/2 1310/2/2 1216/2/2
f 1212/2/1 1213/2/1 1311/2/1 1306/2/1
f 1222/5/2 1312/5/2 1313/5/2 1223/5/2
f 1225/5/1 1224/5/1 1314/5/1 1315/5/1
f 1225/5/3 1315/5/3 1312/5/3 1222/5/3
f 1315/5/6 1314/5/6 1313/5/6 1312/5/6
f 1228/3/1 1229/3/1 1316/3/1 1317/3/1
f 1228/3/3 1317/3/3 1309/3/3 1230/3/3
f 1317/3/6 1316/3/6 1318/3/6 1309/3/6
f 1308/7/2 1307/7/2 1319/7/2 1248/7/2
f 1230/7/5 1308/7/5 1248/7/5 1231/7/5
f 1216/5/2 1310/5/2 1320/5/2 1234/5/2
f 1213/5/1 1233/5/1 1321/5/1 1311/5/1
f 1224/3/1 1241/3/1 1322/3/1 1314/3/1
f 1323/1/2 1324/1/2 1325/1/2 1253/1/2
f 1223/1/3 1313/1/3 1324/1/3 1323/1/3
f 1223/1/5 1323/1/5 1253/1/5 1242/1/5
f 1229/1/1 1244/1/1 1326/1/1 1316/1/1
f 1248/1/2 1319/1/2 1327/1/2 1247/1/2
f 1245/1/4 1247/1/4 1327/1/4 1328/1/4
f 1231/1/5 1248/1/5 1247/1/5 1245/1/5
f 1234/1/2 1320/1/2 1329/1/2 1330/1/2
f 1233/1/1 1331/1/1 1332/1/1 1321/1/1
f 1331/1/4 1330/1/4 1329/1/4 1332/1/4
f 1321/1/6 1332/1/6 1329/1/6 1320/1/6
f 1233/1/5 1234/1/5 1330/1/5 1331/1/5
f 1241/3/1 1252/3/1 1333/3/1 1322/3/1
f 1253/1/2 1325/1/2 1334/1/2 1254/1/2
f 1260/1/4 1254/1/4 1334/1/4 1335/1/4
f 1245/1/2 1328/1/2 1336/1/2 1337/1/2
f 1244/1/1 1338/1/1 1339/1/1 1326/1/1
f 1338/1/4 1337/1/4 1336/1/4 1339/1/4
f 1326/1/6 1339/1/6 1336/1/6 1328/1/6
f 1244/1/5 1245/1/5 1337/1/5 1338/1/5
f 1260/5/2 1335/5/2 1340/5/2 1258/5/2
f 1252/5/1 1257/5/1 1341/5/1 1333/5/1
f 1257/5/4 1258/5/4 1340/5/4 1341/5/4
f 1333/5/6 1341/5/6 1340/5/6 1335/5/6
f 1265/1/1 1269/1/1 1342/1/1 1343/1/1
f 1265/1/3 1343/1/3 1344/1/3 1263/1/3
f 1269/1/4 1266/1/4 1345/1/4 1342/1/4
f 1343/1/6 1342/1/6 1345/1/6 1344/1/6
f 1346/3/2 1347/3/2 1348/3/2 1349/3/2
f 1263/3/3 1344/3/3 1347/3/3 1346/3/3
f 1266/3/4 1349/3/4 1348/3/4 1345/3/4
f 1263/3/5 1346/3/5 1349/3/5 1266/3/5
f 1350/1/2 1351/1/2 1352/1/2 1353/1/2
f 1354/1/1 1355/1/1 1356/1/1 1357/1/1
f 1354/1/3 1357/1/3 1351/1/3 1350/1/3
f 1354/1/5 1350/1/5 1353/1/5 1355/1/5
f 1358/5/2 1359/5/2 1360/5/2 1361/5/2
f 1362/5/1 1363/5/1 1364/5/1 1365/5/1
f 1362/5/3 1365/5/3 1359/5/3 1358/5/3
f 1362/5/5 1358/5/5 1361/5/5 1363/5/5
f 1353/1/2 1352/1/2 1366/1/2 1367/1/2
f 1355/1/1 1368/1/1 1369/1/1 1356/1/1
f 1355/1/5 1353/1/5 1367/1/5 1368/1/5
f 1361/5/2 1360/5/2 1370/5/2 1371/5/2
f 1363/5/1 1372/5/1 1373/5/1 1364/5/1
f 1372/5/4 1371/5/4 1370/5/4 1373/5/4
f 1363/5/5 1361/5/5 1371/5/5 1372/5/5
f 1367/1/2 1366/1/2 1374/1/2 1375/1/2
f 1368/1/1 1376/1/1 1377/1/1 1369/1/1
f 1376/1/4 1375/1/4 1374/1/4 1377/1/4
f 1368/1/5 1367/1/5 1375/1/5 1376/1/5
f 1288/1/2 1378/1/2 1379/1/2 1289/1/2
f 1291/1/1 1290/1/1 1380/1/1 1381/1/1
f 1291/1/3 1381/1/3 1378/1/3 1288/1/3
f 1290/1/4 1289/1/4 1379/1/4 1380/1/4
f 1381/1/6 1380/1/6 1379/1/6 1378/1/6
f 1287/4/2 1382/4/2 1383/4/2 1298/4/2
f 1297/4/1 1296/4/1 1384/4/1 1385/4/1
f 1297/4/3 1385/4/3 1382/4/3 1287/4/3
f 1296/4/4 1298/4/4 1383/4/4 1384/4/4
f 1385/4/6 1384/4/6 1383/4/6 1382/4/6
f 1305/4/2 1386/4/2 1387/4/2 1310/4/2
f 1306/4/1 1311/4/1 1388/4/1 1389/4/1
f 1306/4/3 1389/4/3 1386/4/3 1305/4/3
f 1389/4/6 1388/4/6 1387/4/6 1386/4/6
f 1390/1/2 1391/1/2 1392/1/2 1393/1/2
f 1394/1/1 1324/1/1 1395/1/1 1396/1/1
f 1394/1/3 1396/1/3 1391/1/3 1390/1/3
f 1394/1/5 1390/1/5 1393/1/5 1324/1/5
f 1309/7/1 1318/7/1 1397/7/1 1398/7/1
f 1309/7/3 1398/7/3 1399/7/3 1307/7/3
f 1398/7/6 1397/7/6 1400/7/6 1399/7/6
f 1401/7/2 1402/7/2 1403/7/2 1404/7/2
f 1307/7/3 1399/7/3 1402/7/3 1401/7/3
f 1307/7/5 1401/7/5 1404/7/5 1319/7/5
f 1310/4/2 1387/4/2 1405/4/2 1320/4/2
f 1311/4/1 1321/4/1 1406/4/1 1388/4/1
f 1321/4/4 1320/4/4 1405/4/4 1406/4/4
f 1388/4/6 1406/4/6 1405/4/6 1387/4/6
f 1314/5/1 1322/5/1 1407/5/1 1408/5/1
f 1314/5/3 1408/5/3 1409/5/3 1313/5/3
f 1408/5/6 1407/5/6 1410/5/6 1409/5/6
f 1313/3/3 1409/3/3 1395/3/3 1324/3/3
f 1409/3/6 1410/3/6 1411/3/6 1395/3/6
f 1393/3/2 1392/3/2 1412/3/2 1413/3/2
f 1324/3/5 1393/3/5 1413/3/5 1325/3/5
f 1316/1/1 1326/1/1 1414/1/1 1415/1/1
f 1316/1/3 1415/1/3 1397/1/3 1318/1/3
f 1326/1/4 1328/1/4 1416/1/4 1414/1/4
f 1415/1/6 1414/1/6 1416/1/6 1397/1/6
f 1328/1/4 1327/1/4 1417/1/4 1416/1/4
f 1397/1/6 1416/1/6 1417/1/6 1400/1/6
f 1404/1/2 1403/1/2 1418/1/2 1419/1/2
f 1319/1/5 1404/1/5 1419/1/5 1327/1/5
f 1322/5/1 1333/5/1 1420/5/1 1407/5/1
f 1333/5/4 1335/5/4 1421/5/4 1420/5/4
f 1407/5/6 1420/5/6 1421/5/6 1410/5/6
f 1335/3/4 1334/3/4 1422/3/4 1421/3/4
f 1410/3/6 1421/3/6 1422/3/6 1411/3/6
f 1413/3/2 1412/3/2 1423/3/2 1424/3/2
f 1325/3/5 1413/3/5 1424/3/5 1334/3/5
f 1419/1/2 1418/1/2 1425/1/2 1426/1/2
f 1327/1/1 1427/1/1 1428/1/1 1417/1/1
f 1417/1/6 1428/1/6 1425/1/6 1418/1/6
f 1327/1/5 1419/1/5 1426/1/5 1427/1/5
f 1424/5/2 1423/5/2 1429/5/2 1430/5/2
f 1334/5/1 1431/5/1 1432/5/1 1422/5/1
f 1431/5/4 1430/5/4 1429/5/4 1432/5/4
f 1334/5/5 1424/5/5 1430/5/5 1431/5/5
f 1426/2/2 1425/2/2 1433/2/2 1434/2/2
f 1427/2/1 1435/2/1 1436/2/1 1428/2/1
f 1428/2/6 1436/2/6 1433/2/6 1425/2/6
f 1427/2/5 1426/2/5 1434/2/5 1435/2/5
f 1434/1/2 1433/1/2 1437/1/2 1438/1/2
f 1435/1/1 1439/1/1 1440/1/1 1436/1/1
f 1436/1/6 1440/1/6 1437/1/6 1433/1/6
f 1435/1/5 1434/1/5 1438/1/5 1439/1/5
f 1347/3/2 1441/3/2 1442/3/2 1348/3/2
f 1344/3/1 1345/3/1 1443/3/1 1444/3/1
f 1344/3/3 1444/3/3 1441/3/3 1347/3/3
f 1438/1/2 1437/1/2 1445/1/2 1351/1/2
f 1439/1/1 1357/1/1 1446/1/1 1440/1/1
f 1440/1/6 1446/1/6 1445/1/6 1437/1/6
f 1439/1/5 1438/1/5 1351/1/5 1357/1/5
f 1348/3/2 1442/3/2 1447/3/2 1359/3/2
f 1345/3/1 1365/3/1 1448/3/1 1443/3/1
f 1345/3/5 1348/3/5 1359/3/5 1365/3/5
f 1351/1/2 1445/1/2 1449/1/2 1352/1/2
f 1357/1/1 1356/1/1 1450/1/1 1446/1/1
f 1365/3/1 1364/3/1 1451/3/1 1448/3/1
f 1448/3/6 1451/3/6 1452/3/6 1447/3/6
f 1359/4/3 1447/4/3 1453/4/3 1454/4/3
f 1360/4/4 1455/4/4 1456/4/4 1452/4/4
f 1447/4/6 1452/4/6 1456/4/6 1453/4/6
f 1359/4/5 1454/4/5 1455/4/5 1360/4/5
f 1454/4/3 1453/4/3 1457/4/3 1458/4/3
f 1454/4/5 1458/4/5 1459/4/5 1455/4/5
f 1458/4/3 1457/4/3 1450/4/3 1356/4/3
f 1459/4/4 1369/4/4 1460/4/4 1461/4/4
f 1457/4/6 1461/4/6 1460/4/6 1450/4/6
f 1458/4/5 1356/4/5 1369/4/5 1459/4/5
f 1462/5/2 1463/5/2 1464/5/2 1465/5/2
f 1352/5/3 1449/5/3 1463/5/3 1462/5/3
f 1366/5/4 1465/5/4 1464/5/4 1466/5/4
f 1449/5/6 1466/5/6 1464/5/6 1463/5/6
f 1352/5/5 1462/5/5 1465/5/5 1366/5/5
f 1360/5/2 1452/5/2 1467/5/2 1370/5/2
f 1364/5/1 1373/5/1 1468/5/1 1451/5/1
f 1373/5/4 1370/5/4 1467/5/4 1468/5/4
f 1451/5/6 1468/5/6 1467/5/6 1452/5/6
f 1459/2/2 1461/2/2 1469/2/2 1470/2/2
f 1455/2/1 1471/2/1 1472/2/1 1456/2/1
f 1471/2/4 1470/2/4 1469/2/4 1472/2/4
f 1455/2/5 1459/2/5 1470/2/5 1471/2/5
f 1366/4/2 1466/4/2 1473/4/2 1374/4/2
f 1369/4/1 1377/4/1 1474/4/1 1460/4/1
f 1377/4/4 1374/4/4 1473/4/4 1474/4/4
f 1460/4/6 1474/4/6 1473/4/6 1466/4/6
f 1378/4/1 1379/4/1 1475/4/1 1476/4/1
f 1378/4/3 1476/4/3 1477/4/3 1478/4/3
f 1379/4/4 1479/4/4 1480/4/4 1475/4/4
f 1476/4/6 1475/4/6 1480/4/6 1477/4/6
f 1378/4/5 1478/4/5 1479/4/5 1379/4/5
f 1478/4/3 1477/4/3 1481/4/3 1482/4/3
f 1479/4/4 1483/4/4 1484/4/4 1480/4/4
f 1477/4/6 1480/4/6 1484/4/6 1481/4/6
f 1478/4/5 1482/4/5 1483/4/5 1479/4/5
f 1385/4/2 1485/4/2 1486/4/2 1384/4/2
f 1482/4/3 1481/4/3 1485/4/3 1385/4/3
f 1483/4/4 1384/4/4 1486/4/4 1484/4/4
f 1481/4/6 1484/4/6 1486/4/6 1485/4/6
f 1482/4/5 1385/4/5 1384/4/5 1483/4/5
f 1391/1/2 1487/1/2 1488/1/2 1392/1/2
f 1396/1/1 1395/1/1 1489/1/1 1490/1/1
f 1396/1/3 1490/1/3 1487/1/3 1391/1/3
f 1490/1/6 1489/1/6 1488/1/6 1487/1/6
f 1399/7/1 1400/7/1 1491/7/1 1492/7/1
f 1399/7/3 1492/7/3 1493/7/3 1402/7/3
f 1492/7/6 1491/7/6 1494/7/6 1493/7/6
f 1388/7/2 1495/7/2 1496/7/2 1406/7/2
f 1402/7/3 1493/7/3 1495/7/3 1388/7/3
f 1402/7/5 1388/7/5 1406/7/5 1403/7/5
f 1395/3/1 1411/3/1 1497/3/1 1489/3/1
f 1415/1/2 1498/1/2 1499/1/2 1414/1/2
f 1392/1/3 1488/1/3 1498/1/3 1415/1/3
f 1392/1/5 1415/1/5 1414/1/5 1412/1/5
f 1400/1/1 1417/1/1 1500/1/1 1491/1/1
f 1417/1/4 1418/1/4 1501/1/4 1500/1/4
f 1491/1/6 1500/1/6 1501/1/6 1494/1/6
f 1406/1/2 1496/1/2 1502/1/2 1503/1/2
f 1418/1/4 1503/1/4 1502/1/4 1501/1/4
f 1403/1/5 1406/1/5 1503/1/5 1418/1/5
f 1411/3/1 1422/3/1 1504/3/1 1497/3/1
f 1414/1/2 1499/1/2 1505/1/2 1506/1/2
f 1423/1/4 1506/1/4 1505/1/4 1507/1/4
f 1412/1/5 1414/1/5 1506/1/5 1423/1/5
f 1423/5/2 1507/5/2 1508/5/2 1429/5/2
f 1422/5/1 1432/5/1 1509/5/1 1504/5/1
f 1432/5/4 1429/5/4 1508/5/4 1509/5/4
f 1504/5/6 1509/5/6 1508/5/6 1507/5/6
f 1441/1/2 1510/1/2 1511/1/2 1442/1/2
f 1444/1/1 1443/1/1 1512/1/1 1513/1/1
f 1444/1/3 1513/1/3 1510/1/3 1441/1/3
f 1513/1/6 1512/1/6 1511/1/6 1510/1/6
f 1442/2/2 1511/2/2 1514/2/2 1447/2/2
f 1443/2/1 1448/2/1 1515/2/1 1512/2/1
f 1448/2/4 1447/2/4 1514/2/4 1515/2/4
f 1512/2/6 1515/2/6 1514/2/6 1511/2/6
f 1445/5/2 1516/5/2 1517/5/2 1449/5/2
f 1446/5/1 1450/5/1 1518/5/1 1519/5/1
f 1446/5/3 1519/5/3 1516/5/3 1445/5/3
f 1519/5/6 1518/5/6 1517/5/6 1516/5/6
f 1457/1/2 1520/1/2 1521/1/2 1461/1/2
f 1453/1/1 1456/1/1 1522/1/1 1523/1/1
f 1453/1/3 1523/1/3 1520/1/3 1457/1/3
f 1523/1/6 1522/1/6 1521/1/6 1520/1/6
f 1449/1/2 1517/1/2 1524/1/2 1466/1/2
f 1450/1/1 1460/1/1 1525/1/1 1518/1/1
f 1460/1/4 1466/1/4 1524/1/4 1525/1/4
f 1518/1/6 1525/1/6 1524/1/6 1517/1/6
f 1461/2/2 1521/2/2 1526/2/2 1469/2/2
f 1456/2/1 1472/2/1 1527/2/1 1522/2/1
f 1472/2/4 1469/2/4 1526/2/4 1527/2/4
f 1522/2/6 1527/2/6 1526/2/6 1521/2/6
f 1475/4/2 1528/4/2 1529/4/2 1530/4/2
f 1531/4/1 1532/4/1 1533/4/1 1534/4/1
f 1531/4/3 1534/4/3 1528/4/3 1475/4/3
f 1534/4/6 1533/4/6 1529/4/6 1528/4/6
f 1531/4/5 1475/4/5 1530/4/5 1532/4/5
f 1530/1/2 1529/1/2 1535/1/2 1536/1/2
f 1532/1/1 1487/1/1 1537/1/1 1533/1/1
f 1533/1/6 1537/1/6 1535/1/6 1529/1/6
f 1532/1/5 1530/1/5 1536/1/5 1487/1/5
f 1536/1/2 1535/1/2 1538/1/2 1498/1/2
f 1487/1/1 1488/1/1 1539/1/1 1537/1/1
f 1537/1/6 1539/1/6 1538/1/6 1535/1/6
f 1487/1/5 1536/1/5 1498/1/5 1488/1/5
f 1493/7/1 1494/7/1 1540/7/1 1541/7/1
f 1493/7/3 1541/7/3 1542/7/3 1495/7/3
f 1541/7/6 1540/7/6 1543/7/6 1542/7/6
f 1544/2/2 1545/2/2 1546/2/2 1547/2/2
f 1495/2/3 1542/2/3 1545/2/3 1544/2/3
f 1495/2/5 1544/2/5 1547/2/5 1496/2/5
f 1489/1/1 1497/1/1 1548/1/1 1549/1/1
f 1489/1/3 1549/1/3 1539/1/3 1488/1/3
f 1549/1/6 1548/1/6 1550/1/6 1539/1/6
f 1539/2/6 1550/2/6 1551/2/6 1538/2/6
f 1552/3/2 1553/3/2 1554/3/2 1555/3/2
f 1498/3/3 1538/3/3 1553/3/3 1552/3/3
f 1498/3/5 1552/3/5 1555/3/5 1499/3/5
f 1494/3/1 1501/3/1 1556/3/1 1540/3/1
f 1501/3/4 1502/3/4 1557/3/4 1556/3/4
f 1540/3/6 1556/3/6 1557/3/6 1543/3/6
f 1547/1/2 1546/1/2 1558/1/2 1559/1/2
f 1502/1/4 1559/1/4 1558/1/4 1557/1/4
f 1496/1/5 1547/1/5 1559/1/5 1502/1/5
f 1497/2/1 1504/2/1 1560/2/1 1548/2/1
f 1504/2/4 1507/2/4 1561/2/4 1560/2/4
f 1548/2/6 1560/2/6 1561/2/6 1550/2/6
f 1507/2/4 1505/2/4 1562/2/4 1561/2/4
f 1550/2/6 1561/2/6 1562/2/6 1551/2/6
f 1555/3/2 1554/3/2 1563/3/2 1564/3/2
f 1505/3/4 1564/3/4 1563/3/4 1562/3/4
f 1499/3/5 1555/3/5 1564/3/5 1505/3/5
f 1565/2/1 1541/2/1 1566/2/1 1567/2/1
f 1565/2/3 1567/2/3 1568/2/3 1569/2/3
f 1541/2/4 1542/2/4 1570/2/4 1566/2/4
f 1567/2/6 1566/2/6 1570/2/6 1568/2/6
f 1565/2/5 1569/2/5 1542/2/5 1541/2/5
f 1571/2/2 1572/2/2 1573/2/2 1545/2/2
f 1569/2/3 1568/2/3 1572/2/3 1571/2/3
f 1568/2/6 1570/2/6 1573/2/6 1572/2/6
f 1569/2/5 1571/2/5 1545/2/5 1542/2/5
f 1535/1/1 1538/1/1 1574/1/1 1575/1/1
f 1535/1/3 1575/1/3 1576/1/3 1577/1/3
f 1575/1/6 1574/1/6 1578/1/6 1576/1/6
f 1535/1/5 1577/1/5 1553/1/5 1538/1/5
f 1579/2/2 1580/2/2 1581/2/2 1582/2/2
f 1577/2/3 1576/2/3 1580/2/3 1579/2/3
f 1576/2/6 1578/2/6 1581/2/6 1580/2/6
f 1577/2/5 1579/2/5 1582/2/5 1553/2/5
f 1545/2/2 1573/2/2 1583/2/2 1546/2/2
f 1542/2/1 1543/2/1 1584/2/1 1570/2/1
f 1570/2/6 1584/2/6 1583/2/6 1573/2/6
f 1538/3/1 1551/3/1 1585/3/1 1574/3/1
f 1574/3/6 1585/3/6 1586/3/6 1578/3/6
f 1582/1/2 1581/1/2 1587/1/2 1588/1/2
f 1578/1/6 1586/1/6 1587/1/6 1581/1/6
f 1553/1/5 1582/1/5 1588/1/5 1554/1/5
f 1546/5/2 1583/5/2 1589/5/2 1558/5/2
f 1543/5/1 1557/5/1 1590/5/1 1584/5/1
f 1584/5/6 1590/5/6 1589/5/6 1583/5/6
f 1551/2/1 1562/2/1 1591/2/1 1585/2/1
f 1585/2/6 1591/2/6 1592/2/6 1586/2/6
f 1588/4/2 1587/4/2 1593/4/2 1594/4/2
f 1586/4/6 1592/4/6 1593/4/6 1587/4/6
f 1554/4/5 1588/4/5 1594/4/5 1563/4/5
f 1556/1/1 1595/1/1 1596/1/1 1597/1/1
f 1556/1/3 1597/1/3 1590/1/3 1557/1/3
f 1595/1/4 1598/1/4 1599/1/4 1596/1/4
f 1597/1/6 1596/1/6 1599/1/6 1590/1/6
f 1556/1/5 1557/1/5 1598/1/5 1595/1/5
f 1558/2/2 1589/2/2 1600/2/2 1601/2/2
f 1598/2/4 1601/2/4 1600/2/4 1599/2/4
f 1590/2/6 1599/2/6 1600/2/6 1589/2/6
f 1557/2/5 1558/2/5 1601/2/5 1598/2/5
f 1562/1/1 1602/1/1 1603/1/1 1591/1/1
f 1602/1/4 1604/1/4 1605/1/4 1603/1/4
f 1591/1/6 1603/1/6 1605/1/6 1592/1/6
f 1562/1/5 1563/1/5 1604/1/5 1602/1/5
f 1594/1/2 1593/1/2 1606/1/2 1607/1/2
f 1604/1/4 1607/1/4 1606/1/4 1605/1/4
f 1592/1/6 1605/1/6 1606/1/6 1593/1/6
f 1563/1/5 1594/1/5 1607/1/5 1604/1/5
