mtllib Jimmy_Alejandro_Torres_Heraque_fase_2.mtl
o Jimmy_Alejandro_Torres_Heraque_fase_2
v -4.0000 1.0000 1.0000
v -3.0000 1.0000 1.0000
v -3.0000 1.0000 -0.0000
v -4.0000 1.0000 -0.0000
v -4.0000 0.0000 1.0000
v -4.0000 0.0000 -0.0000
v -3.0000 0.0000 -0.0000
v -3.0000 0.0000 1.0000
v -4.0000 4.0000 1.0000
v -3.0000 4.0000 1.0000
v -3.0000 4.0000 -0.0000
v -4.0000 4.0000 -0.0000
v -4.0000 3.0000 1.0000
v -4.0000 3.0000 -0.0000
v -3.0000 3.0000 -0.0000
v -3.0000 3.0000 1.0000
v -4.0000 -1.0000 -0.0000
v -4.0000 -1.0000 -1.0000
v -3.0000 -1.0000 -1.0000
v -3.0000 -1.0000 -0.0000
v -4.0000 0.0000 -1.0000
v -3.0000 0.0000 -1.0000
v -3.0000 1.0000 -1.0000
v -4.0000 1.0000 -1.0000
v -3.0000 1.0000 -2.0000
v -4.0000 1.0000 -2.0000
v -4.0000 0.0000 -2.0000
v -3.0000 0.0000 -2.0000
v -3.0000 0.0000 3.0000
v -3.0000 0.0000 2.0000
v -2.0000 0.0000 2.0000
v -2.0000 0.0000 3.0000
v -2.0000 1.0000 3.0000
v -3.0000 1.0000 3.0000
v -3.0000 1.0000 2.0000
v -2.0000 1.0000 2.0000
v -3.0000 2.0000 3.0000
v -2.0000 2.0000 3.0000
v -2.0000 2.0000 2.0000
v -3.0000 2.0000 2.0000
v -3.0000 4.0000 2.0000
v -2.0000 4.0000 2.0000
v -2.0000 4.0000 1.0000
v -3.0000 3.0000 2.0000
v -2.0000 3.0000 1.0000
v -2.0000 3.0000 2.0000
v -3.0000 2.0000 1.0000
v -3.0000 2.0000 -0.0000
v -2.0000 2.0000 -0.0000
v -2.0000 2.0000 1.0000
v -2.0000 3.0000 -0.0000
v -2.0000 4.0000 -0.0000
v -2.0000 0.0000 -0.0000
v -2.0000 0.0000 -1.0000
v -2.0000 -1.0000 -1.0000
v -2.0000 -1.0000 -0.0000
v -2.0000 4.0000 -1.0000
v -3.0000 4.0000 -1.0000
v -3.0000 3.0000 -1.0000
v -2.0000 3.0000 -1.0000
v -2.0000 1.0000 -1.0000
v -2.0000 1.0000 -2.0000
v -2.0000 0.0000 -2.0000
v -2.0000 1.0000 -3.0000
v -3.0000 1.0000 -3.0000
v -3.0000 0.0000 -3.0000
v -2.0000 0.0000 -3.0000
v -2.0000 1.0000 4.0000
v -1.0000 1.0000 4.0000
v -1.0000 1.0000 3.0000
v -2.0000 0.0000 4.0000
v -1.0000 0.0000 3.0000
v -1.0000 0.0000 4.0000
v -1.0000 1.0000 2.0000
v -1.0000 0.0000 2.0000
v -1.0000 4.0000 2.0000
v -1.0000 4.0000 1.0000
v -1.0000 3.0000 1.0000
v -1.0000 3.0000 2.0000
v -2.0000 -1.0000 1.0000
v -1.0000 -1.0000 1.0000
v -1.0000 -1.0000 -0.0000
v -2.0000 -2.0000 1.0000
v -2.0000 -2.0000 -0.0000
v -1.0000 -2.0000 -0.0000
v -1.0000 -2.0000 1.0000
v -2.0000 1.0000 1.0000
v -2.0000 1.0000 -0.0000
v -1.0000 1.0000 -0.0000
v -1.0000 1.0000 1.0000
v -1.0000 2.0000 1.0000
v -1.0000 3.0000 -0.0000
v -2.0000 -2.0000 -1.0000
v -1.0000 -2.0000 -1.0000
v -1.0000 -1.0000 -1.0000
v -1.0000 0.0000 -0.0000
v -1.0000 0.0000 -1.0000
v -1.0000 1.0000 -1.0000
v -2.0000 2.0000 -1.0000
v -1.0000 2.0000 -1.0000
v -1.0000 3.0000 -1.0000
v -1.0000 4.0000 -0.0000
v -1.0000 4.0000 -1.0000
v -2.0000 4.0000 -2.0000
v -1.0000 4.0000 -2.0000
v -1.0000 4.0000 -3.0000
v -2.0000 4.0000 -3.0000
v -2.0000 3.0000 -2.0000
v -2.0000 3.0000 -3.0000
v -1.0000 3.0000 -3.0000
v -1.0000 3.0000 -2.0000
v -1.0000 -1.0000 4.0000
v -1.0000 -1.0000 3.0000
v 0.0000 -1.0000 3.0000
v 0.0000 -1.0000 4.0000
v 0.0000 0.0000 4.0000
v 0.0000 0.0000 3.0000
v 0.0000 1.0000 4.0000
v 0.0000 1.0000 3.0000
v 0.0000 0.0000 2.0000
v -1.0000 -1.0000 2.0000
v 0.0000 -1.0000 2.0000
v -1.0000 4.0000 3.0000
v 0.0000 4.0000 3.0000
v 0.0000 4.0000 2.0000
v -1.0000 3.0000 3.0000
v 0.0000 3.0000 2.0000
v 0.0000 3.0000 3.0000
v -1.0000 -2.0000 2.0000
v 0.0000 -2.0000 1.0000
v 0.0000 -2.0000 2.0000
v 0.0000 0.0000 1.0000
v -1.0000 0.0000 1.0000
v 0.0000 -1.0000 1.0000
v -1.0000 2.0000 2.0000
v 0.0000 2.0000 2.0000
v 0.0000 2.0000 1.0000
v 0.0000 1.0000 1.0000
v 0.0000 1.0000 2.0000
v 0.0000 4.0000 1.0000
v 0.0000 3.0000 1.0000
v -1.0000 -4.0000 1.0000
v -1.0000 -4.0000 -0.0000
v 0.0000 -4.0000 -0.0000
v 0.0000 -4.0000 1.0000
v 0.0000 -3.0000 1.0000
v -1.0000 -3.0000 1.0000
v -1.0000 -3.0000 -0.0000
v 0.0000 3.0000 -0.0000
v -1.0000 -4.0000 -1.0000
v 0.0000 -4.0000 -1.0000
v -1.0000 -3.0000 -1.0000
v 0.0000 -3.0000 -1.0000
v 0.0000 -2.0000 -1.0000
v 0.0000 0.0000 -1.0000
v 0.0000 -1.0000 -1.0000
v 0.0000 1.0000 -1.0000
v 0.0000 3.0000 -1.0000
v 0.0000 -1.0000 -2.0000
v -1.0000 -1.0000 -2.0000
v -1.0000 -2.0000 -2.0000
v 0.0000 -2.0000 -2.0000
v -1.0000 1.0000 -2.0000
v 0.0000 1.0000 -2.0000
v -1.0000 2.0000 -2.0000
v 0.0000 2.0000 -2.0000
v 0.0000 3.0000 -2.0000
v 0.0000 2.0000 -1.0000
v -1.0000 2.0000 -3.0000
v 0.0000 2.0000 -3.0000
v 0.0000 3.0000 -3.0000
v 0.0000 4.0000 -2.0000
v 0.0000 4.0000 -3.0000
v -1.0000 1.0000 -3.0000
v 0.0000 1.0000 -3.0000
v 0.0000 1.0000 -4.0000
v -1.0000 1.0000 -4.0000
v -1.0000 0.0000 -3.0000
v -1.0000 0.0000 -4.0000
v 0.0000 0.0000 -4.0000
v 0.0000 0.0000 -3.0000
v 0.0000 4.0000 -4.0000
v -1.0000 4.0000 -4.0000
v -1.0000 3.0000 -4.0000
v 0.0000 3.0000 -4.0000
v 1.0000 1.0000 4.0000
v 1.0000 1.0000 3.0000
v 1.0000 0.0000 3.0000
v 1.0000 0.0000 4.0000
v 0.0000 4.0000 4.0000
v 1.0000 4.0000 4.0000
v 1.0000 4.0000 3.0000
v 0.0000 3.0000 4.0000
v 1.0000 3.0000 3.0000
v 1.0000 3.0000 4.0000
v 0.0000 2.0000 3.0000
v 1.0000 2.0000 2.0000
v 1.0000 2.0000 3.0000
v 1.0000 3.0000 2.0000
v 1.0000 4.0000 2.0000
v 1.0000 -1.0000 2.0000
v 1.0000 -1.0000 1.0000
v 1.0000 -2.0000 1.0000
v 1.0000 -2.0000 2.0000
v 1.0000 1.0000 1.0000
v 1.0000 1.0000 2.0000
v 1.0000 2.0000 1.0000
v 1.0000 3.0000 1.0000
v 1.0000 -4.0000 -0.0000
v 1.0000 -4.0000 1.0000
v 1.0000 -3.0000 1.0000
v 1.0000 -3.0000 -0.0000
v 1.0000 -2.0000 -0.0000
v 1.0000 0.0000 1.0000
v 1.0000 3.0000 -0.0000
v 1.0000 2.0000 -0.0000
v 1.0000 -4.0000 -1.0000
v 1.0000 -3.0000 -1.0000
v 1.0000 -2.0000 -1.0000
v 1.0000 -1.0000 -0.0000
v 1.0000 -1.0000 -1.0000
v 1.0000 0.0000 -1.0000
v 1.0000 0.0000 -0.0000
v 1.0000 1.0000 -1.0000
v 1.0000 1.0000 -0.0000
v 1.0000 3.0000 -1.0000
v 1.0000 2.0000 -1.0000
v 1.0000 -2.0000 -2.0000
v 1.0000 -1.0000 -2.0000
v 1.0000 0.0000 -2.0000
v 0.0000 0.0000 -2.0000
v 1.0000 2.0000 -2.0000
v 1.0000 1.0000 -2.0000
v 0.0000 4.0000 -1.0000
v 1.0000 4.0000 -1.0000
v 1.0000 4.0000 -2.0000
v 1.0000 3.0000 -2.0000
v 1.0000 0.0000 -3.0000
v 0.0000 -1.0000 -3.0000
v 1.0000 -1.0000 -3.0000
v 1.0000 4.0000 -3.0000
v 1.0000 3.0000 -3.0000
v 0.0000 -1.0000 -4.0000
v 1.0000 -1.0000 -4.0000
v 1.0000 0.0000 -4.0000
v 1.0000 1.0000 -3.0000
v 1.0000 1.0000 -4.0000
v 2.0000 4.0000 3.0000
v 2.0000 4.0000 2.0000
v 2.0000 3.0000 2.0000
v 2.0000 3.0000 3.0000
v 2.0000 -2.0000 -0.0000
v 2.0000 -2.0000 1.0000
v 2.0000 -1.0000 1.0000
v 2.0000 -1.0000 -0.0000
v 2.0000 0.0000 1.0000
v 2.0000 0.0000 -0.0000
v 2.0000 1.0000 1.0000
v 2.0000 1.0000 -0.0000
v 2.0000 2.0000 1.0000
v 2.0000 2.0000 -0.0000
v 1.0000 4.0000 1.0000
v 2.0000 4.0000 1.0000
v 2.0000 4.0000 -0.0000
v 1.0000 4.0000 -0.0000
v 2.0000 3.0000 -0.0000
v 2.0000 3.0000 1.0000
v 2.0000 -1.0000 -1.0000
v 2.0000 -2.0000 -1.0000
v 2.0000 1.0000 -1.0000
v 2.0000 2.0000 -1.0000
v 2.0000 3.0000 -1.0000
v 2.0000 1.0000 -2.0000
v 2.0000 1.0000 -3.0000
v 2.0000 0.0000 -3.0000
v 2.0000 0.0000 -2.0000
v 2.0000 1.0000 -4.0000
v 2.0000 0.0000 -4.0000
v 2.0000 1.0000 3.0000
v 3.0000 1.0000 3.0000
v 3.0000 1.0000 2.0000
v 2.0000 1.0000 2.0000
v 2.0000 0.0000 3.0000
v 2.0000 0.0000 2.0000
v 3.0000 0.0000 2.0000
v 3.0000 0.0000 3.0000
v 3.0000 1.0000 1.0000
v 3.0000 0.0000 1.0000
v 3.0000 0.0000 -0.0000
v 3.0000 -1.0000 -0.0000
v 3.0000 -1.0000 1.0000
v 3.0000 4.0000 1.0000
v 3.0000 4.0000 -0.0000
v 3.0000 3.0000 -0.0000
v 3.0000 3.0000 1.0000
v 3.0000 2.0000 -1.0000
v 3.0000 2.0000 -0.0000
v 3.0000 3.0000 -1.0000
v 3.0000 4.0000 -1.0000
v 2.0000 4.0000 -1.0000
v 3.0000 4.0000 -2.0000
v 2.0000 4.0000 -2.0000
v 2.0000 3.0000 -2.0000
v 3.0000 3.0000 -2.0000
v 3.0000 0.0000 -3.0000
v 3.0000 0.0000 -2.0000
v 3.0000 1.0000 -2.0000
v 3.0000 1.0000 -3.0000
v 2.0000 2.0000 -2.0000
v 3.0000 2.0000 -2.0000
v 3.0000 2.0000 -3.0000
v 2.0000 2.0000 -3.0000
v 4.0000 1.0000 2.0000
v 4.0000 1.0000 1.0000
v 4.0000 0.0000 1.0000
v 4.0000 0.0000 2.0000
v 4.0000 -1.0000 -0.0000
v 4.0000 -1.0000 1.0000
v 4.0000 0.0000 -0.0000
v 4.0000 1.0000 -0.0000
v 3.0000 1.0000 -0.0000
v 4.0000 1.0000 -1.0000
v 3.0000 1.0000 -1.0000
v 3.0000 0.0000 -1.0000
v 4.0000 0.0000 -1.0000
v 4.0000 4.0000 -0.0000
v 4.0000 4.0000 -1.0000
v 4.0000 3.0000 -1.0000
v 4.0000 3.0000 -0.0000
vt 0.001953 0.500000
vt 0.005859 0.500000
vt 0.009766 0.500000
vt 0.013672 0.500000
vt 0.017578 0.500000
vt 0.021484 0.500000
vt 0.025391 0.500000
vn 0.0 -1.0 0.0
vn 0.0 1.0 0.0
vn 0.0 0.0 1.0
vn 0.0 0.0 -1.0
vn -1.0 0.0 0.0
vn 1.0 0.0 0.0
usemtl mat_Jimmy_Alejandro_Torres_Heraque_fase_2
s off
f 1/1/2 2/1/2 3/1/2 4/1/2
f 5/1/1 6/1/1 7/1/1 8/1/1
f 5/1/3 8/1/3 2/1/3 1/1/3
f 8/1/6 7/1/6 3/1/6 2/1/6
f 5/1/5 1/1/5 4/1/5 6/1/5
f 9/2/2 10/2/2 11/2/2 12/2/2
f 13/2/1 14/2/1 15/2/1 16/2/1
f 13/2/3 16/2/3 10/2/3 9/2/3
f 14/2/4 12/2/4 11/2/4 15/2/4
f 13/2/5 9/2/5 12/2/5 14/2/5
f 17/3/1 18/3/1 19/3/1 20/3/1
f 17/3/3 20/3/3 7/3/3 6/3/3
f 18/3/4 21/3/4 22/3/4 19/3/4
f 17/3/5 6/3/5 21/3/5 18/3/5
f 4/4/2 3/4/2 23/4/2 24/4/2
f 7/4/6 22/4/6 23/4/6 3/4/6
f 6/4/5 4/4/5 24/4/5 21/4/5
f 24/5/2 23/5/2 25/5/2 26/5/2
f 21/5/1 27/5/1 28/5/1 22/5/1
f 27/5/4 26/5/4 25/5/4 28/5/4
f 21/5/5 24/5/5 26/5/5 27/5/5
f 29/2/1 30/2/1 31/2/1 32/2/1
f 29/2/3 32/2/3 33/2/3 34/2/3
f 30/2/4 35/2/4 36/2/4 31/2/4
f 29/2/5 34/2/5 35/2/5 30/2/5
f 37/6/2 38/6/2 39/6/2 40/6/2
f 34/6/3 33/6/3 38/6/3 37/6/3
f 35/6/4 40/6/4 39/6/4 36/6/4
f 33/6/6 36/6/6 39/6/6 38/6/6
f 34/6/5 37/6/5 40/6/5 35/6/5
f 41/1/2 42/1/2 43/1/2 10/1/2
f 44/1/1 16/1/1 45/1/1 46/1/1
f 44/1/3 46/1/3 42/1/3 41/1/3
f 44/1/5 41/1/5 10/1/5 16/1/5
f 47/4/1 48/4/1 49/4/1 50/4/1
f 47/4/3 50/4/3 45/4/3 16/4/3
f 48/4/4 15/4/4 51/4/4 49/4/4
f 47/4/5 16/4/5 15/4/5 48/4/5
f 10/7/2 43/7/2 52/7/2 11/7/2
f 45/7/6 51/7/6 52/7/6 43/7/6
f 7/3/2 53/3/2 54/3/2 22/3/2
f 20/3/1 19/3/1 55/3/1 56/3/1
f 20/3/3 56/3/3 53/3/3 7/3/3
f 19/3/4 22/3/4 54/3/4 55/3/4
f 11/1/2 52/1/2 57/1/2 58/1/2
f 15/1/1 59/1/1 60/1/1 51/1/1
f 59/1/4 58/1/4 57/1/4 60/1/4
f 15/1/5 11/1/5 58/1/5 59/1/5
f 23/4/2 61/4/2 62/4/2 25/4/2
f 22/4/1 28/4/1 63/4/1 54/4/1
f 22/4/3 54/4/3 61/4/3 23/4/3
f 54/4/6 63/4/6 62/4/6 61/4/6
f 25/6/2 62/6/2 64/6/2 65/6/2
f 28/6/1 66/6/1 67/6/1 63/6/1
f 66/6/4 65/6/4 64/6/4 67/6/4
f 63/6/6 67/6/6 64/6/6 62/6/6
f 28/6/5 25/6/5 65/6/5 66/6/5
f 68/1/2 69/1/2 70/1/2 33/1/2
f 71/1/1 32/1/1 72/1/1 73/1/1
f 71/1/3 73/1/3 69/1/3 68/1/3
f 71/1/5 68/1/5 33/1/5 32/1/5
f 33/1/2 70/1/2 74/1/2 36/1/2
f 32/1/1 31/1/1 75/1/1 72/1/1
f 31/1/4 36/1/4 74/1/4 75/1/4
f 72/1/6 75/1/6 74/1/6 70/1/6
f 42/6/2 76/6/2 77/6/2 43/6/2
f 46/6/1 45/6/1 78/6/1 79/6/1
f 46/6/3 79/6/3 76/6/3 42/6/3
f 45/6/4 43/6/4 77/6/4 78/6/4
f 80/5/2 81/5/2 82/5/2 56/5/2
f 83/5/1 84/5/1 85/5/1 86/5/1
f 83/5/3 86/5/3 81/5/3 80/5/3
f 83/5/5 80/5/5 56/5/5 84/5/5
f 87/3/1 88/3/1 89/3/1 90/3/1
f 87/3/3 90/3/3 91/3/3 50/3/3
f 87/3/5 50/3/5 49/3/5 88/3/5
f 45/4/2 78/4/2 92/4/2 51/4/2
f 50/4/3 91/4/3 78/4/3 45/4/3
f 84/3/1 93/3/1 94/3/1 85/3/1
f 93/3/4 55/3/4 95/3/4 94/3/4
f 84/3/5 56/3/5 55/3/5 93/3/5
f 53/3/2 96/3/2 97/3/2 54/3/2
f 56/3/3 82/3/3 96/3/3 53/3/3
f 55/3/4 54/3/4 97/3/4 95/3/4
f 88/5/1 61/5/1 98/5/1 89/5/1
f 61/5/4 99/5/4 100/5/4 98/5/4
f 88/5/5 49/5/5 99/5/5 61/5/5
f 99/6/4 60/6/4 101/6/4 100/6/4
f 49/6/5 51/6/5 60/6/5 99/6/5
f 52/1/2 102/1/2 103/1/2 57/1/2
f 51/1/3 92/1/3 102/1/3 52/1/3
f 60/1/4 57/1/4 103/1/4 101/1/4
f 92/1/6 101/1/6 103/1/6 102/1/6
f 104/1/2 105/1/2 106/1/2 107/1/2
f 108/1/1 109/1/1 110/1/1 111/1/1
f 108/1/3 111/1/3 105/1/3 104/1/3
f 109/1/4 107/1/4 106/1/4 110/1/4
f 108/1/5 104/1/5 107/1/5 109/1/5
f 112/1/1 113/1/1 114/1/1 115/1/1
f 112/1/3 115/1/3 116/1/3 73/1/3
f 115/1/6 114/1/6 117/1/6 116/1/6
f 112/1/5 73/1/5 72/1/5 113/1/5
f 69/1/2 118/1/2 119/1/2 70/1/2
f 73/1/3 116/1/3 118/1/3 69/1/3
f 72/1/4 70/1/4 119/1/4 117/1/4
f 72/7/2 117/7/2 120/7/2 75/7/2
f 113/7/1 121/7/1 122/7/1 114/7/1
f 114/7/6 122/7/6 120/7/6 117/7/6
f 113/7/5 72/7/5 75/7/5 121/7/5
f 123/1/2 124/1/2 125/1/2 76/1/2
f 126/1/1 79/1/1 127/1/1 128/1/1
f 126/1/3 128/1/3 124/1/3 123/1/3
f 126/1/5 123/1/5 76/1/5 79/1/5
f 129/4/1 86/4/1 130/4/1 131/4/1
f 129/4/3 131/4/3 122/4/3 121/4/3
f 129/4/5 121/4/5 81/4/5 86/4/5
f 75/1/2 120/1/2 132/1/2 133/1/2
f 122/1/6 134/1/6 132/1/6 120/1/6
f 121/1/5 75/1/5 133/1/5 81/1/5
f 135/1/2 136/1/2 137/1/2 91/1/2
f 74/1/1 90/1/1 138/1/1 139/1/1
f 74/1/3 139/1/3 136/1/3 135/1/3
f 74/1/5 135/1/5 91/1/5 90/1/5
f 76/3/2 125/3/2 140/3/2 77/3/2
f 79/3/1 78/3/1 141/3/1 127/3/1
f 78/3/4 77/3/4 140/3/4 141/3/4
f 127/3/6 141/3/6 140/3/6 125/3/6
f 142/3/1 143/3/1 144/3/1 145/3/1
f 142/3/3 145/3/3 146/3/3 147/3/3
f 142/3/5 147/3/5 148/3/5 143/3/5
f 147/3/3 146/3/3 130/3/3 86/3/3
f 147/3/5 86/3/5 85/3/5 148/3/5
f 81/4/5 133/4/5 96/4/5 82/4/5
f 133/4/3 132/4/3 138/4/3 90/4/3
f 133/4/5 90/4/5 89/4/5 96/4/5
f 78/4/2 141/4/2 149/4/2 92/4/2
f 91/4/3 137/4/3 141/4/3 78/4/3
f 143/3/1 150/3/1 151/3/1 144/3/1
f 150/3/4 152/3/4 153/3/4 151/3/4
f 143/3/5 148/3/5 152/3/5 150/3/5
f 152/3/4 94/3/4 154/3/4 153/3/4
f 148/3/5 85/3/5 94/3/5 152/3/5
f 95/3/4 97/3/4 155/3/4 156/3/4
f 97/3/4 98/3/4 157/3/4 155/3/4
f 96/3/5 89/3/5 98/3/5 97/3/5
f 92/4/2 149/4/2 158/4/2 101/4/2
f 95/5/2 156/5/2 159/5/2 160/5/2
f 94/5/1 161/5/1 162/5/1 154/5/1
f 161/5/4 160/5/4 159/5/4 162/5/4
f 94/5/5 95/5/5 160/5/5 161/5/5
f 98/3/1 163/3/1 164/3/1 157/3/1
f 163/3/4 165/3/4 166/3/4 164/3/4
f 98/3/5 100/3/5 165/3/5 163/3/5
f 101/3/2 158/3/2 167/3/2 111/3/2
f 168/3/6 166/3/6 167/3/6 158/3/6
f 100/3/5 101/3/5 111/3/5 165/3/5
f 165/3/1 169/3/1 170/3/1 166/3/1
f 169/3/4 110/3/4 171/3/4 170/3/4
f 166/3/6 170/3/6 171/3/6 167/3/6
f 165/3/5 111/3/5 110/3/5 169/3/5
f 105/3/2 172/3/2 173/3/2 106/3/2
f 111/3/3 167/3/3 172/3/3 105/3/3
f 174/1/2 175/1/2 176/1/2 177/1/2
f 178/1/1 179/1/1 180/1/1 181/1/1
f 178/1/3 181/1/3 175/1/3 174/1/3
f 179/1/4 177/1/4 176/1/4 180/1/4
f 178/1/5 174/1/5 177/1/5 179/1/5
f 106/1/2 173/1/2 182/1/2 183/1/2
f 110/1/1 184/1/1 185/1/1 171/1/1
f 184/1/4 183/1/4 182/1/4 185/1/4
f 171/1/6 185/1/6 182/1/6 173/1/6
f 110/1/5 106/1/5 183/1/5 184/1/5
f 118/1/2 186/1/2 187/1/2 119/1/2
f 116/1/1 117/1/1 188/1/1 189/1/1
f 116/1/3 189/1/3 186/1/3 118/1/3
f 117/1/4 119/1/4 187/1/4 188/1/4
f 189/1/6 188/1/6 187/1/6 186/1/6
f 190/1/2 191/1/2 192/1/2 124/1/2
f 193/1/1 128/1/1 194/1/1 195/1/1
f 193/1/3 195/1/3 191/1/3 190/1/3
f 195/1/6 194/1/6 192/1/6 191/1/6
f 193/1/5 190/1/5 124/1/5 128/1/5
f 196/1/1 136/1/1 197/1/1 198/1/1
f 196/1/3 198/1/3 194/1/3 128/1/3
f 198/1/6 197/1/6 199/1/6 194/1/6
f 196/1/5 128/1/5 127/1/5 136/1/5
f 124/1/2 192/1/2 200/1/2 125/1/2
f 127/1/4 125/1/4 200/1/4 199/1/4
f 122/1/2 201/1/2 202/1/2 134/1/2
f 131/1/1 130/1/1 203/1/1 204/1/1
f 131/1/3 204/1/3 201/1/3 122/1/3
f 204/1/6 203/1/6 202/1/6 201/1/6
f 139/1/1 138/1/1 205/1/1 206/1/1
f 139/1/3 206/1/3 197/1/3 136/1/3
f 206/1/6 205/1/6 207/1/6 197/1/6
f 127/7/2 199/7/2 208/7/2 141/7/2
f 197/7/6 207/7/6 208/7/6 199/7/6
f 136/7/5 127/7/5 141/7/5 137/7/5
f 145/3/1 144/3/1 209/3/1 210/3/1
f 145/3/3 210/3/3 211/3/3 146/3/3
f 210/3/6 209/3/6 212/3/6 211/3/6
f 146/3/3 211/3/3 203/3/3 130/3/3
f 211/3/6 212/3/6 213/3/6 203/3/6
f 134/4/3 202/4/3 214/4/3 132/4/3
f 132/4/3 214/4/3 205/4/3 138/4/3
f 141/7/2 208/7/2 215/7/2 149/7/2
f 207/7/6 216/7/6 215/7/6 208/7/6
f 144/3/1 151/3/1 217/3/1 209/3/1
f 151/3/4 153/3/4 218/3/4 217/3/4
f 209/3/6 217/3/6 218/3/6 212/3/6
f 153/3/4 154/3/4 219/3/4 218/3/4
f 212/3/6 218/3/6 219/3/6 213/3/6
f 220/3/6 221/3/6 222/3/6 223/3/6
f 155/4/4 157/4/4 224/4/4 222/4/4
f 223/4/6 222/4/6 224/4/6 225/4/6
f 149/3/2 215/3/2 226/3/2 158/3/2
f 168/3/4 158/3/4 226/3/4 227/3/4
f 154/3/1 162/3/1 228/3/1 219/3/1
f 162/3/4 159/3/4 229/3/4 228/3/4
f 219/3/6 228/3/6 229/3/6 221/3/6
f 155/3/2 222/3/2 230/3/2 231/3/2
f 221/3/6 229/3/6 230/3/6 222/3/6
f 156/3/5 155/3/5 231/3/5 159/3/5
f 168/1/2 227/1/2 232/1/2 166/1/2
f 157/1/1 164/1/1 233/1/1 224/1/1
f 164/1/4 166/1/4 232/1/4 233/1/4
f 224/1/6 233/1/6 232/1/6 227/1/6
f 234/3/2 235/3/2 236/3/2 172/3/2
f 158/3/1 167/3/1 237/3/1 226/3/1
f 158/3/3 226/3/3 235/3/3 234/3/3
f 226/3/6 237/3/6 236/3/6 235/3/6
f 158/3/5 234/3/5 172/3/5 167/3/5
f 231/3/2 230/3/2 238/3/2 181/3/2
f 159/3/1 239/3/1 240/3/1 229/3/1
f 229/3/6 240/3/6 238/3/6 230/3/6
f 159/3/5 231/3/5 181/3/5 239/3/5
f 172/1/2 236/1/2 241/1/2 173/1/2
f 167/1/1 171/1/1 242/1/1 237/1/1
f 171/1/4 173/1/4 241/1/4 242/1/4
f 237/1/6 242/1/6 241/1/6 236/1/6
f 239/3/1 243/3/1 244/3/1 240/3/1
f 243/3/4 180/3/4 245/3/4 244/3/4
f 240/3/6 244/3/6 245/3/6 238/3/6
f 239/3/5 181/3/5 180/3/5 243/3/5
f 175/6/2 246/6/2 247/6/2 176/6/2
f 181/6/3 238/6/3 246/6/3 175/6/3
f 180/6/4 176/6/4 247/6/4 245/6/4
f 192/1/2 248/1/2 249/1/2 200/1/2
f 194/1/1 199/1/1 250/1/1 251/1/1
f 194/1/3 251/1/3 248/1/3 192/1/3
f 199/1/4 200/1/4 249/1/4 250/1/4
f 251/1/6 250/1/6 249/1/6 248/1/6
f 203/3/1 213/3/1 252/3/1 253/3/1
f 203/3/3 253/3/3 254/3/3 202/3/3
f 253/3/6 252/3/6 255/3/6 254/3/6
f 202/3/3 254/3/3 256/3/3 214/3/3
f 220/3/4 223/3/4 257/3/4 255/3/4
f 214/6/3 256/6/3 258/6/3 205/6/3
f 223/6/4 225/6/4 259/6/4 257/6/4
f 256/6/6 257/6/6 259/6/6 258/6/6
f 207/1/2 260/1/2 261/1/2 216/1/2
f 205/1/3 258/1/3 260/1/3 207/1/3
f 258/1/6 259/1/6 261/1/6 260/1/6
f 262/3/2 263/3/2 264/3/2 265/3/2
f 208/3/1 215/3/1 266/3/1 267/3/1
f 208/3/3 267/3/3 263/3/3 262/3/3
f 215/3/4 265/3/4 264/3/4 266/3/4
f 208/3/5 262/3/5 265/3/5 215/3/5
f 220/1/2 255/1/2 268/1/2 221/1/2
f 213/1/1 219/1/1 269/1/1 252/1/1
f 219/1/4 221/1/4 268/1/4 269/1/4
f 252/1/6 269/1/6 268/1/6 255/1/6
f 225/3/1 224/3/1 270/3/1 259/3/1
f 224/3/4 227/3/4 271/3/4 270/3/4
f 259/3/6 270/3/6 271/3/6 261/3/6
f 215/3/2 266/3/2 272/3/2 226/3/2
f 216/3/3 261/3/3 266/3/3 215/3/3
f 227/3/4 226/3/4 272/3/4 271/3/4
f 233/1/2 273/1/2 274/1/2 246/1/2
f 230/1/1 238/1/1 275/1/1 276/1/1
f 230/1/3 276/1/3 273/1/3 233/1/3
f 230/1/5 233/1/5 246/1/5 238/1/5
f 246/2/2 274/2/2 277/2/2 247/2/2
f 238/2/1 245/2/1 278/2/1 275/2/1
f 245/2/4 247/2/4 277/2/4 278/2/4
f 275/2/6 278/2/6 277/2/6 274/2/6
f 279/2/2 280/2/2 281/2/2 282/2/2
f 283/2/1 284/2/1 285/2/1 286/2/1
f 283/2/3 286/2/3 280/2/3 279/2/3
f 286/2/6 285/2/6 281/2/6 280/2/6
f 283/2/5 279/2/5 282/2/5 284/2/5
f 282/2/2 281/2/2 287/2/2 258/2/2
f 284/2/1 256/2/1 288/2/1 285/2/1
f 256/2/4 258/2/4 287/2/4 288/2/4
f 284/2/5 282/2/5 258/2/5 256/2/5
f 256/3/2 288/3/2 289/3/2 257/3/2
f 254/3/1 255/3/1 290/3/1 291/3/1
f 254/3/3 291/3/3 288/3/3 256/3/3
f 255/3/4 257/3/4 289/3/4 290/3/4
f 263/1/2 292/1/2 293/1/2 264/1/2
f 267/1/1 266/1/1 294/1/1 295/1/1
f 267/1/3 295/1/3 292/1/3 263/1/3
f 295/1/6 294/1/6 293/1/6 292/1/6
f 261/3/1 271/3/1 296/3/1 297/3/1
f 261/3/3 297/3/3 294/3/3 266/3/3
f 271/3/4 272/3/4 298/3/4 296/3/4
f 297/3/6 296/3/6 298/3/6 294/3/6
f 264/3/2 293/3/2 299/3/2 300/3/2
f 266/3/5 264/3/5 300/3/5 272/3/5
f 300/1/2 299/1/2 301/1/2 302/1/2
f 272/1/1 303/1/1 304/1/1 298/1/1
f 303/1/4 302/1/4 301/1/4 304/1/4
f 298/1/6 304/1/6 301/1/6 299/1/6
f 272/1/5 300/1/5 302/1/5 303/1/5
f 276/1/1 275/1/1 305/1/1 306/1/1
f 276/1/3 306/1/3 307/1/3 273/1/3
f 275/1/4 274/1/4 308/1/4 305/1/4
f 306/1/6 305/1/6 308/1/6 307/1/6
f 309/6/2 310/6/2 311/6/2 312/6/2
f 273/6/3 307/6/3 310/6/3 309/6/3
f 274/6/4 312/6/4 311/6/4 308/6/4
f 307/6/6 308/6/6 311/6/6 310/6/6
f 273/6/5 309/6/5 312/6/5 274/6/5
f 281/2/2 313/2/2 314/2/2 287/2/2
f 285/2/1 288/2/1 315/2/1 316/2/1
f 285/2/3 316/2/3 313/2/3 281/2/3
f 316/2/6 315/2/6 314/2/6 313/2/6
f 291/1/1 290/1/1 317/1/1 318/1/1
f 291/1/3 318/1/3 315/1/3 288/1/3
f 290/1/4 289/1/4 319/1/4 317/1/4
f 318/1/6 317/1/6 319/1/6 315/1/6
f 287/1/2 314/1/2 320/1/2 321/1/2
f 315/1/6 319/1/6 320/1/6 314/1/6
f 288/1/5 287/1/5 321/1/5 289/1/5
f 321/1/2 320/1/2 322/1/2 323/1/2
f 289/1/1 324/1/1 325/1/1 319/1/1
f 324/1/4 323/1/4 322/1/4 325/1/4
f 319/1/6 325/1/6 322/1/6 320/1/6
f 289/1/5 321/1/5 323/1/5 324/1/5
f 293/2/2 326/2/2 327/2/2 299/2/2
f 294/2/1 298/2/1 328/2/1 329/2/1
f 294/2/3 329/2/3 326/2/3 293/2/3
f 298/2/4 299/2/4 327/2/4 328/2/4
f 329/2/6 328/2/6 327/2/6 326/2/6
