mtllib Alcaparro_enano_Sara_Viviana_Rojas_Gómez_fase_2.mtl
o Alcaparro_enano_Sara_Viviana_Rojas_Gómez_fase_2
v -4.5000 -3.0000 1.5000
v -3.5000 -3.0000 1.5000
v -3.5000 -3.0000 0.5000
v -4.5000 -3.0000 0.5000
v -4.5000 -4.0000 1.5000
v -4.5000 -4.0000 0.5000
v -3.5000 -4.0000 0.5000
v -3.5000 -4.0000 1.5000
v -4.5000 -1.0000 1.5000
v -3.5000 -1.0000 1.5000
v -3.5000 -1.0000 0.5000
v -4.5000 -1.0000 0.5000
v -4.5000 -2.0000 1.5000
v -4.5000 -2.0000 0.5000
v -3.5000 -2.0000 0.5000
v -3.5000 -2.0000 1.5000
v -4.5000 1.0000 1.5000
v -3.5000 1.0000 1.5000
v -3.5000 1.0000 0.5000
v -4.5000 1.0000 0.5000
v -4.5000 0.0000 1.5000
v -4.5000 0.0000 0.5000
v -3.5000 0.0000 0.5000
v -3.5000 0.0000 1.5000
v -4.5000 4.0000 1.5000
v -3.5000 4.0000 1.5000
v -3.5000 4.0000 0.5000
v -4.5000 4.0000 0.5000
v -4.5000 3.0000 1.5000
v -4.5000 3.0000 0.5000
v -3.5000 3.0000 0.5000
v -3.5000 3.0000 1.5000
v -4.5000 7.0000 1.5000
v -3.5000 7.0000 1.5000
v -3.5000 7.0000 0.5000
v -4.5000 7.0000 0.5000
v -4.5000 6.0000 1.5000
v -4.5000 6.0000 0.5000
v -3.5000 6.0000 0.5000
v -3.5000 6.0000 1.5000
v -3.5000 -3.0000 -0.5000
v -4.5000 -3.0000 -0.5000
v -4.5000 -4.0000 -0.5000
v -3.5000 -4.0000 -0.5000
v -3.5000 -1.0000 -0.5000
v -4.5000 -1.0000 -0.5000
v -4.5000 -2.0000 -0.5000
v -3.5000 -2.0000 -0.5000
v -3.5000 1.0000 -0.5000
v -4.5000 1.0000 -0.5000
v -4.5000 0.0000 -0.5000
v -3.5000 0.0000 -0.5000
v -3.5000 4.0000 -0.5000
v -4.5000 4.0000 -0.5000
v -4.5000 3.0000 -0.5000
v -3.5000 3.0000 -0.5000
v -3.5000 7.0000 -0.5000
v -4.5000 7.0000 -0.5000
v -4.5000 6.0000 -0.5000
v -3.5000 6.0000 -0.5000
v -3.5000 -5.0000 1.5000
v -3.5000 -5.0000 0.5000
v -2.5000 -5.0000 0.5000
v -2.5000 -5.0000 1.5000
v -2.5000 -4.0000 1.5000
v -2.5000 -3.0000 1.5000
v -2.5000 -2.0000 1.5000
v -2.5000 -1.0000 1.5000
v -2.5000 0.0000 1.5000
v -2.5000 1.0000 1.5000
v -2.5000 1.0000 0.5000
v -2.5000 0.0000 0.5000
v -3.5000 2.0000 1.5000
v -3.5000 2.0000 0.5000
v -2.5000 2.0000 0.5000
v -2.5000 2.0000 1.5000
v -2.5000 3.0000 1.5000
v -2.5000 4.0000 1.5000
v -2.5000 4.0000 0.5000
v -2.5000 3.0000 0.5000
v -3.5000 5.0000 1.5000
v -3.5000 5.0000 0.5000
v -2.5000 5.0000 0.5000
v -2.5000 5.0000 1.5000
v -2.5000 6.0000 1.5000
v -2.5000 7.0000 1.5000
v -2.5000 7.0000 0.5000
v -2.5000 6.0000 0.5000
v -3.5000 -5.0000 -0.5000
v -2.5000 -5.0000 -0.5000
v -2.5000 -4.0000 -0.5000
v -2.5000 -3.0000 -0.5000
v -2.5000 -2.0000 -0.5000
v -2.5000 -1.0000 -0.5000
v -2.5000 0.0000 -0.5000
v -2.5000 1.0000 -0.5000
v -3.5000 2.0000 -0.5000
v -2.5000 2.0000 -0.5000
v -2.5000 3.0000 -0.5000
v -2.5000 4.0000 -0.5000
v -3.5000 5.0000 -0.5000
v -2.5000 5.0000 -0.5000
v -2.5000 6.0000 -0.5000
v -2.5000 7.0000 -0.5000
v -2.5000 -6.0000 1.5000
v -2.5000 -6.0000 0.5000
v -1.5000 -6.0000 0.5000
v -1.5000 -6.0000 1.5000
v -1.5000 -5.0000 1.5000
v -1.5000 -4.0000 1.5000
v -1.5000 -5.0000 0.5000
v -1.5000 -4.0000 0.5000
v -1.5000 -3.0000 1.5000
v -1.5000 -2.0000 1.5000
v -1.5000 -3.0000 0.5000
v -1.5000 -2.0000 0.5000
v -1.5000 -1.0000 1.5000
v -1.5000 0.0000 1.5000
v -1.5000 0.0000 0.5000
v -1.5000 -1.0000 0.5000
v -1.5000 1.0000 0.5000
v -1.5000 1.0000 1.5000
v -1.5000 2.0000 1.5000
v -1.5000 3.0000 1.5000
v -1.5000 3.0000 0.5000
v -1.5000 2.0000 0.5000
v -1.5000 4.0000 0.5000
v -1.5000 4.0000 1.5000
v -1.5000 5.0000 1.5000
v -1.5000 6.0000 1.5000
v -1.5000 6.0000 0.5000
v -1.5000 5.0000 0.5000
v -2.5000 -6.0000 -0.5000
v -1.5000 -6.0000 -0.5000
v -1.5000 -5.0000 -0.5000
v -1.5000 -4.0000 -0.5000
v -1.5000 -3.0000 -0.5000
v -1.5000 -2.0000 -0.5000
v -1.5000 -1.0000 -0.5000
v -1.5000 0.0000 -0.5000
v -1.5000 1.0000 -0.5000
v -1.5000 2.0000 -0.5000
v -1.5000 3.0000 -0.5000
v -1.5000 4.0000 -0.5000
v -1.5000 5.0000 -0.5000
v -1.5000 6.0000 -0.5000
v -0.5000 -5.0000 1.5000
v -0.5000 -5.0000 0.5000
v -0.5000 -6.0000 0.5000
v -0.5000 -6.0000 1.5000
v -0.5000 -3.0000 1.5000
v -0.5000 -3.0000 0.5000
v -0.5000 -4.0000 0.5000
v -0.5000 -4.0000 1.5000
v -0.5000 -1.0000 1.5000
v -0.5000 -1.0000 0.5000
v -0.5000 -2.0000 0.5000
v -0.5000 -2.0000 1.5000
v -0.5000 2.0000 1.5000
v -0.5000 2.0000 0.5000
v -0.5000 1.0000 0.5000
v -0.5000 1.0000 1.5000
v -0.5000 5.0000 1.5000
v -0.5000 5.0000 0.5000
v -0.5000 4.0000 0.5000
v -0.5000 4.0000 1.5000
v -0.5000 -5.0000 -0.5000
v -0.5000 -6.0000 -0.5000
v -0.5000 -3.0000 -0.5000
v -0.5000 -4.0000 -0.5000
v -0.5000 -1.0000 -0.5000
v -0.5000 -2.0000 -0.5000
v -0.5000 0.0000 -0.5000
v -0.5000 0.0000 0.5000
v -0.5000 1.0000 -0.5000
v -0.5000 2.0000 -0.5000
v -0.5000 3.0000 0.5000
v -0.5000 3.0000 -0.5000
v -0.5000 4.0000 -0.5000
v -0.5000 5.0000 -0.5000
v -0.5000 -7.0000 0.5000
v -0.5000 -7.0000 -0.5000
v 0.5000 -7.0000 -0.5000
v 0.5000 -7.0000 0.5000
v 0.5000 -6.0000 0.5000
v 0.5000 -6.0000 -0.5000
v 0.5000 -5.0000 0.5000
v 0.5000 -5.0000 -0.5000
v 0.5000 -4.0000 0.5000
v 0.5000 -4.0000 -0.5000
v 0.5000 -3.0000 0.5000
v 0.5000 -3.0000 -0.5000
v 0.5000 -2.0000 0.5000
v 0.5000 -2.0000 -0.5000
v 0.5000 -1.0000 0.5000
v 0.5000 -1.0000 -0.5000
v 0.5000 0.0000 0.5000
v 0.5000 0.0000 -0.5000
v 0.5000 1.0000 0.5000
v 0.5000 1.0000 -0.5000
v 0.5000 2.0000 0.5000
v 0.5000 2.0000 -0.5000
v 0.5000 3.0000 0.5000
v 0.5000 3.0000 -0.5000
v 0.5000 4.0000 0.5000
v 0.5000 4.0000 -0.5000
v 0.5000 5.0000 0.5000
v 0.5000 5.0000 -0.5000
v 0.5000 6.0000 0.5000
v -0.5000 6.0000 0.5000
v -0.5000 6.0000 -0.5000
v 0.5000 6.0000 -0.5000
v -0.5000 7.0000 0.5000
v 0.5000 7.0000 0.5000
v 0.5000 7.0000 -0.5000
v -0.5000 7.0000 -0.5000
v 1.5000 -5.0000 0.5000
v 1.5000 -5.0000 -0.5000
v 1.5000 -6.0000 -0.5000
v 1.5000 -6.0000 0.5000
v 1.5000 -3.0000 0.5000
v 1.5000 -3.0000 -0.5000
v 1.5000 -4.0000 -0.5000
v 1.5000 -4.0000 0.5000
v 1.5000 -1.0000 0.5000
v 1.5000 -1.0000 -0.5000
v 1.5000 -2.0000 -0.5000
v 1.5000 -2.0000 0.5000
v 1.5000 0.0000 -0.5000
v 1.5000 0.0000 0.5000
v 1.5000 1.0000 0.5000
v 1.5000 1.0000 -0.5000
v 1.5000 2.0000 0.5000
v 1.5000 3.0000 0.5000
v 1.5000 3.0000 -0.5000
v 1.5000 2.0000 -0.5000
v 1.5000 4.0000 0.5000
v 1.5000 4.0000 -0.5000
v 1.5000 5.0000 0.5000
v 1.5000 5.0000 -0.5000
v 1.5000 -5.0000 -1.5000
v 0.5000 -5.0000 -1.5000
v 0.5000 -6.0000 -1.5000
v 1.5000 -6.0000 -1.5000
v 1.5000 -3.0000 -1.5000
v 0.5000 -3.0000 -1.5000
v 0.5000 -4.0000 -1.5000
v 1.5000 -4.0000 -1.5000
v 1.5000 -1.0000 -1.5000
v 0.5000 -1.0000 -1.5000
v 0.5000 -2.0000 -1.5000
v 1.5000 -2.0000 -1.5000
v 1.5000 2.0000 -1.5000
v 0.5000 2.0000 -1.5000
v 0.5000 1.0000 -1.5000
v 1.5000 1.0000 -1.5000
v 1.5000 5.0000 -1.5000
v 0.5000 5.0000 -1.5000
v 0.5000 4.0000 -1.5000
v 1.5000 4.0000 -1.5000
v 2.5000 -6.0000 -0.5000
v 2.5000 -6.0000 0.5000
v 2.5000 -5.0000 0.5000
v 2.5000 -5.0000 -0.5000
v 2.5000 -4.0000 0.5000
v 2.5000 -3.0000 0.5000
v 2.5000 -2.0000 0.5000
v 2.5000 -1.0000 0.5000
v 2.5000 0.0000 0.5000
v 2.5000 0.0000 -0.5000
v 2.5000 1.0000 -0.5000
v 2.5000 1.0000 0.5000
v 2.5000 2.0000 0.5000
v 2.5000 2.0000 -0.5000
v 2.5000 3.0000 0.5000
v 2.5000 3.0000 -0.5000
v 2.5000 4.0000 -0.5000
v 2.5000 4.0000 0.5000
v 2.5000 5.0000 0.5000
v 2.5000 5.0000 -0.5000
v 1.5000 6.0000 0.5000
v 2.5000 6.0000 0.5000
v 2.5000 6.0000 -0.5000
v 1.5000 6.0000 -0.5000
v 2.5000 -6.0000 -1.5000
v 2.5000 -5.0000 -1.5000
v 2.5000 -4.0000 -1.5000
v 2.5000 -3.0000 -1.5000
v 2.5000 -2.0000 -1.5000
v 2.5000 -1.0000 -1.5000
v 2.5000 0.0000 -1.5000
v 1.5000 0.0000 -1.5000
v 2.5000 1.0000 -1.5000
v 2.5000 2.0000 -1.5000
v 2.5000 3.0000 -1.5000
v 1.5000 3.0000 -1.5000
v 2.5000 4.0000 -1.5000
v 2.5000 5.0000 -1.5000
v 2.5000 6.0000 -1.5000
v 1.5000 6.0000 -1.5000
v 3.5000 -5.0000 -0.5000
v 3.5000 -5.0000 0.5000
v 3.5000 -4.0000 0.5000
v 3.5000 -4.0000 -0.5000
v 3.5000 -3.0000 0.5000
v 3.5000 -2.0000 0.5000
v 3.5000 -3.0000 -0.5000
v 3.5000 -2.0000 -0.5000
v 3.5000 -1.0000 0.5000
v 3.5000 0.0000 0.5000
v 3.5000 -1.0000 -0.5000
v 3.5000 0.0000 -0.5000
v 3.5000 1.0000 0.5000
v 3.5000 1.0000 -0.5000
v 3.5000 2.0000 -0.5000
v 3.5000 2.0000 0.5000
v 3.5000 3.0000 0.5000
v 3.5000 3.0000 -0.5000
v 3.5000 4.0000 0.5000
v 3.5000 4.0000 -0.5000
v 3.5000 5.0000 -0.5000
v 3.5000 5.0000 0.5000
v 3.5000 6.0000 0.5000
v 3.5000 6.0000 -0.5000
v 2.5000 7.0000 0.5000
v 3.5000 7.0000 0.5000
v 3.5000 7.0000 -0.5000
v 2.5000 7.0000 -0.5000
v 3.5000 -5.0000 -1.5000
v 3.5000 -4.0000 -1.5000
v 3.5000 -3.0000 -1.5000
v 3.5000 -2.0000 -1.5000
v 3.5000 -1.0000 -1.5000
v 3.5000 0.0000 -1.5000
v 3.5000 1.0000 -1.5000
v 3.5000 2.0000 -1.5000
v 3.5000 3.0000 -1.5000
v 3.5000 4.0000 -1.5000
v 3.5000 5.0000 -1.5000
v 3.5000 6.0000 -1.5000
v 3.5000 7.0000 -1.5000
v 2.5000 7.0000 -1.5000
v 4.5000 -3.0000 0.5000
v 4.5000 -3.0000 -0.5000
v 4.5000 -4.0000 -0.5000
v 4.5000 -4.0000 0.5000
v 4.5000 -1.0000 0.5000
v 4.5000 -1.0000 -0.5000
v 4.5000 -2.0000 -0.5000
v 4.5000 -2.0000 0.5000
v 4.5000 1.0000 0.5000
v 4.5000 1.0000 -0.5000
v 4.5000 0.0000 -0.5000
v 4.5000 0.0000 0.5000
v 4.5000 4.0000 0.5000
v 4.5000 4.0000 -0.5000
v 4.5000 3.0000 -0.5000
v 4.5000 3.0000 0.5000
v 4.5000 7.0000 0.5000
v 4.5000 7.0000 -0.5000
v 4.5000 6.0000 -0.5000
v 4.5000 6.0000 0.5000
v 4.5000 -3.0000 -1.5000
v 4.5000 -4.0000 -1.5000
v 4.5000 -1.0000 -1.5000
v 4.5000 -2.0000 -1.5000
v 4.5000 1.0000 -1.5000
v 4.5000 0.0000 -1.5000
v 4.5000 4.0000 -1.5000
v 4.5000 3.0000 -1.5000
v 4.5000 7.0000 -1.5000
v 4.5000 6.0000 -1.5000
vt 0.001953 0.500000
vt 0.005859 0.500000
vt 0.009766 0.500000
vt 0.013672 0.500000
vt 0.017578 0.500000
vn 0.0 -1.0 0.0
vn 0.0 1.0 0.0
vn 0.0 0.0 1.0
vn 0.0 0.0 -1.0
vn -1.0 0.0 0.0
vn 1.0 0.0 0.0
usemtl mat_Alcaparro_enano_Sara_Viviana_Rojas_Gómez_fase_2
s off
f 1/1/2 2/1/2 3/1/2 4/1/2
f 5/1/1 6/1/1 7/1/1 8/1/1
f 5/1/3 8/1/3 2/1/3 1/1/3
f 5/1/5 1/1/5 4/1/5 6/1/5
f 9/1/2 10/1/2 11/1/2 12/1/2
f 13/1/1 14/1/1 15/1/1 16/1/1
f 13/1/3 16/1/3 10/1/3 9/1/3
f 13/1/5 9/1/5 12/1/5 14/1/5
f 17/1/2 18/1/2 19/1/2 20/1/2
f 21/1/1 22/1/1 23/1/1 24/1/1
f 21/1/3 24/1/3 18/1/3 17/1/3
f 21/1/5 17/1/5 20/1/5 22/1/5
f 25/1/2 26/1/2 27/1/2 28/1/2
f 29/1/1 30/1/1 31/1/1 32/1/1
f 29/1/3 32/1/3 26/1/3 25/1/3
f 29/1/5 25/1/5 28/1/5 30/1/5
f 33/1/2 34/1/2 35/1/2 36/1/2
f 37/1/1 38/1/1 39/1/1 40/1/1
f 37/1/3 40/1/3 34/1/3 33/1/3
f 37/1/5 33/1/5 36/1/5 38/1/5
f 4/1/2 3/1/2 41/1/2 42/1/2
f 6/1/1 43/1/1 44/1/1 7/1/1
f 43/1/4 42/1/4 41/1/4 44/1/4
f 6/1/5 4/1/5 42/1/5 43/1/5
f 12/1/2 11/1/2 45/1/2 46/1/2
f 14/1/1 47/1/1 48/1/1 15/1/1
f 47/1/4 46/1/4 45/1/4 48/1/4
f 14/1/5 12/1/5 46/1/5 47/1/5
f 20/1/2 19/1/2 49/1/2 50/1/2
f 22/1/1 51/1/1 52/1/1 23/1/1
f 51/1/4 50/1/4 49/1/4 52/1/4
f 22/1/5 20/1/5 50/1/5 51/1/5
f 28/1/2 27/1/2 53/1/2 54/1/2
f 30/1/1 55/1/1 56/1/1 31/1/1
f 55/1/4 54/1/4 53/1/4 56/1/4
f 30/1/5 28/1/5 54/1/5 55/1/5
f 36/1/2 35/1/2 57/1/2 58/1/2
f 38/1/1 59/1/1 60/1/1 39/1/1
f 59/1/4 58/1/4 57/1/4 60/1/4
f 38/1/5 36/1/5 58/1/5 59/1/5
f 61/2/1 62/2/1 63/2/1 64/2/1
f 61/2/3 64/2/3 65/2/3 8/2/3
f 61/2/5 8/2/5 7/2/5 62/2/5
f 8/1/3 65/1/3 66/1/3 2/1/3
f 2/2/3 66/2/3 67/2/3 16/2/3
f 2/2/5 16/2/5 15/2/5 3/2/5
f 16/1/3 67/1/3 68/1/3 10/1/3
f 10/2/3 68/2/3 69/2/3 24/2/3
f 10/2/5 24/2/5 23/2/5 11/2/5
f 18/1/2 70/1/2 71/1/2 19/1/2
f 24/1/3 69/1/3 70/1/3 18/1/3
f 69/1/6 72/1/6 71/1/6 70/1/6
f 73/2/1 74/2/1 75/2/1 76/2/1
f 73/2/3 76/2/3 77/2/3 32/2/3
f 73/2/5 32/2/5 31/2/5 74/2/5
f 26/1/2 78/1/2 79/1/2 27/1/2
f 32/1/3 77/1/3 78/1/3 26/1/3
f 77/1/6 80/1/6 79/1/6 78/1/6
f 81/2/1 82/2/1 83/2/1 84/2/1
f 81/2/3 84/2/3 85/2/3 40/2/3
f 81/2/5 40/2/5 39/2/5 82/2/5
f 34/1/2 86/1/2 87/1/2 35/1/2
f 40/1/3 85/1/3 86/1/3 34/1/3
f 85/1/6 88/1/6 87/1/6 86/1/6
f 62/2/1 89/2/1 90/2/1 63/2/1
f 89/2/4 44/2/4 91/2/4 90/2/4
f 62/2/5 7/2/5 44/2/5 89/2/5
f 44/1/4 41/1/4 92/1/4 91/1/4
f 41/2/4 48/2/4 93/2/4 92/2/4
f 3/2/5 15/2/5 48/2/5 41/2/5
f 48/1/4 45/1/4 94/1/4 93/1/4
f 45/2/4 52/2/4 95/2/4 94/2/4
f 11/2/5 23/2/5 52/2/5 45/2/5
f 19/1/2 71/1/2 96/1/2 49/1/2
f 52/1/4 49/1/4 96/1/4 95/1/4
f 72/1/6 95/1/6 96/1/6 71/1/6
f 74/2/1 97/2/1 98/2/1 75/2/1
f 97/2/4 56/2/4 99/2/4 98/2/4
f 74/2/5 31/2/5 56/2/5 97/2/5
f 27/1/2 79/1/2 100/1/2 53/1/2
f 56/1/4 53/1/4 100/1/4 99/1/4
f 80/1/6 99/1/6 100/1/6 79/1/6
f 82/2/1 101/2/1 102/2/1 83/2/1
f 101/2/4 60/2/4 103/2/4 102/2/4
f 82/2/5 39/2/5 60/2/5 101/2/5
f 35/1/2 87/1/2 104/1/2 57/1/2
f 60/1/4 57/1/4 104/1/4 103/1/4
f 88/1/6 103/1/6 104/1/6 87/1/6
f 105/1/1 106/1/1 107/1/1 108/1/1
f 105/1/3 108/1/3 109/1/3 64/1/3
f 105/1/5 64/1/5 63/1/5 106/1/5
f 64/2/3 109/2/3 110/2/3 65/2/3
f 109/2/6 111/2/6 112/2/6 110/2/6
f 65/1/3 110/1/3 113/1/3 66/1/3
f 66/2/3 113/2/3 114/2/3 67/2/3
f 113/2/6 115/2/6 116/2/6 114/2/6
f 67/1/3 114/1/3 117/1/3 68/1/3
f 69/2/2 118/2/2 119/2/2 72/2/2
f 68/2/3 117/2/3 118/2/3 69/2/3
f 117/2/6 120/2/6 119/2/6 118/2/6
f 70/1/1 71/1/1 121/1/1 122/1/1
f 70/1/3 122/1/3 123/1/3 76/1/3
f 70/1/5 76/1/5 75/1/5 71/1/5
f 77/2/2 124/2/2 125/2/2 80/2/2
f 76/2/3 123/2/3 124/2/3 77/2/3
f 123/2/6 126/2/6 125/2/6 124/2/6
f 78/1/1 79/1/1 127/1/1 128/1/1
f 78/1/3 128/1/3 129/1/3 84/1/3
f 78/1/5 84/1/5 83/1/5 79/1/5
f 85/2/2 130/2/2 131/2/2 88/2/2
f 84/2/3 129/2/3 130/2/3 85/2/3
f 129/2/6 132/2/6 131/2/6 130/2/6
f 106/1/1 133/1/1 134/1/1 107/1/1
f 133/1/4 90/1/4 135/1/4 134/1/4
f 106/1/5 63/1/5 90/1/5 133/1/5
f 90/2/4 91/2/4 136/2/4 135/2/4
f 111/2/6 135/2/6 136/2/6 112/2/6
f 91/1/4 92/1/4 137/1/4 136/1/4
f 92/2/4 93/2/4 138/2/4 137/2/4
f 115/2/6 137/2/6 138/2/6 116/2/6
f 93/1/4 94/1/4 139/1/4 138/1/4
f 72/2/2 119/2/2 140/2/2 95/2/2
f 94/2/4 95/2/4 140/2/4 139/2/4
f 120/2/6 139/2/6 140/2/6 119/2/6
f 71/1/1 96/1/1 141/1/1 121/1/1
f 96/1/4 98/1/4 142/1/4 141/1/4
f 71/1/5 75/1/5 98/1/5 96/1/5
f 80/2/2 125/2/2 143/2/2 99/2/2
f 98/2/4 99/2/4 143/2/4 142/2/4
f 79/1/1 100/1/1 144/1/1 127/1/1
f 100/1/4 102/1/4 145/1/4 144/1/4
f 79/1/5 83/1/5 102/1/5 100/1/5
f 88/2/2 131/2/2 146/2/2 103/2/2
f 102/2/4 103/2/4 146/2/4 145/2/4
f 132/2/6 145/2/6 146/2/6 131/2/6
f 109/1/2 147/1/2 148/1/2 111/1/2
f 108/1/1 107/1/1 149/1/1 150/1/1
f 108/1/3 150/1/3 147/1/3 109/1/3
f 150/1/6 149/1/6 148/1/6 147/1/6
f 113/1/2 151/1/2 152/1/2 115/1/2
f 110/1/1 112/1/1 153/1/1 154/1/1
f 110/1/3 154/1/3 151/1/3 113/1/3
f 154/1/6 153/1/6 152/1/6 151/1/6
f 117/1/2 155/1/2 156/1/2 120/1/2
f 114/1/1 116/1/1 157/1/1 158/1/1
f 114/1/3 158/1/3 155/1/3 117/1/3
f 158/1/6 157/1/6 156/1/6 155/1/6
f 123/1/2 159/1/2 160/1/2 126/1/2
f 122/1/1 121/1/1 161/1/1 162/1/1
f 122/1/3 162/1/3 159/1/3 123/1/3
f 162/1/6 161/1/6 160/1/6 159/1/6
f 129/1/2 163/1/2 164/1/2 132/1/2
f 128/1/1 127/1/1 165/1/1 166/1/1
f 128/1/3 166/1/3 163/1/3 129/1/3
f 166/1/6 165/1/6 164/1/6 163/1/6
f 111/1/2 148/1/2 167/1/2 135/1/2
f 107/1/1 134/1/1 168/1/1 149/1/1
f 134/1/4 135/1/4 167/1/4 168/1/4
f 115/1/2 152/1/2 169/1/2 137/1/2
f 112/1/1 136/1/1 170/1/1 153/1/1
f 136/1/4 137/1/4 169/1/4 170/1/4
f 120/1/2 156/1/2 171/1/2 139/1/2
f 116/1/1 138/1/1 172/1/1 157/1/1
f 138/1/4 139/1/4 171/1/4 172/1/4
f 119/3/1 140/3/1 173/3/1 174/3/1
f 119/3/3 174/3/3 161/3/3 121/3/3
f 140/3/4 141/3/4 175/3/4 173/3/4
f 119/3/5 121/3/5 141/3/5 140/3/5
f 141/1/4 142/1/4 176/1/4 175/1/4
f 126/3/3 160/3/3 177/3/3 125/3/3
f 142/3/4 143/3/4 178/3/4 176/3/4
f 125/3/3 177/3/3 165/3/3 127/3/3
f 143/3/4 144/3/4 179/3/4 178/3/4
f 125/3/5 127/3/5 144/3/5 143/3/5
f 132/1/2 164/1/2 180/1/2 145/1/2
f 144/1/4 145/1/4 180/1/4 179/1/4
f 181/3/1 182/3/1 183/3/1 184/3/1
f 181/3/3 184/3/3 185/3/3 149/3/3
f 182/3/4 168/3/4 186/3/4 183/3/4
f 184/3/6 183/3/6 186/3/6 185/3/6
f 181/3/5 149/3/5 168/3/5 182/3/5
f 149/3/3 185/3/3 187/3/3 148/3/3
f 168/3/4 167/3/4 188/3/4 186/3/4
f 148/3/3 187/3/3 189/3/3 153/3/3
f 167/3/4 170/3/4 190/3/4 188/3/4
f 187/3/6 188/3/6 190/3/6 189/3/6
f 148/3/5 153/3/5 170/3/5 167/3/5
f 153/3/3 189/3/3 191/3/3 152/3/3
f 170/3/4 169/3/4 192/3/4 190/3/4
f 152/3/3 191/3/3 193/3/3 157/3/3
f 169/3/4 172/3/4 194/3/4 192/3/4
f 191/3/6 192/3/6 194/3/6 193/3/6
f 152/3/5 157/3/5 172/3/5 169/3/5
f 157/3/3 193/3/3 195/3/3 156/3/3
f 172/3/4 171/3/4 196/3/4 194/3/4
f 156/3/3 195/3/3 197/3/3 174/3/3
f 171/3/4 173/3/4 198/3/4 196/3/4
f 195/3/6 196/3/6 198/3/6 197/3/6
f 156/3/5 174/3/5 173/3/5 171/3/5
f 174/3/3 197/3/3 199/3/3 161/3/3
f 173/3/4 175/3/4 200/3/4 198/3/4
f 161/3/3 199/3/3 201/3/3 160/3/3
f 175/3/4 176/3/4 202/3/4 200/3/4
f 160/3/3 201/3/3 203/3/3 177/3/3
f 176/3/4 178/3/4 204/3/4 202/3/4
f 177/3/3 203/3/3 205/3/3 165/3/3
f 178/3/4 179/3/4 206/3/4 204/3/4
f 165/3/3 205/3/3 207/3/3 164/3/3
f 179/3/4 180/3/4 208/3/4 206/3/4
f 164/4/3 207/4/3 209/4/3 210/4/3
f 180/4/4 211/4/4 212/4/4 208/4/4
f 207/4/6 208/4/6 212/4/6 209/4/6
f 164/4/5 210/4/5 211/4/5 180/4/5
f 213/3/2 214/3/2 215/3/2 216/3/2
f 210/3/3 209/3/3 214/3/3 213/3/3
f 211/3/4 216/3/4 215/3/4 212/3/4
f 209/3/6 212/3/6 215/3/6 214/3/6
f 210/3/5 213/3/5 216/3/5 211/3/5
f 187/1/2 217/1/2 218/1/2 188/1/2
f 185/1/1 186/1/1 219/1/1 220/1/1
f 185/1/3 220/1/3 217/1/3 187/1/3
f 191/1/2 221/1/2 222/1/2 192/1/2
f 189/1/1 190/1/1 223/1/1 224/1/1
f 189/1/3 224/1/3 221/1/3 191/1/3
f 195/1/2 225/1/2 226/1/2 196/1/2
f 193/1/1 194/1/1 227/1/1 228/1/1
f 193/1/3 228/1/3 225/1/3 195/1/3
f 197/3/1 198/3/1 229/3/1 230/3/1
f 197/3/3 230/3/3 231/3/3 199/3/3
f 198/3/4 200/3/4 232/3/4 229/3/4
f 230/3/6 229/3/6 232/3/6 231/3/6
f 199/1/3 231/1/3 233/1/3 201/1/3
f 201/3/3 233/3/3 234/3/3 203/3/3
f 202/3/4 204/3/4 235/3/4 236/3/4
f 203/3/3 234/3/3 237/3/3 205/3/3
f 204/3/4 206/3/4 238/3/4 235/3/4
f 234/3/6 235/3/6 238/3/6 237/3/6
f 207/5/2 239/5/2 240/5/2 208/5/2
f 205/5/3 237/5/3 239/5/3 207/5/3
f 188/1/2 218/1/2 241/1/2 242/1/2
f 186/1/1 243/1/1 244/1/1 219/1/1
f 243/1/4 242/1/4 241/1/4 244/1/4
f 186/1/5 188/1/5 242/1/5 243/1/5
f 192/1/2 222/1/2 245/1/2 246/1/2
f 190/1/1 247/1/1 248/1/1 223/1/1
f 247/1/4 246/1/4 245/1/4 248/1/4
f 190/1/5 192/1/5 246/1/5 247/1/5
f 196/1/2 226/1/2 249/1/2 250/1/2
f 194/1/1 251/1/1 252/1/1 227/1/1
f 251/1/4 250/1/4 249/1/4 252/1/4
f 194/1/5 196/1/5 250/1/5 251/1/5
f 202/1/2 236/1/2 253/1/2 254/1/2
f 200/1/1 255/1/1 256/1/1 232/1/1
f 255/1/4 254/1/4 253/1/4 256/1/4
f 200/1/5 202/1/5 254/1/5 255/1/5
f 208/1/2 240/1/2 257/1/2 258/1/2
f 206/1/1 259/1/1 260/1/1 238/1/1
f 259/1/4 258/1/4 257/1/4 260/1/4
f 206/1/5 208/1/5 258/1/5 259/1/5
f 220/1/1 219/1/1 261/1/1 262/1/1
f 220/1/3 262/1/3 263/1/3 217/1/3
f 262/1/6 261/1/6 264/1/6 263/1/6
f 217/2/3 263/2/3 265/2/3 224/2/3
f 217/2/5 224/2/5 223/2/5 218/2/5
f 224/1/3 265/1/3 266/1/3 221/1/3
f 221/2/3 266/2/3 267/2/3 228/2/3
f 221/2/5 228/2/5 227/2/5 222/2/5
f 228/1/3 267/1/3 268/1/3 225/1/3
f 230/2/2 269/2/2 270/2/2 229/2/2
f 225/2/3 268/2/3 269/2/3 230/2/3
f 225/2/5 230/2/5 229/2/5 226/2/5
f 231/1/1 232/1/1 271/1/1 272/1/1
f 231/1/3 272/1/3 273/1/3 233/1/3
f 272/1/6 271/1/6 274/1/6 273/1/6
f 234/2/2 275/2/2 276/2/2 235/2/2
f 233/2/3 273/2/3 275/2/3 234/2/3
f 237/1/1 238/1/1 277/1/1 278/1/1
f 237/1/3 278/1/3 279/1/3 239/1/3
f 278/1/6 277/1/6 280/1/6 279/1/6
f 281/2/2 282/2/2 283/2/2 284/2/2
f 239/2/3 279/2/3 282/2/3 281/2/3
f 239/2/5 281/2/5 284/2/5 240/2/5
f 219/1/1 244/1/1 285/1/1 261/1/1
f 244/1/4 241/1/4 286/1/4 285/1/4
f 261/1/6 285/1/6 286/1/6 264/1/6
f 241/2/4 248/2/4 287/2/4 286/2/4
f 218/2/5 223/2/5 248/2/5 241/2/5
f 248/1/4 245/1/4 288/1/4 287/1/4
f 245/2/4 252/2/4 289/2/4 288/2/4
f 222/2/5 227/2/5 252/2/5 245/2/5
f 252/1/4 249/1/4 290/1/4 289/1/4
f 229/2/2 270/2/2 291/2/2 292/2/2
f 249/2/4 292/2/4 291/2/4 290/2/4
f 226/2/5 229/2/5 292/2/5 249/2/5
f 232/1/1 256/1/1 293/1/1 271/1/1
f 256/1/4 253/1/4 294/1/4 293/1/4
f 271/1/6 293/1/6 294/1/6 274/1/6
f 235/2/2 276/2/2 295/2/2 296/2/2
f 253/2/4 296/2/4 295/2/4 294/2/4
f 236/2/5 235/2/5 296/2/5 253/2/5
f 238/1/1 260/1/1 297/1/1 277/1/1
f 260/1/4 257/1/4 298/1/4 297/1/4
f 277/1/6 297/1/6 298/1/6 280/1/6
f 284/2/2 283/2/2 299/2/2 300/2/2
f 257/2/4 300/2/4 299/2/4 298/2/4
f 240/2/5 284/2/5 300/2/5 257/2/5
f 263/2/1 264/2/1 301/2/1 302/2/1
f 263/2/3 302/2/3 303/2/3 265/2/3
f 302/2/6 301/2/6 304/2/6 303/2/6
f 265/1/3 303/1/3 305/1/3 266/1/3
f 266/2/3 305/2/3 306/2/3 267/2/3
f 305/2/6 307/2/6 308/2/6 306/2/6
f 267/1/3 306/1/3 309/1/3 268/1/3
f 268/2/3 309/2/3 310/2/3 269/2/3
f 309/2/6 311/2/6 312/2/6 310/2/6
f 272/1/2 313/1/2 314/1/2 271/1/2
f 269/1/3 310/1/3 313/1/3 272/1/3
f 269/1/5 272/1/5 271/1/5 270/1/5
f 273/2/1 274/2/1 315/2/1 316/2/1
f 273/2/3 316/2/3 317/2/3 275/2/3
f 316/2/6 315/2/6 318/2/6 317/2/6
f 278/1/2 319/1/2 320/1/2 277/1/2
f 275/1/3 317/1/3 319/1/3 278/1/3
f 275/1/5 278/1/5 277/1/5 276/1/5
f 279/2/1 280/2/1 321/2/1 322/2/1
f 279/2/3 322/2/3 323/2/3 282/2/3
f 322/2/6 321/2/6 324/2/6 323/2/6
f 325/1/2 326/1/2 327/1/2 328/1/2
f 282/1/3 323/1/3 326/1/3 325/1/3
f 282/1/5 325/1/5 328/1/5 283/1/5
f 264/2/1 286/2/1 329/2/1 301/2/1
f 286/2/4 287/2/4 330/2/4 329/2/4
f 301/2/6 329/2/6 330/2/6 304/2/6
f 287/1/4 288/1/4 331/1/4 330/1/4
f 288/2/4 289/2/4 332/2/4 331/2/4
f 307/2/6 331/2/6 332/2/6 308/2/6
f 289/1/4 290/1/4 333/1/4 332/1/4
f 290/2/4 291/2/4 334/2/4 333/2/4
f 311/2/6 333/2/6 334/2/6 312/2/6
f 271/1/2 314/1/2 335/1/2 293/1/2
f 291/1/4 293/1/4 335/1/4 334/1/4
f 270/1/5 271/1/5 293/1/5 291/1/5
f 274/2/1 294/2/1 336/2/1 315/2/1
f 294/2/4 295/2/4 337/2/4 336/2/4
f 315/2/6 336/2/6 337/2/6 318/2/6
f 277/1/2 320/1/2 338/1/2 297/1/2
f 295/1/4 297/1/4 338/1/4 337/1/4
f 276/1/5 277/1/5 297/1/5 295/1/5
f 280/2/1 298/2/1 339/2/1 321/2/1
f 298/2/4 299/2/4 340/2/4 339/2/4
f 321/2/6 339/2/6 340/2/6 324/2/6
f 328/1/2 327/1/2 341/1/2 342/1/2
f 299/1/4 342/1/4 341/1/4 340/1/4
f 283/1/5 328/1/5 342/1/5 299/1/5
f 305/1/2 343/1/2 344/1/2 307/1/2
f 303/1/1 304/1/1 345/1/1 346/1/1
f 303/1/3 346/1/3 343/1/3 305/1/3
f 346/1/6 345/1/6 344/1/6 343/1/6
f 309/1/2 347/1/2 348/1/2 311/1/2
f 306/1/1 308/1/1 349/1/1 350/1/1
f 306/1/3 350/1/3 347/1/3 309/1/3
f 350/1/6 349/1/6 348/1/6 347/1/6
f 313/1/2 351/1/2 352/1/2 314/1/2
f 310/1/1 312/1/1 353/1/1 354/1/1
f 310/1/3 354/1/3 351/1/3 313/1/3
f 354/1/6 353/1/6 352/1/6 351/1/6
f 319/1/2 355/1/2 356/1/2 320/1/2
f 317/1/1 318/1/1 357/1/1 358/1/1
f 317/1/3 358/1/3 355/1/3 319/1/3
f 358/1/6 357/1/6 356/1/6 355/1/6
f 326/1/2 359/1/2 360/1/2 327/1/2
f 323/1/1 324/1/1 361/1/1 362/1/1
f 323/1/3 362/1/3 359/1/3 326/1/3
f 362/1/6 361/1/6 360/1/6 359/1/6
f 307/1/2 344/1/2 363/1/2 331/1/2
f 304/1/1 330/1/1 364/1/1 345/1/1
f 330/1/4 331/1/4 363/1/4 364/1/4
f 345/1/6 364/1/6 363/1/6 344/1/6
f 311/1/2 348/1/2 365/1/2 333/1/2
f 308/1/1 332/1/1 366/1/1 349/1/1
f 332/1/4 333/1/4 365/1/4 366/1/4
f 349/1/6 366/1/6 365/1/6 348/1/6
f 314/1/2 352/1/2 367/1/2 335/1/2
f 312/1/1 334/1/1 368/1/1 353/1/1
f 334/1/4 335/1/4 367/1/4 368/1/4
f 353/1/6 368/1/6 367/1/6 352/1/6
f 320/1/2 356/1/2 369/1/2 338/1/2
f 318/1/1 337/1/1 370/1/1 357/1/1
f 337/1/4 338/1/4 369/1/4 370/1/4
f 357/1/6 370/1/6 369/1/6 356/1/6
f 327/1/2 360/1/2 371/1/2 341/1/2
f 324/1/1 340/1/1 372/1/1 361/1/1
f 340/1/4 341/1/4 371/1/4 372/1/4
f 361/1/6 372/1/6 371/1/6 360/1/6
