mtllib Aliso_Juan_Pablo_Yalta_Badillo_fase_2.mtl
o Aliso_Juan_Pablo_Yalta_Badillo_fase_2
v -1.0000 -2.0000 4.0000
v -1.0000 -2.0000 3.0000
v 0.0000 -2.0000 3.0000
v 0.0000 -2.0000 4.0000
v 0.0000 -1.0000 4.0000
v -1.0000 -1.0000 4.0000
v -1.0000 -1.0000 3.0000
v -1.0000 0.0000 4.0000
v 0.0000 0.0000 4.0000
v 0.0000 0.0000 3.0000
v -1.0000 0.0000 3.0000
v 0.0000 -1.0000 3.0000
v -1.0000 -3.0000 3.0000
v -1.0000 -3.0000 2.0000
v 0.0000 -3.0000 2.0000
v 0.0000 -3.0000 3.0000
v -1.0000 -2.0000 2.0000
v 0.0000 -2.0000 2.0000
v 0.0000 -1.0000 2.0000
v -1.0000 -1.0000 2.0000
v -1.0000 1.0000 3.0000
v -1.0000 1.0000 2.0000
v 0.0000 1.0000 2.0000
v 0.0000 1.0000 3.0000
v 0.0000 2.0000 3.0000
v -1.0000 2.0000 3.0000
v -1.0000 2.0000 2.0000
v 0.0000 2.0000 2.0000
v -1.0000 3.0000 3.0000
v 0.0000 3.0000 3.0000
v 0.0000 3.0000 2.0000
v -1.0000 3.0000 2.0000
v -1.0000 -3.0000 1.0000
v -1.0000 -3.0000 -0.0000
v 0.0000 -3.0000 -0.0000
v 0.0000 -3.0000 1.0000
v 0.0000 -2.0000 1.0000
v -1.0000 -2.0000 1.0000
v -1.0000 -2.0000 -0.0000
v 0.0000 -1.0000 1.0000
v -1.0000 -1.0000 1.0000
v -1.0000 -1.0000 -0.0000
v 0.0000 0.0000 1.0000
v -1.0000 0.0000 1.0000
v -1.0000 0.0000 -0.0000
v 0.0000 0.0000 -0.0000
v 0.0000 -1.0000 -0.0000
v 0.0000 1.0000 1.0000
v -1.0000 1.0000 1.0000
v -1.0000 1.0000 -0.0000
v -1.0000 2.0000 1.0000
v 0.0000 2.0000 1.0000
v 0.0000 2.0000 -0.0000
v -1.0000 2.0000 -0.0000
v -1.0000 4.0000 1.0000
v 0.0000 4.0000 1.0000
v 0.0000 4.0000 -0.0000
v -1.0000 4.0000 -0.0000
v -1.0000 3.0000 1.0000
v -1.0000 3.0000 -0.0000
v 0.0000 3.0000 -0.0000
v 0.0000 3.0000 1.0000
v -1.0000 -3.0000 -1.0000
v 0.0000 -3.0000 -1.0000
v -1.0000 -2.0000 -1.0000
v 0.0000 -1.0000 -1.0000
v -1.0000 -1.0000 -1.0000
v 0.0000 -2.0000 -1.0000
v -1.0000 0.0000 -1.0000
v 0.0000 0.0000 -1.0000
v -1.0000 1.0000 -1.0000
v 0.0000 1.0000 -1.0000
v 0.0000 2.0000 -1.0000
v -1.0000 2.0000 -1.0000
v 0.0000 -2.0000 -2.0000
v -1.0000 -2.0000 -2.0000
v -1.0000 -3.0000 -2.0000
v 0.0000 -3.0000 -2.0000
v -1.0000 -3.0000 -3.0000
v 0.0000 -3.0000 -3.0000
v -1.0000 -2.0000 -3.0000
v 0.0000 -2.0000 -3.0000
v 0.0000 -1.0000 -2.0000
v -1.0000 -1.0000 -2.0000
v -1.0000 -1.0000 -3.0000
v 0.0000 -1.0000 -3.0000
v -1.0000 0.0000 -2.0000
v 0.0000 0.0000 -2.0000
v 0.0000 0.0000 -3.0000
v -1.0000 0.0000 -3.0000
v -1.0000 2.0000 -2.0000
v 0.0000 2.0000 -2.0000
v 0.0000 2.0000 -3.0000
v -1.0000 2.0000 -3.0000
v -1.0000 1.0000 -2.0000
v -1.0000 1.0000 -3.0000
v 0.0000 1.0000 -3.0000
v 0.0000 1.0000 -2.0000
v 0.0000 0.0000 -4.0000
v -1.0000 0.0000 -4.0000
v -1.0000 -1.0000 -4.0000
v 0.0000 -1.0000 -4.0000
v 1.0000 -2.0000 3.0000
v 1.0000 -2.0000 4.0000
v 1.0000 -1.0000 4.0000
v 1.0000 -1.0000 3.0000
v 1.0000 0.0000 4.0000
v 1.0000 0.0000 3.0000
v 0.0000 3.0000 4.0000
v 1.0000 3.0000 4.0000
v 1.0000 3.0000 3.0000
v 0.0000 2.0000 4.0000
v 1.0000 2.0000 3.0000
v 1.0000 2.0000 4.0000
v 1.0000 -3.0000 2.0000
v 1.0000 -3.0000 3.0000
v 1.0000 -2.0000 2.0000
v 1.0000 -1.0000 2.0000
v 1.0000 1.0000 2.0000
v 1.0000 1.0000 3.0000
v 1.0000 2.0000 2.0000
v 1.0000 3.0000 2.0000
v 1.0000 -3.0000 1.0000
v 1.0000 -1.0000 1.0000
v 1.0000 -2.0000 1.0000
v 1.0000 2.0000 1.0000
v 1.0000 1.0000 1.0000
v 0.0000 4.0000 2.0000
v 1.0000 4.0000 2.0000
v 1.0000 4.0000 1.0000
v 1.0000 3.0000 1.0000
v 0.0000 -4.0000 1.0000
v 0.0000 -4.0000 -0.0000
v 1.0000 -4.0000 -0.0000
v 1.0000 -4.0000 1.0000
v 1.0000 -3.0000 -0.0000
v 1.0000 -2.0000 -0.0000
v 1.0000 -1.0000 -0.0000
v 1.0000 0.0000 1.0000
v 1.0000 0.0000 -0.0000
v 1.0000 1.0000 -0.0000
v 1.0000 4.0000 -0.0000
v 1.0000 3.0000 -0.0000
v 0.0000 -4.0000 -1.0000
v 1.0000 -4.0000 -1.0000
v 1.0000 -3.0000 -1.0000
v 1.0000 -2.0000 -1.0000
v 1.0000 0.0000 -1.0000
v 1.0000 -1.0000 -1.0000
v 1.0000 1.0000 -1.0000
v 0.0000 3.0000 -1.0000
v 1.0000 3.0000 -1.0000
v 1.0000 2.0000 -1.0000
v 1.0000 2.0000 -0.0000
v 1.0000 4.0000 -1.0000
v 0.0000 4.0000 -1.0000
v 1.0000 -3.0000 -2.0000
v 1.0000 -1.0000 -2.0000
v 1.0000 -2.0000 -2.0000
v 1.0000 2.0000 -2.0000
v 1.0000 1.0000 -2.0000
v 1.0000 -3.0000 -3.0000
v 1.0000 -2.0000 -3.0000
v 1.0000 0.0000 -2.0000
v 1.0000 0.0000 -3.0000
v 1.0000 -1.0000 -3.0000
v 1.0000 1.0000 -3.0000
v 1.0000 2.0000 -3.0000
v 0.0000 3.0000 -2.0000
v 1.0000 3.0000 -2.0000
v 1.0000 3.0000 -3.0000
v 0.0000 3.0000 -3.0000
v 0.0000 -3.0000 -4.0000
v 1.0000 -3.0000 -4.0000
v 0.0000 -2.0000 -4.0000
v 1.0000 -2.0000 -4.0000
v 1.0000 -1.0000 -4.0000
v 1.0000 0.0000 -4.0000
v 2.0000 -1.0000 3.0000
v 2.0000 -1.0000 2.0000
v 2.0000 -2.0000 2.0000
v 2.0000 -2.0000 3.0000
v 2.0000 3.0000 3.0000
v 2.0000 3.0000 2.0000
v 2.0000 2.0000 2.0000
v 2.0000 2.0000 3.0000
v 2.0000 -2.0000 1.0000
v 2.0000 -3.0000 1.0000
v 2.0000 -3.0000 2.0000
v 2.0000 2.0000 1.0000
v 2.0000 1.0000 1.0000
v 2.0000 1.0000 2.0000
v 2.0000 4.0000 2.0000
v 2.0000 4.0000 1.0000
v 2.0000 3.0000 1.0000
v 2.0000 0.0000 1.0000
v 2.0000 0.0000 -0.0000
v 2.0000 -1.0000 -0.0000
v 2.0000 -1.0000 1.0000
v 2.0000 1.0000 -0.0000
v 2.0000 2.0000 -0.0000
v 2.0000 3.0000 -0.0000
v 2.0000 -1.0000 -1.0000
v 2.0000 -2.0000 -1.0000
v 2.0000 -2.0000 -0.0000
v 2.0000 0.0000 -1.0000
v 2.0000 1.0000 -1.0000
v 2.0000 2.0000 -1.0000
v 2.0000 4.0000 -0.0000
v 2.0000 4.0000 -1.0000
v 2.0000 3.0000 -1.0000
v 2.0000 -2.0000 -2.0000
v 2.0000 -3.0000 -2.0000
v 2.0000 -3.0000 -1.0000
v 2.0000 -1.0000 -2.0000
v 2.0000 -1.0000 -3.0000
v 2.0000 -2.0000 -3.0000
v 2.0000 1.0000 -3.0000
v 2.0000 1.0000 -2.0000
v 2.0000 2.0000 -2.0000
v 2.0000 2.0000 -3.0000
v 2.0000 3.0000 -2.0000
v 2.0000 3.0000 -3.0000
v 2.0000 -2.0000 -4.0000
v 2.0000 -1.0000 -4.0000
v 2.0000 0.0000 -3.0000
v 2.0000 0.0000 -4.0000
v 3.0000 2.0000 -0.0000
v 3.0000 2.0000 -1.0000
v 3.0000 1.0000 -1.0000
v 3.0000 1.0000 -0.0000
vt 0.001953 0.500000
vt 0.005859 0.500000
vt 0.009766 0.500000
vt 0.013672 0.500000
vn 0.0 -1.0 0.0
vn 0.0 1.0 0.0
vn 0.0 0.0 1.0
vn 0.0 0.0 -1.0
vn -1.0 0.0 0.0
vn 1.0 0.0 0.0
usemtl mat_Aliso_Juan_Pablo_Yalta_Badillo_fase_2
s off
f 1/1/1 2/1/1 3/1/1 4/1/1
f 1/1/3 4/1/3 5/1/3 6/1/3
f 1/1/5 6/1/5 7/1/5 2/1/5
f 8/2/2 9/2/2 10/2/2 11/2/2
f 6/2/3 5/2/3 9/2/3 8/2/3
f 7/2/4 11/2/4 10/2/4 12/2/4
f 6/2/5 8/2/5 11/2/5 7/2/5
f 13/2/1 14/2/1 15/2/1 16/2/1
f 13/2/3 16/2/3 3/2/3 2/2/3
f 14/2/4 17/2/4 18/2/4 15/2/4
f 13/2/5 2/2/5 17/2/5 14/2/5
f 7/1/2 12/1/2 19/1/2 20/1/2
f 17/1/4 20/1/4 19/1/4 18/1/4
f 2/1/5 7/1/5 20/1/5 17/1/5
f 21/3/1 22/3/1 23/3/1 24/3/1
f 21/3/3 24/3/3 25/3/3 26/3/3
f 22/3/4 27/3/4 28/3/4 23/3/4
f 21/3/5 26/3/5 27/3/5 22/3/5
f 29/2/2 30/2/2 31/2/2 32/2/2
f 26/2/3 25/2/3 30/2/3 29/2/3
f 27/2/4 32/2/4 31/2/4 28/2/4
f 26/2/5 29/2/5 32/2/5 27/2/5
f 33/3/1 34/3/1 35/3/1 36/3/1
f 33/3/3 36/3/3 37/3/3 38/3/3
f 33/3/5 38/3/5 39/3/5 34/3/5
f 38/2/3 37/2/3 40/2/3 41/2/3
f 38/2/5 41/2/5 42/2/5 39/2/5
f 41/2/3 40/2/3 43/2/3 44/2/3
f 42/2/4 45/2/4 46/2/4 47/2/4
f 41/2/5 44/2/5 45/2/5 42/2/5
f 44/3/3 43/3/3 48/3/3 49/3/3
f 44/3/5 49/3/5 50/3/5 45/3/5
f 51/2/2 52/2/2 53/2/2 54/2/2
f 49/2/3 48/2/3 52/2/3 51/2/3
f 49/2/5 51/2/5 54/2/5 50/2/5
f 55/1/2 56/1/2 57/1/2 58/1/2
f 59/1/1 60/1/1 61/1/1 62/1/1
f 59/1/3 62/1/3 56/1/3 55/1/3
f 60/1/4 58/1/4 57/1/4 61/1/4
f 59/1/5 55/1/5 58/1/5 60/1/5
f 34/3/1 63/3/1 64/3/1 35/3/1
f 34/3/5 39/3/5 65/3/5 63/3/5
f 42/1/2 47/1/2 66/1/2 67/1/2
f 65/1/4 67/1/4 66/1/4 68/1/4
f 39/1/5 42/1/5 67/1/5 65/1/5
f 45/1/1 69/1/1 70/1/1 46/1/1
f 69/1/4 71/1/4 72/1/4 70/1/4
f 45/1/5 50/1/5 71/1/5 69/1/5
f 54/3/2 53/3/2 73/3/2 74/3/2
f 71/3/4 74/3/4 73/3/4 72/3/4
f 50/3/5 54/3/5 74/3/5 71/3/5
f 65/1/2 68/1/2 75/1/2 76/1/2
f 63/1/1 77/1/1 78/1/1 64/1/1
f 63/1/5 65/1/5 76/1/5 77/1/5
f 77/2/1 79/2/1 80/2/1 78/2/1
f 79/2/4 81/2/4 82/2/4 80/2/4
f 77/2/5 76/2/5 81/2/5 79/2/5
f 76/3/3 75/3/3 83/3/3 84/3/3
f 81/3/4 85/3/4 86/3/4 82/3/4
f 76/3/5 84/3/5 85/3/5 81/3/5
f 87/1/2 88/1/2 89/1/2 90/1/2
f 84/1/3 83/1/3 88/1/3 87/1/3
f 84/1/5 87/1/5 90/1/5 85/1/5
f 91/2/2 92/2/2 93/2/2 94/2/2
f 95/2/1 96/2/1 97/2/1 98/2/1
f 95/2/3 98/2/3 92/2/3 91/2/3
f 96/2/4 94/2/4 93/2/4 97/2/4
f 95/2/5 91/2/5 94/2/5 96/2/5
f 90/2/2 89/2/2 99/2/2 100/2/2
f 85/2/1 101/2/1 102/2/1 86/2/1
f 101/2/4 100/2/4 99/2/4 102/2/4
f 85/2/5 90/2/5 100/2/5 101/2/5
f 4/4/1 3/4/1 103/4/1 104/4/1
f 4/4/3 104/4/3 105/4/3 5/4/3
f 104/4/6 103/4/6 106/4/6 105/4/6
f 9/4/2 107/4/2 108/4/2 10/4/2
f 5/4/3 105/4/3 107/4/3 9/4/3
f 12/4/4 10/4/4 108/4/4 106/4/4
f 105/4/6 106/4/6 108/4/6 107/4/6
f 109/2/2 110/2/2 111/2/2 30/2/2
f 112/2/1 25/2/1 113/2/1 114/2/1
f 112/2/3 114/2/3 110/2/3 109/2/3
f 114/2/6 113/2/6 111/2/6 110/2/6
f 112/2/5 109/2/5 30/2/5 25/2/5
f 16/4/1 15/4/1 115/4/1 116/4/1
f 16/4/3 116/4/3 103/4/3 3/4/3
f 116/4/6 115/4/6 117/4/6 103/4/6
f 12/4/2 106/4/2 118/4/2 19/4/2
f 24/4/1 23/4/1 119/4/1 120/4/1
f 24/4/3 120/4/3 113/4/3 25/4/3
f 120/4/6 119/4/6 121/4/6 113/4/6
f 30/4/2 111/4/2 122/4/2 31/4/2
f 28/4/4 31/4/4 122/4/4 121/4/4
f 15/4/1 36/4/1 123/4/1 115/4/1
f 15/4/5 18/4/5 37/4/5 36/4/5
f 19/2/2 118/2/2 124/2/2 40/2/2
f 117/2/6 125/2/6 124/2/6 118/2/6
f 18/2/5 19/2/5 40/2/5 37/2/5
f 28/4/2 121/4/2 126/4/2 52/4/2
f 23/4/1 48/4/1 127/4/1 119/4/1
f 23/4/5 28/4/5 52/4/5 48/4/5
f 128/2/2 129/2/2 130/2/2 56/2/2
f 31/2/1 62/2/1 131/2/1 122/2/1
f 31/2/3 122/2/3 129/2/3 128/2/3
f 31/2/5 128/2/5 56/2/5 62/2/5
f 132/4/1 133/4/1 134/4/1 135/4/1
f 132/4/3 135/4/3 123/4/3 36/4/3
f 135/4/6 134/4/6 136/4/6 123/4/6
f 132/4/5 36/4/5 35/4/5 133/4/5
f 123/4/6 136/4/6 137/4/6 125/4/6
f 125/4/6 137/4/6 138/4/6 124/4/6
f 40/4/3 124/4/3 139/4/3 43/4/3
f 43/3/3 139/3/3 127/3/3 48/3/3
f 139/3/6 140/3/6 141/3/6 127/3/6
f 52/4/3 126/4/3 131/4/3 62/4/3
f 52/4/5 62/4/5 61/4/5 53/4/5
f 56/4/2 130/4/2 142/4/2 57/4/2
f 131/4/6 143/4/6 142/4/6 130/4/6
f 133/4/1 144/4/1 145/4/1 134/4/1
f 144/4/4 64/4/4 146/4/4 145/4/4
f 134/4/6 145/4/6 146/4/6 136/4/6
f 133/4/5 35/4/5 64/4/5 144/4/5
f 136/4/6 146/4/6 147/4/6 137/4/6
f 66/3/4 70/3/4 148/3/4 149/3/4
f 138/3/6 149/3/6 148/3/6 140/3/6
f 47/3/5 46/3/5 70/3/5 66/3/5
f 70/4/4 72/4/4 150/4/4 148/4/4
f 73/4/4 151/4/4 152/4/4 153/4/4
f 154/4/6 153/4/6 152/4/6 143/4/6
f 53/4/5 61/4/5 151/4/5 73/4/5
f 57/4/2 142/4/2 155/4/2 156/4/2
f 151/4/4 156/4/4 155/4/4 152/4/4
f 61/4/5 57/4/5 156/4/5 151/4/5
f 64/4/1 78/4/1 157/4/1 146/4/1
f 66/2/2 149/2/2 158/2/2 83/2/2
f 147/2/6 159/2/6 158/2/6 149/2/6
f 68/2/5 66/2/5 83/2/5 75/2/5
f 73/4/2 153/4/2 160/4/2 92/4/2
f 72/4/1 98/4/1 161/4/1 150/4/1
f 150/4/6 161/4/6 160/4/6 153/4/6
f 72/4/5 73/4/5 92/4/5 98/4/5
f 78/4/1 80/4/1 162/4/1 157/4/1
f 157/4/6 162/4/6 163/4/6 159/4/6
f 88/2/2 164/2/2 165/2/2 89/2/2
f 83/2/3 158/2/3 164/2/3 88/2/3
f 158/2/6 166/2/6 165/2/6 164/2/6
f 98/4/1 97/4/1 167/4/1 161/4/1
f 97/4/4 93/4/4 168/4/4 167/4/4
f 169/4/2 170/4/2 171/4/2 172/4/2
f 92/4/3 160/4/3 170/4/3 169/4/3
f 93/4/4 172/4/4 171/4/4 168/4/4
f 92/4/5 169/4/5 172/4/5 93/4/5
f 80/2/1 173/2/1 174/2/1 162/2/1
f 173/2/4 175/2/4 176/2/4 174/2/4
f 162/2/6 174/2/6 176/2/6 163/2/6
f 80/2/5 82/2/5 175/2/5 173/2/5
f 175/4/4 102/4/4 177/4/4 176/4/4
f 82/4/5 86/4/5 102/4/5 175/4/5
f 89/4/2 165/4/2 178/4/2 99/4/2
f 102/4/4 99/4/4 178/4/4 177/4/4
f 106/3/2 179/3/2 180/3/2 118/3/2
f 103/3/1 117/3/1 181/3/1 182/3/1
f 103/3/3 182/3/3 179/3/3 106/3/3
f 117/3/4 118/3/4 180/3/4 181/3/4
f 182/3/6 181/3/6 180/3/6 179/3/6
f 111/3/2 183/3/2 184/3/2 122/3/2
f 113/3/1 121/3/1 185/3/1 186/3/1
f 113/3/3 186/3/3 183/3/3 111/3/3
f 121/3/4 122/3/4 184/3/4 185/3/4
f 186/3/6 185/3/6 184/3/6 183/3/6
f 117/3/2 181/3/2 187/3/2 125/3/2
f 115/3/1 123/3/1 188/3/1 189/3/1
f 115/3/3 189/3/3 181/3/3 117/3/3
f 123/3/4 125/3/4 187/3/4 188/3/4
f 189/3/6 188/3/6 187/3/6 181/3/6
f 121/1/2 185/1/2 190/1/2 126/1/2
f 119/1/1 127/1/1 191/1/1 192/1/1
f 119/1/3 192/1/3 185/1/3 121/1/3
f 192/1/6 191/1/6 190/1/6 185/1/6
f 129/3/2 193/3/2 194/3/2 130/3/2
f 122/3/1 131/3/1 195/3/1 184/3/1
f 122/3/3 184/3/3 193/3/3 129/3/3
f 131/3/4 130/3/4 194/3/4 195/3/4
f 184/3/6 195/3/6 194/3/6 193/3/6
f 139/3/2 196/3/2 197/3/2 140/3/2
f 124/3/1 138/3/1 198/3/1 199/3/1
f 124/3/3 199/3/3 196/3/3 139/3/3
f 138/3/4 140/3/4 197/3/4 198/3/4
f 199/3/6 198/3/6 197/3/6 196/3/6
f 127/3/1 141/3/1 200/3/1 191/3/1
f 191/3/6 200/3/6 201/3/6 190/3/6
f 131/2/2 195/2/2 202/2/2 143/2/2
f 126/2/3 190/2/3 195/2/3 131/2/3
f 154/2/4 143/2/4 202/2/4 201/2/4
f 190/2/6 201/2/6 202/2/6 195/2/6
f 138/1/2 198/1/2 203/1/2 149/1/2
f 137/1/1 147/1/1 204/1/1 205/1/1
f 137/1/3 205/1/3 198/1/3 138/1/3
f 147/1/4 149/1/4 203/1/4 204/1/4
f 205/1/6 204/1/6 203/1/6 198/1/6
f 140/3/1 148/3/1 206/3/1 197/3/1
f 140/3/3 197/3/3 200/3/3 141/3/3
f 148/3/4 150/3/4 207/3/4 206/3/4
f 197/3/6 206/3/6 207/3/6 200/3/6
f 154/2/2 201/2/2 208/2/2 153/2/2
f 150/2/4 153/2/4 208/2/4 207/2/4
f 142/1/2 209/1/2 210/1/2 155/1/2
f 143/1/1 152/1/1 211/1/1 202/1/1
f 143/1/3 202/1/3 209/1/3 142/1/3
f 152/1/4 155/1/4 210/1/4 211/1/4
f 202/1/6 211/1/6 210/1/6 209/1/6
f 147/2/2 204/2/2 212/2/2 159/2/2
f 146/2/1 157/2/1 213/2/1 214/2/1
f 146/2/3 214/2/3 204/2/3 147/2/3
f 157/2/4 159/2/4 212/2/4 213/2/4
f 214/2/6 213/2/6 212/2/6 204/2/6
f 158/2/2 215/2/2 216/2/2 166/2/2
f 159/2/1 163/2/1 217/2/1 212/2/1
f 159/2/3 212/2/3 215/2/3 158/2/3
f 212/2/6 217/2/6 216/2/6 215/2/6
f 161/2/1 167/2/1 218/2/1 219/2/1
f 161/2/3 219/2/3 220/2/3 160/2/3
f 167/2/4 168/2/4 221/2/4 218/2/4
f 219/2/6 218/2/6 221/2/6 220/2/6
f 170/3/2 222/3/2 223/3/2 171/3/2
f 160/3/3 220/3/3 222/3/3 170/3/3
f 168/3/4 171/3/4 223/3/4 221/3/4
f 220/3/6 221/3/6 223/3/6 222/3/6
f 163/2/1 176/2/1 224/2/1 217/2/1
f 176/2/4 177/2/4 225/2/4 224/2/4
f 217/2/6 224/2/6 225/2/6 216/2/6
f 165/3/2 226/3/2 227/3/2 178/3/2
f 166/3/3 216/3/3 226/3/3 165/3/3
f 177/3/4 178/3/4 227/3/4 225/3/4
f 216/3/6 225/3/6 227/3/6 226/3/6
f 201/3/2 228/3/2 229/3/2 208/3/2
f 200/3/1 207/3/1 230/3/1 231/3/1
f 200/3/3 231/3/3 228/3/3 201/3/3
f 207/3/4 208/3/4 229/3/4 230/3/4
f 231/3/6 230/3/6 229/3/6 228/3/6
