mtllib Cedro_Juan_Manuel_Lombana_Cárdenas_fase_2.mtl
o Cedro_Juan_Manuel_Lombana_Cárdenas_fase_2
v -5.0000 -1.0000 1.0000
v -4.0000 -1.0000 1.0000
v -4.0000 -1.0000 -0.0000
v -5.0000 -1.0000 -0.0000
v -5.0000 -2.0000 1.0000
v -5.0000 -2.0000 -0.0000
v -4.0000 -2.0000 -0.0000
v -4.0000 -2.0000 1.0000
v -4.0000 -1.0000 -1.0000
v -5.0000 -1.0000 -1.0000
v -5.0000 -2.0000 -1.0000
v -4.0000 -2.0000 -1.0000
v -4.0000 -1.0000 4.0000
v -3.0000 -1.0000 4.0000
v -3.0000 -1.0000 3.0000
v -4.0000 -1.0000 3.0000
v -4.0000 -2.0000 4.0000
v -4.0000 -2.0000 3.0000
v -3.0000 -2.0000 3.0000
v -3.0000 -2.0000 4.0000
v -3.0000 -1.0000 2.0000
v -4.0000 -1.0000 2.0000
v -4.0000 -2.0000 2.0000
v -3.0000 -2.0000 2.0000
v -3.0000 -1.0000 1.0000
v -3.0000 -2.0000 1.0000
v -3.0000 -2.0000 -0.0000
v -4.0000 0.0000 1.0000
v -3.0000 0.0000 1.0000
v -3.0000 0.0000 -0.0000
v -4.0000 0.0000 -0.0000
v -3.0000 -2.0000 -1.0000
v -3.0000 0.0000 -1.0000
v -4.0000 0.0000 -1.0000
v -3.0000 -1.0000 -1.0000
v -3.0000 -1.0000 -2.0000
v -4.0000 -1.0000 -2.0000
v -4.0000 -2.0000 -2.0000
v -3.0000 -2.0000 -2.0000
v -3.0000 -1.0000 -3.0000
v -4.0000 -1.0000 -3.0000
v -4.0000 -2.0000 -3.0000
v -3.0000 -2.0000 -3.0000
v -3.0000 -1.0000 -4.0000
v -4.0000 -1.0000 -4.0000
v -4.0000 -2.0000 -4.0000
v -3.0000 -2.0000 -4.0000
v -2.0000 -1.0000 4.0000
v -2.0000 -1.0000 3.0000
v -2.0000 -2.0000 3.0000
v -2.0000 -2.0000 4.0000
v -2.0000 -2.0000 2.0000
v -3.0000 0.0000 3.0000
v -2.0000 0.0000 3.0000
v -2.0000 0.0000 2.0000
v -3.0000 0.0000 2.0000
v -2.0000 -2.0000 1.0000
v -2.0000 0.0000 1.0000
v -2.0000 -2.0000 -0.0000
v -3.0000 1.0000 1.0000
v -2.0000 1.0000 1.0000
v -2.0000 1.0000 -0.0000
v -3.0000 1.0000 -0.0000
v -2.0000 -2.0000 -1.0000
v -2.0000 1.0000 -1.0000
v -3.0000 1.0000 -1.0000
v -2.0000 0.0000 -1.0000
v -2.0000 -2.0000 -2.0000
v -2.0000 0.0000 -2.0000
v -3.0000 0.0000 -2.0000
v -2.0000 -2.0000 -3.0000
v -2.0000 0.0000 -3.0000
v -3.0000 0.0000 -3.0000
v -2.0000 -1.0000 -3.0000
v -2.0000 -1.0000 -4.0000
v -2.0000 -2.0000 -4.0000
v -1.0000 -1.0000 4.0000
v -1.0000 -1.0000 3.0000
v -1.0000 -2.0000 3.0000
v -1.0000 -2.0000 4.0000
v -1.0000 -2.0000 2.0000
v -1.0000 0.0000 3.0000
v -1.0000 0.0000 2.0000
v -1.0000 -2.0000 1.0000
v -2.0000 1.0000 2.0000
v -1.0000 1.0000 2.0000
v -1.0000 1.0000 1.0000
v -1.0000 -2.0000 -0.0000
v -2.0000 2.0000 1.0000
v -1.0000 2.0000 1.0000
v -1.0000 2.0000 -0.0000
v -2.0000 2.0000 -0.0000
v -1.0000 -2.0000 -1.0000
v -1.0000 2.0000 -1.0000
v -2.0000 2.0000 -1.0000
v -1.0000 1.0000 -1.0000
v -1.0000 -2.0000 -2.0000
v -1.0000 1.0000 -2.0000
v -2.0000 1.0000 -2.0000
v -1.0000 0.0000 -2.0000
v -1.0000 -2.0000 -3.0000
v -1.0000 0.0000 -3.0000
v -1.0000 -1.0000 -3.0000
v -1.0000 -1.0000 -4.0000
v -1.0000 -2.0000 -4.0000
v -1.0000 -1.0000 5.0000
v 0.0000 -1.0000 5.0000
v 0.0000 -1.0000 4.0000
v -1.0000 -2.0000 5.0000
v 0.0000 -2.0000 4.0000
v 0.0000 -2.0000 5.0000
v 0.0000 -2.0000 3.0000
v -1.0000 0.0000 4.0000
v 0.0000 0.0000 4.0000
v 0.0000 0.0000 3.0000
v 0.0000 -2.0000 2.0000
v -1.0000 1.0000 3.0000
v 0.0000 1.0000 3.0000
v 0.0000 1.0000 2.0000
v 0.0000 -2.0000 1.0000
v -1.0000 2.0000 2.0000
v 0.0000 2.0000 2.0000
v 0.0000 2.0000 1.0000
v -1.0000 -4.0000 1.0000
v -1.0000 -4.0000 -0.0000
v 0.0000 -4.0000 -0.0000
v 0.0000 -4.0000 1.0000
v 0.0000 -3.0000 1.0000
v -1.0000 -3.0000 1.0000
v -1.0000 -3.0000 -0.0000
v -1.0000 3.0000 1.0000
v 0.0000 3.0000 1.0000
v 0.0000 3.0000 -0.0000
v -1.0000 3.0000 -0.0000
v -1.0000 -4.0000 -1.0000
v 0.0000 -4.0000 -1.0000
v -1.0000 -3.0000 -1.0000
v 0.0000 -3.0000 -1.0000
v 0.0000 -2.0000 -1.0000
v 0.0000 3.0000 -1.0000
v -1.0000 3.0000 -1.0000
v 0.0000 2.0000 -1.0000
v 0.0000 -2.0000 -2.0000
v 0.0000 2.0000 -2.0000
v -1.0000 2.0000 -2.0000
v 0.0000 1.0000 -2.0000
v 0.0000 -2.0000 -3.0000
v 0.0000 1.0000 -3.0000
v -1.0000 1.0000 -3.0000
v 0.0000 0.0000 -3.0000
v 0.0000 -2.0000 -4.0000
v 0.0000 0.0000 -4.0000
v -1.0000 0.0000 -4.0000
v 0.0000 -1.0000 -4.0000
v 0.0000 -1.0000 -5.0000
v -1.0000 -1.0000 -5.0000
v -1.0000 -2.0000 -5.0000
v 0.0000 -2.0000 -5.0000
v 1.0000 -1.0000 5.0000
v 1.0000 -1.0000 4.0000
v 1.0000 -2.0000 4.0000
v 1.0000 -2.0000 5.0000
v 1.0000 -2.0000 3.0000
v 1.0000 0.0000 4.0000
v 1.0000 0.0000 3.0000
v 1.0000 -1.0000 3.0000
v 1.0000 -2.0000 2.0000
v 1.0000 1.0000 3.0000
v 1.0000 1.0000 2.0000
v 1.0000 0.0000 2.0000
v 1.0000 -2.0000 1.0000
v 1.0000 2.0000 2.0000
v 1.0000 2.0000 1.0000
v 1.0000 1.0000 1.0000
v 1.0000 -4.0000 -0.0000
v 1.0000 -4.0000 1.0000
v 1.0000 -3.0000 1.0000
v 1.0000 -3.0000 -0.0000
v 1.0000 -2.0000 -0.0000
v 1.0000 3.0000 1.0000
v 1.0000 3.0000 -0.0000
v 1.0000 2.0000 -0.0000
v 1.0000 -4.0000 -1.0000
v 1.0000 -3.0000 -1.0000
v 1.0000 -2.0000 -1.0000
v 1.0000 3.0000 -1.0000
v 1.0000 2.0000 -1.0000
v 1.0000 -2.0000 -2.0000
v 1.0000 2.0000 -2.0000
v 1.0000 1.0000 -2.0000
v 1.0000 1.0000 -1.0000
v 1.0000 -2.0000 -3.0000
v 1.0000 1.0000 -3.0000
v 1.0000 0.0000 -3.0000
v 1.0000 0.0000 -2.0000
v 1.0000 -2.0000 -4.0000
v 1.0000 0.0000 -4.0000
v 1.0000 -1.0000 -4.0000
v 1.0000 -1.0000 -3.0000
v 1.0000 -1.0000 -5.0000
v 1.0000 -2.0000 -5.0000
v 2.0000 -1.0000 4.0000
v 2.0000 -1.0000 3.0000
v 2.0000 -2.0000 3.0000
v 2.0000 -2.0000 4.0000
v 2.0000 -2.0000 2.0000
v 2.0000 0.0000 3.0000
v 2.0000 0.0000 2.0000
v 2.0000 -2.0000 1.0000
v 2.0000 1.0000 2.0000
v 2.0000 1.0000 1.0000
v 2.0000 0.0000 1.0000
v 2.0000 -2.0000 -0.0000
v 2.0000 2.0000 1.0000
v 2.0000 2.0000 -0.0000
v 2.0000 1.0000 -0.0000
v 2.0000 -2.0000 -1.0000
v 2.0000 2.0000 -1.0000
v 2.0000 1.0000 -1.0000
v 2.0000 -2.0000 -2.0000
v 2.0000 1.0000 -2.0000
v 2.0000 0.0000 -2.0000
v 2.0000 0.0000 -1.0000
v 2.0000 -2.0000 -3.0000
v 2.0000 0.0000 -3.0000
v 2.0000 -1.0000 -3.0000
v 2.0000 -1.0000 -4.0000
v 2.0000 -2.0000 -4.0000
v 3.0000 -1.0000 4.0000
v 3.0000 -1.0000 3.0000
v 3.0000 -2.0000 3.0000
v 3.0000 -2.0000 4.0000
v 3.0000 -2.0000 2.0000
v 3.0000 0.0000 3.0000
v 3.0000 0.0000 2.0000
v 3.0000 -1.0000 2.0000
v 3.0000 -2.0000 1.0000
v 3.0000 0.0000 1.0000
v 3.0000 -1.0000 1.0000
v 3.0000 -2.0000 -0.0000
v 3.0000 1.0000 1.0000
v 3.0000 1.0000 -0.0000
v 3.0000 0.0000 -0.0000
v 3.0000 -2.0000 -1.0000
v 3.0000 1.0000 -1.0000
v 3.0000 0.0000 -1.0000
v 3.0000 -2.0000 -2.0000
v 3.0000 0.0000 -2.0000
v 3.0000 -1.0000 -1.0000
v 3.0000 -1.0000 -2.0000
v 3.0000 -2.0000 -3.0000
v 3.0000 0.0000 -3.0000
v 3.0000 -1.0000 -3.0000
v 3.0000 -1.0000 -4.0000
v 3.0000 -2.0000 -4.0000
v 4.0000 -1.0000 4.0000
v 4.0000 -1.0000 3.0000
v 4.0000 -2.0000 3.0000
v 4.0000 -2.0000 4.0000
v 4.0000 -1.0000 2.0000
v 4.0000 -2.0000 2.0000
v 4.0000 -1.0000 1.0000
v 4.0000 -2.0000 1.0000
v 4.0000 -2.0000 -0.0000
v 4.0000 0.0000 1.0000
v 4.0000 0.0000 -0.0000
v 4.0000 -1.0000 -0.0000
v 4.0000 -2.0000 -1.0000
v 4.0000 0.0000 -1.0000
v 4.0000 -1.0000 -1.0000
v 4.0000 -1.0000 -2.0000
v 4.0000 -2.0000 -2.0000
v 4.0000 -1.0000 -3.0000
v 4.0000 -2.0000 -3.0000
v 4.0000 -1.0000 -4.0000
v 4.0000 -2.0000 -4.0000
v 5.0000 -1.0000 1.0000
v 5.0000 -1.0000 -0.0000
v 5.0000 -2.0000 -0.0000
v 5.0000 -2.0000 1.0000
v 5.0000 -1.0000 -1.0000
v 5.0000 -2.0000 -1.0000
vt 0.001953 0.500000
vt 0.005859 0.500000
vt 0.009766 0.500000
vn 0.0 -1.0 0.0
vn 0.0 1.0 0.0
vn 0.0 0.0 1.0
vn 0.0 0.0 -1.0
vn -1.0 0.0 0.0
vn 1.0 0.0 0.0
usemtl mat_Cedro_Juan_Manuel_Lombana_Cárdenas_fase_2
s off
f 1/1/2 2/1/2 3/1/2 4/1/2
f 5/1/1 6/1/1 7/1/1 8/1/1
f 5/1/3 8/1/3 2/1/3 1/1/3
f 5/1/5 1/1/5 4/1/5 6/1/5
f 4/1/2 3/1/2 9/1/2 10/1/2
f 6/1/1 11/1/1 12/1/1 7/1/1
f 11/1/4 10/1/4 9/1/4 12/1/4
f 6/1/5 4/1/5 10/1/5 11/1/5
f 13/1/2 14/1/2 15/1/2 16/1/2
f 17/1/1 18/1/1 19/1/1 20/1/1
f 17/1/3 20/1/3 14/1/3 13/1/3
f 17/1/5 13/1/5 16/1/5 18/1/5
f 16/2/2 15/2/2 21/2/2 22/2/2
f 18/2/1 23/2/1 24/2/1 19/2/1
f 18/2/5 16/2/5 22/2/5 23/2/5
f 22/2/2 21/2/2 25/2/2 2/2/2
f 23/2/1 8/2/1 26/2/1 24/2/1
f 23/2/5 22/2/5 2/2/5 8/2/5
f 8/2/1 7/2/1 27/2/1 26/2/1
f 28/1/2 29/1/2 30/1/2 31/1/2
f 2/1/3 25/1/3 29/1/3 28/1/3
f 2/1/5 28/1/5 31/1/5 3/1/5
f 7/2/1 12/2/1 32/2/1 27/2/1
f 31/1/2 30/1/2 33/1/2 34/1/2
f 9/1/4 34/1/4 33/1/4 35/1/4
f 3/1/5 31/1/5 34/1/5 9/1/5
f 9/2/2 35/2/2 36/2/2 37/2/2
f 12/2/1 38/2/1 39/2/1 32/2/1
f 12/2/5 9/2/5 37/2/5 38/2/5
f 37/1/2 36/1/2 40/1/2 41/1/2
f 38/1/1 42/1/1 43/1/1 39/1/1
f 38/1/5 37/1/5 41/1/5 42/1/5
f 41/2/2 40/2/2 44/2/2 45/2/2
f 42/2/1 46/2/1 47/2/1 43/2/1
f 46/2/4 45/2/4 44/2/4 47/2/4
f 42/2/5 41/2/5 45/2/5 46/2/5
f 14/1/2 48/1/2 49/1/2 15/1/2
f 20/1/1 19/1/1 50/1/1 51/1/1
f 20/1/3 51/1/3 48/1/3 14/1/3
f 19/2/1 24/2/1 52/2/1 50/2/1
f 53/1/2 54/1/2 55/1/2 56/1/2
f 15/1/3 49/1/3 54/1/3 53/1/3
f 15/1/5 53/1/5 56/1/5 21/1/5
f 24/2/1 26/2/1 57/2/1 52/2/1
f 56/2/2 55/2/2 58/2/2 29/2/2
f 21/2/5 56/2/5 29/2/5 25/2/5
f 26/2/1 27/2/1 59/2/1 57/2/1
f 60/1/2 61/1/2 62/1/2 63/1/2
f 29/1/3 58/1/3 61/1/3 60/1/3
f 29/1/5 60/1/5 63/1/5 30/1/5
f 27/2/1 32/2/1 64/2/1 59/2/1
f 63/2/2 62/2/2 65/2/2 66/2/2
f 33/2/4 66/2/4 65/2/4 67/2/4
f 30/2/5 63/2/5 66/2/5 33/2/5
f 32/2/1 39/2/1 68/2/1 64/2/1
f 33/2/2 67/2/2 69/2/2 70/2/2
f 35/2/5 33/2/5 70/2/5 36/2/5
f 39/2/1 43/2/1 71/2/1 68/2/1
f 70/1/2 69/1/2 72/1/2 73/1/2
f 40/1/4 73/1/4 72/1/4 74/1/4
f 36/1/5 70/1/5 73/1/5 40/1/5
f 40/1/2 74/1/2 75/1/2 44/1/2
f 43/1/1 47/1/1 76/1/1 71/1/1
f 47/1/4 44/1/4 75/1/4 76/1/4
f 48/1/2 77/1/2 78/1/2 49/1/2
f 51/1/1 50/1/1 79/1/1 80/1/1
f 51/1/3 80/1/3 77/1/3 48/1/3
f 50/2/1 52/2/1 81/2/1 79/2/1
f 54/1/2 82/1/2 83/1/2 55/1/2
f 49/1/3 78/1/3 82/1/3 54/1/3
f 52/2/1 57/2/1 84/2/1 81/2/1
f 85/1/2 86/1/2 87/1/2 61/1/2
f 55/1/3 83/1/3 86/1/3 85/1/3
f 55/1/5 85/1/5 61/1/5 58/1/5
f 57/2/1 59/2/1 88/2/1 84/2/1
f 89/1/2 90/1/2 91/1/2 92/1/2
f 61/1/3 87/1/3 90/1/3 89/1/3
f 61/1/5 89/1/5 92/1/5 62/1/5
f 59/2/1 64/2/1 93/2/1 88/2/1
f 92/1/2 91/1/2 94/1/2 95/1/2
f 65/1/4 95/1/4 94/1/4 96/1/4
f 62/1/5 92/1/5 95/1/5 65/1/5
f 64/2/1 68/2/1 97/2/1 93/2/1
f 65/1/2 96/1/2 98/1/2 99/1/2
f 69/1/4 99/1/4 98/1/4 100/1/4
f 67/1/5 65/1/5 99/1/5 69/1/5
f 68/2/1 71/2/1 101/2/1 97/2/1
f 69/1/2 100/1/2 102/1/2 72/1/2
f 74/1/4 72/1/4 102/1/4 103/1/4
f 74/2/2 103/2/2 104/2/2 75/2/2
f 71/2/1 76/2/1 105/2/1 101/2/1
f 76/2/4 75/2/4 104/2/4 105/2/4
f 106/1/2 107/1/2 108/1/2 77/1/2
f 109/1/1 80/1/1 110/1/1 111/1/1
f 109/1/3 111/1/3 107/1/3 106/1/3
f 109/1/5 106/1/5 77/1/5 80/1/5
f 80/2/1 79/2/1 112/2/1 110/2/1
f 113/1/2 114/1/2 115/1/2 82/1/2
f 77/1/3 108/1/3 114/1/3 113/1/3
f 77/1/5 113/1/5 82/1/5 78/1/5
f 79/2/1 81/2/1 116/2/1 112/2/1
f 117/1/2 118/1/2 119/1/2 86/1/2
f 82/1/3 115/1/3 118/1/3 117/1/3
f 82/1/5 117/1/5 86/1/5 83/1/5
f 81/2/1 84/2/1 120/2/1 116/2/1
f 121/1/2 122/1/2 123/1/2 90/1/2
f 86/1/3 119/1/3 122/1/3 121/1/3
f 86/1/5 121/1/5 90/1/5 87/1/5
f 124/3/1 125/3/1 126/3/1 127/3/1
f 124/3/3 127/3/3 128/3/3 129/3/3
f 124/3/5 129/3/5 130/3/5 125/3/5
f 129/3/3 128/3/3 120/3/3 84/3/3
f 129/3/5 84/3/5 88/3/5 130/3/5
f 131/1/2 132/1/2 133/1/2 134/1/2
f 90/1/3 123/1/3 132/1/3 131/1/3
f 90/1/5 131/1/5 134/1/5 91/1/5
f 125/3/1 135/3/1 136/3/1 126/3/1
f 135/3/4 137/3/4 138/3/4 136/3/4
f 125/3/5 130/3/5 137/3/5 135/3/5
f 137/3/4 93/3/4 139/3/4 138/3/4
f 130/3/5 88/3/5 93/3/5 137/3/5
f 134/1/2 133/1/2 140/1/2 141/1/2
f 94/1/4 141/1/4 140/1/4 142/1/4
f 91/1/5 134/1/5 141/1/5 94/1/5
f 93/2/1 97/2/1 143/2/1 139/2/1
f 94/1/2 142/1/2 144/1/2 145/1/2
f 98/1/4 145/1/4 144/1/4 146/1/4
f 96/1/5 94/1/5 145/1/5 98/1/5
f 97/2/1 101/2/1 147/2/1 143/2/1
f 98/1/2 146/1/2 148/1/2 149/1/2
f 102/1/4 149/1/4 148/1/4 150/1/4
f 100/1/5 98/1/5 149/1/5 102/1/5
f 101/2/1 105/2/1 151/2/1 147/2/1
f 102/1/2 150/1/2 152/1/2 153/1/2
f 104/1/4 153/1/4 152/1/4 154/1/4
f 103/1/5 102/1/5 153/1/5 104/1/5
f 104/1/2 154/1/2 155/1/2 156/1/2
f 105/1/1 157/1/1 158/1/1 151/1/1
f 157/1/4 156/1/4 155/1/4 158/1/4
f 105/1/5 104/1/5 156/1/5 157/1/5
f 107/1/2 159/1/2 160/1/2 108/1/2
f 111/1/1 110/1/1 161/1/1 162/1/1
f 111/1/3 162/1/3 159/1/3 107/1/3
f 162/1/6 161/1/6 160/1/6 159/1/6
f 110/2/1 112/2/1 163/2/1 161/2/1
f 114/1/2 164/1/2 165/1/2 115/1/2
f 108/1/3 160/1/3 164/1/3 114/1/3
f 160/1/6 166/1/6 165/1/6 164/1/6
f 112/2/1 116/2/1 167/2/1 163/2/1
f 118/1/2 168/1/2 169/1/2 119/1/2
f 115/1/3 165/1/3 168/1/3 118/1/3
f 165/1/6 170/1/6 169/1/6 168/1/6
f 116/2/1 120/2/1 171/2/1 167/2/1
f 122/1/2 172/1/2 173/1/2 123/1/2
f 119/1/3 169/1/3 172/1/3 122/1/3
f 169/1/6 174/1/6 173/1/6 172/1/6
f 127/3/1 126/3/1 175/3/1 176/3/1
f 127/3/3 176/3/3 177/3/3 128/3/3
f 176/3/6 175/3/6 178/3/6 177/3/6
f 128/3/3 177/3/3 171/3/3 120/3/3
f 177/3/6 178/3/6 179/3/6 171/3/6
f 132/2/2 180/2/2 181/2/2 133/2/2
f 123/2/3 173/2/3 180/2/3 132/2/3
f 173/2/6 182/2/6 181/2/6 180/2/6
f 126/3/1 136/3/1 183/3/1 175/3/1
f 136/3/4 138/3/4 184/3/4 183/3/4
f 175/3/6 183/3/6 184/3/6 178/3/6
f 138/3/4 139/3/4 185/3/4 184/3/4
f 178/3/6 184/3/6 185/3/6 179/3/6
f 133/2/2 181/2/2 186/2/2 140/2/2
f 142/2/4 140/2/4 186/2/4 187/2/4
f 182/2/6 187/2/6 186/2/6 181/2/6
f 139/2/1 143/2/1 188/2/1 185/2/1
f 142/2/2 187/2/2 189/2/2 144/2/2
f 146/2/4 144/2/4 189/2/4 190/2/4
f 191/2/6 190/2/6 189/2/6 187/2/6
f 143/2/1 147/2/1 192/2/1 188/2/1
f 146/2/2 190/2/2 193/2/2 148/2/2
f 150/2/4 148/2/4 193/2/4 194/2/4
f 195/2/6 194/2/6 193/2/6 190/2/6
f 147/2/1 151/2/1 196/2/1 192/2/1
f 150/1/2 194/1/2 197/1/2 152/1/2
f 154/1/4 152/1/4 197/1/4 198/1/4
f 199/1/6 198/1/6 197/1/6 194/1/6
f 154/1/2 198/1/2 200/1/2 155/1/2
f 151/1/1 158/1/1 201/1/1 196/1/1
f 158/1/4 155/1/4 200/1/4 201/1/4
f 196/1/6 201/1/6 200/1/6 198/1/6
f 160/1/2 202/1/2 203/1/2 166/1/2
f 161/1/1 163/1/1 204/1/1 205/1/1
f 161/1/3 205/1/3 202/1/3 160/1/3
f 163/2/1 167/2/1 206/2/1 204/2/1
f 165/1/2 207/1/2 208/1/2 170/1/2
f 166/1/3 203/1/3 207/1/3 165/1/3
f 167/2/1 171/2/1 209/2/1 206/2/1
f 169/1/2 210/1/2 211/1/2 174/1/2
f 170/1/3 208/1/3 210/1/3 169/1/3
f 208/1/6 212/1/6 211/1/6 210/1/6
f 171/2/1 179/2/1 213/2/1 209/2/1
f 173/2/2 214/2/2 215/2/2 182/2/2
f 174/2/3 211/2/3 214/2/3 173/2/3
f 211/2/6 216/2/6 215/2/6 214/2/6
f 179/2/1 185/2/1 217/2/1 213/2/1
f 182/2/2 215/2/2 218/2/2 187/2/2
f 191/2/4 187/2/4 218/2/4 219/2/4
f 216/2/6 219/2/6 218/2/6 215/2/6
f 185/2/1 188/2/1 220/2/1 217/2/1
f 191/2/2 219/2/2 221/2/2 190/2/2
f 195/2/4 190/2/4 221/2/4 222/2/4
f 223/2/6 222/2/6 221/2/6 219/2/6
f 188/2/1 192/2/1 224/2/1 220/2/1
f 195/2/2 222/2/2 225/2/2 194/2/2
f 199/2/4 194/2/4 225/2/4 226/2/4
f 199/2/2 226/2/2 227/2/2 198/2/2
f 192/2/1 196/2/1 228/2/1 224/2/1
f 196/2/4 198/2/4 227/2/4 228/2/4
f 202/1/2 229/1/2 230/1/2 203/1/2
f 205/1/1 204/1/1 231/1/1 232/1/1
f 205/1/3 232/1/3 229/1/3 202/1/3
f 204/2/1 206/2/1 233/2/1 231/2/1
f 207/1/2 234/1/2 235/1/2 208/1/2
f 203/1/3 230/1/3 234/1/3 207/1/3
f 230/1/6 236/1/6 235/1/6 234/1/6
f 206/2/1 209/2/1 237/2/1 233/2/1
f 208/1/2 235/1/2 238/1/2 212/1/2
f 236/1/6 239/1/6 238/1/6 235/1/6
f 209/2/1 213/2/1 240/2/1 237/2/1
f 211/1/2 241/1/2 242/1/2 216/1/2
f 212/1/3 238/1/3 241/1/3 211/1/3
f 238/1/6 243/1/6 242/1/6 241/1/6
f 213/2/1 217/2/1 244/2/1 240/2/1
f 216/1/2 242/1/2 245/1/2 219/1/2
f 223/1/4 219/1/4 245/1/4 246/1/4
f 243/1/6 246/1/6 245/1/6 242/1/6
f 217/2/1 220/2/1 247/2/1 244/2/1
f 223/1/2 246/1/2 248/1/2 222/1/2
f 249/1/6 250/1/6 248/1/6 246/1/6
f 220/2/1 224/2/1 251/2/1 247/2/1
f 222/1/2 248/1/2 252/1/2 225/1/2
f 226/1/4 225/1/4 252/1/4 253/1/4
f 250/1/6 253/1/6 252/1/6 248/1/6
f 226/1/2 253/1/2 254/1/2 227/1/2
f 224/1/1 228/1/1 255/1/1 251/1/1
f 228/1/4 227/1/4 254/1/4 255/1/4
f 229/1/2 256/1/2 257/1/2 230/1/2
f 232/1/1 231/1/1 258/1/1 259/1/1
f 232/1/3 259/1/3 256/1/3 229/1/3
f 259/1/6 258/1/6 257/1/6 256/1/6
f 230/1/2 257/1/2 260/1/2 236/1/2
f 231/1/1 233/1/1 261/1/1 258/1/1
f 258/1/6 261/1/6 260/1/6 257/1/6
f 236/1/2 260/1/2 262/1/2 239/1/2
f 233/1/1 237/1/1 263/1/1 261/1/1
f 261/1/6 263/1/6 262/1/6 260/1/6
f 237/2/1 240/2/1 264/2/1 263/2/1
f 238/1/2 265/1/2 266/1/2 243/1/2
f 239/1/3 262/1/3 265/1/3 238/1/3
f 262/1/6 267/1/6 266/1/6 265/1/6
f 240/2/1 244/2/1 268/2/1 264/2/1
f 243/1/2 266/1/2 269/1/2 246/1/2
f 249/1/4 246/1/4 269/1/4 270/1/4
f 267/1/6 270/1/6 269/1/6 266/1/6
f 249/1/2 270/1/2 271/1/2 250/1/2
f 244/1/1 247/1/1 272/1/1 268/1/1
f 268/1/6 272/1/6 271/1/6 270/1/6
f 250/1/2 271/1/2 273/1/2 253/1/2
f 247/1/1 251/1/1 274/1/1 272/1/1
f 272/1/6 274/1/6 273/1/6 271/1/6
f 253/1/2 273/1/2 275/1/2 254/1/2
f 251/1/1 255/1/1 276/1/1 274/1/1
f 255/1/4 254/1/4 275/1/4 276/1/4
f 274/1/6 276/1/6 275/1/6 273/1/6
f 262/1/2 277/1/2 278/1/2 267/1/2
f 263/1/1 264/1/1 279/1/1 280/1/1
f 263/1/3 280/1/3 277/1/3 262/1/3
f 280/1/6 279/1/6 278/1/6 277/1/6
f 267/1/2 278/1/2 281/1/2 270/1/2
f 264/1/1 268/1/1 282/1/1 279/1/1
f 268/1/4 270/1/4 281/1/4 282/1/4
f 279/1/6 282/1/6 281/1/6 278/1/6
