mtllib Isabella_Vega_Heredia_fase_2.mtl
o Isabella_Vega_Heredia_fase_2
v -4.0000 1.0000 -0.0000
v -4.0000 1.0000 -1.0000
v -3.0000 1.0000 -1.0000
v -3.0000 1.0000 -0.0000
v -3.0000 2.0000 -0.0000
v -4.0000 2.0000 -0.0000
v -4.0000 2.0000 -1.0000
v -3.0000 2.0000 -1.0000
v -4.0000 3.0000 -0.0000
v -3.0000 3.0000 -0.0000
v -3.0000 3.0000 -1.0000
v -4.0000 3.0000 -1.0000
v -3.0000 -3.0000 3.0000
v -2.0000 -3.0000 3.0000
v -2.0000 -3.0000 2.0000
v -3.0000 -3.0000 2.0000
v -3.0000 -4.0000 3.0000
v -3.0000 -4.0000 2.0000
v -2.0000 -4.0000 2.0000
v -2.0000 -4.0000 3.0000
v -3.0000 3.0000 3.0000
v -2.0000 3.0000 3.0000
v -2.0000 3.0000 2.0000
v -3.0000 3.0000 2.0000
v -3.0000 2.0000 3.0000
v -3.0000 2.0000 2.0000
v -2.0000 2.0000 2.0000
v -2.0000 2.0000 3.0000
v -2.0000 -3.0000 1.0000
v -3.0000 -3.0000 1.0000
v -3.0000 -4.0000 1.0000
v -2.0000 -4.0000 1.0000
v -2.0000 -3.0000 -0.0000
v -3.0000 -3.0000 -0.0000
v -3.0000 -4.0000 -0.0000
v -2.0000 -4.0000 -0.0000
v -3.0000 1.0000 1.0000
v -2.0000 1.0000 1.0000
v -2.0000 1.0000 -0.0000
v -3.0000 0.0000 1.0000
v -3.0000 0.0000 -0.0000
v -2.0000 0.0000 -0.0000
v -2.0000 0.0000 1.0000
v -2.0000 -3.0000 -1.0000
v -3.0000 -3.0000 -1.0000
v -3.0000 -4.0000 -1.0000
v -2.0000 -4.0000 -1.0000
v -2.0000 2.0000 -0.0000
v -2.0000 2.0000 -1.0000
v -2.0000 1.0000 -1.0000
v -2.0000 -3.0000 -2.0000
v -3.0000 -3.0000 -2.0000
v -3.0000 -4.0000 -2.0000
v -2.0000 -4.0000 -2.0000
v -2.0000 -3.0000 -3.0000
v -3.0000 -3.0000 -3.0000
v -3.0000 -4.0000 -3.0000
v -2.0000 -4.0000 -3.0000
v -2.0000 -3.0000 4.0000
v -1.0000 -3.0000 4.0000
v -1.0000 -3.0000 3.0000
v -2.0000 -4.0000 4.0000
v -1.0000 -4.0000 3.0000
v -1.0000 -4.0000 4.0000
v -1.0000 -4.0000 2.0000
v -2.0000 -2.0000 3.0000
v -1.0000 -2.0000 3.0000
v -1.0000 -2.0000 2.0000
v -2.0000 -2.0000 2.0000
v -2.0000 1.0000 3.0000
v -2.0000 1.0000 2.0000
v -1.0000 1.0000 2.0000
v -1.0000 1.0000 3.0000
v -1.0000 2.0000 3.0000
v -1.0000 2.0000 2.0000
v -1.0000 3.0000 3.0000
v -1.0000 3.0000 2.0000
v -2.0000 4.0000 3.0000
v -1.0000 4.0000 3.0000
v -1.0000 4.0000 2.0000
v -2.0000 4.0000 2.0000
v -1.0000 -4.0000 1.0000
v -1.0000 -2.0000 1.0000
v -2.0000 -2.0000 1.0000
v -1.0000 -4.0000 -0.0000
v -2.0000 -2.0000 -0.0000
v -2.0000 -1.0000 1.0000
v -1.0000 -1.0000 1.0000
v -1.0000 -1.0000 -0.0000
v -2.0000 -1.0000 -0.0000
v -1.0000 1.0000 1.0000
v -1.0000 1.0000 -0.0000
v -1.0000 0.0000 -0.0000
v -1.0000 0.0000 1.0000
v -1.0000 -4.0000 -1.0000
v -2.0000 -2.0000 -1.0000
v -1.0000 -1.0000 -1.0000
v -2.0000 -1.0000 -1.0000
v -1.0000 -2.0000 -1.0000
v -1.0000 2.0000 -0.0000
v -1.0000 2.0000 -1.0000
v -1.0000 1.0000 -1.0000
v -1.0000 -4.0000 -2.0000
v -1.0000 -2.0000 -2.0000
v -2.0000 -2.0000 -2.0000
v -1.0000 -4.0000 -3.0000
v -1.0000 -2.0000 -3.0000
v -2.0000 -2.0000 -3.0000
v -1.0000 -3.0000 -3.0000
v -2.0000 4.0000 -2.0000
v -1.0000 4.0000 -2.0000
v -1.0000 4.0000 -3.0000
v -2.0000 4.0000 -3.0000
v -2.0000 3.0000 -2.0000
v -2.0000 3.0000 -3.0000
v -1.0000 3.0000 -3.0000
v -1.0000 3.0000 -2.0000
v -1.0000 -3.0000 -4.0000
v -2.0000 -3.0000 -4.0000
v -2.0000 -4.0000 -4.0000
v -1.0000 -4.0000 -4.0000
v 0.0000 -3.0000 4.0000
v 0.0000 -3.0000 3.0000
v 0.0000 -4.0000 3.0000
v 0.0000 -4.0000 4.0000
v 0.0000 -4.0000 2.0000
v 0.0000 -2.0000 3.0000
v 0.0000 -2.0000 2.0000
v 0.0000 1.0000 3.0000
v 0.0000 1.0000 2.0000
v -1.0000 0.0000 3.0000
v -1.0000 0.0000 2.0000
v 0.0000 0.0000 2.0000
v 0.0000 0.0000 3.0000
v 0.0000 3.0000 3.0000
v 0.0000 3.0000 2.0000
v 0.0000 2.0000 2.0000
v 0.0000 2.0000 3.0000
v 0.0000 -4.0000 1.0000
v -1.0000 -1.0000 2.0000
v 0.0000 -1.0000 2.0000
v 0.0000 -1.0000 1.0000
v 0.0000 1.0000 1.0000
v 0.0000 0.0000 1.0000
v 0.0000 -4.0000 -0.0000
v 0.0000 2.0000 1.0000
v -1.0000 2.0000 1.0000
v 0.0000 3.0000 1.0000
v -1.0000 3.0000 1.0000
v -1.0000 3.0000 -0.0000
v -1.0000 4.0000 1.0000
v 0.0000 4.0000 1.0000
v 0.0000 4.0000 -0.0000
v -1.0000 4.0000 -0.0000
v 0.0000 -4.0000 -1.0000
v -1.0000 0.0000 -1.0000
v 0.0000 0.0000 -1.0000
v 0.0000 -1.0000 -1.0000
v 0.0000 1.0000 -1.0000
v -1.0000 3.0000 -1.0000
v 0.0000 4.0000 -1.0000
v -1.0000 4.0000 -1.0000
v 0.0000 -4.0000 -2.0000
v 0.0000 -1.0000 -2.0000
v -1.0000 -1.0000 -2.0000
v 0.0000 -2.0000 -2.0000
v -1.0000 1.0000 -2.0000
v 0.0000 1.0000 -2.0000
v -1.0000 2.0000 -2.0000
v 0.0000 2.0000 -2.0000
v 0.0000 2.0000 -1.0000
v 0.0000 4.0000 -2.0000
v 0.0000 3.0000 -1.0000
v 0.0000 3.0000 -2.0000
v 0.0000 -4.0000 -3.0000
v 0.0000 -2.0000 -3.0000
v 0.0000 -3.0000 -3.0000
v -1.0000 2.0000 -3.0000
v 0.0000 2.0000 -3.0000
v 0.0000 3.0000 -3.0000
v 0.0000 4.0000 -3.0000
v 0.0000 -3.0000 -4.0000
v 0.0000 -4.0000 -4.0000
v 1.0000 -3.0000 4.0000
v 1.0000 -3.0000 3.0000
v 1.0000 -4.0000 3.0000
v 1.0000 -4.0000 4.0000
v 1.0000 -4.0000 2.0000
v 1.0000 -2.0000 3.0000
v 1.0000 -2.0000 2.0000
v 1.0000 1.0000 3.0000
v 1.0000 1.0000 2.0000
v 1.0000 0.0000 2.0000
v 1.0000 0.0000 3.0000
v 1.0000 -4.0000 1.0000
v 1.0000 -1.0000 2.0000
v 1.0000 -1.0000 1.0000
v 1.0000 -2.0000 1.0000
v 1.0000 1.0000 1.0000
v 1.0000 0.0000 1.0000
v 1.0000 -4.0000 -0.0000
v 1.0000 -1.0000 -0.0000
v 1.0000 0.0000 -0.0000
v 1.0000 1.0000 -0.0000
v 1.0000 2.0000 1.0000
v 1.0000 3.0000 1.0000
v 1.0000 4.0000 1.0000
v 1.0000 4.0000 -0.0000
v 1.0000 3.0000 -0.0000
v 1.0000 -4.0000 -1.0000
v 1.0000 0.0000 -1.0000
v 1.0000 -1.0000 -1.0000
v 1.0000 1.0000 -1.0000
v 1.0000 2.0000 -1.0000
v 1.0000 2.0000 -0.0000
v 1.0000 4.0000 -1.0000
v 1.0000 3.0000 -1.0000
v 1.0000 -4.0000 -2.0000
v 1.0000 -1.0000 -2.0000
v 1.0000 -2.0000 -2.0000
v 1.0000 -2.0000 -1.0000
v 1.0000 3.0000 -2.0000
v 1.0000 2.0000 -2.0000
v 1.0000 -4.0000 -3.0000
v 1.0000 -2.0000 -3.0000
v 1.0000 -3.0000 -3.0000
v 1.0000 -3.0000 -4.0000
v 1.0000 -4.0000 -4.0000
v 2.0000 -3.0000 4.0000
v 2.0000 -3.0000 3.0000
v 2.0000 -4.0000 3.0000
v 2.0000 -4.0000 4.0000
v 2.0000 -4.0000 2.0000
v 2.0000 -2.0000 3.0000
v 2.0000 -2.0000 2.0000
v 2.0000 -3.0000 2.0000
v 2.0000 1.0000 2.0000
v 2.0000 1.0000 3.0000
v 2.0000 2.0000 3.0000
v 1.0000 2.0000 3.0000
v 1.0000 2.0000 2.0000
v 2.0000 2.0000 2.0000
v 2.0000 3.0000 3.0000
v 1.0000 3.0000 3.0000
v 1.0000 3.0000 2.0000
v 2.0000 3.0000 2.0000
v 1.0000 4.0000 3.0000
v 2.0000 4.0000 3.0000
v 2.0000 4.0000 2.0000
v 1.0000 4.0000 2.0000
v 2.0000 -4.0000 1.0000
v 2.0000 -2.0000 1.0000
v 2.0000 -3.0000 1.0000
v 2.0000 -4.0000 -0.0000
v 2.0000 -3.0000 -0.0000
v 2.0000 -2.0000 -0.0000
v 2.0000 -1.0000 1.0000
v 2.0000 -1.0000 -0.0000
v 2.0000 1.0000 -0.0000
v 2.0000 1.0000 1.0000
v 2.0000 2.0000 1.0000
v 2.0000 2.0000 -0.0000
v 2.0000 3.0000 1.0000
v 2.0000 3.0000 -0.0000
v 2.0000 -4.0000 -1.0000
v 2.0000 -3.0000 -1.0000
v 2.0000 -2.0000 -1.0000
v 2.0000 -1.0000 -1.0000
v 2.0000 2.0000 -1.0000
v 2.0000 3.0000 -1.0000
v 2.0000 4.0000 -0.0000
v 2.0000 4.0000 -1.0000
v 2.0000 -4.0000 -2.0000
v 2.0000 -2.0000 -2.0000
v 2.0000 -3.0000 -2.0000
v 2.0000 -4.0000 -3.0000
v 2.0000 -2.0000 -3.0000
v 2.0000 -3.0000 -3.0000
v 2.0000 -3.0000 -4.0000
v 2.0000 -4.0000 -4.0000
v 3.0000 -3.0000 3.0000
v 3.0000 -3.0000 2.0000
v 3.0000 -4.0000 2.0000
v 3.0000 -4.0000 3.0000
v 3.0000 3.0000 3.0000
v 3.0000 3.0000 2.0000
v 3.0000 2.0000 2.0000
v 3.0000 2.0000 3.0000
v 3.0000 -3.0000 1.0000
v 3.0000 -4.0000 1.0000
v 3.0000 -3.0000 -0.0000
v 3.0000 -4.0000 -0.0000
v 3.0000 1.0000 -0.0000
v 3.0000 1.0000 1.0000
v 3.0000 2.0000 1.0000
v 3.0000 2.0000 -0.0000
v 3.0000 3.0000 1.0000
v 2.0000 4.0000 1.0000
v 3.0000 4.0000 1.0000
v 3.0000 4.0000 -0.0000
v 3.0000 -3.0000 -1.0000
v 3.0000 -4.0000 -1.0000
v 3.0000 2.0000 -1.0000
v 3.0000 3.0000 -1.0000
v 3.0000 3.0000 -0.0000
v 3.0000 4.0000 -1.0000
v 3.0000 -3.0000 -2.0000
v 3.0000 -4.0000 -2.0000
v 3.0000 3.0000 -2.0000
v 2.0000 3.0000 -2.0000
v 2.0000 2.0000 -2.0000
v 3.0000 2.0000 -2.0000
v 3.0000 -3.0000 -3.0000
v 3.0000 -4.0000 -3.0000
v 4.0000 2.0000 -0.0000
v 4.0000 2.0000 1.0000
v 4.0000 3.0000 1.0000
v 4.0000 3.0000 -0.0000
v 4.0000 4.0000 1.0000
v 4.0000 4.0000 -0.0000
vt 0.001953 0.500000
vt 0.005859 0.500000
vt 0.009766 0.500000
vt 0.013672 0.500000
vt 0.017578 0.500000
vt 0.021484 0.500000
vt 0.025391 0.500000
vn 0.0 -1.0 0.0
vn 0.0 1.0 0.0
vn 0.0 0.0 1.0
vn 0.0 0.0 -1.0
vn -1.0 0.0 0.0
vn 1.0 0.0 0.0
usemtl mat_Isabella_Vega_Heredia_fase_2
s off
f 1/1/1 2/1/1 3/1/1 4/1/1
f 1/1/3 4/1/3 5/1/3 6/1/3
f 2/1/4 7/1/4 8/1/4 3/1/4
f 1/1/5 6/1/5 7/1/5 2/1/5
f 9/1/2 10/1/2 11/1/2 12/1/2
f 6/1/3 5/1/3 10/1/3 9/1/3
f 7/1/4 12/1/4 11/1/4 8/1/4
f 5/1/6 8/1/6 11/1/6 10/1/6
f 6/1/5 9/1/5 12/1/5 7/1/5
f 13/2/2 14/2/2 15/2/2 16/2/2
f 17/2/1 18/2/1 19/2/1 20/2/1
f 17/2/3 20/2/3 14/2/3 13/2/3
f 17/2/5 13/2/5 16/2/5 18/2/5
f 21/1/2 22/1/2 23/1/2 24/1/2
f 25/1/1 26/1/1 27/1/1 28/1/1
f 25/1/3 28/1/3 22/1/3 21/1/3
f 26/1/4 24/1/4 23/1/4 27/1/4
f 25/1/5 21/1/5 24/1/5 26/1/5
f 16/2/2 15/2/2 29/2/2 30/2/2
f 18/2/1 31/2/1 32/2/1 19/2/1
f 18/2/5 16/2/5 30/2/5 31/2/5
f 30/2/2 29/2/2 33/2/2 34/2/2
f 31/2/1 35/2/1 36/2/1 32/2/1
f 31/2/5 30/2/5 34/2/5 35/2/5
f 37/1/2 38/1/2 39/1/2 4/1/2
f 40/1/1 41/1/1 42/1/1 43/1/1
f 40/1/3 43/1/3 38/1/3 37/1/3
f 41/1/4 4/1/4 39/1/4 42/1/4
f 40/1/5 37/1/5 4/1/5 41/1/5
f 34/2/2 33/2/2 44/2/2 45/2/2
f 35/2/1 46/2/1 47/2/1 36/2/1
f 35/2/5 34/2/5 45/2/5 46/2/5
f 5/1/2 48/1/2 49/1/2 8/1/2
f 4/1/1 3/1/1 50/1/1 39/1/1
f 4/1/3 39/1/3 48/1/3 5/1/3
f 3/1/4 8/1/4 49/1/4 50/1/4
f 45/2/2 44/2/2 51/2/2 52/2/2
f 46/2/1 53/2/1 54/2/1 47/2/1
f 46/2/5 45/2/5 52/2/5 53/2/5
f 52/2/2 51/2/2 55/2/2 56/2/2
f 53/2/1 57/2/1 58/2/1 54/2/1
f 57/2/4 56/2/4 55/2/4 58/2/4
f 53/2/5 52/2/5 56/2/5 57/2/5
f 59/2/2 60/2/2 61/2/2 14/2/2
f 62/2/1 20/2/1 63/2/1 64/2/1
f 62/2/3 64/2/3 60/2/3 59/2/3
f 62/2/5 59/2/5 14/2/5 20/2/5
f 20/2/1 19/2/1 65/2/1 63/2/1
f 66/3/2 67/3/2 68/3/2 69/3/2
f 14/3/3 61/3/3 67/3/3 66/3/3
f 14/3/5 66/3/5 69/3/5 15/3/5
f 70/1/1 71/1/1 72/1/1 73/1/1
f 70/1/3 73/1/3 74/1/3 28/1/3
f 71/1/4 27/1/4 75/1/4 72/1/4
f 73/1/6 72/1/6 75/1/6 74/1/6
f 70/1/5 28/1/5 27/1/5 71/1/5
f 28/1/3 74/1/3 76/1/3 22/1/3
f 27/1/4 23/1/4 77/1/4 75/1/4
f 78/1/2 79/1/2 80/1/2 81/1/2
f 22/1/3 76/1/3 79/1/3 78/1/3
f 23/1/4 81/1/4 80/1/4 77/1/4
f 76/1/6 77/1/6 80/1/6 79/1/6
f 22/1/5 78/1/5 81/1/5 23/1/5
f 19/2/1 32/2/1 82/2/1 65/2/1
f 69/3/2 68/3/2 83/3/2 84/3/2
f 15/3/5 69/3/5 84/3/5 29/3/5
f 32/2/1 36/2/1 85/2/1 82/2/1
f 29/3/5 84/3/5 86/3/5 33/3/5
f 87/3/2 88/3/2 89/3/2 90/3/2
f 84/3/3 83/3/3 88/3/3 87/3/3
f 84/3/5 87/3/5 90/3/5 86/3/5
f 38/1/2 91/1/2 92/1/2 39/1/2
f 43/1/1 42/1/1 93/1/1 94/1/1
f 43/1/3 94/1/3 91/1/3 38/1/3
f 42/1/4 39/1/4 92/1/4 93/1/4
f 36/2/1 47/2/1 95/2/1 85/2/1
f 33/3/5 86/3/5 96/3/5 44/3/5
f 90/3/2 89/3/2 97/3/2 98/3/2
f 96/3/4 98/3/4 97/3/4 99/3/4
f 86/3/5 90/3/5 98/3/5 96/3/5
f 48/1/2 100/1/2 101/1/2 49/1/2
f 39/1/1 50/1/1 102/1/1 92/1/1
f 39/1/3 92/1/3 100/1/3 48/1/3
f 50/1/4 49/1/4 101/1/4 102/1/4
f 47/2/1 54/2/1 103/2/1 95/2/1
f 96/3/2 99/3/2 104/3/2 105/3/2
f 44/3/5 96/3/5 105/3/5 51/3/5
f 54/2/1 58/2/1 106/2/1 103/2/1
f 105/3/2 104/3/2 107/3/2 108/3/2
f 55/3/4 108/3/4 107/3/4 109/3/4
f 51/3/5 105/3/5 108/3/5 55/3/5
f 110/1/2 111/1/2 112/1/2 113/1/2
f 114/1/1 115/1/1 116/1/1 117/1/1
f 114/1/3 117/1/3 111/1/3 110/1/3
f 115/1/4 113/1/4 112/1/4 116/1/4
f 114/1/5 110/1/5 113/1/5 115/1/5
f 55/2/2 109/2/2 118/2/2 119/2/2
f 58/2/1 120/2/1 121/2/1 106/2/1
f 120/2/4 119/2/4 118/2/4 121/2/4
f 58/2/5 55/2/5 119/2/5 120/2/5
f 60/2/2 122/2/2 123/2/2 61/2/2
f 64/2/1 63/2/1 124/2/1 125/2/1
f 64/2/3 125/2/3 122/2/3 60/2/3
f 63/4/1 65/4/1 126/4/1 124/4/1
f 67/3/2 127/3/2 128/3/2 68/3/2
f 61/3/3 123/3/3 127/3/3 67/3/3
f 73/1/2 129/1/2 130/1/2 72/1/2
f 131/1/1 132/1/1 133/1/1 134/1/1
f 131/1/3 134/1/3 129/1/3 73/1/3
f 131/1/5 73/1/5 72/1/5 132/1/5
f 76/1/2 135/1/2 136/1/2 77/1/2
f 74/1/1 75/1/1 137/1/1 138/1/1
f 74/1/3 138/1/3 135/1/3 76/1/3
f 75/1/4 77/1/4 136/1/4 137/1/4
f 138/1/6 137/1/6 136/1/6 135/1/6
f 65/4/1 82/4/1 139/4/1 126/4/1
f 140/3/2 141/3/2 142/3/2 88/3/2
f 68/3/3 128/3/3 141/3/3 140/3/3
f 68/3/5 140/3/5 88/3/5 83/3/5
f 72/1/2 130/1/2 143/1/2 91/1/2
f 132/1/1 94/1/1 144/1/1 133/1/1
f 132/1/5 72/1/5 91/1/5 94/1/5
f 82/4/1 85/4/1 145/4/1 139/4/1
f 88/5/3 142/5/3 144/5/3 94/5/3
f 88/5/5 94/5/5 93/5/5 89/5/5
f 91/5/3 143/5/3 146/5/3 147/5/3
f 91/5/5 147/5/5 100/5/5 92/5/5
f 147/6/3 146/6/3 148/6/3 149/6/3
f 147/6/5 149/6/5 150/6/5 100/6/5
f 151/6/2 152/6/2 153/6/2 154/6/2
f 149/6/3 148/6/3 152/6/3 151/6/3
f 149/6/5 151/6/5 154/6/5 150/6/5
f 85/4/1 95/4/1 155/4/1 145/4/1
f 97/5/4 156/5/4 157/5/4 158/5/4
f 89/5/5 93/5/5 156/5/5 97/5/5
f 156/5/4 102/5/4 159/5/4 157/5/4
f 93/5/5 92/5/5 102/5/5 156/5/5
f 100/6/5 150/6/5 160/6/5 101/6/5
f 154/7/2 153/7/2 161/7/2 162/7/2
f 150/7/5 154/7/5 162/7/5 160/7/5
f 95/4/1 103/4/1 163/4/1 155/4/1
f 97/3/2 158/3/2 164/3/2 165/3/2
f 104/3/4 165/3/4 164/3/4 166/3/4
f 99/3/5 97/3/5 165/3/5 104/3/5
f 102/1/1 167/1/1 168/1/1 159/1/1
f 167/1/4 169/1/4 170/1/4 168/1/4
f 159/1/6 168/1/6 170/1/6 171/1/6
f 102/1/5 101/1/5 169/1/5 167/1/5
f 101/1/5 160/1/5 117/1/5 169/1/5
f 162/7/2 161/7/2 172/7/2 111/7/2
f 173/7/6 174/7/6 172/7/6 161/7/6
f 160/7/5 162/7/5 111/7/5 117/7/5
f 103/4/1 106/4/1 175/4/1 163/4/1
f 104/3/2 166/3/2 176/3/2 107/3/2
f 109/3/4 107/3/4 176/3/4 177/3/4
f 169/1/1 178/1/1 179/1/1 170/1/1
f 178/1/4 116/1/4 180/1/4 179/1/4
f 170/1/6 179/1/6 180/1/6 174/1/6
f 169/1/5 117/1/5 116/1/5 178/1/5
f 111/1/2 172/1/2 181/1/2 112/1/2
f 116/1/4 112/1/4 181/1/4 180/1/4
f 174/1/6 180/1/6 181/1/6 172/1/6
f 109/2/2 177/2/2 182/2/2 118/2/2
f 106/2/1 121/2/1 183/2/1 175/2/1
f 121/2/4 118/2/4 182/2/4 183/2/4
f 122/2/2 184/2/2 185/2/2 123/2/2
f 125/2/1 124/2/1 186/2/1 187/2/1
f 125/2/3 187/2/3 184/2/3 122/2/3
f 124/2/1 126/2/1 188/2/1 186/2/1
f 127/3/2 189/3/2 190/3/2 128/3/2
f 123/3/3 185/3/3 189/3/3 127/3/3
f 129/1/2 191/1/2 192/1/2 130/1/2
f 134/1/1 133/1/1 193/1/1 194/1/1
f 134/1/3 194/1/3 191/1/3 129/1/3
f 194/1/6 193/1/6 192/1/6 191/1/6
f 126/4/1 139/4/1 195/4/1 188/4/1
f 141/3/2 196/3/2 197/3/2 142/3/2
f 128/3/3 190/3/3 196/3/3 141/3/3
f 190/3/6 198/3/6 197/3/6 196/3/6
f 130/1/2 192/1/2 199/1/2 143/1/2
f 133/1/1 144/1/1 200/1/1 193/1/1
f 193/1/6 200/1/6 199/1/6 192/1/6
f 139/4/1 145/4/1 201/4/1 195/4/1
f 142/5/3 197/5/3 200/5/3 144/5/3
f 197/5/6 202/5/6 203/5/6 200/5/6
f 200/5/6 203/5/6 204/5/6 199/5/6
f 143/5/3 199/5/3 205/5/3 146/5/3
f 146/6/3 205/6/3 206/6/3 148/6/3
f 152/7/2 207/7/2 208/7/2 153/7/2
f 148/7/3 206/7/3 207/7/3 152/7/3
f 206/7/6 209/7/6 208/7/6 207/7/6
f 145/4/1 155/4/1 210/4/1 201/4/1
f 158/5/4 157/5/4 211/5/4 212/5/4
f 202/5/6 212/5/6 211/5/6 203/5/6
f 157/5/4 159/5/4 213/5/4 211/5/4
f 203/5/6 211/5/6 213/5/6 204/5/6
f 159/5/4 171/5/4 214/5/4 213/5/4
f 204/5/6 213/5/6 214/5/6 215/5/6
f 153/7/2 208/7/2 216/7/2 161/7/2
f 173/7/4 161/7/4 216/7/4 217/7/4
f 155/4/1 163/4/1 218/4/1 210/4/1
f 158/3/2 212/3/2 219/3/2 164/3/2
f 166/3/4 164/3/4 219/3/4 220/3/4
f 221/3/6 220/3/6 219/3/6 212/3/6
f 173/1/2 217/1/2 222/1/2 174/1/2
f 171/1/1 170/1/1 223/1/1 214/1/1
f 170/1/4 174/1/4 222/1/4 223/1/4
f 214/1/6 223/1/6 222/1/6 217/1/6
f 163/4/1 175/4/1 224/4/1 218/4/1
f 166/3/2 220/3/2 225/3/2 176/3/2
f 177/3/4 176/3/4 225/3/4 226/3/4
f 177/2/2 226/2/2 227/2/2 182/2/2
f 175/2/1 183/2/1 228/2/1 224/2/1
f 183/2/4 182/2/4 227/2/4 228/2/4
f 184/2/2 229/2/2 230/2/2 185/2/2
f 187/2/1 186/2/1 231/2/1 232/2/1
f 187/2/3 232/2/3 229/2/3 184/2/3
f 232/2/6 231/2/6 230/2/6 229/2/6
f 186/2/1 188/2/1 233/2/1 231/2/1
f 189/3/2 234/3/2 235/3/2 190/3/2
f 185/3/3 230/3/3 234/3/3 189/3/3
f 230/3/6 236/3/6 235/3/6 234/3/6
f 191/1/1 192/1/1 237/1/1 238/1/1
f 191/1/3 238/1/3 239/1/3 240/1/3
f 192/1/4 241/1/4 242/1/4 237/1/4
f 238/1/6 237/1/6 242/1/6 239/1/6
f 191/1/5 240/1/5 241/1/5 192/1/5
f 240/1/3 239/1/3 243/1/3 244/1/3
f 241/1/4 245/1/4 246/1/4 242/1/4
f 240/1/5 244/1/5 245/1/5 241/1/5
f 247/1/2 248/1/2 249/1/2 250/1/2
f 244/1/3 243/1/3 248/1/3 247/1/3
f 245/1/4 250/1/4 249/1/4 246/1/4
f 243/1/6 246/1/6 249/1/6 248/1/6
f 244/1/5 247/1/5 250/1/5 245/1/5
f 188/4/1 195/4/1 251/4/1 233/4/1
f 190/3/2 235/3/2 252/3/2 198/3/2
f 236/3/6 253/3/6 252/3/6 235/3/6
f 195/2/1 201/2/1 254/2/1 251/2/1
f 253/3/6 255/3/6 256/3/6 252/3/6
f 197/3/2 257/3/2 258/3/2 202/3/2
f 198/3/3 252/3/3 257/3/3 197/3/3
f 252/3/6 256/3/6 258/3/6 257/3/6
f 199/1/1 204/1/1 259/1/1 260/1/1
f 199/1/3 260/1/3 261/1/3 205/1/3
f 204/1/4 215/1/4 262/1/4 259/1/4
f 206/6/2 263/6/2 264/6/2 209/6/2
f 205/6/3 261/6/3 263/6/3 206/6/3
f 201/4/1 210/4/1 265/4/1 254/4/1
f 255/3/6 266/3/6 267/3/6 256/3/6
f 202/3/2 258/3/2 268/3/2 212/3/2
f 221/3/4 212/3/4 268/3/4 267/3/4
f 256/3/6 267/3/6 268/3/6 258/3/6
f 215/5/1 214/5/1 269/5/1 262/5/1
f 214/5/4 217/5/4 270/5/4 269/5/4
f 208/1/2 271/1/2 272/1/2 216/1/2
f 209/1/3 264/1/3 271/1/3 208/1/3
f 217/1/4 216/1/4 272/1/4 270/1/4
f 210/2/1 218/2/1 273/2/1 265/2/1
f 221/3/2 267/3/2 274/3/2 220/3/2
f 266/3/6 275/3/6 274/3/6 267/3/6
f 218/2/1 224/2/1 276/2/1 273/2/1
f 220/3/2 274/3/2 277/3/2 225/3/2
f 226/3/4 225/3/4 277/3/4 278/3/4
f 275/3/6 278/3/6 277/3/6 274/3/6
f 226/2/2 278/2/2 279/2/2 227/2/2
f 224/2/1 228/2/1 280/2/1 276/2/1
f 228/2/4 227/2/4 279/2/4 280/2/4
f 276/2/6 280/2/6 279/2/6 278/2/6
f 230/2/2 281/2/2 282/2/2 236/2/2
f 231/2/1 233/2/1 283/2/1 284/2/1
f 231/2/3 284/2/3 281/2/3 230/2/3
f 284/2/6 283/2/6 282/2/6 281/2/6
f 243/1/2 285/1/2 286/1/2 246/1/2
f 239/1/1 242/1/1 287/1/1 288/1/1
f 239/1/3 288/1/3 285/1/3 243/1/3
f 242/1/4 246/1/4 286/1/4 287/1/4
f 288/1/6 287/1/6 286/1/6 285/1/6
f 236/2/2 282/2/2 289/2/2 253/2/2
f 233/2/1 251/2/1 290/2/1 283/2/1
f 283/2/6 290/2/6 289/2/6 282/2/6
f 253/2/2 289/2/2 291/2/2 255/2/2
f 251/2/1 254/2/1 292/2/1 290/2/1
f 290/2/6 292/2/6 291/2/6 289/2/6
f 260/1/1 259/1/1 293/1/1 294/1/1
f 260/1/3 294/1/3 295/1/3 261/1/3
f 259/1/4 262/1/4 296/1/4 293/1/4
f 294/1/6 293/1/6 296/1/6 295/1/6
f 261/1/3 295/1/3 297/1/3 263/1/3
f 298/1/2 299/1/2 300/1/2 271/1/2
f 263/1/3 297/1/3 299/1/3 298/1/3
f 263/1/5 298/1/5 271/1/5 264/1/5
f 255/2/2 291/2/2 301/2/2 266/2/2
f 254/2/1 265/2/1 302/2/1 292/2/1
f 292/2/6 302/2/6 301/2/6 291/2/6
f 262/1/1 269/1/1 303/1/1 296/1/1
f 296/1/6 303/1/6 304/1/6 305/1/6
f 271/1/2 300/1/2 306/1/2 272/1/2
f 270/1/4 272/1/4 306/1/4 304/1/4
f 305/1/6 304/1/6 306/1/6 300/1/6
f 266/2/2 301/2/2 307/2/2 275/2/2
f 265/2/1 273/2/1 308/2/1 302/2/1
f 302/2/6 308/2/6 307/2/6 301/2/6
f 270/1/2 304/1/2 309/1/2 310/1/2
f 269/1/1 311/1/1 312/1/1 303/1/1
f 311/1/4 310/1/4 309/1/4 312/1/4
f 303/1/6 312/1/6 309/1/6 304/1/6
f 269/1/5 270/1/5 310/1/5 311/1/5
f 275/2/2 307/2/2 313/2/2 278/2/2
f 273/2/1 276/2/1 314/2/1 308/2/1
f 276/2/4 278/2/4 313/2/4 314/2/4
f 308/2/6 314/2/6 313/2/6 307/2/6
f 295/1/1 296/1/1 315/1/1 316/1/1
f 295/1/3 316/1/3 317/1/3 297/1/3
f 296/1/4 305/1/4 318/1/4 315/1/4
f 316/1/6 315/1/6 318/1/6 317/1/6
f 299/1/2 319/1/2 320/1/2 300/1/2
f 297/1/3 317/1/3 319/1/3 299/1/3
f 305/1/4 300/1/4 320/1/4 318/1/4
f 317/1/6 318/1/6 320/1/6 319/1/6
