mtllib Drago_Adriana_Sofia_Espitia_Contreras_fase_2.mtl
o Drago_Adriana_Sofia_Espitia_Contreras_fase_2
v -4.0000 2.0000 1.0000
v -4.0000 2.0000 -0.0000
v -3.0000 2.0000 -0.0000
v -3.0000 2.0000 1.0000
v -3.0000 3.0000 1.0000
v -4.0000 3.0000 1.0000
v -4.0000 3.0000 -0.0000
v -3.0000 3.0000 -0.0000
v -4.0000 4.0000 1.0000
v -3.0000 4.0000 1.0000
v -3.0000 4.0000 -0.0000
v -4.0000 4.0000 -0.0000
v -4.0000 1.0000 -1.0000
v -4.0000 1.0000 -2.0000
v -3.0000 1.0000 -2.0000
v -3.0000 1.0000 -1.0000
v -3.0000 2.0000 -1.0000
v -4.0000 2.0000 -1.0000
v -4.0000 2.0000 -2.0000
v -3.0000 2.0000 -2.0000
v -4.0000 3.0000 -1.0000
v -3.0000 3.0000 -1.0000
v -3.0000 3.0000 -2.0000
v -4.0000 3.0000 -2.0000
v -3.0000 3.0000 3.0000
v -2.0000 3.0000 3.0000
v -2.0000 3.0000 2.0000
v -3.0000 3.0000 2.0000
v -3.0000 2.0000 3.0000
v -3.0000 2.0000 2.0000
v -2.0000 2.0000 2.0000
v -2.0000 2.0000 3.0000
v -2.0000 3.0000 1.0000
v -2.0000 3.0000 -0.0000
v -2.0000 2.0000 -0.0000
v -2.0000 2.0000 1.0000
v -2.0000 1.0000 -2.0000
v -2.0000 1.0000 -1.0000
v -2.0000 2.0000 -1.0000
v -2.0000 3.0000 -1.0000
v -2.0000 3.0000 -2.0000
v -2.0000 2.0000 -2.0000
v -2.0000 2.0000 -3.0000
v -3.0000 2.0000 -3.0000
v -3.0000 1.0000 -3.0000
v -2.0000 1.0000 -3.0000
v -1.0000 2.0000 2.0000
v -1.0000 2.0000 3.0000
v -1.0000 3.0000 3.0000
v -1.0000 3.0000 2.0000
v -2.0000 4.0000 3.0000
v -1.0000 4.0000 3.0000
v -1.0000 4.0000 2.0000
v -2.0000 4.0000 2.0000
v -1.0000 3.0000 1.0000
v -1.0000 2.0000 1.0000
v -2.0000 0.0000 1.0000
v -2.0000 0.0000 -0.0000
v -1.0000 0.0000 -0.0000
v -1.0000 0.0000 1.0000
v -1.0000 1.0000 1.0000
v -2.0000 1.0000 1.0000
v -2.0000 1.0000 -0.0000
v -1.0000 1.0000 -0.0000
v -1.0000 2.0000 -0.0000
v -2.0000 4.0000 1.0000
v -1.0000 4.0000 1.0000
v -1.0000 4.0000 -0.0000
v -2.0000 4.0000 -0.0000
v -1.0000 3.0000 -0.0000
v -2.0000 -3.0000 -0.0000
v -1.0000 -3.0000 -0.0000
v -1.0000 -3.0000 -1.0000
v -2.0000 -3.0000 -1.0000
v -2.0000 -4.0000 -0.0000
v -2.0000 -4.0000 -1.0000
v -1.0000 -4.0000 -1.0000
v -1.0000 -4.0000 -0.0000
v -1.0000 3.0000 -1.0000
v -1.0000 2.0000 -1.0000
v -1.0000 2.0000 -2.0000
v -1.0000 1.0000 -2.0000
v -1.0000 1.0000 -1.0000
v 0.0000 4.0000 3.0000
v 0.0000 4.0000 2.0000
v 0.0000 3.0000 2.0000
v 0.0000 3.0000 3.0000
v -1.0000 -3.0000 2.0000
v 0.0000 -3.0000 2.0000
v 0.0000 -3.0000 1.0000
v -1.0000 -3.0000 1.0000
v -1.0000 -4.0000 2.0000
v -1.0000 -4.0000 1.0000
v 0.0000 -4.0000 1.0000
v 0.0000 -4.0000 2.0000
v 0.0000 -4.0000 -0.0000
v 0.0000 -2.0000 1.0000
v -1.0000 -2.0000 1.0000
v -1.0000 -2.0000 -0.0000
v 0.0000 -1.0000 1.0000
v -1.0000 -1.0000 1.0000
v -1.0000 -1.0000 -0.0000
v 0.0000 0.0000 1.0000
v 0.0000 1.0000 1.0000
v 0.0000 1.0000 -0.0000
v 0.0000 0.0000 -0.0000
v 0.0000 3.0000 1.0000
v 0.0000 3.0000 -0.0000
v 0.0000 2.0000 -0.0000
v 0.0000 2.0000 1.0000
v 0.0000 -4.0000 -1.0000
v 0.0000 -3.0000 -1.0000
v -1.0000 -2.0000 -1.0000
v 0.0000 -2.0000 -1.0000
v -1.0000 -1.0000 -1.0000
v 0.0000 -1.0000 -1.0000
v 0.0000 0.0000 -1.0000
v -1.0000 0.0000 -1.0000
v -1.0000 -1.0000 -2.0000
v 0.0000 -1.0000 -2.0000
v -1.0000 0.0000 -2.0000
v 0.0000 0.0000 -2.0000
v 0.0000 1.0000 -1.0000
v 0.0000 1.0000 -2.0000
v 0.0000 2.0000 -1.0000
v 0.0000 2.0000 -2.0000
v 0.0000 3.0000 -1.0000
v 0.0000 3.0000 -2.0000
v -1.0000 3.0000 -2.0000
v -1.0000 1.0000 -3.0000
v 0.0000 1.0000 -3.0000
v -1.0000 2.0000 -3.0000
v 0.0000 2.0000 -3.0000
v 0.0000 3.0000 -3.0000
v -1.0000 3.0000 -3.0000
v 0.0000 1.0000 4.0000
v 0.0000 1.0000 3.0000
v 1.0000 1.0000 3.0000
v 1.0000 1.0000 4.0000
v 1.0000 2.0000 4.0000
v 0.0000 2.0000 4.0000
v 1.0000 2.0000 3.0000
v 0.0000 2.0000 3.0000
v 0.0000 3.0000 4.0000
v 1.0000 3.0000 4.0000
v 1.0000 3.0000 3.0000
v 0.0000 1.0000 2.0000
v 1.0000 1.0000 2.0000
v 0.0000 2.0000 2.0000
v 1.0000 3.0000 2.0000
v 1.0000 2.0000 2.0000
v 0.0000 -1.0000 2.0000
v 1.0000 -1.0000 1.0000
v 1.0000 -1.0000 2.0000
v 1.0000 0.0000 2.0000
v 0.0000 0.0000 2.0000
v 1.0000 0.0000 1.0000
v 1.0000 1.0000 1.0000
v 1.0000 2.0000 1.0000
v 1.0000 3.0000 1.0000
v 1.0000 -4.0000 -0.0000
v 1.0000 -4.0000 1.0000
v 1.0000 -3.0000 1.0000
v 1.0000 -2.0000 1.0000
v 1.0000 -3.0000 -0.0000
v 1.0000 -2.0000 -0.0000
v 1.0000 -1.0000 -0.0000
v 1.0000 0.0000 -0.0000
v 1.0000 -4.0000 -1.0000
v 1.0000 -3.0000 -1.0000
v 1.0000 -2.0000 -1.0000
v 1.0000 -1.0000 -1.0000
v 1.0000 0.0000 -1.0000
v 1.0000 1.0000 -0.0000
v 1.0000 1.0000 -1.0000
v 1.0000 2.0000 -1.0000
v 1.0000 2.0000 -0.0000
v 1.0000 3.0000 -0.0000
v 1.0000 3.0000 -1.0000
v 0.0000 4.0000 -0.0000
v 1.0000 4.0000 -0.0000
v 1.0000 4.0000 -1.0000
v 0.0000 4.0000 -1.0000
v 1.0000 -3.0000 -2.0000
v 0.0000 -3.0000 -2.0000
v 0.0000 -4.0000 -2.0000
v 1.0000 -4.0000 -2.0000
v 2.0000 2.0000 3.0000
v 2.0000 2.0000 2.0000
v 2.0000 1.0000 2.0000
v 2.0000 1.0000 3.0000
v 2.0000 2.0000 1.0000
v 2.0000 1.0000 1.0000
v 2.0000 -3.0000 1.0000
v 2.0000 -3.0000 -0.0000
v 2.0000 -4.0000 -0.0000
v 2.0000 -4.0000 1.0000
v 2.0000 2.0000 -0.0000
v 2.0000 3.0000 1.0000
v 2.0000 3.0000 -0.0000
v 1.0000 4.0000 1.0000
v 2.0000 4.0000 1.0000
v 2.0000 4.0000 -0.0000
v 2.0000 0.0000 -1.0000
v 2.0000 0.0000 -0.0000
v 2.0000 1.0000 -0.0000
v 2.0000 1.0000 -1.0000
v 2.0000 2.0000 -1.0000
v 2.0000 4.0000 -1.0000
v 2.0000 3.0000 -1.0000
v 2.0000 3.0000 -2.0000
v 1.0000 3.0000 -2.0000
v 1.0000 2.0000 -2.0000
v 2.0000 2.0000 -2.0000
v 2.0000 3.0000 -3.0000
v 1.0000 3.0000 -3.0000
v 1.0000 2.0000 -3.0000
v 2.0000 2.0000 -3.0000
v 2.0000 3.0000 -4.0000
v 1.0000 3.0000 -4.0000
v 1.0000 2.0000 -4.0000
v 2.0000 2.0000 -4.0000
v 3.0000 2.0000 2.0000
v 3.0000 2.0000 1.0000
v 3.0000 1.0000 1.0000
v 3.0000 1.0000 2.0000
v 3.0000 3.0000 -0.0000
v 3.0000 3.0000 -1.0000
v 3.0000 2.0000 -1.0000
v 3.0000 2.0000 -0.0000
v 3.0000 3.0000 -2.0000
v 3.0000 3.0000 -3.0000
v 3.0000 2.0000 -3.0000
v 3.0000 2.0000 -2.0000
v 3.0000 3.0000 3.0000
v 4.0000 3.0000 3.0000
v 4.0000 3.0000 2.0000
v 3.0000 3.0000 2.0000
v 3.0000 2.0000 3.0000
v 4.0000 2.0000 2.0000
v 4.0000 2.0000 3.0000
v 4.0000 1.0000 1.0000
v 4.0000 1.0000 2.0000
v 4.0000 2.0000 1.0000
v 4.0000 3.0000 1.0000
v 3.0000 3.0000 1.0000
v 4.0000 2.0000 -0.0000
v 3.0000 1.0000 -0.0000
v 4.0000 1.0000 -0.0000
v 4.0000 2.0000 -1.0000
v 4.0000 3.0000 -0.0000
v 4.0000 3.0000 -1.0000
v 3.0000 4.0000 -0.0000
v 4.0000 4.0000 -0.0000
v 4.0000 4.0000 -1.0000
v 3.0000 4.0000 -1.0000
vt 0.001953 0.500000
vt 0.005859 0.500000
vt 0.009766 0.500000
vt 0.013672 0.500000
vn 0.0 -1.0 0.0
vn 0.0 1.0 0.0
vn 0.0 0.0 1.0
vn 0.0 0.0 -1.0
vn -1.0 0.0 0.0
vn 1.0 0.0 0.0
usemtl mat_Drago_Adriana_Sofia_Espitia_Contreras_fase_2
s off
f 1/1/1 2/1/1 3/1/1 4/1/1
f 1/1/3 4/1/3 5/1/3 6/1/3
f 2/1/4 7/1/4 8/1/4 3/1/4
f 1/1/5 6/1/5 7/1/5 2/1/5
f 9/2/2 10/2/2 11/2/2 12/2/2
f 6/2/3 5/2/3 10/2/3 9/2/3
f 7/2/4 12/2/4 11/2/4 8/2/4
f 5/2/6 8/2/6 11/2/6 10/2/6
f 6/2/5 9/2/5 12/2/5 7/2/5
f 13/1/1 14/1/1 15/1/1 16/1/1
f 13/1/3 16/1/3 17/1/3 18/1/3
f 14/1/4 19/1/4 20/1/4 15/1/4
f 13/1/5 18/1/5 19/1/5 14/1/5
f 21/2/2 22/2/2 23/2/2 24/2/2
f 18/2/3 17/2/3 22/2/3 21/2/3
f 19/2/4 24/2/4 23/2/4 20/2/4
f 18/2/5 21/2/5 24/2/5 19/2/5
f 25/1/2 26/1/2 27/1/2 28/1/2
f 29/1/1 30/1/1 31/1/1 32/1/1
f 29/1/3 32/1/3 26/1/3 25/1/3
f 30/1/4 28/1/4 27/1/4 31/1/4
f 29/1/5 25/1/5 28/1/5 30/1/5
f 5/1/2 33/1/2 34/1/2 8/1/2
f 4/1/1 3/1/1 35/1/1 36/1/1
f 4/1/3 36/1/3 33/1/3 5/1/3
f 3/1/4 8/1/4 34/1/4 35/1/4
f 16/1/1 15/1/1 37/1/1 38/1/1
f 16/1/3 38/1/3 39/1/3 17/1/3
f 22/1/2 40/1/2 41/1/2 23/1/2
f 17/1/3 39/1/3 40/1/3 22/1/3
f 20/1/4 23/1/4 41/1/4 42/1/4
f 39/1/6 42/1/6 41/1/6 40/1/6
f 20/2/2 42/2/2 43/2/2 44/2/2
f 15/2/1 45/2/1 46/2/1 37/2/1
f 45/2/4 44/2/4 43/2/4 46/2/4
f 37/2/6 46/2/6 43/2/6 42/2/6
f 15/2/5 20/2/5 44/2/5 45/2/5
f 32/1/1 31/1/1 47/1/1 48/1/1
f 32/1/3 48/1/3 49/1/3 26/1/3
f 48/1/6 47/1/6 50/1/6 49/1/6
f 51/2/2 52/2/2 53/2/2 54/2/2
f 26/2/3 49/2/3 52/2/3 51/2/3
f 27/2/4 54/2/4 53/2/4 50/2/4
f 26/2/5 51/2/5 54/2/5 27/2/5
f 27/2/2 50/2/2 55/2/2 33/2/2
f 31/2/1 36/2/1 56/2/1 47/2/1
f 47/2/6 56/2/6 55/2/6 50/2/6
f 31/2/5 27/2/5 33/2/5 36/2/5
f 57/3/1 58/3/1 59/3/1 60/3/1
f 57/3/3 60/3/3 61/3/3 62/3/3
f 58/3/4 63/3/4 64/3/4 59/3/4
f 57/3/5 62/3/5 63/3/5 58/3/5
f 62/3/3 61/3/3 56/3/3 36/3/3
f 63/3/4 35/3/4 65/3/4 64/3/4
f 61/3/6 64/3/6 65/3/6 56/3/6
f 62/3/5 36/3/5 35/3/5 63/3/5
f 66/2/2 67/2/2 68/2/2 69/2/2
f 33/2/3 55/2/3 67/2/3 66/2/3
f 34/2/4 69/2/4 68/2/4 70/2/4
f 55/2/6 70/2/6 68/2/6 67/2/6
f 33/2/5 66/2/5 69/2/5 34/2/5
f 71/4/2 72/4/2 73/4/2 74/4/2
f 75/4/1 76/4/1 77/4/1 78/4/1
f 75/4/3 78/4/3 72/4/3 71/4/3
f 76/4/4 74/4/4 73/4/4 77/4/4
f 75/4/5 71/4/5 74/4/5 76/4/5
f 34/2/2 70/2/2 79/2/2 40/2/2
f 35/2/1 39/2/1 80/2/1 65/2/1
f 39/2/4 40/2/4 79/2/4 80/2/4
f 65/2/6 80/2/6 79/2/6 70/2/6
f 35/2/5 34/2/5 40/2/5 39/2/5
f 39/2/2 80/2/2 81/2/2 42/2/2
f 38/2/1 37/2/1 82/2/1 83/2/1
f 38/2/3 83/2/3 80/2/3 39/2/3
f 37/2/4 42/2/4 81/2/4 82/2/4
f 52/2/2 84/2/2 85/2/2 53/2/2
f 49/2/1 50/2/1 86/2/1 87/2/1
f 49/2/3 87/2/3 84/2/3 52/2/3
f 50/2/4 53/2/4 85/2/4 86/2/4
f 87/2/6 86/2/6 85/2/6 84/2/6
f 88/4/2 89/4/2 90/4/2 91/4/2
f 92/4/1 93/4/1 94/4/1 95/4/1
f 92/4/3 95/4/3 89/4/3 88/4/3
f 95/4/6 94/4/6 90/4/6 89/4/6
f 92/4/5 88/4/5 91/4/5 93/4/5
f 93/3/1 78/3/1 96/3/1 94/3/1
f 93/3/5 91/3/5 72/3/5 78/3/5
f 91/3/3 90/3/3 97/3/3 98/3/3
f 91/3/5 98/3/5 99/3/5 72/3/5
f 98/3/3 97/3/3 100/3/3 101/3/3
f 98/3/5 101/3/5 102/3/5 99/3/5
f 101/3/3 100/3/3 103/3/3 60/3/3
f 101/3/5 60/3/5 59/3/5 102/3/5
f 61/3/2 104/3/2 105/3/2 64/3/2
f 60/3/3 103/3/3 104/3/3 61/3/3
f 59/3/4 64/3/4 105/3/4 106/3/4
f 103/3/6 106/3/6 105/3/6 104/3/6
f 55/1/2 107/1/2 108/1/2 70/1/2
f 56/1/1 65/1/1 109/1/1 110/1/1
f 56/1/3 110/1/3 107/1/3 55/1/3
f 65/1/4 70/1/4 108/1/4 109/1/4
f 110/1/6 109/1/6 108/1/6 107/1/6
f 78/4/1 77/4/1 111/4/1 96/4/1
f 77/4/4 73/4/4 112/4/4 111/4/4
f 73/4/4 113/4/4 114/4/4 112/4/4
f 72/4/5 99/4/5 113/4/5 73/4/5
f 113/4/4 115/4/4 116/4/4 114/4/4
f 99/4/5 102/4/5 115/4/5 113/4/5
f 59/3/2 106/3/2 117/3/2 118/3/2
f 102/3/5 59/3/5 118/3/5 115/3/5
f 115/4/1 119/4/1 120/4/1 116/4/1
f 119/4/4 121/4/4 122/4/4 120/4/4
f 116/4/6 120/4/6 122/4/6 117/4/6
f 115/4/5 118/4/5 121/4/5 119/4/5
f 118/4/3 117/4/3 123/4/3 83/4/3
f 121/4/4 82/4/4 124/4/4 122/4/4
f 117/4/6 122/4/6 124/4/6 123/4/6
f 118/4/5 83/4/5 82/4/5 121/4/5
f 83/2/3 123/2/3 125/2/3 80/2/3
f 123/2/6 124/2/6 126/2/6 125/2/6
f 79/1/2 127/1/2 128/1/2 129/1/2
f 80/1/3 125/1/3 127/1/3 79/1/3
f 125/1/6 126/1/6 128/1/6 127/1/6
f 80/1/5 79/1/5 129/1/5 81/1/5
f 82/1/1 130/1/1 131/1/1 124/1/1
f 130/1/4 132/1/4 133/1/4 131/1/4
f 124/1/6 131/1/6 133/1/6 126/1/6
f 82/1/5 81/1/5 132/1/5 130/1/5
f 129/2/2 128/2/2 134/2/2 135/2/2
f 132/2/4 135/2/4 134/2/4 133/2/4
f 126/2/6 133/2/6 134/2/6 128/2/6
f 81/2/5 129/2/5 135/2/5 132/2/5
f 136/1/1 137/1/1 138/1/1 139/1/1
f 136/1/3 139/1/3 140/1/3 141/1/3
f 139/1/6 138/1/6 142/1/6 140/1/6
f 136/1/5 141/1/5 143/1/5 137/1/5
f 144/1/2 145/1/2 146/1/2 87/1/2
f 141/1/3 140/1/3 145/1/3 144/1/3
f 140/1/6 142/1/6 146/1/6 145/1/6
f 141/1/5 144/1/5 87/1/5 143/1/5
f 137/2/1 147/2/1 148/2/1 138/2/1
f 137/2/5 143/2/5 149/2/5 147/2/5
f 87/2/2 146/2/2 150/2/2 86/2/2
f 142/2/6 151/2/6 150/2/6 146/2/6
f 143/2/5 87/2/5 86/2/5 149/2/5
f 152/4/1 100/4/1 153/4/1 154/4/1
f 152/4/3 154/4/3 155/4/3 156/4/3
f 154/4/6 153/4/6 157/4/6 155/4/6
f 152/4/5 156/4/5 103/4/5 100/4/5
f 156/4/3 155/4/3 148/4/3 147/4/3
f 103/4/4 104/4/4 158/4/4 157/4/4
f 155/4/6 157/4/6 158/4/6 148/4/6
f 156/4/5 147/4/5 104/4/5 103/4/5
f 104/2/4 110/2/4 159/2/4 158/2/4
f 147/2/5 149/2/5 110/2/5 104/2/5
f 86/1/2 150/1/2 160/1/2 107/1/2
f 110/1/4 107/1/4 160/1/4 159/1/4
f 151/1/6 159/1/6 160/1/6 150/1/6
f 149/1/5 86/1/5 107/1/5 110/1/5
f 94/4/1 96/4/1 161/4/1 162/4/1
f 94/4/3 162/4/3 163/4/3 90/4/3
f 90/4/3 163/4/3 164/4/3 97/4/3
f 163/4/6 165/4/6 166/4/6 164/4/6
f 97/4/3 164/4/3 153/4/3 100/4/3
f 164/4/6 166/4/6 167/4/6 153/4/6
f 103/3/2 157/3/2 168/3/2 106/3/2
f 153/3/6 167/3/6 168/3/6 157/3/6
f 96/3/1 111/3/1 169/3/1 161/3/1
f 161/3/6 169/3/6 170/3/6 165/3/6
f 112/3/4 114/3/4 171/3/4 170/3/4
f 165/3/6 170/3/6 171/3/6 166/3/6
f 114/3/4 116/3/4 172/3/4 171/3/4
f 166/3/6 171/3/6 172/3/6 167/3/6
f 116/3/4 117/3/4 173/3/4 172/3/4
f 167/3/6 172/3/6 173/3/6 168/3/6
f 105/4/2 174/4/2 175/4/2 123/4/2
f 106/4/3 168/4/3 174/4/3 105/4/3
f 117/4/4 123/4/4 175/4/4 173/4/4
f 106/4/5 105/4/5 123/4/5 117/4/5
f 109/1/1 125/1/1 176/1/1 177/1/1
f 109/1/3 177/1/3 178/1/3 108/1/3
f 125/1/4 127/1/4 179/1/4 176/1/4
f 109/1/5 108/1/5 127/1/5 125/1/5
f 180/2/2 181/2/2 182/2/2 183/2/2
f 108/2/3 178/2/3 181/2/3 180/2/3
f 127/2/4 183/2/4 182/2/4 179/2/4
f 108/2/5 180/2/5 183/2/5 127/2/5
f 112/3/2 170/3/2 184/3/2 185/3/2
f 111/3/1 186/3/1 187/3/1 169/3/1
f 186/3/4 185/3/4 184/3/4 187/3/4
f 169/3/6 187/3/6 184/3/6 170/3/6
f 111/3/5 112/3/5 185/3/5 186/3/5
f 142/2/2 188/2/2 189/2/2 151/2/2
f 138/2/1 148/2/1 190/2/1 191/2/1
f 138/2/3 191/2/3 188/2/3 142/2/3
f 191/2/6 190/2/6 189/2/6 188/2/6
f 151/2/2 189/2/2 192/2/2 159/2/2
f 148/2/1 158/2/1 193/2/1 190/2/1
f 158/2/4 159/2/4 192/2/4 193/2/4
f 163/4/2 194/4/2 195/4/2 165/4/2
f 162/4/1 161/4/1 196/4/1 197/4/1
f 162/4/3 197/4/3 194/4/3 163/4/3
f 161/4/4 165/4/4 195/4/4 196/4/4
f 197/4/6 196/4/6 195/4/6 194/4/6
f 159/2/1 177/2/1 198/2/1 192/2/1
f 159/2/3 192/2/3 199/2/3 160/2/3
f 192/2/6 198/2/6 200/2/6 199/2/6
f 159/2/5 160/2/5 178/2/5 177/2/5
f 201/1/2 202/1/2 203/1/2 181/1/2
f 160/1/3 199/1/3 202/1/3 201/1/3
f 199/1/6 200/1/6 203/1/6 202/1/6
f 160/1/5 201/1/5 181/1/5 178/1/5
f 168/4/1 173/4/1 204/4/1 205/4/1
f 168/4/3 205/4/3 206/4/3 174/4/3
f 173/4/4 175/4/4 207/4/4 204/4/4
f 205/4/6 204/4/6 207/4/6 206/4/6
f 174/4/3 206/4/3 198/4/3 177/4/3
f 175/4/4 176/4/4 208/4/4 207/4/4
f 206/4/6 207/4/6 208/4/6 198/4/6
f 174/4/5 177/4/5 176/4/5 175/4/5
f 181/2/2 203/2/2 209/2/2 182/2/2
f 179/2/4 182/2/4 209/2/4 210/2/4
f 200/2/6 210/2/6 209/2/6 203/2/6
f 179/2/2 210/2/2 211/2/2 212/2/2
f 176/2/1 213/2/1 214/2/1 208/2/1
f 208/2/6 214/2/6 211/2/6 210/2/6
f 176/2/5 179/2/5 212/2/5 213/2/5
f 212/1/2 211/1/2 215/1/2 216/1/2
f 213/1/1 217/1/1 218/1/1 214/1/1
f 213/1/5 212/1/5 216/1/5 217/1/5
f 216/2/2 215/2/2 219/2/2 220/2/2
f 217/2/1 221/2/1 222/2/1 218/2/1
f 221/2/4 220/2/4 219/2/4 222/2/4
f 218/2/6 222/2/6 219/2/6 215/2/6
f 217/2/5 216/2/5 220/2/5 221/2/5
f 189/1/2 223/1/2 224/1/2 192/1/2
f 190/1/1 193/1/1 225/1/1 226/1/1
f 190/1/3 226/1/3 223/1/3 189/1/3
f 193/1/4 192/1/4 224/1/4 225/1/4
f 200/1/2 227/1/2 228/1/2 210/1/2
f 198/1/1 208/1/1 229/1/1 230/1/1
f 198/1/3 230/1/3 227/1/3 200/1/3
f 208/1/4 210/1/4 228/1/4 229/1/4
f 211/1/2 231/1/2 232/1/2 215/1/2
f 214/1/1 218/1/1 233/1/1 234/1/1
f 214/1/3 234/1/3 231/1/3 211/1/3
f 218/1/4 215/1/4 232/1/4 233/1/4
f 234/1/6 233/1/6 232/1/6 231/1/6
f 235/2/2 236/2/2 237/2/2 238/2/2
f 239/2/1 223/2/1 240/2/1 241/2/1
f 239/2/3 241/2/3 236/2/3 235/2/3
f 241/2/6 240/2/6 237/2/6 236/2/6
f 239/2/5 235/2/5 238/2/5 223/2/5
f 226/1/1 225/1/1 242/1/1 243/1/1
f 226/1/3 243/1/3 240/1/3 223/1/3
f 243/1/6 242/1/6 244/1/6 240/1/6
f 238/2/2 237/2/2 245/2/2 246/2/2
f 224/2/4 246/2/4 245/2/4 244/2/4
f 240/2/6 244/2/6 245/2/6 237/2/6
f 223/2/5 238/2/5 246/2/5 224/2/5
f 224/2/2 244/2/2 247/2/2 230/2/2
f 225/2/1 248/2/1 249/2/1 242/2/1
f 248/2/4 230/2/4 247/2/4 249/2/4
f 242/2/6 249/2/6 247/2/6 244/2/6
f 225/2/5 224/2/5 230/2/5 248/2/5
f 230/2/1 229/2/1 250/2/1 247/2/1
f 230/2/3 247/2/3 251/2/3 227/2/3
f 229/2/4 228/2/4 252/2/4 250/2/4
f 247/2/6 250/2/6 252/2/6 251/2/6
f 253/2/2 254/2/2 255/2/2 256/2/2
f 227/2/3 251/2/3 254/2/3 253/2/3
f 228/2/4 256/2/4 255/2/4 252/2/4
f 251/2/6 252/2/6 255/2/6 254/2/6
f 227/2/5 253/2/5 256/2/5 228/2/5
