mtllib Drago_Carlos_Ernesto_Correa_Rodríguez_fase_2.mtl
o Drago_Carlos_Ernesto_Correa_Rodríguez_fase_2
v -4.0000 1.0000 1.0000
v -3.0000 1.0000 1.0000
v -3.0000 1.0000 -0.0000
v -4.0000 1.0000 -0.0000
v -4.0000 0.0000 1.0000
v -4.0000 0.0000 -0.0000
v -3.0000 0.0000 -0.0000
v -3.0000 0.0000 1.0000
v -2.0000 0.0000 -0.0000
v -2.0000 0.0000 1.0000
v -2.0000 1.0000 1.0000
v -3.0000 2.0000 1.0000
v -2.0000 2.0000 1.0000
v -2.0000 2.0000 -0.0000
v -3.0000 2.0000 -0.0000
v -3.0000 0.0000 -1.0000
v -2.0000 0.0000 -1.0000
v -3.0000 1.0000 -1.0000
v -2.0000 1.0000 -1.0000
v -2.0000 2.0000 -1.0000
v -3.0000 2.0000 -1.0000
v -2.0000 2.0000 -2.0000
v -3.0000 2.0000 -2.0000
v -3.0000 1.0000 -2.0000
v -2.0000 1.0000 -2.0000
v -2.0000 -5.0000 2.0000
v -2.0000 -5.0000 1.0000
v -1.0000 -5.0000 1.0000
v -1.0000 -5.0000 2.0000
v -1.0000 -4.0000 2.0000
v -2.0000 -4.0000 2.0000
v -2.0000 -4.0000 1.0000
v -1.0000 -3.0000 2.0000
v -2.0000 -3.0000 2.0000
v -2.0000 -3.0000 1.0000
v -2.0000 -2.0000 2.0000
v -1.0000 -2.0000 2.0000
v -1.0000 -2.0000 1.0000
v -2.0000 -2.0000 1.0000
v -2.0000 -5.0000 -0.0000
v -1.0000 -5.0000 -0.0000
v -2.0000 -4.0000 -0.0000
v -2.0000 -3.0000 -0.0000
v -2.0000 -2.0000 -0.0000
v -1.0000 -1.0000 1.0000
v -2.0000 -1.0000 1.0000
v -2.0000 -1.0000 -0.0000
v -1.0000 0.0000 1.0000
v -1.0000 1.0000 1.0000
v -1.0000 0.0000 -0.0000
v -1.0000 1.0000 -0.0000
v -1.0000 2.0000 1.0000
v -1.0000 2.0000 -0.0000
v -2.0000 3.0000 1.0000
v -1.0000 3.0000 1.0000
v -1.0000 3.0000 -0.0000
v -2.0000 3.0000 -0.0000
v -2.0000 -5.0000 -1.0000
v -1.0000 -5.0000 -1.0000
v -2.0000 -4.0000 -1.0000
v -1.0000 -4.0000 -1.0000
v -2.0000 -3.0000 -1.0000
v -2.0000 -2.0000 -1.0000
v -1.0000 -2.0000 -1.0000
v -1.0000 -3.0000 -1.0000
v -2.0000 -1.0000 -1.0000
v -1.0000 -1.0000 -1.0000
v -1.0000 1.0000 -1.0000
v -1.0000 0.0000 -1.0000
v -1.0000 2.0000 -1.0000
v -1.0000 3.0000 -1.0000
v -2.0000 3.0000 -1.0000
v -1.0000 -3.0000 -2.0000
v -2.0000 -3.0000 -2.0000
v -2.0000 -4.0000 -2.0000
v -1.0000 -4.0000 -2.0000
v -1.0000 0.0000 -2.0000
v -2.0000 0.0000 -2.0000
v -2.0000 -1.0000 -2.0000
v -1.0000 -1.0000 -2.0000
v -1.0000 3.0000 -2.0000
v -2.0000 3.0000 -2.0000
v -1.0000 2.0000 -2.0000
v 0.0000 -5.0000 1.0000
v 0.0000 -5.0000 2.0000
v 0.0000 -4.0000 2.0000
v 0.0000 -3.0000 2.0000
v 0.0000 -2.0000 2.0000
v 0.0000 -2.0000 1.0000
v 0.0000 -5.0000 -0.0000
v 0.0000 -1.0000 1.0000
v 0.0000 0.0000 1.0000
v 0.0000 0.0000 -0.0000
v 0.0000 3.0000 1.0000
v 0.0000 3.0000 -0.0000
v 0.0000 2.0000 -0.0000
v 0.0000 2.0000 1.0000
v 0.0000 -5.0000 -1.0000
v 0.0000 -1.0000 -1.0000
v 0.0000 -2.0000 -1.0000
v 0.0000 0.0000 -1.0000
v 0.0000 3.0000 -1.0000
v 0.0000 2.0000 -1.0000
v -1.0000 -5.0000 -2.0000
v 0.0000 -5.0000 -2.0000
v 0.0000 -4.0000 -2.0000
v 0.0000 -3.0000 -2.0000
v 0.0000 -2.0000 -2.0000
v -1.0000 -2.0000 -2.0000
v 0.0000 -4.0000 3.0000
v 1.0000 -4.0000 2.0000
v 1.0000 -4.0000 3.0000
v 1.0000 -3.0000 3.0000
v 0.0000 -3.0000 3.0000
v 1.0000 -3.0000 2.0000
v 0.0000 -2.0000 3.0000
v 1.0000 -2.0000 3.0000
v 1.0000 -2.0000 2.0000
v 1.0000 -5.0000 1.0000
v 1.0000 -5.0000 2.0000
v 1.0000 -2.0000 1.0000
v 1.0000 -5.0000 -0.0000
v 1.0000 -1.0000 1.0000
v 1.0000 -2.0000 -0.0000
v 1.0000 -1.0000 -0.0000
v 1.0000 0.0000 1.0000
v 1.0000 0.0000 -0.0000
v 1.0000 -5.0000 -1.0000
v 1.0000 -1.0000 -1.0000
v 1.0000 -2.0000 -1.0000
v 1.0000 0.0000 -1.0000
v 1.0000 -5.0000 -2.0000
v 1.0000 -4.0000 -2.0000
v 1.0000 -3.0000 -2.0000
v 1.0000 -2.0000 -2.0000
v 1.0000 0.0000 -2.0000
v 0.0000 0.0000 -2.0000
v 0.0000 -1.0000 -2.0000
v 1.0000 -1.0000 -2.0000
v 2.0000 -2.0000 3.0000
v 2.0000 -2.0000 2.0000
v 2.0000 -3.0000 2.0000
v 2.0000 -3.0000 3.0000
v 2.0000 -5.0000 1.0000
v 2.0000 -5.0000 2.0000
v 2.0000 -4.0000 2.0000
v 2.0000 -4.0000 1.0000
v 2.0000 -3.0000 1.0000
v 2.0000 -2.0000 1.0000
v 2.0000 -5.0000 -0.0000
v 2.0000 -4.0000 -0.0000
v 2.0000 -2.0000 -0.0000
v 2.0000 -3.0000 -0.0000
v 2.0000 -1.0000 -0.0000
v 2.0000 -1.0000 1.0000
v 2.0000 0.0000 1.0000
v 2.0000 0.0000 -0.0000
v 1.0000 1.0000 1.0000
v 2.0000 1.0000 1.0000
v 2.0000 1.0000 -0.0000
v 1.0000 1.0000 -0.0000
v 2.0000 -5.0000 -1.0000
v 2.0000 -4.0000 -1.0000
v 2.0000 -3.0000 -1.0000
v 2.0000 -2.0000 -1.0000
v 2.0000 -1.0000 -1.0000
v 2.0000 0.0000 -1.0000
v 2.0000 1.0000 -1.0000
v 1.0000 1.0000 -1.0000
v 1.0000 3.0000 -0.0000
v 2.0000 3.0000 -0.0000
v 2.0000 3.0000 -1.0000
v 1.0000 3.0000 -1.0000
v 1.0000 2.0000 -0.0000
v 1.0000 2.0000 -1.0000
v 2.0000 2.0000 -1.0000
v 2.0000 2.0000 -0.0000
v 2.0000 -5.0000 -2.0000
v 2.0000 -4.0000 -2.0000
v 2.0000 -3.0000 -2.0000
v 2.0000 -2.0000 -2.0000
v 2.0000 2.0000 -2.0000
v 1.0000 2.0000 -2.0000
v 1.0000 1.0000 -2.0000
v 2.0000 1.0000 -2.0000
v 3.0000 -2.0000 2.0000
v 3.0000 -2.0000 1.0000
v 3.0000 -3.0000 1.0000
v 3.0000 -3.0000 2.0000
v 2.0000 0.0000 2.0000
v 3.0000 0.0000 1.0000
v 3.0000 0.0000 2.0000
v 3.0000 1.0000 2.0000
v 2.0000 1.0000 2.0000
v 2.0000 2.0000 2.0000
v 3.0000 2.0000 2.0000
v 3.0000 2.0000 1.0000
v 2.0000 2.0000 1.0000
v 3.0000 -3.0000 -0.0000
v 3.0000 -4.0000 -0.0000
v 3.0000 -4.0000 1.0000
v 3.0000 0.0000 -0.0000
v 3.0000 2.0000 -0.0000
v 3.0000 -3.0000 -1.0000
v 3.0000 -4.0000 -1.0000
v 3.0000 -1.0000 -1.0000
v 3.0000 -1.0000 -0.0000
v 3.0000 0.0000 -1.0000
v 3.0000 1.0000 -1.0000
v 3.0000 1.0000 -0.0000
v 3.0000 2.0000 -1.0000
v 3.0000 3.0000 -0.0000
v 3.0000 3.0000 -1.0000
v 2.0000 0.0000 -2.0000
v 3.0000 0.0000 -2.0000
v 3.0000 1.0000 -2.0000
v 3.0000 2.0000 -2.0000
v 3.0000 3.0000 -2.0000
v 2.0000 3.0000 -2.0000
v 2.0000 0.0000 -3.0000
v 3.0000 0.0000 -3.0000
v 2.0000 1.0000 -3.0000
v 3.0000 1.0000 -3.0000
v 3.0000 2.0000 -3.0000
v 2.0000 2.0000 -3.0000
v 3.0000 3.0000 -3.0000
v 2.0000 3.0000 -3.0000
v 2.0000 1.0000 -4.0000
v 3.0000 1.0000 -4.0000
v 3.0000 2.0000 -4.0000
v 2.0000 2.0000 -4.0000
v 3.0000 3.0000 -4.0000
v 2.0000 3.0000 -4.0000
v 2.0000 1.0000 -5.0000
v 3.0000 1.0000 -5.0000
v 2.0000 2.0000 -5.0000
v 3.0000 2.0000 -5.0000
v 3.0000 3.0000 -5.0000
v 2.0000 3.0000 -5.0000
v 4.0000 0.0000 1.0000
v 4.0000 0.0000 2.0000
v 4.0000 1.0000 2.0000
v 4.0000 1.0000 1.0000
v 4.0000 2.0000 2.0000
v 4.0000 2.0000 1.0000
v 3.0000 3.0000 2.0000
v 4.0000 3.0000 2.0000
v 4.0000 3.0000 1.0000
v 3.0000 3.0000 1.0000
v 4.0000 0.0000 -0.0000
v 4.0000 1.0000 -0.0000
v 4.0000 2.0000 -0.0000
v 4.0000 3.0000 -0.0000
v 4.0000 3.0000 -1.0000
v 4.0000 2.0000 -1.0000
vt 0.001953 0.500000
vt 0.005859 0.500000
vt 0.009766 0.500000
vt 0.013672 0.500000
vt 0.017578 0.500000
vt 0.021484 0.500000
vt 0.025391 0.500000
vn 0.0 -1.0 0.0
vn 0.0 1.0 0.0
vn 0.0 0.0 1.0
vn 0.0 0.0 -1.0
vn -1.0 0.0 0.0
vn 1.0 0.0 0.0
usemtl mat_Drago_Carlos_Ernesto_Correa_Rodríguez_fase_2
s off
f 1/1/2 2/1/2 3/1/2 4/1/2
f 5/1/1 6/1/1 7/1/1 8/1/1
f 5/1/3 8/1/3 2/1/3 1/1/3
f 6/1/4 4/1/4 3/1/4 7/1/4
f 5/1/5 1/1/5 4/1/5 6/1/5
f 8/2/1 7/2/1 9/2/1 10/2/1
f 8/2/3 10/2/3 11/2/3 2/2/3
f 12/2/2 13/2/2 14/2/2 15/2/2
f 2/2/3 11/2/3 13/2/3 12/2/3
f 2/2/5 12/2/5 15/2/5 3/2/5
f 7/2/1 16/2/1 17/2/1 9/2/1
f 16/2/4 18/2/4 19/2/4 17/2/4
f 7/2/5 3/2/5 18/2/5 16/2/5
f 15/2/2 14/2/2 20/2/2 21/2/2
f 3/2/5 15/2/5 21/2/5 18/2/5
f 21/1/2 20/1/2 22/1/2 23/1/2
f 18/1/1 24/1/1 25/1/1 19/1/1
f 24/1/4 23/1/4 22/1/4 25/1/4
f 19/1/6 25/1/6 22/1/6 20/1/6
f 18/1/5 21/1/5 23/1/5 24/1/5
f 26/3/1 27/3/1 28/3/1 29/3/1
f 26/3/3 29/3/3 30/3/3 31/3/3
f 26/3/5 31/3/5 32/3/5 27/3/5
f 31/4/3 30/4/3 33/4/3 34/4/3
f 31/4/5 34/4/5 35/4/5 32/4/5
f 36/3/2 37/3/2 38/3/2 39/3/2
f 34/3/3 33/3/3 37/3/3 36/3/3
f 34/3/5 36/3/5 39/3/5 35/3/5
f 27/5/1 40/5/1 41/5/1 28/5/1
f 27/5/5 32/5/5 42/5/5 40/5/5
f 32/4/5 35/4/5 43/4/5 42/4/5
f 35/4/5 39/4/5 44/4/5 43/4/5
f 39/3/3 38/3/3 45/3/3 46/3/3
f 39/3/5 46/3/5 47/3/5 44/3/5
f 46/2/3 45/2/3 48/2/3 10/2/3
f 46/2/5 10/2/5 9/2/5 47/2/5
f 10/3/3 48/3/3 49/3/3 11/3/3
f 48/3/6 50/3/6 51/3/6 49/3/6
f 11/2/3 49/2/3 52/2/3 13/2/3
f 49/2/6 51/2/6 53/2/6 52/2/6
f 54/2/2 55/2/2 56/2/2 57/2/2
f 13/2/3 52/2/3 55/2/3 54/2/3
f 13/2/5 54/2/5 57/2/5 14/2/5
f 40/5/1 58/5/1 59/5/1 41/5/1
f 58/5/4 60/5/4 61/5/4 59/5/4
f 40/5/5 42/5/5 60/5/5 58/5/5
f 42/4/5 43/4/5 62/4/5 60/4/5
f 62/4/4 63/4/4 64/4/4 65/4/4
f 43/4/5 44/4/5 63/4/5 62/4/5
f 63/3/4 66/3/4 67/3/4 64/3/4
f 44/3/5 47/3/5 66/3/5 63/3/5
f 47/2/5 9/2/5 17/2/5 66/2/5
f 17/3/4 19/3/4 68/3/4 69/3/4
f 50/3/6 69/3/6 68/3/6 51/3/6
f 19/2/4 20/2/4 70/2/4 68/2/4
f 51/2/6 68/2/6 70/2/6 53/2/6
f 57/2/2 56/2/2 71/2/2 72/2/2
f 14/2/5 57/2/5 72/2/5 20/2/5
f 62/5/2 65/5/2 73/5/2 74/5/2
f 60/5/1 75/5/1 76/5/1 61/5/1
f 75/5/4 74/5/4 73/5/4 76/5/4
f 60/5/5 62/5/5 74/5/5 75/5/5
f 17/1/2 69/1/2 77/1/2 78/1/2
f 66/1/1 79/1/1 80/1/1 67/1/1
f 79/1/4 78/1/4 77/1/4 80/1/4
f 67/1/6 80/1/6 77/1/6 69/1/6
f 66/1/5 17/1/5 78/1/5 79/1/5
f 72/1/2 71/1/2 81/1/2 82/1/2
f 20/1/1 22/1/1 83/1/1 70/1/1
f 22/1/4 82/1/4 81/1/4 83/1/4
f 70/1/6 83/1/6 81/1/6 71/1/6
f 20/1/5 72/1/5 82/1/5 22/1/5
f 29/4/1 28/4/1 84/4/1 85/4/1
f 29/4/3 85/4/3 86/4/3 30/4/3
f 30/4/3 86/4/3 87/4/3 33/4/3
f 37/6/2 88/6/2 89/6/2 38/6/2
f 33/6/3 87/6/3 88/6/3 37/6/3
f 28/5/1 41/5/1 90/5/1 84/5/1
f 38/2/3 89/2/3 91/2/3 45/2/3
f 48/2/2 92/2/2 93/2/2 50/2/2
f 45/2/3 91/2/3 92/2/3 48/2/3
f 55/2/2 94/2/2 95/2/2 56/2/2
f 52/2/1 53/2/1 96/2/1 97/2/1
f 52/2/3 97/2/3 94/2/3 55/2/3
f 97/2/6 96/2/6 95/2/6 94/2/6
f 41/5/1 59/5/1 98/5/1 90/5/1
f 64/2/4 67/2/4 99/2/4 100/2/4
f 50/2/2 93/2/2 101/2/2 69/2/2
f 67/2/4 69/2/4 101/2/4 99/2/4
f 56/2/2 95/2/2 102/2/2 71/2/2
f 53/2/1 70/2/1 103/2/1 96/2/1
f 70/2/4 71/2/4 102/2/4 103/2/4
f 96/2/6 103/2/6 102/2/6 95/2/6
f 59/5/1 104/5/1 105/5/1 98/5/1
f 104/5/4 76/5/4 106/5/4 105/5/4
f 59/5/5 61/5/5 76/5/5 104/5/5
f 76/4/4 73/4/4 107/4/4 106/4/4
f 64/4/2 100/4/2 108/4/2 109/4/2
f 73/4/4 109/4/4 108/4/4 107/4/4
f 65/4/5 64/4/5 109/4/5 73/4/5
f 110/3/1 86/3/1 111/3/1 112/3/1
f 110/3/3 112/3/3 113/3/3 114/3/3
f 112/3/6 111/3/6 115/3/6 113/3/6
f 110/3/5 114/3/5 87/3/5 86/3/5
f 116/3/2 117/3/2 118/3/2 88/3/2
f 114/3/3 113/3/3 117/3/3 116/3/3
f 114/3/5 116/3/5 88/3/5 87/3/5
f 85/4/1 84/4/1 119/4/1 120/4/1
f 85/4/3 120/4/3 111/4/3 86/4/3
f 88/6/2 118/6/2 121/6/2 89/6/2
f 84/5/1 90/5/1 122/5/1 119/5/1
f 89/2/3 121/2/3 123/2/3 91/2/3
f 121/2/6 124/2/6 125/2/6 123/2/6
f 92/2/2 126/2/2 127/2/2 93/2/2
f 91/2/3 123/2/3 126/2/3 92/2/3
f 90/5/1 98/5/1 128/5/1 122/5/1
f 100/2/4 99/2/4 129/2/4 130/2/4
f 93/2/2 127/2/2 131/2/2 101/2/2
f 98/5/1 105/5/1 132/5/1 128/5/1
f 105/5/4 106/5/4 133/5/4 132/5/4
f 106/4/4 107/4/4 134/4/4 133/4/4
f 100/4/2 130/4/2 135/4/2 108/4/2
f 107/4/4 108/4/4 135/4/4 134/4/4
f 101/7/2 131/7/2 136/7/2 137/7/2
f 99/7/1 138/7/1 139/7/1 129/7/1
f 138/7/4 137/7/4 136/7/4 139/7/4
f 129/7/6 139/7/6 136/7/6 131/7/6
f 99/7/5 101/7/5 137/7/5 138/7/5
f 117/3/2 140/3/2 141/3/2 118/3/2
f 113/3/1 115/3/1 142/3/1 143/3/1
f 113/3/3 143/3/3 140/3/3 117/3/3
f 143/3/6 142/3/6 141/3/6 140/3/6
f 120/3/1 119/3/1 144/3/1 145/3/1
f 120/3/3 145/3/3 146/3/3 111/3/3
f 145/3/6 144/3/6 147/3/6 146/3/6
f 111/1/3 146/1/3 142/1/3 115/1/3
f 146/1/6 147/1/6 148/1/6 142/1/6
f 118/1/2 141/1/2 149/1/2 121/1/2
f 119/4/1 122/4/1 150/4/1 144/4/1
f 144/4/6 150/4/6 151/4/6 147/4/6
f 121/1/2 149/1/2 152/1/2 124/1/2
f 148/1/6 153/1/6 152/1/6 149/1/6
f 123/1/1 125/1/1 154/1/1 155/1/1
f 123/1/3 155/1/3 156/1/3 126/1/3
f 155/1/6 154/1/6 157/1/6 156/1/6
f 158/2/2 159/2/2 160/2/2 161/2/2
f 126/2/3 156/2/3 159/2/3 158/2/3
f 126/2/5 158/2/5 161/2/5 127/2/5
f 122/4/1 128/4/1 162/4/1 150/4/1
f 150/4/6 162/4/6 163/4/6 151/4/6
f 153/6/6 164/6/6 165/6/6 152/6/6
f 124/1/3 152/1/3 154/1/3 125/1/3
f 130/1/4 129/1/4 166/1/4 165/1/4
f 152/1/6 165/1/6 166/1/6 154/1/6
f 129/2/4 131/2/4 167/2/4 166/2/4
f 161/2/2 160/2/2 168/2/2 169/2/2
f 131/2/4 169/2/4 168/2/4 167/2/4
f 127/2/5 161/2/5 169/2/5 131/2/5
f 170/1/2 171/1/2 172/1/2 173/1/2
f 174/1/1 175/1/1 176/1/1 177/1/1
f 174/1/3 177/1/3 171/1/3 170/1/3
f 175/1/4 173/1/4 172/1/4 176/1/4
f 174/1/5 170/1/5 173/1/5 175/1/5
f 128/7/1 132/7/1 178/7/1 162/7/1
f 132/7/4 133/7/4 179/7/4 178/7/4
f 162/7/6 178/7/6 179/7/6 163/7/6
f 133/1/4 134/1/4 180/1/4 179/1/4
f 163/1/6 179/1/6 180/1/6 164/1/6
f 130/7/2 165/7/2 181/7/2 135/7/2
f 134/7/4 135/7/4 181/7/4 180/7/4
f 164/7/6 180/7/6 181/7/6 165/7/6
f 175/1/2 176/1/2 182/1/2 183/1/2
f 169/1/1 184/1/1 185/1/1 168/1/1
f 169/1/3 168/1/3 176/1/3 175/1/3
f 184/1/4 183/1/4 182/1/4 185/1/4
f 169/1/5 175/1/5 183/1/5 184/1/5
f 141/7/2 186/7/2 187/7/2 149/7/2
f 142/7/1 148/7/1 188/7/1 189/7/1
f 142/7/3 189/7/3 186/7/3 141/7/3
f 148/7/4 149/7/4 187/7/4 188/7/4
f 189/7/6 188/7/6 187/7/6 186/7/6
f 190/2/1 156/2/1 191/2/1 192/2/1
f 190/2/3 192/2/3 193/2/3 194/2/3
f 190/2/5 194/2/5 159/2/5 156/2/5
f 195/3/2 196/3/2 197/3/2 198/3/2
f 194/3/3 193/3/3 196/3/3 195/3/3
f 194/3/5 195/3/5 198/3/5 159/3/5
f 148/7/2 188/7/2 199/7/2 153/7/2
f 147/7/1 151/7/1 200/7/1 201/7/1
f 147/7/3 201/7/3 188/7/3 148/7/3
f 201/7/6 200/7/6 199/7/6 188/7/6
f 156/2/1 157/2/1 202/2/1 191/2/1
f 198/2/2 197/2/2 203/2/2 177/2/2
f 159/2/5 198/2/5 177/2/5 160/2/5
f 153/7/2 199/7/2 204/7/2 164/7/2
f 151/7/1 163/7/1 205/7/1 200/7/1
f 163/7/4 164/7/4 204/7/4 205/7/4
f 200/7/6 205/7/6 204/7/6 199/7/6
f 154/7/1 166/7/1 206/7/1 207/7/1
f 154/7/3 207/7/3 202/7/3 157/7/3
f 166/7/4 167/7/4 208/7/4 206/7/4
f 207/7/6 206/7/6 208/7/6 202/7/6
f 202/2/6 208/2/6 209/2/6 210/2/6
f 210/2/6 209/2/6 211/2/6 203/2/6
f 160/2/5 177/2/5 176/2/5 168/2/5
f 171/3/2 212/3/2 213/3/2 172/3/2
f 177/3/3 203/3/3 212/3/3 171/3/3
f 167/1/1 214/1/1 215/1/1 208/1/1
f 208/1/6 215/1/6 216/1/6 209/1/6
f 167/1/5 168/1/5 185/1/5 214/1/5
f 209/3/6 216/3/6 217/3/6 211/3/6
f 172/3/2 213/3/2 218/3/2 219/3/2
f 211/3/6 217/3/6 218/3/6 213/3/6
f 176/3/5 172/3/5 219/3/5 182/3/5
f 214/7/1 220/7/1 221/7/1 215/7/1
f 220/7/4 222/7/4 223/7/4 221/7/4
f 215/7/6 221/7/6 223/7/6 216/7/6
f 214/7/5 185/7/5 222/7/5 220/7/5
f 216/3/6 223/3/6 224/3/6 217/3/6
f 185/3/5 182/3/5 225/3/5 222/3/5
f 219/3/2 218/3/2 226/3/2 227/3/2
f 217/3/6 224/3/6 226/3/6 218/3/6
f 182/3/5 219/3/5 227/3/5 225/3/5
f 222/1/1 228/1/1 229/1/1 223/1/1
f 223/1/6 229/1/6 230/1/6 224/1/6
f 222/1/5 225/1/5 231/1/5 228/1/5
f 227/3/2 226/3/2 232/3/2 233/3/2
f 224/3/6 230/3/6 232/3/6 226/3/6
f 225/3/5 227/3/5 233/3/5 231/3/5
f 228/1/1 234/1/1 235/1/1 229/1/1
f 234/1/4 236/1/4 237/1/4 235/1/4
f 229/1/6 235/1/6 237/1/6 230/1/6
f 228/1/5 231/1/5 236/1/5 234/1/5
f 233/1/2 232/1/2 238/1/2 239/1/2
f 236/1/4 239/1/4 238/1/4 237/1/4
f 230/1/6 237/1/6 238/1/6 232/1/6
f 231/1/5 233/1/5 239/1/5 236/1/5
f 192/2/1 191/2/1 240/2/1 241/2/1
f 192/2/3 241/2/3 242/2/3 193/2/3
f 241/2/6 240/2/6 243/2/6 242/2/6
f 193/3/3 242/3/3 244/3/3 196/3/3
f 242/3/6 243/3/6 245/3/6 244/3/6
f 246/1/2 247/1/2 248/1/2 249/1/2
f 196/1/3 244/1/3 247/1/3 246/1/3
f 197/1/4 249/1/4 248/1/4 245/1/4
f 244/1/6 245/1/6 248/1/6 247/1/6
f 196/1/5 246/1/5 249/1/5 197/1/5
f 191/2/1 202/2/1 250/2/1 240/2/1
f 202/2/4 210/2/4 251/2/4 250/2/4
f 240/2/6 250/2/6 251/2/6 243/2/6
f 197/2/2 245/2/2 252/2/2 203/2/2
f 210/2/4 203/2/4 252/2/4 251/2/4
f 243/2/6 251/2/6 252/2/6 245/2/6
f 212/1/2 253/1/2 254/1/2 213/1/2
f 203/1/1 211/1/1 255/1/1 252/1/1
f 203/1/3 252/1/3 253/1/3 212/1/3
f 211/1/4 213/1/4 254/1/4 255/1/4
f 252/1/6 255/1/6 254/1/6 253/1/6
