mtllib Drago_Tomas_Mateo_Buitrago_Gutiérrez_fase_2.mtl
o Drago_Tomas_Mateo_Buitrago_Gutiérrez_fase_2
v -2.5000 4.0000 2.5000
v -1.5000 4.0000 2.5000
v -1.5000 4.0000 1.5000
v -2.5000 4.0000 1.5000
v -2.5000 3.0000 2.5000
v -2.5000 3.0000 1.5000
v -1.5000 3.0000 1.5000
v -1.5000 3.0000 2.5000
v -2.5000 -5.0000 1.5000
v -1.5000 -5.0000 1.5000
v -1.5000 -5.0000 0.5000
v -2.5000 -5.0000 0.5000
v -2.5000 -6.0000 1.5000
v -2.5000 -6.0000 0.5000
v -1.5000 -6.0000 0.5000
v -1.5000 -6.0000 1.5000
v -2.5000 2.0000 1.5000
v -2.5000 2.0000 0.5000
v -1.5000 2.0000 0.5000
v -1.5000 2.0000 1.5000
v -2.5000 3.0000 0.5000
v -1.5000 4.0000 0.5000
v -2.5000 4.0000 0.5000
v -2.5000 -6.0000 -0.5000
v -1.5000 -6.0000 -0.5000
v -2.5000 -5.0000 -0.5000
v -2.5000 -4.0000 0.5000
v -1.5000 -4.0000 0.5000
v -1.5000 -4.0000 -0.5000
v -2.5000 -4.0000 -0.5000
v -1.5000 -5.0000 -0.5000
v -2.5000 1.0000 0.5000
v -2.5000 1.0000 -0.5000
v -1.5000 1.0000 -0.5000
v -1.5000 1.0000 0.5000
v -2.5000 2.0000 -0.5000
v -1.5000 2.0000 -0.5000
v -2.5000 3.0000 -0.5000
v -1.5000 4.0000 -0.5000
v -2.5000 4.0000 -0.5000
v -1.5000 -5.0000 -1.5000
v -2.5000 -5.0000 -1.5000
v -2.5000 -6.0000 -1.5000
v -1.5000 -6.0000 -1.5000
v -2.5000 2.0000 -1.5000
v -1.5000 2.0000 -1.5000
v -2.5000 3.0000 -1.5000
v -1.5000 3.0000 -1.5000
v -1.5000 4.0000 -1.5000
v -2.5000 4.0000 -1.5000
v -1.5000 4.0000 -2.5000
v -2.5000 4.0000 -2.5000
v -2.5000 3.0000 -2.5000
v -1.5000 3.0000 -2.5000
v -1.5000 -5.0000 2.5000
v -0.5000 -5.0000 2.5000
v -0.5000 -5.0000 1.5000
v -1.5000 -6.0000 2.5000
v -0.5000 -6.0000 1.5000
v -0.5000 -6.0000 2.5000
v -1.5000 2.0000 2.5000
v -0.5000 2.0000 1.5000
v -0.5000 2.0000 2.5000
v -0.5000 3.0000 2.5000
v -0.5000 4.0000 2.5000
v -0.5000 4.0000 1.5000
v -0.5000 -6.0000 0.5000
v -0.5000 -4.0000 1.5000
v -1.5000 -4.0000 1.5000
v -0.5000 -3.0000 1.5000
v -1.5000 -3.0000 1.5000
v -1.5000 -3.0000 0.5000
v -0.5000 -2.0000 1.5000
v -1.5000 -2.0000 1.5000
v -1.5000 -2.0000 0.5000
v -0.5000 -1.0000 1.5000
v -1.5000 -1.0000 1.5000
v -1.5000 -1.0000 0.5000
v -0.5000 0.0000 1.5000
v -1.5000 0.0000 1.5000
v -1.5000 0.0000 0.5000
v -0.5000 1.0000 1.5000
v -1.5000 1.0000 1.5000
v -1.5000 5.0000 1.5000
v -0.5000 5.0000 1.5000
v -0.5000 5.0000 0.5000
v -1.5000 5.0000 0.5000
v -0.5000 -6.0000 -0.5000
v -0.5000 -4.0000 0.5000
v -0.5000 -4.0000 -0.5000
v -0.5000 -3.0000 -0.5000
v -0.5000 -3.0000 0.5000
v -1.5000 -3.0000 -0.5000
v -0.5000 -2.0000 -0.5000
v -0.5000 -2.0000 0.5000
v -1.5000 -2.0000 -0.5000
v -0.5000 -1.0000 -0.5000
v -0.5000 -1.0000 0.5000
v -1.5000 -1.0000 -0.5000
v -0.5000 0.0000 -0.5000
v -0.5000 0.0000 0.5000
v -1.5000 0.0000 -0.5000
v -0.5000 1.0000 -0.5000
v -0.5000 1.0000 0.5000
v -0.5000 2.0000 -0.5000
v -0.5000 2.0000 0.5000
v -0.5000 3.0000 -0.5000
v -0.5000 3.0000 0.5000
v -0.5000 4.0000 -0.5000
v -0.5000 4.0000 0.5000
v -0.5000 5.0000 -0.5000
v -1.5000 5.0000 -0.5000
v -0.5000 -6.0000 -1.5000
v -1.5000 -4.0000 -1.5000
v -0.5000 -4.0000 -1.5000
v -0.5000 -5.0000 -1.5000
v -1.5000 -3.0000 -1.5000
v -0.5000 -3.0000 -1.5000
v -1.5000 -2.0000 -1.5000
v -0.5000 -2.0000 -1.5000
v -1.5000 -1.0000 -1.5000
v -0.5000 -1.0000 -1.5000
v -1.5000 0.0000 -1.5000
v -0.5000 0.0000 -1.5000
v -1.5000 1.0000 -1.5000
v -0.5000 1.0000 -1.5000
v -0.5000 2.0000 -1.5000
v -0.5000 5.0000 -1.5000
v -1.5000 5.0000 -1.5000
v -0.5000 4.0000 -1.5000
v -0.5000 -5.0000 -2.5000
v -1.5000 -5.0000 -2.5000
v -1.5000 -6.0000 -2.5000
v -0.5000 -6.0000 -2.5000
v -1.5000 2.0000 -2.5000
v -0.5000 2.0000 -2.5000
v -0.5000 3.0000 -2.5000
v -0.5000 4.0000 -2.5000
v 0.5000 -6.0000 1.5000
v 0.5000 -6.0000 2.5000
v 0.5000 -5.0000 2.5000
v -0.5000 -4.0000 2.5000
v 0.5000 -4.0000 2.5000
v 0.5000 -4.0000 1.5000
v 0.5000 -5.0000 1.5000
v -0.5000 1.0000 2.5000
v 0.5000 1.0000 1.5000
v 0.5000 1.0000 2.5000
v 0.5000 2.0000 2.5000
v 0.5000 2.0000 1.5000
v 0.5000 3.0000 2.5000
v 0.5000 4.0000 2.5000
v 0.5000 4.0000 1.5000
v 0.5000 -6.0000 0.5000
v 0.5000 -3.0000 1.5000
v 0.5000 -3.0000 0.5000
v 0.5000 -4.0000 0.5000
v 0.5000 -2.0000 1.5000
v 0.5000 -2.0000 0.5000
v 0.5000 -1.0000 1.5000
v 0.5000 -1.0000 0.5000
v 0.5000 0.0000 1.5000
v 0.5000 0.0000 0.5000
v 0.5000 1.0000 0.5000
v 0.5000 2.0000 0.5000
v 0.5000 3.0000 0.5000
v 0.5000 4.0000 0.5000
v 0.5000 5.0000 1.5000
v 0.5000 5.0000 0.5000
v 0.5000 -6.0000 -0.5000
v 0.5000 -4.0000 -0.5000
v 0.5000 4.0000 -0.5000
v -0.5000 6.0000 0.5000
v 0.5000 6.0000 0.5000
v 0.5000 6.0000 -0.5000
v -0.5000 6.0000 -0.5000
v 0.5000 5.0000 -0.5000
v 0.5000 -6.0000 -1.5000
v 0.5000 -3.0000 -0.5000
v 0.5000 -3.0000 -1.5000
v 0.5000 -4.0000 -1.5000
v 0.5000 -2.0000 -0.5000
v 0.5000 -2.0000 -1.5000
v 0.5000 -1.0000 -0.5000
v 0.5000 -1.0000 -1.5000
v 0.5000 0.0000 -0.5000
v 0.5000 0.0000 -1.5000
v 0.5000 1.0000 -0.5000
v 0.5000 1.0000 -1.5000
v 0.5000 2.0000 -0.5000
v 0.5000 3.0000 -0.5000
v 0.5000 5.0000 -1.5000
v 0.5000 4.0000 -1.5000
v 0.5000 -6.0000 -2.5000
v 0.5000 -5.0000 -2.5000
v 0.5000 -4.0000 -2.5000
v -0.5000 -4.0000 -2.5000
v 0.5000 -5.0000 -1.5000
v -0.5000 1.0000 -2.5000
v 0.5000 1.0000 -2.5000
v 0.5000 2.0000 -2.5000
v 0.5000 2.0000 -1.5000
v 0.5000 3.0000 -2.5000
v 0.5000 4.0000 -2.5000
v 1.5000 -5.0000 2.5000
v 1.5000 -5.0000 1.5000
v 1.5000 -6.0000 1.5000
v 1.5000 -6.0000 2.5000
v 1.5000 2.0000 1.5000
v 1.5000 2.0000 2.5000
v 1.5000 3.0000 2.5000
v 1.5000 3.0000 1.5000
v 1.5000 4.0000 2.5000
v 1.5000 4.0000 1.5000
v 1.5000 -6.0000 0.5000
v 1.5000 -4.0000 1.5000
v 1.5000 -5.0000 0.5000
v 1.5000 -4.0000 0.5000
v 1.5000 -3.0000 1.5000
v 1.5000 -3.0000 0.5000
v 1.5000 -2.0000 1.5000
v 1.5000 -2.0000 0.5000
v 1.5000 -1.0000 1.5000
v 1.5000 -1.0000 0.5000
v 1.5000 0.0000 1.5000
v 1.5000 0.0000 0.5000
v 1.5000 1.0000 1.5000
v 1.5000 1.0000 0.5000
v 1.5000 2.0000 0.5000
v 1.5000 5.0000 1.5000
v 1.5000 5.0000 0.5000
v 1.5000 4.0000 0.5000
v 1.5000 -6.0000 -0.5000
v 1.5000 -4.0000 -0.5000
v 1.5000 -3.0000 -0.5000
v 1.5000 -2.0000 -0.5000
v 1.5000 -1.0000 -0.5000
v 1.5000 0.0000 -0.5000
v 1.5000 1.0000 -0.5000
v 1.5000 5.0000 -0.5000
v 1.5000 4.0000 -0.5000
v 1.5000 -6.0000 -1.5000
v 1.5000 -4.0000 -1.5000
v 1.5000 -5.0000 -1.5000
v 1.5000 -5.0000 -0.5000
v 1.5000 -3.0000 -1.5000
v 1.5000 -2.0000 -1.5000
v 1.5000 -1.0000 -1.5000
v 1.5000 0.0000 -1.5000
v 1.5000 1.0000 -1.5000
v 1.5000 2.0000 -1.5000
v 1.5000 2.0000 -0.5000
v 1.5000 5.0000 -1.5000
v 1.5000 4.0000 -1.5000
v 1.5000 -5.0000 -2.5000
v 1.5000 -6.0000 -2.5000
v 1.5000 2.0000 -2.5000
v 1.5000 3.0000 -2.5000
v 1.5000 3.0000 -1.5000
v 1.5000 4.0000 -2.5000
v 2.5000 4.0000 2.5000
v 2.5000 4.0000 1.5000
v 2.5000 3.0000 1.5000
v 2.5000 3.0000 2.5000
v 2.5000 -5.0000 1.5000
v 2.5000 -5.0000 0.5000
v 2.5000 -6.0000 0.5000
v 2.5000 -6.0000 1.5000
v 2.5000 2.0000 0.5000
v 2.5000 2.0000 1.5000
v 2.5000 3.0000 0.5000
v 2.5000 4.0000 0.5000
v 2.5000 -6.0000 -0.5000
v 2.5000 -5.0000 -0.5000
v 2.5000 -4.0000 0.5000
v 2.5000 -4.0000 -0.5000
v 2.5000 1.0000 -0.5000
v 2.5000 1.0000 0.5000
v 2.5000 2.0000 -0.5000
v 2.5000 3.0000 -0.5000
v 2.5000 4.0000 -0.5000
v 2.5000 -5.0000 -1.5000
v 2.5000 -6.0000 -1.5000
v 2.5000 2.0000 -1.5000
v 2.5000 3.0000 -1.5000
v 2.5000 4.0000 -1.5000
v 2.5000 4.0000 -2.5000
v 2.5000 3.0000 -2.5000
vt 0.001953 0.500000
vt 0.005859 0.500000
vt 0.009766 0.500000
vt 0.013672 0.500000
vt 0.017578 0.500000
vt 0.021484 0.500000
vt 0.025391 0.500000
vt 0.029297 0.500000
vn 0.0 -1.0 0.0
vn 0.0 1.0 0.0
vn 0.0 0.0 1.0
vn 0.0 0.0 -1.0
vn -1.0 0.0 0.0
vn 1.0 0.0 0.0
usemtl mat_Drago_Tomas_Mateo_Buitrago_Gutiérrez_fase_2
s off
f 1/1/2 2/1/2 3/1/2 4/1/2
f 5/1/1 6/1/1 7/1/1 8/1/1
f 5/1/3 8/1/3 2/1/3 1/1/3
f 5/1/5 1/1/5 4/1/5 6/1/5
f 9/2/2 10/2/2 11/2/2 12/2/2
f 13/2/1 14/2/1 15/2/1 16/2/1
f 13/2/3 16/2/3 10/2/3 9/2/3
f 13/2/5 9/2/5 12/2/5 14/2/5
f 17/1/1 18/1/1 19/1/1 20/1/1
f 17/1/3 20/1/3 7/1/3 6/1/3
f 17/1/5 6/1/5 21/1/5 18/1/5
f 4/3/2 3/3/2 22/3/2 23/3/2
f 6/3/5 4/3/5 23/3/5 21/3/5
f 14/2/1 24/2/1 25/2/1 15/2/1
f 14/2/5 12/2/5 26/2/5 24/2/5
f 27/2/2 28/2/2 29/2/2 30/2/2
f 12/2/3 11/2/3 28/2/3 27/2/3
f 26/2/4 30/2/4 29/2/4 31/2/4
f 12/2/5 27/2/5 30/2/5 26/2/5
f 32/1/1 33/1/1 34/1/1 35/1/1
f 32/1/3 35/1/3 19/1/3 18/1/3
f 33/1/4 36/1/4 37/1/4 34/1/4
f 32/1/5 18/1/5 36/1/5 33/1/5
f 18/3/5 21/3/5 38/3/5 36/3/5
f 23/1/2 22/1/2 39/1/2 40/1/2
f 21/1/5 23/1/5 40/1/5 38/1/5
f 26/2/2 31/2/2 41/2/2 42/2/2
f 24/2/1 43/2/1 44/2/1 25/2/1
f 43/2/4 42/2/4 41/2/4 44/2/4
f 24/2/5 26/2/5 42/2/5 43/2/5
f 36/1/1 45/1/1 46/1/1 37/1/1
f 45/1/4 47/1/4 48/1/4 46/1/4
f 36/1/5 38/1/5 47/1/5 45/1/5
f 40/3/2 39/3/2 49/3/2 50/3/2
f 38/3/5 40/3/5 50/3/5 47/3/5
f 50/1/2 49/1/2 51/1/2 52/1/2
f 47/1/1 53/1/1 54/1/1 48/1/1
f 53/1/4 52/1/4 51/1/4 54/1/4
f 47/1/5 50/1/5 52/1/5 53/1/5
f 55/2/2 56/2/2 57/2/2 10/2/2
f 58/2/1 16/2/1 59/2/1 60/2/1
f 58/2/3 60/2/3 56/2/3 55/2/3
f 58/2/5 55/2/5 10/2/5 16/2/5
f 61/1/1 20/1/1 62/1/1 63/1/1
f 61/1/3 63/1/3 64/1/3 8/1/3
f 61/1/5 8/1/5 7/1/5 20/1/5
f 2/3/2 65/3/2 66/3/2 3/3/2
f 8/3/3 64/3/3 65/3/3 2/3/3
f 16/4/1 15/4/1 67/4/1 59/4/1
f 10/5/3 57/5/3 68/5/3 69/5/3
f 10/5/5 69/5/5 28/5/5 11/5/5
f 69/6/3 68/6/3 70/6/3 71/6/3
f 69/6/5 71/6/5 72/6/5 28/6/5
f 71/6/3 70/6/3 73/6/3 74/6/3
f 71/6/5 74/6/5 75/6/5 72/6/5
f 74/6/3 73/6/3 76/6/3 77/6/3
f 74/6/5 77/6/5 78/6/5 75/6/5
f 77/6/3 76/6/3 79/6/3 80/6/3
f 77/6/5 80/6/5 81/6/5 78/6/5
f 80/7/3 79/7/3 82/7/3 83/7/3
f 80/7/5 83/7/5 35/7/5 81/7/5
f 83/7/3 82/7/3 62/7/3 20/7/3
f 83/7/5 20/7/5 19/7/5 35/7/5
f 84/1/2 85/1/2 86/1/2 87/1/2
f 3/1/3 66/1/3 85/1/3 84/1/3
f 3/1/5 84/1/5 87/1/5 22/1/5
f 15/4/1 25/4/1 88/4/1 67/4/1
f 89/7/6 90/7/6 91/7/6 92/7/6
f 28/7/5 72/7/5 93/7/5 29/7/5
f 92/7/6 91/7/6 94/7/6 95/7/6
f 72/7/5 75/7/5 96/7/5 93/7/5
f 95/7/6 94/7/6 97/7/6 98/7/6
f 75/7/5 78/7/5 99/7/5 96/7/5
f 98/7/6 97/7/6 100/7/6 101/7/6
f 78/7/5 81/7/5 102/7/5 99/7/5
f 101/6/6 100/6/6 103/6/6 104/6/6
f 81/6/5 35/6/5 34/6/5 102/6/5
f 104/6/6 103/6/6 105/6/6 106/6/6
f 106/6/6 105/6/6 107/6/6 108/6/6
f 108/6/6 107/6/6 109/6/6 110/6/6
f 87/3/2 86/3/2 111/3/2 112/3/2
f 22/3/5 87/3/5 112/3/5 39/3/5
f 25/4/1 44/4/1 113/4/1 88/4/1
f 41/5/4 114/5/4 115/5/4 116/5/4
f 31/5/5 29/5/5 114/5/5 41/5/5
f 114/6/4 117/6/4 118/6/4 115/6/4
f 29/6/5 93/6/5 117/6/5 114/6/5
f 117/6/4 119/6/4 120/6/4 118/6/4
f 93/6/5 96/6/5 119/6/5 117/6/5
f 119/6/4 121/6/4 122/6/4 120/6/4
f 96/6/5 99/6/5 121/6/5 119/6/5
f 121/6/4 123/6/4 124/6/4 122/6/4
f 99/6/5 102/6/5 123/6/5 121/6/5
f 123/7/4 125/7/4 126/7/4 124/7/4
f 102/7/5 34/7/5 125/7/5 123/7/5
f 125/7/4 46/7/4 127/7/4 126/7/4
f 34/7/5 37/7/5 46/7/5 125/7/5
f 112/1/2 111/1/2 128/1/2 129/1/2
f 49/1/4 129/1/4 128/1/4 130/1/4
f 39/1/5 112/1/5 129/1/5 49/1/5
f 41/2/2 116/2/2 131/2/2 132/2/2
f 44/2/1 133/2/1 134/2/1 113/2/1
f 133/2/4 132/2/4 131/2/4 134/2/4
f 44/2/5 41/2/5 132/2/5 133/2/5
f 46/1/1 135/1/1 136/1/1 127/1/1
f 135/1/4 54/1/4 137/1/4 136/1/4
f 46/1/5 48/1/5 54/1/5 135/1/5
f 49/3/2 130/3/2 138/3/2 51/3/2
f 54/3/4 51/3/4 138/3/4 137/3/4
f 60/2/1 59/2/1 139/2/1 140/2/1
f 60/2/3 140/2/3 141/2/3 56/2/3
f 142/2/2 143/2/2 144/2/2 68/2/2
f 56/2/3 141/2/3 143/2/3 142/2/3
f 141/2/6 145/2/6 144/2/6 143/2/6
f 56/2/5 142/2/5 68/2/5 57/2/5
f 146/1/1 82/1/1 147/1/1 148/1/1
f 146/1/3 148/1/3 149/1/3 63/1/3
f 148/1/6 147/1/6 150/1/6 149/1/6
f 146/1/5 63/1/5 62/1/5 82/1/5
f 63/3/3 149/3/3 151/3/3 64/3/3
f 65/1/2 152/1/2 153/1/2 66/1/2
f 64/1/3 151/1/3 152/1/3 65/1/3
f 59/4/1 67/4/1 154/4/1 139/4/1
f 68/7/3 144/7/3 155/7/3 70/7/3
f 89/7/4 92/7/4 156/7/4 157/7/4
f 70/7/3 155/7/3 158/7/3 73/7/3
f 92/7/4 95/7/4 159/7/4 156/7/4
f 73/7/3 158/7/3 160/7/3 76/7/3
f 95/7/4 98/7/4 161/7/4 159/7/4
f 76/7/3 160/7/3 162/7/3 79/7/3
f 98/7/4 101/7/4 163/7/4 161/7/4
f 79/6/3 162/6/3 147/6/3 82/6/3
f 101/6/4 104/6/4 164/6/4 163/6/4
f 104/6/4 106/6/4 165/6/4 164/6/4
f 106/6/4 108/6/4 166/6/4 165/6/4
f 108/6/4 110/6/4 167/6/4 166/6/4
f 85/3/2 168/3/2 169/3/2 86/3/2
f 66/3/3 153/3/3 168/3/3 85/3/3
f 67/4/1 88/4/1 170/4/1 154/4/1
f 89/8/2 157/8/2 171/8/2 90/8/2
f 110/3/1 109/3/1 172/3/1 167/3/1
f 173/1/2 174/1/2 175/1/2 176/1/2
f 86/1/3 169/1/3 174/1/3 173/1/3
f 111/1/4 176/1/4 175/1/4 177/1/4
f 169/1/6 177/1/6 175/1/6 174/1/6
f 86/1/5 173/1/5 176/1/5 111/1/5
f 88/4/1 113/4/1 178/4/1 170/4/1
f 90/7/3 171/7/3 179/7/3 91/7/3
f 115/7/4 118/7/4 180/7/4 181/7/4
f 91/7/3 179/7/3 182/7/3 94/7/3
f 118/7/4 120/7/4 183/7/4 180/7/4
f 94/7/3 182/7/3 184/7/3 97/7/3
f 120/7/4 122/7/4 185/7/4 183/7/4
f 97/7/3 184/7/3 186/7/3 100/7/3
f 122/7/4 124/7/4 187/7/4 185/7/4
f 100/6/3 186/6/3 188/6/3 103/6/3
f 124/6/4 126/6/4 189/6/4 187/6/4
f 103/6/3 188/6/3 190/6/3 105/6/3
f 105/6/3 190/6/3 191/6/3 107/6/3
f 107/6/3 191/6/3 172/6/3 109/6/3
f 111/3/2 177/3/2 192/3/2 128/3/2
f 130/3/4 128/3/4 192/3/4 193/3/4
f 113/2/1 134/2/1 194/2/1 178/2/1
f 134/2/4 131/2/4 195/2/4 194/2/4
f 115/2/2 181/2/2 196/2/2 197/2/2
f 131/2/4 197/2/4 196/2/4 195/2/4
f 198/2/6 195/2/6 196/2/6 181/2/6
f 116/2/5 115/2/5 197/2/5 131/2/5
f 126/1/1 199/1/1 200/1/1 189/1/1
f 199/1/4 136/1/4 201/1/4 200/1/4
f 189/1/6 200/1/6 201/1/6 202/1/6
f 126/1/5 127/1/5 136/1/5 199/1/5
f 136/3/4 137/3/4 203/3/4 201/3/4
f 130/1/2 193/1/2 204/1/2 138/1/2
f 137/1/4 138/1/4 204/1/4 203/1/4
f 141/2/2 205/2/2 206/2/2 145/2/2
f 140/2/1 139/2/1 207/2/1 208/2/1
f 140/2/3 208/2/3 205/2/3 141/2/3
f 208/2/6 207/2/6 206/2/6 205/2/6
f 149/1/1 150/1/1 209/1/1 210/1/1
f 149/1/3 210/1/3 211/1/3 151/1/3
f 210/1/6 209/1/6 212/1/6 211/1/6
f 152/3/2 213/3/2 214/3/2 153/3/2
f 151/3/3 211/3/3 213/3/3 152/3/3
f 139/4/1 154/4/1 215/4/1 207/4/1
f 145/5/3 206/5/3 216/5/3 144/5/3
f 206/5/6 217/5/6 218/5/6 216/5/6
f 144/6/3 216/6/3 219/6/3 155/6/3
f 216/6/6 218/6/6 220/6/6 219/6/6
f 155/6/3 219/6/3 221/6/3 158/6/3
f 219/6/6 220/6/6 222/6/6 221/6/6
f 158/6/3 221/6/3 223/6/3 160/6/3
f 221/6/6 222/6/6 224/6/6 223/6/6
f 160/6/3 223/6/3 225/6/3 162/6/3
f 223/6/6 224/6/6 226/6/6 225/6/6
f 162/7/3 225/7/3 227/7/3 147/7/3
f 225/7/6 226/7/6 228/7/6 227/7/6
f 147/7/3 227/7/3 209/7/3 150/7/3
f 227/7/6 228/7/6 229/7/6 209/7/6
f 168/1/2 230/1/2 231/1/2 169/1/2
f 153/1/3 214/1/3 230/1/3 168/1/3
f 214/1/6 232/1/6 231/1/6 230/1/6
f 154/4/1 170/4/1 233/4/1 215/4/1
f 218/7/6 234/7/6 235/7/6 220/7/6
f 157/7/5 156/7/5 179/7/5 171/7/5
f 220/7/6 235/7/6 236/7/6 222/7/6
f 156/7/5 159/7/5 182/7/5 179/7/5
f 222/7/6 236/7/6 237/7/6 224/7/6
f 159/7/5 161/7/5 184/7/5 182/7/5
f 224/7/6 237/7/6 238/7/6 226/7/6
f 161/7/5 163/7/5 186/7/5 184/7/5
f 226/6/6 238/6/6 239/6/6 228/6/6
f 163/6/5 164/6/5 188/6/5 186/6/5
f 164/6/5 165/6/5 190/6/5 188/6/5
f 165/6/5 166/6/5 191/6/5 190/6/5
f 166/6/5 167/6/5 172/6/5 191/6/5
f 169/3/2 231/3/2 240/3/2 177/3/2
f 232/3/6 241/3/6 240/3/6 231/3/6
f 170/4/1 178/4/1 242/4/1 233/4/1
f 198/5/4 181/5/4 243/5/4 244/5/4
f 245/5/6 244/5/6 243/5/6 234/5/6
f 181/6/4 180/6/4 246/6/4 243/6/4
f 234/6/6 243/6/6 246/6/6 235/6/6
f 180/6/4 183/6/4 247/6/4 246/6/4
f 235/6/6 246/6/6 247/6/6 236/6/6
f 183/6/4 185/6/4 248/6/4 247/6/4
f 236/6/6 247/6/6 248/6/6 237/6/6
f 185/6/4 187/6/4 249/6/4 248/6/4
f 237/6/6 248/6/6 249/6/6 238/6/6
f 187/7/4 189/7/4 250/7/4 249/7/4
f 238/7/6 249/7/6 250/7/6 239/7/6
f 189/7/4 202/7/4 251/7/4 250/7/4
f 239/7/6 250/7/6 251/7/6 252/7/6
f 177/1/2 240/1/2 253/1/2 192/1/2
f 193/1/4 192/1/4 253/1/4 254/1/4
f 241/1/6 254/1/6 253/1/6 240/1/6
f 198/2/2 244/2/2 255/2/2 195/2/2
f 178/2/1 194/2/1 256/2/1 242/2/1
f 194/2/4 195/2/4 255/2/4 256/2/4
f 242/2/6 256/2/6 255/2/6 244/2/6
f 202/1/1 201/1/1 257/1/1 251/1/1
f 201/1/4 203/1/4 258/1/4 257/1/4
f 251/1/6 257/1/6 258/1/6 259/1/6
f 193/3/2 254/3/2 260/3/2 204/3/2
f 203/3/4 204/3/4 260/3/4 258/3/4
f 213/1/2 261/1/2 262/1/2 214/1/2
f 211/1/1 212/1/1 263/1/1 264/1/1
f 211/1/3 264/1/3 261/1/3 213/1/3
f 264/1/6 263/1/6 262/1/6 261/1/6
f 206/2/2 265/2/2 266/2/2 217/2/2
f 207/2/1 215/2/1 267/2/1 268/2/1
f 207/2/3 268/2/3 265/2/3 206/2/3
f 268/2/6 267/2/6 266/2/6 265/2/6
f 209/1/1 229/1/1 269/1/1 270/1/1
f 209/1/3 270/1/3 263/1/3 212/1/3
f 270/1/6 269/1/6 271/1/6 263/1/6
f 214/3/2 262/3/2 272/3/2 232/3/2
f 263/3/6 271/3/6 272/3/6 262/3/6
f 215/2/1 233/2/1 273/2/1 267/2/1
f 267/2/6 273/2/6 274/2/6 266/2/6
f 218/2/2 275/2/2 276/2/2 234/2/2
f 217/2/3 266/2/3 275/2/3 218/2/3
f 245/2/4 234/2/4 276/2/4 274/2/4
f 266/2/6 274/2/6 276/2/6 275/2/6
f 228/1/1 239/1/1 277/1/1 278/1/1
f 228/1/3 278/1/3 269/1/3 229/1/3
f 239/1/4 252/1/4 279/1/4 277/1/4
f 278/1/6 277/1/6 279/1/6 269/1/6
f 269/3/6 279/3/6 280/3/6 271/3/6
f 232/1/2 272/1/2 281/1/2 241/1/2
f 271/1/6 280/1/6 281/1/6 272/1/6
f 245/2/2 274/2/2 282/2/2 244/2/2
f 233/2/1 242/2/1 283/2/1 273/2/1
f 242/2/4 244/2/4 282/2/4 283/2/4
f 273/2/6 283/2/6 282/2/6 274/2/6
f 252/1/1 251/1/1 284/1/1 279/1/1
f 251/1/4 259/1/4 285/1/4 284/1/4
f 279/1/6 284/1/6 285/1/6 280/1/6
f 241/3/2 281/3/2 286/3/2 254/3/2
f 280/3/6 285/3/6 286/3/6 281/3/6
f 254/1/2 286/1/2 287/1/2 260/1/2
f 259/1/1 258/1/1 288/1/1 285/1/1
f 258/1/4 260/1/4 287/1/4 288/1/4
f 285/1/6 288/1/6 287/1/6 286/1/6
