mtllib Anne_Catalina_Galvis_Carvajal_fase_2.mtl
o Anne_Catalina_Galvis_Carvajal_fase_2
v -4.0000 1.0000 1.0000
v -3.0000 1.0000 1.0000
v -3.0000 1.0000 -0.0000
v -4.0000 1.0000 -0.0000
v -4.0000 0.0000 1.0000
v -4.0000 0.0000 -0.0000
v -3.0000 0.0000 -0.0000
v -3.0000 0.0000 1.0000
v -4.0000 4.0000 1.0000
v -3.0000 4.0000 1.0000
v -3.0000 4.0000 -0.0000
v -4.0000 4.0000 -0.0000
v -4.0000 3.0000 1.0000
v -4.0000 3.0000 -0.0000
v -3.0000 3.0000 -0.0000
v -3.0000 3.0000 1.0000
v -4.0000 -1.0000 -0.0000
v -4.0000 -1.0000 -1.0000
v -3.0000 -1.0000 -1.0000
v -3.0000 -1.0000 -0.0000
v -4.0000 0.0000 -1.0000
v -3.0000 0.0000 -1.0000
v -3.0000 1.0000 -1.0000
v -4.0000 1.0000 -1.0000
v -3.0000 1.0000 -2.0000
v -4.0000 1.0000 -2.0000
v -4.0000 0.0000 -2.0000
v -3.0000 0.0000 -2.0000
v -3.0000 1.0000 3.0000
v -2.0000 1.0000 3.0000
v -2.0000 1.0000 2.0000
v -3.0000 1.0000 2.0000
v -3.0000 0.0000 3.0000
v -3.0000 0.0000 2.0000
v -2.0000 0.0000 2.0000
v -2.0000 0.0000 3.0000
v -3.0000 4.0000 2.0000
v -2.0000 4.0000 2.0000
v -2.0000 4.0000 1.0000
v -3.0000 3.0000 2.0000
v -2.0000 3.0000 1.0000
v -2.0000 3.0000 2.0000
v -3.0000 2.0000 1.0000
v -3.0000 2.0000 -0.0000
v -2.0000 2.0000 -0.0000
v -2.0000 2.0000 1.0000
v -2.0000 3.0000 -0.0000
v -2.0000 4.0000 -0.0000
v -2.0000 0.0000 -0.0000
v -2.0000 0.0000 -1.0000
v -2.0000 -1.0000 -1.0000
v -2.0000 -1.0000 -0.0000
v -2.0000 4.0000 -1.0000
v -3.0000 4.0000 -1.0000
v -3.0000 3.0000 -1.0000
v -2.0000 3.0000 -1.0000
v -2.0000 1.0000 -1.0000
v -2.0000 1.0000 -2.0000
v -2.0000 0.0000 -2.0000
v -2.0000 1.0000 -3.0000
v -3.0000 1.0000 -3.0000
v -3.0000 0.0000 -3.0000
v -2.0000 0.0000 -3.0000
v -2.0000 1.0000 4.0000
v -1.0000 1.0000 4.0000
v -1.0000 1.0000 3.0000
v -2.0000 0.0000 4.0000
v -1.0000 0.0000 3.0000
v -1.0000 0.0000 4.0000
v -1.0000 1.0000 2.0000
v -1.0000 0.0000 2.0000
v -2.0000 -1.0000 1.0000
v -1.0000 -1.0000 1.0000
v -1.0000 -1.0000 -0.0000
v -2.0000 -2.0000 1.0000
v -2.0000 -2.0000 -0.0000
v -1.0000 -2.0000 -0.0000
v -1.0000 -2.0000 1.0000
v -2.0000 1.0000 1.0000
v -2.0000 1.0000 -0.0000
v -1.0000 1.0000 -0.0000
v -1.0000 1.0000 1.0000
v -1.0000 2.0000 1.0000
v -1.0000 3.0000 1.0000
v -1.0000 3.0000 -0.0000
v -1.0000 2.0000 -0.0000
v -2.0000 -2.0000 -1.0000
v -1.0000 -2.0000 -1.0000
v -1.0000 -1.0000 -1.0000
v -1.0000 0.0000 -0.0000
v -1.0000 0.0000 -1.0000
v -1.0000 2.0000 -1.0000
v -2.0000 2.0000 -1.0000
v -1.0000 1.0000 -1.0000
v -1.0000 4.0000 -0.0000
v -1.0000 4.0000 -1.0000
v -1.0000 3.0000 -1.0000
v -2.0000 4.0000 -2.0000
v -1.0000 4.0000 -2.0000
v -1.0000 4.0000 -3.0000
v -2.0000 4.0000 -3.0000
v -2.0000 3.0000 -2.0000
v -2.0000 3.0000 -3.0000
v -1.0000 3.0000 -3.0000
v -1.0000 3.0000 -2.0000
v -1.0000 -1.0000 4.0000
v -1.0000 -1.0000 3.0000
v 0.0000 -1.0000 3.0000
v 0.0000 -1.0000 4.0000
v 0.0000 0.0000 4.0000
v 0.0000 0.0000 3.0000
v 0.0000 1.0000 4.0000
v 0.0000 1.0000 3.0000
v 0.0000 0.0000 2.0000
v -1.0000 -1.0000 2.0000
v 0.0000 -1.0000 2.0000
v -1.0000 4.0000 3.0000
v 0.0000 4.0000 3.0000
v 0.0000 4.0000 2.0000
v -1.0000 4.0000 2.0000
v -1.0000 3.0000 3.0000
v -1.0000 3.0000 2.0000
v 0.0000 3.0000 2.0000
v 0.0000 3.0000 3.0000
v -1.0000 -2.0000 2.0000
v 0.0000 -2.0000 1.0000
v 0.0000 -2.0000 2.0000
v 0.0000 0.0000 1.0000
v -1.0000 0.0000 1.0000
v 0.0000 -1.0000 1.0000
v -1.0000 2.0000 2.0000
v 0.0000 2.0000 2.0000
v 0.0000 2.0000 1.0000
v 0.0000 1.0000 1.0000
v 0.0000 1.0000 2.0000
v 0.0000 4.0000 1.0000
v -1.0000 4.0000 1.0000
v 0.0000 3.0000 1.0000
v -1.0000 -4.0000 1.0000
v -1.0000 -4.0000 -0.0000
v 0.0000 -4.0000 -0.0000
v 0.0000 -4.0000 1.0000
v 0.0000 -3.0000 1.0000
v -1.0000 -3.0000 1.0000
v -1.0000 -3.0000 -0.0000
v 0.0000 3.0000 -0.0000
v -1.0000 -4.0000 -1.0000
v 0.0000 -4.0000 -1.0000
v -1.0000 -3.0000 -1.0000
v 0.0000 -3.0000 -1.0000
v 0.0000 -2.0000 -1.0000
v 0.0000 0.0000 -1.0000
v 0.0000 -1.0000 -1.0000
v 0.0000 1.0000 -1.0000
v 0.0000 3.0000 -1.0000
v 0.0000 -1.0000 -2.0000
v -1.0000 -1.0000 -2.0000
v -1.0000 -2.0000 -2.0000
v 0.0000 -2.0000 -2.0000
v -1.0000 1.0000 -2.0000
v 0.0000 1.0000 -2.0000
v -1.0000 2.0000 -2.0000
v 0.0000 2.0000 -2.0000
v 0.0000 3.0000 -2.0000
v 0.0000 2.0000 -1.0000
v -1.0000 2.0000 -3.0000
v 0.0000 2.0000 -3.0000
v 0.0000 3.0000 -3.0000
v 0.0000 4.0000 -2.0000
v 0.0000 4.0000 -3.0000
v -1.0000 1.0000 -3.0000
v 0.0000 1.0000 -3.0000
v 0.0000 1.0000 -4.0000
v -1.0000 1.0000 -4.0000
v -1.0000 0.0000 -3.0000
v -1.0000 0.0000 -4.0000
v 0.0000 0.0000 -4.0000
v 0.0000 0.0000 -3.0000
v 0.0000 4.0000 -4.0000
v -1.0000 4.0000 -4.0000
v -1.0000 3.0000 -4.0000
v 0.0000 3.0000 -4.0000
v 1.0000 1.0000 4.0000
v 1.0000 1.0000 3.0000
v 1.0000 0.0000 3.0000
v 1.0000 0.0000 4.0000
v 0.0000 4.0000 4.0000
v 1.0000 4.0000 4.0000
v 1.0000 4.0000 3.0000
v 0.0000 3.0000 4.0000
v 1.0000 3.0000 3.0000
v 1.0000 3.0000 4.0000
v 0.0000 2.0000 3.0000
v 1.0000 2.0000 2.0000
v 1.0000 2.0000 3.0000
v 1.0000 3.0000 2.0000
v 1.0000 4.0000 2.0000
v 1.0000 -1.0000 2.0000
v 1.0000 -1.0000 1.0000
v 1.0000 -2.0000 1.0000
v 1.0000 -2.0000 2.0000
v 1.0000 1.0000 1.0000
v 1.0000 1.0000 2.0000
v 1.0000 2.0000 1.0000
v 1.0000 3.0000 1.0000
v 1.0000 -4.0000 -0.0000
v 1.0000 -4.0000 1.0000
v 1.0000 -3.0000 1.0000
v 1.0000 -3.0000 -0.0000
v 1.0000 -2.0000 -0.0000
v 1.0000 0.0000 1.0000
v 1.0000 0.0000 -0.0000
v 1.0000 1.0000 -0.0000
v 1.0000 3.0000 -0.0000
v 1.0000 2.0000 -0.0000
v 1.0000 -4.0000 -1.0000
v 1.0000 -3.0000 -1.0000
v 1.0000 -2.0000 -1.0000
v 1.0000 -1.0000 -0.0000
v 1.0000 -1.0000 -1.0000
v 1.0000 0.0000 -1.0000
v 1.0000 1.0000 -1.0000
v 1.0000 3.0000 -1.0000
v 1.0000 2.0000 -1.0000
v 1.0000 -2.0000 -2.0000
v 1.0000 -1.0000 -2.0000
v 1.0000 0.0000 -2.0000
v 0.0000 0.0000 -2.0000
v 1.0000 2.0000 -2.0000
v 1.0000 1.0000 -2.0000
v 0.0000 4.0000 -1.0000
v 1.0000 4.0000 -1.0000
v 1.0000 4.0000 -2.0000
v 1.0000 3.0000 -2.0000
v 1.0000 0.0000 -3.0000
v 0.0000 -1.0000 -3.0000
v 1.0000 -1.0000 -3.0000
v 1.0000 4.0000 -3.0000
v 1.0000 3.0000 -3.0000
v 0.0000 -1.0000 -4.0000
v 1.0000 -1.0000 -4.0000
v 1.0000 0.0000 -4.0000
v 1.0000 1.0000 -3.0000
v 1.0000 1.0000 -4.0000
v 2.0000 4.0000 3.0000
v 2.0000 4.0000 2.0000
v 2.0000 3.0000 2.0000
v 2.0000 3.0000 3.0000
v 2.0000 -2.0000 -0.0000
v 2.0000 -2.0000 1.0000
v 2.0000 -1.0000 1.0000
v 2.0000 -1.0000 -0.0000
v 2.0000 0.0000 1.0000
v 2.0000 0.0000 -0.0000
v 2.0000 2.0000 1.0000
v 2.0000 2.0000 -0.0000
v 2.0000 1.0000 -0.0000
v 2.0000 1.0000 1.0000
v 1.0000 4.0000 1.0000
v 2.0000 4.0000 1.0000
v 2.0000 4.0000 -0.0000
v 1.0000 4.0000 -0.0000
v 2.0000 3.0000 -0.0000
v 2.0000 3.0000 1.0000
v 2.0000 -1.0000 -1.0000
v 2.0000 -2.0000 -1.0000
v 2.0000 1.0000 -1.0000
v 2.0000 2.0000 -1.0000
v 2.0000 3.0000 -1.0000
v 2.0000 1.0000 -2.0000
v 2.0000 1.0000 -3.0000
v 2.0000 0.0000 -3.0000
v 2.0000 0.0000 -2.0000
v 2.0000 1.0000 -4.0000
v 2.0000 0.0000 -4.0000
v 2.0000 1.0000 3.0000
v 3.0000 1.0000 3.0000
v 3.0000 1.0000 2.0000
v 2.0000 1.0000 2.0000
v 2.0000 0.0000 3.0000
v 2.0000 0.0000 2.0000
v 3.0000 0.0000 2.0000
v 3.0000 0.0000 3.0000
v 3.0000 1.0000 1.0000
v 3.0000 0.0000 1.0000
v 3.0000 0.0000 -0.0000
v 3.0000 -1.0000 -0.0000
v 3.0000 -1.0000 1.0000
v 3.0000 4.0000 1.0000
v 3.0000 4.0000 -0.0000
v 3.0000 3.0000 -0.0000
v 3.0000 3.0000 1.0000
v 3.0000 2.0000 -1.0000
v 3.0000 2.0000 -0.0000
v 3.0000 3.0000 -1.0000
v 3.0000 4.0000 -1.0000
v 2.0000 4.0000 -1.0000
v 3.0000 4.0000 -2.0000
v 2.0000 4.0000 -2.0000
v 2.0000 3.0000 -2.0000
v 3.0000 3.0000 -2.0000
v 3.0000 1.0000 -2.0000
v 3.0000 1.0000 -3.0000
v 3.0000 0.0000 -3.0000
v 3.0000 0.0000 -2.0000
v 4.0000 1.0000 2.0000
v 4.0000 1.0000 1.0000
v 4.0000 0.0000 1.0000
v 4.0000 0.0000 2.0000
v 4.0000 -1.0000 -0.0000
v 4.0000 -1.0000 1.0000
v 4.0000 0.0000 -0.0000
v 4.0000 1.0000 -0.0000
v 3.0000 1.0000 -0.0000
v 4.0000 1.0000 -1.0000
v 3.0000 1.0000 -1.0000
v 3.0000 0.0000 -1.0000
v 4.0000 0.0000 -1.0000
v 4.0000 4.0000 -0.0000
v 4.0000 4.0000 -1.0000
v 4.0000 3.0000 -1.0000
v 4.0000 3.0000 -0.0000
vt 0.001953 0.500000
vt 0.005859 0.500000
vt 0.009766 0.500000
vt 0.013672 0.500000
vt 0.017578 0.500000
vt 0.021484 0.500000
vt 0.025391 0.500000
vt 0.029297 0.500000
vn 0.0 -1.0 0.0
vn 0.0 1.0 0.0
vn 0.0 0.0 1.0
vn 0.0 0.0 -1.0
vn -1.0 0.0 0.0
vn 1.0 0.0 0.0
usemtl mat_Anne_Catalina_Galvis_Carvajal_fase_2
s off
f 1/1/2 2/1/2 3/1/2 4/1/2
f 5/1/1 6/1/1 7/1/1 8/1/1
f 5/1/3 8/1/3 2/1/3 1/1/3
f 8/1/6 7/1/6 3/1/6 2/1/6
f 5/1/5 1/1/5 4/1/5 6/1/5
f 9/2/2 10/2/2 11/2/2 12/2/2
f 13/2/1 14/2/1 15/2/1 16/2/1
f 13/2/3 16/2/3 10/2/3 9/2/3
f 14/2/4 12/2/4 11/2/4 15/2/4
f 13/2/5 9/2/5 12/2/5 14/2/5
f 17/3/1 18/3/1 19/3/1 20/3/1
f 17/3/3 20/3/3 7/3/3 6/3/3
f 18/3/4 21/3/4 22/3/4 19/3/4
f 17/3/5 6/3/5 21/3/5 18/3/5
f 4/4/2 3/4/2 23/4/2 24/4/2
f 7/4/6 22/4/6 23/4/6 3/4/6
f 6/4/5 4/4/5 24/4/5 21/4/5
f 24/5/2 23/5/2 25/5/2 26/5/2
f 21/5/1 27/5/1 28/5/1 22/5/1
f 27/5/4 26/5/4 25/5/4 28/5/4
f 21/5/5 24/5/5 26/5/5 27/5/5
f 29/5/2 30/5/2 31/5/2 32/5/2
f 33/5/1 34/5/1 35/5/1 36/5/1
f 33/5/3 36/5/3 30/5/3 29/5/3
f 34/5/4 32/5/4 31/5/4 35/5/4
f 33/5/5 29/5/5 32/5/5 34/5/5
f 37/1/2 38/1/2 39/1/2 10/1/2
f 40/1/1 16/1/1 41/1/1 42/1/1
f 40/1/3 42/1/3 38/1/3 37/1/3
f 42/1/6 41/1/6 39/1/6 38/1/6
f 40/1/5 37/1/5 10/1/5 16/1/5
f 43/6/1 44/6/1 45/6/1 46/6/1
f 43/6/3 46/6/3 41/6/3 16/6/3
f 44/6/4 15/6/4 47/6/4 45/6/4
f 43/6/5 16/6/5 15/6/5 44/6/5
f 10/7/2 39/7/2 48/7/2 11/7/2
f 41/7/6 47/7/6 48/7/6 39/7/6
f 7/3/2 49/3/2 50/3/2 22/3/2
f 20/3/1 19/3/1 51/3/1 52/3/1
f 20/3/3 52/3/3 49/3/3 7/3/3
f 19/3/4 22/3/4 50/3/4 51/3/4
f 11/1/2 48/1/2 53/1/2 54/1/2
f 15/1/1 55/1/1 56/1/1 47/1/1
f 55/1/4 54/1/4 53/1/4 56/1/4
f 15/1/5 11/1/5 54/1/5 55/1/5
f 23/6/2 57/6/2 58/6/2 25/6/2
f 22/6/1 28/6/1 59/6/1 50/6/1
f 22/6/3 50/6/3 57/6/3 23/6/3
f 50/6/6 59/6/6 58/6/6 57/6/6
f 25/5/2 58/5/2 60/5/2 61/5/2
f 28/5/1 62/5/1 63/5/1 59/5/1
f 62/5/4 61/5/4 60/5/4 63/5/4
f 59/5/6 63/5/6 60/5/6 58/5/6
f 28/5/5 25/5/5 61/5/5 62/5/5
f 64/5/2 65/5/2 66/5/2 30/5/2
f 67/5/1 36/5/1 68/5/1 69/5/1
f 67/5/3 69/5/3 65/5/3 64/5/3
f 67/5/5 64/5/5 30/5/5 36/5/5
f 30/2/2 66/2/2 70/2/2 31/2/2
f 36/2/1 35/2/1 71/2/1 68/2/1
f 35/2/4 31/2/4 70/2/4 71/2/4
f 68/2/6 71/2/6 70/2/6 66/2/6
f 72/5/2 73/5/2 74/5/2 52/5/2
f 75/5/1 76/5/1 77/5/1 78/5/1
f 75/5/3 78/5/3 73/5/3 72/5/3
f 75/5/5 72/5/5 52/5/5 76/5/5
f 79/3/1 80/3/1 81/3/1 82/3/1
f 79/3/3 82/3/3 83/3/3 46/3/3
f 79/3/5 46/3/5 45/3/5 80/3/5
f 41/6/2 84/6/2 85/6/2 47/6/2
f 46/6/3 83/6/3 84/6/3 41/6/3
f 45/6/4 47/6/4 85/6/4 86/6/4
f 76/3/1 87/3/1 88/3/1 77/3/1
f 87/3/4 51/3/4 89/3/4 88/3/4
f 76/3/5 52/3/5 51/3/5 87/3/5
f 49/3/2 90/3/2 91/3/2 50/3/2
f 52/3/3 74/3/3 90/3/3 49/3/3
f 51/3/4 50/3/4 91/3/4 89/3/4
f 45/5/2 86/5/2 92/5/2 93/5/2
f 80/5/1 57/5/1 94/5/1 81/5/1
f 57/5/4 93/5/4 92/5/4 94/5/4
f 80/5/5 45/5/5 93/5/5 57/5/5
f 48/7/2 95/7/2 96/7/2 53/7/2
f 47/7/1 56/7/1 97/7/1 85/7/1
f 47/7/3 85/7/3 95/7/3 48/7/3
f 56/7/4 53/7/4 96/7/4 97/7/4
f 85/7/6 97/7/6 96/7/6 95/7/6
f 98/1/2 99/1/2 100/1/2 101/1/2
f 102/1/1 103/1/1 104/1/1 105/1/1
f 102/1/3 105/1/3 99/1/3 98/1/3
f 103/1/4 101/1/4 100/1/4 104/1/4
f 102/1/5 98/1/5 101/1/5 103/1/5
f 106/7/1 107/7/1 108/7/1 109/7/1
f 106/7/3 109/7/3 110/7/3 69/7/3
f 109/7/6 108/7/6 111/7/6 110/7/6
f 106/7/5 69/7/5 68/7/5 107/7/5
f 65/6/2 112/6/2 113/6/2 66/6/2
f 69/6/3 110/6/3 112/6/3 65/6/3
f 68/6/4 66/6/4 113/6/4 111/6/4
f 68/6/2 111/6/2 114/6/2 71/6/2
f 107/6/1 115/6/1 116/6/1 108/6/1
f 108/6/6 116/6/6 114/6/6 111/6/6
f 107/6/5 68/6/5 71/6/5 115/6/5
f 117/5/2 118/5/2 119/5/2 120/5/2
f 121/5/1 122/5/1 123/5/1 124/5/1
f 121/5/3 124/5/3 118/5/3 117/5/3
f 121/5/5 117/5/5 120/5/5 122/5/5
f 125/6/1 78/6/1 126/6/1 127/6/1
f 125/6/3 127/6/3 116/6/3 115/6/3
f 125/6/5 115/6/5 73/6/5 78/6/5
f 71/7/2 114/7/2 128/7/2 129/7/2
f 116/7/6 130/7/6 128/7/6 114/7/6
f 115/7/5 71/7/5 129/7/5 73/7/5
f 131/2/2 132/2/2 133/2/2 83/2/2
f 70/2/1 82/2/1 134/2/1 135/2/1
f 70/2/3 135/2/3 132/2/3 131/2/3
f 70/2/5 131/2/5 83/2/5 82/2/5
f 120/6/2 119/6/2 136/6/2 137/6/2
f 122/6/1 84/6/1 138/6/1 123/6/1
f 84/6/4 137/6/4 136/6/4 138/6/4
f 123/6/6 138/6/6 136/6/6 119/6/6
f 122/6/5 120/6/5 137/6/5 84/6/5
f 139/3/1 140/3/1 141/3/1 142/3/1
f 139/3/3 142/3/3 143/3/3 144/3/3
f 139/3/5 144/3/5 145/3/5 140/3/5
f 144/3/3 143/3/3 126/3/3 78/3/3
f 144/3/5 78/3/5 77/3/5 145/3/5
f 73/6/5 129/6/5 90/6/5 74/6/5
f 129/6/3 128/6/3 134/6/3 82/6/3
f 129/6/5 82/6/5 81/6/5 90/6/5
f 84/6/2 138/6/2 146/6/2 85/6/2
f 83/6/3 133/6/3 138/6/3 84/6/3
f 140/3/1 147/3/1 148/3/1 141/3/1
f 147/3/4 149/3/4 150/3/4 148/3/4
f 140/3/5 145/3/5 149/3/5 147/3/5
f 149/3/4 88/3/4 151/3/4 150/3/4
f 145/3/5 77/3/5 88/3/5 149/3/5
f 89/3/4 91/3/4 152/3/4 153/3/4
f 91/3/4 94/3/4 154/3/4 152/3/4
f 90/3/5 81/3/5 94/3/5 91/3/5
f 85/6/2 146/6/2 155/6/2 97/6/2
f 86/6/5 85/6/5 97/6/5 92/6/5
f 89/5/2 153/5/2 156/5/2 157/5/2
f 88/5/1 158/5/1 159/5/1 151/5/1
f 158/5/4 157/5/4 156/5/4 159/5/4
f 88/5/5 89/5/5 157/5/5 158/5/5
f 94/3/1 160/3/1 161/3/1 154/3/1
f 160/3/4 162/3/4 163/3/4 161/3/4
f 94/3/5 92/3/5 162/3/5 160/3/5
f 97/6/2 155/6/2 164/6/2 105/6/2
f 165/6/6 163/6/6 164/6/6 155/6/6
f 92/6/5 97/6/5 105/6/5 162/6/5
f 162/6/1 166/6/1 167/6/1 163/6/1
f 166/6/4 104/6/4 168/6/4 167/6/4
f 163/6/6 167/6/6 168/6/6 164/6/6
f 162/6/5 105/6/5 104/6/5 166/6/5
f 99/7/2 169/7/2 170/7/2 100/7/2
f 105/7/3 164/7/3 169/7/3 99/7/3
f 171/5/2 172/5/2 173/5/2 174/5/2
f 175/5/1 176/5/1 177/5/1 178/5/1
f 175/5/3 178/5/3 172/5/3 171/5/3
f 176/5/4 174/5/4 173/5/4 177/5/4
f 175/5/5 171/5/5 174/5/5 176/5/5
f 100/2/2 170/2/2 179/2/2 180/2/2
f 104/2/1 181/2/1 182/2/1 168/2/1
f 181/2/4 180/2/4 179/2/4 182/2/4
f 168/2/6 182/2/6 179/2/6 170/2/6
f 104/2/5 100/2/5 180/2/5 181/2/5
f 112/5/2 183/5/2 184/5/2 113/5/2
f 110/5/1 111/5/1 185/5/1 186/5/1
f 110/5/3 186/5/3 183/5/3 112/5/3
f 111/5/4 113/5/4 184/5/4 185/5/4
f 186/5/6 185/5/6 184/5/6 183/5/6
f 187/1/2 188/1/2 189/1/2 118/1/2
f 190/1/1 124/1/1 191/1/1 192/1/1
f 190/1/3 192/1/3 188/1/3 187/1/3
f 192/1/6 191/1/6 189/1/6 188/1/6
f 190/1/5 187/1/5 118/1/5 124/1/5
f 193/7/1 132/7/1 194/7/1 195/7/1
f 193/7/3 195/7/3 191/7/3 124/7/3
f 195/7/6 194/7/6 196/7/6 191/7/6
f 193/7/5 124/7/5 123/7/5 132/7/5
f 118/6/2 189/6/2 197/6/2 119/6/2
f 123/6/4 119/6/4 197/6/4 196/6/4
f 116/1/2 198/1/2 199/1/2 130/1/2
f 127/1/1 126/1/1 200/1/1 201/1/1
f 127/1/3 201/1/3 198/1/3 116/1/3
f 201/1/6 200/1/6 199/1/6 198/1/6
f 135/7/1 134/7/1 202/7/1 203/7/1
f 135/7/3 203/7/3 194/7/3 132/7/3
f 203/7/6 202/7/6 204/7/6 194/7/6
f 123/7/2 196/7/2 205/7/2 138/7/2
f 194/7/6 204/7/6 205/7/6 196/7/6
f 132/7/5 123/7/5 138/7/5 133/7/5
f 142/6/1 141/6/1 206/6/1 207/6/1
f 142/6/3 207/6/3 208/6/3 143/6/3
f 207/6/6 206/6/6 209/6/6 208/6/6
f 143/6/3 208/6/3 200/6/3 126/6/3
f 208/6/6 209/6/6 210/6/6 200/6/6
f 130/6/3 199/6/3 211/6/3 128/6/3
f 128/2/3 211/2/3 202/2/3 134/2/3
f 211/2/6 212/2/6 213/2/6 202/2/6
f 138/7/2 205/7/2 214/7/2 146/7/2
f 204/7/6 215/7/6 214/7/6 205/7/6
f 141/3/1 148/3/1 216/3/1 206/3/1
f 148/3/4 150/3/4 217/3/4 216/3/4
f 206/3/6 216/3/6 217/3/6 209/3/6
f 150/3/4 151/3/4 218/3/4 217/3/4
f 209/3/6 217/3/6 218/3/6 210/3/6
f 219/6/6 220/6/6 221/6/6 212/6/6
f 152/6/4 154/6/4 222/6/4 221/6/4
f 212/6/6 221/6/6 222/6/6 213/6/6
f 146/6/2 214/6/2 223/6/2 155/6/2
f 165/6/4 155/6/4 223/6/4 224/6/4
f 151/3/1 159/3/1 225/3/1 218/3/1
f 159/3/4 156/3/4 226/3/4 225/3/4
f 218/3/6 225/3/6 226/3/6 220/3/6
f 152/6/2 221/6/2 227/6/2 228/6/2
f 220/6/6 226/6/6 227/6/6 221/6/6
f 153/6/5 152/6/5 228/6/5 156/6/5
f 165/5/2 224/5/2 229/5/2 163/5/2
f 154/5/1 161/5/1 230/5/1 222/5/1
f 161/5/4 163/5/4 229/5/4 230/5/4
f 222/5/6 230/5/6 229/5/6 224/5/6
f 231/7/2 232/7/2 233/7/2 169/7/2
f 155/7/1 164/7/1 234/7/1 223/7/1
f 155/7/3 223/7/3 232/7/3 231/7/3
f 223/7/6 234/7/6 233/7/6 232/7/6
f 155/7/5 231/7/5 169/7/5 164/7/5
f 228/4/2 227/4/2 235/4/2 178/4/2
f 156/4/1 236/4/1 237/4/1 226/4/1
f 226/4/6 237/4/6 235/4/6 227/4/6
f 156/4/5 228/4/5 178/4/5 236/4/5
f 169/1/2 233/1/2 238/1/2 170/1/2
f 164/1/1 168/1/1 239/1/1 234/1/1
f 168/1/4 170/1/4 238/1/4 239/1/4
f 234/1/6 239/1/6 238/1/6 233/1/6
f 236/4/1 240/4/1 241/4/1 237/4/1
f 240/4/4 177/4/4 242/4/4 241/4/4
f 237/4/6 241/4/6 242/4/6 235/4/6
f 236/4/5 178/4/5 177/4/5 240/4/5
f 172/4/2 243/4/2 244/4/2 173/4/2
f 178/4/3 235/4/3 243/4/3 172/4/3
f 177/4/4 173/4/4 244/4/4 242/4/4
f 189/1/2 245/1/2 246/1/2 197/1/2
f 191/1/1 196/1/1 247/1/1 248/1/1
f 191/1/3 248/1/3 245/1/3 189/1/3
f 196/1/4 197/1/4 246/1/4 247/1/4
f 248/1/6 247/1/6 246/1/6 245/1/6
f 200/6/1 210/6/1 249/6/1 250/6/1
f 200/6/3 250/6/3 251/6/3 199/6/3
f 250/6/6 249/6/6 252/6/6 251/6/6
f 211/7/2 253/7/2 254/7/2 212/7/2
f 199/7/3 251/7/3 253/7/3 211/7/3
f 219/7/4 212/7/4 254/7/4 252/7/4
f 204/1/2 255/1/2 256/1/2 215/1/2
f 202/1/1 213/1/1 257/1/1 258/1/1
f 202/1/3 258/1/3 255/1/3 204/1/3
f 258/1/6 257/1/6 256/1/6 255/1/6
f 259/7/2 260/7/2 261/7/2 262/7/2
f 205/7/1 214/7/1 263/7/1 264/7/1
f 205/7/3 264/7/3 260/7/3 259/7/3
f 214/7/4 262/7/4 261/7/4 263/7/4
f 205/7/5 259/7/5 262/7/5 214/7/5
f 219/5/2 252/5/2 265/5/2 220/5/2
f 210/5/1 218/5/1 266/5/1 249/5/1
f 218/5/4 220/5/4 265/5/4 266/5/4
f 249/5/6 266/5/6 265/5/6 252/5/6
f 213/6/1 222/6/1 267/6/1 257/6/1
f 222/6/4 224/6/4 268/6/4 267/6/4
f 257/6/6 267/6/6 268/6/6 256/6/6
f 214/6/2 263/6/2 269/6/2 223/6/2
f 215/6/3 256/6/3 263/6/3 214/6/3
f 224/6/4 223/6/4 269/6/4 268/6/4
f 230/6/2 270/6/2 271/6/2 243/6/2
f 227/6/1 235/6/1 272/6/1 273/6/1
f 227/6/3 273/6/3 270/6/3 230/6/3
f 227/6/5 230/6/5 243/6/5 235/6/5
f 243/1/2 271/1/2 274/1/2 244/1/2
f 235/1/1 242/1/1 275/1/1 272/1/1
f 242/1/4 244/1/4 274/1/4 275/1/4
f 272/1/6 275/1/6 274/1/6 271/1/6
f 276/2/2 277/2/2 278/2/2 279/2/2
f 280/2/1 281/2/1 282/2/1 283/2/1
f 280/2/3 283/2/3 277/2/3 276/2/3
f 283/2/6 282/2/6 278/2/6 277/2/6
f 280/2/5 276/2/5 279/2/5 281/2/5
f 279/6/2 278/6/2 284/6/2 258/6/2
f 281/6/1 253/6/1 285/6/1 282/6/1
f 253/6/4 258/6/4 284/6/4 285/6/4
f 281/6/5 279/6/5 258/6/5 253/6/5
f 253/6/2 285/6/2 286/6/2 254/6/2
f 251/6/1 252/6/1 287/6/1 288/6/1
f 251/6/3 288/6/3 285/6/3 253/6/3
f 252/6/4 254/6/4 286/6/4 287/6/4
f 260/6/2 289/6/2 290/6/2 261/6/2
f 264/6/1 263/6/1 291/6/1 292/6/1
f 264/6/3 292/6/3 289/6/3 260/6/3
f 292/6/6 291/6/6 290/6/6 289/6/6
f 256/7/1 268/7/1 293/7/1 294/7/1
f 256/7/3 294/7/3 291/7/3 263/7/3
f 268/7/4 269/7/4 295/7/4 293/7/4
f 294/7/6 293/7/6 295/7/6 291/7/6
f 261/6/2 290/6/2 296/6/2 297/6/2
f 263/6/5 261/6/5 297/6/5 269/6/5
f 297/2/2 296/2/2 298/2/2 299/2/2
f 269/2/1 300/2/1 301/2/1 295/2/1
f 300/2/4 299/2/4 298/2/4 301/2/4
f 295/2/6 301/2/6 298/2/6 296/2/6
f 269/2/5 297/2/5 299/2/5 300/2/5
f 270/2/2 302/2/2 303/2/2 271/2/2
f 273/2/1 272/2/1 304/2/1 305/2/1
f 273/2/3 305/2/3 302/2/3 270/2/3
f 272/2/4 271/2/4 303/2/4 304/2/4
f 305/2/6 304/2/6 303/2/6 302/2/6
f 278/1/2 306/1/2 307/1/2 284/1/2
f 282/1/1 285/1/1 308/1/1 309/1/1
f 282/1/3 309/1/3 306/1/3 278/1/3
f 309/1/6 308/1/6 307/1/6 306/1/6
f 288/7/1 287/7/1 310/7/1 311/7/1
f 288/7/3 311/7/3 308/7/3 285/7/3
f 287/7/4 286/7/4 312/7/4 310/7/4
f 311/7/6 310/7/6 312/7/6 308/7/6
f 284/7/2 307/7/2 313/7/2 314/7/2
f 308/7/6 312/7/6 313/7/6 307/7/6
f 285/7/5 284/7/5 314/7/5 286/7/5
f 314/1/2 313/1/2 315/1/2 316/1/2
f 286/1/1 317/1/1 318/1/1 312/1/1
f 317/1/4 316/1/4 315/1/4 318/1/4
f 312/1/6 318/1/6 315/1/6 313/1/6
f 286/1/5 314/1/5 316/1/5 317/1/5
f 290/1/2 319/1/2 320/1/2 296/1/2
f 291/1/1 295/1/1 321/1/1 322/1/1
f 291/1/3 322/1/3 319/1/3 290/1/3
f 295/1/4 296/1/4 320/1/4 321/1/4
f 322/1/6 321/1/6 320/1/6 319/1/6
