mtllib Manzano_Mateo_Andres_Guzmán_Reyes_fase_2.mtl
o Manzano_Mateo_Andres_Guzmán_Reyes_fase_2
v -4.0000 0.0000 4.0000
v -3.0000 0.0000 4.0000
v -3.0000 0.0000 3.0000
v -4.0000 0.0000 3.0000
v -4.0000 -1.0000 4.0000
v -4.0000 -1.0000 3.0000
v -3.0000 -1.0000 3.0000
v -3.0000 -1.0000 4.0000
v -4.0000 -1.0000 2.0000
v -3.0000 -1.0000 2.0000
v -4.0000 0.0000 2.0000
v -3.0000 1.0000 3.0000
v -4.0000 1.0000 3.0000
v -4.0000 1.0000 2.0000
v -3.0000 1.0000 2.0000
v -3.0000 0.0000 2.0000
v -4.0000 2.0000 3.0000
v -3.0000 2.0000 3.0000
v -3.0000 2.0000 2.0000
v -4.0000 2.0000 2.0000
v -3.0000 0.0000 1.0000
v -4.0000 0.0000 1.0000
v -4.0000 -1.0000 1.0000
v -3.0000 -1.0000 1.0000
v -4.0000 1.0000 1.0000
v -3.0000 1.0000 1.0000
v -3.0000 2.0000 1.0000
v -4.0000 2.0000 1.0000
v -3.0000 3.0000 2.0000
v -4.0000 3.0000 2.0000
v -3.0000 3.0000 1.0000
v -4.0000 3.0000 1.0000
v -4.0000 4.0000 2.0000
v -3.0000 4.0000 2.0000
v -3.0000 4.0000 1.0000
v -4.0000 4.0000 1.0000
v -3.0000 0.0000 -0.0000
v -4.0000 0.0000 -0.0000
v -4.0000 -1.0000 -0.0000
v -3.0000 -1.0000 -0.0000
v -4.0000 1.0000 -0.0000
v -3.0000 1.0000 -0.0000
v -4.0000 2.0000 -0.0000
v -4.0000 3.0000 -0.0000
v -3.0000 4.0000 -0.0000
v -4.0000 4.0000 -0.0000
v -3.0000 3.0000 -0.0000
v -4.0000 -1.0000 -1.0000
v -3.0000 -1.0000 -1.0000
v -4.0000 0.0000 -1.0000
v -3.0000 0.0000 -1.0000
v -3.0000 1.0000 -1.0000
v -4.0000 1.0000 -1.0000
v -3.0000 2.0000 -1.0000
v -3.0000 2.0000 -0.0000
v -4.0000 2.0000 -1.0000
v -3.0000 3.0000 -1.0000
v -4.0000 3.0000 -1.0000
v -4.0000 -1.0000 -2.0000
v -3.0000 -1.0000 -2.0000
v -4.0000 0.0000 -2.0000
v -4.0000 1.0000 -2.0000
v -4.0000 2.0000 -2.0000
v -3.0000 3.0000 -2.0000
v -4.0000 3.0000 -2.0000
v -3.0000 2.0000 -2.0000
v -4.0000 -1.0000 -3.0000
v -3.0000 -1.0000 -3.0000
v -4.0000 0.0000 -3.0000
v -4.0000 1.0000 -3.0000
v -3.0000 2.0000 -3.0000
v -4.0000 2.0000 -3.0000
v -4.0000 4.0000 -2.0000
v -3.0000 4.0000 -2.0000
v -3.0000 4.0000 -3.0000
v -4.0000 4.0000 -3.0000
v -4.0000 3.0000 -3.0000
v -3.0000 3.0000 -3.0000
v -4.0000 -1.0000 -4.0000
v -3.0000 -1.0000 -4.0000
v -4.0000 0.0000 -4.0000
v -3.0000 0.0000 -4.0000
v -4.0000 1.0000 -4.0000
v -3.0000 1.0000 -4.0000
v -3.0000 2.0000 -4.0000
v -4.0000 2.0000 -4.0000
v -2.0000 -1.0000 3.0000
v -2.0000 -1.0000 4.0000
v -2.0000 0.0000 4.0000
v -2.0000 1.0000 4.0000
v -3.0000 1.0000 4.0000
v -2.0000 2.0000 4.0000
v -3.0000 2.0000 4.0000
v -2.0000 3.0000 4.0000
v -3.0000 3.0000 4.0000
v -3.0000 3.0000 3.0000
v -3.0000 4.0000 4.0000
v -2.0000 4.0000 4.0000
v -2.0000 4.0000 3.0000
v -3.0000 4.0000 3.0000
v -2.0000 -1.0000 2.0000
v -2.0000 0.0000 2.0000
v -2.0000 1.0000 2.0000
v -2.0000 2.0000 2.0000
v -2.0000 3.0000 2.0000
v -2.0000 4.0000 2.0000
v -2.0000 4.0000 1.0000
v -2.0000 3.0000 1.0000
v -2.0000 -1.0000 -0.0000
v -2.0000 -1.0000 1.0000
v -2.0000 0.0000 1.0000
v -2.0000 1.0000 1.0000
v -2.0000 1.0000 -0.0000
v -2.0000 0.0000 -0.0000
v -2.0000 2.0000 1.0000
v -2.0000 2.0000 -0.0000
v -2.0000 4.0000 -0.0000
v -2.0000 0.0000 -1.0000
v -2.0000 -1.0000 -1.0000
v -2.0000 2.0000 -1.0000
v -2.0000 4.0000 -1.0000
v -3.0000 4.0000 -1.0000
v -2.0000 -1.0000 -2.0000
v -2.0000 1.0000 -1.0000
v -2.0000 4.0000 -2.0000
v -2.0000 -1.0000 -3.0000
v -2.0000 4.0000 -3.0000
v -2.0000 -1.0000 -4.0000
v -2.0000 0.0000 -4.0000
v -2.0000 1.0000 -4.0000
v -2.0000 2.0000 -4.0000
v -3.0000 3.0000 -4.0000
v -2.0000 3.0000 -4.0000
v -2.0000 4.0000 -4.0000
v -3.0000 4.0000 -4.0000
v -1.0000 -1.0000 3.0000
v -1.0000 -1.0000 4.0000
v -1.0000 0.0000 4.0000
v -1.0000 1.0000 4.0000
v -1.0000 2.0000 4.0000
v -1.0000 3.0000 4.0000
v -1.0000 4.0000 4.0000
v -1.0000 4.0000 3.0000
v -1.0000 -1.0000 2.0000
v -1.0000 0.0000 2.0000
v -1.0000 1.0000 2.0000
v -1.0000 2.0000 2.0000
v -1.0000 3.0000 2.0000
v -1.0000 4.0000 2.0000
v -2.0000 -2.0000 1.0000
v -2.0000 -2.0000 -0.0000
v -1.0000 -2.0000 -0.0000
v -1.0000 -2.0000 1.0000
v -1.0000 -1.0000 1.0000
v -1.0000 0.0000 1.0000
v -1.0000 1.0000 1.0000
v -1.0000 1.0000 -0.0000
v -1.0000 0.0000 -0.0000
v -1.0000 2.0000 1.0000
v -1.0000 2.0000 -0.0000
v -1.0000 3.0000 1.0000
v -1.0000 4.0000 1.0000
v -1.0000 4.0000 -0.0000
v -2.0000 -2.0000 -1.0000
v -1.0000 -2.0000 -1.0000
v -1.0000 -1.0000 -1.0000
v -1.0000 0.0000 -1.0000
v -1.0000 1.0000 -1.0000
v -1.0000 4.0000 -1.0000
v -1.0000 -1.0000 -2.0000
v -1.0000 4.0000 -2.0000
v -1.0000 -1.0000 -3.0000
v -1.0000 4.0000 -3.0000
v -1.0000 -1.0000 -4.0000
v -1.0000 0.0000 -4.0000
v -1.0000 1.0000 -4.0000
v -1.0000 2.0000 -4.0000
v -1.0000 3.0000 -4.0000
v -1.0000 4.0000 -4.0000
v 0.0000 -1.0000 3.0000
v 0.0000 -1.0000 4.0000
v 0.0000 0.0000 4.0000
v 0.0000 1.0000 4.0000
v 0.0000 2.0000 4.0000
v 0.0000 3.0000 4.0000
v 0.0000 4.0000 4.0000
v 0.0000 4.0000 3.0000
v 0.0000 -1.0000 2.0000
v 0.0000 1.0000 2.0000
v 0.0000 0.0000 2.0000
v 0.0000 2.0000 2.0000
v 0.0000 3.0000 2.0000
v 0.0000 4.0000 2.0000
v -1.0000 -2.0000 2.0000
v 0.0000 -2.0000 1.0000
v 0.0000 -2.0000 2.0000
v 0.0000 0.0000 1.0000
v 0.0000 -1.0000 1.0000
v 0.0000 4.0000 1.0000
v 0.0000 3.0000 1.0000
v -1.0000 -4.0000 1.0000
v -1.0000 -4.0000 -0.0000
v 0.0000 -4.0000 -0.0000
v 0.0000 -4.0000 1.0000
v 0.0000 -3.0000 1.0000
v -1.0000 -3.0000 1.0000
v -1.0000 -3.0000 -0.0000
v 0.0000 1.0000 1.0000
v 0.0000 1.0000 -0.0000
v 0.0000 2.0000 -0.0000
v 0.0000 2.0000 1.0000
v 0.0000 4.0000 -0.0000
v -1.0000 -4.0000 -1.0000
v 0.0000 -4.0000 -1.0000
v -1.0000 -3.0000 -1.0000
v 0.0000 -3.0000 -1.0000
v 0.0000 -2.0000 -1.0000
v 0.0000 4.0000 -1.0000
v -1.0000 -2.0000 -2.0000
v 0.0000 -2.0000 -2.0000
v 0.0000 -1.0000 -2.0000
v 0.0000 4.0000 -2.0000
v 0.0000 -1.0000 -3.0000
v 0.0000 4.0000 -3.0000
v 0.0000 -1.0000 -4.0000
v 0.0000 0.0000 -4.0000
v 0.0000 1.0000 -4.0000
v 0.0000 2.0000 -4.0000
v 0.0000 3.0000 -4.0000
v 0.0000 4.0000 -4.0000
v 1.0000 -1.0000 3.0000
v 1.0000 -1.0000 4.0000
v 1.0000 0.0000 4.0000
v 1.0000 1.0000 4.0000
v 1.0000 2.0000 4.0000
v 1.0000 3.0000 4.0000
v 1.0000 4.0000 4.0000
v 1.0000 4.0000 3.0000
v 1.0000 -1.0000 2.0000
v 1.0000 0.0000 2.0000
v 1.0000 4.0000 2.0000
v 1.0000 -1.0000 1.0000
v 1.0000 -2.0000 1.0000
v 1.0000 -2.0000 2.0000
v 1.0000 0.0000 1.0000
v 1.0000 4.0000 1.0000
v 1.0000 -4.0000 -0.0000
v 1.0000 -4.0000 1.0000
v 1.0000 -3.0000 1.0000
v 1.0000 -3.0000 -0.0000
v 1.0000 -2.0000 -0.0000
v 1.0000 4.0000 -0.0000
v 1.0000 -4.0000 -1.0000
v 1.0000 -3.0000 -1.0000
v 1.0000 -2.0000 -1.0000
v 1.0000 -1.0000 -0.0000
v 1.0000 -1.0000 -1.0000
v 1.0000 0.0000 -1.0000
v 1.0000 0.0000 -0.0000
v 1.0000 4.0000 -1.0000
v 1.0000 -2.0000 -2.0000
v 1.0000 -1.0000 -2.0000
v 1.0000 0.0000 -2.0000
v 1.0000 4.0000 -2.0000
v 1.0000 -1.0000 -3.0000
v 1.0000 0.0000 -3.0000
v 1.0000 4.0000 -3.0000
v 1.0000 -1.0000 -4.0000
v 1.0000 0.0000 -4.0000
v 1.0000 1.0000 -4.0000
v 1.0000 2.0000 -4.0000
v 1.0000 3.0000 -4.0000
v 1.0000 4.0000 -4.0000
v 2.0000 -1.0000 3.0000
v 2.0000 -1.0000 4.0000
v 2.0000 0.0000 4.0000
v 2.0000 1.0000 4.0000
v 2.0000 2.0000 4.0000
v 2.0000 1.0000 3.0000
v 2.0000 2.0000 3.0000
v 2.0000 3.0000 4.0000
v 2.0000 3.0000 3.0000
v 2.0000 4.0000 4.0000
v 2.0000 4.0000 3.0000
v 2.0000 -1.0000 2.0000
v 2.0000 0.0000 2.0000
v 2.0000 1.0000 2.0000
v 2.0000 2.0000 2.0000
v 2.0000 3.0000 2.0000
v 2.0000 4.0000 2.0000
v 2.0000 0.0000 1.0000
v 2.0000 1.0000 1.0000
v 2.0000 2.0000 1.0000
v 2.0000 3.0000 1.0000
v 2.0000 4.0000 1.0000
v 2.0000 -2.0000 -0.0000
v 2.0000 -2.0000 1.0000
v 2.0000 -1.0000 1.0000
v 2.0000 -1.0000 -0.0000
v 2.0000 0.0000 -0.0000
v 2.0000 1.0000 -0.0000
v 2.0000 2.0000 -0.0000
v 2.0000 4.0000 -0.0000
v 2.0000 -1.0000 -1.0000
v 2.0000 -2.0000 -1.0000
v 2.0000 0.0000 -1.0000
v 2.0000 1.0000 -1.0000
v 2.0000 2.0000 -1.0000
v 2.0000 4.0000 -1.0000
v 2.0000 0.0000 -2.0000
v 2.0000 1.0000 -2.0000
v 2.0000 2.0000 -2.0000
v 2.0000 4.0000 -2.0000
v 2.0000 0.0000 -3.0000
v 2.0000 1.0000 -3.0000
v 2.0000 2.0000 -3.0000
v 2.0000 4.0000 -3.0000
v 2.0000 0.0000 -4.0000
v 2.0000 1.0000 -4.0000
v 2.0000 2.0000 -4.0000
v 2.0000 3.0000 -4.0000
v 2.0000 4.0000 -4.0000
v 3.0000 -1.0000 3.0000
v 3.0000 -1.0000 4.0000
v 3.0000 0.0000 4.0000
v 3.0000 1.0000 4.0000
v 3.0000 1.0000 3.0000
v 3.0000 -1.0000 2.0000
v 3.0000 1.0000 2.0000
v 3.0000 -1.0000 1.0000
v 3.0000 1.0000 1.0000
v 3.0000 -1.0000 -0.0000
v 3.0000 1.0000 -0.0000
v 3.0000 2.0000 -0.0000
v 3.0000 2.0000 1.0000
v 3.0000 3.0000 1.0000
v 3.0000 3.0000 -0.0000
v 3.0000 4.0000 1.0000
v 3.0000 4.0000 -0.0000
v 3.0000 -1.0000 -1.0000
v 3.0000 1.0000 -1.0000
v 3.0000 2.0000 -1.0000
v 3.0000 3.0000 -1.0000
v 3.0000 4.0000 -1.0000
v 2.0000 -1.0000 -2.0000
v 3.0000 -1.0000 -2.0000
v 3.0000 1.0000 -2.0000
v 3.0000 2.0000 -2.0000
v 3.0000 3.0000 -2.0000
v 3.0000 4.0000 -2.0000
v 2.0000 -1.0000 -3.0000
v 3.0000 -1.0000 -3.0000
v 3.0000 1.0000 -3.0000
v 3.0000 2.0000 -3.0000
v 3.0000 3.0000 -3.0000
v 3.0000 4.0000 -3.0000
v 2.0000 -1.0000 -4.0000
v 3.0000 -1.0000 -4.0000
v 3.0000 0.0000 -4.0000
v 3.0000 1.0000 -4.0000
v 3.0000 2.0000 -4.0000
v 3.0000 3.0000 -4.0000
v 3.0000 4.0000 -4.0000
v 4.0000 -1.0000 3.0000
v 4.0000 -1.0000 4.0000
v 4.0000 0.0000 4.0000
v 4.0000 0.0000 3.0000
v 4.0000 1.0000 4.0000
v 4.0000 1.0000 3.0000
v 4.0000 -1.0000 2.0000
v 4.0000 0.0000 2.0000
v 4.0000 1.0000 2.0000
v 4.0000 -1.0000 1.0000
v 4.0000 0.0000 1.0000
v 4.0000 1.0000 1.0000
v 4.0000 -1.0000 -0.0000
v 4.0000 0.0000 -0.0000
v 4.0000 1.0000 -0.0000
v 4.0000 -1.0000 -1.0000
v 4.0000 0.0000 -1.0000
v 4.0000 1.0000 -1.0000
v 4.0000 4.0000 -0.0000
v 4.0000 4.0000 -1.0000
v 4.0000 3.0000 -1.0000
v 4.0000 3.0000 -0.0000
v 4.0000 -1.0000 -2.0000
v 4.0000 0.0000 -2.0000
v 4.0000 1.0000 -2.0000
v 4.0000 -1.0000 -3.0000
v 4.0000 0.0000 -3.0000
v 4.0000 1.0000 -3.0000
v 4.0000 -1.0000 -4.0000
v 4.0000 0.0000 -4.0000
v 4.0000 1.0000 -4.0000
vt 0.001953 0.500000
vt 0.005859 0.500000
vt 0.009766 0.500000
vt 0.013672 0.500000
vt 0.017578 0.500000
vt 0.021484 0.500000
vn 0.0 -1.0 0.0
vn 0.0 1.0 0.0
vn 0.0 0.0 1.0
vn 0.0 0.0 -1.0
vn -1.0 0.0 0.0
vn 1.0 0.0 0.0
usemtl mat_Manzano_Mateo_Andres_Guzmán_Reyes_fase_2
s off
f 1/1/2 2/1/2 3/1/2 4/1/2
f 5/1/1 6/1/1 7/1/1 8/1/1
f 5/1/3 8/1/3 2/1/3 1/1/3
f 5/1/5 1/1/5 4/1/5 6/1/5
f 6/1/1 9/1/1 10/1/1 7/1/1
f 6/1/5 4/1/5 11/1/5 9/1/5
f 4/1/3 3/1/3 12/1/3 13/1/3
f 11/1/4 14/1/4 15/1/4 16/1/4
f 4/1/5 13/1/5 14/1/5 11/1/5
f 17/1/2 18/1/2 19/1/2 20/1/2
f 13/1/3 12/1/3 18/1/3 17/1/3
f 13/1/5 17/1/5 20/1/5 14/1/5
f 11/1/2 16/1/2 21/1/2 22/1/2
f 9/1/1 23/1/1 24/1/1 10/1/1
f 10/1/6 24/1/6 21/1/6 16/1/6
f 9/1/5 11/1/5 22/1/5 23/1/5
f 14/1/1 25/1/1 26/1/1 15/1/1
f 15/1/6 26/1/6 27/1/6 19/1/6
f 14/1/5 20/1/5 28/1/5 25/1/5
f 20/1/3 19/1/3 29/1/3 30/1/3
f 19/1/6 27/1/6 31/1/6 29/1/6
f 20/1/5 30/1/5 32/1/5 28/1/5
f 33/1/2 34/1/2 35/1/2 36/1/2
f 30/1/3 29/1/3 34/1/3 33/1/3
f 30/1/5 33/1/5 36/1/5 32/1/5
f 22/1/2 21/1/2 37/1/2 38/1/2
f 23/1/1 39/1/1 40/1/1 24/1/1
f 23/1/5 22/1/5 38/1/5 39/1/5
f 25/1/1 41/1/1 42/1/1 26/1/1
f 25/1/5 28/1/5 43/1/5 41/1/5
f 28/1/5 32/1/5 44/1/5 43/1/5
f 36/2/2 35/2/2 45/2/2 46/2/2
f 44/2/4 46/2/4 45/2/4 47/2/4
f 32/2/5 36/2/5 46/2/5 44/2/5
f 39/3/1 48/3/1 49/3/1 40/3/1
f 39/3/5 38/3/5 50/3/5 48/3/5
f 38/4/3 37/4/3 42/4/3 41/4/3
f 37/4/6 51/4/6 52/4/6 42/4/6
f 38/4/5 41/4/5 53/4/5 50/4/5
f 42/1/6 52/1/6 54/1/6 55/1/6
f 41/1/5 43/1/5 56/1/5 53/1/5
f 44/1/2 47/1/2 57/1/2 58/1/2
f 43/1/5 44/1/5 58/1/5 56/1/5
f 48/1/1 59/1/1 60/1/1 49/1/1
f 48/1/5 50/1/5 61/1/5 59/1/5
f 50/5/5 53/5/5 62/5/5 61/5/5
f 53/1/5 56/1/5 63/1/5 62/1/5
f 58/1/2 57/1/2 64/1/2 65/1/2
f 63/1/4 65/1/4 64/1/4 66/1/4
f 56/1/5 58/1/5 65/1/5 63/1/5
f 59/1/1 67/1/1 68/1/1 60/1/1
f 59/1/5 61/1/5 69/1/5 67/1/5
f 61/1/5 62/1/5 70/1/5 69/1/5
f 63/1/2 66/1/2 71/1/2 72/1/2
f 62/1/5 63/1/5 72/1/5 70/1/5
f 73/1/2 74/1/2 75/1/2 76/1/2
f 65/1/1 77/1/1 78/1/1 64/1/1
f 65/1/3 64/1/3 74/1/3 73/1/3
f 77/1/4 76/1/4 75/1/4 78/1/4
f 65/1/5 73/1/5 76/1/5 77/1/5
f 67/1/1 79/1/1 80/1/1 68/1/1
f 79/1/4 81/1/4 82/1/4 80/1/4
f 67/1/5 69/1/5 81/1/5 79/1/5
f 81/1/4 83/1/4 84/1/4 82/1/4
f 69/1/5 70/1/5 83/1/5 81/1/5
f 72/1/2 71/1/2 85/1/2 86/1/2
f 83/1/4 86/1/4 85/1/4 84/1/4
f 70/1/5 72/1/5 86/1/5 83/1/5
f 8/1/1 7/1/1 87/1/1 88/1/1
f 8/1/3 88/1/3 89/1/3 2/1/3
f 2/1/3 89/1/3 90/1/3 91/1/3
f 2/1/5 91/1/5 12/1/5 3/1/5
f 91/6/3 90/6/3 92/6/3 93/6/3
f 91/6/5 93/6/5 18/6/5 12/6/5
f 93/1/3 92/1/3 94/1/3 95/1/3
f 93/1/5 95/1/5 96/1/5 18/1/5
f 97/1/2 98/1/2 99/1/2 100/1/2
f 95/1/3 94/1/3 98/1/3 97/1/3
f 95/1/5 97/1/5 100/1/5 96/1/5
f 7/1/1 10/1/1 101/1/1 87/1/1
f 10/1/4 16/1/4 102/1/4 101/1/4
f 16/2/4 15/2/4 103/2/4 102/2/4
f 15/1/4 19/1/4 104/1/4 103/1/4
f 19/1/4 29/1/4 105/1/4 104/1/4
f 18/1/5 96/1/5 29/1/5 19/1/5
f 100/1/2 99/1/2 106/1/2 34/1/2
f 96/1/5 100/1/5 34/1/5 29/1/5
f 34/2/2 106/2/2 107/2/2 35/2/2
f 29/2/1 31/2/1 108/2/1 105/2/1
f 105/2/6 108/2/6 107/2/6 106/2/6
f 24/1/1 40/1/1 109/1/1 110/1/1
f 24/1/3 110/1/3 111/1/3 21/1/3
f 21/1/3 111/1/3 112/1/3 26/1/3
f 37/1/4 42/1/4 113/1/4 114/1/4
f 21/1/5 26/1/5 42/1/5 37/1/5
f 26/1/3 112/1/3 115/1/3 27/1/3
f 42/1/4 55/1/4 116/1/4 113/1/4
f 27/4/3 115/4/3 108/4/3 31/4/3
f 35/1/2 107/1/2 117/1/2 45/1/2
f 37/3/2 114/3/2 118/3/2 51/3/2
f 40/3/1 49/3/1 119/3/1 109/3/1
f 55/1/1 54/1/1 120/1/1 116/1/1
f 45/2/2 117/2/2 121/2/2 122/2/2
f 47/2/5 45/2/5 122/2/5 57/2/5
f 49/1/1 60/1/1 123/1/1 119/1/1
f 51/4/3 118/4/3 124/4/3 52/4/3
f 52/1/3 124/1/3 120/1/3 54/1/3
f 122/1/2 121/1/2 125/1/2 74/1/2
f 57/1/5 122/1/5 74/1/5 64/1/5
f 60/1/1 68/1/1 126/1/1 123/1/1
f 66/1/5 64/1/5 78/1/5 71/1/5
f 74/1/2 125/1/2 127/1/2 75/1/2
f 68/1/1 80/1/1 128/1/1 126/1/1
f 80/1/4 82/1/4 129/1/4 128/1/4
f 82/1/4 84/1/4 130/1/4 129/1/4
f 84/1/4 85/1/4 131/1/4 130/1/4
f 85/1/4 132/1/4 133/1/4 131/1/4
f 71/1/5 78/1/5 132/1/5 85/1/5
f 75/1/2 127/1/2 134/1/2 135/1/2
f 132/1/4 135/1/4 134/1/4 133/1/4
f 78/1/5 75/1/5 135/1/5 132/1/5
f 88/1/1 87/1/1 136/1/1 137/1/1
f 88/1/3 137/1/3 138/1/3 89/1/3
f 89/2/3 138/2/3 139/2/3 90/2/3
f 90/1/3 139/1/3 140/1/3 92/1/3
f 92/6/3 140/6/3 141/6/3 94/6/3
f 98/1/2 142/1/2 143/1/2 99/1/2
f 94/1/3 141/1/3 142/1/3 98/1/3
f 87/1/1 101/1/1 144/1/1 136/1/1
f 101/1/4 102/1/4 145/1/4 144/1/4
f 102/1/4 103/1/4 146/1/4 145/1/4
f 103/1/4 104/1/4 147/1/4 146/1/4
f 104/1/4 105/1/4 148/1/4 147/1/4
f 99/1/2 143/1/2 149/1/2 106/1/2
f 105/1/4 106/1/4 149/1/4 148/1/4
f 150/5/1 151/5/1 152/5/1 153/5/1
f 150/5/3 153/5/3 154/5/3 110/5/3
f 150/5/5 110/5/5 109/5/5 151/5/5
f 110/1/3 154/1/3 155/1/3 111/1/3
f 111/1/3 155/1/3 156/1/3 112/1/3
f 114/1/4 113/1/4 157/1/4 158/1/4
f 112/1/3 156/1/3 159/1/3 115/1/3
f 156/1/6 157/1/6 160/1/6 159/1/6
f 115/1/3 159/1/3 161/1/3 108/1/3
f 107/1/2 162/1/2 163/1/2 117/1/2
f 108/1/3 161/1/3 162/1/3 107/1/3
f 151/3/1 164/3/1 165/3/1 152/3/1
f 164/3/4 119/3/4 166/3/4 165/3/4
f 151/3/5 109/3/5 119/3/5 164/3/5
f 114/3/2 158/3/2 167/3/2 118/3/2
f 113/5/1 124/5/1 168/5/1 157/5/1
f 113/5/5 116/5/5 120/5/5 124/5/5
f 117/1/2 163/1/2 169/1/2 121/1/2
f 119/1/1 123/1/1 170/1/1 166/1/1
f 118/1/3 167/1/3 168/1/3 124/1/3
f 121/1/2 169/1/2 171/1/2 125/1/2
f 123/1/1 126/1/1 172/1/1 170/1/1
f 125/2/2 171/2/2 173/2/2 127/2/2
f 126/1/1 128/1/1 174/1/1 172/1/1
f 128/1/4 129/1/4 175/1/4 174/1/4
f 129/1/4 130/1/4 176/1/4 175/1/4
f 130/1/4 131/1/4 177/1/4 176/1/4
f 131/1/4 133/1/4 178/1/4 177/1/4
f 127/1/2 173/1/2 179/1/2 134/1/2
f 133/1/4 134/1/4 179/1/4 178/1/4
f 137/1/1 136/1/1 180/1/1 181/1/1
f 137/1/3 181/1/3 182/1/3 138/1/3
f 138/1/3 182/1/3 183/1/3 139/1/3
f 139/1/3 183/1/3 184/1/3 140/1/3
f 140/1/3 184/1/3 185/1/3 141/1/3
f 142/1/2 186/1/2 187/1/2 143/1/2
f 141/1/3 185/1/3 186/1/3 142/1/3
f 136/1/1 144/1/1 188/1/1 180/1/1
f 145/1/4 146/1/4 189/1/4 190/1/4
f 146/1/4 147/1/4 191/1/4 189/1/4
f 147/1/4 148/1/4 192/1/4 191/1/4
f 143/1/2 187/1/2 193/1/2 149/1/2
f 194/4/1 153/4/1 195/4/1 196/4/1
f 194/4/3 196/4/3 188/4/3 144/4/3
f 194/4/5 144/4/5 154/4/5 153/4/5
f 145/1/2 190/1/2 197/1/2 155/1/2
f 188/1/6 198/1/6 197/1/6 190/1/6
f 144/1/5 145/1/5 155/1/5 154/1/5
f 149/1/2 193/1/2 199/1/2 162/1/2
f 148/1/1 161/1/1 200/1/1 192/1/1
f 148/1/5 149/1/5 162/1/5 161/1/5
f 201/3/1 202/3/1 203/3/1 204/3/1
f 201/3/3 204/3/3 205/3/3 206/3/3
f 201/3/5 206/3/5 207/3/5 202/3/5
f 206/3/3 205/3/3 195/3/3 153/3/3
f 206/3/5 153/3/5 152/3/5 207/3/5
f 156/4/2 208/4/2 209/4/2 157/4/2
f 155/4/3 197/4/3 208/4/3 156/4/3
f 159/1/1 160/1/1 210/1/1 211/1/1
f 159/1/3 211/1/3 200/1/3 161/1/3
f 162/1/2 199/1/2 212/1/2 163/1/2
f 202/3/1 213/3/1 214/3/1 203/3/1
f 213/3/4 215/3/4 216/3/4 214/3/4
f 202/3/5 207/3/5 215/3/5 213/3/5
f 215/3/4 165/3/4 217/3/4 216/3/4
f 207/3/5 152/3/5 165/3/5 215/3/5
f 158/3/5 157/3/5 168/3/5 167/3/5
f 157/3/3 209/3/3 210/3/3 160/3/3
f 163/1/2 212/1/2 218/1/2 169/1/2
f 165/5/1 219/5/1 220/5/1 217/5/1
f 219/5/4 170/5/4 221/5/4 220/5/4
f 165/5/5 166/5/5 170/5/5 219/5/5
f 169/1/2 218/1/2 222/1/2 171/1/2
f 170/1/1 172/1/1 223/1/1 221/1/1
f 171/1/2 222/1/2 224/1/2 173/1/2
f 172/1/1 174/1/1 225/1/1 223/1/1
f 174/1/4 175/1/4 226/1/4 225/1/4
f 175/5/4 176/5/4 227/5/4 226/5/4
f 176/1/4 177/1/4 228/1/4 227/1/4
f 177/1/4 178/1/4 229/1/4 228/1/4
f 173/2/2 224/2/2 230/2/2 179/2/2
f 178/2/4 179/2/4 230/2/4 229/2/4
f 181/6/1 180/6/1 231/6/1 232/6/1
f 181/6/3 232/6/3 233/6/3 182/6/3
f 182/1/3 233/1/3 234/1/3 183/1/3
f 183/1/3 234/1/3 235/1/3 184/1/3
f 184/1/3 235/1/3 236/1/3 185/1/3
f 186/1/2 237/1/2 238/1/2 187/1/2
f 185/1/3 236/1/3 237/1/3 186/1/3
f 180/1/1 188/1/1 239/1/1 231/1/1
f 188/1/4 190/1/4 240/1/4 239/1/4
f 187/1/2 238/1/2 241/1/2 193/1/2
f 188/2/2 239/2/2 242/2/2 198/2/2
f 196/2/1 195/2/1 243/2/1 244/2/1
f 196/2/3 244/2/3 239/2/3 188/2/3
f 244/2/6 243/2/6 242/2/6 239/2/6
f 190/1/1 197/1/1 245/1/1 240/1/1
f 190/1/5 189/1/5 208/1/5 197/1/5
f 189/1/5 191/1/5 211/1/5 208/1/5
f 191/1/5 192/1/5 200/1/5 211/1/5
f 193/1/2 241/1/2 246/1/2 199/1/2
f 204/4/1 203/4/1 247/4/1 248/4/1
f 204/4/3 248/4/3 249/4/3 205/4/3
f 248/4/6 247/4/6 250/4/6 249/4/6
f 205/4/3 249/4/3 243/4/3 195/4/3
f 249/4/6 250/4/6 251/4/6 243/4/6
f 198/4/3 242/4/3 245/4/3 197/4/3
f 208/1/5 211/1/5 210/1/5 209/1/5
f 199/1/2 246/1/2 252/1/2 212/1/2
f 203/3/1 214/3/1 253/3/1 247/3/1
f 214/3/4 216/3/4 254/3/4 253/3/4
f 247/3/6 253/3/6 254/3/6 250/3/6
f 216/3/4 217/3/4 255/3/4 254/3/4
f 250/3/6 254/3/6 255/3/6 251/3/6
f 256/4/6 257/4/6 258/4/6 259/4/6
f 212/1/2 252/1/2 260/1/2 218/1/2
f 217/3/1 220/3/1 261/3/1 255/3/1
f 220/3/4 221/3/4 262/3/4 261/3/4
f 255/3/6 261/3/6 262/3/6 257/3/6
f 257/3/6 262/3/6 263/3/6 258/3/6
f 218/1/2 260/1/2 264/1/2 222/1/2
f 221/3/1 223/3/1 265/3/1 262/3/1
f 262/3/6 265/3/6 266/3/6 263/3/6
f 222/2/2 264/2/2 267/2/2 224/2/2
f 223/3/1 225/3/1 268/3/1 265/3/1
f 225/3/4 226/3/4 269/3/4 268/3/4
f 265/3/6 268/3/6 269/3/6 266/3/6
f 226/4/4 227/4/4 270/4/4 269/4/4
f 227/1/4 228/1/4 271/1/4 270/1/4
f 228/1/4 229/1/4 272/1/4 271/1/4
f 224/1/2 267/1/2 273/1/2 230/1/2
f 229/1/4 230/1/4 273/1/4 272/1/4
f 232/1/1 231/1/1 274/1/1 275/1/1
f 232/1/3 275/1/3 276/1/3 233/1/3
f 233/1/3 276/1/3 277/1/3 234/1/3
f 234/1/3 277/1/3 278/1/3 235/1/3
f 277/1/6 279/1/6 280/1/6 278/1/6
f 235/1/3 278/1/3 281/1/3 236/1/3
f 278/1/6 280/1/6 282/1/6 281/1/6
f 237/6/2 283/6/2 284/6/2 238/6/2
f 236/6/3 281/6/3 283/6/3 237/6/3
f 281/6/6 282/6/6 284/6/6 283/6/6
f 231/1/1 239/1/1 285/1/1 274/1/1
f 239/1/4 240/1/4 286/1/4 285/1/4
f 279/1/6 287/1/6 288/1/6 280/1/6
f 280/1/6 288/1/6 289/1/6 282/1/6
f 238/1/2 284/1/2 290/1/2 241/1/2
f 282/1/6 289/1/6 290/1/6 284/1/6
f 240/1/1 245/1/1 291/1/1 286/1/1
f 287/6/6 292/6/6 293/6/6 288/6/6
f 288/1/6 293/1/6 294/1/6 289/1/6
f 241/1/2 290/1/2 295/1/2 246/1/2
f 289/1/6 294/1/6 295/1/6 290/1/6
f 243/4/1 251/4/1 296/4/1 297/4/1
f 243/4/3 297/4/3 298/4/3 242/4/3
f 297/4/6 296/4/6 299/4/6 298/4/6
f 242/1/3 298/1/3 291/1/3 245/1/3
f 256/1/4 259/1/4 300/1/4 299/1/4
f 292/2/6 301/2/6 302/2/6 293/2/6
f 246/1/2 295/1/2 303/1/2 252/1/2
f 256/5/2 299/5/2 304/5/2 257/5/2
f 251/5/1 255/5/1 305/5/1 296/5/1
f 255/5/4 257/5/4 304/5/4 305/5/4
f 296/5/6 305/5/6 304/5/6 299/5/6
f 259/1/1 258/1/1 306/1/1 300/1/1
f 301/4/6 307/4/6 308/4/6 302/4/6
f 252/1/2 303/1/2 309/1/2 260/1/2
f 258/6/1 263/6/1 310/6/1 306/6/1
f 307/6/6 311/6/6 312/6/6 308/6/6
f 260/1/2 309/1/2 313/1/2 264/1/2
f 263/6/1 266/6/1 314/6/1 310/6/1
f 311/6/6 315/6/6 316/6/6 312/6/6
f 264/1/2 313/1/2 317/1/2 267/1/2
f 266/6/1 269/6/1 318/6/1 314/6/1
f 269/6/4 270/6/4 319/6/4 318/6/4
f 270/6/4 271/6/4 320/6/4 319/6/4
f 315/6/6 319/6/6 320/6/6 316/6/6
f 271/1/4 272/1/4 321/1/4 320/1/4
f 267/1/2 317/1/2 322/1/2 273/1/2
f 272/1/4 273/1/4 322/1/4 321/1/4
f 275/1/1 274/1/1 323/1/1 324/1/1
f 275/1/3 324/1/3 325/1/3 276/1/3
f 277/1/2 326/1/2 327/1/2 279/1/2
f 276/1/3 325/1/3 326/1/3 277/1/3
f 274/1/1 285/1/1 328/1/1 323/1/1
f 279/1/2 327/1/2 329/1/2 287/1/2
f 285/1/1 298/1/1 330/1/1 328/1/1
f 285/1/5 286/1/5 291/1/5 298/1/5
f 287/1/2 329/1/2 331/1/2 292/1/2
f 298/1/1 299/1/1 332/1/1 330/1/1
f 292/1/2 331/1/2 333/1/2 301/1/2
f 293/1/1 302/1/1 334/1/1 335/1/1
f 293/1/3 335/1/3 336/1/3 294/1/3
f 335/1/6 334/1/6 337/1/6 336/1/6
f 295/1/2 338/1/2 339/1/2 303/1/2
f 294/1/3 336/1/3 338/1/3 295/1/3
f 336/1/6 337/1/6 339/1/6 338/1/6
f 299/1/1 304/1/1 340/1/1 332/1/1
f 299/1/5 300/1/5 306/1/5 304/1/5
f 301/1/2 333/1/2 341/1/2 307/1/2
f 302/6/1 308/6/1 342/6/1 334/6/1
f 334/6/6 342/6/6 343/6/6 337/6/6
f 303/6/2 339/6/2 344/6/2 309/6/2
f 304/1/1 345/1/1 346/1/1 340/1/1
f 304/1/5 306/1/5 310/1/5 345/1/5
f 307/6/2 341/6/2 347/6/2 311/6/2
f 308/1/1 312/1/1 348/1/1 342/1/1
f 342/1/6 348/1/6 349/1/6 343/1/6
f 309/6/2 344/6/2 350/6/2 313/6/2
f 343/6/6 349/6/6 350/6/6 344/6/6
f 345/1/1 351/1/1 352/1/1 346/1/1
f 345/1/5 310/1/5 314/1/5 351/1/5
f 311/6/2 347/6/2 353/6/2 315/6/2
f 312/1/1 316/1/1 354/1/1 348/1/1
f 348/1/6 354/1/6 355/1/6 349/1/6
f 313/1/2 350/1/2 356/1/2 317/1/2
f 349/1/6 355/1/6 356/1/6 350/1/6
f 351/1/1 357/1/1 358/1/1 352/1/1
f 357/1/4 318/1/4 359/1/4 358/1/4
f 351/1/5 314/1/5 318/1/5 357/1/5
f 315/6/2 353/6/2 360/6/2 319/6/2
f 318/6/4 319/6/4 360/6/4 359/6/4
f 316/1/1 320/1/1 361/1/1 354/1/1
f 320/1/4 321/1/4 362/1/4 361/1/4
f 354/1/6 361/1/6 362/1/6 355/1/6
f 317/1/2 356/1/2 363/1/2 322/1/2
f 321/1/4 322/1/4 363/1/4 362/1/4
f 355/1/6 362/1/6 363/1/6 356/1/6
f 324/1/1 323/1/1 364/1/1 365/1/1
f 324/1/3 365/1/3 366/1/3 325/1/3
f 365/1/6 364/1/6 367/1/6 366/1/6
f 326/6/2 368/6/2 369/6/2 327/6/2
f 325/6/3 366/6/3 368/6/3 326/6/3
f 366/6/6 367/6/6 369/6/6 368/6/6
f 323/1/1 328/1/1 370/1/1 364/1/1
f 364/1/6 370/1/6 371/1/6 367/1/6
f 327/1/2 369/1/2 372/1/2 329/1/2
f 367/1/6 371/1/6 372/1/6 369/1/6
f 328/1/1 330/1/1 373/1/1 370/1/1
f 370/1/6 373/1/6 374/1/6 371/1/6
f 329/1/2 372/1/2 375/1/2 331/1/2
f 371/1/6 374/1/6 375/1/6 372/1/6
f 330/1/1 332/1/1 376/1/1 373/1/1
f 373/1/6 376/1/6 377/1/6 374/1/6
f 331/1/2 375/1/2 378/1/2 333/1/2
f 374/1/6 377/1/6 378/1/6 375/1/6
f 332/6/1 340/6/1 379/6/1 376/6/1
f 376/6/6 379/6/6 380/6/6 377/6/6
f 333/2/2 378/2/2 381/2/2 341/2/2
f 377/2/6 380/2/6 381/2/6 378/2/6
f 339/6/2 382/6/2 383/6/2 344/6/2
f 337/6/1 343/6/1 384/6/1 385/6/1
f 337/6/3 385/6/3 382/6/3 339/6/3
f 343/6/4 344/6/4 383/6/4 384/6/4
f 385/6/6 384/6/6 383/6/6 382/6/6
f 340/1/1 346/1/1 386/1/1 379/1/1
f 379/1/6 386/1/6 387/1/6 380/1/6
f 341/6/2 381/6/2 388/6/2 347/6/2
f 380/6/6 387/6/6 388/6/6 381/6/6
f 346/1/1 352/1/1 389/1/1 386/1/1
f 386/1/6 389/1/6 390/1/6 387/1/6
f 347/6/2 388/6/2 391/6/2 353/6/2
f 387/6/6 390/6/6 391/6/6 388/6/6
f 352/1/1 358/1/1 392/1/1 389/1/1
f 358/1/4 359/1/4 393/1/4 392/1/4
f 389/1/6 392/1/6 393/1/6 390/1/6
f 353/6/2 391/6/2 394/6/2 360/6/2
f 359/6/4 360/6/4 394/6/4 393/6/4
f 390/6/6 393/6/6 394/6/6 391/6/6
