mtllib Manzano_Julian_David_Almonacid_Vanegas_fase_2.mtl
o Manzano_Julian_David_Almonacid_Vanegas_fase_2
v -2.5000 -1.5000 1.5000
v -1.5000 -1.5000 1.5000
v -1.5000 -1.5000 0.5000
v -2.5000 -1.5000 0.5000
v -2.5000 -2.5000 1.5000
v -2.5000 -2.5000 0.5000
v -1.5000 -2.5000 0.5000
v -1.5000 -2.5000 1.5000
v -2.5000 -1.5000 -0.5000
v -1.5000 -1.5000 -0.5000
v -1.5000 -1.5000 -1.5000
v -2.5000 -1.5000 -1.5000
v -2.5000 -2.5000 -0.5000
v -2.5000 -2.5000 -1.5000
v -1.5000 -2.5000 -1.5000
v -1.5000 -2.5000 -0.5000
v -0.5000 -1.5000 1.5000
v -0.5000 -1.5000 0.5000
v -0.5000 -2.5000 0.5000
v -0.5000 -2.5000 1.5000
v -1.5000 -0.5000 1.5000
v -1.5000 -0.5000 0.5000
v -0.5000 -0.5000 0.5000
v -0.5000 -0.5000 1.5000
v -0.5000 0.5000 1.5000
v -1.5000 0.5000 1.5000
v -1.5000 0.5000 0.5000
v -0.5000 0.5000 0.5000
v -0.5000 1.5000 1.5000
v -1.5000 1.5000 1.5000
v -1.5000 1.5000 0.5000
v -1.5000 2.5000 1.5000
v -0.5000 2.5000 1.5000
v -0.5000 2.5000 0.5000
v -1.5000 2.5000 0.5000
v -0.5000 1.5000 0.5000
v -0.5000 -2.5000 -0.5000
v -0.5000 -0.5000 -0.5000
v -1.5000 -0.5000 -0.5000
v -0.5000 -1.5000 -0.5000
v -0.5000 1.5000 -0.5000
v -1.5000 1.5000 -0.5000
v -1.5000 0.5000 -0.5000
v -0.5000 0.5000 -0.5000
v -0.5000 -1.5000 -1.5000
v -0.5000 -2.5000 -1.5000
v -1.5000 -0.5000 -1.5000
v -0.5000 -0.5000 -1.5000
v -1.5000 0.5000 -1.5000
v -0.5000 0.5000 -1.5000
v -1.5000 1.5000 -1.5000
v -1.5000 2.5000 -0.5000
v -0.5000 2.5000 -0.5000
v -0.5000 2.5000 -1.5000
v -1.5000 2.5000 -1.5000
v -0.5000 1.5000 -1.5000
v -0.5000 1.5000 -2.5000
v -1.5000 1.5000 -2.5000
v -1.5000 0.5000 -2.5000
v -0.5000 0.5000 -2.5000
v 0.5000 -2.5000 0.5000
v 0.5000 -2.5000 1.5000
v 0.5000 -1.5000 1.5000
v 0.5000 -0.5000 1.5000
v 0.5000 -0.5000 0.5000
v 0.5000 -1.5000 0.5000
v 0.5000 1.5000 1.5000
v 0.5000 1.5000 0.5000
v 0.5000 0.5000 0.5000
v 0.5000 0.5000 1.5000
v 0.5000 -2.5000 -0.5000
v 0.5000 -1.5000 -0.5000
v 0.5000 -0.5000 -0.5000
v 0.5000 0.5000 -0.5000
v 0.5000 1.5000 -0.5000
v 0.5000 2.5000 0.5000
v 0.5000 2.5000 -0.5000
v 0.5000 -2.5000 -1.5000
v 0.5000 -1.5000 -1.5000
v 0.5000 -0.5000 -1.5000
v 0.5000 0.5000 -1.5000
v 0.5000 2.5000 -1.5000
v 0.5000 1.5000 -1.5000
v 0.5000 1.5000 -2.5000
v 0.5000 0.5000 -2.5000
v 1.5000 -1.5000 1.5000
v 1.5000 -1.5000 0.5000
v 1.5000 -2.5000 0.5000
v 1.5000 -2.5000 1.5000
v 1.5000 0.5000 1.5000
v 1.5000 0.5000 0.5000
v 1.5000 -0.5000 0.5000
v 1.5000 -0.5000 1.5000
v 0.5000 2.5000 1.5000
v 1.5000 2.5000 1.5000
v 1.5000 2.5000 0.5000
v 1.5000 1.5000 0.5000
v 1.5000 1.5000 1.5000
v 1.5000 -1.5000 -0.5000
v 1.5000 -2.5000 -0.5000
v 1.5000 0.5000 -0.5000
v 1.5000 -0.5000 -0.5000
v 1.5000 -1.5000 -1.5000
v 1.5000 -2.5000 -1.5000
v 1.5000 0.5000 -1.5000
v 1.5000 1.5000 -0.5000
v 1.5000 1.5000 -1.5000
v 1.5000 2.5000 -0.5000
v 1.5000 2.5000 -1.5000
v 1.5000 -1.5000 3.5000
v 2.5000 -1.5000 3.5000
v 2.5000 -1.5000 2.5000
v 1.5000 -1.5000 2.5000
v 1.5000 -2.5000 3.5000
v 1.5000 -2.5000 2.5000
v 2.5000 -2.5000 2.5000
v 2.5000 -2.5000 3.5000
v 1.5000 -1.5000 -2.5000
v 2.5000 -1.5000 -2.5000
v 2.5000 -1.5000 -3.5000
v 1.5000 -1.5000 -3.5000
v 1.5000 -2.5000 -2.5000
v 1.5000 -2.5000 -3.5000
v 2.5000 -2.5000 -3.5000
v 2.5000 -2.5000 -2.5000
vt 0.001953 0.500000
vt 0.005859 0.500000
vt 0.009766 0.500000
vt 0.013672 0.500000
vt 0.017578 0.500000
vn 0.0 -1.0 0.0
vn 0.0 1.0 0.0
vn 0.0 0.0 1.0
vn 0.0 0.0 -1.0
vn -1.0 0.0 0.0
vn 1.0 0.0 0.0
usemtl mat_Manzano_Julian_David_Almonacid_Vanegas_fase_2
s off
f 1/1/2 2/1/2 3/1/2 4/1/2
f 5/1/1 6/1/1 7/1/1 8/1/1
f 5/1/3 8/1/3 2/1/3 1/1/3
f 6/1/4 4/1/4 3/1/4 7/1/4
f 5/1/5 1/1/5 4/1/5 6/1/5
f 9/1/2 10/1/2 11/1/2 12/1/2
f 13/1/1 14/1/1 15/1/1 16/1/1
f 13/1/3 16/1/3 10/1/3 9/1/3
f 14/1/4 12/1/4 11/1/4 15/1/4
f 13/1/5 9/1/5 12/1/5 14/1/5
f 2/1/2 17/1/2 18/1/2 3/1/2
f 8/1/1 7/1/1 19/1/1 20/1/1
f 8/1/3 20/1/3 17/1/3 2/1/3
f 21/2/1 22/2/1 23/2/1 24/2/1
f 21/2/3 24/2/3 25/2/3 26/2/3
f 22/2/4 27/2/4 28/2/4 23/2/4
f 24/2/6 23/2/6 28/2/6 25/2/6
f 21/2/5 26/2/5 27/2/5 22/2/5
f 26/2/3 25/2/3 29/2/3 30/2/3
f 26/2/5 30/2/5 31/2/5 27/2/5
f 32/2/2 33/2/2 34/2/2 35/2/2
f 30/2/3 29/2/3 33/2/3 32/2/3
f 31/2/4 35/2/4 34/2/4 36/2/4
f 29/2/6 36/2/6 34/2/6 33/2/6
f 30/2/5 32/2/5 35/2/5 31/2/5
f 7/3/1 16/3/1 37/3/1 19/3/1
f 7/3/5 3/3/5 10/3/5 16/3/5
f 22/3/2 23/3/2 38/3/2 39/3/2
f 3/3/3 18/3/3 23/3/3 22/3/3
f 10/3/4 39/3/4 38/3/4 40/3/4
f 3/3/5 22/3/5 39/3/5 10/3/5
f 31/2/2 36/2/2 41/2/2 42/2/2
f 27/2/1 43/2/1 44/2/1 28/2/1
f 27/2/5 31/2/5 42/2/5 43/2/5
f 10/1/2 40/1/2 45/1/2 11/1/2
f 16/1/1 15/1/1 46/1/1 37/1/1
f 15/1/4 11/1/4 45/1/4 46/1/4
f 39/2/1 47/2/1 48/2/1 38/2/1
f 39/2/3 38/2/3 44/2/3 43/2/3
f 47/2/4 49/2/4 50/2/4 48/2/4
f 39/2/5 43/2/5 49/2/5 47/2/5
f 43/4/5 42/4/5 51/4/5 49/4/5
f 52/2/2 53/2/2 54/2/2 55/2/2
f 42/2/3 41/2/3 53/2/3 52/2/3
f 51/2/4 55/2/4 54/2/4 56/2/4
f 42/2/5 52/2/5 55/2/5 51/2/5
f 51/5/2 56/5/2 57/5/2 58/5/2
f 49/5/1 59/5/1 60/5/1 50/5/1
f 59/5/4 58/5/4 57/5/4 60/5/4
f 49/5/5 51/5/5 58/5/5 59/5/5
f 20/1/1 19/1/1 61/1/1 62/1/1
f 20/1/3 62/1/3 63/1/3 17/1/3
f 24/1/2 64/1/2 65/1/2 23/1/2
f 17/1/3 63/1/3 64/1/3 24/1/3
f 63/1/6 66/1/6 65/1/6 64/1/6
f 17/1/5 24/1/5 23/1/5 18/1/5
f 29/2/2 67/2/2 68/2/2 36/2/2
f 25/2/1 28/2/1 69/2/1 70/2/1
f 25/2/3 70/2/3 67/2/3 29/2/3
f 70/2/6 69/2/6 68/2/6 67/2/6
f 19/1/1 37/1/1 71/1/1 61/1/1
f 66/1/6 72/1/6 73/1/6 65/1/6
f 23/4/3 65/4/3 69/4/3 28/4/3
f 23/4/5 28/4/5 44/4/5 38/4/5
f 69/5/6 74/5/6 75/5/6 68/5/6
f 34/5/2 76/5/2 77/5/2 53/5/2
f 36/5/3 68/5/3 76/5/3 34/5/3
f 68/5/6 75/5/6 77/5/6 76/5/6
f 36/5/5 34/5/5 53/5/5 41/5/5
f 37/1/1 46/1/1 78/1/1 71/1/1
f 46/1/4 45/1/4 79/1/4 78/1/4
f 45/1/4 48/1/4 80/1/4 79/1/4
f 72/1/6 79/1/6 80/1/6 73/1/6
f 40/1/5 38/1/5 48/1/5 45/1/5
f 48/2/4 50/2/4 81/2/4 80/2/4
f 73/2/6 80/2/6 81/2/6 74/2/6
f 53/2/2 77/2/2 82/2/2 54/2/2
f 56/2/4 54/2/4 82/2/4 83/2/4
f 56/2/2 83/2/2 84/2/2 57/2/2
f 50/2/1 60/2/1 85/2/1 81/2/1
f 60/2/4 57/2/4 84/2/4 85/2/4
f 81/2/6 85/2/6 84/2/6 83/2/6
f 63/1/2 86/1/2 87/1/2 66/1/2
f 62/1/1 61/1/1 88/1/1 89/1/1
f 62/1/3 89/1/3 86/1/3 63/1/3
f 89/1/6 88/1/6 87/1/6 86/1/6
f 70/2/2 90/2/2 91/2/2 69/2/2
f 64/2/1 65/2/1 92/2/1 93/2/1
f 64/2/3 93/2/3 90/2/3 70/2/3
f 93/2/6 92/2/6 91/2/6 90/2/6
f 64/2/5 70/2/5 69/2/5 65/2/5
f 94/2/2 95/2/2 96/2/2 76/2/2
f 67/2/1 68/2/1 97/2/1 98/2/1
f 67/2/3 98/2/3 95/2/3 94/2/3
f 68/2/4 76/2/4 96/2/4 97/2/4
f 98/2/6 97/2/6 96/2/6 95/2/6
f 67/2/5 94/2/5 76/2/5 68/2/5
f 66/3/2 87/3/2 99/3/2 72/3/2
f 61/3/1 71/3/1 100/3/1 88/3/1
f 88/3/6 100/3/6 99/3/6 87/3/6
f 69/2/2 91/2/2 101/2/2 74/2/2
f 65/2/1 73/2/1 102/2/1 92/2/1
f 73/2/4 74/2/4 101/2/4 102/2/4
f 92/2/6 102/2/6 101/2/6 91/2/6
f 72/1/2 99/1/2 103/1/2 79/1/2
f 71/1/1 78/1/1 104/1/1 100/1/1
f 78/1/4 79/1/4 103/1/4 104/1/4
f 100/1/6 104/1/6 103/1/6 99/1/6
f 74/2/1 81/2/1 105/2/1 101/2/1
f 74/2/3 101/2/3 106/2/3 75/2/3
f 81/2/4 83/2/4 107/2/4 105/2/4
f 101/2/6 105/2/6 107/2/6 106/2/6
f 77/2/2 108/2/2 109/2/2 82/2/2
f 75/2/3 106/2/3 108/2/3 77/2/3
f 83/2/4 82/2/4 109/2/4 107/2/4
f 106/2/6 107/2/6 109/2/6 108/2/6
f 110/5/2 111/5/2 112/5/2 113/5/2
f 114/5/1 115/5/1 116/5/1 117/5/1
f 114/5/3 117/5/3 111/5/3 110/5/3
f 115/5/4 113/5/4 112/5/4 116/5/4
f 117/5/6 116/5/6 112/5/6 111/5/6
f 114/5/5 110/5/5 113/5/5 115/5/5
f 118/5/2 119/5/2 120/5/2 121/5/2
f 122/5/1 123/5/1 124/5/1 125/5/1
f 122/5/3 125/5/3 119/5/3 118/5/3
f 123/5/4 121/5/4 120/5/4 124/5/4
f 125/5/6 124/5/6 120/5/6 119/5/6
f 122/5/5 118/5/5 121/5/5 123/5/5
