mtllib Pino_romeron_Daniel_Felipe_Orjuela_Rodríguez_fase_2.mtl
o Pino_romeron_Daniel_Felipe_Orjuela_Rodríguez_fase_2
v -2.5000 -2.0000 1.5000
v -2.5000 -2.0000 0.5000
v -1.5000 -2.0000 0.5000
v -1.5000 -2.0000 1.5000
v -1.5000 -1.0000 1.5000
v -2.5000 -1.0000 1.5000
v -2.5000 -1.0000 0.5000
v -2.5000 0.0000 1.5000
v -1.5000 0.0000 1.5000
v -1.5000 0.0000 0.5000
v -2.5000 0.0000 0.5000
v -2.5000 -2.0000 -0.5000
v -1.5000 -2.0000 -0.5000
v -2.5000 -1.0000 -0.5000
v -1.5000 0.0000 -0.5000
v -2.5000 0.0000 -0.5000
v -2.5000 -2.0000 -1.5000
v -1.5000 -2.0000 -1.5000
v -2.5000 -1.0000 -1.5000
v -1.5000 -1.0000 -1.5000
v -1.5000 0.0000 -1.5000
v -2.5000 0.0000 -1.5000
v -0.5000 -2.0000 0.5000
v -0.5000 -2.0000 1.5000
v -0.5000 -1.0000 1.5000
v -0.5000 0.0000 1.5000
v -0.5000 0.0000 0.5000
v -1.5000 2.0000 1.5000
v -0.5000 2.0000 1.5000
v -0.5000 2.0000 0.5000
v -1.5000 2.0000 0.5000
v -1.5000 1.0000 1.5000
v -1.5000 1.0000 0.5000
v -0.5000 1.0000 0.5000
v -0.5000 1.0000 1.5000
v -1.5000 -4.0000 0.5000
v -1.5000 -4.0000 -0.5000
v -0.5000 -4.0000 -0.5000
v -0.5000 -4.0000 0.5000
v -0.5000 -3.0000 0.5000
v -1.5000 -3.0000 0.5000
v -1.5000 -3.0000 -0.5000
v -1.5000 1.0000 -0.5000
v -1.5000 2.0000 -0.5000
v -0.5000 3.0000 0.5000
v -1.5000 3.0000 0.5000
v -1.5000 3.0000 -0.5000
v -1.5000 4.0000 0.5000
v -0.5000 4.0000 0.5000
v -0.5000 4.0000 -0.5000
v -1.5000 4.0000 -0.5000
v -1.5000 -4.0000 -1.5000
v -0.5000 -4.0000 -1.5000
v -1.5000 -3.0000 -1.5000
v -0.5000 -3.0000 -1.5000
v -0.5000 -2.0000 -1.5000
v -1.5000 1.0000 -1.5000
v -0.5000 1.0000 -1.5000
v -0.5000 0.0000 -1.5000
v -1.5000 2.0000 -1.5000
v -1.5000 3.0000 -1.5000
v -0.5000 3.0000 -1.5000
v -0.5000 2.0000 -1.5000
v -0.5000 4.0000 -1.5000
v -1.5000 4.0000 -1.5000
v -1.5000 -2.0000 -2.5000
v -0.5000 -2.0000 -2.5000
v -1.5000 -1.0000 -2.5000
v -0.5000 -1.0000 -2.5000
v -0.5000 0.0000 -2.5000
v -1.5000 0.0000 -2.5000
v -0.5000 2.0000 -2.5000
v -1.5000 2.0000 -2.5000
v -1.5000 1.0000 -2.5000
v -0.5000 1.0000 -2.5000
v -0.5000 2.0000 2.5000
v 0.5000 2.0000 2.5000
v 0.5000 2.0000 1.5000
v -0.5000 1.0000 2.5000
v 0.5000 1.0000 1.5000
v 0.5000 1.0000 2.5000
v 0.5000 -2.0000 0.5000
v 0.5000 -2.0000 1.5000
v 0.5000 -1.0000 1.5000
v 0.5000 -1.0000 0.5000
v 0.5000 0.0000 1.5000
v 0.5000 0.0000 0.5000
v 0.5000 2.0000 0.5000
v 0.5000 1.0000 0.5000
v 0.5000 -4.0000 -0.5000
v 0.5000 -4.0000 0.5000
v 0.5000 -3.0000 0.5000
v 0.5000 3.0000 0.5000
v 0.5000 4.0000 0.5000
v 0.5000 4.0000 -0.5000
v 0.5000 -4.0000 -1.5000
v 0.5000 -3.0000 -1.5000
v 0.5000 -2.0000 -1.5000
v 0.5000 1.0000 -1.5000
v 0.5000 0.0000 -1.5000
v 0.5000 3.0000 -1.5000
v 0.5000 2.0000 -1.5000
v 0.5000 4.0000 -1.5000
v 0.5000 -2.0000 -2.5000
v 0.5000 -1.0000 -2.5000
v 0.5000 0.0000 -2.5000
v 0.5000 2.0000 -2.5000
v 0.5000 1.0000 -2.5000
v 1.5000 2.0000 2.5000
v 1.5000 2.0000 1.5000
v 1.5000 1.0000 1.5000
v 1.5000 1.0000 2.5000
v 1.5000 2.0000 0.5000
v 1.5000 1.0000 0.5000
v 1.5000 -4.0000 -0.5000
v 1.5000 -4.0000 0.5000
v 1.5000 -3.0000 0.5000
v 1.5000 -3.0000 -0.5000
v 1.5000 -2.0000 0.5000
v 1.5000 -2.0000 -0.5000
v 1.5000 -1.0000 0.5000
v 1.5000 -1.0000 -0.5000
v 1.5000 0.0000 0.5000
v 1.5000 0.0000 -0.5000
v 1.5000 1.0000 -0.5000
v 1.5000 2.0000 -0.5000
v 1.5000 3.0000 0.5000
v 1.5000 3.0000 -0.5000
v 1.5000 4.0000 0.5000
v 1.5000 4.0000 -0.5000
v 1.5000 -4.0000 -1.5000
v 1.5000 -3.0000 -1.5000
v 1.5000 -2.0000 -1.5000
v 1.5000 1.0000 -1.5000
v 1.5000 0.0000 -1.5000
v 1.5000 2.0000 -1.5000
v 1.5000 3.0000 -1.5000
v 1.5000 4.0000 -1.5000
v 1.5000 -2.0000 -2.5000
v 1.5000 -1.0000 -2.5000
v 1.5000 0.0000 -2.5000
v 1.5000 2.0000 -2.5000
v 1.5000 1.0000 -2.5000
v 2.5000 -2.0000 -1.5000
v 2.5000 -2.0000 -0.5000
v 2.5000 -1.0000 -0.5000
v 2.5000 -1.0000 -1.5000
v 2.5000 0.0000 -0.5000
v 2.5000 0.0000 -1.5000
v 2.5000 -2.0000 -2.5000
v 2.5000 -1.0000 -2.5000
v 2.5000 0.0000 -2.5000
vt 0.001953 0.500000
vt 0.005859 0.500000
vt 0.009766 0.500000
vt 0.013672 0.500000
vt 0.017578 0.500000
vt 0.021484 0.500000
vt 0.025391 0.500000
vt 0.029297 0.500000
vt 0.033203 0.500000
vt 0.037109 0.500000
vt 0.041016 0.500000
vt 0.044922 0.500000
vt 0.048828 0.500000
vt 0.052734 0.500000
vt 0.056641 0.500000
vt 0.060547 0.500000
vn 0.0 -1.0 0.0
vn 0.0 1.0 0.0
vn 0.0 0.0 1.0
vn 0.0 0.0 -1.0
vn -1.0 0.0 0.0
vn 1.0 0.0 0.0
usemtl mat_Pino_romeron_Daniel_Felipe_Orjuela_Rodríguez_fase_2
s off
f 1/1/1 2/1/1 3/1/1 4/1/1
f 1/1/3 4/1/3 5/1/3 6/1/3
f 1/1/5 6/1/5 7/1/5 2/1/5
f 8/2/2 9/2/2 10/2/2 11/2/2
f 6/2/3 5/2/3 9/2/3 8/2/3
f 6/2/5 8/2/5 11/2/5 7/2/5
f 2/3/1 12/3/1 13/3/1 3/3/1
f 2/3/5 7/3/5 14/3/5 12/3/5
f 11/2/2 10/2/2 15/2/2 16/2/2
f 7/2/5 11/2/5 16/2/5 14/2/5
f 12/1/1 17/1/1 18/1/1 13/1/1
f 17/1/4 19/1/4 20/1/4 18/1/4
f 12/1/5 14/1/5 19/1/5 17/1/5
f 16/4/2 15/4/2 21/4/2 22/4/2
f 19/4/4 22/4/4 21/4/4 20/4/4
f 14/4/5 16/4/5 22/4/5 19/4/5
f 4/3/1 3/3/1 23/3/1 24/3/1
f 4/3/3 24/3/3 25/3/3 5/3/3
f 9/4/2 26/4/2 27/4/2 10/4/2
f 5/4/3 25/4/3 26/4/3 9/4/3
f 28/5/2 29/5/2 30/5/2 31/5/2
f 32/5/1 33/5/1 34/5/1 35/5/1
f 32/5/3 35/5/3 29/5/3 28/5/3
f 32/5/5 28/5/5 31/5/5 33/5/5
f 36/6/1 37/6/1 38/6/1 39/6/1
f 36/6/3 39/6/3 40/6/3 41/6/3
f 36/6/5 41/6/5 42/6/5 37/6/5
f 41/7/3 40/7/3 23/7/3 3/7/3
f 41/7/5 3/7/5 13/7/5 42/7/5
f 10/6/3 27/6/3 34/6/3 33/6/3
f 10/6/5 33/6/5 43/6/5 15/6/5
f 33/5/5 31/5/5 44/5/5 43/5/5
f 31/4/3 30/4/3 45/4/3 46/4/3
f 31/4/5 46/4/5 47/4/5 44/4/5
f 48/4/2 49/4/2 50/4/2 51/4/2
f 46/4/3 45/4/3 49/4/3 48/4/3
f 46/4/5 48/4/5 51/4/5 47/4/5
f 37/6/1 52/6/1 53/6/1 38/6/1
f 52/6/4 54/6/4 55/6/4 53/6/4
f 37/6/5 42/6/5 54/6/5 52/6/5
f 54/6/4 18/6/4 56/6/4 55/6/4
f 42/6/5 13/6/5 18/6/5 54/6/5
f 21/6/4 57/6/4 58/6/4 59/6/4
f 15/6/5 43/6/5 57/6/5 21/6/5
f 43/5/5 44/5/5 60/5/5 57/5/5
f 60/4/4 61/4/4 62/4/4 63/4/4
f 44/4/5 47/4/5 61/4/5 60/4/5
f 51/2/2 50/2/2 64/2/2 65/2/2
f 61/2/4 65/2/4 64/2/4 62/2/4
f 47/2/5 51/2/5 65/2/5 61/2/5
f 18/10/1 66/10/1 67/10/1 56/10/1
f 66/10/4 68/10/4 69/10/4 67/10/4
f 18/10/5 20/10/5 68/10/5 66/10/5
f 21/2/2 59/2/2 70/2/2 71/2/2
f 68/2/4 71/2/4 70/2/4 69/2/4
f 20/2/5 21/2/5 71/2/5 68/2/5
f 60/5/2 63/5/2 72/5/2 73/5/2
f 57/5/1 74/5/1 75/5/1 58/5/1
f 74/5/4 73/5/4 72/5/4 75/5/4
f 57/5/5 60/5/5 73/5/5 74/5/5
f 76/5/2 77/5/2 78/5/2 29/5/2
f 79/5/1 35/5/1 80/5/1 81/5/1
f 79/5/3 81/5/3 77/5/3 76/5/3
f 79/5/5 76/5/5 29/5/5 35/5/5
f 24/3/1 23/3/1 82/3/1 83/3/1
f 24/3/3 83/3/3 84/3/3 25/3/3
f 83/3/6 82/3/6 85/3/6 84/3/6
f 26/1/2 86/1/2 87/1/2 27/1/2
f 25/1/3 84/1/3 86/1/3 26/1/3
f 84/1/6 85/1/6 87/1/6 86/1/6
f 29/5/2 78/5/2 88/5/2 30/5/2
f 35/5/1 34/5/1 89/5/1 80/5/1
f 39/11/1 38/11/1 90/11/1 91/11/1
f 39/11/3 91/11/3 92/11/3 40/11/3
f 40/6/3 92/6/3 82/6/3 23/6/3
f 27/11/3 87/11/3 89/11/3 34/11/3
f 30/4/3 88/4/3 93/4/3 45/4/3
f 49/12/2 94/12/2 95/12/2 50/12/2
f 45/12/3 93/12/3 94/12/3 49/12/3
f 38/11/1 53/11/1 96/11/1 90/11/1
f 53/11/4 55/11/4 97/11/4 96/11/4
f 55/6/4 56/6/4 98/6/4 97/6/4
f 59/11/4 58/11/4 99/11/4 100/11/4
f 63/4/4 62/4/4 101/4/4 102/4/4
f 50/13/2 95/13/2 103/13/2 64/13/2
f 62/13/4 64/13/4 103/13/4 101/13/4
f 56/1/1 67/1/1 104/1/1 98/1/1
f 67/1/4 69/1/4 105/1/4 104/1/4
f 59/10/2 100/10/2 106/10/2 70/10/2
f 69/10/4 70/10/4 106/10/4 105/10/4
f 63/5/2 102/5/2 107/5/2 72/5/2
f 58/5/1 75/5/1 108/5/1 99/5/1
f 75/5/4 72/5/4 107/5/4 108/5/4
f 77/5/2 109/5/2 110/5/2 78/5/2
f 81/5/1 80/5/1 111/5/1 112/5/1
f 81/5/3 112/5/3 109/5/3 77/5/3
f 112/5/6 111/5/6 110/5/6 109/5/6
f 78/5/2 110/5/2 113/5/2 88/5/2
f 80/5/1 89/5/1 114/5/1 111/5/1
f 111/5/6 114/5/6 113/5/6 110/5/6
f 91/14/1 90/14/1 115/14/1 116/14/1
f 91/14/3 116/14/3 117/14/3 92/14/3
f 116/14/6 115/14/6 118/14/6 117/14/6
f 92/14/3 117/14/3 119/14/3 82/14/3
f 117/14/6 118/14/6 120/14/6 119/14/6
f 82/14/3 119/14/3 121/14/3 85/14/3
f 119/14/6 120/14/6 122/14/6 121/14/6
f 85/14/3 121/14/3 123/14/3 87/14/3
f 121/14/6 122/14/6 124/14/6 123/14/6
f 87/15/3 123/15/3 114/15/3 89/15/3
f 123/15/6 124/15/6 125/15/6 114/15/6
f 114/1/6 125/1/6 126/1/6 113/1/6
f 88/5/3 113/5/3 127/5/3 93/5/3
f 113/5/6 126/5/6 128/5/6 127/5/6
f 94/2/2 129/2/2 130/2/2 95/2/2
f 93/2/3 127/2/3 129/2/3 94/2/3
f 127/2/6 128/2/6 130/2/6 129/2/6
f 90/14/1 96/14/1 131/14/1 115/14/1
f 96/14/4 97/14/4 132/14/4 131/14/4
f 115/14/6 131/14/6 132/14/6 118/14/6
f 97/14/4 98/14/4 133/14/4 132/14/4
f 118/14/6 132/14/6 133/14/6 120/14/6
f 100/14/4 99/14/4 134/14/4 135/14/4
f 124/14/6 135/14/6 134/14/6 125/14/6
f 125/3/6 134/3/6 136/3/6 126/3/6
f 102/10/4 101/10/4 137/10/4 136/10/4
f 126/10/6 136/10/6 137/10/6 128/10/6
f 95/4/2 130/4/2 138/4/2 103/4/2
f 101/4/4 103/4/4 138/4/4 137/4/4
f 128/4/6 137/4/6 138/4/6 130/4/6
f 98/1/1 104/1/1 139/1/1 133/1/1
f 104/1/4 105/1/4 140/1/4 139/1/4
f 100/4/2 135/4/2 141/4/2 106/4/2
f 105/4/4 106/4/4 141/4/4 140/4/4
f 102/16/2 136/16/2 142/16/2 107/16/2
f 99/16/1 108/16/1 143/16/1 134/16/1
f 108/16/4 107/16/4 142/16/4 143/16/4
f 134/16/6 143/16/6 142/16/6 136/16/6
f 120/3/1 133/3/1 144/3/1 145/3/1
f 120/3/3 145/3/3 146/3/3 122/3/3
f 145/3/6 144/3/6 147/3/6 146/3/6
f 124/10/2 148/10/2 149/10/2 135/10/2
f 122/10/3 146/10/3 148/10/3 124/10/3
f 146/10/6 147/10/6 149/10/6 148/10/6
f 133/1/1 139/1/1 150/1/1 144/1/1
f 139/1/4 140/1/4 151/1/4 150/1/4
f 144/1/6 150/1/6 151/1/6 147/1/6
f 135/5/2 149/5/2 152/5/2 141/5/2
f 140/5/4 141/5/4 152/5/4 151/5/4
f 147/5/6 151/5/6 152/5/6 149/5/6
