mtllib Santiago_Correa_Fandiño_fase_2.mtl
o Santiago_Correa_Fandiño_fase_2
v -4.0000 -1.0000 4.0000
v -4.0000 -1.0000 3.0000
v -3.0000 -1.0000 3.0000
v -3.0000 -1.0000 4.0000
v -3.0000 0.0000 4.0000
v -4.0000 0.0000 4.0000
v -4.0000 0.0000 3.0000
v -4.0000 1.0000 4.0000
v -3.0000 1.0000 4.0000
v -3.0000 1.0000 3.0000
v -4.0000 1.0000 3.0000
v -3.0000 0.0000 3.0000
v -3.0000 0.0000 2.0000
v -4.0000 0.0000 2.0000
v -4.0000 -1.0000 2.0000
v -3.0000 -1.0000 2.0000
v -4.0000 -1.0000 1.0000
v -3.0000 -1.0000 1.0000
v -3.0000 0.0000 1.0000
v -4.0000 0.0000 1.0000
v -4.0000 1.0000 2.0000
v -3.0000 1.0000 2.0000
v -3.0000 1.0000 1.0000
v -4.0000 1.0000 1.0000
v -3.0000 0.0000 -0.0000
v -4.0000 0.0000 -0.0000
v -4.0000 -1.0000 -0.0000
v -3.0000 -1.0000 -0.0000
v -3.0000 0.0000 -1.0000
v -4.0000 0.0000 -1.0000
v -4.0000 -1.0000 -1.0000
v -3.0000 -1.0000 -1.0000
v -4.0000 -1.0000 -2.0000
v -3.0000 -1.0000 -2.0000
v -4.0000 0.0000 -2.0000
v -4.0000 1.0000 -1.0000
v -3.0000 1.0000 -1.0000
v -3.0000 1.0000 -2.0000
v -4.0000 1.0000 -2.0000
v -3.0000 0.0000 -2.0000
v -3.0000 0.0000 -3.0000
v -4.0000 0.0000 -3.0000
v -4.0000 -1.0000 -3.0000
v -3.0000 -1.0000 -3.0000
v -4.0000 -1.0000 -4.0000
v -3.0000 -1.0000 -4.0000
v -4.0000 0.0000 -4.0000
v -3.0000 0.0000 -4.0000
v -4.0000 1.0000 -3.0000
v -3.0000 1.0000 -3.0000
v -3.0000 1.0000 -4.0000
v -4.0000 1.0000 -4.0000
v -2.0000 0.0000 4.0000
v -2.0000 0.0000 3.0000
v -2.0000 -1.0000 3.0000
v -2.0000 -1.0000 4.0000
v -2.0000 -1.0000 2.0000
v -2.0000 0.0000 2.0000
v -2.0000 1.0000 3.0000
v -3.0000 2.0000 3.0000
v -2.0000 2.0000 3.0000
v -2.0000 2.0000 2.0000
v -3.0000 2.0000 2.0000
v -2.0000 1.0000 2.0000
v -2.0000 1.0000 1.0000
v -2.0000 0.0000 1.0000
v -2.0000 -1.0000 -0.0000
v -2.0000 -1.0000 1.0000
v -3.0000 1.0000 -0.0000
v -3.0000 2.0000 1.0000
v -2.0000 2.0000 1.0000
v -2.0000 2.0000 -0.0000
v -3.0000 2.0000 -0.0000
v -2.0000 -1.0000 -1.0000
v -2.0000 2.0000 -1.0000
v -3.0000 2.0000 -1.0000
v -2.0000 1.0000 -1.0000
v -2.0000 -1.0000 -2.0000
v -2.0000 0.0000 -2.0000
v -2.0000 1.0000 -2.0000
v -2.0000 0.0000 -3.0000
v -2.0000 1.0000 -3.0000
v -3.0000 2.0000 -2.0000
v -2.0000 2.0000 -2.0000
v -2.0000 2.0000 -3.0000
v -3.0000 2.0000 -3.0000
v -2.0000 0.0000 -4.0000
v -2.0000 -1.0000 -4.0000
v -2.0000 -1.0000 -3.0000
v -1.0000 -1.0000 3.0000
v -1.0000 -1.0000 4.0000
v -1.0000 0.0000 4.0000
v -2.0000 1.0000 4.0000
v -1.0000 1.0000 4.0000
v -1.0000 1.0000 3.0000
v -1.0000 0.0000 3.0000
v -1.0000 -1.0000 2.0000
v -1.0000 1.0000 2.0000
v -1.0000 -1.0000 1.0000
v -1.0000 2.0000 2.0000
v -2.0000 3.0000 2.0000
v -1.0000 3.0000 2.0000
v -1.0000 3.0000 1.0000
v -2.0000 3.0000 1.0000
v -1.0000 -1.0000 -0.0000
v -1.0000 3.0000 -0.0000
v -2.0000 3.0000 -0.0000
v -1.0000 -1.0000 -1.0000
v -1.0000 3.0000 -1.0000
v -2.0000 3.0000 -1.0000
v -1.0000 -1.0000 -2.0000
v -1.0000 0.0000 -2.0000
v -1.0000 2.0000 -2.0000
v -1.0000 1.0000 -2.0000
v -1.0000 3.0000 -2.0000
v -2.0000 3.0000 -2.0000
v -1.0000 1.0000 -3.0000
v -1.0000 0.0000 -3.0000
v -1.0000 -1.0000 -4.0000
v -1.0000 -1.0000 -3.0000
v -1.0000 0.0000 -4.0000
v -1.0000 1.0000 -4.0000
v -2.0000 1.0000 -4.0000
v 0.0000 0.0000 4.0000
v 0.0000 0.0000 3.0000
v 0.0000 -1.0000 3.0000
v 0.0000 -1.0000 4.0000
v 0.0000 -1.0000 2.0000
v 0.0000 1.0000 3.0000
v -1.0000 2.0000 3.0000
v 0.0000 2.0000 3.0000
v 0.0000 2.0000 2.0000
v 0.0000 -1.0000 1.0000
v 0.0000 3.0000 2.0000
v 0.0000 3.0000 1.0000
v -1.0000 -4.0000 1.0000
v -1.0000 -4.0000 -0.0000
v 0.0000 -4.0000 -0.0000
v 0.0000 -4.0000 1.0000
v 0.0000 -3.0000 1.0000
v -1.0000 -3.0000 1.0000
v -1.0000 -3.0000 -0.0000
v 0.0000 -2.0000 1.0000
v -1.0000 -2.0000 1.0000
v -1.0000 -2.0000 -0.0000
v -1.0000 4.0000 1.0000
v 0.0000 4.0000 1.0000
v 0.0000 4.0000 -0.0000
v -1.0000 4.0000 -0.0000
v -1.0000 -4.0000 -1.0000
v 0.0000 -4.0000 -1.0000
v -1.0000 -3.0000 -1.0000
v 0.0000 -3.0000 -1.0000
v -1.0000 -2.0000 -1.0000
v 0.0000 -2.0000 -1.0000
v 0.0000 -1.0000 -1.0000
v 0.0000 -2.0000 -0.0000
v 0.0000 -1.0000 -0.0000
v 0.0000 4.0000 -1.0000
v -1.0000 4.0000 -1.0000
v 0.0000 3.0000 -1.0000
v 0.0000 -1.0000 -2.0000
v 0.0000 0.0000 -2.0000
v 0.0000 3.0000 -2.0000
v 0.0000 2.0000 -2.0000
v 0.0000 0.0000 -3.0000
v 0.0000 1.0000 -3.0000
v 0.0000 2.0000 -3.0000
v -1.0000 2.0000 -3.0000
v 0.0000 0.0000 -4.0000
v 0.0000 -1.0000 -4.0000
v 0.0000 -1.0000 -3.0000
v 1.0000 0.0000 4.0000
v 1.0000 0.0000 3.0000
v 1.0000 -1.0000 3.0000
v 1.0000 -1.0000 4.0000
v 1.0000 -1.0000 2.0000
v 1.0000 1.0000 3.0000
v 1.0000 2.0000 3.0000
v 1.0000 2.0000 2.0000
v 1.0000 1.0000 2.0000
v 1.0000 -1.0000 1.0000
v 1.0000 3.0000 2.0000
v 1.0000 3.0000 1.0000
v 1.0000 -4.0000 -0.0000
v 1.0000 -4.0000 1.0000
v 1.0000 -3.0000 1.0000
v 1.0000 -3.0000 -0.0000
v 1.0000 -2.0000 1.0000
v 1.0000 -2.0000 -0.0000
v 1.0000 -1.0000 -0.0000
v 1.0000 4.0000 1.0000
v 1.0000 4.0000 -0.0000
v 1.0000 3.0000 -0.0000
v 1.0000 -4.0000 -1.0000
v 1.0000 -3.0000 -1.0000
v 1.0000 -2.0000 -1.0000
v 1.0000 -1.0000 -1.0000
v 1.0000 4.0000 -1.0000
v 1.0000 3.0000 -1.0000
v 1.0000 -1.0000 -2.0000
v 1.0000 0.0000 -2.0000
v 1.0000 3.0000 -2.0000
v 1.0000 2.0000 -2.0000
v 1.0000 0.0000 -3.0000
v 1.0000 1.0000 -3.0000
v 1.0000 2.0000 -3.0000
v 1.0000 1.0000 -2.0000
v 1.0000 0.0000 -4.0000
v 1.0000 -1.0000 -4.0000
v 1.0000 -1.0000 -3.0000
v 2.0000 -1.0000 3.0000
v 2.0000 -1.0000 4.0000
v 2.0000 0.0000 4.0000
v 1.0000 1.0000 4.0000
v 2.0000 1.0000 4.0000
v 2.0000 1.0000 3.0000
v 2.0000 0.0000 3.0000
v 2.0000 -1.0000 2.0000
v 2.0000 1.0000 2.0000
v 2.0000 -1.0000 1.0000
v 2.0000 2.0000 2.0000
v 2.0000 1.0000 1.0000
v 2.0000 2.0000 1.0000
v 2.0000 3.0000 2.0000
v 2.0000 3.0000 1.0000
v 2.0000 -1.0000 -0.0000
v 2.0000 3.0000 -0.0000
v 2.0000 2.0000 -0.0000
v 2.0000 -1.0000 -1.0000
v 2.0000 3.0000 -1.0000
v 2.0000 2.0000 -1.0000
v 2.0000 -1.0000 -2.0000
v 2.0000 0.0000 -2.0000
v 2.0000 2.0000 -2.0000
v 2.0000 1.0000 -2.0000
v 2.0000 1.0000 -1.0000
v 2.0000 3.0000 -2.0000
v 2.0000 1.0000 -3.0000
v 2.0000 0.0000 -3.0000
v 2.0000 -1.0000 -4.0000
v 2.0000 -1.0000 -3.0000
v 2.0000 0.0000 -4.0000
v 2.0000 1.0000 -4.0000
v 1.0000 1.0000 -4.0000
v 3.0000 0.0000 4.0000
v 3.0000 0.0000 3.0000
v 3.0000 -1.0000 3.0000
v 3.0000 -1.0000 4.0000
v 3.0000 -1.0000 2.0000
v 3.0000 1.0000 3.0000
v 3.0000 0.0000 2.0000
v 3.0000 1.0000 2.0000
v 2.0000 2.0000 3.0000
v 3.0000 2.0000 3.0000
v 3.0000 2.0000 2.0000
v 3.0000 -1.0000 1.0000
v 3.0000 1.0000 1.0000
v 3.0000 -1.0000 -0.0000
v 3.0000 0.0000 1.0000
v 3.0000 0.0000 -0.0000
v 3.0000 1.0000 -0.0000
v 3.0000 2.0000 1.0000
v 3.0000 2.0000 -0.0000
v 3.0000 -1.0000 -1.0000
v 3.0000 0.0000 -1.0000
v 3.0000 1.0000 -1.0000
v 3.0000 2.0000 -1.0000
v 3.0000 -1.0000 -2.0000
v 3.0000 0.0000 -2.0000
v 3.0000 1.0000 -2.0000
v 3.0000 0.0000 -3.0000
v 3.0000 1.0000 -3.0000
v 3.0000 2.0000 -2.0000
v 3.0000 2.0000 -3.0000
v 2.0000 2.0000 -3.0000
v 3.0000 0.0000 -4.0000
v 3.0000 -1.0000 -4.0000
v 3.0000 -1.0000 -3.0000
v 4.0000 -1.0000 3.0000
v 4.0000 -1.0000 4.0000
v 4.0000 0.0000 4.0000
v 4.0000 0.0000 3.0000
v 3.0000 1.0000 4.0000
v 4.0000 1.0000 4.0000
v 4.0000 1.0000 3.0000
v 4.0000 0.0000 2.0000
v 4.0000 -1.0000 2.0000
v 4.0000 -1.0000 1.0000
v 4.0000 0.0000 1.0000
v 4.0000 1.0000 2.0000
v 4.0000 1.0000 1.0000
v 4.0000 0.0000 -0.0000
v 4.0000 -1.0000 -0.0000
v 4.0000 0.0000 -1.0000
v 4.0000 -1.0000 -1.0000
v 4.0000 -1.0000 -2.0000
v 4.0000 0.0000 -2.0000
v 4.0000 1.0000 -1.0000
v 4.0000 1.0000 -2.0000
v 4.0000 0.0000 -3.0000
v 4.0000 -1.0000 -3.0000
v 4.0000 -1.0000 -4.0000
v 4.0000 0.0000 -4.0000
v 4.0000 1.0000 -3.0000
v 4.0000 1.0000 -4.0000
v 3.0000 1.0000 -4.0000
vt 0.001953 0.500000
vt 0.005859 0.500000
vt 0.009766 0.500000
vn 0.0 -1.0 0.0
vn 0.0 1.0 0.0
vn 0.0 0.0 1.0
vn 0.0 0.0 -1.0
vn -1.0 0.0 0.0
vn 1.0 0.0 0.0
usemtl mat_Santiago_Correa_Fandiño_fase_2
s off
f 1/1/1 2/1/1 3/1/1 4/1/1
f 1/1/3 4/1/3 5/1/3 6/1/3
f 1/1/5 6/1/5 7/1/5 2/1/5
f 8/1/2 9/1/2 10/1/2 11/1/2
f 6/1/3 5/1/3 9/1/3 8/1/3
f 7/1/4 11/1/4 10/1/4 12/1/4
f 5/1/6 12/1/6 10/1/6 9/1/6
f 6/1/5 8/1/5 11/1/5 7/1/5
f 7/1/2 12/1/2 13/1/2 14/1/2
f 2/1/1 15/1/1 16/1/1 3/1/1
f 2/1/5 7/1/5 14/1/5 15/1/5
f 15/1/1 17/1/1 18/1/1 16/1/1
f 16/1/6 18/1/6 19/1/6 13/1/6
f 15/1/5 14/1/5 20/1/5 17/1/5
f 21/1/2 22/1/2 23/1/2 24/1/2
f 14/1/3 13/1/3 22/1/3 21/1/3
f 20/1/4 24/1/4 23/1/4 19/1/4
f 14/1/5 21/1/5 24/1/5 20/1/5
f 20/1/2 19/1/2 25/1/2 26/1/2
f 17/1/1 27/1/1 28/1/1 18/1/1
f 17/1/5 20/1/5 26/1/5 27/1/5
f 26/1/2 25/1/2 29/1/2 30/1/2
f 27/1/1 31/1/1 32/1/1 28/1/1
f 27/1/5 26/1/5 30/1/5 31/1/5
f 31/1/1 33/1/1 34/1/1 32/1/1
f 31/1/5 30/1/5 35/1/5 33/1/5
f 36/1/2 37/1/2 38/1/2 39/1/2
f 30/1/3 29/1/3 37/1/3 36/1/3
f 35/1/4 39/1/4 38/1/4 40/1/4
f 30/1/5 36/1/5 39/1/5 35/1/5
f 35/1/2 40/1/2 41/1/2 42/1/2
f 33/1/1 43/1/1 44/1/1 34/1/1
f 34/1/6 44/1/6 41/1/6 40/1/6
f 33/1/5 35/1/5 42/1/5 43/1/5
f 43/1/1 45/1/1 46/1/1 44/1/1
f 45/1/4 47/1/4 48/1/4 46/1/4
f 43/1/5 42/1/5 47/1/5 45/1/5
f 49/1/2 50/1/2 51/1/2 52/1/2
f 42/1/3 41/1/3 50/1/3 49/1/3
f 47/1/4 52/1/4 51/1/4 48/1/4
f 41/1/6 48/1/6 51/1/6 50/1/6
f 42/1/5 49/1/5 52/1/5 47/1/5
f 5/1/2 53/1/2 54/1/2 12/1/2
f 4/1/1 3/1/1 55/1/1 56/1/1
f 4/1/3 56/1/3 53/1/3 5/1/3
f 3/1/1 16/1/1 57/1/1 55/1/1
f 16/1/4 13/1/4 58/1/4 57/1/4
f 12/1/3 54/1/3 59/1/3 10/1/3
f 12/1/5 10/1/5 22/1/5 13/1/5
f 60/1/2 61/1/2 62/1/2 63/1/2
f 10/1/3 59/1/3 61/1/3 60/1/3
f 22/1/4 63/1/4 62/1/4 64/1/4
f 59/1/6 64/1/6 62/1/6 61/1/6
f 10/1/5 60/1/5 63/1/5 22/1/5
f 22/2/2 64/2/2 65/2/2 23/2/2
f 13/2/1 19/2/1 66/2/1 58/2/1
f 18/2/1 28/2/1 67/2/1 68/2/1
f 18/2/3 68/2/3 66/2/3 19/2/3
f 19/2/5 23/2/5 69/2/5 25/2/5
f 70/1/2 71/1/2 72/1/2 73/1/2
f 23/1/3 65/1/3 71/1/3 70/1/3
f 23/1/5 70/1/5 73/1/5 69/1/5
f 28/2/1 32/2/1 74/2/1 67/2/1
f 25/2/5 69/2/5 37/2/5 29/2/5
f 73/1/2 72/1/2 75/1/2 76/1/2
f 37/1/4 76/1/4 75/1/4 77/1/4
f 69/1/5 73/1/5 76/1/5 37/1/5
f 32/2/1 34/2/1 78/2/1 74/2/1
f 34/2/4 40/2/4 79/2/4 78/2/4
f 37/2/2 77/2/2 80/2/2 38/2/2
f 40/1/1 41/1/1 81/1/1 79/1/1
f 41/1/4 50/1/4 82/1/4 81/1/4
f 40/1/5 38/1/5 50/1/5 41/1/5
f 83/1/2 84/1/2 85/1/2 86/1/2
f 38/1/3 80/1/3 84/1/3 83/1/3
f 50/1/4 86/1/4 85/1/4 82/1/4
f 80/1/6 82/1/6 85/1/6 84/1/6
f 38/1/5 83/1/5 86/1/5 50/1/5
f 41/1/2 81/1/2 87/1/2 48/1/2
f 44/1/1 46/1/1 88/1/1 89/1/1
f 44/1/3 89/1/3 81/1/3 41/1/3
f 46/1/4 48/1/4 87/1/4 88/1/4
f 56/1/1 55/1/1 90/1/1 91/1/1
f 56/1/3 91/1/3 92/1/3 53/1/3
f 93/1/2 94/1/2 95/1/2 59/1/2
f 53/1/3 92/1/3 94/1/3 93/1/3
f 92/1/6 96/1/6 95/1/6 94/1/6
f 53/1/5 93/1/5 59/1/5 54/1/5
f 55/2/1 57/2/1 97/2/1 90/2/1
f 59/2/2 95/2/2 98/2/2 64/2/2
f 57/2/1 68/2/1 99/2/1 97/2/1
f 57/2/5 58/2/5 66/2/5 68/2/5
f 64/2/3 98/2/3 100/2/3 62/2/3
f 64/2/5 62/2/5 71/2/5 65/2/5
f 101/1/2 102/1/2 103/1/2 104/1/2
f 62/1/3 100/1/3 102/1/3 101/1/3
f 62/1/5 101/1/5 104/1/5 71/1/5
f 68/2/1 67/2/1 105/2/1 99/2/1
f 104/1/2 103/1/2 106/1/2 107/1/2
f 71/1/5 104/1/5 107/1/5 72/1/5
f 67/2/1 74/2/1 108/2/1 105/2/1
f 107/1/2 106/1/2 109/1/2 110/1/2
f 72/1/5 107/1/5 110/1/5 75/1/5
f 74/2/1 78/2/1 111/2/1 108/2/1
f 78/2/4 79/2/4 112/2/4 111/2/4
f 80/2/4 84/2/4 113/2/4 114/2/4
f 77/2/5 75/2/5 84/2/5 80/2/5
f 110/1/2 109/1/2 115/1/2 116/1/2
f 84/1/4 116/1/4 115/1/4 113/1/4
f 75/1/5 110/1/5 116/1/5 84/1/5
f 80/2/2 114/2/2 117/2/2 82/2/2
f 79/2/1 81/2/1 118/2/1 112/2/1
f 89/1/1 88/1/1 119/1/1 120/1/1
f 89/1/3 120/1/3 118/1/3 81/1/3
f 88/1/4 87/1/4 121/1/4 119/1/4
f 82/1/2 117/1/2 122/1/2 123/1/2
f 87/1/4 123/1/4 122/1/4 121/1/4
f 118/1/6 121/1/6 122/1/6 117/1/6
f 81/1/5 82/1/5 123/1/5 87/1/5
f 92/1/2 124/1/2 125/1/2 96/1/2
f 91/1/1 90/1/1 126/1/1 127/1/1
f 91/1/3 127/1/3 124/1/3 92/1/3
f 90/2/1 97/2/1 128/2/1 126/2/1
f 96/2/3 125/2/3 129/2/3 95/2/3
f 130/1/2 131/1/2 132/1/2 100/1/2
f 95/1/3 129/1/3 131/1/3 130/1/3
f 95/1/5 130/1/5 100/1/5 98/1/5
f 97/2/1 99/2/1 133/2/1 128/2/1
f 102/1/2 134/1/2 135/1/2 103/1/2
f 100/1/3 132/1/3 134/1/3 102/1/3
f 136/3/1 137/3/1 138/3/1 139/3/1
f 136/3/3 139/3/3 140/3/3 141/3/3
f 136/3/5 141/3/5 142/3/5 137/3/5
f 141/3/3 140/3/3 143/3/3 144/3/3
f 141/3/5 144/3/5 145/3/5 142/3/5
f 144/3/3 143/3/3 133/3/3 99/3/3
f 144/3/5 99/3/5 105/3/5 145/3/5
f 146/2/2 147/2/2 148/2/2 149/2/2
f 103/2/3 135/2/3 147/2/3 146/2/3
f 103/2/5 146/2/5 149/2/5 106/2/5
f 137/3/1 150/3/1 151/3/1 138/3/1
f 150/3/4 152/3/4 153/3/4 151/3/4
f 137/3/5 142/3/5 152/3/5 150/3/5
f 152/3/4 154/3/4 155/3/4 153/3/4
f 142/3/5 145/3/5 154/3/5 152/3/5
f 154/3/4 108/3/4 156/3/4 155/3/4
f 157/3/6 155/3/6 156/3/6 158/3/6
f 145/3/5 105/3/5 108/3/5 154/3/5
f 149/2/2 148/2/2 159/2/2 160/2/2
f 109/2/4 160/2/4 159/2/4 161/2/4
f 106/2/5 149/2/5 160/2/5 109/2/5
f 108/2/1 111/2/1 162/2/1 156/2/1
f 111/2/4 112/2/4 163/2/4 162/2/4
f 109/1/2 161/1/2 164/1/2 115/1/2
f 113/1/4 115/1/4 164/1/4 165/1/4
f 112/2/1 118/2/1 166/2/1 163/2/1
f 118/2/4 117/2/4 167/2/4 166/2/4
f 113/1/2 165/1/2 168/1/2 169/1/2
f 117/1/4 169/1/4 168/1/4 167/1/4
f 114/1/5 113/1/5 169/1/5 117/1/5
f 118/1/2 166/1/2 170/1/2 121/1/2
f 120/1/1 119/1/1 171/1/1 172/1/1
f 120/1/3 172/1/3 166/1/3 118/1/3
f 119/1/4 121/1/4 170/1/4 171/1/4
f 124/1/2 173/1/2 174/1/2 125/1/2
f 127/1/1 126/1/1 175/1/1 176/1/1
f 127/1/3 176/1/3 173/1/3 124/1/3
f 126/2/1 128/2/1 177/2/1 175/2/1
f 125/2/3 174/2/3 178/2/3 129/2/3
f 131/1/2 179/1/2 180/1/2 132/1/2
f 129/1/3 178/1/3 179/1/3 131/1/3
f 178/1/6 181/1/6 180/1/6 179/1/6
f 128/2/1 133/2/1 182/2/1 177/2/1
f 134/1/2 183/1/2 184/1/2 135/1/2
f 132/1/3 180/1/3 183/1/3 134/1/3
f 139/3/1 138/3/1 185/3/1 186/3/1
f 139/3/3 186/3/3 187/3/3 140/3/3
f 186/3/6 185/3/6 188/3/6 187/3/6
f 140/3/3 187/3/3 189/3/3 143/3/3
f 187/3/6 188/3/6 190/3/6 189/3/6
f 143/3/3 189/3/3 182/3/3 133/3/3
f 157/3/4 158/3/4 191/3/4 190/3/4
f 189/3/6 190/3/6 191/3/6 182/3/6
f 147/2/2 192/2/2 193/2/2 148/2/2
f 135/2/3 184/2/3 192/2/3 147/2/3
f 184/2/6 194/2/6 193/2/6 192/2/6
f 138/3/1 151/3/1 195/3/1 185/3/1
f 151/3/4 153/3/4 196/3/4 195/3/4
f 185/3/6 195/3/6 196/3/6 188/3/6
f 157/3/2 190/3/2 197/3/2 155/3/2
f 153/3/4 155/3/4 197/3/4 196/3/4
f 188/3/6 196/3/6 197/3/6 190/3/6
f 158/2/1 156/2/1 198/2/1 191/2/1
f 148/2/2 193/2/2 199/2/2 159/2/2
f 161/2/4 159/2/4 199/2/4 200/2/4
f 194/2/6 200/2/6 199/2/6 193/2/6
f 156/2/1 162/2/1 201/2/1 198/2/1
f 162/2/4 163/2/4 202/2/4 201/2/4
f 161/1/2 200/1/2 203/1/2 164/1/2
f 165/1/4 164/1/4 203/1/4 204/1/4
f 163/2/1 166/2/1 205/2/1 202/2/1
f 166/2/4 167/2/4 206/2/4 205/2/4
f 165/1/2 204/1/2 207/1/2 168/1/2
f 167/1/4 168/1/4 207/1/4 206/1/4
f 208/1/6 206/1/6 207/1/6 204/1/6
f 166/1/2 205/1/2 209/1/2 170/1/2
f 172/1/1 171/1/1 210/1/1 211/1/1
f 172/1/3 211/1/3 205/1/3 166/1/3
f 171/1/4 170/1/4 209/1/4 210/1/4
f 176/1/1 175/1/1 212/1/1 213/1/1
f 176/1/3 213/1/3 214/1/3 173/1/3
f 215/1/2 216/1/2 217/1/2 178/1/2
f 173/1/3 214/1/3 216/1/3 215/1/3
f 214/1/6 218/1/6 217/1/6 216/1/6
f 173/1/5 215/1/5 178/1/5 174/1/5
f 175/2/1 177/2/1 219/2/1 212/2/1
f 178/2/2 217/2/2 220/2/2 181/2/2
f 177/2/1 182/2/1 221/2/1 219/2/1
f 181/2/3 220/2/3 222/2/3 180/2/3
f 220/2/6 223/2/6 224/2/6 222/2/6
f 183/1/2 225/1/2 226/1/2 184/1/2
f 180/1/3 222/1/3 225/1/3 183/1/3
f 222/1/6 224/1/6 226/1/6 225/1/6
f 182/2/1 191/2/1 227/2/1 221/2/1
f 184/1/2 226/1/2 228/1/2 194/1/2
f 224/1/6 229/1/6 228/1/6 226/1/6
f 191/2/1 198/2/1 230/2/1 227/2/1
f 194/1/2 228/1/2 231/1/2 200/1/2
f 229/1/6 232/1/6 231/1/6 228/1/6
f 198/2/1 201/2/1 233/2/1 230/2/1
f 201/2/4 202/2/4 234/2/4 233/2/4
f 208/2/4 204/2/4 235/2/4 236/2/4
f 237/2/6 236/2/6 235/2/6 232/2/6
f 200/1/2 231/1/2 238/1/2 203/1/2
f 204/1/4 203/1/4 238/1/4 235/1/4
f 232/1/6 235/1/6 238/1/6 231/1/6
f 208/2/2 236/2/2 239/2/2 206/2/2
f 202/2/1 205/2/1 240/2/1 234/2/1
f 211/1/1 210/1/1 241/1/1 242/1/1
f 211/1/3 242/1/3 240/1/3 205/1/3
f 210/1/4 209/1/4 243/1/4 241/1/4
f 206/1/2 239/1/2 244/1/2 245/1/2
f 209/1/4 245/1/4 244/1/4 243/1/4
f 240/1/6 243/1/6 244/1/6 239/1/6
f 205/1/5 206/1/5 245/1/5 209/1/5
f 214/1/2 246/1/2 247/1/2 218/1/2
f 213/1/1 212/1/1 248/1/1 249/1/1
f 213/1/3 249/1/3 246/1/3 214/1/3
f 212/2/1 219/2/1 250/2/1 248/2/1
f 218/1/3 247/1/3 251/1/3 217/1/3
f 247/1/6 252/1/6 253/1/6 251/1/6
f 254/1/2 255/1/2 256/1/2 222/1/2
f 217/1/3 251/1/3 255/1/3 254/1/3
f 220/1/4 222/1/4 256/1/4 253/1/4
f 251/1/6 253/1/6 256/1/6 255/1/6
f 217/1/5 254/1/5 222/1/5 220/1/5
f 219/2/1 221/2/1 257/2/1 250/2/1
f 220/2/2 253/2/2 258/2/2 223/2/2
f 221/2/1 227/2/1 259/2/1 257/2/1
f 260/2/6 261/2/6 262/2/6 258/2/6
f 224/1/2 263/1/2 264/1/2 229/1/2
f 223/1/3 258/1/3 263/1/3 224/1/3
f 258/1/6 262/1/6 264/1/6 263/1/6
f 227/2/1 230/2/1 265/2/1 259/2/1
f 261/2/6 266/2/6 267/2/6 262/2/6
f 229/1/2 264/1/2 268/1/2 232/1/2
f 237/1/4 232/1/4 268/1/4 267/1/4
f 262/1/6 267/1/6 268/1/6 264/1/6
f 230/2/1 233/2/1 269/2/1 265/2/1
f 233/2/4 234/2/4 270/2/4 269/2/4
f 237/2/2 267/2/2 271/2/2 236/2/2
f 234/1/1 240/1/1 272/1/1 270/1/1
f 240/1/4 239/1/4 273/1/4 272/1/4
f 270/1/6 272/1/6 273/1/6 271/1/6
f 235/1/2 274/1/2 275/1/2 276/1/2
f 236/1/3 271/1/3 274/1/3 235/1/3
f 239/1/4 276/1/4 275/1/4 273/1/4
f 271/1/6 273/1/6 275/1/6 274/1/6
f 236/1/5 235/1/5 276/1/5 239/1/5
f 240/1/2 272/1/2 277/1/2 243/1/2
f 242/1/1 241/1/1 278/1/1 279/1/1
f 242/1/3 279/1/3 272/1/3 240/1/3
f 241/1/4 243/1/4 277/1/4 278/1/4
f 249/1/1 248/1/1 280/1/1 281/1/1
f 249/1/3 281/1/3 282/1/3 246/1/3
f 281/1/6 280/1/6 283/1/6 282/1/6
f 284/1/2 285/1/2 286/1/2 251/1/2
f 246/1/3 282/1/3 285/1/3 284/1/3
f 247/1/4 251/1/4 286/1/4 283/1/4
f 282/1/6 283/1/6 286/1/6 285/1/6
f 246/1/5 284/1/5 251/1/5 247/1/5
f 247/1/2 283/1/2 287/1/2 252/1/2
f 248/1/1 250/1/1 288/1/1 280/1/1
f 280/1/6 288/1/6 287/1/6 283/1/6
f 250/1/1 257/1/1 289/1/1 288/1/1
f 288/1/6 289/1/6 290/1/6 287/1/6
f 253/1/2 291/1/2 292/1/2 258/1/2
f 252/1/3 287/1/3 291/1/3 253/1/3
f 260/1/4 258/1/4 292/1/4 290/1/4
f 287/1/6 290/1/6 292/1/6 291/1/6
f 260/1/2 290/1/2 293/1/2 261/1/2
f 257/1/1 259/1/1 294/1/1 289/1/1
f 289/1/6 294/1/6 293/1/6 290/1/6
f 261/1/2 293/1/2 295/1/2 266/1/2
f 259/1/1 265/1/1 296/1/1 294/1/1
f 294/1/6 296/1/6 295/1/6 293/1/6
f 265/1/1 269/1/1 297/1/1 296/1/1
f 296/1/6 297/1/6 298/1/6 295/1/6
f 267/1/2 299/1/2 300/1/2 271/1/2
f 266/1/3 295/1/3 299/1/3 267/1/3
f 270/1/4 271/1/4 300/1/4 298/1/4
f 295/1/6 298/1/6 300/1/6 299/1/6
f 270/1/2 298/1/2 301/1/2 272/1/2
f 269/1/1 279/1/1 302/1/1 297/1/1
f 297/1/6 302/1/6 301/1/6 298/1/6
f 269/1/5 270/1/5 272/1/5 279/1/5
f 279/1/1 278/1/1 303/1/1 302/1/1
f 278/1/4 277/1/4 304/1/4 303/1/4
f 302/1/6 303/1/6 304/1/6 301/1/6
f 273/1/2 305/1/2 306/1/2 307/1/2
f 272/1/3 301/1/3 305/1/3 273/1/3
f 277/1/4 307/1/4 306/1/4 304/1/4
f 301/1/6 304/1/6 306/1/6 305/1/6
f 272/1/5 273/1/5 307/1/5 277/1/5
