mtllib Pino_romeron_Juan_Esteban_Acosta_Peña_fase_2.mtl
o Pino_romeron_Juan_Esteban_Acosta_Peña_fase_2
v -4.0000 -3.0000 4.0000
v -3.0000 -3.0000 4.0000
v -3.0000 -3.0000 3.0000
v -4.0000 -3.0000 3.0000
v -4.0000 -4.0000 4.0000
v -4.0000 -4.0000 3.0000
v -3.0000 -4.0000 3.0000
v -3.0000 -4.0000 4.0000
v -4.0000 1.0000 3.0000
v -3.0000 1.0000 3.0000
v -3.0000 1.0000 2.0000
v -4.0000 1.0000 2.0000
v -4.0000 0.0000 3.0000
v -4.0000 0.0000 2.0000
v -3.0000 0.0000 2.0000
v -3.0000 0.0000 3.0000
v -4.0000 -3.0000 2.0000
v -3.0000 -3.0000 2.0000
v -3.0000 -3.0000 1.0000
v -4.0000 -3.0000 1.0000
v -4.0000 -4.0000 2.0000
v -4.0000 -4.0000 1.0000
v -3.0000 -4.0000 1.0000
v -3.0000 -4.0000 2.0000
v -4.0000 2.0000 2.0000
v -3.0000 2.0000 2.0000
v -3.0000 2.0000 1.0000
v -4.0000 2.0000 1.0000
v -4.0000 1.0000 1.0000
v -3.0000 1.0000 1.0000
v -4.0000 1.0000 -0.0000
v -3.0000 1.0000 -0.0000
v -3.0000 1.0000 -1.0000
v -4.0000 1.0000 -1.0000
v -4.0000 0.0000 -0.0000
v -4.0000 0.0000 -1.0000
v -3.0000 0.0000 -1.0000
v -3.0000 0.0000 -0.0000
v -4.0000 -3.0000 -1.0000
v -3.0000 -3.0000 -1.0000
v -3.0000 -3.0000 -2.0000
v -4.0000 -3.0000 -2.0000
v -4.0000 -4.0000 -1.0000
v -4.0000 -4.0000 -2.0000
v -3.0000 -4.0000 -2.0000
v -3.0000 -4.0000 -1.0000
v -4.0000 2.0000 -1.0000
v -3.0000 2.0000 -1.0000
v -3.0000 2.0000 -2.0000
v -4.0000 2.0000 -2.0000
v -4.0000 1.0000 -2.0000
v -3.0000 1.0000 -2.0000
v -4.0000 -3.0000 -3.0000
v -3.0000 -3.0000 -3.0000
v -3.0000 -3.0000 -4.0000
v -4.0000 -3.0000 -4.0000
v -4.0000 -4.0000 -3.0000
v -4.0000 -4.0000 -4.0000
v -3.0000 -4.0000 -4.0000
v -3.0000 -4.0000 -3.0000
v -4.0000 1.0000 -3.0000
v -4.0000 1.0000 -4.0000
v -3.0000 1.0000 -4.0000
v -3.0000 1.0000 -3.0000
v -3.0000 2.0000 -3.0000
v -4.0000 2.0000 -3.0000
v -4.0000 2.0000 -4.0000
v -3.0000 2.0000 -4.0000
v -4.0000 3.0000 -3.0000
v -3.0000 3.0000 -3.0000
v -3.0000 3.0000 -4.0000
v -4.0000 3.0000 -4.0000
v -3.0000 -2.0000 4.0000
v -2.0000 -2.0000 4.0000
v -2.0000 -2.0000 3.0000
v -3.0000 -2.0000 3.0000
v -2.0000 -3.0000 3.0000
v -2.0000 -3.0000 4.0000
v -3.0000 0.0000 4.0000
v -2.0000 0.0000 4.0000
v -2.0000 0.0000 3.0000
v -3.0000 -1.0000 4.0000
v -3.0000 -1.0000 3.0000
v -2.0000 -1.0000 3.0000
v -2.0000 -1.0000 4.0000
v -2.0000 -3.0000 2.0000
v -2.0000 -4.0000 2.0000
v -2.0000 -4.0000 3.0000
v -2.0000 -4.0000 1.0000
v -3.0000 -2.0000 2.0000
v -2.0000 -2.0000 2.0000
v -2.0000 -2.0000 1.0000
v -3.0000 -2.0000 1.0000
v -2.0000 -3.0000 1.0000
v -2.0000 -3.0000 -0.0000
v -3.0000 -3.0000 -0.0000
v -3.0000 -4.0000 -0.0000
v -2.0000 -4.0000 -0.0000
v -2.0000 -3.0000 -1.0000
v -2.0000 -4.0000 -1.0000
v -2.0000 0.0000 -0.0000
v -2.0000 0.0000 -1.0000
v -3.0000 -1.0000 -0.0000
v -3.0000 -1.0000 -1.0000
v -2.0000 -1.0000 -1.0000
v -2.0000 -1.0000 -0.0000
v -2.0000 -4.0000 -2.0000
v -3.0000 -2.0000 -1.0000
v -2.0000 -2.0000 -1.0000
v -2.0000 -2.0000 -2.0000
v -3.0000 -2.0000 -2.0000
v -2.0000 -3.0000 -2.0000
v -3.0000 4.0000 -1.0000
v -2.0000 4.0000 -1.0000
v -2.0000 4.0000 -2.0000
v -3.0000 4.0000 -2.0000
v -3.0000 3.0000 -1.0000
v -3.0000 3.0000 -2.0000
v -2.0000 3.0000 -2.0000
v -2.0000 3.0000 -1.0000
v -2.0000 -3.0000 -3.0000
v -2.0000 -4.0000 -3.0000
v -2.0000 2.0000 -2.0000
v -2.0000 2.0000 -3.0000
v -2.0000 1.0000 -3.0000
v -2.0000 1.0000 -2.0000
v -2.0000 4.0000 -3.0000
v -3.0000 4.0000 -3.0000
v -2.0000 3.0000 -3.0000
v -3.0000 -2.0000 -3.0000
v -2.0000 -2.0000 -3.0000
v -2.0000 -2.0000 -4.0000
v -3.0000 -2.0000 -4.0000
v -2.0000 -3.0000 -4.0000
v -1.0000 -3.0000 4.0000
v -1.0000 -3.0000 3.0000
v -2.0000 -4.0000 4.0000
v -1.0000 -4.0000 3.0000
v -1.0000 -4.0000 4.0000
v -1.0000 0.0000 4.0000
v -1.0000 0.0000 3.0000
v -1.0000 -1.0000 3.0000
v -1.0000 -1.0000 4.0000
v -2.0000 2.0000 4.0000
v -1.0000 2.0000 4.0000
v -1.0000 2.0000 3.0000
v -2.0000 2.0000 3.0000
v -2.0000 1.0000 4.0000
v -2.0000 1.0000 3.0000
v -1.0000 1.0000 3.0000
v -1.0000 1.0000 4.0000
v -1.0000 -4.0000 2.0000
v -1.0000 -2.0000 3.0000
v -1.0000 -2.0000 2.0000
v -1.0000 -3.0000 2.0000
v -2.0000 3.0000 3.0000
v -1.0000 3.0000 3.0000
v -1.0000 3.0000 2.0000
v -2.0000 3.0000 2.0000
v -2.0000 2.0000 2.0000
v -1.0000 2.0000 2.0000
v -1.0000 -4.0000 1.0000
v -2.0000 -1.0000 2.0000
v -1.0000 -1.0000 2.0000
v -1.0000 -1.0000 1.0000
v -2.0000 -1.0000 1.0000
v -1.0000 3.0000 1.0000
v -2.0000 3.0000 1.0000
v -2.0000 2.0000 1.0000
v -1.0000 2.0000 1.0000
v -1.0000 -4.0000 -0.0000
v -2.0000 -2.0000 -0.0000
v -1.0000 -1.0000 -0.0000
v -1.0000 2.0000 -0.0000
v -2.0000 2.0000 -0.0000
v -2.0000 1.0000 1.0000
v -2.0000 1.0000 -0.0000
v -1.0000 1.0000 -0.0000
v -1.0000 1.0000 1.0000
v -1.0000 -4.0000 -1.0000
v -1.0000 -1.0000 -1.0000
v -2.0000 4.0000 -0.0000
v -1.0000 4.0000 -0.0000
v -1.0000 4.0000 -1.0000
v -2.0000 3.0000 -0.0000
v -1.0000 3.0000 -1.0000
v -1.0000 3.0000 -0.0000
v -1.0000 -4.0000 -2.0000
v -1.0000 -1.0000 -2.0000
v -2.0000 -1.0000 -2.0000
v -1.0000 -2.0000 -2.0000
v -2.0000 1.0000 -1.0000
v -1.0000 1.0000 -1.0000
v -1.0000 1.0000 -2.0000
v -2.0000 0.0000 -2.0000
v -1.0000 0.0000 -2.0000
v -1.0000 0.0000 -1.0000
v -1.0000 -4.0000 -3.0000
v -1.0000 -2.0000 -3.0000
v -1.0000 -3.0000 -3.0000
v -1.0000 -3.0000 -2.0000
v -1.0000 -3.0000 -4.0000
v -2.0000 -4.0000 -4.0000
v -1.0000 -4.0000 -4.0000
v -1.0000 3.0000 -3.0000
v -1.0000 3.0000 -4.0000
v -2.0000 3.0000 -4.0000
v -2.0000 2.0000 -4.0000
v -1.0000 2.0000 -4.0000
v -1.0000 2.0000 -3.0000
v 0.0000 1.0000 4.0000
v 0.0000 1.0000 3.0000
v 0.0000 0.0000 3.0000
v 0.0000 0.0000 4.0000
v 0.0000 -3.0000 3.0000
v 0.0000 -3.0000 2.0000
v 0.0000 -4.0000 2.0000
v 0.0000 -4.0000 3.0000
v 0.0000 -1.0000 3.0000
v 0.0000 -1.0000 2.0000
v 0.0000 -2.0000 2.0000
v 0.0000 -2.0000 3.0000
v 0.0000 -4.0000 1.0000
v -1.0000 0.0000 2.0000
v 0.0000 0.0000 2.0000
v 0.0000 0.0000 1.0000
v -1.0000 0.0000 1.0000
v 0.0000 -4.0000 -0.0000
v -1.0000 0.0000 -0.0000
v 0.0000 1.0000 1.0000
v 0.0000 1.0000 -0.0000
v -1.0000 4.0000 1.0000
v 0.0000 4.0000 1.0000
v 0.0000 4.0000 -0.0000
v 0.0000 3.0000 -0.0000
v 0.0000 3.0000 1.0000
v 0.0000 -4.0000 -1.0000
v 0.0000 1.0000 -1.0000
v 0.0000 0.0000 -1.0000
v 0.0000 2.0000 -0.0000
v -1.0000 2.0000 -1.0000
v 0.0000 2.0000 -1.0000
v 0.0000 3.0000 -1.0000
v 0.0000 4.0000 -1.0000
v 0.0000 -4.0000 -2.0000
v 0.0000 -2.0000 -2.0000
v 0.0000 -3.0000 -2.0000
v 0.0000 0.0000 -2.0000
v 0.0000 -1.0000 -2.0000
v 0.0000 -3.0000 -3.0000
v 0.0000 -4.0000 -3.0000
v 0.0000 -1.0000 -3.0000
v -1.0000 -1.0000 -3.0000
v 0.0000 -2.0000 -3.0000
v -1.0000 4.0000 -2.0000
v 0.0000 4.0000 -2.0000
v 0.0000 4.0000 -3.0000
v -1.0000 4.0000 -3.0000
v -1.0000 3.0000 -2.0000
v 0.0000 3.0000 -3.0000
v 0.0000 3.0000 -2.0000
v 1.0000 1.0000 4.0000
v 1.0000 1.0000 3.0000
v 1.0000 0.0000 3.0000
v 1.0000 0.0000 4.0000
v 1.0000 -3.0000 3.0000
v 1.0000 -3.0000 2.0000
v 1.0000 -4.0000 2.0000
v 1.0000 -4.0000 3.0000
v 1.0000 -1.0000 3.0000
v 1.0000 -1.0000 2.0000
v 1.0000 -2.0000 2.0000
v 1.0000 -2.0000 3.0000
v 1.0000 -4.0000 1.0000
v 1.0000 0.0000 2.0000
v 1.0000 0.0000 1.0000
v 1.0000 -1.0000 1.0000
v 1.0000 -4.0000 -0.0000
v 1.0000 -1.0000 -0.0000
v 1.0000 0.0000 -0.0000
v 1.0000 1.0000 1.0000
v 1.0000 1.0000 -0.0000
v 1.0000 2.0000 1.0000
v 0.0000 2.0000 1.0000
v 1.0000 2.0000 -0.0000
v 1.0000 3.0000 1.0000
v 1.0000 3.0000 -0.0000
v 1.0000 4.0000 1.0000
v 1.0000 4.0000 -0.0000
v 1.0000 -4.0000 -1.0000
v 1.0000 -1.0000 -1.0000
v 1.0000 0.0000 -1.0000
v 1.0000 1.0000 -1.0000
v 1.0000 2.0000 -1.0000
v 1.0000 4.0000 -1.0000
v 1.0000 3.0000 -1.0000
v 1.0000 -4.0000 -2.0000
v 1.0000 -2.0000 -2.0000
v 1.0000 -3.0000 -2.0000
v 1.0000 0.0000 -2.0000
v 1.0000 -1.0000 -2.0000
v 1.0000 3.0000 -2.0000
v 0.0000 2.0000 -2.0000
v 1.0000 2.0000 -2.0000
v 1.0000 -3.0000 -3.0000
v 1.0000 -4.0000 -3.0000
v 1.0000 -1.0000 -3.0000
v 1.0000 -2.0000 -3.0000
v 1.0000 -3.0000 4.0000
v 2.0000 -3.0000 4.0000
v 2.0000 -3.0000 3.0000
v 1.0000 -4.0000 4.0000
v 2.0000 -4.0000 3.0000
v 2.0000 -4.0000 4.0000
v 2.0000 -4.0000 2.0000
v 2.0000 -2.0000 3.0000
v 2.0000 -2.0000 2.0000
v 2.0000 -3.0000 2.0000
v 1.0000 2.0000 3.0000
v 2.0000 2.0000 3.0000
v 2.0000 2.0000 2.0000
v 1.0000 2.0000 2.0000
v 1.0000 1.0000 2.0000
v 2.0000 1.0000 2.0000
v 2.0000 1.0000 3.0000
v 2.0000 -4.0000 1.0000
v 2.0000 -1.0000 2.0000
v 2.0000 -1.0000 1.0000
v 2.0000 -2.0000 1.0000
v 2.0000 -4.0000 -0.0000
v 2.0000 -3.0000 1.0000
v 2.0000 -3.0000 -0.0000
v 2.0000 -2.0000 -0.0000
v 2.0000 -1.0000 -0.0000
v 2.0000 -4.0000 -1.0000
v 2.0000 -3.0000 -1.0000
v 2.0000 -2.0000 -1.0000
v 2.0000 -1.0000 -1.0000
v 2.0000 3.0000 -0.0000
v 2.0000 3.0000 -1.0000
v 2.0000 2.0000 -1.0000
v 2.0000 2.0000 -0.0000
v 2.0000 -4.0000 -2.0000
v 2.0000 -1.0000 -2.0000
v 2.0000 -2.0000 -2.0000
v 2.0000 4.0000 -1.0000
v 2.0000 4.0000 -2.0000
v 1.0000 4.0000 -2.0000
v 2.0000 3.0000 -2.0000
v 2.0000 -4.0000 -3.0000
v 2.0000 -2.0000 -3.0000
v 2.0000 -3.0000 -3.0000
v 2.0000 -3.0000 -2.0000
v 1.0000 1.0000 -2.0000
v 2.0000 1.0000 -2.0000
v 2.0000 1.0000 -3.0000
v 1.0000 1.0000 -3.0000
v 1.0000 0.0000 -3.0000
v 2.0000 0.0000 -3.0000
v 2.0000 0.0000 -2.0000
v 2.0000 -3.0000 -4.0000
v 1.0000 -3.0000 -4.0000
v 1.0000 -4.0000 -4.0000
v 2.0000 -4.0000 -4.0000
v 2.0000 -2.0000 4.0000
v 3.0000 -2.0000 4.0000
v 3.0000 -2.0000 3.0000
v 3.0000 -3.0000 3.0000
v 3.0000 -3.0000 4.0000
v 3.0000 -3.0000 2.0000
v 3.0000 -4.0000 2.0000
v 3.0000 -4.0000 3.0000
v 2.0000 3.0000 3.0000
v 3.0000 3.0000 3.0000
v 3.0000 3.0000 2.0000
v 2.0000 3.0000 2.0000
v 3.0000 2.0000 2.0000
v 3.0000 2.0000 3.0000
v 3.0000 -4.0000 1.0000
v 3.0000 -2.0000 2.0000
v 3.0000 -2.0000 1.0000
v 3.0000 -3.0000 1.0000
v 3.0000 1.0000 2.0000
v 3.0000 1.0000 1.0000
v 2.0000 1.0000 1.0000
v 2.0000 0.0000 2.0000
v 2.0000 0.0000 1.0000
v 3.0000 0.0000 1.0000
v 3.0000 0.0000 2.0000
v 3.0000 -3.0000 -0.0000
v 3.0000 -4.0000 -0.0000
v 2.0000 4.0000 1.0000
v 3.0000 4.0000 1.0000
v 3.0000 4.0000 -0.0000
v 2.0000 4.0000 -0.0000
v 2.0000 3.0000 1.0000
v 3.0000 3.0000 -0.0000
v 3.0000 3.0000 1.0000
v 3.0000 -3.0000 -1.0000
v 3.0000 -4.0000 -1.0000
v 3.0000 -4.0000 -2.0000
v 3.0000 -2.0000 -1.0000
v 3.0000 -2.0000 -2.0000
v 3.0000 -3.0000 -2.0000
v 3.0000 -3.0000 -3.0000
v 3.0000 -4.0000 -3.0000
v 3.0000 4.0000 -2.0000
v 3.0000 4.0000 -3.0000
v 2.0000 4.0000 -3.0000
v 2.0000 3.0000 -3.0000
v 3.0000 3.0000 -3.0000
v 3.0000 3.0000 -2.0000
v 3.0000 -2.0000 -3.0000
v 3.0000 -2.0000 -4.0000
v 2.0000 -2.0000 -4.0000
v 3.0000 -3.0000 -4.0000
v 3.0000 1.0000 -3.0000
v 3.0000 1.0000 -4.0000
v 2.0000 1.0000 -4.0000
v 2.0000 0.0000 -4.0000
v 3.0000 0.0000 -4.0000
v 3.0000 0.0000 -3.0000
v 4.0000 -3.0000 4.0000
v 4.0000 -3.0000 3.0000
v 3.0000 -4.0000 4.0000
v 4.0000 -4.0000 3.0000
v 4.0000 -4.0000 4.0000
v 4.0000 -3.0000 2.0000
v 4.0000 -3.0000 1.0000
v 4.0000 -4.0000 1.0000
v 4.0000 -4.0000 2.0000
v 4.0000 3.0000 2.0000
v 4.0000 3.0000 1.0000
v 3.0000 2.0000 1.0000
v 4.0000 2.0000 1.0000
v 4.0000 2.0000 2.0000
v 4.0000 2.0000 -0.0000
v 3.0000 2.0000 -0.0000
v 3.0000 1.0000 -0.0000
v 4.0000 1.0000 -0.0000
v 4.0000 1.0000 1.0000
v 4.0000 -3.0000 -1.0000
v 4.0000 -3.0000 -2.0000
v 4.0000 -4.0000 -2.0000
v 4.0000 -4.0000 -1.0000
v 4.0000 -3.0000 -3.0000
v 4.0000 -3.0000 -4.0000
v 3.0000 -4.0000 -4.0000
v 4.0000 -4.0000 -4.0000
v 4.0000 -4.0000 -3.0000
v 4.0000 1.0000 -4.0000
v 4.0000 1.0000 -3.0000
v 4.0000 2.0000 -3.0000
v 3.0000 2.0000 -3.0000
v 3.0000 2.0000 -4.0000
v 4.0000 2.0000 -4.0000
v 4.0000 3.0000 -3.0000
v 4.0000 3.0000 -4.0000
v 3.0000 3.0000 -4.0000
vt 0.001953 0.500000
vt 0.005859 0.500000
vt 0.009766 0.500000
vt 0.013672 0.500000
vt 0.017578 0.500000
vn 0.0 -1.0 0.0
vn 0.0 1.0 0.0
vn 0.0 0.0 1.0
vn 0.0 0.0 -1.0
vn -1.0 0.0 0.0
vn 1.0 0.0 0.0
usemtl mat_Pino_romeron_Juan_Esteban_Acosta_Peña_fase_2
s off
f 1/1/2 2/1/2 3/1/2 4/1/2
f 5/1/1 6/1/1 7/1/1 8/1/1
f 5/1/3 8/1/3 2/1/3 1/1/3
f 6/1/4 4/1/4 3/1/4 7/1/4
f 8/1/6 7/1/6 3/1/6 2/1/6
f 5/1/5 1/1/5 4/1/5 6/1/5
f 9/2/2 10/2/2 11/2/2 12/2/2
f 13/2/1 14/2/1 15/2/1 16/2/1
f 13/2/3 16/2/3 10/2/3 9/2/3
f 14/2/4 12/2/4 11/2/4 15/2/4
f 16/2/6 15/2/6 11/2/6 10/2/6
f 13/2/5 9/2/5 12/2/5 14/2/5
f 17/1/2 18/1/2 19/1/2 20/1/2
f 21/1/1 22/1/1 23/1/1 24/1/1
f 21/1/3 24/1/3 18/1/3 17/1/3
f 22/1/4 20/1/4 19/1/4 23/1/4
f 21/1/5 17/1/5 20/1/5 22/1/5
f 25/3/2 26/3/2 27/3/2 28/3/2
f 12/3/1 29/3/1 30/3/1 11/3/1
f 12/3/3 11/3/3 26/3/3 25/3/3
f 29/3/4 28/3/4 27/3/4 30/3/4
f 11/3/6 30/3/6 27/3/6 26/3/6
f 12/3/5 25/3/5 28/3/5 29/3/5
f 31/2/2 32/2/2 33/2/2 34/2/2
f 35/2/1 36/2/1 37/2/1 38/2/1
f 35/2/3 38/2/3 32/2/3 31/2/3
f 36/2/4 34/2/4 33/2/4 37/2/4
f 38/2/6 37/2/6 33/2/6 32/2/6
f 35/2/5 31/2/5 34/2/5 36/2/5
f 39/1/2 40/1/2 41/1/2 42/1/2
f 43/1/1 44/1/1 45/1/1 46/1/1
f 43/1/3 46/1/3 40/1/3 39/1/3
f 44/1/4 42/1/4 41/1/4 45/1/4
f 43/1/5 39/1/5 42/1/5 44/1/5
f 47/4/2 48/4/2 49/4/2 50/4/2
f 34/4/1 51/4/1 52/4/1 33/4/1
f 34/4/3 33/4/3 48/4/3 47/4/3
f 51/4/4 50/4/4 49/4/4 52/4/4
f 33/4/6 52/4/6 49/4/6 48/4/6
f 34/4/5 47/4/5 50/4/5 51/4/5
f 53/1/2 54/1/2 55/1/2 56/1/2
f 57/1/1 58/1/1 59/1/1 60/1/1
f 57/1/3 60/1/3 54/1/3 53/1/3
f 58/1/4 56/1/4 55/1/4 59/1/4
f 60/1/6 59/1/6 55/1/6 54/1/6
f 57/1/5 53/1/5 56/1/5 58/1/5
f 61/3/1 62/3/1 63/3/1 64/3/1
f 61/3/3 64/3/3 65/3/3 66/3/3
f 62/3/4 67/3/4 68/3/4 63/3/4
f 64/3/6 63/3/6 68/3/6 65/3/6
f 61/3/5 66/3/5 67/3/5 62/3/5
f 69/4/2 70/4/2 71/4/2 72/4/2
f 66/4/3 65/4/3 70/4/3 69/4/3
f 67/4/4 72/4/4 71/4/4 68/4/4
f 65/4/6 68/4/6 71/4/6 70/4/6
f 66/4/5 69/4/5 72/4/5 67/4/5
f 73/1/2 74/1/2 75/1/2 76/1/2
f 2/1/1 3/1/1 77/1/1 78/1/1
f 2/1/3 78/1/3 74/1/3 73/1/3
f 3/1/4 76/1/4 75/1/4 77/1/4
f 78/1/6 77/1/6 75/1/6 74/1/6
f 2/1/5 73/1/5 76/1/5 3/1/5
f 79/4/2 80/4/2 81/4/2 16/4/2
f 82/4/1 83/4/1 84/4/1 85/4/1
f 82/4/3 85/4/3 80/4/3 79/4/3
f 83/4/4 16/4/4 81/4/4 84/4/4
f 82/4/5 79/4/5 16/4/5 83/4/5
f 3/5/2 77/5/2 86/5/2 18/5/2
f 7/5/1 24/5/1 87/5/1 88/5/1
f 7/5/3 88/5/3 77/5/3 3/5/3
f 7/5/5 3/5/5 18/5/5 24/5/5
f 24/1/1 23/1/1 89/1/1 87/1/1
f 90/1/2 91/1/2 92/1/2 93/1/2
f 18/1/3 86/1/3 91/1/3 90/1/3
f 19/1/4 93/1/4 92/1/4 94/1/4
f 18/1/5 90/1/5 93/1/5 19/1/5
f 19/5/2 94/5/2 95/5/2 96/5/2
f 23/5/1 97/5/1 98/5/1 89/5/1
f 23/5/5 19/5/5 96/5/5 97/5/5
f 96/5/2 95/5/2 99/5/2 40/5/2
f 97/5/1 46/5/1 100/5/1 98/5/1
f 97/5/5 96/5/5 40/5/5 46/5/5
f 38/1/2 101/1/2 102/1/2 37/1/2
f 103/1/1 104/1/1 105/1/1 106/1/1
f 103/1/3 106/1/3 101/1/3 38/1/3
f 104/1/4 37/1/4 102/1/4 105/1/4
f 106/1/6 105/1/6 102/1/6 101/1/6
f 103/1/5 38/1/5 37/1/5 104/1/5
f 46/1/1 45/1/1 107/1/1 100/1/1
f 108/1/2 109/1/2 110/1/2 111/1/2
f 40/1/3 99/1/3 109/1/3 108/1/3
f 41/1/4 111/1/4 110/1/4 112/1/4
f 40/1/5 108/1/5 111/1/5 41/1/5
f 113/2/2 114/2/2 115/2/2 116/2/2
f 117/2/1 118/2/1 119/2/1 120/2/1
f 117/2/3 120/2/3 114/2/3 113/2/3
f 120/2/6 119/2/6 115/2/6 114/2/6
f 117/2/5 113/2/5 116/2/5 118/2/5
f 41/5/2 112/5/2 121/5/2 54/5/2
f 45/5/1 60/5/1 122/5/1 107/5/1
f 60/5/4 54/5/4 121/5/4 122/5/4
f 45/5/5 41/5/5 54/5/5 60/5/5
f 49/4/2 123/4/2 124/4/2 65/4/2
f 52/4/1 64/4/1 125/4/1 126/4/1
f 52/4/3 126/4/3 123/4/3 49/4/3
f 64/4/4 65/4/4 124/4/4 125/4/4
f 126/4/6 125/4/6 124/4/6 123/4/6
f 52/4/5 49/4/5 65/4/5 64/4/5
f 116/2/2 115/2/2 127/2/2 128/2/2
f 118/2/1 70/2/1 129/2/1 119/2/1
f 70/2/4 128/2/4 127/2/4 129/2/4
f 119/2/6 129/2/6 127/2/6 115/2/6
f 118/2/5 116/2/5 128/2/5 70/2/5
f 130/1/2 131/1/2 132/1/2 133/1/2
f 54/1/1 55/1/1 134/1/1 121/1/1
f 54/1/3 121/1/3 131/1/3 130/1/3
f 55/1/4 133/1/4 132/1/4 134/1/4
f 121/1/6 134/1/6 132/1/6 131/1/6
f 54/1/5 130/1/5 133/1/5 55/1/5
f 78/1/2 135/1/2 136/1/2 77/1/2
f 137/1/1 88/1/1 138/1/1 139/1/1
f 137/1/3 139/1/3 135/1/3 78/1/3
f 139/1/6 138/1/6 136/1/6 135/1/6
f 137/1/5 78/1/5 77/1/5 88/1/5
f 80/2/2 140/2/2 141/2/2 81/2/2
f 85/2/1 84/2/1 142/2/1 143/2/1
f 85/2/3 143/2/3 140/2/3 80/2/3
f 84/2/4 81/2/4 141/2/4 142/2/4
f 143/2/6 142/2/6 141/2/6 140/2/6
f 144/4/2 145/4/2 146/4/2 147/4/2
f 148/4/1 149/4/1 150/4/1 151/4/1
f 148/4/3 151/4/3 145/4/3 144/4/3
f 149/4/4 147/4/4 146/4/4 150/4/4
f 151/4/6 150/4/6 146/4/6 145/4/6
f 148/4/5 144/4/5 147/4/5 149/4/5
f 88/1/1 87/1/1 152/1/1 138/1/1
f 75/1/2 153/1/2 154/1/2 91/1/2
f 77/1/3 136/1/3 153/1/3 75/1/3
f 136/1/6 155/1/6 154/1/6 153/1/6
f 77/1/5 75/1/5 91/1/5 86/1/5
f 156/2/2 157/2/2 158/2/2 159/2/2
f 147/2/1 160/2/1 161/2/1 146/2/1
f 147/2/3 146/2/3 157/2/3 156/2/3
f 146/2/6 161/2/6 158/2/6 157/2/6
f 147/2/5 156/2/5 159/2/5 160/2/5
f 87/1/1 89/1/1 162/1/1 152/1/1
f 163/1/2 164/1/2 165/1/2 166/1/2
f 91/1/3 154/1/3 164/1/3 163/1/3
f 91/1/5 163/1/5 166/1/5 92/1/5
f 159/4/2 158/4/2 167/4/2 168/4/2
f 160/4/1 169/4/1 170/4/1 161/4/1
f 169/4/4 168/4/4 167/4/4 170/4/4
f 161/4/6 170/4/6 167/4/6 158/4/6
f 160/4/5 159/4/5 168/4/5 169/4/5
f 89/1/1 98/1/1 171/1/1 162/1/1
f 94/5/5 92/5/5 172/5/5 95/5/5
f 166/1/2 165/1/2 173/1/2 106/1/2
f 92/1/5 166/1/5 106/1/5 172/1/5
f 169/4/2 170/4/2 174/4/2 175/4/2
f 176/4/1 177/4/1 178/4/1 179/4/1
f 176/4/3 179/4/3 170/4/3 169/4/3
f 177/4/4 175/4/4 174/4/4 178/4/4
f 179/4/6 178/4/6 174/4/6 170/4/6
f 176/4/5 169/4/5 175/4/5 177/4/5
f 98/1/1 100/1/1 180/1/1 171/1/1
f 95/5/5 172/5/5 109/5/5 99/5/5
f 106/5/2 173/5/2 181/5/2 105/5/2
f 172/5/5 106/5/5 105/5/5 109/5/5
f 182/4/2 183/4/2 184/4/2 114/4/2
f 185/4/1 120/4/1 186/4/1 187/4/1
f 185/4/3 187/4/3 183/4/3 182/4/3
f 120/4/4 114/4/4 184/4/4 186/4/4
f 185/4/5 182/4/5 114/4/5 120/4/5
f 100/1/1 107/1/1 188/1/1 180/1/1
f 105/1/2 181/1/2 189/1/2 190/1/2
f 110/1/4 190/1/4 189/1/4 191/1/4
f 109/1/5 105/1/5 190/1/5 110/1/5
f 192/1/2 193/1/2 194/1/2 126/1/2
f 102/1/1 195/1/1 196/1/1 197/1/1
f 102/1/3 197/1/3 193/1/3 192/1/3
f 195/1/4 126/1/4 194/1/4 196/1/4
f 197/1/6 196/1/6 194/1/6 193/1/6
f 102/1/5 192/1/5 126/1/5 195/1/5
f 107/1/1 122/1/1 198/1/1 188/1/1
f 110/1/2 191/1/2 199/1/2 131/1/2
f 121/1/4 131/1/4 199/1/4 200/1/4
f 201/1/6 200/1/6 199/1/6 191/1/6
f 112/1/5 110/1/5 131/1/5 121/1/5
f 121/1/2 200/1/2 202/1/2 134/1/2
f 122/1/1 203/1/1 204/1/1 198/1/1
f 203/1/4 134/1/4 202/1/4 204/1/4
f 198/1/6 204/1/6 202/1/6 200/1/6
f 122/1/5 121/1/5 134/1/5 203/1/5
f 129/4/2 205/4/2 206/4/2 207/4/2
f 124/4/1 208/4/1 209/4/1 210/4/1
f 124/4/3 210/4/3 205/4/3 129/4/3
f 208/4/4 207/4/4 206/4/4 209/4/4
f 210/4/6 209/4/6 206/4/6 205/4/6
f 124/4/5 129/4/5 207/4/5 208/4/5
f 151/2/2 211/2/2 212/2/2 150/2/2
f 140/2/1 141/2/1 213/2/1 214/2/1
f 140/2/3 214/2/3 211/2/3 151/2/3
f 141/2/4 150/2/4 212/2/4 213/2/4
f 140/2/5 151/2/5 150/2/5 141/2/5
f 136/5/2 215/5/2 216/5/2 155/5/2
f 138/5/1 152/5/1 217/5/1 218/5/1
f 138/5/3 218/5/3 215/5/3 136/5/3
f 142/1/2 219/1/2 220/1/2 164/1/2
f 153/1/1 154/1/1 221/1/1 222/1/1
f 153/1/3 222/1/3 219/1/3 142/1/3
f 153/1/5 142/1/5 164/1/5 154/1/5
f 152/1/1 162/1/1 223/1/1 217/1/1
f 155/5/3 216/5/3 221/5/3 154/5/3
f 224/1/2 225/1/2 226/1/2 227/1/2
f 164/1/3 220/1/3 225/1/3 224/1/3
f 164/1/5 224/1/5 227/1/5 165/1/5
f 162/1/1 171/1/1 228/1/1 223/1/1
f 165/5/5 227/5/5 229/5/5 173/5/5
f 179/5/2 230/5/2 231/5/2 178/5/2
f 227/5/3 226/5/3 230/5/3 179/5/3
f 227/5/5 179/5/5 178/5/5 229/5/5
f 232/2/2 233/2/2 234/2/2 183/2/2
f 167/2/1 187/2/1 235/2/1 236/2/1
f 167/2/3 236/2/3 233/2/3 232/2/3
f 167/2/5 232/2/5 183/2/5 187/2/5
f 171/1/1 180/1/1 237/1/1 228/1/1
f 173/5/5 229/5/5 197/5/5 181/5/5
f 197/5/4 193/5/4 238/5/4 239/5/4
f 229/5/5 178/5/5 193/5/5 197/5/5
f 178/5/3 231/5/3 240/5/3 174/5/3
f 193/5/4 241/5/4 242/5/4 238/5/4
f 178/5/5 174/5/5 241/5/5 193/5/5
f 174/5/3 240/5/3 235/5/3 187/5/3
f 241/5/4 186/5/4 243/5/4 242/5/4
f 174/5/5 187/5/5 186/5/5 241/5/5
f 183/5/2 234/5/2 244/5/2 184/5/2
f 186/5/4 184/5/4 244/5/4 243/5/4
f 180/1/1 188/1/1 245/1/1 237/1/1
f 201/5/4 191/5/4 246/5/4 247/5/4
f 197/1/2 239/1/2 248/1/2 196/1/2
f 189/1/4 196/1/4 248/1/4 249/1/4
f 181/1/5 197/1/5 196/1/5 189/1/5
f 201/5/2 247/5/2 250/5/2 200/5/2
f 188/5/1 198/5/1 251/5/1 245/5/1
f 198/5/4 200/5/4 250/5/4 251/5/4
f 189/1/2 249/1/2 252/1/2 253/1/2
f 191/1/1 199/1/1 254/1/1 246/1/1
f 199/1/4 253/1/4 252/1/4 254/1/4
f 191/1/5 189/1/5 253/1/5 199/1/5
f 255/4/2 256/4/2 257/4/2 258/4/2
f 259/4/1 205/4/1 260/4/1 261/4/1
f 259/4/3 261/4/3 256/4/3 255/4/3
f 205/4/4 258/4/4 257/4/4 260/4/4
f 261/4/6 260/4/6 257/4/6 256/4/6
f 259/4/5 255/4/5 258/4/5 205/4/5
f 211/4/2 262/4/2 263/4/2 212/4/2
f 214/4/1 213/4/1 264/4/1 265/4/1
f 214/4/3 265/4/3 262/4/3 211/4/3
f 213/4/4 212/4/4 263/4/4 264/4/4
f 265/4/6 264/4/6 263/4/6 262/4/6
f 215/5/2 266/5/2 267/5/2 216/5/2
f 218/5/1 217/5/1 268/5/1 269/5/1
f 218/5/3 269/5/3 266/5/3 215/5/3
f 219/1/2 270/1/2 271/1/2 220/1/2
f 222/1/1 221/1/1 272/1/1 273/1/1
f 222/1/3 273/1/3 270/1/3 219/1/3
f 273/1/6 272/1/6 271/1/6 270/1/6
f 217/1/1 223/1/1 274/1/1 268/1/1
f 216/5/3 267/5/3 272/5/3 221/5/3
f 225/1/2 275/1/2 276/1/2 226/1/2
f 220/1/3 271/1/3 275/1/3 225/1/3
f 271/1/6 277/1/6 276/1/6 275/1/6
f 223/1/1 228/1/1 278/1/1 274/1/1
f 277/5/6 279/5/6 280/5/6 276/5/6
f 226/5/3 276/5/3 281/5/3 230/5/3
f 276/5/6 280/5/6 282/5/6 281/5/6
f 230/5/3 281/5/3 283/5/3 284/5/3
f 281/5/6 282/5/6 285/5/6 283/5/6
f 230/5/5 284/5/5 240/5/5 231/5/5
f 284/3/3 283/3/3 286/3/3 236/3/3
f 283/3/6 285/3/6 287/3/6 286/3/6
f 284/3/5 236/3/5 235/3/5 240/3/5
f 233/5/2 288/5/2 289/5/2 234/5/2
f 236/5/3 286/5/3 288/5/3 233/5/3
f 286/5/6 287/5/6 289/5/6 288/5/6
f 228/1/1 237/1/1 290/1/1 278/1/1
f 279/5/6 291/5/6 292/5/6 280/5/6
f 239/5/4 238/5/4 293/5/4 292/5/4
f 280/5/6 292/5/6 293/5/6 282/5/6
f 238/5/4 242/5/4 294/5/4 293/5/4
f 282/5/6 293/5/6 294/5/6 285/5/6
f 234/4/2 289/4/2 295/4/2 244/4/2
f 243/4/4 244/4/4 295/4/4 296/4/4
f 287/4/6 296/4/6 295/4/6 289/4/6
f 237/1/1 245/1/1 297/1/1 290/1/1
f 247/5/4 246/5/4 298/5/4 299/5/4
f 239/1/2 292/1/2 300/1/2 248/1/2
f 249/1/4 248/1/4 300/1/4 301/1/4
f 291/1/6 301/1/6 300/1/6 292/1/6
f 243/2/2 296/2/2 302/2/2 261/2/2
f 242/2/1 303/2/1 304/2/1 294/2/1
f 303/2/4 261/2/4 302/2/4 304/2/4
f 294/2/6 304/2/6 302/2/6 296/2/6
f 242/2/5 243/2/5 261/2/5 303/2/5
f 247/5/2 299/5/2 305/5/2 250/5/2
f 245/5/1 251/5/1 306/5/1 297/5/1
f 251/5/4 250/5/4 305/5/4 306/5/4
f 249/1/2 301/1/2 307/1/2 252/1/2
f 246/1/1 254/1/1 308/1/1 298/1/1
f 254/1/4 252/1/4 307/1/4 308/1/4
f 298/1/6 308/1/6 307/1/6 301/1/6
f 309/1/2 310/1/2 311/1/2 266/1/2
f 312/1/1 269/1/1 313/1/1 314/1/1
f 312/1/3 314/1/3 310/1/3 309/1/3
f 314/1/6 313/1/6 311/1/6 310/1/6
f 312/1/5 309/1/5 266/1/5 269/1/5
f 269/1/1 268/1/1 315/1/1 313/1/1
f 273/1/2 316/1/2 317/1/2 272/1/2
f 266/1/3 311/1/3 316/1/3 273/1/3
f 311/1/6 318/1/6 317/1/6 316/1/6
f 266/1/5 273/1/5 272/1/5 267/1/5
f 319/2/2 320/2/2 321/2/2 322/2/2
f 263/2/1 323/2/1 324/2/1 325/2/1
f 263/2/3 325/2/3 320/2/3 319/2/3
f 323/2/4 322/2/4 321/2/4 324/2/4
f 325/2/6 324/2/6 321/2/6 320/2/6
f 263/2/5 319/2/5 322/2/5 323/2/5
f 268/1/1 274/1/1 326/1/1 315/1/1
f 271/1/2 327/1/2 328/1/2 277/1/2
f 272/1/3 317/1/3 327/1/3 271/1/3
f 317/1/6 329/1/6 328/1/6 327/1/6
f 274/1/1 278/1/1 330/1/1 326/1/1
f 331/5/6 332/5/6 333/5/6 329/5/6
f 277/5/2 328/5/2 334/5/2 279/5/2
f 329/5/6 333/5/6 334/5/6 328/5/6
f 278/1/1 290/1/1 335/1/1 330/1/1
f 332/5/6 336/5/6 337/5/6 333/5/6
f 279/1/2 334/1/2 338/1/2 291/1/2
f 333/1/6 337/1/6 338/1/6 334/1/6
f 287/4/2 339/4/2 340/4/2 296/4/2
f 285/4/1 294/4/1 341/4/1 342/4/1
f 285/4/3 342/4/3 339/4/3 287/4/3
f 294/4/4 296/4/4 340/4/4 341/4/4
f 342/4/6 341/4/6 340/4/6 339/4/6
f 290/1/1 297/1/1 343/1/1 335/1/1
f 291/1/2 338/1/2 344/1/2 301/1/2
f 298/1/4 301/1/4 344/1/4 345/1/4
f 337/1/6 345/1/6 344/1/6 338/1/6
f 295/2/2 346/2/2 347/2/2 348/2/2
f 296/2/1 302/2/1 349/2/1 340/2/1
f 296/2/3 340/2/3 346/2/3 295/2/3
f 302/2/4 348/2/4 347/2/4 349/2/4
f 340/2/6 349/2/6 347/2/6 346/2/6
f 296/2/5 295/2/5 348/2/5 302/2/5
f 297/1/1 306/1/1 350/1/1 343/1/1
f 298/1/2 345/1/2 351/1/2 308/1/2
f 305/1/4 308/1/4 351/1/4 352/1/4
f 353/1/6 352/1/6 351/1/6 345/1/6
f 299/1/5 298/1/5 308/1/5 305/1/5
f 354/2/2 355/2/2 356/2/2 357/2/2
f 300/2/1 358/2/1 359/2/1 360/2/1
f 300/2/3 360/2/3 355/2/3 354/2/3
f 358/2/4 357/2/4 356/2/4 359/2/4
f 360/2/6 359/2/6 356/2/6 355/2/6
f 300/2/5 354/2/5 357/2/5 358/2/5
f 305/1/2 352/1/2 361/1/2 362/1/2
f 306/1/1 363/1/1 364/1/1 350/1/1
f 363/1/4 362/1/4 361/1/4 364/1/4
f 350/1/6 364/1/6 361/1/6 352/1/6
f 306/1/5 305/1/5 362/1/5 363/1/5
f 365/1/2 366/1/2 367/1/2 316/1/2
f 310/1/1 311/1/1 368/1/1 369/1/1
f 310/1/3 369/1/3 366/1/3 365/1/3
f 311/1/4 316/1/4 367/1/4 368/1/4
f 369/1/6 368/1/6 367/1/6 366/1/6
f 310/1/5 365/1/5 316/1/5 311/1/5
f 311/5/2 368/5/2 370/5/2 318/5/2
f 313/5/1 315/5/1 371/5/1 372/5/1
f 313/5/3 372/5/3 368/5/3 311/5/3
f 372/5/6 371/5/6 370/5/6 368/5/6
f 373/4/2 374/4/2 375/4/2 376/4/2
f 320/4/1 321/4/1 377/4/1 378/4/1
f 320/4/3 378/4/3 374/4/3 373/4/3
f 321/4/4 376/4/4 375/4/4 377/4/4
f 378/4/6 377/4/6 375/4/6 374/4/6
f 320/4/5 373/4/5 376/4/5 321/4/5
f 315/1/1 326/1/1 379/1/1 371/1/1
f 317/1/2 380/1/2 381/1/2 329/1/2
f 318/1/3 370/1/3 380/1/3 317/1/3
f 331/1/4 329/1/4 381/1/4 382/1/4
f 370/1/6 382/1/6 381/1/6 380/1/6
f 324/3/2 383/3/2 384/3/2 385/3/2
f 386/3/1 387/3/1 388/3/1 389/3/1
f 386/3/3 389/3/3 383/3/3 324/3/3
f 387/3/4 385/3/4 384/3/4 388/3/4
f 389/3/6 388/3/6 384/3/6 383/3/6
f 386/3/5 324/3/5 385/3/5 387/3/5
f 331/5/2 382/5/2 390/5/2 332/5/2
f 326/5/1 330/5/1 391/5/1 379/5/1
f 379/5/6 391/5/6 390/5/6 382/5/6
f 392/2/2 393/2/2 394/2/2 395/2/2
f 396/2/1 339/2/1 397/2/1 398/2/1
f 396/2/3 398/2/3 393/2/3 392/2/3
f 339/2/4 395/2/4 394/2/4 397/2/4
f 398/2/6 397/2/6 394/2/6 393/2/6
f 396/2/5 392/2/5 395/2/5 339/2/5
f 332/5/2 390/5/2 399/5/2 336/5/2
f 330/5/1 335/5/1 400/5/1 391/5/1
f 391/5/6 400/5/6 399/5/6 390/5/6
f 335/1/1 343/1/1 401/1/1 400/1/1
f 337/1/2 402/1/2 403/1/2 345/1/2
f 336/1/3 399/1/3 402/1/3 337/1/3
f 353/1/4 345/1/4 403/1/4 404/1/4
f 399/1/6 404/1/6 403/1/6 402/1/6
f 353/5/2 404/5/2 405/5/2 352/5/2
f 343/5/1 350/5/1 406/5/1 401/5/1
f 350/5/4 352/5/4 405/5/4 406/5/4
f 401/5/6 406/5/6 405/5/6 404/5/6
f 347/4/2 407/4/2 408/4/2 409/4/2
f 349/4/1 410/4/1 411/4/1 412/4/1
f 349/4/3 412/4/3 407/4/3 347/4/3
f 410/4/4 409/4/4 408/4/4 411/4/4
f 412/4/6 411/4/6 408/4/6 407/4/6
f 349/4/5 347/4/5 409/4/5 410/4/5
f 351/1/2 413/1/2 414/1/2 415/1/2
f 352/1/1 361/1/1 416/1/1 405/1/1
f 352/1/3 405/1/3 413/1/3 351/1/3
f 361/1/4 415/1/4 414/1/4 416/1/4
f 405/1/6 416/1/6 414/1/6 413/1/6
f 352/1/5 351/1/5 415/1/5 361/1/5
f 356/4/2 417/4/2 418/4/2 419/4/2
f 359/4/1 420/4/1 421/4/1 422/4/1
f 359/4/3 422/4/3 417/4/3 356/4/3
f 420/4/4 419/4/4 418/4/4 421/4/4
f 422/4/6 421/4/6 418/4/6 417/4/6
f 359/4/5 356/4/5 419/4/5 420/4/5
f 369/1/2 423/1/2 424/1/2 368/1/2
f 425/1/1 372/1/1 426/1/1 427/1/1
f 425/1/3 427/1/3 423/1/3 369/1/3
f 372/1/4 368/1/4 424/1/4 426/1/4
f 427/1/6 426/1/6 424/1/6 423/1/6
f 425/1/5 369/1/5 368/1/5 372/1/5
f 370/1/2 428/1/2 429/1/2 382/1/2
f 371/1/1 379/1/1 430/1/1 431/1/1
f 371/1/3 431/1/3 428/1/3 370/1/3
f 379/1/4 382/1/4 429/1/4 430/1/4
f 431/1/6 430/1/6 429/1/6 428/1/6
f 375/2/2 432/2/2 433/2/2 398/2/2
f 377/2/1 434/2/1 435/2/1 436/2/1
f 377/2/3 436/2/3 432/2/3 375/2/3
f 434/2/4 398/2/4 433/2/4 435/2/4
f 436/2/6 435/2/6 433/2/6 432/2/6
f 377/2/5 375/2/5 398/2/5 434/2/5
f 434/4/2 435/4/2 437/4/2 438/4/2
f 384/4/1 439/4/1 440/4/1 441/4/1
f 384/4/3 441/4/3 435/4/3 434/4/3
f 439/4/4 438/4/4 437/4/4 440/4/4
f 441/4/6 440/4/6 437/4/6 435/4/6
f 384/4/5 434/4/5 438/4/5 439/4/5
f 399/1/2 442/1/2 443/1/2 404/1/2
f 400/1/1 401/1/1 444/1/1 445/1/1
f 400/1/3 445/1/3 442/1/3 399/1/3
f 401/1/4 404/1/4 443/1/4 444/1/4
f 445/1/6 444/1/6 443/1/6 442/1/6
f 405/1/2 446/1/2 447/1/2 416/1/2
f 406/1/1 448/1/1 449/1/1 450/1/1
f 406/1/3 450/1/3 446/1/3 405/1/3
f 448/1/4 416/1/4 447/1/4 449/1/4
f 450/1/6 449/1/6 447/1/6 446/1/6
f 406/1/5 405/1/5 416/1/5 448/1/5
f 417/2/1 418/2/1 451/2/1 452/2/1
f 417/2/3 452/2/3 453/2/3 454/2/3
f 418/2/4 455/2/4 456/2/4 451/2/4
f 452/2/6 451/2/6 456/2/6 453/2/6
f 417/2/5 454/2/5 455/2/5 418/2/5
f 411/3/2 457/3/2 458/3/2 459/3/2
f 454/3/3 453/3/3 457/3/3 411/3/3
f 455/3/4 459/3/4 458/3/4 456/3/4
f 453/3/6 456/3/6 458/3/6 457/3/6
f 454/3/5 411/3/5 459/3/5 455/3/5
