mtllib Sietecueros_Karoll_Alexandra_Duran_Vásquez_fase_2.mtl
o Sietecueros_Karoll_Alexandra_Duran_Vásquez_fase_2
v -4.0000 1.0000 1.0000
v -3.0000 1.0000 1.0000
v -3.0000 1.0000 -0.0000
v -4.0000 1.0000 -0.0000
v -4.0000 0.0000 1.0000
v -4.0000 0.0000 -0.0000
v -3.0000 0.0000 -0.0000
v -3.0000 0.0000 1.0000
v -4.0000 4.0000 1.0000
v -3.0000 4.0000 1.0000
v -3.0000 4.0000 -0.0000
v -4.0000 4.0000 -0.0000
v -4.0000 3.0000 1.0000
v -4.0000 3.0000 -0.0000
v -3.0000 3.0000 -0.0000
v -3.0000 3.0000 1.0000
v -4.0000 -1.0000 -0.0000
v -4.0000 -1.0000 -1.0000
v -3.0000 -1.0000 -1.0000
v -3.0000 -1.0000 -0.0000
v -4.0000 0.0000 -1.0000
v -3.0000 0.0000 -1.0000
v -3.0000 1.0000 -1.0000
v -4.0000 1.0000 -1.0000
v -3.0000 1.0000 -2.0000
v -4.0000 1.0000 -2.0000
v -4.0000 0.0000 -2.0000
v -3.0000 0.0000 -2.0000
v -3.0000 1.0000 3.0000
v -2.0000 1.0000 3.0000
v -2.0000 1.0000 2.0000
v -3.0000 1.0000 2.0000
v -3.0000 0.0000 3.0000
v -3.0000 0.0000 2.0000
v -2.0000 0.0000 2.0000
v -2.0000 0.0000 3.0000
v -3.0000 4.0000 2.0000
v -2.0000 4.0000 2.0000
v -2.0000 4.0000 1.0000
v -3.0000 3.0000 2.0000
v -2.0000 3.0000 1.0000
v -2.0000 3.0000 2.0000
v -3.0000 2.0000 1.0000
v -3.0000 2.0000 -0.0000
v -2.0000 2.0000 -0.0000
v -2.0000 2.0000 1.0000
v -2.0000 3.0000 -0.0000
v -2.0000 4.0000 -0.0000
v -2.0000 0.0000 -0.0000
v -2.0000 0.0000 -1.0000
v -2.0000 -1.0000 -1.0000
v -2.0000 -1.0000 -0.0000
v -2.0000 4.0000 -1.0000
v -3.0000 4.0000 -1.0000
v -3.0000 3.0000 -1.0000
v -2.0000 3.0000 -1.0000
v -2.0000 1.0000 -1.0000
v -2.0000 1.0000 -2.0000
v -2.0000 0.0000 -2.0000
v -2.0000 1.0000 -3.0000
v -3.0000 1.0000 -3.0000
v -3.0000 0.0000 -3.0000
v -2.0000 0.0000 -3.0000
v -2.0000 1.0000 4.0000
v -1.0000 1.0000 4.0000
v -1.0000 1.0000 3.0000
v -2.0000 0.0000 4.0000
v -1.0000 0.0000 3.0000
v -1.0000 0.0000 4.0000
v -1.0000 1.0000 2.0000
v -1.0000 0.0000 2.0000
v -2.0000 -1.0000 1.0000
v -1.0000 -1.0000 1.0000
v -1.0000 -1.0000 -0.0000
v -2.0000 -2.0000 1.0000
v -2.0000 -2.0000 -0.0000
v -1.0000 -2.0000 -0.0000
v -1.0000 -2.0000 1.0000
v -2.0000 1.0000 1.0000
v -2.0000 1.0000 -0.0000
v -1.0000 1.0000 -0.0000
v -1.0000 1.0000 1.0000
v -1.0000 2.0000 1.0000
v -1.0000 3.0000 1.0000
v -1.0000 3.0000 -0.0000
v -1.0000 2.0000 -0.0000
v -2.0000 -2.0000 -1.0000
v -1.0000 -2.0000 -1.0000
v -1.0000 -1.0000 -1.0000
v -1.0000 0.0000 -0.0000
v -1.0000 0.0000 -1.0000
v -1.0000 2.0000 -1.0000
v -2.0000 2.0000 -1.0000
v -1.0000 1.0000 -1.0000
v -1.0000 4.0000 -0.0000
v -1.0000 4.0000 -1.0000
v -1.0000 3.0000 -1.0000
v -2.0000 4.0000 -2.0000
v -1.0000 4.0000 -2.0000
v -1.0000 4.0000 -3.0000
v -2.0000 4.0000 -3.0000
v -2.0000 3.0000 -2.0000
v -2.0000 3.0000 -3.0000
v -1.0000 3.0000 -3.0000
v -1.0000 3.0000 -2.0000
v -1.0000 -1.0000 4.0000
v -1.0000 -1.0000 3.0000
v 0.0000 -1.0000 3.0000
v 0.0000 -1.0000 4.0000
v 0.0000 0.0000 4.0000
v 0.0000 0.0000 3.0000
v 0.0000 1.0000 4.0000
v 0.0000 1.0000 3.0000
v 0.0000 0.0000 2.0000
v -1.0000 -1.0000 2.0000
v 0.0000 -1.0000 2.0000
v -1.0000 4.0000 3.0000
v 0.0000 4.0000 3.0000
v 0.0000 4.0000 2.0000
v -1.0000 4.0000 2.0000
v -1.0000 3.0000 3.0000
v -1.0000 3.0000 2.0000
v 0.0000 3.0000 2.0000
v 0.0000 3.0000 3.0000
v -1.0000 -2.0000 2.0000
v 0.0000 -2.0000 1.0000
v 0.0000 -2.0000 2.0000
v 0.0000 0.0000 1.0000
v -1.0000 0.0000 1.0000
v 0.0000 -1.0000 1.0000
v -1.0000 2.0000 2.0000
v 0.0000 2.0000 2.0000
v 0.0000 2.0000 1.0000
v 0.0000 1.0000 1.0000
v 0.0000 1.0000 2.0000
v 0.0000 4.0000 1.0000
v -1.0000 4.0000 1.0000
v 0.0000 3.0000 1.0000
v -1.0000 -4.0000 1.0000
v -1.0000 -4.0000 -0.0000
v 0.0000 -4.0000 -0.0000
v 0.0000 -4.0000 1.0000
v 0.0000 -3.0000 1.0000
v -1.0000 -3.0000 1.0000
v -1.0000 -3.0000 -0.0000
v 0.0000 3.0000 -0.0000
v -1.0000 -4.0000 -1.0000
v 0.0000 -4.0000 -1.0000
v -1.0000 -3.0000 -1.0000
v 0.0000 -3.0000 -1.0000
v 0.0000 -2.0000 -1.0000
v 0.0000 0.0000 -1.0000
v 0.0000 -1.0000 -1.0000
v 0.0000 1.0000 -1.0000
v 0.0000 3.0000 -1.0000
v 0.0000 -1.0000 -2.0000
v -1.0000 -1.0000 -2.0000
v -1.0000 -2.0000 -2.0000
v 0.0000 -2.0000 -2.0000
v -1.0000 1.0000 -2.0000
v 0.0000 1.0000 -2.0000
v -1.0000 2.0000 -2.0000
v 0.0000 2.0000 -2.0000
v 0.0000 3.0000 -2.0000
v 0.0000 2.0000 -1.0000
v -1.0000 2.0000 -3.0000
v 0.0000 2.0000 -3.0000
v 0.0000 3.0000 -3.0000
v 0.0000 4.0000 -2.0000
v 0.0000 4.0000 -3.0000
v -1.0000 1.0000 -3.0000
v 0.0000 1.0000 -3.0000
v 0.0000 1.0000 -4.0000
v -1.0000 1.0000 -4.0000
v -1.0000 0.0000 -3.0000
v -1.0000 0.0000 -4.0000
v 0.0000 0.0000 -4.0000
v 0.0000 0.0000 -3.0000
v 0.0000 4.0000 -4.0000
v -1.0000 4.0000 -4.0000
v -1.0000 3.0000 -4.0000
v 0.0000 3.0000 -4.0000
v 1.0000 1.0000 4.0000
v 1.0000 1.0000 3.0000
v 1.0000 0.0000 3.0000
v 1.0000 0.0000 4.0000
v 0.0000 4.0000 4.0000
v 1.0000 4.0000 4.0000
v 1.0000 4.0000 3.0000
v 0.0000 3.0000 4.0000
v 1.0000 3.0000 3.0000
v 1.0000 3.0000 4.0000
v 0.0000 2.0000 3.0000
v 1.0000 2.0000 2.0000
v 1.0000 2.0000 3.0000
v 1.0000 3.0000 2.0000
v 1.0000 4.0000 2.0000
v 1.0000 -1.0000 2.0000
v 1.0000 -1.0000 1.0000
v 1.0000 -2.0000 1.0000
v 1.0000 -2.0000 2.0000
v 1.0000 1.0000 1.0000
v 1.0000 1.0000 2.0000
v 1.0000 2.0000 1.0000
v 1.0000 3.0000 1.0000
v 1.0000 -4.0000 -0.0000
v 1.0000 -4.0000 1.0000
v 1.0000 -3.0000 1.0000
v 1.0000 -3.0000 -0.0000
v 1.0000 -2.0000 -0.0000
v 1.0000 0.0000 1.0000
v 1.0000 0.0000 -0.0000
v 1.0000 1.0000 -0.0000
v 1.0000 3.0000 -0.0000
v 1.0000 2.0000 -0.0000
v 1.0000 -4.0000 -1.0000
v 1.0000 -3.0000 -1.0000
v 1.0000 -2.0000 -1.0000
v 1.0000 -1.0000 -0.0000
v 1.0000 -1.0000 -1.0000
v 1.0000 0.0000 -1.0000
v 1.0000 1.0000 -1.0000
v 1.0000 3.0000 -1.0000
v 1.0000 2.0000 -1.0000
v 1.0000 -2.0000 -2.0000
v 1.0000 -1.0000 -2.0000
v 1.0000 0.0000 -2.0000
v 0.0000 0.0000 -2.0000
v 1.0000 2.0000 -2.0000
v 1.0000 1.0000 -2.0000
v 0.0000 4.0000 -1.0000
v 1.0000 4.0000 -1.0000
v 1.0000 4.0000 -2.0000
v 1.0000 3.0000 -2.0000
v 1.0000 0.0000 -3.0000
v 0.0000 -1.0000 -3.0000
v 1.0000 -1.0000 -3.0000
v 1.0000 4.0000 -3.0000
v 1.0000 3.0000 -3.0000
v 0.0000 -1.0000 -4.0000
v 1.0000 -1.0000 -4.0000
v 1.0000 0.0000 -4.0000
v 1.0000 1.0000 -3.0000
v 1.0000 1.0000 -4.0000
v 2.0000 4.0000 3.0000
v 2.0000 4.0000 2.0000
v 2.0000 3.0000 2.0000
v 2.0000 3.0000 3.0000
v 2.0000 -2.0000 -0.0000
v 2.0000 -2.0000 1.0000
v 2.0000 -1.0000 1.0000
v 2.0000 -1.0000 -0.0000
v 2.0000 0.0000 1.0000
v 2.0000 0.0000 -0.0000
v 2.0000 2.0000 1.0000
v 2.0000 2.0000 -0.0000
v 2.0000 1.0000 -0.0000
v 2.0000 1.0000 1.0000
v 1.0000 4.0000 1.0000
v 2.0000 4.0000 1.0000
v 2.0000 4.0000 -0.0000
v 1.0000 4.0000 -0.0000
v 2.0000 3.0000 -0.0000
v 2.0000 3.0000 1.0000
v 2.0000 -1.0000 -1.0000
v 2.0000 -2.0000 -1.0000
v 2.0000 1.0000 -1.0000
v 2.0000 2.0000 -1.0000
v 2.0000 3.0000 -1.0000
v 2.0000 1.0000 -2.0000
v 2.0000 1.0000 -3.0000
v 2.0000 0.0000 -3.0000
v 2.0000 0.0000 -2.0000
v 2.0000 1.0000 -4.0000
v 2.0000 0.0000 -4.0000
v 2.0000 1.0000 3.0000
v 3.0000 1.0000 3.0000
v 3.0000 1.0000 2.0000
v 2.0000 1.0000 2.0000
v 2.0000 0.0000 3.0000
v 2.0000 0.0000 2.0000
v 3.0000 0.0000 2.0000
v 3.0000 0.0000 3.0000
v 3.0000 1.0000 1.0000
v 3.0000 0.0000 1.0000
v 3.0000 0.0000 -0.0000
v 3.0000 -1.0000 -0.0000
v 3.0000 -1.0000 1.0000
v 3.0000 4.0000 1.0000
v 3.0000 4.0000 -0.0000
v 3.0000 3.0000 -0.0000
v 3.0000 3.0000 1.0000
v 3.0000 2.0000 -1.0000
v 3.0000 2.0000 -0.0000
v 3.0000 3.0000 -1.0000
v 3.0000 4.0000 -1.0000
v 2.0000 4.0000 -1.0000
v 3.0000 4.0000 -2.0000
v 2.0000 4.0000 -2.0000
v 2.0000 3.0000 -2.0000
v 3.0000 3.0000 -2.0000
v 3.0000 1.0000 -2.0000
v 3.0000 1.0000 -3.0000
v 3.0000 0.0000 -3.0000
v 3.0000 0.0000 -2.0000
v 4.0000 1.0000 2.0000
v 4.0000 1.0000 1.0000
v 4.0000 0.0000 1.0000
v 4.0000 0.0000 2.0000
v 4.0000 -1.0000 -0.0000
v 4.0000 -1.0000 1.0000
v 4.0000 0.0000 -0.0000
v 4.0000 1.0000 -0.0000
v 3.0000 1.0000 -0.0000
v 4.0000 1.0000 -1.0000
v 3.0000 1.0000 -1.0000
v 3.0000 0.0000 -1.0000
v 4.0000 0.0000 -1.0000
v 4.0000 4.0000 -0.0000
v 4.0000 4.0000 -1.0000
v 4.0000 3.0000 -1.0000
v 4.0000 3.0000 -0.0000
vt 0.001953 0.500000
vt 0.005859 0.500000
vt 0.009766 0.500000
vt 0.013672 0.500000
vt 0.017578 0.500000
vt 0.021484 0.500000
vt 0.025391 0.500000
vt 0.029297 0.500000
vt 0.033203 0.500000
vt 0.037109 0.500000
vn 0.0 -1.0 0.0
vn 0.0 1.0 0.0
vn 0.0 0.0 1.0
vn 0.0 0.0 -1.0
vn -1.0 0.0 0.0
vn 1.0 0.0 0.0
usemtl mat_Sietecueros_Karoll_Alexandra_Duran_Vásquez_fase_2
s off
f 1/1/2 2/1/2 3/1/2 4/1/2
f 5/1/1 6/1/1 7/1/1 8/1/1
f 5/1/3 8/1/3 2/1/3 1/1/3
f 8/1/6 7/1/6 3/1/6 2/1/6
f 5/1/5 1/1/5 4/1/5 6/1/5
f 9/2/2 10/2/2 11/2/2 12/2/2
f 13/2/1 14/2/1 15/2/1 16/2/1
f 13/2/3 16/2/3 10/2/3 9/2/3
f 14/2/4 12/2/4 11/2/4 15/2/4
f 13/2/5 9/2/5 12/2/5 14/2/5
f 17/2/1 18/2/1 19/2/1 20/2/1
f 17/2/3 20/2/3 7/2/3 6/2/3
f 18/2/4 21/2/4 22/2/4 19/2/4
f 17/2/5 6/2/5 21/2/5 18/2/5
f 4/2/2 3/2/2 23/2/2 24/2/2
f 7/2/6 22/2/6 23/2/6 3/2/6
f 6/2/5 4/2/5 24/2/5 21/2/5
f 24/3/2 23/3/2 25/3/2 26/3/2
f 21/3/1 27/3/1 28/3/1 22/3/1
f 27/3/4 26/3/4 25/3/4 28/3/4
f 21/3/5 24/3/5 26/3/5 27/3/5
f 29/3/2 30/3/2 31/3/2 32/3/2
f 33/3/1 34/3/1 35/3/1 36/3/1
f 33/3/3 36/3/3 30/3/3 29/3/3
f 34/3/4 32/3/4 31/3/4 35/3/4
f 33/3/5 29/3/5 32/3/5 34/3/5
f 37/1/2 38/1/2 39/1/2 10/1/2
f 40/1/1 16/1/1 41/1/1 42/1/1
f 40/1/3 42/1/3 38/1/3 37/1/3
f 42/1/6 41/1/6 39/1/6 38/1/6
f 40/1/5 37/1/5 10/1/5 16/1/5
f 43/2/1 44/2/1 45/2/1 46/2/1
f 43/2/3 46/2/3 41/2/3 16/2/3
f 44/2/4 15/2/4 47/2/4 45/2/4
f 43/2/5 16/2/5 15/2/5 44/2/5
f 10/2/2 39/2/2 48/2/2 11/2/2
f 41/2/6 47/2/6 48/2/6 39/2/6
f 7/2/2 49/2/2 50/2/2 22/2/2
f 20/2/1 19/2/1 51/2/1 52/2/1
f 20/2/3 52/2/3 49/2/3 7/2/3
f 19/2/4 22/2/4 50/2/4 51/2/4
f 11/3/2 48/3/2 53/3/2 54/3/2
f 15/3/1 55/3/1 56/3/1 47/3/1
f 55/3/4 54/3/4 53/3/4 56/3/4
f 15/3/5 11/3/5 54/3/5 55/3/5
f 23/2/2 57/2/2 58/2/2 25/2/2
f 22/2/1 28/2/1 59/2/1 50/2/1
f 22/2/3 50/2/3 57/2/3 23/2/3
f 50/2/6 59/2/6 58/2/6 57/2/6
f 25/4/2 58/4/2 60/4/2 61/4/2
f 28/4/1 62/4/1 63/4/1 59/4/1
f 62/4/4 61/4/4 60/4/4 63/4/4
f 59/4/6 63/4/6 60/4/6 58/4/6
f 28/4/5 25/4/5 61/4/5 62/4/5
f 64/2/2 65/2/2 66/2/2 30/2/2
f 67/2/1 36/2/1 68/2/1 69/2/1
f 67/2/3 69/2/3 65/2/3 64/2/3
f 67/2/5 64/2/5 30/2/5 36/2/5
f 30/2/2 66/2/2 70/2/2 31/2/2
f 36/2/1 35/2/1 71/2/1 68/2/1
f 35/2/4 31/2/4 70/2/4 71/2/4
f 68/2/6 71/2/6 70/2/6 66/2/6
f 72/1/2 73/1/2 74/1/2 52/1/2
f 75/1/1 76/1/1 77/1/1 78/1/1
f 75/1/3 78/1/3 73/1/3 72/1/3
f 75/1/5 72/1/5 52/1/5 76/1/5
f 79/2/1 80/2/1 81/2/1 82/2/1
f 79/2/3 82/2/3 83/2/3 46/2/3
f 79/2/5 46/2/5 45/2/5 80/2/5
f 41/2/2 84/2/2 85/2/2 47/2/2
f 46/2/3 83/2/3 84/2/3 41/2/3
f 45/2/4 47/2/4 85/2/4 86/2/4
f 76/2/1 87/2/1 88/2/1 77/2/1
f 87/2/4 51/2/4 89/2/4 88/2/4
f 76/2/5 52/2/5 51/2/5 87/2/5
f 49/2/2 90/2/2 91/2/2 50/2/2
f 52/2/3 74/2/3 90/2/3 49/2/3
f 51/2/4 50/2/4 91/2/4 89/2/4
f 45/2/2 86/2/2 92/2/2 93/2/2
f 80/2/1 57/2/1 94/2/1 81/2/1
f 57/2/4 93/2/4 92/2/4 94/2/4
f 80/2/5 45/2/5 93/2/5 57/2/5
f 48/2/2 95/2/2 96/2/2 53/2/2
f 47/2/1 56/2/1 97/2/1 85/2/1
f 47/2/3 85/2/3 95/2/3 48/2/3
f 56/2/4 53/2/4 96/2/4 97/2/4
f 85/2/6 97/2/6 96/2/6 95/2/6
f 98/4/2 99/4/2 100/4/2 101/4/2
f 102/4/1 103/4/1 104/4/1 105/4/1
f 102/4/3 105/4/3 99/4/3 98/4/3
f 103/4/4 101/4/4 100/4/4 104/4/4
f 102/4/5 98/4/5 101/4/5 103/4/5
f 106/2/1 107/2/1 108/2/1 109/2/1
f 106/2/3 109/2/3 110/2/3 69/2/3
f 109/2/6 108/2/6 111/2/6 110/2/6
f 106/2/5 69/2/5 68/2/5 107/2/5
f 65/2/2 112/2/2 113/2/2 66/2/2
f 69/2/3 110/2/3 112/2/3 65/2/3
f 68/2/4 66/2/4 113/2/4 111/2/4
f 68/2/2 111/2/2 114/2/2 71/2/2
f 107/2/1 115/2/1 116/2/1 108/2/1
f 108/2/6 116/2/6 114/2/6 111/2/6
f 107/2/5 68/2/5 71/2/5 115/2/5
f 117/2/2 118/2/2 119/2/2 120/2/2
f 121/2/1 122/2/1 123/2/1 124/2/1
f 121/2/3 124/2/3 118/2/3 117/2/3
f 121/2/5 117/2/5 120/2/5 122/2/5
f 125/2/1 78/2/1 126/2/1 127/2/1
f 125/2/3 127/2/3 116/2/3 115/2/3
f 125/2/5 115/2/5 73/2/5 78/2/5
f 71/2/2 114/2/2 128/2/2 129/2/2
f 116/2/6 130/2/6 128/2/6 114/2/6
f 115/2/5 71/2/5 129/2/5 73/2/5
f 131/2/2 132/2/2 133/2/2 83/2/2
f 70/2/1 82/2/1 134/2/1 135/2/1
f 70/2/3 135/2/3 132/2/3 131/2/3
f 70/2/5 131/2/5 83/2/5 82/2/5
f 120/2/2 119/2/2 136/2/2 137/2/2
f 122/2/1 84/2/1 138/2/1 123/2/1
f 84/2/4 137/2/4 136/2/4 138/2/4
f 123/2/6 138/2/6 136/2/6 119/2/6
f 122/2/5 120/2/5 137/2/5 84/2/5
f 139/5/1 140/5/1 141/5/1 142/5/1
f 139/5/3 142/5/3 143/5/3 144/5/3
f 139/5/5 144/5/5 145/5/5 140/5/5
f 144/2/3 143/2/3 126/2/3 78/2/3
f 144/2/5 78/2/5 77/2/5 145/2/5
f 73/2/5 129/2/5 90/2/5 74/2/5
f 129/2/3 128/2/3 134/2/3 82/2/3
f 129/2/5 82/2/5 81/2/5 90/2/5
f 84/6/2 138/6/2 146/6/2 85/6/2
f 83/6/3 133/6/3 138/6/3 84/6/3
f 140/5/1 147/5/1 148/5/1 141/5/1
f 147/5/4 149/5/4 150/5/4 148/5/4
f 140/5/5 145/5/5 149/5/5 147/5/5
f 149/2/4 88/2/4 151/2/4 150/2/4
f 145/2/5 77/2/5 88/2/5 149/2/5
f 89/2/4 91/2/4 152/2/4 153/2/4
f 91/5/4 94/5/4 154/5/4 152/5/4
f 90/5/5 81/5/5 94/5/5 91/5/5
f 85/2/2 146/2/2 155/2/2 97/2/2
f 86/2/5 85/2/5 97/2/5 92/2/5
f 89/2/2 153/2/2 156/2/2 157/2/2
f 88/2/1 158/2/1 159/2/1 151/2/1
f 158/2/4 157/2/4 156/2/4 159/2/4
f 88/2/5 89/2/5 157/2/5 158/2/5
f 94/2/1 160/2/1 161/2/1 154/2/1
f 160/2/4 162/2/4 163/2/4 161/2/4
f 94/2/5 92/2/5 162/2/5 160/2/5
f 97/2/2 155/2/2 164/2/2 105/2/2
f 165/2/6 163/2/6 164/2/6 155/2/6
f 92/2/5 97/2/5 105/2/5 162/2/5
f 162/2/1 166/2/1 167/2/1 163/2/1
f 166/2/4 104/2/4 168/2/4 167/2/4
f 163/2/6 167/2/6 168/2/6 164/2/6
f 162/2/5 105/2/5 104/2/5 166/2/5
f 99/2/2 169/2/2 170/2/2 100/2/2
f 105/2/3 164/2/3 169/2/3 99/2/3
f 171/2/2 172/2/2 173/2/2 174/2/2
f 175/2/1 176/2/1 177/2/1 178/2/1
f 175/2/3 178/2/3 172/2/3 171/2/3
f 176/2/4 174/2/4 173/2/4 177/2/4
f 175/2/5 171/2/5 174/2/5 176/2/5
f 100/3/2 170/3/2 179/3/2 180/3/2
f 104/3/1 181/3/1 182/3/1 168/3/1
f 181/3/4 180/3/4 179/3/4 182/3/4
f 168/3/6 182/3/6 179/3/6 170/3/6
f 104/3/5 100/3/5 180/3/5 181/3/5
f 112/1/2 183/1/2 184/1/2 113/1/2
f 110/1/1 111/1/1 185/1/1 186/1/1
f 110/1/3 186/1/3 183/1/3 112/1/3
f 111/1/4 113/1/4 184/1/4 185/1/4
f 186/1/6 185/1/6 184/1/6 183/1/6
f 187/2/2 188/2/2 189/2/2 118/2/2
f 190/2/1 124/2/1 191/2/1 192/2/1
f 190/2/3 192/2/3 188/2/3 187/2/3
f 192/2/6 191/2/6 189/2/6 188/2/6
f 190/2/5 187/2/5 118/2/5 124/2/5
f 193/2/1 132/2/1 194/2/1 195/2/1
f 193/2/3 195/2/3 191/2/3 124/2/3
f 195/2/6 194/2/6 196/2/6 191/2/6
f 193/2/5 124/2/5 123/2/5 132/2/5
f 118/2/2 189/2/2 197/2/2 119/2/2
f 123/2/4 119/2/4 197/2/4 196/2/4
f 116/1/2 198/1/2 199/1/2 130/1/2
f 127/1/1 126/1/1 200/1/1 201/1/1
f 127/1/3 201/1/3 198/1/3 116/1/3
f 201/1/6 200/1/6 199/1/6 198/1/6
f 135/2/1 134/2/1 202/2/1 203/2/1
f 135/2/3 203/2/3 194/2/3 132/2/3
f 203/2/6 202/2/6 204/2/6 194/2/6
f 123/2/2 196/2/2 205/2/2 138/2/2
f 194/2/6 204/2/6 205/2/6 196/2/6
f 132/2/5 123/2/5 138/2/5 133/2/5
f 142/7/1 141/7/1 206/7/1 207/7/1
f 142/7/3 207/7/3 208/7/3 143/7/3
f 207/7/6 206/7/6 209/7/6 208/7/6
f 143/2/3 208/2/3 200/2/3 126/2/3
f 208/2/6 209/2/6 210/2/6 200/2/6
f 130/2/3 199/2/3 211/2/3 128/2/3
f 128/2/3 211/2/3 202/2/3 134/2/3
f 211/2/6 212/2/6 213/2/6 202/2/6
f 138/2/2 205/2/2 214/2/2 146/2/2
f 204/2/6 215/2/6 214/2/6 205/2/6
f 141/7/1 148/7/1 216/7/1 206/7/1
f 148/7/4 150/7/4 217/7/4 216/7/4
f 206/7/6 216/7/6 217/7/6 209/7/6
f 150/5/4 151/5/4 218/5/4 217/5/4
f 209/5/6 217/5/6 218/5/6 210/5/6
f 219/2/6 220/2/6 221/2/6 212/2/6
f 152/2/4 154/2/4 222/2/4 221/2/4
f 212/2/6 221/2/6 222/2/6 213/2/6
f 146/9/2 214/9/2 223/9/2 155/9/2
f 165/9/4 155/9/4 223/9/4 224/9/4
f 151/5/1 159/5/1 225/5/1 218/5/1
f 159/5/4 156/5/4 226/5/4 225/5/4
f 218/5/6 225/5/6 226/5/6 220/5/6
f 152/9/2 221/9/2 227/9/2 228/9/2
f 220/9/6 226/9/6 227/9/6 221/9/6
f 153/9/5 152/9/5 228/9/5 156/9/5
f 165/2/2 224/2/2 229/2/2 163/2/2
f 154/2/1 161/2/1 230/2/1 222/2/1
f 161/2/4 163/2/4 229/2/4 230/2/4
f 222/2/6 230/2/6 229/2/6 224/2/6
f 231/2/2 232/2/2 233/2/2 169/2/2
f 155/2/1 164/2/1 234/2/1 223/2/1
f 155/2/3 223/2/3 232/2/3 231/2/3
f 223/2/6 234/2/6 233/2/6 232/2/6
f 155/2/5 231/2/5 169/2/5 164/2/5
f 228/2/2 227/2/2 235/2/2 178/2/2
f 156/2/1 236/2/1 237/2/1 226/2/1
f 226/2/6 237/2/6 235/2/6 227/2/6
f 156/2/5 228/2/5 178/2/5 236/2/5
f 169/9/2 233/9/2 238/9/2 170/9/2
f 164/9/1 168/9/1 239/9/1 234/9/1
f 168/9/4 170/9/4 238/9/4 239/9/4
f 234/9/6 239/9/6 238/9/6 233/9/6
f 236/2/1 240/2/1 241/2/1 237/2/1
f 240/2/4 177/2/4 242/2/4 241/2/4
f 237/2/6 241/2/6 242/2/6 235/2/6
f 236/2/5 178/2/5 177/2/5 240/2/5
f 172/2/2 243/2/2 244/2/2 173/2/2
f 178/2/3 235/2/3 243/2/3 172/2/3
f 177/2/4 173/2/4 244/2/4 242/2/4
f 189/4/2 245/4/2 246/4/2 197/4/2
f 191/4/1 196/4/1 247/4/1 248/4/1
f 191/4/3 248/4/3 245/4/3 189/4/3
f 196/4/4 197/4/4 246/4/4 247/4/4
f 248/4/6 247/4/6 246/4/6 245/4/6
f 200/2/1 210/2/1 249/2/1 250/2/1
f 200/2/3 250/2/3 251/2/3 199/2/3
f 250/2/6 249/2/6 252/2/6 251/2/6
f 211/2/2 253/2/2 254/2/2 212/2/2
f 199/2/3 251/2/3 253/2/3 211/2/3
f 219/2/4 212/2/4 254/2/4 252/2/4
f 204/1/2 255/1/2 256/1/2 215/1/2
f 202/1/1 213/1/1 257/1/1 258/1/1
f 202/1/3 258/1/3 255/1/3 204/1/3
f 258/1/6 257/1/6 256/1/6 255/1/6
f 259/2/2 260/2/2 261/2/2 262/2/2
f 205/2/1 214/2/1 263/2/1 264/2/1
f 205/2/3 264/2/3 260/2/3 259/2/3
f 214/2/4 262/2/4 261/2/4 263/2/4
f 205/2/5 259/2/5 262/2/5 214/2/5
f 219/10/2 252/10/2 265/10/2 220/10/2
f 210/10/1 218/10/1 266/10/1 249/10/1
f 218/10/4 220/10/4 265/10/4 266/10/4
f 249/10/6 266/10/6 265/10/6 252/10/6
f 213/2/1 222/2/1 267/2/1 257/2/1
f 222/2/4 224/2/4 268/2/4 267/2/4
f 257/2/6 267/2/6 268/2/6 256/2/6
f 214/2/2 263/2/2 269/2/2 223/2/2
f 215/2/3 256/2/3 263/2/3 214/2/3
f 224/2/4 223/2/4 269/2/4 268/2/4
f 230/2/2 270/2/2 271/2/2 243/2/2
f 227/2/1 235/2/1 272/2/1 273/2/1
f 227/2/3 273/2/3 270/2/3 230/2/3
f 227/2/5 230/2/5 243/2/5 235/2/5
f 243/3/2 271/3/2 274/3/2 244/3/2
f 235/3/1 242/3/1 275/3/1 272/3/1
f 242/3/4 244/3/4 274/3/4 275/3/4
f 272/3/6 275/3/6 274/3/6 271/3/6
f 276/2/2 277/2/2 278/2/2 279/2/2
f 280/2/1 281/2/1 282/2/1 283/2/1
f 280/2/3 283/2/3 277/2/3 276/2/3
f 283/2/6 282/2/6 278/2/6 277/2/6
f 280/2/5 276/2/5 279/2/5 281/2/5
f 279/2/2 278/2/2 284/2/2 258/2/2
f 281/2/1 253/2/1 285/2/1 282/2/1
f 253/2/4 258/2/4 284/2/4 285/2/4
f 281/2/5 279/2/5 258/2/5 253/2/5
f 253/8/2 285/8/2 286/8/2 254/8/2
f 251/8/1 252/8/1 287/8/1 288/8/1
f 251/8/3 288/8/3 285/8/3 253/8/3
f 252/8/4 254/8/4 286/8/4 287/8/4
f 260/2/2 289/2/2 290/2/2 261/2/2
f 264/2/1 263/2/1 291/2/1 292/2/1
f 264/2/3 292/2/3 289/2/3 260/2/3
f 292/2/6 291/2/6 290/2/6 289/2/6
f 256/2/1 268/2/1 293/2/1 294/2/1
f 256/2/3 294/2/3 291/2/3 263/2/3
f 268/2/4 269/2/4 295/2/4 293/2/4
f 294/2/6 293/2/6 295/2/6 291/2/6
f 261/2/2 290/2/2 296/2/2 297/2/2
f 263/2/5 261/2/5 297/2/5 269/2/5
f 297/2/2 296/2/2 298/2/2 299/2/2
f 269/2/1 300/2/1 301/2/1 295/2/1
f 300/2/4 299/2/4 298/2/4 301/2/4
f 295/2/6 301/2/6 298/2/6 296/2/6
f 269/2/5 297/2/5 299/2/5 300/2/5
f 270/4/2 302/4/2 303/4/2 271/4/2
f 273/4/1 272/4/1 304/4/1 305/4/1
f 273/4/3 305/4/3 302/4/3 270/4/3
f 272/4/4 271/4/4 303/4/4 304/4/4
f 305/4/6 304/4/6 303/4/6 302/4/6
f 278/4/2 306/4/2 307/4/2 284/4/2
f 282/4/1 285/4/1 308/4/1 309/4/1
f 282/4/3 309/4/3 306/4/3 278/4/3
f 309/4/6 308/4/6 307/4/6 306/4/6
f 288/1/1 287/1/1 310/1/1 311/1/1
f 288/1/3 311/1/3 308/1/3 285/1/3
f 287/1/4 286/1/4 312/1/4 310/1/4
f 311/1/6 310/1/6 312/1/6 308/1/6
f 284/2/2 307/2/2 313/2/2 314/2/2
f 308/2/6 312/2/6 313/2/6 307/2/6
f 285/2/5 284/2/5 314/2/5 286/2/5
f 314/2/2 313/2/2 315/2/2 316/2/2
f 286/2/1 317/2/1 318/2/1 312/2/1
f 317/2/4 316/2/4 315/2/4 318/2/4
f 312/2/6 318/2/6 315/2/6 313/2/6
f 286/2/5 314/2/5 316/2/5 317/2/5
f 290/1/2 319/1/2 320/1/2 296/1/2
f 291/1/1 295/1/1 321/1/1 322/1/1
f 291/1/3 322/1/3 319/1/3 290/1/3
f 295/1/4 296/1/4 320/1/4 321/1/4
f 322/1/6 321/1/6 320/1/6 319/1/6
