mtllib Sietecueros_Sergio_Danilo_Palacios_Castillo_fase_2.mtl
o Sietecueros_Sergio_Danilo_Palacios_Castillo_fase_2
v -4.0000 1.0000 1.0000
v -3.0000 1.0000 1.0000
v -3.0000 1.0000 -0.0000
v -4.0000 1.0000 -0.0000
v -4.0000 0.0000 1.0000
v -4.0000 0.0000 -0.0000
v -3.0000 0.0000 -0.0000
v -3.0000 0.0000 1.0000
v -4.0000 4.0000 1.0000
v -3.0000 4.0000 1.0000
v -3.0000 4.0000 -0.0000
v -4.0000 4.0000 -0.0000
v -4.0000 3.0000 1.0000
v -4.0000 3.0000 -0.0000
v -3.0000 3.0000 -0.0000
v -3.0000 3.0000 1.0000
v -4.0000 -1.0000 -0.0000
v -4.0000 -1.0000 -1.0000
v -3.0000 -1.0000 -1.0000
v -3.0000 -1.0000 -0.0000
v -4.0000 0.0000 -1.0000
v -3.0000 0.0000 -1.0000
v -3.0000 1.0000 -1.0000
v -4.0000 1.0000 -1.0000
v -3.0000 1.0000 -2.0000
v -4.0000 1.0000 -2.0000
v -4.0000 0.0000 -2.0000
v -3.0000 0.0000 -2.0000
v -3.0000 1.0000 3.0000
v -2.0000 1.0000 3.0000
v -2.0000 1.0000 2.0000
v -3.0000 1.0000 2.0000
v -3.0000 0.0000 3.0000
v -3.0000 0.0000 2.0000
v -2.0000 0.0000 2.0000
v -2.0000 0.0000 3.0000
v -3.0000 4.0000 2.0000
v -2.0000 4.0000 2.0000
v -2.0000 4.0000 1.0000
v -3.0000 3.0000 2.0000
v -2.0000 3.0000 1.0000
v -2.0000 3.0000 2.0000
v -3.0000 2.0000 1.0000
v -3.0000 2.0000 -0.0000
v -2.0000 2.0000 -0.0000
v -2.0000 2.0000 1.0000
v -2.0000 3.0000 -0.0000
v -2.0000 4.0000 -0.0000
v -2.0000 0.0000 -0.0000
v -2.0000 0.0000 -1.0000
v -2.0000 -1.0000 -1.0000
v -2.0000 -1.0000 -0.0000
v -2.0000 4.0000 -1.0000
v -3.0000 4.0000 -1.0000
v -3.0000 3.0000 -1.0000
v -2.0000 3.0000 -1.0000
v -2.0000 1.0000 -1.0000
v -2.0000 1.0000 -2.0000
v -2.0000 0.0000 -2.0000
v -2.0000 1.0000 -3.0000
v -3.0000 1.0000 -3.0000
v -3.0000 0.0000 -3.0000
v -2.0000 0.0000 -3.0000
v -2.0000 1.0000 4.0000
v -1.0000 1.0000 4.0000
v -1.0000 1.0000 3.0000
v -2.0000 0.0000 4.0000
v -1.0000 0.0000 3.0000
v -1.0000 0.0000 4.0000
v -1.0000 1.0000 2.0000
v -1.0000 0.0000 2.0000
v -2.0000 -1.0000 1.0000
v -1.0000 -1.0000 1.0000
v -1.0000 -1.0000 -0.0000
v -2.0000 -2.0000 1.0000
v -2.0000 -2.0000 -0.0000
v -1.0000 -2.0000 -0.0000
v -1.0000 -2.0000 1.0000
v -2.0000 1.0000 1.0000
v -2.0000 1.0000 -0.0000
v -1.0000 1.0000 -0.0000
v -1.0000 1.0000 1.0000
v -1.0000 2.0000 1.0000
v -1.0000 3.0000 1.0000
v -1.0000 3.0000 -0.0000
v -1.0000 2.0000 -0.0000
v -2.0000 -2.0000 -1.0000
v -1.0000 -2.0000 -1.0000
v -1.0000 -1.0000 -1.0000
v -1.0000 0.0000 -0.0000
v -1.0000 0.0000 -1.0000
v -1.0000 2.0000 -1.0000
v -2.0000 2.0000 -1.0000
v -1.0000 1.0000 -1.0000
v -1.0000 4.0000 -0.0000
v -1.0000 4.0000 -1.0000
v -1.0000 3.0000 -1.0000
v -2.0000 4.0000 -2.0000
v -1.0000 4.0000 -2.0000
v -1.0000 4.0000 -3.0000
v -2.0000 4.0000 -3.0000
v -2.0000 3.0000 -2.0000
v -2.0000 3.0000 -3.0000
v -1.0000 3.0000 -3.0000
v -1.0000 3.0000 -2.0000
v -1.0000 -1.0000 4.0000
v -1.0000 -1.0000 3.0000
v 0.0000 -1.0000 3.0000
v 0.0000 -1.0000 4.0000
v 0.0000 0.0000 4.0000
v 0.0000 0.0000 3.0000
v 0.0000 1.0000 4.0000
v 0.0000 1.0000 3.0000
v 0.0000 0.0000 2.0000
v -1.0000 -1.0000 2.0000
v 0.0000 -1.0000 2.0000
v -1.0000 4.0000 3.0000
v 0.0000 4.0000 3.0000
v 0.0000 4.0000 2.0000
v -1.0000 4.0000 2.0000
v -1.0000 3.0000 3.0000
v -1.0000 3.0000 2.0000
v 0.0000 3.0000 2.0000
v 0.0000 3.0000 3.0000
v -1.0000 -2.0000 2.0000
v 0.0000 -2.0000 1.0000
v 0.0000 -2.0000 2.0000
v 0.0000 0.0000 1.0000
v -1.0000 0.0000 1.0000
v 0.0000 -1.0000 1.0000
v -1.0000 2.0000 2.0000
v 0.0000 2.0000 2.0000
v 0.0000 2.0000 1.0000
v 0.0000 1.0000 1.0000
v 0.0000 1.0000 2.0000
v 0.0000 4.0000 1.0000
v -1.0000 4.0000 1.0000
v 0.0000 3.0000 1.0000
v -1.0000 -4.0000 1.0000
v -1.0000 -4.0000 -0.0000
v 0.0000 -4.0000 -0.0000
v 0.0000 -4.0000 1.0000
v 0.0000 -3.0000 1.0000
v -1.0000 -3.0000 1.0000
v -1.0000 -3.0000 -0.0000
v 0.0000 3.0000 -0.0000
v -1.0000 -4.0000 -1.0000
v 0.0000 -4.0000 -1.0000
v -1.0000 -3.0000 -1.0000
v 0.0000 -3.0000 -1.0000
v 0.0000 -2.0000 -1.0000
v 0.0000 0.0000 -1.0000
v 0.0000 -1.0000 -1.0000
v 0.0000 1.0000 -1.0000
v 0.0000 3.0000 -1.0000
v 0.0000 -1.0000 -2.0000
v -1.0000 -1.0000 -2.0000
v -1.0000 -2.0000 -2.0000
v 0.0000 -2.0000 -2.0000
v -1.0000 1.0000 -2.0000
v 0.0000 1.0000 -2.0000
v -1.0000 2.0000 -2.0000
v 0.0000 2.0000 -2.0000
v 0.0000 3.0000 -2.0000
v 0.0000 2.0000 -1.0000
v -1.0000 2.0000 -3.0000
v 0.0000 2.0000 -3.0000
v 0.0000 3.0000 -3.0000
v 0.0000 4.0000 -2.0000
v 0.0000 4.0000 -3.0000
v -1.0000 1.0000 -3.0000
v 0.0000 1.0000 -3.0000
v 0.0000 1.0000 -4.0000
v -1.0000 1.0000 -4.0000
v -1.0000 0.0000 -3.0000
v -1.0000 0.0000 -4.0000
v 0.0000 0.0000 -4.0000
v 0.0000 0.0000 -3.0000
v 0.0000 4.0000 -4.0000
v -1.0000 4.0000 -4.0000
v -1.0000 3.0000 -4.0000
v 0.0000 3.0000 -4.0000
v 1.0000 1.0000 4.0000
v 1.0000 1.0000 3.0000
v 1.0000 0.0000 3.0000
v 1.0000 0.0000 4.0000
v 0.0000 4.0000 4.0000
v 1.0000 4.0000 4.0000
v 1.0000 4.0000 3.0000
v 0.0000 3.0000 4.0000
v 1.0000 3.0000 3.0000
v 1.0000 3.0000 4.0000
v 0.0000 2.0000 3.0000
v 1.0000 2.0000 2.0000
v 1.0000 2.0000 3.0000
v 1.0000 3.0000 2.0000
v 1.0000 4.0000 2.0000
v 1.0000 -1.0000 2.0000
v 1.0000 -1.0000 1.0000
v 1.0000 -2.0000 1.0000
v 1.0000 -2.0000 2.0000
v 1.0000 1.0000 1.0000
v 1.0000 1.0000 2.0000
v 1.0000 2.0000 1.0000
v 1.0000 3.0000 1.0000
v 1.0000 -4.0000 -0.0000
v 1.0000 -4.0000 1.0000
v 1.0000 -3.0000 1.0000
v 1.0000 -3.0000 -0.0000
v 1.0000 -2.0000 -0.0000
v 1.0000 0.0000 1.0000
v 1.0000 0.0000 -0.0000
v 1.0000 1.0000 -0.0000
v 1.0000 3.0000 -0.0000
v 1.0000 2.0000 -0.0000
v 1.0000 -4.0000 -1.0000
v 1.0000 -3.0000 -1.0000
v 1.0000 -2.0000 -1.0000
v 1.0000 -1.0000 -0.0000
v 1.0000 -1.0000 -1.0000
v 1.0000 0.0000 -1.0000
v 1.0000 1.0000 -1.0000
v 1.0000 3.0000 -1.0000
v 1.0000 2.0000 -1.0000
v 1.0000 -2.0000 -2.0000
v 1.0000 -1.0000 -2.0000
v 1.0000 0.0000 -2.0000
v 0.0000 0.0000 -2.0000
v 1.0000 2.0000 -2.0000
v 1.0000 1.0000 -2.0000
v 0.0000 4.0000 -1.0000
v 1.0000 4.0000 -1.0000
v 1.0000 4.0000 -2.0000
v 1.0000 3.0000 -2.0000
v 1.0000 0.0000 -3.0000
v 0.0000 -1.0000 -3.0000
v 1.0000 -1.0000 -3.0000
v 1.0000 4.0000 -3.0000
v 1.0000 3.0000 -3.0000
v 0.0000 -1.0000 -4.0000
v 1.0000 -1.0000 -4.0000
v 1.0000 0.0000 -4.0000
v 1.0000 1.0000 -3.0000
v 1.0000 1.0000 -4.0000
v 2.0000 4.0000 3.0000
v 2.0000 4.0000 2.0000
v 2.0000 3.0000 2.0000
v 2.0000 3.0000 3.0000
v 2.0000 -2.0000 -0.0000
v 2.0000 -2.0000 1.0000
v 2.0000 -1.0000 1.0000
v 2.0000 -1.0000 -0.0000
v 2.0000 0.0000 1.0000
v 2.0000 0.0000 -0.0000
v 2.0000 2.0000 1.0000
v 2.0000 2.0000 -0.0000
v 2.0000 1.0000 -0.0000
v 2.0000 1.0000 1.0000
v 1.0000 4.0000 1.0000
v 2.0000 4.0000 1.0000
v 2.0000 4.0000 -0.0000
v 1.0000 4.0000 -0.0000
v 2.0000 3.0000 -0.0000
v 2.0000 3.0000 1.0000
v 2.0000 -1.0000 -1.0000
v 2.0000 -2.0000 -1.0000
v 2.0000 1.0000 -1.0000
v 2.0000 2.0000 -1.0000
v 2.0000 3.0000 -1.0000
v 2.0000 1.0000 -2.0000
v 2.0000 1.0000 -3.0000
v 2.0000 0.0000 -3.0000
v 2.0000 0.0000 -2.0000
v 2.0000 1.0000 -4.0000
v 2.0000 0.0000 -4.0000
v 2.0000 1.0000 3.0000
v 3.0000 1.0000 3.0000
v 3.0000 1.0000 2.0000
v 2.0000 1.0000 2.0000
v 2.0000 0.0000 3.0000
v 2.0000 0.0000 2.0000
v 3.0000 0.0000 2.0000
v 3.0000 0.0000 3.0000
v 3.0000 1.0000 1.0000
v 3.0000 0.0000 1.0000
v 3.0000 0.0000 -0.0000
v 3.0000 -1.0000 -0.0000
v 3.0000 -1.0000 1.0000
v 3.0000 4.0000 1.0000
v 3.0000 4.0000 -0.0000
v 3.0000 3.0000 -0.0000
v 3.0000 3.0000 1.0000
v 3.0000 2.0000 -1.0000
v 3.0000 2.0000 -0.0000
v 3.0000 3.0000 -1.0000
v 3.0000 4.0000 -1.0000
v 2.0000 4.0000 -1.0000
v 3.0000 4.0000 -2.0000
v 2.0000 4.0000 -2.0000
v 2.0000 3.0000 -2.0000
v 3.0000 3.0000 -2.0000
v 3.0000 1.0000 -2.0000
v 3.0000 1.0000 -3.0000
v 3.0000 0.0000 -3.0000
v 3.0000 0.0000 -2.0000
v 4.0000 1.0000 2.0000
v 4.0000 1.0000 1.0000
v 4.0000 0.0000 1.0000
v 4.0000 0.0000 2.0000
v 4.0000 -1.0000 -0.0000
v 4.0000 -1.0000 1.0000
v 4.0000 0.0000 -0.0000
v 4.0000 1.0000 -0.0000
v 3.0000 1.0000 -0.0000
v 4.0000 1.0000 -1.0000
v 3.0000 1.0000 -1.0000
v 3.0000 0.0000 -1.0000
v 4.0000 0.0000 -1.0000
v 4.0000 4.0000 -0.0000
v 4.0000 4.0000 -1.0000
v 4.0000 3.0000 -1.0000
v 4.0000 3.0000 -0.0000
vt 0.001953 0.500000
vt 0.005859 0.500000
vt 0.009766 0.500000
vt 0.013672 0.500000
vt 0.017578 0.500000
vt 0.021484 0.500000
vn 0.0 -1.0 0.0
vn 0.0 1.0 0.0
vn 0.0 0.0 1.0
vn 0.0 0.0 -1.0
vn -1.0 0.0 0.0
vn 1.0 0.0 0.0
usemtl mat_Sietecueros_Sergio_Danilo_Palacios_Castillo_fase_2
s off
f 1/1/2 2/1/2 3/1/2 4/1/2
f 5/1/1 6/1/1 7/1/1 8/1/1
f 5/1/3 8/1/3 2/1/3 1/1/3
f 8/1/6 7/1/6 3/1/6 2/1/6
f 5/1/5 1/1/5 4/1/5 6/1/5
f 9/1/2 10/1/2 11/1/2 12/1/2
f 13/1/1 14/1/1 15/1/1 16/1/1
f 13/1/3 16/1/3 10/1/3 9/1/3
f 14/1/4 12/1/4 11/1/4 15/1/4
f 13/1/5 9/1/5 12/1/5 14/1/5
f 17/2/1 18/2/1 19/2/1 20/2/1
f 17/2/3 20/2/3 7/2/3 6/2/3
f 18/2/4 21/2/4 22/2/4 19/2/4
f 17/2/5 6/2/5 21/2/5 18/2/5
f 4/3/2 3/3/2 23/3/2 24/3/2
f 7/3/6 22/3/6 23/3/6 3/3/6
f 6/3/5 4/3/5 24/3/5 21/3/5
f 24/4/2 23/4/2 25/4/2 26/4/2
f 21/4/1 27/4/1 28/4/1 22/4/1
f 27/4/4 26/4/4 25/4/4 28/4/4
f 21/4/5 24/4/5 26/4/5 27/4/5
f 29/3/2 30/3/2 31/3/2 32/3/2
f 33/3/1 34/3/1 35/3/1 36/3/1
f 33/3/3 36/3/3 30/3/3 29/3/3
f 34/3/4 32/3/4 31/3/4 35/3/4
f 33/3/5 29/3/5 32/3/5 34/3/5
f 37/1/2 38/1/2 39/1/2 10/1/2
f 40/1/1 16/1/1 41/1/1 42/1/1
f 40/1/3 42/1/3 38/1/3 37/1/3
f 42/1/6 41/1/6 39/1/6 38/1/6
f 40/1/5 37/1/5 10/1/5 16/1/5
f 43/5/1 44/5/1 45/5/1 46/5/1
f 43/5/3 46/5/3 41/5/3 16/5/3
f 44/5/4 15/5/4 47/5/4 45/5/4
f 43/5/5 16/5/5 15/5/5 44/5/5
f 10/2/2 39/2/2 48/2/2 11/2/2
f 41/2/6 47/2/6 48/2/6 39/2/6
f 7/2/2 49/2/2 50/2/2 22/2/2
f 20/2/1 19/2/1 51/2/1 52/2/1
f 20/2/3 52/2/3 49/2/3 7/2/3
f 19/2/4 22/2/4 50/2/4 51/2/4
f 11/1/2 48/1/2 53/1/2 54/1/2
f 15/1/1 55/1/1 56/1/1 47/1/1
f 55/1/4 54/1/4 53/1/4 56/1/4
f 15/1/5 11/1/5 54/1/5 55/1/5
f 23/5/2 57/5/2 58/5/2 25/5/2
f 22/5/1 28/5/1 59/5/1 50/5/1
f 22/5/3 50/5/3 57/5/3 23/5/3
f 50/5/6 59/5/6 58/5/6 57/5/6
f 25/4/2 58/4/2 60/4/2 61/4/2
f 28/4/1 62/4/1 63/4/1 59/4/1
f 62/4/4 61/4/4 60/4/4 63/4/4
f 59/4/6 63/4/6 60/4/6 58/4/6
f 28/4/5 25/4/5 61/4/5 62/4/5
f 64/1/2 65/1/2 66/1/2 30/1/2
f 67/1/1 36/1/1 68/1/1 69/1/1
f 67/1/3 69/1/3 65/1/3 64/1/3
f 67/1/5 64/1/5 30/1/5 36/1/5
f 30/2/2 66/2/2 70/2/2 31/2/2
f 36/2/1 35/2/1 71/2/1 68/2/1
f 35/2/4 31/2/4 70/2/4 71/2/4
f 68/2/6 71/2/6 70/2/6 66/2/6
f 72/4/2 73/4/2 74/4/2 52/4/2
f 75/4/1 76/4/1 77/4/1 78/4/1
f 75/4/3 78/4/3 73/4/3 72/4/3
f 75/4/5 72/4/5 52/4/5 76/4/5
f 79/2/1 80/2/1 81/2/1 82/2/1
f 79/2/3 82/2/3 83/2/3 46/2/3
f 79/2/5 46/2/5 45/2/5 80/2/5
f 41/5/2 84/5/2 85/5/2 47/5/2
f 46/5/3 83/5/3 84/5/3 41/5/3
f 45/5/4 47/5/4 85/5/4 86/5/4
f 76/2/1 87/2/1 88/2/1 77/2/1
f 87/2/4 51/2/4 89/2/4 88/2/4
f 76/2/5 52/2/5 51/2/5 87/2/5
f 49/2/2 90/2/2 91/2/2 50/2/2
f 52/2/3 74/2/3 90/2/3 49/2/3
f 51/2/4 50/2/4 91/2/4 89/2/4
f 45/4/2 86/4/2 92/4/2 93/4/2
f 80/4/1 57/4/1 94/4/1 81/4/1
f 57/4/4 93/4/4 92/4/4 94/4/4
f 80/4/5 45/4/5 93/4/5 57/4/5
f 48/3/2 95/3/2 96/3/2 53/3/2
f 47/3/1 56/3/1 97/3/1 85/3/1
f 47/3/3 85/3/3 95/3/3 48/3/3
f 56/3/4 53/3/4 96/3/4 97/3/4
f 85/3/6 97/3/6 96/3/6 95/3/6
f 98/1/2 99/1/2 100/1/2 101/1/2
f 102/1/1 103/1/1 104/1/1 105/1/1
f 102/1/3 105/1/3 99/1/3 98/1/3
f 103/1/4 101/1/4 100/1/4 104/1/4
f 102/1/5 98/1/5 101/1/5 103/1/5
f 106/2/1 107/2/1 108/2/1 109/2/1
f 106/2/3 109/2/3 110/2/3 69/2/3
f 109/2/6 108/2/6 111/2/6 110/2/6
f 106/2/5 69/2/5 68/2/5 107/2/5
f 65/2/2 112/2/2 113/2/2 66/2/2
f 69/2/3 110/2/3 112/2/3 65/2/3
f 68/2/4 66/2/4 113/2/4 111/2/4
f 68/2/2 111/2/2 114/2/2 71/2/2
f 107/2/1 115/2/1 116/2/1 108/2/1
f 108/2/6 116/2/6 114/2/6 111/2/6
f 107/2/5 68/2/5 71/2/5 115/2/5
f 117/6/2 118/6/2 119/6/2 120/6/2
f 121/6/1 122/6/1 123/6/1 124/6/1
f 121/6/3 124/6/3 118/6/3 117/6/3
f 121/6/5 117/6/5 120/6/5 122/6/5
f 125/5/1 78/5/1 126/5/1 127/5/1
f 125/5/3 127/5/3 116/5/3 115/5/3
f 125/5/5 115/5/5 73/5/5 78/5/5
f 71/2/2 114/2/2 128/2/2 129/2/2
f 116/2/6 130/2/6 128/2/6 114/2/6
f 115/2/5 71/2/5 129/2/5 73/2/5
f 131/1/2 132/1/2 133/1/2 83/1/2
f 70/1/1 82/1/1 134/1/1 135/1/1
f 70/1/3 135/1/3 132/1/3 131/1/3
f 70/1/5 131/1/5 83/1/5 82/1/5
f 120/2/2 119/2/2 136/2/2 137/2/2
f 122/2/1 84/2/1 138/2/1 123/2/1
f 84/2/4 137/2/4 136/2/4 138/2/4
f 123/2/6 138/2/6 136/2/6 119/2/6
f 122/2/5 120/2/5 137/2/5 84/2/5
f 139/2/1 140/2/1 141/2/1 142/2/1
f 139/2/3 142/2/3 143/2/3 144/2/3
f 139/2/5 144/2/5 145/2/5 140/2/5
f 144/2/3 143/2/3 126/2/3 78/2/3
f 144/2/5 78/2/5 77/2/5 145/2/5
f 73/5/5 129/5/5 90/5/5 74/5/5
f 129/5/3 128/5/3 134/5/3 82/5/3
f 129/5/5 82/5/5 81/5/5 90/5/5
f 84/5/2 138/5/2 146/5/2 85/5/2
f 83/5/3 133/5/3 138/5/3 84/5/3
f 140/2/1 147/2/1 148/2/1 141/2/1
f 147/2/4 149/2/4 150/2/4 148/2/4
f 140/2/5 145/2/5 149/2/5 147/2/5
f 149/2/4 88/2/4 151/2/4 150/2/4
f 145/2/5 77/2/5 88/2/5 149/2/5
f 89/2/4 91/2/4 152/2/4 153/2/4
f 91/2/4 94/2/4 154/2/4 152/2/4
f 90/2/5 81/2/5 94/2/5 91/2/5
f 85/5/2 146/5/2 155/5/2 97/5/2
f 86/5/5 85/5/5 97/5/5 92/5/5
f 89/4/2 153/4/2 156/4/2 157/4/2
f 88/4/1 158/4/1 159/4/1 151/4/1
f 158/4/4 157/4/4 156/4/4 159/4/4
f 88/4/5 89/4/5 157/4/5 158/4/5
f 94/2/1 160/2/1 161/2/1 154/2/1
f 160/2/4 162/2/4 163/2/4 161/2/4
f 94/2/5 92/2/5 162/2/5 160/2/5
f 97/3/2 155/3/2 164/3/2 105/3/2
f 165/3/6 163/3/6 164/3/6 155/3/6
f 92/3/5 97/3/5 105/3/5 162/3/5
f 162/5/1 166/5/1 167/5/1 163/5/1
f 166/5/4 104/5/4 168/5/4 167/5/4
f 163/5/6 167/5/6 168/5/6 164/5/6
f 162/5/5 105/5/5 104/5/5 166/5/5
f 99/2/2 169/2/2 170/2/2 100/2/2
f 105/2/3 164/2/3 169/2/3 99/2/3
f 171/3/2 172/3/2 173/3/2 174/3/2
f 175/3/1 176/3/1 177/3/1 178/3/1
f 175/3/3 178/3/3 172/3/3 171/3/3
f 176/3/4 174/3/4 173/3/4 177/3/4
f 175/3/5 171/3/5 174/3/5 176/3/5
f 100/1/2 170/1/2 179/1/2 180/1/2
f 104/1/1 181/1/1 182/1/1 168/1/1
f 181/1/4 180/1/4 179/1/4 182/1/4
f 168/1/6 182/1/6 179/1/6 170/1/6
f 104/1/5 100/1/5 180/1/5 181/1/5
f 112/6/2 183/6/2 184/6/2 113/6/2
f 110/6/1 111/6/1 185/6/1 186/6/1
f 110/6/3 186/6/3 183/6/3 112/6/3
f 111/6/4 113/6/4 184/6/4 185/6/4
f 186/6/6 185/6/6 184/6/6 183/6/6
f 187/6/2 188/6/2 189/6/2 118/6/2
f 190/6/1 124/6/1 191/6/1 192/6/1
f 190/6/3 192/6/3 188/6/3 187/6/3
f 192/6/6 191/6/6 189/6/6 188/6/6
f 190/6/5 187/6/5 118/6/5 124/6/5
f 193/2/1 132/2/1 194/2/1 195/2/1
f 193/2/3 195/2/3 191/2/3 124/2/3
f 195/2/6 194/2/6 196/2/6 191/2/6
f 193/2/5 124/2/5 123/2/5 132/2/5
f 118/2/2 189/2/2 197/2/2 119/2/2
f 123/2/4 119/2/4 197/2/4 196/2/4
f 116/1/2 198/1/2 199/1/2 130/1/2
f 127/1/1 126/1/1 200/1/1 201/1/1
f 127/1/3 201/1/3 198/1/3 116/1/3
f 201/1/6 200/1/6 199/1/6 198/1/6
f 135/2/1 134/2/1 202/2/1 203/2/1
f 135/2/3 203/2/3 194/2/3 132/2/3
f 203/2/6 202/2/6 204/2/6 194/2/6
f 123/2/2 196/2/2 205/2/2 138/2/2
f 194/2/6 204/2/6 205/2/6 196/2/6
f 132/2/5 123/2/5 138/2/5 133/2/5
f 142/5/1 141/5/1 206/5/1 207/5/1
f 142/5/3 207/5/3 208/5/3 143/5/3
f 207/5/6 206/5/6 209/5/6 208/5/6
f 143/5/3 208/5/3 200/5/3 126/5/3
f 208/5/6 209/5/6 210/5/6 200/5/6
f 130/5/3 199/5/3 211/5/3 128/5/3
f 128/5/3 211/5/3 202/5/3 134/5/3
f 211/5/6 212/5/6 213/5/6 202/5/6
f 138/2/2 205/2/2 214/2/2 146/2/2
f 204/2/6 215/2/6 214/2/6 205/2/6
f 141/2/1 148/2/1 216/2/1 206/2/1
f 148/2/4 150/2/4 217/2/4 216/2/4
f 206/2/6 216/2/6 217/2/6 209/2/6
f 150/2/4 151/2/4 218/2/4 217/2/4
f 209/2/6 217/2/6 218/2/6 210/2/6
f 219/5/6 220/5/6 221/5/6 212/5/6
f 152/5/4 154/5/4 222/5/4 221/5/4
f 212/5/6 221/5/6 222/5/6 213/5/6
f 146/5/2 214/5/2 223/5/2 155/5/2
f 165/5/4 155/5/4 223/5/4 224/5/4
f 151/2/1 159/2/1 225/2/1 218/2/1
f 159/2/4 156/2/4 226/2/4 225/2/4
f 218/2/6 225/2/6 226/2/6 220/2/6
f 152/2/2 221/2/2 227/2/2 228/2/2
f 220/2/6 226/2/6 227/2/6 221/2/6
f 153/2/5 152/2/5 228/2/5 156/2/5
f 165/4/2 224/4/2 229/4/2 163/4/2
f 154/4/1 161/4/1 230/4/1 222/4/1
f 161/4/4 163/4/4 229/4/4 230/4/4
f 222/4/6 230/4/6 229/4/6 224/4/6
f 231/2/2 232/2/2 233/2/2 169/2/2
f 155/2/1 164/2/1 234/2/1 223/2/1
f 155/2/3 223/2/3 232/2/3 231/2/3
f 223/2/6 234/2/6 233/2/6 232/2/6
f 155/2/5 231/2/5 169/2/5 164/2/5
f 228/2/2 227/2/2 235/2/2 178/2/2
f 156/2/1 236/2/1 237/2/1 226/2/1
f 226/2/6 237/2/6 235/2/6 227/2/6
f 156/2/5 228/2/5 178/2/5 236/2/5
f 169/1/2 233/1/2 238/1/2 170/1/2
f 164/1/1 168/1/1 239/1/1 234/1/1
f 168/1/4 170/1/4 238/1/4 239/1/4
f 234/1/6 239/1/6 238/1/6 233/1/6
f 236/2/1 240/2/1 241/2/1 237/2/1
f 240/2/4 177/2/4 242/2/4 241/2/4
f 237/2/6 241/2/6 242/2/6 235/2/6
f 236/2/5 178/2/5 177/2/5 240/2/5
f 172/5/2 243/5/2 244/5/2 173/5/2
f 178/5/3 235/5/3 243/5/3 172/5/3
f 177/5/4 173/5/4 244/5/4 242/5/4
f 189/6/2 245/6/2 246/6/2 197/6/2
f 191/6/1 196/6/1 247/6/1 248/6/1
f 191/6/3 248/6/3 245/6/3 189/6/3
f 196/6/4 197/6/4 246/6/4 247/6/4
f 248/6/6 247/6/6 246/6/6 245/6/6
f 200/5/1 210/5/1 249/5/1 250/5/1
f 200/5/3 250/5/3 251/5/3 199/5/3
f 250/5/6 249/5/6 252/5/6 251/5/6
f 211/2/2 253/2/2 254/2/2 212/2/2
f 199/2/3 251/2/3 253/2/3 211/2/3
f 219/2/4 212/2/4 254/2/4 252/2/4
f 204/1/2 255/1/2 256/1/2 215/1/2
f 202/1/1 213/1/1 257/1/1 258/1/1
f 202/1/3 258/1/3 255/1/3 204/1/3
f 258/1/6 257/1/6 256/1/6 255/1/6
f 259/2/2 260/2/2 261/2/2 262/2/2
f 205/2/1 214/2/1 263/2/1 264/2/1
f 205/2/3 264/2/3 260/2/3 259/2/3
f 214/2/4 262/2/4 261/2/4 263/2/4
f 205/2/5 259/2/5 262/2/5 214/2/5
f 219/4/2 252/4/2 265/4/2 220/4/2
f 210/4/1 218/4/1 266/4/1 249/4/1
f 218/4/4 220/4/4 265/4/4 266/4/4
f 249/4/6 266/4/6 265/4/6 252/4/6
f 213/5/1 222/5/1 267/5/1 257/5/1
f 222/5/4 224/5/4 268/5/4 267/5/4
f 257/5/6 267/5/6 268/5/6 256/5/6
f 214/5/2 263/5/2 269/5/2 223/5/2
f 215/5/3 256/5/3 263/5/3 214/5/3
f 224/5/4 223/5/4 269/5/4 268/5/4
f 230/5/2 270/5/2 271/5/2 243/5/2
f 227/5/1 235/5/1 272/5/1 273/5/1
f 227/5/3 273/5/3 270/5/3 230/5/3
f 227/5/5 230/5/5 243/5/5 235/5/5
f 243/1/2 271/1/2 274/1/2 244/1/2
f 235/1/1 242/1/1 275/1/1 272/1/1
f 242/1/4 244/1/4 274/1/4 275/1/4
f 272/1/6 275/1/6 274/1/6 271/1/6
f 276/3/2 277/3/2 278/3/2 279/3/2
f 280/3/1 281/3/1 282/3/1 283/3/1
f 280/3/3 283/3/3 277/3/3 276/3/3
f 283/3/6 282/3/6 278/3/6 277/3/6
f 280/3/5 276/3/5 279/3/5 281/3/5
f 279/2/2 278/2/2 284/2/2 258/2/2
f 281/2/1 253/2/1 285/2/1 282/2/1
f 253/2/4 258/2/4 284/2/4 285/2/4
f 281/2/5 279/2/5 258/2/5 253/2/5
f 253/2/2 285/2/2 286/2/2 254/2/2
f 251/2/1 252/2/1 287/2/1 288/2/1
f 251/2/3 288/2/3 285/2/3 253/2/3
f 252/2/4 254/2/4 286/2/4 287/2/4
f 260/6/2 289/6/2 290/6/2 261/6/2
f 264/6/1 263/6/1 291/6/1 292/6/1
f 264/6/3 292/6/3 289/6/3 260/6/3
f 292/6/6 291/6/6 290/6/6 289/6/6
f 256/2/1 268/2/1 293/2/1 294/2/1
f 256/2/3 294/2/3 291/2/3 263/2/3
f 268/2/4 269/2/4 295/2/4 293/2/4
f 294/2/6 293/2/6 295/2/6 291/2/6
f 261/2/2 290/2/2 296/2/2 297/2/2
f 263/2/5 261/2/5 297/2/5 269/2/5
f 297/1/2 296/1/2 298/1/2 299/1/2
f 269/1/1 300/1/1 301/1/1 295/1/1
f 300/1/4 299/1/4 298/1/4 301/1/4
f 295/1/6 301/1/6 298/1/6 296/1/6
f 269/1/5 297/1/5 299/1/5 300/1/5
f 270/1/2 302/1/2 303/1/2 271/1/2
f 273/1/1 272/1/1 304/1/1 305/1/1
f 273/1/3 305/1/3 302/1/3 270/1/3
f 272/1/4 271/1/4 303/1/4 304/1/4
f 305/1/6 304/1/6 303/1/6 302/1/6
f 278/6/2 306/6/2 307/6/2 284/6/2
f 282/6/1 285/6/1 308/6/1 309/6/1
f 282/6/3 309/6/3 306/6/3 278/6/3
f 309/6/6 308/6/6 307/6/6 306/6/6
f 288/2/1 287/2/1 310/2/1 311/2/1
f 288/2/3 311/2/3 308/2/3 285/2/3
f 287/2/4 286/2/4 312/2/4 310/2/4
f 311/2/6 310/2/6 312/2/6 308/2/6
f 284/2/2 307/2/2 313/2/2 314/2/2
f 308/2/6 312/2/6 313/2/6 307/2/6
f 285/2/5 284/2/5 314/2/5 286/2/5
f 314/3/2 313/3/2 315/3/2 316/3/2
f 286/3/1 317/3/1 318/3/1 312/3/1
f 317/3/4 316/3/4 315/3/4 318/3/4
f 312/3/6 318/3/6 315/3/6 313/3/6
f 286/3/5 314/3/5 316/3/5 317/3/5
f 290/6/2 319/6/2 320/6/2 296/6/2
f 291/6/1 295/6/1 321/6/1 322/6/1
f 291/6/3 322/6/3 319/6/3 290/6/3
f 295/6/4 296/6/4 320/6/4 321/6/4
f 322/6/6 321/6/6 320/6/6 319/6/6
