mtllib Sietecueros_Fabian_Andres_Cetina_Rabon_fase_2.mtl
o Sietecueros_Fabian_Andres_Cetina_Rabon_fase_2
v -4.0000 1.0000 1.0000
v -3.0000 1.0000 1.0000
v -3.0000 1.0000 -0.0000
v -4.0000 1.0000 -0.0000
v -4.0000 0.0000 1.0000
v -4.0000 0.0000 -0.0000
v -3.0000 0.0000 -0.0000
v -3.0000 0.0000 1.0000
v -4.0000 4.0000 1.0000
v -3.0000 4.0000 1.0000
v -3.0000 4.0000 -0.0000
v -4.0000 4.0000 -0.0000
v -4.0000 3.0000 1.0000
v -4.0000 3.0000 -0.0000
v -3.0000 3.0000 -0.0000
v -3.0000 3.0000 1.0000
v -4.0000 -1.0000 -0.0000
v -4.0000 -1.0000 -1.0000
v -3.0000 -1.0000 -1.0000
v -3.0000 -1.0000 -0.0000
v -4.0000 0.0000 -1.0000
v -3.0000 0.0000 -1.0000
v -3.0000 1.0000 -1.0000
v -4.0000 1.0000 -1.0000
v -3.0000 1.0000 -2.0000
v -4.0000 1.0000 -2.0000
v -4.0000 0.0000 -2.0000
v -3.0000 0.0000 -2.0000
v -3.0000 1.0000 3.0000
v -2.0000 1.0000 3.0000
v -2.0000 1.0000 2.0000
v -3.0000 1.0000 2.0000
v -3.0000 0.0000 3.0000
v -3.0000 0.0000 2.0000
v -2.0000 0.0000 2.0000
v -2.0000 0.0000 3.0000
v -3.0000 4.0000 2.0000
v -2.0000 4.0000 2.0000
v -2.0000 4.0000 1.0000
v -3.0000 3.0000 2.0000
v -2.0000 3.0000 1.0000
v -2.0000 3.0000 2.0000
v -3.0000 2.0000 1.0000
v -3.0000 2.0000 -0.0000
v -2.0000 2.0000 -0.0000
v -2.0000 2.0000 1.0000
v -2.0000 3.0000 -0.0000
v -2.0000 4.0000 -0.0000
v -2.0000 0.0000 -0.0000
v -2.0000 0.0000 -1.0000
v -2.0000 -1.0000 -1.0000
v -2.0000 -1.0000 -0.0000
v -2.0000 4.0000 -1.0000
v -3.0000 4.0000 -1.0000
v -3.0000 3.0000 -1.0000
v -2.0000 3.0000 -1.0000
v -2.0000 1.0000 -1.0000
v -2.0000 1.0000 -2.0000
v -2.0000 0.0000 -2.0000
v -2.0000 1.0000 -3.0000
v -3.0000 1.0000 -3.0000
v -3.0000 0.0000 -3.0000
v -2.0000 0.0000 -3.0000
v -2.0000 1.0000 4.0000
v -1.0000 1.0000 4.0000
v -1.0000 1.0000 3.0000
v -2.0000 0.0000 4.0000
v -1.0000 0.0000 3.0000
v -1.0000 0.0000 4.0000
v -1.0000 1.0000 2.0000
v -1.0000 0.0000 2.0000
v -2.0000 -1.0000 1.0000
v -1.0000 -1.0000 1.0000
v -1.0000 -1.0000 -0.0000
v -2.0000 -2.0000 1.0000
v -2.0000 -2.0000 -0.0000
v -1.0000 -2.0000 -0.0000
v -1.0000 -2.0000 1.0000
v -2.0000 1.0000 1.0000
v -2.0000 1.0000 -0.0000
v -1.0000 1.0000 -0.0000
v -1.0000 1.0000 1.0000
v -1.0000 2.0000 1.0000
v -1.0000 3.0000 1.0000
v -1.0000 3.0000 -0.0000
v -1.0000 2.0000 -0.0000
v -2.0000 -2.0000 -1.0000
v -1.0000 -2.0000 -1.0000
v -1.0000 -1.0000 -1.0000
v -1.0000 0.0000 -0.0000
v -1.0000 0.0000 -1.0000
v -1.0000 2.0000 -1.0000
v -2.0000 2.0000 -1.0000
v -1.0000 1.0000 -1.0000
v -1.0000 4.0000 -0.0000
v -1.0000 4.0000 -1.0000
v -1.0000 3.0000 -1.0000
v -2.0000 4.0000 -2.0000
v -1.0000 4.0000 -2.0000
v -1.0000 4.0000 -3.0000
v -2.0000 4.0000 -3.0000
v -2.0000 3.0000 -2.0000
v -2.0000 3.0000 -3.0000
v -1.0000 3.0000 -3.0000
v -1.0000 3.0000 -2.0000
v -1.0000 -1.0000 4.0000
v -1.0000 -1.0000 3.0000
v 0.0000 -1.0000 3.0000
v 0.0000 -1.0000 4.0000
v 0.0000 0.0000 4.0000
v 0.0000 0.0000 3.0000
v 0.0000 1.0000 4.0000
v 0.0000 1.0000 3.0000
v 0.0000 0.0000 2.0000
v -1.0000 -1.0000 2.0000
v 0.0000 -1.0000 2.0000
v -1.0000 4.0000 3.0000
v 0.0000 4.0000 3.0000
v 0.0000 4.0000 2.0000
v -1.0000 4.0000 2.0000
v -1.0000 3.0000 3.0000
v -1.0000 3.0000 2.0000
v 0.0000 3.0000 2.0000
v 0.0000 3.0000 3.0000
v -1.0000 -2.0000 2.0000
v 0.0000 -2.0000 1.0000
v 0.0000 -2.0000 2.0000
v 0.0000 0.0000 1.0000
v -1.0000 0.0000 1.0000
v 0.0000 -1.0000 1.0000
v -1.0000 2.0000 2.0000
v 0.0000 2.0000 2.0000
v 0.0000 2.0000 1.0000
v 0.0000 1.0000 1.0000
v 0.0000 1.0000 2.0000
v 0.0000 4.0000 1.0000
v -1.0000 4.0000 1.0000
v 0.0000 3.0000 1.0000
v -1.0000 -4.0000 1.0000
v -1.0000 -4.0000 -0.0000
v 0.0000 -4.0000 -0.0000
v 0.0000 -4.0000 1.0000
v 0.0000 -3.0000 1.0000
v -1.0000 -3.0000 1.0000
v -1.0000 -3.0000 -0.0000
v 0.0000 3.0000 -0.0000
v -1.0000 -4.0000 -1.0000
v 0.0000 -4.0000 -1.0000
v -1.0000 -3.0000 -1.0000
v 0.0000 -3.0000 -1.0000
v 0.0000 -2.0000 -1.0000
v 0.0000 0.0000 -1.0000
v 0.0000 -1.0000 -1.0000
v 0.0000 1.0000 -1.0000
v 0.0000 3.0000 -1.0000
v 0.0000 -1.0000 -2.0000
v -1.0000 -1.0000 -2.0000
v -1.0000 -2.0000 -2.0000
v 0.0000 -2.0000 -2.0000
v -1.0000 1.0000 -2.0000
v 0.0000 1.0000 -2.0000
v -1.0000 2.0000 -2.0000
v 0.0000 2.0000 -2.0000
v 0.0000 3.0000 -2.0000
v 0.0000 2.0000 -1.0000
v -1.0000 2.0000 -3.0000
v 0.0000 2.0000 -3.0000
v 0.0000 3.0000 -3.0000
v 0.0000 4.0000 -2.0000
v 0.0000 4.0000 -3.0000
v -1.0000 1.0000 -3.0000
v 0.0000 1.0000 -3.0000
v 0.0000 1.0000 -4.0000
v -1.0000 1.0000 -4.0000
v -1.0000 0.0000 -3.0000
v -1.0000 0.0000 -4.0000
v 0.0000 0.0000 -4.0000
v 0.0000 0.0000 -3.0000
v 0.0000 4.0000 -4.0000
v -1.0000 4.0000 -4.0000
v -1.0000 3.0000 -4.0000
v 0.0000 3.0000 -4.0000
v 1.0000 1.0000 4.0000
v 1.0000 1.0000 3.0000
v 1.0000 0.0000 3.0000
v 1.0000 0.0000 4.0000
v 0.0000 4.0000 4.0000
v 1.0000 4.0000 4.0000
v 1.0000 4.0000 3.0000
v 0.0000 3.0000 4.0000
v 1.0000 3.0000 3.0000
v 1.0000 3.0000 4.0000
v 0.0000 2.0000 3.0000
v 1.0000 2.0000 2.0000
v 1.0000 2.0000 3.0000
v 1.0000 3.0000 2.0000
v 1.0000 4.0000 2.0000
v 1.0000 -1.0000 2.0000
v 1.0000 -1.0000 1.0000
v 1.0000 -2.0000 1.0000
v 1.0000 -2.0000 2.0000
v 1.0000 1.0000 1.0000
v 1.0000 1.0000 2.0000
v 1.0000 2.0000 1.0000
v 1.0000 3.0000 1.0000
v 1.0000 -4.0000 -0.0000
v 1.0000 -4.0000 1.0000
v 1.0000 -3.0000 1.0000
v 1.0000 -3.0000 -0.0000
v 1.0000 -2.0000 -0.0000
v 1.0000 0.0000 1.0000
v 1.0000 0.0000 -0.0000
v 1.0000 1.0000 -0.0000
v 1.0000 3.0000 -0.0000
v 1.0000 2.0000 -0.0000
v 1.0000 -4.0000 -1.0000
v 1.0000 -3.0000 -1.0000
v 1.0000 -2.0000 -1.0000
v 1.0000 -1.0000 -0.0000
v 1.0000 -1.0000 -1.0000
v 1.0000 0.0000 -1.0000
v 1.0000 1.0000 -1.0000
v 1.0000 3.0000 -1.0000
v 1.0000 2.0000 -1.0000
v 1.0000 -2.0000 -2.0000
v 1.0000 -1.0000 -2.0000
v 1.0000 0.0000 -2.0000
v 0.0000 0.0000 -2.0000
v 1.0000 2.0000 -2.0000
v 1.0000 1.0000 -2.0000
v 0.0000 4.0000 -1.0000
v 1.0000 4.0000 -1.0000
v 1.0000 4.0000 -2.0000
v 1.0000 3.0000 -2.0000
v 1.0000 0.0000 -3.0000
v 0.0000 -1.0000 -3.0000
v 1.0000 -1.0000 -3.0000
v 1.0000 4.0000 -3.0000
v 1.0000 3.0000 -3.0000
v 0.0000 -1.0000 -4.0000
v 1.0000 -1.0000 -4.0000
v 1.0000 0.0000 -4.0000
v 1.0000 1.0000 -3.0000
v 1.0000 1.0000 -4.0000
v 2.0000 4.0000 3.0000
v 2.0000 4.0000 2.0000
v 2.0000 3.0000 2.0000
v 2.0000 3.0000 3.0000
v 2.0000 -2.0000 -0.0000
v 2.0000 -2.0000 1.0000
v 2.0000 -1.0000 1.0000
v 2.0000 -1.0000 -0.0000
v 2.0000 0.0000 1.0000
v 2.0000 0.0000 -0.0000
v 2.0000 2.0000 1.0000
v 2.0000 2.0000 -0.0000
v 2.0000 1.0000 -0.0000
v 2.0000 1.0000 1.0000
v 1.0000 4.0000 1.0000
v 2.0000 4.0000 1.0000
v 2.0000 4.0000 -0.0000
v 1.0000 4.0000 -0.0000
v 2.0000 3.0000 -0.0000
v 2.0000 3.0000 1.0000
v 2.0000 -1.0000 -1.0000
v 2.0000 -2.0000 -1.0000
v 2.0000 1.0000 -1.0000
v 2.0000 2.0000 -1.0000
v 2.0000 3.0000 -1.0000
v 2.0000 1.0000 -2.0000
v 2.0000 1.0000 -3.0000
v 2.0000 0.0000 -3.0000
v 2.0000 0.0000 -2.0000
v 2.0000 1.0000 -4.0000
v 2.0000 0.0000 -4.0000
v 2.0000 1.0000 3.0000
v 3.0000 1.0000 3.0000
v 3.0000 1.0000 2.0000
v 2.0000 1.0000 2.0000
v 2.0000 0.0000 3.0000
v 2.0000 0.0000 2.0000
v 3.0000 0.0000 2.0000
v 3.0000 0.0000 3.0000
v 3.0000 1.0000 1.0000
v 3.0000 0.0000 1.0000
v 3.0000 0.0000 -0.0000
v 3.0000 -1.0000 -0.0000
v 3.0000 -1.0000 1.0000
v 3.0000 4.0000 1.0000
v 3.0000 4.0000 -0.0000
v 3.0000 3.0000 -0.0000
v 3.0000 3.0000 1.0000
v 3.0000 2.0000 -1.0000
v 3.0000 2.0000 -0.0000
v 3.0000 3.0000 -1.0000
v 3.0000 4.0000 -1.0000
v 2.0000 4.0000 -1.0000
v 3.0000 4.0000 -2.0000
v 2.0000 4.0000 -2.0000
v 2.0000 3.0000 -2.0000
v 3.0000 3.0000 -2.0000
v 3.0000 1.0000 -2.0000
v 3.0000 1.0000 -3.0000
v 3.0000 0.0000 -3.0000
v 3.0000 0.0000 -2.0000
v 4.0000 1.0000 2.0000
v 4.0000 1.0000 1.0000
v 4.0000 0.0000 1.0000
v 4.0000 0.0000 2.0000
v 4.0000 -1.0000 -0.0000
v 4.0000 -1.0000 1.0000
v 4.0000 0.0000 -0.0000
v 4.0000 1.0000 -0.0000
v 3.0000 1.0000 -0.0000
v 4.0000 1.0000 -1.0000
v 3.0000 1.0000 -1.0000
v 3.0000 0.0000 -1.0000
v 4.0000 0.0000 -1.0000
v 4.0000 4.0000 -0.0000
v 4.0000 4.0000 -1.0000
v 4.0000 3.0000 -1.0000
v 4.0000 3.0000 -0.0000
vt 0.001953 0.500000
vt 0.005859 0.500000
vt 0.009766 0.500000
vn 0.0 -1.0 0.0
vn 0.0 1.0 0.0
vn 0.0 0.0 1.0
vn 0.0 0.0 -1.0
vn -1.0 0.0 0.0
vn 1.0 0.0 0.0
usemtl mat_Sietecueros_Fabian_Andres_Cetina_Rabon_fase_2
s off
f 1/1/2 2/1/2 3/1/2 4/1/2
f 5/1/1 6/1/1 7/1/1 8/1/1
f 5/1/3 8/1/3 2/1/3 1/1/3
f 8/1/6 7/1/6 3/1/6 2/1/6
f 5/1/5 1/1/5 4/1/5 6/1/5
f 9/1/2 10/1/2 11/1/2 12/1/2
f 13/1/1 14/1/1 15/1/1 16/1/1
f 13/1/3 16/1/3 10/1/3 9/1/3
f 14/1/4 12/1/4 11/1/4 15/1/4
f 13/1/5 9/1/5 12/1/5 14/1/5
f 17/2/1 18/2/1 19/2/1 20/2/1
f 17/2/3 20/2/3 7/2/3 6/2/3
f 18/2/4 21/2/4 22/2/4 19/2/4
f 17/2/5 6/2/5 21/2/5 18/2/5
f 4/3/2 3/3/2 23/3/2 24/3/2
f 7/3/6 22/3/6 23/3/6 3/3/6
f 6/3/5 4/3/5 24/3/5 21/3/5
f 24/1/2 23/1/2 25/1/2 26/1/2
f 21/1/1 27/1/1 28/1/1 22/1/1
f 27/1/4 26/1/4 25/1/4 28/1/4
f 21/1/5 24/1/5 26/1/5 27/1/5
f 29/1/2 30/1/2 31/1/2 32/1/2
f 33/1/1 34/1/1 35/1/1 36/1/1
f 33/1/3 36/1/3 30/1/3 29/1/3
f 34/1/4 32/1/4 31/1/4 35/1/4
f 33/1/5 29/1/5 32/1/5 34/1/5
f 37/1/2 38/1/2 39/1/2 10/1/2
f 40/1/1 16/1/1 41/1/1 42/1/1
f 40/1/3 42/1/3 38/1/3 37/1/3
f 42/1/6 41/1/6 39/1/6 38/1/6
f 40/1/5 37/1/5 10/1/5 16/1/5
f 43/3/1 44/3/1 45/3/1 46/3/1
f 43/3/3 46/3/3 41/3/3 16/3/3
f 44/3/4 15/3/4 47/3/4 45/3/4
f 43/3/5 16/3/5 15/3/5 44/3/5
f 10/1/2 39/1/2 48/1/2 11/1/2
f 41/1/6 47/1/6 48/1/6 39/1/6
f 7/2/2 49/2/2 50/2/2 22/2/2
f 20/2/1 19/2/1 51/2/1 52/2/1
f 20/2/3 52/2/3 49/2/3 7/2/3
f 19/2/4 22/2/4 50/2/4 51/2/4
f 11/1/2 48/1/2 53/1/2 54/1/2
f 15/1/1 55/1/1 56/1/1 47/1/1
f 55/1/4 54/1/4 53/1/4 56/1/4
f 15/1/5 11/1/5 54/1/5 55/1/5
f 23/3/2 57/3/2 58/3/2 25/3/2
f 22/3/1 28/3/1 59/3/1 50/3/1
f 22/3/3 50/3/3 57/3/3 23/3/3
f 50/3/6 59/3/6 58/3/6 57/3/6
f 25/1/2 58/1/2 60/1/2 61/1/2
f 28/1/1 62/1/1 63/1/1 59/1/1
f 62/1/4 61/1/4 60/1/4 63/1/4
f 59/1/6 63/1/6 60/1/6 58/1/6
f 28/1/5 25/1/5 61/1/5 62/1/5
f 64/1/2 65/1/2 66/1/2 30/1/2
f 67/1/1 36/1/1 68/1/1 69/1/1
f 67/1/3 69/1/3 65/1/3 64/1/3
f 67/1/5 64/1/5 30/1/5 36/1/5
f 30/1/2 66/1/2 70/1/2 31/1/2
f 36/1/1 35/1/1 71/1/1 68/1/1
f 35/1/4 31/1/4 70/1/4 71/1/4
f 68/1/6 71/1/6 70/1/6 66/1/6
f 72/1/2 73/1/2 74/1/2 52/1/2
f 75/1/1 76/1/1 77/1/1 78/1/1
f 75/1/3 78/1/3 73/1/3 72/1/3
f 75/1/5 72/1/5 52/1/5 76/1/5
f 79/2/1 80/2/1 81/2/1 82/2/1
f 79/2/3 82/2/3 83/2/3 46/2/3
f 79/2/5 46/2/5 45/2/5 80/2/5
f 41/3/2 84/3/2 85/3/2 47/3/2
f 46/3/3 83/3/3 84/3/3 41/3/3
f 45/3/4 47/3/4 85/3/4 86/3/4
f 76/2/1 87/2/1 88/2/1 77/2/1
f 87/2/4 51/2/4 89/2/4 88/2/4
f 76/2/5 52/2/5 51/2/5 87/2/5
f 49/2/2 90/2/2 91/2/2 50/2/2
f 52/2/3 74/2/3 90/2/3 49/2/3
f 51/2/4 50/2/4 91/2/4 89/2/4
f 45/1/2 86/1/2 92/1/2 93/1/2
f 80/1/1 57/1/1 94/1/1 81/1/1
f 57/1/4 93/1/4 92/1/4 94/1/4
f 80/1/5 45/1/5 93/1/5 57/1/5
f 48/1/2 95/1/2 96/1/2 53/1/2
f 47/1/1 56/1/1 97/1/1 85/1/1
f 47/1/3 85/1/3 95/1/3 48/1/3
f 56/1/4 53/1/4 96/1/4 97/1/4
f 85/1/6 97/1/6 96/1/6 95/1/6
f 98/1/2 99/1/2 100/1/2 101/1/2
f 102/1/1 103/1/1 104/1/1 105/1/1
f 102/1/3 105/1/3 99/1/3 98/1/3
f 103/1/4 101/1/4 100/1/4 104/1/4
f 102/1/5 98/1/5 101/1/5 103/1/5
f 106/1/1 107/1/1 108/1/1 109/1/1
f 106/1/3 109/1/3 110/1/3 69/1/3
f 109/1/6 108/1/6 111/1/6 110/1/6
f 106/1/5 69/1/5 68/1/5 107/1/5
f 65/1/2 112/1/2 113/1/2 66/1/2
f 69/1/3 110/1/3 112/1/3 65/1/3
f 68/1/4 66/1/4 113/1/4 111/1/4
f 68/1/2 111/1/2 114/1/2 71/1/2
f 107/1/1 115/1/1 116/1/1 108/1/1
f 108/1/6 116/1/6 114/1/6 111/1/6
f 107/1/5 68/1/5 71/1/5 115/1/5
f 117/1/2 118/1/2 119/1/2 120/1/2
f 121/1/1 122/1/1 123/1/1 124/1/1
f 121/1/3 124/1/3 118/1/3 117/1/3
f 121/1/5 117/1/5 120/1/5 122/1/5
f 125/3/1 78/3/1 126/3/1 127/3/1
f 125/3/3 127/3/3 116/3/3 115/3/3
f 125/3/5 115/3/5 73/3/5 78/3/5
f 71/1/2 114/1/2 128/1/2 129/1/2
f 116/1/6 130/1/6 128/1/6 114/1/6
f 115/1/5 71/1/5 129/1/5 73/1/5
f 131/1/2 132/1/2 133/1/2 83/1/2
f 70/1/1 82/1/1 134/1/1 135/1/1
f 70/1/3 135/1/3 132/1/3 131/1/3
f 70/1/5 131/1/5 83/1/5 82/1/5
f 120/1/2 119/1/2 136/1/2 137/1/2
f 122/1/1 84/1/1 138/1/1 123/1/1
f 84/1/4 137/1/4 136/1/4 138/1/4
f 123/1/6 138/1/6 136/1/6 119/1/6
f 122/1/5 120/1/5 137/1/5 84/1/5
f 139/2/1 140/2/1 141/2/1 142/2/1
f 139/2/3 142/2/3 143/2/3 144/2/3
f 139/2/5 144/2/5 145/2/5 140/2/5
f 144/2/3 143/2/3 126/2/3 78/2/3
f 144/2/5 78/2/5 77/2/5 145/2/5
f 73/3/5 129/3/5 90/3/5 74/3/5
f 129/3/3 128/3/3 134/3/3 82/3/3
f 129/3/5 82/3/5 81/3/5 90/3/5
f 84/3/2 138/3/2 146/3/2 85/3/2
f 83/3/3 133/3/3 138/3/3 84/3/3
f 140/2/1 147/2/1 148/2/1 141/2/1
f 147/2/4 149/2/4 150/2/4 148/2/4
f 140/2/5 145/2/5 149/2/5 147/2/5
f 149/2/4 88/2/4 151/2/4 150/2/4
f 145/2/5 77/2/5 88/2/5 149/2/5
f 89/2/4 91/2/4 152/2/4 153/2/4
f 91/2/4 94/2/4 154/2/4 152/2/4
f 90/2/5 81/2/5 94/2/5 91/2/5
f 85/3/2 146/3/2 155/3/2 97/3/2
f 86/3/5 85/3/5 97/3/5 92/3/5
f 89/1/2 153/1/2 156/1/2 157/1/2
f 88/1/1 158/1/1 159/1/1 151/1/1
f 158/1/4 157/1/4 156/1/4 159/1/4
f 88/1/5 89/1/5 157/1/5 158/1/5
f 94/2/1 160/2/1 161/2/1 154/2/1
f 160/2/4 162/2/4 163/2/4 161/2/4
f 94/2/5 92/2/5 162/2/5 160/2/5
f 97/3/2 155/3/2 164/3/2 105/3/2
f 165/3/6 163/3/6 164/3/6 155/3/6
f 92/3/5 97/3/5 105/3/5 162/3/5
f 162/3/1 166/3/1 167/3/1 163/3/1
f 166/3/4 104/3/4 168/3/4 167/3/4
f 163/3/6 167/3/6 168/3/6 164/3/6
f 162/3/5 105/3/5 104/3/5 166/3/5
f 99/1/2 169/1/2 170/1/2 100/1/2
f 105/1/3 164/1/3 169/1/3 99/1/3
f 171/1/2 172/1/2 173/1/2 174/1/2
f 175/1/1 176/1/1 177/1/1 178/1/1
f 175/1/3 178/1/3 172/1/3 171/1/3
f 176/1/4 174/1/4 173/1/4 177/1/4
f 175/1/5 171/1/5 174/1/5 176/1/5
f 100/1/2 170/1/2 179/1/2 180/1/2
f 104/1/1 181/1/1 182/1/1 168/1/1
f 181/1/4 180/1/4 179/1/4 182/1/4
f 168/1/6 182/1/6 179/1/6 170/1/6
f 104/1/5 100/1/5 180/1/5 181/1/5
f 112/1/2 183/1/2 184/1/2 113/1/2
f 110/1/1 111/1/1 185/1/1 186/1/1
f 110/1/3 186/1/3 183/1/3 112/1/3
f 111/1/4 113/1/4 184/1/4 185/1/4
f 186/1/6 185/1/6 184/1/6 183/1/6
f 187/1/2 188/1/2 189/1/2 118/1/2
f 190/1/1 124/1/1 191/1/1 192/1/1
f 190/1/3 192/1/3 188/1/3 187/1/3
f 192/1/6 191/1/6 189/1/6 188/1/6
f 190/1/5 187/1/5 118/1/5 124/1/5
f 193/1/1 132/1/1 194/1/1 195/1/1
f 193/1/3 195/1/3 191/1/3 124/1/3
f 195/1/6 194/1/6 196/1/6 191/1/6
f 193/1/5 124/1/5 123/1/5 132/1/5
f 118/1/2 189/1/2 197/1/2 119/1/2
f 123/1/4 119/1/4 197/1/4 196/1/4
f 116/1/2 198/1/2 199/1/2 130/1/2
f 127/1/1 126/1/1 200/1/1 201/1/1
f 127/1/3 201/1/3 198/1/3 116/1/3
f 201/1/6 200/1/6 199/1/6 198/1/6
f 135/1/1 134/1/1 202/1/1 203/1/1
f 135/1/3 203/1/3 194/1/3 132/1/3
f 203/1/6 202/1/6 204/1/6 194/1/6
f 123/1/2 196/1/2 205/1/2 138/1/2
f 194/1/6 204/1/6 205/1/6 196/1/6
f 132/1/5 123/1/5 138/1/5 133/1/5
f 142/3/1 141/3/1 206/3/1 207/3/1
f 142/3/3 207/3/3 208/3/3 143/3/3
f 207/3/6 206/3/6 209/3/6 208/3/6
f 143/3/3 208/3/3 200/3/3 126/3/3
f 208/3/6 209/3/6 210/3/6 200/3/6
f 130/3/3 199/3/3 211/3/3 128/3/3
f 128/3/3 211/3/3 202/3/3 134/3/3
f 211/3/6 212/3/6 213/3/6 202/3/6
f 138/1/2 205/1/2 214/1/2 146/1/2
f 204/1/6 215/1/6 214/1/6 205/1/6
f 141/2/1 148/2/1 216/2/1 206/2/1
f 148/2/4 150/2/4 217/2/4 216/2/4
f 206/2/6 216/2/6 217/2/6 209/2/6
f 150/2/4 151/2/4 218/2/4 217/2/4
f 209/2/6 217/2/6 218/2/6 210/2/6
f 219/3/6 220/3/6 221/3/6 212/3/6
f 152/3/4 154/3/4 222/3/4 221/3/4
f 212/3/6 221/3/6 222/3/6 213/3/6
f 146/3/2 214/3/2 223/3/2 155/3/2
f 165/3/4 155/3/4 223/3/4 224/3/4
f 151/2/1 159/2/1 225/2/1 218/2/1
f 159/2/4 156/2/4 226/2/4 225/2/4
f 218/2/6 225/2/6 226/2/6 220/2/6
f 152/2/2 221/2/2 227/2/2 228/2/2
f 220/2/6 226/2/6 227/2/6 221/2/6
f 153/2/5 152/2/5 228/2/5 156/2/5
f 165/1/2 224/1/2 229/1/2 163/1/2
f 154/1/1 161/1/1 230/1/1 222/1/1
f 161/1/4 163/1/4 229/1/4 230/1/4
f 222/1/6 230/1/6 229/1/6 224/1/6
f 231/1/2 232/1/2 233/1/2 169/1/2
f 155/1/1 164/1/1 234/1/1 223/1/1
f 155/1/3 223/1/3 232/1/3 231/1/3
f 223/1/6 234/1/6 233/1/6 232/1/6
f 155/1/5 231/1/5 169/1/5 164/1/5
f 228/2/2 227/2/2 235/2/2 178/2/2
f 156/2/1 236/2/1 237/2/1 226/2/1
f 226/2/6 237/2/6 235/2/6 227/2/6
f 156/2/5 228/2/5 178/2/5 236/2/5
f 169/1/2 233/1/2 238/1/2 170/1/2
f 164/1/1 168/1/1 239/1/1 234/1/1
f 168/1/4 170/1/4 238/1/4 239/1/4
f 234/1/6 239/1/6 238/1/6 233/1/6
f 236/2/1 240/2/1 241/2/1 237/2/1
f 240/2/4 177/2/4 242/2/4 241/2/4
f 237/2/6 241/2/6 242/2/6 235/2/6
f 236/2/5 178/2/5 177/2/5 240/2/5
f 172/3/2 243/3/2 244/3/2 173/3/2
f 178/3/3 235/3/3 243/3/3 172/3/3
f 177/3/4 173/3/4 244/3/4 242/3/4
f 189/1/2 245/1/2 246/1/2 197/1/2
f 191/1/1 196/1/1 247/1/1 248/1/1
f 191/1/3 248/1/3 245/1/3 189/1/3
f 196/1/4 197/1/4 246/1/4 247/1/4
f 248/1/6 247/1/6 246/1/6 245/1/6
f 200/3/1 210/3/1 249/3/1 250/3/1
f 200/3/3 250/3/3 251/3/3 199/3/3
f 250/3/6 249/3/6 252/3/6 251/3/6
f 211/1/2 253/1/2 254/1/2 212/1/2
f 199/1/3 251/1/3 253/1/3 211/1/3
f 219/1/4 212/1/4 254/1/4 252/1/4
f 204/1/2 255/1/2 256/1/2 215/1/2
f 202/1/1 213/1/1 257/1/1 258/1/1
f 202/1/3 258/1/3 255/1/3 204/1/3
f 258/1/6 257/1/6 256/1/6 255/1/6
f 259/1/2 260/1/2 261/1/2 262/1/2
f 205/1/1 214/1/1 263/1/1 264/1/1
f 205/1/3 264/1/3 260/1/3 259/1/3
f 214/1/4 262/1/4 261/1/4 263/1/4
f 205/1/5 259/1/5 262/1/5 214/1/5
f 219/1/2 252/1/2 265/1/2 220/1/2
f 210/1/1 218/1/1 266/1/1 249/1/1
f 218/1/4 220/1/4 265/1/4 266/1/4
f 249/1/6 266/1/6 265/1/6 252/1/6
f 213/3/1 222/3/1 267/3/1 257/3/1
f 222/3/4 224/3/4 268/3/4 267/3/4
f 257/3/6 267/3/6 268/3/6 256/3/6
f 214/3/2 263/3/2 269/3/2 223/3/2
f 215/3/3 256/3/3 263/3/3 214/3/3
f 224/3/4 223/3/4 269/3/4 268/3/4
f 230/3/2 270/3/2 271/3/2 243/3/2
f 227/3/1 235/3/1 272/3/1 273/3/1
f 227/3/3 273/3/3 270/3/3 230/3/3
f 227/3/5 230/3/5 243/3/5 235/3/5
f 243/1/2 271/1/2 274/1/2 244/1/2
f 235/1/1 242/1/1 275/1/1 272/1/1
f 242/1/4 244/1/4 274/1/4 275/1/4
f 272/1/6 275/1/6 274/1/6 271/1/6
f 276/1/2 277/1/2 278/1/2 279/1/2
f 280/1/1 281/1/1 282/1/1 283/1/1
f 280/1/3 283/1/3 277/1/3 276/1/3
f 283/1/6 282/1/6 278/1/6 277/1/6
f 280/1/5 276/1/5 279/1/5 281/1/5
f 279/1/2 278/1/2 284/1/2 258/1/2
f 281/1/1 253/1/1 285/1/1 282/1/1
f 253/1/4 258/1/4 284/1/4 285/1/4
f 281/1/5 279/1/5 258/1/5 253/1/5
f 253/1/2 285/1/2 286/1/2 254/1/2
f 251/1/1 252/1/1 287/1/1 288/1/1
f 251/1/3 288/1/3 285/1/3 253/1/3
f 252/1/4 254/1/4 286/1/4 287/1/4
f 260/1/2 289/1/2 290/1/2 261/1/2
f 264/1/1 263/1/1 291/1/1 292/1/1
f 264/1/3 292/1/3 289/1/3 260/1/3
f 292/1/6 291/1/6 290/1/6 289/1/6
f 256/1/1 268/1/1 293/1/1 294/1/1
f 256/1/3 294/1/3 291/1/3 263/1/3
f 268/1/4 269/1/4 295/1/4 293/1/4
f 294/1/6 293/1/6 295/1/6 291/1/6
f 261/1/2 290/1/2 296/1/2 297/1/2
f 263/1/5 261/1/5 297/1/5 269/1/5
f 297/1/2 296/1/2 298/1/2 299/1/2
f 269/1/1 300/1/1 301/1/1 295/1/1
f 300/1/4 299/1/4 298/1/4 301/1/4
f 295/1/6 301/1/6 298/1/6 296/1/6
f 269/1/5 297/1/5 299/1/5 300/1/5
f 270/1/2 302/1/2 303/1/2 271/1/2
f 273/1/1 272/1/1 304/1/1 305/1/1
f 273/1/3 305/1/3 302/1/3 270/1/3
f 272/1/4 271/1/4 303/1/4 304/1/4
f 305/1/6 304/1/6 303/1/6 302/1/6
f 278/1/2 306/1/2 307/1/2 284/1/2
f 282/1/1 285/1/1 308/1/1 309/1/1
f 282/1/3 309/1/3 306/1/3 278/1/3
f 309/1/6 308/1/6 307/1/6 306/1/6
f 288/1/1 287/1/1 310/1/1 311/1/1
f 288/1/3 311/1/3 308/1/3 285/1/3
f 287/1/4 286/1/4 312/1/4 310/1/4
f 311/1/6 310/1/6 312/1/6 308/1/6
f 284/1/2 307/1/2 313/1/2 314/1/2
f 308/1/6 312/1/6 313/1/6 307/1/6
f 285/1/5 284/1/5 314/1/5 286/1/5
f 314/1/2 313/1/2 315/1/2 316/1/2
f 286/1/1 317/1/1 318/1/1 312/1/1
f 317/1/4 316/1/4 315/1/4 318/1/4
f 312/1/6 318/1/6 315/1/6 313/1/6
f 286/1/5 314/1/5 316/1/5 317/1/5
f 290/1/2 319/1/2 320/1/2 296/1/2
f 291/1/1 295/1/1 321/1/1 322/1/1
f 291/1/3 322/1/3 319/1/3 290/1/3
f 295/1/4 296/1/4 320/1/4 321/1/4
f 322/1/6 321/1/6 320/1/6 319/1/6
