mtllib Boss_Boss_Suculentas_fase_2.mtl
o Boss_Boss_Suculentas_fase_2
v -4.0000 -3.0000 4.0000
v -3.0000 -3.0000 4.0000
v -3.0000 -3.0000 3.0000
v -4.0000 -3.0000 3.0000
v -4.0000 -4.0000 4.0000
v -4.0000 -4.0000 3.0000
v -3.0000 -4.0000 3.0000
v -3.0000 -4.0000 4.0000
v -4.0000 -1.0000 4.0000
v -3.0000 -1.0000 4.0000
v -3.0000 -1.0000 3.0000
v -4.0000 -1.0000 3.0000
v -4.0000 -2.0000 4.0000
v -4.0000 -2.0000 3.0000
v -3.0000 -2.0000 3.0000
v -3.0000 -2.0000 4.0000
v -3.0000 -1.0000 2.0000
v -4.0000 -1.0000 2.0000
v -4.0000 -2.0000 2.0000
v -3.0000 -2.0000 2.0000
v -4.0000 -1.0000 -2.0000
v -3.0000 -1.0000 -2.0000
v -3.0000 -1.0000 -3.0000
v -4.0000 -1.0000 -3.0000
v -4.0000 -2.0000 -2.0000
v -4.0000 -2.0000 -3.0000
v -3.0000 -2.0000 -3.0000
v -3.0000 -2.0000 -2.0000
v -4.0000 -3.0000 -3.0000
v -3.0000 -3.0000 -3.0000
v -3.0000 -3.0000 -4.0000
v -4.0000 -3.0000 -4.0000
v -4.0000 -4.0000 -3.0000
v -4.0000 -4.0000 -4.0000
v -3.0000 -4.0000 -4.0000
v -3.0000 -4.0000 -3.0000
v -3.0000 -1.0000 -4.0000
v -4.0000 -1.0000 -4.0000
v -4.0000 -2.0000 -4.0000
v -3.0000 -2.0000 -4.0000
v -2.0000 -1.0000 4.0000
v -2.0000 -1.0000 3.0000
v -2.0000 -2.0000 3.0000
v -2.0000 -2.0000 4.0000
v -3.0000 -4.0000 2.0000
v -2.0000 -4.0000 2.0000
v -2.0000 -4.0000 3.0000
v -2.0000 -3.0000 3.0000
v -3.0000 -3.0000 2.0000
v -2.0000 -3.0000 2.0000
v -2.0000 -1.0000 2.0000
v -3.0000 -3.0000 1.0000
v -2.0000 -3.0000 1.0000
v -3.0000 -2.0000 1.0000
v -2.0000 -2.0000 1.0000
v -2.0000 -1.0000 1.0000
v -3.0000 -1.0000 1.0000
v -2.0000 -2.0000 2.0000
v -2.0000 -3.0000 -0.0000
v -3.0000 -3.0000 -0.0000
v -3.0000 -4.0000 1.0000
v -3.0000 -4.0000 -0.0000
v -2.0000 -4.0000 -0.0000
v -2.0000 -4.0000 1.0000
v -2.0000 -3.0000 -1.0000
v -3.0000 -3.0000 -1.0000
v -3.0000 -4.0000 -1.0000
v -2.0000 -4.0000 -1.0000
v -3.0000 -3.0000 -2.0000
v -2.0000 -3.0000 -2.0000
v -2.0000 -2.0000 -1.0000
v -3.0000 -2.0000 -1.0000
v -3.0000 -1.0000 -1.0000
v -2.0000 -1.0000 -1.0000
v -2.0000 -1.0000 -2.0000
v -2.0000 -2.0000 -2.0000
v -3.0000 -4.0000 -2.0000
v -2.0000 -4.0000 -3.0000
v -2.0000 -4.0000 -2.0000
v -2.0000 -3.0000 -3.0000
v -2.0000 -2.0000 -3.0000
v -2.0000 -1.0000 -3.0000
v -2.0000 -1.0000 -4.0000
v -2.0000 -2.0000 -4.0000
v -1.0000 -3.0000 2.0000
v -1.0000 -3.0000 3.0000
v -1.0000 -2.0000 3.0000
v -1.0000 -2.0000 2.0000
v -1.0000 -1.0000 3.0000
v -1.0000 -1.0000 2.0000
v -1.0000 -4.0000 1.0000
v -1.0000 -4.0000 2.0000
v -1.0000 -2.0000 1.0000
v -2.0000 1.0000 2.0000
v -1.0000 1.0000 2.0000
v -1.0000 1.0000 1.0000
v -2.0000 1.0000 1.0000
v -2.0000 0.0000 2.0000
v -2.0000 0.0000 1.0000
v -1.0000 0.0000 1.0000
v -1.0000 0.0000 2.0000
v -1.0000 -4.0000 -0.0000
v -1.0000 -2.0000 -0.0000
v -2.0000 -2.0000 -0.0000
v -1.0000 1.0000 -0.0000
v -2.0000 1.0000 -0.0000
v -2.0000 0.0000 -0.0000
v -1.0000 0.0000 -0.0000
v -1.0000 -4.0000 -1.0000
v -1.0000 -2.0000 -1.0000
v -1.0000 -4.0000 -2.0000
v -1.0000 -3.0000 -2.0000
v -1.0000 -2.0000 -2.0000
v -1.0000 -3.0000 -3.0000
v -1.0000 -2.0000 -3.0000
v -1.0000 -1.0000 -2.0000
v -1.0000 -1.0000 -3.0000
v 0.0000 -3.0000 3.0000
v 0.0000 -3.0000 2.0000
v -1.0000 -4.0000 3.0000
v 0.0000 -4.0000 2.0000
v 0.0000 -4.0000 3.0000
v 0.0000 -4.0000 1.0000
v 0.0000 -2.0000 2.0000
v 0.0000 -2.0000 1.0000
v 0.0000 1.0000 2.0000
v 0.0000 1.0000 1.0000
v 0.0000 0.0000 1.0000
v 0.0000 0.0000 2.0000
v 0.0000 -4.0000 -0.0000
v 0.0000 -1.0000 1.0000
v -1.0000 -1.0000 1.0000
v -1.0000 -1.0000 -0.0000
v 0.0000 1.0000 -0.0000
v 0.0000 0.0000 -0.0000
v 0.0000 -4.0000 -1.0000
v -1.0000 -1.0000 -1.0000
v 0.0000 -1.0000 -1.0000
v 0.0000 -2.0000 -1.0000
v 0.0000 0.0000 -1.0000
v -1.0000 0.0000 -1.0000
v 0.0000 -4.0000 -2.0000
v 0.0000 -2.0000 -2.0000
v 0.0000 -3.0000 -2.0000
v 0.0000 -3.0000 -3.0000
v -1.0000 -4.0000 -3.0000
v 0.0000 -4.0000 -3.0000
v 1.0000 -3.0000 3.0000
v 1.0000 -3.0000 2.0000
v 1.0000 -4.0000 2.0000
v 1.0000 -4.0000 3.0000
v 1.0000 -4.0000 1.0000
v 1.0000 -2.0000 2.0000
v 1.0000 -2.0000 1.0000
v 1.0000 -4.0000 -0.0000
v 1.0000 -1.0000 1.0000
v 1.0000 -2.0000 -0.0000
v 1.0000 -1.0000 -0.0000
v 1.0000 0.0000 1.0000
v 1.0000 0.0000 -0.0000
v 1.0000 -4.0000 -1.0000
v 1.0000 -1.0000 -1.0000
v 1.0000 -2.0000 -1.0000
v 1.0000 0.0000 -1.0000
v 1.0000 1.0000 -0.0000
v 1.0000 1.0000 -1.0000
v 0.0000 1.0000 -1.0000
v 1.0000 -4.0000 -2.0000
v 1.0000 -2.0000 -2.0000
v 1.0000 -3.0000 -2.0000
v 1.0000 1.0000 -2.0000
v 0.0000 1.0000 -2.0000
v 0.0000 0.0000 -2.0000
v 1.0000 0.0000 -2.0000
v 1.0000 -3.0000 -3.0000
v 1.0000 -4.0000 -3.0000
v 2.0000 -3.0000 2.0000
v 2.0000 -3.0000 3.0000
v 2.0000 -2.0000 3.0000
v 1.0000 -2.0000 3.0000
v 1.0000 -1.0000 3.0000
v 2.0000 -1.0000 3.0000
v 2.0000 -1.0000 2.0000
v 1.0000 -1.0000 2.0000
v 2.0000 -2.0000 2.0000
v 2.0000 -4.0000 1.0000
v 2.0000 -4.0000 2.0000
v 2.0000 -3.0000 1.0000
v 2.0000 -2.0000 1.0000
v 2.0000 -4.0000 -0.0000
v 2.0000 -2.0000 -0.0000
v 2.0000 -3.0000 -0.0000
v 2.0000 -4.0000 -1.0000
v 2.0000 -2.0000 -1.0000
v 2.0000 -3.0000 -1.0000
v 2.0000 1.0000 -0.0000
v 2.0000 1.0000 -1.0000
v 2.0000 0.0000 -1.0000
v 2.0000 0.0000 -0.0000
v 2.0000 -4.0000 -2.0000
v 2.0000 -3.0000 -2.0000
v 2.0000 -2.0000 -2.0000
v 2.0000 1.0000 -2.0000
v 2.0000 0.0000 -2.0000
v 2.0000 -3.0000 -3.0000
v 1.0000 -2.0000 -3.0000
v 2.0000 -2.0000 -3.0000
v 1.0000 -1.0000 -2.0000
v 2.0000 -1.0000 -2.0000
v 2.0000 -1.0000 -3.0000
v 1.0000 -1.0000 -3.0000
v 2.0000 -1.0000 4.0000
v 3.0000 -1.0000 4.0000
v 3.0000 -1.0000 3.0000
v 2.0000 -2.0000 4.0000
v 3.0000 -2.0000 3.0000
v 3.0000 -2.0000 4.0000
v 2.0000 -4.0000 3.0000
v 3.0000 -4.0000 2.0000
v 3.0000 -4.0000 3.0000
v 3.0000 -3.0000 3.0000
v 3.0000 -3.0000 2.0000
v 3.0000 -2.0000 2.0000
v 3.0000 -1.0000 2.0000
v 3.0000 -3.0000 1.0000
v 3.0000 -2.0000 1.0000
v 3.0000 -1.0000 1.0000
v 2.0000 -1.0000 1.0000
v 3.0000 -3.0000 -0.0000
v 3.0000 -4.0000 -0.0000
v 3.0000 -4.0000 1.0000
v 3.0000 -3.0000 -1.0000
v 3.0000 -4.0000 -1.0000
v 3.0000 -3.0000 -2.0000
v 3.0000 -2.0000 -1.0000
v 3.0000 -2.0000 -2.0000
v 2.0000 -1.0000 -1.0000
v 3.0000 -1.0000 -1.0000
v 3.0000 -1.0000 -2.0000
v 2.0000 -4.0000 -3.0000
v 3.0000 -4.0000 -3.0000
v 3.0000 -4.0000 -2.0000
v 3.0000 -3.0000 -3.0000
v 3.0000 -2.0000 -3.0000
v 3.0000 -1.0000 -3.0000
v 3.0000 -1.0000 -4.0000
v 2.0000 -1.0000 -4.0000
v 2.0000 -2.0000 -4.0000
v 3.0000 -2.0000 -4.0000
v 3.0000 -3.0000 4.0000
v 4.0000 -3.0000 4.0000
v 4.0000 -3.0000 3.0000
v 3.0000 -4.0000 4.0000
v 4.0000 -4.0000 3.0000
v 4.0000 -4.0000 4.0000
v 4.0000 -1.0000 4.0000
v 4.0000 -1.0000 3.0000
v 4.0000 -2.0000 3.0000
v 4.0000 -2.0000 4.0000
v 4.0000 -1.0000 2.0000
v 4.0000 -2.0000 2.0000
v 4.0000 -1.0000 -2.0000
v 4.0000 -1.0000 -3.0000
v 4.0000 -2.0000 -3.0000
v 4.0000 -2.0000 -2.0000
v 4.0000 -3.0000 -3.0000
v 4.0000 -3.0000 -4.0000
v 3.0000 -3.0000 -4.0000
v 3.0000 -4.0000 -4.0000
v 4.0000 -4.0000 -4.0000
v 4.0000 -4.0000 -3.0000
v 4.0000 -1.0000 -4.0000
v 4.0000 -2.0000 -4.0000
vt 0.001953 0.500000
vt 0.005859 0.500000
vt 0.009766 0.500000
vt 0.013672 0.500000
vt 0.017578 0.500000
vt 0.021484 0.500000
vt 0.025391 0.500000
vt 0.029297 0.500000
vn 0.0 -1.0 0.0
vn 0.0 1.0 0.0
vn 0.0 0.0 1.0
vn 0.0 0.0 -1.0
vn -1.0 0.0 0.0
vn 1.0 0.0 0.0
usemtl mat_Boss_Boss_Suculentas_fase_2
s off
f 1/1/2 2/1/2 3/1/2 4/1/2
f 5/1/1 6/1/1 7/1/1 8/1/1
f 5/1/3 8/1/3 2/1/3 1/1/3
f 6/1/4 4/1/4 3/1/4 7/1/4
f 8/1/6 7/1/6 3/1/6 2/1/6
f 5/1/5 1/1/5 4/1/5 6/1/5
f 9/2/2 10/2/2 11/2/2 12/2/2
f 13/2/1 14/2/1 15/2/1 16/2/1
f 13/2/3 16/2/3 10/2/3 9/2/3
f 13/2/5 9/2/5 12/2/5 14/2/5
f 12/3/2 11/3/2 17/3/2 18/3/2
f 14/3/1 19/3/1 20/3/1 15/3/1
f 19/3/4 18/3/4 17/3/4 20/3/4
f 14/3/5 12/3/5 18/3/5 19/3/5
f 21/3/2 22/3/2 23/3/2 24/3/2
f 25/3/1 26/3/1 27/3/1 28/3/1
f 25/3/3 28/3/3 22/3/3 21/3/3
f 25/3/5 21/3/5 24/3/5 26/3/5
f 29/1/2 30/1/2 31/1/2 32/1/2
f 33/1/1 34/1/1 35/1/1 36/1/1
f 33/1/3 36/1/3 30/1/3 29/1/3
f 34/1/4 32/1/4 31/1/4 35/1/4
f 36/1/6 35/1/6 31/1/6 30/1/6
f 33/1/5 29/1/5 32/1/5 34/1/5
f 24/2/2 23/2/2 37/2/2 38/2/2
f 26/2/1 39/2/1 40/2/1 27/2/1
f 39/2/4 38/2/4 37/2/4 40/2/4
f 26/2/5 24/2/5 38/2/5 39/2/5
f 10/3/2 41/3/2 42/3/2 11/3/2
f 16/3/1 15/3/1 43/3/1 44/3/1
f 16/3/3 44/3/3 41/3/3 10/3/3
f 44/3/6 43/3/6 42/3/6 41/3/6
f 7/4/1 45/4/1 46/4/1 47/4/1
f 7/4/3 47/4/3 48/4/3 3/4/3
f 45/4/4 49/4/4 50/4/4 46/4/4
f 47/4/6 46/4/6 50/4/6 48/4/6
f 7/4/5 3/4/5 49/4/5 45/4/5
f 3/5/3 48/5/3 43/5/3 15/5/3
f 3/5/5 15/5/5 20/5/5 49/5/5
f 11/5/2 42/5/2 51/5/2 17/5/2
f 49/5/1 52/5/1 53/5/1 50/5/1
f 52/5/4 54/5/4 55/5/4 53/5/4
f 49/5/5 20/5/5 54/5/5 52/5/5
f 17/6/2 51/6/2 56/6/2 57/6/2
f 54/6/4 57/6/4 56/6/4 55/6/4
f 58/6/6 55/6/6 56/6/6 51/6/6
f 20/6/5 17/6/5 57/6/5 54/6/5
f 52/5/2 53/5/2 59/5/2 60/5/2
f 61/5/1 62/5/1 63/5/1 64/5/1
f 61/5/3 64/5/3 53/5/3 52/5/3
f 61/5/5 52/5/5 60/5/5 62/5/5
f 60/5/2 59/5/2 65/5/2 66/5/2
f 62/5/1 67/5/1 68/5/1 63/5/1
f 67/5/4 66/5/4 65/5/4 68/5/4
f 62/5/5 60/5/5 66/5/5 67/5/5
f 66/5/1 69/5/1 70/5/1 65/5/1
f 66/5/3 65/5/3 71/5/3 72/5/3
f 66/5/5 72/5/5 28/5/5 69/5/5
f 73/6/2 74/6/2 75/6/2 22/6/2
f 72/6/3 71/6/3 74/6/3 73/6/3
f 71/6/6 76/6/6 75/6/6 74/6/6
f 72/6/5 73/6/5 22/6/5 28/6/5
f 77/4/1 36/4/1 78/4/1 79/4/1
f 77/4/3 79/4/3 70/4/3 69/4/3
f 36/4/4 30/4/4 80/4/4 78/4/4
f 79/4/6 78/4/6 80/4/6 70/4/6
f 77/4/5 69/4/5 30/4/5 36/4/5
f 30/5/4 27/5/4 81/5/4 80/5/4
f 69/5/5 28/5/5 27/5/5 30/5/5
f 22/6/2 75/6/2 82/6/2 23/6/2
f 23/3/2 82/3/2 83/3/2 37/3/2
f 27/3/1 40/3/1 84/3/1 81/3/1
f 40/3/4 37/3/4 83/3/4 84/3/4
f 81/3/6 84/3/6 83/3/6 82/3/6
f 48/5/1 50/5/1 85/5/1 86/5/1
f 48/5/3 86/5/3 87/5/3 43/5/3
f 86/5/6 85/5/6 88/5/6 87/5/6
f 42/6/2 89/6/2 90/6/2 51/6/2
f 43/6/3 87/6/3 89/6/3 42/6/3
f 58/6/4 51/6/4 90/6/4 88/6/4
f 87/6/6 88/6/6 90/6/6 89/6/6
f 46/1/1 64/1/1 91/1/1 92/1/1
f 46/1/3 92/1/3 85/1/3 50/1/3
f 46/1/5 50/1/5 53/1/5 64/1/5
f 58/5/2 88/5/2 93/5/2 55/5/2
f 94/3/2 95/3/2 96/3/2 97/3/2
f 98/3/1 99/3/1 100/3/1 101/3/1
f 98/3/3 101/3/3 95/3/3 94/3/3
f 98/3/5 94/3/5 97/3/5 99/3/5
f 64/5/1 63/5/1 102/5/1 91/5/1
f 55/7/2 93/7/2 103/7/2 104/7/2
f 53/7/5 55/7/5 104/7/5 59/7/5
f 97/6/2 96/6/2 105/6/2 106/6/2
f 99/6/1 107/6/1 108/6/1 100/6/1
f 107/6/4 106/6/4 105/6/4 108/6/4
f 99/6/5 97/6/5 106/6/5 107/6/5
f 63/5/1 68/5/1 109/5/1 102/5/1
f 104/7/2 103/7/2 110/7/2 71/7/2
f 59/7/5 104/7/5 71/7/5 65/7/5
f 68/1/1 79/1/1 111/1/1 109/1/1
f 79/1/4 70/1/4 112/1/4 111/1/4
f 68/1/5 65/1/5 70/1/5 79/1/5
f 71/5/2 110/5/2 113/5/2 76/5/2
f 70/5/1 80/5/1 114/5/1 112/5/1
f 80/5/4 81/5/4 115/5/4 114/5/4
f 112/5/6 114/5/6 115/5/6 113/5/6
f 75/6/2 116/6/2 117/6/2 82/6/2
f 76/6/3 113/6/3 116/6/3 75/6/3
f 81/6/4 82/6/4 117/6/4 115/6/4
f 113/6/6 115/6/6 117/6/6 116/6/6
f 86/5/2 118/5/2 119/5/2 85/5/2
f 120/5/1 92/5/1 121/5/1 122/5/1
f 120/5/3 122/5/3 118/5/3 86/5/3
f 120/5/5 86/5/5 85/5/5 92/5/5
f 92/5/1 91/5/1 123/5/1 121/5/1
f 88/7/2 124/7/2 125/7/2 93/7/2
f 85/7/3 119/7/3 124/7/3 88/7/3
f 95/6/2 126/6/2 127/6/2 96/6/2
f 101/6/1 100/6/1 128/6/1 129/6/1
f 101/6/3 129/6/3 126/6/3 95/6/3
f 129/6/6 128/6/6 127/6/6 126/6/6
f 91/7/1 102/7/1 130/7/1 123/7/1
f 93/7/3 125/7/3 131/7/3 132/7/3
f 93/7/5 132/7/5 133/7/5 103/7/5
f 132/5/3 131/5/3 128/5/3 100/5/3
f 132/5/5 100/5/5 108/5/5 133/5/5
f 96/6/2 127/6/2 134/6/2 105/6/2
f 108/6/4 105/6/4 134/6/4 135/6/4
f 128/6/6 135/6/6 134/6/6 127/6/6
f 102/7/1 109/7/1 136/7/1 130/7/1
f 110/7/4 137/7/4 138/7/4 139/7/4
f 103/7/5 133/7/5 137/7/5 110/7/5
f 108/7/2 135/7/2 140/7/2 141/7/2
f 137/7/4 141/7/4 140/7/4 138/7/4
f 133/7/5 108/7/5 141/7/5 137/7/5
f 109/5/1 111/5/1 142/5/1 136/5/1
f 110/7/2 139/7/2 143/7/2 113/7/2
f 112/7/4 113/7/4 143/7/4 144/7/4
f 112/5/2 144/5/2 145/5/2 114/5/2
f 111/5/1 146/5/1 147/5/1 142/5/1
f 146/5/4 114/5/4 145/5/4 147/5/4
f 111/5/5 112/5/5 114/5/5 146/5/5
f 118/5/2 148/5/2 149/5/2 119/5/2
f 122/5/1 121/5/1 150/5/1 151/5/1
f 122/5/3 151/5/3 148/5/3 118/5/3
f 151/5/6 150/5/6 149/5/6 148/5/6
f 121/5/1 123/5/1 152/5/1 150/5/1
f 124/7/2 153/7/2 154/7/2 125/7/2
f 119/7/3 149/7/3 153/7/3 124/7/3
f 123/7/1 130/7/1 155/7/1 152/7/1
f 125/7/3 154/7/3 156/7/3 131/7/3
f 154/7/6 157/7/6 158/7/6 156/7/6
f 128/7/2 159/7/2 160/7/2 135/7/2
f 131/7/3 156/7/3 159/7/3 128/7/3
f 156/7/6 158/7/6 160/7/6 159/7/6
f 130/7/1 136/7/1 161/7/1 155/7/1
f 139/7/4 138/7/4 162/7/4 163/7/4
f 157/7/6 163/7/6 162/7/6 158/7/6
f 138/5/4 140/5/4 164/5/4 162/5/4
f 158/5/6 162/5/6 164/5/6 160/5/6
f 134/6/2 165/6/2 166/6/2 167/6/2
f 135/6/3 160/6/3 165/6/3 134/6/3
f 135/6/5 134/6/5 167/6/5 140/6/5
f 136/5/1 142/5/1 168/5/1 161/5/1
f 139/7/2 163/7/2 169/7/2 143/7/2
f 144/7/4 143/7/4 169/7/4 170/7/4
f 167/6/2 166/6/2 171/6/2 172/6/2
f 140/6/1 173/6/1 174/6/1 164/6/1
f 173/6/4 172/6/4 171/6/4 174/6/4
f 140/6/5 167/6/5 172/6/5 173/6/5
f 144/5/2 170/5/2 175/5/2 145/5/2
f 142/5/1 147/5/1 176/5/1 168/5/1
f 147/5/4 145/5/4 175/5/4 176/5/4
f 168/5/6 176/5/6 175/5/6 170/5/6
f 148/5/1 149/5/1 177/5/1 178/5/1
f 148/5/3 178/5/3 179/5/3 180/5/3
f 148/5/5 180/5/5 153/5/5 149/5/5
f 181/6/2 182/6/2 183/6/2 184/6/2
f 180/6/3 179/6/3 182/6/3 181/6/3
f 153/6/4 184/6/4 183/6/4 185/6/4
f 180/6/5 181/6/5 184/6/5 153/6/5
f 150/1/1 152/1/1 186/1/1 187/1/1
f 150/1/3 187/1/3 177/1/3 149/1/3
f 187/1/6 186/1/6 188/1/6 177/1/6
f 153/5/2 185/5/2 189/5/2 154/5/2
f 152/5/1 155/5/1 190/5/1 186/5/1
f 154/7/2 189/7/2 191/7/2 157/7/2
f 188/7/6 192/7/6 191/7/6 189/7/6
f 155/5/1 161/5/1 193/5/1 190/5/1
f 157/7/2 191/7/2 194/7/2 163/7/2
f 192/7/6 195/7/6 194/7/6 191/7/6
f 165/6/2 196/6/2 197/6/2 166/6/2
f 160/6/1 164/6/1 198/6/1 199/6/1
f 160/6/3 199/6/3 196/6/3 165/6/3
f 199/6/6 198/6/6 197/6/6 196/6/6
f 161/1/1 168/1/1 200/1/1 193/1/1
f 168/1/4 170/1/4 201/1/4 200/1/4
f 193/1/6 200/1/6 201/1/6 195/1/6
f 163/5/2 194/5/2 202/5/2 169/5/2
f 166/3/2 197/3/2 203/3/2 171/3/2
f 164/3/1 174/3/1 204/3/1 198/3/1
f 174/3/4 171/3/4 203/3/4 204/3/4
f 198/3/6 204/3/6 203/3/6 197/3/6
f 170/5/1 175/5/1 205/5/1 201/5/1
f 175/5/4 206/5/4 207/5/4 205/5/4
f 170/5/5 169/5/5 206/5/5 175/5/5
f 208/6/2 209/6/2 210/6/2 211/6/2
f 169/6/3 202/6/3 209/6/3 208/6/3
f 206/6/4 211/6/4 210/6/4 207/6/4
f 169/6/5 208/6/5 211/6/5 206/6/5
f 212/3/2 213/3/2 214/3/2 182/3/2
f 215/3/1 179/3/1 216/3/1 217/3/1
f 215/3/3 217/3/3 213/3/3 212/3/3
f 215/3/5 212/3/5 182/3/5 179/3/5
f 218/4/1 187/4/1 219/4/1 220/4/1
f 218/4/3 220/4/3 221/4/3 178/4/3
f 187/4/4 177/4/4 222/4/4 219/4/4
f 220/4/6 219/4/6 222/4/6 221/4/6
f 218/4/5 178/4/5 177/4/5 187/4/5
f 178/5/3 221/5/3 216/5/3 179/5/3
f 221/5/6 222/5/6 223/5/6 216/5/6
f 182/6/2 214/6/2 224/6/2 183/6/2
f 177/5/1 188/5/1 225/5/1 222/5/1
f 188/5/4 189/5/4 226/5/4 225/5/4
f 222/5/6 225/5/6 226/5/6 223/5/6
f 183/6/2 224/6/2 227/6/2 228/6/2
f 189/6/4 228/6/4 227/6/4 226/6/4
f 223/6/6 226/6/6 227/6/6 224/6/6
f 185/6/5 183/6/5 228/6/5 189/6/5
f 188/5/2 225/5/2 229/5/2 192/5/2
f 186/5/1 190/5/1 230/5/1 231/5/1
f 186/5/3 231/5/3 225/5/3 188/5/3
f 231/5/6 230/5/6 229/5/6 225/5/6
f 192/5/2 229/5/2 232/5/2 195/5/2
f 190/5/1 193/5/1 233/5/1 230/5/1
f 193/5/4 195/5/4 232/5/4 233/5/4
f 230/5/6 233/5/6 232/5/6 229/5/6
f 195/5/1 201/5/1 234/5/1 232/5/1
f 195/5/3 232/5/3 235/5/3 194/5/3
f 232/5/6 234/5/6 236/5/6 235/5/6
f 237/6/2 238/6/2 239/6/2 209/6/2
f 194/6/3 235/6/3 238/6/3 237/6/3
f 235/6/6 236/6/6 239/6/6 238/6/6
f 194/6/5 237/6/5 209/6/5 202/6/5
f 200/4/1 240/4/1 241/4/1 242/4/1
f 200/4/3 242/4/3 234/4/3 201/4/3
f 240/4/4 205/4/4 243/4/4 241/4/4
f 242/4/6 241/4/6 243/4/6 234/4/6
f 200/4/5 201/4/5 205/4/5 240/4/5
f 205/5/4 207/5/4 244/5/4 243/5/4
f 234/5/6 243/5/6 244/5/6 236/5/6
f 209/6/2 239/6/2 245/6/2 210/6/2
f 210/3/2 245/3/2 246/3/2 247/3/2
f 207/3/1 248/3/1 249/3/1 244/3/1
f 248/3/4 247/3/4 246/3/4 249/3/4
f 207/3/5 210/3/5 247/3/5 248/3/5
f 250/1/2 251/1/2 252/1/2 221/1/2
f 253/1/1 220/1/1 254/1/1 255/1/1
f 253/1/3 255/1/3 251/1/3 250/1/3
f 220/1/4 221/1/4 252/1/4 254/1/4
f 255/1/6 254/1/6 252/1/6 251/1/6
f 253/1/5 250/1/5 221/1/5 220/1/5
f 213/2/2 256/2/2 257/2/2 214/2/2
f 217/2/1 216/2/1 258/2/1 259/2/1
f 217/2/3 259/2/3 256/2/3 213/2/3
f 259/2/6 258/2/6 257/2/6 256/2/6
f 214/3/2 257/3/2 260/3/2 224/3/2
f 216/3/1 223/3/1 261/3/1 258/3/1
f 223/3/4 224/3/4 260/3/4 261/3/4
f 258/3/6 261/3/6 260/3/6 257/3/6
f 239/3/2 262/3/2 263/3/2 245/3/2
f 236/3/1 244/3/1 264/3/1 265/3/1
f 236/3/3 265/3/3 262/3/3 239/3/3
f 265/3/6 264/3/6 263/3/6 262/3/6
f 243/1/2 266/1/2 267/1/2 268/1/2
f 241/1/1 269/1/1 270/1/1 271/1/1
f 241/1/3 271/1/3 266/1/3 243/1/3
f 269/1/4 268/1/4 267/1/4 270/1/4
f 271/1/6 270/1/6 267/1/6 266/1/6
f 241/1/5 243/1/5 268/1/5 269/1/5
f 245/2/2 263/2/2 272/2/2 246/2/2
f 244/2/1 249/2/1 273/2/1 264/2/1
f 249/2/4 246/2/4 272/2/4 273/2/4
f 264/2/6 273/2/6 272/2/6 263/2/6
