mtllib Boss_Boss_Suculentas_fase_3.mtl
o Boss_Boss_Suculentas_fase_3
v -7.0000 -7.0000 1.0000
v -6.0000 -7.0000 1.0000
v -6.0000 -7.0000 -0.0000
v -7.0000 -7.0000 -0.0000
v -7.0000 -8.0000 1.0000
v -7.0000 -8.0000 -0.0000
v -6.0000 -8.0000 -0.0000
v -6.0000 -8.0000 1.0000
v -6.0000 -7.0000 5.0000
v -5.0000 -7.0000 5.0000
v -5.0000 -7.0000 4.0000
v -6.0000 -7.0000 4.0000
v -6.0000 -8.0000 5.0000
v -6.0000 -8.0000 4.0000
v -5.0000 -8.0000 4.0000
v -5.0000 -8.0000 5.0000
v -6.0000 5.0000 4.0000
v -5.0000 5.0000 4.0000
v -5.0000 5.0000 3.0000
v -6.0000 5.0000 3.0000
v -6.0000 4.0000 4.0000
v -6.0000 4.0000 3.0000
v -5.0000 4.0000 3.0000
v -5.0000 4.0000 4.0000
v -6.0000 1.0000 3.0000
v -5.0000 1.0000 3.0000
v -5.0000 1.0000 2.0000
v -6.0000 1.0000 2.0000
v -6.0000 0.0000 3.0000
v -6.0000 0.0000 2.0000
v -5.0000 0.0000 2.0000
v -5.0000 0.0000 3.0000
v -5.0000 5.0000 2.0000
v -6.0000 5.0000 2.0000
v -6.0000 4.0000 2.0000
v -5.0000 4.0000 2.0000
v -6.0000 -7.0000 2.0000
v -5.0000 -7.0000 2.0000
v -5.0000 -7.0000 1.0000
v -6.0000 -8.0000 2.0000
v -5.0000 -8.0000 1.0000
v -5.0000 -8.0000 2.0000
v -6.0000 -3.0000 2.0000
v -5.0000 -3.0000 2.0000
v -5.0000 -3.0000 1.0000
v -6.0000 -3.0000 1.0000
v -6.0000 -4.0000 2.0000
v -6.0000 -4.0000 1.0000
v -5.0000 -4.0000 1.0000
v -5.0000 -4.0000 2.0000
v -5.0000 1.0000 1.0000
v -6.0000 1.0000 1.0000
v -6.0000 0.0000 1.0000
v -5.0000 0.0000 1.0000
v -5.0000 -7.0000 -0.0000
v -5.0000 -8.0000 -0.0000
v -5.0000 -3.0000 -0.0000
v -6.0000 -3.0000 -0.0000
v -6.0000 -4.0000 -0.0000
v -5.0000 -4.0000 -0.0000
v -5.0000 -7.0000 -1.0000
v -6.0000 -7.0000 -1.0000
v -6.0000 -8.0000 -1.0000
v -5.0000 -8.0000 -1.0000
v -4.0000 -7.0000 4.0000
v -4.0000 -7.0000 3.0000
v -5.0000 -7.0000 3.0000
v -5.0000 -8.0000 3.0000
v -4.0000 -8.0000 3.0000
v -4.0000 -8.0000 4.0000
v -4.0000 5.0000 4.0000
v -4.0000 5.0000 3.0000
v -4.0000 4.0000 3.0000
v -4.0000 4.0000 4.0000
v -5.0000 8.0000 4.0000
v -4.0000 8.0000 4.0000
v -4.0000 8.0000 3.0000
v -5.0000 8.0000 3.0000
v -5.0000 7.0000 4.0000
v -5.0000 7.0000 3.0000
v -4.0000 7.0000 3.0000
v -4.0000 7.0000 4.0000
v -4.0000 1.0000 3.0000
v -4.0000 1.0000 2.0000
v -4.0000 0.0000 2.0000
v -4.0000 0.0000 3.0000
v -5.0000 3.0000 3.0000
v -5.0000 3.0000 2.0000
v -4.0000 3.0000 2.0000
v -4.0000 3.0000 3.0000
v -4.0000 5.0000 2.0000
v -4.0000 4.0000 2.0000
v -4.0000 8.0000 2.0000
v -5.0000 8.0000 2.0000
v -5.0000 7.0000 2.0000
v -4.0000 7.0000 2.0000
v -4.0000 -7.0000 2.0000
v -4.0000 -7.0000 1.0000
v -4.0000 -8.0000 1.0000
v -4.0000 -8.0000 2.0000
v -4.0000 -3.0000 2.0000
v -4.0000 -3.0000 1.0000
v -4.0000 -4.0000 1.0000
v -4.0000 -4.0000 2.0000
v -5.0000 -1.0000 2.0000
v -5.0000 -1.0000 1.0000
v -4.0000 -1.0000 1.0000
v -4.0000 -1.0000 2.0000
v -4.0000 1.0000 1.0000
v -4.0000 0.0000 1.0000
v -4.0000 4.0000 1.0000
v -5.0000 4.0000 1.0000
v -5.0000 3.0000 1.0000
v -4.0000 3.0000 1.0000
v -4.0000 -8.0000 -0.0000
v -5.0000 -6.0000 1.0000
v -4.0000 -6.0000 1.0000
v -4.0000 -6.0000 -0.0000
v -5.0000 -6.0000 -0.0000
v -4.0000 -7.0000 -0.0000
v -5.0000 -5.0000 1.0000
v -5.0000 -5.0000 -0.0000
v -4.0000 -5.0000 -0.0000
v -4.0000 -5.0000 1.0000
v -4.0000 -3.0000 -0.0000
v -4.0000 -4.0000 -0.0000
v -4.0000 0.0000 -0.0000
v -5.0000 0.0000 -0.0000
v -5.0000 -1.0000 -0.0000
v -4.0000 -1.0000 -0.0000
v -4.0000 -7.0000 -1.0000
v -4.0000 -8.0000 -1.0000
v -4.0000 -4.0000 -1.0000
v -5.0000 -4.0000 -1.0000
v -5.0000 -5.0000 -1.0000
v -4.0000 -5.0000 -1.0000
v -4.0000 -7.0000 -2.0000
v -5.0000 -7.0000 -2.0000
v -5.0000 -8.0000 -2.0000
v -4.0000 -8.0000 -2.0000
v -3.0000 8.0000 4.0000
v -3.0000 8.0000 3.0000
v -3.0000 7.0000 3.0000
v -3.0000 7.0000 4.0000
v -3.0000 -7.0000 3.0000
v -3.0000 -7.0000 2.0000
v -3.0000 -8.0000 2.0000
v -3.0000 -8.0000 3.0000
v -3.0000 4.0000 3.0000
v -3.0000 4.0000 2.0000
v -3.0000 3.0000 2.0000
v -3.0000 3.0000 3.0000
v -4.0000 6.0000 3.0000
v -4.0000 6.0000 2.0000
v -3.0000 6.0000 2.0000
v -3.0000 6.0000 3.0000
v -3.0000 8.0000 2.0000
v -3.0000 7.0000 2.0000
v -3.0000 -8.0000 1.0000
v -4.0000 -6.0000 2.0000
v -3.0000 -6.0000 2.0000
v -3.0000 -6.0000 1.0000
v -3.0000 -7.0000 1.0000
v -3.0000 0.0000 2.0000
v -3.0000 0.0000 1.0000
v -3.0000 -1.0000 1.0000
v -3.0000 -1.0000 2.0000
v -4.0000 2.0000 2.0000
v -4.0000 2.0000 1.0000
v -3.0000 2.0000 1.0000
v -3.0000 2.0000 2.0000
v -3.0000 4.0000 1.0000
v -3.0000 3.0000 1.0000
v -3.0000 7.0000 1.0000
v -4.0000 7.0000 1.0000
v -4.0000 6.0000 1.0000
v -3.0000 6.0000 1.0000
v -3.0000 -8.0000 -0.0000
v -3.0000 -6.0000 -0.0000
v -3.0000 -7.0000 -0.0000
v -3.0000 -5.0000 1.0000
v -3.0000 -5.0000 -0.0000
v -3.0000 -4.0000 1.0000
v -3.0000 -4.0000 -0.0000
v -4.0000 -2.0000 1.0000
v -4.0000 -2.0000 -0.0000
v -3.0000 -2.0000 -0.0000
v -3.0000 -2.0000 1.0000
v -3.0000 0.0000 -0.0000
v -3.0000 -1.0000 -0.0000
v -3.0000 3.0000 -0.0000
v -4.0000 3.0000 -0.0000
v -4.0000 2.0000 -0.0000
v -3.0000 2.0000 -0.0000
v -3.0000 -7.0000 -1.0000
v -3.0000 -8.0000 -1.0000
v -4.0000 -6.0000 -1.0000
v -3.0000 -6.0000 -1.0000
v -3.0000 -4.0000 -1.0000
v -3.0000 -5.0000 -1.0000
v -3.0000 -1.0000 -1.0000
v -4.0000 -1.0000 -1.0000
v -4.0000 -2.0000 -1.0000
v -3.0000 -2.0000 -1.0000
v -3.0000 -7.0000 -2.0000
v -3.0000 -8.0000 -2.0000
v -3.0000 -5.0000 -2.0000
v -4.0000 -5.0000 -2.0000
v -4.0000 -6.0000 -2.0000
v -3.0000 -6.0000 -2.0000
v -4.0000 8.0000 -3.0000
v -3.0000 8.0000 -3.0000
v -3.0000 8.0000 -4.0000
v -4.0000 8.0000 -4.0000
v -4.0000 7.0000 -3.0000
v -4.0000 7.0000 -4.0000
v -3.0000 7.0000 -4.0000
v -3.0000 7.0000 -3.0000
v -4.0000 5.0000 -4.0000
v -3.0000 5.0000 -4.0000
v -3.0000 5.0000 -5.0000
v -4.0000 5.0000 -5.0000
v -4.0000 4.0000 -4.0000
v -4.0000 4.0000 -5.0000
v -3.0000 4.0000 -5.0000
v -3.0000 4.0000 -4.0000
v -3.0000 8.0000 -5.0000
v -4.0000 8.0000 -5.0000
v -4.0000 7.0000 -5.0000
v -3.0000 7.0000 -5.0000
v -3.0000 5.0000 -6.0000
v -4.0000 5.0000 -6.0000
v -4.0000 4.0000 -6.0000
v -3.0000 4.0000 -6.0000
v -2.0000 -7.0000 3.0000
v -2.0000 -7.0000 2.0000
v -2.0000 -8.0000 2.0000
v -2.0000 -8.0000 3.0000
v -2.0000 7.0000 3.0000
v -2.0000 7.0000 2.0000
v -2.0000 6.0000 2.0000
v -2.0000 6.0000 3.0000
v -2.0000 -7.0000 1.0000
v -2.0000 -8.0000 1.0000
v -3.0000 -2.0000 2.0000
v -2.0000 -2.0000 2.0000
v -2.0000 -2.0000 1.0000
v -3.0000 -3.0000 2.0000
v -3.0000 -3.0000 1.0000
v -2.0000 -3.0000 1.0000
v -2.0000 -3.0000 2.0000
v -3.0000 1.0000 2.0000
v -3.0000 1.0000 1.0000
v -2.0000 1.0000 1.0000
v -2.0000 1.0000 2.0000
v -2.0000 2.0000 2.0000
v -2.0000 3.0000 2.0000
v -2.0000 3.0000 1.0000
v -2.0000 2.0000 1.0000
v -3.0000 5.0000 2.0000
v -3.0000 5.0000 1.0000
v -2.0000 5.0000 1.0000
v -2.0000 5.0000 2.0000
v -2.0000 7.0000 1.0000
v -2.0000 6.0000 1.0000
v -2.0000 -8.0000 -0.0000
v -2.0000 -6.0000 1.0000
v -2.0000 -6.0000 -0.0000
v -3.0000 -3.0000 -0.0000
v -2.0000 -3.0000 -0.0000
v -2.0000 -1.0000 1.0000
v -2.0000 -1.0000 -0.0000
v -3.0000 1.0000 -0.0000
v -2.0000 1.0000 -0.0000
v -2.0000 3.0000 -0.0000
v -2.0000 2.0000 -0.0000
v -2.0000 6.0000 -0.0000
v -3.0000 6.0000 -0.0000
v -3.0000 5.0000 -0.0000
v -2.0000 5.0000 -0.0000
v -2.0000 -8.0000 -1.0000
v -2.0000 -5.0000 -0.0000
v -2.0000 -5.0000 -1.0000
v -3.0000 -3.0000 -1.0000
v -2.0000 -3.0000 -1.0000
v -2.0000 -1.0000 -1.0000
v -2.0000 -2.0000 -1.0000
v -2.0000 2.0000 -1.0000
v -3.0000 2.0000 -1.0000
v -3.0000 1.0000 -1.0000
v -2.0000 1.0000 -1.0000
v -2.0000 6.0000 -1.0000
v -3.0000 6.0000 -1.0000
v -3.0000 5.0000 -1.0000
v -2.0000 5.0000 -1.0000
v -2.0000 -8.0000 -2.0000
v -2.0000 -6.0000 -2.0000
v -2.0000 -7.0000 -2.0000
v -2.0000 -5.0000 -2.0000
v -2.0000 -6.0000 -1.0000
v -2.0000 -2.0000 -2.0000
v -3.0000 -2.0000 -2.0000
v -3.0000 -3.0000 -2.0000
v -2.0000 -3.0000 -2.0000
v -2.0000 2.0000 -2.0000
v -3.0000 2.0000 -2.0000
v -3.0000 1.0000 -2.0000
v -2.0000 1.0000 -2.0000
v -2.0000 6.0000 -2.0000
v -3.0000 6.0000 -2.0000
v -3.0000 5.0000 -2.0000
v -2.0000 5.0000 -2.0000
v -2.0000 -7.0000 -3.0000
v -3.0000 -7.0000 -3.0000
v -3.0000 -8.0000 -3.0000
v -2.0000 -8.0000 -3.0000
v -3.0000 7.0000 -2.0000
v -2.0000 7.0000 -2.0000
v -2.0000 7.0000 -3.0000
v -3.0000 6.0000 -3.0000
v -2.0000 6.0000 -3.0000
v -3.0000 4.0000 -3.0000
v -2.0000 4.0000 -3.0000
v -2.0000 4.0000 -4.0000
v -3.0000 3.0000 -3.0000
v -3.0000 3.0000 -4.0000
v -2.0000 3.0000 -4.0000
v -2.0000 3.0000 -3.0000
v -3.0000 6.0000 -4.0000
v -2.0000 6.0000 -4.0000
v -2.0000 7.0000 -4.0000
v -2.0000 8.0000 -3.0000
v -2.0000 8.0000 -4.0000
v -3.0000 1.0000 -4.0000
v -2.0000 1.0000 -4.0000
v -2.0000 1.0000 -5.0000
v -3.0000 1.0000 -5.0000
v -3.0000 0.0000 -4.0000
v -3.0000 0.0000 -5.0000
v -2.0000 0.0000 -5.0000
v -2.0000 0.0000 -4.0000
v -3.0000 3.0000 -5.0000
v -2.0000 3.0000 -5.0000
v -2.0000 4.0000 -5.0000
v -2.0000 5.0000 -4.0000
v -2.0000 5.0000 -5.0000
v -2.0000 8.0000 -5.0000
v -2.0000 7.0000 -5.0000
v -2.0000 1.0000 -6.0000
v -3.0000 1.0000 -6.0000
v -3.0000 0.0000 -6.0000
v -2.0000 0.0000 -6.0000
v -2.0000 5.0000 -6.0000
v -2.0000 4.0000 -6.0000
v -2.0000 -7.0000 4.0000
v -1.0000 -7.0000 4.0000
v -1.0000 -7.0000 3.0000
v -2.0000 -8.0000 4.0000
v -1.0000 -8.0000 3.0000
v -1.0000 -8.0000 4.0000
v -2.0000 -5.0000 4.0000
v -1.0000 -5.0000 4.0000
v -1.0000 -5.0000 3.0000
v -2.0000 -5.0000 3.0000
v -2.0000 -6.0000 4.0000
v -2.0000 -6.0000 3.0000
v -1.0000 -6.0000 3.0000
v -1.0000 -6.0000 4.0000
v -1.0000 -8.0000 2.0000
v -2.0000 -6.0000 2.0000
v -1.0000 -5.0000 2.0000
v -2.0000 -5.0000 2.0000
v -1.0000 -6.0000 2.0000
v -2.0000 -2.0000 3.0000
v -1.0000 -2.0000 3.0000
v -1.0000 -2.0000 2.0000
v -2.0000 -3.0000 3.0000
v -1.0000 -3.0000 2.0000
v -1.0000 -3.0000 3.0000
v -2.0000 2.0000 3.0000
v -1.0000 2.0000 3.0000
v -1.0000 2.0000 2.0000
v -2.0000 1.0000 3.0000
v -1.0000 1.0000 2.0000
v -1.0000 1.0000 3.0000
v -1.0000 6.0000 3.0000
v -1.0000 6.0000 2.0000
v -2.0000 5.0000 3.0000
v -1.0000 5.0000 2.0000
v -1.0000 5.0000 3.0000
v -1.0000 -8.0000 1.0000
v -1.0000 -6.0000 1.0000
v -1.0000 -3.0000 1.0000
v -1.0000 -1.0000 2.0000
v -2.0000 -1.0000 2.0000
v -1.0000 0.0000 2.0000
v -2.0000 0.0000 2.0000
v -2.0000 0.0000 1.0000
v -1.0000 2.0000 1.0000
v -1.0000 3.0000 1.0000
v -1.0000 3.0000 2.0000
v -1.0000 4.0000 2.0000
v -2.0000 4.0000 2.0000
v -2.0000 4.0000 1.0000
v -1.0000 6.0000 1.0000
v -1.0000 5.0000 1.0000
v -1.0000 -8.0000 -0.0000
v -1.0000 -5.0000 1.0000
v -2.0000 -5.0000 1.0000
v -1.0000 -4.0000 1.0000
v -2.0000 -4.0000 1.0000
v -2.0000 -4.0000 -0.0000
v -2.0000 0.0000 -0.0000
v -2.0000 4.0000 -0.0000
v -1.0000 5.0000 -0.0000
v -1.0000 4.0000 1.0000
v -1.0000 4.0000 -0.0000
v -1.0000 -8.0000 -1.0000
v -1.0000 -5.0000 -1.0000
v -1.0000 -6.0000 -1.0000
v -2.0000 -4.0000 -1.0000
v -1.0000 -4.0000 -1.0000
v -1.0000 -3.0000 -1.0000
v -1.0000 -1.0000 -1.0000
v -1.0000 -2.0000 -1.0000
v -2.0000 0.0000 -1.0000
v -2.0000 3.0000 -1.0000
v -1.0000 3.0000 -1.0000
v -1.0000 2.0000 -1.0000
v -2.0000 4.0000 -1.0000
v -1.0000 4.0000 -1.0000
v -1.0000 5.0000 -1.0000
v -1.0000 -8.0000 -2.0000
v -1.0000 -6.0000 -2.0000
v -1.0000 -2.0000 -2.0000
v -1.0000 -3.0000 -2.0000
v -2.0000 -1.0000 -2.0000
v -1.0000 -1.0000 -2.0000
v -2.0000 0.0000 -2.0000
v -1.0000 0.0000 -2.0000
v -1.0000 1.0000 -2.0000
v -1.0000 2.0000 -2.0000
v -2.0000 4.0000 -2.0000
v -1.0000 4.0000 -2.0000
v -1.0000 5.0000 -2.0000
v -1.0000 6.0000 -1.0000
v -1.0000 6.0000 -2.0000
v -1.0000 -8.0000 -3.0000
v -1.0000 -6.0000 -3.0000
v -2.0000 -6.0000 -3.0000
v -1.0000 -7.0000 -3.0000
v -1.0000 -2.0000 -3.0000
v -2.0000 -2.0000 -3.0000
v -2.0000 -3.0000 -3.0000
v -1.0000 -3.0000 -3.0000
v -2.0000 1.0000 -3.0000
v -1.0000 1.0000 -3.0000
v -2.0000 2.0000 -3.0000
v -1.0000 2.0000 -3.0000
v -2.0000 3.0000 -2.0000
v -1.0000 3.0000 -2.0000
v -1.0000 3.0000 -3.0000
v -2.0000 5.0000 -3.0000
v -1.0000 5.0000 -3.0000
v -1.0000 6.0000 -3.0000
v -1.0000 7.0000 -2.0000
v -1.0000 7.0000 -3.0000
v -1.0000 -7.0000 -4.0000
v -2.0000 -7.0000 -4.0000
v -2.0000 -8.0000 -4.0000
v -1.0000 -8.0000 -4.0000
v -2.0000 0.0000 -3.0000
v -1.0000 0.0000 -3.0000
v -1.0000 0.0000 -4.0000
v -2.0000 -1.0000 -3.0000
v -2.0000 -1.0000 -4.0000
v -1.0000 -1.0000 -4.0000
v -1.0000 -1.0000 -3.0000
v -2.0000 2.0000 -4.0000
v -1.0000 2.0000 -4.0000
v -1.0000 3.0000 -4.0000
v -1.0000 4.0000 -3.0000
v -1.0000 4.0000 -4.0000
v -1.0000 7.0000 -4.0000
v -1.0000 6.0000 -4.0000
v -2.0000 -3.0000 -4.0000
v -1.0000 -3.0000 -4.0000
v -1.0000 -3.0000 -5.0000
v -2.0000 -3.0000 -5.0000
v -2.0000 -4.0000 -4.0000
v -2.0000 -4.0000 -5.0000
v -1.0000 -4.0000 -5.0000
v -1.0000 -4.0000 -4.0000
v -2.0000 -1.0000 -5.0000
v -1.0000 -1.0000 -5.0000
v -1.0000 0.0000 -5.0000
v -1.0000 1.0000 -4.0000
v -1.0000 1.0000 -5.0000
v -1.0000 4.0000 -5.0000
v -1.0000 3.0000 -5.0000
v -1.0000 -3.0000 -6.0000
v -2.0000 -3.0000 -6.0000
v -2.0000 -4.0000 -6.0000
v -1.0000 -4.0000 -6.0000
v -1.0000 1.0000 -6.0000
v -1.0000 0.0000 -6.0000
v -1.0000 -7.0000 5.0000
v 0.0000 -7.0000 5.0000
v 0.0000 -7.0000 4.0000
v -1.0000 -8.0000 5.0000
v 0.0000 -8.0000 4.0000
v 0.0000 -8.0000 5.0000
v -1.0000 -4.0000 5.0000
v 0.0000 -4.0000 5.0000
v 0.0000 -4.0000 4.0000
v -1.0000 -4.0000 4.0000
v -1.0000 -5.0000 5.0000
v 0.0000 -5.0000 4.0000
v 0.0000 -5.0000 5.0000
v 0.0000 -6.0000 3.0000
v 0.0000 -6.0000 4.0000
v 0.0000 -5.0000 3.0000
v 0.0000 -4.0000 3.0000
v -1.0000 -4.0000 3.0000
v -1.0000 -1.0000 4.0000
v 0.0000 -1.0000 4.0000
v 0.0000 -1.0000 3.0000
v -1.0000 -1.0000 3.0000
v -1.0000 -2.0000 4.0000
v 0.0000 -2.0000 3.0000
v 0.0000 -2.0000 4.0000
v 0.0000 -8.0000 2.0000
v 0.0000 -8.0000 3.0000
v 0.0000 -7.0000 3.0000
v 0.0000 -7.0000 2.0000
v 0.0000 -6.0000 2.0000
v 0.0000 -5.0000 2.0000
v 0.0000 -3.0000 2.0000
v 0.0000 -3.0000 3.0000
v 0.0000 -1.0000 2.0000
v 0.0000 2.0000 3.0000
v 0.0000 2.0000 2.0000
v 0.0000 1.0000 2.0000
v 0.0000 1.0000 3.0000
v 0.0000 6.0000 3.0000
v 0.0000 6.0000 2.0000
v 0.0000 5.0000 2.0000
v 0.0000 5.0000 3.0000
v 0.0000 -8.0000 1.0000
v 0.0000 -4.0000 2.0000
v -1.0000 -4.0000 2.0000
v 0.0000 0.0000 2.0000
v 0.0000 3.0000 2.0000
v 0.0000 4.0000 2.0000
v 0.0000 5.0000 1.0000
v 0.0000 4.0000 1.0000
v 0.0000 -8.0000 -0.0000
v 0.0000 4.0000 -0.0000
v 0.0000 -8.0000 -1.0000
v 0.0000 4.0000 -1.0000
v 0.0000 -8.0000 -2.0000
v -1.0000 -5.0000 -2.0000
v 0.0000 -5.0000 -2.0000
v 0.0000 -6.0000 -2.0000
v -1.0000 -4.0000 -2.0000
v 0.0000 -4.0000 -2.0000
v 0.0000 -3.0000 -2.0000
v 0.0000 0.0000 -2.0000
v 0.0000 -1.0000 -2.0000
v 0.0000 1.0000 -2.0000
v 0.0000 4.0000 -2.0000
v 0.0000 3.0000 -2.0000
v 0.0000 5.0000 -1.0000
v 0.0000 5.0000 -2.0000
v 0.0000 -8.0000 -3.0000
v 0.0000 -6.0000 -3.0000
v 0.0000 -7.0000 -3.0000
v 0.0000 -3.0000 -3.0000
v 0.0000 -2.0000 -3.0000
v 0.0000 -1.0000 -3.0000
v 0.0000 1.0000 -3.0000
v 0.0000 2.0000 -3.0000
v 0.0000 3.0000 -3.0000
v 0.0000 2.0000 -2.0000
v 0.0000 6.0000 -2.0000
v 0.0000 6.0000 -3.0000
v 0.0000 5.0000 -3.0000
v 0.0000 -7.0000 -4.0000
v 0.0000 -8.0000 -4.0000
v -1.0000 -4.0000 -3.0000
v 0.0000 -4.0000 -3.0000
v 0.0000 -4.0000 -4.0000
v -1.0000 -5.0000 -3.0000
v -1.0000 -5.0000 -4.0000
v 0.0000 -5.0000 -4.0000
v 0.0000 -5.0000 -3.0000
v -1.0000 -2.0000 -4.0000
v 0.0000 -2.0000 -4.0000
v 0.0000 -1.0000 -4.0000
v 0.0000 0.0000 -3.0000
v 0.0000 0.0000 -4.0000
v 0.0000 3.0000 -4.0000
v 0.0000 2.0000 -4.0000
v 0.0000 -7.0000 -5.0000
v -1.0000 -7.0000 -5.0000
v -1.0000 -8.0000 -5.0000
v 0.0000 -8.0000 -5.0000
v -1.0000 -5.0000 -5.0000
v 0.0000 -5.0000 -5.0000
v 0.0000 -4.0000 -5.0000
v 0.0000 -3.0000 -4.0000
v 0.0000 -3.0000 -5.0000
v 0.0000 0.0000 -5.0000
v 0.0000 -1.0000 -5.0000
v 0.0000 -7.0000 -6.0000
v -1.0000 -7.0000 -6.0000
v -1.0000 -8.0000 -6.0000
v 0.0000 -8.0000 -6.0000
v 0.0000 -3.0000 -6.0000
v 0.0000 -4.0000 -6.0000
v 0.0000 -7.0000 7.0000
v 1.0000 -7.0000 7.0000
v 1.0000 -7.0000 6.0000
v 0.0000 -7.0000 6.0000
v 0.0000 -8.0000 7.0000
v 0.0000 -8.0000 6.0000
v 1.0000 -8.0000 6.0000
v 1.0000 -8.0000 7.0000
v 1.0000 -7.0000 5.0000
v 1.0000 -8.0000 5.0000
v 0.0000 -3.0000 6.0000
v 1.0000 -3.0000 6.0000
v 1.0000 -3.0000 5.0000
v 0.0000 -3.0000 5.0000
v 0.0000 -4.0000 6.0000
v 1.0000 -4.0000 5.0000
v 1.0000 -4.0000 6.0000
v 1.0000 -7.0000 4.0000
v 1.0000 -8.0000 4.0000
v 1.0000 -5.0000 4.0000
v 1.0000 -5.0000 5.0000
v 1.0000 -4.0000 4.0000
v 1.0000 -3.0000 4.0000
v 0.0000 -3.0000 4.0000
v 0.0000 0.0000 5.0000
v 1.0000 0.0000 5.0000
v 1.0000 0.0000 4.0000
v 0.0000 0.0000 4.0000
v 0.0000 -1.0000 5.0000
v 1.0000 -1.0000 4.0000
v 1.0000 -1.0000 5.0000
v 1.0000 -7.0000 3.0000
v 1.0000 -8.0000 3.0000
v 1.0000 -4.0000 3.0000
v 1.0000 -5.0000 3.0000
v 1.0000 -2.0000 3.0000
v 1.0000 -2.0000 4.0000
v 1.0000 -1.0000 3.0000
v 1.0000 0.0000 3.0000
v 0.0000 0.0000 3.0000
v 0.0000 3.0000 4.0000
v 1.0000 3.0000 4.0000
v 1.0000 3.0000 3.0000
v 0.0000 3.0000 3.0000
v 0.0000 2.0000 4.0000
v 1.0000 2.0000 3.0000
v 1.0000 2.0000 4.0000
v 1.0000 -7.0000 2.0000
v 1.0000 -8.0000 2.0000
v 1.0000 -3.0000 2.0000
v 1.0000 -3.0000 3.0000
v 1.0000 -1.0000 2.0000
v 1.0000 -2.0000 2.0000
v 1.0000 1.0000 2.0000
v 1.0000 1.0000 3.0000
v 1.0000 3.0000 2.0000
v 1.0000 6.0000 3.0000
v 1.0000 6.0000 2.0000
v 1.0000 5.0000 2.0000
v 1.0000 5.0000 3.0000
v 1.0000 -8.0000 1.0000
v 1.0000 -6.0000 2.0000
v 1.0000 -5.0000 2.0000
v 1.0000 -6.0000 1.0000
v 1.0000 -5.0000 1.0000
v 1.0000 -4.0000 2.0000
v 1.0000 -4.0000 1.0000
v 1.0000 -3.0000 1.0000
v 1.0000 -2.0000 1.0000
v 1.0000 -1.0000 1.0000
v 1.0000 0.0000 2.0000
v 1.0000 4.0000 2.0000
v 1.0000 5.0000 1.0000
v 1.0000 4.0000 1.0000
v 1.0000 -8.0000 -0.0000
v 1.0000 -1.0000 -0.0000
v 1.0000 0.0000 -0.0000
v 1.0000 0.0000 1.0000
v 1.0000 4.0000 -0.0000
v 1.0000 -8.0000 -1.0000
v 1.0000 4.0000 -1.0000
v 1.0000 -8.0000 -2.0000
v 1.0000 -6.0000 -1.0000
v 1.0000 -6.0000 -2.0000
v 1.0000 -5.0000 -2.0000
v 1.0000 -5.0000 -1.0000
v 1.0000 -4.0000 -2.0000
v 1.0000 -4.0000 -1.0000
v 1.0000 -3.0000 -2.0000
v 1.0000 -3.0000 -1.0000
v 1.0000 0.0000 -2.0000
v 1.0000 -1.0000 -2.0000
v 1.0000 1.0000 -2.0000
v 1.0000 3.0000 -2.0000
v 1.0000 2.0000 -2.0000
v 1.0000 2.0000 -1.0000
v 1.0000 3.0000 -1.0000
v 1.0000 4.0000 -2.0000
v 1.0000 5.0000 -1.0000
v 1.0000 5.0000 -2.0000
v 1.0000 -8.0000 -3.0000
v 1.0000 -6.0000 -3.0000
v 1.0000 -7.0000 -3.0000
v 1.0000 -5.0000 -3.0000
v 1.0000 -3.0000 -3.0000
v 1.0000 -2.0000 -3.0000
v 1.0000 -1.0000 -3.0000
v 1.0000 -2.0000 -2.0000
v 1.0000 2.0000 -3.0000
v 1.0000 1.0000 -3.0000
v 1.0000 6.0000 -2.0000
v 1.0000 6.0000 -3.0000
v 1.0000 5.0000 -3.0000
v 1.0000 -7.0000 -4.0000
v 1.0000 -8.0000 -4.0000
v 0.0000 -6.0000 -4.0000
v 1.0000 -6.0000 -4.0000
v 1.0000 -5.0000 -4.0000
v 1.0000 -4.0000 -3.0000
v 1.0000 -4.0000 -4.0000
v 1.0000 -1.0000 -4.0000
v 1.0000 -2.0000 -4.0000
v 1.0000 -7.0000 -5.0000
v 1.0000 -8.0000 -5.0000
v 1.0000 -4.0000 -5.0000
v 1.0000 -5.0000 -5.0000
v 1.0000 -7.0000 -6.0000
v 1.0000 -8.0000 -6.0000
v 1.0000 -7.0000 -7.0000
v 0.0000 -7.0000 -7.0000
v 0.0000 -8.0000 -7.0000
v 1.0000 -8.0000 -7.0000
v 2.0000 -3.0000 6.0000
v 2.0000 -3.0000 5.0000
v 2.0000 -4.0000 5.0000
v 2.0000 -4.0000 6.0000
v 1.0000 1.0000 6.0000
v 2.0000 1.0000 6.0000
v 2.0000 1.0000 5.0000
v 1.0000 1.0000 5.0000
v 1.0000 0.0000 6.0000
v 2.0000 0.0000 5.0000
v 2.0000 0.0000 6.0000
v 2.0000 -7.0000 5.0000
v 2.0000 -7.0000 4.0000
v 2.0000 -8.0000 4.0000
v 2.0000 -8.0000 5.0000
v 2.0000 -3.0000 4.0000
v 2.0000 -4.0000 4.0000
v 2.0000 -1.0000 4.0000
v 2.0000 -1.0000 5.0000
v 2.0000 0.0000 4.0000
v 2.0000 1.0000 4.0000
v 1.0000 1.0000 4.0000
v 1.0000 4.0000 5.0000
v 2.0000 4.0000 5.0000
v 2.0000 4.0000 4.0000
v 1.0000 4.0000 4.0000
v 1.0000 3.0000 5.0000
v 2.0000 3.0000 4.0000
v 2.0000 3.0000 5.0000
v 2.0000 -7.0000 3.0000
v 2.0000 -8.0000 3.0000
v 2.0000 0.0000 3.0000
v 2.0000 -1.0000 3.0000
v 2.0000 2.0000 3.0000
v 2.0000 2.0000 4.0000
v 2.0000 3.0000 3.0000
v 2.0000 4.0000 3.0000
v 1.0000 4.0000 3.0000
v 1.0000 7.0000 4.0000
v 2.0000 7.0000 4.0000
v 2.0000 7.0000 3.0000
v 1.0000 7.0000 3.0000
v 1.0000 6.0000 4.0000
v 2.0000 6.0000 3.0000
v 2.0000 6.0000 4.0000
v 2.0000 -7.0000 2.0000
v 2.0000 -8.0000 2.0000
v 2.0000 -2.0000 3.0000
v 2.0000 -2.0000 2.0000
v 2.0000 -3.0000 2.0000
v 2.0000 -3.0000 3.0000
v 2.0000 1.0000 2.0000
v 2.0000 1.0000 3.0000
v 2.0000 2.0000 2.0000
v 2.0000 3.0000 2.0000
v 2.0000 5.0000 2.0000
v 2.0000 5.0000 3.0000
v 2.0000 6.0000 2.0000
v 2.0000 7.0000 2.0000
v 1.0000 7.0000 2.0000
v 2.0000 -8.0000 1.0000
v 2.0000 -6.0000 2.0000
v 2.0000 -6.0000 1.0000
v 2.0000 -2.0000 1.0000
v 2.0000 -3.0000 1.0000
v 2.0000 -1.0000 1.0000
v 2.0000 -1.0000 2.0000
v 2.0000 0.0000 2.0000
v 2.0000 0.0000 1.0000
v 2.0000 1.0000 1.0000
v 2.0000 2.0000 1.0000
v 2.0000 3.0000 1.0000
v 2.0000 4.0000 2.0000
v 2.0000 4.0000 1.0000
v 2.0000 5.0000 1.0000
v 2.0000 6.0000 1.0000
v 1.0000 6.0000 1.0000
v 2.0000 -8.0000 -0.0000
v 2.0000 -5.0000 1.0000
v 2.0000 -4.0000 1.0000
v 2.0000 -5.0000 -0.0000
v 2.0000 -4.0000 -0.0000
v 2.0000 -3.0000 -0.0000
v 2.0000 -1.0000 -0.0000
v 2.0000 0.0000 -0.0000
v 2.0000 1.0000 -0.0000
v 2.0000 2.0000 -0.0000
v 2.0000 3.0000 -0.0000
v 2.0000 4.0000 -0.0000
v 2.0000 5.0000 -0.0000
v 1.0000 5.0000 -0.0000
v 2.0000 -8.0000 -1.0000
v 2.0000 -5.0000 -1.0000
v 2.0000 -6.0000 -1.0000
v 2.0000 -6.0000 -0.0000
v 2.0000 -4.0000 -1.0000
v 2.0000 -3.0000 -1.0000
v 2.0000 -1.0000 -1.0000
v 2.0000 0.0000 -1.0000
v 2.0000 1.0000 -1.0000
v 2.0000 3.0000 -1.0000
v 2.0000 2.0000 -1.0000
v 2.0000 4.0000 -1.0000
v 2.0000 5.0000 -1.0000
v 2.0000 -8.0000 -2.0000
v 2.0000 -6.0000 -2.0000
v 2.0000 -3.0000 -2.0000
v 2.0000 -1.0000 -2.0000
v 2.0000 -2.0000 -2.0000
v 2.0000 -2.0000 -1.0000
v 2.0000 0.0000 -2.0000
v 2.0000 1.0000 -2.0000
v 2.0000 2.0000 -2.0000
v 2.0000 3.0000 -2.0000
v 2.0000 4.0000 -2.0000
v 2.0000 5.0000 -2.0000
v 1.0000 6.0000 -1.0000
v 2.0000 6.0000 -1.0000
v 2.0000 6.0000 -2.0000
v 2.0000 -8.0000 -3.0000
v 2.0000 -6.0000 -3.0000
v 2.0000 -7.0000 -3.0000
v 2.0000 -7.0000 -2.0000
v 2.0000 -5.0000 -2.0000
v 2.0000 -5.0000 -3.0000
v 2.0000 -2.0000 -3.0000
v 2.0000 -3.0000 -3.0000
v 2.0000 2.0000 -3.0000
v 2.0000 1.0000 -3.0000
v 2.0000 6.0000 -3.0000
v 2.0000 5.0000 -3.0000
v 2.0000 -7.0000 -4.0000
v 2.0000 -8.0000 -4.0000
v 2.0000 -5.0000 -4.0000
v 2.0000 -6.0000 -4.0000
v 3.0000 1.0000 6.0000
v 3.0000 1.0000 5.0000
v 3.0000 0.0000 5.0000
v 3.0000 0.0000 6.0000
v 2.0000 5.0000 6.0000
v 3.0000 5.0000 6.0000
v 3.0000 5.0000 5.0000
v 2.0000 5.0000 5.0000
v 2.0000 4.0000 6.0000
v 3.0000 4.0000 5.0000
v 3.0000 4.0000 6.0000
v 3.0000 1.0000 4.0000
v 3.0000 0.0000 4.0000
v 3.0000 3.0000 4.0000
v 3.0000 3.0000 5.0000
v 3.0000 4.0000 4.0000
v 3.0000 5.0000 4.0000
v 2.0000 5.0000 4.0000
v 2.0000 8.0000 5.0000
v 3.0000 8.0000 5.0000
v 3.0000 8.0000 4.0000
v 2.0000 8.0000 4.0000
v 2.0000 7.0000 5.0000
v 3.0000 7.0000 4.0000
v 3.0000 7.0000 5.0000
v 3.0000 4.0000 3.0000
v 3.0000 3.0000 3.0000
v 3.0000 6.0000 3.0000
v 3.0000 6.0000 4.0000
v 3.0000 7.0000 3.0000
v 3.0000 8.0000 3.0000
v 2.0000 8.0000 3.0000
v 3.0000 -7.0000 3.0000
v 3.0000 -7.0000 2.0000
v 3.0000 -8.0000 2.0000
v 3.0000 -8.0000 3.0000
v 3.0000 7.0000 2.0000
v 3.0000 6.0000 2.0000
v 3.0000 -8.0000 1.0000
v 3.0000 -6.0000 2.0000
v 3.0000 -7.0000 1.0000
v 3.0000 -6.0000 1.0000
v 2.0000 -5.0000 2.0000
v 3.0000 -5.0000 2.0000
v 3.0000 -5.0000 1.0000
v 3.0000 -2.0000 2.0000
v 3.0000 -2.0000 1.0000
v 3.0000 -3.0000 1.0000
v 3.0000 -3.0000 2.0000
v 3.0000 2.0000 2.0000
v 3.0000 2.0000 1.0000
v 3.0000 1.0000 1.0000
v 3.0000 1.0000 2.0000
v 3.0000 6.0000 1.0000
v 3.0000 5.0000 1.0000
v 3.0000 5.0000 2.0000
v 3.0000 -8.0000 -0.0000
v 3.0000 -7.0000 -0.0000
v 3.0000 -6.0000 -0.0000
v 3.0000 -5.0000 -0.0000
v 3.0000 -3.0000 -0.0000
v 3.0000 -2.0000 -0.0000
v 3.0000 -1.0000 1.0000
v 3.0000 -1.0000 -0.0000
v 3.0000 2.0000 -0.0000
v 3.0000 1.0000 -0.0000
v 3.0000 6.0000 -0.0000
v 2.0000 6.0000 -0.0000
v 3.0000 5.0000 -0.0000
v 3.0000 -8.0000 -1.0000
v 3.0000 -6.0000 -1.0000
v 3.0000 -3.0000 -1.0000
v 3.0000 -2.0000 -1.0000
v 3.0000 -1.0000 -1.0000
v 3.0000 1.0000 -1.0000
v 3.0000 2.0000 -1.0000
v 3.0000 3.0000 -0.0000
v 3.0000 3.0000 -1.0000
v 3.0000 6.0000 -1.0000
v 3.0000 5.0000 -1.0000
v 3.0000 -8.0000 -2.0000
v 3.0000 -6.0000 -2.0000
v 3.0000 -7.0000 -2.0000
v 3.0000 -2.0000 -2.0000
v 3.0000 -3.0000 -2.0000
v 3.0000 1.0000 -2.0000
v 3.0000 2.0000 -2.0000
v 3.0000 3.0000 -2.0000
v 3.0000 5.0000 -2.0000
v 3.0000 6.0000 -2.0000
v 2.0000 7.0000 -1.0000
v 3.0000 7.0000 -1.0000
v 3.0000 7.0000 -2.0000
v 2.0000 7.0000 -2.0000
v 3.0000 -7.0000 -3.0000
v 3.0000 -8.0000 -3.0000
v 3.0000 7.0000 -3.0000
v 2.0000 7.0000 -3.0000
v 3.0000 6.0000 -3.0000
v 4.0000 5.0000 6.0000
v 4.0000 5.0000 5.0000
v 4.0000 4.0000 5.0000
v 4.0000 4.0000 6.0000
v 4.0000 5.0000 4.0000
v 4.0000 4.0000 4.0000
v 4.0000 8.0000 5.0000
v 4.0000 8.0000 4.0000
v 4.0000 7.0000 4.0000
v 4.0000 7.0000 5.0000
v 4.0000 8.0000 3.0000
v 4.0000 7.0000 3.0000
v 4.0000 -7.0000 2.0000
v 4.0000 -7.0000 1.0000
v 4.0000 -8.0000 1.0000
v 4.0000 -8.0000 2.0000
v 4.0000 -5.0000 2.0000
v 4.0000 -5.0000 1.0000
v 4.0000 -6.0000 1.0000
v 4.0000 -6.0000 2.0000
v 4.0000 -7.0000 -0.0000
v 4.0000 -8.0000 -0.0000
v 4.0000 -6.0000 -0.0000
v 4.0000 -5.0000 -0.0000
v 3.0000 -4.0000 1.0000
v 4.0000 -4.0000 1.0000
v 4.0000 -4.0000 -0.0000
v 3.0000 -4.0000 -0.0000
v 4.0000 -1.0000 1.0000
v 4.0000 -1.0000 -0.0000
v 4.0000 -2.0000 -0.0000
v 4.0000 -2.0000 1.0000
v 4.0000 -8.0000 -1.0000
v 4.0000 -6.0000 -1.0000
v 4.0000 -7.0000 -1.0000
v 4.0000 -4.0000 -1.0000
v 3.0000 -4.0000 -1.0000
v 3.0000 -5.0000 -1.0000
v 4.0000 -5.0000 -1.0000
v 4.0000 -2.0000 -1.0000
v 4.0000 -1.0000 -1.0000
v 3.0000 0.0000 -0.0000
v 4.0000 0.0000 -0.0000
v 4.0000 0.0000 -1.0000
v 3.0000 0.0000 -1.0000
v 4.0000 3.0000 -0.0000
v 4.0000 3.0000 -1.0000
v 4.0000 2.0000 -1.0000
v 4.0000 2.0000 -0.0000
v 4.0000 -8.0000 -2.0000
v 4.0000 -6.0000 -2.0000
v 4.0000 -7.0000 -2.0000
v 4.0000 0.0000 -2.0000
v 3.0000 0.0000 -2.0000
v 3.0000 -1.0000 -2.0000
v 4.0000 -1.0000 -2.0000
v 4.0000 2.0000 -2.0000
v 4.0000 3.0000 -2.0000
v 3.0000 4.0000 -1.0000
v 4.0000 4.0000 -1.0000
v 4.0000 4.0000 -2.0000
v 3.0000 4.0000 -2.0000
v 4.0000 7.0000 -1.0000
v 4.0000 7.0000 -2.0000
v 4.0000 6.0000 -2.0000
v 4.0000 6.0000 -1.0000
v 4.0000 -7.0000 -3.0000
v 4.0000 -8.0000 -3.0000
v 4.0000 4.0000 -3.0000
v 3.0000 4.0000 -3.0000
v 3.0000 3.0000 -3.0000
v 4.0000 3.0000 -3.0000
v 4.0000 6.0000 -3.0000
v 4.0000 7.0000 -3.0000
v 3.0000 8.0000 -2.0000
v 4.0000 8.0000 -2.0000
v 4.0000 8.0000 -3.0000
v 3.0000 8.0000 -3.0000
v 4.0000 8.0000 -4.0000
v 3.0000 8.0000 -4.0000
v 3.0000 7.0000 -4.0000
v 4.0000 7.0000 -4.0000
v 5.0000 -7.0000 1.0000
v 5.0000 -7.0000 -0.0000
v 5.0000 -8.0000 -0.0000
v 5.0000 -8.0000 1.0000
v 5.0000 -4.0000 1.0000
v 5.0000 -4.0000 -0.0000
v 5.0000 -5.0000 -0.0000
v 5.0000 -5.0000 1.0000
v 5.0000 -7.0000 -1.0000
v 5.0000 -8.0000 -1.0000
v 5.0000 -5.0000 -1.0000
v 5.0000 -4.0000 -1.0000
v 4.0000 -3.0000 -0.0000
v 5.0000 -3.0000 -0.0000
v 5.0000 -3.0000 -1.0000
v 4.0000 -3.0000 -1.0000
v 5.0000 0.0000 -0.0000
v 5.0000 0.0000 -1.0000
v 5.0000 -1.0000 -1.0000
v 5.0000 -1.0000 -0.0000
v 5.0000 -7.0000 -2.0000
v 5.0000 -8.0000 -2.0000
v 5.0000 -3.0000 -2.0000
v 4.0000 -3.0000 -2.0000
v 4.0000 -4.0000 -2.0000
v 5.0000 -4.0000 -2.0000
v 5.0000 -1.0000 -2.0000
v 5.0000 0.0000 -2.0000
v 4.0000 1.0000 -1.0000
v 5.0000 1.0000 -1.0000
v 5.0000 1.0000 -2.0000
v 4.0000 1.0000 -2.0000
v 5.0000 4.0000 -1.0000
v 5.0000 4.0000 -2.0000
v 5.0000 3.0000 -2.0000
v 5.0000 3.0000 -1.0000
v 5.0000 1.0000 -3.0000
v 4.0000 1.0000 -3.0000
v 4.0000 0.0000 -3.0000
v 5.0000 0.0000 -3.0000
v 5.0000 3.0000 -3.0000
v 5.0000 4.0000 -3.0000
v 4.0000 5.0000 -2.0000
v 5.0000 5.0000 -2.0000
v 5.0000 5.0000 -3.0000
v 4.0000 5.0000 -3.0000
v 5.0000 8.0000 -2.0000
v 5.0000 8.0000 -3.0000
v 5.0000 7.0000 -3.0000
v 5.0000 7.0000 -2.0000
v 5.0000 5.0000 -4.0000
v 4.0000 5.0000 -4.0000
v 4.0000 4.0000 -4.0000
v 5.0000 4.0000 -4.0000
v 5.0000 8.0000 -4.0000
v 5.0000 7.0000 -4.0000
v 5.0000 -7.0000 2.0000
v 6.0000 -7.0000 2.0000
v 6.0000 -7.0000 1.0000
v 5.0000 -8.0000 2.0000
v 6.0000 -8.0000 1.0000
v 6.0000 -8.0000 2.0000
v 6.0000 -8.0000 -0.0000
v 5.0000 -6.0000 1.0000
v 6.0000 -6.0000 1.0000
v 6.0000 -6.0000 -0.0000
v 5.0000 -6.0000 -0.0000
v 6.0000 -7.0000 -0.0000
v 6.0000 -7.0000 -1.0000
v 6.0000 -8.0000 -1.0000
v 6.0000 -3.0000 -0.0000
v 6.0000 -3.0000 -1.0000
v 6.0000 -4.0000 -1.0000
v 6.0000 -4.0000 -0.0000
v 6.0000 -7.0000 -2.0000
v 6.0000 -8.0000 -2.0000
v 6.0000 -3.0000 -2.0000
v 6.0000 -4.0000 -2.0000
v 6.0000 1.0000 -1.0000
v 6.0000 1.0000 -2.0000
v 6.0000 0.0000 -2.0000
v 6.0000 0.0000 -1.0000
v 6.0000 1.0000 -3.0000
v 6.0000 0.0000 -3.0000
v 6.0000 5.0000 -2.0000
v 6.0000 5.0000 -3.0000
v 6.0000 4.0000 -3.0000
v 6.0000 4.0000 -2.0000
v 6.0000 5.0000 -4.0000
v 6.0000 4.0000 -4.0000
v 7.0000 -7.0000 1.0000
v 7.0000 -7.0000 -0.0000
v 7.0000 -8.0000 -0.0000
v 7.0000 -8.0000 1.0000
vt 0.001953 0.500000
vt 0.005859 0.500000
vt 0.009766 0.500000
vt 0.013672 0.500000
vt 0.017578 0.500000
vt 0.021484 0.500000
vn 0.0 -1.0 0.0
vn 0.0 1.0 0.0
vn 0.0 0.0 1.0
vn 0.0 0.0 -1.0
vn -1.0 0.0 0.0
vn 1.0 0.0 0.0
usemtl mat_Boss_Boss_Suculentas_fase_3
s off
f 1/1/2 2/1/2 3/1/2 4/1/2
f 5/1/1 6/1/1 7/1/1 8/1/1
f 5/1/3 8/1/3 2/1/3 1/1/3
f 6/1/4 4/1/4 3/1/4 7/1/4
f 5/1/5 1/1/5 4/1/5 6/1/5
f 9/1/2 10/1/2 11/1/2 12/1/2
f 13/1/1 14/1/1 15/1/1 16/1/1
f 13/1/3 16/1/3 10/1/3 9/1/3
f 14/1/4 12/1/4 11/1/4 15/1/4
f 16/1/6 15/1/6 11/1/6 10/1/6
f 13/1/5 9/1/5 12/1/5 14/1/5
f 17/2/2 18/2/2 19/2/2 20/2/2
f 21/2/1 22/2/1 23/2/1 24/2/1
f 21/2/3 24/2/3 18/2/3 17/2/3
f 21/2/5 17/2/5 20/2/5 22/2/5
f 25/2/2 26/2/2 27/2/2 28/2/2
f 29/2/1 30/2/1 31/2/1 32/2/1
f 29/2/3 32/2/3 26/2/3 25/2/3
f 29/2/5 25/2/5 28/2/5 30/2/5
f 20/3/2 19/3/2 33/3/2 34/3/2
f 22/3/1 35/3/1 36/3/1 23/3/1
f 35/3/4 34/3/4 33/3/4 36/3/4
f 22/3/5 20/3/5 34/3/5 35/3/5
f 37/4/2 38/4/2 39/4/2 2/4/2
f 40/4/1 8/4/1 41/4/1 42/4/1
f 40/4/3 42/4/3 38/4/3 37/4/3
f 40/4/5 37/4/5 2/4/5 8/4/5
f 43/2/2 44/2/2 45/2/2 46/2/2
f 47/2/1 48/2/1 49/2/1 50/2/1
f 47/2/3 50/2/3 44/2/3 43/2/3
f 47/2/5 43/2/5 46/2/5 48/2/5
f 28/3/2 27/3/2 51/3/2 52/3/2
f 30/3/1 53/3/1 54/3/1 31/3/1
f 53/3/4 52/3/4 51/3/4 54/3/4
f 30/3/5 28/3/5 52/3/5 53/3/5
f 2/1/2 39/1/2 55/1/2 3/1/2
f 8/1/1 7/1/1 56/1/1 41/1/1
f 46/3/2 45/3/2 57/3/2 58/3/2
f 48/3/1 59/3/1 60/3/1 49/3/1
f 59/3/4 58/3/4 57/3/4 60/3/4
f 48/3/5 46/3/5 58/3/5 59/3/5
f 3/4/2 55/4/2 61/4/2 62/4/2
f 7/4/1 63/4/1 64/4/1 56/4/1
f 63/4/4 62/4/4 61/4/4 64/4/4
f 7/4/5 3/4/5 62/4/5 63/4/5
f 11/1/2 65/1/2 66/1/2 67/1/2
f 15/1/1 68/1/1 69/1/1 70/1/1
f 15/1/3 70/1/3 65/1/3 11/1/3
f 68/1/4 67/1/4 66/1/4 69/1/4
f 70/1/6 69/1/6 66/1/6 65/1/6
f 15/1/5 11/1/5 67/1/5 68/1/5
f 18/3/2 71/3/2 72/3/2 19/3/2
f 24/3/1 23/3/1 73/3/1 74/3/1
f 24/3/3 74/3/3 71/3/3 18/3/3
f 74/3/6 73/3/6 72/3/6 71/3/6
f 75/2/2 76/2/2 77/2/2 78/2/2
f 79/2/1 80/2/1 81/2/1 82/2/1
f 79/2/3 82/2/3 76/2/3 75/2/3
f 79/2/5 75/2/5 78/2/5 80/2/5
f 26/3/2 83/3/2 84/3/2 27/3/2
f 32/3/1 31/3/1 85/3/1 86/3/1
f 32/3/3 86/3/3 83/3/3 26/3/3
f 86/3/6 85/3/6 84/3/6 83/3/6
f 87/5/1 88/5/1 89/5/1 90/5/1
f 87/5/3 90/5/3 73/5/3 23/5/3
f 87/5/5 23/5/5 36/5/5 88/5/5
f 19/6/2 72/6/2 91/6/2 33/6/2
f 36/6/4 33/6/4 91/6/4 92/6/4
f 73/6/6 92/6/6 91/6/6 72/6/6
f 78/3/2 77/3/2 93/3/2 94/3/2
f 80/3/1 95/3/1 96/3/1 81/3/1
f 95/3/4 94/3/4 93/3/4 96/3/4
f 80/3/5 78/3/5 94/3/5 95/3/5
f 38/1/2 97/1/2 98/1/2 39/1/2
f 42/1/1 41/1/1 99/1/1 100/1/1
f 42/1/3 100/1/3 97/1/3 38/1/3
f 44/3/2 101/3/2 102/3/2 45/3/2
f 50/3/1 49/3/1 103/3/1 104/3/1
f 50/3/3 104/3/3 101/3/3 44/3/3
f 104/3/6 103/3/6 102/3/6 101/3/6
f 105/6/1 106/6/1 107/6/1 108/6/1
f 105/6/3 108/6/3 85/6/3 31/6/3
f 105/6/5 31/6/5 54/6/5 106/6/5
f 27/5/2 84/5/2 109/5/2 51/5/2
f 54/5/4 51/5/4 109/5/4 110/5/4
f 85/5/6 110/5/6 109/5/6 84/5/6
f 36/5/2 92/5/2 111/5/2 112/5/2
f 88/5/1 113/5/1 114/5/1 89/5/1
f 113/5/4 112/5/4 111/5/4 114/5/4
f 88/5/5 36/5/5 112/5/5 113/5/5
f 41/1/1 56/1/1 115/1/1 99/1/1
f 116/4/2 117/4/2 118/4/2 119/4/2
f 39/4/3 98/4/3 117/4/3 116/4/3
f 55/4/4 119/4/4 118/4/4 120/4/4
f 39/4/5 116/4/5 119/4/5 55/4/5
f 121/5/1 122/5/1 123/5/1 124/5/1
f 121/5/3 124/5/3 103/5/3 49/5/3
f 121/5/5 49/5/5 60/5/5 122/5/5
f 45/5/2 102/5/2 125/5/2 57/5/2
f 60/5/4 57/5/4 125/5/4 126/5/4
f 103/5/6 126/5/6 125/5/6 102/5/6
f 54/5/2 110/5/2 127/5/2 128/5/2
f 106/5/1 129/5/1 130/5/1 107/5/1
f 129/5/4 128/5/4 127/5/4 130/5/4
f 106/5/5 54/5/5 128/5/5 129/5/5
f 55/1/2 120/1/2 131/1/2 61/1/2
f 56/1/1 64/1/1 132/1/1 115/1/1
f 60/6/2 126/6/2 133/6/2 134/6/2
f 122/6/1 135/6/1 136/6/1 123/6/1
f 135/6/4 134/6/4 133/6/4 136/6/4
f 122/6/5 60/6/5 134/6/5 135/6/5
f 61/1/2 131/1/2 137/1/2 138/1/2
f 64/1/1 139/1/1 140/1/1 132/1/1
f 139/1/4 138/1/4 137/1/4 140/1/4
f 64/1/5 61/1/5 138/1/5 139/1/5
f 76/3/2 141/3/2 142/3/2 77/3/2
f 82/3/1 81/3/1 143/3/1 144/3/1
f 82/3/3 144/3/3 141/3/3 76/3/3
f 144/3/6 143/3/6 142/3/6 141/3/6
f 66/4/2 145/4/2 146/4/2 97/4/2
f 69/4/1 100/4/1 147/4/1 148/4/1
f 69/4/3 148/4/3 145/4/3 66/4/3
f 69/4/5 66/4/5 97/4/5 100/4/5
f 73/5/2 149/5/2 150/5/2 92/5/2
f 90/5/1 89/5/1 151/5/1 152/5/1
f 90/5/3 152/5/3 149/5/3 73/5/3
f 152/5/6 151/5/6 150/5/6 149/5/6
f 153/6/1 154/6/1 155/6/1 156/6/1
f 153/6/3 156/6/3 143/6/3 81/6/3
f 153/6/5 81/6/5 96/6/5 154/6/5
f 77/5/2 142/5/2 157/5/2 93/5/2
f 96/5/4 93/5/4 157/5/4 158/5/4
f 143/5/6 158/5/6 157/5/6 142/5/6
f 100/1/1 99/1/1 159/1/1 147/1/1
f 160/4/2 161/4/2 162/4/2 117/4/2
f 97/4/3 146/4/3 161/4/3 160/4/3
f 146/4/6 163/4/6 162/4/6 161/4/6
f 97/4/5 160/4/5 117/4/5 98/4/5
f 85/6/2 164/6/2 165/6/2 110/6/2
f 108/6/1 107/6/1 166/6/1 167/6/1
f 108/6/3 167/6/3 164/6/3 85/6/3
f 167/6/6 166/6/6 165/6/6 164/6/6
f 168/5/1 169/5/1 170/5/1 171/5/1
f 168/5/3 171/5/3 151/5/3 89/5/3
f 168/5/5 89/5/5 114/5/5 169/5/5
f 92/5/2 150/5/2 172/5/2 111/5/2
f 114/5/4 111/5/4 172/5/4 173/5/4
f 151/5/6 173/5/6 172/5/6 150/5/6
f 96/6/2 158/6/2 174/6/2 175/6/2
f 154/6/1 176/6/1 177/6/1 155/6/1
f 176/6/4 175/6/4 174/6/4 177/6/4
f 154/6/5 96/6/5 175/6/5 176/6/5
f 99/1/1 115/1/1 178/1/1 159/1/1
f 120/1/4 118/1/4 179/1/4 180/1/4
f 117/4/3 162/4/3 181/4/3 124/4/3
f 162/4/6 179/4/6 182/4/6 181/4/6
f 117/4/5 124/4/5 123/4/5 118/4/5
f 103/5/2 183/5/2 184/5/2 126/5/2
f 124/5/3 181/5/3 183/5/3 103/5/3
f 181/5/6 182/5/6 184/5/6 183/5/6
f 185/6/1 186/6/1 187/6/1 188/6/1
f 185/6/3 188/6/3 166/6/3 107/6/3
f 185/6/5 107/6/5 130/6/5 186/6/5
f 110/5/2 165/5/2 189/5/2 127/5/2
f 130/5/4 127/5/4 189/5/4 190/5/4
f 166/5/6 190/5/6 189/5/6 165/5/6
f 114/5/2 173/5/2 191/5/2 192/5/2
f 169/5/1 193/5/1 194/5/1 170/5/1
f 193/5/4 192/5/4 191/5/4 194/5/4
f 169/5/5 114/5/5 192/5/5 193/5/5
f 120/4/2 180/4/2 195/4/2 131/4/2
f 115/4/1 132/4/1 196/4/1 178/4/1
f 118/5/1 197/5/1 198/5/1 179/5/1
f 118/5/5 123/5/5 136/5/5 197/5/5
f 126/6/2 184/6/2 199/6/2 133/6/2
f 136/6/4 133/6/4 199/6/4 200/6/4
f 182/6/6 200/6/6 199/6/6 184/6/6
f 130/5/2 190/5/2 201/5/2 202/5/2
f 186/5/1 203/5/1 204/5/1 187/5/1
f 203/5/4 202/5/4 201/5/4 204/5/4
f 186/5/5 130/5/5 202/5/5 203/5/5
f 131/1/2 195/1/2 205/1/2 137/1/2
f 132/1/1 140/1/1 206/1/1 196/1/1
f 140/1/4 137/1/4 205/1/4 206/1/4
f 136/6/2 200/6/2 207/6/2 208/6/2
f 197/6/1 209/6/1 210/6/1 198/6/1
f 209/6/4 208/6/4 207/6/4 210/6/4
f 197/6/5 136/6/5 208/6/5 209/6/5
f 211/3/2 212/3/2 213/3/2 214/3/2
f 215/3/1 216/3/1 217/3/1 218/3/1
f 215/3/3 218/3/3 212/3/3 211/3/3
f 215/3/5 211/3/5 214/3/5 216/3/5
f 219/3/2 220/3/2 221/3/2 222/3/2
f 223/3/1 224/3/1 225/3/1 226/3/1
f 223/3/3 226/3/3 220/3/3 219/3/3
f 223/3/5 219/3/5 222/3/5 224/3/5
f 214/2/2 213/2/2 227/2/2 228/2/2
f 216/2/1 229/2/1 230/2/1 217/2/1
f 229/2/4 228/2/4 227/2/4 230/2/4
f 216/2/5 214/2/5 228/2/5 229/2/5
f 222/2/2 221/2/2 231/2/2 232/2/2
f 224/2/1 233/2/1 234/2/1 225/2/1
f 233/2/4 232/2/4 231/2/4 234/2/4
f 224/2/5 222/2/5 232/2/5 233/2/5
f 145/1/2 235/1/2 236/1/2 146/1/2
f 148/1/1 147/1/1 237/1/1 238/1/1
f 148/1/3 238/1/3 235/1/3 145/1/3
f 143/6/2 239/6/2 240/6/2 158/6/2
f 156/6/1 155/6/1 241/6/1 242/6/1
f 156/6/3 242/6/3 239/6/3 143/6/3
f 242/6/6 241/6/6 240/6/6 239/6/6
f 146/6/2 236/6/2 243/6/2 163/6/2
f 147/6/1 159/6/1 244/6/1 237/6/1
f 245/6/2 246/6/2 247/6/2 188/6/2
f 248/6/1 249/6/1 250/6/1 251/6/1
f 248/6/3 251/6/3 246/6/3 245/6/3
f 248/6/5 245/6/5 188/6/5 249/6/5
f 252/6/1 253/6/1 254/6/1 255/6/1
f 252/6/3 255/6/3 256/6/3 171/6/3
f 252/6/5 171/6/5 170/6/5 253/6/5
f 151/5/2 257/5/2 258/5/2 173/5/2
f 171/5/3 256/5/3 257/5/3 151/5/3
f 256/5/6 259/5/6 258/5/6 257/5/6
f 260/5/1 261/5/1 262/5/1 263/5/1
f 260/5/3 263/5/3 241/5/3 155/5/3
f 260/5/5 155/5/5 177/5/5 261/5/5
f 158/6/2 240/6/2 264/6/2 174/6/2
f 177/6/4 174/6/4 264/6/4 265/6/4
f 241/6/6 265/6/6 264/6/6 240/6/6
f 159/6/1 178/6/1 266/6/1 244/6/1
f 162/6/2 267/6/2 268/6/2 179/6/2
f 163/6/3 243/6/3 267/6/3 162/6/3
f 249/6/1 269/6/1 270/6/1 250/6/1
f 249/6/5 188/6/5 187/6/5 269/6/5
f 166/6/2 271/6/2 272/6/2 190/6/2
f 188/6/3 247/6/3 271/6/3 166/6/3
f 253/6/1 273/6/1 274/6/1 254/6/1
f 253/6/5 170/6/5 194/6/5 273/6/5
f 173/5/2 258/5/2 275/5/2 191/5/2
f 194/5/4 191/5/4 275/5/4 276/5/4
f 177/6/2 265/6/2 277/6/2 278/6/2
f 261/6/1 279/6/1 280/6/1 262/6/1
f 262/6/6 280/6/6 277/6/6 265/6/6
f 261/6/5 177/6/5 278/6/5 279/6/5
f 178/6/1 196/6/1 281/6/1 266/6/1
f 180/6/5 179/6/5 198/6/5 195/6/5
f 182/6/2 282/6/2 283/6/2 200/6/2
f 179/6/3 268/6/3 282/6/3 182/6/3
f 269/5/1 284/5/1 285/5/1 270/5/1
f 269/5/5 187/5/5 204/5/5 284/5/5
f 190/5/2 272/5/2 286/5/2 201/5/2
f 204/5/4 201/5/4 286/5/4 287/5/4
f 194/5/2 276/5/2 288/5/2 289/5/2
f 273/5/1 290/5/1 291/5/1 274/5/1
f 273/5/5 194/5/5 289/5/5 290/5/5
f 278/5/2 277/5/2 292/5/2 293/5/2
f 279/5/1 294/5/1 295/5/1 280/5/1
f 280/5/6 295/5/6 292/5/6 277/5/6
f 279/5/5 278/5/5 293/5/5 294/5/5
f 196/5/1 206/5/1 296/5/1 281/5/1
f 205/5/4 210/5/4 297/5/4 298/5/4
f 195/5/5 198/5/5 210/5/5 205/5/5
f 200/6/2 283/6/2 299/6/2 207/6/2
f 210/6/4 207/6/4 299/6/4 297/6/4
f 300/6/6 297/6/6 299/6/6 283/6/6
f 204/6/2 287/6/2 301/6/2 302/6/2
f 284/6/1 303/6/1 304/6/1 285/6/1
f 303/6/4 302/6/4 301/6/4 304/6/4
f 284/6/5 204/6/5 302/6/5 303/6/5
f 289/6/2 288/6/2 305/6/2 306/6/2
f 290/6/1 307/6/1 308/6/1 291/6/1
f 307/6/4 306/6/4 305/6/4 308/6/4
f 290/6/5 289/6/5 306/6/5 307/6/5
f 293/5/2 292/5/2 309/5/2 310/5/2
f 294/5/1 311/5/1 312/5/1 295/5/1
f 311/5/4 310/5/4 309/5/4 312/5/4
f 294/5/5 293/5/5 310/5/5 311/5/5
f 205/1/2 298/1/2 313/1/2 314/1/2
f 206/1/1 315/1/1 316/1/1 296/1/1
f 315/1/4 314/1/4 313/1/4 316/1/4
f 206/1/5 205/1/5 314/1/5 315/1/5
f 317/5/2 318/5/2 319/5/2 218/5/2
f 310/5/1 320/5/1 321/5/1 309/5/1
f 310/5/3 309/5/3 318/5/3 317/5/3
f 310/5/5 317/5/5 218/5/5 320/5/5
f 322/6/2 323/6/2 324/6/2 226/6/2
f 325/6/1 326/6/1 327/6/1 328/6/1
f 325/6/3 328/6/3 323/6/3 322/6/3
f 325/6/5 322/6/5 226/6/5 326/6/5
f 320/5/1 329/5/1 330/5/1 321/5/1
f 329/5/4 217/5/4 331/5/4 330/5/4
f 320/5/5 218/5/5 217/5/5 329/5/5
f 212/5/2 332/5/2 333/5/2 213/5/2
f 218/5/3 319/5/3 332/5/3 212/5/3
f 319/5/6 331/5/6 333/5/6 332/5/6
f 334/3/2 335/3/2 336/3/2 337/3/2
f 338/3/1 339/3/1 340/3/1 341/3/1
f 338/3/3 341/3/3 335/3/3 334/3/3
f 338/3/5 334/3/5 337/3/5 339/3/5
f 326/6/1 342/6/1 343/6/1 327/6/1
f 342/6/4 225/6/4 344/6/4 343/6/4
f 326/6/5 226/6/5 225/6/5 342/6/5
f 220/5/2 345/5/2 346/5/2 221/5/2
f 226/5/3 324/5/3 345/5/3 220/5/3
f 324/5/6 344/5/6 346/5/6 345/5/6
f 213/3/2 333/3/2 347/3/2 227/3/2
f 217/3/1 230/3/1 348/3/1 331/3/1
f 230/3/4 227/3/4 347/3/4 348/3/4
f 331/3/6 348/3/6 347/3/6 333/3/6
f 337/2/2 336/2/2 349/2/2 350/2/2
f 339/2/1 351/2/1 352/2/1 340/2/1
f 351/2/4 350/2/4 349/2/4 352/2/4
f 339/2/5 337/2/5 350/2/5 351/2/5
f 221/3/2 346/3/2 353/3/2 231/3/2
f 225/3/1 234/3/1 354/3/1 344/3/1
f 234/3/4 231/3/4 353/3/4 354/3/4
f 344/3/6 354/3/6 353/3/6 346/3/6
f 355/1/2 356/1/2 357/1/2 235/1/2
f 358/1/1 238/1/1 359/1/1 360/1/1
f 358/1/3 360/1/3 356/1/3 355/1/3
f 360/1/6 359/1/6 357/1/6 356/1/6
f 358/1/5 355/1/5 235/1/5 238/1/5
f 361/6/2 362/6/2 363/6/2 364/6/2
f 365/6/1 366/6/1 367/6/1 368/6/1
f 365/6/3 368/6/3 362/6/3 361/6/3
f 365/6/5 361/6/5 364/6/5 366/6/5
f 238/6/1 237/6/1 369/6/1 359/6/1
f 235/6/3 357/6/3 367/6/3 366/6/3
f 235/6/5 366/6/5 370/6/5 236/6/5
f 364/6/2 363/6/2 371/6/2 372/6/2
f 370/6/4 372/6/4 371/6/4 373/6/4
f 366/6/5 364/6/5 372/6/5 370/6/5
f 374/6/2 375/6/2 376/6/2 246/6/2
f 377/6/1 251/6/1 378/6/1 379/6/1
f 377/6/3 379/6/3 375/6/3 374/6/3
f 377/6/5 374/6/5 246/6/5 251/6/5
f 380/6/2 381/6/2 382/6/2 256/6/2
f 383/6/1 255/6/1 384/6/1 385/6/1
f 383/6/3 385/6/3 381/6/3 380/6/3
f 383/6/5 380/6/5 256/6/5 255/6/5
f 242/6/2 386/6/2 387/6/2 241/6/2
f 388/6/1 263/6/1 389/6/1 390/6/1
f 388/6/3 390/6/3 386/6/3 242/6/3
f 388/6/5 242/6/5 241/6/5 263/6/5
f 237/6/1 244/6/1 391/6/1 369/6/1
f 370/6/2 373/6/2 392/6/2 267/6/2
f 236/6/5 370/6/5 267/6/5 243/6/5
f 251/6/1 250/6/1 393/6/1 378/6/1
f 246/5/3 376/5/3 394/5/3 395/5/3
f 246/5/5 395/5/5 271/5/5 247/5/5
f 395/5/3 394/5/3 396/5/3 397/5/3
f 395/5/5 397/5/5 398/5/5 271/5/5
f 397/6/3 396/6/3 384/6/3 255/6/3
f 397/6/5 255/6/5 254/6/5 398/6/5
f 256/6/2 382/6/2 399/6/2 259/6/2
f 257/5/1 258/5/1 400/5/1 401/5/1
f 257/5/3 401/5/3 402/5/3 403/5/3
f 257/5/5 403/5/5 404/5/5 258/5/5
f 403/5/3 402/5/3 389/5/3 263/5/3
f 403/5/5 263/5/5 262/5/5 404/5/5
f 241/5/2 387/5/2 405/5/2 265/5/2
f 262/5/4 265/5/4 405/5/4 406/5/4
f 389/5/6 406/5/6 405/5/6 387/5/6
f 244/6/1 266/6/1 407/6/1 391/6/1
f 267/6/3 392/6/3 408/6/3 409/6/3
f 267/6/5 409/6/5 282/6/5 268/6/5
f 409/5/3 408/5/3 410/5/3 411/5/3
f 409/5/5 411/5/5 412/5/5 282/5/5
f 411/6/3 410/6/3 393/6/3 250/6/3
f 411/6/5 250/6/5 270/6/5 412/6/5
f 271/5/5 398/5/5 413/5/5 272/5/5
f 398/5/5 254/5/5 274/5/5 413/5/5
f 259/5/3 399/5/3 400/5/3 258/5/3
f 258/5/5 404/5/5 414/5/5 275/5/5
f 262/6/2 406/6/2 415/6/2 280/6/2
f 416/6/6 417/6/6 415/6/6 406/6/6
f 404/6/5 262/6/5 280/6/5 414/6/5
f 266/6/1 281/6/1 418/6/1 407/6/1
f 300/6/4 283/6/4 419/6/4 420/6/4
f 283/6/4 421/6/4 422/6/4 419/6/4
f 282/6/5 412/6/5 421/6/5 283/6/5
f 421/6/4 285/6/4 423/6/4 422/6/4
f 412/6/5 270/6/5 285/6/5 421/6/5
f 287/5/4 286/5/4 424/5/4 425/5/4
f 272/5/5 413/5/5 426/5/5 286/5/5
f 413/5/5 274/5/5 291/5/5 426/5/5
f 288/6/4 427/6/4 428/6/4 429/6/4
f 276/6/5 275/6/5 427/6/5 288/6/5
f 427/5/4 430/5/4 431/5/4 428/5/4
f 275/5/5 414/5/5 430/5/5 427/5/5
f 280/6/2 415/6/2 432/6/2 295/6/2
f 417/6/6 431/6/6 432/6/6 415/6/6
f 414/6/5 280/6/5 295/6/5 430/6/5
f 281/5/1 296/5/1 433/5/1 418/5/1
f 300/6/2 420/6/2 434/6/2 297/6/2
f 287/6/2 425/6/2 435/6/2 301/6/2
f 285/6/1 304/6/1 436/6/1 423/6/1
f 286/6/1 437/6/1 438/6/1 424/6/1
f 437/6/4 439/6/4 440/6/4 438/6/4
f 286/6/5 426/6/5 439/6/5 437/6/5
f 439/5/4 308/5/4 441/5/4 440/5/4
f 426/5/5 291/5/5 308/5/5 439/5/5
f 288/5/2 429/5/2 442/5/2 305/5/2
f 430/5/1 443/5/1 444/5/1 431/5/1
f 443/5/4 312/5/4 445/5/4 444/5/4
f 430/5/5 295/5/5 312/5/5 443/5/5
f 292/5/2 446/5/2 447/5/2 309/5/2
f 295/5/3 432/5/3 446/5/3 292/5/3
f 432/5/6 445/5/6 447/5/6 446/5/6
f 296/5/1 316/5/1 448/5/1 433/5/1
f 297/4/2 434/4/2 449/4/2 450/4/2
f 313/4/4 450/4/4 449/4/4 451/4/4
f 298/4/5 297/4/5 450/4/5 313/4/5
f 301/5/2 435/5/2 452/5/2 453/5/2
f 304/5/1 454/5/1 455/5/1 436/5/1
f 454/5/4 453/5/4 452/5/4 455/5/4
f 304/5/5 301/5/5 453/5/5 454/5/5
f 308/5/1 456/5/1 457/5/1 441/5/1
f 456/5/4 458/5/4 459/5/4 457/5/4
f 308/5/5 305/5/5 458/5/5 456/5/5
f 460/5/2 461/5/2 462/5/2 328/5/2
f 305/5/3 442/5/3 461/5/3 460/5/3
f 305/5/5 460/5/5 328/5/5 458/5/5
f 312/5/1 463/5/1 464/5/1 445/5/1
f 463/5/4 321/5/4 465/5/4 464/5/4
f 312/5/5 309/5/5 321/5/5 463/5/5
f 318/5/2 466/5/2 467/5/2 319/5/2
f 309/5/3 447/5/3 466/5/3 318/5/3
f 447/5/6 465/5/6 467/5/6 466/5/6
f 313/4/2 451/4/2 468/4/2 469/4/2
f 316/4/1 470/4/1 471/4/1 448/4/1
f 470/4/4 469/4/4 468/4/4 471/4/4
f 316/4/5 313/4/5 469/4/5 470/4/5
f 472/6/2 473/6/2 474/6/2 341/6/2
f 475/6/1 476/6/1 477/6/1 478/6/1
f 475/6/3 478/6/3 473/6/3 472/6/3
f 475/6/5 472/6/5 341/6/5 476/6/5
f 458/6/1 479/6/1 480/6/1 459/6/1
f 479/6/4 327/6/4 481/6/4 480/6/4
f 458/6/5 328/6/5 327/6/5 479/6/5
f 323/6/2 482/6/2 483/6/2 324/6/2
f 328/6/3 462/6/3 482/6/3 323/6/3
f 462/6/6 481/6/6 483/6/6 482/6/6
f 319/5/2 467/5/2 484/5/2 331/5/2
f 321/5/1 330/5/1 485/5/1 465/5/1
f 330/5/4 331/5/4 484/5/4 485/5/4
f 465/5/6 485/5/6 484/5/6 467/5/6
f 486/3/2 487/3/2 488/3/2 489/3/2
f 490/3/1 491/3/1 492/3/1 493/3/1
f 490/3/3 493/3/3 487/3/3 486/3/3
f 490/3/5 486/3/5 489/3/5 491/3/5
f 476/6/1 494/6/1 495/6/1 477/6/1
f 494/6/4 340/6/4 496/6/4 495/6/4
f 476/6/5 341/6/5 340/6/5 494/6/5
f 335/5/2 497/5/2 498/5/2 336/5/2
f 341/5/3 474/5/3 497/5/3 335/5/3
f 474/5/6 496/5/6 498/5/6 497/5/6
f 324/6/2 483/6/2 499/6/2 344/6/2
f 327/6/1 343/6/1 500/6/1 481/6/1
f 343/6/4 344/6/4 499/6/4 500/6/4
f 481/6/6 500/6/6 499/6/6 483/6/6
f 489/2/2 488/2/2 501/2/2 502/2/2
f 491/2/1 503/2/1 504/2/1 492/2/1
f 503/2/4 502/2/4 501/2/4 504/2/4
f 491/2/5 489/2/5 502/2/5 503/2/5
f 336/3/2 498/3/2 505/3/2 349/3/2
f 340/3/1 352/3/1 506/3/1 496/3/1
f 352/3/4 349/3/4 505/3/4 506/3/4
f 496/3/6 506/3/6 505/3/6 498/3/6
f 507/4/2 508/4/2 509/4/2 356/4/2
f 510/4/1 360/4/1 511/4/1 512/4/1
f 510/4/3 512/4/3 508/4/3 507/4/3
f 360/4/4 356/4/4 509/4/4 511/4/4
f 510/4/5 507/4/5 356/4/5 360/4/5
f 513/6/2 514/6/2 515/6/2 516/6/2
f 517/6/1 362/6/1 518/6/1 519/6/1
f 517/6/3 519/6/3 514/6/3 513/6/3
f 517/6/5 513/6/5 516/6/5 362/6/5
f 368/6/1 367/6/1 520/6/1 521/6/1
f 368/6/3 521/6/3 518/6/3 362/6/3
f 521/6/6 520/6/6 522/6/6 518/6/6
f 516/6/2 515/6/2 523/6/2 524/6/2
f 363/6/4 524/6/4 523/6/4 522/6/4
f 362/6/5 516/6/5 524/6/5 363/6/5
f 525/6/2 526/6/2 527/6/2 528/6/2
f 529/6/1 375/6/1 530/6/1 531/6/1
f 529/6/3 531/6/3 526/6/3 525/6/3
f 529/6/5 525/6/5 528/6/5 375/6/5
f 359/5/1 369/5/1 532/5/1 533/5/1
f 359/5/3 533/5/3 534/5/3 357/5/3
f 357/5/3 534/5/3 520/5/3 367/5/3
f 534/5/6 535/5/6 536/5/6 520/5/6
f 363/5/2 522/5/2 537/5/2 371/5/2
f 520/5/6 536/5/6 537/5/6 522/5/6
f 379/5/1 378/5/1 538/5/1 539/5/1
f 379/5/3 539/5/3 530/5/3 375/5/3
f 528/5/2 527/5/2 540/5/2 394/5/2
f 375/5/5 528/5/5 394/5/5 376/5/5
f 381/5/2 541/5/2 542/5/2 382/5/2
f 385/5/1 384/5/1 543/5/1 544/5/1
f 385/5/3 544/5/3 541/5/3 381/5/3
f 386/5/2 545/5/2 546/5/2 387/5/2
f 390/5/1 389/5/1 547/5/1 548/5/1
f 390/5/3 548/5/3 545/5/3 386/5/3
f 389/5/4 387/5/4 546/5/4 547/5/4
f 369/5/1 391/5/1 549/5/1 532/5/1
f 373/5/5 371/5/5 408/5/5 392/5/5
f 371/6/3 537/6/3 550/6/3 551/6/3
f 371/6/5 551/6/5 410/6/5 408/6/5
f 551/5/3 550/5/3 538/5/3 378/5/3
f 551/5/5 378/5/5 393/5/5 410/5/5
f 394/5/3 540/5/3 552/5/3 396/5/3
f 396/6/3 552/6/3 543/6/3 384/6/3
f 382/5/3 542/5/3 553/5/3 401/5/3
f 382/5/5 401/5/5 400/5/5 399/5/5
f 401/6/3 553/6/3 554/6/3 402/6/3
f 389/5/2 547/5/2 555/5/2 406/5/2
f 402/5/3 554/5/3 547/5/3 389/5/3
f 416/5/4 406/5/4 555/5/4 556/5/4
f 391/5/1 407/5/1 557/5/1 549/5/1
f 416/5/2 556/5/2 558/5/2 417/5/2
f 407/5/1 418/5/1 559/5/1 557/5/1
f 417/5/2 558/5/2 560/5/2 431/5/2
f 418/5/1 433/5/1 561/5/1 559/5/1
f 434/6/4 562/6/4 563/6/4 564/6/4
f 420/6/5 419/6/5 562/6/5 434/6/5
f 562/5/4 565/5/4 566/5/4 563/5/4
f 419/5/5 422/5/5 565/5/5 562/5/5
f 565/5/4 436/5/4 567/5/4 566/5/4
f 422/5/5 423/5/5 436/5/5 565/5/5
f 425/5/5 424/5/5 438/5/5 435/5/5
f 438/5/4 440/5/4 568/5/4 569/5/4
f 440/5/4 441/5/4 570/5/4 568/5/4
f 429/6/5 428/6/5 461/6/5 442/6/5
f 461/5/4 444/5/4 571/5/4 572/5/4
f 428/5/5 431/5/5 444/5/5 461/5/5
f 432/5/2 573/5/2 574/5/2 445/5/2
f 431/5/3 560/5/3 573/5/3 432/5/3
f 444/5/4 445/5/4 574/5/4 571/5/4
f 433/6/1 448/6/1 575/6/1 561/6/1
f 434/6/2 564/6/2 576/6/2 449/6/2
f 451/6/4 449/6/4 576/6/4 577/6/4
f 436/5/1 455/5/1 578/5/1 567/5/1
f 455/5/4 452/5/4 579/5/4 578/5/4
f 438/5/2 569/5/2 580/5/2 478/5/2
f 435/5/5 438/5/5 478/5/5 452/5/5
f 441/6/1 457/6/1 581/6/1 570/6/1
f 457/6/4 459/6/4 582/6/4 581/6/4
f 461/5/2 572/5/2 583/5/2 462/5/2
f 584/5/6 582/5/6 583/5/6 572/5/6
f 447/5/2 585/5/2 586/5/2 465/5/2
f 445/5/1 464/5/1 587/5/1 574/5/1
f 445/5/3 574/5/3 585/5/3 447/5/3
f 464/5/4 465/5/4 586/5/4 587/5/4
f 451/4/2 577/4/2 588/4/2 468/4/2
f 448/4/1 471/4/1 589/4/1 575/4/1
f 590/5/2 591/5/2 592/5/2 493/5/2
f 593/5/1 594/5/1 595/5/1 596/5/1
f 593/5/3 596/5/3 591/5/3 590/5/3
f 593/5/5 590/5/5 493/5/5 594/5/5
f 452/6/1 597/6/1 598/6/1 579/6/1
f 597/6/4 477/6/4 599/6/4 598/6/4
f 452/6/5 478/6/5 477/6/5 597/6/5
f 473/6/2 600/6/2 601/6/2 474/6/2
f 478/6/3 580/6/3 600/6/3 473/6/3
f 580/6/6 599/6/6 601/6/6 600/6/6
f 462/6/2 583/6/2 602/6/2 481/6/2
f 459/6/1 480/6/1 603/6/1 582/6/1
f 480/6/4 481/6/4 602/6/4 603/6/4
f 582/6/6 603/6/6 602/6/6 583/6/6
f 468/1/2 588/1/2 604/1/2 605/1/2
f 471/1/1 606/1/1 607/1/1 589/1/1
f 471/1/5 468/1/5 605/1/5 606/1/5
f 594/5/1 608/5/1 609/5/1 595/5/1
f 608/5/4 492/5/4 610/5/4 609/5/4
f 594/5/5 493/5/5 492/5/5 608/5/5
f 487/5/2 611/5/2 612/5/2 488/5/2
f 493/5/3 592/5/3 611/5/3 487/5/3
f 592/5/6 610/5/6 612/5/6 611/5/6
f 474/6/2 601/6/2 613/6/2 496/6/2
f 477/6/1 495/6/1 614/6/1 599/6/1
f 495/6/4 496/6/4 613/6/4 614/6/4
f 599/6/6 614/6/6 613/6/6 601/6/6
f 605/4/2 604/4/2 615/4/2 616/4/2
f 606/4/1 617/4/1 618/4/1 607/4/1
f 617/4/4 616/4/4 615/4/4 618/4/4
f 606/4/5 605/4/5 616/4/5 617/4/5
f 488/3/2 612/3/2 619/3/2 501/3/2
f 492/3/1 504/3/1 620/3/1 610/3/1
f 504/3/4 501/3/4 619/3/4 620/3/4
f 610/3/6 620/3/6 619/3/6 612/3/6
f 621/4/2 622/4/2 623/4/2 624/4/2
f 625/4/1 626/4/1 627/4/1 628/4/1
f 625/4/3 628/4/3 622/4/3 621/4/3
f 628/4/6 627/4/6 623/4/6 622/4/6
f 625/4/5 621/4/5 624/4/5 626/4/5
f 624/1/2 623/1/2 629/1/2 508/1/2
f 626/1/1 512/1/1 630/1/1 627/1/1
f 627/1/6 630/1/6 629/1/6 623/1/6
f 626/1/5 624/1/5 508/1/5 512/1/5
f 631/3/2 632/3/2 633/3/2 634/3/2
f 635/3/1 514/3/1 636/3/1 637/3/1
f 635/3/3 637/3/3 632/3/3 631/3/3
f 635/3/5 631/3/5 634/3/5 514/3/5
f 508/1/2 629/1/2 638/1/2 509/1/2
f 512/1/1 511/1/1 639/1/1 630/1/1
f 519/5/1 518/5/1 640/5/1 641/5/1
f 519/5/3 641/5/3 636/5/3 514/5/3
f 641/5/6 640/5/6 642/5/6 636/5/6
f 634/5/2 633/5/2 643/5/2 644/5/2
f 515/5/4 644/5/4 643/5/4 642/5/4
f 514/5/5 634/5/5 644/5/5 515/5/5
f 645/5/2 646/5/2 647/5/2 648/5/2
f 649/5/1 526/5/1 650/5/1 651/5/1
f 649/5/3 651/5/3 646/5/3 645/5/3
f 649/5/5 645/5/5 648/5/5 526/5/5
f 509/1/2 638/1/2 652/1/2 534/1/2
f 511/1/1 533/1/1 653/1/1 639/1/1
f 511/1/5 509/1/5 534/1/5 533/1/5
f 515/6/2 642/6/2 654/6/2 523/6/2
f 518/6/1 522/6/1 655/6/1 640/6/1
f 522/6/4 523/6/4 654/6/4 655/6/4
f 640/6/6 655/6/6 654/6/6 642/6/6
f 531/6/1 530/6/1 656/6/1 657/6/1
f 531/6/3 657/6/3 650/6/3 526/6/3
f 657/6/6 656/6/6 658/6/6 650/6/6
f 648/5/2 647/5/2 659/5/2 660/5/2
f 527/5/4 660/5/4 659/5/4 658/5/4
f 526/5/5 648/5/5 660/5/5 527/5/5
f 661/5/2 662/5/2 663/5/2 664/5/2
f 665/5/1 541/5/1 666/5/1 667/5/1
f 665/5/3 667/5/3 662/5/3 661/5/3
f 665/5/5 661/5/5 664/5/5 541/5/5
f 534/5/2 652/5/2 668/5/2 535/5/2
f 533/5/1 532/5/1 669/5/1 653/5/1
f 539/5/1 538/5/1 670/5/1 671/5/1
f 539/5/3 671/5/3 656/5/3 530/5/3
f 527/6/2 658/6/2 672/6/2 540/6/2
f 656/6/6 673/6/6 672/6/6 658/6/6
f 544/5/1 543/5/1 674/5/1 675/5/1
f 544/5/3 675/5/3 666/5/3 541/5/3
f 664/5/2 663/5/2 676/5/2 553/5/2
f 541/5/5 664/5/5 553/5/5 542/5/5
f 545/5/2 677/5/2 678/5/2 546/5/2
f 548/5/1 547/5/1 679/5/1 680/5/1
f 548/5/3 680/5/3 677/5/3 545/5/3
f 547/5/4 546/5/4 678/5/4 679/5/4
f 532/5/1 549/5/1 681/5/1 669/5/1
f 535/5/3 668/5/3 682/5/3 536/5/3
f 536/6/3 682/6/3 683/6/3 537/6/3
f 682/6/6 684/6/6 685/6/6 683/6/6
f 537/6/3 683/6/3 686/6/3 550/6/3
f 683/6/6 685/6/6 687/6/6 686/6/6
f 550/6/3 686/6/3 670/6/3 538/6/3
f 686/6/6 687/6/6 688/6/6 670/6/6
f 673/6/6 689/6/6 690/6/6 672/6/6
f 540/5/3 672/5/3 691/5/3 552/5/3
f 552/6/3 691/6/3 674/6/3 543/6/3
f 553/5/3 676/5/3 692/5/3 554/5/3
f 547/6/2 679/6/2 693/6/2 555/6/2
f 554/6/3 692/6/3 679/6/3 547/6/3
f 556/6/4 555/6/4 693/6/4 694/6/4
f 549/5/1 557/5/1 695/5/1 681/5/1
f 690/5/6 696/5/6 697/5/6 698/5/6
f 556/5/2 694/5/2 699/5/2 558/5/2
f 557/5/1 559/5/1 700/5/1 695/5/1
f 558/5/2 699/5/2 701/5/2 560/5/2
f 559/5/1 561/5/1 702/5/1 700/5/1
f 703/5/6 704/5/6 705/5/6 706/5/6
f 563/6/4 566/6/4 707/6/4 705/6/4
f 706/6/6 705/6/6 707/6/6 708/6/6
f 566/6/4 567/6/4 709/6/4 707/6/4
f 708/6/6 707/6/6 709/6/6 710/6/6
f 569/5/4 568/5/4 711/5/4 712/5/4
f 568/5/4 570/5/4 713/5/4 711/5/4
f 584/6/4 572/6/4 714/6/4 715/6/4
f 716/6/6 715/6/6 714/6/6 717/6/6
f 572/5/4 571/5/4 718/5/4 714/5/4
f 573/5/2 719/5/2 720/5/2 574/5/2
f 560/5/3 701/5/3 719/5/3 573/5/3
f 571/5/4 574/5/4 720/5/4 718/5/4
f 561/6/1 575/6/1 721/6/1 702/6/1
f 577/6/4 576/6/4 722/6/4 723/6/4
f 563/5/2 705/5/2 724/5/2 596/5/2
f 564/5/5 563/5/5 596/5/5 576/5/5
f 567/5/1 578/5/1 725/5/1 709/5/1
f 578/5/4 579/5/4 726/5/4 725/5/4
f 569/5/2 712/5/2 727/5/2 580/5/2
f 728/5/6 726/5/6 727/5/6 712/5/6
f 584/6/2 715/6/2 729/6/2 582/6/2
f 570/6/1 581/6/1 730/6/1 713/6/1
f 581/6/4 582/6/4 729/6/4 730/6/4
f 585/5/2 731/5/2 732/5/2 586/5/2
f 574/5/1 587/5/1 733/5/1 720/5/1
f 574/5/3 720/5/3 731/5/3 585/5/3
f 587/5/4 586/5/4 732/5/4 733/5/4
f 577/4/2 723/4/2 734/4/2 588/4/2
f 575/4/1 589/4/1 735/4/1 721/4/1
f 576/6/1 736/6/1 737/6/1 722/6/1
f 736/6/4 595/6/4 738/6/4 737/6/4
f 576/6/5 596/6/5 595/6/5 736/6/5
f 591/5/2 739/5/2 740/5/2 592/5/2
f 596/5/3 724/5/3 739/5/3 591/5/3
f 724/5/6 738/5/6 740/5/6 739/5/6
f 580/5/2 727/5/2 741/5/2 599/5/2
f 579/5/1 598/5/1 742/5/1 726/5/1
f 598/5/4 599/5/4 741/5/4 742/5/4
f 726/5/6 742/5/6 741/5/6 727/5/6
f 588/1/2 734/1/2 743/1/2 604/1/2
f 589/1/1 607/1/1 744/1/1 735/1/1
f 735/1/6 744/1/6 743/1/6 734/1/6
f 592/6/2 740/6/2 745/6/2 610/6/2
f 595/6/1 609/6/1 746/6/1 738/6/1
f 609/6/4 610/6/4 745/6/4 746/6/4
f 738/6/6 746/6/6 745/6/6 740/6/6
f 604/1/2 743/1/2 747/1/2 615/1/2
f 607/1/1 618/1/1 748/1/1 744/1/1
f 744/1/6 748/1/6 747/1/6 743/1/6
f 615/1/2 747/1/2 749/1/2 750/1/2
f 618/1/1 751/1/1 752/1/1 748/1/1
f 751/1/4 750/1/4 749/1/4 752/1/4
f 748/1/6 752/1/6 749/1/6 747/1/6
f 618/1/5 615/1/5 750/1/5 751/1/5
f 632/2/2 753/2/2 754/2/2 633/2/2
f 637/2/1 636/2/1 755/2/1 756/2/1
f 637/2/3 756/2/3 753/2/3 632/2/3
f 756/2/6 755/2/6 754/2/6 753/2/6
f 757/3/2 758/3/2 759/3/2 760/3/2
f 761/3/1 646/3/1 762/3/1 763/3/1
f 761/3/3 763/3/3 758/3/3 757/3/3
f 761/3/5 757/3/5 760/3/5 646/3/5
f 629/1/2 764/1/2 765/1/2 638/1/2
f 630/1/1 639/1/1 766/1/1 767/1/1
f 630/1/3 767/1/3 764/1/3 629/1/3
f 767/1/6 766/1/6 765/1/6 764/1/6
f 633/3/2 754/3/2 768/3/2 643/3/2
f 636/3/1 642/3/1 769/3/1 755/3/1
f 642/3/4 643/3/4 768/3/4 769/3/4
f 755/3/6 769/3/6 768/3/6 754/3/6
f 651/6/1 650/6/1 770/6/1 771/6/1
f 651/6/3 771/6/3 762/6/3 646/6/3
f 771/6/6 770/6/6 772/6/6 762/6/6
f 760/5/2 759/5/2 773/5/2 774/5/2
f 647/5/4 774/5/4 773/5/4 772/5/4
f 646/5/5 760/5/5 774/5/5 647/5/5
f 775/5/2 776/5/2 777/5/2 778/5/2
f 779/5/1 662/5/1 780/5/1 781/5/1
f 779/5/3 781/5/3 776/5/3 775/5/3
f 779/5/5 775/5/5 778/5/5 662/5/5
f 638/4/2 765/4/2 782/4/2 652/4/2
f 639/4/1 653/4/1 783/4/1 766/4/1
f 766/4/6 783/4/6 782/4/6 765/4/6
f 647/5/2 772/5/2 784/5/2 659/5/2
f 650/5/1 658/5/1 785/5/1 770/5/1
f 658/5/4 659/5/4 784/5/4 785/5/4
f 770/5/6 785/5/6 784/5/6 772/5/6
f 667/6/1 666/6/1 786/6/1 787/6/1
f 667/6/3 787/6/3 780/6/3 662/6/3
f 787/6/6 786/6/6 788/6/6 780/6/6
f 778/5/2 777/5/2 789/5/2 790/5/2
f 663/5/4 790/5/4 789/5/4 788/5/4
f 662/5/5 778/5/5 790/5/5 663/5/5
f 791/5/2 792/5/2 793/5/2 794/5/2
f 795/5/1 677/5/1 796/5/1 797/5/1
f 795/5/3 797/5/3 792/5/3 791/5/3
f 795/5/5 791/5/5 794/5/5 677/5/5
f 652/4/2 782/4/2 798/4/2 668/4/2
f 653/4/1 669/4/1 799/4/1 783/4/1
f 656/6/2 800/6/2 801/6/2 673/6/2
f 671/6/1 670/6/1 802/6/1 803/6/1
f 671/6/3 803/6/3 800/6/3 656/6/3
f 803/6/6 802/6/6 801/6/6 800/6/6
f 675/5/1 674/5/1 804/5/1 805/5/1
f 675/5/3 805/5/3 786/5/3 666/5/3
f 805/5/6 804/5/6 806/5/6 786/5/6
f 663/5/2 788/5/2 807/5/2 676/5/2
f 786/5/6 806/5/6 807/5/6 788/5/6
f 680/5/1 679/5/1 808/5/1 809/5/1
f 680/5/3 809/5/3 796/5/3 677/5/3
f 809/5/6 808/5/6 810/5/6 796/5/6
f 794/5/2 793/5/2 811/5/2 812/5/2
f 678/5/4 812/5/4 811/5/4 810/5/4
f 677/5/5 794/5/5 812/5/5 678/5/5
f 669/5/1 681/5/1 813/5/1 799/5/1
f 682/5/2 814/5/2 815/5/2 684/5/2
f 668/5/3 798/5/3 814/5/3 682/5/3
f 673/5/2 801/5/2 816/5/2 689/5/2
f 670/5/1 688/5/1 817/5/1 802/5/1
f 672/6/1 690/6/1 818/6/1 819/6/1
f 672/6/3 819/6/3 820/6/3 691/6/3
f 690/6/4 698/6/4 821/6/4 818/6/4
f 819/6/6 818/6/6 821/6/6 820/6/6
f 691/5/3 820/5/3 804/5/3 674/5/3
f 820/5/6 821/5/6 822/5/6 804/5/6
f 806/5/6 823/5/6 824/5/6 807/5/6
f 676/6/3 807/6/3 825/6/3 692/6/3
f 807/6/6 824/6/6 826/6/6 825/6/6
f 692/6/3 825/6/3 808/6/3 679/6/3
f 825/6/6 826/6/6 827/6/6 808/6/6
f 678/5/2 810/5/2 828/5/2 829/5/2
f 693/5/4 829/5/4 828/5/4 827/5/4
f 679/5/5 678/5/5 829/5/5 693/5/5
f 681/5/1 695/5/1 830/5/1 813/5/1
f 684/5/3 815/5/3 831/5/3 685/5/3
f 685/5/3 831/5/3 832/5/3 687/5/3
f 831/5/6 833/5/6 834/5/6 832/5/6
f 687/6/3 832/6/3 817/6/3 688/6/3
f 832/6/6 834/6/6 835/6/6 817/6/6
f 690/5/2 818/5/2 836/5/2 696/5/2
f 689/5/3 816/5/3 818/5/3 690/5/3
f 698/5/1 697/5/1 837/5/1 821/5/1
f 821/5/6 837/5/6 838/5/6 822/5/6
f 823/5/6 839/5/6 840/5/6 824/5/6
f 824/6/6 840/6/6 841/6/6 826/6/6
f 693/5/2 827/5/2 842/5/2 843/5/2
f 826/5/6 841/5/6 842/5/6 827/5/6
f 694/5/5 693/5/5 843/5/5 699/5/5
f 695/5/1 700/5/1 844/5/1 830/5/1
f 703/5/4 706/5/4 845/5/4 846/5/4
f 847/5/6 846/5/6 845/5/6 833/5/6
f 706/6/4 708/6/4 848/6/4 845/6/4
f 833/6/6 845/6/6 848/6/6 834/6/6
f 708/6/4 710/6/4 849/6/4 848/6/4
f 834/6/6 848/6/6 849/6/6 835/6/6
f 696/5/3 836/5/3 837/5/3 697/5/3
f 836/5/6 850/5/6 851/5/6 837/5/6
f 837/5/6 851/5/6 852/5/6 838/5/6
f 716/5/4 717/5/4 853/5/4 854/5/4
f 840/6/6 853/6/6 855/6/6 841/6/6
f 843/5/2 842/5/2 856/5/2 719/5/2
f 841/5/6 855/5/6 856/5/6 842/5/6
f 699/5/5 843/5/5 719/5/5 701/5/5
f 700/5/1 702/5/1 857/5/1 844/5/1
f 703/5/2 846/5/2 858/5/2 704/5/2
f 710/5/1 709/5/1 859/5/1 849/5/1
f 728/6/4 712/6/4 860/6/4 861/6/4
f 862/6/6 861/6/6 860/6/6 850/6/6
f 712/6/4 711/6/4 863/6/4 860/6/4
f 850/6/6 860/6/6 863/6/6 851/6/6
f 711/5/4 713/5/4 864/5/4 863/5/4
f 851/5/6 863/5/6 864/5/6 852/5/6
f 716/5/2 854/5/2 865/5/2 715/5/2
f 717/6/1 714/6/1 866/6/1 853/6/1
f 714/6/4 718/6/4 867/6/4 866/6/4
f 853/6/6 866/6/6 867/6/6 855/6/6
f 718/5/4 720/5/4 868/5/4 867/5/4
f 855/5/6 867/5/6 868/5/6 856/5/6
f 869/5/2 870/5/2 871/5/2 731/5/2
f 719/5/3 856/5/3 870/5/3 869/5/3
f 719/5/5 869/5/5 731/5/5 720/5/5
f 702/5/1 721/5/1 872/5/1 857/5/1
f 723/6/4 722/6/4 873/6/4 874/6/4
f 875/6/6 874/6/6 873/6/6 858/6/6
f 705/5/2 876/5/2 877/5/2 724/5/2
f 704/5/3 858/5/3 876/5/3 705/5/3
f 858/5/6 873/5/6 877/5/6 876/5/6
f 728/6/2 861/6/2 878/6/2 726/6/2
f 709/6/1 725/6/1 879/6/1 859/6/1
f 725/6/4 726/6/4 878/6/4 879/6/4
f 859/6/6 879/6/6 878/6/6 861/6/6
f 715/6/2 865/6/2 880/6/2 729/6/2
f 713/6/1 730/6/1 881/6/1 864/6/1
f 730/6/4 729/6/4 880/6/4 881/6/4
f 864/6/6 881/6/6 880/6/6 865/6/6
f 731/5/2 871/5/2 882/5/2 732/5/2
f 720/5/1 733/5/1 883/5/1 868/5/1
f 733/5/4 732/5/4 882/5/4 883/5/4
f 868/5/6 883/5/6 882/5/6 871/5/6
f 723/1/2 874/1/2 884/1/2 734/1/2
f 721/1/1 735/1/1 885/1/1 872/1/1
f 735/1/4 734/1/4 884/1/4 885/1/4
f 872/1/6 885/1/6 884/1/6 874/1/6
f 724/6/2 877/6/2 886/6/2 738/6/2
f 722/6/1 737/6/1 887/6/1 873/6/1
f 737/6/4 738/6/4 886/6/4 887/6/4
f 873/6/6 887/6/6 886/6/6 877/6/6
f 758/2/2 888/2/2 889/2/2 759/2/2
f 763/2/1 762/2/1 890/2/1 891/2/1
f 763/2/3 891/2/3 888/2/3 758/2/3
f 891/2/6 890/2/6 889/2/6 888/2/6
f 892/3/2 893/3/2 894/3/2 895/3/2
f 896/3/1 776/3/1 897/3/1 898/3/1
f 896/3/3 898/3/3 893/3/3 892/3/3
f 896/3/5 892/3/5 895/3/5 776/3/5
f 759/3/2 889/3/2 899/3/2 773/3/2
f 762/3/1 772/3/1 900/3/1 890/3/1
f 772/3/4 773/3/4 899/3/4 900/3/4
f 890/3/6 900/3/6 899/3/6 889/3/6
f 781/6/1 780/6/1 901/6/1 902/6/1
f 781/6/3 902/6/3 897/6/3 776/6/3
f 902/6/6 901/6/6 903/6/6 897/6/6
f 895/5/2 894/5/2 904/5/2 905/5/2
f 777/5/4 905/5/4 904/5/4 903/5/4
f 776/5/5 895/5/5 905/5/5 777/5/5
f 906/3/2 907/3/2 908/3/2 909/3/2
f 910/3/1 792/3/1 911/3/1 912/3/1
f 910/3/3 912/3/3 907/3/3 906/3/3
f 910/3/5 906/3/5 909/3/5 792/3/5
f 777/6/2 903/6/2 913/6/2 789/6/2
f 780/6/1 788/6/1 914/6/1 901/6/1
f 788/6/4 789/6/4 913/6/4 914/6/4
f 901/6/6 914/6/6 913/6/6 903/6/6
f 797/5/1 796/5/1 915/5/1 916/5/1
f 797/5/3 916/5/3 911/5/3 792/5/3
f 916/5/6 915/5/6 917/5/6 911/5/6
f 909/6/2 908/6/2 918/6/2 919/6/2
f 793/6/4 919/6/4 918/6/4 917/6/4
f 792/6/5 909/6/5 919/6/5 793/6/5
f 782/4/2 920/4/2 921/4/2 798/4/2
f 783/4/1 799/4/1 922/4/1 923/4/1
f 783/4/3 923/4/3 920/4/3 782/4/3
f 923/4/6 922/4/6 921/4/6 920/4/6
f 793/5/2 917/5/2 924/5/2 811/5/2
f 796/5/1 810/5/1 925/5/1 915/5/1
f 810/5/4 811/5/4 924/5/4 925/5/4
f 915/5/6 925/5/6 924/5/6 917/5/6
f 799/5/1 813/5/1 926/5/1 922/5/1
f 798/6/3 921/6/3 927/6/3 814/6/3
f 921/6/6 928/6/6 929/6/6 927/6/6
f 930/5/2 931/5/2 932/5/2 831/5/2
f 814/5/3 927/5/3 931/5/3 930/5/3
f 814/5/5 930/5/5 831/5/5 815/5/5
f 801/6/2 933/6/2 934/6/2 816/6/2
f 802/6/1 817/6/1 935/6/1 936/6/1
f 802/6/3 936/6/3 933/6/3 801/6/3
f 936/6/6 935/6/6 934/6/6 933/6/6
f 806/6/2 937/6/2 938/6/2 823/6/2
f 804/6/1 822/6/1 939/6/1 940/6/1
f 804/6/3 940/6/3 937/6/3 806/6/3
f 940/6/6 939/6/6 938/6/6 937/6/6
f 810/6/2 925/6/2 941/6/2 828/6/2
f 808/6/1 827/6/1 942/6/1 943/6/1
f 808/6/3 943/6/3 925/6/3 810/6/3
f 943/6/6 942/6/6 941/6/6 925/6/6
f 813/5/1 830/5/1 944/5/1 926/5/1
f 928/5/6 945/5/6 946/5/6 929/5/6
f 831/5/2 932/5/2 947/5/2 833/5/2
f 847/5/4 833/5/4 947/5/4 946/5/4
f 817/5/1 835/5/1 948/5/1 935/5/1
f 935/5/6 948/5/6 949/5/6 934/5/6
f 818/5/2 950/5/2 951/5/2 836/5/2
f 816/5/3 934/5/3 950/5/3 818/5/3
f 823/6/2 938/6/2 952/6/2 839/6/2
f 822/6/1 838/6/1 953/6/1 939/6/1
f 939/6/6 953/6/6 952/6/6 938/6/6
f 828/5/2 941/5/2 954/5/2 955/5/2
f 827/5/1 842/5/1 956/5/1 942/5/1
f 942/5/6 956/5/6 954/5/6 941/5/6
f 827/5/5 828/5/5 955/5/5 842/5/5
f 830/6/1 844/6/1 957/6/1 944/6/1
f 847/6/2 946/6/2 958/6/2 846/6/2
f 835/5/1 849/5/1 959/5/1 948/5/1
f 948/5/6 959/5/6 960/5/6 949/5/6
f 836/5/2 951/5/2 961/5/2 850/5/2
f 862/5/4 850/5/4 961/5/4 960/5/4
f 838/5/1 852/5/1 962/5/1 953/5/1
f 953/5/6 962/5/6 963/5/6 952/5/6
f 840/5/2 964/5/2 965/5/2 853/5/2
f 839/5/3 952/5/3 964/5/3 840/5/3
f 955/5/2 954/5/2 966/5/2 870/5/2
f 842/5/1 856/5/1 967/5/1 956/5/1
f 956/5/6 967/5/6 966/5/6 954/5/6
f 842/5/5 955/5/5 870/5/5 856/5/5
f 844/6/1 857/6/1 968/6/1 957/6/1
f 846/1/2 958/1/2 969/1/2 858/1/2
f 875/1/4 858/1/4 969/1/4 970/1/4
f 862/6/2 960/6/2 971/6/2 861/6/2
f 849/6/1 859/6/1 972/6/1 959/6/1
f 859/6/4 861/6/4 971/6/4 972/6/4
f 959/6/6 972/6/6 971/6/6 960/6/6
f 852/5/1 864/5/1 973/5/1 962/5/1
f 864/5/4 865/5/4 974/5/4 973/5/4
f 962/5/6 973/5/6 974/5/6 963/5/6
f 853/5/2 965/5/2 975/5/2 866/5/2
f 865/5/4 866/5/4 975/5/4 974/5/4
f 854/5/5 853/5/5 866/5/5 865/5/5
f 856/5/1 868/5/1 976/5/1 967/5/1
f 868/5/4 871/5/4 977/5/4 976/5/4
f 967/5/6 976/5/6 977/5/6 966/5/6
f 978/5/2 979/5/2 980/5/2 981/5/2
f 870/5/3 966/5/3 979/5/3 978/5/3
f 870/5/5 978/5/5 981/5/5 871/5/5
f 875/4/2 970/4/2 982/4/2 874/4/2
f 857/4/1 872/4/1 983/4/1 968/4/1
f 872/4/4 874/4/4 982/4/4 983/4/4
f 981/5/2 980/5/2 984/5/2 985/5/2
f 871/5/1 882/5/1 986/5/1 977/5/1
f 882/5/4 985/5/4 984/5/4 986/5/4
f 871/5/5 981/5/5 985/5/5 882/5/5
f 893/2/2 987/2/2 988/2/2 894/2/2
f 898/2/1 897/2/1 989/2/1 990/2/1
f 898/2/3 990/2/3 987/2/3 893/2/3
f 990/2/6 989/2/6 988/2/6 987/2/6
f 894/3/2 988/3/2 991/3/2 904/3/2
f 897/3/1 903/3/1 992/3/1 989/3/1
f 903/3/4 904/3/4 991/3/4 992/3/4
f 989/3/6 992/3/6 991/3/6 988/3/6
f 907/2/2 993/2/2 994/2/2 908/2/2
f 912/2/1 911/2/1 995/2/1 996/2/1
f 912/2/3 996/2/3 993/2/3 907/2/3
f 996/2/6 995/2/6 994/2/6 993/2/6
f 908/3/2 994/3/2 997/3/2 918/3/2
f 911/3/1 917/3/1 998/3/1 995/3/1
f 917/3/4 918/3/4 997/3/4 998/3/4
f 995/3/6 998/3/6 997/3/6 994/3/6
f 921/1/2 999/1/2 1000/1/2 928/1/2
f 922/1/1 926/1/1 1001/1/1 1002/1/1
f 922/1/3 1002/1/3 999/1/3 921/1/3
f 1002/1/6 1001/1/6 1000/1/6 999/1/6
f 931/6/2 1003/6/2 1004/6/2 932/6/2
f 927/6/1 929/6/1 1005/6/1 1006/6/1
f 927/6/3 1006/6/3 1003/6/3 931/6/3
f 1006/6/6 1005/6/6 1004/6/6 1003/6/6
f 928/1/2 1000/1/2 1007/1/2 945/1/2
f 926/1/1 944/1/1 1008/1/1 1001/1/1
f 929/6/1 946/6/1 1009/6/1 1005/6/1
f 946/6/4 947/6/4 1010/6/4 1009/6/4
f 1005/6/6 1009/6/6 1010/6/6 1004/6/6
f 1011/5/2 1012/5/2 1013/5/2 1014/5/2
f 932/5/3 1004/5/3 1012/5/3 1011/5/3
f 932/5/5 1011/5/5 1014/5/5 947/5/5
f 950/5/2 1015/5/2 1016/5/2 951/5/2
f 934/5/1 949/5/1 1017/5/1 1018/5/1
f 934/5/3 1018/5/3 1015/5/3 950/5/3
f 1018/5/6 1017/5/6 1016/5/6 1015/5/6
f 944/1/1 957/1/1 1019/1/1 1008/1/1
f 946/1/2 1009/1/2 1020/1/2 958/1/2
f 945/1/3 1007/1/3 1009/1/3 946/1/3
f 1007/1/6 1021/1/6 1020/1/6 1009/1/6
f 1014/3/2 1013/3/2 1022/3/2 1023/3/2
f 947/3/1 1024/3/1 1025/3/1 1010/3/1
f 1024/3/4 1023/3/4 1022/3/4 1025/3/4
f 947/3/5 1014/3/5 1023/3/5 1024/3/5
f 949/6/1 960/6/1 1026/6/1 1017/6/1
f 960/6/4 961/6/4 1027/6/4 1026/6/4
f 1017/6/6 1026/6/6 1027/6/6 1016/6/6
f 1028/6/2 1029/6/2 1030/6/2 1031/6/2
f 951/6/3 1016/6/3 1029/6/3 1028/6/3
f 951/6/5 1028/6/5 1031/6/5 961/6/5
f 964/6/2 1032/6/2 1033/6/2 965/6/2
f 952/6/1 963/6/1 1034/6/1 1035/6/1
f 952/6/3 1035/6/3 1032/6/3 964/6/3
f 1035/6/6 1034/6/6 1033/6/6 1032/6/6
f 957/1/1 968/1/1 1036/1/1 1019/1/1
f 958/4/2 1020/4/2 1037/4/2 969/4/2
f 970/4/4 969/4/4 1037/4/4 1038/4/4
f 1021/4/6 1038/4/6 1037/4/6 1020/4/6
f 1031/6/2 1030/6/2 1039/6/2 1040/6/2
f 961/6/1 1041/6/1 1042/6/1 1027/6/1
f 1041/6/4 1040/6/4 1039/6/4 1042/6/4
f 961/6/5 1031/6/5 1040/6/5 1041/6/5
f 963/5/1 974/5/1 1043/5/1 1034/5/1
f 974/5/4 975/5/4 1044/5/4 1043/5/4
f 1034/5/6 1043/5/6 1044/5/6 1033/5/6
f 1045/6/2 1046/6/2 1047/6/2 1048/6/2
f 965/6/3 1033/6/3 1046/6/3 1045/6/3
f 965/6/5 1045/6/5 1048/6/5 975/6/5
f 979/5/2 1049/5/2 1050/5/2 980/5/2
f 966/5/1 977/5/1 1051/5/1 1052/5/1
f 966/5/3 1052/5/3 1049/5/3 979/5/3
f 1052/5/6 1051/5/6 1050/5/6 1049/5/6
f 970/1/2 1038/1/2 1053/1/2 982/1/2
f 968/1/1 983/1/1 1054/1/1 1036/1/1
f 983/1/4 982/1/4 1053/1/4 1054/1/4
f 1036/1/6 1054/1/6 1053/1/6 1038/1/6
f 1048/5/2 1047/5/2 1055/5/2 1056/5/2
f 975/5/1 1057/5/1 1058/5/1 1044/5/1
f 1057/5/4 1056/5/4 1055/5/4 1058/5/4
f 975/5/5 1048/5/5 1056/5/5 1057/5/5
f 977/5/1 986/5/1 1059/5/1 1051/5/1
f 986/5/4 984/5/4 1060/5/4 1059/5/4
f 1051/5/6 1059/5/6 1060/5/6 1050/5/6
f 1061/5/2 1062/5/2 1063/5/2 1064/5/2
f 980/5/3 1050/5/3 1062/5/3 1061/5/3
f 980/5/5 1061/5/5 1064/5/5 984/5/5
f 1064/3/2 1063/3/2 1065/3/2 1066/3/2
f 984/3/1 1067/3/1 1068/3/1 1060/3/1
f 1067/3/4 1066/3/4 1065/3/4 1068/3/4
f 984/3/5 1064/3/5 1066/3/5 1067/3/5
f 1000/1/2 1069/1/2 1070/1/2 1007/1/2
f 1001/1/1 1008/1/1 1071/1/1 1072/1/1
f 1001/1/3 1072/1/3 1069/1/3 1000/1/3
f 1012/3/2 1073/3/2 1074/3/2 1013/3/2
f 1004/3/1 1010/3/1 1075/3/1 1076/3/1
f 1004/3/3 1076/3/3 1073/3/3 1012/3/3
f 1076/3/6 1075/3/6 1074/3/6 1073/3/6
f 1007/1/2 1070/1/2 1077/1/2 1021/1/2
f 1008/1/1 1019/1/1 1078/1/1 1071/1/1
f 1010/6/1 1025/6/1 1079/6/1 1075/6/1
f 1025/6/4 1022/6/4 1080/6/4 1079/6/4
f 1075/6/6 1079/6/6 1080/6/6 1074/6/6
f 1081/5/2 1082/5/2 1083/5/2 1084/5/2
f 1013/5/3 1074/5/3 1082/5/3 1081/5/3
f 1013/5/5 1081/5/5 1084/5/5 1022/5/5
f 1029/6/2 1085/6/2 1086/6/2 1030/6/2
f 1016/6/1 1027/6/1 1087/6/1 1088/6/1
f 1016/6/3 1088/6/3 1085/6/3 1029/6/3
f 1088/6/6 1087/6/6 1086/6/6 1085/6/6
f 1021/4/2 1077/4/2 1089/4/2 1038/4/2
f 1019/4/1 1036/4/1 1090/4/1 1078/4/1
f 1036/4/4 1038/4/4 1089/4/4 1090/4/4
f 1084/3/2 1083/3/2 1091/3/2 1092/3/2
f 1022/3/1 1093/3/1 1094/3/1 1080/3/1
f 1093/3/4 1092/3/4 1091/3/4 1094/3/4
f 1022/3/5 1084/3/5 1092/3/5 1093/3/5
f 1027/6/1 1042/6/1 1095/6/1 1087/6/1
f 1042/6/4 1039/6/4 1096/6/4 1095/6/4
f 1087/6/6 1095/6/6 1096/6/6 1086/6/6
f 1097/5/2 1098/5/2 1099/5/2 1100/5/2
f 1030/5/3 1086/5/3 1098/5/3 1097/5/3
f 1030/5/5 1097/5/5 1100/5/5 1039/5/5
f 1046/6/2 1101/6/2 1102/6/2 1047/6/2
f 1033/6/1 1044/6/1 1103/6/1 1104/6/1
f 1033/6/3 1104/6/3 1101/6/3 1046/6/3
f 1104/6/6 1103/6/6 1102/6/6 1101/6/6
f 1100/3/2 1099/3/2 1105/3/2 1106/3/2
f 1039/3/1 1107/3/1 1108/3/1 1096/3/1
f 1107/3/4 1106/3/4 1105/3/4 1108/3/4
f 1039/3/5 1100/3/5 1106/3/5 1107/3/5
f 1044/6/1 1058/6/1 1109/6/1 1103/6/1
f 1058/6/4 1055/6/4 1110/6/4 1109/6/4
f 1103/6/6 1109/6/6 1110/6/6 1102/6/6
f 1111/5/2 1112/5/2 1113/5/2 1114/5/2
f 1047/5/3 1102/5/3 1112/5/3 1111/5/3
f 1047/5/5 1111/5/5 1114/5/5 1055/5/5
f 1062/3/2 1115/3/2 1116/3/2 1063/3/2
f 1050/3/1 1060/3/1 1117/3/1 1118/3/1
f 1050/3/3 1118/3/3 1115/3/3 1062/3/3
f 1118/3/6 1117/3/6 1116/3/6 1115/3/6
f 1114/3/2 1113/3/2 1119/3/2 1120/3/2
f 1055/3/1 1121/3/1 1122/3/1 1110/3/1
f 1121/3/4 1120/3/4 1119/3/4 1122/3/4
f 1055/3/5 1114/3/5 1120/3/5 1121/3/5
f 1063/2/2 1116/2/2 1123/2/2 1065/2/2
f 1060/2/1 1068/2/1 1124/2/1 1117/2/1
f 1068/2/4 1065/2/4 1123/2/4 1124/2/4
f 1117/2/6 1124/2/6 1123/2/6 1116/2/6
f 1125/1/2 1126/1/2 1127/1/2 1069/1/2
f 1128/1/1 1072/1/1 1129/1/1 1130/1/1
f 1128/1/3 1130/1/3 1126/1/3 1125/1/3
f 1130/1/6 1129/1/6 1127/1/6 1126/1/6
f 1128/1/5 1125/1/5 1069/1/5 1072/1/5
f 1072/1/1 1071/1/1 1131/1/1 1129/1/1
f 1132/1/2 1133/1/2 1134/1/2 1135/1/2
f 1069/1/3 1127/1/3 1133/1/3 1132/1/3
f 1070/1/4 1135/1/4 1134/1/4 1136/1/4
f 1127/1/6 1136/1/6 1134/1/6 1133/1/6
f 1069/1/5 1132/1/5 1135/1/5 1070/1/5
f 1070/1/2 1136/1/2 1137/1/2 1077/1/2
f 1071/1/1 1078/1/1 1138/1/1 1131/1/1
f 1131/1/6 1138/1/6 1137/1/6 1136/1/6
f 1082/3/2 1139/3/2 1140/3/2 1083/3/2
f 1074/3/1 1080/3/1 1141/3/1 1142/3/1
f 1074/3/3 1142/3/3 1139/3/3 1082/3/3
f 1142/3/6 1141/3/6 1140/3/6 1139/3/6
f 1077/1/2 1137/1/2 1143/1/2 1089/1/2
f 1078/1/1 1090/1/1 1144/1/1 1138/1/1
f 1090/1/4 1089/1/4 1143/1/4 1144/1/4
f 1138/1/6 1144/1/6 1143/1/6 1137/1/6
f 1083/2/2 1140/2/2 1145/2/2 1091/2/2
f 1080/2/1 1094/2/1 1146/2/1 1141/2/1
f 1094/2/4 1091/2/4 1145/2/4 1146/2/4
f 1141/2/6 1146/2/6 1145/2/6 1140/2/6
f 1098/3/2 1147/3/2 1148/3/2 1099/3/2
f 1086/3/1 1096/3/1 1149/3/1 1150/3/1
f 1086/3/3 1150/3/3 1147/3/3 1098/3/3
f 1150/3/6 1149/3/6 1148/3/6 1147/3/6
f 1099/2/2 1148/2/2 1151/2/2 1105/2/2
f 1096/2/1 1108/2/1 1152/2/1 1149/2/1
f 1108/2/4 1105/2/4 1151/2/4 1152/2/4
f 1149/2/6 1152/2/6 1151/2/6 1148/2/6
f 1112/3/2 1153/3/2 1154/3/2 1113/3/2
f 1102/3/1 1110/3/1 1155/3/1 1156/3/1
f 1102/3/3 1156/3/3 1153/3/3 1112/3/3
f 1156/3/6 1155/3/6 1154/3/6 1153/3/6
f 1113/2/2 1154/2/2 1157/2/2 1119/2/2
f 1110/2/1 1122/2/1 1158/2/1 1155/2/1
f 1122/2/4 1119/2/4 1157/2/4 1158/2/4
f 1155/2/6 1158/2/6 1157/2/6 1154/2/6
f 1127/4/2 1159/4/2 1160/4/2 1136/4/2
f 1129/4/1 1131/4/1 1161/4/1 1162/4/1
f 1129/4/3 1162/4/3 1159/4/3 1127/4/3
f 1131/4/4 1136/4/4 1160/4/4 1161/4/4
f 1162/4/6 1161/4/6 1160/4/6 1159/4/6
