mtllib Gireth_Sharik_Alvarado_Rubio_fase_2.mtl
o Gireth_Sharik_Alvarado_Rubio_fase_2
v -3.0000 -1.0000 2.0000
v -3.0000 -1.0000 1.0000
v -2.0000 -1.0000 1.0000
v -2.0000 -1.0000 2.0000
v -2.0000 0.0000 2.0000
v -3.0000 0.0000 2.0000
v -3.0000 0.0000 1.0000
v -3.0000 1.0000 2.0000
v -2.0000 1.0000 2.0000
v -2.0000 1.0000 1.0000
v -3.0000 1.0000 1.0000
v -3.0000 -1.0000 -0.0000
v -2.0000 -1.0000 -0.0000
v -3.0000 0.0000 -0.0000
v -2.0000 0.0000 -0.0000
v -2.0000 1.0000 -0.0000
v -3.0000 1.0000 -0.0000
v -2.0000 1.0000 -1.0000
v -3.0000 1.0000 -1.0000
v -3.0000 0.0000 -1.0000
v -2.0000 0.0000 -1.0000
v -3.0000 -1.0000 -1.0000
v -3.0000 -1.0000 -2.0000
v -2.0000 -1.0000 -2.0000
v -2.0000 -1.0000 -1.0000
v -3.0000 0.0000 -2.0000
v -2.0000 1.0000 -2.0000
v -3.0000 1.0000 -2.0000
v -3.0000 -1.0000 -3.0000
v -2.0000 -1.0000 -3.0000
v -3.0000 0.0000 -3.0000
v -2.0000 0.0000 -3.0000
v -2.0000 1.0000 -3.0000
v -3.0000 1.0000 -3.0000
v -2.0000 -1.0000 3.0000
v -1.0000 -1.0000 2.0000
v -1.0000 -1.0000 3.0000
v -1.0000 0.0000 3.0000
v -2.0000 0.0000 3.0000
v -2.0000 1.0000 3.0000
v -1.0000 1.0000 3.0000
v -1.0000 1.0000 2.0000
v -2.0000 -3.0000 2.0000
v -1.0000 -3.0000 2.0000
v -1.0000 -3.0000 1.0000
v -2.0000 -3.0000 1.0000
v -2.0000 -4.0000 2.0000
v -2.0000 -4.0000 1.0000
v -1.0000 -4.0000 1.0000
v -1.0000 -4.0000 2.0000
v -1.0000 -1.0000 1.0000
v -2.0000 2.0000 2.0000
v -1.0000 2.0000 2.0000
v -1.0000 2.0000 1.0000
v -2.0000 2.0000 1.0000
v -1.0000 -1.0000 -0.0000
v -2.0000 2.0000 -0.0000
v -2.0000 3.0000 1.0000
v -1.0000 3.0000 1.0000
v -1.0000 3.0000 -0.0000
v -2.0000 3.0000 -0.0000
v -2.0000 -2.0000 -0.0000
v -2.0000 -2.0000 -1.0000
v -1.0000 -2.0000 -1.0000
v -1.0000 -2.0000 -0.0000
v -1.0000 -1.0000 -1.0000
v -2.0000 2.0000 -1.0000
v -1.0000 3.0000 -1.0000
v -2.0000 3.0000 -1.0000
v -2.0000 -3.0000 -1.0000
v -1.0000 -3.0000 -1.0000
v -1.0000 -3.0000 -2.0000
v -2.0000 -3.0000 -2.0000
v -2.0000 -4.0000 -1.0000
v -2.0000 -4.0000 -2.0000
v -1.0000 -4.0000 -2.0000
v -1.0000 -4.0000 -1.0000
v -1.0000 -1.0000 -2.0000
v -2.0000 2.0000 -2.0000
v -1.0000 3.0000 -2.0000
v -2.0000 3.0000 -2.0000
v -1.0000 2.0000 -2.0000
v -1.0000 -1.0000 -3.0000
v -1.0000 2.0000 -3.0000
v -2.0000 2.0000 -3.0000
v -1.0000 1.0000 -3.0000
v -2.0000 -1.0000 -4.0000
v -1.0000 -1.0000 -4.0000
v -2.0000 0.0000 -4.0000
v -1.0000 0.0000 -4.0000
v -1.0000 1.0000 -4.0000
v -2.0000 1.0000 -4.0000
v 0.0000 -1.0000 2.0000
v 0.0000 -1.0000 3.0000
v 0.0000 0.0000 3.0000
v 0.0000 1.0000 3.0000
v 0.0000 1.0000 2.0000
v 0.0000 -1.0000 1.0000
v 0.0000 2.0000 2.0000
v -1.0000 3.0000 2.0000
v 0.0000 3.0000 2.0000
v 0.0000 3.0000 1.0000
v -1.0000 -4.0000 -0.0000
v 0.0000 -4.0000 -0.0000
v 0.0000 -4.0000 1.0000
v 0.0000 -3.0000 1.0000
v -1.0000 -3.0000 -0.0000
v 0.0000 -2.0000 1.0000
v -1.0000 -2.0000 1.0000
v -1.0000 4.0000 1.0000
v 0.0000 4.0000 1.0000
v 0.0000 4.0000 -0.0000
v -1.0000 4.0000 -0.0000
v 0.0000 -4.0000 -1.0000
v 0.0000 -3.0000 -1.0000
v 0.0000 -2.0000 -1.0000
v 0.0000 -1.0000 -1.0000
v 0.0000 4.0000 -1.0000
v -1.0000 4.0000 -1.0000
v 0.0000 -1.0000 -2.0000
v 0.0000 4.0000 -2.0000
v -1.0000 4.0000 -2.0000
v 0.0000 3.0000 -2.0000
v 0.0000 -1.0000 -3.0000
v 0.0000 2.0000 -3.0000
v 0.0000 1.0000 -3.0000
v 0.0000 3.0000 -3.0000
v -1.0000 3.0000 -3.0000
v 0.0000 -1.0000 -4.0000
v 0.0000 0.0000 -4.0000
v 0.0000 1.0000 -4.0000
v 1.0000 -1.0000 2.0000
v 1.0000 -1.0000 3.0000
v 1.0000 0.0000 3.0000
v 1.0000 1.0000 3.0000
v 1.0000 1.0000 2.0000
v 1.0000 -1.0000 1.0000
v 1.0000 2.0000 2.0000
v 1.0000 3.0000 2.0000
v 1.0000 3.0000 1.0000
v 1.0000 -4.0000 -0.0000
v 1.0000 -4.0000 1.0000
v 1.0000 -3.0000 1.0000
v 1.0000 -3.0000 -0.0000
v 1.0000 -2.0000 1.0000
v 1.0000 -2.0000 -0.0000
v 1.0000 4.0000 1.0000
v 1.0000 4.0000 -0.0000
v 1.0000 -4.0000 -1.0000
v 1.0000 -3.0000 -1.0000
v 1.0000 -2.0000 -1.0000
v 1.0000 -1.0000 -1.0000
v 1.0000 -1.0000 -0.0000
v 1.0000 4.0000 -1.0000
v 1.0000 -1.0000 -2.0000
v 1.0000 4.0000 -2.0000
v 1.0000 3.0000 -2.0000
v 1.0000 -1.0000 -3.0000
v 1.0000 2.0000 -3.0000
v 1.0000 1.0000 -3.0000
v 1.0000 3.0000 -3.0000
v 1.0000 -1.0000 -4.0000
v 1.0000 0.0000 -4.0000
v 1.0000 1.0000 -4.0000
v 2.0000 -1.0000 2.0000
v 2.0000 -1.0000 3.0000
v 2.0000 0.0000 3.0000
v 2.0000 1.0000 3.0000
v 2.0000 1.0000 2.0000
v 1.0000 -3.0000 2.0000
v 2.0000 -3.0000 2.0000
v 2.0000 -3.0000 1.0000
v 1.0000 -4.0000 2.0000
v 2.0000 -4.0000 1.0000
v 2.0000 -4.0000 2.0000
v 2.0000 -1.0000 1.0000
v 2.0000 2.0000 2.0000
v 2.0000 3.0000 2.0000
v 2.0000 3.0000 1.0000
v 2.0000 2.0000 1.0000
v 2.0000 -2.0000 -0.0000
v 2.0000 -2.0000 1.0000
v 2.0000 -1.0000 -0.0000
v 2.0000 0.0000 -0.0000
v 2.0000 0.0000 1.0000
v 2.0000 4.0000 1.0000
v 2.0000 4.0000 -0.0000
v 2.0000 3.0000 -0.0000
v 2.0000 -1.0000 -1.0000
v 2.0000 4.0000 -1.0000
v 2.0000 3.0000 -1.0000
v 2.0000 -3.0000 -1.0000
v 2.0000 -3.0000 -2.0000
v 1.0000 -3.0000 -2.0000
v 1.0000 -4.0000 -2.0000
v 2.0000 -4.0000 -2.0000
v 2.0000 -4.0000 -1.0000
v 2.0000 -1.0000 -2.0000
v 2.0000 4.0000 -2.0000
v 2.0000 3.0000 -2.0000
v 2.0000 -1.0000 -3.0000
v 2.0000 2.0000 -3.0000
v 2.0000 1.0000 -3.0000
v 2.0000 3.0000 -3.0000
v 2.0000 2.0000 -2.0000
v 2.0000 -1.0000 -4.0000
v 2.0000 0.0000 -4.0000
v 2.0000 1.0000 -4.0000
v 3.0000 -1.0000 2.0000
v 3.0000 -1.0000 3.0000
v 3.0000 0.0000 3.0000
v 3.0000 0.0000 2.0000
v 3.0000 1.0000 3.0000
v 3.0000 1.0000 2.0000
v 3.0000 -1.0000 1.0000
v 3.0000 0.0000 1.0000
v 3.0000 2.0000 2.0000
v 3.0000 2.0000 1.0000
v 3.0000 1.0000 1.0000
v 3.0000 0.0000 -0.0000
v 3.0000 1.0000 -0.0000
v 3.0000 2.0000 -0.0000
v 3.0000 3.0000 1.0000
v 3.0000 3.0000 -0.0000
v 3.0000 -1.0000 -1.0000
v 3.0000 -1.0000 -0.0000
v 3.0000 1.0000 -1.0000
v 3.0000 2.0000 -1.0000
v 3.0000 3.0000 -1.0000
v 3.0000 -1.0000 -2.0000
v 3.0000 1.0000 -2.0000
v 3.0000 2.0000 -2.0000
v 3.0000 3.0000 -2.0000
v 3.0000 -1.0000 -3.0000
v 3.0000 2.0000 -3.0000
v 3.0000 1.0000 -3.0000
v 3.0000 -1.0000 -4.0000
v 3.0000 0.0000 -4.0000
v 3.0000 0.0000 -3.0000
v 3.0000 1.0000 -4.0000
v 4.0000 -1.0000 1.0000
v 4.0000 -1.0000 2.0000
v 4.0000 0.0000 2.0000
v 4.0000 0.0000 1.0000
v 4.0000 1.0000 2.0000
v 4.0000 1.0000 1.0000
v 4.0000 1.0000 -0.0000
v 4.0000 0.0000 -0.0000
v 4.0000 -1.0000 -1.0000
v 4.0000 -1.0000 -0.0000
v 4.0000 0.0000 -1.0000
v 4.0000 1.0000 -1.0000
v 4.0000 -1.0000 -2.0000
v 4.0000 0.0000 -2.0000
v 4.0000 1.0000 -2.0000
v 4.0000 -1.0000 -3.0000
v 4.0000 0.0000 -3.0000
v 4.0000 1.0000 -3.0000
vt 0.001953 0.500000
vt 0.005859 0.500000
vt 0.009766 0.500000
vt 0.013672 0.500000
vt 0.017578 0.500000
vn 0.0 -1.0 0.0
vn 0.0 1.0 0.0
vn 0.0 0.0 1.0
vn 0.0 0.0 -1.0
vn -1.0 0.0 0.0
vn 1.0 0.0 0.0
usemtl mat_Gireth_Sharik_Alvarado_Rubio_fase_2
s off
f 1/1/1 2/1/1 3/1/1 4/1/1
f 1/1/3 4/1/3 5/1/3 6/1/3
f 1/1/5 6/1/5 7/1/5 2/1/5
f 8/2/2 9/2/2 10/2/2 11/2/2
f 6/2/3 5/2/3 9/2/3 8/2/3
f 6/2/5 8/2/5 11/2/5 7/2/5
f 2/3/1 12/3/1 13/3/1 3/3/1
f 12/3/4 14/3/4 15/3/4 13/3/4
f 2/3/5 7/3/5 14/3/5 12/3/5
f 11/1/2 10/1/2 16/1/2 17/1/2
f 7/1/5 11/1/5 17/1/5 14/1/5
f 17/1/2 16/1/2 18/1/2 19/1/2
f 14/1/1 20/1/1 21/1/1 15/1/1
f 14/1/5 17/1/5 19/1/5 20/1/5
f 22/1/1 23/1/1 24/1/1 25/1/1
f 22/1/3 25/1/3 21/1/3 20/1/3
f 22/1/5 20/1/5 26/1/5 23/1/5
f 19/1/2 18/1/2 27/1/2 28/1/2
f 20/1/5 19/1/5 28/1/5 26/1/5
f 23/3/1 29/3/1 30/3/1 24/3/1
f 29/3/4 31/3/4 32/3/4 30/3/4
f 23/3/5 26/3/5 31/3/5 29/3/5
f 28/2/2 27/2/2 33/2/2 34/2/2
f 31/2/4 34/2/4 33/2/4 32/2/4
f 26/2/5 28/2/5 34/2/5 31/2/5
f 35/3/1 4/3/1 36/3/1 37/3/1
f 35/3/3 37/3/3 38/3/3 39/3/3
f 35/3/5 39/3/5 5/3/5 4/3/5
f 40/2/2 41/2/2 42/2/2 9/2/2
f 39/2/3 38/2/3 41/2/3 40/2/3
f 39/2/5 40/2/5 9/2/5 5/2/5
f 43/4/2 44/4/2 45/4/2 46/4/2
f 47/4/1 48/4/1 49/4/1 50/4/1
f 47/4/3 50/4/3 44/4/3 43/4/3
f 48/4/4 46/4/4 45/4/4 49/4/4
f 50/4/6 49/4/6 45/4/6 44/4/6
f 47/4/5 43/4/5 46/4/5 48/4/5
f 4/1/1 3/1/1 51/1/1 36/1/1
f 52/1/2 53/1/2 54/1/2 55/1/2
f 9/1/3 42/1/3 53/1/3 52/1/3
f 9/1/5 52/1/5 55/1/5 10/1/5
f 3/3/1 13/3/1 56/3/1 51/3/1
f 10/1/5 55/1/5 57/1/5 16/1/5
f 58/2/2 59/2/2 60/2/2 61/2/2
f 55/2/3 54/2/3 59/2/3 58/2/3
f 55/2/5 58/2/5 61/2/5 57/2/5
f 62/5/1 63/5/1 64/5/1 65/5/1
f 62/5/3 65/5/3 56/5/3 13/5/3
f 63/5/4 25/5/4 66/5/4 64/5/4
f 62/5/5 13/5/5 25/5/5 63/5/5
f 13/4/5 15/4/5 21/4/5 25/4/5
f 16/3/5 57/3/5 67/3/5 18/3/5
f 61/1/2 60/1/2 68/1/2 69/1/2
f 57/1/5 61/1/5 69/1/5 67/1/5
f 70/5/2 71/5/2 72/5/2 73/5/2
f 74/5/1 75/5/1 76/5/1 77/5/1
f 74/5/3 77/5/3 71/5/3 70/5/3
f 75/5/4 73/5/4 72/5/4 76/5/4
f 77/5/6 76/5/6 72/5/6 71/5/6
f 74/5/5 70/5/5 73/5/5 75/5/5
f 25/1/1 24/1/1 78/1/1 66/1/1
f 18/1/5 67/1/5 79/1/5 27/1/5
f 69/2/2 68/2/2 80/2/2 81/2/2
f 79/2/4 81/2/4 80/2/4 82/2/4
f 67/2/5 69/2/5 81/2/5 79/2/5
f 24/1/1 30/1/1 83/1/1 78/1/1
f 79/1/2 82/1/2 84/1/2 85/1/2
f 33/1/4 85/1/4 84/1/4 86/1/4
f 27/1/5 79/1/5 85/1/5 33/1/5
f 30/1/1 87/1/1 88/1/1 83/1/1
f 87/1/4 89/1/4 90/1/4 88/1/4
f 30/1/5 32/1/5 89/1/5 87/1/5
f 33/2/2 86/2/2 91/2/2 92/2/2
f 89/2/4 92/2/4 91/2/4 90/2/4
f 32/2/5 33/2/5 92/2/5 89/2/5
f 37/1/1 36/1/1 93/1/1 94/1/1
f 37/1/3 94/1/3 95/1/3 38/1/3
f 41/3/2 96/3/2 97/3/2 42/3/2
f 38/3/3 95/3/3 96/3/3 41/3/3
f 36/1/1 51/1/1 98/1/1 93/1/1
f 42/3/3 97/3/3 99/3/3 53/3/3
f 100/2/2 101/2/2 102/2/2 59/2/2
f 53/2/3 99/2/3 101/2/3 100/2/3
f 53/2/5 100/2/5 59/2/5 54/2/5
f 49/5/1 103/5/1 104/5/1 105/5/1
f 49/5/3 105/5/3 106/5/3 45/5/3
f 49/5/5 45/5/5 107/5/5 103/5/5
f 45/5/3 106/5/3 108/5/3 109/5/3
f 45/5/5 109/5/5 65/5/5 107/5/5
f 109/5/3 108/5/3 98/5/3 51/5/3
f 109/5/5 51/5/5 56/5/5 65/5/5
f 110/2/2 111/2/2 112/2/2 113/2/2
f 59/2/3 102/2/3 111/2/3 110/2/3
f 59/2/5 110/2/5 113/2/5 60/2/5
f 103/4/1 77/4/1 114/4/1 104/4/1
f 77/4/4 71/4/4 115/4/4 114/4/4
f 103/4/5 107/4/5 71/4/5 77/4/5
f 71/4/4 64/4/4 116/4/4 115/4/4
f 107/4/5 65/4/5 64/4/5 71/4/5
f 64/5/4 66/5/4 117/5/4 116/5/4
f 113/3/2 112/3/2 118/3/2 119/3/2
f 60/3/5 113/3/5 119/3/5 68/3/5
f 66/1/1 78/1/1 120/1/1 117/1/1
f 119/2/2 118/2/2 121/2/2 122/2/2
f 80/2/4 122/2/4 121/2/4 123/2/4
f 68/2/5 119/2/5 122/2/5 80/2/5
f 78/3/1 83/3/1 124/3/1 120/3/1
f 86/1/4 84/1/4 125/1/4 126/1/4
f 80/2/2 123/2/2 127/2/2 128/2/2
f 84/2/4 128/2/4 127/2/4 125/2/4
f 82/2/5 80/2/5 128/2/5 84/2/5
f 83/1/1 88/1/1 129/1/1 124/1/1
f 88/1/4 90/1/4 130/1/4 129/1/4
f 86/1/2 126/1/2 131/1/2 91/1/2
f 90/1/4 91/1/4 131/1/4 130/1/4
f 94/1/1 93/1/1 132/1/1 133/1/1
f 94/1/3 133/1/3 134/1/3 95/1/3
f 96/1/2 135/1/2 136/1/2 97/1/2
f 95/1/3 134/1/3 135/1/3 96/1/3
f 93/3/1 98/3/1 137/3/1 132/3/1
f 97/1/3 136/1/3 138/1/3 99/1/3
f 101/1/2 139/1/2 140/1/2 102/1/2
f 99/1/3 138/1/3 139/1/3 101/1/3
f 105/4/1 104/4/1 141/4/1 142/4/1
f 105/4/3 142/4/3 143/4/3 106/4/3
f 142/4/6 141/4/6 144/4/6 143/4/6
f 106/4/3 143/4/3 145/4/3 108/4/3
f 143/4/6 144/4/6 146/4/6 145/4/6
f 108/5/3 145/5/3 137/5/3 98/5/3
f 111/1/2 147/1/2 148/1/2 112/1/2
f 102/1/3 140/1/3 147/1/3 111/1/3
f 104/5/1 114/5/1 149/5/1 141/5/1
f 114/5/4 115/5/4 150/5/4 149/5/4
f 141/5/6 149/5/6 150/5/6 144/5/6
f 115/5/4 116/5/4 151/5/4 150/5/4
f 144/5/6 150/5/6 151/5/6 146/5/6
f 116/5/4 117/5/4 152/5/4 151/5/4
f 146/5/6 151/5/6 152/5/6 153/5/6
f 112/1/2 148/1/2 154/1/2 118/1/2
f 117/3/1 120/3/1 155/3/1 152/3/1
f 118/1/2 154/1/2 156/1/2 121/1/2
f 123/1/4 121/1/4 156/1/4 157/1/4
f 120/1/1 124/1/1 158/1/1 155/1/1
f 126/1/4 125/1/4 159/1/4 160/1/4
f 123/3/2 157/3/2 161/3/2 127/3/2
f 125/3/4 127/3/4 161/3/4 159/3/4
f 124/1/1 129/1/1 162/1/1 158/1/1
f 129/1/4 130/1/4 163/1/4 162/1/4
f 126/3/2 160/3/2 164/3/2 131/3/2
f 130/3/4 131/3/4 164/3/4 163/3/4
f 133/3/1 132/3/1 165/3/1 166/3/1
f 133/3/3 166/3/3 167/3/3 134/3/3
f 135/1/2 168/1/2 169/1/2 136/1/2
f 134/1/3 167/1/3 168/1/3 135/1/3
f 170/5/2 171/5/2 172/5/2 143/5/2
f 173/5/1 142/5/1 174/5/1 175/5/1
f 173/5/3 175/5/3 171/5/3 170/5/3
f 142/5/4 143/5/4 172/5/4 174/5/4
f 175/5/6 174/5/6 172/5/6 171/5/6
f 173/5/5 170/5/5 143/5/5 142/5/5
f 132/1/1 137/1/1 176/1/1 165/1/1
f 136/1/3 169/1/3 177/1/3 138/1/3
f 139/2/2 178/2/2 179/2/2 140/2/2
f 138/2/3 177/2/3 178/2/3 139/2/3
f 177/2/6 180/2/6 179/2/6 178/2/6
f 145/5/1 146/5/1 181/5/1 182/5/1
f 145/5/3 182/5/3 176/5/3 137/5/3
f 146/5/4 153/5/4 183/5/4 181/5/4
f 182/5/6 181/5/6 183/5/6 176/5/6
f 176/5/6 183/5/6 184/5/6 185/5/6
f 147/2/2 186/2/2 187/2/2 148/2/2
f 140/2/3 179/2/3 186/2/3 147/2/3
f 179/2/6 188/2/6 187/2/6 186/2/6
f 153/1/1 152/1/1 189/1/1 183/1/1
f 148/1/2 187/1/2 190/1/2 154/1/2
f 188/1/6 191/1/6 190/1/6 187/1/6
f 150/4/2 192/4/2 193/4/2 194/4/2
f 149/4/1 195/4/1 196/4/1 197/4/1
f 149/4/3 197/4/3 192/4/3 150/4/3
f 195/4/4 194/4/4 193/4/4 196/4/4
f 197/4/6 196/4/6 193/4/6 192/4/6
f 149/4/5 150/4/5 194/4/5 195/4/5
f 152/1/1 155/1/1 198/1/1 189/1/1
f 154/2/2 190/2/2 199/2/2 156/2/2
f 157/2/4 156/2/4 199/2/4 200/2/4
f 191/2/6 200/2/6 199/2/6 190/2/6
f 155/1/1 158/1/1 201/1/1 198/1/1
f 160/1/4 159/1/4 202/1/4 203/1/4
f 157/2/2 200/2/2 204/2/2 161/2/2
f 159/2/4 161/2/4 204/2/4 202/2/4
f 205/2/6 202/2/6 204/2/6 200/2/6
f 158/3/1 162/3/1 206/3/1 201/3/1
f 162/3/4 163/3/4 207/3/4 206/3/4
f 160/1/2 203/1/2 208/1/2 164/1/2
f 163/1/4 164/1/4 208/1/4 207/1/4
f 166/1/1 165/1/1 209/1/1 210/1/1
f 166/1/3 210/1/3 211/1/3 167/1/3
f 210/1/6 209/1/6 212/1/6 211/1/6
f 168/2/2 213/2/2 214/2/2 169/2/2
f 167/2/3 211/2/3 213/2/3 168/2/3
f 211/2/6 212/2/6 214/2/6 213/2/6
f 165/1/1 176/1/1 215/1/1 209/1/1
f 176/1/4 185/1/4 216/1/4 215/1/4
f 177/3/2 217/3/2 218/3/2 180/3/2
f 169/3/3 214/3/3 217/3/3 177/3/3
f 214/3/6 219/3/6 218/3/6 217/3/6
f 185/1/1 184/1/1 220/1/1 216/1/1
f 219/1/6 221/1/6 222/1/6 218/1/6
f 179/2/2 223/2/2 224/2/2 188/2/2
f 180/2/3 218/2/3 223/2/3 179/2/3
f 218/2/6 222/2/6 224/2/6 223/2/6
f 183/1/1 189/1/1 225/1/1 226/1/1
f 183/1/3 226/1/3 220/1/3 184/1/3
f 221/1/6 227/1/6 228/1/6 222/1/6
f 188/3/2 224/3/2 229/3/2 191/3/2
f 222/3/6 228/3/6 229/3/6 224/3/6
f 189/3/1 198/3/1 230/3/1 225/3/1
f 227/1/6 231/1/6 232/1/6 228/1/6
f 191/2/2 229/2/2 233/2/2 200/2/2
f 205/2/4 200/2/4 233/2/4 232/2/4
f 228/2/6 232/2/6 233/2/6 229/2/6
f 198/1/1 201/1/1 234/1/1 230/1/1
f 205/3/2 232/3/2 235/3/2 202/3/2
f 203/3/4 202/3/4 235/3/4 236/3/4
f 231/3/6 236/3/6 235/3/6 232/3/6
f 201/1/1 206/1/1 237/1/1 234/1/1
f 206/1/4 207/1/4 238/1/4 237/1/4
f 234/1/6 237/1/6 238/1/6 239/1/6
f 203/2/2 236/2/2 240/2/2 208/2/2
f 207/2/4 208/2/4 240/2/4 238/2/4
f 239/2/6 238/2/6 240/2/6 236/2/6
f 209/3/1 215/3/1 241/3/1 242/3/1
f 209/3/3 242/3/3 243/3/3 212/3/3
f 215/3/4 216/3/4 244/3/4 241/3/4
f 242/3/6 241/3/6 244/3/6 243/3/6
f 214/2/2 245/2/2 246/2/2 219/2/2
f 212/2/3 243/2/3 245/2/3 214/2/3
f 243/2/6 244/2/6 246/2/6 245/2/6
f 219/1/2 246/1/2 247/1/2 221/1/2
f 216/1/1 220/1/1 248/1/1 244/1/1
f 244/1/6 248/1/6 247/1/6 246/1/6
f 226/1/1 225/1/1 249/1/1 250/1/1
f 226/1/3 250/1/3 248/1/3 220/1/3
f 250/1/6 249/1/6 251/1/6 248/1/6
f 221/3/2 247/3/2 252/3/2 227/3/2
f 248/3/6 251/3/6 252/3/6 247/3/6
f 225/1/1 230/1/1 253/1/1 249/1/1
f 249/1/6 253/1/6 254/1/6 251/1/6
f 227/1/2 252/1/2 255/1/2 231/1/2
f 251/1/6 254/1/6 255/1/6 252/1/6
f 230/3/1 234/3/1 256/3/1 253/3/1
f 234/3/4 239/3/4 257/3/4 256/3/4
f 253/3/6 256/3/6 257/3/6 254/3/6
f 231/2/2 255/2/2 258/2/2 236/2/2
f 239/2/4 236/2/4 258/2/4 257/2/4
f 254/2/6 257/2/6 258/2/6 255/2/6
