mtllib Gireth_Sharik_Alvarado_Rubio_fase_1.mtl
o Gireth_Sharik_Alvarado_Rubio_fase_1
v -2.0000 0.0000 2.0000
v -1.0000 0.0000 2.0000
v -1.0000 0.0000 1.0000
v -2.0000 0.0000 1.0000
v -2.0000 -1.0000 2.0000
v -2.0000 -1.0000 1.0000
v -1.0000 -1.0000 1.0000
v -1.0000 -1.0000 2.0000
v -2.0000 -2.0000 1.0000
v -2.0000 -2.0000 -0.0000
v -1.0000 -2.0000 -0.0000
v -1.0000 -2.0000 1.0000
v -2.0000 -1.0000 -0.0000
v -2.0000 0.0000 -0.0000
v -2.0000 1.0000 1.0000
v -1.0000 1.0000 1.0000
v -1.0000 1.0000 -0.0000
v -2.0000 1.0000 -0.0000
v -2.0000 -2.0000 -1.0000
v -1.0000 -2.0000 -1.0000
v -2.0000 -1.0000 -1.0000
v -1.0000 -1.0000 -1.0000
v -2.0000 0.0000 -1.0000
v -1.0000 1.0000 -1.0000
v -2.0000 1.0000 -1.0000
v -1.0000 0.0000 -1.0000
v -1.0000 0.0000 -2.0000
v -2.0000 0.0000 -2.0000
v -2.0000 -1.0000 -2.0000
v -1.0000 -1.0000 -2.0000
v -1.0000 -2.0000 2.0000
v 0.0000 -2.0000 1.0000
v 0.0000 -2.0000 2.0000
v 0.0000 -1.0000 2.0000
v 0.0000 0.0000 2.0000
v -1.0000 1.0000 2.0000
v 0.0000 1.0000 2.0000
v 0.0000 1.0000 1.0000
v 0.0000 -2.0000 -0.0000
v -1.0000 2.0000 1.0000
v 0.0000 2.0000 1.0000
v 0.0000 2.0000 -0.0000
v -1.0000 2.0000 -0.0000
v 0.0000 1.0000 -0.0000
v 0.0000 -2.0000 -1.0000
v 0.0000 1.0000 -1.0000
v -1.0000 -2.0000 -2.0000
v 0.0000 -2.0000 -2.0000
v 0.0000 -1.0000 -2.0000
v 0.0000 0.0000 -2.0000
v 0.0000 1.0000 -2.0000
v -1.0000 1.0000 -2.0000
v 1.0000 -2.0000 1.0000
v 1.0000 -2.0000 2.0000
v 1.0000 -1.0000 2.0000
v 1.0000 -1.0000 1.0000
v 1.0000 0.0000 2.0000
v 1.0000 1.0000 2.0000
v 1.0000 1.0000 1.0000
v 1.0000 0.0000 1.0000
v 1.0000 -2.0000 -0.0000
v 1.0000 1.0000 -0.0000
v 1.0000 -2.0000 -1.0000
v 1.0000 2.0000 -0.0000
v 1.0000 2.0000 -1.0000
v 0.0000 2.0000 -1.0000
v 1.0000 1.0000 -1.0000
v 1.0000 -2.0000 -2.0000
v 1.0000 -1.0000 -2.0000
v 1.0000 -1.0000 -1.0000
v 1.0000 0.0000 -2.0000
v 1.0000 1.0000 -2.0000
v 1.0000 0.0000 -1.0000
v 2.0000 0.0000 2.0000
v 2.0000 0.0000 1.0000
v 2.0000 -1.0000 1.0000
v 2.0000 -1.0000 2.0000
v 2.0000 -2.0000 -0.0000
v 2.0000 -2.0000 1.0000
v 2.0000 -1.0000 -0.0000
v 2.0000 0.0000 -0.0000
v 2.0000 1.0000 1.0000
v 2.0000 1.0000 -0.0000
v 2.0000 -2.0000 -1.0000
v 2.0000 -1.0000 -1.0000
v 2.0000 0.0000 -1.0000
v 2.0000 1.0000 -1.0000
v 2.0000 0.0000 -2.0000
v 2.0000 -1.0000 -2.0000
vt 0.001953 0.500000
vt 0.005859 0.500000
vt 0.009766 0.500000
vn 0.0 -1.0 0.0
vn 0.0 1.0 0.0
vn 0.0 0.0 1.0
vn 0.0 0.0 -1.0
vn -1.0 0.0 0.0
vn 1.0 0.0 0.0
usemtl mat_Gireth_Sharik_Alvarado_Rubio_fase_1
s off
f 1/1/2 2/1/2 3/1/2 4/1/2
f 5/1/1 6/1/1 7/1/1 8/1/1
f 5/1/3 8/1/3 2/1/3 1/1/3
f 5/1/5 1/1/5 4/1/5 6/1/5
f 9/1/1 10/1/1 11/1/1 12/1/1
f 9/1/3 12/1/3 7/1/3 6/1/3
f 9/1/5 6/1/5 13/1/5 10/1/5
f 6/2/5 4/2/5 14/2/5 13/2/5
f 15/1/2 16/1/2 17/1/2 18/1/2
f 4/1/3 3/1/3 16/1/3 15/1/3
f 4/1/5 15/1/5 18/1/5 14/1/5
f 10/2/1 19/2/1 20/2/1 11/2/1
f 19/2/4 21/2/4 22/2/4 20/2/4
f 10/2/5 13/2/5 21/2/5 19/2/5
f 13/1/5 14/1/5 23/1/5 21/1/5
f 18/2/2 17/2/2 24/2/2 25/2/2
f 23/2/4 25/2/4 24/2/4 26/2/4
f 14/2/5 18/2/5 25/2/5 23/2/5
f 23/1/2 26/1/2 27/1/2 28/1/2
f 21/1/1 29/1/1 30/1/1 22/1/1
f 29/1/4 28/1/4 27/1/4 30/1/4
f 21/1/5 23/1/5 28/1/5 29/1/5
f 31/1/1 12/1/1 32/1/1 33/1/1
f 31/1/3 33/1/3 34/1/3 8/1/3
f 31/1/5 8/1/5 7/1/5 12/1/5
f 8/2/3 34/2/3 35/2/3 2/2/3
f 36/1/2 37/1/2 38/1/2 16/1/2
f 2/1/3 35/1/3 37/1/3 36/1/3
f 2/1/5 36/1/5 16/1/5 3/1/5
f 12/2/1 11/2/1 39/2/1 32/2/1
f 40/3/2 41/3/2 42/3/2 43/3/2
f 16/3/3 38/3/3 41/3/3 40/3/3
f 17/3/4 43/3/4 42/3/4 44/3/4
f 38/3/6 44/3/6 42/3/6 41/3/6
f 16/3/5 40/3/5 43/3/5 17/3/5
f 11/2/1 20/2/1 45/2/1 39/2/1
f 17/2/2 44/2/2 46/2/2 24/2/2
f 20/1/1 47/1/1 48/1/1 45/1/1
f 47/1/4 30/1/4 49/1/4 48/1/4
f 20/1/5 22/1/5 30/1/5 47/1/5
f 30/2/4 27/2/4 50/2/4 49/2/4
f 24/1/2 46/1/2 51/1/2 52/1/2
f 27/1/4 52/1/4 51/1/4 50/1/4
f 26/1/5 24/1/5 52/1/5 27/1/5
f 33/2/1 32/2/1 53/2/1 54/2/1
f 33/2/3 54/2/3 55/2/3 34/2/3
f 54/2/6 53/2/6 56/2/6 55/2/6
f 34/2/3 55/2/3 57/2/3 35/2/3
f 37/2/2 58/2/2 59/2/2 38/2/2
f 35/2/3 57/2/3 58/2/3 37/2/3
f 57/2/6 60/2/6 59/2/6 58/2/6
f 32/2/1 39/2/1 61/2/1 53/2/1
f 38/1/2 59/1/2 62/1/2 44/1/2
f 39/1/1 45/1/1 63/1/1 61/1/1
f 42/3/2 64/3/2 65/3/2 66/3/2
f 44/3/3 62/3/3 64/3/3 42/3/3
f 46/3/4 66/3/4 65/3/4 67/3/4
f 62/3/6 67/3/6 65/3/6 64/3/6
f 44/3/5 42/3/5 66/3/5 46/3/5
f 45/2/1 48/2/1 68/2/1 63/2/1
f 48/2/4 49/2/4 69/2/4 68/2/4
f 63/2/6 68/2/6 69/2/6 70/2/6
f 49/1/4 50/1/4 71/1/4 69/1/4
f 46/2/2 67/2/2 72/2/2 51/2/2
f 50/2/4 51/2/4 72/2/4 71/2/4
f 73/2/6 71/2/6 72/2/6 67/2/6
f 57/1/2 74/1/2 75/1/2 60/1/2
f 55/1/1 56/1/1 76/1/1 77/1/1
f 55/1/3 77/1/3 74/1/3 57/1/3
f 77/1/6 76/1/6 75/1/6 74/1/6
f 53/1/1 61/1/1 78/1/1 79/1/1
f 53/1/3 79/1/3 76/1/3 56/1/3
f 79/1/6 78/1/6 80/1/6 76/1/6
f 76/2/6 80/2/6 81/2/6 75/2/6
f 59/2/2 82/2/2 83/2/2 62/2/2
f 60/2/3 75/2/3 82/2/3 59/2/3
f 75/2/6 81/2/6 83/2/6 82/2/6
f 61/2/1 63/2/1 84/2/1 78/2/1
f 63/2/4 70/2/4 85/2/4 84/2/4
f 78/2/6 84/2/6 85/2/6 80/2/6
f 80/2/6 85/2/6 86/2/6 81/2/6
f 62/1/2 83/1/2 87/1/2 67/1/2
f 73/1/4 67/1/4 87/1/4 86/1/4
f 81/1/6 86/1/6 87/1/6 83/1/6
f 73/1/2 86/1/2 88/1/2 71/1/2
f 70/1/1 69/1/1 89/1/1 85/1/1
f 69/1/4 71/1/4 88/1/4 89/1/4
f 85/1/6 89/1/6 88/1/6 86/1/6
