mtllib Karen_Tatiana_Sandoval_Malagón_fase_2.mtl
o Karen_Tatiana_Sandoval_Malagón_fase_2
v -4.0000 0.0000 3.0000
v -3.0000 0.0000 3.0000
v -3.0000 0.0000 2.0000
v -4.0000 0.0000 2.0000
v -4.0000 -1.0000 3.0000
v -4.0000 -1.0000 2.0000
v -3.0000 -1.0000 2.0000
v -3.0000 -1.0000 3.0000
v -4.0000 -1.0000 1.0000
v -3.0000 -1.0000 1.0000
v -4.0000 0.0000 1.0000
v -3.0000 1.0000 2.0000
v -4.0000 1.0000 2.0000
v -4.0000 1.0000 1.0000
v -3.0000 1.0000 1.0000
v -3.0000 0.0000 1.0000
v -3.0000 2.0000 2.0000
v -4.0000 2.0000 2.0000
v -4.0000 2.0000 1.0000
v -3.0000 2.0000 1.0000
v -3.0000 3.0000 2.0000
v -4.0000 3.0000 2.0000
v -4.0000 3.0000 1.0000
v -3.0000 3.0000 1.0000
v -4.0000 4.0000 2.0000
v -3.0000 4.0000 2.0000
v -3.0000 4.0000 1.0000
v -4.0000 4.0000 1.0000
v -3.0000 0.0000 -0.0000
v -4.0000 0.0000 -0.0000
v -4.0000 -1.0000 -0.0000
v -3.0000 -1.0000 -0.0000
v -3.0000 4.0000 -0.0000
v -4.0000 4.0000 -0.0000
v -4.0000 3.0000 -0.0000
v -3.0000 3.0000 -0.0000
v -4.0000 -1.0000 -1.0000
v -3.0000 -1.0000 -1.0000
v -4.0000 0.0000 -1.0000
v -4.0000 1.0000 -0.0000
v -3.0000 1.0000 -0.0000
v -3.0000 1.0000 -1.0000
v -4.0000 1.0000 -1.0000
v -3.0000 0.0000 -1.0000
v -3.0000 0.0000 -2.0000
v -4.0000 0.0000 -2.0000
v -4.0000 -1.0000 -2.0000
v -3.0000 -1.0000 -2.0000
v -3.0000 0.0000 -3.0000
v -4.0000 0.0000 -3.0000
v -4.0000 -1.0000 -3.0000
v -3.0000 -1.0000 -3.0000
v -3.0000 0.0000 4.0000
v -2.0000 0.0000 4.0000
v -2.0000 0.0000 3.0000
v -3.0000 -1.0000 4.0000
v -2.0000 -1.0000 3.0000
v -2.0000 -1.0000 4.0000
v -2.0000 -1.0000 2.0000
v -3.0000 1.0000 3.0000
v -2.0000 1.0000 3.0000
v -2.0000 1.0000 2.0000
v -2.0000 -1.0000 1.0000
v -2.0000 2.0000 2.0000
v -2.0000 3.0000 2.0000
v -2.0000 3.0000 1.0000
v -2.0000 2.0000 1.0000
v -2.0000 4.0000 2.0000
v -2.0000 4.0000 1.0000
v -2.0000 -1.0000 -0.0000
v -2.0000 2.0000 -0.0000
v -3.0000 2.0000 -0.0000
v -2.0000 4.0000 -0.0000
v -2.0000 3.0000 -0.0000
v -2.0000 -1.0000 -1.0000
v -3.0000 2.0000 -1.0000
v -2.0000 3.0000 -1.0000
v -3.0000 3.0000 -1.0000
v -2.0000 -1.0000 -2.0000
v -3.0000 1.0000 -2.0000
v -2.0000 1.0000 -2.0000
v -2.0000 0.0000 -2.0000
v -3.0000 2.0000 -2.0000
v -3.0000 3.0000 -2.0000
v -3.0000 4.0000 -1.0000
v -2.0000 4.0000 -1.0000
v -2.0000 4.0000 -2.0000
v -3.0000 4.0000 -2.0000
v -2.0000 3.0000 -2.0000
v -2.0000 0.0000 -3.0000
v -2.0000 -1.0000 -3.0000
v -3.0000 1.0000 -3.0000
v -2.0000 1.0000 -3.0000
v -3.0000 2.0000 -3.0000
v -2.0000 2.0000 -3.0000
v -2.0000 3.0000 -3.0000
v -3.0000 3.0000 -3.0000
v -2.0000 0.0000 -4.0000
v -3.0000 0.0000 -4.0000
v -3.0000 -1.0000 -4.0000
v -2.0000 -1.0000 -4.0000
v -1.0000 -1.0000 3.0000
v -1.0000 -1.0000 4.0000
v -1.0000 0.0000 4.0000
v -1.0000 1.0000 4.0000
v -2.0000 1.0000 4.0000
v -2.0000 2.0000 4.0000
v -1.0000 2.0000 4.0000
v -1.0000 2.0000 3.0000
v -2.0000 2.0000 3.0000
v -1.0000 1.0000 3.0000
v -1.0000 -1.0000 2.0000
v -2.0000 3.0000 3.0000
v -1.0000 3.0000 3.0000
v -1.0000 3.0000 2.0000
v -1.0000 -1.0000 1.0000
v -1.0000 4.0000 2.0000
v -1.0000 4.0000 1.0000
v -1.0000 -1.0000 -0.0000
v -1.0000 4.0000 -0.0000
v -1.0000 -1.0000 -1.0000
v -1.0000 4.0000 -1.0000
v -1.0000 3.0000 -1.0000
v -1.0000 -1.0000 -2.0000
v -1.0000 1.0000 -2.0000
v -1.0000 0.0000 -2.0000
v -1.0000 3.0000 -2.0000
v -1.0000 0.0000 -3.0000
v -1.0000 -1.0000 -3.0000
v -1.0000 1.0000 -3.0000
v -1.0000 2.0000 -3.0000
v -1.0000 3.0000 -3.0000
v -1.0000 0.0000 -4.0000
v -1.0000 -1.0000 -4.0000
v 0.0000 -1.0000 3.0000
v 0.0000 -1.0000 4.0000
v 0.0000 0.0000 4.0000
v 0.0000 1.0000 4.0000
v 0.0000 1.0000 3.0000
v 0.0000 -1.0000 2.0000
v 0.0000 2.0000 3.0000
v 0.0000 3.0000 3.0000
v -1.0000 4.0000 3.0000
v 0.0000 4.0000 3.0000
v 0.0000 4.0000 2.0000
v 0.0000 -1.0000 1.0000
v 0.0000 4.0000 1.0000
v -1.0000 -4.0000 1.0000
v -1.0000 -4.0000 -0.0000
v 0.0000 -4.0000 -0.0000
v 0.0000 -4.0000 1.0000
v 0.0000 -3.0000 1.0000
v -1.0000 -3.0000 1.0000
v -1.0000 -3.0000 -0.0000
v 0.0000 -2.0000 1.0000
v -1.0000 -2.0000 1.0000
v -1.0000 -2.0000 -0.0000
v 0.0000 4.0000 -0.0000
v -1.0000 -4.0000 -1.0000
v 0.0000 -4.0000 -1.0000
v -1.0000 -3.0000 -1.0000
v 0.0000 -3.0000 -1.0000
v -1.0000 -2.0000 -1.0000
v 0.0000 -2.0000 -1.0000
v 0.0000 -1.0000 -1.0000
v 0.0000 4.0000 -1.0000
v 0.0000 3.0000 -1.0000
v 0.0000 -1.0000 -2.0000
v 0.0000 3.0000 -2.0000
v 0.0000 -1.0000 -3.0000
v 0.0000 1.0000 -3.0000
v 0.0000 0.0000 -3.0000
v 0.0000 2.0000 -3.0000
v 0.0000 3.0000 -3.0000
v 0.0000 0.0000 -4.0000
v 0.0000 -1.0000 -4.0000
v 1.0000 -1.0000 3.0000
v 1.0000 -1.0000 4.0000
v 1.0000 0.0000 4.0000
v 1.0000 1.0000 4.0000
v 1.0000 1.0000 3.0000
v 1.0000 0.0000 3.0000
v 1.0000 -1.0000 2.0000
v 1.0000 2.0000 3.0000
v 1.0000 3.0000 3.0000
v 1.0000 4.0000 3.0000
v 1.0000 4.0000 2.0000
v 1.0000 3.0000 2.0000
v 0.0000 -2.0000 2.0000
v 1.0000 -2.0000 1.0000
v 1.0000 -2.0000 2.0000
v 1.0000 -1.0000 1.0000
v 1.0000 4.0000 1.0000
v 1.0000 -4.0000 -0.0000
v 1.0000 -4.0000 1.0000
v 1.0000 -3.0000 1.0000
v 1.0000 -3.0000 -0.0000
v 1.0000 -2.0000 -0.0000
v 1.0000 4.0000 -0.0000
v 1.0000 -4.0000 -1.0000
v 1.0000 -3.0000 -1.0000
v 1.0000 -2.0000 -1.0000
v 1.0000 -1.0000 -1.0000
v 1.0000 4.0000 -1.0000
v 1.0000 -1.0000 -2.0000
v 1.0000 4.0000 -2.0000
v 0.0000 4.0000 -2.0000
v 1.0000 3.0000 -2.0000
v 1.0000 -1.0000 -3.0000
v 1.0000 1.0000 -3.0000
v 1.0000 0.0000 -3.0000
v 1.0000 2.0000 -3.0000
v 1.0000 1.0000 -2.0000
v 1.0000 2.0000 -2.0000
v 1.0000 3.0000 -3.0000
v 1.0000 0.0000 -4.0000
v 1.0000 -1.0000 -4.0000
v 2.0000 0.0000 4.0000
v 2.0000 0.0000 3.0000
v 2.0000 -1.0000 3.0000
v 2.0000 -1.0000 4.0000
v 2.0000 -1.0000 2.0000
v 2.0000 1.0000 3.0000
v 2.0000 2.0000 3.0000
v 2.0000 3.0000 3.0000
v 2.0000 3.0000 2.0000
v 2.0000 -1.0000 1.0000
v 2.0000 4.0000 2.0000
v 2.0000 4.0000 1.0000
v 2.0000 3.0000 1.0000
v 2.0000 -2.0000 -0.0000
v 2.0000 -2.0000 1.0000
v 2.0000 -1.0000 -0.0000
v 2.0000 0.0000 1.0000
v 2.0000 0.0000 -0.0000
v 2.0000 1.0000 -0.0000
v 2.0000 1.0000 1.0000
v 2.0000 4.0000 -0.0000
v 2.0000 -2.0000 -1.0000
v 2.0000 -1.0000 -1.0000
v 2.0000 4.0000 -1.0000
v 2.0000 3.0000 -0.0000
v 2.0000 3.0000 -1.0000
v 2.0000 -1.0000 -2.0000
v 2.0000 0.0000 -1.0000
v 2.0000 0.0000 -2.0000
v 2.0000 1.0000 -2.0000
v 2.0000 1.0000 -1.0000
v 2.0000 2.0000 -2.0000
v 2.0000 4.0000 -2.0000
v 2.0000 3.0000 -2.0000
v 2.0000 -1.0000 -3.0000
v 2.0000 1.0000 -3.0000
v 2.0000 0.0000 -3.0000
v 2.0000 3.0000 -3.0000
v 2.0000 2.0000 -3.0000
v 2.0000 0.0000 -4.0000
v 2.0000 -1.0000 -4.0000
v 3.0000 0.0000 4.0000
v 3.0000 0.0000 3.0000
v 3.0000 -1.0000 3.0000
v 3.0000 -1.0000 4.0000
v 3.0000 -1.0000 2.0000
v 3.0000 0.0000 2.0000
v 3.0000 1.0000 3.0000
v 3.0000 1.0000 2.0000
v 3.0000 2.0000 3.0000
v 3.0000 2.0000 2.0000
v 3.0000 3.0000 3.0000
v 3.0000 3.0000 2.0000
v 3.0000 -1.0000 1.0000
v 3.0000 1.0000 1.0000
v 3.0000 0.0000 1.0000
v 3.0000 2.0000 1.0000
v 3.0000 3.0000 1.0000
v 3.0000 0.0000 -0.0000
v 3.0000 -1.0000 -0.0000
v 3.0000 1.0000 -0.0000
v 3.0000 2.0000 -0.0000
v 3.0000 3.0000 -0.0000
v 3.0000 4.0000 1.0000
v 3.0000 4.0000 -0.0000
v 3.0000 -1.0000 -1.0000
v 3.0000 1.0000 -1.0000
v 3.0000 0.0000 -1.0000
v 3.0000 2.0000 -1.0000
v 3.0000 3.0000 -1.0000
v 3.0000 0.0000 -2.0000
v 3.0000 -1.0000 -2.0000
v 3.0000 1.0000 -2.0000
v 3.0000 2.0000 -2.0000
v 3.0000 3.0000 -2.0000
v 3.0000 0.0000 -3.0000
v 3.0000 -1.0000 -3.0000
v 4.0000 0.0000 2.0000
v 4.0000 0.0000 1.0000
v 4.0000 -1.0000 1.0000
v 4.0000 -1.0000 2.0000
v 4.0000 0.0000 -0.0000
v 4.0000 -1.0000 -0.0000
v 4.0000 0.0000 -1.0000
v 4.0000 -1.0000 -1.0000
v 4.0000 0.0000 -2.0000
v 4.0000 -1.0000 -2.0000
vt 0.001953 0.500000
vt 0.005859 0.500000
vt 0.009766 0.500000
vt 0.013672 0.500000
vt 0.017578 0.500000
vt 0.021484 0.500000
vt 0.025391 0.500000
vt 0.029297 0.500000
vn 0.0 -1.0 0.0
vn 0.0 1.0 0.0
vn 0.0 0.0 1.0
vn 0.0 0.0 -1.0
vn -1.0 0.0 0.0
vn 1.0 0.0 0.0
usemtl mat_Karen_Tatiana_Sandoval_Malagón_fase_2
s off
f 1/1/2 2/1/2 3/1/2 4/1/2
f 5/1/1 6/1/1 7/1/1 8/1/1
f 5/1/3 8/1/3 2/1/3 1/1/3
f 5/1/5 1/1/5 4/1/5 6/1/5
f 6/1/1 9/1/1 10/1/1 7/1/1
f 6/1/5 4/1/5 11/1/5 9/1/5
f 4/1/3 3/1/3 12/1/3 13/1/3
f 11/1/4 14/1/4 15/1/4 16/1/4
f 4/1/5 13/1/5 14/1/5 11/1/5
f 13/2/3 12/2/3 17/2/3 18/2/3
f 14/2/4 19/2/4 20/2/4 15/2/4
f 13/2/5 18/2/5 19/2/5 14/2/5
f 18/2/3 17/2/3 21/2/3 22/2/3
f 19/2/4 23/2/4 24/2/4 20/2/4
f 18/2/5 22/2/5 23/2/5 19/2/5
f 25/2/2 26/2/2 27/2/2 28/2/2
f 22/2/3 21/2/3 26/2/3 25/2/3
f 22/2/5 25/2/5 28/2/5 23/2/5
f 11/2/2 16/2/2 29/2/2 30/2/2
f 9/2/1 31/2/1 32/2/1 10/2/1
f 9/2/5 11/2/5 30/2/5 31/2/5
f 28/2/2 27/2/2 33/2/2 34/2/2
f 23/2/1 35/2/1 36/2/1 24/2/1
f 35/2/4 34/2/4 33/2/4 36/2/4
f 23/2/5 28/2/5 34/2/5 35/2/5
f 31/2/1 37/2/1 38/2/1 32/2/1
f 31/2/5 30/2/5 39/2/5 37/2/5
f 40/2/2 41/2/2 42/2/2 43/2/2
f 30/2/3 29/2/3 41/2/3 40/2/3
f 39/2/4 43/2/4 42/2/4 44/2/4
f 30/2/5 40/2/5 43/2/5 39/2/5
f 39/3/2 44/3/2 45/3/2 46/3/2
f 37/3/1 47/3/1 48/3/1 38/3/1
f 37/3/5 39/3/5 46/3/5 47/3/5
f 46/3/2 45/3/2 49/3/2 50/3/2
f 47/3/1 51/3/1 52/3/1 48/3/1
f 51/3/4 50/3/4 49/3/4 52/3/4
f 47/3/5 46/3/5 50/3/5 51/3/5
f 53/4/2 54/4/2 55/4/2 2/4/2
f 56/4/1 8/4/1 57/4/1 58/4/1
f 56/4/3 58/4/3 54/4/3 53/4/3
f 56/4/5 53/4/5 2/4/5 8/4/5
f 8/1/1 7/1/1 59/1/1 57/1/1
f 60/1/2 61/1/2 62/1/2 12/1/2
f 2/1/3 55/1/3 61/1/3 60/1/3
f 2/1/5 60/1/5 12/1/5 3/1/5
f 7/1/1 10/1/1 63/1/1 59/1/1
f 12/5/3 62/5/3 64/5/3 17/5/3
f 17/2/3 64/2/3 65/2/3 21/2/3
f 20/2/4 24/2/4 66/2/4 67/2/4
f 26/4/2 68/4/2 69/4/2 27/4/2
f 21/4/3 65/4/3 68/4/3 26/4/3
f 10/2/1 32/2/1 70/2/1 63/2/1
f 16/2/5 15/2/5 41/2/5 29/2/5
f 20/2/2 67/2/2 71/2/2 72/2/2
f 15/2/5 20/2/5 72/2/5 41/2/5
f 27/4/2 69/4/2 73/4/2 33/4/2
f 24/4/1 36/4/1 74/4/1 66/4/1
f 36/4/4 33/4/4 73/4/4 74/4/4
f 32/2/1 38/2/1 75/2/1 70/2/1
f 41/2/5 72/2/5 76/2/5 42/2/5
f 36/5/2 74/5/2 77/5/2 78/5/2
f 72/5/3 71/5/3 74/5/3 36/5/3
f 72/5/5 36/5/5 78/5/5 76/5/5
f 38/3/1 48/3/1 79/3/1 75/3/1
f 45/3/4 80/3/4 81/3/4 82/3/4
f 44/3/5 42/3/5 80/3/5 45/3/5
f 42/2/5 76/2/5 83/2/5 80/2/5
f 76/2/5 78/2/5 84/2/5 83/2/5
f 85/3/2 86/3/2 87/3/2 88/3/2
f 78/3/3 77/3/3 86/3/3 85/3/3
f 84/3/4 88/3/4 87/3/4 89/3/4
f 77/3/6 89/3/6 87/3/6 86/3/6
f 78/3/5 85/3/5 88/3/5 84/3/5
f 45/5/2 82/5/2 90/5/2 49/5/2
f 48/5/1 52/5/1 91/5/1 79/5/1
f 80/2/1 92/2/1 93/2/1 81/2/1
f 92/2/4 94/2/4 95/2/4 93/2/4
f 80/2/5 83/2/5 94/2/5 92/2/5
f 84/2/2 89/2/2 96/2/2 97/2/2
f 94/2/4 97/2/4 96/2/4 95/2/4
f 83/2/5 84/2/5 97/2/5 94/2/5
f 49/2/2 90/2/2 98/2/2 99/2/2
f 52/2/1 100/2/1 101/2/1 91/2/1
f 100/2/4 99/2/4 98/2/4 101/2/4
f 52/2/5 49/2/5 99/2/5 100/2/5
f 58/4/1 57/4/1 102/4/1 103/4/1
f 58/4/3 103/4/3 104/4/3 54/4/3
f 54/4/3 104/4/3 105/4/3 106/4/3
f 54/4/5 106/4/5 61/4/5 55/4/5
f 107/2/2 108/2/2 109/2/2 110/2/2
f 106/2/3 105/2/3 108/2/3 107/2/3
f 105/2/6 111/2/6 109/2/6 108/2/6
f 106/2/5 107/2/5 110/2/5 61/2/5
f 57/1/1 59/1/1 112/1/1 102/1/1
f 61/1/5 110/1/5 64/1/5 62/1/5
f 113/2/2 114/2/2 115/2/2 65/2/2
f 110/2/3 109/2/3 114/2/3 113/2/3
f 110/2/5 113/2/5 65/2/5 64/2/5
f 59/2/1 63/2/1 116/2/1 112/2/1
f 68/5/2 117/5/2 118/5/2 69/5/2
f 65/5/3 115/5/3 117/5/3 68/5/3
f 63/2/1 70/2/1 119/2/1 116/2/1
f 67/3/5 66/3/5 74/3/5 71/3/5
f 69/4/2 118/4/2 120/4/2 73/4/2
f 70/2/1 75/2/1 121/2/1 119/2/1
f 73/3/2 120/3/2 122/3/2 86/3/2
f 77/3/4 86/3/4 122/3/4 123/3/4
f 74/3/5 73/3/5 86/3/5 77/3/5
f 75/3/1 79/3/1 124/3/1 121/3/1
f 82/3/4 81/3/4 125/3/4 126/3/4
f 77/2/2 123/2/2 127/2/2 89/2/2
f 82/2/2 126/2/2 128/2/2 90/2/2
f 79/2/1 91/2/1 129/2/1 124/2/1
f 81/2/1 93/2/1 130/2/1 125/2/1
f 93/2/4 95/2/4 131/2/4 130/2/4
f 89/5/2 127/5/2 132/5/2 96/5/2
f 95/5/4 96/5/4 132/5/4 131/5/4
f 90/2/2 128/2/2 133/2/2 98/2/2
f 91/2/1 101/2/1 134/2/1 129/2/1
f 101/2/4 98/2/4 133/2/4 134/2/4
f 103/3/1 102/3/1 135/3/1 136/3/1
f 103/3/3 136/3/3 137/3/3 104/3/3
f 105/3/2 138/3/2 139/3/2 111/3/2
f 104/3/3 137/3/3 138/3/3 105/3/3
f 102/1/1 112/1/1 140/1/1 135/1/1
f 111/1/3 139/1/3 141/1/3 109/1/3
f 109/2/3 141/2/3 142/2/3 114/2/3
f 143/2/2 144/2/2 145/2/2 117/2/2
f 114/2/3 142/2/3 144/2/3 143/2/3
f 114/2/5 143/2/5 117/2/5 115/2/5
f 112/2/1 116/2/1 146/2/1 140/2/1
f 117/5/2 145/5/2 147/5/2 118/5/2
f 148/6/1 149/6/1 150/6/1 151/6/1
f 148/6/3 151/6/3 152/6/3 153/6/3
f 148/6/5 153/6/5 154/6/5 149/6/5
f 153/6/3 152/6/3 155/6/3 156/6/3
f 153/6/5 156/6/5 157/6/5 154/6/5
f 156/2/3 155/2/3 146/2/3 116/2/3
f 156/2/5 116/2/5 119/2/5 157/2/5
f 118/4/2 147/4/2 158/4/2 120/4/2
f 149/6/1 159/6/1 160/6/1 150/6/1
f 159/6/4 161/6/4 162/6/4 160/6/4
f 149/6/5 154/6/5 161/6/5 159/6/5
f 161/6/4 163/6/4 164/6/4 162/6/4
f 154/6/5 157/6/5 163/6/5 161/6/5
f 163/2/4 121/2/4 165/2/4 164/2/4
f 157/2/5 119/2/5 121/2/5 163/2/5
f 120/3/2 158/3/2 166/3/2 122/3/2
f 123/3/4 122/3/4 166/3/4 167/3/4
f 121/2/1 124/2/1 168/2/1 165/2/1
f 123/3/2 167/3/2 169/3/2 127/3/2
f 124/2/1 129/2/1 170/2/1 168/2/1
f 128/2/4 130/2/4 171/2/4 172/2/4
f 126/2/5 125/2/5 130/2/5 128/2/5
f 130/2/4 131/2/4 173/2/4 171/2/4
f 127/5/2 169/5/2 174/5/2 132/5/2
f 131/5/4 132/5/4 174/5/4 173/5/4
f 128/2/2 172/2/2 175/2/2 133/2/2
f 129/2/1 134/2/1 176/2/1 170/2/1
f 134/2/4 133/2/4 175/2/4 176/2/4
f 136/3/1 135/3/1 177/3/1 178/3/1
f 136/3/3 178/3/3 179/3/3 137/3/3
f 138/4/2 180/4/2 181/4/2 139/4/2
f 137/4/3 179/4/3 180/4/3 138/4/3
f 179/4/6 182/4/6 181/4/6 180/4/6
f 135/2/1 140/2/1 183/2/1 177/2/1
f 139/4/3 181/4/3 184/4/3 141/4/3
f 141/2/3 184/2/3 185/2/3 142/2/3
f 144/3/2 186/3/2 187/3/2 145/3/2
f 142/3/3 185/3/3 186/3/3 144/3/3
f 185/3/6 188/3/6 187/3/6 186/3/6
f 189/4/1 155/4/1 190/4/1 191/4/1
f 189/4/3 191/4/3 183/4/3 140/4/3
f 191/4/6 190/4/6 192/4/6 183/4/6
f 189/4/5 140/4/5 146/4/5 155/4/5
f 145/3/2 187/3/2 193/3/2 147/3/2
f 151/8/1 150/8/1 194/8/1 195/8/1
f 151/8/3 195/8/3 196/8/3 152/8/3
f 195/8/6 194/8/6 197/8/6 196/8/6
f 152/8/3 196/8/3 190/8/3 155/8/3
f 196/8/6 197/8/6 198/8/6 190/8/6
f 147/4/2 193/4/2 199/4/2 158/4/2
f 150/6/1 160/6/1 200/6/1 194/6/1
f 160/6/4 162/6/4 201/6/4 200/6/4
f 194/6/6 200/6/6 201/6/6 197/6/6
f 162/6/4 164/6/4 202/6/4 201/6/4
f 197/6/6 201/6/6 202/6/6 198/6/6
f 164/5/4 165/5/4 203/5/4 202/5/4
f 158/5/2 199/5/2 204/5/2 166/5/2
f 165/2/1 168/2/1 205/2/1 203/2/1
f 166/4/2 204/4/2 206/4/2 207/4/2
f 169/4/4 207/4/4 206/4/4 208/4/4
f 167/4/5 166/4/5 207/4/5 169/4/5
f 168/2/1 170/2/1 209/2/1 205/2/1
f 172/4/4 171/4/4 210/4/4 211/4/4
f 171/2/4 173/2/4 212/2/4 210/2/4
f 213/2/6 210/2/6 212/2/6 214/2/6
f 169/4/2 208/4/2 215/4/2 174/4/2
f 173/4/4 174/4/4 215/4/4 212/4/4
f 172/4/2 211/4/2 216/4/2 175/4/2
f 170/4/1 176/4/1 217/4/1 209/4/1
f 176/4/4 175/4/4 216/4/4 217/4/4
f 179/4/2 218/4/2 219/4/2 182/4/2
f 178/4/1 177/4/1 220/4/1 221/4/1
f 178/4/3 221/4/3 218/4/3 179/4/3
f 177/4/1 183/4/1 222/4/1 220/4/1
f 182/2/3 219/2/3 223/2/3 181/2/3
f 181/2/3 223/2/3 224/2/3 184/2/3
f 185/2/2 225/2/2 226/2/2 188/2/2
f 184/2/3 224/2/3 225/2/3 185/2/3
f 183/4/1 192/4/1 227/4/1 222/4/1
f 187/3/2 228/3/2 229/3/2 193/3/2
f 188/3/3 226/3/3 228/3/3 187/3/3
f 226/3/6 230/3/6 229/3/6 228/3/6
f 190/4/1 198/4/1 231/4/1 232/4/1
f 190/4/3 232/4/3 227/4/3 192/4/3
f 232/4/6 231/4/6 233/4/6 227/4/6
f 234/2/6 235/2/6 236/2/6 237/2/6
f 193/5/2 229/5/2 238/5/2 199/5/2
f 198/4/1 202/4/1 239/4/1 231/4/1
f 202/4/4 203/4/4 240/4/4 239/4/4
f 231/4/6 239/4/6 240/4/6 233/4/6
f 199/5/2 238/5/2 241/5/2 204/5/2
f 242/5/6 243/5/6 241/5/6 238/5/6
f 203/2/1 205/2/1 244/2/1 240/2/1
f 245/2/6 246/2/6 247/2/6 248/2/6
f 213/2/4 214/2/4 249/2/4 247/2/4
f 204/4/2 241/4/2 250/4/2 206/4/2
f 208/4/4 206/4/4 250/4/4 251/4/4
f 243/4/6 251/4/6 250/4/6 241/4/6
f 205/2/1 209/2/1 252/2/1 244/2/1
f 213/2/2 247/2/2 253/2/2 210/2/2
f 211/2/4 210/2/4 253/2/4 254/2/4
f 246/2/6 254/2/6 253/2/6 247/2/6
f 208/4/2 251/4/2 255/4/2 215/4/2
f 214/4/1 212/4/1 256/4/1 249/4/1
f 212/4/4 215/4/4 255/4/4 256/4/4
f 249/4/6 256/4/6 255/4/6 251/4/6
f 211/2/2 254/2/2 257/2/2 216/2/2
f 209/2/1 217/2/1 258/2/1 252/2/1
f 217/2/4 216/2/4 257/2/4 258/2/4
f 252/2/6 258/2/6 257/2/6 254/2/6
f 218/2/2 259/2/2 260/2/2 219/2/2
f 221/2/1 220/2/1 261/2/1 262/2/1
f 221/2/3 262/2/3 259/2/3 218/2/3
f 262/2/6 261/2/6 260/2/6 259/2/6
f 220/3/1 222/3/1 263/3/1 261/3/1
f 261/3/6 263/3/6 264/3/6 260/3/6
f 219/3/3 260/3/3 265/3/3 223/3/3
f 260/3/6 264/3/6 266/3/6 265/3/6
f 223/3/3 265/3/3 267/3/3 224/3/3
f 265/3/6 266/3/6 268/3/6 267/3/6
f 225/4/2 269/4/2 270/4/2 226/4/2
f 224/4/3 267/4/3 269/4/3 225/4/3
f 267/4/6 268/4/6 270/4/6 269/4/6
f 222/5/1 227/5/1 271/5/1 263/5/1
f 234/5/4 237/5/4 272/5/4 273/5/4
f 264/5/6 273/5/6 272/5/6 266/5/6
f 266/5/6 272/5/6 274/5/6 268/5/6
f 226/3/2 270/3/2 275/3/2 230/3/2
f 268/3/6 274/3/6 275/3/6 270/3/6
f 234/5/2 273/5/2 276/5/2 235/5/2
f 227/5/1 233/5/1 277/5/1 271/5/1
f 237/2/1 236/2/1 278/2/1 272/2/1
f 272/2/6 278/2/6 279/2/6 274/2/6
f 274/4/6 279/4/6 280/4/6 275/4/6
f 229/4/2 281/4/2 282/4/2 238/4/2
f 230/4/3 275/4/3 281/4/3 229/4/3
f 242/4/4 238/4/4 282/4/4 280/4/4
f 275/4/6 280/4/6 282/4/6 281/4/6
f 233/4/1 240/4/1 283/4/1 277/4/1
f 235/4/3 276/4/3 278/4/3 236/4/3
f 245/4/4 248/4/4 284/4/4 285/4/4
f 276/4/6 285/4/6 284/4/6 278/4/6
f 278/2/6 284/2/6 286/2/6 279/2/6
f 242/2/2 280/2/2 287/2/2 243/2/2
f 279/2/6 286/2/6 287/2/6 280/2/6
f 245/2/2 285/2/2 288/2/2 246/2/2
f 240/2/1 244/2/1 289/2/1 283/2/1
f 248/2/1 247/2/1 290/2/1 284/2/1
f 247/2/4 249/2/4 291/2/4 290/2/4
f 284/2/6 290/2/6 291/2/6 286/2/6
f 243/2/2 287/2/2 292/2/2 251/2/2
f 249/2/4 251/2/4 292/2/4 291/2/4
f 286/2/6 291/2/6 292/2/6 287/2/6
f 246/2/2 288/2/2 293/2/2 254/2/2
f 244/2/1 252/2/1 294/2/1 289/2/1
f 252/2/4 254/2/4 293/2/4 294/2/4
f 289/2/6 294/2/6 293/2/6 288/2/6
f 264/5/2 295/5/2 296/5/2 273/5/2
f 263/5/1 271/5/1 297/5/1 298/5/1
f 263/5/3 298/5/3 295/5/3 264/5/3
f 298/5/6 297/5/6 296/5/6 295/5/6
f 273/5/2 296/5/2 299/5/2 276/5/2
f 271/5/1 277/5/1 300/5/1 297/5/1
f 297/5/6 300/5/6 299/5/6 296/5/6
f 276/4/2 299/4/2 301/4/2 285/4/2
f 277/4/1 283/4/1 302/4/1 300/4/1
f 300/4/6 302/4/6 301/4/6 299/4/6
f 285/4/2 301/4/2 303/4/2 288/4/2
f 283/4/1 289/4/1 304/4/1 302/4/1
f 289/4/4 288/4/4 303/4/4 304/4/4
f 302/4/6 304/4/6 303/4/6 301/4/6
