mtllib Luisa_Fernanda_Suárez_Banoy_fase_1.mtl
o Luisa_Fernanda_Suárez_Banoy_fase_1
v -2.5000 0.5000 0.5000
v -1.5000 0.5000 0.5000
v -1.5000 0.5000 -0.5000
v -2.5000 0.5000 -0.5000
v -2.5000 -0.5000 0.5000
v -2.5000 -0.5000 -0.5000
v -1.5000 -0.5000 -0.5000
v -1.5000 -0.5000 0.5000
v -1.5000 -1.5000 1.5000
v -1.5000 -1.5000 0.5000
v -0.5000 -1.5000 0.5000
v -0.5000 -1.5000 1.5000
v -0.5000 -0.5000 1.5000
v -1.5000 -0.5000 1.5000
v -1.5000 0.5000 1.5000
v -0.5000 0.5000 1.5000
v -0.5000 0.5000 0.5000
v -1.5000 -1.5000 -0.5000
v -0.5000 -1.5000 -0.5000
v -0.5000 0.5000 -0.5000
v -1.5000 -1.5000 -1.5000
v -0.5000 -1.5000 -1.5000
v -1.5000 -0.5000 -1.5000
v -0.5000 -0.5000 -1.5000
v -0.5000 0.5000 -1.5000
v -1.5000 0.5000 -1.5000
v -0.5000 -0.5000 -0.5000
v 0.5000 -1.5000 0.5000
v 0.5000 -1.5000 1.5000
v 0.5000 -0.5000 1.5000
v 0.5000 0.5000 1.5000
v 0.5000 0.5000 0.5000
v 0.5000 -1.5000 -0.5000
v 0.5000 0.5000 -0.5000
v 0.5000 -0.5000 -0.5000
v -0.5000 1.5000 0.5000
v 0.5000 1.5000 0.5000
v 0.5000 1.5000 -0.5000
v -0.5000 1.5000 -0.5000
v 0.5000 -0.5000 -1.5000
v 0.5000 -1.5000 -1.5000
v 1.5000 -1.5000 0.5000
v 1.5000 -1.5000 1.5000
v 1.5000 -0.5000 1.5000
v 1.5000 -0.5000 0.5000
v 1.5000 0.5000 1.5000
v 1.5000 0.5000 0.5000
v 1.5000 -1.5000 -0.5000
v 1.5000 -0.5000 -0.5000
v 1.5000 0.5000 -0.5000
v 1.5000 -0.5000 -1.5000
v 1.5000 -1.5000 -1.5000
v 2.5000 0.5000 0.5000
v 2.5000 0.5000 -0.5000
v 2.5000 -0.5000 -0.5000
v 2.5000 -0.5000 0.5000
vt 0.001953 0.500000
vt 0.005859 0.500000
vt 0.009766 0.500000
vt 0.013672 0.500000
vt 0.017578 0.500000
vt 0.021484 0.500000
vt 0.025391 0.500000
vt 0.029297 0.500000
vt 0.033203 0.500000
vn 0.0 -1.0 0.0
vn 0.0 1.0 0.0
vn 0.0 0.0 1.0
vn 0.0 0.0 -1.0
vn -1.0 0.0 0.0
vn 1.0 0.0 0.0
usemtl mat_Luisa_Fernanda_Suárez_Banoy_fase_1
s off
f 1/1/2 2/1/2 3/1/2 4/1/2
f 5/1/1 6/1/1 7/1/1 8/1/1
f 5/1/3 8/1/3 2/1/3 1/1/3
f 6/1/4 4/1/4 3/1/4 7/1/4
f 5/1/5 1/1/5 4/1/5 6/1/5
f 9/2/1 10/2/1 11/2/1 12/2/1
f 9/2/3 12/2/3 13/2/3 14/2/3
f 9/2/5 14/2/5 8/2/5 10/2/5
f 15/3/2 16/3/2 17/3/2 2/3/2
f 14/3/3 13/3/3 16/3/3 15/3/3
f 14/3/5 15/3/5 2/3/5 8/3/5
f 10/4/1 18/4/1 19/4/1 11/4/1
f 10/4/5 8/4/5 7/4/5 18/4/5
f 2/1/2 17/1/2 20/1/2 3/1/2
f 18/5/1 21/5/1 22/5/1 19/5/1
f 21/5/4 23/5/4 24/5/4 22/5/4
f 18/5/5 7/5/5 23/5/5 21/5/5
f 3/1/2 20/1/2 25/1/2 26/1/2
f 23/1/4 26/1/4 25/1/4 24/1/4
f 27/1/6 24/1/6 25/1/6 20/1/6
f 7/1/5 3/1/5 26/1/5 23/1/5
f 12/6/1 11/6/1 28/6/1 29/6/1
f 12/6/3 29/6/3 30/6/3 13/6/3
f 16/1/2 31/1/2 32/1/2 17/1/2
f 13/1/3 30/1/3 31/1/3 16/1/3
f 11/7/1 19/7/1 33/7/1 28/7/1
f 27/7/4 20/7/4 34/7/4 35/7/4
f 36/8/2 37/8/2 38/8/2 39/8/2
f 17/8/3 32/8/3 37/8/3 36/8/3
f 20/8/4 39/8/4 38/8/4 34/8/4
f 32/8/6 34/8/6 38/8/6 37/8/6
f 17/8/5 36/8/5 39/8/5 20/8/5
f 27/4/2 35/4/2 40/4/2 24/4/2
f 19/4/1 22/4/1 41/4/1 33/4/1
f 22/4/4 24/4/4 40/4/4 41/4/4
f 29/5/1 28/5/1 42/5/1 43/5/1
f 29/5/3 43/5/3 44/5/3 30/5/3
f 43/5/6 42/5/6 45/5/6 44/5/6
f 31/1/2 46/1/2 47/1/2 32/1/2
f 30/1/3 44/1/3 46/1/3 31/1/3
f 44/1/6 45/1/6 47/1/6 46/1/6
f 28/2/1 33/2/1 48/2/1 42/2/1
f 42/2/6 48/2/6 49/2/6 45/2/6
f 32/1/2 47/1/2 50/1/2 34/1/2
f 35/1/4 34/1/4 50/1/4 49/1/4
f 35/8/2 49/8/2 51/8/2 40/8/2
f 33/8/1 41/8/1 52/8/1 48/8/1
f 41/8/4 40/8/4 51/8/4 52/8/4
f 48/8/6 52/8/6 51/8/6 49/8/6
f 47/9/2 53/9/2 54/9/2 50/9/2
f 45/9/1 49/9/1 55/9/1 56/9/1
f 45/9/3 56/9/3 53/9/3 47/9/3
f 49/9/4 50/9/4 54/9/4 55/9/4
f 56/9/6 55/9/6 54/9/6 53/9/6
