mtllib Alcaparro_enano_Sara_Viviana_Rojas_Gómez_fase_1.mtl
o Alcaparro_enano_Sara_Viviana_Rojas_Gómez_fase_1
v -1.5000 -0.5000 0.5000
v -1.5000 -0.5000 -0.5000
v -0.5000 -0.5000 -0.5000
v -0.5000 -0.5000 0.5000
v -0.5000 0.5000 0.5000
v -1.5000 0.5000 0.5000
v -1.5000 0.5000 -0.5000
v -0.5000 0.5000 -0.5000
v -1.5000 1.5000 0.5000
v -0.5000 1.5000 0.5000
v -0.5000 1.5000 -0.5000
v -1.5000 1.5000 -0.5000
v -0.5000 1.5000 1.5000
v 0.5000 1.5000 1.5000
v 0.5000 1.5000 0.5000
v -0.5000 0.5000 1.5000
v 0.5000 0.5000 0.5000
v 0.5000 0.5000 1.5000
v -0.5000 -1.5000 0.5000
v -0.5000 -1.5000 -0.5000
v 0.5000 -1.5000 -0.5000
v 0.5000 -1.5000 0.5000
v 0.5000 -0.5000 0.5000
v 0.5000 -0.5000 -0.5000
v 0.5000 0.5000 -0.5000
v 0.5000 1.5000 -0.5000
v 0.5000 1.5000 -1.5000
v -0.5000 1.5000 -1.5000
v -0.5000 0.5000 -1.5000
v 0.5000 0.5000 -1.5000
v 1.5000 -0.5000 -0.5000
v 1.5000 -0.5000 0.5000
v 1.5000 0.5000 0.5000
v 1.5000 0.5000 -0.5000
v 1.5000 1.5000 0.5000
v 1.5000 1.5000 -0.5000
vt 0.001953 0.500000
vt 0.005859 0.500000
vn 0.0 -1.0 0.0
vn 0.0 1.0 0.0
vn 0.0 0.0 1.0
vn 0.0 0.0 -1.0
vn -1.0 0.0 0.0
vn 1.0 0.0 0.0
usemtl mat_Alcaparro_enano_Sara_Viviana_Rojas_Gómez_fase_1
s off
f 1/1/1 2/1/1 3/1/1 4/1/1
f 1/1/3 4/1/3 5/1/3 6/1/3
f 2/1/4 7/1/4 8/1/4 3/1/4
f 1/1/5 6/1/5 7/1/5 2/1/5
f 9/1/2 10/1/2 11/1/2 12/1/2
f 6/1/3 5/1/3 10/1/3 9/1/3
f 7/1/4 12/1/4 11/1/4 8/1/4
f 6/1/5 9/1/5 12/1/5 7/1/5
f 13/1/2 14/1/2 15/1/2 10/1/2
f 16/1/1 5/1/1 17/1/1 18/1/1
f 16/1/3 18/1/3 14/1/3 13/1/3
f 18/1/6 17/1/6 15/1/6 14/1/6
f 16/1/5 13/1/5 10/1/5 5/1/5
f 19/2/1 20/2/1 21/2/1 22/2/1
f 19/2/3 22/2/3 23/2/3 4/2/3
f 20/2/4 3/2/4 24/2/4 21/2/4
f 22/2/6 21/2/6 24/2/6 23/2/6
f 19/2/5 4/2/5 3/2/5 20/2/5
f 4/2/3 23/2/3 17/2/3 5/2/3
f 3/2/4 8/2/4 25/2/4 24/2/4
f 10/2/2 15/2/2 26/2/2 11/2/2
f 11/1/2 26/1/2 27/1/2 28/1/2
f 8/1/1 29/1/1 30/1/1 25/1/1
f 29/1/4 28/1/4 27/1/4 30/1/4
f 25/1/6 30/1/6 27/1/6 26/1/6
f 8/1/5 11/1/5 28/1/5 29/1/5
f 23/1/1 24/1/1 31/1/1 32/1/1
f 23/1/3 32/1/3 33/1/3 17/1/3
f 24/1/4 25/1/4 34/1/4 31/1/4
f 32/1/6 31/1/6 34/1/6 33/1/6
f 15/1/2 35/1/2 36/1/2 26/1/2
f 17/1/3 33/1/3 35/1/3 15/1/3
f 25/1/4 26/1/4 36/1/4 34/1/4
f 33/1/6 34/1/6 36/1/6 35/1/6
