mtllib Aliso_Juan_Pablo_Yalta_Badillo_fase_1.mtl
o Aliso_Juan_Pablo_Yalta_Badillo_fase_1
v -2.0000 -1.0000 1.0000
v -2.0000 -1.0000 -0.0000
v -1.0000 -1.0000 -0.0000
v -1.0000 -1.0000 1.0000
v -1.0000 0.0000 1.0000
v -2.0000 0.0000 1.0000
v -2.0000 0.0000 -0.0000
v -2.0000 1.0000 1.0000
v -1.0000 1.0000 1.0000
v -1.0000 1.0000 -0.0000
v -2.0000 1.0000 -0.0000
v -2.0000 -1.0000 -1.0000
v -1.0000 -1.0000 -1.0000
v -2.0000 0.0000 -1.0000
v -1.0000 0.0000 -1.0000
v -1.0000 1.0000 -1.0000
v -2.0000 1.0000 -1.0000
v -1.0000 -1.0000 2.0000
v 0.0000 -1.0000 1.0000
v 0.0000 -1.0000 2.0000
v 0.0000 0.0000 2.0000
v -1.0000 0.0000 2.0000
v -1.0000 1.0000 2.0000
v 0.0000 1.0000 2.0000
v 0.0000 1.0000 1.0000
v -1.0000 -2.0000 1.0000
v -1.0000 -2.0000 -0.0000
v 0.0000 -2.0000 -0.0000
v 0.0000 -2.0000 1.0000
v -1.0000 2.0000 1.0000
v 0.0000 2.0000 1.0000
v 0.0000 2.0000 -0.0000
v -1.0000 2.0000 -0.0000
v -1.0000 -2.0000 -1.0000
v 0.0000 -2.0000 -1.0000
v 0.0000 -1.0000 -1.0000
v 0.0000 2.0000 -1.0000
v -1.0000 2.0000 -1.0000
v 0.0000 1.0000 -1.0000
v -1.0000 -1.0000 -2.0000
v 0.0000 -1.0000 -2.0000
v -1.0000 0.0000 -2.0000
v 0.0000 0.0000 -2.0000
v 0.0000 1.0000 -2.0000
v -1.0000 1.0000 -2.0000
v 1.0000 -1.0000 1.0000
v 1.0000 -1.0000 2.0000
v 1.0000 0.0000 2.0000
v 1.0000 0.0000 1.0000
v 1.0000 1.0000 2.0000
v 1.0000 1.0000 1.0000
v 1.0000 -2.0000 -0.0000
v 1.0000 -2.0000 1.0000
v 1.0000 -1.0000 -0.0000
v 1.0000 2.0000 1.0000
v 1.0000 2.0000 -0.0000
v 1.0000 1.0000 -0.0000
v 1.0000 -2.0000 -1.0000
v 1.0000 -1.0000 -1.0000
v 1.0000 2.0000 -1.0000
v 1.0000 1.0000 -1.0000
v 1.0000 -1.0000 -2.0000
v 1.0000 0.0000 -2.0000
v 1.0000 0.0000 -1.0000
v 1.0000 1.0000 -2.0000
v 2.0000 -1.0000 -0.0000
v 2.0000 -1.0000 1.0000
v 2.0000 0.0000 1.0000
v 2.0000 0.0000 -0.0000
v 2.0000 1.0000 1.0000
v 2.0000 1.0000 -0.0000
v 2.0000 -1.0000 -1.0000
v 2.0000 0.0000 -1.0000
v 2.0000 1.0000 -1.0000
vt 0.001953 0.500000
vt 0.005859 0.500000
vt 0.009766 0.500000
vt 0.013672 0.500000
vt 0.017578 0.500000
vt 0.021484 0.500000
vt 0.025391 0.500000
vt 0.029297 0.500000
vt 0.033203 0.500000
vn 0.0 -1.0 0.0
vn 0.0 1.0 0.0
vn 0.0 0.0 1.0
vn 0.0 0.0 -1.0
vn -1.0 0.0 0.0
vn 1.0 0.0 0.0
usemtl mat_Aliso_Juan_Pablo_Yalta_Badillo_fase_1
s off
f 1/1/1 2/1/1 3/1/1 4/1/1
f 1/1/3 4/1/3 5/1/3 6/1/3
f 1/1/5 6/1/5 7/1/5 2/1/5
f 8/2/2 9/2/2 10/2/2 11/2/2
f 6/2/3 5/2/3 9/2/3 8/2/3
f 6/2/5 8/2/5 11/2/5 7/2/5
f 2/2/1 12/2/1 13/2/1 3/2/1
f 12/2/4 14/2/4 15/2/4 13/2/4
f 2/2/5 7/2/5 14/2/5 12/2/5
f 11/3/2 10/3/2 16/3/2 17/3/2
f 14/3/4 17/3/4 16/3/4 15/3/4
f 7/3/5 11/3/5 17/3/5 14/3/5
f 18/3/1 4/3/1 19/3/1 20/3/1
f 18/3/3 20/3/3 21/3/3 22/3/3
f 18/3/5 22/3/5 5/3/5 4/3/5
f 23/3/2 24/3/2 25/3/2 9/3/2
f 22/3/3 21/3/3 24/3/3 23/3/3
f 22/3/5 23/3/5 9/3/5 5/3/5
f 26/2/1 27/2/1 28/2/1 29/2/1
f 26/2/3 29/2/3 19/2/3 4/2/3
f 26/2/5 4/2/5 3/2/5 27/2/5
f 30/4/2 31/4/2 32/4/2 33/4/2
f 9/4/3 25/4/3 31/4/3 30/4/3
f 9/4/5 30/4/5 33/4/5 10/4/5
f 27/3/1 34/3/1 35/3/1 28/3/1
f 34/3/4 13/3/4 36/3/4 35/3/4
f 27/3/5 3/3/5 13/3/5 34/3/5
f 33/5/2 32/5/2 37/5/2 38/5/2
f 16/5/4 38/5/4 37/5/4 39/5/4
f 10/5/5 33/5/5 38/5/5 16/5/5
f 13/1/1 40/1/1 41/1/1 36/1/1
f 40/1/4 42/1/4 43/1/4 41/1/4
f 13/1/5 15/1/5 42/1/5 40/1/5
f 16/1/2 39/1/2 44/1/2 45/1/2
f 42/1/4 45/1/4 44/1/4 43/1/4
f 15/1/5 16/1/5 45/1/5 42/1/5
f 20/1/1 19/1/1 46/1/1 47/1/1
f 20/1/3 47/1/3 48/1/3 21/1/3
f 47/1/6 46/1/6 49/1/6 48/1/6
f 24/1/2 50/1/2 51/1/2 25/1/2
f 21/1/3 48/1/3 50/1/3 24/1/3
f 48/1/6 49/1/6 51/1/6 50/1/6
f 29/6/1 28/6/1 52/6/1 53/6/1
f 29/6/3 53/6/3 46/6/3 19/6/3
f 53/6/6 52/6/6 54/6/6 46/6/6
f 31/7/2 55/7/2 56/7/2 32/7/2
f 25/7/3 51/7/3 55/7/3 31/7/3
f 51/7/6 57/7/6 56/7/6 55/7/6
f 28/1/1 35/1/1 58/1/1 52/1/1
f 35/1/4 36/1/4 59/1/4 58/1/4
f 52/1/6 58/1/6 59/1/6 54/1/6
f 32/8/2 56/8/2 60/8/2 37/8/2
f 39/8/4 37/8/4 60/8/4 61/8/4
f 57/8/6 61/8/6 60/8/6 56/8/6
f 36/1/1 41/1/1 62/1/1 59/1/1
f 41/1/4 43/1/4 63/1/4 62/1/4
f 59/1/6 62/1/6 63/1/6 64/1/6
f 39/9/2 61/9/2 65/9/2 44/9/2
f 43/9/4 44/9/4 65/9/4 63/9/4
f 64/9/6 63/9/6 65/9/6 61/9/6
f 46/1/1 54/1/1 66/1/1 67/1/1
f 46/1/3 67/1/3 68/1/3 49/1/3
f 67/1/6 66/1/6 69/1/6 68/1/6
f 51/3/2 70/3/2 71/3/2 57/3/2
f 49/3/3 68/3/3 70/3/3 51/3/3
f 68/3/6 69/3/6 71/3/6 70/3/6
f 54/1/1 59/1/1 72/1/1 66/1/1
f 59/1/4 64/1/4 73/1/4 72/1/4
f 66/1/6 72/1/6 73/1/6 69/1/6
f 57/2/2 71/2/2 74/2/2 61/2/2
f 64/2/4 61/2/4 74/2/4 73/2/4
f 69/2/6 73/2/6 74/2/6 71/2/6
