mtllib Cedro_Juan_Manuel_Lombana_Cárdenas_fase_1.mtl
o Cedro_Juan_Manuel_Lombana_Cárdenas_fase_1
v -2.5000 -2.5000 0.5000
v -2.5000 -2.5000 -0.5000
v -1.5000 -2.5000 -0.5000
v -1.5000 -2.5000 0.5000
v -1.5000 -1.5000 0.5000
v -2.5000 -1.5000 0.5000
v -2.5000 -1.5000 -0.5000
v -1.5000 -1.5000 -0.5000
v -1.5000 -0.5000 0.5000
v -2.5000 -0.5000 0.5000
v -2.5000 -0.5000 -0.5000
v -1.5000 -0.5000 -0.5000
v -1.5000 0.5000 0.5000
v -2.5000 0.5000 0.5000
v -2.5000 0.5000 -0.5000
v -1.5000 0.5000 -0.5000
v -2.5000 1.5000 0.5000
v -1.5000 1.5000 0.5000
v -1.5000 1.5000 -0.5000
v -2.5000 1.5000 -0.5000
v -0.5000 -2.5000 -0.5000
v -0.5000 -2.5000 0.5000
v -0.5000 -1.5000 0.5000
v -0.5000 -1.5000 -0.5000
v -0.5000 -0.5000 0.5000
v -0.5000 -0.5000 -0.5000
v -0.5000 0.5000 0.5000
v -0.5000 0.5000 -0.5000
v -0.5000 1.5000 0.5000
v -0.5000 1.5000 -0.5000
v -0.5000 -2.5000 2.5000
v -0.5000 -2.5000 1.5000
v 0.5000 -2.5000 1.5000
v 0.5000 -2.5000 2.5000
v 0.5000 -1.5000 2.5000
v -0.5000 -1.5000 2.5000
v 0.5000 -1.5000 1.5000
v -0.5000 -1.5000 1.5000
v 0.5000 -0.5000 2.5000
v -0.5000 -0.5000 2.5000
v 0.5000 -0.5000 1.5000
v -0.5000 -0.5000 1.5000
v 0.5000 0.5000 2.5000
v -0.5000 0.5000 2.5000
v 0.5000 0.5000 1.5000
v -0.5000 0.5000 1.5000
v -0.5000 1.5000 2.5000
v 0.5000 1.5000 2.5000
v 0.5000 1.5000 1.5000
v -0.5000 1.5000 1.5000
v 0.5000 -2.5000 0.5000
v 0.5000 -1.5000 0.5000
v 0.5000 -0.5000 0.5000
v 0.5000 0.5000 0.5000
v 0.5000 1.5000 0.5000
v 0.5000 -2.5000 -0.5000
v 0.5000 1.5000 -0.5000
v -0.5000 -2.5000 -1.5000
v 0.5000 -2.5000 -1.5000
v 0.5000 -1.5000 -1.5000
v 0.5000 -1.5000 -0.5000
v -0.5000 -1.5000 -1.5000
v 0.5000 -0.5000 -1.5000
v 0.5000 -0.5000 -0.5000
v -0.5000 -0.5000 -1.5000
v 0.5000 0.5000 -1.5000
v 0.5000 0.5000 -0.5000
v -0.5000 0.5000 -1.5000
v 0.5000 1.5000 -1.5000
v -0.5000 1.5000 -1.5000
v -0.5000 -2.5000 -2.5000
v 0.5000 -2.5000 -2.5000
v -0.5000 -1.5000 -2.5000
v 0.5000 -1.5000 -2.5000
v -0.5000 -0.5000 -2.5000
v 0.5000 -0.5000 -2.5000
v -0.5000 0.5000 -2.5000
v 0.5000 0.5000 -2.5000
v 0.5000 1.5000 -2.5000
v -0.5000 1.5000 -2.5000
v 1.5000 -2.5000 -0.5000
v 1.5000 -2.5000 0.5000
v 1.5000 -1.5000 0.5000
v 1.5000 -1.5000 -0.5000
v 1.5000 -0.5000 0.5000
v 1.5000 -0.5000 -0.5000
v 1.5000 0.5000 0.5000
v 1.5000 0.5000 -0.5000
v 1.5000 1.5000 0.5000
v 1.5000 1.5000 -0.5000
v 2.5000 -2.5000 -0.5000
v 2.5000 -2.5000 0.5000
v 2.5000 -1.5000 0.5000
v 2.5000 -1.5000 -0.5000
v 2.5000 -0.5000 0.5000
v 2.5000 -0.5000 -0.5000
v 2.5000 0.5000 0.5000
v 2.5000 0.5000 -0.5000
v 2.5000 1.5000 0.5000
v 2.5000 1.5000 -0.5000
vt 0.001953 0.500000
vt 0.005859 0.500000
vt 0.009766 0.500000
vt 0.013672 0.500000
vt 0.017578 0.500000
vn 0.0 -1.0 0.0
vn 0.0 1.0 0.0
vn 0.0 0.0 1.0
vn 0.0 0.0 -1.0
vn -1.0 0.0 0.0
vn 1.0 0.0 0.0
usemtl mat_Cedro_Juan_Manuel_Lombana_Cárdenas_fase_1
s off
f 1/1/1 2/1/1 3/1/1 4/1/1
f 1/1/3 4/1/3 5/1/3 6/1/3
f 2/1/4 7/1/4 8/1/4 3/1/4
f 1/1/5 6/1/5 7/1/5 2/1/5
f 6/1/3 5/1/3 9/1/3 10/1/3
f 7/1/4 11/1/4 12/1/4 8/1/4
f 6/1/5 10/1/5 11/1/5 7/1/5
f 10/1/3 9/1/3 13/1/3 14/1/3
f 11/1/4 15/1/4 16/1/4 12/1/4
f 10/1/5 14/1/5 15/1/5 11/1/5
f 17/2/2 18/2/2 19/2/2 20/2/2
f 14/2/3 13/2/3 18/2/3 17/2/3
f 15/2/4 20/2/4 19/2/4 16/2/4
f 14/2/5 17/2/5 20/2/5 15/2/5
f 4/3/1 3/3/1 21/3/1 22/3/1
f 4/3/3 22/3/3 23/3/3 5/3/3
f 3/3/4 8/3/4 24/3/4 21/3/4
f 5/2/3 23/2/3 25/2/3 9/2/3
f 8/2/4 12/2/4 26/2/4 24/2/4
f 9/2/3 25/2/3 27/2/3 13/2/3
f 12/2/4 16/2/4 28/2/4 26/2/4
f 18/2/2 29/2/2 30/2/2 19/2/2
f 13/2/3 27/2/3 29/2/3 18/2/3
f 16/2/4 19/2/4 30/2/4 28/2/4
f 31/1/1 32/1/1 33/1/1 34/1/1
f 31/1/3 34/1/3 35/1/3 36/1/3
f 34/1/6 33/1/6 37/1/6 35/1/6
f 31/1/5 36/1/5 38/1/5 32/1/5
f 36/1/3 35/1/3 39/1/3 40/1/3
f 35/1/6 37/1/6 41/1/6 39/1/6
f 36/1/5 40/1/5 42/1/5 38/1/5
f 40/1/3 39/1/3 43/1/3 44/1/3
f 39/1/6 41/1/6 45/1/6 43/1/6
f 40/1/5 44/1/5 46/1/5 42/1/5
f 47/2/2 48/2/2 49/2/2 50/2/2
f 44/2/3 43/2/3 48/2/3 47/2/3
f 43/2/6 45/2/6 49/2/6 48/2/6
f 44/2/5 47/2/5 50/2/5 46/2/5
f 32/3/1 22/3/1 51/3/1 33/3/1
f 33/3/6 51/3/6 52/3/6 37/3/6
f 32/3/5 38/3/5 23/3/5 22/3/5
f 37/2/6 52/2/6 53/2/6 41/2/6
f 38/2/5 42/2/5 25/2/5 23/2/5
f 41/2/6 53/2/6 54/2/6 45/2/6
f 42/2/5 46/2/5 27/2/5 25/2/5
f 50/2/2 49/2/2 55/2/2 29/2/2
f 45/2/6 54/2/6 55/2/6 49/2/6
f 46/2/5 50/2/5 29/2/5 27/2/5
f 22/4/1 21/4/1 56/4/1 51/4/1
f 29/5/2 55/5/2 57/5/2 30/5/2
f 21/3/1 58/3/1 59/3/1 56/3/1
f 56/3/6 59/3/6 60/3/6 61/3/6
f 21/3/5 24/3/5 62/3/5 58/3/5
f 61/2/6 60/2/6 63/2/6 64/2/6
f 24/2/5 26/2/5 65/2/5 62/2/5
f 64/2/6 63/2/6 66/2/6 67/2/6
f 26/2/5 28/2/5 68/2/5 65/2/5
f 30/2/2 57/2/2 69/2/2 70/2/2
f 67/2/6 66/2/6 69/2/6 57/2/6
f 28/2/5 30/2/5 70/2/5 68/2/5
f 58/1/1 71/1/1 72/1/1 59/1/1
f 71/1/4 73/1/4 74/1/4 72/1/4
f 59/1/6 72/1/6 74/1/6 60/1/6
f 58/1/5 62/1/5 73/1/5 71/1/5
f 73/1/4 75/1/4 76/1/4 74/1/4
f 60/1/6 74/1/6 76/1/6 63/1/6
f 62/1/5 65/1/5 75/1/5 73/1/5
f 75/1/4 77/1/4 78/1/4 76/1/4
f 63/1/6 76/1/6 78/1/6 66/1/6
f 65/1/5 68/1/5 77/1/5 75/1/5
f 70/2/2 69/2/2 79/2/2 80/2/2
f 77/2/4 80/2/4 79/2/4 78/2/4
f 66/2/6 78/2/6 79/2/6 69/2/6
f 68/2/5 70/2/5 80/2/5 77/2/5
f 51/3/1 56/3/1 81/3/1 82/3/1
f 51/3/3 82/3/3 83/3/3 52/3/3
f 56/3/4 61/3/4 84/3/4 81/3/4
f 52/2/3 83/2/3 85/2/3 53/2/3
f 61/2/4 64/2/4 86/2/4 84/2/4
f 53/2/3 85/2/3 87/2/3 54/2/3
f 64/2/4 67/2/4 88/2/4 86/2/4
f 55/2/2 89/2/2 90/2/2 57/2/2
f 54/2/3 87/2/3 89/2/3 55/2/3
f 67/2/4 57/2/4 90/2/4 88/2/4
f 82/1/1 81/1/1 91/1/1 92/1/1
f 82/1/3 92/1/3 93/1/3 83/1/3
f 81/1/4 84/1/4 94/1/4 91/1/4
f 92/1/6 91/1/6 94/1/6 93/1/6
f 83/1/3 93/1/3 95/1/3 85/1/3
f 84/1/4 86/1/4 96/1/4 94/1/4
f 93/1/6 94/1/6 96/1/6 95/1/6
f 85/1/3 95/1/3 97/1/3 87/1/3
f 86/1/4 88/1/4 98/1/4 96/1/4
f 95/1/6 96/1/6 98/1/6 97/1/6
f 89/2/2 99/2/2 100/2/2 90/2/2
f 87/2/3 97/2/3 99/2/3 89/2/3
f 88/2/4 90/2/4 100/2/4 98/2/4
f 97/2/6 98/2/6 100/2/6 99/2/6
