mtllib Drago_Tomas_Mateo_Buitrago_Gutiérrez_fase_1.mtl
o Drago_Tomas_Mateo_Buitrago_Gutiérrez_fase_1
v -3.5000 -4.0000 1.5000
v -3.5000 -4.0000 0.5000
v -2.5000 -4.0000 0.5000
v -2.5000 -4.0000 1.5000
v -2.5000 -3.0000 1.5000
v -3.5000 -3.0000 1.5000
v -3.5000 -3.0000 0.5000
v -3.5000 -2.0000 1.5000
v -2.5000 -2.0000 1.5000
v -2.5000 -2.0000 0.5000
v -3.5000 -2.0000 0.5000
v -3.5000 -4.0000 -0.5000
v -2.5000 -4.0000 -0.5000
v -3.5000 -3.0000 -0.5000
v -2.5000 -2.0000 -0.5000
v -3.5000 -2.0000 -0.5000
v -3.5000 -4.0000 -1.5000
v -2.5000 -4.0000 -1.5000
v -3.5000 -3.0000 -1.5000
v -2.5000 -3.0000 -1.5000
v -2.5000 -2.0000 -1.5000
v -3.5000 -2.0000 -1.5000
v -2.5000 -5.0000 1.5000
v -2.5000 -5.0000 0.5000
v -1.5000 -5.0000 0.5000
v -1.5000 -5.0000 1.5000
v -1.5000 -4.0000 1.5000
v -1.5000 -3.0000 1.5000
v -1.5000 -2.0000 1.5000
v -2.5000 -1.0000 1.5000
v -1.5000 -1.0000 1.5000
v -1.5000 -1.0000 0.5000
v -2.5000 -1.0000 0.5000
v -2.5000 -5.0000 -0.5000
v -1.5000 -5.0000 -0.5000
v -1.5000 -1.0000 -0.5000
v -2.5000 -1.0000 -0.5000
v -2.5000 -5.0000 -1.5000
v -1.5000 -5.0000 -1.5000
v -1.5000 -4.0000 -1.5000
v -1.5000 -3.0000 -1.5000
v -1.5000 -2.0000 -1.5000
v -1.5000 -1.0000 -1.5000
v -2.5000 -1.0000 -1.5000
v -0.5000 -5.0000 0.5000
v -0.5000 -5.0000 1.5000
v -0.5000 -4.0000 1.5000
v -0.5000 -3.0000 1.5000
v -0.5000 -2.0000 1.5000
v -0.5000 -1.0000 1.5000
v -1.5000 0.0000 1.5000
v -0.5000 0.0000 1.5000
v -0.5000 0.0000 0.5000
v -1.5000 0.0000 0.5000
v -1.5000 4.0000 1.5000
v -0.5000 4.0000 1.5000
v -0.5000 4.0000 0.5000
v -1.5000 4.0000 0.5000
v -1.5000 3.0000 1.5000
v -1.5000 3.0000 0.5000
v -0.5000 3.0000 0.5000
v -0.5000 3.0000 1.5000
v -0.5000 -5.0000 -0.5000
v -0.5000 0.0000 -0.5000
v -1.5000 0.0000 -0.5000
v -0.5000 4.0000 -0.5000
v -1.5000 4.0000 -0.5000
v -1.5000 3.0000 -0.5000
v -0.5000 3.0000 -0.5000
v -0.5000 -5.0000 -1.5000
v -0.5000 -4.0000 -1.5000
v -0.5000 -3.0000 -1.5000
v -0.5000 -2.0000 -1.5000
v -0.5000 -1.0000 -1.5000
v -0.5000 0.0000 -1.5000
v -1.5000 0.0000 -1.5000
v -0.5000 4.0000 -1.5000
v -1.5000 4.0000 -1.5000
v -1.5000 3.0000 -1.5000
v -0.5000 3.0000 -1.5000
v 0.5000 -5.0000 0.5000
v 0.5000 -5.0000 1.5000
v 0.5000 -4.0000 1.5000
v 0.5000 -4.0000 0.5000
v 0.5000 -3.0000 1.5000
v 0.5000 -2.0000 1.5000
v 0.5000 -1.0000 1.5000
v 0.5000 0.0000 1.5000
v -0.5000 1.0000 1.5000
v 0.5000 1.0000 1.5000
v 0.5000 1.0000 0.5000
v -0.5000 1.0000 0.5000
v -0.5000 2.0000 1.5000
v -0.5000 2.0000 0.5000
v 0.5000 2.0000 0.5000
v 0.5000 2.0000 1.5000
v 0.5000 3.0000 1.5000
v 0.5000 4.0000 1.5000
v 0.5000 3.0000 0.5000
v 0.5000 4.0000 0.5000
v -0.5000 5.0000 1.5000
v 0.5000 5.0000 1.5000
v 0.5000 5.0000 0.5000
v -0.5000 5.0000 0.5000
v 0.5000 -5.0000 -0.5000
v 0.5000 -4.0000 -0.5000
v 0.5000 1.0000 -0.5000
v -0.5000 1.0000 -0.5000
v -0.5000 2.0000 -0.5000
v 0.5000 2.0000 -0.5000
v 0.5000 3.0000 -0.5000
v 0.5000 4.0000 -0.5000
v 0.5000 5.0000 -0.5000
v -0.5000 5.0000 -0.5000
v 0.5000 -5.0000 -1.5000
v 0.5000 -4.0000 -1.5000
v 0.5000 -3.0000 -1.5000
v 0.5000 -2.0000 -1.5000
v 0.5000 -1.0000 -1.5000
v 0.5000 0.0000 -1.5000
v 0.5000 1.0000 -1.5000
v -0.5000 1.0000 -1.5000
v -0.5000 2.0000 -1.5000
v 0.5000 2.0000 -1.5000
v 0.5000 3.0000 -1.5000
v 0.5000 4.0000 -1.5000
v 0.5000 5.0000 -1.5000
v -0.5000 5.0000 -1.5000
v 1.5000 -4.0000 0.5000
v 1.5000 -4.0000 1.5000
v 1.5000 -3.0000 1.5000
v 1.5000 -3.0000 0.5000
v 1.5000 -2.0000 1.5000
v 1.5000 -2.0000 0.5000
v 1.5000 -1.0000 1.5000
v 1.5000 -1.0000 0.5000
v 1.5000 0.0000 1.5000
v 1.5000 0.0000 0.5000
v 1.5000 1.0000 1.5000
v 1.5000 1.0000 0.5000
v 1.5000 2.0000 1.5000
v 1.5000 2.0000 0.5000
v 1.5000 3.0000 1.5000
v 1.5000 3.0000 0.5000
v 1.5000 -4.0000 -0.5000
v 1.5000 -3.0000 -0.5000
v 1.5000 -2.0000 -0.5000
v 1.5000 -1.0000 -0.5000
v 1.5000 0.0000 -0.5000
v 1.5000 1.0000 -0.5000
v 1.5000 2.0000 -0.5000
v 1.5000 3.0000 -0.5000
v 1.5000 -4.0000 -1.5000
v 1.5000 -3.0000 -1.5000
v 1.5000 -2.0000 -1.5000
v 1.5000 -1.0000 -1.5000
v 1.5000 0.0000 -1.5000
v 1.5000 1.0000 -1.5000
v 1.5000 2.0000 -1.5000
v 1.5000 3.0000 -1.5000
v 2.5000 2.0000 0.5000
v 2.5000 2.0000 1.5000
v 2.5000 3.0000 1.5000
v 2.5000 3.0000 0.5000
v 1.5000 4.0000 1.5000
v 2.5000 4.0000 1.5000
v 2.5000 4.0000 0.5000
v 1.5000 4.0000 0.5000
v 2.5000 2.0000 -0.5000
v 2.5000 3.0000 -0.5000
v 2.5000 4.0000 -0.5000
v 1.5000 4.0000 -0.5000
v 2.5000 2.0000 -1.5000
v 2.5000 3.0000 -1.5000
v 2.5000 4.0000 -1.5000
v 1.5000 4.0000 -1.5000
v 3.5000 4.0000 1.5000
v 3.5000 4.0000 0.5000
v 3.5000 3.0000 0.5000
v 3.5000 3.0000 1.5000
v 3.5000 4.0000 -0.5000
v 3.5000 3.0000 -0.5000
v 3.5000 4.0000 -1.5000
v 3.5000 3.0000 -1.5000
vt 0.001953 0.500000
vt 0.005859 0.500000
vt 0.009766 0.500000
vt 0.013672 0.500000
vt 0.017578 0.500000
vt 0.021484 0.500000
vt 0.025391 0.500000
vt 0.029297 0.500000
vn 0.0 -1.0 0.0
vn 0.0 1.0 0.0
vn 0.0 0.0 1.0
vn 0.0 0.0 -1.0
vn -1.0 0.0 0.0
vn 1.0 0.0 0.0
usemtl mat_Drago_Tomas_Mateo_Buitrago_Gutiérrez_fase_1
s off
f 1/1/1 2/1/1 3/1/1 4/1/1
f 1/1/3 4/1/3 5/1/3 6/1/3
f 1/1/5 6/1/5 7/1/5 2/1/5
f 8/2/2 9/2/2 10/2/2 11/2/2
f 6/2/3 5/2/3 9/2/3 8/2/3
f 6/2/5 8/2/5 11/2/5 7/2/5
f 2/1/1 12/1/1 13/1/1 3/1/1
f 2/1/5 7/1/5 14/1/5 12/1/5
f 11/2/2 10/2/2 15/2/2 16/2/2
f 7/2/5 11/2/5 16/2/5 14/2/5
f 12/1/1 17/1/1 18/1/1 13/1/1
f 17/1/4 19/1/4 20/1/4 18/1/4
f 12/1/5 14/1/5 19/1/5 17/1/5
f 16/2/2 15/2/2 21/2/2 22/2/2
f 19/2/4 22/2/4 21/2/4 20/2/4
f 14/2/5 16/2/5 22/2/5 19/2/5
f 23/3/1 24/3/1 25/3/1 26/3/1
f 23/3/3 26/3/3 27/3/3 4/3/3
f 23/3/5 4/3/5 3/3/5 24/3/5
f 4/4/3 27/4/3 28/4/3 5/4/3
f 5/5/3 28/5/3 29/5/3 9/5/3
f 30/3/2 31/3/2 32/3/2 33/3/2
f 9/3/3 29/3/3 31/3/3 30/3/3
f 9/3/5 30/3/5 33/3/5 10/3/5
f 24/3/1 34/3/1 35/3/1 25/3/1
f 24/3/5 3/3/5 13/3/5 34/3/5
f 33/3/2 32/3/2 36/3/2 37/3/2
f 10/3/5 33/3/5 37/3/5 15/3/5
f 34/3/1 38/3/1 39/3/1 35/3/1
f 38/3/4 18/3/4 40/3/4 39/3/4
f 34/3/5 13/3/5 18/3/5 38/3/5
f 18/1/4 20/1/4 41/1/4 40/1/4
f 20/5/4 21/5/4 42/5/4 41/5/4
f 37/3/2 36/3/2 43/3/2 44/3/2
f 21/3/4 44/3/4 43/3/4 42/3/4
f 15/3/5 37/3/5 44/3/5 21/3/5
f 26/2/1 25/2/1 45/2/1 46/2/1
f 26/2/3 46/2/3 47/2/3 27/2/3
f 27/5/3 47/5/3 48/5/3 28/5/3
f 28/4/3 48/4/3 49/4/3 29/4/3
f 29/5/3 49/5/3 50/5/3 31/5/3
f 51/3/2 52/3/2 53/3/2 54/3/2
f 31/3/3 50/3/3 52/3/3 51/3/3
f 31/3/5 51/3/5 54/3/5 32/3/5
f 55/6/2 56/6/2 57/6/2 58/6/2
f 59/6/1 60/6/1 61/6/1 62/6/1
f 59/6/3 62/6/3 56/6/3 55/6/3
f 59/6/5 55/6/5 58/6/5 60/6/5
f 25/3/1 35/3/1 63/3/1 45/3/1
f 54/3/2 53/3/2 64/3/2 65/3/2
f 32/3/5 54/3/5 65/3/5 36/3/5
f 58/6/2 57/6/2 66/6/2 67/6/2
f 60/6/1 68/6/1 69/6/1 61/6/1
f 60/6/5 58/6/5 67/6/5 68/6/5
f 35/3/1 39/3/1 70/3/1 63/3/1
f 39/3/4 40/3/4 71/3/4 70/3/4
f 40/1/4 41/1/4 72/1/4 71/1/4
f 41/4/4 42/4/4 73/4/4 72/4/4
f 42/5/4 43/5/4 74/5/4 73/5/4
f 65/3/2 64/3/2 75/3/2 76/3/2
f 43/3/4 76/3/4 75/3/4 74/3/4
f 36/3/5 65/3/5 76/3/5 43/3/5
f 67/6/2 66/6/2 77/6/2 78/6/2
f 68/6/1 79/6/1 80/6/1 69/6/1
f 79/6/4 78/6/4 77/6/4 80/6/4
f 68/6/5 67/6/5 78/6/5 79/6/5
f 46/3/1 45/3/1 81/3/1 82/3/1
f 46/3/3 82/3/3 83/3/3 47/3/3
f 82/3/6 81/3/6 84/3/6 83/3/6
f 47/3/3 83/3/3 85/3/3 48/3/3
f 48/5/3 85/5/3 86/5/3 49/5/3
f 49/3/3 86/3/3 87/3/3 50/3/3
f 50/5/3 87/5/3 88/5/3 52/5/3
f 89/3/2 90/3/2 91/3/2 92/3/2
f 52/3/3 88/3/3 90/3/3 89/3/3
f 52/3/5 89/3/5 92/3/5 53/3/5
f 93/6/1 94/6/1 95/6/1 96/6/1
f 93/6/3 96/6/3 97/6/3 62/6/3
f 93/6/5 62/6/5 61/6/5 94/6/5
f 62/7/3 97/7/3 98/7/3 56/7/3
f 97/7/6 99/7/6 100/7/6 98/7/6
f 101/6/2 102/6/2 103/6/2 104/6/2
f 56/6/3 98/6/3 102/6/3 101/6/3
f 98/6/6 100/6/6 103/6/6 102/6/6
f 56/6/5 101/6/5 104/6/5 57/6/5
f 45/3/1 63/3/1 105/3/1 81/3/1
f 81/3/6 105/3/6 106/3/6 84/3/6
f 92/3/2 91/3/2 107/3/2 108/3/2
f 53/3/5 92/3/5 108/3/5 64/3/5
f 94/6/1 109/6/1 110/6/1 95/6/1
f 94/6/5 61/6/5 69/6/5 109/6/5
f 99/7/6 111/7/6 112/7/6 100/7/6
f 104/6/2 103/6/2 113/6/2 114/6/2
f 100/6/6 112/6/6 113/6/6 103/6/6
f 57/6/5 104/6/5 114/6/5 66/6/5
f 63/3/1 70/3/1 115/3/1 105/3/1
f 70/3/4 71/3/4 116/3/4 115/3/4
f 105/3/6 115/3/6 116/3/6 106/3/6
f 71/1/4 72/1/4 117/1/4 116/1/4
f 72/5/4 73/5/4 118/5/4 117/5/4
f 73/3/4 74/3/4 119/3/4 118/3/4
f 74/5/4 75/5/4 120/5/4 119/5/4
f 108/3/2 107/3/2 121/3/2 122/3/2
f 75/3/4 122/3/4 121/3/4 120/3/4
f 64/3/5 108/3/5 122/3/5 75/3/5
f 109/6/1 123/6/1 124/6/1 110/6/1
f 123/6/4 80/6/4 125/6/4 124/6/4
f 109/6/5 69/6/5 80/6/5 123/6/5
f 80/7/4 77/7/4 126/7/4 125/7/4
f 111/7/6 125/7/6 126/7/6 112/7/6
f 114/6/2 113/6/2 127/6/2 128/6/2
f 77/6/4 128/6/4 127/6/4 126/6/4
f 112/6/6 126/6/6 127/6/6 113/6/6
f 66/6/5 114/6/5 128/6/5 77/6/5
f 83/2/1 84/2/1 129/2/1 130/2/1
f 83/2/3 130/2/3 131/2/3 85/2/3
f 130/2/6 129/2/6 132/2/6 131/2/6
f 85/3/3 131/3/3 133/3/3 86/3/3
f 131/3/6 132/3/6 134/3/6 133/3/6
f 86/5/3 133/5/3 135/5/3 87/5/3
f 133/5/6 134/5/6 136/5/6 135/5/6
f 87/5/3 135/5/3 137/5/3 88/5/3
f 135/5/6 136/5/6 138/5/6 137/5/6
f 88/8/3 137/8/3 139/8/3 90/8/3
f 137/8/6 138/8/6 140/8/6 139/8/6
f 90/7/3 139/7/3 141/7/3 96/7/3
f 139/7/6 140/7/6 142/7/6 141/7/6
f 90/7/5 96/7/5 95/7/5 91/7/5
f 97/7/2 143/7/2 144/7/2 99/7/2
f 96/7/3 141/7/3 143/7/3 97/7/3
f 84/1/1 106/1/1 145/1/1 129/1/1
f 129/1/6 145/1/6 146/1/6 132/1/6
f 132/3/6 146/3/6 147/3/6 134/3/6
f 134/5/6 147/5/6 148/5/6 136/5/6
f 136/5/6 148/5/6 149/5/6 138/5/6
f 138/6/6 149/6/6 150/6/6 140/6/6
f 140/7/6 150/7/6 151/7/6 142/7/6
f 91/7/5 95/7/5 110/7/5 107/7/5
f 99/7/2 144/7/2 152/7/2 111/7/2
f 106/1/1 116/1/1 153/1/1 145/1/1
f 116/1/4 117/1/4 154/1/4 153/1/4
f 145/1/6 153/1/6 154/1/6 146/1/6
f 117/3/4 118/3/4 155/3/4 154/3/4
f 146/3/6 154/3/6 155/3/6 147/3/6
f 118/5/4 119/5/4 156/5/4 155/5/4
f 147/5/6 155/5/6 156/5/6 148/5/6
f 119/5/4 120/5/4 157/5/4 156/5/4
f 148/5/6 156/5/6 157/5/6 149/5/6
f 120/6/4 121/6/4 158/6/4 157/6/4
f 149/6/6 157/6/6 158/6/6 150/6/6
f 121/7/4 124/7/4 159/7/4 158/7/4
f 150/7/6 158/7/6 159/7/6 151/7/6
f 107/7/5 110/7/5 124/7/5 121/7/5
f 111/7/2 152/7/2 160/7/2 125/7/2
f 124/7/4 125/7/4 160/7/4 159/7/4
f 141/6/1 142/6/1 161/6/1 162/6/1
f 141/6/3 162/6/3 163/6/3 143/6/3
f 162/6/6 161/6/6 164/6/6 163/6/6
f 165/7/2 166/7/2 167/7/2 168/7/2
f 143/7/3 163/7/3 166/7/3 165/7/3
f 143/7/5 165/7/5 168/7/5 144/7/5
f 142/6/1 151/6/1 169/6/1 161/6/1
f 161/6/6 169/6/6 170/6/6 164/6/6
f 168/7/2 167/7/2 171/7/2 172/7/2
f 144/7/5 168/7/5 172/7/5 152/7/5
f 151/6/1 159/6/1 173/6/1 169/6/1
f 159/6/4 160/6/4 174/6/4 173/6/4
f 169/6/6 173/6/6 174/6/6 170/6/6
f 172/7/2 171/7/2 175/7/2 176/7/2
f 160/7/4 176/7/4 175/7/4 174/7/4
f 152/7/5 172/7/5 176/7/5 160/7/5
f 166/6/2 177/6/2 178/6/2 167/6/2
f 163/6/1 164/6/1 179/6/1 180/6/1
f 163/6/3 180/6/3 177/6/3 166/6/3
f 180/6/6 179/6/6 178/6/6 177/6/6
f 167/6/2 178/6/2 181/6/2 171/6/2
f 164/6/1 170/6/1 182/6/1 179/6/1
f 179/6/6 182/6/6 181/6/6 178/6/6
f 171/6/2 181/6/2 183/6/2 175/6/2
f 170/6/1 174/6/1 184/6/1 182/6/1
f 174/6/4 175/6/4 183/6/4 184/6/4
f 182/6/6 184/6/6 183/6/6 181/6/6
