mtllib Drago_Adriana_Sofia_Espitia_Contreras_fase_1.mtl
o Drago_Adriana_Sofia_Espitia_Contreras_fase_1
v -2.0000 -1.0000 1.0000
v -2.0000 -1.0000 -0.0000
v -1.0000 -1.0000 -0.0000
v -1.0000 -1.0000 1.0000
v -1.0000 0.0000 1.0000
v -2.0000 0.0000 1.0000
v -2.0000 0.0000 -0.0000
v -2.0000 1.0000 1.0000
v -1.0000 1.0000 1.0000
v -1.0000 1.0000 -0.0000
v -2.0000 1.0000 -0.0000
v -2.0000 -1.0000 -1.0000
v -1.0000 -1.0000 -1.0000
v -2.0000 0.0000 -1.0000
v -1.0000 0.0000 -1.0000
v -1.0000 1.0000 -1.0000
v -2.0000 1.0000 -1.0000
v -1.0000 -1.0000 2.0000
v 0.0000 -1.0000 1.0000
v 0.0000 -1.0000 2.0000
v 0.0000 0.0000 2.0000
v -1.0000 0.0000 2.0000
v -1.0000 1.0000 2.0000
v 0.0000 1.0000 2.0000
v 0.0000 1.0000 1.0000
v -1.0000 -2.0000 1.0000
v -1.0000 -2.0000 -0.0000
v 0.0000 -2.0000 -0.0000
v 0.0000 -2.0000 1.0000
v -1.0000 2.0000 1.0000
v 0.0000 2.0000 1.0000
v 0.0000 2.0000 -0.0000
v -1.0000 2.0000 -0.0000
v -1.0000 -2.0000 -1.0000
v 0.0000 -2.0000 -1.0000
v 0.0000 -1.0000 -1.0000
v 0.0000 2.0000 -1.0000
v -1.0000 2.0000 -1.0000
v 0.0000 1.0000 -1.0000
v -1.0000 -1.0000 -2.0000
v 0.0000 -1.0000 -2.0000
v -1.0000 0.0000 -2.0000
v 0.0000 0.0000 -2.0000
v 0.0000 1.0000 -2.0000
v -1.0000 1.0000 -2.0000
v 1.0000 -1.0000 1.0000
v 1.0000 -1.0000 2.0000
v 1.0000 0.0000 2.0000
v 1.0000 0.0000 1.0000
v 1.0000 1.0000 2.0000
v 1.0000 1.0000 1.0000
v 1.0000 -2.0000 -0.0000
v 1.0000 -2.0000 1.0000
v 1.0000 -1.0000 -0.0000
v 1.0000 2.0000 1.0000
v 1.0000 2.0000 -0.0000
v 1.0000 1.0000 -0.0000
v 1.0000 -2.0000 -1.0000
v 1.0000 -1.0000 -1.0000
v 1.0000 2.0000 -1.0000
v 1.0000 1.0000 -1.0000
v 1.0000 -1.0000 -2.0000
v 1.0000 0.0000 -2.0000
v 1.0000 0.0000 -1.0000
v 1.0000 1.0000 -2.0000
v 2.0000 -1.0000 -0.0000
v 2.0000 -1.0000 1.0000
v 2.0000 0.0000 1.0000
v 2.0000 0.0000 -0.0000
v 2.0000 1.0000 1.0000
v 2.0000 1.0000 -0.0000
v 2.0000 -1.0000 -1.0000
v 2.0000 0.0000 -1.0000
v 2.0000 1.0000 -1.0000
vt 0.001953 0.500000
vt 0.005859 0.500000
vt 0.009766 0.500000
vt 0.013672 0.500000
vt 0.017578 0.500000
vn 0.0 -1.0 0.0
vn 0.0 1.0 0.0
vn 0.0 0.0 1.0
vn 0.0 0.0 -1.0
vn -1.0 0.0 0.0
vn 1.0 0.0 0.0
usemtl mat_Drago_Adriana_Sofia_Espitia_Contreras_fase_1
s off
f 1/1/1 2/1/1 3/1/1 4/1/1
f 1/1/3 4/1/3 5/1/3 6/1/3
f 1/1/5 6/1/5 7/1/5 2/1/5
f 8/1/2 9/1/2 10/1/2 11/1/2
f 6/1/3 5/1/3 9/1/3 8/1/3
f 6/1/5 8/1/5 11/1/5 7/1/5
f 2/1/1 12/1/1 13/1/1 3/1/1
f 12/1/4 14/1/4 15/1/4 13/1/4
f 2/1/5 7/1/5 14/1/5 12/1/5
f 11/2/2 10/2/2 16/2/2 17/2/2
f 14/2/4 17/2/4 16/2/4 15/2/4
f 7/2/5 11/2/5 17/2/5 14/2/5
f 18/1/1 4/1/1 19/1/1 20/1/1
f 18/1/3 20/1/3 21/1/3 22/1/3
f 18/1/5 22/1/5 5/1/5 4/1/5
f 23/2/2 24/2/2 25/2/2 9/2/2
f 22/2/3 21/2/3 24/2/3 23/2/3
f 22/2/5 23/2/5 9/2/5 5/2/5
f 26/2/1 27/2/1 28/2/1 29/2/1
f 26/2/3 29/2/3 19/2/3 4/2/3
f 26/2/5 4/2/5 3/2/5 27/2/5
f 30/4/2 31/4/2 32/4/2 33/4/2
f 9/4/3 25/4/3 31/4/3 30/4/3
f 9/4/5 30/4/5 33/4/5 10/4/5
f 27/2/1 34/2/1 35/2/1 28/2/1
f 34/2/4 13/2/4 36/2/4 35/2/4
f 27/2/5 3/2/5 13/2/5 34/2/5
f 33/5/2 32/5/2 37/5/2 38/5/2
f 16/5/4 38/5/4 37/5/4 39/5/4
f 10/5/5 33/5/5 38/5/5 16/5/5
f 13/1/1 40/1/1 41/1/1 36/1/1
f 40/1/4 42/1/4 43/1/4 41/1/4
f 13/1/5 15/1/5 42/1/5 40/1/5
f 16/2/2 39/2/2 44/2/2 45/2/2
f 42/2/4 45/2/4 44/2/4 43/2/4
f 15/2/5 16/2/5 45/2/5 42/2/5
f 20/1/1 19/1/1 46/1/1 47/1/1
f 20/1/3 47/1/3 48/1/3 21/1/3
f 47/1/6 46/1/6 49/1/6 48/1/6
f 24/1/2 50/1/2 51/1/2 25/1/2
f 21/1/3 48/1/3 50/1/3 24/1/3
f 48/1/6 49/1/6 51/1/6 50/1/6
f 29/2/1 28/2/1 52/2/1 53/2/1
f 29/2/3 53/2/3 46/2/3 19/2/3
f 53/2/6 52/2/6 54/2/6 46/2/6
f 31/5/2 55/5/2 56/5/2 32/5/2
f 25/5/3 51/5/3 55/5/3 31/5/3
f 51/5/6 57/5/6 56/5/6 55/5/6
f 28/2/1 35/2/1 58/2/1 52/2/1
f 35/2/4 36/2/4 59/2/4 58/2/4
f 52/2/6 58/2/6 59/2/6 54/2/6
f 32/4/2 56/4/2 60/4/2 37/4/2
f 39/4/4 37/4/4 60/4/4 61/4/4
f 57/4/6 61/4/6 60/4/6 56/4/6
f 36/1/1 41/1/1 62/1/1 59/1/1
f 41/1/4 43/1/4 63/1/4 62/1/4
f 59/1/6 62/1/6 63/1/6 64/1/6
f 39/1/2 61/1/2 65/1/2 44/1/2
f 43/1/4 44/1/4 65/1/4 63/1/4
f 64/1/6 63/1/6 65/1/6 61/1/6
f 46/1/1 54/1/1 66/1/1 67/1/1
f 46/1/3 67/1/3 68/1/3 49/1/3
f 67/1/6 66/1/6 69/1/6 68/1/6
f 51/1/2 70/1/2 71/1/2 57/1/2
f 49/1/3 68/1/3 70/1/3 51/1/3
f 68/1/6 69/1/6 71/1/6 70/1/6
f 54/1/1 59/1/1 72/1/1 66/1/1
f 59/1/4 64/1/4 73/1/4 72/1/4
f 66/1/6 72/1/6 73/1/6 69/1/6
f 57/2/2 71/2/2 74/2/2 61/2/2
f 64/2/4 61/2/4 74/2/4 73/2/4
f 69/2/6 73/2/6 74/2/6 71/2/6
