mtllib Manzano_Julian_David_Almonacid_Vanegas_fase_1.mtl
o Manzano_Julian_David_Almonacid_Vanegas_fase_1
v -1.5000 -1.5000 1.5000
v -1.5000 -1.5000 0.5000
v -0.5000 -1.5000 0.5000
v -0.5000 -1.5000 1.5000
v -0.5000 -0.5000 1.5000
v -1.5000 -0.5000 1.5000
v -1.5000 -0.5000 0.5000
v -1.5000 0.5000 1.5000
v -0.5000 0.5000 1.5000
v -0.5000 0.5000 0.5000
v -1.5000 0.5000 0.5000
v -0.5000 -0.5000 0.5000
v -1.5000 -2.5000 0.5000
v -1.5000 -2.5000 -0.5000
v -0.5000 -2.5000 -0.5000
v -0.5000 -2.5000 0.5000
v -1.5000 -1.5000 -0.5000
v -0.5000 -1.5000 -0.5000
v -1.5000 -0.5000 -0.5000
v -1.5000 0.5000 -0.5000
v -1.5000 1.5000 0.5000
v -0.5000 1.5000 0.5000
v -0.5000 1.5000 -0.5000
v -1.5000 1.5000 -0.5000
v -0.5000 0.5000 -0.5000
v -1.5000 -1.5000 -1.5000
v -0.5000 -1.5000 -1.5000
v -1.5000 -0.5000 -1.5000
v -0.5000 -0.5000 -1.5000
v -0.5000 -0.5000 -0.5000
v -0.5000 0.5000 -1.5000
v -1.5000 0.5000 -1.5000
v -0.5000 -2.5000 1.5000
v 0.5000 -2.5000 0.5000
v 0.5000 -2.5000 1.5000
v 0.5000 -1.5000 1.5000
v 0.5000 -1.5000 0.5000
v 0.5000 -0.5000 1.5000
v 0.5000 -0.5000 0.5000
v -0.5000 1.5000 1.5000
v 0.5000 1.5000 1.5000
v 0.5000 1.5000 0.5000
v 0.5000 0.5000 0.5000
v 0.5000 0.5000 1.5000
v 0.5000 -2.5000 -0.5000
v 0.5000 -0.5000 -0.5000
v 0.5000 -1.5000 -0.5000
v -0.5000 2.5000 0.5000
v 0.5000 2.5000 0.5000
v 0.5000 2.5000 -0.5000
v -0.5000 2.5000 -0.5000
v 0.5000 1.5000 -0.5000
v 0.5000 -1.5000 -1.5000
v -0.5000 -2.5000 -1.5000
v 0.5000 -2.5000 -1.5000
v 0.5000 -0.5000 -1.5000
v 0.5000 0.5000 -1.5000
v 0.5000 1.5000 -1.5000
v -0.5000 1.5000 -1.5000
v 0.5000 0.5000 -0.5000
v 1.5000 -1.5000 0.5000
v 1.5000 -1.5000 1.5000
v 1.5000 -0.5000 1.5000
v 1.5000 -0.5000 0.5000
v 1.5000 0.5000 1.5000
v 1.5000 0.5000 0.5000
v 1.5000 -2.5000 -0.5000
v 1.5000 -2.5000 0.5000
v 1.5000 -1.5000 -0.5000
v 1.5000 -0.5000 -0.5000
v 1.5000 0.5000 -0.5000
v 1.5000 1.5000 0.5000
v 1.5000 1.5000 -0.5000
v 1.5000 -1.5000 -1.5000
v 1.5000 -0.5000 -1.5000
v 1.5000 0.5000 -1.5000
vt 0.001953 0.500000
vt 0.005859 0.500000
vt 0.009766 0.500000
vt 0.013672 0.500000
vt 0.017578 0.500000
vn 0.0 -1.0 0.0
vn 0.0 1.0 0.0
vn 0.0 0.0 1.0
vn 0.0 0.0 -1.0
vn -1.0 0.0 0.0
vn 1.0 0.0 0.0
usemtl mat_Manzano_Julian_David_Almonacid_Vanegas_fase_1
s off
f 1/1/1 2/1/1 3/1/1 4/1/1
f 1/1/3 4/1/3 5/1/3 6/1/3
f 1/1/5 6/1/5 7/1/5 2/1/5
f 8/1/2 9/1/2 10/1/2 11/1/2
f 6/1/3 5/1/3 9/1/3 8/1/3
f 5/1/6 12/1/6 10/1/6 9/1/6
f 6/1/5 8/1/5 11/1/5 7/1/5
f 13/2/1 14/2/1 15/2/1 16/2/1
f 13/2/3 16/2/3 3/2/3 2/2/3
f 14/2/4 17/2/4 18/2/4 15/2/4
f 13/2/5 2/2/5 17/2/5 14/2/5
f 2/3/5 7/3/5 19/3/5 17/3/5
f 7/3/5 11/3/5 20/3/5 19/3/5
f 21/2/2 22/2/2 23/2/2 24/2/2
f 11/2/3 10/2/3 22/2/3 21/2/3
f 20/2/4 24/2/4 23/2/4 25/2/4
f 11/2/5 21/2/5 24/2/5 20/2/5
f 17/1/1 26/1/1 27/1/1 18/1/1
f 26/1/4 28/1/4 29/1/4 27/1/4
f 18/1/6 27/1/6 29/1/6 30/1/6
f 17/1/5 19/1/5 28/1/5 26/1/5
f 20/1/2 25/1/2 31/1/2 32/1/2
f 28/1/4 32/1/4 31/1/4 29/1/4
f 19/1/5 20/1/5 32/1/5 28/1/5
f 33/2/1 16/2/1 34/2/1 35/2/1
f 33/2/3 35/2/3 36/2/3 4/2/3
f 35/2/6 34/2/6 37/2/6 36/2/6
f 33/2/5 4/2/5 3/2/5 16/2/5
f 5/4/2 38/4/2 39/4/2 12/4/2
f 4/4/3 36/4/3 38/4/3 5/4/3
f 40/2/2 41/2/2 42/2/2 22/2/2
f 9/2/1 10/2/1 43/2/1 44/2/1
f 9/2/3 44/2/3 41/2/3 40/2/3
f 44/2/6 43/2/6 42/2/6 41/2/6
f 9/2/5 40/2/5 22/2/5 10/2/5
f 16/2/1 15/2/1 45/2/1 34/2/1
f 18/4/4 30/4/4 46/4/4 47/4/4
f 12/4/3 39/4/3 43/4/3 10/4/3
f 48/1/2 49/1/2 50/1/2 51/1/2
f 22/1/3 42/1/3 49/1/3 48/1/3
f 23/1/4 51/1/4 50/1/4 52/1/4
f 42/1/6 52/1/6 50/1/6 49/1/6
f 22/1/5 48/1/5 51/1/5 23/1/5
f 18/2/2 47/2/2 53/2/2 27/2/2
f 15/2/1 54/2/1 55/2/1 45/2/1
f 54/2/4 27/2/4 53/2/4 55/2/4
f 45/2/6 55/2/6 53/2/6 47/2/6
f 15/2/5 18/2/5 27/2/5 54/2/5
f 30/4/1 29/4/1 56/4/1 46/4/1
f 29/4/4 31/4/4 57/4/4 56/4/4
f 23/2/2 52/2/2 58/2/2 59/2/2
f 31/2/4 59/2/4 58/2/4 57/2/4
f 60/2/6 57/2/6 58/2/6 52/2/6
f 25/2/5 23/2/5 59/2/5 31/2/5
f 36/1/1 37/1/1 61/1/1 62/1/1
f 36/1/3 62/1/3 63/1/3 38/1/3
f 62/1/6 61/1/6 64/1/6 63/1/6
f 44/1/2 65/1/2 66/1/2 43/1/2
f 38/1/3 63/1/3 65/1/3 44/1/3
f 63/1/6 64/1/6 66/1/6 65/1/6
f 38/1/5 44/1/5 43/1/5 39/1/5
f 34/2/1 45/2/1 67/2/1 68/2/1
f 34/2/3 68/2/3 61/2/3 37/2/3
f 45/2/4 47/2/4 69/2/4 67/2/4
f 68/2/6 67/2/6 69/2/6 61/2/6
f 61/1/6 69/1/6 70/1/6 64/1/6
f 64/1/6 70/1/6 71/1/6 66/1/6
f 42/2/2 72/2/2 73/2/2 52/2/2
f 43/2/3 66/2/3 72/2/3 42/2/3
f 60/2/4 52/2/4 73/2/4 71/2/4
f 66/2/6 71/2/6 73/2/6 72/2/6
f 47/1/1 53/1/1 74/1/1 69/1/1
f 53/1/4 56/1/4 75/1/4 74/1/4
f 69/1/6 74/1/6 75/1/6 70/1/6
f 47/1/5 46/1/5 56/1/5 53/1/5
f 60/1/2 71/1/2 76/1/2 57/1/2
f 56/1/4 57/1/4 76/1/4 75/1/4
f 70/1/6 75/1/6 76/1/6 71/1/6
