mtllib Manzano_Mateo_Andres_Guzmán_Reyes_fase_1.mtl
o Manzano_Mateo_Andres_Guzmán_Reyes_fase_1
v -2.0000 0.0000 2.0000
v -1.0000 0.0000 2.0000
v -1.0000 0.0000 1.0000
v -2.0000 0.0000 1.0000
v -2.0000 -1.0000 2.0000
v -2.0000 -1.0000 1.0000
v -1.0000 -1.0000 1.0000
v -1.0000 -1.0000 2.0000
v -2.0000 -2.0000 1.0000
v -2.0000 -2.0000 -0.0000
v -1.0000 -2.0000 -0.0000
v -1.0000 -2.0000 1.0000
v -2.0000 -1.0000 -0.0000
v -2.0000 0.0000 -0.0000
v -2.0000 1.0000 1.0000
v -1.0000 1.0000 1.0000
v -1.0000 1.0000 -0.0000
v -2.0000 1.0000 -0.0000
v -2.0000 -2.0000 -1.0000
v -1.0000 -2.0000 -1.0000
v -2.0000 -1.0000 -1.0000
v -1.0000 -1.0000 -1.0000
v -2.0000 0.0000 -1.0000
v -1.0000 1.0000 -1.0000
v -2.0000 1.0000 -1.0000
v -1.0000 0.0000 -1.0000
v -1.0000 0.0000 -2.0000
v -2.0000 0.0000 -2.0000
v -2.0000 -1.0000 -2.0000
v -1.0000 -1.0000 -2.0000
v -1.0000 -2.0000 2.0000
v 0.0000 -2.0000 1.0000
v 0.0000 -2.0000 2.0000
v 0.0000 -1.0000 2.0000
v 0.0000 0.0000 2.0000
v 0.0000 -1.0000 1.0000
v 0.0000 0.0000 1.0000
v -1.0000 1.0000 2.0000
v 0.0000 1.0000 2.0000
v 0.0000 1.0000 1.0000
v 0.0000 -2.0000 -0.0000
v -1.0000 2.0000 1.0000
v 0.0000 2.0000 1.0000
v 0.0000 2.0000 -0.0000
v -1.0000 2.0000 -0.0000
v 0.0000 -2.0000 -1.0000
v 0.0000 2.0000 -1.0000
v -1.0000 2.0000 -1.0000
v 0.0000 1.0000 -1.0000
v -1.0000 -2.0000 -2.0000
v 0.0000 -2.0000 -2.0000
v 0.0000 -1.0000 -2.0000
v 0.0000 0.0000 -2.0000
v 0.0000 1.0000 -2.0000
v -1.0000 1.0000 -2.0000
v 1.0000 -1.0000 2.0000
v 1.0000 -1.0000 1.0000
v 1.0000 -2.0000 1.0000
v 1.0000 -2.0000 2.0000
v 1.0000 1.0000 2.0000
v 1.0000 1.0000 1.0000
v 1.0000 0.0000 1.0000
v 1.0000 0.0000 2.0000
v 1.0000 -2.0000 -0.0000
v 1.0000 2.0000 1.0000
v 1.0000 2.0000 -0.0000
v 1.0000 1.0000 -0.0000
v 1.0000 -2.0000 -1.0000
v 1.0000 2.0000 -1.0000
v 1.0000 1.0000 -1.0000
v 1.0000 -2.0000 -2.0000
v 1.0000 -1.0000 -2.0000
v 1.0000 -1.0000 -1.0000
v 1.0000 0.0000 -2.0000
v 1.0000 1.0000 -2.0000
v 1.0000 0.0000 -1.0000
v 2.0000 0.0000 2.0000
v 2.0000 0.0000 1.0000
v 2.0000 -1.0000 1.0000
v 2.0000 -1.0000 2.0000
v 2.0000 -2.0000 -0.0000
v 2.0000 -2.0000 1.0000
v 2.0000 -1.0000 -0.0000
v 2.0000 0.0000 -0.0000
v 2.0000 1.0000 1.0000
v 2.0000 1.0000 -0.0000
v 2.0000 -2.0000 -1.0000
v 2.0000 -1.0000 -1.0000
v 2.0000 0.0000 -1.0000
v 2.0000 1.0000 -1.0000
v 2.0000 0.0000 -2.0000
v 2.0000 -1.0000 -2.0000
vt 0.001953 0.500000
vt 0.005859 0.500000
vn 0.0 -1.0 0.0
vn 0.0 1.0 0.0
vn 0.0 0.0 1.0
vn 0.0 0.0 -1.0
vn -1.0 0.0 0.0
vn 1.0 0.0 0.0
usemtl mat_Manzano_Mateo_Andres_Guzmán_Reyes_fase_1
s off
f 1/1/2 2/1/2 3/1/2 4/1/2
f 5/1/1 6/1/1 7/1/1 8/1/1
f 5/1/3 8/1/3 2/1/3 1/1/3
f 5/1/5 1/1/5 4/1/5 6/1/5
f 9/1/1 10/1/1 11/1/1 12/1/1
f 9/1/3 12/1/3 7/1/3 6/1/3
f 9/1/5 6/1/5 13/1/5 10/1/5
f 6/1/5 4/1/5 14/1/5 13/1/5
f 15/1/2 16/1/2 17/1/2 18/1/2
f 4/1/3 3/1/3 16/1/3 15/1/3
f 4/1/5 15/1/5 18/1/5 14/1/5
f 10/1/1 19/1/1 20/1/1 11/1/1
f 19/1/4 21/1/4 22/1/4 20/1/4
f 10/1/5 13/1/5 21/1/5 19/1/5
f 13/1/5 14/1/5 23/1/5 21/1/5
f 18/1/2 17/1/2 24/1/2 25/1/2
f 23/1/4 25/1/4 24/1/4 26/1/4
f 14/1/5 18/1/5 25/1/5 23/1/5
f 23/1/2 26/1/2 27/1/2 28/1/2
f 21/1/1 29/1/1 30/1/1 22/1/1
f 29/1/4 28/1/4 27/1/4 30/1/4
f 21/1/5 23/1/5 28/1/5 29/1/5
f 31/1/1 12/1/1 32/1/1 33/1/1
f 31/1/3 33/1/3 34/1/3 8/1/3
f 31/1/5 8/1/5 7/1/5 12/1/5
f 8/1/3 34/1/3 35/1/3 2/1/3
f 34/1/6 36/1/6 37/1/6 35/1/6
f 38/1/2 39/1/2 40/1/2 16/1/2
f 2/1/3 35/1/3 39/1/3 38/1/3
f 2/1/5 38/1/5 16/1/5 3/1/5
f 12/1/1 11/1/1 41/1/1 32/1/1
f 42/2/2 43/2/2 44/2/2 45/2/2
f 16/2/3 40/2/3 43/2/3 42/2/3
f 16/2/5 42/2/5 45/2/5 17/2/5
f 11/1/1 20/1/1 46/1/1 41/1/1
f 45/2/2 44/2/2 47/2/2 48/2/2
f 24/2/4 48/2/4 47/2/4 49/2/4
f 17/2/5 45/2/5 48/2/5 24/2/5
f 20/1/1 50/1/1 51/1/1 46/1/1
f 50/1/4 30/1/4 52/1/4 51/1/4
f 20/1/5 22/1/5 30/1/5 50/1/5
f 30/1/4 27/1/4 53/1/4 52/1/4
f 24/1/2 49/1/2 54/1/2 55/1/2
f 27/1/4 55/1/4 54/1/4 53/1/4
f 26/1/5 24/1/5 55/1/5 27/1/5
f 34/1/2 56/1/2 57/1/2 36/1/2
f 33/1/1 32/1/1 58/1/1 59/1/1
f 33/1/3 59/1/3 56/1/3 34/1/3
f 59/1/6 58/1/6 57/1/6 56/1/6
f 39/1/2 60/1/2 61/1/2 40/1/2
f 35/1/1 37/1/1 62/1/1 63/1/1
f 35/1/3 63/1/3 60/1/3 39/1/3
f 63/1/6 62/1/6 61/1/6 60/1/6
f 32/1/1 41/1/1 64/1/1 58/1/1
f 36/1/3 57/1/3 62/1/3 37/1/3
f 43/2/2 65/2/2 66/2/2 44/2/2
f 40/2/3 61/2/3 65/2/3 43/2/3
f 61/2/6 67/2/6 66/2/6 65/2/6
f 41/1/1 46/1/1 68/1/1 64/1/1
f 44/2/2 66/2/2 69/2/2 47/2/2
f 49/2/4 47/2/4 69/2/4 70/2/4
f 67/2/6 70/2/6 69/2/6 66/2/6
f 46/1/1 51/1/1 71/1/1 68/1/1
f 51/1/4 52/1/4 72/1/4 71/1/4
f 68/1/6 71/1/6 72/1/6 73/1/6
f 52/1/4 53/1/4 74/1/4 72/1/4
f 49/1/2 70/1/2 75/1/2 54/1/2
f 53/1/4 54/1/4 75/1/4 74/1/4
f 76/1/6 74/1/6 75/1/6 70/1/6
f 63/1/2 77/1/2 78/1/2 62/1/2
f 56/1/1 57/1/1 79/1/1 80/1/1
f 56/1/3 80/1/3 77/1/3 63/1/3
f 80/1/6 79/1/6 78/1/6 77/1/6
f 56/1/5 63/1/5 62/1/5 57/1/5
f 58/1/1 64/1/1 81/1/1 82/1/1
f 58/1/3 82/1/3 79/1/3 57/1/3
f 82/1/6 81/1/6 83/1/6 79/1/6
f 79/1/6 83/1/6 84/1/6 78/1/6
f 61/1/2 85/1/2 86/1/2 67/1/2
f 62/1/3 78/1/3 85/1/3 61/1/3
f 78/1/6 84/1/6 86/1/6 85/1/6
f 64/1/1 68/1/1 87/1/1 81/1/1
f 68/1/4 73/1/4 88/1/4 87/1/4
f 81/1/6 87/1/6 88/1/6 83/1/6
f 83/1/6 88/1/6 89/1/6 84/1/6
f 67/1/2 86/1/2 90/1/2 70/1/2
f 76/1/4 70/1/4 90/1/4 89/1/4
f 84/1/6 89/1/6 90/1/6 86/1/6
f 76/1/2 89/1/2 91/1/2 74/1/2
f 73/1/1 72/1/1 92/1/1 88/1/1
f 72/1/4 74/1/4 91/1/4 92/1/4
f 88/1/6 92/1/6 91/1/6 89/1/6
