mtllib Juan_Esteban_Quintana_Rodríguez_fase_1.mtl
o Juan_Esteban_Quintana_Rodríguez_fase_1
v -2.0000 -2.0000 -0.0000
v -2.0000 -2.0000 -1.0000
v -1.0000 -2.0000 -1.0000
v -1.0000 -2.0000 -0.0000
v -1.0000 -1.0000 -0.0000
v -2.0000 -1.0000 -0.0000
v -2.0000 -1.0000 -1.0000
v -1.0000 -1.0000 -1.0000
v -1.0000 0.0000 -0.0000
v -2.0000 0.0000 -0.0000
v -2.0000 0.0000 -1.0000
v -1.0000 0.0000 -1.0000
v -1.0000 1.0000 -0.0000
v -2.0000 1.0000 -0.0000
v -2.0000 1.0000 -1.0000
v -1.0000 1.0000 -1.0000
v -2.0000 2.0000 -0.0000
v -1.0000 2.0000 -0.0000
v -1.0000 2.0000 -1.0000
v -2.0000 2.0000 -1.0000
v -1.0000 -2.0000 1.0000
v 0.0000 -2.0000 -0.0000
v 0.0000 -2.0000 1.0000
v 0.0000 -1.0000 1.0000
v -1.0000 -1.0000 1.0000
v 0.0000 0.0000 1.0000
v -1.0000 0.0000 1.0000
v 0.0000 1.0000 1.0000
v -1.0000 1.0000 1.0000
v -1.0000 2.0000 1.0000
v 0.0000 2.0000 1.0000
v 0.0000 2.0000 -0.0000
v 0.0000 -2.0000 -1.0000
v 0.0000 2.0000 -1.0000
v -1.0000 -2.0000 -2.0000
v 0.0000 -2.0000 -2.0000
v -1.0000 -1.0000 -2.0000
v 0.0000 -1.0000 -2.0000
v -1.0000 0.0000 -2.0000
v 0.0000 0.0000 -2.0000
v -1.0000 1.0000 -2.0000
v 0.0000 1.0000 -2.0000
v 0.0000 2.0000 -2.0000
v -1.0000 2.0000 -2.0000
v 1.0000 -2.0000 -0.0000
v 1.0000 -2.0000 1.0000
v 1.0000 -1.0000 1.0000
v 1.0000 -1.0000 -0.0000
v 1.0000 0.0000 1.0000
v 1.0000 0.0000 -0.0000
v 1.0000 1.0000 1.0000
v 1.0000 1.0000 -0.0000
v 1.0000 2.0000 1.0000
v 1.0000 2.0000 -0.0000
v 1.0000 -2.0000 -1.0000
v 1.0000 2.0000 -1.0000
v 1.0000 -2.0000 -2.0000
v 1.0000 -1.0000 -2.0000
v 1.0000 -1.0000 -1.0000
v 1.0000 0.0000 -2.0000
v 1.0000 0.0000 -1.0000
v 1.0000 1.0000 -2.0000
v 1.0000 1.0000 -1.0000
v 1.0000 2.0000 -2.0000
v 2.0000 -2.0000 -1.0000
v 2.0000 -2.0000 -0.0000
v 2.0000 -1.0000 -0.0000
v 2.0000 -1.0000 -1.0000
v 2.0000 0.0000 -0.0000
v 2.0000 0.0000 -1.0000
v 2.0000 1.0000 -0.0000
v 2.0000 1.0000 -1.0000
v 2.0000 2.0000 -0.0000
v 2.0000 2.0000 -1.0000
vt 0.001953 0.500000
vt 0.005859 0.500000
vn 0.0 -1.0 0.0
vn 0.0 1.0 0.0
vn 0.0 0.0 1.0
vn 0.0 0.0 -1.0
vn -1.0 0.0 0.0
vn 1.0 0.0 0.0
usemtl mat_Juan_Esteban_Quintana_Rodríguez_fase_1
s off
f 1/1/1 2/1/1 3/1/1 4/1/1
f 1/1/3 4/1/3 5/1/3 6/1/3
f 2/1/4 7/1/4 8/1/4 3/1/4
f 1/1/5 6/1/5 7/1/5 2/1/5
f 6/2/3 5/2/3 9/2/3 10/2/3
f 7/2/4 11/2/4 12/2/4 8/2/4
f 6/2/5 10/2/5 11/2/5 7/2/5
f 10/2/3 9/2/3 13/2/3 14/2/3
f 11/2/4 15/2/4 16/2/4 12/2/4
f 10/2/5 14/2/5 15/2/5 11/2/5
f 17/1/2 18/1/2 19/1/2 20/1/2
f 14/1/3 13/1/3 18/1/3 17/1/3
f 15/1/4 20/1/4 19/1/4 16/1/4
f 14/1/5 17/1/5 20/1/5 15/1/5
f 21/1/1 4/1/1 22/1/1 23/1/1
f 21/1/3 23/1/3 24/1/3 25/1/3
f 21/1/5 25/1/5 5/1/5 4/1/5
f 25/2/3 24/2/3 26/2/3 27/2/3
f 25/2/5 27/2/5 9/2/5 5/2/5
f 27/2/3 26/2/3 28/2/3 29/2/3
f 27/2/5 29/2/5 13/2/5 9/2/5
f 30/1/2 31/1/2 32/1/2 18/1/2
f 29/1/3 28/1/3 31/1/3 30/1/3
f 29/1/5 30/1/5 18/1/5 13/1/5
f 4/1/1 3/1/1 33/1/1 22/1/1
f 18/1/2 32/1/2 34/1/2 19/1/2
f 3/1/1 35/1/1 36/1/1 33/1/1
f 35/1/4 37/1/4 38/1/4 36/1/4
f 3/1/5 8/1/5 37/1/5 35/1/5
f 37/2/4 39/2/4 40/2/4 38/2/4
f 8/2/5 12/2/5 39/2/5 37/2/5
f 39/2/4 41/2/4 42/2/4 40/2/4
f 12/2/5 16/2/5 41/2/5 39/2/5
f 19/1/2 34/1/2 43/1/2 44/1/2
f 41/1/4 44/1/4 43/1/4 42/1/4
f 16/1/5 19/1/5 44/1/5 41/1/5
f 23/1/1 22/1/1 45/1/1 46/1/1
f 23/1/3 46/1/3 47/1/3 24/1/3
f 46/1/6 45/1/6 48/1/6 47/1/6
f 24/2/3 47/2/3 49/2/3 26/2/3
f 47/2/6 48/2/6 50/2/6 49/2/6
f 26/2/3 49/2/3 51/2/3 28/2/3
f 49/2/6 50/2/6 52/2/6 51/2/6
f 31/1/2 53/1/2 54/1/2 32/1/2
f 28/1/3 51/1/3 53/1/3 31/1/3
f 51/1/6 52/1/6 54/1/6 53/1/6
f 22/1/1 33/1/1 55/1/1 45/1/1
f 32/1/2 54/1/2 56/1/2 34/1/2
f 33/1/1 36/1/1 57/1/1 55/1/1
f 36/1/4 38/1/4 58/1/4 57/1/4
f 55/1/6 57/1/6 58/1/6 59/1/6
f 38/2/4 40/2/4 60/2/4 58/2/4
f 59/2/6 58/2/6 60/2/6 61/2/6
f 40/2/4 42/2/4 62/2/4 60/2/4
f 61/2/6 60/2/6 62/2/6 63/2/6
f 34/1/2 56/1/2 64/1/2 43/1/2
f 42/1/4 43/1/4 64/1/4 62/1/4
f 63/1/6 62/1/6 64/1/6 56/1/6
f 45/1/1 55/1/1 65/1/1 66/1/1
f 45/1/3 66/1/3 67/1/3 48/1/3
f 55/1/4 59/1/4 68/1/4 65/1/4
f 66/1/6 65/1/6 68/1/6 67/1/6
f 48/2/3 67/2/3 69/2/3 50/2/3
f 59/2/4 61/2/4 70/2/4 68/2/4
f 67/2/6 68/2/6 70/2/6 69/2/6
f 50/2/3 69/2/3 71/2/3 52/2/3
f 61/2/4 63/2/4 72/2/4 70/2/4
f 69/2/6 70/2/6 72/2/6 71/2/6
f 54/1/2 73/1/2 74/1/2 56/1/2
f 52/1/3 71/1/3 73/1/3 54/1/3
f 63/1/4 56/1/4 74/1/4 72/1/4
f 71/1/6 72/1/6 74/1/6 73/1/6
