# MagicaVoxel @ Ephtracy

# group
o 

# material
mtllib PlantasVoxel pivot-0.mtl
usemtl palette

# normals
vn -1 0 0
vn 1 0 0
vn 0 0 1
vn 0 0 -1
vn 0 -1 0
vn 0 1 0

# texcoords
vt 0.865234 0.5
vt 0.908203 0.5
vt 0.912109 0.5

# verts
v -0.2 0 0.1
v -0.2 0 -0.1
v -0.2 0.1 0.2
v -0.2 0.1 0.1
v -0.2 0.1 -0.1
v -0.2 0.1 -0.2
v -0.2 0.2 0.2
v -0.2 0.2 -0.2
v -0.1 0 0.2
v -0.1 0 0.1
v -0.1 0 -0.1
v -0.1 0 -0.2
v -0.1 0.1 0.2
v -0.1 0.1 0.1
v -0.1 0.1 -0.1
v -0.1 0.1 -0.2
v -0.1 0.2 0.2
v -0.1 0.2 -0.2
v -0.1 0.3 0.2
v -0.1 0.3 -0.2
v 0 0.1 0.2
v 0 0.1 0.1
v 0 0.1 -0.1
v 0 0.1 -0.2
v 0 0.2 0.2
v 0 0.2 0.1
v 0 0.2 -0.1
v 0 0.2 -0.2
v 0 0.3 0.2
v 0 0.3 -0.2
v 0 0.4 0.2
v 0 0.4 -0.2
v 0.1 0.2 0.2
v 0.1 0.2 0.1
v 0.1 0.2 -0.1
v 0.1 0.2 -0.2
v 0.1 0.3 0.2
v 0.1 0.3 0.1
v 0.1 0.3 -0.1
v 0.1 0.3 -0.2
v -0.1 0.1 0.2
v -0.1 0.1 0.1
v -0.1 0.1 -0.1
v -0.1 0.1 -0.2
v -0.1 0.2 0.2
v -0.1 0.2 0.1
v -0.1 0.2 -0.1
v -0.1 0.2 -0.2
v 0 0.2 0.2
v 0 0.2 0.1
v 0 0.2 -0.1
v 0 0.2 -0.2
v 0 0.3 0.2
v 0 0.3 0.1
v 0 0.3 -0.1
v 0 0.3 -0.2
v 0.1 0 0.2
v 0.1 0 -0.2
v 0.1 0.1 0.2
v 0.1 0.1 -0.2
v 0.1 0.3 0.2
v 0.1 0.3 0.1
v 0.1 0.3 -0.1
v 0.1 0.3 -0.2
v 0.1 0.4 0.2
v 0.1 0.4 0.1
v 0.1 0.4 -0.1
v 0.1 0.4 -0.2
v 0.2 0.1 0.2
v 0.2 0.1 -0.2
v 0.2 0.3 0.2
v 0.2 0.3 0.1
v 0.2 0.3 -0.1
v 0.2 0.3 -0.2
v 0.2 0.4 0.1
v 0.2 0.4 -0.1
v -0.2 0.1 0.2
v -0.2 0.2 0.2
v -0.1 0 0.2
v -0.1 0.1 0.2
v -0.1 0.2 0.2
v -0.1 0.3 0.2
v 0 0.1 0.2
v 0 0.2 0.2
v 0 0.3 0.2
v 0 0.4 0.2
v 0.1 0 0.2
v 0.1 0.1 0.2
v 0.1 0.2 0.2
v 0.1 0.3 0.2
v 0.1 0.4 0.2
v 0.2 0.1 0.2
v 0.2 0.3 0.2
v -0.2 0 0.1
v -0.2 0.1 0.1
v -0.1 0 0.1
v -0.1 0.1 0.1
v -0.1 0.2 0.1
v 0 0.1 0.1
v 0 0.2 0.1
v 0 0.3 0.1
v 0.1 0.2 0.1
v 0.1 0.3 0.1
v 0.1 0.4 0.1
v 0.2 0.3 0.1
v 0.2 0.4 0.1
v -0.2 0 -0.1
v -0.2 0.1 -0.1
v -0.1 0 -0.1
v -0.1 0.1 -0.1
v -0.1 0.2 -0.1
v 0 0.1 -0.1
v 0 0.2 -0.1
v 0 0.3 -0.1
v 0.1 0.2 -0.1
v 0.1 0.3 -0.1
v 0.1 0.4 -0.1
v 0.2 0.3 -0.1
v 0.2 0.4 -0.1
v -0.2 0.1 -0.2
v -0.2 0.2 -0.2
v -0.1 0 -0.2
v -0.1 0.1 -0.2
v -0.1 0.2 -0.2
v -0.1 0.3 -0.2
v 0 0.1 -0.2
v 0 0.2 -0.2
v 0 0.3 -0.2
v 0 0.4 -0.2
v 0.1 0 -0.2
v 0.1 0.1 -0.2
v 0.1 0.2 -0.2
v 0.1 0.3 -0.2
v 0.1 0.4 -0.2
v 0.2 0.1 -0.2
v 0.2 0.3 -0.2
v -0.1 0 0.2
v 0.1 0 0.2
v -0.2 0 0.1
v -0.1 0 0.1
v -0.2 0 -0.1
v -0.1 0 -0.1
v -0.1 0 -0.2
v 0.1 0 -0.2
v -0.2 0.1 0.2
v -0.1 0.1 0.2
v 0.1 0.1 0.2
v 0.2 0.1 0.2
v -0.2 0.1 0.1
v -0.1 0.1 0.1
v -0.2 0.1 -0.1
v -0.1 0.1 -0.1
v -0.2 0.1 -0.2
v -0.1 0.1 -0.2
v 0.1 0.1 -0.2
v 0.2 0.1 -0.2
v -0.1 0.2 0.2
v 0 0.2 0.2
v -0.1 0.2 0.1
v 0 0.2 0.1
v -0.1 0.2 -0.1
v 0 0.2 -0.1
v -0.1 0.2 -0.2
v 0 0.2 -0.2
v 0 0.3 0.2
v 0.1 0.3 0.2
v 0 0.3 0.1
v 0.1 0.3 0.1
v 0 0.3 -0.1
v 0.1 0.3 -0.1
v 0 0.3 -0.2
v 0.1 0.3 -0.2
v -0.1 0.1 0.2
v 0 0.1 0.2
v -0.1 0.1 0.1
v 0 0.1 0.1
v -0.1 0.1 -0.1
v 0 0.1 -0.1
v -0.1 0.1 -0.2
v 0 0.1 -0.2
v -0.2 0.2 0.2
v -0.1 0.2 0.2
v 0 0.2 0.2
v 0.1 0.2 0.2
v 0 0.2 0.1
v 0.1 0.2 0.1
v 0 0.2 -0.1
v 0.1 0.2 -0.1
v -0.2 0.2 -0.2
v -0.1 0.2 -0.2
v 0 0.2 -0.2
v 0.1 0.2 -0.2
v -0.1 0.3 0.2
v 0 0.3 0.2
v 0.1 0.3 0.2
v 0.2 0.3 0.2
v 0.1 0.3 0.1
v 0.2 0.3 0.1
v 0.1 0.3 -0.1
v 0.2 0.3 -0.1
v -0.1 0.3 -0.2
v 0 0.3 -0.2
v 0.1 0.3 -0.2
v 0.2 0.3 -0.2
v 0 0.4 0.2
v 0.1 0.4 0.2
v 0.1 0.4 0.1
v 0.2 0.4 0.1
v 0.1 0.4 -0.1
v 0.2 0.4 -0.1
v 0 0.4 -0.2
v 0.1 0.4 -0.2

# faces
f 4/3/1 2/3/1 1/3/1
f 5/3/1 2/3/1 4/3/1
f 7/3/1 4/3/1 3/3/1
f 7/3/1 6/3/1 5/3/1
f 7/3/1 5/3/1 4/3/1
f 8/3/1 6/3/1 7/3/1
f 13/3/1 10/3/1 9/3/1
f 14/3/1 10/3/1 13/3/1
f 15/3/1 12/3/1 11/3/1
f 16/3/1 12/3/1 15/3/1
f 19/3/1 18/3/1 17/3/1
f 20/3/1 18/3/1 19/3/1
f 25/2/1 22/2/1 21/2/1
f 26/2/1 22/2/1 25/2/1
f 27/2/1 24/2/1 23/2/1
f 28/2/1 24/2/1 27/2/1
f 31/3/1 30/3/1 29/3/1
f 32/3/1 30/3/1 31/3/1
f 37/3/1 34/3/1 33/3/1
f 38/3/1 34/3/1 37/3/1
f 39/3/1 36/3/1 35/3/1
f 40/3/1 36/3/1 39/3/1
f 41/3/2 42/3/2 45/3/2
f 45/3/2 42/3/2 46/3/2
f 43/3/2 44/3/2 47/3/2
f 47/3/2 44/3/2 48/3/2
f 49/3/2 50/3/2 53/3/2
f 53/3/2 50/3/2 54/3/2
f 51/3/2 52/3/2 55/3/2
f 55/3/2 52/3/2 56/3/2
f 57/3/2 58/3/2 59/3/2
f 59/3/2 58/3/2 60/3/2
f 61/3/2 62/3/2 65/3/2
f 65/3/2 62/3/2 66/3/2
f 63/3/2 64/3/2 67/3/2
f 67/3/2 64/3/2 68/3/2
f 69/3/2 70/3/2 71/3/2
f 71/3/2 70/3/2 72/3/2
f 72/3/2 70/3/2 73/3/2
f 73/3/2 70/3/2 74/3/2
f 72/3/2 73/3/2 75/3/2
f 75/3/2 73/3/2 76/3/2
f 80/3/3 78/3/3 77/3/3
f 81/3/3 78/3/3 80/3/3
f 83/3/3 80/3/3 79/3/3
f 84/3/3 82/3/3 81/3/3
f 85/3/3 82/3/3 84/3/3
f 87/3/3 83/3/3 79/3/3
f 88/2/3 84/2/3 83/2/3
f 88/3/3 83/3/3 87/3/3
f 89/2/3 84/2/3 88/2/3
f 90/3/3 86/3/3 85/3/3
f 91/3/3 86/3/3 90/3/3
f 92/3/3 89/3/3 88/3/3
f 92/3/3 90/3/3 89/3/3
f 93/3/3 90/3/3 92/3/3
f 96/3/3 95/3/3 94/3/3
f 97/3/3 95/3/3 96/3/3
f 99/1/3 98/1/3 97/1/3
f 100/1/3 98/1/3 99/1/3
f 102/1/3 101/1/3 100/1/3
f 103/1/3 101/1/3 102/1/3
f 105/3/3 104/3/3 103/3/3
f 106/3/3 104/3/3 105/3/3
f 107/3/4 108/3/4 109/3/4
f 109/3/4 108/3/4 110/3/4
f 110/1/4 111/1/4 112/1/4
f 112/1/4 111/1/4 113/1/4
f 113/1/4 114/1/4 115/1/4
f 115/1/4 114/1/4 116/1/4
f 116/3/4 117/3/4 118/3/4
f 118/3/4 117/3/4 119/3/4
f 120/3/4 121/3/4 123/3/4
f 123/3/4 121/3/4 124/3/4
f 122/3/4 123/3/4 126/3/4
f 124/3/4 125/3/4 127/3/4
f 127/3/4 125/3/4 128/3/4
f 122/3/4 126/3/4 130/3/4
f 126/2/4 127/2/4 131/2/4
f 130/3/4 126/3/4 131/3/4
f 131/2/4 127/2/4 132/2/4
f 128/3/4 129/3/4 133/3/4
f 133/3/4 129/3/4 134/3/4
f 131/3/4 132/3/4 135/3/4
f 132/3/4 133/3/4 135/3/4
f 135/3/4 133/3/4 136/3/4
f 140/3/5 138/3/5 137/3/5
f 141/3/5 140/3/5 139/3/5
f 142/3/5 138/3/5 140/3/5
f 142/3/5 140/3/5 141/3/5
f 143/3/5 138/3/5 142/3/5
f 144/3/5 138/3/5 143/3/5
f 149/3/5 146/3/5 145/3/5
f 150/3/5 146/3/5 149/3/5
f 153/3/5 152/3/5 151/3/5
f 154/3/5 152/3/5 153/3/5
f 155/3/5 148/3/5 147/3/5
f 156/3/5 148/3/5 155/3/5
f 159/3/5 158/3/5 157/3/5
f 160/3/5 158/3/5 159/3/5
f 163/3/5 162/3/5 161/3/5
f 164/3/5 162/3/5 163/3/5
f 167/3/5 166/3/5 165/3/5
f 168/3/5 166/3/5 167/3/5
f 171/3/5 170/3/5 169/3/5
f 172/3/5 170/3/5 171/3/5
f 173/3/6 174/3/6 175/3/6
f 175/3/6 174/3/6 176/3/6
f 177/3/6 178/3/6 179/3/6
f 179/3/6 178/3/6 180/3/6
f 183/2/6 184/2/6 185/2/6
f 185/2/6 184/2/6 186/2/6
f 181/3/6 182/3/6 189/3/6
f 189/3/6 182/3/6 190/3/6
f 187/2/6 188/2/6 191/2/6
f 191/2/6 188/2/6 192/2/6
f 195/3/6 196/3/6 197/3/6
f 197/3/6 196/3/6 198/3/6
f 193/3/6 194/3/6 201/3/6
f 201/3/6 194/3/6 202/3/6
f 199/3/6 200/3/6 203/3/6
f 203/3/6 200/3/6 204/3/6
f 205/3/6 206/3/6 207/3/6
f 205/3/6 207/3/6 209/3/6
f 207/3/6 208/3/6 209/3/6
f 209/3/6 208/3/6 210/3/6
f 205/3/6 209/3/6 211/3/6
f 211/3/6 209/3/6 212/3/6
