mtllib Pino_romeron_Daniel_Felipe_Orjuela_Rodríguez_fase_1.mtl
o Pino_romeron_Daniel_Felipe_Orjuela_Rodríguez_fase_1
v -1.5000 -0.5000 1.5000
v -0.5000 -0.5000 1.5000
v -0.5000 -0.5000 0.5000
v -1.5000 -0.5000 0.5000
v -1.5000 -1.5000 1.5000
v -1.5000 -1.5000 0.5000
v -0.5000 -1.5000 0.5000
v -0.5000 -1.5000 1.5000
v -1.5000 -1.5000 -0.5000
v -0.5000 -1.5000 -0.5000
v -1.5000 -0.5000 -0.5000
v -1.5000 0.5000 0.5000
v -0.5000 0.5000 0.5000
v -0.5000 0.5000 -0.5000
v -1.5000 0.5000 -0.5000
v -0.5000 -0.5000 -0.5000
v -0.5000 -0.5000 -1.5000
v -1.5000 -0.5000 -1.5000
v -1.5000 -1.5000 -1.5000
v -0.5000 -1.5000 -1.5000
v 0.5000 -1.5000 0.5000
v 0.5000 -1.5000 1.5000
v 0.5000 -0.5000 1.5000
v -0.5000 0.5000 1.5000
v 0.5000 0.5000 1.5000
v 0.5000 0.5000 0.5000
v 0.5000 -0.5000 0.5000
v 0.5000 -1.5000 -0.5000
v -0.5000 1.5000 0.5000
v 0.5000 1.5000 0.5000
v 0.5000 1.5000 -0.5000
v -0.5000 1.5000 -0.5000
v 0.5000 0.5000 -0.5000
v 0.5000 -1.5000 -1.5000
v 0.5000 -0.5000 -1.5000
v 0.5000 0.5000 -1.5000
v -0.5000 0.5000 -1.5000
v 0.5000 -0.5000 -0.5000
v 1.5000 -0.5000 1.5000
v 1.5000 -0.5000 0.5000
v 1.5000 -1.5000 0.5000
v 1.5000 -1.5000 1.5000
v 1.5000 -1.5000 -0.5000
v 1.5000 -0.5000 -0.5000
v 1.5000 0.5000 0.5000
v 1.5000 0.5000 -0.5000
v 1.5000 -0.5000 -1.5000
v 1.5000 -1.5000 -1.5000
vt 0.001953 0.500000
vt 0.005859 0.500000
vt 0.009766 0.500000
vt 0.013672 0.500000
vn 0.0 -1.0 0.0
vn 0.0 1.0 0.0
vn 0.0 0.0 1.0
vn 0.0 0.0 -1.0
vn -1.0 0.0 0.0
vn 1.0 0.0 0.0
usemtl mat_Pino_romeron_Daniel_Felipe_Orjuela_Rodríguez_fase_1
s off
f 1/1/2 2/1/2 3/1/2 4/1/2
f 5/1/1 6/1/1 7/1/1 8/1/1
f 5/1/3 8/1/3 2/1/3 1/1/3
f 5/1/5 1/1/5 4/1/5 6/1/5
f 6/2/1 9/2/1 10/2/1 7/2/1
f 6/2/5 4/2/5 11/2/5 9/2/5
f 12/1/2 13/1/2 14/1/2 15/1/2
f 4/1/3 3/1/3 13/1/3 12/1/3
f 11/1/4 15/1/4 14/1/4 16/1/4
f 4/1/5 12/1/5 15/1/5 11/1/5
f 11/1/2 16/1/2 17/1/2 18/1/2
f 9/1/1 19/1/1 20/1/1 10/1/1
f 19/1/4 18/1/4 17/1/4 20/1/4
f 9/1/5 11/1/5 18/1/5 19/1/5
f 8/3/1 7/3/1 21/3/1 22/3/1
f 8/3/3 22/3/3 23/3/3 2/3/3
f 24/4/2 25/4/2 26/4/2 13/4/2
f 2/4/3 23/4/3 25/4/3 24/4/3
f 23/4/6 27/4/6 26/4/6 25/4/6
f 2/4/5 24/4/5 13/4/5 3/4/5
f 7/1/1 10/1/1 28/1/1 21/1/1
f 29/1/2 30/1/2 31/1/2 32/1/2
f 13/1/3 26/1/3 30/1/3 29/1/3
f 14/1/4 32/1/4 31/1/4 33/1/4
f 26/1/6 33/1/6 31/1/6 30/1/6
f 13/1/5 29/1/5 32/1/5 14/1/5
f 10/1/1 20/1/1 34/1/1 28/1/1
f 20/1/4 17/1/4 35/1/4 34/1/4
f 14/1/2 33/1/2 36/1/2 37/1/2
f 17/1/4 37/1/4 36/1/4 35/1/4
f 38/1/6 35/1/6 36/1/6 33/1/6
f 16/1/5 14/1/5 37/1/5 17/1/5
f 23/1/2 39/1/2 40/1/2 27/1/2
f 22/1/1 21/1/1 41/1/1 42/1/1
f 22/1/3 42/1/3 39/1/3 23/1/3
f 42/1/6 41/1/6 40/1/6 39/1/6
f 21/1/1 28/1/1 43/1/1 41/1/1
f 41/1/6 43/1/6 44/1/6 40/1/6
f 26/1/2 45/1/2 46/1/2 33/1/2
f 27/1/3 40/1/3 45/1/3 26/1/3
f 38/1/4 33/1/4 46/1/4 44/1/4
f 40/1/6 44/1/6 46/1/6 45/1/6
f 38/1/2 44/1/2 47/1/2 35/1/2
f 28/1/1 34/1/1 48/1/1 43/1/1
f 34/1/4 35/1/4 47/1/4 48/1/4
f 43/1/6 48/1/6 47/1/6 44/1/6
