mtllib Pino_romeron_Juan_Esteban_Acosta_Peña_fase_1.mtl
o Pino_romeron_Juan_Esteban_Acosta_Peña_fase_1
v -2.0000 0.0000 2.0000
v -1.0000 0.0000 2.0000
v -1.0000 0.0000 1.0000
v -2.0000 0.0000 1.0000
v -2.0000 -1.0000 2.0000
v -2.0000 -1.0000 1.0000
v -1.0000 -1.0000 1.0000
v -1.0000 -1.0000 2.0000
v -2.0000 -2.0000 1.0000
v -2.0000 -2.0000 -0.0000
v -1.0000 -2.0000 -0.0000
v -1.0000 -2.0000 1.0000
v -2.0000 -1.0000 -0.0000
v -2.0000 0.0000 -0.0000
v -2.0000 1.0000 1.0000
v -1.0000 1.0000 1.0000
v -1.0000 1.0000 -0.0000
v -2.0000 1.0000 -0.0000
v -2.0000 -2.0000 -1.0000
v -1.0000 -2.0000 -1.0000
v -2.0000 -1.0000 -1.0000
v -1.0000 -1.0000 -1.0000
v -2.0000 0.0000 -1.0000
v -1.0000 1.0000 -1.0000
v -2.0000 1.0000 -1.0000
v -1.0000 0.0000 -1.0000
v -1.0000 0.0000 -2.0000
v -2.0000 0.0000 -2.0000
v -2.0000 -1.0000 -2.0000
v -1.0000 -1.0000 -2.0000
v -1.0000 -2.0000 2.0000
v 0.0000 -2.0000 1.0000
v 0.0000 -2.0000 2.0000
v 0.0000 -1.0000 2.0000
v 0.0000 0.0000 2.0000
v -1.0000 1.0000 2.0000
v 0.0000 1.0000 2.0000
v 0.0000 1.0000 1.0000
v 0.0000 -2.0000 -0.0000
v 0.0000 1.0000 -0.0000
v 0.0000 -2.0000 -1.0000
v -1.0000 2.0000 -0.0000
v 0.0000 2.0000 -0.0000
v 0.0000 2.0000 -1.0000
v -1.0000 2.0000 -1.0000
v 0.0000 1.0000 -1.0000
v -1.0000 -2.0000 -2.0000
v 0.0000 -2.0000 -2.0000
v 0.0000 -1.0000 -2.0000
v 0.0000 0.0000 -2.0000
v 0.0000 1.0000 -2.0000
v -1.0000 1.0000 -2.0000
v 1.0000 -2.0000 1.0000
v 1.0000 -2.0000 2.0000
v 1.0000 -1.0000 2.0000
v 1.0000 -1.0000 1.0000
v 1.0000 0.0000 2.0000
v 1.0000 1.0000 2.0000
v 1.0000 1.0000 1.0000
v 1.0000 0.0000 1.0000
v 1.0000 -2.0000 -0.0000
v 0.0000 2.0000 1.0000
v 1.0000 2.0000 1.0000
v 1.0000 2.0000 -0.0000
v 1.0000 1.0000 -0.0000
v 1.0000 -2.0000 -1.0000
v 1.0000 1.0000 -1.0000
v 1.0000 -2.0000 -2.0000
v 1.0000 -1.0000 -2.0000
v 1.0000 -1.0000 -1.0000
v 1.0000 0.0000 -2.0000
v 1.0000 1.0000 -2.0000
v 1.0000 0.0000 -1.0000
v 2.0000 0.0000 2.0000
v 2.0000 0.0000 1.0000
v 2.0000 -1.0000 1.0000
v 2.0000 -1.0000 2.0000
v 2.0000 -2.0000 -0.0000
v 2.0000 -2.0000 1.0000
v 2.0000 -1.0000 -0.0000
v 2.0000 0.0000 -0.0000
v 2.0000 1.0000 1.0000
v 2.0000 1.0000 -0.0000
v 2.0000 -2.0000 -1.0000
v 2.0000 -1.0000 -1.0000
v 2.0000 0.0000 -1.0000
v 2.0000 1.0000 -1.0000
v 2.0000 0.0000 -2.0000
v 2.0000 -1.0000 -2.0000
vt 0.001953 0.500000
vt 0.005859 0.500000
vt 0.009766 0.500000
vt 0.013672 0.500000
vt 0.017578 0.500000
vn 0.0 -1.0 0.0
vn 0.0 1.0 0.0
vn 0.0 0.0 1.0
vn 0.0 0.0 -1.0
vn -1.0 0.0 0.0
vn 1.0 0.0 0.0
usemtl mat_Pino_romeron_Juan_Esteban_Acosta_Peña_fase_1
s off
f 1/1/2 2/1/2 3/1/2 4/1/2
f 5/1/1 6/1/1 7/1/1 8/1/1
f 5/1/3 8/1/3 2/1/3 1/1/3
f 5/1/5 1/1/5 4/1/5 6/1/5
f 9/2/1 10/2/1 11/2/1 12/2/1
f 9/2/3 12/2/3 7/2/3 6/2/3
f 9/2/5 6/2/5 13/2/5 10/2/5
f 6/3/5 4/3/5 14/3/5 13/3/5
f 15/2/2 16/2/2 17/2/2 18/2/2
f 4/2/3 3/2/3 16/2/3 15/2/3
f 4/2/5 15/2/5 18/2/5 14/2/5
f 10/1/1 19/1/1 20/1/1 11/1/1
f 19/1/4 21/1/4 22/1/4 20/1/4
f 10/1/5 13/1/5 21/1/5 19/1/5
f 13/2/5 14/2/5 23/2/5 21/2/5
f 18/1/2 17/1/2 24/1/2 25/1/2
f 23/1/4 25/1/4 24/1/4 26/1/4
f 14/1/5 18/1/5 25/1/5 23/1/5
f 23/1/2 26/1/2 27/1/2 28/1/2
f 21/1/1 29/1/1 30/1/1 22/1/1
f 29/1/4 28/1/4 27/1/4 30/1/4
f 21/1/5 23/1/5 28/1/5 29/1/5
f 31/1/1 12/1/1 32/1/1 33/1/1
f 31/1/3 33/1/3 34/1/3 8/1/3
f 31/1/5 8/1/5 7/1/5 12/1/5
f 8/2/3 34/2/3 35/2/3 2/2/3
f 36/1/2 37/1/2 38/1/2 16/1/2
f 2/1/3 35/1/3 37/1/3 36/1/3
f 2/1/5 36/1/5 16/1/5 3/1/5
f 12/3/1 11/3/1 39/3/1 32/3/1
f 16/5/2 38/5/2 40/5/2 17/5/2
f 11/2/1 20/2/1 41/2/1 39/2/1
f 42/3/2 43/3/2 44/3/2 45/3/2
f 17/3/3 40/3/3 43/3/3 42/3/3
f 24/3/4 45/3/4 44/3/4 46/3/4
f 40/3/6 46/3/6 44/3/6 43/3/6
f 17/3/5 42/3/5 45/3/5 24/3/5
f 20/2/1 47/2/1 48/2/1 41/2/1
f 47/2/4 30/2/4 49/2/4 48/2/4
f 20/2/5 22/2/5 30/2/5 47/2/5
f 30/3/4 27/3/4 50/3/4 49/3/4
f 24/2/2 46/2/2 51/2/2 52/2/2
f 27/2/4 52/2/4 51/2/4 50/2/4
f 26/2/5 24/2/5 52/2/5 27/2/5
f 33/2/1 32/2/1 53/2/1 54/2/1
f 33/2/3 54/2/3 55/2/3 34/2/3
f 54/2/6 53/2/6 56/2/6 55/2/6
f 34/3/3 55/3/3 57/3/3 35/3/3
f 37/2/2 58/2/2 59/2/2 38/2/2
f 35/2/3 57/2/3 58/2/3 37/2/3
f 57/2/6 60/2/6 59/2/6 58/2/6
f 32/2/1 39/2/1 61/2/1 53/2/1
f 62/3/2 63/3/2 64/3/2 43/3/2
f 38/3/3 59/3/3 63/3/3 62/3/3
f 40/3/4 43/3/4 64/3/4 65/3/4
f 59/3/6 65/3/6 64/3/6 63/3/6
f 38/3/5 62/3/5 43/3/5 40/3/5
f 39/3/1 41/3/1 66/3/1 61/3/1
f 40/5/2 65/5/2 67/5/2 46/5/2
f 41/1/1 48/1/1 68/1/1 66/1/1
f 48/1/4 49/1/4 69/1/4 68/1/4
f 66/1/6 68/1/6 69/1/6 70/1/6
f 49/2/4 50/2/4 71/2/4 69/2/4
f 46/1/2 67/1/2 72/1/2 51/1/2
f 50/1/4 51/1/4 72/1/4 71/1/4
f 73/1/6 71/1/6 72/1/6 67/1/6
f 57/1/2 74/1/2 75/1/2 60/1/2
f 55/1/1 56/1/1 76/1/1 77/1/1
f 55/1/3 77/1/3 74/1/3 57/1/3
f 77/1/6 76/1/6 75/1/6 74/1/6
f 53/1/1 61/1/1 78/1/1 79/1/1
f 53/1/3 79/1/3 76/1/3 56/1/3
f 79/1/6 78/1/6 80/1/6 76/1/6
f 76/2/6 80/2/6 81/2/6 75/2/6
f 59/1/2 82/1/2 83/1/2 65/1/2
f 60/1/3 75/1/3 82/1/3 59/1/3
f 75/1/6 81/1/6 83/1/6 82/1/6
f 61/2/1 66/2/1 84/2/1 78/2/1
f 66/2/4 70/2/4 85/2/4 84/2/4
f 78/2/6 84/2/6 85/2/6 80/2/6
f 80/3/6 85/3/6 86/3/6 81/3/6
f 65/2/2 83/2/2 87/2/2 67/2/2
f 73/2/4 67/2/4 87/2/4 86/2/4
f 81/2/6 86/2/6 87/2/6 83/2/6
f 73/1/2 86/1/2 88/1/2 71/1/2
f 70/1/1 69/1/1 89/1/1 85/1/1
f 69/1/4 71/1/4 88/1/4 89/1/4
f 85/1/6 89/1/6 88/1/6 86/1/6
