mtllib Danna_Lucia_Plazas_Lara_fase_1.mtl
o Danna_Lucia_Plazas_Lara_fase_1
v -2.0000 0.0000 2.0000
v -1.0000 0.0000 2.0000
v -1.0000 0.0000 1.0000
v -2.0000 0.0000 1.0000
v -2.0000 -1.0000 2.0000
v -2.0000 -1.0000 1.0000
v -1.0000 -1.0000 1.0000
v -1.0000 -1.0000 2.0000
v -2.0000 -2.0000 1.0000
v -2.0000 -2.0000 -0.0000
v -1.0000 -2.0000 -0.0000
v -1.0000 -2.0000 1.0000
v -2.0000 -1.0000 -0.0000
v -2.0000 0.0000 -0.0000
v -2.0000 1.0000 1.0000
v -1.0000 1.0000 1.0000
v -1.0000 1.0000 -0.0000
v -2.0000 1.0000 -0.0000
v -2.0000 -2.0000 -1.0000
v -1.0000 -2.0000 -1.0000
v -2.0000 -1.0000 -1.0000
v -1.0000 -1.0000 -1.0000
v -2.0000 0.0000 -1.0000
v -1.0000 1.0000 -1.0000
v -2.0000 1.0000 -1.0000
v -1.0000 0.0000 -1.0000
v -1.0000 0.0000 -2.0000
v -2.0000 0.0000 -2.0000
v -2.0000 -1.0000 -2.0000
v -1.0000 -1.0000 -2.0000
v -1.0000 -2.0000 2.0000
v 0.0000 -2.0000 1.0000
v 0.0000 -2.0000 2.0000
v 0.0000 -1.0000 2.0000
v 0.0000 0.0000 2.0000
v -1.0000 1.0000 2.0000
v 0.0000 1.0000 2.0000
v 0.0000 1.0000 1.0000
v 0.0000 -2.0000 -0.0000
v -1.0000 2.0000 1.0000
v 0.0000 2.0000 1.0000
v 0.0000 2.0000 -0.0000
v -1.0000 2.0000 -0.0000
v 0.0000 -2.0000 -1.0000
v 0.0000 2.0000 -1.0000
v -1.0000 2.0000 -1.0000
v 0.0000 1.0000 -1.0000
v -1.0000 -2.0000 -2.0000
v 0.0000 -2.0000 -2.0000
v 0.0000 -1.0000 -2.0000
v 0.0000 0.0000 -2.0000
v 0.0000 1.0000 -2.0000
v -1.0000 1.0000 -2.0000
v 1.0000 -2.0000 1.0000
v 1.0000 -2.0000 2.0000
v 1.0000 -1.0000 2.0000
v 1.0000 -1.0000 1.0000
v 1.0000 0.0000 2.0000
v 1.0000 1.0000 2.0000
v 1.0000 1.0000 1.0000
v 1.0000 0.0000 1.0000
v 1.0000 -2.0000 -0.0000
v 1.0000 2.0000 1.0000
v 1.0000 2.0000 -0.0000
v 1.0000 1.0000 -0.0000
v 1.0000 -2.0000 -1.0000
v 1.0000 2.0000 -1.0000
v 1.0000 1.0000 -1.0000
v 1.0000 -2.0000 -2.0000
v 1.0000 -1.0000 -2.0000
v 1.0000 -1.0000 -1.0000
v 1.0000 0.0000 -2.0000
v 1.0000 1.0000 -2.0000
v 1.0000 0.0000 -1.0000
v 2.0000 0.0000 2.0000
v 2.0000 0.0000 1.0000
v 2.0000 -1.0000 1.0000
v 2.0000 -1.0000 2.0000
v 2.0000 -2.0000 -0.0000
v 2.0000 -2.0000 1.0000
v 2.0000 -1.0000 -0.0000
v 2.0000 0.0000 -0.0000
v 2.0000 1.0000 1.0000
v 2.0000 1.0000 -0.0000
v 2.0000 -2.0000 -1.0000
v 2.0000 -1.0000 -1.0000
v 2.0000 0.0000 -1.0000
v 2.0000 1.0000 -1.0000
v 2.0000 0.0000 -2.0000
v 2.0000 -1.0000 -2.0000
vt 0.001953 0.500000
vt 0.005859 0.500000
vt 0.009766 0.500000
vt 0.013672 0.500000
vt 0.017578 0.500000
vt 0.021484 0.500000
vt 0.025391 0.500000
vn 0.0 -1.0 0.0
vn 0.0 1.0 0.0
vn 0.0 0.0 1.0
vn 0.0 0.0 -1.0
vn -1.0 0.0 0.0
vn 1.0 0.0 0.0
usemtl mat_Danna_Lucia_Plazas_Lara_fase_1
s off
f 1/1/2 2/1/2 3/1/2 4/1/2
f 5/1/1 6/1/1 7/1/1 8/1/1
f 5/1/3 8/1/3 2/1/3 1/1/3
f 5/1/5 1/1/5 4/1/5 6/1/5
f 9/2/1 10/2/1 11/2/1 12/2/1
f 9/2/3 12/2/3 7/2/3 6/2/3
f 9/2/5 6/2/5 13/2/5 10/2/5
f 6/3/5 4/3/5 14/3/5 13/3/5
f 15/1/2 16/1/2 17/1/2 18/1/2
f 4/1/3 3/1/3 16/1/3 15/1/3
f 4/1/5 15/1/5 18/1/5 14/1/5
f 10/2/1 19/2/1 20/2/1 11/2/1
f 19/2/4 21/2/4 22/2/4 20/2/4
f 10/2/5 13/2/5 21/2/5 19/2/5
f 13/1/5 14/1/5 23/1/5 21/1/5
f 18/3/2 17/3/2 24/3/2 25/3/2
f 23/3/4 25/3/4 24/3/4 26/3/4
f 14/3/5 18/3/5 25/3/5 23/3/5
f 23/2/2 26/2/2 27/2/2 28/2/2
f 21/2/1 29/2/1 30/2/1 22/2/1
f 29/2/4 28/2/4 27/2/4 30/2/4
f 21/2/5 23/2/5 28/2/5 29/2/5
f 31/1/1 12/1/1 32/1/1 33/1/1
f 31/1/3 33/1/3 34/1/3 8/1/3
f 31/1/5 8/1/5 7/1/5 12/1/5
f 8/1/3 34/1/3 35/1/3 2/1/3
f 36/4/2 37/4/2 38/4/2 16/4/2
f 2/4/3 35/4/3 37/4/3 36/4/3
f 2/4/5 36/4/5 16/4/5 3/4/5
f 12/2/1 11/2/1 39/2/1 32/2/1
f 40/5/2 41/5/2 42/5/2 43/5/2
f 16/5/3 38/5/3 41/5/3 40/5/3
f 16/5/5 40/5/5 43/5/5 17/5/5
f 11/2/1 20/2/1 44/2/1 39/2/1
f 43/6/2 42/6/2 45/6/2 46/6/2
f 24/6/4 46/6/4 45/6/4 47/6/4
f 17/6/5 43/6/5 46/6/5 24/6/5
f 20/2/1 48/2/1 49/2/1 44/2/1
f 48/2/4 30/2/4 50/2/4 49/2/4
f 20/2/5 22/2/5 30/2/5 48/2/5
f 30/3/4 27/3/4 51/3/4 50/3/4
f 24/1/2 47/1/2 52/1/2 53/1/2
f 27/1/4 53/1/4 52/1/4 51/1/4
f 26/1/5 24/1/5 53/1/5 27/1/5
f 33/1/1 32/1/1 54/1/1 55/1/1
f 33/1/3 55/1/3 56/1/3 34/1/3
f 55/1/6 54/1/6 57/1/6 56/1/6
f 34/1/3 56/1/3 58/1/3 35/1/3
f 37/1/2 59/1/2 60/1/2 38/1/2
f 35/1/3 58/1/3 59/1/3 37/1/3
f 58/1/6 61/1/6 60/1/6 59/1/6
f 32/2/1 39/2/1 62/2/1 54/2/1
f 41/6/2 63/6/2 64/6/2 42/6/2
f 38/6/3 60/6/3 63/6/3 41/6/3
f 60/6/6 65/6/6 64/6/6 63/6/6
f 39/2/1 44/2/1 66/2/1 62/2/1
f 42/7/2 64/7/2 67/7/2 45/7/2
f 47/7/4 45/7/4 67/7/4 68/7/4
f 65/7/6 68/7/6 67/7/6 64/7/6
f 44/2/1 49/2/1 69/2/1 66/2/1
f 49/2/4 50/2/4 70/2/4 69/2/4
f 66/2/6 69/2/6 70/2/6 71/2/6
f 50/3/4 51/3/4 72/3/4 70/3/4
f 47/1/2 68/1/2 73/1/2 52/1/2
f 51/1/4 52/1/4 73/1/4 72/1/4
f 74/1/6 72/1/6 73/1/6 68/1/6
f 58/4/2 75/4/2 76/4/2 61/4/2
f 56/4/1 57/4/1 77/4/1 78/4/1
f 56/4/3 78/4/3 75/4/3 58/4/3
f 78/4/6 77/4/6 76/4/6 75/4/6
f 54/3/1 62/3/1 79/3/1 80/3/1
f 54/3/3 80/3/3 77/3/3 57/3/3
f 80/3/6 79/3/6 81/3/6 77/3/6
f 77/3/6 81/3/6 82/3/6 76/3/6
f 60/1/2 83/1/2 84/1/2 65/1/2
f 61/1/3 76/1/3 83/1/3 60/1/3
f 76/1/6 82/1/6 84/1/6 83/1/6
f 62/1/1 66/1/1 85/1/1 79/1/1
f 66/1/4 71/1/4 86/1/4 85/1/4
f 79/1/6 85/1/6 86/1/6 81/1/6
f 81/3/6 86/3/6 87/3/6 82/3/6
f 65/4/2 84/4/2 88/4/2 68/4/2
f 74/4/4 68/4/4 88/4/4 87/4/4
f 82/4/6 87/4/6 88/4/6 84/4/6
f 74/1/2 87/1/2 89/1/2 72/1/2
f 71/1/1 70/1/1 90/1/1 86/1/1
f 70/1/4 72/1/4 89/1/4 90/1/4
f 86/1/6 90/1/6 89/1/6 87/1/6
