mtllib Susan_Michelle_Doblado_Torres_fase_1.mtl
o Susan_Michelle_Doblado_Torres_fase_1
v -3.0000 -5.0000 2.5000
v -3.0000 -5.0000 1.5000
v -2.0000 -5.0000 1.5000
v -2.0000 -5.0000 2.5000
v -2.0000 -4.0000 2.5000
v -3.0000 -4.0000 2.5000
v -3.0000 -4.0000 1.5000
v -3.0000 -3.0000 2.5000
v -2.0000 -3.0000 2.5000
v -2.0000 -3.0000 1.5000
v -3.0000 -3.0000 1.5000
v -3.0000 -6.0000 1.5000
v -3.0000 -6.0000 0.5000
v -2.0000 -6.0000 0.5000
v -2.0000 -6.0000 1.5000
v -3.0000 -5.0000 0.5000
v -3.0000 -4.0000 0.5000
v -3.0000 -3.0000 0.5000
v -3.0000 -2.0000 1.5000
v -2.0000 -2.0000 1.5000
v -2.0000 -2.0000 0.5000
v -3.0000 -2.0000 0.5000
v -3.0000 -6.0000 -0.5000
v -2.0000 -6.0000 -0.5000
v -3.0000 -5.0000 -0.5000
v -3.0000 -4.0000 -0.5000
v -3.0000 -3.0000 -0.5000
v -2.0000 -2.0000 -0.5000
v -3.0000 -2.0000 -0.5000
v -3.0000 -6.0000 -1.5000
v -2.0000 -6.0000 -1.5000
v -3.0000 -5.0000 -1.5000
v -2.0000 -5.0000 -1.5000
v -3.0000 -4.0000 -1.5000
v -3.0000 -3.0000 -1.5000
v -2.0000 -2.0000 -1.5000
v -3.0000 -2.0000 -1.5000
v -2.0000 -3.0000 -1.5000
v -3.0000 -5.0000 -2.5000
v -2.0000 -5.0000 -2.5000
v -3.0000 -4.0000 -2.5000
v -2.0000 -3.0000 -2.5000
v -3.0000 -3.0000 -2.5000
v -3.0000 -5.0000 -3.5000
v -2.0000 -5.0000 -3.5000
v -3.0000 -4.0000 -3.5000
v -2.0000 -4.0000 -3.5000
v -2.0000 -3.0000 -3.5000
v -3.0000 -3.0000 -3.5000
v -2.0000 -6.0000 2.5000
v -1.0000 -6.0000 1.5000
v -1.0000 -6.0000 2.5000
v -1.0000 -5.0000 2.5000
v -1.0000 -4.0000 2.5000
v -1.0000 -3.0000 2.5000
v -2.0000 -2.0000 2.5000
v -1.0000 -2.0000 2.5000
v -1.0000 -2.0000 1.5000
v -1.0000 -6.0000 0.5000
v -1.0000 -1.0000 1.5000
v -2.0000 -1.0000 1.5000
v -2.0000 -1.0000 0.5000
v -2.0000 0.0000 1.5000
v -1.0000 0.0000 1.5000
v -1.0000 0.0000 0.5000
v -2.0000 0.0000 0.5000
v -1.0000 -6.0000 -0.5000
v -2.0000 -1.0000 -0.5000
v -1.0000 0.0000 -0.5000
v -2.0000 0.0000 -0.5000
v -1.0000 -6.0000 -1.5000
v -2.0000 -1.0000 -1.5000
v -1.0000 -1.0000 -1.5000
v -1.0000 -2.0000 -1.5000
v -1.0000 0.0000 -1.5000
v -2.0000 0.0000 -1.5000
v -2.0000 -6.0000 -2.5000
v -1.0000 -6.0000 -2.5000
v -1.0000 -2.0000 -2.5000
v -2.0000 -2.0000 -2.5000
v -2.0000 -6.0000 -3.5000
v -1.0000 -6.0000 -3.5000
v -1.0000 -5.0000 -3.5000
v -1.0000 -4.0000 -3.5000
v -1.0000 -3.0000 -3.5000
v -1.0000 -2.0000 -3.5000
v -2.0000 -2.0000 -3.5000
v 0.0000 -6.0000 1.5000
v 0.0000 -6.0000 2.5000
v 0.0000 -5.0000 2.5000
v 0.0000 -4.0000 2.5000
v 0.0000 -3.0000 2.5000
v 0.0000 -2.0000 2.5000
v 0.0000 -2.0000 1.5000
v 0.0000 -6.0000 0.5000
v 0.0000 -1.0000 1.5000
v 0.0000 0.0000 1.5000
v 0.0000 0.0000 0.5000
v 0.0000 -6.0000 -0.5000
v 0.0000 0.0000 -0.5000
v 0.0000 -6.0000 -1.5000
v 0.0000 -1.0000 -1.5000
v 0.0000 -2.0000 -1.5000
v 0.0000 0.0000 -1.5000
v 0.0000 -6.0000 -2.5000
v 0.0000 -2.0000 -2.5000
v 0.0000 -6.0000 -3.5000
v 0.0000 -5.0000 -3.5000
v 0.0000 -4.0000 -3.5000
v 0.0000 -3.0000 -3.5000
v 0.0000 -2.0000 -3.5000
v 1.0000 -6.0000 1.5000
v 1.0000 -6.0000 2.5000
v 1.0000 -5.0000 2.5000
v 1.0000 -5.0000 1.5000
v 1.0000 -4.0000 2.5000
v 1.0000 -3.0000 2.5000
v 1.0000 -2.0000 2.5000
v 1.0000 -2.0000 1.5000
v 1.0000 -3.0000 1.5000
v 1.0000 -6.0000 0.5000
v 1.0000 -1.0000 1.5000
v 1.0000 -2.0000 0.5000
v 1.0000 -1.0000 0.5000
v 1.0000 0.0000 1.5000
v 1.0000 0.0000 0.5000
v 1.0000 -6.0000 -0.5000
v 1.0000 -2.0000 -0.5000
v 1.0000 -1.0000 -0.5000
v 1.0000 0.0000 -0.5000
v 1.0000 -6.0000 -1.5000
v 1.0000 -1.0000 -1.5000
v 1.0000 -2.0000 -1.5000
v 1.0000 0.0000 -1.5000
v 1.0000 -6.0000 -2.5000
v 1.0000 -5.0000 -2.5000
v 1.0000 -5.0000 -1.5000
v 1.0000 -2.0000 -2.5000
v 1.0000 -3.0000 -1.5000
v 1.0000 -3.0000 -2.5000
v 1.0000 -6.0000 -3.5000
v 1.0000 -5.0000 -3.5000
v 1.0000 -4.0000 -3.5000
v 1.0000 -3.0000 -3.5000
v 1.0000 -2.0000 -3.5000
v 2.0000 -5.0000 1.5000
v 2.0000 -5.0000 2.5000
v 2.0000 -4.0000 2.5000
v 2.0000 -3.0000 2.5000
v 2.0000 -3.0000 1.5000
v 2.0000 -6.0000 0.5000
v 2.0000 -6.0000 1.5000
v 2.0000 -2.0000 1.5000
v 2.0000 -2.0000 0.5000
v 2.0000 -6.0000 -0.5000
v 2.0000 -2.0000 -0.5000
v 2.0000 -6.0000 -1.5000
v 2.0000 -5.0000 -1.5000
v 2.0000 -2.0000 -1.5000
v 2.0000 -3.0000 -1.5000
v 2.0000 -5.0000 -2.5000
v 2.0000 -3.0000 -2.5000
v 2.0000 -5.0000 -3.5000
v 2.0000 -4.0000 -3.5000
v 2.0000 -3.0000 -3.5000
v 3.0000 -5.0000 1.5000
v 3.0000 -5.0000 2.5000
v 3.0000 -4.0000 2.5000
v 3.0000 -4.0000 1.5000
v 3.0000 -3.0000 2.5000
v 3.0000 -3.0000 1.5000
v 3.0000 -6.0000 0.5000
v 3.0000 -6.0000 1.5000
v 3.0000 -5.0000 0.5000
v 3.0000 -4.0000 0.5000
v 3.0000 -3.0000 0.5000
v 3.0000 -2.0000 1.5000
v 3.0000 -2.0000 0.5000
v 3.0000 -6.0000 -0.5000
v 3.0000 -5.0000 -0.5000
v 3.0000 -4.0000 -0.5000
v 3.0000 -3.0000 -0.5000
v 3.0000 -2.0000 -0.5000
v 3.0000 -6.0000 -1.5000
v 3.0000 -5.0000 -1.5000
v 3.0000 -4.0000 -1.5000
v 3.0000 -3.0000 -1.5000
v 3.0000 -2.0000 -1.5000
v 3.0000 -5.0000 -2.5000
v 3.0000 -4.0000 -2.5000
v 3.0000 -3.0000 -2.5000
v 3.0000 -5.0000 -3.5000
v 3.0000 -4.0000 -3.5000
v 3.0000 -3.0000 -3.5000
vt 0.001953 0.500000
vt 0.005859 0.500000
vt 0.009766 0.500000
vt 0.013672 0.500000
vt 0.017578 0.500000
vt 0.021484 0.500000
vn 0.0 -1.0 0.0
vn 0.0 1.0 0.0
vn 0.0 0.0 1.0
vn 0.0 0.0 -1.0
vn -1.0 0.0 0.0
vn 1.0 0.0 0.0
usemtl mat_Susan_Michelle_Doblado_Torres_fase_1
s off
f 1/1/1 2/1/1 3/1/1 4/1/1
f 1/1/3 4/1/3 5/1/3 6/1/3
f 1/1/5 6/1/5 7/1/5 2/1/5
f 8/1/2 9/1/2 10/1/2 11/1/2
f 6/1/3 5/1/3 9/1/3 8/1/3
f 6/1/5 8/1/5 11/1/5 7/1/5
f 12/1/1 13/1/1 14/1/1 15/1/1
f 12/1/3 15/1/3 3/1/3 2/1/3
f 12/1/5 2/1/5 16/1/5 13/1/5
f 2/1/5 7/1/5 17/1/5 16/1/5
f 7/1/5 11/1/5 18/1/5 17/1/5
f 19/2/2 20/2/2 21/2/2 22/2/2
f 11/2/3 10/2/3 20/2/3 19/2/3
f 11/2/5 19/2/5 22/2/5 18/2/5
f 13/1/1 23/1/1 24/1/1 14/1/1
f 13/1/5 16/1/5 25/1/5 23/1/5
f 16/1/5 17/1/5 26/1/5 25/1/5
f 17/1/5 18/1/5 27/1/5 26/1/5
f 22/2/2 21/2/2 28/2/2 29/2/2
f 18/2/5 22/2/5 29/2/5 27/2/5
f 23/1/1 30/1/1 31/1/1 24/1/1
f 30/1/4 32/1/4 33/1/4 31/1/4
f 23/1/5 25/1/5 32/1/5 30/1/5
f 25/1/5 26/1/5 34/1/5 32/1/5
f 26/1/5 27/1/5 35/1/5 34/1/5
f 29/2/2 28/2/2 36/2/2 37/2/2
f 35/2/4 37/2/4 36/2/4 38/2/4
f 27/2/5 29/2/5 37/2/5 35/2/5
f 32/2/1 39/2/1 40/2/1 33/2/1
f 32/2/5 34/2/5 41/2/5 39/2/5
f 35/2/2 38/2/2 42/2/2 43/2/2
f 34/2/5 35/2/5 43/2/5 41/2/5
f 39/2/1 44/2/1 45/2/1 40/2/1
f 44/2/4 46/2/4 47/2/4 45/2/4
f 39/2/5 41/2/5 46/2/5 44/2/5
f 43/2/2 42/2/2 48/2/2 49/2/2
f 46/2/4 49/2/4 48/2/4 47/2/4
f 41/2/5 43/2/5 49/2/5 46/2/5
f 50/3/1 15/3/1 51/3/1 52/3/1
f 50/3/3 52/3/3 53/3/3 4/3/3
f 50/3/5 4/3/5 3/3/5 15/3/5
f 4/1/3 53/1/3 54/1/3 5/1/3
f 5/1/3 54/1/3 55/1/3 9/1/3
f 56/1/2 57/1/2 58/1/2 20/1/2
f 9/1/3 55/1/3 57/1/3 56/1/3
f 9/1/5 56/1/5 20/1/5 10/1/5
f 15/1/1 14/1/1 59/1/1 51/1/1
f 20/4/3 58/4/3 60/4/3 61/4/3
f 20/4/5 61/4/5 62/4/5 21/4/5
f 63/4/2 64/4/2 65/4/2 66/4/2
f 61/4/3 60/4/3 64/4/3 63/4/3
f 61/4/5 63/4/5 66/4/5 62/4/5
f 14/1/1 24/1/1 67/1/1 59/1/1
f 21/4/5 62/4/5 68/4/5 28/4/5
f 66/4/2 65/4/2 69/4/2 70/4/2
f 62/4/5 66/4/5 70/4/5 68/4/5
f 24/1/1 31/1/1 71/1/1 67/1/1
f 36/5/4 72/5/4 73/5/4 74/5/4
f 28/5/5 68/5/5 72/5/5 36/5/5
f 70/5/2 69/5/2 75/5/2 76/5/2
f 72/5/4 76/5/4 75/5/4 73/5/4
f 68/5/5 70/5/5 76/5/5 72/5/5
f 31/1/1 77/1/1 78/1/1 71/1/1
f 31/1/5 33/1/5 40/1/5 77/1/5
f 36/2/2 74/2/2 79/2/2 80/2/2
f 38/2/5 36/2/5 80/2/5 42/2/5
f 77/1/1 81/1/1 82/1/1 78/1/1
f 81/1/4 45/1/4 83/1/4 82/1/4
f 77/1/5 40/1/5 45/1/5 81/1/5
f 45/1/4 47/1/4 84/1/4 83/1/4
f 47/1/4 48/1/4 85/1/4 84/1/4
f 80/2/2 79/2/2 86/2/2 87/2/2
f 48/2/4 87/2/4 86/2/4 85/2/4
f 42/2/5 80/2/5 87/2/5 48/2/5
f 52/3/1 51/3/1 88/3/1 89/3/1
f 52/3/3 89/3/3 90/3/3 53/3/3
f 53/1/3 90/1/3 91/1/3 54/1/3
f 54/1/3 91/1/3 92/1/3 55/1/3
f 57/1/2 93/1/2 94/1/2 58/1/2
f 55/1/3 92/1/3 93/1/3 57/1/3
f 51/1/1 59/1/1 95/1/1 88/1/1
f 58/4/3 94/4/3 96/4/3 60/4/3
f 64/4/2 97/4/2 98/4/2 65/4/2
f 60/4/3 96/4/3 97/4/3 64/4/3
f 59/1/1 67/1/1 99/1/1 95/1/1
f 65/4/2 98/4/2 100/4/2 69/4/2
f 67/1/1 71/1/1 101/1/1 99/1/1
f 74/5/4 73/5/4 102/5/4 103/5/4
f 69/5/2 100/5/2 104/5/2 75/5/2
f 73/5/4 75/5/4 104/5/4 102/5/4
f 71/1/1 78/1/1 105/1/1 101/1/1
f 74/2/2 103/2/2 106/2/2 79/2/2
f 78/1/1 82/1/1 107/1/1 105/1/1
f 82/1/4 83/1/4 108/1/4 107/1/4
f 83/1/4 84/1/4 109/1/4 108/1/4
f 84/1/4 85/1/4 110/1/4 109/1/4
f 79/2/2 106/2/2 111/2/2 86/2/2
f 85/2/4 86/2/4 111/2/4 110/2/4
f 89/3/1 88/3/1 112/3/1 113/3/1
f 89/3/3 113/3/3 114/3/3 90/3/3
f 113/3/6 112/3/6 115/3/6 114/3/6
f 90/1/3 114/1/3 116/1/3 91/1/3
f 91/1/3 116/1/3 117/1/3 92/1/3
f 93/1/2 118/1/2 119/1/2 94/1/2
f 92/1/3 117/1/3 118/1/3 93/1/3
f 117/1/6 120/1/6 119/1/6 118/1/6
f 88/1/1 95/1/1 121/1/1 112/1/1
f 94/6/3 119/6/3 122/6/3 96/6/3
f 119/6/6 123/6/6 124/6/6 122/6/6
f 97/6/2 125/6/2 126/6/2 98/6/2
f 96/6/3 122/6/3 125/6/3 97/6/3
f 122/6/6 124/6/6 126/6/6 125/6/6
f 95/1/1 99/1/1 127/1/1 121/1/1
f 123/6/6 128/6/6 129/6/6 124/6/6
f 98/6/2 126/6/2 130/6/2 100/6/2
f 124/6/6 129/6/6 130/6/6 126/6/6
f 99/1/1 101/1/1 131/1/1 127/1/1
f 103/4/4 102/4/4 132/4/4 133/4/4
f 128/4/6 133/4/6 132/4/6 129/4/6
f 100/4/2 130/4/2 134/4/2 104/4/2
f 102/4/4 104/4/4 134/4/4 132/4/4
f 129/4/6 132/4/6 134/4/6 130/4/6
f 101/1/1 105/1/1 135/1/1 131/1/1
f 131/1/6 135/1/6 136/1/6 137/1/6
f 103/2/2 133/2/2 138/2/2 106/2/2
f 139/2/6 140/2/6 138/2/6 133/2/6
f 105/1/1 107/1/1 141/1/1 135/1/1
f 107/1/4 108/1/4 142/1/4 141/1/4
f 135/1/6 141/1/6 142/1/6 136/1/6
f 108/1/4 109/1/4 143/1/4 142/1/4
f 109/1/4 110/1/4 144/1/4 143/1/4
f 106/2/2 138/2/2 145/2/2 111/2/2
f 110/2/4 111/2/4 145/2/4 144/2/4
f 140/2/6 144/2/6 145/2/6 138/2/6
f 114/3/1 115/3/1 146/3/1 147/3/1
f 114/3/3 147/3/3 148/3/3 116/3/3
f 117/3/2 149/3/2 150/3/2 120/3/2
f 116/3/3 148/3/3 149/3/3 117/3/3
f 112/3/1 121/3/1 151/3/1 152/3/1
f 112/3/3 152/3/3 146/3/3 115/3/3
f 119/1/2 153/1/2 154/1/2 123/1/2
f 120/1/3 150/1/3 153/1/3 119/1/3
f 121/3/1 127/3/1 155/3/1 151/3/1
f 123/1/2 154/1/2 156/1/2 128/1/2
f 127/3/1 131/3/1 157/3/1 155/3/1
f 131/3/4 137/3/4 158/3/4 157/3/4
f 128/1/2 156/1/2 159/1/2 133/1/2
f 139/1/4 133/1/4 159/1/4 160/1/4
f 137/1/1 136/1/1 161/1/1 158/1/1
f 139/1/2 160/1/2 162/1/2 140/1/2
f 136/1/1 142/1/1 163/1/1 161/1/1
f 142/1/4 143/1/4 164/1/4 163/1/4
f 140/1/2 162/1/2 165/1/2 144/1/2
f 143/1/4 144/1/4 165/1/4 164/1/4
f 147/3/1 146/3/1 166/3/1 167/3/1
f 147/3/3 167/3/3 168/3/3 148/3/3
f 167/3/6 166/3/6 169/3/6 168/3/6
f 149/3/2 170/3/2 171/3/2 150/3/2
f 148/3/3 168/3/3 170/3/3 149/3/3
f 168/3/6 169/3/6 171/3/6 170/3/6
f 152/3/1 151/3/1 172/3/1 173/3/1
f 152/3/3 173/3/3 166/3/3 146/3/3
f 173/3/6 172/3/6 174/3/6 166/3/6
f 166/1/6 174/1/6 175/1/6 169/1/6
f 169/1/6 175/1/6 176/1/6 171/1/6
f 153/1/2 177/1/2 178/1/2 154/1/2
f 150/1/3 171/1/3 177/1/3 153/1/3
f 171/1/6 176/1/6 178/1/6 177/1/6
f 151/3/1 155/3/1 179/3/1 172/3/1
f 172/3/6 179/3/6 180/3/6 174/3/6
f 174/1/6 180/1/6 181/1/6 175/1/6
f 175/1/6 181/1/6 182/1/6 176/1/6
f 154/1/2 178/1/2 183/1/2 156/1/2
f 176/1/6 182/1/6 183/1/6 178/1/6
f 155/3/1 157/3/1 184/3/1 179/3/1
f 157/3/4 158/3/4 185/3/4 184/3/4
f 179/3/6 184/3/6 185/3/6 180/3/6
f 180/1/6 185/1/6 186/1/6 181/1/6
f 181/1/6 186/1/6 187/1/6 182/1/6
f 156/1/2 183/1/2 188/1/2 159/1/2
f 160/1/4 159/1/4 188/1/4 187/1/4
f 182/1/6 187/1/6 188/1/6 183/1/6
f 158/1/1 161/1/1 189/1/1 185/1/1
f 185/1/6 189/1/6 190/1/6 186/1/6
f 160/1/2 187/1/2 191/1/2 162/1/2
f 186/1/6 190/1/6 191/1/6 187/1/6
f 161/1/1 163/1/1 192/1/1 189/1/1
f 163/1/4 164/1/4 193/1/4 192/1/4
f 189/1/6 192/1/6 193/1/6 190/1/6
f 162/1/2 191/1/2 194/1/2 165/1/2
f 164/1/4 165/1/4 194/1/4 193/1/4
f 190/1/6 193/1/6 194/1/6 191/1/6
