mtllib Isabella_Vega_Heredia_fase_1.mtl
o Isabella_Vega_Heredia_fase_1
v -2.0000 0.0000 2.0000
v -1.0000 0.0000 2.0000
v -1.0000 0.0000 1.0000
v -2.0000 0.0000 1.0000
v -2.0000 -1.0000 2.0000
v -2.0000 -1.0000 1.0000
v -1.0000 -1.0000 1.0000
v -1.0000 -1.0000 2.0000
v -2.0000 -2.0000 1.0000
v -2.0000 -2.0000 -0.0000
v -1.0000 -2.0000 -0.0000
v -1.0000 -2.0000 1.0000
v -2.0000 -1.0000 -0.0000
v -2.0000 0.0000 -0.0000
v -2.0000 1.0000 1.0000
v -1.0000 1.0000 1.0000
v -1.0000 1.0000 -0.0000
v -2.0000 1.0000 -0.0000
v -2.0000 -2.0000 -1.0000
v -1.0000 -2.0000 -1.0000
v -2.0000 -1.0000 -1.0000
v -1.0000 -1.0000 -1.0000
v -2.0000 0.0000 -1.0000
v -1.0000 1.0000 -1.0000
v -2.0000 1.0000 -1.0000
v -1.0000 0.0000 -1.0000
v -1.0000 0.0000 -2.0000
v -2.0000 0.0000 -2.0000
v -2.0000 -1.0000 -2.0000
v -1.0000 -1.0000 -2.0000
v -1.0000 -2.0000 2.0000
v 0.0000 -2.0000 1.0000
v 0.0000 -2.0000 2.0000
v 0.0000 -1.0000 2.0000
v 0.0000 0.0000 2.0000
v 0.0000 0.0000 1.0000
v 0.0000 -2.0000 -0.0000
v 0.0000 1.0000 1.0000
v -1.0000 2.0000 1.0000
v 0.0000 2.0000 1.0000
v 0.0000 2.0000 -0.0000
v -1.0000 2.0000 -0.0000
v 0.0000 -2.0000 -1.0000
v 0.0000 2.0000 -1.0000
v -1.0000 2.0000 -1.0000
v 0.0000 1.0000 -1.0000
v -1.0000 -2.0000 -2.0000
v 0.0000 -2.0000 -2.0000
v 0.0000 -1.0000 -2.0000
v 0.0000 0.0000 -2.0000
v 0.0000 1.0000 -2.0000
v -1.0000 1.0000 -2.0000
v 1.0000 -2.0000 1.0000
v 1.0000 -2.0000 2.0000
v 1.0000 -1.0000 2.0000
v 1.0000 -1.0000 1.0000
v 1.0000 0.0000 2.0000
v 0.0000 1.0000 2.0000
v 1.0000 1.0000 2.0000
v 1.0000 1.0000 1.0000
v 1.0000 0.0000 1.0000
v 1.0000 -2.0000 -0.0000
v 1.0000 2.0000 1.0000
v 1.0000 2.0000 -0.0000
v 1.0000 1.0000 -0.0000
v 1.0000 -2.0000 -1.0000
v 1.0000 2.0000 -1.0000
v 1.0000 1.0000 -1.0000
v 1.0000 -2.0000 -2.0000
v 1.0000 -1.0000 -2.0000
v 1.0000 -1.0000 -1.0000
v 1.0000 0.0000 -2.0000
v 1.0000 1.0000 -2.0000
v 1.0000 0.0000 -1.0000
v 2.0000 0.0000 2.0000
v 2.0000 0.0000 1.0000
v 2.0000 -1.0000 1.0000
v 2.0000 -1.0000 2.0000
v 2.0000 -2.0000 -0.0000
v 2.0000 -2.0000 1.0000
v 2.0000 -1.0000 -0.0000
v 2.0000 0.0000 -0.0000
v 2.0000 1.0000 1.0000
v 2.0000 1.0000 -0.0000
v 2.0000 -2.0000 -1.0000
v 2.0000 -1.0000 -1.0000
v 2.0000 0.0000 -1.0000
v 2.0000 1.0000 -1.0000
v 2.0000 0.0000 -2.0000
v 2.0000 -1.0000 -2.0000
vt 0.001953 0.500000
vt 0.005859 0.500000
vt 0.009766 0.500000
vt 0.013672 0.500000
vn 0.0 -1.0 0.0
vn 0.0 1.0 0.0
vn 0.0 0.0 1.0
vn 0.0 0.0 -1.0
vn -1.0 0.0 0.0
vn 1.0 0.0 0.0
usemtl mat_Isabella_Vega_Heredia_fase_1
s off
f 1/1/2 2/1/2 3/1/2 4/1/2
f 5/1/1 6/1/1 7/1/1 8/1/1
f 5/1/3 8/1/3 2/1/3 1/1/3
f 5/1/5 1/1/5 4/1/5 6/1/5
f 9/2/1 10/2/1 11/2/1 12/2/1
f 9/2/3 12/2/3 7/2/3 6/2/3
f 9/2/5 6/2/5 13/2/5 10/2/5
f 6/1/5 4/1/5 14/1/5 13/1/5
f 15/1/2 16/1/2 17/1/2 18/1/2
f 4/1/3 3/1/3 16/1/3 15/1/3
f 4/1/5 15/1/5 18/1/5 14/1/5
f 10/1/1 19/1/1 20/1/1 11/1/1
f 19/1/4 21/1/4 22/1/4 20/1/4
f 10/1/5 13/1/5 21/1/5 19/1/5
f 13/1/5 14/1/5 23/1/5 21/1/5
f 18/2/2 17/2/2 24/2/2 25/2/2
f 23/2/4 25/2/4 24/2/4 26/2/4
f 14/2/5 18/2/5 25/2/5 23/2/5
f 23/1/2 26/1/2 27/1/2 28/1/2
f 21/1/1 29/1/1 30/1/1 22/1/1
f 29/1/4 28/1/4 27/1/4 30/1/4
f 21/1/5 23/1/5 28/1/5 29/1/5
f 31/1/1 12/1/1 32/1/1 33/1/1
f 31/1/3 33/1/3 34/1/3 8/1/3
f 31/1/5 8/1/5 7/1/5 12/1/5
f 2/1/2 35/1/2 36/1/2 3/1/2
f 8/1/3 34/1/3 35/1/3 2/1/3
f 12/3/1 11/3/1 37/3/1 32/3/1
f 3/1/3 36/1/3 38/1/3 16/1/3
f 39/1/2 40/1/2 41/1/2 42/1/2
f 16/1/3 38/1/3 40/1/3 39/1/3
f 16/1/5 39/1/5 42/1/5 17/1/5
f 11/3/1 20/3/1 43/3/1 37/3/1
f 42/1/2 41/1/2 44/1/2 45/1/2
f 24/1/4 45/1/4 44/1/4 46/1/4
f 17/1/5 42/1/5 45/1/5 24/1/5
f 20/1/1 47/1/1 48/1/1 43/1/1
f 47/1/4 30/1/4 49/1/4 48/1/4
f 20/1/5 22/1/5 30/1/5 47/1/5
f 30/1/4 27/1/4 50/1/4 49/1/4
f 24/1/2 46/1/2 51/1/2 52/1/2
f 27/1/4 52/1/4 51/1/4 50/1/4
f 26/1/5 24/1/5 52/1/5 27/1/5
f 33/1/1 32/1/1 53/1/1 54/1/1
f 33/1/3 54/1/3 55/1/3 34/1/3
f 54/1/6 53/1/6 56/1/6 55/1/6
f 34/1/3 55/1/3 57/1/3 35/1/3
f 58/2/2 59/2/2 60/2/2 38/2/2
f 35/2/3 57/2/3 59/2/3 58/2/3
f 57/2/6 61/2/6 60/2/6 59/2/6
f 35/2/5 58/2/5 38/2/5 36/2/5
f 32/3/1 37/3/1 62/3/1 53/3/1
f 40/1/2 63/1/2 64/1/2 41/1/2
f 38/1/3 60/1/3 63/1/3 40/1/3
f 60/1/6 65/1/6 64/1/6 63/1/6
f 37/3/1 43/3/1 66/3/1 62/3/1
f 41/1/2 64/1/2 67/1/2 44/1/2
f 46/1/4 44/1/4 67/1/4 68/1/4
f 65/1/6 68/1/6 67/1/6 64/1/6
f 43/1/1 48/1/1 69/1/1 66/1/1
f 48/1/4 49/1/4 70/1/4 69/1/4
f 66/1/6 69/1/6 70/1/6 71/1/6
f 49/1/4 50/1/4 72/1/4 70/1/4
f 46/2/2 68/2/2 73/2/2 51/2/2
f 50/2/4 51/2/4 73/2/4 72/2/4
f 74/2/6 72/2/6 73/2/6 68/2/6
f 57/1/2 75/1/2 76/1/2 61/1/2
f 55/1/1 56/1/1 77/1/1 78/1/1
f 55/1/3 78/1/3 75/1/3 57/1/3
f 78/1/6 77/1/6 76/1/6 75/1/6
f 53/1/1 62/1/1 79/1/1 80/1/1
f 53/1/3 80/1/3 77/1/3 56/1/3
f 80/1/6 79/1/6 81/1/6 77/1/6
f 77/2/6 81/2/6 82/2/6 76/2/6
f 60/1/2 83/1/2 84/1/2 65/1/2
f 61/1/3 76/1/3 83/1/3 60/1/3
f 76/1/6 82/1/6 84/1/6 83/1/6
f 62/1/1 66/1/1 85/1/1 79/1/1
f 66/1/4 71/1/4 86/1/4 85/1/4
f 79/1/6 85/1/6 86/1/6 81/1/6
f 81/1/6 86/1/6 87/1/6 82/1/6
f 65/1/2 84/1/2 88/1/2 68/1/2
f 74/1/4 68/1/4 88/1/4 87/1/4
f 82/1/6 87/1/6 88/1/6 84/1/6
f 74/1/2 87/1/2 89/1/2 72/1/2
f 71/1/1 70/1/1 90/1/1 86/1/1
f 70/1/4 72/1/4 89/1/4 90/1/4
f 86/1/6 90/1/6 89/1/6 87/1/6
