mtllib Andres_Santiago_Duque_García_fase_1.mtl
o Andres_Santiago_Duque_García_fase_1
v -2.0000 -2.0000 2.0000
v -2.0000 -2.0000 1.0000
v -1.0000 -2.0000 1.0000
v -1.0000 -2.0000 2.0000
v -1.0000 -1.0000 2.0000
v -2.0000 -1.0000 2.0000
v -2.0000 -1.0000 1.0000
v -2.0000 0.0000 2.0000
v -1.0000 0.0000 2.0000
v -1.0000 0.0000 1.0000
v -2.0000 0.0000 1.0000
v -2.0000 -2.0000 -0.0000
v -1.0000 -2.0000 -0.0000
v -2.0000 -1.0000 -0.0000
v -2.0000 0.0000 -0.0000
v -2.0000 1.0000 1.0000
v -1.0000 1.0000 1.0000
v -1.0000 1.0000 -0.0000
v -2.0000 1.0000 -0.0000
v -2.0000 -2.0000 -1.0000
v -1.0000 -2.0000 -1.0000
v -2.0000 -1.0000 -1.0000
v -2.0000 0.0000 -1.0000
v -1.0000 1.0000 -1.0000
v -2.0000 1.0000 -1.0000
v -1.0000 0.0000 -1.0000
v -2.0000 -2.0000 -2.0000
v -1.0000 -2.0000 -2.0000
v -2.0000 -1.0000 -2.0000
v -1.0000 -1.0000 -2.0000
v -1.0000 0.0000 -2.0000
v -2.0000 0.0000 -2.0000
v 0.0000 -2.0000 1.0000
v 0.0000 -2.0000 2.0000
v 0.0000 -1.0000 2.0000
v 0.0000 0.0000 2.0000
v -1.0000 1.0000 2.0000
v 0.0000 1.0000 2.0000
v 0.0000 1.0000 1.0000
v 0.0000 -2.0000 -0.0000
v -1.0000 2.0000 1.0000
v 0.0000 2.0000 1.0000
v 0.0000 2.0000 -0.0000
v -1.0000 2.0000 -0.0000
v 0.0000 -2.0000 -1.0000
v 0.0000 2.0000 -1.0000
v -1.0000 2.0000 -1.0000
v 0.0000 1.0000 -1.0000
v 0.0000 -2.0000 -2.0000
v 0.0000 -1.0000 -2.0000
v 0.0000 0.0000 -2.0000
v 0.0000 1.0000 -2.0000
v -1.0000 1.0000 -2.0000
v 1.0000 -2.0000 1.0000
v 1.0000 -2.0000 2.0000
v 1.0000 -1.0000 2.0000
v 1.0000 0.0000 2.0000
v 1.0000 1.0000 2.0000
v 1.0000 1.0000 1.0000
v 1.0000 0.0000 1.0000
v 1.0000 -2.0000 -0.0000
v 1.0000 2.0000 1.0000
v 1.0000 2.0000 -0.0000
v 1.0000 1.0000 -0.0000
v 1.0000 -2.0000 -1.0000
v 1.0000 2.0000 -1.0000
v 1.0000 1.0000 -1.0000
v 1.0000 -2.0000 -2.0000
v 1.0000 -1.0000 -2.0000
v 1.0000 0.0000 -2.0000
v 1.0000 1.0000 -2.0000
v 1.0000 0.0000 -1.0000
v 2.0000 -2.0000 1.0000
v 2.0000 -2.0000 2.0000
v 2.0000 -1.0000 2.0000
v 2.0000 -1.0000 1.0000
v 2.0000 0.0000 2.0000
v 2.0000 0.0000 1.0000
v 2.0000 -2.0000 -0.0000
v 2.0000 -1.0000 -0.0000
v 2.0000 0.0000 -0.0000
v 2.0000 1.0000 1.0000
v 2.0000 1.0000 -0.0000
v 2.0000 -2.0000 -1.0000
v 2.0000 -1.0000 -1.0000
v 2.0000 0.0000 -1.0000
v 2.0000 1.0000 -1.0000
v 2.0000 -2.0000 -2.0000
v 2.0000 -1.0000 -2.0000
v 2.0000 0.0000 -2.0000
vt 0.001953 0.500000
vt 0.005859 0.500000
vt 0.009766 0.500000
vt 0.013672 0.500000
vt 0.017578 0.500000
vn 0.0 -1.0 0.0
vn 0.0 1.0 0.0
vn 0.0 0.0 1.0
vn 0.0 0.0 -1.0
vn -1.0 0.0 0.0
vn 1.0 0.0 0.0
usemtl mat_Andres_Santiago_Duque_García_fase_1
s off
f 1/1/1 2/1/1 3/1/1 4/1/1
f 1/1/3 4/1/3 5/1/3 6/1/3
f 1/1/5 6/1/5 7/1/5 2/1/5
f 8/2/2 9/2/2 10/2/2 11/2/2
f 6/2/3 5/2/3 9/2/3 8/2/3
f 6/2/5 8/2/5 11/2/5 7/2/5
f 2/3/1 12/3/1 13/3/1 3/3/1
f 2/3/5 7/3/5 14/3/5 12/3/5
f 7/3/5 11/3/5 15/3/5 14/3/5
f 16/3/2 17/3/2 18/3/2 19/3/2
f 11/3/3 10/3/3 17/3/3 16/3/3
f 11/3/5 16/3/5 19/3/5 15/3/5
f 12/2/1 20/2/1 21/2/1 13/2/1
f 12/2/5 14/2/5 22/2/5 20/2/5
f 14/3/5 15/3/5 23/3/5 22/3/5
f 19/3/2 18/3/2 24/3/2 25/3/2
f 23/3/4 25/3/4 24/3/4 26/3/4
f 15/3/5 19/3/5 25/3/5 23/3/5
f 20/1/1 27/1/1 28/1/1 21/1/1
f 27/1/4 29/1/4 30/1/4 28/1/4
f 20/1/5 22/1/5 29/1/5 27/1/5
f 23/2/2 26/2/2 31/2/2 32/2/2
f 29/2/4 32/2/4 31/2/4 30/2/4
f 22/2/5 23/2/5 32/2/5 29/2/5
f 4/4/1 3/4/1 33/4/1 34/4/1
f 4/4/3 34/4/3 35/4/3 5/4/3
f 5/4/3 35/4/3 36/4/3 9/4/3
f 37/4/2 38/4/2 39/4/2 17/4/2
f 9/4/3 36/4/3 38/4/3 37/4/3
f 9/4/5 37/4/5 17/4/5 10/4/5
f 3/3/1 13/3/1 40/3/1 33/3/1
f 41/3/2 42/3/2 43/3/2 44/3/2
f 17/3/3 39/3/3 42/3/3 41/3/3
f 17/3/5 41/3/5 44/3/5 18/3/5
f 13/3/1 21/3/1 45/3/1 40/3/1
f 44/3/2 43/3/2 46/3/2 47/3/2
f 24/3/4 47/3/4 46/3/4 48/3/4
f 18/3/5 44/3/5 47/3/5 24/3/5
f 21/3/1 28/3/1 49/3/1 45/3/1
f 28/3/4 30/3/4 50/3/4 49/3/4
f 30/3/4 31/3/4 51/3/4 50/3/4
f 24/3/2 48/3/2 52/3/2 53/3/2
f 31/3/4 53/3/4 52/3/4 51/3/4
f 26/3/5 24/3/5 53/3/5 31/3/5
f 34/4/1 33/4/1 54/4/1 55/4/1
f 34/4/3 55/4/3 56/4/3 35/4/3
f 35/4/3 56/4/3 57/4/3 36/4/3
f 38/4/2 58/4/2 59/4/2 39/4/2
f 36/4/3 57/4/3 58/4/3 38/4/3
f 57/4/6 60/4/6 59/4/6 58/4/6
f 33/1/1 40/1/1 61/1/1 54/1/1
f 42/3/2 62/3/2 63/3/2 43/3/2
f 39/3/3 59/3/3 62/3/3 42/3/3
f 59/3/6 64/3/6 63/3/6 62/3/6
f 40/3/1 45/3/1 65/3/1 61/3/1
f 43/3/2 63/3/2 66/3/2 46/3/2
f 48/3/4 46/3/4 66/3/4 67/3/4
f 64/3/6 67/3/6 66/3/6 63/3/6
f 45/3/1 49/3/1 68/3/1 65/3/1
f 49/3/4 50/3/4 69/3/4 68/3/4
f 50/3/4 51/3/4 70/3/4 69/3/4
f 48/3/2 67/3/2 71/3/2 52/3/2
f 51/3/4 52/3/4 71/3/4 70/3/4
f 72/3/6 70/3/6 71/3/6 67/3/6
f 55/1/1 54/1/1 73/1/1 74/1/1
f 55/1/3 74/1/3 75/1/3 56/1/3
f 74/1/6 73/1/6 76/1/6 75/1/6
f 57/2/2 77/2/2 78/2/2 60/2/2
f 56/2/3 75/2/3 77/2/3 57/2/3
f 75/2/6 76/2/6 78/2/6 77/2/6
f 54/3/1 61/3/1 79/3/1 73/3/1
f 73/3/6 79/3/6 80/3/6 76/3/6
f 76/3/6 80/3/6 81/3/6 78/3/6
f 59/3/2 82/3/2 83/3/2 64/3/2
f 60/3/3 78/3/3 82/3/3 59/3/3
f 78/3/6 81/3/6 83/3/6 82/3/6
f 61/2/1 65/2/1 84/2/1 79/2/1
f 79/2/6 84/2/6 85/2/6 80/2/6
f 80/3/6 85/3/6 86/3/6 81/3/6
f 64/3/2 83/3/2 87/3/2 67/3/2
f 72/3/4 67/3/4 87/3/4 86/3/4
f 81/3/6 86/3/6 87/3/6 83/3/6
f 65/1/1 68/1/1 88/1/1 84/1/1
f 68/1/4 69/1/4 89/1/4 88/1/4
f 84/1/6 88/1/6 89/1/6 85/1/6
f 72/2/2 86/2/2 90/2/2 70/2/2
f 69/2/4 70/2/4 90/2/4 89/2/4
f 85/2/6 89/2/6 90/2/6 86/2/6
