mtllib Anne_Catalina_Galvis_Carvajal_fase_1.mtl
o Anne_Catalina_Galvis_Carvajal_fase_1
v -2.0000 -1.0000 2.0000
v -2.0000 -1.0000 1.0000
v -1.0000 -1.0000 1.0000
v -1.0000 -1.0000 2.0000
v -1.0000 0.0000 2.0000
v -2.0000 0.0000 2.0000
v -2.0000 0.0000 1.0000
v -2.0000 1.0000 2.0000
v -1.0000 1.0000 2.0000
v -1.0000 1.0000 1.0000
v -2.0000 1.0000 1.0000
v -2.0000 -2.0000 1.0000
v -2.0000 -2.0000 -0.0000
v -1.0000 -2.0000 -0.0000
v -1.0000 -2.0000 1.0000
v -2.0000 -1.0000 -0.0000
v -2.0000 0.0000 -0.0000
v -1.0000 1.0000 -0.0000
v -2.0000 1.0000 -0.0000
v -2.0000 -2.0000 -1.0000
v -1.0000 -2.0000 -1.0000
v -2.0000 -1.0000 -1.0000
v -1.0000 -1.0000 -1.0000
v -2.0000 0.0000 -1.0000
v -2.0000 1.0000 -1.0000
v -1.0000 1.0000 -1.0000
v -1.0000 0.0000 -1.0000
v -2.0000 2.0000 -0.0000
v -1.0000 2.0000 -0.0000
v -1.0000 2.0000 -1.0000
v -2.0000 2.0000 -1.0000
v -1.0000 0.0000 -2.0000
v -2.0000 0.0000 -2.0000
v -2.0000 -1.0000 -2.0000
v -1.0000 -1.0000 -2.0000
v 0.0000 -1.0000 1.0000
v 0.0000 -1.0000 2.0000
v 0.0000 0.0000 2.0000
v 0.0000 1.0000 2.0000
v 0.0000 1.0000 1.0000
v 0.0000 -2.0000 -0.0000
v 0.0000 -2.0000 1.0000
v -1.0000 2.0000 1.0000
v 0.0000 2.0000 1.0000
v 0.0000 2.0000 -0.0000
v 0.0000 -2.0000 -1.0000
v 0.0000 2.0000 -1.0000
v 0.0000 1.0000 -1.0000
v -1.0000 -2.0000 -2.0000
v 0.0000 -2.0000 -2.0000
v 0.0000 -1.0000 -2.0000
v 0.0000 0.0000 -2.0000
v 0.0000 1.0000 -2.0000
v -1.0000 1.0000 -2.0000
v 0.0000 -2.0000 2.0000
v 1.0000 -2.0000 1.0000
v 1.0000 -2.0000 2.0000
v 1.0000 -1.0000 2.0000
v 1.0000 -1.0000 1.0000
v 1.0000 0.0000 2.0000
v 1.0000 1.0000 2.0000
v 1.0000 0.0000 1.0000
v 1.0000 1.0000 1.0000
v 0.0000 2.0000 2.0000
v 1.0000 2.0000 2.0000
v 1.0000 2.0000 1.0000
v 1.0000 -2.0000 -0.0000
v 1.0000 2.0000 -0.0000
v 1.0000 -2.0000 -1.0000
v 1.0000 2.0000 -1.0000
v 1.0000 1.0000 -0.0000
v 1.0000 1.0000 -1.0000
v 1.0000 -2.0000 -2.0000
v 1.0000 -1.0000 -2.0000
v 1.0000 -1.0000 -1.0000
v 1.0000 0.0000 -2.0000
v 1.0000 1.0000 -2.0000
v 1.0000 0.0000 -1.0000
v 1.0000 2.0000 -2.0000
v 0.0000 2.0000 -2.0000
v 2.0000 0.0000 2.0000
v 2.0000 0.0000 1.0000
v 2.0000 -1.0000 1.0000
v 2.0000 -1.0000 2.0000
v 2.0000 -2.0000 -0.0000
v 2.0000 -2.0000 1.0000
v 2.0000 -1.0000 -0.0000
v 2.0000 0.0000 -0.0000
v 2.0000 1.0000 1.0000
v 2.0000 1.0000 -0.0000
v 2.0000 2.0000 1.0000
v 2.0000 2.0000 -0.0000
v 2.0000 -2.0000 -1.0000
v 2.0000 -1.0000 -1.0000
v 2.0000 0.0000 -1.0000
v 2.0000 1.0000 -1.0000
v 2.0000 0.0000 -2.0000
v 2.0000 -1.0000 -2.0000
vt 0.001953 0.500000
vt 0.005859 0.500000
vt 0.009766 0.500000
vt 0.013672 0.500000
vt 0.017578 0.500000
vt 0.021484 0.500000
vt 0.025391 0.500000
vt 0.029297 0.500000
vt 0.033203 0.500000
vt 0.037109 0.500000
vt 0.041016 0.500000
vn 0.0 -1.0 0.0
vn 0.0 1.0 0.0
vn 0.0 0.0 1.0
vn 0.0 0.0 -1.0
vn -1.0 0.0 0.0
vn 1.0 0.0 0.0
usemtl mat_Anne_Catalina_Galvis_Carvajal_fase_1
s off
f 1/1/1 2/1/1 3/1/1 4/1/1
f 1/1/3 4/1/3 5/1/3 6/1/3
f 1/1/5 6/1/5 7/1/5 2/1/5
f 8/2/2 9/2/2 10/2/2 11/2/2
f 6/2/3 5/2/3 9/2/3 8/2/3
f 6/2/5 8/2/5 11/2/5 7/2/5
f 12/1/1 13/1/1 14/1/1 15/1/1
f 12/1/3 15/1/3 3/1/3 2/1/3
f 12/1/5 2/1/5 16/1/5 13/1/5
f 2/3/5 7/3/5 17/3/5 16/3/5
f 11/2/2 10/2/2 18/2/2 19/2/2
f 7/2/5 11/2/5 19/2/5 17/2/5
f 13/1/1 20/1/1 21/1/1 14/1/1
f 20/1/4 22/1/4 23/1/4 21/1/4
f 13/1/5 16/1/5 22/1/5 20/1/5
f 16/3/5 17/3/5 24/3/5 22/3/5
f 24/4/4 25/4/4 26/4/4 27/4/4
f 17/4/5 19/4/5 25/4/5 24/4/5
f 28/2/2 29/2/2 30/2/2 31/2/2
f 19/2/3 18/2/3 29/2/3 28/2/3
f 25/2/4 31/2/4 30/2/4 26/2/4
f 19/2/5 28/2/5 31/2/5 25/2/5
f 24/3/2 27/3/2 32/3/2 33/3/2
f 22/3/1 34/3/1 35/3/1 23/3/1
f 34/3/4 33/3/4 32/3/4 35/3/4
f 22/3/5 24/3/5 33/3/5 34/3/5
f 4/3/1 3/3/1 36/3/1 37/3/1
f 4/3/3 37/3/3 38/3/3 5/3/3
f 9/4/2 39/4/2 40/4/2 10/4/2
f 5/4/3 38/4/3 39/4/3 9/4/3
f 15/5/1 14/5/1 41/5/1 42/5/1
f 15/5/3 42/5/3 36/5/3 3/5/3
f 43/2/2 44/2/2 45/2/2 29/2/2
f 10/2/3 40/2/3 44/2/3 43/2/3
f 10/2/5 43/2/5 29/2/5 18/2/5
f 14/7/1 21/7/1 46/7/1 41/7/1
f 29/8/2 45/8/2 47/8/2 30/8/2
f 26/8/4 30/8/4 47/8/4 48/8/4
f 21/1/1 49/1/1 50/1/1 46/1/1
f 49/1/4 35/1/4 51/1/4 50/1/4
f 21/1/5 23/1/5 35/1/5 49/1/5
f 35/3/4 32/3/4 52/3/4 51/3/4
f 26/8/2 48/8/2 53/8/2 54/8/2
f 32/8/4 54/8/4 53/8/4 52/8/4
f 27/8/5 26/8/5 54/8/5 32/8/5
f 55/9/1 42/9/1 56/9/1 57/9/1
f 55/9/3 57/9/3 58/9/3 37/9/3
f 57/9/6 56/9/6 59/9/6 58/9/6
f 55/9/5 37/9/5 36/9/5 42/9/5
f 37/10/3 58/10/3 60/10/3 38/10/3
f 38/4/3 60/4/3 61/4/3 39/4/3
f 60/4/6 62/4/6 63/4/6 61/4/6
f 64/2/2 65/2/2 66/2/2 44/2/2
f 39/2/3 61/2/3 65/2/3 64/2/3
f 61/2/6 63/2/6 66/2/6 65/2/6
f 39/2/5 64/2/5 44/2/5 40/2/5
f 42/7/1 41/7/1 67/7/1 56/7/1
f 44/8/2 66/8/2 68/8/2 45/8/2
f 41/9/1 46/9/1 69/9/1 67/9/1
f 45/2/2 68/2/2 70/2/2 47/2/2
f 71/2/6 72/2/6 70/2/6 68/2/6
f 46/1/1 50/1/1 73/1/1 69/1/1
f 50/1/4 51/1/4 74/1/4 73/1/4
f 69/1/6 73/1/6 74/1/6 75/1/6
f 51/3/4 52/3/4 76/3/4 74/3/4
f 52/4/4 53/4/4 77/4/4 76/4/4
f 78/4/6 76/4/6 77/4/6 72/4/6
f 47/2/2 70/2/2 79/2/2 80/2/2
f 53/2/4 80/2/4 79/2/4 77/2/4
f 72/2/6 77/2/6 79/2/6 70/2/6
f 48/2/5 47/2/5 80/2/5 53/2/5
f 60/3/2 81/3/2 82/3/2 62/3/2
f 58/3/1 59/3/1 83/3/1 84/3/1
f 58/3/3 84/3/3 81/3/3 60/3/3
f 84/3/6 83/3/6 82/3/6 81/3/6
f 56/10/1 67/10/1 85/10/1 86/10/1
f 56/10/3 86/10/3 83/10/3 59/10/3
f 86/10/6 85/10/6 87/10/6 83/10/6
f 83/3/6 87/3/6 88/3/6 82/3/6
f 62/4/3 82/4/3 89/4/3 63/4/3
f 82/4/6 88/4/6 90/4/6 89/4/6
f 66/2/2 91/2/2 92/2/2 68/2/2
f 63/2/3 89/2/3 91/2/3 66/2/3
f 71/2/4 68/2/4 92/2/4 90/2/4
f 89/2/6 90/2/6 92/2/6 91/2/6
f 67/1/1 69/1/1 93/1/1 85/1/1
f 69/1/4 75/1/4 94/1/4 93/1/4
f 85/1/6 93/1/6 94/1/6 87/1/6
f 87/11/6 94/11/6 95/11/6 88/11/6
f 71/4/2 90/4/2 96/4/2 72/4/2
f 78/4/4 72/4/4 96/4/4 95/4/4
f 88/4/6 95/4/6 96/4/6 90/4/6
f 78/11/2 95/11/2 97/11/2 76/11/2
f 75/11/1 74/11/1 98/11/1 94/11/1
f 74/11/4 76/11/4 97/11/4 98/11/4
f 94/11/6 98/11/6 97/11/6 95/11/6
