mtllib Karen_Daniela_Bustos_Valero_fase_2.mtl
o Karen_Daniela_Bustos_Valero_fase_2
v -4.0000 1.0000 2.0000
v -3.0000 1.0000 2.0000
v -3.0000 1.0000 1.0000
v -4.0000 1.0000 1.0000
v -4.0000 0.0000 2.0000
v -4.0000 0.0000 1.0000
v -3.0000 0.0000 1.0000
v -3.0000 0.0000 2.0000
v -4.0000 4.0000 2.0000
v -3.0000 4.0000 2.0000
v -3.0000 4.0000 1.0000
v -4.0000 4.0000 1.0000
v -4.0000 3.0000 2.0000
v -4.0000 3.0000 1.0000
v -3.0000 3.0000 1.0000
v -3.0000 3.0000 2.0000
v -3.0000 1.0000 -0.0000
v -4.0000 1.0000 -0.0000
v -4.0000 0.0000 -0.0000
v -3.0000 0.0000 -0.0000
v -3.0000 4.0000 -0.0000
v -4.0000 4.0000 -0.0000
v -4.0000 3.0000 -0.0000
v -3.0000 3.0000 -0.0000
v -4.0000 -1.0000 -0.0000
v -4.0000 -1.0000 -1.0000
v -3.0000 -1.0000 -1.0000
v -3.0000 -1.0000 -0.0000
v -4.0000 0.0000 -1.0000
v -3.0000 0.0000 -1.0000
v -3.0000 1.0000 -1.0000
v -4.0000 1.0000 -1.0000
v -3.0000 1.0000 -2.0000
v -4.0000 1.0000 -2.0000
v -4.0000 0.0000 -2.0000
v -3.0000 0.0000 -2.0000
v -3.0000 1.0000 3.0000
v -2.0000 1.0000 3.0000
v -2.0000 1.0000 2.0000
v -3.0000 0.0000 3.0000
v -2.0000 0.0000 2.0000
v -2.0000 0.0000 3.0000
v -2.0000 4.0000 2.0000
v -2.0000 4.0000 1.0000
v -2.0000 3.0000 1.0000
v -2.0000 3.0000 2.0000
v -3.0000 2.0000 1.0000
v -3.0000 2.0000 -0.0000
v -2.0000 2.0000 -0.0000
v -2.0000 2.0000 1.0000
v -2.0000 4.0000 -0.0000
v -2.0000 3.0000 -0.0000
v -2.0000 0.0000 -0.0000
v -2.0000 0.0000 -1.0000
v -2.0000 -1.0000 -1.0000
v -2.0000 -1.0000 -0.0000
v -3.0000 2.0000 -1.0000
v -2.0000 2.0000 -1.0000
v -3.0000 3.0000 -1.0000
v -2.0000 3.0000 -1.0000
v -2.0000 4.0000 -1.0000
v -3.0000 4.0000 -1.0000
v -2.0000 1.0000 -1.0000
v -2.0000 1.0000 -2.0000
v -2.0000 0.0000 -2.0000
v -2.0000 1.0000 -3.0000
v -3.0000 1.0000 -3.0000
v -3.0000 0.0000 -3.0000
v -2.0000 0.0000 -3.0000
v -2.0000 1.0000 4.0000
v -1.0000 1.0000 4.0000
v -1.0000 1.0000 3.0000
v -2.0000 0.0000 4.0000
v -1.0000 0.0000 3.0000
v -1.0000 0.0000 4.0000
v -1.0000 1.0000 2.0000
v -1.0000 0.0000 2.0000
v -2.0000 2.0000 2.0000
v -1.0000 2.0000 2.0000
v -1.0000 2.0000 1.0000
v -2.0000 1.0000 1.0000
v -1.0000 1.0000 1.0000
v -1.0000 4.0000 2.0000
v -1.0000 4.0000 1.0000
v -1.0000 3.0000 1.0000
v -1.0000 3.0000 2.0000
v -2.0000 -1.0000 1.0000
v -1.0000 -1.0000 1.0000
v -1.0000 -1.0000 -0.0000
v -2.0000 -2.0000 1.0000
v -2.0000 -2.0000 -0.0000
v -1.0000 -2.0000 -0.0000
v -1.0000 -2.0000 1.0000
v -2.0000 1.0000 -0.0000
v -1.0000 1.0000 -0.0000
v -1.0000 3.0000 -0.0000
v -2.0000 -3.0000 -0.0000
v -2.0000 -3.0000 -1.0000
v -1.0000 -3.0000 -1.0000
v -1.0000 -3.0000 -0.0000
v -2.0000 -2.0000 -1.0000
v -1.0000 -2.0000 -1.0000
v -1.0000 0.0000 -0.0000
v -1.0000 0.0000 -1.0000
v -1.0000 1.0000 -1.0000
v -1.0000 2.0000 -1.0000
v -1.0000 3.0000 -1.0000
v -1.0000 4.0000 -0.0000
v -1.0000 4.0000 -1.0000
v -2.0000 -2.0000 -2.0000
v -1.0000 -2.0000 -2.0000
v -2.0000 -1.0000 -2.0000
v -1.0000 -1.0000 -2.0000
v -1.0000 0.0000 -2.0000
v -2.0000 4.0000 -2.0000
v -1.0000 4.0000 -2.0000
v -1.0000 4.0000 -3.0000
v -2.0000 4.0000 -3.0000
v -2.0000 3.0000 -2.0000
v -2.0000 3.0000 -3.0000
v -1.0000 3.0000 -3.0000
v -1.0000 3.0000 -2.0000
v -1.0000 -1.0000 4.0000
v -1.0000 -1.0000 3.0000
v 0.0000 -1.0000 3.0000
v 0.0000 -1.0000 4.0000
v 0.0000 0.0000 4.0000
v 0.0000 0.0000 3.0000
v 0.0000 1.0000 4.0000
v 0.0000 1.0000 3.0000
v 0.0000 0.0000 2.0000
v -1.0000 -1.0000 2.0000
v 0.0000 -1.0000 2.0000
v -1.0000 4.0000 3.0000
v 0.0000 4.0000 3.0000
v 0.0000 4.0000 2.0000
v -1.0000 3.0000 3.0000
v 0.0000 3.0000 2.0000
v 0.0000 3.0000 3.0000
v -1.0000 -2.0000 2.0000
v 0.0000 -2.0000 1.0000
v 0.0000 -2.0000 2.0000
v 0.0000 0.0000 1.0000
v -1.0000 0.0000 1.0000
v 0.0000 -1.0000 1.0000
v 0.0000 2.0000 2.0000
v 0.0000 2.0000 1.0000
v 0.0000 1.0000 1.0000
v 0.0000 1.0000 2.0000
v 0.0000 4.0000 1.0000
v 0.0000 3.0000 1.0000
v -1.0000 -4.0000 1.0000
v -1.0000 -4.0000 -0.0000
v 0.0000 -4.0000 -0.0000
v 0.0000 -4.0000 1.0000
v 0.0000 -3.0000 1.0000
v -1.0000 -3.0000 1.0000
v 0.0000 3.0000 -0.0000
v -1.0000 -4.0000 -1.0000
v 0.0000 -4.0000 -1.0000
v 0.0000 -3.0000 -1.0000
v 0.0000 -2.0000 -1.0000
v 0.0000 1.0000 -1.0000
v 0.0000 0.0000 -1.0000
v 0.0000 3.0000 -1.0000
v 0.0000 -2.0000 -2.0000
v 0.0000 -1.0000 -2.0000
v 0.0000 0.0000 -2.0000
v -1.0000 1.0000 -2.0000
v 0.0000 1.0000 -2.0000
v -1.0000 2.0000 -2.0000
v 0.0000 3.0000 -2.0000
v -1.0000 1.0000 -3.0000
v 0.0000 1.0000 -3.0000
v 0.0000 2.0000 -3.0000
v 0.0000 2.0000 -2.0000
v -1.0000 2.0000 -3.0000
v 0.0000 3.0000 -3.0000
v 0.0000 4.0000 -2.0000
v 0.0000 4.0000 -3.0000
v -1.0000 0.0000 -3.0000
v -1.0000 0.0000 -4.0000
v 0.0000 0.0000 -4.0000
v 0.0000 0.0000 -3.0000
v -1.0000 1.0000 -4.0000
v 0.0000 1.0000 -4.0000
v 0.0000 2.0000 -4.0000
v -1.0000 2.0000 -4.0000
v 0.0000 4.0000 -4.0000
v -1.0000 4.0000 -4.0000
v -1.0000 3.0000 -4.0000
v 0.0000 3.0000 -4.0000
v 1.0000 1.0000 4.0000
v 1.0000 1.0000 3.0000
v 1.0000 0.0000 3.0000
v 1.0000 0.0000 4.0000
v 0.0000 4.0000 4.0000
v 1.0000 4.0000 4.0000
v 1.0000 4.0000 3.0000
v 0.0000 3.0000 4.0000
v 1.0000 3.0000 3.0000
v 1.0000 3.0000 4.0000
v 0.0000 2.0000 3.0000
v 1.0000 2.0000 2.0000
v 1.0000 2.0000 3.0000
v 1.0000 3.0000 2.0000
v 1.0000 4.0000 2.0000
v 1.0000 -1.0000 2.0000
v 1.0000 -1.0000 1.0000
v 1.0000 -2.0000 1.0000
v 1.0000 -2.0000 2.0000
v 1.0000 1.0000 1.0000
v 1.0000 1.0000 2.0000
v 1.0000 2.0000 1.0000
v 1.0000 3.0000 1.0000
v 1.0000 -4.0000 -0.0000
v 1.0000 -4.0000 1.0000
v 1.0000 -3.0000 1.0000
v 1.0000 -3.0000 -0.0000
v 1.0000 -2.0000 -0.0000
v 1.0000 0.0000 1.0000
v 1.0000 0.0000 -0.0000
v 1.0000 1.0000 -0.0000
v 1.0000 3.0000 -0.0000
v 1.0000 2.0000 -0.0000
v 1.0000 -4.0000 -1.0000
v 1.0000 -3.0000 -1.0000
v 1.0000 -2.0000 -1.0000
v 1.0000 -1.0000 -0.0000
v 1.0000 -1.0000 -1.0000
v 1.0000 0.0000 -1.0000
v 1.0000 1.0000 -1.0000
v 1.0000 3.0000 -1.0000
v 1.0000 -2.0000 -2.0000
v 1.0000 -1.0000 -2.0000
v 1.0000 0.0000 -2.0000
v 1.0000 1.0000 -2.0000
v 1.0000 2.0000 -2.0000
v 1.0000 2.0000 -1.0000
v 1.0000 3.0000 -2.0000
v 0.0000 4.0000 -1.0000
v 1.0000 4.0000 -1.0000
v 1.0000 4.0000 -2.0000
v 1.0000 0.0000 -3.0000
v 0.0000 -1.0000 -3.0000
v 1.0000 -1.0000 -3.0000
v 1.0000 2.0000 -3.0000
v 1.0000 3.0000 -3.0000
v 1.0000 4.0000 -3.0000
v 0.0000 -1.0000 -4.0000
v 1.0000 -1.0000 -4.0000
v 1.0000 0.0000 -4.0000
v 1.0000 1.0000 -3.0000
v 1.0000 1.0000 -4.0000
v 2.0000 4.0000 4.0000
v 2.0000 4.0000 3.0000
v 2.0000 3.0000 3.0000
v 2.0000 3.0000 4.0000
v 2.0000 4.0000 2.0000
v 2.0000 3.0000 2.0000
v 2.0000 -2.0000 -0.0000
v 2.0000 -2.0000 1.0000
v 2.0000 -1.0000 1.0000
v 2.0000 -1.0000 -0.0000
v 2.0000 0.0000 1.0000
v 2.0000 0.0000 -0.0000
v 2.0000 2.0000 1.0000
v 2.0000 2.0000 -0.0000
v 2.0000 1.0000 -0.0000
v 2.0000 1.0000 1.0000
v 1.0000 4.0000 1.0000
v 2.0000 4.0000 1.0000
v 2.0000 4.0000 -0.0000
v 1.0000 4.0000 -0.0000
v 2.0000 3.0000 -0.0000
v 2.0000 3.0000 1.0000
v 2.0000 -1.0000 -1.0000
v 2.0000 -2.0000 -1.0000
v 2.0000 1.0000 -1.0000
v 2.0000 2.0000 -1.0000
v 2.0000 3.0000 -1.0000
v 2.0000 1.0000 -2.0000
v 2.0000 1.0000 -3.0000
v 2.0000 0.0000 -3.0000
v 2.0000 0.0000 -2.0000
v 2.0000 -1.0000 -4.0000
v 2.0000 -1.0000 -3.0000
v 2.0000 0.0000 -4.0000
v 2.0000 1.0000 -4.0000
v 2.0000 1.0000 3.0000
v 3.0000 1.0000 3.0000
v 3.0000 1.0000 2.0000
v 2.0000 1.0000 2.0000
v 2.0000 0.0000 3.0000
v 2.0000 0.0000 2.0000
v 3.0000 0.0000 2.0000
v 3.0000 0.0000 3.0000
v 2.0000 -1.0000 2.0000
v 3.0000 -1.0000 1.0000
v 3.0000 -1.0000 2.0000
v 3.0000 1.0000 1.0000
v 3.0000 0.0000 1.0000
v 3.0000 0.0000 -0.0000
v 3.0000 -1.0000 -0.0000
v 3.0000 4.0000 1.0000
v 3.0000 4.0000 -0.0000
v 3.0000 3.0000 -0.0000
v 3.0000 3.0000 1.0000
v 3.0000 2.0000 -1.0000
v 3.0000 2.0000 -0.0000
v 3.0000 3.0000 -1.0000
v 3.0000 4.0000 -1.0000
v 2.0000 4.0000 -1.0000
v 3.0000 4.0000 -2.0000
v 2.0000 4.0000 -2.0000
v 2.0000 3.0000 -2.0000
v 3.0000 3.0000 -2.0000
v 3.0000 1.0000 -2.0000
v 3.0000 1.0000 -3.0000
v 3.0000 0.0000 -3.0000
v 3.0000 0.0000 -2.0000
v 3.0000 -1.0000 -4.0000
v 3.0000 -1.0000 -3.0000
v 3.0000 0.0000 -4.0000
v 3.0000 1.0000 -4.0000
v 4.0000 1.0000 3.0000
v 4.0000 1.0000 2.0000
v 4.0000 0.0000 2.0000
v 4.0000 0.0000 3.0000
v 4.0000 -1.0000 1.0000
v 4.0000 -1.0000 2.0000
v 4.0000 0.0000 1.0000
v 4.0000 1.0000 1.0000
v 4.0000 -1.0000 -0.0000
v 4.0000 0.0000 -0.0000
v 4.0000 1.0000 -0.0000
v 3.0000 1.0000 -0.0000
v 3.0000 2.0000 1.0000
v 4.0000 2.0000 -0.0000
v 4.0000 2.0000 1.0000
v 4.0000 3.0000 1.0000
v 4.0000 3.0000 -0.0000
v 4.0000 4.0000 1.0000
v 4.0000 4.0000 -0.0000
v 4.0000 1.0000 -1.0000
v 3.0000 1.0000 -1.0000
v 3.0000 0.0000 -1.0000
v 4.0000 0.0000 -1.0000
v 4.0000 4.0000 -1.0000
v 4.0000 3.0000 -1.0000
vt 0.001953 0.500000
vt 0.005859 0.500000
vt 0.009766 0.500000
vt 0.013672 0.500000
vt 0.017578 0.500000
vt 0.021484 0.500000
vt 0.025391 0.500000
vn 0.0 -1.0 0.0
vn 0.0 1.0 0.0
vn 0.0 0.0 1.0
vn 0.0 0.0 -1.0
vn -1.0 0.0 0.0
vn 1.0 0.0 0.0
usemtl mat_Karen_Daniela_Bustos_Valero_fase_2
s off
f 1/1/2 2/1/2 3/1/2 4/1/2
f 5/1/1 6/1/1 7/1/1 8/1/1
f 5/1/3 8/1/3 2/1/3 1/1/3
f 8/1/6 7/1/6 3/1/6 2/1/6
f 5/1/5 1/1/5 4/1/5 6/1/5
f 9/2/2 10/2/2 11/2/2 12/2/2
f 13/2/1 14/2/1 15/2/1 16/2/1
f 13/2/3 16/2/3 10/2/3 9/2/3
f 13/2/5 9/2/5 12/2/5 14/2/5
f 4/2/2 3/2/2 17/2/2 18/2/2
f 6/2/1 19/2/1 20/2/1 7/2/1
f 7/2/6 20/2/6 17/2/6 3/2/6
f 6/2/5 4/2/5 18/2/5 19/2/5
f 12/2/2 11/2/2 21/2/2 22/2/2
f 14/2/1 23/2/1 24/2/1 15/2/1
f 23/2/4 22/2/4 21/2/4 24/2/4
f 14/2/5 12/2/5 22/2/5 23/2/5
f 25/2/1 26/2/1 27/2/1 28/2/1
f 25/2/3 28/2/3 20/2/3 19/2/3
f 26/2/4 29/2/4 30/2/4 27/2/4
f 25/2/5 19/2/5 29/2/5 26/2/5
f 18/2/2 17/2/2 31/2/2 32/2/2
f 20/2/6 30/2/6 31/2/6 17/2/6
f 19/2/5 18/2/5 32/2/5 29/2/5
f 32/2/2 31/2/2 33/2/2 34/2/2
f 29/2/1 35/2/1 36/2/1 30/2/1
f 35/2/4 34/2/4 33/2/4 36/2/4
f 29/2/5 32/2/5 34/2/5 35/2/5
f 37/2/2 38/2/2 39/2/2 2/2/2
f 40/2/1 8/2/1 41/2/1 42/2/1
f 40/2/3 42/2/3 38/2/3 37/2/3
f 8/2/4 2/2/4 39/2/4 41/2/4
f 40/2/5 37/2/5 2/2/5 8/2/5
f 10/2/2 43/2/2 44/2/2 11/2/2
f 16/2/1 15/2/1 45/2/1 46/2/1
f 16/2/3 46/2/3 43/2/3 10/2/3
f 47/3/1 48/3/1 49/3/1 50/3/1
f 47/3/3 50/3/3 45/3/3 15/3/3
f 47/3/5 15/3/5 24/3/5 48/3/5
f 11/4/2 44/4/2 51/4/2 21/4/2
f 45/4/6 52/4/6 51/4/6 44/4/6
f 20/3/2 53/3/2 54/3/2 30/3/2
f 28/3/1 27/3/1 55/3/1 56/3/1
f 28/3/3 56/3/3 53/3/3 20/3/3
f 27/3/4 30/3/4 54/3/4 55/3/4
f 48/5/1 57/5/1 58/5/1 49/5/1
f 57/5/4 59/5/4 60/5/4 58/5/4
f 48/5/5 24/5/5 59/5/5 57/5/5
f 21/5/2 51/5/2 61/5/2 62/5/2
f 59/5/4 62/5/4 61/5/4 60/5/4
f 24/5/5 21/5/5 62/5/5 59/5/5
f 31/3/2 63/3/2 64/3/2 33/3/2
f 30/3/1 36/3/1 65/3/1 54/3/1
f 30/3/3 54/3/3 63/3/3 31/3/3
f 54/3/6 65/3/6 64/3/6 63/3/6
f 33/2/2 64/2/2 66/2/2 67/2/2
f 36/2/1 68/2/1 69/2/1 65/2/1
f 68/2/4 67/2/4 66/2/4 69/2/4
f 65/2/6 69/2/6 66/2/6 64/2/6
f 36/2/5 33/2/5 67/2/5 68/2/5
f 70/2/2 71/2/2 72/2/2 38/2/2
f 73/2/1 42/2/1 74/2/1 75/2/1
f 73/2/3 75/2/3 71/2/3 70/2/3
f 73/2/5 70/2/5 38/2/5 42/2/5
f 38/3/2 72/3/2 76/3/2 39/3/2
f 42/3/1 41/3/1 77/3/1 74/3/1
f 41/3/4 39/3/4 76/3/4 77/3/4
f 74/3/6 77/3/6 76/3/6 72/3/6
f 78/1/2 79/1/2 80/1/2 50/1/2
f 39/1/1 81/1/1 82/1/1 76/1/1
f 39/1/3 76/1/3 79/1/3 78/1/3
f 39/1/5 78/1/5 50/1/5 81/1/5
f 43/1/2 83/1/2 84/1/2 44/1/2
f 46/1/1 45/1/1 85/1/1 86/1/1
f 46/1/3 86/1/3 83/1/3 43/1/3
f 45/1/4 44/1/4 84/1/4 85/1/4
f 87/2/2 88/2/2 89/2/2 56/2/2
f 90/2/1 91/2/1 92/2/1 93/2/1
f 90/2/3 93/2/3 88/2/3 87/2/3
f 90/2/5 87/2/5 56/2/5 91/2/5
f 81/6/1 94/6/1 95/6/1 82/6/1
f 81/6/5 50/6/5 49/6/5 94/6/5
f 45/3/2 85/3/2 96/3/2 52/3/2
f 50/3/3 80/3/3 85/3/3 45/3/3
f 97/1/1 98/1/1 99/1/1 100/1/1
f 97/1/3 100/1/3 92/1/3 91/1/3
f 98/1/4 101/1/4 102/1/4 99/1/4
f 97/1/5 91/1/5 101/1/5 98/1/5
f 91/4/5 56/4/5 55/4/5 101/4/5
f 53/3/2 103/3/2 104/3/2 54/3/2
f 56/3/3 89/3/3 103/3/3 53/3/3
f 94/5/1 63/5/1 105/5/1 95/5/1
f 63/5/4 58/5/4 106/5/4 105/5/4
f 94/5/5 49/5/5 58/5/5 63/5/5
f 58/1/4 60/1/4 107/1/4 106/1/4
f 51/5/2 108/5/2 109/5/2 61/5/2
f 52/5/3 96/5/3 108/5/3 51/5/3
f 60/5/4 61/5/4 109/5/4 107/5/4
f 96/5/6 107/5/6 109/5/6 108/5/6
f 101/1/1 110/1/1 111/1/1 102/1/1
f 110/1/4 112/1/4 113/1/4 111/1/4
f 101/1/5 55/1/5 112/1/5 110/1/5
f 54/1/2 104/1/2 114/1/2 65/1/2
f 112/1/4 65/1/4 114/1/4 113/1/4
f 55/1/5 54/1/5 65/1/5 112/1/5
f 115/2/2 116/2/2 117/2/2 118/2/2
f 119/2/1 120/2/1 121/2/1 122/2/1
f 119/2/3 122/2/3 116/2/3 115/2/3
f 120/2/4 118/2/4 117/2/4 121/2/4
f 119/2/5 115/2/5 118/2/5 120/2/5
f 123/2/1 124/2/1 125/2/1 126/2/1
f 123/2/3 126/2/3 127/2/3 75/2/3
f 126/2/6 125/2/6 128/2/6 127/2/6
f 123/2/5 75/2/5 74/2/5 124/2/5
f 71/2/2 129/2/2 130/2/2 72/2/2
f 75/2/3 127/2/3 129/2/3 71/2/3
f 74/2/4 72/2/4 130/2/4 128/2/4
f 74/2/2 128/2/2 131/2/2 77/2/2
f 124/2/1 132/2/1 133/2/1 125/2/1
f 125/2/6 133/2/6 131/2/6 128/2/6
f 124/2/5 74/2/5 77/2/5 132/2/5
f 134/2/2 135/2/2 136/2/2 83/2/2
f 137/2/1 86/2/1 138/2/1 139/2/1
f 137/2/3 139/2/3 135/2/3 134/2/3
f 137/2/5 134/2/5 83/2/5 86/2/5
f 140/3/1 93/3/1 141/3/1 142/3/1
f 140/3/3 142/3/3 133/3/3 132/3/3
f 140/3/5 132/3/5 88/3/5 93/3/5
f 77/4/2 131/4/2 143/4/2 144/4/2
f 133/4/6 145/4/6 143/4/6 131/4/6
f 132/4/5 77/4/5 144/4/5 88/4/5
f 79/2/2 146/2/2 147/2/2 80/2/2
f 76/2/1 82/2/1 148/2/1 149/2/1
f 76/2/3 149/2/3 146/2/3 79/2/3
f 83/2/2 136/2/2 150/2/2 84/2/2
f 86/2/1 85/2/1 151/2/1 138/2/1
f 85/2/4 84/2/4 150/2/4 151/2/4
f 138/2/6 151/2/6 150/2/6 136/2/6
f 152/4/1 153/4/1 154/4/1 155/4/1
f 152/4/3 155/4/3 156/4/3 157/4/3
f 152/4/5 157/4/5 100/4/5 153/4/5
f 157/4/3 156/4/3 141/4/3 93/4/3
f 157/4/5 93/4/5 92/4/5 100/4/5
f 88/4/5 144/4/5 103/4/5 89/4/5
f 144/3/3 143/3/3 148/3/3 82/3/3
f 144/3/5 82/3/5 95/3/5 103/3/5
f 85/3/2 151/3/2 158/3/2 96/3/2
f 80/3/3 147/3/3 151/3/3 85/3/3
f 153/3/1 159/3/1 160/3/1 154/3/1
f 159/3/4 99/3/4 161/3/4 160/3/4
f 153/3/5 100/3/5 99/3/5 159/3/5
f 99/3/4 102/3/4 162/3/4 161/3/4
f 104/4/4 105/4/4 163/4/4 164/4/4
f 103/4/5 95/4/5 105/4/5 104/4/5
f 96/3/2 158/3/2 165/3/2 107/3/2
f 102/5/1 111/5/1 166/5/1 162/5/1
f 111/5/4 113/5/4 167/5/4 166/5/4
f 104/1/2 164/1/2 168/1/2 114/1/2
f 113/1/4 114/1/4 168/1/4 167/1/4
f 105/4/1 169/4/1 170/4/1 163/4/1
f 105/4/5 106/4/5 171/4/5 169/4/5
f 107/4/2 165/4/2 172/4/2 122/4/2
f 106/4/5 107/4/5 122/4/5 171/4/5
f 169/5/1 173/5/1 174/5/1 170/5/1
f 170/5/6 174/5/6 175/5/6 176/5/6
f 169/5/5 171/5/5 177/5/5 173/5/5
f 177/3/4 121/3/4 178/3/4 175/3/4
f 171/3/5 122/3/5 121/3/5 177/3/5
f 116/2/2 179/2/2 180/2/2 117/2/2
f 122/2/3 172/2/3 179/2/3 116/2/3
f 181/5/1 182/5/1 183/5/1 184/5/1
f 181/5/3 184/5/3 174/5/3 173/5/3
f 182/5/4 185/5/4 186/5/4 183/5/4
f 181/5/5 173/5/5 185/5/5 182/5/5
f 177/1/2 175/1/2 187/1/2 188/1/2
f 185/1/4 188/1/4 187/1/4 186/1/4
f 174/1/6 186/1/6 187/1/6 175/1/6
f 173/1/5 177/1/5 188/1/5 185/1/5
f 117/2/2 180/2/2 189/2/2 190/2/2
f 121/2/1 191/2/1 192/2/1 178/2/1
f 191/2/4 190/2/4 189/2/4 192/2/4
f 178/2/6 192/2/6 189/2/6 180/2/6
f 121/2/5 117/2/5 190/2/5 191/2/5
f 129/2/2 193/2/2 194/2/2 130/2/2
f 127/2/1 128/2/1 195/2/1 196/2/1
f 127/2/3 196/2/3 193/2/3 129/2/3
f 128/2/4 130/2/4 194/2/4 195/2/4
f 196/2/6 195/2/6 194/2/6 193/2/6
f 197/2/2 198/2/2 199/2/2 135/2/2
f 200/2/1 139/2/1 201/2/1 202/2/1
f 200/2/3 202/2/3 198/2/3 197/2/3
f 200/2/5 197/2/5 135/2/5 139/2/5
f 203/3/1 146/3/1 204/3/1 205/3/1
f 203/3/3 205/3/3 201/3/3 139/3/3
f 205/3/6 204/3/6 206/3/6 201/3/6
f 203/3/5 139/3/5 138/3/5 146/3/5
f 135/7/2 199/7/2 207/7/2 136/7/2
f 138/7/4 136/7/4 207/7/4 206/7/4
f 133/2/2 208/2/2 209/2/2 145/2/2
f 142/2/1 141/2/1 210/2/1 211/2/1
f 142/2/3 211/2/3 208/2/3 133/2/3
f 211/2/6 210/2/6 209/2/6 208/2/6
f 149/3/1 148/3/1 212/3/1 213/3/1
f 149/3/3 213/3/3 204/3/3 146/3/3
f 213/3/6 212/3/6 214/3/6 204/3/6
f 138/3/2 206/3/2 215/3/2 151/3/2
f 204/3/6 214/3/6 215/3/6 206/3/6
f 146/3/5 138/3/5 151/3/5 147/3/5
f 155/3/1 154/3/1 216/3/1 217/3/1
f 155/3/3 217/3/3 218/3/3 156/3/3
f 217/3/6 216/3/6 219/3/6 218/3/6
f 156/3/3 218/3/3 210/3/3 141/3/3
f 218/3/6 219/3/6 220/3/6 210/3/6
f 145/3/3 209/3/3 221/3/3 143/3/3
f 143/3/3 221/3/3 212/3/3 148/3/3
f 221/3/6 222/3/6 223/3/6 212/3/6
f 151/3/2 215/3/2 224/3/2 158/3/2
f 214/3/6 225/3/6 224/3/6 215/3/6
f 154/4/1 160/4/1 226/4/1 216/4/1
f 160/4/4 161/4/4 227/4/4 226/4/4
f 216/4/6 226/4/6 227/4/6 219/4/6
f 161/4/4 162/4/4 228/4/4 227/4/4
f 219/4/6 227/4/6 228/4/6 220/4/6
f 229/3/6 230/3/6 231/3/6 222/3/6
f 164/3/4 163/3/4 232/3/4 231/3/4
f 222/3/6 231/3/6 232/3/6 223/3/6
f 158/4/2 224/4/2 233/4/2 165/4/2
f 162/4/1 166/4/1 234/4/1 228/4/1
f 166/4/4 167/4/4 235/4/4 234/4/4
f 228/4/6 234/4/6 235/4/6 230/4/6
f 164/4/2 231/4/2 236/4/2 168/4/2
f 230/4/6 235/4/6 236/4/6 231/4/6
f 163/2/1 170/2/1 237/2/1 232/2/1
f 170/2/4 176/2/4 238/2/4 237/2/4
f 232/2/6 237/2/6 238/2/6 239/2/6
f 239/1/6 238/1/6 240/1/6 233/1/6
f 241/2/2 242/2/2 243/2/2 179/2/2
f 165/2/3 233/2/3 242/2/3 241/2/3
f 233/2/6 240/2/6 243/2/6 242/2/6
f 165/2/5 241/2/5 179/2/5 172/2/5
f 168/4/2 236/4/2 244/4/2 184/4/2
f 167/4/1 245/4/1 246/4/1 235/4/1
f 235/4/6 246/4/6 244/4/6 236/4/6
f 167/4/5 168/4/5 184/4/5 245/4/5
f 176/1/1 175/1/1 247/1/1 238/1/1
f 175/1/4 178/1/4 248/1/4 247/1/4
f 238/1/6 247/1/6 248/1/6 240/1/6
f 179/2/2 243/2/2 249/2/2 180/2/2
f 178/2/4 180/2/4 249/2/4 248/2/4
f 240/2/6 248/2/6 249/2/6 243/2/6
f 245/3/1 250/3/1 251/3/1 246/3/1
f 250/3/4 183/3/4 252/3/4 251/3/4
f 245/3/5 184/3/5 183/3/5 250/3/5
f 174/3/2 253/3/2 254/3/2 186/3/2
f 184/3/3 244/3/3 253/3/3 174/3/3
f 183/3/4 186/3/4 254/3/4 252/3/4
f 198/1/2 255/1/2 256/1/2 199/1/2
f 202/1/1 201/1/1 257/1/1 258/1/1
f 202/1/3 258/1/3 255/1/3 198/1/3
f 258/1/6 257/1/6 256/1/6 255/1/6
f 199/5/2 256/5/2 259/5/2 207/5/2
f 201/5/1 206/5/1 260/5/1 257/5/1
f 206/5/4 207/5/4 259/5/4 260/5/4
f 257/5/6 260/5/6 259/5/6 256/5/6
f 210/3/1 220/3/1 261/3/1 262/3/1
f 210/3/3 262/3/3 263/3/3 209/3/3
f 262/3/6 261/3/6 264/3/6 263/3/6
f 221/4/2 265/4/2 266/4/2 222/4/2
f 209/4/3 263/4/3 265/4/3 221/4/3
f 229/4/4 222/4/4 266/4/4 264/4/4
f 214/5/2 267/5/2 268/5/2 225/5/2
f 212/5/1 223/5/1 269/5/1 270/5/1
f 212/5/3 270/5/3 267/5/3 214/5/3
f 270/5/6 269/5/6 268/5/6 267/5/6
f 271/2/2 272/2/2 273/2/2 274/2/2
f 215/2/1 224/2/1 275/2/1 276/2/1
f 215/2/3 276/2/3 272/2/3 271/2/3
f 224/2/4 274/2/4 273/2/4 275/2/4
f 215/2/5 271/2/5 274/2/5 224/2/5
f 229/2/2 264/2/2 277/2/2 230/2/2
f 220/2/1 228/2/1 278/2/1 261/2/1
f 228/2/4 230/2/4 277/2/4 278/2/4
f 261/2/6 278/2/6 277/2/6 264/2/6
f 223/3/1 232/3/1 279/3/1 269/3/1
f 232/3/4 239/3/4 280/3/4 279/3/4
f 269/3/6 279/3/6 280/3/6 268/3/6
f 224/3/2 275/3/2 281/3/2 233/3/2
f 225/3/3 268/3/3 275/3/3 224/3/3
f 239/3/4 233/3/4 281/3/4 280/3/4
f 237/3/2 282/3/2 283/3/2 253/3/2
f 236/3/1 244/3/1 284/3/1 285/3/1
f 236/3/3 285/3/3 282/3/3 237/3/3
f 236/3/5 237/3/5 253/3/5 244/3/5
f 246/1/1 251/1/1 286/1/1 287/1/1
f 246/1/3 287/1/3 284/1/3 244/1/3
f 251/1/4 252/1/4 288/1/4 286/1/4
f 253/2/2 283/2/2 289/2/2 254/2/2
f 252/2/4 254/2/4 289/2/4 288/2/4
f 290/2/2 291/2/2 292/2/2 293/2/2
f 294/2/1 295/2/1 296/2/1 297/2/1
f 294/2/3 297/2/3 291/2/3 290/2/3
f 294/2/5 290/2/5 293/2/5 295/2/5
f 298/1/1 263/1/1 299/1/1 300/1/1
f 298/1/3 300/1/3 296/1/3 295/1/3
f 298/1/5 295/1/5 265/1/5 263/1/5
f 293/3/2 292/3/2 301/3/2 270/3/2
f 265/3/4 270/3/4 301/3/4 302/3/4
f 295/3/5 293/3/5 270/3/5 265/3/5
f 265/3/2 302/3/2 303/3/2 266/3/2
f 263/3/1 264/3/1 304/3/1 299/3/1
f 264/3/4 266/3/4 303/3/4 304/3/4
f 272/2/2 305/2/2 306/2/2 273/2/2
f 276/2/1 275/2/1 307/2/1 308/2/1
f 276/2/3 308/2/3 305/2/3 272/2/3
f 268/3/1 280/3/1 309/3/1 310/3/1
f 268/3/3 310/3/3 307/3/3 275/3/3
f 280/3/4 281/3/4 311/3/4 309/3/4
f 310/3/6 309/3/6 311/3/6 307/3/6
f 273/7/2 306/7/2 312/7/2 313/7/2
f 275/7/5 273/7/5 313/7/5 281/7/5
f 313/2/2 312/2/2 314/2/2 315/2/2
f 281/2/1 316/2/1 317/2/1 311/2/1
f 316/2/4 315/2/4 314/2/4 317/2/4
f 311/2/6 317/2/6 314/2/6 312/2/6
f 281/2/5 313/2/5 315/2/5 316/2/5
f 282/2/2 318/2/2 319/2/2 283/2/2
f 285/2/1 284/2/1 320/2/1 321/2/1
f 285/2/3 321/2/3 318/2/3 282/2/3
f 321/2/6 320/2/6 319/2/6 318/2/6
f 287/1/1 286/1/1 322/1/1 323/1/1
f 287/1/3 323/1/3 320/1/3 284/1/3
f 286/1/4 288/1/4 324/1/4 322/1/4
f 323/1/6 322/1/6 324/1/6 320/1/6
f 283/1/2 319/1/2 325/1/2 289/1/2
f 288/1/4 289/1/4 325/1/4 324/1/4
f 320/1/6 324/1/6 325/1/6 319/1/6
f 291/1/2 326/1/2 327/1/2 292/1/2
f 297/1/1 296/1/1 328/1/1 329/1/1
f 297/1/3 329/1/3 326/1/3 291/1/3
f 329/1/6 328/1/6 327/1/6 326/1/6
f 300/1/1 299/1/1 330/1/1 331/1/1
f 300/1/3 331/1/3 328/1/3 296/1/3
f 331/1/6 330/1/6 332/1/6 328/1/6
f 292/5/2 327/5/2 333/5/2 301/5/2
f 328/5/6 332/5/6 333/5/6 327/5/6
f 299/2/1 304/2/1 334/2/1 330/2/1
f 304/2/4 303/2/4 335/2/4 334/2/4
f 330/2/6 334/2/6 335/2/6 332/2/6
f 301/5/2 333/5/2 336/5/2 337/5/2
f 332/5/6 335/5/6 336/5/6 333/5/6
f 302/5/5 301/5/5 337/5/5 303/5/5
f 338/1/1 310/1/1 339/1/1 340/1/1
f 338/1/3 340/1/3 341/1/3 308/1/3
f 310/1/4 307/1/4 342/1/4 339/1/4
f 340/1/6 339/1/6 342/1/6 341/1/6
f 338/1/5 308/1/5 307/1/5 310/1/5
f 305/1/2 343/1/2 344/1/2 306/1/2
f 308/1/3 341/1/3 343/1/3 305/1/3
f 341/1/6 342/1/6 344/1/6 343/1/6
f 337/5/2 336/5/2 345/5/2 346/5/2
f 303/5/1 347/5/1 348/5/1 335/5/1
f 347/5/4 346/5/4 345/5/4 348/5/4
f 335/5/6 348/5/6 345/5/6 336/5/6
f 303/5/5 337/5/5 346/5/5 347/5/5
f 306/2/2 344/2/2 349/2/2 312/2/2
f 307/2/1 311/2/1 350/2/1 342/2/1
f 311/2/4 312/2/4 349/2/4 350/2/4
f 342/2/6 350/2/6 349/2/6 344/2/6
