mtllib Drago_Tomas_Mateo_Buitrago_Gutiérrez_fase_4.mtl
o Drago_Tomas_Mateo_Buitrago_Gutiérrez_fase_4
v -10.5000 -12.5000 2.0000
v -9.5000 -12.5000 2.0000
v -9.5000 -12.5000 1.0000
v -10.5000 -12.5000 1.0000
v -10.5000 -13.5000 2.0000
v -10.5000 -13.5000 1.0000
v -9.5000 -13.5000 1.0000
v -9.5000 -13.5000 2.0000
v -9.5000 -12.5000 11.0000
v -8.5000 -12.5000 11.0000
v -8.5000 -12.5000 10.0000
v -9.5000 -12.5000 10.0000
v -9.5000 -13.5000 11.0000
v -9.5000 -13.5000 10.0000
v -8.5000 -13.5000 10.0000
v -8.5000 -13.5000 11.0000
v -8.5000 -12.5000 9.0000
v -9.5000 -12.5000 9.0000
v -9.5000 -13.5000 9.0000
v -8.5000 -13.5000 9.0000
v -9.5000 -12.5000 4.0000
v -8.5000 -12.5000 4.0000
v -8.5000 -12.5000 3.0000
v -9.5000 -12.5000 3.0000
v -9.5000 -13.5000 4.0000
v -9.5000 -13.5000 3.0000
v -8.5000 -13.5000 3.0000
v -8.5000 -13.5000 4.0000
v -8.5000 -12.5000 2.0000
v -8.5000 -12.5000 1.0000
v -8.5000 -13.5000 1.0000
v -8.5000 -13.5000 2.0000
v -7.5000 -12.5000 9.0000
v -7.5000 -12.5000 8.0000
v -8.5000 -12.5000 8.0000
v -8.5000 -13.5000 8.0000
v -7.5000 -13.5000 8.0000
v -7.5000 -13.5000 9.0000
v -7.5000 -12.5000 7.0000
v -8.5000 -12.5000 7.0000
v -8.5000 -13.5000 7.0000
v -7.5000 -13.5000 7.0000
v -7.5000 -12.5000 4.0000
v -7.5000 -12.5000 3.0000
v -7.5000 -13.5000 3.0000
v -7.5000 -13.5000 4.0000
v -7.5000 -12.5000 2.0000
v -7.5000 -13.5000 2.0000
v -7.5000 -12.5000 1.0000
v -7.5000 -13.5000 1.0000
v -8.5000 -12.5000 -5.0000
v -7.5000 -12.5000 -5.0000
v -7.5000 -12.5000 -6.0000
v -8.5000 -12.5000 -6.0000
v -8.5000 -13.5000 -5.0000
v -8.5000 -13.5000 -6.0000
v -7.5000 -13.5000 -6.0000
v -7.5000 -13.5000 -5.0000
v -6.5000 -13.5000 8.0000
v -6.5000 -13.5000 9.0000
v -6.5000 -12.5000 9.0000
v -6.5000 -12.5000 8.0000
v -7.5000 -11.5000 9.0000
v -6.5000 -11.5000 9.0000
v -6.5000 -11.5000 8.0000
v -7.5000 -11.5000 8.0000
v -6.5000 -13.5000 7.0000
v -6.5000 -11.5000 7.0000
v -7.5000 -11.5000 7.0000
v -6.5000 -12.5000 7.0000
v -6.5000 -12.5000 6.0000
v -7.5000 -12.5000 6.0000
v -7.5000 -13.5000 6.0000
v -6.5000 -13.5000 6.0000
v -6.5000 -12.5000 5.0000
v -7.5000 -12.5000 5.0000
v -7.5000 -13.5000 5.0000
v -6.5000 -13.5000 5.0000
v -6.5000 -12.5000 4.0000
v -6.5000 -13.5000 4.0000
v -6.5000 -12.5000 2.0000
v -6.5000 -12.5000 1.0000
v -6.5000 -13.5000 1.0000
v -6.5000 -13.5000 2.0000
v -6.5000 -12.5000 -0.0000
v -7.5000 -12.5000 -0.0000
v -7.5000 -13.5000 -0.0000
v -6.5000 -13.5000 -0.0000
v -7.5000 -12.5000 -4.0000
v -6.5000 -12.5000 -4.0000
v -6.5000 -12.5000 -5.0000
v -7.5000 -13.5000 -4.0000
v -6.5000 -13.5000 -5.0000
v -6.5000 -13.5000 -4.0000
v -6.5000 -12.5000 -6.0000
v -6.5000 -12.5000 -7.0000
v -7.5000 -12.5000 -7.0000
v -7.5000 -13.5000 -7.0000
v -6.5000 -13.5000 -7.0000
v -6.5000 -13.5000 -6.0000
v -5.5000 -12.5000 8.0000
v -5.5000 -12.5000 7.0000
v -5.5000 -13.5000 7.0000
v -5.5000 -13.5000 8.0000
v -5.5000 -13.5000 6.0000
v -5.5000 -11.5000 7.0000
v -5.5000 -11.5000 6.0000
v -6.5000 -11.5000 6.0000
v -5.5000 -12.5000 6.0000
v -5.5000 -12.5000 5.0000
v -5.5000 -13.5000 5.0000
v -5.5000 -13.5000 4.0000
v -5.5000 -12.5000 4.0000
v -6.5000 -11.5000 5.0000
v -5.5000 -11.5000 5.0000
v -5.5000 -11.5000 4.0000
v -6.5000 -11.5000 4.0000
v -6.5000 -12.5000 3.0000
v -5.5000 -12.5000 3.0000
v -5.5000 -12.5000 2.0000
v -6.5000 -13.5000 3.0000
v -5.5000 -13.5000 2.0000
v -5.5000 -13.5000 3.0000
v -5.5000 -12.5000 1.0000
v -5.5000 -13.5000 1.0000
v -5.5000 -13.5000 -0.0000
v -6.5000 -11.5000 1.0000
v -5.5000 -11.5000 1.0000
v -5.5000 -11.5000 -0.0000
v -6.5000 -11.5000 -0.0000
v -5.5000 -12.5000 -0.0000
v -5.5000 -12.5000 -1.0000
v -6.5000 -12.5000 -1.0000
v -6.5000 -13.5000 -1.0000
v -5.5000 -13.5000 -1.0000
v -6.5000 8.5000 -0.0000
v -6.5000 8.5000 -1.0000
v -5.5000 8.5000 -1.0000
v -5.5000 8.5000 -0.0000
v -5.5000 9.5000 -0.0000
v -6.5000 9.5000 -0.0000
v -6.5000 9.5000 -1.0000
v -5.5000 9.5000 -1.0000
v -5.5000 10.5000 -0.0000
v -6.5000 10.5000 -0.0000
v -6.5000 10.5000 -1.0000
v -5.5000 10.5000 -1.0000
v -5.5000 11.5000 -0.0000
v -6.5000 11.5000 -0.0000
v -6.5000 11.5000 -1.0000
v -5.5000 11.5000 -1.0000
v -6.5000 12.5000 -0.0000
v -5.5000 12.5000 -0.0000
v -5.5000 12.5000 -1.0000
v -6.5000 12.5000 -1.0000
v -5.5000 -12.5000 -2.0000
v -6.5000 -12.5000 -2.0000
v -6.5000 -13.5000 -2.0000
v -5.5000 -13.5000 -2.0000
v -5.5000 -13.5000 -5.0000
v -5.5000 -13.5000 -4.0000
v -5.5000 -12.5000 -4.0000
v -5.5000 -12.5000 -5.0000
v -6.5000 -11.5000 -4.0000
v -5.5000 -11.5000 -4.0000
v -5.5000 -11.5000 -5.0000
v -6.5000 -11.5000 -5.0000
v -5.5000 -12.5000 -6.0000
v -5.5000 -12.5000 -7.0000
v -5.5000 -13.5000 -7.0000
v -5.5000 -13.5000 -6.0000
v -4.5000 -13.5000 6.0000
v -4.5000 -13.5000 7.0000
v -4.5000 -12.5000 7.0000
v -4.5000 -12.5000 6.0000
v -4.5000 -11.5000 7.0000
v -4.5000 -11.5000 6.0000
v -4.5000 -13.5000 5.0000
v -4.5000 -11.5000 5.0000
v -4.5000 -12.5000 5.0000
v -5.5000 -10.5000 6.0000
v -4.5000 -10.5000 6.0000
v -4.5000 -10.5000 5.0000
v -5.5000 -10.5000 5.0000
v -4.5000 -12.5000 4.0000
v -4.5000 -13.5000 4.0000
v -4.5000 -12.5000 2.0000
v -4.5000 -12.5000 1.0000
v -4.5000 -13.5000 1.0000
v -4.5000 -13.5000 2.0000
v -4.5000 -13.5000 -0.0000
v -4.5000 -11.5000 1.0000
v -4.5000 -11.5000 -0.0000
v -4.5000 -13.5000 -1.0000
v -4.5000 -11.5000 -1.0000
v -5.5000 -11.5000 -1.0000
v -4.5000 -12.5000 -1.0000
v -5.5000 7.5000 -0.0000
v -5.5000 7.5000 -1.0000
v -4.5000 7.5000 -1.0000
v -4.5000 7.5000 -0.0000
v -4.5000 8.5000 -0.0000
v -4.5000 8.5000 -1.0000
v -4.5000 9.5000 -0.0000
v -4.5000 9.5000 -1.0000
v -4.5000 10.5000 -0.0000
v -4.5000 10.5000 -1.0000
v -4.5000 -12.5000 -2.0000
v -4.5000 -13.5000 -2.0000
v -4.5000 -12.5000 -3.0000
v -5.5000 -12.5000 -3.0000
v -5.5000 -13.5000 -3.0000
v -4.5000 -13.5000 -3.0000
v -4.5000 -12.5000 -4.0000
v -4.5000 -13.5000 -4.0000
v -4.5000 -13.5000 -5.0000
v -4.5000 -11.5000 -4.0000
v -4.5000 -11.5000 -5.0000
v -4.5000 -12.5000 -5.0000
v -4.5000 -12.5000 -6.0000
v -4.5000 -13.5000 -6.0000
v -3.5000 -12.5000 6.0000
v -3.5000 -12.5000 5.0000
v -3.5000 -13.5000 5.0000
v -3.5000 -13.5000 6.0000
v -3.5000 -12.5000 4.0000
v -3.5000 -13.5000 4.0000
v -3.5000 -12.5000 3.0000
v -4.5000 -12.5000 3.0000
v -4.5000 -13.5000 3.0000
v -3.5000 -13.5000 3.0000
v -3.5000 -12.5000 2.0000
v -3.5000 -13.5000 2.0000
v -4.5000 -11.5000 2.0000
v -3.5000 -11.5000 2.0000
v -3.5000 -11.5000 1.0000
v -3.5000 -12.5000 1.0000
v -3.5000 -13.5000 -0.0000
v -3.5000 -13.5000 1.0000
v -4.5000 -10.5000 1.0000
v -3.5000 -10.5000 1.0000
v -3.5000 -10.5000 -0.0000
v -4.5000 -10.5000 -0.0000
v -3.5000 -11.5000 -0.0000
v -4.5000 -1.5000 1.0000
v -4.5000 -1.5000 -0.0000
v -3.5000 -1.5000 -0.0000
v -3.5000 -1.5000 1.0000
v -3.5000 -0.5000 1.0000
v -4.5000 -0.5000 1.0000
v -4.5000 -0.5000 -0.0000
v -3.5000 0.5000 1.0000
v -4.5000 0.5000 1.0000
v -3.5000 -0.5000 -0.0000
v -3.5000 0.5000 -0.0000
v -4.5000 0.5000 -0.0000
v -3.5000 1.5000 1.0000
v -4.5000 1.5000 1.0000
v -3.5000 1.5000 -0.0000
v -4.5000 1.5000 -0.0000
v -3.5000 2.5000 1.0000
v -4.5000 2.5000 1.0000
v -3.5000 2.5000 -0.0000
v -4.5000 2.5000 -0.0000
v -3.5000 3.5000 1.0000
v -4.5000 3.5000 1.0000
v -3.5000 3.5000 -0.0000
v -4.5000 3.5000 -0.0000
v -3.5000 4.5000 1.0000
v -4.5000 4.5000 1.0000
v -3.5000 4.5000 -0.0000
v -4.5000 4.5000 -0.0000
v -4.5000 5.5000 1.0000
v -3.5000 5.5000 1.0000
v -3.5000 5.5000 -0.0000
v -4.5000 5.5000 -0.0000
v -3.5000 -13.5000 -1.0000
v -4.5000 -10.5000 -1.0000
v -3.5000 -10.5000 -1.0000
v -3.5000 -11.5000 -1.0000
v -3.5000 -9.5000 -0.0000
v -4.5000 -9.5000 -0.0000
v -4.5000 -9.5000 -1.0000
v -3.5000 -9.5000 -1.0000
v -4.5000 -8.5000 -0.0000
v -3.5000 -8.5000 -0.0000
v -3.5000 -8.5000 -1.0000
v -4.5000 -8.5000 -1.0000
v -4.5000 -1.5000 -1.0000
v -3.5000 -1.5000 -1.0000
v -4.5000 -0.5000 -1.0000
v -4.5000 0.5000 -1.0000
v -4.5000 1.5000 -1.0000
v -4.5000 2.5000 -1.0000
v -4.5000 3.5000 -1.0000
v -4.5000 4.5000 -1.0000
v -4.5000 5.5000 -1.0000
v -3.5000 6.5000 -0.0000
v -4.5000 6.5000 -0.0000
v -4.5000 6.5000 -1.0000
v -3.5000 6.5000 -1.0000
v -3.5000 5.5000 -1.0000
v -3.5000 7.5000 -0.0000
v -3.5000 7.5000 -1.0000
v -3.5000 8.5000 -0.0000
v -3.5000 8.5000 -1.0000
v -3.5000 9.5000 -0.0000
v -3.5000 9.5000 -1.0000
v -3.5000 -13.5000 -2.0000
v -3.5000 -11.5000 -2.0000
v -4.5000 -11.5000 -2.0000
v -3.5000 -12.5000 -2.0000
v -4.5000 -1.5000 -2.0000
v -3.5000 -1.5000 -2.0000
v -4.5000 -0.5000 -2.0000
v -3.5000 -0.5000 -2.0000
v -4.5000 0.5000 -2.0000
v -3.5000 0.5000 -2.0000
v -3.5000 -0.5000 -1.0000
v -3.5000 0.5000 -1.0000
v -4.5000 1.5000 -2.0000
v -3.5000 1.5000 -2.0000
v -3.5000 1.5000 -1.0000
v -4.5000 2.5000 -2.0000
v -3.5000 2.5000 -2.0000
v -3.5000 2.5000 -1.0000
v -4.5000 3.5000 -2.0000
v -3.5000 3.5000 -2.0000
v -3.5000 3.5000 -1.0000
v -4.5000 4.5000 -2.0000
v -3.5000 4.5000 -2.0000
v -3.5000 4.5000 -1.0000
v -3.5000 5.5000 -2.0000
v -4.5000 5.5000 -2.0000
v -3.5000 -12.5000 -3.0000
v -3.5000 -13.5000 -3.0000
v -3.5000 -12.5000 -4.0000
v -3.5000 -13.5000 -4.0000
v -3.5000 -12.5000 -5.0000
v -3.5000 -13.5000 -5.0000
v -3.5000 -12.5000 -6.0000
v -3.5000 -12.5000 -7.0000
v -4.5000 -12.5000 -7.0000
v -4.5000 -13.5000 -7.0000
v -3.5000 -13.5000 -7.0000
v -3.5000 -13.5000 -6.0000
v -3.5000 -12.5000 -8.0000
v -4.5000 -12.5000 -8.0000
v -4.5000 -13.5000 -8.0000
v -3.5000 -13.5000 -8.0000
v -2.5000 -12.5000 5.0000
v -2.5000 -12.5000 4.0000
v -2.5000 -13.5000 4.0000
v -2.5000 -13.5000 5.0000
v -2.5000 -13.5000 3.0000
v -3.5000 -11.5000 4.0000
v -2.5000 -11.5000 4.0000
v -2.5000 -11.5000 3.0000
v -3.5000 -11.5000 3.0000
v -2.5000 -12.5000 3.0000
v -2.5000 -12.5000 2.0000
v -2.5000 -13.5000 2.0000
v -2.5000 -12.5000 1.0000
v -2.5000 -13.5000 1.0000
v -2.5000 -13.5000 -0.0000
v -2.5000 -11.5000 1.0000
v -2.5000 -11.5000 -0.0000
v -2.5000 -10.5000 -0.0000
v -2.5000 -10.5000 1.0000
v -2.5000 -9.5000 1.0000
v -3.5000 -9.5000 1.0000
v -2.5000 -9.5000 -0.0000
v -3.5000 -8.5000 1.0000
v -2.5000 -8.5000 1.0000
v -2.5000 -8.5000 -0.0000
v -3.5000 -2.5000 1.0000
v -3.5000 -2.5000 -0.0000
v -2.5000 -2.5000 -0.0000
v -2.5000 -2.5000 1.0000
v -2.5000 -1.5000 1.0000
v -2.5000 -0.5000 1.0000
v -2.5000 -0.5000 -0.0000
v -2.5000 -1.5000 -0.0000
v -3.5000 6.5000 1.0000
v -2.5000 6.5000 1.0000
v -2.5000 6.5000 -0.0000
v -2.5000 5.5000 -0.0000
v -2.5000 5.5000 1.0000
v -2.5000 -13.5000 -1.0000
v -2.5000 -8.5000 -1.0000
v -2.5000 -9.5000 -1.0000
v -2.5000 -7.5000 -0.0000
v -3.5000 -7.5000 -0.0000
v -3.5000 -7.5000 -1.0000
v -2.5000 -7.5000 -1.0000
v -2.5000 -6.5000 -0.0000
v -3.5000 -6.5000 -0.0000
v -3.5000 -6.5000 -1.0000
v -2.5000 -6.5000 -1.0000
v -3.5000 -5.5000 -0.0000
v -2.5000 -5.5000 -0.0000
v -2.5000 -5.5000 -1.0000
v -3.5000 -5.5000 -1.0000
v -3.5000 -2.5000 -1.0000
v -2.5000 -2.5000 -1.0000
v -2.5000 0.5000 -0.0000
v -2.5000 0.5000 -1.0000
v -2.5000 -0.5000 -1.0000
v -2.5000 1.5000 -0.0000
v -2.5000 1.5000 -1.0000
v -2.5000 2.5000 -0.0000
v -2.5000 2.5000 -1.0000
v -2.5000 3.5000 -0.0000
v -2.5000 3.5000 -1.0000
v -2.5000 4.5000 -0.0000
v -2.5000 4.5000 -1.0000
v -2.5000 5.5000 -1.0000
v -2.5000 7.5000 -0.0000
v -2.5000 7.5000 -1.0000
v -2.5000 6.5000 -1.0000
v -2.5000 8.5000 -0.0000
v -2.5000 8.5000 -1.0000
v -2.5000 -13.5000 -2.0000
v -2.5000 -11.5000 -2.0000
v -2.5000 -12.5000 -2.0000
v -3.5000 -10.5000 -2.0000
v -2.5000 -10.5000 -2.0000
v -2.5000 -9.5000 -2.0000
v -3.5000 -9.5000 -2.0000
v -3.5000 -2.5000 -2.0000
v -2.5000 -2.5000 -2.0000
v -2.5000 -1.5000 -2.0000
v -2.5000 -0.5000 -2.0000
v -2.5000 -1.5000 -1.0000
v -2.5000 6.5000 -2.0000
v -3.5000 6.5000 -2.0000
v -2.5000 5.5000 -2.0000
v -2.5000 -12.5000 -3.0000
v -2.5000 -13.5000 -3.0000
v -2.5000 -13.5000 -4.0000
v -2.5000 -11.5000 -3.0000
v -3.5000 -11.5000 -3.0000
v -3.5000 -11.5000 -4.0000
v -2.5000 -11.5000 -4.0000
v -2.5000 -12.5000 -4.0000
v -3.5000 -10.5000 -3.0000
v -2.5000 -10.5000 -3.0000
v -2.5000 -10.5000 -4.0000
v -3.5000 -10.5000 -4.0000
v -2.5000 -12.5000 -5.0000
v -2.5000 -13.5000 -5.0000
v -2.5000 -12.5000 -6.0000
v -2.5000 -13.5000 -6.0000
v -2.5000 -12.5000 9.0000
v -1.5000 -12.5000 9.0000
v -1.5000 -12.5000 8.0000
v -2.5000 -12.5000 8.0000
v -2.5000 -13.5000 9.0000
v -2.5000 -13.5000 8.0000
v -1.5000 -13.5000 8.0000
v -1.5000 -13.5000 9.0000
v -1.5000 -12.5000 7.0000
v -2.5000 -12.5000 7.0000
v -2.5000 -13.5000 7.0000
v -1.5000 -13.5000 7.0000
v -1.5000 -12.5000 6.0000
v -2.5000 -12.5000 6.0000
v -2.5000 -13.5000 6.0000
v -1.5000 -13.5000 6.0000
v -1.5000 -12.5000 5.0000
v -1.5000 -13.5000 5.0000
v -1.5000 -12.5000 4.0000
v -1.5000 -13.5000 4.0000
v -1.5000 -12.5000 3.0000
v -1.5000 -13.5000 3.0000
v -1.5000 -13.5000 2.0000
v -1.5000 -11.5000 3.0000
v -1.5000 -11.5000 2.0000
v -2.5000 -11.5000 2.0000
v -1.5000 -13.5000 1.0000
v -2.5000 -10.5000 2.0000
v -1.5000 -10.5000 2.0000
v -1.5000 -10.5000 1.0000
v -1.5000 -13.5000 -0.0000
v -1.5000 -10.5000 -0.0000
v -1.5000 -8.5000 -0.0000
v -1.5000 -8.5000 1.0000
v -1.5000 -7.5000 1.0000
v -2.5000 -7.5000 1.0000
v -1.5000 -6.5000 1.0000
v -2.5000 -6.5000 1.0000
v -2.5000 -5.5000 1.0000
v -1.5000 -5.5000 1.0000
v -1.5000 -5.5000 -0.0000
v -2.5000 -3.5000 1.0000
v -2.5000 -3.5000 -0.0000
v -1.5000 -3.5000 -0.0000
v -1.5000 -3.5000 1.0000
v -1.5000 -2.5000 1.0000
v -1.5000 -1.5000 1.0000
v -1.5000 -1.5000 -0.0000
v -1.5000 -2.5000 -0.0000
v -2.5000 7.5000 1.0000
v -1.5000 7.5000 1.0000
v -1.5000 7.5000 -0.0000
v -1.5000 6.5000 -0.0000
v -1.5000 6.5000 1.0000
v -1.5000 -13.5000 -1.0000
v -1.5000 -9.5000 -0.0000
v -1.5000 -6.5000 -1.0000
v -1.5000 -7.5000 -1.0000
v -1.5000 -5.5000 -1.0000
v -1.5000 -4.5000 -0.0000
v -2.5000 -4.5000 -0.0000
v -2.5000 -4.5000 -1.0000
v -1.5000 -4.5000 -1.0000
v -2.5000 -3.5000 -1.0000
v -1.5000 -3.5000 -1.0000
v -1.5000 -0.5000 -0.0000
v -1.5000 -0.5000 -1.0000
v -1.5000 -1.5000 -1.0000
v -1.5000 0.5000 -0.0000
v -1.5000 0.5000 -1.0000
v -1.5000 1.5000 -0.0000
v -1.5000 1.5000 -1.0000
v -1.5000 2.5000 -0.0000
v -1.5000 2.5000 -1.0000
v -1.5000 3.5000 -0.0000
v -1.5000 3.5000 -1.0000
v -1.5000 4.5000 -0.0000
v -1.5000 4.5000 -1.0000
v -1.5000 5.5000 -0.0000
v -1.5000 5.5000 -1.0000
v -1.5000 6.5000 -1.0000
v -1.5000 8.5000 -0.0000
v -1.5000 8.5000 -1.0000
v -1.5000 7.5000 -1.0000
v -1.5000 -13.5000 -2.0000
v -2.5000 -8.5000 -2.0000
v -1.5000 -7.5000 -2.0000
v -2.5000 -7.5000 -2.0000
v -2.5000 -3.5000 -2.0000
v -1.5000 -3.5000 -2.0000
v -1.5000 -2.5000 -2.0000
v -1.5000 -1.5000 -2.0000
v -1.5000 7.5000 -2.0000
v -2.5000 7.5000 -2.0000
v -1.5000 6.5000 -2.0000
v -1.5000 -13.5000 -3.0000
v -1.5000 -10.5000 -3.0000
v -1.5000 -11.5000 -3.0000
v -2.5000 -9.5000 -3.0000
v -1.5000 -9.5000 -3.0000
v -2.5000 -8.5000 -3.0000
v -1.5000 -8.5000 -3.0000
v -1.5000 -7.5000 -3.0000
v -2.5000 -7.5000 -3.0000
v -1.5000 -13.5000 -4.0000
v -1.5000 -12.5000 -4.0000
v -1.5000 -11.5000 -4.0000
v -1.5000 -12.5000 -6.0000
v -1.5000 -12.5000 -7.0000
v -2.5000 -12.5000 -7.0000
v -2.5000 -13.5000 -7.0000
v -1.5000 -13.5000 -7.0000
v -1.5000 -13.5000 -6.0000
v -1.5000 -12.5000 -8.0000
v -2.5000 -12.5000 -8.0000
v -2.5000 -13.5000 -8.0000
v -1.5000 -13.5000 -8.0000
v -1.5000 -12.5000 -9.0000
v -2.5000 -12.5000 -9.0000
v -2.5000 -13.5000 -9.0000
v -1.5000 -13.5000 -9.0000
v -1.5000 -12.5000 -10.0000
v -2.5000 -12.5000 -10.0000
v -2.5000 -13.5000 -10.0000
v -1.5000 -13.5000 -10.0000
v -1.5000 -12.5000 -11.0000
v -2.5000 -12.5000 -11.0000
v -2.5000 -13.5000 -11.0000
v -1.5000 -13.5000 -11.0000
v -0.5000 -12.5000 5.0000
v -0.5000 -12.5000 4.0000
v -0.5000 -13.5000 4.0000
v -0.5000 -13.5000 5.0000
v -0.5000 -13.5000 3.0000
v -1.5000 -11.5000 4.0000
v -0.5000 -11.5000 4.0000
v -0.5000 -11.5000 3.0000
v -0.5000 -13.5000 2.0000
v -0.5000 -10.5000 3.0000
v -1.5000 -10.5000 3.0000
v -1.5000 -9.5000 3.0000
v -0.5000 -9.5000 3.0000
v -0.5000 -9.5000 2.0000
v -1.5000 -9.5000 2.0000
v -0.5000 -13.5000 1.0000
v -1.5000 -9.5000 1.0000
v -1.5000 -8.5000 2.0000
v -0.5000 -8.5000 2.0000
v -0.5000 -8.5000 1.0000
v -1.5000 -5.5000 2.0000
v -0.5000 -5.5000 1.0000
v -0.5000 -5.5000 2.0000
v -0.5000 -4.5000 2.0000
v -1.5000 -4.5000 2.0000
v -1.5000 -4.5000 1.0000
v -0.5000 -3.5000 2.0000
v -1.5000 -3.5000 2.0000
v -1.5000 -2.5000 2.0000
v -0.5000 -2.5000 2.0000
v -0.5000 -2.5000 1.0000
v -0.5000 -13.5000 -0.0000
v -0.5000 -7.5000 1.0000
v -0.5000 -6.5000 1.0000
v -0.5000 -2.5000 -0.0000
v -1.5000 8.5000 1.0000
v -0.5000 8.5000 1.0000
v -0.5000 8.5000 -0.0000
v -0.5000 7.5000 -0.0000
v -0.5000 7.5000 1.0000
v -1.5000 13.5000 1.0000
v -0.5000 13.5000 1.0000
v -0.5000 13.5000 -0.0000
v -1.5000 13.5000 -0.0000
v -1.5000 12.5000 1.0000
v -1.5000 12.5000 -0.0000
v -0.5000 12.5000 -0.0000
v -0.5000 12.5000 1.0000
v -0.5000 -13.5000 -1.0000
v -0.5000 -11.5000 -0.0000
v -0.5000 -11.5000 -1.0000
v -0.5000 -10.5000 -1.0000
v -0.5000 -10.5000 -0.0000
v -0.5000 -9.5000 -1.0000
v -0.5000 -9.5000 -0.0000
v -0.5000 -8.5000 -1.0000
v -0.5000 -8.5000 -0.0000
v -0.5000 -7.5000 -1.0000
v -0.5000 -7.5000 -0.0000
v -0.5000 -6.5000 -1.0000
v -0.5000 -6.5000 -0.0000
v -0.5000 -5.5000 -1.0000
v -0.5000 -5.5000 -0.0000
v -0.5000 -4.5000 -1.0000
v -0.5000 -4.5000 -0.0000
v -0.5000 -3.5000 -1.0000
v -0.5000 -3.5000 -0.0000
v -0.5000 -1.5000 -0.0000
v -0.5000 -0.5000 -0.0000
v -0.5000 -0.5000 -1.0000
v -0.5000 -1.5000 -1.0000
v -0.5000 0.5000 -0.0000
v -0.5000 0.5000 -1.0000
v -0.5000 1.5000 -0.0000
v -0.5000 1.5000 -1.0000
v -0.5000 2.5000 -0.0000
v -0.5000 2.5000 -1.0000
v -0.5000 3.5000 -0.0000
v -0.5000 3.5000 -1.0000
v -0.5000 4.5000 -0.0000
v -0.5000 4.5000 -1.0000
v -0.5000 5.5000 -0.0000
v -0.5000 5.5000 -1.0000
v -0.5000 6.5000 -0.0000
v -0.5000 6.5000 -1.0000
v -0.5000 7.5000 -1.0000
v -0.5000 9.5000 -0.0000
v -1.5000 9.5000 -0.0000
v -1.5000 9.5000 -1.0000
v -0.5000 9.5000 -1.0000
v -0.5000 8.5000 -1.0000
v -1.5000 10.5000 -0.0000
v -0.5000 10.5000 -0.0000
v -0.5000 10.5000 -1.0000
v -1.5000 10.5000 -1.0000
v -1.5000 11.5000 -0.0000
v -1.5000 11.5000 -1.0000
v -0.5000 11.5000 -1.0000
v -0.5000 11.5000 -0.0000
v -1.5000 12.5000 -1.0000
v -0.5000 12.5000 -1.0000
v -0.5000 13.5000 -1.0000
v -1.5000 13.5000 -1.0000
v -0.5000 -13.5000 -2.0000
v -1.5000 -6.5000 -2.0000
v -1.5000 -5.5000 -2.0000
v -1.5000 -4.5000 -2.0000
v -0.5000 -1.5000 -2.0000
v -0.5000 8.5000 -2.0000
v -1.5000 8.5000 -2.0000
v -0.5000 7.5000 -2.0000
v -0.5000 13.5000 -2.0000
v -1.5000 13.5000 -2.0000
v -1.5000 12.5000 -2.0000
v -0.5000 12.5000 -2.0000
v -0.5000 -13.5000 -3.0000
v -0.5000 -9.5000 -3.0000
v -0.5000 -10.5000 -3.0000
v -0.5000 -7.5000 -3.0000
v -0.5000 -8.5000 -3.0000
v -1.5000 -6.5000 -3.0000
v -0.5000 -6.5000 -3.0000
v -1.5000 -5.5000 -3.0000
v -0.5000 -5.5000 -3.0000
v -1.5000 -4.5000 -3.0000
v -0.5000 -4.5000 -3.0000
v -1.5000 -3.5000 -3.0000
v -0.5000 -3.5000 -3.0000
v -1.5000 -2.5000 -3.0000
v -0.5000 -2.5000 -3.0000
v -0.5000 -1.5000 -3.0000
v -1.5000 -1.5000 -3.0000
v -0.5000 -13.5000 -4.0000
v -0.5000 -10.5000 -4.0000
v -1.5000 -10.5000 -4.0000
v -0.5000 -11.5000 -4.0000
v -0.5000 -8.5000 -4.0000
v -1.5000 -8.5000 -4.0000
v -1.5000 -9.5000 -4.0000
v -0.5000 -9.5000 -4.0000
v -1.5000 -13.5000 -5.0000
v -0.5000 -13.5000 -5.0000
v -1.5000 -12.5000 -5.0000
v -0.5000 -11.5000 -5.0000
v -1.5000 -11.5000 -5.0000
v -0.5000 -8.5000 -5.0000
v -1.5000 -8.5000 -5.0000
v -1.5000 -9.5000 -5.0000
v -0.5000 -9.5000 -5.0000
v -0.5000 -13.5000 -6.0000
v -0.5000 -11.5000 -6.0000
v -1.5000 -11.5000 -6.0000
v -0.5000 -12.5000 -6.0000
v -0.5000 -12.5000 -7.0000
v -0.5000 -13.5000 -7.0000
v -0.5000 -12.5000 6.0000
v 0.5000 -12.5000 6.0000
v 0.5000 -12.5000 5.0000
v -0.5000 -13.5000 6.0000
v 0.5000 -13.5000 5.0000
v 0.5000 -13.5000 6.0000
v 0.5000 -13.5000 4.0000
v 0.5000 -12.5000 4.0000
v 0.5000 -11.5000 5.0000
v -0.5000 -11.5000 5.0000
v 0.5000 -11.5000 4.0000
v 0.5000 -10.5000 5.0000
v -0.5000 -10.5000 5.0000
v 0.5000 -10.5000 4.0000
v -0.5000 -10.5000 4.0000
v -0.5000 -9.5000 5.0000
v 0.5000 -9.5000 5.0000
v 0.5000 -9.5000 4.0000
v -0.5000 -9.5000 4.0000
v 0.5000 -13.5000 3.0000
v 0.5000 -12.5000 3.0000
v 0.5000 -11.5000 3.0000
v 0.5000 -10.5000 3.0000
v 0.5000 -9.5000 3.0000
v -0.5000 -8.5000 4.0000
v 0.5000 -8.5000 4.0000
v 0.5000 -8.5000 3.0000
v -0.5000 -8.5000 3.0000
v 0.5000 -13.5000 2.0000
v 0.5000 -11.5000 2.0000
v 0.5000 -10.5000 2.0000
v 0.5000 -9.5000 2.0000
v 0.5000 -8.5000 2.0000
v 0.5000 -7.5000 3.0000
v -0.5000 -7.5000 3.0000
v 0.5000 -7.5000 2.0000
v -0.5000 -7.5000 2.0000
v 0.5000 -6.5000 3.0000
v -0.5000 -6.5000 3.0000
v 0.5000 -6.5000 2.0000
v -0.5000 -6.5000 2.0000
v 0.5000 -5.5000 3.0000
v -0.5000 -5.5000 3.0000
v 0.5000 -5.5000 2.0000
v 0.5000 -4.5000 3.0000
v -0.5000 -4.5000 3.0000
v -0.5000 -3.5000 3.0000
v 0.5000 -3.5000 3.0000
v 0.5000 -3.5000 2.0000
v 0.5000 -13.5000 1.0000
v 0.5000 -8.5000 1.0000
v 0.5000 -7.5000 1.0000
v 0.5000 -6.5000 1.0000
v 0.5000 -2.5000 2.0000
v 0.5000 -2.5000 1.0000
v 0.5000 -13.5000 -0.0000
v 0.5000 -10.5000 -0.0000
v 0.5000 -11.5000 -0.0000
v 0.5000 -9.5000 -0.0000
v 0.5000 -8.5000 -0.0000
v 0.5000 -7.5000 -0.0000
v 0.5000 -6.5000 -0.0000
v 0.5000 -5.5000 -0.0000
v 0.5000 -4.5000 -0.0000
v 0.5000 -3.5000 -0.0000
v -0.5000 -1.5000 1.0000
v 0.5000 -1.5000 1.0000
v 0.5000 -1.5000 -0.0000
v 0.5000 -2.5000 -0.0000
v 0.5000 8.5000 -0.0000
v 0.5000 8.5000 1.0000
v 0.5000 9.5000 1.0000
v -0.5000 9.5000 1.0000
v 0.5000 9.5000 -0.0000
v 0.5000 10.5000 1.0000
v -0.5000 10.5000 1.0000
v 0.5000 10.5000 -0.0000
v -0.5000 11.5000 1.0000
v 0.5000 11.5000 1.0000
v 0.5000 11.5000 -0.0000
v 0.5000 13.5000 1.0000
v 0.5000 13.5000 -0.0000
v 0.5000 12.5000 -0.0000
v 0.5000 12.5000 1.0000
v 0.5000 -13.5000 -1.0000
v 0.5000 -11.5000 -1.0000
v 0.5000 -3.5000 -1.0000
v 0.5000 -0.5000 -0.0000
v 0.5000 -0.5000 -1.0000
v 0.5000 -1.5000 -1.0000
v 0.5000 0.5000 -0.0000
v 0.5000 0.5000 -1.0000
v 0.5000 1.5000 -0.0000
v 0.5000 1.5000 -1.0000
v 0.5000 2.5000 -0.0000
v 0.5000 2.5000 -1.0000
v 0.5000 3.5000 -0.0000
v 0.5000 3.5000 -1.0000
v 0.5000 4.5000 -0.0000
v 0.5000 4.5000 -1.0000
v 0.5000 5.5000 -0.0000
v 0.5000 5.5000 -1.0000
v 0.5000 6.5000 -0.0000
v 0.5000 6.5000 -1.0000
v 0.5000 7.5000 -0.0000
v 0.5000 7.5000 -1.0000
v 0.5000 8.5000 -1.0000
v 0.5000 10.5000 -1.0000
v 0.5000 11.5000 -1.0000
v 0.5000 12.5000 -1.0000
v 0.5000 13.5000 -1.0000
v 0.5000 -13.5000 -2.0000
v 0.5000 -10.5000 -1.0000
v 0.5000 -9.5000 -1.0000
v 0.5000 -8.5000 -1.0000
v 0.5000 -7.5000 -1.0000
v 0.5000 -6.5000 -1.0000
v 0.5000 -5.5000 -1.0000
v 0.5000 -4.5000 -1.0000
v 0.5000 -1.5000 -2.0000
v 0.5000 8.5000 -2.0000
v -0.5000 9.5000 -2.0000
v 0.5000 9.5000 -2.0000
v 0.5000 9.5000 -1.0000
v -0.5000 10.5000 -2.0000
v 0.5000 10.5000 -2.0000
v 0.5000 11.5000 -2.0000
v -0.5000 11.5000 -2.0000
v 0.5000 13.5000 -2.0000
v 0.5000 12.5000 -2.0000
v 0.5000 -13.5000 -3.0000
v 0.5000 -10.5000 -2.0000
v 0.5000 -10.5000 -3.0000
v 0.5000 -9.5000 -3.0000
v 0.5000 -9.5000 -2.0000
v 0.5000 -8.5000 -3.0000
v 0.5000 -8.5000 -2.0000
v 0.5000 -7.5000 -3.0000
v 0.5000 -7.5000 -2.0000
v 0.5000 -6.5000 -3.0000
v 0.5000 -6.5000 -2.0000
v 0.5000 -5.5000 -3.0000
v 0.5000 -5.5000 -2.0000
v 0.5000 -4.5000 -3.0000
v 0.5000 -3.5000 -3.0000
v 0.5000 -2.5000 -3.0000
v 0.5000 -1.5000 -3.0000
v 0.5000 -13.5000 -4.0000
v 0.5000 -11.5000 -3.0000
v 0.5000 -11.5000 -4.0000
v 0.5000 -10.5000 -4.0000
v 0.5000 -9.5000 -4.0000
v 0.5000 -8.5000 -4.0000
v 0.5000 -13.5000 -5.0000
v 0.5000 -12.5000 -4.0000
v 0.5000 -12.5000 -5.0000
v 0.5000 -11.5000 -5.0000
v 0.5000 -10.5000 -5.0000
v -0.5000 -10.5000 -5.0000
v 0.5000 -9.5000 -5.0000
v 0.5000 -13.5000 -6.0000
v 0.5000 -11.5000 -6.0000
v 0.5000 -12.5000 -6.0000
v 0.5000 -10.5000 -6.0000
v -0.5000 -10.5000 -6.0000
v 0.5000 -12.5000 -7.0000
v 0.5000 -13.5000 -7.0000
v 1.5000 -12.5000 4.0000
v 1.5000 -12.5000 3.0000
v 1.5000 -13.5000 3.0000
v 1.5000 -13.5000 4.0000
v 1.5000 -13.5000 2.0000
v 1.5000 -11.5000 3.0000
v 1.5000 -11.5000 2.0000
v 1.5000 -12.5000 2.0000
v 1.5000 -5.5000 2.0000
v 1.5000 -5.5000 3.0000
v 1.5000 -4.5000 3.0000
v 1.5000 -4.5000 2.0000
v 1.5000 -3.5000 3.0000
v 1.5000 -3.5000 2.0000
v 1.5000 -13.5000 1.0000
v 1.5000 -10.5000 2.0000
v 1.5000 -9.5000 2.0000
v 1.5000 -10.5000 1.0000
v 1.5000 -9.5000 1.0000
v 1.5000 -8.5000 2.0000
v 1.5000 -8.5000 1.0000
v 1.5000 -6.5000 1.0000
v 1.5000 -6.5000 2.0000
v 1.5000 -5.5000 1.0000
v 1.5000 -4.5000 1.0000
v 1.5000 -3.5000 1.0000
v 1.5000 -2.5000 2.0000
v 1.5000 -2.5000 1.0000
v 1.5000 -13.5000 -0.0000
v 1.5000 -7.5000 1.0000
v 1.5000 -5.5000 -0.0000
v 1.5000 -4.5000 -0.0000
v 1.5000 -3.5000 -0.0000
v 1.5000 -2.5000 -0.0000
v 1.5000 8.5000 1.0000
v 1.5000 8.5000 -0.0000
v 0.5000 7.5000 1.0000
v 1.5000 7.5000 -0.0000
v 1.5000 7.5000 1.0000
v 1.5000 13.5000 1.0000
v 1.5000 13.5000 -0.0000
v 1.5000 12.5000 -0.0000
v 1.5000 12.5000 1.0000
v 1.5000 -13.5000 -1.0000
v 1.5000 -1.5000 -0.0000
v 1.5000 -0.5000 -0.0000
v 1.5000 -0.5000 -1.0000
v 1.5000 -1.5000 -1.0000
v 1.5000 0.5000 -0.0000
v 1.5000 0.5000 -1.0000
v 1.5000 1.5000 -0.0000
v 1.5000 1.5000 -1.0000
v 1.5000 2.5000 -0.0000
v 1.5000 2.5000 -1.0000
v 1.5000 3.5000 -0.0000
v 1.5000 3.5000 -1.0000
v 1.5000 4.5000 -0.0000
v 1.5000 4.5000 -1.0000
v 1.5000 5.5000 -0.0000
v 1.5000 5.5000 -1.0000
v 1.5000 6.5000 -0.0000
v 1.5000 6.5000 -1.0000
v 1.5000 7.5000 -1.0000
v 1.5000 9.5000 -0.0000
v 1.5000 9.5000 -1.0000
v 1.5000 8.5000 -1.0000
v 1.5000 10.5000 -0.0000
v 1.5000 10.5000 -1.0000
v 1.5000 11.5000 -1.0000
v 1.5000 11.5000 -0.0000
v 1.5000 12.5000 -1.0000
v 1.5000 13.5000 -1.0000
v 1.5000 -13.5000 -2.0000
v 1.5000 -9.5000 -2.0000
v 1.5000 -10.5000 -2.0000
v 1.5000 -8.5000 -2.0000
v 1.5000 -7.5000 -2.0000
v 1.5000 -6.5000 -2.0000
v 1.5000 -5.5000 -2.0000
v 1.5000 -4.5000 -1.0000
v 1.5000 -4.5000 -2.0000
v 1.5000 -3.5000 -2.0000
v 1.5000 -3.5000 -1.0000
v 1.5000 -1.5000 -2.0000
v 1.5000 8.5000 -2.0000
v 0.5000 7.5000 -2.0000
v 1.5000 7.5000 -2.0000
v 1.5000 13.5000 -2.0000
v 1.5000 12.5000 -2.0000
v 1.5000 -13.5000 -3.0000
v 1.5000 -10.5000 -3.0000
v 1.5000 -11.5000 -3.0000
v 1.5000 -5.5000 -3.0000
v 1.5000 -4.5000 -3.0000
v 1.5000 -3.5000 -3.0000
v 1.5000 -2.5000 -3.0000
v 1.5000 -2.5000 -2.0000
v 1.5000 -1.5000 -3.0000
v 1.5000 -13.5000 -4.0000
v 1.5000 -11.5000 -4.0000
v 1.5000 -12.5000 -4.0000
v 0.5000 -5.5000 -4.0000
v 1.5000 -5.5000 -4.0000
v 0.5000 -4.5000 -4.0000
v 1.5000 -4.5000 -4.0000
v 0.5000 -3.5000 -4.0000
v 1.5000 -3.5000 -4.0000
v 1.5000 -2.5000 -4.0000
v 0.5000 -2.5000 -4.0000
v 1.5000 -12.5000 -5.0000
v 1.5000 -13.5000 -5.0000
v 1.5000 -12.5000 -6.0000
v 1.5000 -13.5000 -6.0000
v 1.5000 -12.5000 -7.0000
v 1.5000 -13.5000 -7.0000
v 1.5000 -12.5000 -8.0000
v 0.5000 -12.5000 -8.0000
v 0.5000 -13.5000 -8.0000
v 1.5000 -13.5000 -8.0000
v 1.5000 -12.5000 -9.0000
v 0.5000 -12.5000 -9.0000
v 0.5000 -13.5000 -9.0000
v 1.5000 -13.5000 -9.0000
v 1.5000 -12.5000 -10.0000
v 0.5000 -12.5000 -10.0000
v 0.5000 -13.5000 -10.0000
v 1.5000 -13.5000 -10.0000
v 2.5000 -12.5000 3.0000
v 2.5000 -12.5000 2.0000
v 2.5000 -13.5000 2.0000
v 2.5000 -13.5000 3.0000
v 2.5000 -13.5000 1.0000
v 2.5000 -11.5000 2.0000
v 2.5000 -10.5000 2.0000
v 2.5000 -10.5000 1.0000
v 2.5000 -9.5000 1.0000
v 2.5000 -9.5000 2.0000
v 2.5000 -8.5000 2.0000
v 2.5000 -8.5000 1.0000
v 2.5000 -7.5000 2.0000
v 1.5000 -7.5000 2.0000
v 2.5000 -7.5000 1.0000
v 2.5000 -6.5000 2.0000
v 2.5000 -6.5000 1.0000
v 2.5000 -5.5000 2.0000
v 2.5000 -5.5000 1.0000
v 2.5000 -13.5000 -0.0000
v 2.5000 -9.5000 -0.0000
v 2.5000 -8.5000 -0.0000
v 2.5000 -7.5000 -0.0000
v 2.5000 -6.5000 -0.0000
v 2.5000 -5.5000 -0.0000
v 2.5000 -3.5000 -0.0000
v 2.5000 -3.5000 1.0000
v 2.5000 -2.5000 1.0000
v 2.5000 -2.5000 -0.0000
v 1.5000 -1.5000 1.0000
v 2.5000 -1.5000 1.0000
v 2.5000 -1.5000 -0.0000
v 2.5000 7.5000 1.0000
v 2.5000 7.5000 -0.0000
v 1.5000 6.5000 1.0000
v 2.5000 6.5000 -0.0000
v 2.5000 6.5000 1.0000
v 2.5000 -13.5000 -1.0000
v 2.5000 -8.5000 -1.0000
v 2.5000 -7.5000 -1.0000
v 2.5000 -6.5000 -1.0000
v 2.5000 -5.5000 -1.0000
v 2.5000 -4.5000 -0.0000
v 2.5000 -4.5000 -1.0000
v 2.5000 -3.5000 -1.0000
v 2.5000 -2.5000 -1.0000
v 2.5000 -0.5000 -0.0000
v 2.5000 -0.5000 -1.0000
v 2.5000 -1.5000 -1.0000
v 2.5000 0.5000 -0.0000
v 2.5000 0.5000 -1.0000
v 2.5000 1.5000 -0.0000
v 2.5000 1.5000 -1.0000
v 2.5000 2.5000 -0.0000
v 2.5000 2.5000 -1.0000
v 2.5000 3.5000 -0.0000
v 2.5000 3.5000 -1.0000
v 2.5000 4.5000 -0.0000
v 2.5000 4.5000 -1.0000
v 2.5000 5.5000 -0.0000
v 2.5000 5.5000 -1.0000
v 2.5000 6.5000 -1.0000
v 2.5000 8.5000 -0.0000
v 2.5000 8.5000 -1.0000
v 2.5000 7.5000 -1.0000
v 2.5000 -13.5000 -2.0000
v 2.5000 -11.5000 -1.0000
v 2.5000 -11.5000 -2.0000
v 2.5000 -10.5000 -2.0000
v 2.5000 -10.5000 -1.0000
v 2.5000 -9.5000 -2.0000
v 2.5000 -9.5000 -1.0000
v 2.5000 -8.5000 -2.0000
v 2.5000 -7.5000 -2.0000
v 2.5000 -6.5000 -2.0000
v 2.5000 -5.5000 -2.0000
v 2.5000 -4.5000 -2.0000
v 2.5000 -3.5000 -2.0000
v 2.5000 -2.5000 -2.0000
v 2.5000 -1.5000 -2.0000
v 2.5000 7.5000 -2.0000
v 1.5000 6.5000 -2.0000
v 2.5000 6.5000 -2.0000
v 2.5000 -13.5000 -3.0000
v 2.5000 -11.5000 -3.0000
v 2.5000 -10.5000 -3.0000
v 2.5000 -9.5000 -3.0000
v 1.5000 -9.5000 -3.0000
v 2.5000 -8.5000 -3.0000
v 1.5000 -8.5000 -3.0000
v 2.5000 -5.5000 -3.0000
v 1.5000 -6.5000 -3.0000
v 2.5000 -6.5000 -3.0000
v 2.5000 -13.5000 -4.0000
v 1.5000 -10.5000 -4.0000
v 2.5000 -9.5000 -4.0000
v 1.5000 -9.5000 -4.0000
v 2.5000 -10.5000 -4.0000
v 2.5000 -13.5000 -5.0000
v 1.5000 -11.5000 -5.0000
v 2.5000 -11.5000 -5.0000
v 2.5000 -12.5000 -5.0000
v 2.5000 -10.5000 -5.0000
v 1.5000 -10.5000 -5.0000
v 2.5000 -11.5000 -4.0000
v 2.5000 -12.5000 -6.0000
v 2.5000 -13.5000 -6.0000
v 2.5000 -12.5000 -7.0000
v 2.5000 -13.5000 -7.0000
v 2.5000 -12.5000 6.0000
v 3.5000 -12.5000 6.0000
v 3.5000 -12.5000 5.0000
v 2.5000 -12.5000 5.0000
v 2.5000 -13.5000 6.0000
v 2.5000 -13.5000 5.0000
v 3.5000 -13.5000 5.0000
v 3.5000 -13.5000 6.0000
v 3.5000 -12.5000 4.0000
v 2.5000 -12.5000 4.0000
v 2.5000 -13.5000 4.0000
v 3.5000 -13.5000 4.0000
v 3.5000 -13.5000 3.0000
v 2.5000 -11.5000 4.0000
v 3.5000 -11.5000 4.0000
v 3.5000 -11.5000 3.0000
v 2.5000 -11.5000 3.0000
v 3.5000 -12.5000 3.0000
v 3.5000 -12.5000 2.0000
v 3.5000 -13.5000 2.0000
v 3.5000 -13.5000 1.0000
v 3.5000 -12.5000 1.0000
v 3.5000 -11.5000 2.0000
v 3.5000 -10.5000 2.0000
v 3.5000 -10.5000 1.0000
v 3.5000 -11.5000 1.0000
v 3.5000 -13.5000 -0.0000
v 3.5000 -9.5000 1.0000
v 3.5000 -9.5000 -0.0000
v 3.5000 -10.5000 -0.0000
v 3.5000 -2.5000 -0.0000
v 3.5000 -2.5000 1.0000
v 3.5000 -1.5000 1.0000
v 3.5000 -1.5000 -0.0000
v 2.5000 -0.5000 1.0000
v 3.5000 -0.5000 1.0000
v 3.5000 -0.5000 -0.0000
v 3.5000 6.5000 1.0000
v 3.5000 6.5000 -0.0000
v 2.5000 5.5000 1.0000
v 3.5000 5.5000 -0.0000
v 3.5000 5.5000 1.0000
v 3.5000 -13.5000 -1.0000
v 3.5000 -10.5000 -1.0000
v 3.5000 -11.5000 -1.0000
v 3.5000 -9.5000 -1.0000
v 3.5000 -8.5000 -0.0000
v 3.5000 -8.5000 -1.0000
v 3.5000 -2.5000 -1.0000
v 3.5000 -1.5000 -1.0000
v 3.5000 0.5000 -0.0000
v 3.5000 0.5000 -1.0000
v 3.5000 -0.5000 -1.0000
v 3.5000 1.5000 -0.0000
v 3.5000 1.5000 -1.0000
v 3.5000 2.5000 -0.0000
v 3.5000 2.5000 -1.0000
v 3.5000 3.5000 -0.0000
v 3.5000 3.5000 -1.0000
v 3.5000 4.5000 -0.0000
v 3.5000 4.5000 -1.0000
v 3.5000 7.5000 -0.0000
v 3.5000 7.5000 -1.0000
v 3.5000 6.5000 -1.0000
v 3.5000 8.5000 -0.0000
v 3.5000 8.5000 -1.0000
v 3.5000 -13.5000 -2.0000
v 3.5000 -11.5000 -2.0000
v 3.5000 -12.5000 -1.0000
v 3.5000 -12.5000 -2.0000
v 3.5000 -2.5000 -2.0000
v 3.5000 -1.5000 -2.0000
v 3.5000 -0.5000 -2.0000
v 2.5000 -0.5000 -2.0000
v 2.5000 4.5000 -2.0000
v 3.5000 4.5000 -2.0000
v 2.5000 5.5000 -2.0000
v 3.5000 5.5000 -2.0000
v 3.5000 6.5000 -2.0000
v 3.5000 5.5000 -1.0000
v 3.5000 -13.5000 -3.0000
v 3.5000 -11.5000 -3.0000
v 3.5000 -12.5000 -3.0000
v 3.5000 -13.5000 -4.0000
v 3.5000 -12.5000 -4.0000
v 3.5000 -11.5000 -4.0000
v 3.5000 -10.5000 -3.0000
v 3.5000 -10.5000 -4.0000
v 3.5000 -13.5000 -5.0000
v 3.5000 -12.5000 -5.0000
v 3.5000 -11.5000 -5.0000
v 3.5000 -12.5000 -6.0000
v 3.5000 -13.5000 -6.0000
v 3.5000 -12.5000 -7.0000
v 3.5000 -13.5000 -7.0000
v 3.5000 -12.5000 -8.0000
v 2.5000 -12.5000 -8.0000
v 2.5000 -13.5000 -8.0000
v 3.5000 -13.5000 -8.0000
v 3.5000 -12.5000 -9.0000
v 2.5000 -12.5000 -9.0000
v 2.5000 -13.5000 -9.0000
v 3.5000 -13.5000 -9.0000
v 3.5000 -12.5000 -10.0000
v 2.5000 -12.5000 -10.0000
v 2.5000 -13.5000 -10.0000
v 3.5000 -13.5000 -10.0000
v 3.5000 -12.5000 -11.0000
v 2.5000 -12.5000 -11.0000
v 2.5000 -13.5000 -11.0000
v 3.5000 -13.5000 -11.0000
v 3.5000 -12.5000 8.0000
v 4.5000 -12.5000 8.0000
v 4.5000 -12.5000 7.0000
v 3.5000 -12.5000 7.0000
v 3.5000 -13.5000 8.0000
v 3.5000 -13.5000 7.0000
v 4.5000 -13.5000 7.0000
v 4.5000 -13.5000 8.0000
v 4.5000 -12.5000 6.0000
v 4.5000 -13.5000 6.0000
v 4.5000 -13.5000 4.0000
v 4.5000 -13.5000 5.0000
v 4.5000 -12.5000 5.0000
v 3.5000 -11.5000 5.0000
v 4.5000 -11.5000 5.0000
v 4.5000 -11.5000 4.0000
v 4.5000 -12.5000 4.0000
v 4.5000 -13.5000 3.0000
v 4.5000 -11.5000 3.0000
v 4.5000 -12.5000 3.0000
v 4.5000 -12.5000 2.0000
v 4.5000 -13.5000 2.0000
v 4.5000 -11.5000 2.0000
v 4.5000 -11.5000 1.0000
v 4.5000 -12.5000 1.0000
v 4.5000 -13.5000 -0.0000
v 4.5000 -13.5000 1.0000
v 4.5000 -12.5000 -0.0000
v 4.5000 -10.5000 1.0000
v 4.5000 -10.5000 -0.0000
v 4.5000 -1.5000 -0.0000
v 4.5000 -1.5000 1.0000
v 4.5000 -0.5000 1.0000
v 4.5000 -0.5000 -0.0000
v 4.5000 0.5000 1.0000
v 3.5000 0.5000 1.0000
v 4.5000 0.5000 -0.0000
v 4.5000 1.5000 1.0000
v 3.5000 1.5000 1.0000
v 4.5000 1.5000 -0.0000
v 4.5000 2.5000 1.0000
v 3.5000 2.5000 1.0000
v 4.5000 2.5000 -0.0000
v 4.5000 3.5000 1.0000
v 3.5000 3.5000 1.0000
v 4.5000 3.5000 -0.0000
v 4.5000 4.5000 1.0000
v 3.5000 4.5000 1.0000
v 4.5000 4.5000 -0.0000
v 4.5000 5.5000 1.0000
v 4.5000 5.5000 -0.0000
v 4.5000 -13.5000 -1.0000
v 4.5000 -11.5000 -1.0000
v 4.5000 -12.5000 -1.0000
v 4.5000 -10.5000 -1.0000
v 4.5000 -9.5000 -0.0000
v 4.5000 -9.5000 -1.0000
v 4.5000 -1.5000 -1.0000
v 4.5000 -0.5000 -1.0000
v 4.5000 0.5000 -1.0000
v 4.5000 1.5000 -1.0000
v 4.5000 2.5000 -1.0000
v 4.5000 3.5000 -1.0000
v 4.5000 4.5000 -1.0000
v 4.5000 5.5000 -1.0000
v 4.5000 6.5000 -0.0000
v 4.5000 6.5000 -1.0000
v 4.5000 7.5000 -0.0000
v 4.5000 7.5000 -1.0000
v 4.5000 8.5000 -0.0000
v 4.5000 8.5000 -1.0000
v 3.5000 9.5000 -0.0000
v 4.5000 9.5000 -0.0000
v 4.5000 9.5000 -1.0000
v 3.5000 9.5000 -1.0000
v 4.5000 -12.5000 -2.0000
v 4.5000 -13.5000 -2.0000
v 4.5000 -1.5000 -2.0000
v 4.5000 -0.5000 -2.0000
v 3.5000 0.5000 -2.0000
v 4.5000 0.5000 -2.0000
v 3.5000 1.5000 -2.0000
v 4.5000 1.5000 -2.0000
v 3.5000 2.5000 -2.0000
v 4.5000 2.5000 -2.0000
v 3.5000 3.5000 -2.0000
v 4.5000 3.5000 -2.0000
v 4.5000 4.5000 -2.0000
v 4.5000 5.5000 -2.0000
v 4.5000 -12.5000 -3.0000
v 4.5000 -13.5000 -3.0000
v 4.5000 -12.5000 -4.0000
v 4.5000 -13.5000 -4.0000
v 4.5000 -12.5000 -5.0000
v 4.5000 -12.5000 -6.0000
v 4.5000 -13.5000 -6.0000
v 4.5000 -13.5000 -5.0000
v 4.5000 -13.5000 -7.0000
v 3.5000 -11.5000 -6.0000
v 4.5000 -11.5000 -6.0000
v 4.5000 -11.5000 -7.0000
v 3.5000 -11.5000 -7.0000
v 4.5000 -12.5000 -7.0000
v 4.5000 -12.5000 -8.0000
v 4.5000 -13.5000 -8.0000
v 5.5000 -12.5000 6.0000
v 5.5000 -12.5000 5.0000
v 5.5000 -13.5000 5.0000
v 5.5000 -13.5000 6.0000
v 5.5000 -12.5000 4.0000
v 5.5000 -13.5000 4.0000
v 5.5000 -12.5000 3.0000
v 5.5000 -13.5000 3.0000
v 5.5000 -12.5000 -0.0000
v 5.5000 -12.5000 1.0000
v 5.5000 -11.5000 1.0000
v 5.5000 -11.5000 -0.0000
v 5.5000 -10.5000 1.0000
v 5.5000 -10.5000 -0.0000
v 5.5000 -13.5000 -1.0000
v 5.5000 -13.5000 -0.0000
v 5.5000 -12.5000 -1.0000
v 5.5000 -11.5000 -1.0000
v 5.5000 -10.5000 -1.0000
v 5.5000 7.5000 -1.0000
v 5.5000 7.5000 -0.0000
v 5.5000 8.5000 -0.0000
v 5.5000 8.5000 -1.0000
v 5.5000 9.5000 -0.0000
v 5.5000 9.5000 -1.0000
v 4.5000 10.5000 -0.0000
v 5.5000 10.5000 -0.0000
v 5.5000 10.5000 -1.0000
v 4.5000 10.5000 -1.0000
v 5.5000 -12.5000 -3.0000
v 5.5000 -12.5000 -4.0000
v 5.5000 -13.5000 -4.0000
v 5.5000 -13.5000 -3.0000
v 5.5000 -12.5000 -6.0000
v 5.5000 -12.5000 -7.0000
v 5.5000 -13.5000 -7.0000
v 5.5000 -13.5000 -6.0000
v 5.5000 -12.5000 -8.0000
v 5.5000 -13.5000 -8.0000
v 6.5000 -12.5000 6.0000
v 6.5000 -12.5000 5.0000
v 6.5000 -13.5000 5.0000
v 6.5000 -13.5000 6.0000
v 6.5000 -12.5000 4.0000
v 6.5000 -13.5000 4.0000
v 6.5000 -12.5000 1.0000
v 6.5000 -12.5000 -0.0000
v 5.5000 -13.5000 1.0000
v 6.5000 -13.5000 -0.0000
v 6.5000 -13.5000 1.0000
v 6.5000 -13.5000 -1.0000
v 6.5000 -12.5000 -1.0000
v 6.5000 -11.5000 -0.0000
v 6.5000 -11.5000 -1.0000
v 6.5000 8.5000 -1.0000
v 6.5000 8.5000 -0.0000
v 6.5000 9.5000 -0.0000
v 6.5000 9.5000 -1.0000
v 6.5000 10.5000 -0.0000
v 6.5000 10.5000 -1.0000
v 6.5000 11.5000 -0.0000
v 5.5000 11.5000 -0.0000
v 5.5000 11.5000 -1.0000
v 6.5000 11.5000 -1.0000
v 5.5000 12.5000 -0.0000
v 6.5000 12.5000 -0.0000
v 6.5000 12.5000 -1.0000
v 5.5000 12.5000 -1.0000
v 6.5000 -12.5000 -4.0000
v 6.5000 -12.5000 -5.0000
v 5.5000 -12.5000 -5.0000
v 5.5000 -13.5000 -5.0000
v 6.5000 -13.5000 -5.0000
v 6.5000 -13.5000 -4.0000
v 6.5000 -12.5000 -6.0000
v 6.5000 -13.5000 -6.0000
v 6.5000 -12.5000 -8.0000
v 6.5000 -12.5000 -9.0000
v 5.5000 -12.5000 -9.0000
v 5.5000 -13.5000 -9.0000
v 6.5000 -13.5000 -9.0000
v 6.5000 -13.5000 -8.0000
v 6.5000 -12.5000 8.0000
v 7.5000 -12.5000 8.0000
v 7.5000 -12.5000 7.0000
v 6.5000 -12.5000 7.0000
v 6.5000 -13.5000 8.0000
v 6.5000 -13.5000 7.0000
v 7.5000 -13.5000 7.0000
v 7.5000 -13.5000 8.0000
v 7.5000 -12.5000 6.0000
v 7.5000 -13.5000 6.0000
v 7.5000 -12.5000 5.0000
v 7.5000 -13.5000 5.0000
v 6.5000 -12.5000 2.0000
v 7.5000 -12.5000 2.0000
v 7.5000 -12.5000 1.0000
v 6.5000 -13.5000 2.0000
v 7.5000 -13.5000 1.0000
v 7.5000 -13.5000 2.0000
v 7.5000 -12.5000 -0.0000
v 7.5000 -12.5000 -1.0000
v 7.5000 -13.5000 -1.0000
v 7.5000 -13.5000 -0.0000
v 7.5000 -12.5000 -5.0000
v 7.5000 -12.5000 -6.0000
v 7.5000 -13.5000 -6.0000
v 7.5000 -13.5000 -5.0000
v 7.5000 -12.5000 -7.0000
v 6.5000 -12.5000 -7.0000
v 6.5000 -13.5000 -7.0000
v 7.5000 -13.5000 -7.0000
v 7.5000 -12.5000 -8.0000
v 7.5000 -12.5000 -9.0000
v 7.5000 -13.5000 -9.0000
v 7.5000 -13.5000 -8.0000
v 7.5000 -12.5000 -10.0000
v 6.5000 -12.5000 -10.0000
v 6.5000 -13.5000 -10.0000
v 7.5000 -13.5000 -10.0000
v 7.5000 -12.5000 -11.0000
v 6.5000 -12.5000 -11.0000
v 6.5000 -13.5000 -11.0000
v 7.5000 -13.5000 -11.0000
v 7.5000 -12.5000 4.0000
v 8.5000 -12.5000 4.0000
v 8.5000 -12.5000 3.0000
v 7.5000 -12.5000 3.0000
v 7.5000 -13.5000 4.0000
v 7.5000 -13.5000 3.0000
v 8.5000 -13.5000 3.0000
v 8.5000 -13.5000 4.0000
v 8.5000 -12.5000 2.0000
v 8.5000 -13.5000 2.0000
v 8.5000 -12.5000 -0.0000
v 8.5000 -12.5000 -1.0000
v 8.5000 -13.5000 -1.0000
v 8.5000 -13.5000 -0.0000
v 8.5000 -12.5000 -6.0000
v 8.5000 -12.5000 -7.0000
v 8.5000 -13.5000 -7.0000
v 8.5000 -13.5000 -6.0000
v 8.5000 -12.5000 -9.0000
v 8.5000 -12.5000 -10.0000
v 8.5000 -13.5000 -10.0000
v 8.5000 -13.5000 -9.0000
v 8.5000 -12.5000 -11.0000
v 8.5000 -13.5000 -11.0000
v 8.5000 -12.5000 5.0000
v 9.5000 -12.5000 5.0000
v 9.5000 -12.5000 4.0000
v 8.5000 -13.5000 5.0000
v 9.5000 -13.5000 4.0000
v 9.5000 -13.5000 5.0000
v 8.5000 -12.5000 1.0000
v 9.5000 -12.5000 1.0000
v 9.5000 -12.5000 -0.0000
v 8.5000 -13.5000 1.0000
v 9.5000 -13.5000 -0.0000
v 9.5000 -13.5000 1.0000
v 9.5000 -12.5000 -1.0000
v 9.5000 -13.5000 -1.0000
v 9.5000 -12.5000 6.0000
v 10.5000 -12.5000 6.0000
v 10.5000 -12.5000 5.0000
v 9.5000 -13.5000 6.0000
v 10.5000 -13.5000 5.0000
v 10.5000 -13.5000 6.0000
v 10.5000 -12.5000 1.0000
v 10.5000 -12.5000 -0.0000
v 10.5000 -13.5000 -0.0000
v 10.5000 -13.5000 1.0000
vt 0.001953 0.500000
vt 0.005859 0.500000
vt 0.009766 0.500000
vt 0.013672 0.500000
vt 0.017578 0.500000
vt 0.021484 0.500000
vt 0.025391 0.500000
vt 0.029297 0.500000
vt 0.033203 0.500000
vn 0.0 -1.0 0.0
vn 0.0 1.0 0.0
vn 0.0 0.0 1.0
vn 0.0 0.0 -1.0
vn -1.0 0.0 0.0
vn 1.0 0.0 0.0
usemtl mat_Drago_Tomas_Mateo_Buitrago_Gutiérrez_fase_4
s off
f 1/1/2 2/1/2 3/1/2 4/1/2
f 5/1/1 6/1/1 7/1/1 8/1/1
f 5/1/3 8/1/3 2/1/3 1/1/3
f 6/1/4 4/1/4 3/1/4 7/1/4
f 5/1/5 1/1/5 4/1/5 6/1/5
f 9/2/2 10/2/2 11/2/2 12/2/2
f 13/2/1 14/2/1 15/2/1 16/2/1
f 13/2/3 16/2/3 10/2/3 9/2/3
f 16/2/6 15/2/6 11/2/6 10/2/6
f 13/2/5 9/2/5 12/2/5 14/2/5
f 12/2/2 11/2/2 17/2/2 18/2/2
f 14/2/1 19/2/1 20/2/1 15/2/1
f 19/2/4 18/2/4 17/2/4 20/2/4
f 15/2/6 20/2/6 17/2/6 11/2/6
f 14/2/5 12/2/5 18/2/5 19/2/5
f 21/2/2 22/2/2 23/2/2 24/2/2
f 25/2/1 26/2/1 27/2/1 28/2/1
f 25/2/3 28/2/3 22/2/3 21/2/3
f 26/2/4 24/2/4 23/2/4 27/2/4
f 25/2/5 21/2/5 24/2/5 26/2/5
f 2/1/2 29/1/2 30/1/2 3/1/2
f 8/1/1 7/1/1 31/1/1 32/1/1
f 8/1/3 32/1/3 29/1/3 2/1/3
f 7/1/4 3/1/4 30/1/4 31/1/4
f 17/2/2 33/2/2 34/2/2 35/2/2
f 20/2/1 36/2/1 37/2/1 38/2/1
f 20/2/3 38/2/3 33/2/3 17/2/3
f 20/2/5 17/2/5 35/2/5 36/2/5
f 35/2/2 34/2/2 39/2/2 40/2/2
f 36/2/1 41/2/1 42/2/1 37/2/1
f 41/2/4 40/2/4 39/2/4 42/2/4
f 36/2/5 35/2/5 40/2/5 41/2/5
f 22/2/2 43/2/2 44/2/2 23/2/2
f 28/2/1 27/2/1 45/2/1 46/2/1
f 28/2/3 46/2/3 43/2/3 22/2/3
f 46/2/6 45/2/6 44/2/6 43/2/6
f 23/2/2 44/2/2 47/2/2 29/2/2
f 27/2/1 32/2/1 48/2/1 45/2/1
f 45/2/6 48/2/6 47/2/6 44/2/6
f 27/2/5 23/2/5 29/2/5 32/2/5
f 29/1/2 47/1/2 49/1/2 30/1/2
f 32/1/1 31/1/1 50/1/1 48/1/1
f 31/1/4 30/1/4 49/1/4 50/1/4
f 51/2/2 52/2/2 53/2/2 54/2/2
f 55/2/1 56/2/1 57/2/1 58/2/1
f 55/2/3 58/2/3 52/2/3 51/2/3
f 56/2/4 54/2/4 53/2/4 57/2/4
f 58/2/6 57/2/6 53/2/6 52/2/6
f 55/2/5 51/2/5 54/2/5 56/2/5
f 38/1/1 37/1/1 59/1/1 60/1/1
f 38/1/3 60/1/3 61/1/3 33/1/3
f 60/1/6 59/1/6 62/1/6 61/1/6
f 63/2/2 64/2/2 65/2/2 66/2/2
f 33/2/3 61/2/3 64/2/3 63/2/3
f 61/2/6 62/2/6 65/2/6 64/2/6
f 33/2/5 63/2/5 66/2/5 34/2/5
f 37/1/1 42/1/1 67/1/1 59/1/1
f 66/2/2 65/2/2 68/2/2 69/2/2
f 39/2/4 69/2/4 68/2/4 70/2/4
f 62/2/6 70/2/6 68/2/6 65/2/6
f 34/2/5 66/2/5 69/2/5 39/2/5
f 39/2/2 70/2/2 71/2/2 72/2/2
f 42/2/1 73/2/1 74/2/1 67/2/1
f 42/2/5 39/2/5 72/2/5 73/2/5
f 72/2/2 71/2/2 75/2/2 76/2/2
f 73/2/1 77/2/1 78/2/1 74/2/1
f 73/2/5 72/2/5 76/2/5 77/2/5
f 76/2/2 75/2/2 79/2/2 43/2/2
f 77/2/1 46/2/1 80/2/1 78/2/1
f 46/2/4 43/2/4 79/2/4 80/2/4
f 77/2/5 76/2/5 43/2/5 46/2/5
f 47/2/2 81/2/2 82/2/2 49/2/2
f 48/2/1 50/2/1 83/2/1 84/2/1
f 48/2/3 84/2/3 81/2/3 47/2/3
f 49/1/2 82/1/2 85/1/2 86/1/2
f 50/1/1 87/1/1 88/1/1 83/1/1
f 87/1/4 86/1/4 85/1/4 88/1/4
f 50/1/5 49/1/5 86/1/5 87/1/5
f 89/2/2 90/2/2 91/2/2 52/2/2
f 92/2/1 58/2/1 93/2/1 94/2/1
f 92/2/3 94/2/3 90/2/3 89/2/3
f 58/2/4 52/2/4 91/2/4 93/2/4
f 92/2/5 89/2/5 52/2/5 58/2/5
f 53/1/2 95/1/2 96/1/2 97/1/2
f 57/1/1 98/1/1 99/1/1 100/1/1
f 57/1/3 100/1/3 95/1/3 53/1/3
f 98/1/4 97/1/4 96/1/4 99/1/4
f 57/1/5 53/1/5 97/1/5 98/1/5
f 62/1/2 101/1/2 102/1/2 70/1/2
f 59/1/1 67/1/1 103/1/1 104/1/1
f 59/1/3 104/1/3 101/1/3 62/1/3
f 104/1/6 103/1/6 102/1/6 101/1/6
f 67/1/1 74/1/1 105/1/1 103/1/1
f 68/2/2 106/2/2 107/2/2 108/2/2
f 70/2/3 102/2/3 106/2/3 68/2/3
f 71/2/4 108/2/4 107/2/4 109/2/4
f 70/2/5 68/2/5 108/2/5 71/2/5
f 71/2/2 109/2/2 110/2/2 75/2/2
f 74/2/1 78/2/1 111/2/1 105/2/1
f 78/2/1 80/2/1 112/2/1 111/2/1
f 80/2/4 79/2/4 113/2/4 112/2/4
f 114/2/2 115/2/2 116/2/2 117/2/2
f 75/2/3 110/2/3 115/2/3 114/2/3
f 79/2/4 117/2/4 116/2/4 113/2/4
f 110/2/6 113/2/6 116/2/6 115/2/6
f 75/2/5 114/2/5 117/2/5 79/2/5
f 118/2/2 119/2/2 120/2/2 81/2/2
f 121/2/1 84/2/1 122/2/1 123/2/1
f 121/2/3 123/2/3 119/2/3 118/2/3
f 123/2/6 122/2/6 120/2/6 119/2/6
f 121/2/5 118/2/5 81/2/5 84/2/5
f 81/2/2 120/2/2 124/2/2 82/2/2
f 84/2/1 83/2/1 125/2/1 122/2/1
f 83/1/1 88/1/1 126/1/1 125/1/1
f 127/2/2 128/2/2 129/2/2 130/2/2
f 82/2/3 124/2/3 128/2/3 127/2/3
f 85/2/4 130/2/4 129/2/4 131/2/4
f 82/2/5 127/2/5 130/2/5 85/2/5
f 85/3/2 131/3/2 132/3/2 133/3/2
f 88/3/1 134/3/1 135/3/1 126/3/1
f 88/3/5 85/3/5 133/3/5 134/3/5
f 136/1/1 137/1/1 138/1/1 139/1/1
f 136/1/3 139/1/3 140/1/3 141/1/3
f 137/1/4 142/1/4 143/1/4 138/1/4
f 136/1/5 141/1/5 142/1/5 137/1/5
f 141/1/3 140/1/3 144/1/3 145/1/3
f 142/1/4 146/1/4 147/1/4 143/1/4
f 141/1/5 145/1/5 146/1/5 142/1/5
f 145/1/3 144/1/3 148/1/3 149/1/3
f 146/1/4 150/1/4 151/1/4 147/1/4
f 144/1/6 147/1/6 151/1/6 148/1/6
f 145/1/5 149/1/5 150/1/5 146/1/5
f 152/1/2 153/1/2 154/1/2 155/1/2
f 149/1/3 148/1/3 153/1/3 152/1/3
f 150/1/4 155/1/4 154/1/4 151/1/4
f 148/1/6 151/1/6 154/1/6 153/1/6
f 149/1/5 152/1/5 155/1/5 150/1/5
f 133/1/2 132/1/2 156/1/2 157/1/2
f 134/1/1 158/1/1 159/1/1 135/1/1
f 158/1/4 157/1/4 156/1/4 159/1/4
f 134/1/5 133/1/5 157/1/5 158/1/5
f 94/1/1 93/1/1 160/1/1 161/1/1
f 94/1/3 161/1/3 162/1/3 90/1/3
f 93/1/4 91/1/4 163/1/4 160/1/4
f 164/2/2 165/2/2 166/2/2 167/2/2
f 90/2/3 162/2/3 165/2/3 164/2/3
f 91/2/4 167/2/4 166/2/4 163/2/4
f 90/2/5 164/2/5 167/2/5 91/2/5
f 95/1/2 168/1/2 169/1/2 96/1/2
f 100/1/1 99/1/1 170/1/1 171/1/1
f 100/1/3 171/1/3 168/1/3 95/1/3
f 99/1/4 96/1/4 169/1/4 170/1/4
f 171/1/6 170/1/6 169/1/6 168/1/6
f 103/1/1 105/1/1 172/1/1 173/1/1
f 103/1/3 173/1/3 174/1/3 102/1/3
f 173/1/6 172/1/6 175/1/6 174/1/6
f 106/1/2 176/1/2 177/1/2 107/1/2
f 102/1/3 174/1/3 176/1/3 106/1/3
f 174/1/6 175/1/6 177/1/6 176/1/6
f 105/1/1 111/1/1 178/1/1 172/1/1
f 110/1/4 115/1/4 179/1/4 180/1/4
f 175/1/6 180/1/6 179/1/6 177/1/6
f 109/1/5 107/1/5 115/1/5 110/1/5
f 181/2/2 182/2/2 183/2/2 184/2/2
f 107/2/3 177/2/3 182/2/3 181/2/3
f 115/2/4 184/2/4 183/2/4 179/2/4
f 177/2/6 179/2/6 183/2/6 182/2/6
f 107/2/5 181/2/5 184/2/5 115/2/5
f 110/1/2 180/1/2 185/1/2 113/1/2
f 111/1/1 112/1/1 186/1/1 178/1/1
f 112/1/4 113/1/4 185/1/4 186/1/4
f 120/2/2 187/2/2 188/2/2 124/2/2
f 122/2/1 125/2/1 189/2/1 190/2/1
f 122/2/3 190/2/3 187/2/3 120/2/3
f 190/2/6 189/2/6 188/2/6 187/2/6
f 125/1/1 126/1/1 191/1/1 189/1/1
f 128/2/2 192/2/2 193/2/2 129/2/2
f 124/2/3 188/2/3 192/2/3 128/2/3
f 126/3/1 135/3/1 194/3/1 191/3/1
f 129/4/2 193/4/2 195/4/2 196/4/2
f 132/4/4 196/4/4 195/4/4 197/4/4
f 131/4/5 129/4/5 196/4/5 132/4/5
f 198/1/1 199/1/1 200/1/1 201/1/1
f 198/1/3 201/1/3 202/1/3 139/1/3
f 199/1/4 138/1/4 203/1/4 200/1/4
f 198/1/5 139/1/5 138/1/5 199/1/5
f 139/1/3 202/1/3 204/1/3 140/1/3
f 138/1/4 143/1/4 205/1/4 203/1/4
f 144/1/2 206/1/2 207/1/2 147/1/2
f 140/1/3 204/1/3 206/1/3 144/1/3
f 143/1/4 147/1/4 207/1/4 205/1/4
f 204/1/6 205/1/6 207/1/6 206/1/6
f 132/1/2 197/1/2 208/1/2 156/1/2
f 135/1/1 159/1/1 209/1/1 194/1/1
f 156/1/2 208/1/2 210/1/2 211/1/2
f 159/1/1 212/1/1 213/1/1 209/1/1
f 159/1/5 156/1/5 211/1/5 212/1/5
f 211/2/2 210/2/2 214/2/2 162/2/2
f 212/2/1 161/2/1 215/2/1 213/2/1
f 212/2/5 211/2/5 162/2/5 161/2/5
f 161/1/1 160/1/1 216/1/1 215/1/1
f 165/1/2 217/1/2 218/1/2 166/1/2
f 162/1/3 214/1/3 217/1/3 165/1/3
f 163/1/4 166/1/4 218/1/4 219/1/4
f 214/1/6 219/1/6 218/1/6 217/1/6
f 163/1/2 219/1/2 220/1/2 168/1/2
f 160/1/1 171/1/1 221/1/1 216/1/1
f 171/1/4 168/1/4 220/1/4 221/1/4
f 216/1/6 221/1/6 220/1/6 219/1/6
f 160/1/5 163/1/5 168/1/5 171/1/5
f 175/2/2 222/2/2 223/2/2 180/2/2
f 172/2/1 178/2/1 224/2/1 225/2/1
f 172/2/3 225/2/3 222/2/3 175/2/3
f 225/2/6 224/2/6 223/2/6 222/2/6
f 180/1/2 223/1/2 226/1/2 185/1/2
f 178/1/1 186/1/1 227/1/1 224/1/1
f 185/1/2 226/1/2 228/1/2 229/1/2
f 186/1/1 230/1/1 231/1/1 227/1/1
f 186/1/5 185/1/5 229/1/5 230/1/5
f 229/1/2 228/1/2 232/1/2 187/1/2
f 230/1/1 190/1/1 233/1/1 231/1/1
f 190/1/4 187/1/4 232/1/4 233/1/4
f 230/1/5 229/1/5 187/1/5 190/1/5
f 234/2/2 235/2/2 236/2/2 192/2/2
f 187/2/1 188/2/1 237/2/1 232/2/1
f 187/2/3 232/2/3 235/2/3 234/2/3
f 232/2/6 237/2/6 236/2/6 235/2/6
f 187/2/5 234/2/5 192/2/5 188/2/5
f 189/3/1 191/3/1 238/3/1 239/3/1
f 189/3/3 239/3/3 237/3/3 188/3/3
f 240/2/2 241/2/2 242/2/2 243/2/2
f 192/2/3 236/2/3 241/2/3 240/2/3
f 236/2/6 244/2/6 242/2/6 241/2/6
f 192/2/5 240/2/5 243/2/5 193/2/5
f 245/3/1 246/3/1 247/3/1 248/3/1
f 245/3/3 248/3/3 249/3/3 250/3/3
f 245/3/5 250/3/5 251/3/5 246/3/5
f 250/3/3 249/3/3 252/3/3 253/3/3
f 249/3/6 254/3/6 255/3/6 252/3/6
f 250/3/5 253/3/5 256/3/5 251/3/5
f 253/3/3 252/3/3 257/3/3 258/3/3
f 252/3/6 255/3/6 259/3/6 257/3/6
f 253/3/5 258/3/5 260/3/5 256/3/5
f 258/3/3 257/3/3 261/3/3 262/3/3
f 257/3/6 259/3/6 263/3/6 261/3/6
f 258/3/5 262/3/5 264/3/5 260/3/5
f 262/3/3 261/3/3 265/3/3 266/3/3
f 261/3/6 263/3/6 267/3/6 265/3/6
f 262/3/5 266/3/5 268/3/5 264/3/5
f 266/3/3 265/3/3 269/3/3 270/3/3
f 265/3/6 267/3/6 271/3/6 269/3/6
f 266/3/5 270/3/5 272/3/5 268/3/5
f 273/3/2 274/3/2 275/3/2 276/3/2
f 270/3/3 269/3/3 274/3/3 273/3/3
f 269/3/6 271/3/6 275/3/6 274/3/6
f 270/3/5 273/3/5 276/3/5 272/3/5
f 191/3/1 194/3/1 277/3/1 238/3/1
f 195/3/4 278/3/4 279/3/4 280/3/4
f 193/3/5 243/3/5 278/3/5 195/3/5
f 243/1/3 242/1/3 281/1/3 282/1/3
f 278/1/4 283/1/4 284/1/4 279/1/4
f 243/1/5 282/1/5 283/1/5 278/1/5
f 285/1/2 286/1/2 287/1/2 288/1/2
f 282/1/3 281/1/3 286/1/3 285/1/3
f 283/1/4 288/1/4 287/1/4 284/1/4
f 282/1/5 285/1/5 288/1/5 283/1/5
f 246/3/1 289/3/1 290/3/1 247/3/1
f 246/3/5 251/3/5 291/3/5 289/3/5
f 251/1/5 256/1/5 292/1/5 291/1/5
f 256/1/5 260/1/5 293/1/5 292/1/5
f 260/1/5 264/1/5 294/1/5 293/1/5
f 264/1/5 268/1/5 295/1/5 294/1/5
f 268/1/5 272/1/5 296/1/5 295/1/5
f 272/3/5 276/3/5 297/3/5 296/3/5
f 276/3/3 275/3/3 298/3/3 299/3/3
f 297/3/4 300/3/4 301/3/4 302/3/4
f 276/3/5 299/3/5 300/3/5 297/3/5
f 299/1/3 298/1/3 303/1/3 201/1/3
f 300/1/4 200/1/4 304/1/4 301/1/4
f 299/1/5 201/1/5 200/1/5 300/1/5
f 201/1/3 303/1/3 305/1/3 202/1/3
f 200/1/4 203/1/4 306/1/4 304/1/4
f 204/1/2 307/1/2 308/1/2 205/1/2
f 202/1/3 305/1/3 307/1/3 204/1/3
f 203/1/4 205/1/4 308/1/4 306/1/4
f 305/1/6 306/1/6 308/1/6 307/1/6
f 194/3/1 209/3/1 309/3/1 277/3/1
f 195/1/2 280/1/2 310/1/2 311/1/2
f 208/1/4 311/1/4 310/1/4 312/1/4
f 197/1/5 195/1/5 311/1/5 208/1/5
f 289/3/1 313/3/1 314/3/1 290/3/1
f 313/3/4 315/3/4 316/3/4 314/3/4
f 289/3/5 291/3/5 315/3/5 313/3/5
f 315/3/4 317/3/4 318/3/4 316/3/4
f 319/3/6 316/3/6 318/3/6 320/3/6
f 291/3/5 292/3/5 317/3/5 315/3/5
f 317/3/4 321/3/4 322/3/4 318/3/4
f 320/3/6 318/3/6 322/3/6 323/3/6
f 292/3/5 293/3/5 321/3/5 317/3/5
f 321/3/4 324/3/4 325/3/4 322/3/4
f 323/3/6 322/3/6 325/3/6 326/3/6
f 293/3/5 294/3/5 324/3/5 321/3/5
f 324/3/4 327/3/4 328/3/4 325/3/4
f 326/3/6 325/3/6 328/3/6 329/3/6
f 294/3/5 295/3/5 327/3/5 324/3/5
f 327/3/4 330/3/4 331/3/4 328/3/4
f 329/3/6 328/3/6 331/3/6 332/3/6
f 295/3/5 296/3/5 330/3/5 327/3/5
f 297/3/2 302/3/2 333/3/2 334/3/2
f 330/3/4 334/3/4 333/3/4 331/3/4
f 332/3/6 331/3/6 333/3/6 302/3/6
f 296/3/5 297/3/5 334/3/5 330/3/5
f 208/1/2 312/1/2 335/1/2 210/1/2
f 209/1/1 213/1/1 336/1/1 309/1/1
f 210/2/2 335/2/2 337/2/2 214/2/2
f 213/2/1 215/2/1 338/2/1 336/2/1
f 214/1/2 337/1/2 339/1/2 219/1/2
f 215/1/1 216/1/1 340/1/1 338/1/1
f 216/1/4 219/1/4 339/1/4 340/1/4
f 220/2/2 341/2/2 342/2/2 343/2/2
f 221/2/1 344/2/1 345/2/1 346/2/1
f 221/2/3 346/2/3 341/2/3 220/2/3
f 346/2/6 345/2/6 342/2/6 341/2/6
f 221/2/5 220/2/5 343/2/5 344/2/5
f 343/2/2 342/2/2 347/2/2 348/2/2
f 344/2/1 349/2/1 350/2/1 345/2/1
f 349/2/4 348/2/4 347/2/4 350/2/4
f 345/2/6 350/2/6 347/2/6 342/2/6
f 344/2/5 343/2/5 348/2/5 349/2/5
f 223/1/2 351/1/2 352/1/2 226/1/2
f 224/1/1 227/1/1 353/1/1 354/1/1
f 224/1/3 354/1/3 351/1/3 223/1/3
f 227/1/1 231/1/1 355/1/1 353/1/1
f 356/1/2 357/1/2 358/1/2 359/1/2
f 226/1/3 352/1/3 357/1/3 356/1/3
f 228/1/4 359/1/4 358/1/4 360/1/4
f 352/1/6 360/1/6 358/1/6 357/1/6
f 226/1/5 356/1/5 359/1/5 228/1/5
f 228/1/2 360/1/2 361/1/2 232/1/2
f 231/1/1 233/1/1 362/1/1 355/1/1
f 232/1/2 361/1/2 363/1/2 237/1/2
f 233/1/1 239/1/1 364/1/1 362/1/1
f 233/1/5 232/1/5 237/1/5 239/1/5
f 239/3/1 238/3/1 365/3/1 364/3/1
f 236/4/2 366/4/2 367/4/2 244/4/2
f 237/4/3 363/4/3 366/4/3 236/4/3
f 241/2/1 242/2/1 368/2/1 369/2/1
f 241/2/3 369/2/3 370/2/3 371/2/3
f 369/2/6 368/2/6 372/2/6 370/2/6
f 241/2/5 371/2/5 281/2/5 242/2/5
f 373/2/2 374/2/2 375/2/2 286/2/2
f 371/2/3 370/2/3 374/2/3 373/2/3
f 370/2/6 372/2/6 375/2/6 374/2/6
f 371/2/5 373/2/5 286/2/5 281/2/5
f 376/3/1 377/3/1 378/3/1 379/3/1
f 376/3/3 379/3/3 380/3/3 248/3/3
f 376/3/5 248/3/5 247/3/5 377/3/5
f 249/3/2 381/3/2 382/3/2 254/3/2
f 248/3/3 380/3/3 381/3/3 249/3/3
f 380/3/6 383/3/6 382/3/6 381/3/6
f 384/3/2 385/3/2 386/3/2 298/3/2
f 274/3/1 275/3/1 387/3/1 388/3/1
f 274/3/3 388/3/3 385/3/3 384/3/3
f 388/3/6 387/3/6 386/3/6 385/3/6
f 274/3/5 384/3/5 298/3/5 275/3/5
f 238/3/1 277/3/1 389/3/1 365/3/1
f 244/3/3 367/3/3 368/3/3 242/3/3
f 284/1/4 287/1/4 390/1/4 391/1/4
f 286/2/3 375/2/3 392/2/3 393/2/3
f 287/2/4 394/2/4 395/2/4 390/2/4
f 286/2/5 393/2/5 394/2/5 287/2/5
f 393/1/3 392/1/3 396/1/3 397/1/3
f 394/1/4 398/1/4 399/1/4 395/1/4
f 393/1/5 397/1/5 398/1/5 394/1/5
f 400/1/2 401/1/2 402/1/2 403/1/2
f 397/1/3 396/1/3 401/1/3 400/1/3
f 398/1/4 403/1/4 402/1/4 399/1/4
f 397/1/5 400/1/5 403/1/5 398/1/5
f 377/3/1 404/3/1 405/3/1 378/3/1
f 377/3/5 247/3/5 290/3/5 404/3/5
f 254/5/3 382/5/3 406/5/3 255/5/3
f 319/5/4 320/5/4 407/5/4 408/5/4
f 255/5/3 406/5/3 409/5/3 259/5/3
f 320/5/4 323/5/4 410/5/4 407/5/4
f 259/5/3 409/5/3 411/5/3 263/5/3
f 323/5/4 326/5/4 412/5/4 410/5/4
f 263/5/3 411/5/3 413/5/3 267/5/3
f 326/5/4 329/5/4 414/5/4 412/5/4
f 267/5/3 413/5/3 415/5/3 271/5/3
f 329/5/4 332/5/4 416/5/4 414/5/4
f 271/5/3 415/5/3 387/5/3 275/5/3
f 332/5/4 302/5/4 417/5/4 416/5/4
f 298/3/3 386/3/3 418/3/3 303/3/3
f 301/3/4 304/3/4 419/3/4 420/3/4
f 305/1/2 421/1/2 422/1/2 306/1/2
f 303/1/3 418/1/3 421/1/3 305/1/3
f 304/1/4 306/1/4 422/1/4 419/1/4
f 277/3/1 309/3/1 423/3/1 389/3/1
f 312/4/4 310/4/4 424/4/4 425/4/4
f 310/1/4 426/1/4 427/1/4 424/1/4
f 280/1/5 279/1/5 426/1/5 310/1/5
f 284/1/2 391/1/2 428/1/2 429/1/2
f 426/1/4 429/1/4 428/1/4 427/1/4
f 279/1/5 284/1/5 429/1/5 426/1/5
f 404/3/1 430/3/1 431/3/1 405/3/1
f 430/3/4 314/3/4 432/3/4 431/3/4
f 404/3/5 290/3/5 314/3/5 430/3/5
f 319/3/2 408/3/2 433/3/2 316/3/2
f 314/3/4 316/3/4 433/3/4 432/3/4
f 434/3/6 432/3/6 433/3/6 408/3/6
f 301/3/2 420/3/2 435/3/2 436/3/2
f 302/3/1 333/3/1 437/3/1 417/3/1
f 333/3/4 436/3/4 435/3/4 437/3/4
f 417/3/6 437/3/6 435/3/6 420/3/6
f 302/3/5 301/3/5 436/3/5 333/3/5
f 312/1/2 425/1/2 438/1/2 335/1/2
f 309/1/1 336/1/1 439/1/1 423/1/1
f 336/1/1 338/1/1 440/1/1 439/1/1
f 335/2/3 438/2/3 441/2/3 442/2/3
f 337/2/4 443/2/4 444/2/4 445/2/4
f 335/2/5 442/2/5 443/2/5 337/2/5
f 446/2/2 447/2/2 448/2/2 449/2/2
f 442/2/3 441/2/3 447/2/3 446/2/3
f 443/2/4 449/2/4 448/2/4 444/2/4
f 441/2/6 444/2/6 448/2/6 447/2/6
f 442/2/5 446/2/5 449/2/5 443/2/5
f 337/2/2 445/2/2 450/2/2 339/2/2
f 338/2/1 340/2/1 451/2/1 440/2/1
f 440/2/6 451/2/6 450/2/6 445/2/6
f 339/2/2 450/2/2 452/2/2 341/2/2
f 340/2/1 346/2/1 453/2/1 451/2/1
f 346/2/4 341/2/4 452/2/4 453/2/4
f 451/2/6 453/2/6 452/2/6 450/2/6
f 340/2/5 339/2/5 341/2/5 346/2/5
f 454/2/2 455/2/2 456/2/2 457/2/2
f 458/2/1 459/2/1 460/2/1 461/2/1
f 458/2/3 461/2/3 455/2/3 454/2/3
f 461/2/6 460/2/6 456/2/6 455/2/6
f 458/2/5 454/2/5 457/2/5 459/2/5
f 457/2/2 456/2/2 462/2/2 463/2/2
f 459/2/1 464/2/1 465/2/1 460/2/1
f 460/2/6 465/2/6 462/2/6 456/2/6
f 459/2/5 457/2/5 463/2/5 464/2/5
f 463/2/2 462/2/2 466/2/2 467/2/2
f 464/2/1 468/2/1 469/2/1 465/2/1
f 465/2/6 469/2/6 466/2/6 462/2/6
f 464/2/5 463/2/5 467/2/5 468/2/5
f 467/2/2 466/2/2 470/2/2 351/2/2
f 468/2/1 354/2/1 471/2/1 469/2/1
f 469/2/6 471/2/6 470/2/6 466/2/6
f 468/2/5 467/2/5 351/2/5 354/2/5
f 351/2/2 470/2/2 472/2/2 352/2/2
f 354/2/1 353/2/1 473/2/1 471/2/1
f 352/1/2 472/1/2 474/1/2 360/1/2
f 353/1/1 355/1/1 475/1/1 473/1/1
f 355/1/1 362/1/1 476/1/1 475/1/1
f 358/1/2 477/1/2 478/1/2 479/1/2
f 360/1/3 474/1/3 477/1/3 358/1/3
f 360/1/5 358/1/5 479/1/5 361/1/5
f 362/3/1 364/3/1 480/3/1 476/3/1
f 361/1/5 479/1/5 366/1/5 363/1/5
f 481/1/2 482/1/2 483/1/2 369/1/2
f 479/1/3 478/1/3 482/1/3 481/1/3
f 479/1/5 481/1/5 369/1/5 366/1/5
f 364/6/1 365/6/1 484/6/1 480/6/1
f 369/3/2 483/3/2 485/3/2 368/3/2
f 366/3/5 369/3/5 368/3/5 367/3/5
f 374/2/1 375/2/1 486/2/1 487/2/1
f 374/2/3 487/2/3 488/2/3 489/2/3
f 374/2/5 489/2/5 392/2/5 375/2/5
f 489/2/3 488/2/3 490/2/3 491/2/3
f 489/2/5 491/2/5 396/2/5 392/2/5
f 492/2/2 493/2/2 494/2/2 401/2/2
f 491/2/3 490/2/3 493/2/3 492/2/3
f 491/2/5 492/2/5 401/2/5 396/2/5
f 495/3/1 496/3/1 497/3/1 498/3/1
f 495/3/3 498/3/3 499/3/3 379/3/3
f 495/3/5 379/3/5 378/3/5 496/3/5
f 380/3/2 500/3/2 501/3/2 383/3/2
f 379/3/3 499/3/3 500/3/3 380/3/3
f 499/3/6 502/3/6 501/3/6 500/3/6
f 503/3/2 504/3/2 505/3/2 418/3/2
f 385/3/1 386/3/1 506/3/1 507/3/1
f 385/3/3 507/3/3 504/3/3 503/3/3
f 507/3/6 506/3/6 505/3/6 504/3/6
f 385/3/5 503/3/5 418/3/5 386/3/5
f 365/6/1 389/6/1 508/6/1 484/6/1
f 368/3/3 485/3/3 509/3/3 372/3/3
f 372/4/3 509/4/3 486/4/3 375/4/3
f 395/1/4 399/1/4 510/1/4 511/1/4
f 399/1/4 402/1/4 512/1/4 510/1/4
f 401/1/3 494/1/3 513/1/3 514/1/3
f 402/1/4 515/1/4 516/1/4 512/1/4
f 401/1/5 514/1/5 515/1/5 402/1/5
f 514/1/3 513/1/3 497/1/3 496/1/3
f 515/1/4 517/1/4 518/1/4 516/1/4
f 514/1/5 496/1/5 517/1/5 515/1/5
f 496/3/5 378/3/5 405/3/5 517/3/5
f 383/5/3 501/5/3 519/5/3 382/5/3
f 434/5/4 408/5/4 520/5/4 521/5/4
f 382/7/3 519/7/3 522/7/3 406/7/3
f 408/7/4 407/7/4 523/7/4 520/7/4
f 406/7/3 522/7/3 524/7/3 409/7/3
f 407/7/4 410/7/4 525/7/4 523/7/4
f 409/7/3 524/7/3 526/7/3 411/7/3
f 410/7/4 412/7/4 527/7/4 525/7/4
f 411/7/3 526/7/3 528/7/3 413/7/3
f 412/7/4 414/7/4 529/7/4 527/7/4
f 413/7/3 528/7/3 530/7/3 415/7/3
f 414/7/4 416/7/4 531/7/4 529/7/4
f 415/7/3 530/7/3 532/7/3 387/7/3
f 416/7/4 417/7/4 533/7/4 531/7/4
f 387/5/3 532/5/3 506/5/3 386/5/3
f 417/5/4 420/5/4 534/5/4 533/5/4
f 421/3/2 535/3/2 536/3/2 422/3/2
f 418/3/3 505/3/3 535/3/3 421/3/3
f 419/3/4 422/3/4 536/3/4 537/3/4
f 389/6/1 423/6/1 538/6/1 508/6/1
f 391/1/5 390/1/5 539/1/5 428/1/5
f 395/1/2 511/1/2 540/1/2 541/1/2
f 390/1/5 395/1/5 541/1/5 539/1/5
f 517/3/1 542/3/1 543/3/1 518/3/1
f 542/3/4 431/3/4 544/3/4 543/3/4
f 517/3/5 405/3/5 431/3/5 542/3/5
f 434/3/2 521/3/2 545/3/2 432/3/2
f 431/3/4 432/3/4 545/3/4 544/3/4
f 419/3/2 537/3/2 546/3/2 547/3/2
f 420/3/1 435/3/1 548/3/1 534/3/1
f 435/3/4 547/3/4 546/3/4 548/3/4
f 534/3/6 548/3/6 546/3/6 537/3/6
f 420/3/5 419/3/5 547/3/5 435/3/5
f 423/3/1 439/3/1 549/3/1 538/3/1
f 425/1/5 424/1/5 441/1/5 438/1/5
f 441/2/4 447/2/4 550/2/4 551/2/4
f 424/2/5 427/2/5 447/2/5 441/2/5
f 447/2/4 552/2/4 553/2/4 550/2/4
f 427/2/5 428/2/5 552/2/5 447/2/5
f 552/2/4 554/2/4 555/2/4 553/2/4
f 428/2/5 539/2/5 554/2/5 552/2/5
f 541/2/2 540/2/2 556/2/2 557/2/2
f 554/2/4 557/2/4 556/2/4 555/2/4
f 539/2/5 541/2/5 557/2/5 554/2/5
f 439/1/1 440/1/1 558/1/1 549/1/1
f 440/1/4 445/1/4 559/1/4 558/1/4
f 441/2/2 551/2/2 560/2/2 444/2/2
f 445/2/4 444/2/4 560/2/4 559/2/4
f 452/2/2 561/2/2 562/2/2 563/2/2
f 453/2/1 564/2/1 565/2/1 566/2/1
f 453/2/3 566/2/3 561/2/3 452/2/3
f 453/2/5 452/2/5 563/2/5 564/2/5
f 563/1/2 562/1/2 567/1/2 568/1/2
f 564/1/1 569/1/1 570/1/1 565/1/1
f 565/1/6 570/1/6 567/1/6 562/1/6
f 564/1/5 563/1/5 568/1/5 569/1/5
f 568/1/2 567/1/2 571/1/2 572/1/2
f 569/1/1 573/1/1 574/1/1 570/1/1
f 570/1/6 574/1/6 571/1/6 567/1/6
f 569/1/5 568/1/5 572/1/5 573/1/5
f 572/1/2 571/1/2 575/1/2 576/1/2
f 573/1/1 577/1/1 578/1/1 574/1/1
f 574/1/6 578/1/6 575/1/6 571/1/6
f 573/1/5 572/1/5 576/1/5 577/1/5
f 576/1/2 575/1/2 579/1/2 580/1/2
f 577/1/1 581/1/1 582/1/1 578/1/1
f 581/1/4 580/1/4 579/1/4 582/1/4
f 578/1/6 582/1/6 579/1/6 575/1/6
f 577/1/5 576/1/5 580/1/5 581/1/5
f 470/2/2 583/2/2 584/2/2 472/2/2
f 471/2/1 473/2/1 585/2/1 586/2/1
f 471/2/3 586/2/3 583/2/3 470/2/3
f 473/3/1 475/3/1 587/3/1 585/3/1
f 588/2/2 589/2/2 590/2/2 477/2/2
f 472/2/3 584/2/3 589/2/3 588/2/3
f 472/2/5 588/2/5 477/2/5 474/2/5
f 475/3/1 476/3/1 591/3/1 587/3/1
f 477/1/3 590/1/3 592/1/3 593/1/3
f 477/1/5 593/1/5 482/1/5 478/1/5
f 594/1/2 595/1/2 596/1/2 597/1/2
f 593/1/3 592/1/3 595/1/3 594/1/3
f 593/1/5 594/1/5 597/1/5 482/1/5
f 476/6/1 480/6/1 598/6/1 591/6/1
f 482/1/5 597/1/5 599/1/5 483/1/5
f 600/1/2 601/1/2 602/1/2 487/1/2
f 597/1/3 596/1/3 601/1/3 600/1/3
f 597/1/5 600/1/5 487/1/5 599/1/5
f 603/2/1 493/2/1 604/2/1 605/2/1
f 603/2/3 605/2/3 606/2/3 607/2/3
f 603/2/5 607/2/5 608/2/5 493/2/5
f 607/2/3 606/2/3 609/2/3 610/2/3
f 607/2/5 610/2/5 498/2/5 608/2/5
f 611/2/2 612/2/2 613/2/2 499/2/2
f 610/2/3 609/2/3 612/2/3 611/2/3
f 610/2/5 611/2/5 499/2/5 498/2/5
f 480/4/1 484/4/1 614/4/1 598/4/1
f 483/3/5 599/3/5 509/3/5 485/3/5
f 599/3/5 487/3/5 486/3/5 509/3/5
f 487/3/3 602/3/3 615/3/3 488/3/3
f 488/4/3 615/4/3 616/4/3 490/4/3
f 490/4/3 616/4/3 604/4/3 493/4/3
f 493/4/5 608/4/5 513/4/5 494/4/5
f 608/4/5 498/4/5 497/4/5 513/4/5
f 499/3/2 613/3/2 617/3/2 502/3/2
f 618/3/2 619/3/2 620/3/2 535/3/2
f 504/3/1 505/3/1 621/3/1 622/3/1
f 504/3/3 622/3/3 619/3/3 618/3/3
f 622/3/6 621/3/6 620/3/6 619/3/6
f 504/3/5 618/3/5 535/3/5 505/3/5
f 623/4/2 624/4/2 625/4/2 626/4/2
f 627/4/1 628/4/1 629/4/1 630/4/1
f 627/4/3 630/4/3 624/4/3 623/4/3
f 627/4/5 623/4/5 626/4/5 628/4/5
f 484/4/1 508/4/1 631/4/1 614/4/1
f 632/4/6 633/4/6 634/4/6 635/4/6
f 635/4/6 634/4/6 636/4/6 637/4/6
f 637/4/6 636/4/6 638/4/6 639/4/6
f 639/4/6 638/4/6 640/4/6 641/4/6
f 641/3/6 640/3/6 642/3/6 643/3/6
f 643/3/6 642/3/6 644/3/6 645/3/6
f 645/3/6 644/3/6 646/3/6 647/3/6
f 647/3/6 646/3/6 648/3/6 649/3/6
f 502/5/3 617/5/3 650/5/3 501/5/3
f 501/7/3 650/7/3 651/7/3 519/7/3
f 521/7/4 520/7/4 652/7/4 653/7/4
f 519/9/3 651/9/3 654/9/3 522/9/3
f 520/9/4 523/9/4 655/9/4 652/9/4
f 522/9/3 654/9/3 656/9/3 524/9/3
f 523/9/4 525/9/4 657/9/4 655/9/4
f 524/9/3 656/9/3 658/9/3 526/9/3
f 525/9/4 527/9/4 659/9/4 657/9/4
f 526/9/3 658/9/3 660/9/3 528/9/3
f 527/9/4 529/9/4 661/9/4 659/9/4
f 528/9/3 660/9/3 662/9/3 530/9/3
f 529/9/4 531/9/4 663/9/4 661/9/4
f 530/9/3 662/9/3 664/9/3 532/9/3
f 531/9/4 533/9/4 665/9/4 663/9/4
f 532/7/3 664/7/3 666/7/3 506/7/3
f 533/7/4 534/7/4 667/7/4 665/7/4
f 506/5/3 666/5/3 621/5/3 505/5/3
f 534/5/4 537/5/4 668/5/4 667/5/4
f 535/3/3 620/3/3 669/3/3 670/3/3
f 536/3/4 671/3/4 672/3/4 673/3/4
f 535/3/5 670/3/5 671/3/5 536/3/5
f 674/4/2 675/4/2 676/4/2 677/4/2
f 670/4/3 669/4/3 675/4/3 674/4/3
f 671/4/4 677/4/4 676/4/4 672/4/4
f 670/4/5 674/4/5 677/4/5 671/4/5
f 678/3/1 679/3/1 680/3/1 681/3/1
f 678/3/3 681/3/3 629/3/3 628/3/3
f 679/3/4 682/3/4 683/3/4 680/3/4
f 678/3/5 628/3/5 682/3/5 679/3/5
f 626/4/2 625/4/2 684/4/2 685/4/2
f 628/4/5 626/4/5 685/4/5 682/4/5
f 508/3/1 538/3/1 686/3/1 631/3/1
f 511/4/5 510/4/5 687/4/5 540/4/5
f 510/4/5 512/4/5 688/4/5 687/4/5
f 512/4/5 516/4/5 689/4/5 688/4/5
f 516/4/5 518/4/5 543/4/5 689/4/5
f 521/2/2 653/2/2 690/2/2 545/2/2
f 536/3/2 673/3/2 691/3/2 692/3/2
f 537/3/1 546/3/1 693/3/1 668/3/1
f 546/3/4 692/3/4 691/3/4 693/3/4
f 668/3/6 693/3/6 691/3/6 673/3/6
f 537/3/5 536/3/5 692/3/5 546/3/5
f 685/4/2 684/4/2 694/4/2 695/4/2
f 682/4/1 696/4/1 697/4/1 683/4/1
f 696/4/4 695/4/4 694/4/4 697/4/4
f 682/4/5 685/4/5 695/4/5 696/4/5
f 538/6/1 549/6/1 698/6/1 686/6/1
f 550/2/4 553/2/4 699/2/4 700/2/4
f 555/2/4 556/2/4 701/2/4 702/2/4
f 556/2/4 703/2/4 704/2/4 701/2/4
f 540/2/5 687/2/5 703/2/5 556/2/5
f 703/2/4 705/2/4 706/2/4 704/2/4
f 687/2/5 688/2/5 705/2/5 703/2/5
f 705/2/4 707/2/4 708/2/4 706/2/4
f 688/2/5 689/2/5 707/2/5 705/2/5
f 707/2/4 709/2/4 710/2/4 708/2/4
f 689/2/5 543/2/5 709/2/5 707/2/5
f 709/2/4 711/2/4 712/2/4 710/2/4
f 543/2/5 544/2/5 711/2/5 709/2/5
f 545/2/2 690/2/2 713/2/2 714/2/2
f 711/2/4 714/2/4 713/2/4 712/2/4
f 544/2/5 545/2/5 714/2/5 711/2/5
f 549/3/1 558/3/1 715/3/1 698/3/1
f 550/2/2 700/2/2 716/2/2 717/2/2
f 560/2/4 717/2/4 716/2/4 718/2/4
f 551/2/5 550/2/5 717/2/5 560/2/5
f 555/2/2 702/2/2 719/2/2 720/2/2
f 553/2/1 721/2/1 722/2/1 699/2/1
f 553/2/5 555/2/5 720/2/5 721/2/5
f 558/3/1 723/3/1 724/3/1 715/3/1
f 558/3/5 559/3/5 725/3/5 723/3/5
f 560/2/2 718/2/2 726/2/2 727/2/2
f 559/2/5 560/2/5 727/2/5 725/2/5
f 720/2/2 719/2/2 728/2/2 729/2/2
f 721/2/1 730/2/1 731/2/1 722/2/1
f 730/2/4 729/2/4 728/2/4 731/2/4
f 722/2/6 731/2/6 728/2/6 719/2/6
f 721/2/5 720/2/5 729/2/5 730/2/5
f 723/1/1 566/1/1 732/1/1 724/1/1
f 723/1/5 725/1/5 561/1/5 566/1/5
f 727/2/2 726/2/2 733/2/2 734/2/2
f 561/2/4 734/2/4 733/2/4 735/2/4
f 725/2/5 727/2/5 734/2/5 561/2/5
f 561/1/2 735/1/2 736/1/2 562/1/2
f 566/1/1 565/1/1 737/1/1 732/1/1
f 565/1/4 562/1/4 736/1/4 737/1/4
f 738/3/2 739/3/2 740/3/2 583/3/2
f 741/3/1 586/3/1 742/3/1 743/3/1
f 741/3/3 743/3/3 739/3/3 738/3/3
f 743/3/6 742/3/6 740/3/6 739/3/6
f 741/3/5 738/3/5 583/3/5 586/3/5
f 586/3/1 585/3/1 744/3/1 742/3/1
f 742/3/6 744/3/6 745/3/6 740/3/6
f 583/4/3 740/4/3 746/4/3 747/4/3
f 740/4/6 745/4/6 748/4/6 746/4/6
f 583/4/5 747/4/5 589/4/5 584/4/5
f 747/2/3 746/2/3 749/2/3 750/2/3
f 746/2/6 748/2/6 751/2/6 749/2/6
f 747/2/5 750/2/5 752/2/5 589/2/5
f 753/2/2 754/2/2 755/2/2 756/2/2
f 750/2/3 749/2/3 754/2/3 753/2/3
f 749/2/6 751/2/6 755/2/6 754/2/6
f 750/2/5 753/2/5 756/2/5 752/2/5
f 585/3/1 587/3/1 757/3/1 744/3/1
f 745/4/6 758/4/6 759/4/6 748/4/6
f 748/3/6 759/3/6 760/3/6 751/3/6
f 589/3/5 752/3/5 592/3/5 590/3/5
f 751/1/6 760/1/6 761/1/6 755/1/6
f 752/1/5 756/1/5 595/1/5 592/1/5
f 762/2/2 763/2/2 764/2/2 765/2/2
f 756/2/3 755/2/3 763/2/3 762/2/3
f 755/2/6 761/2/6 764/2/6 763/2/6
f 756/2/5 762/2/5 765/2/5 595/2/5
f 587/3/1 591/3/1 766/3/1 757/3/1
f 759/3/6 767/3/6 768/3/6 760/3/6
f 760/3/6 768/3/6 769/3/6 761/3/6
f 761/1/6 769/1/6 770/1/6 764/1/6
f 595/1/5 765/1/5 601/1/5 596/1/5
f 765/2/3 764/2/3 771/2/3 772/2/3
f 764/2/6 770/2/6 773/2/6 771/2/6
f 765/2/5 772/2/5 774/2/5 601/2/5
f 772/2/3 771/2/3 775/2/3 776/2/3
f 771/2/6 773/2/6 777/2/6 775/2/6
f 772/2/5 776/2/5 778/2/5 774/2/5
f 776/2/3 775/2/3 779/2/3 780/2/3
f 775/2/6 777/2/6 781/2/6 779/2/6
f 776/2/5 780/2/5 605/2/5 778/2/5
f 780/2/3 779/2/3 782/2/3 783/2/3
f 780/2/5 783/2/5 606/2/5 605/2/5
f 784/2/2 785/2/2 786/2/2 609/2/2
f 783/2/3 782/2/3 785/2/3 784/2/3
f 783/2/5 784/2/5 609/2/5 606/2/5
f 591/6/1 598/6/1 787/6/1 766/6/1
f 770/1/6 788/1/6 789/1/6 773/1/6
f 601/1/5 774/1/5 615/1/5 602/1/5
f 773/1/6 789/1/6 790/1/6 777/1/6
f 774/1/5 778/1/5 616/1/5 615/1/5
f 778/1/5 605/1/5 604/1/5 616/1/5
f 612/2/2 791/2/2 792/2/2 613/2/2
f 609/2/3 786/2/3 791/2/3 612/2/3
f 598/4/1 614/4/1 793/4/1 787/4/1
f 632/4/4 635/4/4 794/4/4 795/4/4
f 635/4/4 637/4/4 796/4/4 794/4/4
f 637/4/4 639/4/4 797/4/4 796/4/4
f 639/4/4 641/4/4 798/4/4 797/4/4
f 641/3/4 643/3/4 799/3/4 798/3/4
f 643/3/4 645/3/4 800/3/4 799/3/4
f 645/3/4 647/3/4 801/3/4 800/3/4
f 647/3/4 649/3/4 802/3/4 801/3/4
f 803/2/2 804/2/2 805/2/2 650/2/2
f 613/2/3 792/2/3 804/2/3 803/2/3
f 792/2/6 806/2/6 805/2/6 804/2/6
f 613/2/5 803/2/5 650/2/5 617/2/5
f 619/3/1 620/3/1 807/3/1 808/3/1
f 619/3/3 808/3/3 809/3/3 810/3/3
f 808/3/6 807/3/6 811/3/6 809/3/6
f 619/3/5 810/3/5 669/3/5 620/3/5
f 810/4/3 809/4/3 812/4/3 813/4/3
f 809/4/6 811/4/6 814/4/6 812/4/6
f 810/4/5 813/4/5 675/4/5 669/4/5
f 815/4/2 816/4/2 817/4/2 681/4/2
f 813/4/3 812/4/3 816/4/3 815/4/3
f 812/4/6 814/4/6 817/4/6 816/4/6
f 813/4/5 815/4/5 681/4/5 675/4/5
f 624/4/2 818/4/2 819/4/2 625/4/2
f 630/4/1 629/4/1 820/4/1 821/4/1
f 630/4/3 821/4/3 818/4/3 624/4/3
f 614/4/1 631/4/1 822/4/1 793/4/1
f 632/8/2 795/8/2 823/8/2 633/8/2
f 649/1/1 648/1/1 824/1/1 802/1/1
f 650/9/3 805/9/3 825/9/3 651/9/3
f 653/9/4 652/9/4 826/9/4 827/9/4
f 651/9/3 825/9/3 828/9/3 654/9/3
f 652/9/4 655/9/4 829/9/4 826/9/4
f 654/1/3 828/1/3 830/1/3 656/1/3
f 655/1/4 657/1/4 831/1/4 829/1/4
f 656/1/3 830/1/3 832/1/3 658/1/3
f 657/1/4 659/1/4 833/1/4 831/1/4
f 658/1/3 832/1/3 834/1/3 660/1/3
f 659/1/4 661/1/4 835/1/4 833/1/4
f 660/1/3 834/1/3 836/1/3 662/1/3
f 661/1/4 663/1/4 837/1/4 835/1/4
f 662/9/3 836/9/3 838/9/3 664/9/3
f 663/9/4 665/9/4 839/9/4 837/9/4
f 664/9/3 838/9/3 840/9/3 666/9/3
f 665/9/4 667/9/4 841/9/4 839/9/4
f 666/9/3 840/9/3 842/9/3 621/9/3
f 667/9/4 668/9/4 843/9/4 841/9/4
f 621/5/3 842/5/3 807/5/3 620/5/3
f 668/5/4 673/5/4 844/5/4 843/5/4
f 814/4/6 845/4/6 846/4/6 817/4/6
f 675/4/5 681/4/5 680/4/5 676/4/5
f 681/3/3 817/3/3 820/3/3 629/3/3
f 680/3/4 683/3/4 847/3/4 846/3/4
f 625/4/2 819/4/2 848/4/2 684/4/2
f 631/4/1 686/4/1 849/4/1 822/4/1
f 633/4/3 823/4/3 850/4/3 634/4/3
f 634/4/3 850/4/3 851/4/3 636/4/3
f 636/4/3 851/4/3 852/4/3 638/4/3
f 638/4/3 852/4/3 853/4/3 640/4/3
f 640/3/3 853/3/3 854/3/3 642/3/3
f 642/3/3 854/3/3 855/3/3 644/3/3
f 644/3/3 855/3/3 856/3/3 646/3/3
f 646/3/3 856/3/3 824/3/3 648/3/3
f 653/2/2 827/2/2 857/2/2 690/2/2
f 673/3/1 691/3/1 858/3/1 844/3/1
f 691/3/4 859/3/4 860/3/4 858/3/4
f 844/3/6 858/3/6 860/3/6 861/3/6
f 673/3/5 672/3/5 859/3/5 691/3/5
f 859/4/4 862/4/4 863/4/4 860/4/4
f 861/4/6 860/4/6 863/4/6 845/4/6
f 672/4/5 676/4/5 862/4/5 859/4/5
f 680/4/2 846/4/2 864/4/2 865/4/2
f 862/4/4 865/4/4 864/4/4 863/4/4
f 845/4/6 863/4/6 864/4/6 846/4/6
f 676/4/5 680/4/5 865/4/5 862/4/5
f 684/4/2 848/4/2 866/4/2 694/4/2
f 683/4/1 697/4/1 867/4/1 847/4/1
f 697/4/4 694/4/4 866/4/4 867/4/4
f 686/6/1 698/6/1 868/6/1 849/6/1
f 869/3/6 870/3/6 871/3/6 872/3/6
f 872/4/6 871/4/6 873/4/6 874/4/6
f 702/1/4 701/1/4 875/1/4 873/1/4
f 874/1/6 873/1/6 875/1/6 876/1/6
f 701/1/4 704/1/4 877/1/4 875/1/4
f 876/1/6 875/1/6 877/1/6 878/1/6
f 704/1/4 706/1/4 879/1/4 877/1/4
f 878/1/6 877/1/6 879/1/6 880/1/6
f 706/1/4 708/1/4 881/1/4 879/1/4
f 708/1/4 710/1/4 882/1/4 881/1/4
f 710/1/4 712/1/4 883/1/4 882/1/4
f 690/2/2 857/2/2 884/2/2 713/2/2
f 712/2/4 713/2/4 884/2/4 883/2/4
f 698/3/1 715/3/1 885/3/1 868/3/1
f 886/3/6 887/3/6 888/3/6 870/3/6
f 870/3/6 888/3/6 889/3/6 871/3/6
f 700/3/5 699/3/5 722/3/5 716/3/5
f 702/1/2 873/1/2 890/1/2 719/1/2
f 722/1/4 719/1/4 890/1/4 889/1/4
f 871/1/6 889/1/6 890/1/6 873/1/6
f 715/3/1 724/3/1 891/3/1 885/3/1
f 892/4/6 893/4/6 894/4/6 887/4/6
f 887/3/6 894/3/6 895/3/6 888/3/6
f 718/3/5 716/3/5 896/3/5 726/3/5
f 722/1/2 889/1/2 897/1/2 731/1/2
f 896/1/4 731/1/4 897/1/4 895/1/4
f 888/1/6 895/1/6 897/1/6 889/1/6
f 716/1/5 722/1/5 731/1/5 896/1/5
f 724/3/1 732/3/1 898/3/1 891/3/1
f 735/4/4 733/4/4 899/4/4 900/4/4
f 893/4/6 900/4/6 899/4/6 894/4/6
f 896/1/2 895/1/2 901/1/2 902/1/2
f 733/1/4 902/1/4 901/1/4 899/1/4
f 894/1/6 899/1/6 901/1/6 895/1/6
f 726/1/5 896/1/5 902/1/5 733/1/5
f 735/3/2 900/3/2 903/3/2 736/3/2
f 732/3/1 737/3/1 904/3/1 898/3/1
f 737/3/4 736/3/4 903/3/4 904/3/4
f 745/3/2 905/3/2 906/3/2 758/3/2
f 744/3/1 757/3/1 907/3/1 908/3/1
f 744/3/3 908/3/3 905/3/3 745/3/3
f 908/3/6 907/3/6 906/3/6 905/3/6
f 757/3/1 766/3/1 909/3/1 907/3/1
f 759/4/2 910/4/2 911/4/2 767/4/2
f 758/4/3 906/4/3 910/4/3 759/4/3
f 906/4/6 912/4/6 911/4/6 910/4/6
f 779/2/1 781/2/1 913/2/1 914/2/1
f 779/2/3 914/2/3 915/2/3 782/2/3
f 914/2/6 913/2/6 916/2/6 915/2/6
f 785/2/2 917/2/2 918/2/2 786/2/2
f 782/2/3 915/2/3 917/2/3 785/2/3
f 915/2/6 916/2/6 918/2/6 917/2/6
f 766/6/1 787/6/1 919/6/1 909/6/1
f 767/3/3 911/3/3 920/3/3 768/3/3
f 768/1/3 920/1/3 921/1/3 769/1/3
f 920/1/6 922/1/6 923/1/6 921/1/6
f 770/1/2 924/1/2 925/1/2 788/1/2
f 769/1/3 921/1/3 924/1/3 770/1/3
f 777/2/1 790/2/1 926/2/1 927/2/1
f 777/2/3 927/2/3 913/2/3 781/2/3
f 913/2/6 928/2/6 929/2/6 916/2/6
f 916/2/6 929/2/6 930/2/6 918/2/6
f 791/2/2 931/2/2 932/2/2 792/2/2
f 786/2/3 918/2/3 931/2/3 791/2/3
f 918/2/6 930/2/6 932/2/6 931/2/6
f 787/4/1 793/4/1 933/4/1 919/4/1
f 788/3/3 925/3/3 934/3/3 789/3/3
f 789/4/3 934/4/3 926/4/3 790/4/3
f 928/4/6 935/4/6 936/4/6 929/4/6
f 929/4/6 936/4/6 937/4/6 930/4/6
f 792/3/2 932/3/2 938/3/2 806/3/2
f 808/3/2 939/3/2 940/3/2 807/3/2
f 941/3/1 842/3/1 942/3/1 943/3/1
f 941/3/3 943/3/3 939/3/3 808/3/3
f 943/3/6 942/3/6 940/3/6 939/3/6
f 941/3/5 808/3/5 807/3/5 842/3/5
f 818/4/2 944/4/2 945/4/2 819/4/2
f 821/4/1 820/4/1 946/4/1 947/4/1
f 821/4/3 947/4/3 944/4/3 818/4/3
f 947/4/6 946/4/6 945/4/6 944/4/6
f 793/4/1 822/4/1 948/4/1 933/4/1
f 795/4/5 794/4/5 850/4/5 823/4/5
f 794/4/5 796/4/5 851/4/5 850/4/5
f 796/4/5 797/4/5 852/4/5 851/4/5
f 797/4/5 798/4/5 853/4/5 852/4/5
f 798/3/5 799/3/5 854/3/5 853/3/5
f 799/3/5 800/3/5 855/3/5 854/3/5
f 800/3/5 801/3/5 856/3/5 855/3/5
f 801/3/5 802/3/5 824/3/5 856/3/5
f 806/5/3 938/5/3 949/5/3 805/5/3
f 805/7/3 949/7/3 950/7/3 825/7/3
f 827/7/4 826/7/4 951/7/4 952/7/4
f 825/9/3 950/9/3 953/9/3 828/9/3
f 826/9/4 829/9/4 954/9/4 951/9/4
f 828/9/3 953/9/3 955/9/3 830/9/3
f 829/9/4 831/9/4 956/9/4 954/9/4
f 830/9/3 955/9/3 957/9/3 832/9/3
f 831/9/4 833/9/4 958/9/4 956/9/4
f 832/9/3 957/9/3 959/9/3 834/9/3
f 833/9/4 835/9/4 960/9/4 958/9/4
f 834/9/3 959/9/3 961/9/3 836/9/3
f 835/9/4 837/9/4 962/9/4 960/9/4
f 836/9/3 961/9/3 963/9/3 838/9/3
f 837/9/4 839/9/4 964/9/4 962/9/4
f 838/7/3 963/7/3 965/7/3 840/7/3
f 839/7/4 841/7/4 966/7/4 964/7/4
f 840/5/3 965/5/3 942/5/3 842/5/3
f 841/5/4 843/5/4 967/5/4 966/5/4
f 807/3/3 940/3/3 968/3/3 811/3/3
f 844/3/4 861/3/4 969/3/4 970/3/4
f 940/3/6 970/3/6 969/3/6 968/3/6
f 814/4/2 971/4/2 972/4/2 845/4/2
f 811/4/3 968/4/3 971/4/3 814/4/3
f 861/4/4 845/4/4 972/4/4 969/4/4
f 968/4/6 969/4/6 972/4/6 971/4/6
f 817/3/1 846/3/1 973/3/1 974/3/1
f 817/3/3 974/3/3 946/3/3 820/3/3
f 846/3/4 847/3/4 975/3/4 973/3/4
f 974/3/6 973/3/6 975/3/6 946/3/6
f 819/4/2 945/4/2 976/4/2 848/4/2
f 946/4/6 975/4/6 976/4/6 945/4/6
f 822/4/1 849/4/1 977/4/1 948/4/1
f 869/3/4 872/3/4 978/3/4 979/3/4
f 872/3/4 874/3/4 980/3/4 978/3/4
f 874/3/4 876/3/4 981/3/4 980/3/4
f 876/4/4 878/4/4 982/4/4 981/4/4
f 878/4/4 880/4/4 983/4/4 982/4/4
f 984/4/6 985/4/6 986/4/6 987/4/6
f 827/2/2 952/2/2 988/2/2 857/2/2
f 844/3/2 970/3/2 989/3/2 858/3/2
f 843/3/1 990/3/1 991/3/1 967/3/1
f 990/3/4 858/3/4 989/3/4 991/3/4
f 967/3/6 991/3/6 989/3/6 970/3/6
f 843/3/5 844/3/5 858/3/5 990/3/5
f 848/4/2 976/4/2 992/4/2 866/4/2
f 847/4/1 867/4/1 993/4/1 975/4/1
f 867/4/4 866/4/4 992/4/4 993/4/4
f 975/4/6 993/4/6 992/4/6 976/4/6
f 849/6/1 868/6/1 994/6/1 977/6/1
f 869/3/2 979/3/2 995/3/2 870/3/2
f 886/3/4 870/3/4 995/3/4 996/3/4
f 880/1/1 879/1/1 997/1/1 983/1/1
f 983/1/6 997/1/6 998/1/6 985/1/6
f 985/1/6 998/1/6 999/1/6 986/1/6
f 986/1/6 999/1/6 1000/1/6 1001/1/6
f 857/2/2 988/2/2 1002/2/2 884/2/2
f 883/2/4 884/2/4 1002/2/4 1000/2/4
f 1001/2/6 1000/2/6 1002/2/6 988/2/6
f 868/3/1 885/3/1 1003/3/1 994/3/1
f 886/4/2 996/4/2 1004/4/2 887/4/2
f 892/4/4 887/4/4 1004/4/4 1005/4/4
f 879/2/1 1006/2/1 1007/2/1 997/2/1
f 1006/2/4 1008/2/4 1009/2/4 1007/2/4
f 997/2/6 1007/2/6 1009/2/6 998/2/6
f 879/2/5 881/2/5 1008/2/5 1006/2/5
f 1008/2/4 1010/2/4 1011/2/4 1009/2/4
f 998/2/6 1009/2/6 1011/2/6 999/2/6
f 881/2/5 882/2/5 1010/2/5 1008/2/5
f 883/2/2 1000/2/2 1012/2/2 1013/2/2
f 1010/2/4 1013/2/4 1012/2/4 1011/2/4
f 999/2/6 1011/2/6 1012/2/6 1000/2/6
f 882/2/5 883/2/5 1013/2/5 1010/2/5
f 892/3/2 1005/3/2 1014/3/2 893/3/2
f 885/3/1 891/3/1 1015/3/1 1003/3/1
f 893/2/2 1014/2/2 1016/2/2 900/2/2
f 891/2/1 898/2/1 1017/2/1 1015/2/1
f 900/2/2 1016/2/2 1018/2/2 903/2/2
f 898/2/1 904/2/1 1019/2/1 1017/2/1
f 903/2/2 1018/2/2 1020/2/2 1021/2/2
f 904/2/1 1022/2/1 1023/2/1 1019/2/1
f 1019/2/6 1023/2/6 1020/2/6 1018/2/6
f 904/2/5 903/2/5 1021/2/5 1022/2/5
f 1021/2/2 1020/2/2 1024/2/2 1025/2/2
f 1022/2/1 1026/2/1 1027/2/1 1023/2/1
f 1023/2/6 1027/2/6 1024/2/6 1020/2/6
f 1022/2/5 1021/2/5 1025/2/5 1026/2/5
f 1025/2/2 1024/2/2 1028/2/2 1029/2/2
f 1026/2/1 1030/2/1 1031/2/1 1027/2/1
f 1030/2/4 1029/2/4 1028/2/4 1031/2/4
f 1027/2/6 1031/2/6 1028/2/6 1024/2/6
f 1026/2/5 1025/2/5 1029/2/5 1030/2/5
f 906/1/2 1032/1/2 1033/1/2 912/1/2
f 907/1/1 909/1/1 1034/1/1 1035/1/1
f 907/1/3 1035/1/3 1032/1/3 906/1/3
f 909/3/1 919/3/1 1036/3/1 1034/3/1
f 912/1/3 1033/1/3 1037/1/3 911/1/3
f 920/1/2 1038/1/2 1039/1/2 922/1/2
f 911/1/3 1037/1/3 1038/1/3 920/1/3
f 921/2/1 923/2/1 1040/2/1 1041/2/1
f 921/2/3 1041/2/3 1042/2/3 924/2/3
f 1041/2/6 1040/2/6 1043/2/6 1042/2/6
f 924/2/3 1042/2/3 1044/2/3 1045/2/3
f 1042/2/6 1043/2/6 1046/2/6 1044/2/6
f 924/2/5 1045/2/5 934/2/5 925/2/5
f 1045/2/3 1044/2/3 1047/2/3 927/2/3
f 1044/2/6 1046/2/6 1048/2/6 1047/2/6
f 1045/2/5 927/2/5 926/2/5 934/2/5
f 913/2/2 1049/2/2 1050/2/2 928/2/2
f 927/2/3 1047/2/3 1049/2/3 913/2/3
f 1047/2/6 1048/2/6 1050/2/6 1049/2/6
f 919/6/1 933/6/1 1051/6/1 1036/6/1
f 922/1/3 1039/1/3 1040/1/3 923/1/3
f 1040/1/6 1052/1/6 1053/1/6 1043/1/6
f 1043/1/6 1053/1/6 1054/1/6 1046/1/6
f 1046/1/6 1054/1/6 1055/1/6 1048/1/6
f 928/1/2 1050/1/2 1056/1/2 935/1/2
f 1048/1/6 1055/1/6 1056/1/6 1050/1/6
f 930/3/1 937/3/1 1057/3/1 1058/3/1
f 930/3/3 1058/3/3 1059/3/3 932/3/3
f 1058/3/6 1057/3/6 1060/3/6 1059/3/6
f 1061/3/2 1062/3/2 1063/3/2 949/3/2
f 932/3/3 1059/3/3 1062/3/3 1061/3/3
f 932/3/5 1061/3/5 949/3/5 938/3/5
f 943/3/2 1064/3/2 1065/3/2 942/3/2
f 1066/3/1 965/3/1 1067/3/1 1068/3/1
f 1066/3/3 1068/3/3 1064/3/3 943/3/3
f 1068/3/6 1067/3/6 1065/3/6 1064/3/6
f 1066/3/5 943/3/5 942/3/5 965/3/5
f 933/6/1 948/6/1 1069/6/1 1051/6/1
f 1053/1/6 1070/1/6 1071/1/6 1054/1/6
f 1054/1/6 1071/1/6 1072/1/6 1055/1/6
f 1055/1/6 1072/1/6 1073/1/6 1056/1/6
f 935/1/3 1056/1/3 1074/1/3 936/1/3
f 1056/1/6 1073/1/6 1075/1/6 1074/1/6
f 936/1/3 1074/1/3 1057/1/3 937/1/3
f 984/1/4 987/1/4 1076/1/4 1075/1/4
f 1074/1/6 1075/1/6 1076/1/6 1057/1/6
f 1057/3/6 1076/3/6 1077/3/6 1060/3/6
f 949/5/3 1063/5/3 1078/5/3 950/5/3
f 952/5/4 951/5/4 1079/5/4 1080/5/4
f 950/7/3 1078/7/3 1081/7/3 953/7/3
f 951/7/4 954/7/4 1082/7/4 1079/7/4
f 953/7/3 1081/7/3 1083/7/3 955/7/3
f 954/7/4 956/7/4 1084/7/4 1082/7/4
f 955/7/3 1083/7/3 1085/7/3 957/7/3
f 956/7/4 958/7/4 1086/7/4 1084/7/4
f 957/7/3 1085/7/3 1087/7/3 959/7/3
f 958/7/4 960/7/4 1088/7/4 1086/7/4
f 959/7/3 1087/7/3 1089/7/3 961/7/3
f 960/7/4 962/7/4 1090/7/4 1088/7/4
f 961/7/3 1089/7/3 1091/7/3 963/7/3
f 962/7/4 964/7/4 1092/7/4 1090/7/4
f 963/5/3 1091/5/3 1067/5/3 965/5/3
f 964/5/4 966/5/4 1093/5/4 1092/5/4
f 940/3/2 1094/3/2 1095/3/2 970/3/2
f 942/3/3 1065/3/3 1094/3/3 940/3/3
f 967/3/4 970/3/4 1095/3/4 1096/3/4
f 948/6/1 977/6/1 1097/6/1 1069/6/1
f 1098/3/6 1099/3/6 1100/3/6 1101/3/6
f 1101/1/6 1100/1/6 1102/1/6 1103/1/6
f 1103/1/6 1102/1/6 1104/1/6 1070/1/6
f 980/2/4 981/2/4 1105/2/4 1104/2/4
f 1070/2/6 1104/2/6 1105/2/6 1071/2/6
f 981/2/4 982/2/4 1106/2/4 1105/2/4
f 1071/2/6 1105/2/6 1106/2/6 1072/2/6
f 1072/1/6 1106/1/6 1107/1/6 1073/1/6
f 984/1/2 1075/1/2 1108/1/2 985/1/2
f 983/1/4 985/1/4 1108/1/4 1107/1/4
f 1073/1/6 1107/1/6 1108/1/6 1075/1/6
f 987/3/1 986/3/1 1109/3/1 1076/3/1
f 986/3/4 1001/3/4 1110/3/4 1109/3/4
f 1076/3/6 1109/3/6 1110/3/6 1077/3/6
f 952/3/2 1080/3/2 1111/3/2 988/3/2
f 1001/3/4 988/3/4 1111/3/4 1110/3/4
f 967/3/2 1096/3/2 1112/3/2 991/3/2
f 966/3/1 1113/3/1 1114/3/1 1093/3/1
f 1113/3/4 991/3/4 1112/3/4 1114/3/4
f 1093/3/6 1114/3/6 1112/3/6 1096/3/6
f 966/3/5 967/3/5 991/3/5 1113/3/5
f 977/3/1 994/3/1 1115/3/1 1097/3/1
f 1099/1/6 1116/1/6 1117/1/6 1100/1/6
f 1100/2/6 1117/2/6 1118/2/6 1102/2/6
f 979/2/5 978/2/5 1119/2/5 995/2/5
f 980/2/2 1104/2/2 1120/2/2 1121/2/2
f 1119/2/4 1121/2/4 1120/2/4 1118/2/4
f 1102/2/6 1118/2/6 1120/2/6 1104/2/6
f 978/2/5 980/2/5 1121/2/5 1119/2/5
f 983/2/2 1107/2/2 1122/2/2 997/2/2
f 982/2/1 1123/2/1 1124/2/1 1106/2/1
f 1123/2/4 997/2/4 1122/2/4 1124/2/4
f 1106/2/6 1124/2/6 1122/2/6 1107/2/6
f 982/2/5 983/2/5 997/2/5 1123/2/5
f 994/1/1 1003/1/1 1125/1/1 1115/1/1
f 996/2/5 995/2/5 1126/2/5 1004/2/5
f 1119/2/2 1118/2/2 1127/2/2 1128/2/2
f 1126/2/4 1128/2/4 1127/2/4 1129/2/4
f 1117/2/6 1129/2/6 1127/2/6 1118/2/6
f 995/2/5 1119/2/5 1128/2/5 1126/2/5
f 1003/2/1 1015/2/1 1130/2/1 1125/2/1
f 1014/2/4 1131/2/4 1132/2/4 1133/2/4
f 1005/2/5 1004/2/5 1131/2/5 1014/2/5
f 1126/2/2 1129/2/2 1134/2/2 1135/2/2
f 1131/2/4 1135/2/4 1134/2/4 1132/2/4
f 1136/2/6 1132/2/6 1134/2/6 1129/2/6
f 1004/2/5 1126/2/5 1135/2/5 1131/2/5
f 1014/2/2 1133/2/2 1137/2/2 1016/2/2
f 1015/2/1 1017/2/1 1138/2/1 1130/2/1
f 1016/2/2 1137/2/2 1139/2/2 1018/2/2
f 1017/2/1 1019/2/1 1140/2/1 1138/2/1
f 1019/2/4 1018/2/4 1139/2/4 1140/2/4
f 1141/1/2 1142/1/2 1143/1/2 1144/1/2
f 1145/1/1 1146/1/1 1147/1/1 1148/1/1
f 1145/1/3 1148/1/3 1142/1/3 1141/1/3
f 1148/1/6 1147/1/6 1143/1/6 1142/1/6
f 1145/1/5 1141/1/5 1144/1/5 1146/1/5
f 1144/1/2 1143/1/2 1149/1/2 1150/1/2
f 1146/1/1 1151/1/1 1152/1/1 1147/1/1
f 1146/1/5 1144/1/5 1150/1/5 1151/1/5
f 1151/1/1 1035/1/1 1153/1/1 1152/1/1
f 1151/1/5 1150/1/5 1032/1/5 1035/1/5
f 1154/2/2 1155/2/2 1156/2/2 1157/2/2
f 1150/2/3 1149/2/3 1155/2/3 1154/2/3
f 1032/2/4 1157/2/4 1156/2/4 1158/2/4
f 1150/2/5 1154/2/5 1157/2/5 1032/2/5
f 1032/1/2 1158/1/2 1159/1/2 1033/1/2
f 1035/1/1 1034/1/1 1160/1/1 1153/1/1
f 1034/1/1 1036/1/1 1161/1/1 1160/1/1
f 1160/1/6 1161/1/6 1162/1/6 1159/1/6
f 1033/2/3 1159/2/3 1163/2/3 1037/2/3
f 1038/2/2 1164/2/2 1165/2/2 1039/2/2
f 1037/2/3 1163/2/3 1164/2/3 1038/2/3
f 1163/2/6 1166/2/6 1165/2/6 1164/2/6
f 1036/3/1 1051/3/1 1167/3/1 1161/3/1
f 1040/2/2 1168/2/2 1169/2/2 1052/2/2
f 1039/2/3 1165/2/3 1168/2/3 1040/2/3
f 1165/2/6 1170/2/6 1169/2/6 1168/2/6
f 1059/3/1 1060/3/1 1171/3/1 1172/3/1
f 1059/3/3 1172/3/3 1173/3/3 1062/3/3
f 1172/3/6 1171/3/6 1174/3/6 1173/3/6
f 1175/3/2 1176/3/2 1177/3/2 1078/3/2
f 1062/3/3 1173/3/3 1176/3/3 1175/3/3
f 1062/3/5 1175/3/5 1078/3/5 1063/3/5
f 1068/3/2 1178/3/2 1179/3/2 1067/3/2
f 1180/3/1 1091/3/1 1181/3/1 1182/3/1
f 1180/3/3 1182/3/3 1178/3/3 1068/3/3
f 1182/3/6 1181/3/6 1179/3/6 1178/3/6
f 1180/3/5 1068/3/5 1067/3/5 1091/3/5
f 1051/3/1 1069/3/1 1183/3/1 1167/3/1
f 1098/3/4 1101/3/4 1184/3/4 1185/3/4
f 1101/3/4 1103/3/4 1186/3/4 1184/3/4
f 1053/2/2 1187/2/2 1188/2/2 1070/2/2
f 1052/2/3 1169/2/3 1187/2/3 1053/2/3
f 1103/2/4 1070/2/4 1188/2/4 1186/2/4
f 1169/2/6 1186/2/6 1188/2/6 1187/2/6
f 1060/3/1 1077/3/1 1189/3/1 1171/3/1
f 1171/3/6 1189/3/6 1190/3/6 1174/3/6
f 1078/5/3 1177/5/3 1191/5/3 1081/5/3
f 1079/5/4 1082/5/4 1192/5/4 1193/5/4
f 1081/5/3 1191/5/3 1194/5/3 1083/5/3
f 1082/5/4 1084/5/4 1195/5/4 1192/5/4
f 1083/5/3 1194/5/3 1196/5/3 1085/5/3
f 1084/5/4 1086/5/4 1197/5/4 1195/5/4
f 1085/5/3 1196/5/3 1198/5/3 1087/5/3
f 1086/5/4 1088/5/4 1199/5/4 1197/5/4
f 1087/5/3 1198/5/3 1200/5/3 1089/5/3
f 1088/5/4 1090/5/4 1201/5/4 1199/5/4
f 1089/5/3 1200/5/3 1181/5/3 1091/5/3
f 1067/3/3 1179/3/3 1202/3/3 1065/3/3
f 1093/3/4 1096/3/4 1203/3/4 1204/3/4
f 1094/1/2 1205/1/2 1206/1/2 1095/1/2
f 1065/1/3 1202/1/3 1205/1/3 1094/1/3
f 1096/1/4 1095/1/4 1206/1/4 1203/1/4
f 1069/3/1 1097/3/1 1207/3/1 1183/3/1
f 1098/4/2 1185/4/2 1208/4/2 1099/4/2
f 1209/4/6 1210/4/6 1208/4/6 1185/4/6
f 1077/3/1 1110/3/1 1211/3/1 1189/3/1
f 1110/3/4 1111/3/4 1212/3/4 1211/3/4
f 1189/3/6 1211/3/6 1212/3/6 1190/3/6
f 1079/3/2 1193/3/2 1213/3/2 1214/3/2
f 1111/3/4 1214/3/4 1213/3/4 1212/3/4
f 1080/3/5 1079/3/5 1214/3/5 1111/3/5
f 1090/7/1 1215/7/1 1216/7/1 1201/7/1
f 1215/7/4 1217/7/4 1218/7/4 1216/7/4
f 1090/7/5 1092/7/5 1217/7/5 1215/7/5
f 1093/3/2 1204/3/2 1219/3/2 1114/3/2
f 1217/3/4 1114/3/4 1219/3/4 1218/3/4
f 1220/3/6 1218/3/6 1219/3/6 1204/3/6
f 1092/3/5 1093/3/5 1114/3/5 1217/3/5
f 1097/2/1 1115/2/1 1221/2/1 1207/2/1
f 1099/2/2 1208/2/2 1222/2/2 1116/2/2
f 1210/2/6 1223/2/6 1222/2/6 1208/2/6
f 1115/1/1 1125/1/1 1224/1/1 1221/1/1
f 1223/2/6 1225/2/6 1226/2/6 1222/2/6
f 1117/2/2 1227/2/2 1228/2/2 1129/2/2
f 1116/2/3 1222/2/3 1227/2/3 1117/2/3
f 1136/2/4 1129/2/4 1228/2/4 1226/2/4
f 1222/2/6 1226/2/6 1228/2/6 1227/2/6
f 1125/1/1 1130/1/1 1229/1/1 1224/1/1
f 1224/1/6 1229/1/6 1230/1/6 1225/1/6
f 1136/2/2 1226/2/2 1231/2/2 1132/2/2
f 1133/2/4 1132/2/4 1231/2/4 1230/2/4
f 1225/2/6 1230/2/6 1231/2/6 1226/2/6
f 1133/2/2 1230/2/2 1232/2/2 1137/2/2
f 1130/2/1 1138/2/1 1233/2/1 1229/2/1
f 1137/2/2 1232/2/2 1234/2/2 1139/2/2
f 1138/2/1 1140/2/1 1235/2/1 1233/2/1
f 1139/2/2 1234/2/2 1236/2/2 1237/2/2
f 1140/2/1 1238/2/1 1239/2/1 1235/2/1
f 1140/2/5 1139/2/5 1237/2/5 1238/2/5
f 1237/2/2 1236/2/2 1240/2/2 1241/2/2
f 1238/2/1 1242/2/1 1243/2/1 1239/2/1
f 1239/2/6 1243/2/6 1240/2/6 1236/2/6
f 1238/2/5 1237/2/5 1241/2/5 1242/2/5
f 1241/2/2 1240/2/2 1244/2/2 1245/2/2
f 1242/2/1 1246/2/1 1247/2/1 1243/2/1
f 1243/2/6 1247/2/6 1244/2/6 1240/2/6
f 1242/2/5 1241/2/5 1245/2/5 1246/2/5
f 1245/2/2 1244/2/2 1248/2/2 1249/2/2
f 1246/2/1 1250/2/1 1251/2/1 1247/2/1
f 1250/2/4 1249/2/4 1248/2/4 1251/2/4
f 1247/2/6 1251/2/6 1248/2/6 1244/2/6
f 1246/2/5 1245/2/5 1249/2/5 1250/2/5
f 1252/2/2 1253/2/2 1254/2/2 1255/2/2
f 1256/2/1 1257/2/1 1258/2/1 1259/2/1
f 1256/2/3 1259/2/3 1253/2/3 1252/2/3
f 1259/2/6 1258/2/6 1254/2/6 1253/2/6
f 1256/2/5 1252/2/5 1255/2/5 1257/2/5
f 1255/2/2 1254/2/2 1260/2/2 1142/2/2
f 1257/2/1 1148/2/1 1261/2/1 1258/2/1
f 1148/2/4 1142/2/4 1260/2/4 1261/2/4
f 1258/2/6 1261/2/6 1260/2/6 1254/2/6
f 1257/2/5 1255/2/5 1142/2/5 1148/2/5
f 1147/1/1 1152/1/1 1262/1/1 1263/1/1
f 1147/1/3 1263/1/3 1264/1/3 1143/1/3
f 1265/2/2 1266/2/2 1267/2/2 1155/2/2
f 1143/2/3 1264/2/3 1266/2/3 1265/2/3
f 1264/2/6 1268/2/6 1267/2/6 1266/2/6
f 1143/2/5 1265/2/5 1155/2/5 1149/2/5
f 1152/1/1 1153/1/1 1269/1/1 1262/1/1
f 1155/1/2 1267/1/2 1270/1/2 1156/1/2
f 1158/1/4 1156/1/4 1270/1/4 1271/1/4
f 1268/1/6 1271/1/6 1270/1/6 1267/1/6
f 1158/1/2 1271/1/2 1272/1/2 1159/1/2
f 1153/1/1 1160/1/1 1273/1/1 1269/1/1
f 1160/1/4 1159/1/4 1272/1/4 1273/1/4
f 1269/1/6 1273/1/6 1272/1/6 1271/1/6
f 1163/2/2 1274/2/2 1275/2/2 1166/2/2
f 1159/2/1 1162/2/1 1276/2/1 1272/2/1
f 1159/2/3 1272/2/3 1274/2/3 1163/2/3
f 1272/2/6 1276/2/6 1275/2/6 1274/2/6
f 1161/3/1 1167/3/1 1277/3/1 1278/3/1
f 1161/3/3 1278/3/3 1276/3/3 1162/3/3
f 1278/3/6 1277/3/6 1279/3/6 1276/3/6
f 1165/2/2 1280/2/2 1281/2/2 1170/2/2
f 1166/2/3 1275/2/3 1280/2/3 1165/2/3
f 1173/3/1 1174/3/1 1282/3/1 1283/3/1
f 1173/3/3 1283/3/3 1284/3/3 1176/3/3
f 1283/3/6 1282/3/6 1285/3/6 1284/3/6
f 1176/3/3 1284/3/3 1286/3/3 1287/3/3
f 1284/3/6 1285/3/6 1288/3/6 1286/3/6
f 1176/3/5 1287/3/5 1191/3/5 1177/3/5
f 1287/3/3 1286/3/3 1289/3/3 1290/3/3
f 1286/3/6 1288/3/6 1291/3/6 1289/3/6
f 1287/3/5 1290/3/5 1194/3/5 1191/3/5
f 1290/3/3 1289/3/3 1292/3/3 1293/3/3
f 1289/3/6 1291/3/6 1294/3/6 1292/3/6
f 1290/3/5 1293/3/5 1196/3/5 1194/3/5
f 1293/3/3 1292/3/3 1295/3/3 1296/3/3
f 1292/3/6 1294/3/6 1297/3/6 1295/3/6
f 1293/3/5 1296/3/5 1198/3/5 1196/3/5
f 1296/3/3 1295/3/3 1298/3/3 1299/3/3
f 1295/3/6 1297/3/6 1300/3/6 1298/3/6
f 1296/3/5 1299/3/5 1200/3/5 1198/3/5
f 1182/3/2 1301/3/2 1302/3/2 1181/3/2
f 1299/3/3 1298/3/3 1301/3/3 1182/3/3
f 1298/3/6 1300/3/6 1302/3/6 1301/3/6
f 1299/3/5 1182/3/5 1181/3/5 1200/3/5
f 1167/3/1 1183/3/1 1303/3/1 1277/3/1
f 1209/4/4 1185/4/4 1304/4/4 1305/4/4
f 1185/3/4 1184/3/4 1306/3/4 1304/3/4
f 1169/2/2 1307/2/2 1308/2/2 1186/2/2
f 1170/2/3 1281/2/3 1307/2/3 1169/2/3
f 1184/2/4 1186/2/4 1308/2/4 1306/2/4
f 1281/2/6 1306/2/6 1308/2/6 1307/2/6
f 1174/3/1 1190/3/1 1309/3/1 1282/3/1
f 1282/3/6 1309/3/6 1310/3/6 1285/3/6
f 1285/1/6 1310/1/6 1311/1/6 1288/1/6
f 1288/1/6 1311/1/6 1312/1/6 1291/1/6
f 1291/1/6 1312/1/6 1313/1/6 1294/1/6
f 1294/1/6 1313/1/6 1314/1/6 1297/1/6
f 1297/1/6 1314/1/6 1315/1/6 1300/1/6
f 1300/3/6 1315/3/6 1316/3/6 1302/3/6
f 1181/3/3 1302/3/3 1317/3/3 1179/3/3
f 1220/3/4 1204/3/4 1318/3/4 1316/3/4
f 1302/3/6 1316/3/6 1318/3/6 1317/3/6
f 1179/1/3 1317/1/3 1319/1/3 1202/1/3
f 1204/1/4 1203/1/4 1320/1/4 1318/1/4
f 1317/1/6 1318/1/6 1320/1/6 1319/1/6
f 1202/1/3 1319/1/3 1321/1/3 1205/1/3
f 1203/1/4 1206/1/4 1322/1/4 1320/1/4
f 1323/1/2 1324/1/2 1325/1/2 1326/1/2
f 1205/1/3 1321/1/3 1324/1/3 1323/1/3
f 1206/1/4 1326/1/4 1325/1/4 1322/1/4
f 1205/1/5 1323/1/5 1326/1/5 1206/1/5
f 1209/3/2 1305/3/2 1327/3/2 1210/3/2
f 1183/3/1 1207/3/1 1328/3/1 1303/3/1
f 1303/3/6 1328/3/6 1327/3/6 1305/3/6
f 1190/3/1 1212/3/1 1329/3/1 1309/3/1
f 1212/3/4 1213/3/4 1330/3/4 1329/3/4
f 1309/3/6 1329/3/6 1330/3/6 1310/3/6
f 1213/3/4 1331/3/4 1332/3/4 1330/3/4
f 1310/3/6 1330/3/6 1332/3/6 1311/3/6
f 1193/3/5 1192/3/5 1331/3/5 1213/3/5
f 1331/3/4 1333/3/4 1334/3/4 1332/3/4
f 1311/3/6 1332/3/6 1334/3/6 1312/3/6
f 1192/3/5 1195/3/5 1333/3/5 1331/3/5
f 1333/3/4 1335/3/4 1336/3/4 1334/3/4
f 1312/3/6 1334/3/6 1336/3/6 1313/3/6
f 1195/3/5 1197/3/5 1335/3/5 1333/3/5
f 1335/3/4 1337/3/4 1338/3/4 1336/3/4
f 1313/3/6 1336/3/6 1338/3/6 1314/3/6
f 1197/3/5 1199/3/5 1337/3/5 1335/3/5
f 1337/3/4 1216/3/4 1339/3/4 1338/3/4
f 1314/3/6 1338/3/6 1339/3/6 1315/3/6
f 1199/3/5 1201/3/5 1216/3/5 1337/3/5
f 1220/3/2 1316/3/2 1340/3/2 1218/3/2
f 1216/3/4 1218/3/4 1340/3/4 1339/3/4
f 1315/3/6 1339/3/6 1340/3/6 1316/3/6
f 1210/2/2 1327/2/2 1341/2/2 1223/2/2
f 1207/2/1 1221/2/1 1342/2/1 1328/2/1
f 1328/2/6 1342/2/6 1341/2/6 1327/2/6
f 1223/2/2 1341/2/2 1343/2/2 1225/2/2
f 1221/2/1 1224/2/1 1344/2/1 1342/2/1
f 1224/2/4 1225/2/4 1343/2/4 1344/2/4
f 1230/1/2 1345/1/2 1346/1/2 1232/1/2
f 1229/1/1 1233/1/1 1347/1/1 1348/1/1
f 1229/1/3 1348/1/3 1345/1/3 1230/1/3
f 1348/1/6 1347/1/6 1346/1/6 1345/1/6
f 1233/1/1 1235/1/1 1349/1/1 1347/1/1
f 1350/1/2 1351/1/2 1352/1/2 1353/1/2
f 1232/1/3 1346/1/3 1351/1/3 1350/1/3
f 1234/1/4 1353/1/4 1352/1/4 1354/1/4
f 1346/1/6 1354/1/6 1352/1/6 1351/1/6
f 1232/1/5 1350/1/5 1353/1/5 1234/1/5
f 1234/1/2 1354/1/2 1355/1/2 1236/1/2
f 1235/1/1 1239/1/1 1356/1/1 1349/1/1
f 1239/1/4 1236/1/4 1355/1/4 1356/1/4
f 1260/2/2 1357/2/2 1358/2/2 1264/2/2
f 1261/2/1 1263/2/1 1359/2/1 1360/2/1
f 1261/2/3 1360/2/3 1357/2/3 1260/2/3
f 1261/2/5 1260/2/5 1264/2/5 1263/2/5
f 1264/1/2 1358/1/2 1361/1/2 1268/1/2
f 1263/1/1 1262/1/1 1362/1/1 1359/1/1
f 1268/1/2 1361/1/2 1363/1/2 1271/1/2
f 1262/1/1 1269/1/1 1364/1/1 1362/1/1
f 1269/1/4 1271/1/4 1363/1/4 1364/1/4
f 1362/1/6 1364/1/6 1363/1/6 1361/1/6
f 1276/1/1 1279/1/1 1365/1/1 1366/1/1
f 1276/1/3 1366/1/3 1367/1/3 1275/1/3
f 1366/1/6 1365/1/6 1368/1/6 1367/1/6
f 1280/2/2 1369/2/2 1370/2/2 1281/2/2
f 1275/2/3 1367/2/3 1369/2/3 1280/2/3
f 1367/2/6 1368/2/6 1370/2/6 1369/2/6
f 1277/3/1 1303/3/1 1371/3/1 1372/3/1
f 1277/3/3 1372/3/3 1365/3/3 1279/3/3
f 1303/3/4 1305/3/4 1373/3/4 1371/3/4
f 1305/4/4 1304/4/4 1374/4/4 1373/4/4
f 1281/2/2 1370/2/2 1375/2/2 1306/2/2
f 1304/2/4 1306/2/4 1375/2/4 1374/2/4
f 1368/2/6 1374/2/6 1375/2/6 1370/2/6
f 1319/1/1 1320/1/1 1376/1/1 1377/1/1
f 1319/1/3 1377/1/3 1378/1/3 1321/1/3
f 1320/1/4 1322/1/4 1379/1/4 1376/1/4
f 1377/1/6 1376/1/6 1379/1/6 1378/1/6
f 1321/1/3 1378/1/3 1380/1/3 1324/1/3
f 1322/1/4 1325/1/4 1381/1/4 1379/1/4
f 1382/1/2 1383/1/2 1384/1/2 1385/1/2
f 1324/1/3 1380/1/3 1383/1/3 1382/1/3
f 1325/1/4 1385/1/4 1384/1/4 1381/1/4
f 1324/1/5 1382/1/5 1385/1/5 1325/1/5
f 1341/2/2 1386/2/2 1387/2/2 1343/2/2
f 1342/2/1 1344/2/1 1388/2/1 1389/2/1
f 1342/2/3 1389/2/3 1386/2/3 1341/2/3
f 1344/2/4 1343/2/4 1387/2/4 1388/2/4
f 1389/2/6 1388/2/6 1387/2/6 1386/2/6
f 1346/1/2 1390/1/2 1391/1/2 1354/1/2
f 1347/1/1 1349/1/1 1392/1/1 1393/1/1
f 1347/1/3 1393/1/3 1390/1/3 1346/1/3
f 1393/1/6 1392/1/6 1391/1/6 1390/1/6
f 1354/1/2 1391/1/2 1394/1/2 1355/1/2
f 1349/1/1 1356/1/1 1395/1/1 1392/1/1
f 1356/1/4 1355/1/4 1394/1/4 1395/1/4
f 1392/1/6 1395/1/6 1394/1/6 1391/1/6
f 1357/1/2 1396/1/2 1397/1/2 1358/1/2
f 1360/1/1 1359/1/1 1398/1/1 1399/1/1
f 1360/1/3 1399/1/3 1396/1/3 1357/1/3
f 1358/1/2 1397/1/2 1400/1/2 1361/1/2
f 1359/1/1 1362/1/1 1401/1/1 1398/1/1
f 1362/1/4 1361/1/4 1400/1/4 1401/1/4
f 1398/1/6 1401/1/6 1400/1/6 1397/1/6
f 1366/2/2 1402/2/2 1403/2/2 1365/2/2
f 1404/2/1 1372/2/1 1405/2/1 1406/2/1
f 1404/2/3 1406/2/3 1402/2/3 1366/2/3
f 1406/2/6 1405/2/6 1403/2/6 1402/2/6
f 1404/2/5 1366/2/5 1365/2/5 1372/2/5
f 1372/3/1 1371/3/1 1407/3/1 1405/3/1
f 1371/3/4 1373/3/4 1408/3/4 1407/3/4
f 1368/1/2 1409/1/2 1410/1/2 1374/1/2
f 1365/1/3 1403/1/3 1409/1/3 1368/1/3
f 1373/1/4 1374/1/4 1410/1/4 1408/1/4
f 1403/1/6 1408/1/6 1410/1/6 1409/1/6
f 1378/1/1 1379/1/1 1411/1/1 1412/1/1
f 1378/1/3 1412/1/3 1413/1/3 1380/1/3
f 1379/1/4 1381/1/4 1414/1/4 1411/1/4
f 1412/1/6 1411/1/6 1414/1/6 1413/1/6
f 1380/1/3 1413/1/3 1415/1/3 1383/1/3
f 1381/1/4 1384/1/4 1416/1/4 1414/1/4
f 1413/1/6 1414/1/6 1416/1/6 1415/1/6
f 1383/1/3 1415/1/3 1417/1/3 1418/1/3
f 1384/1/4 1419/1/4 1420/1/4 1416/1/4
f 1415/1/6 1416/1/6 1420/1/6 1417/1/6
f 1383/1/5 1418/1/5 1419/1/5 1384/1/5
f 1421/1/2 1422/1/2 1423/1/2 1424/1/2
f 1418/1/3 1417/1/3 1422/1/3 1421/1/3
f 1419/1/4 1424/1/4 1423/1/4 1420/1/4
f 1417/1/6 1420/1/6 1423/1/6 1422/1/6
f 1418/1/5 1421/1/5 1424/1/5 1419/1/5
f 1387/2/2 1425/2/2 1426/2/2 1427/2/2
f 1388/2/1 1428/2/1 1429/2/1 1430/2/1
f 1388/2/3 1430/2/3 1425/2/3 1387/2/3
f 1430/2/6 1429/2/6 1426/2/6 1425/2/6
f 1388/2/5 1387/2/5 1427/2/5 1428/2/5
f 1427/2/2 1426/2/2 1431/2/2 1390/2/2
f 1428/2/1 1393/2/1 1432/2/1 1429/2/1
f 1393/2/4 1390/2/4 1431/2/4 1432/2/4
f 1428/2/5 1427/2/5 1390/2/5 1393/2/5
f 1394/1/2 1433/1/2 1434/1/2 1435/1/2
f 1395/1/1 1436/1/1 1437/1/1 1438/1/1
f 1395/1/3 1438/1/3 1433/1/3 1394/1/3
f 1436/1/4 1435/1/4 1434/1/4 1437/1/4
f 1395/1/5 1394/1/5 1435/1/5 1436/1/5
f 1439/1/2 1440/1/2 1441/1/2 1442/1/2
f 1443/1/1 1444/1/1 1445/1/1 1446/1/1
f 1443/1/3 1446/1/3 1440/1/3 1439/1/3
f 1446/1/6 1445/1/6 1441/1/6 1440/1/6
f 1443/1/5 1439/1/5 1442/1/5 1444/1/5
f 1442/1/2 1441/1/2 1447/1/2 1396/1/2
f 1444/1/1 1399/1/1 1448/1/1 1445/1/1
f 1445/1/6 1448/1/6 1447/1/6 1441/1/6
f 1444/1/5 1442/1/5 1396/1/5 1399/1/5
f 1396/1/2 1447/1/2 1449/1/2 1397/1/2
f 1399/1/1 1398/1/1 1450/1/1 1448/1/1
f 1398/1/4 1397/1/4 1449/1/4 1450/1/4
f 1448/1/6 1450/1/6 1449/1/6 1447/1/6
f 1451/2/2 1452/2/2 1453/2/2 1402/2/2
f 1454/2/1 1406/2/1 1455/2/1 1456/2/1
f 1454/2/3 1456/2/3 1452/2/3 1451/2/3
f 1406/2/4 1402/2/4 1453/2/4 1455/2/4
f 1456/2/6 1455/2/6 1453/2/6 1452/2/6
f 1454/2/5 1451/2/5 1402/2/5 1406/2/5
f 1403/1/2 1457/1/2 1458/1/2 1408/1/2
f 1405/1/1 1407/1/1 1459/1/1 1460/1/1
f 1405/1/3 1460/1/3 1457/1/3 1403/1/3
f 1407/1/4 1408/1/4 1458/1/4 1459/1/4
f 1426/2/2 1461/2/2 1462/2/2 1431/2/2
f 1429/2/1 1432/2/1 1463/2/1 1464/2/1
f 1429/2/3 1464/2/3 1461/2/3 1426/2/3
f 1464/2/6 1463/2/6 1462/2/6 1461/2/6
f 1431/2/2 1462/2/2 1465/2/2 1466/2/2
f 1432/2/1 1467/2/1 1468/2/1 1463/2/1
f 1467/2/4 1466/2/4 1465/2/4 1468/2/4
f 1432/2/5 1431/2/5 1466/2/5 1467/2/5
f 1433/1/2 1469/1/2 1470/1/2 1434/1/2
f 1438/1/1 1437/1/1 1471/1/1 1472/1/1
f 1438/1/3 1472/1/3 1469/1/3 1433/1/3
f 1472/1/6 1471/1/6 1470/1/6 1469/1/6
f 1434/1/2 1470/1/2 1473/1/2 1474/1/2
f 1437/1/1 1475/1/1 1476/1/1 1471/1/1
f 1437/1/5 1434/1/5 1474/1/5 1475/1/5
f 1474/1/2 1473/1/2 1477/1/2 1478/1/2
f 1475/1/1 1479/1/1 1480/1/1 1476/1/1
f 1479/1/4 1478/1/4 1477/1/4 1480/1/4
f 1475/1/5 1474/1/5 1478/1/5 1479/1/5
f 1481/2/2 1482/2/2 1483/2/2 1484/2/2
f 1485/2/1 1486/2/1 1487/2/1 1488/2/1
f 1485/2/3 1488/2/3 1482/2/3 1481/2/3
f 1488/2/6 1487/2/6 1483/2/6 1482/2/6
f 1485/2/5 1481/2/5 1484/2/5 1486/2/5
f 1484/2/2 1483/2/2 1489/2/2 1452/2/2
f 1486/2/1 1456/2/1 1490/2/1 1487/2/1
f 1456/2/4 1452/2/4 1489/2/4 1490/2/4
f 1487/2/6 1490/2/6 1489/2/6 1483/2/6
f 1486/2/5 1484/2/5 1452/2/5 1456/2/5
f 1457/1/2 1491/1/2 1492/1/2 1458/1/2
f 1460/1/1 1459/1/1 1493/1/1 1494/1/1
f 1460/1/3 1494/1/3 1491/1/3 1457/1/3
f 1459/1/4 1458/1/4 1492/1/4 1493/1/4
f 1462/2/2 1495/2/2 1496/2/2 1465/2/2
f 1463/2/1 1468/2/1 1497/2/1 1498/2/1
f 1463/2/3 1498/2/3 1495/2/3 1462/2/3
f 1468/2/4 1465/2/4 1496/2/4 1497/2/4
f 1498/2/6 1497/2/6 1496/2/6 1495/2/6
f 1470/1/2 1499/1/2 1500/1/2 1473/1/2
f 1471/1/1 1476/1/1 1501/1/1 1502/1/1
f 1471/1/3 1502/1/3 1499/1/3 1470/1/3
f 1502/1/6 1501/1/6 1500/1/6 1499/1/6
f 1473/1/2 1500/1/2 1503/1/2 1477/1/2
f 1476/1/1 1480/1/1 1504/1/1 1501/1/1
f 1480/1/4 1477/1/4 1503/1/4 1504/1/4
f 1501/1/6 1504/1/6 1503/1/6 1500/1/6
f 1505/2/2 1506/2/2 1507/2/2 1482/2/2
f 1508/2/1 1488/2/1 1509/2/1 1510/2/1
f 1508/2/3 1510/2/3 1506/2/3 1505/2/3
f 1488/2/4 1482/2/4 1507/2/4 1509/2/4
f 1510/2/6 1509/2/6 1507/2/6 1506/2/6
f 1508/2/5 1505/2/5 1482/2/5 1488/2/5
f 1511/1/2 1512/1/2 1513/1/2 1491/1/2
f 1514/1/1 1494/1/1 1515/1/1 1516/1/1
f 1514/1/3 1516/1/3 1512/1/3 1511/1/3
f 1514/1/5 1511/1/5 1491/1/5 1494/1/5
f 1491/1/2 1513/1/2 1517/1/2 1492/1/2
f 1494/1/1 1493/1/1 1518/1/1 1515/1/1
f 1493/1/4 1492/1/4 1517/1/4 1518/1/4
f 1515/1/6 1518/1/6 1517/1/6 1513/1/6
f 1519/2/2 1520/2/2 1521/2/2 1506/2/2
f 1522/2/1 1510/2/1 1523/2/1 1524/2/1
f 1522/2/3 1524/2/3 1520/2/3 1519/2/3
f 1510/2/4 1506/2/4 1521/2/4 1523/2/4
f 1524/2/6 1523/2/6 1521/2/6 1520/2/6
f 1522/2/5 1519/2/5 1506/2/5 1510/2/5
f 1512/1/2 1525/1/2 1526/1/2 1513/1/2
f 1516/1/1 1515/1/1 1527/1/1 1528/1/1
f 1516/1/3 1528/1/3 1525/1/3 1512/1/3
f 1515/1/4 1513/1/4 1526/1/4 1527/1/4
f 1528/1/6 1527/1/6 1526/1/6 1525/1/6
