mtllib Pino_romeron_Daniel_Felipe_Orjuela_Rodríguez_fase_4.mtl
o Pino_romeron_Daniel_Felipe_Orjuela_Rodríguez_fase_4
v -6.5000 -4.5000 2.0000
v -6.5000 -4.5000 1.0000
v -5.5000 -4.5000 1.0000
v -5.5000 -4.5000 2.0000
v -5.5000 -3.5000 2.0000
v -6.5000 -3.5000 2.0000
v -6.5000 -3.5000 1.0000
v -5.5000 -2.5000 2.0000
v -6.5000 -2.5000 2.0000
v -6.5000 -2.5000 1.0000
v -5.5000 -1.5000 2.0000
v -6.5000 -1.5000 2.0000
v -6.5000 -1.5000 1.0000
v -5.5000 -0.5000 2.0000
v -6.5000 -0.5000 2.0000
v -6.5000 -0.5000 1.0000
v -6.5000 0.5000 2.0000
v -5.5000 0.5000 2.0000
v -5.5000 0.5000 1.0000
v -6.5000 0.5000 1.0000
v -6.5000 1.5000 2.0000
v -6.5000 1.5000 1.0000
v -5.5000 1.5000 1.0000
v -5.5000 1.5000 2.0000
v -5.5000 2.5000 2.0000
v -6.5000 2.5000 2.0000
v -6.5000 2.5000 1.0000
v -6.5000 3.5000 2.0000
v -5.5000 3.5000 2.0000
v -5.5000 3.5000 1.0000
v -6.5000 3.5000 1.0000
v -6.5000 -4.5000 -0.0000
v -5.5000 -4.5000 -0.0000
v -6.5000 -3.5000 -0.0000
v -6.5000 -2.5000 -0.0000
v -5.5000 -2.5000 1.0000
v -5.5000 -2.5000 -0.0000
v -5.5000 -1.5000 -0.0000
v -5.5000 -1.5000 1.0000
v -6.5000 -1.5000 -0.0000
v -5.5000 -0.5000 -0.0000
v -5.5000 -0.5000 1.0000
v -6.5000 -0.5000 -0.0000
v -5.5000 0.5000 -0.0000
v -6.5000 0.5000 -0.0000
v -6.5000 1.5000 -0.0000
v -5.5000 1.5000 -0.0000
v -6.5000 2.5000 -0.0000
v -5.5000 3.5000 -0.0000
v -6.5000 3.5000 -0.0000
v -6.5000 -4.5000 -1.0000
v -5.5000 -4.5000 -1.0000
v -6.5000 -3.5000 -1.0000
v -5.5000 -3.5000 -1.0000
v -6.5000 -2.5000 -1.0000
v -5.5000 -2.5000 -1.0000
v -6.5000 -1.5000 -1.0000
v -5.5000 -1.5000 -1.0000
v -6.5000 -0.5000 -1.0000
v -5.5000 -0.5000 -1.0000
v -5.5000 0.5000 -1.0000
v -6.5000 0.5000 -1.0000
v -6.5000 1.5000 -1.0000
v -5.5000 1.5000 -1.0000
v -6.5000 2.5000 -1.0000
v -5.5000 2.5000 -1.0000
v -5.5000 3.5000 -1.0000
v -6.5000 3.5000 -1.0000
v -5.5000 1.5000 3.0000
v -4.5000 1.5000 2.0000
v -4.5000 1.5000 3.0000
v -4.5000 2.5000 3.0000
v -5.5000 2.5000 3.0000
v -4.5000 3.5000 3.0000
v -5.5000 3.5000 3.0000
v -4.5000 4.5000 3.0000
v -5.5000 4.5000 3.0000
v -5.5000 4.5000 2.0000
v -5.5000 5.5000 3.0000
v -4.5000 5.5000 3.0000
v -4.5000 5.5000 2.0000
v -5.5000 5.5000 2.0000
v -4.5000 -4.5000 1.0000
v -4.5000 -4.5000 2.0000
v -4.5000 -3.5000 2.0000
v -4.5000 -2.5000 2.0000
v -4.5000 -1.5000 2.0000
v -4.5000 -1.5000 1.0000
v -4.5000 -2.5000 1.0000
v -4.5000 -0.5000 2.0000
v -4.5000 -0.5000 1.0000
v -4.5000 0.5000 2.0000
v -4.5000 2.5000 2.0000
v -4.5000 2.5000 1.0000
v -4.5000 3.5000 1.0000
v -4.5000 3.5000 2.0000
v -5.5000 4.5000 1.0000
v -5.5000 5.5000 1.0000
v -5.5000 6.5000 2.0000
v -4.5000 6.5000 2.0000
v -4.5000 6.5000 1.0000
v -5.5000 6.5000 1.0000
v -4.5000 -4.5000 -0.0000
v -4.5000 -2.5000 -0.0000
v -4.5000 -0.5000 -0.0000
v -4.5000 0.5000 -0.0000
v -4.5000 0.5000 1.0000
v -4.5000 1.5000 -0.0000
v -4.5000 1.5000 1.0000
v -4.5000 2.5000 -0.0000
v -4.5000 3.5000 -0.0000
v -5.5000 4.5000 -0.0000
v -5.5000 5.5000 -0.0000
v -4.5000 6.5000 -0.0000
v -5.5000 6.5000 -0.0000
v -4.5000 -4.5000 -1.0000
v -4.5000 -3.5000 -1.0000
v -4.5000 -2.5000 -1.0000
v -4.5000 -1.5000 -0.0000
v -4.5000 -1.5000 -1.0000
v -4.5000 -0.5000 -1.0000
v -4.5000 0.5000 -1.0000
v -4.5000 1.5000 -1.0000
v -4.5000 2.5000 -1.0000
v -4.5000 3.5000 -1.0000
v -5.5000 4.5000 -1.0000
v -4.5000 4.5000 -1.0000
v -5.5000 5.5000 -1.0000
v -4.5000 5.5000 -1.0000
v -4.5000 6.5000 -1.0000
v -5.5000 6.5000 -1.0000
v -3.5000 1.5000 2.0000
v -3.5000 1.5000 3.0000
v -3.5000 2.5000 3.0000
v -3.5000 3.5000 3.0000
v -3.5000 3.5000 2.0000
v -3.5000 2.5000 2.0000
v -3.5000 4.5000 3.0000
v -3.5000 5.5000 3.0000
v -3.5000 5.5000 2.0000
v -3.5000 4.5000 2.0000
v -3.5000 -4.5000 1.0000
v -3.5000 -4.5000 2.0000
v -3.5000 -3.5000 2.0000
v -3.5000 -2.5000 2.0000
v -3.5000 -1.5000 2.0000
v -3.5000 -1.5000 1.0000
v -3.5000 -2.5000 1.0000
v -3.5000 -0.5000 2.0000
v -3.5000 -0.5000 1.0000
v -3.5000 0.5000 2.0000
v -3.5000 0.5000 1.0000
v -3.5000 1.5000 1.0000
v -3.5000 2.5000 1.0000
v -3.5000 3.5000 1.0000
v -3.5000 4.5000 1.0000
v -3.5000 5.5000 1.0000
v -3.5000 6.5000 2.0000
v -3.5000 6.5000 1.0000
v -3.5000 -4.5000 -0.0000
v -3.5000 -2.5000 -0.0000
v -3.5000 3.5000 -0.0000
v -3.5000 4.5000 -0.0000
v -3.5000 5.5000 -0.0000
v -3.5000 6.5000 -0.0000
v -3.5000 -4.5000 -1.0000
v -3.5000 -3.5000 -1.0000
v -3.5000 -2.5000 -1.0000
v -3.5000 -1.5000 -0.0000
v -3.5000 -1.5000 -1.0000
v -3.5000 -0.5000 -0.0000
v -3.5000 -0.5000 -1.0000
v -3.5000 0.5000 -0.0000
v -3.5000 0.5000 -1.0000
v -3.5000 1.5000 -0.0000
v -3.5000 1.5000 -1.0000
v -3.5000 2.5000 -0.0000
v -3.5000 2.5000 -1.0000
v -3.5000 3.5000 -1.0000
v -3.5000 4.5000 -1.0000
v -3.5000 5.5000 -1.0000
v -3.5000 6.5000 -1.0000
v -2.5000 2.5000 3.0000
v -2.5000 2.5000 2.0000
v -2.5000 1.5000 2.0000
v -2.5000 1.5000 3.0000
v -2.5000 4.5000 3.0000
v -2.5000 4.5000 2.0000
v -2.5000 3.5000 2.0000
v -2.5000 3.5000 3.0000
v -2.5000 -4.5000 1.0000
v -2.5000 -4.5000 2.0000
v -2.5000 -3.5000 2.0000
v -2.5000 -2.5000 2.0000
v -2.5000 -1.5000 2.0000
v -2.5000 -0.5000 2.0000
v -2.5000 -1.5000 1.0000
v -2.5000 -0.5000 1.0000
v -2.5000 0.5000 2.0000
v -2.5000 3.5000 1.0000
v -2.5000 2.5000 1.0000
v -2.5000 4.5000 1.0000
v -2.5000 -4.5000 -0.0000
v -2.5000 -1.5000 -0.0000
v -2.5000 -0.5000 -0.0000
v -2.5000 2.5000 -0.0000
v -2.5000 1.5000 1.0000
v -2.5000 1.5000 -0.0000
v -2.5000 4.5000 -0.0000
v -2.5000 3.5000 -0.0000
v -2.5000 -4.5000 -1.0000
v -2.5000 -3.5000 -1.0000
v -2.5000 -2.5000 -1.0000
v -2.5000 -1.5000 -1.0000
v -2.5000 -0.5000 -1.0000
v -2.5000 0.5000 -1.0000
v -2.5000 1.5000 -1.0000
v -2.5000 2.5000 -1.0000
v -2.5000 3.5000 -1.0000
v -2.5000 4.5000 -1.0000
v -2.5000 4.5000 4.0000
v -1.5000 4.5000 3.0000
v -1.5000 4.5000 4.0000
v -1.5000 5.5000 4.0000
v -2.5000 5.5000 4.0000
v -2.5000 5.5000 3.0000
v -1.5000 6.5000 4.0000
v -2.5000 6.5000 4.0000
v -2.5000 6.5000 3.0000
v -1.5000 7.5000 4.0000
v -2.5000 7.5000 4.0000
v -2.5000 7.5000 3.0000
v -2.5000 8.5000 4.0000
v -1.5000 8.5000 4.0000
v -1.5000 8.5000 3.0000
v -2.5000 8.5000 3.0000
v -2.5000 -9.5000 3.0000
v -2.5000 -9.5000 2.0000
v -1.5000 -9.5000 2.0000
v -1.5000 -9.5000 3.0000
v -1.5000 -8.5000 3.0000
v -2.5000 -8.5000 3.0000
v -2.5000 -8.5000 2.0000
v -1.5000 -7.5000 3.0000
v -2.5000 -7.5000 3.0000
v -2.5000 -7.5000 2.0000
v -1.5000 -6.5000 3.0000
v -2.5000 -6.5000 3.0000
v -2.5000 -6.5000 2.0000
v -1.5000 -5.5000 3.0000
v -2.5000 -5.5000 3.0000
v -2.5000 -5.5000 2.0000
v -1.5000 -4.5000 3.0000
v -2.5000 -4.5000 3.0000
v -1.5000 -3.5000 3.0000
v -2.5000 -3.5000 3.0000
v -1.5000 -2.5000 3.0000
v -2.5000 -2.5000 3.0000
v -2.5000 -1.5000 3.0000
v -1.5000 -1.5000 3.0000
v -1.5000 -1.5000 2.0000
v -2.5000 -0.5000 3.0000
v -1.5000 -0.5000 2.0000
v -1.5000 -0.5000 3.0000
v -1.5000 0.5000 3.0000
v -2.5000 0.5000 3.0000
v -1.5000 1.5000 3.0000
v -1.5000 2.5000 3.0000
v -1.5000 3.5000 3.0000
v -2.5000 5.5000 2.0000
v -1.5000 5.5000 3.0000
v -1.5000 5.5000 2.0000
v -1.5000 6.5000 2.0000
v -1.5000 6.5000 3.0000
v -2.5000 6.5000 2.0000
v -1.5000 7.5000 2.0000
v -1.5000 7.5000 3.0000
v -2.5000 7.5000 2.0000
v -2.5000 8.5000 2.0000
v -2.5000 9.5000 3.0000
v -1.5000 9.5000 3.0000
v -1.5000 9.5000 2.0000
v -2.5000 9.5000 2.0000
v -2.5000 -9.5000 1.0000
v -1.5000 -9.5000 1.0000
v -2.5000 -8.5000 1.0000
v -2.5000 -7.5000 1.0000
v -2.5000 -6.5000 1.0000
v -2.5000 -5.5000 1.0000
v -1.5000 -5.5000 2.0000
v -1.5000 -5.5000 1.0000
v -1.5000 -4.5000 1.0000
v -1.5000 -4.5000 2.0000
v -1.5000 -3.5000 1.0000
v -1.5000 -3.5000 2.0000
v -1.5000 -2.5000 1.0000
v -1.5000 -2.5000 2.0000
v -1.5000 -1.5000 1.0000
v -1.5000 -0.5000 1.0000
v -1.5000 0.5000 2.0000
v -1.5000 0.5000 1.0000
v -1.5000 1.5000 1.0000
v -1.5000 1.5000 2.0000
v -1.5000 2.5000 1.0000
v -1.5000 2.5000 2.0000
v -1.5000 3.5000 1.0000
v -1.5000 3.5000 2.0000
v -1.5000 4.5000 1.0000
v -1.5000 4.5000 2.0000
v -1.5000 5.5000 1.0000
v -2.5000 5.5000 1.0000
v -1.5000 6.5000 1.0000
v -2.5000 6.5000 1.0000
v -1.5000 7.5000 1.0000
v -2.5000 7.5000 1.0000
v -1.5000 8.5000 1.0000
v -1.5000 8.5000 2.0000
v -2.5000 8.5000 1.0000
v -1.5000 9.5000 1.0000
v -2.5000 9.5000 1.0000
v -2.5000 -9.5000 -0.0000
v -1.5000 -9.5000 -0.0000
v -2.5000 -8.5000 -0.0000
v -1.5000 -8.5000 1.0000
v -1.5000 -8.5000 -0.0000
v -1.5000 -7.5000 -0.0000
v -1.5000 -7.5000 1.0000
v -2.5000 -7.5000 -0.0000
v -1.5000 -6.5000 -0.0000
v -1.5000 -6.5000 1.0000
v -2.5000 -6.5000 -0.0000
v -1.5000 -5.5000 -0.0000
v -2.5000 -5.5000 -0.0000
v -1.5000 -4.5000 -0.0000
v -1.5000 -3.5000 -0.0000
v -1.5000 -2.5000 -0.0000
v -1.5000 -1.5000 -0.0000
v -1.5000 -0.5000 -0.0000
v -1.5000 1.5000 -0.0000
v -1.5000 0.5000 -0.0000
v -1.5000 3.5000 -0.0000
v -1.5000 4.5000 -0.0000
v -1.5000 5.5000 -0.0000
v -2.5000 5.5000 -0.0000
v -1.5000 6.5000 -0.0000
v -2.5000 6.5000 -0.0000
v -1.5000 7.5000 -0.0000
v -2.5000 7.5000 -0.0000
v -1.5000 8.5000 -0.0000
v -2.5000 8.5000 -0.0000
v -1.5000 9.5000 -0.0000
v -2.5000 9.5000 -0.0000
v -2.5000 -9.5000 -1.0000
v -1.5000 -9.5000 -1.0000
v -2.5000 -8.5000 -1.0000
v -1.5000 -8.5000 -1.0000
v -2.5000 -7.5000 -1.0000
v -1.5000 -7.5000 -1.0000
v -2.5000 -6.5000 -1.0000
v -1.5000 -6.5000 -1.0000
v -2.5000 -5.5000 -1.0000
v -1.5000 -5.5000 -1.0000
v -1.5000 -4.5000 -1.0000
v -1.5000 -3.5000 -1.0000
v -1.5000 -2.5000 -1.0000
v -1.5000 -1.5000 -1.0000
v -1.5000 -0.5000 -1.0000
v -1.5000 0.5000 -1.0000
v -1.5000 2.5000 -0.0000
v -1.5000 1.5000 -1.0000
v -1.5000 2.5000 -1.0000
v -1.5000 3.5000 -1.0000
v -2.5000 5.5000 -1.0000
v -1.5000 5.5000 -1.0000
v -1.5000 6.5000 -1.0000
v -2.5000 6.5000 -1.0000
v -1.5000 7.5000 -1.0000
v -2.5000 7.5000 -1.0000
v -1.5000 8.5000 -1.0000
v -2.5000 8.5000 -1.0000
v -1.5000 9.5000 -1.0000
v -2.5000 9.5000 -1.0000
v -2.5000 -4.5000 -2.0000
v -1.5000 -4.5000 -2.0000
v -2.5000 -3.5000 -2.0000
v -1.5000 -3.5000 -2.0000
v -2.5000 -2.5000 -2.0000
v -1.5000 -2.5000 -2.0000
v -1.5000 -1.5000 -2.0000
v -2.5000 -1.5000 -2.0000
v -2.5000 0.5000 -2.0000
v -1.5000 0.5000 -2.0000
v -2.5000 1.5000 -2.0000
v -1.5000 1.5000 -2.0000
v -2.5000 2.5000 -2.0000
v -1.5000 2.5000 -2.0000
v -2.5000 3.5000 -2.0000
v -1.5000 3.5000 -2.0000
v -2.5000 4.5000 -2.0000
v -1.5000 4.5000 -2.0000
v -2.5000 5.5000 -2.0000
v -1.5000 5.5000 -2.0000
v -2.5000 6.5000 -2.0000
v -1.5000 6.5000 -2.0000
v -2.5000 7.5000 -2.0000
v -1.5000 7.5000 -2.0000
v -2.5000 8.5000 -2.0000
v -1.5000 8.5000 -2.0000
v -1.5000 9.5000 -2.0000
v -2.5000 9.5000 -2.0000
v -1.5000 3.5000 4.0000
v -0.5000 3.5000 3.0000
v -0.5000 3.5000 4.0000
v -0.5000 4.5000 4.0000
v -0.5000 5.5000 4.0000
v -0.5000 6.5000 4.0000
v -0.5000 6.5000 3.0000
v -0.5000 5.5000 3.0000
v -0.5000 7.5000 4.0000
v -0.5000 7.5000 3.0000
v -0.5000 8.5000 4.0000
v -0.5000 8.5000 3.0000
v -0.5000 -9.5000 2.0000
v -0.5000 -9.5000 3.0000
v -0.5000 -8.5000 3.0000
v -0.5000 -7.5000 3.0000
v -0.5000 -6.5000 3.0000
v -0.5000 -7.5000 2.0000
v -0.5000 -6.5000 2.0000
v -0.5000 -5.5000 3.0000
v -0.5000 -4.5000 3.0000
v -0.5000 -4.5000 2.0000
v -0.5000 -5.5000 2.0000
v -0.5000 -3.5000 3.0000
v -0.5000 -3.5000 2.0000
v -0.5000 -2.5000 3.0000
v -0.5000 -2.5000 2.0000
v -0.5000 -1.5000 3.0000
v -0.5000 -0.5000 3.0000
v -0.5000 0.5000 3.0000
v -0.5000 1.5000 3.0000
v -0.5000 1.5000 2.0000
v -0.5000 0.5000 2.0000
v -0.5000 2.5000 3.0000
v -0.5000 2.5000 2.0000
v -0.5000 3.5000 2.0000
v -0.5000 4.5000 2.0000
v -0.5000 5.5000 2.0000
v -0.5000 4.5000 3.0000
v -0.5000 7.5000 2.0000
v -0.5000 8.5000 2.0000
v -0.5000 9.5000 3.0000
v -0.5000 9.5000 2.0000
v -0.5000 -9.5000 1.0000
v -0.5000 -7.5000 1.0000
v -0.5000 -8.5000 1.0000
v -0.5000 -6.5000 1.0000
v -0.5000 -5.5000 1.0000
v -0.5000 -2.5000 1.0000
v -0.5000 -1.5000 1.0000
v -0.5000 -1.5000 2.0000
v -0.5000 -0.5000 1.0000
v -0.5000 -0.5000 2.0000
v -0.5000 0.5000 1.0000
v -0.5000 9.5000 1.0000
v -0.5000 8.5000 1.0000
v -0.5000 -8.5000 -0.0000
v -0.5000 -9.5000 -0.0000
v -0.5000 -2.5000 -0.0000
v -0.5000 -1.5000 -0.0000
v -0.5000 -0.5000 -0.0000
v -0.5000 0.5000 -0.0000
v -0.5000 9.5000 -0.0000
v -0.5000 8.5000 -0.0000
v -0.5000 -9.5000 -1.0000
v -0.5000 -8.5000 -1.0000
v -0.5000 -7.5000 -0.0000
v -0.5000 -7.5000 -1.0000
v -0.5000 -6.5000 -0.0000
v -0.5000 -6.5000 -1.0000
v -0.5000 -5.5000 -0.0000
v -0.5000 -5.5000 -1.0000
v -0.5000 -4.5000 -0.0000
v -0.5000 -4.5000 -1.0000
v -0.5000 -3.5000 -0.0000
v -0.5000 -3.5000 -1.0000
v -0.5000 -2.5000 -1.0000
v -0.5000 -0.5000 -1.0000
v -0.5000 -1.5000 -1.0000
v -0.5000 1.5000 -0.0000
v -0.5000 1.5000 -1.0000
v -0.5000 0.5000 -1.0000
v -0.5000 3.5000 -1.0000
v -0.5000 3.5000 -0.0000
v -0.5000 4.5000 -0.0000
v -0.5000 5.5000 -0.0000
v -0.5000 5.5000 -1.0000
v -0.5000 9.5000 -1.0000
v -0.5000 8.5000 -1.0000
v -0.5000 -4.5000 -2.0000
v -0.5000 -2.5000 -2.0000
v -0.5000 -3.5000 -2.0000
v -0.5000 -1.5000 -2.0000
v -1.5000 -0.5000 -2.0000
v -0.5000 -0.5000 -2.0000
v -0.5000 0.5000 -2.0000
v -0.5000 1.5000 -2.0000
v -0.5000 2.5000 -1.0000
v -0.5000 2.5000 -2.0000
v -0.5000 3.5000 -2.0000
v -0.5000 4.5000 -2.0000
v -0.5000 5.5000 -2.0000
v -0.5000 6.5000 -1.0000
v -0.5000 6.5000 -2.0000
v -0.5000 7.5000 -1.0000
v -0.5000 7.5000 -2.0000
v -0.5000 8.5000 -2.0000
v -0.5000 9.5000 -2.0000
v -1.5000 -6.5000 -2.0000
v -1.5000 -6.5000 -3.0000
v -0.5000 -6.5000 -3.0000
v -0.5000 -6.5000 -2.0000
v -0.5000 -5.5000 -2.0000
v -1.5000 -5.5000 -2.0000
v -1.5000 -5.5000 -3.0000
v -1.5000 -4.5000 -3.0000
v -0.5000 -3.5000 -3.0000
v -1.5000 -3.5000 -3.0000
v -1.5000 -6.5000 -4.0000
v -0.5000 -6.5000 -4.0000
v -1.5000 -5.5000 -4.0000
v -0.5000 -5.5000 -4.0000
v -1.5000 -4.5000 -4.0000
v -0.5000 -4.5000 -4.0000
v -0.5000 -3.5000 -4.0000
v -1.5000 -3.5000 -4.0000
v 0.5000 3.5000 3.0000
v 0.5000 3.5000 4.0000
v 0.5000 4.5000 4.0000
v 0.5000 5.5000 4.0000
v 0.5000 5.5000 3.0000
v 0.5000 4.5000 3.0000
v 0.5000 6.5000 4.0000
v 0.5000 6.5000 3.0000
v 0.5000 7.5000 4.0000
v 0.5000 7.5000 3.0000
v 0.5000 8.5000 4.0000
v -0.5000 9.5000 4.0000
v 0.5000 9.5000 4.0000
v 0.5000 9.5000 3.0000
v 0.5000 -9.5000 2.0000
v 0.5000 -9.5000 3.0000
v 0.5000 -8.5000 3.0000
v 0.5000 -7.5000 3.0000
v 0.5000 -7.5000 2.0000
v 0.5000 -6.5000 2.0000
v 0.5000 -6.5000 3.0000
v 0.5000 -5.5000 3.0000
v 0.5000 -4.5000 3.0000
v 0.5000 -3.5000 3.0000
v 0.5000 -2.5000 3.0000
v 0.5000 -1.5000 3.0000
v 0.5000 -1.5000 2.0000
v 0.5000 -2.5000 2.0000
v 0.5000 -0.5000 3.0000
v 0.5000 -0.5000 2.0000
v 0.5000 0.5000 3.0000
v 0.5000 0.5000 2.0000
v 0.5000 1.5000 3.0000
v 0.5000 1.5000 2.0000
v 0.5000 2.5000 3.0000
v 0.5000 2.5000 2.0000
v 0.5000 3.5000 2.0000
v 0.5000 4.5000 2.0000
v 0.5000 7.5000 2.0000
v 0.5000 8.5000 2.0000
v 0.5000 9.5000 2.0000
v 0.5000 -9.5000 1.0000
v -0.5000 -4.5000 1.0000
v -0.5000 -3.5000 1.0000
v 0.5000 -2.5000 1.0000
v 0.5000 -3.5000 1.0000
v 0.5000 9.5000 1.0000
v 0.5000 8.5000 1.0000
v 0.5000 -9.5000 -0.0000
v 0.5000 -3.5000 -0.0000
v 0.5000 9.5000 -0.0000
v 0.5000 8.5000 -0.0000
v 0.5000 -9.5000 -1.0000
v 0.5000 -8.5000 -1.0000
v 0.5000 -7.5000 -1.0000
v 0.5000 -6.5000 -1.0000
v 0.5000 -5.5000 -1.0000
v 0.5000 -4.5000 -1.0000
v 0.5000 -3.5000 -1.0000
v 0.5000 -2.5000 -1.0000
v 0.5000 -2.5000 -0.0000
v 0.5000 -1.5000 -0.0000
v 0.5000 -0.5000 -0.0000
v 0.5000 -0.5000 -1.0000
v 0.5000 -1.5000 -1.0000
v 0.5000 0.5000 -0.0000
v 0.5000 0.5000 -1.0000
v 0.5000 3.5000 -1.0000
v 0.5000 3.5000 -0.0000
v 0.5000 4.5000 -0.0000
v 0.5000 5.5000 -0.0000
v 0.5000 5.5000 -1.0000
v 0.5000 9.5000 -1.0000
v 0.5000 8.5000 -1.0000
v 0.5000 -4.5000 -2.0000
v 0.5000 -1.5000 -2.0000
v 0.5000 -0.5000 -2.0000
v 0.5000 0.5000 -2.0000
v 0.5000 1.5000 -1.0000
v 0.5000 1.5000 -2.0000
v 0.5000 2.5000 -1.0000
v 0.5000 2.5000 -2.0000
v 0.5000 3.5000 -2.0000
v 0.5000 4.5000 -2.0000
v 0.5000 5.5000 -2.0000
v 0.5000 6.5000 -1.0000
v 0.5000 6.5000 -2.0000
v 0.5000 7.5000 -1.0000
v 0.5000 7.5000 -2.0000
v 0.5000 8.5000 -2.0000
v 0.5000 9.5000 -2.0000
v 0.5000 -6.5000 -3.0000
v 0.5000 -6.5000 -2.0000
v 0.5000 -5.5000 -2.0000
v -0.5000 -2.5000 -3.0000
v 0.5000 -2.5000 -3.0000
v 0.5000 -3.5000 -3.0000
v 0.5000 -1.5000 -3.0000
v -0.5000 -1.5000 -3.0000
v 0.5000 -6.5000 -4.0000
v 0.5000 -5.5000 -4.0000
v 0.5000 -4.5000 -4.0000
v 0.5000 -3.5000 -4.0000
v 1.5000 3.5000 3.0000
v 1.5000 3.5000 4.0000
v 1.5000 4.5000 4.0000
v 1.5000 5.5000 4.0000
v 1.5000 6.5000 4.0000
v 1.5000 6.5000 3.0000
v 1.5000 5.5000 3.0000
v 1.5000 7.5000 4.0000
v 1.5000 7.5000 3.0000
v 1.5000 8.5000 4.0000
v 1.5000 9.5000 4.0000
v 1.5000 9.5000 3.0000
v 1.5000 8.5000 3.0000
v 1.5000 -9.5000 2.0000
v 1.5000 -9.5000 3.0000
v 1.5000 -8.5000 3.0000
v 1.5000 -7.5000 3.0000
v 1.5000 -7.5000 2.0000
v 1.5000 -6.5000 2.0000
v 1.5000 -6.5000 3.0000
v 1.5000 -5.5000 3.0000
v 1.5000 -4.5000 3.0000
v 1.5000 -3.5000 3.0000
v 1.5000 -2.5000 3.0000
v 1.5000 -1.5000 3.0000
v 1.5000 -1.5000 2.0000
v 1.5000 -2.5000 2.0000
v 1.5000 -0.5000 3.0000
v 1.5000 0.5000 3.0000
v 1.5000 0.5000 2.0000
v 1.5000 -0.5000 2.0000
v 1.5000 1.5000 3.0000
v 1.5000 1.5000 2.0000
v 1.5000 2.5000 3.0000
v 1.5000 2.5000 2.0000
v 1.5000 3.5000 2.0000
v 1.5000 4.5000 2.0000
v 1.5000 5.5000 2.0000
v 0.5000 5.5000 2.0000
v 1.5000 7.5000 2.0000
v 1.5000 8.5000 2.0000
v 1.5000 9.5000 2.0000
v 1.5000 -9.5000 1.0000
v 1.5000 -5.5000 2.0000
v 1.5000 -5.5000 1.0000
v 1.5000 -4.5000 1.0000
v 1.5000 -4.5000 2.0000
v 1.5000 -3.5000 1.0000
v 1.5000 -3.5000 2.0000
v 1.5000 -2.5000 1.0000
v 1.5000 -0.5000 1.0000
v 0.5000 -0.5000 1.0000
v 0.5000 -1.5000 1.0000
v 1.5000 -1.5000 1.0000
v 1.5000 9.5000 1.0000
v 1.5000 8.5000 1.0000
v 1.5000 -9.5000 -0.0000
v 1.5000 -8.5000 1.0000
v 1.5000 -8.5000 -0.0000
v 1.5000 -7.5000 -0.0000
v 1.5000 -7.5000 1.0000
v 1.5000 -6.5000 -0.0000
v 1.5000 -6.5000 1.0000
v 1.5000 -5.5000 -0.0000
v 1.5000 -4.5000 -0.0000
v 1.5000 -3.5000 -0.0000
v 1.5000 9.5000 -0.0000
v 1.5000 8.5000 -0.0000
v 1.5000 -9.5000 -1.0000
v 1.5000 -8.5000 -1.0000
v 1.5000 -7.5000 -1.0000
v 1.5000 -6.5000 -1.0000
v 1.5000 -5.5000 -1.0000
v 1.5000 -4.5000 -1.0000
v 1.5000 -3.5000 -1.0000
v 1.5000 -2.5000 -1.0000
v 1.5000 -2.5000 -0.0000
v 1.5000 -1.5000 -0.0000
v 1.5000 -0.5000 -0.0000
v 1.5000 -0.5000 -1.0000
v 1.5000 -1.5000 -1.0000
v 1.5000 0.5000 -0.0000
v 1.5000 0.5000 -1.0000
v 1.5000 3.5000 -1.0000
v 1.5000 3.5000 -0.0000
v 1.5000 4.5000 -0.0000
v 1.5000 5.5000 -0.0000
v 1.5000 5.5000 -1.0000
v 1.5000 9.5000 -1.0000
v 1.5000 8.5000 -1.0000
v 1.5000 -4.5000 -2.0000
v 1.5000 -1.5000 -2.0000
v 1.5000 -0.5000 -2.0000
v 1.5000 0.5000 -2.0000
v 1.5000 1.5000 -1.0000
v 1.5000 1.5000 -2.0000
v 1.5000 2.5000 -1.0000
v 1.5000 2.5000 -2.0000
v 1.5000 3.5000 -2.0000
v 1.5000 4.5000 -2.0000
v 1.5000 5.5000 -2.0000
v 1.5000 6.5000 -1.0000
v 1.5000 6.5000 -2.0000
v 1.5000 7.5000 -1.0000
v 1.5000 7.5000 -2.0000
v 1.5000 8.5000 -2.0000
v 1.5000 9.5000 -2.0000
v 1.5000 -6.5000 -3.0000
v 1.5000 -6.5000 -2.0000
v 1.5000 -5.5000 -2.0000
v 1.5000 -2.5000 -3.0000
v 1.5000 -3.5000 -3.0000
v 1.5000 -1.5000 -3.0000
v 1.5000 -2.5000 -2.0000
v 1.5000 -6.5000 -4.0000
v 1.5000 -5.5000 -4.0000
v 1.5000 -4.5000 -4.0000
v 1.5000 -3.5000 -4.0000
v 2.5000 3.5000 3.0000
v 2.5000 3.5000 4.0000
v 2.5000 4.5000 4.0000
v 2.5000 4.5000 3.0000
v 2.5000 5.5000 4.0000
v 2.5000 6.5000 4.0000
v 2.5000 6.5000 3.0000
v 2.5000 5.5000 3.0000
v 2.5000 7.5000 4.0000
v 2.5000 7.5000 3.0000
v 2.5000 8.5000 4.0000
v 2.5000 8.5000 3.0000
v 2.5000 -9.5000 2.0000
v 2.5000 -9.5000 3.0000
v 2.5000 -8.5000 3.0000
v 2.5000 -7.5000 3.0000
v 2.5000 -6.5000 3.0000
v 2.5000 -7.5000 2.0000
v 2.5000 -6.5000 2.0000
v 2.5000 -5.5000 3.0000
v 2.5000 -4.5000 3.0000
v 2.5000 -4.5000 2.0000
v 2.5000 -5.5000 2.0000
v 2.5000 -3.5000 3.0000
v 2.5000 -3.5000 2.0000
v 2.5000 -2.5000 3.0000
v 2.5000 -2.5000 2.0000
v 2.5000 -1.5000 3.0000
v 2.5000 -0.5000 3.0000
v 2.5000 -1.5000 2.0000
v 2.5000 -0.5000 2.0000
v 2.5000 0.5000 3.0000
v 2.5000 1.5000 3.0000
v 2.5000 1.5000 2.0000
v 2.5000 0.5000 2.0000
v 2.5000 2.5000 3.0000
v 2.5000 2.5000 2.0000
v 2.5000 3.5000 2.0000
v 2.5000 4.5000 2.0000
v 2.5000 5.5000 2.0000
v 2.5000 7.5000 2.0000
v 2.5000 8.5000 2.0000
v 2.5000 9.5000 3.0000
v 2.5000 9.5000 2.0000
v 2.5000 -9.5000 1.0000
v 2.5000 -7.5000 1.0000
v 2.5000 -8.5000 1.0000
v 2.5000 -6.5000 1.0000
v 2.5000 -5.5000 1.0000
v 2.5000 -2.5000 1.0000
v 2.5000 -1.5000 1.0000
v 2.5000 -0.5000 1.0000
v 2.5000 0.5000 1.0000
v 1.5000 0.5000 1.0000
v 2.5000 9.5000 1.0000
v 2.5000 8.5000 1.0000
v 2.5000 -8.5000 -0.0000
v 2.5000 -9.5000 -0.0000
v 2.5000 -2.5000 -0.0000
v 2.5000 -1.5000 -0.0000
v 2.5000 -0.5000 -0.0000
v 2.5000 0.5000 -0.0000
v 2.5000 9.5000 -0.0000
v 2.5000 8.5000 -0.0000
v 2.5000 -9.5000 -1.0000
v 2.5000 -8.5000 -1.0000
v 2.5000 -7.5000 -0.0000
v 2.5000 -7.5000 -1.0000
v 2.5000 -6.5000 -0.0000
v 2.5000 -6.5000 -1.0000
v 2.5000 -5.5000 -0.0000
v 2.5000 -5.5000 -1.0000
v 2.5000 -4.5000 -0.0000
v 2.5000 -4.5000 -1.0000
v 2.5000 -3.5000 -0.0000
v 2.5000 -3.5000 -1.0000
v 2.5000 -2.5000 -1.0000
v 2.5000 -0.5000 -1.0000
v 2.5000 -1.5000 -1.0000
v 1.5000 1.5000 -0.0000
v 2.5000 1.5000 -0.0000
v 2.5000 1.5000 -1.0000
v 2.5000 3.5000 -1.0000
v 2.5000 3.5000 -0.0000
v 2.5000 4.5000 -0.0000
v 2.5000 5.5000 -0.0000
v 2.5000 5.5000 -1.0000
v 2.5000 9.5000 -1.0000
v 2.5000 8.5000 -1.0000
v 2.5000 -4.5000 -2.0000
v 2.5000 -1.5000 -2.0000
v 2.5000 -2.5000 -2.0000
v 2.5000 -0.5000 -2.0000
v 2.5000 0.5000 -2.0000
v 2.5000 0.5000 -1.0000
v 2.5000 1.5000 -2.0000
v 2.5000 2.5000 -1.0000
v 2.5000 2.5000 -2.0000
v 2.5000 3.5000 -2.0000
v 2.5000 4.5000 -2.0000
v 2.5000 5.5000 -2.0000
v 2.5000 6.5000 -1.0000
v 2.5000 6.5000 -2.0000
v 2.5000 7.5000 -1.0000
v 2.5000 7.5000 -2.0000
v 2.5000 8.5000 -2.0000
v 2.5000 9.5000 -2.0000
v 2.5000 -6.5000 -3.0000
v 2.5000 -6.5000 -2.0000
v 2.5000 -5.5000 -2.0000
v 2.5000 -5.5000 -3.0000
v 2.5000 -4.5000 -3.0000
v 2.5000 -2.5000 -3.0000
v 2.5000 -3.5000 -3.0000
v 2.5000 -6.5000 -4.0000
v 2.5000 -5.5000 -4.0000
v 2.5000 -4.5000 -4.0000
v 2.5000 -3.5000 -4.0000
v 3.5000 4.5000 3.0000
v 3.5000 4.5000 4.0000
v 3.5000 5.5000 4.0000
v 3.5000 5.5000 3.0000
v 3.5000 6.5000 4.0000
v 3.5000 6.5000 3.0000
v 3.5000 7.5000 4.0000
v 3.5000 7.5000 3.0000
v 3.5000 8.5000 4.0000
v 3.5000 8.5000 3.0000
v 3.5000 -9.5000 2.0000
v 3.5000 -9.5000 3.0000
v 3.5000 -8.5000 3.0000
v 3.5000 -8.5000 2.0000
v 3.5000 -7.5000 3.0000
v 3.5000 -7.5000 2.0000
v 3.5000 -6.5000 2.0000
v 3.5000 -6.5000 3.0000
v 3.5000 -5.5000 3.0000
v 3.5000 -5.5000 2.0000
v 3.5000 -4.5000 3.0000
v 3.5000 -4.5000 2.0000
v 3.5000 -3.5000 3.0000
v 3.5000 -3.5000 2.0000
v 3.5000 -2.5000 3.0000
v 3.5000 -2.5000 2.0000
v 3.5000 -1.5000 3.0000
v 3.5000 -1.5000 2.0000
v 3.5000 -0.5000 2.0000
v 3.5000 -0.5000 3.0000
v 3.5000 0.5000 3.0000
v 3.5000 0.5000 2.0000
v 3.5000 1.5000 3.0000
v 3.5000 1.5000 2.0000
v 3.5000 2.5000 3.0000
v 3.5000 3.5000 3.0000
v 3.5000 5.5000 2.0000
v 3.5000 6.5000 2.0000
v 2.5000 6.5000 2.0000
v 3.5000 7.5000 2.0000
v 3.5000 8.5000 2.0000
v 3.5000 9.5000 3.0000
v 3.5000 9.5000 2.0000
v 3.5000 -9.5000 1.0000
v 3.5000 -8.5000 1.0000
v 3.5000 -7.5000 1.0000
v 3.5000 -6.5000 1.0000
v 3.5000 -5.5000 1.0000
v 3.5000 -4.5000 1.0000
v 2.5000 -4.5000 1.0000
v 2.5000 -3.5000 1.0000
v 3.5000 -1.5000 1.0000
v 3.5000 -0.5000 1.0000
v 2.5000 1.5000 1.0000
v 2.5000 2.5000 1.0000
v 3.5000 2.5000 1.0000
v 3.5000 1.5000 1.0000
v 2.5000 3.5000 1.0000
v 3.5000 3.5000 1.0000
v 2.5000 4.5000 1.0000
v 2.5000 5.5000 1.0000
v 2.5000 6.5000 1.0000
v 3.5000 6.5000 1.0000
v 3.5000 7.5000 1.0000
v 2.5000 7.5000 1.0000
v 3.5000 8.5000 1.0000
v 3.5000 9.5000 1.0000
v 3.5000 -9.5000 -0.0000
v 3.5000 -8.5000 -0.0000
v 3.5000 -7.5000 -0.0000
v 3.5000 -6.5000 -0.0000
v 3.5000 -5.5000 -0.0000
v 3.5000 -4.5000 -0.0000
v 3.5000 -1.5000 -0.0000
v 3.5000 -0.5000 -0.0000
v 3.5000 1.5000 -0.0000
v 3.5000 3.5000 -0.0000
v 2.5000 6.5000 -0.0000
v 3.5000 6.5000 -0.0000
v 3.5000 7.5000 -0.0000
v 2.5000 7.5000 -0.0000
v 3.5000 8.5000 -0.0000
v 3.5000 9.5000 -0.0000
v 3.5000 -9.5000 -1.0000
v 3.5000 -8.5000 -1.0000
v 3.5000 -7.5000 -1.0000
v 3.5000 -6.5000 -1.0000
v 3.5000 -5.5000 -1.0000
v 3.5000 -4.5000 -1.0000
v 3.5000 -1.5000 -1.0000
v 3.5000 -0.5000 -1.0000
v 3.5000 0.5000 -1.0000
v 3.5000 2.5000 -0.0000
v 2.5000 2.5000 -0.0000
v 3.5000 6.5000 -1.0000
v 3.5000 7.5000 -1.0000
v 3.5000 8.5000 -1.0000
v 3.5000 9.5000 -1.0000
v 3.5000 -4.5000 -2.0000
v 3.5000 -3.5000 -2.0000
v 3.5000 -3.5000 -1.0000
v 3.5000 -2.5000 -2.0000
v 3.5000 -2.5000 -1.0000
v 3.5000 -1.5000 -2.0000
v 3.5000 0.5000 -2.0000
v 3.5000 1.5000 -2.0000
v 3.5000 1.5000 -1.0000
v 3.5000 2.5000 -2.0000
v 3.5000 2.5000 -1.0000
v 3.5000 3.5000 -2.0000
v 3.5000 3.5000 -1.0000
v 3.5000 4.5000 -2.0000
v 3.5000 4.5000 -1.0000
v 3.5000 5.5000 -2.0000
v 3.5000 5.5000 -1.0000
v 3.5000 6.5000 -2.0000
v 3.5000 7.5000 -2.0000
v 3.5000 8.5000 -2.0000
v 3.5000 9.5000 -2.0000
v 3.5000 -4.5000 -3.0000
v 3.5000 -3.5000 -3.0000
v 3.5000 -2.5000 -3.0000
v 4.5000 1.5000 2.0000
v 4.5000 1.5000 3.0000
v 4.5000 2.5000 3.0000
v 4.5000 3.5000 3.0000
v 4.5000 4.5000 3.0000
v 4.5000 5.5000 3.0000
v 4.5000 5.5000 2.0000
v 4.5000 -4.5000 1.0000
v 4.5000 -4.5000 2.0000
v 4.5000 -3.5000 2.0000
v 4.5000 -2.5000 2.0000
v 4.5000 -1.5000 2.0000
v 4.5000 -0.5000 2.0000
v 4.5000 0.5000 2.0000
v 4.5000 3.5000 1.0000
v 4.5000 2.5000 1.0000
v 4.5000 6.5000 2.0000
v 4.5000 6.5000 1.0000
v 4.5000 -4.5000 -0.0000
v 4.5000 -2.5000 1.0000
v 4.5000 -2.5000 -0.0000
v 4.5000 -1.5000 -0.0000
v 4.5000 -1.5000 1.0000
v 4.5000 -0.5000 -0.0000
v 4.5000 -0.5000 1.0000
v 4.5000 0.5000 -0.0000
v 4.5000 0.5000 1.0000
v 4.5000 1.5000 -0.0000
v 4.5000 1.5000 1.0000
v 4.5000 2.5000 -0.0000
v 4.5000 3.5000 -0.0000
v 4.5000 6.5000 -0.0000
v 4.5000 -4.5000 -1.0000
v 4.5000 -3.5000 -1.0000
v 4.5000 -2.5000 -1.0000
v 4.5000 -1.5000 -1.0000
v 4.5000 -0.5000 -1.0000
v 4.5000 0.5000 -1.0000
v 4.5000 1.5000 -1.0000
v 4.5000 2.5000 -1.0000
v 4.5000 3.5000 -1.0000
v 4.5000 4.5000 -1.0000
v 4.5000 5.5000 -1.0000
v 4.5000 6.5000 -1.0000
v 5.5000 1.5000 2.0000
v 5.5000 1.5000 3.0000
v 5.5000 2.5000 3.0000
v 5.5000 3.5000 3.0000
v 5.5000 4.5000 3.0000
v 5.5000 3.5000 2.0000
v 5.5000 4.5000 2.0000
v 5.5000 5.5000 3.0000
v 5.5000 5.5000 2.0000
v 5.5000 -4.5000 1.0000
v 5.5000 -4.5000 2.0000
v 5.5000 -3.5000 2.0000
v 5.5000 -2.5000 2.0000
v 5.5000 -1.5000 2.0000
v 5.5000 -1.5000 1.0000
v 5.5000 -2.5000 1.0000
v 5.5000 -0.5000 2.0000
v 5.5000 -0.5000 1.0000
v 5.5000 0.5000 2.0000
v 5.5000 0.5000 1.0000
v 5.5000 1.5000 1.0000
v 5.5000 2.5000 1.0000
v 5.5000 3.5000 1.0000
v 5.5000 4.5000 1.0000
v 5.5000 5.5000 1.0000
v 5.5000 6.5000 2.0000
v 5.5000 6.5000 1.0000
v 5.5000 -4.5000 -0.0000
v 5.5000 -2.5000 -0.0000
v 5.5000 3.5000 -0.0000
v 5.5000 4.5000 -0.0000
v 5.5000 5.5000 -0.0000
v 5.5000 6.5000 -0.0000
v 5.5000 -4.5000 -1.0000
v 5.5000 -3.5000 -1.0000
v 5.5000 -2.5000 -1.0000
v 5.5000 -1.5000 -0.0000
v 5.5000 -1.5000 -1.0000
v 5.5000 -0.5000 -0.0000
v 5.5000 -0.5000 -1.0000
v 5.5000 0.5000 -0.0000
v 5.5000 0.5000 -1.0000
v 5.5000 1.5000 -0.0000
v 5.5000 1.5000 -1.0000
v 5.5000 2.5000 -0.0000
v 5.5000 2.5000 -1.0000
v 5.5000 3.5000 -1.0000
v 5.5000 4.5000 -1.0000
v 5.5000 5.5000 -1.0000
v 5.5000 6.5000 -1.0000
v 6.5000 1.5000 2.0000
v 6.5000 1.5000 3.0000
v 6.5000 2.5000 3.0000
v 6.5000 2.5000 2.0000
v 6.5000 3.5000 3.0000
v 6.5000 3.5000 2.0000
v 6.5000 -4.5000 1.0000
v 6.5000 -4.5000 2.0000
v 6.5000 -3.5000 2.0000
v 6.5000 -3.5000 1.0000
v 6.5000 -2.5000 2.0000
v 6.5000 -2.5000 1.0000
v 6.5000 -1.5000 2.0000
v 6.5000 -1.5000 1.0000
v 6.5000 -0.5000 2.0000
v 6.5000 -0.5000 1.0000
v 6.5000 0.5000 2.0000
v 6.5000 0.5000 1.0000
v 6.5000 1.5000 1.0000
v 6.5000 2.5000 1.0000
v 6.5000 3.5000 1.0000
v 6.5000 4.5000 2.0000
v 6.5000 4.5000 1.0000
v 6.5000 -4.5000 -0.0000
v 6.5000 -3.5000 -0.0000
v 6.5000 -2.5000 -0.0000
v 6.5000 -1.5000 -0.0000
v 6.5000 -0.5000 -0.0000
v 6.5000 0.5000 -0.0000
v 6.5000 1.5000 -0.0000
v 6.5000 2.5000 -0.0000
v 6.5000 3.5000 -0.0000
v 6.5000 4.5000 -0.0000
v 6.5000 -4.5000 -1.0000
v 6.5000 -3.5000 -1.0000
v 6.5000 -2.5000 -1.0000
v 6.5000 -1.5000 -1.0000
v 6.5000 -0.5000 -1.0000
v 6.5000 0.5000 -1.0000
v 6.5000 1.5000 -1.0000
v 6.5000 2.5000 -1.0000
v 6.5000 3.5000 -1.0000
v 6.5000 4.5000 -1.0000
vt 0.001953 0.500000
vt 0.005859 0.500000
vt 0.009766 0.500000
vt 0.013672 0.500000
vt 0.017578 0.500000
vt 0.021484 0.500000
vt 0.025391 0.500000
vt 0.029297 0.500000
vt 0.033203 0.500000
vt 0.037109 0.500000
vt 0.041016 0.500000
vt 0.044922 0.500000
vt 0.048828 0.500000
vt 0.052734 0.500000
vt 0.056641 0.500000
vt 0.060547 0.500000
vt 0.064453 0.500000
vt 0.068359 0.500000
vt 0.072266 0.500000
vt 0.076172 0.500000
vt 0.080078 0.500000
vt 0.083984 0.500000
vt 0.087891 0.500000
vn 0.0 -1.0 0.0
vn 0.0 1.0 0.0
vn 0.0 0.0 1.0
vn 0.0 0.0 -1.0
vn -1.0 0.0 0.0
vn 1.0 0.0 0.0
usemtl mat_Pino_romeron_Daniel_Felipe_Orjuela_Rodríguez_fase_4
s off
f 1/1/1 2/1/1 3/1/1 4/1/1
f 1/1/3 4/1/3 5/1/3 6/1/3
f 1/1/5 6/1/5 7/1/5 2/1/5
f 6/2/3 5/2/3 8/2/3 9/2/3
f 6/2/5 9/2/5 10/2/5 7/2/5
f 9/2/3 8/2/3 11/2/3 12/2/3
f 9/2/5 12/2/5 13/2/5 10/2/5
f 12/2/3 11/2/3 14/2/3 15/2/3
f 12/2/5 15/2/5 16/2/5 13/2/5
f 17/2/2 18/2/2 19/2/2 20/2/2
f 15/2/3 14/2/3 18/2/3 17/2/3
f 15/2/5 17/2/5 20/2/5 16/2/5
f 21/3/1 22/3/1 23/3/1 24/3/1
f 21/3/3 24/3/3 25/3/3 26/3/3
f 21/3/5 26/3/5 27/3/5 22/3/5
f 28/4/2 29/4/2 30/4/2 31/4/2
f 26/4/3 25/4/3 29/4/3 28/4/3
f 26/4/5 28/4/5 31/4/5 27/4/5
f 2/5/1 32/5/1 33/5/1 3/5/1
f 2/5/5 7/5/5 34/5/5 32/5/5
f 7/5/5 10/5/5 35/5/5 34/5/5
f 36/6/6 37/6/6 38/6/6 39/6/6
f 10/6/5 13/6/5 40/6/5 35/6/5
f 39/6/6 38/6/6 41/6/6 42/6/6
f 13/6/5 16/6/5 43/6/5 40/6/5
f 20/1/2 19/1/2 44/1/2 45/1/2
f 16/1/5 20/1/5 45/1/5 43/1/5
f 22/3/1 46/3/1 47/3/1 23/3/1
f 22/3/5 27/3/5 48/3/5 46/3/5
f 31/7/2 30/7/2 49/7/2 50/7/2
f 27/7/5 31/7/5 50/7/5 48/7/5
f 32/1/1 51/1/1 52/1/1 33/1/1
f 51/1/4 53/1/4 54/1/4 52/1/4
f 32/1/5 34/1/5 53/1/5 51/1/5
f 53/2/4 55/2/4 56/2/4 54/2/4
f 34/2/5 35/2/5 55/2/5 53/2/5
f 55/3/4 57/3/4 58/3/4 56/3/4
f 35/3/5 40/3/5 57/3/5 55/3/5
f 57/3/4 59/3/4 60/3/4 58/3/4
f 40/3/5 43/3/5 59/3/5 57/3/5
f 45/8/2 44/8/2 61/8/2 62/8/2
f 59/8/4 62/8/4 61/8/4 60/8/4
f 43/8/5 45/8/5 62/8/5 59/8/5
f 46/8/1 63/8/1 64/8/1 47/8/1
f 63/8/4 65/8/4 66/8/4 64/8/4
f 46/8/5 48/8/5 65/8/5 63/8/5
f 50/7/2 49/7/2 67/7/2 68/7/2
f 65/7/4 68/7/4 67/7/4 66/7/4
f 48/7/5 50/7/5 68/7/5 65/7/5
f 69/3/1 24/3/1 70/3/1 71/3/1
f 69/3/3 71/3/3 72/3/3 73/3/3
f 69/3/5 73/3/5 25/3/5 24/3/5
f 73/8/3 72/8/3 74/8/3 75/8/3
f 73/8/5 75/8/5 29/8/5 25/8/5
f 75/4/3 74/4/3 76/4/3 77/4/3
f 75/4/5 77/4/5 78/4/5 29/4/5
f 79/9/2 80/9/2 81/9/2 82/9/2
f 77/9/3 76/9/3 80/9/3 79/9/3
f 77/9/5 79/9/5 82/9/5 78/9/5
f 4/2/1 3/2/1 83/2/1 84/2/1
f 4/2/3 84/2/3 85/2/3 5/2/3
f 5/3/3 85/3/3 86/3/3 8/3/3
f 8/8/3 86/8/3 87/8/3 11/8/3
f 36/8/4 39/8/4 88/8/4 89/8/4
f 11/4/3 87/4/3 90/4/3 14/4/3
f 39/4/4 42/4/4 91/4/4 88/4/4
f 14/8/3 90/8/3 92/8/3 18/8/3
f 18/3/3 92/3/3 70/3/3 24/3/3
f 18/3/5 24/3/5 23/3/5 19/3/5
f 93/7/6 94/7/6 95/7/6 96/7/6
f 29/8/5 78/8/5 97/8/5 30/8/5
f 78/4/5 82/4/5 98/4/5 97/4/5
f 99/10/2 100/10/2 101/10/2 102/10/2
f 82/10/3 81/10/3 100/10/3 99/10/3
f 82/10/5 99/10/5 102/10/5 98/10/5
f 3/5/1 33/5/1 103/5/1 83/5/1
f 36/5/2 89/5/2 104/5/2 37/5/2
f 42/11/1 41/11/1 105/11/1 91/11/1
f 91/11/6 105/11/6 106/11/6 107/11/6
f 107/1/6 106/1/6 108/1/6 109/1/6
f 19/1/5 23/1/5 47/1/5 44/1/5
f 109/6/6 108/6/6 110/6/6 94/6/6
f 94/12/6 110/12/6 111/12/6 95/12/6
f 30/8/5 97/8/5 112/8/5 49/8/5
f 97/4/5 98/4/5 113/4/5 112/4/5
f 102/10/2 101/10/2 114/10/2 115/10/2
f 98/10/5 102/10/5 115/10/5 113/10/5
f 33/11/1 52/11/1 116/11/1 103/11/1
f 52/11/4 54/11/4 117/11/4 116/11/4
f 54/3/4 56/3/4 118/3/4 117/3/4
f 37/4/3 104/4/3 119/4/3 38/4/3
f 56/4/4 58/4/4 120/4/4 118/4/4
f 38/4/3 119/4/3 105/4/3 41/4/3
f 58/4/4 60/4/4 121/4/4 120/4/4
f 60/4/4 61/4/4 122/4/4 121/4/4
f 61/8/4 64/8/4 123/8/4 122/8/4
f 44/8/5 47/8/5 64/8/5 61/8/5
f 64/3/4 66/3/4 124/3/4 123/3/4
f 66/4/4 67/4/4 125/4/4 124/4/4
f 67/4/4 126/4/4 127/4/4 125/4/4
f 49/4/5 112/4/5 126/4/5 67/4/5
f 126/9/4 128/9/4 129/9/4 127/9/4
f 112/9/5 113/9/5 128/9/5 126/9/5
f 115/13/2 114/13/2 130/13/2 131/13/2
f 128/13/4 131/13/4 130/13/4 129/13/4
f 113/13/5 115/13/5 131/13/5 128/13/5
f 71/3/1 70/3/1 132/3/1 133/3/1
f 71/3/3 133/3/3 134/3/3 72/3/3
f 72/8/3 134/8/3 135/8/3 74/8/3
f 93/8/4 96/8/4 136/8/4 137/8/4
f 134/8/6 137/8/6 136/8/6 135/8/6
f 74/8/3 135/8/3 138/8/3 76/8/3
f 80/4/2 139/4/2 140/4/2 81/4/2
f 76/4/3 138/4/3 139/4/3 80/4/3
f 138/4/6 141/4/6 140/4/6 139/4/6
f 84/1/1 83/1/1 142/1/1 143/1/1
f 84/1/3 143/1/3 144/1/3 85/1/3
f 85/3/3 144/3/3 145/3/3 86/3/3
f 86/3/3 145/3/3 146/3/3 87/3/3
f 89/3/4 88/3/4 147/3/4 148/3/4
f 87/8/3 146/8/3 149/8/3 90/8/3
f 88/8/4 91/8/4 150/8/4 147/8/4
f 90/8/3 149/8/3 151/8/3 92/8/3
f 91/8/4 107/8/4 152/8/4 150/8/4
f 92/8/3 151/8/3 132/8/3 70/8/3
f 107/8/4 109/8/4 153/8/4 152/8/4
f 93/2/2 137/2/2 154/2/2 94/2/2
f 109/2/4 94/2/4 154/2/4 153/2/4
f 96/11/1 95/11/1 155/11/1 136/11/1
f 141/11/6 156/11/6 157/11/6 140/11/6
f 100/10/2 158/10/2 159/10/2 101/10/2
f 81/10/3 140/10/3 158/10/3 100/10/3
f 140/10/6 157/10/6 159/10/6 158/10/6
f 83/6/1 103/6/1 160/6/1 142/6/1
f 89/5/2 148/5/2 161/5/2 104/5/2
f 95/11/1 111/11/1 162/11/1 155/11/1
f 156/11/6 163/11/6 164/11/6 157/11/6
f 101/10/2 159/10/2 165/10/2 114/10/2
f 157/10/6 164/10/6 165/10/6 159/10/6
f 103/2/1 116/2/1 166/2/1 160/2/1
f 116/2/4 117/2/4 167/2/4 166/2/4
f 117/3/4 118/3/4 168/3/4 167/3/4
f 104/8/3 161/8/3 169/8/3 119/8/3
f 118/8/4 120/8/4 170/8/4 168/8/4
f 119/8/3 169/8/3 171/8/3 105/8/3
f 120/8/4 121/8/4 172/8/4 170/8/4
f 105/8/3 171/8/3 173/8/3 106/8/3
f 121/8/4 122/8/4 174/8/4 172/8/4
f 106/4/3 173/4/3 175/4/3 108/4/3
f 122/4/4 123/4/4 176/4/4 174/4/4
f 108/3/3 175/3/3 177/3/3 110/3/3
f 123/3/4 124/3/4 178/3/4 176/3/4
f 110/4/3 177/4/3 162/4/3 111/4/3
f 124/4/4 125/4/4 179/4/4 178/4/4
f 125/8/4 127/8/4 180/8/4 179/8/4
f 127/3/4 129/3/4 181/3/4 180/3/4
f 163/3/6 180/3/6 181/3/6 164/3/6
f 114/9/2 165/9/2 182/9/2 130/9/2
f 129/9/4 130/9/4 182/9/4 181/9/4
f 164/9/6 181/9/6 182/9/6 165/9/6
f 134/6/2 183/6/2 184/6/2 137/6/2
f 133/6/1 132/6/1 185/6/1 186/6/1
f 133/6/3 186/6/3 183/6/3 134/6/3
f 138/6/2 187/6/2 188/6/2 141/6/2
f 135/6/1 136/6/1 189/6/1 190/6/1
f 135/6/3 190/6/3 187/6/3 138/6/3
f 143/5/1 142/5/1 191/5/1 192/5/1
f 143/5/3 192/5/3 193/5/3 144/5/3
f 144/5/3 193/5/3 194/5/3 145/5/3
f 145/5/3 194/5/3 195/5/3 146/5/3
f 146/5/3 195/5/3 196/5/3 149/5/3
f 195/5/6 197/5/6 198/5/6 196/5/6
f 149/5/3 196/5/3 199/5/3 151/5/3
f 151/6/3 199/6/3 185/6/3 132/6/3
f 137/3/3 184/3/3 189/3/3 136/3/3
f 154/3/4 155/3/4 200/3/4 201/3/4
f 137/3/5 136/3/5 155/3/5 154/3/5
f 141/3/2 188/3/2 202/3/2 156/3/2
f 142/5/1 160/5/1 203/5/1 191/5/1
f 148/5/5 147/5/5 169/5/5 161/5/5
f 197/5/6 204/5/6 205/5/6 198/5/6
f 147/5/5 150/5/5 171/5/5 169/5/5
f 150/5/5 152/5/5 173/5/5 171/5/5
f 152/5/5 153/5/5 175/5/5 173/5/5
f 154/14/2 201/14/2 206/14/2 177/14/2
f 207/14/6 208/14/6 206/14/6 201/14/6
f 153/14/5 154/14/5 177/14/5 175/14/5
f 156/8/2 202/8/2 209/8/2 163/8/2
f 155/8/1 162/8/1 210/8/1 200/8/1
f 160/5/1 166/5/1 211/5/1 203/5/1
f 166/5/4 167/5/4 212/5/4 211/5/4
f 167/5/4 168/5/4 213/5/4 212/5/4
f 168/5/4 170/5/4 214/5/4 213/5/4
f 170/5/4 172/5/4 215/5/4 214/5/4
f 204/5/6 214/5/6 215/5/6 205/5/6
f 172/5/4 174/5/4 216/5/4 215/5/4
f 174/1/4 176/1/4 217/1/4 216/1/4
f 176/3/4 178/3/4 218/3/4 217/3/4
f 177/3/3 206/3/3 210/3/3 162/3/3
f 178/3/4 179/3/4 219/3/4 218/3/4
f 163/3/2 209/3/2 220/3/2 180/3/2
f 179/3/4 180/3/4 220/3/4 219/3/4
f 221/3/1 187/3/1 222/3/1 223/3/1
f 221/3/3 223/3/3 224/3/3 225/3/3
f 221/3/5 225/3/5 226/3/5 187/3/5
f 225/15/3 224/15/3 227/15/3 228/15/3
f 225/15/5 228/15/5 229/15/5 226/15/5
f 228/4/3 227/4/3 230/4/3 231/4/3
f 228/4/5 231/4/5 232/4/5 229/4/5
f 233/7/2 234/7/2 235/7/2 236/7/2
f 231/7/3 230/7/3 234/7/3 233/7/3
f 231/7/5 233/7/5 236/7/5 232/7/5
f 237/8/1 238/8/1 239/8/1 240/8/1
f 237/8/3 240/8/3 241/8/3 242/8/3
f 237/8/5 242/8/5 243/8/5 238/8/5
f 242/8/3 241/8/3 244/8/3 245/8/3
f 242/8/5 245/8/5 246/8/5 243/8/5
f 245/6/3 244/6/3 247/6/3 248/6/3
f 245/6/5 248/6/5 249/6/5 246/6/5
f 248/3/3 247/3/3 250/3/3 251/3/3
f 248/3/5 251/3/5 252/3/5 249/3/5
f 251/4/3 250/4/3 253/4/3 254/4/3
f 251/4/5 254/4/5 192/4/5 252/4/5
f 254/4/3 253/4/3 255/4/3 256/4/3
f 254/4/5 256/4/5 193/4/5 192/4/5
f 256/4/3 255/4/3 257/4/3 258/4/3
f 256/4/5 258/4/5 194/4/5 193/4/5
f 259/8/2 260/8/2 261/8/2 195/8/2
f 258/8/3 257/8/3 260/8/3 259/8/3
f 258/8/5 259/8/5 195/8/5 194/8/5
f 262/1/1 196/1/1 263/1/1 264/1/1
f 262/1/3 264/1/3 265/1/3 266/1/3
f 262/1/5 266/1/5 199/1/5 196/1/5
f 266/8/3 265/8/3 267/8/3 186/8/3
f 266/8/5 186/8/5 185/8/5 199/8/5
f 186/4/3 267/4/3 268/4/3 183/4/3
f 183/8/3 268/8/3 269/8/3 190/8/3
f 183/8/5 190/8/5 189/8/5 184/8/5
f 190/4/3 269/4/3 222/4/3 187/4/3
f 187/11/5 226/11/5 270/11/5 188/11/5
f 271/7/6 272/7/6 273/7/6 274/7/6
f 226/7/5 229/7/5 275/7/5 270/7/5
f 274/4/6 273/4/6 276/4/6 277/4/6
f 229/4/5 232/4/5 278/4/5 275/4/5
f 232/7/5 236/7/5 279/7/5 278/7/5
f 280/16/2 281/16/2 282/16/2 283/16/2
f 236/16/3 235/16/3 281/16/3 280/16/3
f 236/16/5 280/16/5 283/16/5 279/16/5
f 238/1/1 284/1/1 285/1/1 239/1/1
f 238/1/5 243/1/5 286/1/5 284/1/5
f 243/11/5 246/11/5 287/11/5 286/11/5
f 246/2/5 249/2/5 288/2/5 287/2/5
f 249/6/5 252/6/5 289/6/5 288/6/5
f 290/6/6 291/6/6 292/6/6 293/6/6
f 252/6/5 192/6/5 191/6/5 289/6/5
f 293/6/6 292/6/6 294/6/6 295/6/6
f 295/6/6 294/6/6 296/6/6 297/6/6
f 195/2/2 261/2/2 298/2/2 197/2/2
f 196/6/1 198/6/1 299/6/1 263/6/1
f 300/5/6 301/5/6 302/5/6 303/5/6
f 207/1/4 201/1/4 304/1/4 302/1/4
f 303/1/6 302/1/6 304/1/6 305/1/6
f 201/6/4 200/6/4 306/6/4 304/6/4
f 305/6/6 304/6/6 306/6/6 307/6/6
f 307/2/6 306/2/6 308/2/6 309/2/6
f 309/8/6 308/8/6 310/8/6 272/8/6
f 188/8/5 270/8/5 311/8/5 202/8/5
f 272/4/6 310/4/6 312/4/6 273/4/6
f 270/4/5 275/4/5 313/4/5 311/4/5
f 273/8/6 312/8/6 314/8/6 276/8/6
f 275/8/5 278/8/5 315/8/5 313/8/5
f 276/7/6 314/7/6 316/7/6 317/7/6
f 278/7/5 279/7/5 318/7/5 315/7/5
f 283/13/2 282/13/2 319/13/2 320/13/2
f 279/13/5 283/13/5 320/13/5 318/13/5
f 284/1/1 321/1/1 322/1/1 285/1/1
f 284/1/5 286/1/5 323/1/5 321/1/5
f 324/6/6 325/6/6 326/6/6 327/6/6
f 286/6/5 287/6/5 328/6/5 323/6/5
f 327/6/6 326/6/6 329/6/6 330/6/6
f 287/6/5 288/6/5 331/6/5 328/6/5
f 330/6/6 329/6/6 332/6/6 291/6/6
f 288/6/5 289/6/5 333/6/5 331/6/5
f 291/6/6 332/6/6 334/6/6 292/6/6
f 289/6/5 191/6/5 203/6/5 333/6/5
f 292/5/6 334/5/6 335/5/6 294/5/6
f 294/5/6 335/5/6 336/5/6 296/5/6
f 197/2/2 298/2/2 337/2/2 204/2/2
f 198/5/1 205/5/1 338/5/1 299/5/1
f 207/5/2 302/5/2 339/5/2 208/5/2
f 301/5/6 340/5/6 339/5/6 302/5/6
f 200/3/1 210/3/1 341/3/1 306/3/1
f 306/3/6 341/3/6 342/3/6 308/3/6
f 308/8/6 342/8/6 343/8/6 310/8/6
f 202/8/5 311/8/5 344/8/5 209/8/5
f 310/3/6 343/3/6 345/3/6 312/3/6
f 311/3/5 313/3/5 346/3/5 344/3/5
f 312/8/6 345/8/6 347/8/6 314/8/6
f 313/8/5 315/8/5 348/8/5 346/8/5
f 314/9/6 347/9/6 349/9/6 316/9/6
f 315/9/5 318/9/5 350/9/5 348/9/5
f 320/17/2 319/17/2 351/17/2 352/17/2
f 318/17/5 320/17/5 352/17/5 350/17/5
f 321/3/1 353/3/1 354/3/1 322/3/1
f 353/3/4 355/3/4 356/3/4 354/3/4
f 321/3/5 323/3/5 355/3/5 353/3/5
f 355/4/4 357/4/4 358/4/4 356/4/4
f 323/4/5 328/4/5 357/4/5 355/4/5
f 357/8/4 359/8/4 360/8/4 358/8/4
f 328/8/5 331/8/5 359/8/5 357/8/5
f 359/8/4 361/8/4 362/8/4 360/8/4
f 331/8/5 333/8/5 361/8/5 359/8/5
f 361/3/4 211/3/4 363/3/4 362/3/4
f 333/3/5 203/3/5 211/3/5 361/3/5
f 335/2/6 364/2/6 365/2/6 336/2/6
f 204/11/2 337/11/2 366/11/2 214/11/2
f 205/1/1 215/1/1 367/1/1 338/1/1
f 215/1/4 216/1/4 368/1/4 367/1/4
f 208/3/3 339/3/3 369/3/3 206/3/3
f 339/3/6 370/3/6 371/3/6 369/3/6
f 206/3/3 369/3/3 341/3/3 210/3/3
f 369/3/6 371/3/6 372/3/6 341/3/6
f 209/3/5 344/3/5 373/3/5 220/3/5
f 343/4/6 374/4/6 375/4/6 345/4/6
f 344/4/5 346/4/5 376/4/5 373/4/5
f 345/4/6 375/4/6 377/4/6 347/4/6
f 346/4/5 348/4/5 378/4/5 376/4/5
f 347/7/6 377/7/6 379/7/6 349/7/6
f 348/7/5 350/7/5 380/7/5 378/7/5
f 352/18/2 351/18/2 381/18/2 382/18/2
f 350/18/5 352/18/5 382/18/5 380/18/5
f 211/2/1 383/2/1 384/2/1 363/2/1
f 383/2/4 385/2/4 386/2/4 384/2/4
f 211/2/5 212/2/5 385/2/5 383/2/5
f 385/8/4 387/8/4 388/8/4 386/8/4
f 212/8/5 213/8/5 387/8/5 385/8/5
f 214/8/2 366/8/2 389/8/2 390/8/2
f 387/8/4 390/8/4 389/8/4 388/8/4
f 213/8/5 214/8/5 390/8/5 387/8/5
f 216/4/1 391/4/1 392/4/1 368/4/1
f 391/4/4 393/4/4 394/4/4 392/4/4
f 216/4/5 217/4/5 393/4/5 391/4/5
f 393/3/4 395/3/4 396/3/4 394/3/4
f 217/3/5 218/3/5 395/3/5 393/3/5
f 395/8/4 397/8/4 398/8/4 396/8/4
f 218/8/5 219/8/5 397/8/5 395/8/5
f 397/7/4 399/7/4 400/7/4 398/7/4
f 219/7/5 220/7/5 399/7/5 397/7/5
f 399/4/4 401/4/4 402/4/4 400/4/4
f 220/4/5 373/4/5 401/4/5 399/4/5
f 401/8/4 403/8/4 404/8/4 402/8/4
f 373/8/5 376/8/5 403/8/5 401/8/5
f 403/8/4 405/8/4 406/8/4 404/8/4
f 376/8/5 378/8/5 405/8/5 403/8/5
f 405/8/4 407/8/4 408/8/4 406/8/4
f 378/8/5 380/8/5 407/8/5 405/8/5
f 382/9/2 381/9/2 409/9/2 410/9/2
f 407/9/4 410/9/4 409/9/4 408/9/4
f 380/9/5 382/9/5 410/9/5 407/9/5
f 411/11/1 269/11/1 412/11/1 413/11/1
f 411/11/3 413/11/3 414/11/3 223/11/3
f 411/11/5 223/11/5 222/11/5 269/11/5
f 223/11/3 414/11/3 415/11/3 224/11/3
f 224/19/3 415/19/3 416/19/3 227/19/3
f 271/19/4 274/19/4 417/19/4 418/19/4
f 227/4/3 416/4/3 419/4/3 230/4/3
f 274/4/4 277/4/4 420/4/4 417/4/4
f 234/7/2 421/7/2 422/7/2 235/7/2
f 230/7/3 419/7/3 421/7/3 234/7/3
f 240/8/1 239/8/1 423/8/1 424/8/1
f 240/8/3 424/8/3 425/8/3 241/8/3
f 241/4/3 425/4/3 426/4/3 244/4/3
f 244/6/3 426/6/3 427/6/3 247/6/3
f 426/6/6 428/6/6 429/6/6 427/6/6
f 247/3/3 427/3/3 430/3/3 250/3/3
f 250/4/3 430/4/3 431/4/3 253/4/3
f 290/4/4 293/4/4 432/4/4 433/4/4
f 253/4/3 431/4/3 434/4/3 255/4/3
f 293/4/4 295/4/4 435/4/4 432/4/4
f 255/8/3 434/8/3 436/8/3 257/8/3
f 295/8/4 297/8/4 437/8/4 435/8/4
f 257/8/3 436/8/3 438/8/3 260/8/3
f 260/8/3 438/8/3 439/8/3 264/8/3
f 260/8/5 264/8/5 263/8/5 261/8/5
f 264/2/3 439/2/3 440/2/3 265/2/3
f 265/8/3 440/8/3 441/8/3 267/8/3
f 300/8/4 303/8/4 442/8/4 443/8/4
f 267/8/3 441/8/3 444/8/3 268/8/3
f 303/8/4 305/8/4 445/8/4 442/8/4
f 268/8/3 444/8/3 412/8/3 269/8/3
f 305/8/4 307/8/4 446/8/4 445/8/4
f 307/3/4 309/3/4 447/3/4 446/3/4
f 271/5/2 418/5/2 448/5/2 272/5/2
f 309/5/4 272/5/4 448/5/4 447/5/4
f 449/5/6 447/5/6 448/5/6 418/5/6
f 277/8/1 276/8/1 450/8/1 420/8/1
f 276/8/4 317/8/4 451/8/4 450/8/4
f 281/17/2 452/17/2 453/17/2 282/17/2
f 235/17/3 422/17/3 452/17/3 281/17/3
f 239/1/1 285/1/1 454/1/1 423/1/1
f 324/3/4 327/3/4 455/3/4 456/3/4
f 327/3/4 330/3/4 457/3/4 455/3/4
f 290/6/2 433/6/2 458/6/2 291/6/2
f 330/6/4 291/6/4 458/6/4 457/6/4
f 297/2/1 296/2/1 459/2/1 437/2/1
f 437/2/6 459/2/6 460/2/6 461/2/6
f 461/5/6 460/5/6 462/5/6 463/5/6
f 261/5/5 263/5/5 299/5/5 298/5/5
f 300/6/2 443/6/2 464/6/2 301/6/2
f 463/6/6 462/6/6 464/6/6 443/6/6
f 282/20/2 453/20/2 465/20/2 319/20/2
f 317/20/1 316/20/1 466/20/1 451/20/1
f 324/1/2 456/1/2 467/1/2 325/1/2
f 285/1/1 322/1/1 468/1/1 454/1/1
f 296/2/1 336/2/1 469/2/1 459/2/1
f 459/2/6 469/2/6 470/2/6 460/2/6
f 460/5/6 470/5/6 471/5/6 462/5/6
f 298/5/5 299/5/5 338/5/5 337/5/5
f 301/5/2 464/5/2 472/5/2 340/5/2
f 462/5/6 471/5/6 472/5/6 464/5/6
f 319/17/2 465/17/2 473/17/2 351/17/2
f 316/17/1 349/17/1 474/17/1 466/17/1
f 322/3/1 354/3/1 475/3/1 468/3/1
f 354/3/4 356/3/4 476/3/4 475/3/4
f 325/3/3 467/3/3 477/3/3 326/3/3
f 356/3/4 358/3/4 478/3/4 476/3/4
f 326/2/3 477/2/3 479/2/3 329/2/3
f 358/2/4 360/2/4 480/2/4 478/2/4
f 329/2/3 479/2/3 481/2/3 332/2/3
f 360/2/4 362/2/4 482/2/4 480/2/4
f 332/3/3 481/3/3 483/3/3 334/3/3
f 362/3/4 363/3/4 484/3/4 482/3/4
f 335/5/2 485/5/2 486/5/2 364/5/2
f 334/5/3 483/5/3 485/5/3 335/5/3
f 336/8/1 365/8/1 487/8/1 469/8/1
f 366/3/4 367/3/4 488/3/4 489/3/4
f 337/3/5 338/3/5 367/3/5 366/3/5
f 339/5/2 490/5/2 491/5/2 370/5/2
f 340/5/3 472/5/3 490/5/3 339/5/3
f 472/5/6 492/5/6 491/5/6 490/5/6
f 341/3/1 372/3/1 493/3/1 494/3/1
f 341/3/3 494/3/3 495/3/3 342/3/3
f 343/6/2 496/6/2 497/6/2 374/6/2
f 342/6/3 495/6/3 496/6/3 343/6/3
f 351/20/2 473/20/2 498/20/2 381/20/2
f 349/20/1 379/20/1 499/20/1 474/20/1
f 363/1/1 384/1/1 500/1/1 484/1/1
f 364/8/3 486/8/3 487/8/3 365/8/3
f 386/8/4 388/8/4 501/8/4 502/8/4
f 366/8/2 489/8/2 503/8/2 389/8/2
f 388/8/4 389/8/4 503/8/4 501/8/4
f 367/2/1 504/2/1 505/2/1 488/2/1
f 504/2/4 392/2/4 506/2/4 505/2/4
f 367/2/5 368/2/5 392/2/5 504/2/5
f 392/8/4 394/8/4 507/8/4 506/8/4
f 370/8/3 491/8/3 508/8/3 371/8/3
f 394/8/4 396/8/4 509/8/4 507/8/4
f 371/8/3 508/8/3 493/8/3 372/8/3
f 396/8/4 398/8/4 510/8/4 509/8/4
f 398/8/4 400/8/4 511/8/4 510/8/4
f 400/11/4 402/11/4 512/11/4 511/11/4
f 374/8/3 497/8/3 513/8/3 375/8/3
f 402/8/4 404/8/4 514/8/4 512/8/4
f 375/8/3 513/8/3 515/8/3 377/8/3
f 404/8/4 406/8/4 516/8/4 514/8/4
f 377/7/3 515/7/3 499/7/3 379/7/3
f 406/7/4 408/7/4 517/7/4 516/7/4
f 381/16/2 498/16/2 518/16/2 409/16/2
f 408/16/4 409/16/4 518/16/4 517/16/4
f 519/2/1 520/2/1 521/2/1 522/2/1
f 519/2/3 522/2/3 523/2/3 524/2/3
f 519/2/5 524/2/5 525/2/5 520/2/5
f 524/3/3 523/3/3 500/3/3 384/3/3
f 524/3/5 384/3/5 526/3/5 525/3/5
f 386/8/2 502/8/2 527/8/2 528/8/2
f 384/8/5 386/8/5 528/8/5 526/8/5
f 520/3/1 529/3/1 530/3/1 521/3/1
f 529/3/4 531/3/4 532/3/4 530/3/4
f 520/3/5 525/3/5 531/3/5 529/3/5
f 531/7/4 533/7/4 534/7/4 532/7/4
f 525/7/5 526/7/5 533/7/5 531/7/5
f 528/12/2 527/12/2 535/12/2 536/12/2
f 533/12/4 536/12/4 535/12/4 534/12/4
f 526/12/5 528/12/5 536/12/5 533/12/5
f 413/11/1 412/11/1 537/11/1 538/11/1
f 413/11/3 538/11/3 539/11/3 414/11/3
f 414/8/3 539/8/3 540/8/3 415/8/3
f 449/8/4 418/8/4 541/8/4 542/8/4
f 415/8/3 540/8/3 543/8/3 416/8/3
f 418/8/4 417/8/4 544/8/4 541/8/4
f 416/4/3 543/4/3 545/4/3 419/4/3
f 417/4/4 420/4/4 546/4/4 544/4/4
f 419/4/3 545/4/3 547/4/3 421/4/3
f 548/18/2 549/18/2 550/18/2 452/18/2
f 421/18/3 547/18/3 549/18/3 548/18/3
f 421/18/5 548/18/5 452/18/5 422/18/5
f 424/8/1 423/8/1 551/8/1 552/8/1
f 424/8/3 552/8/3 553/8/3 425/8/3
f 426/7/2 554/7/2 555/7/2 428/7/2
f 425/7/3 553/7/3 554/7/3 426/7/3
f 427/11/1 429/11/1 556/11/1 557/11/1
f 427/11/3 557/11/3 558/11/3 430/11/3
f 430/3/3 558/3/3 559/3/3 431/3/3
f 431/8/3 559/8/3 560/8/3 434/8/3
f 434/3/3 560/3/3 561/3/3 436/3/3
f 436/8/3 561/8/3 562/8/3 438/8/3
f 437/8/4 461/8/4 563/8/4 564/8/4
f 438/8/3 562/8/3 565/8/3 439/8/3
f 461/8/4 463/8/4 566/8/4 563/8/4
f 439/11/3 565/11/3 567/11/3 440/11/3
f 463/11/4 443/11/4 568/11/4 566/11/4
f 440/8/3 567/8/3 569/8/3 441/8/3
f 443/8/4 442/8/4 570/8/4 568/8/4
f 441/8/3 569/8/3 571/8/3 444/8/3
f 442/8/4 445/8/4 572/8/4 570/8/4
f 444/3/3 571/3/3 537/3/3 412/3/3
f 445/3/4 446/3/4 573/3/4 572/3/4
f 449/5/2 542/5/2 574/5/2 447/5/2
f 446/5/4 447/5/4 574/5/4 573/5/4
f 420/8/1 450/8/1 575/8/1 546/8/1
f 450/8/4 451/8/4 576/8/4 575/8/4
f 452/17/2 550/17/2 577/17/2 453/17/2
f 423/1/1 454/1/1 578/1/1 551/1/1
f 428/6/3 555/6/3 556/6/3 429/6/3
f 433/5/5 432/5/5 579/5/5 458/5/5
f 432/5/5 435/5/5 580/5/5 579/5/5
f 437/6/2 564/6/2 581/6/2 459/6/2
f 580/6/4 459/6/4 581/6/4 582/6/4
f 435/6/5 437/6/5 459/6/5 580/6/5
f 453/20/2 577/20/2 583/20/2 465/20/2
f 451/20/1 466/20/1 584/20/1 576/20/1
f 454/6/1 468/6/1 585/6/1 578/6/1
f 456/6/5 455/6/5 477/6/5 467/6/5
f 455/5/5 457/5/5 479/5/5 477/5/5
f 457/5/5 458/5/5 481/5/5 479/5/5
f 458/5/5 579/5/5 483/5/5 481/5/5
f 580/5/2 582/5/2 586/5/2 485/5/2
f 579/5/5 580/5/5 485/5/5 483/5/5
f 465/17/2 583/17/2 587/17/2 473/17/2
f 466/17/1 474/17/1 588/17/1 584/17/1
f 468/2/1 475/2/1 589/2/1 585/2/1
f 475/2/4 476/2/4 590/2/4 589/2/4
f 476/1/4 478/1/4 591/1/4 590/1/4
f 478/6/4 480/6/4 592/6/4 591/6/4
f 480/5/4 482/5/4 593/5/4 592/5/4
f 482/5/4 484/5/4 594/5/4 593/5/4
f 485/5/2 586/5/2 595/5/2 486/5/2
f 469/7/1 487/7/1 596/7/1 597/7/1
f 469/7/3 597/7/3 598/7/3 470/7/3
f 470/3/3 598/3/3 599/3/3 471/3/3
f 489/3/4 488/3/4 600/3/4 601/3/4
f 472/5/2 602/5/2 603/5/2 492/5/2
f 471/5/3 599/5/3 602/5/3 472/5/3
f 494/11/1 493/11/1 604/11/1 605/11/1
f 494/11/3 605/11/3 606/11/3 495/11/3
f 496/5/2 607/5/2 608/5/2 497/5/2
f 495/5/3 606/5/3 607/5/3 496/5/3
f 473/17/2 587/17/2 609/17/2 498/17/2
f 474/17/1 499/17/1 610/17/1 588/17/1
f 484/5/1 500/5/1 611/5/1 594/5/1
f 486/3/3 595/3/3 596/3/3 487/3/3
f 489/8/2 601/8/2 612/8/2 503/8/2
f 488/3/1 505/3/1 613/3/1 600/3/1
f 505/3/4 506/3/4 614/3/4 613/3/4
f 492/8/3 603/8/3 615/8/3 491/8/3
f 506/8/4 507/8/4 616/8/4 614/8/4
f 491/8/3 615/8/3 617/8/3 508/8/3
f 507/8/4 509/8/4 618/8/4 616/8/4
f 508/8/3 617/8/3 604/8/3 493/8/3
f 509/8/4 510/8/4 619/8/4 618/8/4
f 510/3/4 511/3/4 620/3/4 619/3/4
f 511/11/4 512/11/4 621/11/4 620/11/4
f 497/8/3 608/8/3 622/8/3 513/8/3
f 512/8/4 514/8/4 623/8/4 621/8/4
f 513/8/3 622/8/3 624/8/3 515/8/3
f 514/8/4 516/8/4 625/8/4 623/8/4
f 515/7/3 624/7/3 610/7/3 499/7/3
f 516/7/4 517/7/4 626/7/4 625/7/4
f 498/13/2 609/13/2 627/13/2 518/13/2
f 517/13/4 518/13/4 627/13/4 626/13/4
f 522/6/1 521/6/1 628/6/1 629/6/1
f 522/6/3 629/6/3 630/6/3 523/6/3
f 523/5/3 630/5/3 611/5/3 500/5/3
f 527/7/4 631/7/4 632/7/4 633/7/4
f 502/7/5 501/7/5 631/7/5 527/7/5
f 503/8/2 612/8/2 634/8/2 635/8/2
f 631/8/4 635/8/4 634/8/4 632/8/4
f 501/8/5 503/8/5 635/8/5 631/8/5
f 521/2/1 530/2/1 636/2/1 628/2/1
f 530/2/4 532/2/4 637/2/4 636/2/4
f 532/8/4 534/8/4 638/8/4 637/8/4
f 527/9/2 633/9/2 639/9/2 535/9/2
f 534/9/4 535/9/4 639/9/4 638/9/4
f 538/11/1 537/11/1 640/11/1 641/11/1
f 538/11/3 641/11/3 642/11/3 539/11/3
f 539/8/3 642/8/3 643/8/3 540/8/3
f 540/4/3 643/4/3 644/4/3 543/4/3
f 541/4/4 544/4/4 645/4/4 646/4/4
f 543/8/3 644/8/3 647/8/3 545/8/3
f 544/8/4 546/8/4 648/8/4 645/8/4
f 545/4/3 647/4/3 649/4/3 547/4/3
f 549/18/2 650/18/2 651/18/2 550/18/2
f 547/18/3 649/18/3 650/18/3 549/18/3
f 649/18/6 652/18/6 651/18/6 650/18/6
f 552/3/1 551/3/1 653/3/1 654/3/1
f 552/3/3 654/3/3 655/3/3 553/3/3
f 554/3/2 656/3/2 657/3/2 555/3/2
f 553/3/3 655/3/3 656/3/3 554/3/3
f 557/3/1 556/3/1 658/3/1 659/3/1
f 557/3/3 659/3/3 660/3/3 558/3/3
f 558/8/3 660/8/3 661/8/3 559/8/3
f 559/8/3 661/8/3 662/8/3 560/8/3
f 560/3/3 662/3/3 663/3/3 561/3/3
f 561/4/3 663/4/3 664/4/3 562/4/3
f 564/4/4 563/4/4 665/4/4 666/4/4
f 562/8/3 664/8/3 667/8/3 565/8/3
f 565/11/3 667/11/3 668/11/3 567/11/3
f 566/11/4 568/11/4 669/11/4 670/11/4
f 567/4/3 668/4/3 671/4/3 569/4/3
f 568/4/4 570/4/4 672/4/4 669/4/4
f 569/8/3 671/8/3 673/8/3 571/8/3
f 570/8/4 572/8/4 674/8/4 672/8/4
f 571/3/3 673/3/3 640/3/3 537/3/3
f 572/3/4 573/3/4 675/3/4 674/3/4
f 573/5/4 574/5/4 676/5/4 675/5/4
f 541/14/2 646/14/2 677/14/2 678/14/2
f 574/14/4 678/14/4 677/14/4 676/14/4
f 542/14/5 541/14/5 678/14/5 574/14/5
f 546/8/1 575/8/1 679/8/1 648/8/1
f 575/8/4 576/8/4 680/8/4 679/8/4
f 550/17/2 651/17/2 681/17/2 577/17/2
f 551/6/1 578/6/1 682/6/1 653/6/1
f 555/2/3 657/2/3 658/2/3 556/2/3
f 683/5/6 684/5/6 685/5/6 686/5/6
f 686/6/6 685/6/6 687/6/6 688/6/6
f 564/6/2 666/6/2 689/6/2 581/6/2
f 582/6/4 581/6/4 689/6/4 687/6/4
f 688/6/6 687/6/6 689/6/6 666/6/6
f 566/21/2 670/21/2 690/21/2 691/21/2
f 563/21/1 692/21/1 693/21/1 665/21/1
f 692/21/4 691/21/4 690/21/4 693/21/4
f 563/21/5 566/21/5 691/21/5 692/21/5
f 577/17/2 681/17/2 694/17/2 583/17/2
f 576/17/1 584/17/1 695/17/1 680/17/1
f 578/6/1 585/6/1 696/6/1 682/6/1
f 697/6/6 698/6/6 699/6/6 700/6/6
f 700/5/6 699/5/6 701/5/6 702/5/6
f 702/5/6 701/5/6 703/5/6 684/5/6
f 684/5/6 703/5/6 704/5/6 685/5/6
f 582/5/2 687/5/2 705/5/2 586/5/2
f 685/5/6 704/5/6 705/5/6 687/5/6
f 583/20/2 694/20/2 706/20/2 587/20/2
f 584/20/1 588/20/1 707/20/1 695/20/1
f 585/3/1 589/3/1 708/3/1 696/3/1
f 589/3/4 590/3/4 709/3/4 708/3/4
f 590/2/4 591/2/4 710/2/4 709/2/4
f 591/6/4 592/6/4 711/6/4 710/6/4
f 592/6/4 593/6/4 712/6/4 711/6/4
f 593/5/4 594/5/4 713/5/4 712/5/4
f 586/5/2 705/5/2 714/5/2 595/5/2
f 597/7/1 596/7/1 715/7/1 716/7/1
f 597/7/3 716/7/3 717/7/3 598/7/3
f 598/3/3 717/3/3 718/3/3 599/3/3
f 601/3/4 600/3/4 719/3/4 720/3/4
f 602/5/2 721/5/2 722/5/2 603/5/2
f 599/5/3 718/5/3 721/5/3 602/5/3
f 605/3/1 604/3/1 723/3/1 724/3/1
f 605/3/3 724/3/3 725/3/3 606/3/3
f 607/5/2 726/5/2 727/5/2 608/5/2
f 606/5/3 725/5/3 726/5/3 607/5/3
f 587/22/2 706/22/2 728/22/2 609/22/2
f 588/22/1 610/22/1 729/22/1 707/22/1
f 594/5/1 611/5/1 730/5/1 713/5/1
f 595/3/3 714/3/3 715/3/3 596/3/3
f 601/8/2 720/8/2 731/8/2 612/8/2
f 600/3/1 613/3/1 732/3/1 719/3/1
f 613/3/4 614/3/4 733/3/4 732/3/4
f 603/4/3 722/4/3 734/4/3 615/4/3
f 614/4/4 616/4/4 735/4/4 733/4/4
f 615/4/3 734/4/3 736/4/3 617/4/3
f 616/4/4 618/4/4 737/4/4 735/4/4
f 617/8/3 736/8/3 723/8/3 604/8/3
f 618/8/4 619/8/4 738/8/4 737/8/4
f 619/8/4 620/8/4 739/8/4 738/8/4
f 620/2/4 621/2/4 740/2/4 739/2/4
f 608/8/3 727/8/3 741/8/3 622/8/3
f 621/8/4 623/8/4 742/8/4 740/8/4
f 622/8/3 741/8/3 743/8/3 624/8/3
f 623/8/4 625/8/4 744/8/4 742/8/4
f 624/7/3 743/7/3 729/7/3 610/7/3
f 625/7/4 626/7/4 745/7/4 744/7/4
f 609/16/2 728/16/2 746/16/2 627/16/2
f 626/16/4 627/16/4 746/16/4 745/16/4
f 629/6/1 628/6/1 747/6/1 748/6/1
f 629/6/3 748/6/3 749/6/3 630/6/3
f 630/5/3 749/5/3 730/5/3 611/5/3
f 633/7/4 632/7/4 750/7/4 751/7/4
f 612/8/2 731/8/2 752/8/2 634/8/2
f 632/8/4 634/8/4 752/8/4 750/8/4
f 753/8/6 750/8/6 752/8/6 731/8/6
f 628/11/1 636/11/1 754/11/1 747/11/1
f 636/11/4 637/11/4 755/11/4 754/11/4
f 637/8/4 638/8/4 756/8/4 755/8/4
f 633/9/2 751/9/2 757/9/2 639/9/2
f 638/9/4 639/9/4 757/9/4 756/9/4
f 641/11/1 640/11/1 758/11/1 759/11/1
f 641/11/3 759/11/3 760/11/3 642/11/3
f 759/11/6 758/11/6 761/11/6 760/11/6
f 642/11/3 760/11/3 762/11/3 643/11/3
f 643/19/3 762/19/3 763/19/3 644/19/3
f 646/19/4 645/19/4 764/19/4 765/19/4
f 644/4/3 763/4/3 766/4/3 647/4/3
f 645/4/4 648/4/4 767/4/4 764/4/4
f 649/9/2 768/9/2 769/9/2 652/9/2
f 647/9/3 766/9/3 768/9/3 649/9/3
f 654/8/1 653/8/1 770/8/1 771/8/1
f 654/8/3 771/8/3 772/8/3 655/8/3
f 655/9/3 772/9/3 773/9/3 656/9/3
f 656/6/3 773/6/3 774/6/3 659/6/3
f 773/6/6 775/6/6 776/6/6 774/6/6
f 656/6/5 659/6/5 658/6/5 657/6/5
f 659/3/3 774/3/3 777/3/3 660/3/3
f 660/8/3 777/8/3 778/8/3 661/8/3
f 683/8/4 686/8/4 779/8/4 780/8/4
f 661/4/3 778/4/3 781/4/3 662/4/3
f 686/4/4 688/4/4 782/4/4 779/4/4
f 662/4/3 781/4/3 783/4/3 663/4/3
f 688/4/4 666/4/4 784/4/4 782/4/4
f 663/4/3 783/4/3 785/4/3 664/4/3
f 664/8/3 785/8/3 786/8/3 667/8/3
f 785/8/6 787/8/6 788/8/6 786/8/6
f 667/2/3 786/2/3 789/2/3 668/2/3
f 668/8/3 789/8/3 790/8/3 671/8/3
f 669/8/4 672/8/4 791/8/4 792/8/4
f 671/9/3 790/9/3 793/9/3 673/9/3
f 672/9/4 674/9/4 794/9/4 791/9/4
f 673/8/3 793/8/3 758/8/3 640/8/3
f 674/8/4 675/8/4 795/8/4 794/8/4
f 675/3/4 676/3/4 796/3/4 795/3/4
f 646/5/2 765/5/2 797/5/2 677/5/2
f 676/5/4 677/5/4 797/5/4 796/5/4
f 648/4/1 679/4/1 798/4/1 767/4/1
f 679/4/4 680/4/4 799/4/4 798/4/4
f 651/22/2 800/22/2 801/22/2 681/22/2
f 652/22/3 769/22/3 800/22/3 651/22/3
f 653/2/1 682/2/1 802/2/1 770/2/1
f 697/8/4 700/8/4 803/8/4 804/8/4
f 700/11/4 702/11/4 805/11/4 803/11/4
f 683/6/2 780/6/2 806/6/2 684/6/2
f 702/6/4 684/6/4 806/6/4 805/6/4
f 666/8/1 689/8/1 807/8/1 784/8/1
f 666/8/5 665/8/5 693/8/5 689/8/5
f 787/2/6 808/2/6 809/2/6 788/2/6
f 669/5/2 792/5/2 810/5/2 811/5/2
f 670/5/5 669/5/5 811/5/5 690/5/5
f 681/22/2 801/22/2 812/22/2 694/22/2
f 680/22/1 695/22/1 813/22/1 799/22/1
f 697/1/2 804/1/2 814/1/2 698/1/2
f 682/1/1 696/1/1 815/1/1 802/1/1
f 689/11/1 716/11/1 816/11/1 807/11/1
f 689/11/5 693/11/5 717/11/5 716/11/5
f 808/5/6 817/5/6 818/5/6 809/5/6
f 693/5/5 690/5/5 718/5/5 717/5/5
f 811/5/2 810/5/2 819/5/2 721/5/2
f 690/5/5 811/5/5 721/5/5 718/5/5
f 694/20/2 812/20/2 820/20/2 706/20/2
f 695/20/1 707/20/1 821/20/1 813/20/1
f 696/8/1 708/8/1 822/8/1 815/8/1
f 708/8/4 709/8/4 823/8/4 822/8/4
f 698/8/3 814/8/3 824/8/3 699/8/3
f 709/8/4 710/8/4 825/8/4 823/8/4
f 699/2/3 824/2/3 826/2/3 701/2/3
f 710/2/4 711/2/4 827/2/4 825/2/4
f 701/2/3 826/2/3 828/2/3 703/2/3
f 711/2/4 712/2/4 829/2/4 827/2/4
f 703/6/3 828/6/3 830/6/3 704/6/3
f 712/6/4 713/6/4 831/6/4 829/6/4
f 705/5/2 832/5/2 833/5/2 714/5/2
f 704/5/3 830/5/3 832/5/3 705/5/3
f 716/8/1 715/8/1 834/8/1 816/8/1
f 720/3/4 719/3/4 835/3/4 836/3/4
f 817/3/6 836/3/6 835/3/6 818/3/6
f 837/5/2 838/5/2 839/5/2 734/5/2
f 721/5/3 819/5/3 838/5/3 837/5/3
f 721/5/5 837/5/5 734/5/5 722/5/5
f 724/3/1 723/3/1 840/3/1 841/3/1
f 724/3/3 841/3/3 842/3/3 725/3/3
f 726/1/2 843/1/2 844/1/2 727/1/2
f 725/1/3 842/1/3 843/1/3 726/1/3
f 706/17/2 820/17/2 845/17/2 728/17/2
f 707/17/1 729/17/1 846/17/1 821/17/1
f 713/6/1 730/6/1 847/6/1 831/6/1
f 714/8/3 833/8/3 834/8/3 715/8/3
f 720/8/2 836/8/2 848/8/2 731/8/2
f 753/8/4 731/8/4 848/8/4 849/8/4
f 719/3/1 732/3/1 850/3/1 835/3/1
f 732/3/4 733/3/4 851/3/4 850/3/4
f 835/3/6 850/3/6 851/3/6 852/3/6
f 733/3/4 735/3/4 853/3/4 851/3/4
f 734/4/3 839/4/3 854/4/3 736/4/3
f 735/4/4 737/4/4 855/4/4 853/4/4
f 736/8/3 854/8/3 840/8/3 723/8/3
f 737/8/4 738/8/4 856/8/4 855/8/4
f 738/8/4 739/8/4 857/8/4 856/8/4
f 739/11/4 740/11/4 858/11/4 857/11/4
f 727/8/3 844/8/3 859/8/3 741/8/3
f 740/8/4 742/8/4 860/8/4 858/8/4
f 741/8/3 859/8/3 861/8/3 743/8/3
f 742/8/4 744/8/4 862/8/4 860/8/4
f 743/8/3 861/8/3 846/8/3 729/8/3
f 744/8/4 745/8/4 863/8/4 862/8/4
f 728/18/2 845/18/2 864/18/2 746/18/2
f 745/18/4 746/18/4 864/18/4 863/18/4
f 748/2/1 747/2/1 865/2/1 866/2/1
f 748/2/3 866/2/3 867/2/3 749/2/3
f 866/2/6 865/2/6 868/2/6 867/2/6
f 749/3/3 867/3/3 847/3/3 730/3/3
f 867/3/6 868/3/6 869/3/6 847/3/6
f 753/8/2 849/8/2 870/8/2 750/8/2
f 751/8/4 750/8/4 870/8/4 871/8/4
f 747/3/1 754/3/1 872/3/1 865/3/1
f 754/3/4 755/3/4 873/3/4 872/3/4
f 865/3/6 872/3/6 873/3/6 868/3/6
f 755/8/4 756/8/4 874/8/4 873/8/4
f 868/8/6 873/8/6 874/8/6 869/8/6
f 751/7/2 871/7/2 875/7/2 757/7/2
f 756/7/4 757/7/4 875/7/4 874/7/4
f 869/7/6 874/7/6 875/7/6 871/7/6
f 760/3/1 761/3/1 876/3/1 877/3/1
f 760/3/3 877/3/3 878/3/3 762/3/3
f 877/3/6 876/3/6 879/3/6 878/3/6
f 762/15/3 878/15/3 880/15/3 763/15/3
f 878/15/6 879/15/6 881/15/6 880/15/6
f 763/4/3 880/4/3 882/4/3 766/4/3
f 880/4/6 881/4/6 883/4/6 882/4/6
f 768/10/2 884/10/2 885/10/2 769/10/2
f 766/10/3 882/10/3 884/10/3 768/10/3
f 882/10/6 883/10/6 885/10/6 884/10/6
f 771/8/1 770/8/1 886/8/1 887/8/1
f 771/8/3 887/8/3 888/8/3 772/8/3
f 887/8/6 886/8/6 889/8/6 888/8/6
f 773/7/2 890/7/2 891/7/2 775/7/2
f 772/7/3 888/7/3 890/7/3 773/7/3
f 888/7/6 889/7/6 891/7/6 890/7/6
f 774/8/1 776/8/1 892/8/1 893/8/1
f 774/8/3 893/8/3 894/8/3 777/8/3
f 893/8/6 892/8/6 895/8/6 894/8/6
f 777/4/3 894/4/3 896/4/3 778/4/3
f 894/4/6 895/4/6 897/4/6 896/4/6
f 778/9/3 896/9/3 898/9/3 781/9/3
f 896/9/6 897/9/6 899/9/6 898/9/6
f 781/9/3 898/9/3 900/9/3 783/9/3
f 898/9/6 899/9/6 901/9/6 900/9/6
f 785/9/2 902/9/2 903/9/2 787/9/2
f 783/9/3 900/9/3 902/9/3 785/9/3
f 900/9/6 901/9/6 903/9/6 902/9/6
f 786/2/1 788/2/1 904/2/1 905/2/1
f 786/2/3 905/2/3 906/2/3 789/2/3
f 905/2/6 904/2/6 907/2/6 906/2/6
f 789/8/3 906/8/3 908/8/3 790/8/3
f 906/8/6 907/8/6 909/8/6 908/8/6
f 790/4/3 908/4/3 910/4/3 793/4/3
f 793/3/3 910/3/3 911/3/3 758/3/3
f 758/11/3 911/11/3 876/11/3 761/11/3
f 879/9/6 912/9/6 913/9/6 881/9/6
f 765/9/5 764/9/5 914/9/5 797/9/5
f 881/4/6 913/4/6 915/4/6 883/4/6
f 764/4/5 767/4/5 798/4/5 914/4/5
f 883/7/6 915/7/6 916/7/6 885/7/6
f 800/10/2 917/10/2 918/10/2 801/10/2
f 769/10/3 885/10/3 917/10/3 800/10/3
f 885/10/6 916/10/6 918/10/6 917/10/6
f 770/2/1 802/2/1 919/2/1 886/2/1
f 886/2/6 919/2/6 920/2/6 889/2/6
f 889/8/6 920/8/6 921/8/6 891/8/6
f 775/8/3 891/8/3 892/8/3 776/8/3
f 891/8/6 921/8/6 922/8/6 892/8/6
f 892/2/6 922/2/6 923/2/6 895/2/6
f 895/3/6 923/3/6 924/3/6 897/3/6
f 780/3/5 779/3/5 925/3/5 806/3/5
f 779/3/5 782/3/5 926/3/5 925/3/5
f 782/3/5 784/3/5 807/3/5 926/3/5
f 787/3/2 903/3/2 927/3/2 808/3/2
f 788/6/1 809/6/1 928/6/1 904/6/1
f 792/6/5 791/6/5 929/6/5 810/6/5
f 929/2/4 930/2/4 931/2/4 932/2/4
f 791/2/5 794/2/5 930/2/5 929/2/5
f 930/1/4 933/1/4 934/1/4 931/1/4
f 794/1/5 795/1/5 933/1/5 930/1/5
f 795/1/5 796/1/5 935/1/5 933/1/5
f 796/3/5 797/3/5 936/3/5 935/3/5
f 797/3/5 914/3/5 937/3/5 936/3/5
f 913/8/6 938/8/6 939/8/6 915/8/6
f 914/8/5 798/8/5 940/8/5 937/8/5
f 915/9/6 939/9/6 941/9/6 916/9/6
f 798/9/5 799/9/5 813/9/5 940/9/5
f 801/10/2 918/10/2 942/10/2 812/10/2
f 916/10/6 941/10/6 942/10/6 918/10/6
f 802/11/1 815/11/1 943/11/1 919/11/1
f 919/11/6 943/11/6 944/11/6 920/11/6
f 920/8/6 944/8/6 945/8/6 921/8/6
f 804/8/5 803/8/5 824/8/5 814/8/5
f 921/8/6 945/8/6 946/8/6 922/8/6
f 803/8/5 805/8/5 826/8/5 824/8/5
f 922/11/6 946/11/6 947/11/6 923/11/6
f 805/11/5 806/11/5 828/11/5 826/11/5
f 923/2/6 947/2/6 948/2/6 924/2/6
f 806/2/5 925/2/5 830/2/5 828/2/5
f 925/6/5 926/6/5 832/6/5 830/6/5
f 926/5/5 807/5/5 816/5/5 832/5/5
f 808/1/2 927/1/2 949/1/2 817/1/2
f 809/5/1 818/5/1 950/5/1 928/5/1
f 929/5/2 932/5/2 951/5/2 838/5/2
f 810/5/5 929/5/5 838/5/5 819/5/5
f 933/2/1 841/2/1 952/2/1 934/2/1
f 933/2/5 935/2/5 842/2/5 841/2/5
f 935/3/5 936/3/5 843/3/5 842/3/5
f 936/8/5 937/8/5 953/8/5 843/8/5
f 938/8/6 954/8/6 955/8/6 939/8/6
f 937/8/5 940/8/5 956/8/5 953/8/5
f 939/9/6 955/9/6 957/9/6 941/9/6
f 940/9/5 813/9/5 821/9/5 956/9/5
f 812/10/2 942/10/2 958/10/2 820/10/2
f 941/10/6 957/10/6 958/10/6 942/10/6
f 815/3/1 822/3/1 959/3/1 943/3/1
f 822/3/4 823/3/4 960/3/4 959/3/4
f 943/3/6 959/3/6 960/3/6 944/3/6
f 823/8/4 825/8/4 961/8/4 960/8/4
f 944/8/6 960/8/6 961/8/6 945/8/6
f 825/4/4 827/4/4 962/4/4 961/4/4
f 945/4/6 961/4/6 962/4/6 946/4/6
f 827/3/4 829/3/4 963/3/4 962/3/4
f 946/3/6 962/3/6 963/3/6 947/3/6
f 829/2/4 831/2/4 964/2/4 963/2/4
f 947/2/6 963/2/6 964/2/6 948/2/6
f 832/3/5 816/3/5 834/3/5 833/3/5
f 817/3/2 949/3/2 965/3/2 836/3/2
f 818/1/1 835/1/1 966/1/1 950/1/1
f 835/1/4 852/1/4 967/1/4 966/1/4
f 838/3/3 951/3/3 968/3/3 969/3/3
f 838/3/5 969/3/5 854/3/5 839/3/5
f 969/3/3 968/3/3 952/3/3 841/3/3
f 969/3/5 841/3/5 840/3/5 854/3/5
f 843/8/5 953/8/5 859/8/5 844/8/5
f 954/8/6 970/8/6 971/8/6 955/8/6
f 953/8/5 956/8/5 861/8/5 859/8/5
f 955/7/6 971/7/6 972/7/6 957/7/6
f 956/7/5 821/7/5 846/7/5 861/7/5
f 820/23/2 958/23/2 973/23/2 845/23/2
f 957/23/6 972/23/6 973/23/6 958/23/6
f 831/3/1 847/3/1 974/3/1 964/3/1
f 964/3/6 974/3/6 975/3/6 976/3/6
f 976/8/6 975/8/6 977/8/6 978/8/6
f 836/8/2 965/8/2 979/8/2 848/8/2
f 849/8/4 848/8/4 979/8/4 977/8/4
f 978/8/6 977/8/6 979/8/6 965/8/6
f 852/3/1 851/3/1 980/3/1 967/3/1
f 851/3/4 853/3/4 981/3/4 980/3/4
f 967/3/6 980/3/6 981/3/6 982/3/6
f 853/4/4 855/4/4 983/4/4 981/4/4
f 982/4/6 981/4/6 983/4/6 984/4/6
f 855/8/4 856/8/4 985/8/4 983/8/4
f 984/8/6 983/8/6 985/8/6 986/8/6
f 856/8/4 857/8/4 987/8/4 985/8/4
f 986/8/6 985/8/6 987/8/6 988/8/6
f 857/3/4 858/3/4 989/3/4 987/3/4
f 988/3/6 987/3/6 989/3/6 990/3/6
f 858/8/4 860/8/4 991/8/4 989/8/4
f 990/8/6 989/8/6 991/8/6 970/8/6
f 860/8/4 862/8/4 992/8/4 991/8/4
f 970/8/6 991/8/6 992/8/6 971/8/6
f 862/8/4 863/8/4 993/8/4 992/8/4
f 971/8/6 992/8/6 993/8/6 972/8/6
f 845/9/2 973/9/2 994/9/2 864/9/2
f 863/9/4 864/9/4 994/9/4 993/9/4
f 972/9/6 993/9/6 994/9/6 973/9/6
f 847/4/1 869/4/1 995/4/1 974/4/1
f 869/4/4 871/4/4 996/4/4 995/4/4
f 974/4/6 995/4/6 996/4/6 975/4/6
f 849/8/2 977/8/2 997/8/2 870/8/2
f 871/8/4 870/8/4 997/8/4 996/8/4
f 975/8/6 996/8/6 997/8/6 977/8/6
f 908/8/1 909/8/1 998/8/1 999/8/1
f 908/8/3 999/8/3 1000/8/3 910/8/3
f 910/4/3 1000/4/3 1001/4/3 911/4/3
f 911/4/3 1001/4/3 1002/4/3 876/4/3
f 879/4/2 1003/4/2 1004/4/2 912/4/2
f 876/4/3 1002/4/3 1003/4/3 879/4/3
f 897/1/1 924/1/1 1005/1/1 1006/1/1
f 897/1/3 1006/1/3 1007/1/3 899/1/3
f 899/2/3 1007/2/3 1008/2/3 901/2/3
f 901/11/3 1008/11/3 1009/11/3 903/11/3
f 903/2/3 1009/2/3 1010/2/3 904/2/3
f 903/2/5 904/2/5 928/2/5 927/2/5
f 904/11/3 1010/11/3 1011/11/3 907/11/3
f 907/2/3 1011/2/3 998/2/3 909/2/3
f 931/1/4 934/1/4 1012/1/4 1013/1/4
f 913/10/2 1014/10/2 1015/10/2 938/10/2
f 912/10/3 1004/10/3 1014/10/3 913/10/3
f 924/6/1 948/6/1 1016/6/1 1005/6/1
f 1017/5/6 1018/5/6 1019/5/6 1020/5/6
f 1020/5/6 1019/5/6 1021/5/6 1022/5/6
f 927/5/5 928/5/5 950/5/5 949/5/5
f 1022/5/6 1021/5/6 1023/5/6 1024/5/6
f 1024/5/6 1023/5/6 1025/5/6 1026/5/6
f 931/14/2 1013/14/2 1027/14/2 968/14/2
f 1026/14/6 1025/14/6 1027/14/6 1013/14/6
f 932/14/5 931/14/5 968/14/5 951/14/5
f 934/8/1 952/8/1 1028/8/1 1012/8/1
f 938/9/2 1015/9/2 1029/9/2 954/9/2
f 948/2/1 964/2/1 1030/2/1 1016/2/1
f 964/2/4 976/2/4 1031/2/4 1030/2/4
f 976/11/4 978/11/4 1032/11/4 1031/11/4
f 978/3/4 965/3/4 1033/3/4 1032/3/4
f 965/3/4 966/3/4 1034/3/4 1033/3/4
f 949/3/5 950/3/5 966/3/5 965/3/5
f 966/3/4 967/3/4 1035/3/4 1034/3/4
f 967/11/4 982/11/4 1036/11/4 1035/11/4
f 982/2/4 984/2/4 1037/2/4 1036/2/4
f 968/8/3 1027/8/3 1028/8/3 952/8/3
f 984/8/4 986/8/4 1038/8/4 1037/8/4
f 986/8/4 988/8/4 1039/8/4 1038/8/4
f 988/3/4 990/3/4 1040/3/4 1039/3/4
f 954/9/2 1029/9/2 1041/9/2 970/9/2
f 990/9/4 970/9/4 1041/9/4 1040/9/4
f 999/8/1 998/8/1 1042/8/1 1043/8/1
f 999/8/3 1043/8/3 1044/8/3 1000/8/3
f 1000/8/3 1044/8/3 1045/8/3 1001/8/3
f 1001/4/3 1045/4/3 1046/4/3 1002/4/3
f 1045/4/6 1047/4/6 1048/4/6 1046/4/6
f 1003/4/2 1049/4/2 1050/4/2 1004/4/2
f 1002/4/3 1046/4/3 1049/4/3 1003/4/3
f 1046/4/6 1048/4/6 1050/4/6 1049/4/6
f 1006/1/1 1005/1/1 1051/1/1 1052/1/1
f 1006/1/3 1052/1/3 1053/1/3 1007/1/3
f 1007/3/3 1053/3/3 1054/3/3 1008/3/3
f 1008/4/3 1054/4/3 1055/4/3 1009/4/3
f 1017/4/4 1020/4/4 1056/4/4 1057/4/4
f 1009/8/3 1055/8/3 1058/8/3 1010/8/3
f 1020/8/4 1022/8/4 1059/8/4 1056/8/4
f 1010/4/3 1058/4/3 1060/4/3 1011/4/3
f 1022/4/4 1024/4/4 1061/4/4 1059/4/4
f 1011/8/3 1060/8/3 1042/8/3 998/8/3
f 1024/8/4 1026/8/4 1062/8/4 1061/8/4
f 1026/2/4 1013/2/4 1063/2/4 1062/2/4
f 1013/7/4 1012/7/4 1064/7/4 1063/7/4
f 1048/9/6 1065/9/6 1066/9/6 1050/9/6
f 1014/13/2 1067/13/2 1068/13/2 1015/13/2
f 1004/13/3 1050/13/3 1067/13/3 1014/13/3
f 1050/13/6 1066/13/6 1068/13/6 1067/13/6
f 1005/6/1 1016/6/1 1069/6/1 1051/6/1
f 1017/5/2 1057/5/2 1070/5/2 1018/5/2
f 1012/23/1 1028/23/1 1071/23/1 1064/23/1
f 1065/4/6 1072/4/6 1073/4/6 1066/4/6
f 1015/13/2 1068/13/2 1074/13/2 1029/13/2
f 1066/13/6 1073/13/6 1074/13/6 1068/13/6
f 1016/2/1 1030/2/1 1075/2/1 1069/2/1
f 1030/2/4 1031/2/4 1076/2/4 1075/2/4
f 1031/3/4 1032/3/4 1077/3/4 1076/3/4
f 1018/8/3 1070/8/3 1078/8/3 1019/8/3
f 1032/8/4 1033/8/4 1079/8/4 1077/8/4
f 1019/8/3 1078/8/3 1080/8/3 1021/8/3
f 1033/8/4 1034/8/4 1081/8/4 1079/8/4
f 1021/4/3 1080/4/3 1082/4/3 1023/4/3
f 1034/4/4 1035/4/4 1083/4/4 1081/4/4
f 1023/8/3 1082/8/3 1084/8/3 1025/8/3
f 1035/8/4 1036/8/4 1085/8/4 1083/8/4
f 1025/3/3 1084/3/3 1086/3/3 1027/3/3
f 1036/3/4 1037/3/4 1087/3/4 1085/3/4
f 1027/12/3 1086/12/3 1071/12/3 1028/12/3
f 1037/12/4 1038/12/4 1088/12/4 1087/12/4
f 1038/7/4 1039/7/4 1089/7/4 1088/7/4
f 1039/4/4 1040/4/4 1090/4/4 1089/4/4
f 1072/4/6 1089/4/6 1090/4/6 1073/4/6
f 1029/10/2 1074/10/2 1091/10/2 1041/10/2
f 1040/10/4 1041/10/4 1091/10/4 1090/10/4
f 1073/10/6 1090/10/6 1091/10/6 1074/10/6
f 1043/8/1 1042/8/1 1092/8/1 1093/8/1
f 1043/8/3 1093/8/3 1094/8/3 1044/8/3
f 1093/8/6 1092/8/6 1095/8/6 1094/8/6
f 1045/8/2 1096/8/2 1097/8/2 1047/8/2
f 1044/8/3 1094/8/3 1096/8/3 1045/8/3
f 1094/8/6 1095/8/6 1097/8/6 1096/8/6
f 1052/3/1 1051/3/1 1098/3/1 1099/3/1
f 1052/3/3 1099/3/3 1100/3/3 1053/3/3
f 1099/3/6 1098/3/6 1101/3/6 1100/3/6
f 1053/3/3 1100/3/3 1102/3/3 1054/3/3
f 1100/3/6 1101/3/6 1103/3/6 1102/3/6
f 1054/8/3 1102/8/3 1104/8/3 1055/8/3
f 1102/8/6 1103/8/6 1105/8/6 1104/8/6
f 1055/8/3 1104/8/3 1106/8/3 1058/8/3
f 1104/8/6 1105/8/6 1107/8/6 1106/8/6
f 1058/12/3 1106/12/3 1108/12/3 1060/12/3
f 1106/12/6 1107/12/6 1109/12/6 1108/12/6
f 1060/8/3 1108/8/3 1092/8/3 1042/8/3
f 1108/8/6 1109/8/6 1110/8/6 1092/8/6
f 1092/3/6 1110/3/6 1111/3/6 1095/3/6
f 1095/7/6 1111/7/6 1112/7/6 1097/7/6
f 1048/7/2 1113/7/2 1114/7/2 1065/7/2
f 1047/7/3 1097/7/3 1113/7/3 1048/7/3
f 1097/7/6 1112/7/6 1114/7/6 1113/7/6
f 1051/1/1 1069/1/1 1115/1/1 1098/1/1
f 1098/1/6 1115/1/6 1116/1/6 1101/1/6
f 1101/11/6 1116/11/6 1117/11/6 1103/11/6
f 1103/8/6 1117/8/6 1118/8/6 1105/8/6
f 1057/8/5 1056/8/5 1078/8/5 1070/8/5
f 1105/8/6 1118/8/6 1119/8/6 1107/8/6
f 1056/8/5 1059/8/5 1080/8/5 1078/8/5
f 1107/7/6 1119/7/6 1120/7/6 1109/7/6
f 1059/7/5 1061/7/5 1082/7/5 1080/7/5
f 1109/4/6 1120/4/6 1121/4/6 1110/4/6
f 1061/4/5 1062/4/5 1084/4/5 1082/4/5
f 1110/11/6 1121/11/6 1122/11/6 1111/11/6
f 1062/11/5 1063/11/5 1086/11/5 1084/11/5
f 1111/7/6 1122/7/6 1123/7/6 1112/7/6
f 1063/7/5 1064/7/5 1071/7/5 1086/7/5
f 1065/7/2 1114/7/2 1124/7/2 1072/7/2
f 1112/7/6 1123/7/6 1124/7/6 1114/7/6
f 1069/3/1 1075/3/1 1125/3/1 1115/3/1
f 1075/3/4 1076/3/4 1126/3/4 1125/3/4
f 1115/3/6 1125/3/6 1126/3/6 1116/3/6
f 1076/8/4 1077/8/4 1127/8/4 1126/8/4
f 1116/8/6 1126/8/6 1127/8/6 1117/8/6
f 1077/8/4 1079/8/4 1128/8/4 1127/8/4
f 1117/8/6 1127/8/6 1128/8/6 1118/8/6
f 1079/4/4 1081/4/4 1129/4/4 1128/4/4
f 1118/4/6 1128/4/6 1129/4/6 1119/4/6
f 1081/12/4 1083/12/4 1130/12/4 1129/12/4
f 1119/12/6 1129/12/6 1130/12/6 1120/12/6
f 1083/8/4 1085/8/4 1131/8/4 1130/8/4
f 1120/8/6 1130/8/6 1131/8/6 1121/8/6
f 1085/8/4 1087/8/4 1132/8/4 1131/8/4
f 1121/8/6 1131/8/6 1132/8/6 1122/8/6
f 1087/12/4 1088/12/4 1133/12/4 1132/12/4
f 1122/12/6 1132/12/6 1133/12/6 1123/12/6
f 1072/9/2 1124/9/2 1134/9/2 1089/9/2
f 1088/9/4 1089/9/4 1134/9/4 1133/9/4
f 1123/9/6 1133/9/6 1134/9/6 1124/9/6
