mtllib Juan_Sebastian_Cuellar_Cardon_fase_2.mtl
o Juan_Sebastian_Cuellar_Cardon_fase_2
v -4.0000 1.0000 1.0000
v -3.0000 1.0000 1.0000
v -3.0000 1.0000 -0.0000
v -4.0000 1.0000 -0.0000
v -4.0000 0.0000 1.0000
v -4.0000 0.0000 -0.0000
v -3.0000 0.0000 -0.0000
v -3.0000 0.0000 1.0000
v -4.0000 4.0000 1.0000
v -3.0000 4.0000 1.0000
v -3.0000 4.0000 -0.0000
v -4.0000 4.0000 -0.0000
v -4.0000 3.0000 1.0000
v -4.0000 3.0000 -0.0000
v -3.0000 3.0000 -0.0000
v -3.0000 3.0000 1.0000
v -4.0000 -1.0000 -0.0000
v -4.0000 -1.0000 -1.0000
v -3.0000 -1.0000 -1.0000
v -3.0000 -1.0000 -0.0000
v -4.0000 0.0000 -1.0000
v -3.0000 0.0000 -1.0000
v -3.0000 1.0000 -1.0000
v -4.0000 1.0000 -1.0000
v -3.0000 1.0000 -2.0000
v -4.0000 1.0000 -2.0000
v -4.0000 0.0000 -2.0000
v -3.0000 0.0000 -2.0000
v -3.0000 1.0000 3.0000
v -2.0000 1.0000 3.0000
v -2.0000 1.0000 2.0000
v -3.0000 1.0000 2.0000
v -3.0000 0.0000 3.0000
v -3.0000 0.0000 2.0000
v -2.0000 0.0000 2.0000
v -2.0000 0.0000 3.0000
v -3.0000 4.0000 2.0000
v -2.0000 4.0000 2.0000
v -2.0000 4.0000 1.0000
v -3.0000 3.0000 2.0000
v -2.0000 3.0000 1.0000
v -2.0000 3.0000 2.0000
v -3.0000 2.0000 1.0000
v -3.0000 2.0000 -0.0000
v -2.0000 2.0000 -0.0000
v -2.0000 2.0000 1.0000
v -2.0000 3.0000 -0.0000
v -2.0000 4.0000 -0.0000
v -2.0000 0.0000 -0.0000
v -2.0000 0.0000 -1.0000
v -2.0000 -1.0000 -1.0000
v -2.0000 -1.0000 -0.0000
v -2.0000 4.0000 -1.0000
v -3.0000 4.0000 -1.0000
v -3.0000 3.0000 -1.0000
v -2.0000 3.0000 -1.0000
v -2.0000 1.0000 -1.0000
v -2.0000 1.0000 -2.0000
v -2.0000 0.0000 -2.0000
v -2.0000 1.0000 -3.0000
v -3.0000 1.0000 -3.0000
v -3.0000 0.0000 -3.0000
v -2.0000 0.0000 -3.0000
v -2.0000 1.0000 4.0000
v -1.0000 1.0000 4.0000
v -1.0000 1.0000 3.0000
v -2.0000 0.0000 4.0000
v -1.0000 0.0000 3.0000
v -1.0000 0.0000 4.0000
v -1.0000 1.0000 2.0000
v -1.0000 0.0000 2.0000
v -2.0000 -1.0000 1.0000
v -1.0000 -1.0000 1.0000
v -1.0000 -1.0000 -0.0000
v -2.0000 -2.0000 1.0000
v -2.0000 -2.0000 -0.0000
v -1.0000 -2.0000 -0.0000
v -1.0000 -2.0000 1.0000
v -2.0000 1.0000 1.0000
v -2.0000 1.0000 -0.0000
v -1.0000 1.0000 -0.0000
v -1.0000 1.0000 1.0000
v -1.0000 2.0000 1.0000
v -1.0000 3.0000 1.0000
v -1.0000 3.0000 -0.0000
v -1.0000 2.0000 -0.0000
v -2.0000 -2.0000 -1.0000
v -1.0000 -2.0000 -1.0000
v -1.0000 -1.0000 -1.0000
v -1.0000 0.0000 -0.0000
v -1.0000 0.0000 -1.0000
v -1.0000 2.0000 -1.0000
v -2.0000 2.0000 -1.0000
v -1.0000 1.0000 -1.0000
v -1.0000 4.0000 -0.0000
v -1.0000 4.0000 -1.0000
v -1.0000 3.0000 -1.0000
v -2.0000 4.0000 -2.0000
v -1.0000 4.0000 -2.0000
v -1.0000 4.0000 -3.0000
v -2.0000 4.0000 -3.0000
v -2.0000 3.0000 -2.0000
v -2.0000 3.0000 -3.0000
v -1.0000 3.0000 -3.0000
v -1.0000 3.0000 -2.0000
v -1.0000 -1.0000 4.0000
v -1.0000 -1.0000 3.0000
v 0.0000 -1.0000 3.0000
v 0.0000 -1.0000 4.0000
v 0.0000 0.0000 4.0000
v 0.0000 0.0000 3.0000
v 0.0000 1.0000 4.0000
v 0.0000 1.0000 3.0000
v 0.0000 0.0000 2.0000
v -1.0000 -1.0000 2.0000
v 0.0000 -1.0000 2.0000
v -1.0000 4.0000 3.0000
v 0.0000 4.0000 3.0000
v 0.0000 4.0000 2.0000
v -1.0000 4.0000 2.0000
v -1.0000 3.0000 3.0000
v -1.0000 3.0000 2.0000
v 0.0000 3.0000 2.0000
v 0.0000 3.0000 3.0000
v -1.0000 -2.0000 2.0000
v 0.0000 -2.0000 1.0000
v 0.0000 -2.0000 2.0000
v 0.0000 0.0000 1.0000
v -1.0000 0.0000 1.0000
v 0.0000 -1.0000 1.0000
v -1.0000 2.0000 2.0000
v 0.0000 2.0000 2.0000
v 0.0000 2.0000 1.0000
v 0.0000 1.0000 1.0000
v 0.0000 1.0000 2.0000
v 0.0000 4.0000 1.0000
v -1.0000 4.0000 1.0000
v 0.0000 3.0000 1.0000
v -1.0000 -4.0000 1.0000
v -1.0000 -4.0000 -0.0000
v 0.0000 -4.0000 -0.0000
v 0.0000 -4.0000 1.0000
v 0.0000 -3.0000 1.0000
v -1.0000 -3.0000 1.0000
v -1.0000 -3.0000 -0.0000
v 0.0000 3.0000 -0.0000
v -1.0000 -4.0000 -1.0000
v 0.0000 -4.0000 -1.0000
v -1.0000 -3.0000 -1.0000
v 0.0000 -3.0000 -1.0000
v 0.0000 -2.0000 -1.0000
v 0.0000 0.0000 -1.0000
v 0.0000 -1.0000 -1.0000
v 0.0000 1.0000 -1.0000
v 0.0000 3.0000 -1.0000
v 0.0000 -1.0000 -2.0000
v -1.0000 -1.0000 -2.0000
v -1.0000 -2.0000 -2.0000
v 0.0000 -2.0000 -2.0000
v -1.0000 1.0000 -2.0000
v 0.0000 1.0000 -2.0000
v -1.0000 2.0000 -2.0000
v 0.0000 2.0000 -2.0000
v 0.0000 3.0000 -2.0000
v 0.0000 2.0000 -1.0000
v -1.0000 2.0000 -3.0000
v 0.0000 2.0000 -3.0000
v 0.0000 3.0000 -3.0000
v 0.0000 4.0000 -2.0000
v 0.0000 4.0000 -3.0000
v -1.0000 1.0000 -3.0000
v 0.0000 1.0000 -3.0000
v 0.0000 1.0000 -4.0000
v -1.0000 1.0000 -4.0000
v -1.0000 0.0000 -3.0000
v -1.0000 0.0000 -4.0000
v 0.0000 0.0000 -4.0000
v 0.0000 0.0000 -3.0000
v 0.0000 4.0000 -4.0000
v -1.0000 4.0000 -4.0000
v -1.0000 3.0000 -4.0000
v 0.0000 3.0000 -4.0000
v 1.0000 1.0000 4.0000
v 1.0000 1.0000 3.0000
v 1.0000 0.0000 3.0000
v 1.0000 0.0000 4.0000
v 0.0000 4.0000 4.0000
v 1.0000 4.0000 4.0000
v 1.0000 4.0000 3.0000
v 0.0000 3.0000 4.0000
v 1.0000 3.0000 3.0000
v 1.0000 3.0000 4.0000
v 0.0000 2.0000 3.0000
v 1.0000 2.0000 2.0000
v 1.0000 2.0000 3.0000
v 1.0000 3.0000 2.0000
v 1.0000 4.0000 2.0000
v 1.0000 -1.0000 2.0000
v 1.0000 -1.0000 1.0000
v 1.0000 -2.0000 1.0000
v 1.0000 -2.0000 2.0000
v 1.0000 1.0000 1.0000
v 1.0000 1.0000 2.0000
v 1.0000 2.0000 1.0000
v 1.0000 3.0000 1.0000
v 1.0000 -4.0000 -0.0000
v 1.0000 -4.0000 1.0000
v 1.0000 -3.0000 1.0000
v 1.0000 -3.0000 -0.0000
v 1.0000 -2.0000 -0.0000
v 1.0000 0.0000 1.0000
v 1.0000 0.0000 -0.0000
v 1.0000 1.0000 -0.0000
v 1.0000 3.0000 -0.0000
v 1.0000 2.0000 -0.0000
v 1.0000 -4.0000 -1.0000
v 1.0000 -3.0000 -1.0000
v 1.0000 -2.0000 -1.0000
v 1.0000 -1.0000 -0.0000
v 1.0000 -1.0000 -1.0000
v 1.0000 0.0000 -1.0000
v 1.0000 1.0000 -1.0000
v 1.0000 3.0000 -1.0000
v 1.0000 2.0000 -1.0000
v 1.0000 -2.0000 -2.0000
v 1.0000 -1.0000 -2.0000
v 1.0000 0.0000 -2.0000
v 0.0000 0.0000 -2.0000
v 1.0000 2.0000 -2.0000
v 1.0000 1.0000 -2.0000
v 0.0000 4.0000 -1.0000
v 1.0000 4.0000 -1.0000
v 1.0000 4.0000 -2.0000
v 1.0000 3.0000 -2.0000
v 1.0000 0.0000 -3.0000
v 0.0000 -1.0000 -3.0000
v 1.0000 -1.0000 -3.0000
v 1.0000 4.0000 -3.0000
v 1.0000 3.0000 -3.0000
v 0.0000 -1.0000 -4.0000
v 1.0000 -1.0000 -4.0000
v 1.0000 0.0000 -4.0000
v 1.0000 1.0000 -3.0000
v 1.0000 1.0000 -4.0000
v 2.0000 4.0000 3.0000
v 2.0000 4.0000 2.0000
v 2.0000 3.0000 2.0000
v 2.0000 3.0000 3.0000
v 2.0000 -2.0000 -0.0000
v 2.0000 -2.0000 1.0000
v 2.0000 -1.0000 1.0000
v 2.0000 -1.0000 -0.0000
v 2.0000 0.0000 1.0000
v 2.0000 0.0000 -0.0000
v 2.0000 2.0000 1.0000
v 2.0000 2.0000 -0.0000
v 2.0000 1.0000 -0.0000
v 2.0000 1.0000 1.0000
v 1.0000 4.0000 1.0000
v 2.0000 4.0000 1.0000
v 2.0000 4.0000 -0.0000
v 1.0000 4.0000 -0.0000
v 2.0000 3.0000 -0.0000
v 2.0000 3.0000 1.0000
v 2.0000 -1.0000 -1.0000
v 2.0000 -2.0000 -1.0000
v 2.0000 1.0000 -1.0000
v 2.0000 2.0000 -1.0000
v 2.0000 3.0000 -1.0000
v 2.0000 1.0000 -2.0000
v 2.0000 1.0000 -3.0000
v 2.0000 0.0000 -3.0000
v 2.0000 0.0000 -2.0000
v 2.0000 1.0000 -4.0000
v 2.0000 0.0000 -4.0000
v 2.0000 1.0000 3.0000
v 3.0000 1.0000 3.0000
v 3.0000 1.0000 2.0000
v 2.0000 1.0000 2.0000
v 2.0000 0.0000 3.0000
v 2.0000 0.0000 2.0000
v 3.0000 0.0000 2.0000
v 3.0000 0.0000 3.0000
v 3.0000 1.0000 1.0000
v 3.0000 0.0000 1.0000
v 3.0000 0.0000 -0.0000
v 3.0000 -1.0000 -0.0000
v 3.0000 -1.0000 1.0000
v 3.0000 4.0000 1.0000
v 3.0000 4.0000 -0.0000
v 3.0000 3.0000 -0.0000
v 3.0000 3.0000 1.0000
v 3.0000 2.0000 -1.0000
v 3.0000 2.0000 -0.0000
v 3.0000 3.0000 -1.0000
v 3.0000 4.0000 -1.0000
v 2.0000 4.0000 -1.0000
v 3.0000 4.0000 -2.0000
v 2.0000 4.0000 -2.0000
v 2.0000 3.0000 -2.0000
v 3.0000 3.0000 -2.0000
v 3.0000 1.0000 -2.0000
v 3.0000 1.0000 -3.0000
v 3.0000 0.0000 -3.0000
v 3.0000 0.0000 -2.0000
v 4.0000 1.0000 2.0000
v 4.0000 1.0000 1.0000
v 4.0000 0.0000 1.0000
v 4.0000 0.0000 2.0000
v 4.0000 -1.0000 -0.0000
v 4.0000 -1.0000 1.0000
v 4.0000 0.0000 -0.0000
v 4.0000 1.0000 -0.0000
v 3.0000 1.0000 -0.0000
v 4.0000 1.0000 -1.0000
v 3.0000 1.0000 -1.0000
v 3.0000 0.0000 -1.0000
v 4.0000 0.0000 -1.0000
v 4.0000 4.0000 -0.0000
v 4.0000 4.0000 -1.0000
v 4.0000 3.0000 -1.0000
v 4.0000 3.0000 -0.0000
vt 0.001953 0.500000
vt 0.005859 0.500000
vt 0.009766 0.500000
vt 0.013672 0.500000
vt 0.017578 0.500000
vt 0.021484 0.500000
vt 0.025391 0.500000
vt 0.029297 0.500000
vn 0.0 -1.0 0.0
vn 0.0 1.0 0.0
vn 0.0 0.0 1.0
vn 0.0 0.0 -1.0
vn -1.0 0.0 0.0
vn 1.0 0.0 0.0
usemtl mat_Juan_Sebastian_Cuellar_Cardon_fase_2
s off
f 1/1/2 2/1/2 3/1/2 4/1/2
f 5/1/1 6/1/1 7/1/1 8/1/1
f 5/1/3 8/1/3 2/1/3 1/1/3
f 8/1/6 7/1/6 3/1/6 2/1/6
f 5/1/5 1/1/5 4/1/5 6/1/5
f 9/1/2 10/1/2 11/1/2 12/1/2
f 13/1/1 14/1/1 15/1/1 16/1/1
f 13/1/3 16/1/3 10/1/3 9/1/3
f 14/1/4 12/1/4 11/1/4 15/1/4
f 13/1/5 9/1/5 12/1/5 14/1/5
f 17/2/1 18/2/1 19/2/1 20/2/1
f 17/2/3 20/2/3 7/2/3 6/2/3
f 18/2/4 21/2/4 22/2/4 19/2/4
f 17/2/5 6/2/5 21/2/5 18/2/5
f 4/3/2 3/3/2 23/3/2 24/3/2
f 7/3/6 22/3/6 23/3/6 3/3/6
f 6/3/5 4/3/5 24/3/5 21/3/5
f 24/4/2 23/4/2 25/4/2 26/4/2
f 21/4/1 27/4/1 28/4/1 22/4/1
f 27/4/4 26/4/4 25/4/4 28/4/4
f 21/4/5 24/4/5 26/4/5 27/4/5
f 29/5/2 30/5/2 31/5/2 32/5/2
f 33/5/1 34/5/1 35/5/1 36/5/1
f 33/5/3 36/5/3 30/5/3 29/5/3
f 34/5/4 32/5/4 31/5/4 35/5/4
f 33/5/5 29/5/5 32/5/5 34/5/5
f 37/5/2 38/5/2 39/5/2 10/5/2
f 40/5/1 16/5/1 41/5/1 42/5/1
f 40/5/3 42/5/3 38/5/3 37/5/3
f 42/5/6 41/5/6 39/5/6 38/5/6
f 40/5/5 37/5/5 10/5/5 16/5/5
f 43/3/1 44/3/1 45/3/1 46/3/1
f 43/3/3 46/3/3 41/3/3 16/3/3
f 44/3/4 15/3/4 47/3/4 45/3/4
f 43/3/5 16/3/5 15/3/5 44/3/5
f 10/6/2 39/6/2 48/6/2 11/6/2
f 41/6/6 47/6/6 48/6/6 39/6/6
f 7/2/2 49/2/2 50/2/2 22/2/2
f 20/2/1 19/2/1 51/2/1 52/2/1
f 20/2/3 52/2/3 49/2/3 7/2/3
f 19/2/4 22/2/4 50/2/4 51/2/4
f 11/5/2 48/5/2 53/5/2 54/5/2
f 15/5/1 55/5/1 56/5/1 47/5/1
f 55/5/4 54/5/4 53/5/4 56/5/4
f 15/5/5 11/5/5 54/5/5 55/5/5
f 23/3/2 57/3/2 58/3/2 25/3/2
f 22/3/1 28/3/1 59/3/1 50/3/1
f 22/3/3 50/3/3 57/3/3 23/3/3
f 50/3/6 59/3/6 58/3/6 57/3/6
f 25/4/2 58/4/2 60/4/2 61/4/2
f 28/4/1 62/4/1 63/4/1 59/4/1
f 62/4/4 61/4/4 60/4/4 63/4/4
f 59/4/6 63/4/6 60/4/6 58/4/6
f 28/4/5 25/4/5 61/4/5 62/4/5
f 64/7/2 65/7/2 66/7/2 30/7/2
f 67/7/1 36/7/1 68/7/1 69/7/1
f 67/7/3 69/7/3 65/7/3 64/7/3
f 67/7/5 64/7/5 30/7/5 36/7/5
f 30/6/2 66/6/2 70/6/2 31/6/2
f 36/6/1 35/6/1 71/6/1 68/6/1
f 35/6/4 31/6/4 70/6/4 71/6/4
f 68/6/6 71/6/6 70/6/6 66/6/6
f 72/4/2 73/4/2 74/4/2 52/4/2
f 75/4/1 76/4/1 77/4/1 78/4/1
f 75/4/3 78/4/3 73/4/3 72/4/3
f 75/4/5 72/4/5 52/4/5 76/4/5
f 79/2/1 80/2/1 81/2/1 82/2/1
f 79/2/3 82/2/3 83/2/3 46/2/3
f 79/2/5 46/2/5 45/2/5 80/2/5
f 41/3/2 84/3/2 85/3/2 47/3/2
f 46/3/3 83/3/3 84/3/3 41/3/3
f 45/3/4 47/3/4 85/3/4 86/3/4
f 76/2/1 87/2/1 88/2/1 77/2/1
f 87/2/4 51/2/4 89/2/4 88/2/4
f 76/2/5 52/2/5 51/2/5 87/2/5
f 49/2/2 90/2/2 91/2/2 50/2/2
f 52/2/3 74/2/3 90/2/3 49/2/3
f 51/2/4 50/2/4 91/2/4 89/2/4
f 45/4/2 86/4/2 92/4/2 93/4/2
f 80/4/1 57/4/1 94/4/1 81/4/1
f 57/4/4 93/4/4 92/4/4 94/4/4
f 80/4/5 45/4/5 93/4/5 57/4/5
f 48/6/2 95/6/2 96/6/2 53/6/2
f 47/6/1 56/6/1 97/6/1 85/6/1
f 47/6/3 85/6/3 95/6/3 48/6/3
f 56/6/4 53/6/4 96/6/4 97/6/4
f 85/6/6 97/6/6 96/6/6 95/6/6
f 98/5/2 99/5/2 100/5/2 101/5/2
f 102/5/1 103/5/1 104/5/1 105/5/1
f 102/5/3 105/5/3 99/5/3 98/5/3
f 103/5/4 101/5/4 100/5/4 104/5/4
f 102/5/5 98/5/5 101/5/5 103/5/5
f 106/6/1 107/6/1 108/6/1 109/6/1
f 106/6/3 109/6/3 110/6/3 69/6/3
f 109/6/6 108/6/6 111/6/6 110/6/6
f 106/6/5 69/6/5 68/6/5 107/6/5
f 65/6/2 112/6/2 113/6/2 66/6/2
f 69/6/3 110/6/3 112/6/3 65/6/3
f 68/6/4 66/6/4 113/6/4 111/6/4
f 68/6/2 111/6/2 114/6/2 71/6/2
f 107/6/1 115/6/1 116/6/1 108/6/1
f 108/6/6 116/6/6 114/6/6 111/6/6
f 107/6/5 68/6/5 71/6/5 115/6/5
f 117/8/2 118/8/2 119/8/2 120/8/2
f 121/8/1 122/8/1 123/8/1 124/8/1
f 121/8/3 124/8/3 118/8/3 117/8/3
f 121/8/5 117/8/5 120/8/5 122/8/5
f 125/3/1 78/3/1 126/3/1 127/3/1
f 125/3/3 127/3/3 116/3/3 115/3/3
f 125/3/5 115/3/5 73/3/5 78/3/5
f 71/6/2 114/6/2 128/6/2 129/6/2
f 116/6/6 130/6/6 128/6/6 114/6/6
f 115/6/5 71/6/5 129/6/5 73/6/5
f 131/5/2 132/5/2 133/5/2 83/5/2
f 70/5/1 82/5/1 134/5/1 135/5/1
f 70/5/3 135/5/3 132/5/3 131/5/3
f 70/5/5 131/5/5 83/5/5 82/5/5
f 120/6/2 119/6/2 136/6/2 137/6/2
f 122/6/1 84/6/1 138/6/1 123/6/1
f 84/6/4 137/6/4 136/6/4 138/6/4
f 123/6/6 138/6/6 136/6/6 119/6/6
f 122/6/5 120/6/5 137/6/5 84/6/5
f 139/2/1 140/2/1 141/2/1 142/2/1
f 139/2/3 142/2/3 143/2/3 144/2/3
f 139/2/5 144/2/5 145/2/5 140/2/5
f 144/2/3 143/2/3 126/2/3 78/2/3
f 144/2/5 78/2/5 77/2/5 145/2/5
f 73/3/5 129/3/5 90/3/5 74/3/5
f 129/3/3 128/3/3 134/3/3 82/3/3
f 129/3/5 82/3/5 81/3/5 90/3/5
f 84/3/2 138/3/2 146/3/2 85/3/2
f 83/3/3 133/3/3 138/3/3 84/3/3
f 140/2/1 147/2/1 148/2/1 141/2/1
f 147/2/4 149/2/4 150/2/4 148/2/4
f 140/2/5 145/2/5 149/2/5 147/2/5
f 149/2/4 88/2/4 151/2/4 150/2/4
f 145/2/5 77/2/5 88/2/5 149/2/5
f 89/2/4 91/2/4 152/2/4 153/2/4
f 91/2/4 94/2/4 154/2/4 152/2/4
f 90/2/5 81/2/5 94/2/5 91/2/5
f 85/3/2 146/3/2 155/3/2 97/3/2
f 86/3/5 85/3/5 97/3/5 92/3/5
f 89/4/2 153/4/2 156/4/2 157/4/2
f 88/4/1 158/4/1 159/4/1 151/4/1
f 158/4/4 157/4/4 156/4/4 159/4/4
f 88/4/5 89/4/5 157/4/5 158/4/5
f 94/2/1 160/2/1 161/2/1 154/2/1
f 160/2/4 162/2/4 163/2/4 161/2/4
f 94/2/5 92/2/5 162/2/5 160/2/5
f 97/3/2 155/3/2 164/3/2 105/3/2
f 165/3/6 163/3/6 164/3/6 155/3/6
f 92/3/5 97/3/5 105/3/5 162/3/5
f 162/3/1 166/3/1 167/3/1 163/3/1
f 166/3/4 104/3/4 168/3/4 167/3/4
f 163/3/6 167/3/6 168/3/6 164/3/6
f 162/3/5 105/3/5 104/3/5 166/3/5
f 99/6/2 169/6/2 170/6/2 100/6/2
f 105/6/3 164/6/3 169/6/3 99/6/3
f 171/4/2 172/4/2 173/4/2 174/4/2
f 175/4/1 176/4/1 177/4/1 178/4/1
f 175/4/3 178/4/3 172/4/3 171/4/3
f 176/4/4 174/4/4 173/4/4 177/4/4
f 175/4/5 171/4/5 174/4/5 176/4/5
f 100/7/2 170/7/2 179/7/2 180/7/2
f 104/7/1 181/7/1 182/7/1 168/7/1
f 181/7/4 180/7/4 179/7/4 182/7/4
f 168/7/6 182/7/6 179/7/6 170/7/6
f 104/7/5 100/7/5 180/7/5 181/7/5
f 112/8/2 183/8/2 184/8/2 113/8/2
f 110/8/1 111/8/1 185/8/1 186/8/1
f 110/8/3 186/8/3 183/8/3 112/8/3
f 111/8/4 113/8/4 184/8/4 185/8/4
f 186/8/6 185/8/6 184/8/6 183/8/6
f 187/8/2 188/8/2 189/8/2 118/8/2
f 190/8/1 124/8/1 191/8/1 192/8/1
f 190/8/3 192/8/3 188/8/3 187/8/3
f 192/8/6 191/8/6 189/8/6 188/8/6
f 190/8/5 187/8/5 118/8/5 124/8/5
f 193/6/1 132/6/1 194/6/1 195/6/1
f 193/6/3 195/6/3 191/6/3 124/6/3
f 195/6/6 194/6/6 196/6/6 191/6/6
f 193/6/5 124/6/5 123/6/5 132/6/5
f 118/6/2 189/6/2 197/6/2 119/6/2
f 123/6/4 119/6/4 197/6/4 196/6/4
f 116/5/2 198/5/2 199/5/2 130/5/2
f 127/5/1 126/5/1 200/5/1 201/5/1
f 127/5/3 201/5/3 198/5/3 116/5/3
f 201/5/6 200/5/6 199/5/6 198/5/6
f 135/6/1 134/6/1 202/6/1 203/6/1
f 135/6/3 203/6/3 194/6/3 132/6/3
f 203/6/6 202/6/6 204/6/6 194/6/6
f 123/6/2 196/6/2 205/6/2 138/6/2
f 194/6/6 204/6/6 205/6/6 196/6/6
f 132/6/5 123/6/5 138/6/5 133/6/5
f 142/3/1 141/3/1 206/3/1 207/3/1
f 142/3/3 207/3/3 208/3/3 143/3/3
f 207/3/6 206/3/6 209/3/6 208/3/6
f 143/3/3 208/3/3 200/3/3 126/3/3
f 208/3/6 209/3/6 210/3/6 200/3/6
f 130/3/3 199/3/3 211/3/3 128/3/3
f 128/3/3 211/3/3 202/3/3 134/3/3
f 211/3/6 212/3/6 213/3/6 202/3/6
f 138/6/2 205/6/2 214/6/2 146/6/2
f 204/6/6 215/6/6 214/6/6 205/6/6
f 141/2/1 148/2/1 216/2/1 206/2/1
f 148/2/4 150/2/4 217/2/4 216/2/4
f 206/2/6 216/2/6 217/2/6 209/2/6
f 150/2/4 151/2/4 218/2/4 217/2/4
f 209/2/6 217/2/6 218/2/6 210/2/6
f 219/3/6 220/3/6 221/3/6 212/3/6
f 152/3/4 154/3/4 222/3/4 221/3/4
f 212/3/6 221/3/6 222/3/6 213/3/6
f 146/3/2 214/3/2 223/3/2 155/3/2
f 165/3/4 155/3/4 223/3/4 224/3/4
f 151/2/1 159/2/1 225/2/1 218/2/1
f 159/2/4 156/2/4 226/2/4 225/2/4
f 218/2/6 225/2/6 226/2/6 220/2/6
f 152/2/2 221/2/2 227/2/2 228/2/2
f 220/2/6 226/2/6 227/2/6 221/2/6
f 153/2/5 152/2/5 228/2/5 156/2/5
f 165/4/2 224/4/2 229/4/2 163/4/2
f 154/4/1 161/4/1 230/4/1 222/4/1
f 161/4/4 163/4/4 229/4/4 230/4/4
f 222/4/6 230/4/6 229/4/6 224/4/6
f 231/6/2 232/6/2 233/6/2 169/6/2
f 155/6/1 164/6/1 234/6/1 223/6/1
f 155/6/3 223/6/3 232/6/3 231/6/3
f 223/6/6 234/6/6 233/6/6 232/6/6
f 155/6/5 231/6/5 169/6/5 164/6/5
f 228/2/2 227/2/2 235/2/2 178/2/2
f 156/2/1 236/2/1 237/2/1 226/2/1
f 226/2/6 237/2/6 235/2/6 227/2/6
f 156/2/5 228/2/5 178/2/5 236/2/5
f 169/5/2 233/5/2 238/5/2 170/5/2
f 164/5/1 168/5/1 239/5/1 234/5/1
f 168/5/4 170/5/4 238/5/4 239/5/4
f 234/5/6 239/5/6 238/5/6 233/5/6
f 236/2/1 240/2/1 241/2/1 237/2/1
f 240/2/4 177/2/4 242/2/4 241/2/4
f 237/2/6 241/2/6 242/2/6 235/2/6
f 236/2/5 178/2/5 177/2/5 240/2/5
f 172/3/2 243/3/2 244/3/2 173/3/2
f 178/3/3 235/3/3 243/3/3 172/3/3
f 177/3/4 173/3/4 244/3/4 242/3/4
f 189/7/2 245/7/2 246/7/2 197/7/2
f 191/7/1 196/7/1 247/7/1 248/7/1
f 191/7/3 248/7/3 245/7/3 189/7/3
f 196/7/4 197/7/4 246/7/4 247/7/4
f 248/7/6 247/7/6 246/7/6 245/7/6
f 200/3/1 210/3/1 249/3/1 250/3/1
f 200/3/3 250/3/3 251/3/3 199/3/3
f 250/3/6 249/3/6 252/3/6 251/3/6
f 211/6/2 253/6/2 254/6/2 212/6/2
f 199/6/3 251/6/3 253/6/3 211/6/3
f 219/6/4 212/6/4 254/6/4 252/6/4
f 204/5/2 255/5/2 256/5/2 215/5/2
f 202/5/1 213/5/1 257/5/1 258/5/1
f 202/5/3 258/5/3 255/5/3 204/5/3
f 258/5/6 257/5/6 256/5/6 255/5/6
f 259/6/2 260/6/2 261/6/2 262/6/2
f 205/6/1 214/6/1 263/6/1 264/6/1
f 205/6/3 264/6/3 260/6/3 259/6/3
f 214/6/4 262/6/4 261/6/4 263/6/4
f 205/6/5 259/6/5 262/6/5 214/6/5
f 219/4/2 252/4/2 265/4/2 220/4/2
f 210/4/1 218/4/1 266/4/1 249/4/1
f 218/4/4 220/4/4 265/4/4 266/4/4
f 249/4/6 266/4/6 265/4/6 252/4/6
f 213/3/1 222/3/1 267/3/1 257/3/1
f 222/3/4 224/3/4 268/3/4 267/3/4
f 257/3/6 267/3/6 268/3/6 256/3/6
f 214/3/2 263/3/2 269/3/2 223/3/2
f 215/3/3 256/3/3 263/3/3 214/3/3
f 224/3/4 223/3/4 269/3/4 268/3/4
f 230/3/2 270/3/2 271/3/2 243/3/2
f 227/3/1 235/3/1 272/3/1 273/3/1
f 227/3/3 273/3/3 270/3/3 230/3/3
f 227/3/5 230/3/5 243/3/5 235/3/5
f 243/1/2 271/1/2 274/1/2 244/1/2
f 235/1/1 242/1/1 275/1/1 272/1/1
f 242/1/4 244/1/4 274/1/4 275/1/4
f 272/1/6 275/1/6 274/1/6 271/1/6
f 276/8/2 277/8/2 278/8/2 279/8/2
f 280/8/1 281/8/1 282/8/1 283/8/1
f 280/8/3 283/8/3 277/8/3 276/8/3
f 283/8/6 282/8/6 278/8/6 277/8/6
f 280/8/5 276/8/5 279/8/5 281/8/5
f 279/6/2 278/6/2 284/6/2 258/6/2
f 281/6/1 253/6/1 285/6/1 282/6/1
f 253/6/4 258/6/4 284/6/4 285/6/4
f 281/6/5 279/6/5 258/6/5 253/6/5
f 253/6/2 285/6/2 286/6/2 254/6/2
f 251/6/1 252/6/1 287/6/1 288/6/1
f 251/6/3 288/6/3 285/6/3 253/6/3
f 252/6/4 254/6/4 286/6/4 287/6/4
f 260/8/2 289/8/2 290/8/2 261/8/2
f 264/8/1 263/8/1 291/8/1 292/8/1
f 264/8/3 292/8/3 289/8/3 260/8/3
f 292/8/6 291/8/6 290/8/6 289/8/6
f 256/6/1 268/6/1 293/6/1 294/6/1
f 256/6/3 294/6/3 291/6/3 263/6/3
f 268/6/4 269/6/4 295/6/4 293/6/4
f 294/6/6 293/6/6 295/6/6 291/6/6
f 261/6/2 290/6/2 296/6/2 297/6/2
f 263/6/5 261/6/5 297/6/5 269/6/5
f 297/1/2 296/1/2 298/1/2 299/1/2
f 269/1/1 300/1/1 301/1/1 295/1/1
f 300/1/4 299/1/4 298/1/4 301/1/4
f 295/1/6 301/1/6 298/1/6 296/1/6
f 269/1/5 297/1/5 299/1/5 300/1/5
f 270/5/2 302/5/2 303/5/2 271/5/2
f 273/5/1 272/5/1 304/5/1 305/5/1
f 273/5/3 305/5/3 302/5/3 270/5/3
f 272/5/4 271/5/4 303/5/4 304/5/4
f 305/5/6 304/5/6 303/5/6 302/5/6
f 278/8/2 306/8/2 307/8/2 284/8/2
f 282/8/1 285/8/1 308/8/1 309/8/1
f 282/8/3 309/8/3 306/8/3 278/8/3
f 309/8/6 308/8/6 307/8/6 306/8/6
f 288/6/1 287/6/1 310/6/1 311/6/1
f 288/6/3 311/6/3 308/6/3 285/6/3
f 287/6/4 286/6/4 312/6/4 310/6/4
f 311/6/6 310/6/6 312/6/6 308/6/6
f 284/6/2 307/6/2 313/6/2 314/6/2
f 308/6/6 312/6/6 313/6/6 307/6/6
f 285/6/5 284/6/5 314/6/5 286/6/5
f 314/7/2 313/7/2 315/7/2 316/7/2
f 286/7/1 317/7/1 318/7/1 312/7/1
f 317/7/4 316/7/4 315/7/4 318/7/4
f 312/7/6 318/7/6 315/7/6 313/7/6
f 286/7/5 314/7/5 316/7/5 317/7/5
f 290/8/2 319/8/2 320/8/2 296/8/2
f 291/8/1 295/8/1 321/8/1 322/8/1
f 291/8/3 322/8/3 319/8/3 290/8/3
f 295/8/4 296/8/4 320/8/4 321/8/4
f 322/8/6 321/8/6 320/8/6 319/8/6
