mtllib Maria_Paula_Hernandez_Hernandez_fase_2.mtl
o Maria_Paula_Hernandez_Hernandez_fase_2
v -4.0000 -3.0000 2.0000
v -3.0000 -3.0000 2.0000
v -3.0000 -3.0000 1.0000
v -4.0000 -3.0000 1.0000
v -4.0000 -4.0000 2.0000
v -4.0000 -4.0000 1.0000
v -3.0000 -4.0000 1.0000
v -3.0000 -4.0000 2.0000
v -4.0000 1.0000 2.0000
v -3.0000 1.0000 2.0000
v -3.0000 1.0000 1.0000
v -4.0000 1.0000 1.0000
v -4.0000 0.0000 2.0000
v -4.0000 0.0000 1.0000
v -3.0000 0.0000 1.0000
v -3.0000 0.0000 2.0000
v -4.0000 0.0000 -0.0000
v -3.0000 0.0000 -0.0000
v -3.0000 1.0000 -0.0000
v -4.0000 1.0000 -0.0000
v -4.0000 2.0000 1.0000
v -3.0000 2.0000 1.0000
v -3.0000 2.0000 -0.0000
v -4.0000 2.0000 -0.0000
v -4.0000 -1.0000 -0.0000
v -4.0000 -1.0000 -1.0000
v -3.0000 -1.0000 -1.0000
v -3.0000 -1.0000 -0.0000
v -4.0000 0.0000 -1.0000
v -3.0000 0.0000 -1.0000
v -3.0000 1.0000 -1.0000
v -4.0000 1.0000 -1.0000
v -3.0000 1.0000 -2.0000
v -4.0000 1.0000 -2.0000
v -4.0000 0.0000 -2.0000
v -3.0000 0.0000 -2.0000
v -3.0000 -3.0000 3.0000
v -2.0000 -3.0000 3.0000
v -2.0000 -3.0000 2.0000
v -3.0000 -4.0000 3.0000
v -2.0000 -4.0000 2.0000
v -2.0000 -4.0000 3.0000
v -3.0000 1.0000 3.0000
v -2.0000 1.0000 3.0000
v -2.0000 1.0000 2.0000
v -3.0000 0.0000 3.0000
v -2.0000 0.0000 2.0000
v -2.0000 0.0000 3.0000
v -2.0000 -3.0000 1.0000
v -2.0000 -4.0000 1.0000
v -3.0000 4.0000 2.0000
v -2.0000 4.0000 2.0000
v -2.0000 4.0000 1.0000
v -3.0000 4.0000 1.0000
v -3.0000 3.0000 2.0000
v -3.0000 3.0000 1.0000
v -2.0000 3.0000 1.0000
v -2.0000 3.0000 2.0000
v -2.0000 2.0000 -0.0000
v -2.0000 2.0000 1.0000
v -3.0000 3.0000 -0.0000
v -2.0000 3.0000 -0.0000
v -2.0000 4.0000 -0.0000
v -3.0000 4.0000 -0.0000
v -3.0000 -3.0000 -0.0000
v -2.0000 -3.0000 -0.0000
v -2.0000 -3.0000 -1.0000
v -3.0000 -3.0000 -1.0000
v -3.0000 -4.0000 -0.0000
v -3.0000 -4.0000 -1.0000
v -2.0000 -4.0000 -1.0000
v -2.0000 -4.0000 -0.0000
v -2.0000 0.0000 -0.0000
v -2.0000 0.0000 -1.0000
v -2.0000 -1.0000 -1.0000
v -2.0000 -1.0000 -0.0000
v -2.0000 4.0000 -1.0000
v -3.0000 4.0000 -1.0000
v -3.0000 3.0000 -1.0000
v -2.0000 3.0000 -1.0000
v -2.0000 1.0000 -1.0000
v -2.0000 1.0000 -2.0000
v -2.0000 0.0000 -2.0000
v -2.0000 1.0000 -3.0000
v -3.0000 1.0000 -3.0000
v -3.0000 0.0000 -3.0000
v -2.0000 0.0000 -3.0000
v -2.0000 1.0000 4.0000
v -1.0000 1.0000 4.0000
v -1.0000 1.0000 3.0000
v -2.0000 0.0000 4.0000
v -1.0000 0.0000 3.0000
v -1.0000 0.0000 4.0000
v -1.0000 1.0000 2.0000
v -1.0000 0.0000 2.0000
v -2.0000 2.0000 2.0000
v -1.0000 2.0000 2.0000
v -1.0000 2.0000 1.0000
v -2.0000 1.0000 1.0000
v -1.0000 1.0000 1.0000
v -1.0000 -3.0000 1.0000
v -1.0000 -3.0000 -0.0000
v -1.0000 -4.0000 -0.0000
v -1.0000 -4.0000 1.0000
v -2.0000 -2.0000 1.0000
v -2.0000 -2.0000 -0.0000
v -1.0000 -2.0000 -0.0000
v -1.0000 -2.0000 1.0000
v -1.0000 -1.0000 1.0000
v -2.0000 -1.0000 1.0000
v -2.0000 0.0000 1.0000
v -1.0000 0.0000 1.0000
v -1.0000 0.0000 -0.0000
v -2.0000 1.0000 -0.0000
v -1.0000 1.0000 -0.0000
v -1.0000 3.0000 1.0000
v -1.0000 3.0000 -0.0000
v -1.0000 2.0000 -0.0000
v -1.0000 -3.0000 -1.0000
v -1.0000 -4.0000 -1.0000
v -2.0000 -2.0000 -1.0000
v -1.0000 -2.0000 -1.0000
v -1.0000 -1.0000 -1.0000
v -1.0000 0.0000 -1.0000
v -1.0000 2.0000 -1.0000
v -2.0000 2.0000 -1.0000
v -1.0000 1.0000 -1.0000
v -1.0000 4.0000 -0.0000
v -1.0000 4.0000 -1.0000
v -1.0000 3.0000 -1.0000
v -1.0000 -3.0000 -2.0000
v -2.0000 -3.0000 -2.0000
v -2.0000 -4.0000 -2.0000
v -1.0000 -4.0000 -2.0000
v -1.0000 -3.0000 -3.0000
v -2.0000 -3.0000 -3.0000
v -2.0000 -4.0000 -3.0000
v -1.0000 -4.0000 -3.0000
v -2.0000 4.0000 -2.0000
v -1.0000 4.0000 -2.0000
v -1.0000 4.0000 -3.0000
v -2.0000 4.0000 -3.0000
v -2.0000 3.0000 -2.0000
v -2.0000 3.0000 -3.0000
v -1.0000 3.0000 -3.0000
v -1.0000 3.0000 -2.0000
v -1.0000 -1.0000 4.0000
v -1.0000 -1.0000 3.0000
v 0.0000 -1.0000 3.0000
v 0.0000 -1.0000 4.0000
v 0.0000 0.0000 4.0000
v 0.0000 0.0000 3.0000
v 0.0000 1.0000 4.0000
v 0.0000 1.0000 3.0000
v 0.0000 0.0000 2.0000
v -1.0000 -1.0000 2.0000
v 0.0000 -1.0000 2.0000
v -1.0000 2.0000 3.0000
v 0.0000 2.0000 3.0000
v 0.0000 2.0000 2.0000
v 0.0000 1.0000 2.0000
v -1.0000 4.0000 3.0000
v 0.0000 4.0000 3.0000
v 0.0000 4.0000 2.0000
v -1.0000 4.0000 2.0000
v -1.0000 3.0000 3.0000
v -1.0000 3.0000 2.0000
v 0.0000 3.0000 2.0000
v 0.0000 3.0000 3.0000
v -1.0000 -3.0000 2.0000
v 0.0000 -3.0000 2.0000
v 0.0000 -3.0000 1.0000
v -1.0000 -4.0000 2.0000
v 0.0000 -4.0000 1.0000
v 0.0000 -4.0000 2.0000
v -1.0000 -2.0000 2.0000
v 0.0000 -2.0000 1.0000
v 0.0000 -2.0000 2.0000
v 0.0000 0.0000 1.0000
v 0.0000 2.0000 1.0000
v 0.0000 1.0000 1.0000
v 0.0000 4.0000 1.0000
v -1.0000 4.0000 1.0000
v 0.0000 3.0000 1.0000
v 0.0000 -4.0000 -0.0000
v 0.0000 0.0000 -0.0000
v 0.0000 1.0000 -0.0000
v 0.0000 4.0000 -0.0000
v 0.0000 3.0000 -0.0000
v 0.0000 -4.0000 -1.0000
v 0.0000 -2.0000 -1.0000
v 0.0000 -3.0000 -1.0000
v 0.0000 -3.0000 -0.0000
v 0.0000 -2.0000 -0.0000
v 0.0000 0.0000 -1.0000
v 0.0000 -1.0000 -1.0000
v 0.0000 1.0000 -1.0000
v 0.0000 4.0000 -1.0000
v 0.0000 3.0000 -1.0000
v 0.0000 -3.0000 -2.0000
v 0.0000 -4.0000 -2.0000
v 0.0000 -1.0000 -2.0000
v -1.0000 -1.0000 -2.0000
v -1.0000 -2.0000 -2.0000
v 0.0000 -2.0000 -2.0000
v -1.0000 1.0000 -2.0000
v 0.0000 1.0000 -2.0000
v -1.0000 2.0000 -2.0000
v 0.0000 2.0000 -2.0000
v 0.0000 3.0000 -2.0000
v 0.0000 2.0000 -1.0000
v 0.0000 -3.0000 -3.0000
v 0.0000 -4.0000 -3.0000
v 0.0000 -1.0000 -3.0000
v -1.0000 -1.0000 -3.0000
v -1.0000 -2.0000 -3.0000
v 0.0000 -2.0000 -3.0000
v -1.0000 2.0000 -3.0000
v 0.0000 2.0000 -3.0000
v 0.0000 3.0000 -3.0000
v 0.0000 4.0000 -2.0000
v 0.0000 4.0000 -3.0000
v 0.0000 -3.0000 -4.0000
v -1.0000 -3.0000 -4.0000
v -1.0000 -4.0000 -4.0000
v 0.0000 -4.0000 -4.0000
v -1.0000 1.0000 -3.0000
v 0.0000 1.0000 -3.0000
v 0.0000 1.0000 -4.0000
v -1.0000 1.0000 -4.0000
v -1.0000 0.0000 -3.0000
v -1.0000 0.0000 -4.0000
v 0.0000 0.0000 -4.0000
v 0.0000 0.0000 -3.0000
v 0.0000 4.0000 -4.0000
v -1.0000 4.0000 -4.0000
v -1.0000 3.0000 -4.0000
v 0.0000 3.0000 -4.0000
v 1.0000 1.0000 4.0000
v 1.0000 1.0000 3.0000
v 1.0000 0.0000 3.0000
v 1.0000 0.0000 4.0000
v 0.0000 4.0000 4.0000
v 1.0000 4.0000 4.0000
v 1.0000 4.0000 3.0000
v 0.0000 3.0000 4.0000
v 1.0000 3.0000 3.0000
v 1.0000 3.0000 4.0000
v 1.0000 2.0000 2.0000
v 1.0000 2.0000 3.0000
v 1.0000 3.0000 2.0000
v 1.0000 4.0000 2.0000
v 1.0000 -2.0000 1.0000
v 1.0000 -2.0000 2.0000
v 1.0000 -1.0000 2.0000
v 1.0000 -1.0000 1.0000
v 1.0000 0.0000 2.0000
v 1.0000 0.0000 1.0000
v 1.0000 1.0000 1.0000
v 1.0000 1.0000 2.0000
v 1.0000 2.0000 1.0000
v 1.0000 3.0000 1.0000
v 1.0000 -4.0000 -0.0000
v 1.0000 -4.0000 1.0000
v 1.0000 -3.0000 1.0000
v 1.0000 -2.0000 -0.0000
v 1.0000 -3.0000 -0.0000
v 1.0000 0.0000 -0.0000
v 1.0000 1.0000 -0.0000
v 1.0000 3.0000 -0.0000
v 1.0000 2.0000 -0.0000
v 1.0000 -3.0000 -1.0000
v 1.0000 -4.0000 -1.0000
v 1.0000 -2.0000 -1.0000
v 1.0000 1.0000 -1.0000
v 1.0000 0.0000 -1.0000
v 1.0000 3.0000 -1.0000
v 1.0000 2.0000 -1.0000
v 1.0000 -2.0000 -2.0000
v 1.0000 -1.0000 -2.0000
v 1.0000 -1.0000 -1.0000
v 1.0000 0.0000 -2.0000
v 0.0000 0.0000 -2.0000
v 1.0000 2.0000 -2.0000
v 1.0000 1.0000 -2.0000
v 1.0000 4.0000 -1.0000
v 1.0000 4.0000 -2.0000
v 1.0000 3.0000 -2.0000
v 1.0000 -3.0000 -2.0000
v 1.0000 -3.0000 -3.0000
v 1.0000 -4.0000 -3.0000
v 1.0000 -4.0000 -2.0000
v 1.0000 0.0000 -3.0000
v 1.0000 -1.0000 -3.0000
v 1.0000 4.0000 -3.0000
v 1.0000 3.0000 -3.0000
v 0.0000 -1.0000 -4.0000
v 1.0000 -1.0000 -4.0000
v 1.0000 0.0000 -4.0000
v 1.0000 1.0000 -3.0000
v 1.0000 1.0000 -4.0000
v 1.0000 -3.0000 3.0000
v 2.0000 -3.0000 3.0000
v 2.0000 -3.0000 2.0000
v 1.0000 -3.0000 2.0000
v 1.0000 -4.0000 3.0000
v 1.0000 -4.0000 2.0000
v 2.0000 -4.0000 2.0000
v 2.0000 -4.0000 3.0000
v 2.0000 4.0000 3.0000
v 2.0000 4.0000 2.0000
v 2.0000 3.0000 2.0000
v 2.0000 3.0000 3.0000
v 2.0000 -3.0000 1.0000
v 2.0000 -4.0000 1.0000
v 2.0000 3.0000 1.0000
v 2.0000 2.0000 1.0000
v 2.0000 2.0000 2.0000
v 2.0000 -3.0000 -0.0000
v 2.0000 -4.0000 -0.0000
v 2.0000 -2.0000 -0.0000
v 2.0000 -2.0000 1.0000
v 2.0000 -1.0000 1.0000
v 2.0000 -1.0000 -0.0000
v 2.0000 0.0000 1.0000
v 2.0000 0.0000 -0.0000
v 2.0000 2.0000 -0.0000
v 2.0000 1.0000 -0.0000
v 2.0000 1.0000 1.0000
v 1.0000 4.0000 1.0000
v 2.0000 4.0000 1.0000
v 2.0000 4.0000 -0.0000
v 1.0000 4.0000 -0.0000
v 2.0000 3.0000 -0.0000
v 2.0000 -2.0000 -1.0000
v 2.0000 -1.0000 -1.0000
v 2.0000 0.0000 -1.0000
v 2.0000 1.0000 -1.0000
v 2.0000 2.0000 -1.0000
v 2.0000 3.0000 -1.0000
v 2.0000 4.0000 -1.0000
v 2.0000 -3.0000 -1.0000
v 2.0000 -3.0000 -2.0000
v 2.0000 -4.0000 -2.0000
v 2.0000 -4.0000 -1.0000
v 2.0000 2.0000 -2.0000
v 2.0000 1.0000 -2.0000
v 2.0000 1.0000 -3.0000
v 2.0000 0.0000 -3.0000
v 2.0000 0.0000 -2.0000
v 2.0000 1.0000 -4.0000
v 2.0000 0.0000 -4.0000
v 2.0000 1.0000 3.0000
v 3.0000 1.0000 3.0000
v 3.0000 1.0000 2.0000
v 2.0000 1.0000 2.0000
v 2.0000 0.0000 3.0000
v 2.0000 0.0000 2.0000
v 3.0000 0.0000 2.0000
v 3.0000 0.0000 3.0000
v 3.0000 -3.0000 2.0000
v 3.0000 -3.0000 1.0000
v 3.0000 -4.0000 1.0000
v 3.0000 -4.0000 2.0000
v 3.0000 1.0000 1.0000
v 3.0000 0.0000 1.0000
v 3.0000 0.0000 -0.0000
v 3.0000 -1.0000 -0.0000
v 3.0000 -1.0000 1.0000
v 3.0000 4.0000 1.0000
v 3.0000 4.0000 -0.0000
v 3.0000 3.0000 -0.0000
v 3.0000 3.0000 1.0000
v 3.0000 2.0000 -1.0000
v 3.0000 2.0000 -0.0000
v 3.0000 3.0000 -1.0000
v 3.0000 4.0000 -1.0000
v 3.0000 -3.0000 -1.0000
v 3.0000 -3.0000 -2.0000
v 3.0000 -4.0000 -2.0000
v 3.0000 -4.0000 -1.0000
v 3.0000 2.0000 -2.0000
v 2.0000 3.0000 -2.0000
v 3.0000 3.0000 -2.0000
v 3.0000 4.0000 -2.0000
v 2.0000 4.0000 -2.0000
v 3.0000 1.0000 -2.0000
v 3.0000 1.0000 -3.0000
v 3.0000 0.0000 -3.0000
v 3.0000 0.0000 -2.0000
v 4.0000 1.0000 2.0000
v 4.0000 1.0000 1.0000
v 4.0000 0.0000 1.0000
v 4.0000 0.0000 2.0000
v 4.0000 -1.0000 -0.0000
v 4.0000 -1.0000 1.0000
v 4.0000 0.0000 -0.0000
v 4.0000 1.0000 -0.0000
v 3.0000 1.0000 -0.0000
v 4.0000 1.0000 -1.0000
v 3.0000 1.0000 -1.0000
v 3.0000 0.0000 -1.0000
v 4.0000 0.0000 -1.0000
v 4.0000 4.0000 -0.0000
v 4.0000 4.0000 -1.0000
v 4.0000 3.0000 -1.0000
v 4.0000 3.0000 -0.0000
vt 0.001953 0.500000
vt 0.005859 0.500000
vt 0.009766 0.500000
vt 0.013672 0.500000
vt 0.017578 0.500000
vt 0.021484 0.500000
vt 0.025391 0.500000
vt 0.029297 0.500000
vn 0.0 -1.0 0.0
vn 0.0 1.0 0.0
vn 0.0 0.0 1.0
vn 0.0 0.0 -1.0
vn -1.0 0.0 0.0
vn 1.0 0.0 0.0
usemtl mat_Maria_Paula_Hernandez_Hernandez_fase_2
s off
f 1/1/2 2/1/2 3/1/2 4/1/2
f 5/1/1 6/1/1 7/1/1 8/1/1
f 5/1/3 8/1/3 2/1/3 1/1/3
f 6/1/4 4/1/4 3/1/4 7/1/4
f 5/1/5 1/1/5 4/1/5 6/1/5
f 9/2/2 10/2/2 11/2/2 12/2/2
f 13/2/1 14/2/1 15/2/1 16/2/1
f 13/2/3 16/2/3 10/2/3 9/2/3
f 16/2/6 15/2/6 11/2/6 10/2/6
f 13/2/5 9/2/5 12/2/5 14/2/5
f 14/2/1 17/2/1 18/2/1 15/2/1
f 15/2/6 18/2/6 19/2/6 11/2/6
f 14/2/5 12/2/5 20/2/5 17/2/5
f 21/1/2 22/1/2 23/1/2 24/1/2
f 12/1/3 11/1/3 22/1/3 21/1/3
f 20/1/4 24/1/4 23/1/4 19/1/4
f 11/1/6 19/1/6 23/1/6 22/1/6
f 12/1/5 21/1/5 24/1/5 20/1/5
f 25/1/1 26/1/1 27/1/1 28/1/1
f 25/1/3 28/1/3 18/1/3 17/1/3
f 26/1/4 29/1/4 30/1/4 27/1/4
f 25/1/5 17/1/5 29/1/5 26/1/5
f 20/3/2 19/3/2 31/3/2 32/3/2
f 18/3/6 30/3/6 31/3/6 19/3/6
f 17/3/5 20/3/5 32/3/5 29/3/5
f 32/4/2 31/4/2 33/4/2 34/4/2
f 29/4/1 35/4/1 36/4/1 30/4/1
f 35/4/4 34/4/4 33/4/4 36/4/4
f 29/4/5 32/4/5 34/4/5 35/4/5
f 37/1/2 38/1/2 39/1/2 2/1/2
f 40/1/1 8/1/1 41/1/1 42/1/1
f 40/1/3 42/1/3 38/1/3 37/1/3
f 42/1/6 41/1/6 39/1/6 38/1/6
f 40/1/5 37/1/5 2/1/5 8/1/5
f 43/2/2 44/2/2 45/2/2 10/2/2
f 46/2/1 16/2/1 47/2/1 48/2/1
f 46/2/3 48/2/3 44/2/3 43/2/3
f 16/2/4 10/2/4 45/2/4 47/2/4
f 46/2/5 43/2/5 10/2/5 16/2/5
f 2/1/2 39/1/2 49/1/2 3/1/2
f 8/1/1 7/1/1 50/1/1 41/1/1
f 7/1/4 3/1/4 49/1/4 50/1/4
f 41/1/6 50/1/6 49/1/6 39/1/6
f 51/4/2 52/4/2 53/4/2 54/4/2
f 55/4/1 56/4/1 57/4/1 58/4/1
f 55/4/3 58/4/3 52/4/3 51/4/3
f 58/4/6 57/4/6 53/4/6 52/4/6
f 55/4/5 51/4/5 54/4/5 56/4/5
f 22/3/1 23/3/1 59/3/1 60/3/1
f 22/3/3 60/3/3 57/3/3 56/3/3
f 23/3/4 61/3/4 62/3/4 59/3/4
f 22/3/5 56/3/5 61/3/5 23/3/5
f 54/3/2 53/3/2 63/3/2 64/3/2
f 57/3/6 62/3/6 63/3/6 53/3/6
f 56/3/5 54/3/5 64/3/5 61/3/5
f 65/5/2 66/5/2 67/5/2 68/5/2
f 69/5/1 70/5/1 71/5/1 72/5/1
f 69/5/3 72/5/3 66/5/3 65/5/3
f 70/5/4 68/5/4 67/5/4 71/5/4
f 69/5/5 65/5/5 68/5/5 70/5/5
f 18/5/2 73/5/2 74/5/2 30/5/2
f 28/5/1 27/5/1 75/5/1 76/5/1
f 28/5/3 76/5/3 73/5/3 18/5/3
f 27/5/4 30/5/4 74/5/4 75/5/4
f 64/3/2 63/3/2 77/3/2 78/3/2
f 61/3/1 79/3/1 80/3/1 62/3/1
f 79/3/4 78/3/4 77/3/4 80/3/4
f 61/3/5 64/3/5 78/3/5 79/3/5
f 31/2/2 81/2/2 82/2/2 33/2/2
f 30/2/1 36/2/1 83/2/1 74/2/1
f 30/2/3 74/2/3 81/2/3 31/2/3
f 74/2/6 83/2/6 82/2/6 81/2/6
f 33/3/2 82/3/2 84/3/2 85/3/2
f 36/3/1 86/3/1 87/3/1 83/3/1
f 86/3/4 85/3/4 84/3/4 87/3/4
f 83/3/6 87/3/6 84/3/6 82/3/6
f 36/3/5 33/3/5 85/3/5 86/3/5
f 88/3/2 89/3/2 90/3/2 44/3/2
f 91/3/1 48/3/1 92/3/1 93/3/1
f 91/3/3 93/3/3 89/3/3 88/3/3
f 91/3/5 88/3/5 44/3/5 48/3/5
f 44/3/2 90/3/2 94/3/2 45/3/2
f 48/3/1 47/3/1 95/3/1 92/3/1
f 47/3/4 45/3/4 94/3/4 95/3/4
f 92/3/6 95/3/6 94/3/6 90/3/6
f 96/1/2 97/1/2 98/1/2 60/1/2
f 45/1/1 99/1/1 100/1/1 94/1/1
f 45/1/3 94/1/3 97/1/3 96/1/3
f 45/1/5 96/1/5 60/1/5 99/1/5
f 49/1/2 101/1/2 102/1/2 66/1/2
f 50/1/1 72/1/1 103/1/1 104/1/1
f 50/1/3 104/1/3 101/1/3 49/1/3
f 50/1/5 49/1/5 66/1/5 72/1/5
f 105/3/1 106/3/1 107/3/1 108/3/1
f 105/3/3 108/3/3 109/3/3 110/3/3
f 105/3/5 110/3/5 76/3/5 106/3/5
f 111/1/2 112/1/2 113/1/2 73/1/2
f 110/1/3 109/1/3 112/1/3 111/1/3
f 110/1/5 111/1/5 73/1/5 76/1/5
f 99/5/1 114/5/1 115/5/1 100/5/1
f 99/5/5 60/5/5 59/5/5 114/5/5
f 57/4/2 116/4/2 117/4/2 62/4/2
f 60/4/3 98/4/3 116/4/3 57/4/3
f 59/4/4 62/4/4 117/4/4 118/4/4
f 66/1/2 102/1/2 119/1/2 67/1/2
f 72/1/1 71/1/1 120/1/1 103/1/1
f 106/1/1 121/1/1 122/1/1 107/1/1
f 121/1/4 75/1/4 123/1/4 122/1/4
f 106/1/5 76/1/5 75/1/5 121/1/5
f 73/4/2 113/4/2 124/4/2 74/4/2
f 75/4/4 74/4/4 124/4/4 123/4/4
f 59/2/2 118/2/2 125/2/2 126/2/2
f 114/2/1 81/2/1 127/2/1 115/2/1
f 81/2/4 126/2/4 125/2/4 127/2/4
f 114/2/5 59/2/5 126/2/5 81/2/5
f 63/2/2 128/2/2 129/2/2 77/2/2
f 62/2/1 80/2/1 130/2/1 117/2/1
f 62/2/3 117/2/3 128/2/3 63/2/3
f 80/2/4 77/2/4 129/2/4 130/2/4
f 67/1/2 119/1/2 131/1/2 132/1/2
f 71/1/1 133/1/1 134/1/1 120/1/1
f 71/1/5 67/1/5 132/1/5 133/1/5
f 132/1/2 131/1/2 135/1/2 136/1/2
f 133/1/1 137/1/1 138/1/1 134/1/1
f 137/1/4 136/1/4 135/1/4 138/1/4
f 133/1/5 132/1/5 136/1/5 137/1/5
f 139/2/2 140/2/2 141/2/2 142/2/2
f 143/2/1 144/2/1 145/2/1 146/2/1
f 143/2/3 146/2/3 140/2/3 139/2/3
f 144/2/4 142/2/4 141/2/4 145/2/4
f 143/2/5 139/2/5 142/2/5 144/2/5
f 147/2/1 148/2/1 149/2/1 150/2/1
f 147/2/3 150/2/3 151/2/3 93/2/3
f 150/2/6 149/2/6 152/2/6 151/2/6
f 147/2/5 93/2/5 92/2/5 148/2/5
f 89/4/2 153/4/2 154/4/2 90/4/2
f 93/4/3 151/4/3 153/4/3 89/4/3
f 92/4/4 90/4/4 154/4/4 152/4/4
f 92/2/2 152/2/2 155/2/2 95/2/2
f 148/2/1 156/2/1 157/2/1 149/2/1
f 149/2/6 157/2/6 155/2/6 152/2/6
f 148/2/5 92/2/5 95/2/5 156/2/5
f 158/6/2 159/6/2 160/6/2 97/6/2
f 90/6/1 94/6/1 161/6/1 154/6/1
f 90/6/3 154/6/3 159/6/3 158/6/3
f 154/6/6 161/6/6 160/6/6 159/6/6
f 90/6/5 158/6/5 97/6/5 94/6/5
f 162/3/2 163/3/2 164/3/2 165/3/2
f 166/3/1 167/3/1 168/3/1 169/3/1
f 166/3/3 169/3/3 163/3/3 162/3/3
f 166/3/5 162/3/5 165/3/5 167/3/5
f 170/1/2 171/1/2 172/1/2 101/1/2
f 173/1/1 104/1/1 174/1/1 175/1/1
f 173/1/3 175/1/3 171/1/3 170/1/3
f 175/1/6 174/1/6 172/1/6 171/1/6
f 173/1/5 170/1/5 101/1/5 104/1/5
f 176/2/1 108/2/1 177/2/1 178/2/1
f 176/2/3 178/2/3 157/2/3 156/2/3
f 176/2/5 156/2/5 109/2/5 108/2/5
f 95/2/2 155/2/2 179/2/2 112/2/2
f 156/2/5 95/2/5 112/2/5 109/2/5
f 97/2/2 160/2/2 180/2/2 98/2/2
f 94/2/1 100/2/1 181/2/1 161/2/1
f 165/3/2 164/3/2 182/3/2 183/3/2
f 167/3/1 116/3/1 184/3/1 168/3/1
f 168/3/6 184/3/6 182/3/6 164/3/6
f 167/3/5 165/3/5 183/3/5 116/3/5
f 104/5/1 103/5/1 185/5/1 174/5/1
f 101/5/3 172/5/3 177/5/3 108/5/3
f 101/5/5 108/5/5 107/5/5 102/5/5
f 112/3/3 179/3/3 181/3/3 100/3/3
f 179/3/6 186/3/6 187/3/6 181/3/6
f 112/3/5 100/3/5 115/3/5 113/3/5
f 98/3/3 180/3/3 184/3/3 116/3/3
f 183/6/2 182/6/2 188/6/2 128/6/2
f 184/6/6 189/6/6 188/6/6 182/6/6
f 116/6/5 183/6/5 128/6/5 117/6/5
f 103/5/1 120/5/1 190/5/1 185/5/1
f 119/1/4 122/1/4 191/1/4 192/1/4
f 193/1/6 192/1/6 191/1/6 194/1/6
f 102/1/5 107/1/5 122/1/5 119/1/5
f 123/1/4 124/1/4 195/1/4 196/1/4
f 124/5/4 127/5/4 197/5/4 195/5/4
f 113/5/5 115/5/5 127/5/5 124/5/5
f 118/3/5 117/3/5 130/3/5 125/3/5
f 128/1/2 188/1/2 198/1/2 129/1/2
f 130/1/4 129/1/4 198/1/4 199/1/4
f 189/1/6 199/1/6 198/1/6 188/1/6
f 119/5/2 192/5/2 200/5/2 131/5/2
f 120/5/1 134/5/1 201/5/1 190/5/1
f 190/5/6 201/5/6 200/5/6 192/5/6
f 123/3/2 196/3/2 202/3/2 203/3/2
f 122/3/1 204/3/1 205/3/1 191/3/1
f 122/3/5 123/3/5 203/3/5 204/3/5
f 127/4/1 206/4/1 207/4/1 197/4/1
f 206/4/4 208/4/4 209/4/4 207/4/4
f 127/4/5 125/4/5 208/4/5 206/4/5
f 130/3/2 199/3/2 210/3/2 146/3/2
f 211/3/6 209/3/6 210/3/6 199/3/6
f 125/3/5 130/3/5 146/3/5 208/3/5
f 131/1/2 200/1/2 212/1/2 135/1/2
f 134/1/1 138/1/1 213/1/1 201/1/1
f 203/6/2 202/6/2 214/6/2 215/6/2
f 204/6/1 216/6/1 217/6/1 205/6/1
f 216/6/4 215/6/4 214/6/4 217/6/4
f 205/6/6 217/6/6 214/6/6 202/6/6
f 204/6/5 203/6/5 215/6/5 216/6/5
f 208/3/1 218/3/1 219/3/1 209/3/1
f 218/3/4 145/3/4 220/3/4 219/3/4
f 209/3/6 219/3/6 220/3/6 210/3/6
f 208/3/5 146/3/5 145/3/5 218/3/5
f 140/2/2 221/2/2 222/2/2 141/2/2
f 146/2/3 210/2/3 221/2/3 140/2/3
f 135/1/2 212/1/2 223/1/2 224/1/2
f 138/1/1 225/1/1 226/1/1 213/1/1
f 225/1/4 224/1/4 223/1/4 226/1/4
f 213/1/6 226/1/6 223/1/6 212/1/6
f 138/1/5 135/1/5 224/1/5 225/1/5
f 227/2/2 228/2/2 229/2/2 230/2/2
f 231/2/1 232/2/1 233/2/1 234/2/1
f 231/2/3 234/2/3 228/2/3 227/2/3
f 232/2/4 230/2/4 229/2/4 233/2/4
f 231/2/5 227/2/5 230/2/5 232/2/5
f 141/2/2 222/2/2 235/2/2 236/2/2
f 145/2/1 237/2/1 238/2/1 220/2/1
f 237/2/4 236/2/4 235/2/4 238/2/4
f 220/2/6 238/2/6 235/2/6 222/2/6
f 145/2/5 141/2/5 236/2/5 237/2/5
f 153/2/2 239/2/2 240/2/2 154/2/2
f 151/2/1 152/2/1 241/2/1 242/2/1
f 151/2/3 242/2/3 239/2/3 153/2/3
f 152/2/4 154/2/4 240/2/4 241/2/4
f 242/2/6 241/2/6 240/2/6 239/2/6
f 243/3/2 244/3/2 245/3/2 163/3/2
f 246/3/1 169/3/1 247/3/1 248/3/1
f 246/3/3 248/3/3 244/3/3 243/3/3
f 248/3/6 247/3/6 245/3/6 244/3/6
f 246/3/5 243/3/5 163/3/5 169/3/5
f 159/3/1 160/3/1 249/3/1 250/3/1
f 159/3/3 250/3/3 247/3/3 169/3/3
f 250/3/6 249/3/6 251/3/6 247/3/6
f 159/3/5 169/3/5 168/3/5 160/3/5
f 163/4/2 245/4/2 252/4/2 164/4/2
f 168/4/4 164/4/4 252/4/4 251/4/4
f 178/2/1 177/2/1 253/2/1 254/2/1
f 178/2/3 254/2/3 255/2/3 157/2/3
f 254/2/6 253/2/6 256/2/6 255/2/6
f 155/6/2 257/6/2 258/6/2 179/6/2
f 157/6/3 255/6/3 257/6/3 155/6/3
f 255/6/6 256/6/6 258/6/6 257/6/6
f 161/2/1 181/2/1 259/2/1 260/2/1
f 161/2/3 260/2/3 249/2/3 160/2/3
f 260/2/6 259/2/6 261/2/6 249/2/6
f 168/2/2 251/2/2 262/2/2 184/2/2
f 160/2/5 168/2/5 184/2/5 180/2/5
f 174/5/1 185/5/1 263/5/1 264/5/1
f 174/5/3 264/5/3 265/5/3 172/5/3
f 172/1/3 265/1/3 253/1/3 177/1/3
f 193/1/4 194/1/4 266/1/4 267/1/4
f 265/1/6 267/1/6 266/1/6 253/1/6
f 179/3/2 258/3/2 268/3/2 186/3/2
f 181/3/1 187/3/1 269/3/1 259/3/1
f 184/2/2 262/2/2 270/2/2 189/2/2
f 261/2/6 271/2/6 270/2/6 262/2/6
f 193/1/2 267/1/2 272/1/2 192/1/2
f 185/1/1 190/1/1 273/1/1 263/1/1
f 190/1/4 192/1/4 272/1/4 273/1/4
f 263/1/6 273/1/6 272/1/6 267/1/6
f 194/7/1 191/7/1 274/7/1 266/7/1
f 186/3/3 268/3/3 269/3/3 187/3/3
f 195/3/4 197/3/4 275/3/4 276/3/4
f 268/3/6 276/3/6 275/3/6 269/3/6
f 189/3/2 270/3/2 277/3/2 199/3/2
f 211/3/4 199/3/4 277/3/4 278/3/4
f 191/1/1 205/1/1 279/1/1 274/1/1
f 205/1/4 202/1/4 280/1/4 279/1/4
f 274/1/6 279/1/6 280/1/6 281/1/6
f 195/4/2 276/4/2 282/4/2 283/4/2
f 281/4/6 280/4/6 282/4/6 276/4/6
f 196/4/5 195/4/5 283/4/5 202/4/5
f 211/3/2 278/3/2 284/3/2 209/3/2
f 197/3/1 207/3/1 285/3/1 275/3/1
f 207/3/4 209/3/4 284/3/4 285/3/4
f 198/3/2 286/3/2 287/3/2 221/3/2
f 199/3/1 210/3/1 288/3/1 277/3/1
f 199/3/3 277/3/3 286/3/3 198/3/3
f 277/3/6 288/3/6 287/3/6 286/3/6
f 199/3/5 198/3/5 221/3/5 210/3/5
f 200/5/2 289/5/2 290/5/2 212/5/2
f 201/5/1 213/5/1 291/5/1 292/5/1
f 201/5/3 292/5/3 289/5/3 200/5/3
f 213/5/4 212/5/4 290/5/4 291/5/4
f 292/5/6 291/5/6 290/5/6 289/5/6
f 283/5/2 282/5/2 293/5/2 234/5/2
f 202/5/1 214/5/1 294/5/1 280/5/1
f 280/5/6 294/5/6 293/5/6 282/5/6
f 202/5/5 283/5/5 234/5/5 214/5/5
f 221/3/2 287/3/2 295/3/2 222/3/2
f 210/3/1 220/3/1 296/3/1 288/3/1
f 220/3/4 222/3/4 295/3/4 296/3/4
f 288/3/6 296/3/6 295/3/6 287/3/6
f 214/4/1 297/4/1 298/4/1 294/4/1
f 297/4/4 233/4/4 299/4/4 298/4/4
f 294/4/6 298/4/6 299/4/6 293/4/6
f 214/4/5 234/4/5 233/4/5 297/4/5
f 228/3/2 300/3/2 301/3/2 229/3/2
f 234/3/3 293/3/3 300/3/3 228/3/3
f 233/3/4 229/3/4 301/3/4 299/3/4
f 302/1/2 303/1/2 304/1/2 305/1/2
f 306/1/1 307/1/1 308/1/1 309/1/1
f 306/1/3 309/1/3 303/1/3 302/1/3
f 309/1/6 308/1/6 304/1/6 303/1/6
f 306/1/5 302/1/5 305/1/5 307/1/5
f 245/4/2 310/4/2 311/4/2 252/4/2
f 247/4/1 251/4/1 312/4/1 313/4/1
f 247/4/3 313/4/3 310/4/3 245/4/3
f 251/4/4 252/4/4 311/4/4 312/4/4
f 313/4/6 312/4/6 311/4/6 310/4/6
f 305/1/2 304/1/2 314/1/2 265/1/2
f 307/1/1 264/1/1 315/1/1 308/1/1
f 307/1/5 305/1/5 265/1/5 264/1/5
f 251/1/2 312/1/2 316/1/2 262/1/2
f 249/1/1 261/1/1 317/1/1 318/1/1
f 249/1/3 318/1/3 312/1/3 251/1/3
f 261/1/4 262/1/4 316/1/4 317/1/4
f 318/1/6 317/1/6 316/1/6 312/1/6
f 265/1/2 314/1/2 319/1/2 267/1/2
f 264/1/1 263/1/1 320/1/1 315/1/1
f 263/1/4 267/1/4 319/1/4 320/1/4
f 315/1/6 320/1/6 319/1/6 314/1/6
f 253/3/1 266/3/1 321/3/1 322/3/1
f 253/3/3 322/3/3 323/3/3 256/3/3
f 322/3/6 321/3/6 324/3/6 323/3/6
f 258/2/2 325/2/2 326/2/2 268/2/2
f 256/2/3 323/2/3 325/2/3 258/2/3
f 261/3/2 317/3/2 327/3/2 271/3/2
f 259/3/1 269/3/1 328/3/1 329/3/1
f 259/3/3 329/3/3 317/3/3 261/3/3
f 329/3/6 328/3/6 327/3/6 317/3/6
f 330/4/2 331/4/2 332/4/2 333/4/2
f 262/4/1 270/4/1 334/4/1 316/4/1
f 262/4/3 316/4/3 331/4/3 330/4/3
f 262/4/5 330/4/5 333/4/5 270/4/5
f 266/3/1 274/3/1 335/3/1 321/3/1
f 274/3/4 281/3/4 336/3/4 335/3/4
f 321/3/6 335/3/6 336/3/6 324/3/6
f 268/1/2 326/1/2 337/1/2 276/1/2
f 281/1/4 276/1/4 337/1/4 336/1/4
f 324/1/6 336/1/6 337/1/6 326/1/6
f 269/3/1 275/3/1 338/3/1 328/3/1
f 328/3/6 338/3/6 339/3/6 327/3/6
f 271/3/3 327/3/3 334/3/3 270/3/3
f 278/3/4 277/3/4 340/3/4 339/3/4
f 333/1/2 332/1/2 341/1/2 286/1/2
f 277/1/4 286/1/4 341/1/4 340/1/4
f 270/1/5 333/1/5 286/1/5 277/1/5
f 272/5/2 342/5/2 343/5/2 289/5/2
f 273/5/1 292/5/1 344/5/1 345/5/1
f 273/5/3 345/5/3 342/5/3 272/5/3
f 292/5/4 289/5/4 343/5/4 344/5/4
f 273/5/5 272/5/5 289/5/5 292/5/5
f 278/1/2 339/1/2 346/1/2 284/1/2
f 275/1/1 285/1/1 347/1/1 338/1/1
f 285/1/4 284/1/4 346/1/4 347/1/4
f 338/1/6 347/1/6 346/1/6 339/1/6
f 285/2/2 347/2/2 348/2/2 300/2/2
f 282/2/1 293/2/1 349/2/1 350/2/1
f 282/2/3 350/2/3 347/2/3 285/2/3
f 282/2/5 285/2/5 300/2/5 293/2/5
f 300/3/2 348/3/2 351/3/2 301/3/2
f 293/3/1 299/3/1 352/3/1 349/3/1
f 299/3/4 301/3/4 351/3/4 352/3/4
f 349/3/6 352/3/6 351/3/6 348/3/6
f 353/3/2 354/3/2 355/3/2 356/3/2
f 357/3/1 358/3/1 359/3/1 360/3/1
f 357/3/3 360/3/3 354/3/3 353/3/3
f 360/3/6 359/3/6 355/3/6 354/3/6
f 357/3/5 353/3/5 356/3/5 358/3/5
f 304/1/2 361/1/2 362/1/2 314/1/2
f 308/1/1 315/1/1 363/1/1 364/1/1
f 308/1/3 364/1/3 361/1/3 304/1/3
f 315/1/4 314/1/4 362/1/4 363/1/4
f 364/1/6 363/1/6 362/1/6 361/1/6
f 356/2/2 355/2/2 365/2/2 329/2/2
f 358/2/1 325/2/1 366/2/1 359/2/1
f 325/2/4 329/2/4 365/2/4 366/2/4
f 358/2/5 356/2/5 329/2/5 325/2/5
f 325/3/2 366/3/2 367/3/2 326/3/2
f 323/3/1 324/3/1 368/3/1 369/3/1
f 323/3/3 369/3/3 366/3/3 325/3/3
f 324/3/4 326/3/4 367/3/4 368/3/4
f 331/2/2 370/2/2 371/2/2 332/2/2
f 316/2/1 334/2/1 372/2/1 373/2/1
f 316/2/3 373/2/3 370/2/3 331/2/3
f 373/2/6 372/2/6 371/2/6 370/2/6
f 327/3/1 339/3/1 374/3/1 375/3/1
f 327/3/3 375/3/3 372/3/3 334/3/3
f 375/3/6 374/3/6 376/3/6 372/3/6
f 332/2/2 371/2/2 377/2/2 341/2/2
f 342/1/2 378/1/2 379/1/2 343/1/2
f 345/1/1 344/1/1 380/1/1 381/1/1
f 345/1/3 381/1/3 378/1/3 342/1/3
f 344/1/4 343/1/4 379/1/4 380/1/4
f 381/1/6 380/1/6 379/1/6 378/1/6
f 339/6/1 346/6/1 382/6/1 374/6/1
f 346/6/4 383/6/4 384/6/4 382/6/4
f 374/6/6 382/6/6 384/6/6 376/6/6
f 339/6/5 340/6/5 383/6/5 346/6/5
f 341/3/2 377/3/2 385/3/2 386/3/2
f 383/3/4 386/3/4 385/3/4 384/3/4
f 376/3/6 384/3/6 385/3/6 377/3/6
f 340/3/5 341/3/5 386/3/5 383/3/5
f 347/3/2 387/3/2 388/3/2 348/3/2
f 350/3/1 349/3/1 389/3/1 390/3/1
f 350/3/3 390/3/3 387/3/3 347/3/3
f 349/3/4 348/3/4 388/3/4 389/3/4
f 390/3/6 389/3/6 388/3/6 387/3/6
f 355/2/2 391/2/2 392/2/2 365/2/2
f 359/2/1 366/2/1 393/2/1 394/2/1
f 359/2/3 394/2/3 391/2/3 355/2/3
f 394/2/6 393/2/6 392/2/6 391/2/6
f 369/3/1 368/3/1 395/3/1 396/3/1
f 369/3/3 396/3/3 393/3/3 366/3/3
f 368/3/4 367/3/4 397/3/4 395/3/4
f 396/3/6 395/3/6 397/3/6 393/3/6
f 365/3/2 392/3/2 398/3/2 399/3/2
f 393/3/6 397/3/6 398/3/6 392/3/6
f 366/3/5 365/3/5 399/3/5 367/3/5
f 399/2/2 398/2/2 400/2/2 401/2/2
f 367/2/1 402/2/1 403/2/1 397/2/1
f 402/2/4 401/2/4 400/2/4 403/2/4
f 397/2/6 403/2/6 400/2/6 398/2/6
f 367/2/5 399/2/5 401/2/5 402/2/5
f 371/2/2 404/2/2 405/2/2 377/2/2
f 372/2/1 376/2/1 406/2/1 407/2/1
f 372/2/3 407/2/3 404/2/3 371/2/3
f 376/2/4 377/2/4 405/2/4 406/2/4
f 407/2/6 406/2/6 405/2/6 404/2/6
