mtllib Lina_Vanesa_Rico_Laverde_fase_2.mtl
o Lina_Vanesa_Rico_Laverde_fase_2
v -4.0000 3.0000 2.0000
v -3.0000 3.0000 2.0000
v -3.0000 3.0000 1.0000
v -4.0000 3.0000 1.0000
v -4.0000 2.0000 2.0000
v -4.0000 2.0000 1.0000
v -3.0000 2.0000 1.0000
v -3.0000 2.0000 2.0000
v -4.0000 0.0000 1.0000
v -4.0000 0.0000 -0.0000
v -3.0000 0.0000 -0.0000
v -3.0000 0.0000 1.0000
v -3.0000 1.0000 1.0000
v -4.0000 1.0000 1.0000
v -3.0000 1.0000 -0.0000
v -4.0000 1.0000 -0.0000
v -4.0000 2.0000 -0.0000
v -4.0000 3.0000 -0.0000
v -3.0000 3.0000 -0.0000
v -3.0000 2.0000 -0.0000
v -4.0000 4.0000 1.0000
v -3.0000 4.0000 1.0000
v -3.0000 4.0000 -0.0000
v -4.0000 4.0000 -0.0000
v -4.0000 -1.0000 -0.0000
v -4.0000 -1.0000 -1.0000
v -3.0000 -1.0000 -1.0000
v -3.0000 -1.0000 -0.0000
v -4.0000 0.0000 -1.0000
v -3.0000 0.0000 -1.0000
v -3.0000 1.0000 -1.0000
v -4.0000 1.0000 -1.0000
v -3.0000 2.0000 -1.0000
v -4.0000 2.0000 -1.0000
v -3.0000 1.0000 -2.0000
v -4.0000 1.0000 -2.0000
v -4.0000 0.0000 -2.0000
v -3.0000 0.0000 -2.0000
v -4.0000 3.0000 -2.0000
v -3.0000 3.0000 -2.0000
v -3.0000 3.0000 -3.0000
v -4.0000 3.0000 -3.0000
v -4.0000 2.0000 -2.0000
v -4.0000 2.0000 -3.0000
v -3.0000 2.0000 -3.0000
v -3.0000 2.0000 -2.0000
v -3.0000 0.0000 3.0000
v -3.0000 0.0000 2.0000
v -2.0000 0.0000 2.0000
v -2.0000 0.0000 3.0000
v -2.0000 1.0000 3.0000
v -3.0000 1.0000 3.0000
v -3.0000 1.0000 2.0000
v -2.0000 1.0000 2.0000
v -3.0000 2.0000 3.0000
v -2.0000 2.0000 3.0000
v -2.0000 2.0000 2.0000
v -2.0000 1.0000 1.0000
v -2.0000 3.0000 2.0000
v -2.0000 2.0000 1.0000
v -2.0000 3.0000 1.0000
v -3.0000 4.0000 2.0000
v -2.0000 4.0000 2.0000
v -2.0000 4.0000 1.0000
v -2.0000 1.0000 -0.0000
v -2.0000 4.0000 -0.0000
v -2.0000 0.0000 -0.0000
v -2.0000 0.0000 -1.0000
v -2.0000 -1.0000 -1.0000
v -2.0000 -1.0000 -0.0000
v -2.0000 1.0000 -1.0000
v -3.0000 3.0000 -1.0000
v -2.0000 3.0000 -1.0000
v -2.0000 2.0000 -1.0000
v -2.0000 4.0000 -1.0000
v -3.0000 4.0000 -1.0000
v -2.0000 0.0000 -2.0000
v -2.0000 2.0000 -2.0000
v -2.0000 1.0000 -2.0000
v -2.0000 1.0000 -3.0000
v -3.0000 1.0000 -3.0000
v -3.0000 0.0000 -3.0000
v -2.0000 0.0000 -3.0000
v -2.0000 2.0000 -3.0000
v -2.0000 3.0000 -2.0000
v -2.0000 3.0000 -3.0000
v -3.0000 4.0000 -2.0000
v -2.0000 4.0000 -2.0000
v -2.0000 4.0000 -3.0000
v -3.0000 4.0000 -3.0000
v -2.0000 -1.0000 4.0000
v -2.0000 -1.0000 3.0000
v -1.0000 -1.0000 3.0000
v -1.0000 -1.0000 4.0000
v -1.0000 0.0000 4.0000
v -2.0000 0.0000 4.0000
v -1.0000 0.0000 3.0000
v -2.0000 1.0000 4.0000
v -1.0000 1.0000 4.0000
v -1.0000 1.0000 3.0000
v -1.0000 0.0000 2.0000
v -1.0000 1.0000 2.0000
v -1.0000 2.0000 3.0000
v -1.0000 2.0000 2.0000
v -2.0000 4.0000 3.0000
v -1.0000 4.0000 3.0000
v -1.0000 4.0000 2.0000
v -2.0000 3.0000 3.0000
v -1.0000 3.0000 2.0000
v -1.0000 3.0000 3.0000
v -2.0000 -1.0000 2.0000
v -1.0000 -1.0000 2.0000
v -1.0000 -1.0000 1.0000
v -2.0000 -1.0000 1.0000
v -2.0000 -2.0000 2.0000
v -2.0000 -2.0000 1.0000
v -1.0000 -2.0000 1.0000
v -1.0000 -2.0000 2.0000
v -1.0000 2.0000 1.0000
v -1.0000 1.0000 1.0000
v -1.0000 4.0000 1.0000
v -1.0000 3.0000 1.0000
v -1.0000 -1.0000 -0.0000
v -2.0000 -2.0000 -0.0000
v -1.0000 -2.0000 -0.0000
v -1.0000 1.0000 -0.0000
v -1.0000 4.0000 -0.0000
v -2.0000 -2.0000 -1.0000
v -1.0000 -2.0000 -1.0000
v -1.0000 0.0000 -0.0000
v -1.0000 0.0000 -1.0000
v -1.0000 -1.0000 -1.0000
v -1.0000 4.0000 -1.0000
v -1.0000 -1.0000 -2.0000
v -2.0000 -1.0000 -2.0000
v -2.0000 -2.0000 -2.0000
v -1.0000 -2.0000 -2.0000
v -1.0000 0.0000 -2.0000
v -1.0000 1.0000 -2.0000
v -1.0000 1.0000 -1.0000
v -1.0000 4.0000 -2.0000
v -1.0000 0.0000 -3.0000
v -1.0000 1.0000 -3.0000
v -1.0000 4.0000 -3.0000
v -2.0000 1.0000 -4.0000
v -1.0000 1.0000 -4.0000
v -2.0000 2.0000 -4.0000
v -1.0000 2.0000 -4.0000
v -2.0000 3.0000 -4.0000
v -1.0000 3.0000 -4.0000
v -1.0000 4.0000 -4.0000
v -2.0000 4.0000 -4.0000
v 0.0000 -1.0000 3.0000
v 0.0000 -1.0000 4.0000
v 0.0000 0.0000 4.0000
v 0.0000 0.0000 3.0000
v 0.0000 1.0000 4.0000
v 0.0000 1.0000 3.0000
v -1.0000 4.0000 4.0000
v 0.0000 4.0000 4.0000
v 0.0000 4.0000 3.0000
v -1.0000 3.0000 4.0000
v 0.0000 3.0000 3.0000
v 0.0000 3.0000 4.0000
v 0.0000 0.0000 2.0000
v 0.0000 -1.0000 2.0000
v 0.0000 1.0000 2.0000
v 0.0000 2.0000 3.0000
v 0.0000 4.0000 2.0000
v 0.0000 -2.0000 1.0000
v 0.0000 -2.0000 2.0000
v 0.0000 0.0000 1.0000
v -1.0000 0.0000 1.0000
v 0.0000 -1.0000 1.0000
v 0.0000 1.0000 1.0000
v 0.0000 4.0000 1.0000
v -1.0000 -4.0000 1.0000
v -1.0000 -4.0000 -0.0000
v 0.0000 -4.0000 -0.0000
v 0.0000 -4.0000 1.0000
v 0.0000 -3.0000 1.0000
v -1.0000 -3.0000 1.0000
v -1.0000 -3.0000 -0.0000
v 0.0000 4.0000 -0.0000
v -1.0000 -4.0000 -1.0000
v 0.0000 -4.0000 -1.0000
v -1.0000 -3.0000 -1.0000
v 0.0000 -3.0000 -1.0000
v 0.0000 -2.0000 -1.0000
v 0.0000 0.0000 -1.0000
v 0.0000 -1.0000 -1.0000
v 0.0000 1.0000 -1.0000
v 0.0000 4.0000 -1.0000
v 0.0000 -1.0000 -2.0000
v 0.0000 -2.0000 -2.0000
v 0.0000 1.0000 -2.0000
v 0.0000 4.0000 -2.0000
v 0.0000 1.0000 -3.0000
v 0.0000 4.0000 -3.0000
v -1.0000 0.0000 -4.0000
v 0.0000 0.0000 -4.0000
v 0.0000 0.0000 -3.0000
v 0.0000 1.0000 -4.0000
v 0.0000 2.0000 -4.0000
v 0.0000 2.0000 -3.0000
v 0.0000 3.0000 -4.0000
v 0.0000 3.0000 -3.0000
v 0.0000 4.0000 -4.0000
v 1.0000 1.0000 4.0000
v 1.0000 1.0000 3.0000
v 1.0000 0.0000 3.0000
v 1.0000 0.0000 4.0000
v 0.0000 2.0000 4.0000
v 1.0000 2.0000 3.0000
v 1.0000 2.0000 4.0000
v 1.0000 3.0000 4.0000
v 1.0000 3.0000 3.0000
v 1.0000 4.0000 4.0000
v 1.0000 4.0000 3.0000
v 1.0000 1.0000 2.0000
v 1.0000 2.0000 2.0000
v 1.0000 4.0000 2.0000
v 1.0000 -1.0000 2.0000
v 1.0000 -1.0000 1.0000
v 1.0000 -2.0000 1.0000
v 1.0000 -2.0000 2.0000
v 1.0000 1.0000 1.0000
v 1.0000 4.0000 1.0000
v 1.0000 -4.0000 -0.0000
v 1.0000 -4.0000 1.0000
v 1.0000 -3.0000 1.0000
v 1.0000 -3.0000 -0.0000
v 1.0000 -2.0000 -0.0000
v 1.0000 0.0000 1.0000
v 1.0000 0.0000 -0.0000
v 1.0000 1.0000 -0.0000
v 1.0000 4.0000 -0.0000
v 1.0000 -4.0000 -1.0000
v 1.0000 -3.0000 -1.0000
v 1.0000 -2.0000 -1.0000
v 1.0000 -1.0000 -0.0000
v 1.0000 -1.0000 -1.0000
v 1.0000 0.0000 -1.0000
v 1.0000 1.0000 -1.0000
v 1.0000 4.0000 -1.0000
v 1.0000 -2.0000 -2.0000
v 1.0000 -1.0000 -2.0000
v 1.0000 0.0000 -2.0000
v 0.0000 0.0000 -2.0000
v 1.0000 1.0000 -2.0000
v 1.0000 4.0000 -2.0000
v 1.0000 0.0000 -3.0000
v 0.0000 -1.0000 -3.0000
v 1.0000 -1.0000 -3.0000
v 1.0000 1.0000 -3.0000
v 1.0000 2.0000 -3.0000
v 1.0000 3.0000 -3.0000
v 1.0000 4.0000 -3.0000
v 1.0000 3.0000 -2.0000
v 0.0000 -1.0000 -4.0000
v 1.0000 -1.0000 -4.0000
v 1.0000 0.0000 -4.0000
v 1.0000 1.0000 -4.0000
v 2.0000 1.0000 3.0000
v 2.0000 1.0000 2.0000
v 1.0000 0.0000 2.0000
v 2.0000 0.0000 2.0000
v 2.0000 0.0000 3.0000
v 2.0000 2.0000 2.0000
v 2.0000 2.0000 3.0000
v 2.0000 3.0000 3.0000
v 2.0000 3.0000 2.0000
v 2.0000 4.0000 3.0000
v 2.0000 4.0000 2.0000
v 2.0000 1.0000 1.0000
v 2.0000 2.0000 1.0000
v 2.0000 3.0000 1.0000
v 2.0000 4.0000 1.0000
v 2.0000 -2.0000 -0.0000
v 2.0000 -2.0000 1.0000
v 2.0000 -1.0000 1.0000
v 2.0000 -1.0000 -0.0000
v 2.0000 0.0000 1.0000
v 2.0000 0.0000 -0.0000
v 2.0000 1.0000 -0.0000
v 2.0000 4.0000 -0.0000
v 2.0000 -1.0000 -1.0000
v 2.0000 -2.0000 -1.0000
v 2.0000 0.0000 -1.0000
v 2.0000 1.0000 -1.0000
v 2.0000 4.0000 -1.0000
v 2.0000 0.0000 -2.0000
v 2.0000 1.0000 -2.0000
v 2.0000 4.0000 -2.0000
v 2.0000 3.0000 -2.0000
v 2.0000 0.0000 -3.0000
v 2.0000 2.0000 -3.0000
v 2.0000 1.0000 -3.0000
v 2.0000 3.0000 -3.0000
v 2.0000 2.0000 -2.0000
v 2.0000 1.0000 -4.0000
v 2.0000 0.0000 -4.0000
v 2.0000 1.0000 4.0000
v 3.0000 1.0000 4.0000
v 3.0000 1.0000 3.0000
v 2.0000 0.0000 4.0000
v 3.0000 0.0000 3.0000
v 3.0000 0.0000 4.0000
v 3.0000 1.0000 2.0000
v 3.0000 0.0000 2.0000
v 3.0000 1.0000 1.0000
v 3.0000 0.0000 1.0000
v 3.0000 4.0000 2.0000
v 3.0000 4.0000 1.0000
v 3.0000 3.0000 1.0000
v 3.0000 3.0000 2.0000
v 3.0000 0.0000 -0.0000
v 3.0000 -1.0000 -0.0000
v 3.0000 -1.0000 1.0000
v 3.0000 1.0000 -0.0000
v 3.0000 2.0000 1.0000
v 3.0000 2.0000 -0.0000
v 3.0000 3.0000 -0.0000
v 3.0000 4.0000 -0.0000
v 3.0000 1.0000 -1.0000
v 3.0000 2.0000 -1.0000
v 3.0000 4.0000 -1.0000
v 3.0000 1.0000 -2.0000
v 3.0000 2.0000 -2.0000
v 3.0000 3.0000 -2.0000
v 3.0000 3.0000 -1.0000
v 3.0000 4.0000 -2.0000
v 3.0000 0.0000 -3.0000
v 3.0000 0.0000 -2.0000
v 3.0000 1.0000 -3.0000
v 3.0000 2.0000 -3.0000
v 3.0000 2.0000 3.0000
v 4.0000 2.0000 3.0000
v 4.0000 2.0000 2.0000
v 3.0000 2.0000 2.0000
v 4.0000 1.0000 2.0000
v 4.0000 1.0000 3.0000
v 3.0000 -1.0000 2.0000
v 4.0000 -1.0000 1.0000
v 4.0000 -1.0000 2.0000
v 4.0000 0.0000 2.0000
v 4.0000 0.0000 1.0000
v 4.0000 1.0000 1.0000
v 4.0000 2.0000 1.0000
v 4.0000 -1.0000 -0.0000
v 4.0000 0.0000 -0.0000
v 4.0000 1.0000 -0.0000
v 4.0000 2.0000 -0.0000
v 4.0000 4.0000 1.0000
v 4.0000 4.0000 -0.0000
v 4.0000 3.0000 -0.0000
v 4.0000 3.0000 1.0000
v 4.0000 1.0000 -1.0000
v 3.0000 0.0000 -1.0000
v 4.0000 0.0000 -1.0000
v 4.0000 2.0000 -1.0000
v 4.0000 3.0000 -1.0000
v 4.0000 4.0000 -1.0000
vt 0.001953 0.500000
vt 0.005859 0.500000
vt 0.009766 0.500000
vt 0.013672 0.500000
vt 0.017578 0.500000
vt 0.021484 0.500000
vt 0.025391 0.500000
vt 0.029297 0.500000
vt 0.033203 0.500000
vt 0.037109 0.500000
vn 0.0 -1.0 0.0
vn 0.0 1.0 0.0
vn 0.0 0.0 1.0
vn 0.0 0.0 -1.0
vn -1.0 0.0 0.0
vn 1.0 0.0 0.0
usemtl mat_Lina_Vanesa_Rico_Laverde_fase_2
s off
f 1/1/2 2/1/2 3/1/2 4/1/2
f 5/1/1 6/1/1 7/1/1 8/1/1
f 5/1/3 8/1/3 2/1/3 1/1/3
f 5/1/5 1/1/5 4/1/5 6/1/5
f 9/2/1 10/2/1 11/2/1 12/2/1
f 9/2/3 12/2/3 13/2/3 14/2/3
f 12/2/6 11/2/6 15/2/6 13/2/6
f 9/2/5 14/2/5 16/2/5 10/2/5
f 14/2/3 13/2/3 7/2/3 6/2/3
f 14/2/5 6/2/5 17/2/5 16/2/5
f 17/3/4 18/3/4 19/3/4 20/3/4
f 6/3/5 4/3/5 18/3/5 17/3/5
f 21/2/2 22/2/2 23/2/2 24/2/2
f 4/2/3 3/2/3 22/2/3 21/2/3
f 18/2/4 24/2/4 23/2/4 19/2/4
f 4/2/5 21/2/5 24/2/5 18/2/5
f 25/4/1 26/4/1 27/4/1 28/4/1
f 25/4/3 28/4/3 11/4/3 10/4/3
f 26/4/4 29/4/4 30/4/4 27/4/4
f 25/4/5 10/4/5 29/4/5 26/4/5
f 11/5/6 30/5/6 31/5/6 15/5/6
f 10/5/5 16/5/5 32/5/5 29/5/5
f 17/2/2 20/2/2 33/2/2 34/2/2
f 32/2/4 34/2/4 33/2/4 31/2/4
f 16/2/5 17/2/5 34/2/5 32/2/5
f 32/6/2 31/6/2 35/6/2 36/6/2
f 29/6/1 37/6/1 38/6/1 30/6/1
f 37/6/4 36/6/4 35/6/4 38/6/4
f 29/6/5 32/6/5 36/6/5 37/6/5
f 39/1/2 40/1/2 41/1/2 42/1/2
f 43/1/1 44/1/1 45/1/1 46/1/1
f 43/1/3 46/1/3 40/1/3 39/1/3
f 44/1/4 42/1/4 41/1/4 45/1/4
f 43/1/5 39/1/5 42/1/5 44/1/5
f 47/2/1 48/2/1 49/2/1 50/2/1
f 47/2/3 50/2/3 51/2/3 52/2/3
f 48/2/4 53/2/4 54/2/4 49/2/4
f 47/2/5 52/2/5 53/2/5 48/2/5
f 55/3/2 56/3/2 57/3/2 8/3/2
f 52/3/3 51/3/3 56/3/3 55/3/3
f 52/3/5 55/3/5 8/3/5 53/3/5
f 53/3/1 13/3/1 58/3/1 54/3/1
f 53/3/5 8/3/5 7/3/5 13/3/5
f 8/3/3 57/3/3 59/3/3 2/3/3
f 57/3/6 60/3/6 61/3/6 59/3/6
f 62/2/2 63/2/2 64/2/2 22/2/2
f 2/2/3 59/2/3 63/2/3 62/2/3
f 2/2/5 62/2/5 22/2/5 3/2/5
f 13/3/1 15/3/1 65/3/1 58/3/1
f 22/7/2 64/7/2 66/7/2 23/7/2
f 11/4/2 67/4/2 68/4/2 30/4/2
f 28/4/1 27/4/1 69/4/1 70/4/1
f 28/4/3 70/4/3 67/4/3 11/4/3
f 27/4/4 30/4/4 68/4/4 69/4/4
f 15/3/1 31/3/1 71/3/1 65/3/1
f 33/3/4 72/3/4 73/3/4 74/3/4
f 20/3/5 19/3/5 72/3/5 33/3/5
f 23/2/2 66/2/2 75/2/2 76/2/2
f 72/2/4 76/2/4 75/2/4 73/2/4
f 19/2/5 23/2/5 76/2/5 72/2/5
f 30/5/1 38/5/1 77/5/1 68/5/1
f 30/5/3 68/5/3 71/5/3 31/5/3
f 33/2/2 74/2/2 78/2/2 46/2/2
f 35/2/4 46/2/4 78/2/4 79/2/4
f 31/2/5 33/2/5 46/2/5 35/2/5
f 35/6/2 79/6/2 80/6/2 81/6/2
f 38/6/1 82/6/1 83/6/1 77/6/1
f 82/6/4 81/6/4 80/6/4 83/6/4
f 38/6/5 35/6/5 81/6/5 82/6/5
f 46/2/1 45/2/1 84/2/1 78/2/1
f 46/2/3 78/2/3 85/2/3 40/2/3
f 45/2/4 41/2/4 86/2/4 84/2/4
f 87/2/2 88/2/2 89/2/2 90/2/2
f 40/2/3 85/2/3 88/2/3 87/2/3
f 41/2/4 90/2/4 89/2/4 86/2/4
f 40/2/5 87/2/5 90/2/5 41/2/5
f 91/1/1 92/1/1 93/1/1 94/1/1
f 91/1/3 94/1/3 95/1/3 96/1/3
f 92/1/4 50/1/4 97/1/4 93/1/4
f 91/1/5 96/1/5 50/1/5 92/1/5
f 98/2/2 99/2/2 100/2/2 51/2/2
f 96/2/3 95/2/3 99/2/3 98/2/3
f 96/2/5 98/2/5 51/2/5 50/2/5
f 50/3/1 49/3/1 101/3/1 97/3/1
f 49/3/4 54/3/4 102/3/4 101/3/4
f 97/3/6 101/3/6 102/3/6 100/3/6
f 56/3/2 103/3/2 104/3/2 57/3/2
f 51/3/3 100/3/3 103/3/3 56/3/3
f 105/2/2 106/2/2 107/2/2 63/2/2
f 108/2/1 59/2/1 109/2/1 110/2/1
f 108/2/3 110/2/3 106/2/3 105/2/3
f 108/2/5 105/2/5 63/2/5 59/2/5
f 111/1/2 112/1/2 113/1/2 114/1/2
f 115/1/1 116/1/1 117/1/1 118/1/1
f 115/1/3 118/1/3 112/1/3 111/1/3
f 115/1/5 111/1/5 114/1/5 116/1/5
f 57/3/2 104/3/2 119/3/2 60/3/2
f 54/3/1 58/3/1 120/3/1 102/3/1
f 63/1/2 107/1/2 121/1/2 64/1/2
f 59/1/1 61/1/1 122/1/1 109/1/1
f 114/2/2 113/2/2 123/2/2 70/2/2
f 116/2/1 124/2/1 125/2/1 117/2/1
f 116/2/5 114/2/5 70/2/5 124/2/5
f 58/4/1 65/4/1 126/4/1 120/4/1
f 60/5/3 119/5/3 122/5/3 61/5/3
f 64/2/2 121/2/2 127/2/2 66/2/2
f 124/4/1 128/4/1 129/4/1 125/4/1
f 124/4/5 70/4/5 69/4/5 128/4/5
f 70/4/3 123/4/3 130/4/3 67/4/3
f 69/4/4 68/4/4 131/4/4 132/4/4
f 67/3/3 130/3/3 126/3/3 65/3/3
f 67/3/5 65/3/5 71/3/5 68/3/5
f 66/1/2 127/1/2 133/1/2 75/1/2
f 69/1/2 132/1/2 134/1/2 135/1/2
f 128/1/1 136/1/1 137/1/1 129/1/1
f 136/1/4 135/1/4 134/1/4 137/1/4
f 128/1/5 69/1/5 135/1/5 136/1/5
f 68/3/1 77/3/1 138/3/1 131/3/1
f 131/3/6 138/3/6 139/3/6 140/3/6
f 74/3/5 73/3/5 85/3/5 78/3/5
f 75/2/2 133/2/2 141/2/2 88/2/2
f 73/2/5 75/2/5 88/2/5 85/2/5
f 77/2/1 83/2/1 142/2/1 138/2/1
f 83/2/4 80/2/4 143/2/4 142/2/4
f 138/2/6 142/2/6 143/2/6 139/2/6
f 79/2/5 78/2/5 84/2/5 80/2/5
f 88/2/2 141/2/2 144/2/2 89/2/2
f 80/1/1 145/1/1 146/1/1 143/1/1
f 145/1/4 147/1/4 148/1/4 146/1/4
f 80/1/5 84/1/5 147/1/5 145/1/5
f 147/2/4 149/2/4 150/2/4 148/2/4
f 84/2/5 86/2/5 149/2/5 147/2/5
f 89/3/2 144/3/2 151/3/2 152/3/2
f 149/3/4 152/3/4 151/3/4 150/3/4
f 86/3/5 89/3/5 152/3/5 149/3/5
f 94/3/1 93/3/1 153/3/1 154/3/1
f 94/3/3 154/3/3 155/3/3 95/3/3
f 154/3/6 153/3/6 156/3/6 155/3/6
f 99/3/2 157/3/2 158/3/2 100/3/2
f 95/3/3 155/3/3 157/3/3 99/3/3
f 97/3/4 100/3/4 158/3/4 156/3/4
f 159/2/2 160/2/2 161/2/2 106/2/2
f 162/2/1 110/2/1 163/2/1 164/2/1
f 162/2/3 164/2/3 160/2/3 159/2/3
f 162/2/5 159/2/5 106/2/5 110/2/5
f 97/3/2 156/3/2 165/3/2 101/3/2
f 93/3/1 112/3/1 166/3/1 153/3/1
f 153/3/6 166/3/6 165/3/6 156/3/6
f 93/3/5 97/3/5 101/3/5 112/3/5
f 100/3/1 102/3/1 167/3/1 158/3/1
f 100/3/3 158/3/3 168/3/3 103/3/3
f 103/3/3 168/3/3 163/3/3 110/3/3
f 103/3/5 110/3/5 109/3/5 104/3/5
f 106/7/2 161/7/2 169/7/2 107/7/2
f 118/5/1 117/5/1 170/5/1 171/5/1
f 118/5/3 171/5/3 166/5/3 112/5/3
f 101/3/2 165/3/2 172/3/2 173/3/2
f 166/3/6 174/3/6 172/3/6 165/3/6
f 112/3/5 101/3/5 173/3/5 113/3/5
f 102/2/1 120/2/1 175/2/1 167/2/1
f 104/3/5 109/3/5 122/3/5 119/3/5
f 107/3/2 169/3/2 176/3/2 121/3/2
f 177/8/1 178/8/1 179/8/1 180/8/1
f 177/8/3 180/8/3 181/8/3 182/8/3
f 177/8/5 182/8/5 183/8/5 178/8/5
f 182/8/3 181/8/3 170/8/3 117/8/3
f 182/8/5 117/8/5 125/8/5 183/8/5
f 113/9/5 173/9/5 130/9/5 123/9/5
f 173/8/3 172/8/3 175/8/3 120/8/3
f 173/8/5 120/8/5 126/8/5 130/8/5
f 121/2/2 176/2/2 184/2/2 127/2/2
f 178/4/1 185/4/1 186/4/1 179/4/1
f 185/4/4 187/4/4 188/4/4 186/4/4
f 178/4/5 183/4/5 187/4/5 185/4/5
f 187/4/4 129/4/4 189/4/4 188/4/4
f 183/4/5 125/4/5 129/4/5 187/4/5
f 132/4/4 131/4/4 190/4/4 191/4/4
f 131/4/4 140/4/4 192/4/4 190/4/4
f 127/6/2 184/6/2 193/6/2 133/6/2
f 132/6/2 191/6/2 194/6/2 134/6/2
f 129/6/1 137/6/1 195/6/1 189/6/1
f 137/6/4 134/6/4 194/6/4 195/6/4
f 140/4/1 139/4/1 196/4/1 192/4/1
f 133/3/2 193/3/2 197/3/2 141/3/2
f 139/3/1 143/3/1 198/3/1 196/3/1
f 141/1/2 197/1/2 199/1/2 144/1/2
f 142/6/1 200/6/1 201/6/1 202/6/1
f 142/6/3 202/6/3 198/6/3 143/6/3
f 200/6/4 146/6/4 203/6/4 201/6/4
f 142/6/5 143/6/5 146/6/5 200/6/5
f 146/3/4 148/3/4 204/3/4 203/3/4
f 198/3/6 203/3/6 204/3/6 205/3/6
f 148/2/4 150/2/4 206/2/4 204/2/4
f 205/2/6 204/2/6 206/2/6 207/2/6
f 144/2/2 199/2/2 208/2/2 151/2/2
f 150/2/4 151/2/4 208/2/4 206/2/4
f 207/2/6 206/2/6 208/2/6 199/2/6
f 157/7/2 209/7/2 210/7/2 158/7/2
f 155/7/1 156/7/1 211/7/1 212/7/1
f 155/7/3 212/7/3 209/7/3 157/7/3
f 156/7/4 158/7/4 210/7/4 211/7/4
f 212/7/6 211/7/6 210/7/6 209/7/6
f 213/2/1 168/2/1 214/2/1 215/2/1
f 213/2/3 215/2/3 216/2/3 164/2/3
f 215/2/6 214/2/6 217/2/6 216/2/6
f 213/2/5 164/2/5 163/2/5 168/2/5
f 160/7/2 218/7/2 219/7/2 161/7/2
f 164/7/3 216/7/3 218/7/3 160/7/3
f 216/7/6 217/7/6 219/7/6 218/7/6
f 158/3/1 167/3/1 220/3/1 210/3/1
f 158/3/3 210/3/3 214/3/3 168/3/3
f 210/3/6 220/3/6 221/3/6 214/3/6
f 161/3/2 219/3/2 222/3/2 169/3/2
f 166/2/2 223/2/2 224/2/2 174/2/2
f 171/2/1 170/2/1 225/2/1 226/2/1
f 171/2/3 226/2/3 223/2/3 166/2/3
f 226/2/6 225/2/6 224/2/6 223/2/6
f 167/3/1 175/3/1 227/3/1 220/3/1
f 169/1/2 222/1/2 228/1/2 176/1/2
f 180/5/1 179/5/1 229/5/1 230/5/1
f 180/5/3 230/5/3 231/5/3 181/5/3
f 230/5/6 229/5/6 232/5/6 231/5/6
f 181/5/3 231/5/3 225/5/3 170/5/3
f 231/5/6 232/5/6 233/5/6 225/5/6
f 174/5/3 224/5/3 234/5/3 172/5/3
f 172/8/3 234/8/3 227/8/3 175/8/3
f 234/8/6 235/8/6 236/8/6 227/8/6
f 176/6/2 228/6/2 237/6/2 184/6/2
f 179/4/1 186/4/1 238/4/1 229/4/1
f 186/4/4 188/4/4 239/4/4 238/4/4
f 229/4/6 238/4/6 239/4/6 232/4/6
f 188/4/4 189/4/4 240/4/4 239/4/4
f 232/4/6 239/4/6 240/4/6 233/4/6
f 241/5/6 242/5/6 243/5/6 235/5/6
f 190/5/4 192/5/4 244/5/4 243/5/4
f 184/3/2 237/3/2 245/3/2 193/3/2
f 189/4/1 195/4/1 246/4/1 240/4/1
f 195/4/4 194/4/4 247/4/4 246/4/4
f 240/4/6 246/4/6 247/4/6 242/4/6
f 190/4/2 243/4/2 248/4/2 249/4/2
f 242/4/6 247/4/6 248/4/6 243/4/6
f 191/4/5 190/4/5 249/4/5 194/4/5
f 192/6/1 196/6/1 250/6/1 244/6/1
f 193/7/2 245/7/2 251/7/2 197/7/2
f 249/4/2 248/4/2 252/4/2 202/4/2
f 194/4/1 253/4/1 254/4/1 247/4/1
f 247/4/6 254/4/6 252/4/6 248/4/6
f 194/4/5 249/4/5 202/4/5 253/4/5
f 196/2/1 198/2/1 255/2/1 250/2/1
f 198/2/4 205/2/4 256/2/4 255/2/4
f 205/3/4 207/3/4 257/3/4 256/3/4
f 197/2/2 251/2/2 258/2/2 199/2/2
f 207/2/4 199/2/4 258/2/4 257/2/4
f 259/2/6 257/2/6 258/2/6 251/2/6
f 253/4/1 260/4/1 261/4/1 254/4/1
f 260/4/4 201/4/4 262/4/4 261/4/4
f 254/4/6 261/4/6 262/4/6 252/4/6
f 253/4/5 202/4/5 201/4/5 260/4/5
f 198/5/2 255/5/2 263/5/2 203/5/2
f 202/5/3 252/5/3 255/5/3 198/5/3
f 201/5/4 203/5/4 263/5/4 262/5/4
f 210/2/2 264/2/2 265/2/2 220/2/2
f 211/2/1 266/2/1 267/2/1 268/2/1
f 211/2/3 268/2/3 264/2/3 210/2/3
f 266/2/4 220/2/4 265/2/4 267/2/4
f 211/2/5 210/2/5 220/2/5 266/2/5
f 214/1/1 221/1/1 269/1/1 270/1/1
f 214/1/3 270/1/3 271/1/3 217/1/3
f 270/1/6 269/1/6 272/1/6 271/1/6
f 219/7/2 273/7/2 274/7/2 222/7/2
f 217/7/3 271/7/3 273/7/3 219/7/3
f 271/7/6 272/7/6 274/7/6 273/7/6
f 220/2/1 227/2/1 275/2/1 265/2/1
f 220/2/3 265/2/3 269/2/3 221/2/3
f 265/2/6 275/2/6 276/2/6 269/2/6
f 269/2/6 276/2/6 277/2/6 272/2/6
f 222/6/2 274/6/2 278/6/2 228/6/2
f 225/5/1 233/5/1 279/5/1 280/5/1
f 225/5/3 280/5/3 281/5/3 224/5/3
f 280/5/6 279/5/6 282/5/6 281/5/6
f 234/3/2 283/3/2 284/3/2 235/3/2
f 224/3/3 281/3/3 283/3/3 234/3/3
f 241/3/4 235/3/4 284/3/4 282/3/4
f 227/2/1 236/2/1 285/2/1 275/2/1
f 228/3/2 278/3/2 286/3/2 237/3/2
f 241/6/2 282/6/2 287/6/2 242/6/2
f 233/6/1 240/6/1 288/6/1 279/6/1
f 240/6/4 242/6/4 287/6/4 288/6/4
f 279/6/6 288/6/6 287/6/6 282/6/6
f 235/3/1 243/3/1 289/3/1 284/3/1
f 235/3/3 284/3/3 285/3/3 236/3/3
f 284/3/6 289/3/6 290/3/6 285/3/6
f 237/1/2 286/1/2 291/1/2 245/1/2
f 243/3/1 248/3/1 292/3/1 289/3/1
f 289/3/6 292/3/6 293/3/6 290/3/6
f 243/3/5 244/3/5 250/3/5 248/3/5
f 245/3/2 291/3/2 294/3/2 251/3/2
f 259/3/4 251/3/4 294/3/4 295/3/4
f 248/8/1 252/8/1 296/8/1 292/8/1
f 248/8/5 250/8/5 255/8/5 252/8/5
f 255/2/4 256/2/4 297/2/4 298/2/4
f 259/2/2 295/2/2 299/2/2 257/2/2
f 256/2/4 257/2/4 299/2/4 297/2/4
f 300/2/6 297/2/6 299/2/6 295/2/6
f 255/2/2 298/2/2 301/2/2 263/2/2
f 252/2/1 262/2/1 302/2/1 296/2/1
f 262/2/4 263/2/4 301/2/4 302/2/4
f 296/2/6 302/2/6 301/2/6 298/2/6
f 303/2/2 304/2/2 305/2/2 264/2/2
f 306/2/1 268/2/1 307/2/1 308/2/1
f 306/2/3 308/2/3 304/2/3 303/2/3
f 308/2/6 307/2/6 305/2/6 304/2/6
f 306/2/5 303/2/5 264/2/5 268/2/5
f 264/7/2 305/7/2 309/7/2 265/7/2
f 268/7/1 267/7/1 310/7/1 307/7/1
f 307/7/6 310/7/6 309/7/6 305/7/6
f 265/3/2 309/3/2 311/3/2 275/3/2
f 267/3/1 283/3/1 312/3/1 310/3/1
f 283/3/4 275/3/4 311/3/4 312/3/4
f 267/3/5 265/3/5 275/3/5 283/3/5
f 274/2/2 313/2/2 314/2/2 278/2/2
f 272/2/1 277/2/1 315/2/1 316/2/1
f 272/2/3 316/2/3 313/2/3 274/2/3
f 316/2/6 315/2/6 314/2/6 313/2/6
f 283/3/2 312/3/2 317/3/2 284/3/2
f 281/3/1 282/3/1 318/3/1 319/3/1
f 281/3/3 319/3/3 312/3/3 283/3/3
f 282/3/4 284/3/4 317/3/4 318/3/4
f 275/2/1 285/2/1 320/2/1 311/2/1
f 275/2/3 311/2/3 321/2/3 276/2/3
f 276/2/3 321/2/3 315/2/3 277/2/3
f 321/2/6 322/2/6 323/2/6 315/2/6
f 278/7/2 314/7/2 324/7/2 286/7/2
f 285/3/1 290/3/1 325/3/1 320/3/1
f 320/3/6 325/3/6 326/3/6 322/3/6
f 286/3/2 324/3/2 327/3/2 291/3/2
f 290/2/1 293/2/1 328/2/1 325/2/1
f 325/2/6 328/2/6 329/2/6 326/2/6
f 300/2/4 295/2/4 330/2/4 329/2/4
f 326/2/6 329/2/6 330/2/6 331/2/6
f 291/2/2 327/2/2 332/2/2 294/2/2
f 295/2/4 294/2/4 332/2/4 330/2/4
f 331/2/6 330/2/6 332/2/6 327/2/6
f 292/2/1 296/2/1 333/2/1 334/2/1
f 292/2/3 334/2/3 328/2/3 293/2/3
f 296/2/4 298/2/4 335/2/4 333/2/4
f 334/2/6 333/2/6 335/2/6 328/2/6
f 300/1/2 329/1/2 336/1/2 297/1/2
f 298/1/4 297/1/4 336/1/4 335/1/4
f 328/1/6 335/1/6 336/1/6 329/1/6
f 337/2/2 338/2/2 339/2/2 340/2/2
f 305/2/1 309/2/1 341/2/1 342/2/1
f 305/2/3 342/2/3 338/2/3 337/2/3
f 342/2/6 341/2/6 339/2/6 338/2/6
f 305/2/5 337/2/5 340/2/5 309/2/5
f 343/1/1 319/1/1 344/1/1 345/1/1
f 343/1/3 345/1/3 346/1/3 310/1/3
f 345/1/6 344/1/6 347/1/6 346/1/6
f 343/1/5 310/1/5 312/1/5 319/1/5
f 310/7/3 346/7/3 341/7/3 309/7/3
f 346/7/6 347/7/6 348/7/6 341/7/6
f 340/6/2 339/6/2 349/6/2 321/6/2
f 341/6/6 348/6/6 349/6/6 339/6/6
f 309/6/5 340/6/5 321/6/5 311/6/5
f 319/3/1 318/3/1 350/3/1 344/3/1
f 318/3/4 317/3/4 351/3/4 350/3/4
f 344/3/6 350/3/6 351/3/6 347/3/6
f 347/3/6 351/3/6 352/3/6 348/3/6
f 312/3/5 311/3/5 320/3/5 317/3/5
f 321/6/2 349/6/2 353/6/2 322/6/2
f 320/6/4 322/6/4 353/6/4 352/6/4
f 348/6/6 352/6/6 353/6/6 349/6/6
f 314/1/2 354/1/2 355/1/2 324/1/2
f 315/1/1 323/1/1 356/1/1 357/1/1
f 315/1/3 357/1/3 354/1/3 314/1/3
f 357/1/6 356/1/6 355/1/6 354/1/6
f 320/2/2 352/2/2 358/2/2 325/2/2
f 317/2/1 359/2/1 360/2/1 351/2/1
f 359/2/4 325/2/4 358/2/4 360/2/4
f 351/2/6 360/2/6 358/2/6 352/2/6
f 317/2/5 320/2/5 325/2/5 359/2/5
f 322/2/1 326/2/1 361/2/1 353/2/1
f 322/2/3 353/2/3 356/2/3 323/2/3
f 326/2/4 331/2/4 362/2/4 361/2/4
f 353/2/6 361/2/6 362/2/6 356/2/6
f 324/7/2 355/7/2 363/7/2 327/7/2
f 331/7/4 327/7/4 363/7/4 362/7/4
f 356/7/6 362/7/6 363/7/6 355/7/6
