mtllib Boss_Boss_Bahamon_fase_1.mtl
o Boss_Boss_Bahamon_fase_1
v -7.0000 -12.0000 -0.0000
v -7.0000 -12.0000 -1.0000
v -6.0000 -12.0000 -1.0000
v -6.0000 -12.0000 -0.0000
v -6.0000 -11.0000 -0.0000
v -7.0000 -11.0000 -0.0000
v -7.0000 -11.0000 -1.0000
v -6.0000 -10.0000 -0.0000
v -7.0000 -10.0000 -0.0000
v -7.0000 -10.0000 -1.0000
v -6.0000 -9.0000 -0.0000
v -7.0000 -9.0000 -0.0000
v -7.0000 -9.0000 -1.0000
v -6.0000 -8.0000 -0.0000
v -7.0000 -8.0000 -0.0000
v -7.0000 -8.0000 -1.0000
v -6.0000 -7.0000 -0.0000
v -7.0000 -7.0000 -0.0000
v -7.0000 -7.0000 -1.0000
v -6.0000 -6.0000 -0.0000
v -7.0000 -6.0000 -0.0000
v -7.0000 -6.0000 -1.0000
v -6.0000 -5.0000 -0.0000
v -7.0000 -5.0000 -0.0000
v -7.0000 -5.0000 -1.0000
v -6.0000 -4.0000 -0.0000
v -7.0000 -4.0000 -0.0000
v -7.0000 -4.0000 -1.0000
v -7.0000 -3.0000 -0.0000
v -6.0000 -3.0000 -0.0000
v -6.0000 -3.0000 -1.0000
v -7.0000 -3.0000 -1.0000
v -7.0000 -12.0000 -2.0000
v -6.0000 -12.0000 -2.0000
v -7.0000 -11.0000 -2.0000
v -7.0000 -10.0000 -2.0000
v -7.0000 -9.0000 -2.0000
v -7.0000 -8.0000 -2.0000
v -7.0000 -7.0000 -2.0000
v -7.0000 -6.0000 -2.0000
v -7.0000 -5.0000 -2.0000
v -7.0000 -4.0000 -2.0000
v -6.0000 -3.0000 -2.0000
v -7.0000 -3.0000 -2.0000
v -7.0000 5.0000 -1.0000
v -7.0000 5.0000 -2.0000
v -6.0000 5.0000 -2.0000
v -6.0000 5.0000 -1.0000
v -6.0000 6.0000 -1.0000
v -7.0000 6.0000 -1.0000
v -7.0000 6.0000 -2.0000
v -6.0000 7.0000 -1.0000
v -7.0000 7.0000 -1.0000
v -7.0000 7.0000 -2.0000
v -6.0000 8.0000 -1.0000
v -7.0000 8.0000 -1.0000
v -7.0000 8.0000 -2.0000
v -7.0000 9.0000 -1.0000
v -6.0000 9.0000 -1.0000
v -6.0000 9.0000 -2.0000
v -7.0000 9.0000 -2.0000
v -7.0000 -12.0000 -3.0000
v -6.0000 -12.0000 -3.0000
v -7.0000 -11.0000 -3.0000
v -6.0000 -11.0000 -3.0000
v -7.0000 -10.0000 -3.0000
v -6.0000 -10.0000 -3.0000
v -7.0000 -9.0000 -3.0000
v -6.0000 -9.0000 -3.0000
v -7.0000 -8.0000 -3.0000
v -6.0000 -8.0000 -3.0000
v -7.0000 -7.0000 -3.0000
v -6.0000 -7.0000 -3.0000
v -7.0000 -6.0000 -3.0000
v -6.0000 -6.0000 -3.0000
v -7.0000 -5.0000 -3.0000
v -6.0000 -5.0000 -3.0000
v -7.0000 -4.0000 -3.0000
v -6.0000 -4.0000 -3.0000
v -6.0000 -3.0000 -3.0000
v -7.0000 -3.0000 -3.0000
v -7.0000 5.0000 -3.0000
v -6.0000 5.0000 -3.0000
v -7.0000 6.0000 -3.0000
v -6.0000 6.0000 -3.0000
v -7.0000 7.0000 -3.0000
v -6.0000 7.0000 -3.0000
v -7.0000 8.0000 -3.0000
v -6.0000 8.0000 -3.0000
v -6.0000 9.0000 -3.0000
v -7.0000 9.0000 -3.0000
v -6.0000 0.0000 1.0000
v -6.0000 0.0000 -0.0000
v -5.0000 0.0000 -0.0000
v -5.0000 0.0000 1.0000
v -5.0000 1.0000 1.0000
v -6.0000 1.0000 1.0000
v -6.0000 1.0000 -0.0000
v -6.0000 2.0000 1.0000
v -5.0000 2.0000 1.0000
v -5.0000 2.0000 -0.0000
v -6.0000 2.0000 -0.0000
v -6.0000 10.0000 1.0000
v -6.0000 10.0000 -0.0000
v -5.0000 10.0000 -0.0000
v -5.0000 10.0000 1.0000
v -5.0000 11.0000 1.0000
v -6.0000 11.0000 1.0000
v -6.0000 11.0000 -0.0000
v -6.0000 12.0000 1.0000
v -5.0000 12.0000 1.0000
v -5.0000 12.0000 -0.0000
v -6.0000 12.0000 -0.0000
v -5.0000 -12.0000 -1.0000
v -5.0000 -12.0000 -0.0000
v -5.0000 -11.0000 -0.0000
v -5.0000 -10.0000 -0.0000
v -5.0000 -9.0000 -0.0000
v -5.0000 -8.0000 -0.0000
v -5.0000 -7.0000 -0.0000
v -5.0000 -6.0000 -0.0000
v -5.0000 -5.0000 -0.0000
v -5.0000 -4.0000 -0.0000
v -5.0000 -3.0000 -0.0000
v -5.0000 -3.0000 -1.0000
v -6.0000 0.0000 -1.0000
v -5.0000 0.0000 -1.0000
v -6.0000 1.0000 -1.0000
v -5.0000 2.0000 -1.0000
v -6.0000 2.0000 -1.0000
v -6.0000 3.0000 -0.0000
v -6.0000 3.0000 -1.0000
v -5.0000 3.0000 -1.0000
v -5.0000 3.0000 -0.0000
v -5.0000 4.0000 -0.0000
v -6.0000 4.0000 -0.0000
v -6.0000 4.0000 -1.0000
v -5.0000 5.0000 -0.0000
v -6.0000 5.0000 -0.0000
v -5.0000 6.0000 -0.0000
v -6.0000 6.0000 -0.0000
v -5.0000 7.0000 -0.0000
v -6.0000 7.0000 -0.0000
v -5.0000 8.0000 -0.0000
v -6.0000 8.0000 -0.0000
v -5.0000 9.0000 -0.0000
v -6.0000 9.0000 -0.0000
v -6.0000 10.0000 -1.0000
v -6.0000 11.0000 -1.0000
v -5.0000 12.0000 -1.0000
v -6.0000 12.0000 -1.0000
v -5.0000 -12.0000 -2.0000
v -5.0000 -3.0000 -2.0000
v -6.0000 -1.0000 -1.0000
v -6.0000 -1.0000 -2.0000
v -5.0000 -1.0000 -2.0000
v -5.0000 -1.0000 -1.0000
v -6.0000 0.0000 -2.0000
v -5.0000 0.0000 -2.0000
v -6.0000 1.0000 -2.0000
v -6.0000 2.0000 -2.0000
v -6.0000 3.0000 -2.0000
v -6.0000 4.0000 -2.0000
v -6.0000 10.0000 -2.0000
v -6.0000 11.0000 -2.0000
v -5.0000 12.0000 -2.0000
v -6.0000 12.0000 -2.0000
v -5.0000 -12.0000 -3.0000
v -5.0000 -11.0000 -3.0000
v -5.0000 -10.0000 -3.0000
v -5.0000 -9.0000 -3.0000
v -5.0000 -8.0000 -3.0000
v -5.0000 -7.0000 -3.0000
v -5.0000 -6.0000 -3.0000
v -5.0000 -5.0000 -3.0000
v -5.0000 -4.0000 -3.0000
v -5.0000 -3.0000 -3.0000
v -6.0000 0.0000 -3.0000
v -5.0000 0.0000 -3.0000
v -6.0000 1.0000 -3.0000
v -6.0000 2.0000 -3.0000
v -6.0000 3.0000 -3.0000
v -6.0000 4.0000 -3.0000
v -6.0000 10.0000 -3.0000
v -6.0000 11.0000 -3.0000
v -5.0000 12.0000 -3.0000
v -6.0000 12.0000 -3.0000
v -6.0000 0.0000 -4.0000
v -5.0000 0.0000 -4.0000
v -6.0000 1.0000 -4.0000
v -5.0000 1.0000 -4.0000
v -6.0000 2.0000 -4.0000
v -5.0000 2.0000 -4.0000
v -6.0000 3.0000 -4.0000
v -5.0000 3.0000 -4.0000
v -6.0000 4.0000 -4.0000
v -6.0000 5.0000 -4.0000
v -6.0000 6.0000 -4.0000
v -6.0000 7.0000 -4.0000
v -6.0000 8.0000 -4.0000
v -6.0000 9.0000 -4.0000
v -6.0000 10.0000 -4.0000
v -6.0000 11.0000 -4.0000
v -5.0000 12.0000 -4.0000
v -6.0000 12.0000 -4.0000
v -6.0000 3.0000 -5.0000
v -5.0000 3.0000 -5.0000
v -6.0000 4.0000 -5.0000
v -5.0000 4.0000 -5.0000
v -6.0000 5.0000 -5.0000
v -5.0000 5.0000 -5.0000
v -6.0000 6.0000 -5.0000
v -6.0000 7.0000 -5.0000
v -6.0000 8.0000 -5.0000
v -6.0000 9.0000 -5.0000
v -5.0000 9.0000 -5.0000
v -5.0000 8.0000 -5.0000
v -6.0000 10.0000 -5.0000
v -5.0000 10.0000 -5.0000
v -6.0000 11.0000 -5.0000
v -5.0000 11.0000 -5.0000
v -5.0000 12.0000 -5.0000
v -6.0000 12.0000 -5.0000
v -6.0000 5.0000 -6.0000
v -5.0000 5.0000 -6.0000
v -6.0000 6.0000 -6.0000
v -5.0000 6.0000 -6.0000
v -5.0000 6.0000 -5.0000
v -6.0000 7.0000 -6.0000
v -5.0000 7.0000 -6.0000
v -5.0000 7.0000 -5.0000
v -5.0000 8.0000 -6.0000
v -6.0000 8.0000 -6.0000
v -5.0000 -15.0000 2.0000
v -4.0000 -15.0000 2.0000
v -4.0000 -15.0000 1.0000
v -5.0000 -15.0000 1.0000
v -5.0000 -16.0000 2.0000
v -5.0000 -16.0000 1.0000
v -4.0000 -16.0000 1.0000
v -4.0000 -16.0000 2.0000
v -5.0000 -2.0000 2.0000
v -5.0000 -2.0000 1.0000
v -4.0000 -2.0000 1.0000
v -4.0000 -2.0000 2.0000
v -4.0000 -1.0000 2.0000
v -5.0000 -1.0000 2.0000
v -5.0000 -1.0000 1.0000
v -4.0000 0.0000 2.0000
v -5.0000 0.0000 2.0000
v -4.0000 1.0000 2.0000
v -5.0000 1.0000 2.0000
v -5.0000 2.0000 2.0000
v -4.0000 2.0000 2.0000
v -4.0000 2.0000 1.0000
v -5.0000 -16.0000 -0.0000
v -4.0000 -16.0000 -0.0000
v -5.0000 -15.0000 -0.0000
v -4.0000 -14.0000 1.0000
v -5.0000 -14.0000 1.0000
v -5.0000 -14.0000 -0.0000
v -4.0000 -13.0000 1.0000
v -5.0000 -13.0000 1.0000
v -5.0000 -13.0000 -0.0000
v -4.0000 -12.0000 1.0000
v -5.0000 -12.0000 1.0000
v -4.0000 -11.0000 1.0000
v -5.0000 -11.0000 1.0000
v -4.0000 -10.0000 1.0000
v -5.0000 -10.0000 1.0000
v -4.0000 -9.0000 1.0000
v -5.0000 -9.0000 1.0000
v -4.0000 -8.0000 1.0000
v -5.0000 -8.0000 1.0000
v -4.0000 -7.0000 1.0000
v -5.0000 -7.0000 1.0000
v -4.0000 -6.0000 1.0000
v -5.0000 -6.0000 1.0000
v -4.0000 -5.0000 1.0000
v -5.0000 -5.0000 1.0000
v -4.0000 -4.0000 1.0000
v -5.0000 -4.0000 1.0000
v -5.0000 -3.0000 1.0000
v -4.0000 -3.0000 1.0000
v -4.0000 -3.0000 -0.0000
v -5.0000 -2.0000 -0.0000
v -4.0000 -2.0000 -0.0000
v -5.0000 -1.0000 -0.0000
v -4.0000 3.0000 1.0000
v -5.0000 3.0000 1.0000
v -4.0000 4.0000 1.0000
v -5.0000 4.0000 1.0000
v -4.0000 5.0000 1.0000
v -5.0000 5.0000 1.0000
v -4.0000 6.0000 1.0000
v -5.0000 6.0000 1.0000
v -4.0000 7.0000 1.0000
v -5.0000 7.0000 1.0000
v -4.0000 8.0000 1.0000
v -5.0000 8.0000 1.0000
v -4.0000 9.0000 1.0000
v -5.0000 9.0000 1.0000
v -4.0000 10.0000 1.0000
v -4.0000 11.0000 1.0000
v -4.0000 12.0000 1.0000
v -4.0000 12.0000 -0.0000
v -5.0000 -16.0000 -1.0000
v -4.0000 -16.0000 -1.0000
v -5.0000 -15.0000 -1.0000
v -5.0000 -14.0000 -1.0000
v -5.0000 -13.0000 -1.0000
v -4.0000 -3.0000 -1.0000
v -5.0000 -2.0000 -1.0000
v -4.0000 -2.0000 -1.0000
v -4.0000 12.0000 -1.0000
v -5.0000 -16.0000 -2.0000
v -4.0000 -16.0000 -2.0000
v -5.0000 -15.0000 -2.0000
v -5.0000 -14.0000 -2.0000
v -5.0000 -13.0000 -2.0000
v -4.0000 -3.0000 -2.0000
v -5.0000 -2.0000 -2.0000
v -4.0000 -2.0000 -2.0000
v -4.0000 -1.0000 -2.0000
v -4.0000 0.0000 -2.0000
v -5.0000 13.0000 -1.0000
v -4.0000 13.0000 -1.0000
v -4.0000 13.0000 -2.0000
v -5.0000 13.0000 -2.0000
v -5.0000 -16.0000 -3.0000
v -4.0000 -16.0000 -3.0000
v -5.0000 -15.0000 -3.0000
v -5.0000 -14.0000 -3.0000
v -5.0000 -13.0000 -3.0000
v -4.0000 -3.0000 -3.0000
v -4.0000 0.0000 -3.0000
v -4.0000 13.0000 -3.0000
v -5.0000 13.0000 -3.0000
v -5.0000 -16.0000 -4.0000
v -4.0000 -16.0000 -4.0000
v -5.0000 -15.0000 -4.0000
v -4.0000 -15.0000 -4.0000
v -5.0000 -14.0000 -4.0000
v -4.0000 -14.0000 -4.0000
v -5.0000 -13.0000 -4.0000
v -4.0000 -13.0000 -4.0000
v -5.0000 -12.0000 -4.0000
v -4.0000 -12.0000 -4.0000
v -5.0000 -11.0000 -4.0000
v -4.0000 -11.0000 -4.0000
v -5.0000 -10.0000 -4.0000
v -4.0000 -10.0000 -4.0000
v -5.0000 -9.0000 -4.0000
v -4.0000 -9.0000 -4.0000
v -5.0000 -8.0000 -4.0000
v -4.0000 -8.0000 -4.0000
v -5.0000 -7.0000 -4.0000
v -4.0000 -7.0000 -4.0000
v -5.0000 -6.0000 -4.0000
v -4.0000 -6.0000 -4.0000
v -5.0000 -5.0000 -4.0000
v -4.0000 -5.0000 -4.0000
v -5.0000 -4.0000 -4.0000
v -4.0000 -4.0000 -4.0000
v -5.0000 -3.0000 -4.0000
v -4.0000 -3.0000 -4.0000
v -5.0000 -2.0000 -3.0000
v -4.0000 -2.0000 -3.0000
v -4.0000 -2.0000 -4.0000
v -5.0000 -2.0000 -4.0000
v -4.0000 0.0000 -4.0000
v -4.0000 13.0000 -4.0000
v -5.0000 13.0000 -4.0000
v -4.0000 12.0000 -4.0000
v -5.0000 -3.0000 -5.0000
v -4.0000 -3.0000 -5.0000
v -5.0000 -2.0000 -5.0000
v -4.0000 -2.0000 -5.0000
v -5.0000 -1.0000 -4.0000
v -4.0000 -1.0000 -4.0000
v -4.0000 -1.0000 -5.0000
v -5.0000 -1.0000 -5.0000
v -5.0000 0.0000 -5.0000
v -4.0000 0.0000 -5.0000
v -5.0000 1.0000 -5.0000
v -5.0000 2.0000 -5.0000
v -4.0000 2.0000 -5.0000
v -4.0000 1.0000 -5.0000
v -4.0000 3.0000 -5.0000
v -4.0000 4.0000 -5.0000
v -4.0000 5.0000 -5.0000
v -4.0000 6.0000 -5.0000
v -4.0000 7.0000 -5.0000
v -4.0000 8.0000 -5.0000
v -4.0000 9.0000 -5.0000
v -4.0000 10.0000 -5.0000
v -4.0000 11.0000 -5.0000
v -4.0000 12.0000 -5.0000
v -4.0000 -1.0000 -6.0000
v -5.0000 -1.0000 -6.0000
v -5.0000 -2.0000 -6.0000
v -4.0000 -2.0000 -6.0000
v -4.0000 1.0000 -6.0000
v -5.0000 1.0000 -6.0000
v -5.0000 0.0000 -6.0000
v -4.0000 0.0000 -6.0000
v -4.0000 -2.0000 3.0000
v -3.0000 -2.0000 3.0000
v -3.0000 -2.0000 2.0000
v -4.0000 -3.0000 3.0000
v -4.0000 -3.0000 2.0000
v -3.0000 -3.0000 2.0000
v -3.0000 -3.0000 3.0000
v -3.0000 -15.0000 2.0000
v -3.0000 -15.0000 1.0000
v -3.0000 -16.0000 1.0000
v -3.0000 -16.0000 2.0000
v -3.0000 -3.0000 1.0000
v -3.0000 -1.0000 2.0000
v -3.0000 0.0000 2.0000
v -3.0000 1.0000 2.0000
v -3.0000 2.0000 2.0000
v -3.0000 2.0000 1.0000
v -4.0000 9.0000 2.0000
v -3.0000 9.0000 2.0000
v -3.0000 9.0000 1.0000
v -4.0000 8.0000 2.0000
v -3.0000 8.0000 1.0000
v -3.0000 8.0000 2.0000
v -3.0000 -16.0000 -0.0000
v -3.0000 -14.0000 1.0000
v -3.0000 -13.0000 1.0000
v -3.0000 -12.0000 1.0000
v -3.0000 -11.0000 1.0000
v -3.0000 -10.0000 1.0000
v -3.0000 -9.0000 1.0000
v -3.0000 -8.0000 1.0000
v -3.0000 -7.0000 1.0000
v -3.0000 -6.0000 1.0000
v -3.0000 -5.0000 1.0000
v -3.0000 -4.0000 1.0000
v -3.0000 -2.0000 -0.0000
v -3.0000 -3.0000 -0.0000
v -3.0000 3.0000 1.0000
v -3.0000 4.0000 1.0000
v -3.0000 5.0000 1.0000
v -3.0000 6.0000 1.0000
v -3.0000 7.0000 1.0000
v -3.0000 10.0000 1.0000
v -3.0000 11.0000 1.0000
v -3.0000 12.0000 1.0000
v -3.0000 13.0000 1.0000
v -4.0000 13.0000 1.0000
v -4.0000 13.0000 -0.0000
v -4.0000 14.0000 1.0000
v -3.0000 14.0000 1.0000
v -3.0000 14.0000 -0.0000
v -4.0000 14.0000 -0.0000
v -3.0000 -16.0000 -1.0000
v -3.0000 -3.0000 -1.0000
v -3.0000 -2.0000 -1.0000
v -3.0000 14.0000 -1.0000
v -4.0000 14.0000 -1.0000
v -3.0000 13.0000 -1.0000
v -3.0000 -16.0000 -2.0000
v -3.0000 -3.0000 -2.0000
v -3.0000 -2.0000 -2.0000
v -3.0000 13.0000 -2.0000
v -3.0000 -16.0000 -3.0000
v -3.0000 -3.0000 -3.0000
v -3.0000 -2.0000 -3.0000
v -4.0000 -1.0000 -3.0000
v -3.0000 13.0000 -3.0000
v -3.0000 -16.0000 -4.0000
v -3.0000 -15.0000 -4.0000
v -3.0000 -14.0000 -4.0000
v -3.0000 -13.0000 -4.0000
v -3.0000 -12.0000 -4.0000
v -3.0000 -11.0000 -4.0000
v -3.0000 -10.0000 -4.0000
v -3.0000 -9.0000 -4.0000
v -3.0000 -8.0000 -4.0000
v -3.0000 -7.0000 -4.0000
v -3.0000 -6.0000 -4.0000
v -3.0000 -5.0000 -4.0000
v -3.0000 -4.0000 -4.0000
v -3.0000 -3.0000 -4.0000
v -3.0000 -2.0000 -4.0000
v -3.0000 -1.0000 -4.0000
v -3.0000 13.0000 -4.0000
v -4.0000 -4.0000 -5.0000
v -3.0000 -4.0000 -5.0000
v -3.0000 -2.0000 -5.0000
v -3.0000 -1.0000 -5.0000
v -3.0000 0.0000 -5.0000
v -3.0000 1.0000 -5.0000
v -3.0000 2.0000 -5.0000
v -3.0000 3.0000 -5.0000
v -3.0000 4.0000 -5.0000
v -3.0000 5.0000 -5.0000
v -3.0000 6.0000 -5.0000
v -3.0000 7.0000 -5.0000
v -3.0000 8.0000 -5.0000
v -3.0000 9.0000 -5.0000
v -3.0000 10.0000 -5.0000
v -3.0000 11.0000 -5.0000
v -3.0000 12.0000 -5.0000
v -3.0000 13.0000 -5.0000
v -4.0000 13.0000 -5.0000
v -4.0000 -4.0000 -6.0000
v -3.0000 -4.0000 -6.0000
v -4.0000 -3.0000 -6.0000
v -3.0000 -3.0000 -6.0000
v -3.0000 -2.0000 -6.0000
v -3.0000 -1.0000 -6.0000
v -2.0000 -2.0000 3.0000
v -2.0000 -2.0000 2.0000
v -2.0000 -3.0000 2.0000
v -2.0000 -3.0000 3.0000
v -2.0000 -15.0000 2.0000
v -2.0000 -15.0000 1.0000
v -2.0000 -16.0000 1.0000
v -2.0000 -16.0000 2.0000
v -2.0000 -3.0000 1.0000
v -2.0000 -1.0000 2.0000
v -2.0000 0.0000 2.0000
v -2.0000 1.0000 2.0000
v -2.0000 2.0000 2.0000
v -3.0000 3.0000 2.0000
v -2.0000 3.0000 2.0000
v -2.0000 3.0000 1.0000
v -2.0000 9.0000 2.0000
v -2.0000 9.0000 1.0000
v -2.0000 8.0000 1.0000
v -2.0000 8.0000 2.0000
v -2.0000 -16.0000 -0.0000
v -2.0000 -14.0000 1.0000
v -2.0000 -13.0000 1.0000
v -2.0000 -12.0000 1.0000
v -2.0000 -11.0000 1.0000
v -2.0000 -10.0000 1.0000
v -2.0000 -9.0000 1.0000
v -2.0000 -8.0000 1.0000
v -2.0000 -7.0000 1.0000
v -2.0000 -6.0000 1.0000
v -2.0000 -5.0000 1.0000
v -2.0000 -4.0000 1.0000
v -2.0000 4.0000 1.0000
v -2.0000 5.0000 1.0000
v -2.0000 6.0000 1.0000
v -2.0000 7.0000 1.0000
v -2.0000 10.0000 1.0000
v -2.0000 11.0000 1.0000
v -2.0000 12.0000 1.0000
v -2.0000 13.0000 1.0000
v -2.0000 14.0000 1.0000
v -2.0000 14.0000 -0.0000
v -2.0000 -16.0000 -1.0000
v -2.0000 -2.0000 -1.0000
v -2.0000 -3.0000 -1.0000
v -2.0000 14.0000 -1.0000
v -2.0000 -16.0000 -2.0000
v -2.0000 -3.0000 -2.0000
v -2.0000 -2.0000 -2.0000
v -2.0000 14.0000 -2.0000
v -3.0000 14.0000 -2.0000
v -2.0000 -16.0000 -3.0000
v -2.0000 -3.0000 -3.0000
v -2.0000 -2.0000 -3.0000
v -2.0000 14.0000 -3.0000
v -3.0000 14.0000 -3.0000
v -2.0000 -16.0000 -4.0000
v -2.0000 -15.0000 -4.0000
v -2.0000 -14.0000 -4.0000
v -2.0000 -13.0000 -4.0000
v -2.0000 -12.0000 -4.0000
v -2.0000 -11.0000 -4.0000
v -2.0000 -10.0000 -4.0000
v -2.0000 -9.0000 -4.0000
v -2.0000 -8.0000 -4.0000
v -2.0000 -7.0000 -4.0000
v -2.0000 -6.0000 -4.0000
v -2.0000 -5.0000 -4.0000
v -2.0000 -4.0000 -4.0000
v -2.0000 -1.0000 -4.0000
v -2.0000 -2.0000 -4.0000
v -2.0000 14.0000 -4.0000
v -3.0000 14.0000 -4.0000
v -2.0000 -4.0000 -5.0000
v -2.0000 -2.0000 -5.0000
v -2.0000 -1.0000 -5.0000
v -2.0000 0.0000 -5.0000
v -2.0000 3.0000 -5.0000
v -2.0000 2.0000 -5.0000
v -2.0000 4.0000 -5.0000
v -2.0000 5.0000 -5.0000
v -2.0000 6.0000 -5.0000
v -2.0000 7.0000 -5.0000
v -2.0000 8.0000 -5.0000
v -2.0000 9.0000 -5.0000
v -2.0000 10.0000 -5.0000
v -2.0000 11.0000 -5.0000
v -2.0000 12.0000 -5.0000
v -2.0000 13.0000 -5.0000
v -2.0000 14.0000 -5.0000
v -3.0000 14.0000 -5.0000
v -2.0000 -4.0000 -6.0000
v -2.0000 -3.0000 -6.0000
v -2.0000 -2.0000 -6.0000
v -2.0000 -1.0000 -6.0000
v -3.0000 0.0000 -6.0000
v -2.0000 0.0000 -6.0000
v -3.0000 1.0000 -6.0000
v -2.0000 1.0000 -6.0000
v -2.0000 2.0000 -6.0000
v -3.0000 2.0000 -6.0000
v -2.0000 1.0000 -5.0000
v -1.0000 -3.0000 2.0000
v -1.0000 -3.0000 3.0000
v -1.0000 -2.0000 3.0000
v -2.0000 -1.0000 3.0000
v -1.0000 -1.0000 3.0000
v -1.0000 -1.0000 2.0000
v -1.0000 -15.0000 2.0000
v -1.0000 -15.0000 1.0000
v -1.0000 -16.0000 1.0000
v -1.0000 -16.0000 2.0000
v -1.0000 -3.0000 1.0000
v -1.0000 0.0000 2.0000
v -1.0000 1.0000 2.0000
v -1.0000 0.0000 1.0000
v -1.0000 1.0000 1.0000
v -1.0000 2.0000 2.0000
v -1.0000 3.0000 2.0000
v -1.0000 3.0000 1.0000
v -1.0000 9.0000 2.0000
v -1.0000 9.0000 1.0000
v -1.0000 8.0000 1.0000
v -1.0000 8.0000 2.0000
v -1.0000 -16.0000 -0.0000
v -1.0000 -15.0000 -0.0000
v -1.0000 -14.0000 1.0000
v -1.0000 -14.0000 -0.0000
v -1.0000 -13.0000 1.0000
v -1.0000 -13.0000 -0.0000
v -1.0000 -12.0000 1.0000
v -1.0000 -11.0000 1.0000
v -1.0000 -10.0000 1.0000
v -1.0000 -9.0000 1.0000
v -1.0000 -8.0000 1.0000
v -1.0000 -7.0000 1.0000
v -1.0000 -6.0000 1.0000
v -1.0000 -5.0000 1.0000
v -1.0000 -4.0000 1.0000
v -1.0000 4.0000 1.0000
v -1.0000 5.0000 1.0000
v -1.0000 6.0000 1.0000
v -1.0000 7.0000 1.0000
v -1.0000 10.0000 1.0000
v -1.0000 11.0000 1.0000
v -1.0000 12.0000 1.0000
v -1.0000 13.0000 1.0000
v -1.0000 14.0000 1.0000
v -2.0000 15.0000 1.0000
v -1.0000 15.0000 1.0000
v -1.0000 15.0000 -0.0000
v -2.0000 15.0000 -0.0000
v -1.0000 -16.0000 -1.0000
v -1.0000 -15.0000 -1.0000
v -1.0000 -14.0000 -1.0000
v -1.0000 -13.0000 -1.0000
v -1.0000 15.0000 -1.0000
v -2.0000 15.0000 -1.0000
v -1.0000 -16.0000 -2.0000
v -1.0000 -15.0000 -2.0000
v -1.0000 -14.0000 -2.0000
v -1.0000 -13.0000 -2.0000
v -1.0000 15.0000 -2.0000
v -2.0000 15.0000 -2.0000
v -1.0000 -16.0000 -3.0000
v -1.0000 -15.0000 -3.0000
v -1.0000 -14.0000 -3.0000
v -1.0000 -13.0000 -3.0000
v -1.0000 15.0000 -3.0000
v -2.0000 15.0000 -3.0000
v -1.0000 -16.0000 -4.0000
v -1.0000 -15.0000 -4.0000
v -1.0000 -14.0000 -4.0000
v -1.0000 -13.0000 -4.0000
v -1.0000 -12.0000 -4.0000
v -1.0000 -11.0000 -4.0000
v -1.0000 -10.0000 -4.0000
v -1.0000 -9.0000 -4.0000
v -1.0000 -8.0000 -4.0000
v -1.0000 -7.0000 -4.0000
v -1.0000 -6.0000 -4.0000
v -1.0000 -5.0000 -4.0000
v -1.0000 -4.0000 -4.0000
v -1.0000 15.0000 -4.0000
v -2.0000 15.0000 -4.0000
v -1.0000 -4.0000 -5.0000
v -1.0000 -2.0000 -4.0000
v -1.0000 -2.0000 -5.0000
v -1.0000 -1.0000 -5.0000
v -1.0000 -1.0000 -4.0000
v -1.0000 0.0000 -5.0000
v -1.0000 2.0000 -5.0000
v -1.0000 1.0000 -5.0000
v -1.0000 3.0000 -5.0000
v -1.0000 4.0000 -5.0000
v -1.0000 5.0000 -5.0000
v -1.0000 6.0000 -5.0000
v -1.0000 8.0000 -5.0000
v -1.0000 7.0000 -5.0000
v -1.0000 9.0000 -5.0000
v -1.0000 10.0000 -5.0000
v -1.0000 11.0000 -5.0000
v -1.0000 12.0000 -5.0000
v -1.0000 13.0000 -5.0000
v -1.0000 15.0000 -5.0000
v -2.0000 15.0000 -5.0000
v -1.0000 14.0000 -5.0000
v -1.0000 -4.0000 -6.0000
v -1.0000 -3.0000 -6.0000
v -1.0000 -2.0000 -6.0000
v -1.0000 -1.0000 -6.0000
v -1.0000 1.0000 -6.0000
v -1.0000 0.0000 -6.0000
v -1.0000 7.0000 -6.0000
v -2.0000 7.0000 -6.0000
v -2.0000 6.0000 -6.0000
v -1.0000 6.0000 -6.0000
v -1.0000 14.0000 -6.0000
v -2.0000 14.0000 -6.0000
v -2.0000 13.0000 -6.0000
v -1.0000 13.0000 -6.0000
v 0.0000 -3.0000 2.0000
v 0.0000 -3.0000 3.0000
v 0.0000 -2.0000 3.0000
v 0.0000 -1.0000 3.0000
v 0.0000 -1.0000 2.0000
v -1.0000 3.0000 3.0000
v 0.0000 3.0000 2.0000
v 0.0000 3.0000 3.0000
v 0.0000 4.0000 3.0000
v -1.0000 4.0000 3.0000
v -1.0000 4.0000 2.0000
v -1.0000 5.0000 3.0000
v 0.0000 5.0000 3.0000
v 0.0000 5.0000 2.0000
v -1.0000 5.0000 2.0000
v 0.0000 -3.0000 1.0000
v 0.0000 0.0000 2.0000
v 0.0000 0.0000 1.0000
v 0.0000 1.0000 1.0000
v 0.0000 1.0000 2.0000
v 0.0000 2.0000 2.0000
v 0.0000 5.0000 1.0000
v 0.0000 -13.0000 -0.0000
v 0.0000 -13.0000 1.0000
v 0.0000 -12.0000 1.0000
v 0.0000 -11.0000 1.0000
v 0.0000 -10.0000 1.0000
v 0.0000 -9.0000 1.0000
v 0.0000 -8.0000 1.0000
v 0.0000 -7.0000 1.0000
v 0.0000 -6.0000 1.0000
v 0.0000 -5.0000 1.0000
v 0.0000 -4.0000 1.0000
v 0.0000 6.0000 1.0000
v 0.0000 7.0000 1.0000
v 0.0000 8.0000 1.0000
v 0.0000 9.0000 1.0000
v 0.0000 10.0000 1.0000
v 0.0000 11.0000 1.0000
v 0.0000 12.0000 1.0000
v 0.0000 13.0000 1.0000
v 0.0000 14.0000 1.0000
v 0.0000 15.0000 1.0000
v -1.0000 16.0000 1.0000
v 0.0000 16.0000 1.0000
v 0.0000 16.0000 -0.0000
v -1.0000 16.0000 -0.0000
v 0.0000 -13.0000 -1.0000
v 0.0000 16.0000 -1.0000
v -1.0000 16.0000 -1.0000
v 0.0000 -13.0000 -2.0000
v 0.0000 16.0000 -2.0000
v -1.0000 16.0000 -2.0000
v 0.0000 -13.0000 -3.0000
v 0.0000 16.0000 -3.0000
v -1.0000 16.0000 -3.0000
v 0.0000 -13.0000 -4.0000
v 0.0000 -12.0000 -4.0000
v 0.0000 -11.0000 -4.0000
v 0.0000 -10.0000 -4.0000
v 0.0000 -9.0000 -4.0000
v 0.0000 -8.0000 -4.0000
v 0.0000 -7.0000 -4.0000
v 0.0000 -6.0000 -4.0000
v 0.0000 -5.0000 -4.0000
v 0.0000 -4.0000 -4.0000
v 0.0000 -1.0000 -4.0000
v 0.0000 -2.0000 -4.0000
v 0.0000 16.0000 -4.0000
v -1.0000 16.0000 -4.0000
v 0.0000 -4.0000 -5.0000
v 0.0000 -2.0000 -5.0000
v 0.0000 -1.0000 -5.0000
v 0.0000 0.0000 -5.0000
v 0.0000 1.0000 -5.0000
v 0.0000 2.0000 -5.0000
v 0.0000 3.0000 -5.0000
v 0.0000 4.0000 -5.0000
v 0.0000 5.0000 -5.0000
v 0.0000 7.0000 -5.0000
v 0.0000 6.0000 -5.0000
v 0.0000 8.0000 -5.0000
v 0.0000 9.0000 -5.0000
v 0.0000 10.0000 -5.0000
v 0.0000 15.0000 -5.0000
v 0.0000 14.0000 -5.0000
v 0.0000 16.0000 -5.0000
v -1.0000 16.0000 -5.0000
v 0.0000 -4.0000 -6.0000
v 0.0000 -3.0000 -6.0000
v 0.0000 -2.0000 -6.0000
v 0.0000 -1.0000 -6.0000
v 0.0000 6.0000 -6.0000
v -1.0000 5.0000 -6.0000
v 0.0000 5.0000 -6.0000
v -1.0000 10.0000 -6.0000
v 0.0000 10.0000 -6.0000
v -1.0000 11.0000 -6.0000
v 0.0000 11.0000 -6.0000
v -1.0000 12.0000 -6.0000
v 0.0000 12.0000 -6.0000
v 0.0000 13.0000 -6.0000
v 0.0000 14.0000 -6.0000
v 1.0000 -3.0000 2.0000
v 1.0000 -3.0000 3.0000
v 1.0000 -2.0000 3.0000
v 1.0000 -1.0000 3.0000
v 1.0000 -1.0000 2.0000
v 1.0000 3.0000 2.0000
v 1.0000 3.0000 3.0000
v 1.0000 4.0000 3.0000
v 1.0000 4.0000 2.0000
v 1.0000 5.0000 3.0000
v 1.0000 5.0000 2.0000
v 1.0000 -3.0000 1.0000
v 1.0000 0.0000 2.0000
v 1.0000 0.0000 1.0000
v 1.0000 1.0000 1.0000
v 1.0000 1.0000 2.0000
v 1.0000 2.0000 2.0000
v 1.0000 3.0000 1.0000
v 1.0000 4.0000 1.0000
v 1.0000 5.0000 1.0000
v 1.0000 -13.0000 -0.0000
v 1.0000 -13.0000 1.0000
v 1.0000 -12.0000 1.0000
v 1.0000 -11.0000 1.0000
v 1.0000 -10.0000 1.0000
v 1.0000 -9.0000 1.0000
v 1.0000 -8.0000 1.0000
v 1.0000 -7.0000 1.0000
v 1.0000 -6.0000 1.0000
v 1.0000 -5.0000 1.0000
v 1.0000 -4.0000 1.0000
v 1.0000 6.0000 1.0000
v 1.0000 7.0000 1.0000
v 1.0000 8.0000 1.0000
v 1.0000 9.0000 1.0000
v 1.0000 10.0000 1.0000
v 1.0000 11.0000 1.0000
v 1.0000 12.0000 1.0000
v 1.0000 13.0000 1.0000
v 1.0000 14.0000 1.0000
v 1.0000 15.0000 1.0000
v 1.0000 16.0000 1.0000
v 1.0000 16.0000 -0.0000
v 1.0000 15.0000 -0.0000
v 1.0000 -13.0000 -1.0000
v 1.0000 16.0000 -1.0000
v 1.0000 15.0000 -1.0000
v 1.0000 -13.0000 -2.0000
v 1.0000 16.0000 -2.0000
v 1.0000 15.0000 -2.0000
v 1.0000 -13.0000 -3.0000
v 1.0000 16.0000 -3.0000
v 1.0000 15.0000 -3.0000
v 1.0000 -13.0000 -4.0000
v 1.0000 -12.0000 -4.0000
v 1.0000 -11.0000 -4.0000
v 1.0000 -10.0000 -4.0000
v 1.0000 -9.0000 -4.0000
v 1.0000 -8.0000 -4.0000
v 1.0000 -7.0000 -4.0000
v 1.0000 -6.0000 -4.0000
v 1.0000 -5.0000 -4.0000
v 1.0000 -4.0000 -4.0000
v 1.0000 -1.0000 -4.0000
v 1.0000 -2.0000 -4.0000
v 1.0000 16.0000 -4.0000
v 1.0000 15.0000 -4.0000
v 1.0000 -4.0000 -5.0000
v 1.0000 -2.0000 -5.0000
v 1.0000 -1.0000 -5.0000
v 1.0000 0.0000 -5.0000
v 1.0000 1.0000 -5.0000
v 1.0000 2.0000 -5.0000
v 1.0000 3.0000 -5.0000
v 1.0000 4.0000 -5.0000
v 1.0000 5.0000 -5.0000
v 1.0000 7.0000 -5.0000
v 1.0000 6.0000 -5.0000
v 1.0000 8.0000 -5.0000
v 1.0000 9.0000 -5.0000
v 1.0000 10.0000 -5.0000
v 1.0000 15.0000 -5.0000
v 1.0000 14.0000 -5.0000
v 1.0000 16.0000 -5.0000
v 1.0000 -4.0000 -6.0000
v 1.0000 -3.0000 -6.0000
v 1.0000 -2.0000 -6.0000
v 1.0000 -1.0000 -6.0000
v 1.0000 6.0000 -6.0000
v 1.0000 5.0000 -6.0000
v 1.0000 10.0000 -6.0000
v 1.0000 11.0000 -6.0000
v 1.0000 11.0000 -5.0000
v 1.0000 12.0000 -6.0000
v 1.0000 12.0000 -5.0000
v 1.0000 13.0000 -6.0000
v 1.0000 13.0000 -5.0000
v 1.0000 14.0000 -6.0000
v 2.0000 -3.0000 2.0000
v 2.0000 -3.0000 3.0000
v 2.0000 -2.0000 3.0000
v 2.0000 -1.0000 3.0000
v 2.0000 -1.0000 2.0000
v 2.0000 -2.0000 2.0000
v 1.0000 -15.0000 2.0000
v 2.0000 -15.0000 2.0000
v 2.0000 -15.0000 1.0000
v 1.0000 -15.0000 1.0000
v 1.0000 -16.0000 2.0000
v 1.0000 -16.0000 1.0000
v 2.0000 -16.0000 1.0000
v 2.0000 -16.0000 2.0000
v 2.0000 -3.0000 1.0000
v 2.0000 0.0000 2.0000
v 2.0000 1.0000 2.0000
v 2.0000 2.0000 2.0000
v 2.0000 3.0000 2.0000
v 2.0000 3.0000 1.0000
v 1.0000 9.0000 2.0000
v 2.0000 9.0000 2.0000
v 2.0000 9.0000 1.0000
v 1.0000 8.0000 2.0000
v 2.0000 8.0000 1.0000
v 2.0000 8.0000 2.0000
v 1.0000 -16.0000 -0.0000
v 2.0000 -16.0000 -0.0000
v 1.0000 -15.0000 -0.0000
v 2.0000 -14.0000 1.0000
v 1.0000 -14.0000 1.0000
v 1.0000 -14.0000 -0.0000
v 2.0000 -13.0000 1.0000
v 2.0000 -12.0000 1.0000
v 2.0000 -11.0000 1.0000
v 2.0000 -10.0000 1.0000
v 2.0000 -9.0000 1.0000
v 2.0000 -8.0000 1.0000
v 2.0000 -7.0000 1.0000
v 2.0000 -6.0000 1.0000
v 2.0000 -5.0000 1.0000
v 2.0000 -4.0000 1.0000
v 2.0000 4.0000 1.0000
v 2.0000 5.0000 1.0000
v 2.0000 6.0000 1.0000
v 2.0000 7.0000 1.0000
v 2.0000 10.0000 1.0000
v 2.0000 11.0000 1.0000
v 2.0000 12.0000 1.0000
v 2.0000 13.0000 1.0000
v 2.0000 14.0000 1.0000
v 2.0000 15.0000 1.0000
v 2.0000 15.0000 -0.0000
v 2.0000 14.0000 -0.0000
v 1.0000 -16.0000 -1.0000
v 2.0000 -16.0000 -1.0000
v 1.0000 -15.0000 -1.0000
v 1.0000 -14.0000 -1.0000
v 2.0000 15.0000 -1.0000
v 2.0000 14.0000 -1.0000
v 1.0000 -16.0000 -2.0000
v 2.0000 -16.0000 -2.0000
v 1.0000 -15.0000 -2.0000
v 1.0000 -14.0000 -2.0000
v 2.0000 -3.0000 -1.0000
v 2.0000 -3.0000 -2.0000
v 2.0000 -2.0000 -2.0000
v 2.0000 -2.0000 -1.0000
v 2.0000 15.0000 -2.0000
v 2.0000 14.0000 -2.0000
v 1.0000 -16.0000 -3.0000
v 2.0000 -16.0000 -3.0000
v 1.0000 -15.0000 -3.0000
v 1.0000 -14.0000 -3.0000
v 2.0000 -3.0000 -3.0000
v 2.0000 -2.0000 -3.0000
v 2.0000 15.0000 -3.0000
v 2.0000 14.0000 -3.0000
v 1.0000 -16.0000 -4.0000
v 2.0000 -16.0000 -4.0000
v 1.0000 -15.0000 -4.0000
v 2.0000 -15.0000 -4.0000
v 1.0000 -14.0000 -4.0000
v 2.0000 -14.0000 -4.0000
v 2.0000 -13.0000 -4.0000
v 2.0000 -12.0000 -4.0000
v 2.0000 -11.0000 -4.0000
v 2.0000 -10.0000 -4.0000
v 2.0000 -9.0000 -4.0000
v 2.0000 -8.0000 -4.0000
v 2.0000 -7.0000 -4.0000
v 2.0000 -6.0000 -4.0000
v 2.0000 -5.0000 -4.0000
v 2.0000 -4.0000 -4.0000
v 2.0000 15.0000 -4.0000
v 2.0000 14.0000 -4.0000
v 2.0000 -4.0000 -5.0000
v 2.0000 -2.0000 -4.0000
v 2.0000 -2.0000 -5.0000
v 2.0000 -1.0000 -5.0000
v 2.0000 -1.0000 -4.0000
v 2.0000 0.0000 -5.0000
v 2.0000 2.0000 -5.0000
v 2.0000 1.0000 -5.0000
v 2.0000 3.0000 -5.0000
v 2.0000 4.0000 -5.0000
v 2.0000 5.0000 -5.0000
v 2.0000 6.0000 -5.0000
v 2.0000 8.0000 -5.0000
v 2.0000 7.0000 -5.0000
v 2.0000 9.0000 -5.0000
v 2.0000 10.0000 -5.0000
v 2.0000 11.0000 -5.0000
v 2.0000 12.0000 -5.0000
v 2.0000 13.0000 -5.0000
v 2.0000 15.0000 -5.0000
v 2.0000 14.0000 -5.0000
v 2.0000 -4.0000 -6.0000
v 2.0000 -3.0000 -6.0000
v 2.0000 -2.0000 -6.0000
v 2.0000 -1.0000 -6.0000
v 2.0000 1.0000 -6.0000
v 1.0000 1.0000 -6.0000
v 1.0000 0.0000 -6.0000
v 2.0000 0.0000 -6.0000
v 2.0000 7.0000 -6.0000
v 1.0000 7.0000 -6.0000
v 2.0000 6.0000 -6.0000
v 2.0000 14.0000 -6.0000
v 2.0000 13.0000 -6.0000
v 3.0000 -2.0000 3.0000
v 3.0000 -2.0000 2.0000
v 3.0000 -3.0000 2.0000
v 3.0000 -3.0000 3.0000
v 3.0000 -15.0000 2.0000
v 3.0000 -15.0000 1.0000
v 3.0000 -16.0000 1.0000
v 3.0000 -16.0000 2.0000
v 3.0000 -3.0000 1.0000
v 3.0000 -1.0000 2.0000
v 3.0000 0.0000 2.0000
v 3.0000 1.0000 2.0000
v 3.0000 2.0000 2.0000
v 3.0000 3.0000 2.0000
v 3.0000 3.0000 1.0000
v 3.0000 2.0000 1.0000
v 3.0000 9.0000 2.0000
v 3.0000 9.0000 1.0000
v 3.0000 8.0000 1.0000
v 3.0000 8.0000 2.0000
v 3.0000 -16.0000 -0.0000
v 3.0000 -14.0000 1.0000
v 3.0000 -13.0000 1.0000
v 3.0000 -12.0000 1.0000
v 3.0000 -11.0000 1.0000
v 3.0000 -10.0000 1.0000
v 3.0000 -9.0000 1.0000
v 3.0000 -8.0000 1.0000
v 3.0000 -7.0000 1.0000
v 3.0000 -6.0000 1.0000
v 3.0000 -5.0000 1.0000
v 3.0000 -4.0000 1.0000
v 3.0000 4.0000 1.0000
v 3.0000 5.0000 1.0000
v 3.0000 6.0000 1.0000
v 3.0000 7.0000 1.0000
v 3.0000 10.0000 1.0000
v 3.0000 11.0000 1.0000
v 3.0000 12.0000 1.0000
v 3.0000 13.0000 1.0000
v 3.0000 14.0000 1.0000
v 3.0000 14.0000 -0.0000
v 3.0000 -16.0000 -1.0000
v 3.0000 -2.0000 -1.0000
v 3.0000 -3.0000 -1.0000
v 3.0000 -3.0000 -0.0000
v 3.0000 -2.0000 -0.0000
v 3.0000 14.0000 -1.0000
v 3.0000 -16.0000 -2.0000
v 3.0000 -3.0000 -2.0000
v 3.0000 -2.0000 -2.0000
v 3.0000 14.0000 -2.0000
v 3.0000 13.0000 -1.0000
v 3.0000 13.0000 -2.0000
v 3.0000 -16.0000 -3.0000
v 3.0000 -3.0000 -3.0000
v 3.0000 -2.0000 -3.0000
v 3.0000 14.0000 -3.0000
v 3.0000 13.0000 -3.0000
v 3.0000 -16.0000 -4.0000
v 3.0000 -15.0000 -4.0000
v 3.0000 -14.0000 -4.0000
v 3.0000 -13.0000 -4.0000
v 3.0000 -12.0000 -4.0000
v 3.0000 -11.0000 -4.0000
v 3.0000 -10.0000 -4.0000
v 3.0000 -9.0000 -4.0000
v 3.0000 -8.0000 -4.0000
v 3.0000 -7.0000 -4.0000
v 3.0000 -6.0000 -4.0000
v 3.0000 -5.0000 -4.0000
v 3.0000 -4.0000 -4.0000
v 3.0000 -3.0000 -4.0000
v 3.0000 -2.0000 -4.0000
v 3.0000 -1.0000 -4.0000
v 3.0000 14.0000 -4.0000
v 3.0000 13.0000 -4.0000
v 3.0000 -4.0000 -5.0000
v 3.0000 -2.0000 -5.0000
v 3.0000 -1.0000 -5.0000
v 3.0000 0.0000 -5.0000
v 3.0000 2.0000 -5.0000
v 3.0000 1.0000 -5.0000
v 3.0000 3.0000 -5.0000
v 3.0000 4.0000 -5.0000
v 3.0000 5.0000 -5.0000
v 3.0000 6.0000 -5.0000
v 3.0000 7.0000 -5.0000
v 3.0000 8.0000 -5.0000
v 3.0000 9.0000 -5.0000
v 3.0000 10.0000 -5.0000
v 3.0000 11.0000 -5.0000
v 3.0000 12.0000 -5.0000
v 3.0000 13.0000 -5.0000
v 3.0000 14.0000 -5.0000
v 3.0000 -4.0000 -6.0000
v 3.0000 -3.0000 -6.0000
v 3.0000 -2.0000 -6.0000
v 3.0000 -1.0000 -6.0000
v 3.0000 1.0000 -6.0000
v 3.0000 0.0000 -6.0000
v 4.0000 -2.0000 3.0000
v 4.0000 -2.0000 2.0000
v 4.0000 -3.0000 2.0000
v 4.0000 -3.0000 3.0000
v 4.0000 -15.0000 2.0000
v 4.0000 -15.0000 1.0000
v 4.0000 -16.0000 1.0000
v 4.0000 -16.0000 2.0000
v 4.0000 -3.0000 1.0000
v 4.0000 -2.0000 1.0000
v 4.0000 -1.0000 2.0000
v 4.0000 0.0000 2.0000
v 4.0000 1.0000 2.0000
v 4.0000 2.0000 2.0000
v 4.0000 2.0000 1.0000
v 4.0000 9.0000 2.0000
v 4.0000 9.0000 1.0000
v 4.0000 8.0000 1.0000
v 4.0000 8.0000 2.0000
v 4.0000 -16.0000 -0.0000
v 4.0000 -14.0000 1.0000
v 4.0000 -13.0000 1.0000
v 4.0000 -12.0000 1.0000
v 4.0000 -11.0000 1.0000
v 4.0000 -10.0000 1.0000
v 4.0000 -9.0000 1.0000
v 4.0000 -8.0000 1.0000
v 4.0000 -7.0000 1.0000
v 4.0000 -6.0000 1.0000
v 4.0000 -5.0000 1.0000
v 4.0000 -4.0000 1.0000
v 4.0000 -2.0000 -0.0000
v 4.0000 -3.0000 -0.0000
v 4.0000 3.0000 1.0000
v 4.0000 4.0000 1.0000
v 4.0000 5.0000 1.0000
v 4.0000 6.0000 1.0000
v 4.0000 7.0000 1.0000
v 4.0000 10.0000 1.0000
v 4.0000 11.0000 1.0000
v 4.0000 12.0000 1.0000
v 4.0000 13.0000 1.0000
v 4.0000 12.0000 -0.0000
v 4.0000 13.0000 -0.0000
v 4.0000 14.0000 1.0000
v 4.0000 14.0000 -0.0000
v 4.0000 -16.0000 -1.0000
v 4.0000 -3.0000 -1.0000
v 4.0000 -2.0000 -1.0000
v 4.0000 12.0000 -1.0000
v 4.0000 13.0000 -1.0000
v 4.0000 14.0000 -1.0000
v 4.0000 -16.0000 -2.0000
v 4.0000 -3.0000 -2.0000
v 4.0000 -2.0000 -2.0000
v 4.0000 13.0000 -2.0000
v 4.0000 -16.0000 -3.0000
v 4.0000 -3.0000 -3.0000
v 4.0000 -2.0000 -3.0000
v 4.0000 -1.0000 -3.0000
v 4.0000 -1.0000 -2.0000
v 4.0000 0.0000 -3.0000
v 4.0000 0.0000 -2.0000
v 4.0000 13.0000 -3.0000
v 4.0000 -16.0000 -4.0000
v 4.0000 -15.0000 -4.0000
v 4.0000 -14.0000 -4.0000
v 4.0000 -13.0000 -4.0000
v 4.0000 -12.0000 -4.0000
v 4.0000 -11.0000 -4.0000
v 4.0000 -10.0000 -4.0000
v 4.0000 -9.0000 -4.0000
v 4.0000 -8.0000 -4.0000
v 4.0000 -7.0000 -4.0000
v 4.0000 -6.0000 -4.0000
v 4.0000 -5.0000 -4.0000
v 4.0000 -4.0000 -4.0000
v 4.0000 -3.0000 -4.0000
v 4.0000 -2.0000 -4.0000
v 4.0000 -1.0000 -4.0000
v 4.0000 0.0000 -4.0000
v 4.0000 13.0000 -4.0000
v 4.0000 -4.0000 -5.0000
v 4.0000 -3.0000 -5.0000
v 4.0000 -2.0000 -5.0000
v 4.0000 -1.0000 -5.0000
v 4.0000 0.0000 -5.0000
v 4.0000 1.0000 -5.0000
v 4.0000 2.0000 -5.0000
v 4.0000 3.0000 -5.0000
v 4.0000 4.0000 -5.0000
v 4.0000 5.0000 -5.0000
v 4.0000 6.0000 -5.0000
v 4.0000 7.0000 -5.0000
v 4.0000 8.0000 -5.0000
v 4.0000 9.0000 -5.0000
v 4.0000 10.0000 -5.0000
v 4.0000 11.0000 -5.0000
v 4.0000 12.0000 -5.0000
v 4.0000 13.0000 -5.0000
v 4.0000 12.0000 -4.0000
v 4.0000 -4.0000 -6.0000
v 4.0000 -3.0000 -6.0000
v 4.0000 -2.0000 -6.0000
v 4.0000 -1.0000 -6.0000
v 5.0000 -15.0000 2.0000
v 5.0000 -15.0000 1.0000
v 5.0000 -16.0000 1.0000
v 5.0000 -16.0000 2.0000
v 5.0000 -2.0000 1.0000
v 5.0000 -2.0000 2.0000
v 5.0000 -1.0000 2.0000
v 5.0000 -1.0000 1.0000
v 5.0000 0.0000 2.0000
v 5.0000 0.0000 1.0000
v 5.0000 1.0000 2.0000
v 5.0000 1.0000 1.0000
v 5.0000 2.0000 2.0000
v 5.0000 2.0000 1.0000
v 5.0000 -16.0000 -0.0000
v 5.0000 -15.0000 -0.0000
v 5.0000 -14.0000 1.0000
v 5.0000 -14.0000 -0.0000
v 5.0000 -13.0000 1.0000
v 5.0000 -13.0000 -0.0000
v 5.0000 -12.0000 1.0000
v 5.0000 -12.0000 -0.0000
v 5.0000 -11.0000 1.0000
v 5.0000 -11.0000 -0.0000
v 5.0000 -10.0000 1.0000
v 5.0000 -10.0000 -0.0000
v 5.0000 -9.0000 1.0000
v 5.0000 -9.0000 -0.0000
v 5.0000 -8.0000 1.0000
v 5.0000 -8.0000 -0.0000
v 5.0000 -7.0000 1.0000
v 5.0000 -7.0000 -0.0000
v 5.0000 -6.0000 1.0000
v 5.0000 -6.0000 -0.0000
v 5.0000 -5.0000 1.0000
v 5.0000 -5.0000 -0.0000
v 5.0000 -4.0000 1.0000
v 5.0000 -4.0000 -0.0000
v 5.0000 -3.0000 1.0000
v 5.0000 -3.0000 -0.0000
v 5.0000 -2.0000 -0.0000
v 5.0000 -1.0000 -0.0000
v 5.0000 0.0000 -0.0000
v 5.0000 3.0000 1.0000
v 5.0000 2.0000 -0.0000
v 5.0000 3.0000 -0.0000
v 5.0000 4.0000 1.0000
v 5.0000 4.0000 -0.0000
v 5.0000 5.0000 1.0000
v 5.0000 5.0000 -0.0000
v 5.0000 6.0000 1.0000
v 5.0000 6.0000 -0.0000
v 5.0000 7.0000 1.0000
v 5.0000 7.0000 -0.0000
v 5.0000 8.0000 1.0000
v 5.0000 8.0000 -0.0000
v 5.0000 9.0000 1.0000
v 5.0000 9.0000 -0.0000
v 5.0000 10.0000 1.0000
v 5.0000 10.0000 -0.0000
v 5.0000 11.0000 1.0000
v 5.0000 12.0000 1.0000
v 5.0000 12.0000 -0.0000
v 5.0000 -16.0000 -1.0000
v 5.0000 -15.0000 -1.0000
v 5.0000 -14.0000 -1.0000
v 5.0000 -13.0000 -1.0000
v 5.0000 -12.0000 -1.0000
v 5.0000 -3.0000 -1.0000
v 5.0000 -2.0000 -1.0000
v 5.0000 -1.0000 -1.0000
v 5.0000 0.0000 -1.0000
v 5.0000 2.0000 -1.0000
v 5.0000 3.0000 -1.0000
v 5.0000 4.0000 -1.0000
v 5.0000 12.0000 -1.0000
v 5.0000 -16.0000 -2.0000
v 5.0000 -15.0000 -2.0000
v 5.0000 -14.0000 -2.0000
v 5.0000 -13.0000 -2.0000
v 5.0000 -12.0000 -2.0000
v 5.0000 -3.0000 -2.0000
v 5.0000 -2.0000 -2.0000
v 5.0000 -1.0000 -2.0000
v 5.0000 0.0000 -2.0000
v 5.0000 13.0000 -1.0000
v 5.0000 13.0000 -2.0000
v 5.0000 12.0000 -2.0000
v 5.0000 -16.0000 -3.0000
v 5.0000 -15.0000 -3.0000
v 5.0000 -14.0000 -3.0000
v 5.0000 -13.0000 -3.0000
v 5.0000 -12.0000 -3.0000
v 5.0000 -3.0000 -3.0000
v 5.0000 0.0000 -3.0000
v 5.0000 13.0000 -3.0000
v 5.0000 12.0000 -3.0000
v 5.0000 -16.0000 -4.0000
v 5.0000 -15.0000 -4.0000
v 5.0000 -14.0000 -4.0000
v 5.0000 -13.0000 -4.0000
v 5.0000 -12.0000 -4.0000
v 5.0000 -11.0000 -4.0000
v 5.0000 -11.0000 -3.0000
v 5.0000 -10.0000 -4.0000
v 5.0000 -10.0000 -3.0000
v 5.0000 -9.0000 -4.0000
v 5.0000 -9.0000 -3.0000
v 5.0000 -8.0000 -4.0000
v 5.0000 -8.0000 -3.0000
v 5.0000 -7.0000 -4.0000
v 5.0000 -7.0000 -3.0000
v 5.0000 -6.0000 -4.0000
v 5.0000 -6.0000 -3.0000
v 5.0000 -5.0000 -4.0000
v 5.0000 -5.0000 -3.0000
v 5.0000 -4.0000 -4.0000
v 5.0000 -4.0000 -3.0000
v 5.0000 -3.0000 -4.0000
v 5.0000 -2.0000 -3.0000
v 5.0000 -2.0000 -4.0000
v 5.0000 0.0000 -4.0000
v 5.0000 13.0000 -4.0000
v 5.0000 12.0000 -4.0000
v 5.0000 -3.0000 -5.0000
v 5.0000 -2.0000 -5.0000
v 5.0000 -1.0000 -4.0000
v 5.0000 -1.0000 -5.0000
v 5.0000 0.0000 -5.0000
v 5.0000 1.0000 -5.0000
v 5.0000 1.0000 -4.0000
v 5.0000 2.0000 -5.0000
v 5.0000 3.0000 -5.0000
v 5.0000 2.0000 -4.0000
v 5.0000 3.0000 -4.0000
v 5.0000 5.0000 -5.0000
v 5.0000 4.0000 -5.0000
v 5.0000 6.0000 -5.0000
v 5.0000 7.0000 -5.0000
v 5.0000 8.0000 -5.0000
v 5.0000 9.0000 -5.0000
v 5.0000 10.0000 -5.0000
v 5.0000 11.0000 -5.0000
v 5.0000 12.0000 -5.0000
v 5.0000 -1.0000 -6.0000
v 5.0000 -2.0000 -6.0000
v 5.0000 1.0000 -6.0000
v 4.0000 1.0000 -6.0000
v 4.0000 0.0000 -6.0000
v 5.0000 0.0000 -6.0000
v 5.0000 4.0000 -6.0000
v 4.0000 4.0000 -6.0000
v 4.0000 3.0000 -6.0000
v 5.0000 3.0000 -6.0000
v 6.0000 0.0000 -0.0000
v 6.0000 0.0000 1.0000
v 6.0000 1.0000 1.0000
v 6.0000 1.0000 -0.0000
v 6.0000 2.0000 1.0000
v 6.0000 2.0000 -0.0000
v 6.0000 10.0000 -0.0000
v 6.0000 10.0000 1.0000
v 6.0000 11.0000 1.0000
v 6.0000 11.0000 -0.0000
v 6.0000 12.0000 1.0000
v 6.0000 12.0000 -0.0000
v 6.0000 -12.0000 -1.0000
v 6.0000 -12.0000 -0.0000
v 6.0000 -11.0000 -0.0000
v 6.0000 -10.0000 -0.0000
v 6.0000 -9.0000 -0.0000
v 6.0000 -8.0000 -0.0000
v 6.0000 -7.0000 -0.0000
v 6.0000 -6.0000 -0.0000
v 6.0000 -5.0000 -0.0000
v 6.0000 -4.0000 -0.0000
v 6.0000 -3.0000 -0.0000
v 6.0000 -3.0000 -1.0000
v 6.0000 0.0000 -1.0000
v 6.0000 1.0000 -1.0000
v 6.0000 2.0000 -1.0000
v 6.0000 4.0000 -1.0000
v 6.0000 4.0000 -0.0000
v 6.0000 5.0000 -0.0000
v 6.0000 5.0000 -1.0000
v 6.0000 6.0000 -0.0000
v 6.0000 6.0000 -1.0000
v 6.0000 7.0000 -0.0000
v 6.0000 7.0000 -1.0000
v 6.0000 8.0000 -0.0000
v 6.0000 8.0000 -1.0000
v 6.0000 9.0000 -0.0000
v 6.0000 9.0000 -1.0000
v 6.0000 10.0000 -1.0000
v 6.0000 11.0000 -1.0000
v 6.0000 12.0000 -1.0000
v 6.0000 -12.0000 -2.0000
v 6.0000 -3.0000 -2.0000
v 6.0000 -1.0000 -2.0000
v 6.0000 -1.0000 -1.0000
v 6.0000 0.0000 -2.0000
v 6.0000 1.0000 -2.0000
v 6.0000 2.0000 -2.0000
v 6.0000 3.0000 -1.0000
v 6.0000 3.0000 -2.0000
v 6.0000 4.0000 -2.0000
v 6.0000 5.0000 -2.0000
v 6.0000 9.0000 -2.0000
v 6.0000 10.0000 -2.0000
v 6.0000 11.0000 -2.0000
v 6.0000 12.0000 -2.0000
v 6.0000 -12.0000 -3.0000
v 6.0000 -11.0000 -3.0000
v 6.0000 -10.0000 -3.0000
v 6.0000 -9.0000 -3.0000
v 6.0000 -8.0000 -3.0000
v 6.0000 -7.0000 -3.0000
v 6.0000 -6.0000 -3.0000
v 6.0000 -5.0000 -3.0000
v 6.0000 -4.0000 -3.0000
v 6.0000 -3.0000 -3.0000
v 6.0000 0.0000 -3.0000
v 6.0000 1.0000 -3.0000
v 6.0000 2.0000 -3.0000
v 6.0000 3.0000 -3.0000
v 6.0000 4.0000 -3.0000
v 6.0000 5.0000 -3.0000
v 6.0000 9.0000 -3.0000
v 6.0000 10.0000 -3.0000
v 6.0000 11.0000 -3.0000
v 6.0000 12.0000 -3.0000
v 6.0000 0.0000 -4.0000
v 6.0000 1.0000 -4.0000
v 6.0000 2.0000 -4.0000
v 6.0000 3.0000 -4.0000
v 6.0000 4.0000 -4.0000
v 6.0000 5.0000 -4.0000
v 6.0000 6.0000 -4.0000
v 6.0000 6.0000 -3.0000
v 6.0000 7.0000 -4.0000
v 6.0000 7.0000 -3.0000
v 6.0000 8.0000 -4.0000
v 6.0000 8.0000 -3.0000
v 6.0000 9.0000 -4.0000
v 6.0000 10.0000 -4.0000
v 6.0000 11.0000 -4.0000
v 6.0000 12.0000 -4.0000
v 6.0000 2.0000 -5.0000
v 6.0000 1.0000 -5.0000
v 6.0000 3.0000 -5.0000
v 6.0000 4.0000 -5.0000
v 6.0000 5.0000 -5.0000
v 6.0000 6.0000 -5.0000
v 6.0000 7.0000 -5.0000
v 6.0000 8.0000 -5.0000
v 6.0000 9.0000 -5.0000
v 6.0000 10.0000 -5.0000
v 6.0000 11.0000 -5.0000
v 6.0000 12.0000 -5.0000
v 5.0000 5.0000 -6.0000
v 6.0000 5.0000 -6.0000
v 5.0000 6.0000 -6.0000
v 6.0000 6.0000 -6.0000
v 5.0000 7.0000 -6.0000
v 6.0000 7.0000 -6.0000
v 6.0000 8.0000 -6.0000
v 5.0000 8.0000 -6.0000
v 7.0000 -12.0000 -1.0000
v 7.0000 -12.0000 -0.0000
v 7.0000 -11.0000 -0.0000
v 7.0000 -11.0000 -1.0000
v 7.0000 -10.0000 -0.0000
v 7.0000 -10.0000 -1.0000
v 7.0000 -9.0000 -0.0000
v 7.0000 -9.0000 -1.0000
v 7.0000 -8.0000 -0.0000
v 7.0000 -8.0000 -1.0000
v 7.0000 -7.0000 -0.0000
v 7.0000 -7.0000 -1.0000
v 7.0000 -6.0000 -0.0000
v 7.0000 -6.0000 -1.0000
v 7.0000 -5.0000 -0.0000
v 7.0000 -5.0000 -1.0000
v 7.0000 -4.0000 -0.0000
v 7.0000 -4.0000 -1.0000
v 7.0000 -3.0000 -0.0000
v 7.0000 -3.0000 -1.0000
v 7.0000 -12.0000 -2.0000
v 7.0000 -11.0000 -2.0000
v 7.0000 -10.0000 -2.0000
v 7.0000 -9.0000 -2.0000
v 7.0000 -8.0000 -2.0000
v 7.0000 -7.0000 -2.0000
v 7.0000 -6.0000 -2.0000
v 7.0000 -5.0000 -2.0000
v 7.0000 -4.0000 -2.0000
v 7.0000 -3.0000 -2.0000
v 7.0000 5.0000 -2.0000
v 7.0000 5.0000 -1.0000
v 7.0000 6.0000 -1.0000
v 7.0000 6.0000 -2.0000
v 7.0000 7.0000 -1.0000
v 7.0000 7.0000 -2.0000
v 7.0000 8.0000 -1.0000
v 7.0000 8.0000 -2.0000
v 7.0000 9.0000 -1.0000
v 7.0000 9.0000 -2.0000
v 7.0000 -12.0000 -3.0000
v 7.0000 -11.0000 -3.0000
v 7.0000 -10.0000 -3.0000
v 7.0000 -9.0000 -3.0000
v 7.0000 -8.0000 -3.0000
v 7.0000 -7.0000 -3.0000
v 7.0000 -6.0000 -3.0000
v 7.0000 -5.0000 -3.0000
v 7.0000 -4.0000 -3.0000
v 7.0000 -3.0000 -3.0000
v 7.0000 5.0000 -3.0000
v 7.0000 6.0000 -3.0000
v 7.0000 7.0000 -3.0000
v 7.0000 8.0000 -3.0000
v 7.0000 9.0000 -3.0000
vt 0.001953 0.500000
vt 0.005859 0.500000
vt 0.009766 0.500000
vt 0.013672 0.500000
vt 0.017578 0.500000
vt 0.021484 0.500000
vt 0.025391 0.500000
vt 0.029297 0.500000
vt 0.033203 0.500000
vt 0.037109 0.500000
vt 0.041016 0.500000
vn 0.0 -1.0 0.0
vn 0.0 1.0 0.0
vn 0.0 0.0 1.0
vn 0.0 0.0 -1.0
vn -1.0 0.0 0.0
vn 1.0 0.0 0.0
usemtl mat_Boss_Boss_Bahamon_fase_1
s off
f 1/1/1 2/1/1 3/1/1 4/1/1
f 1/1/3 4/1/3 5/1/3 6/1/3
f 1/1/5 6/1/5 7/1/5 2/1/5
f 6/2/3 5/2/3 8/2/3 9/2/3
f 6/2/5 9/2/5 10/2/5 7/2/5
f 9/2/3 8/2/3 11/2/3 12/2/3
f 9/2/5 12/2/5 13/2/5 10/2/5
f 12/1/3 11/1/3 14/1/3 15/1/3
f 12/1/5 15/1/5 16/1/5 13/1/5
f 15/1/3 14/1/3 17/1/3 18/1/3
f 15/1/5 18/1/5 19/1/5 16/1/5
f 18/3/3 17/3/3 20/3/3 21/3/3
f 18/3/5 21/3/5 22/3/5 19/3/5
f 21/3/3 20/3/3 23/3/3 24/3/3
f 21/3/5 24/3/5 25/3/5 22/3/5
f 24/3/3 23/3/3 26/3/3 27/3/3
f 24/3/5 27/3/5 28/3/5 25/3/5
f 29/3/2 30/3/2 31/3/2 32/3/2
f 27/3/3 26/3/3 30/3/3 29/3/3
f 27/3/5 29/3/5 32/3/5 28/3/5
f 2/2/1 33/2/1 34/2/1 3/2/1
f 2/2/5 7/2/5 35/2/5 33/2/5
f 7/2/5 10/2/5 36/2/5 35/2/5
f 10/2/5 13/2/5 37/2/5 36/2/5
f 13/2/5 16/2/5 38/2/5 37/2/5
f 16/2/5 19/2/5 39/2/5 38/2/5
f 19/3/5 22/3/5 40/3/5 39/3/5
f 22/3/5 25/3/5 41/3/5 40/3/5
f 25/3/5 28/3/5 42/3/5 41/3/5
f 32/3/2 31/3/2 43/3/2 44/3/2
f 28/3/5 32/3/5 44/3/5 42/3/5
f 45/1/1 46/1/1 47/1/1 48/1/1
f 45/1/3 48/1/3 49/1/3 50/1/3
f 45/1/5 50/1/5 51/1/5 46/1/5
f 50/2/3 49/2/3 52/2/3 53/2/3
f 50/2/5 53/2/5 54/2/5 51/2/5
f 53/2/3 52/2/3 55/2/3 56/2/3
f 53/2/5 56/2/5 57/2/5 54/2/5
f 58/1/2 59/1/2 60/1/2 61/1/2
f 56/1/3 55/1/3 59/1/3 58/1/3
f 56/1/5 58/1/5 61/1/5 57/1/5
f 33/2/1 62/2/1 63/2/1 34/2/1
f 62/2/4 64/2/4 65/2/4 63/2/4
f 33/2/5 35/2/5 64/2/5 62/2/5
f 64/2/4 66/2/4 67/2/4 65/2/4
f 35/2/5 36/2/5 66/2/5 64/2/5
f 66/2/4 68/2/4 69/2/4 67/2/4
f 36/2/5 37/2/5 68/2/5 66/2/5
f 68/2/4 70/2/4 71/2/4 69/2/4
f 37/2/5 38/2/5 70/2/5 68/2/5
f 70/1/4 72/1/4 73/1/4 71/1/4
f 38/1/5 39/1/5 72/1/5 70/1/5
f 72/3/4 74/3/4 75/3/4 73/3/4
f 39/3/5 40/3/5 74/3/5 72/3/5
f 74/3/4 76/3/4 77/3/4 75/3/4
f 40/3/5 41/3/5 76/3/5 74/3/5
f 76/3/4 78/3/4 79/3/4 77/3/4
f 41/3/5 42/3/5 78/3/5 76/3/5
f 44/3/2 43/3/2 80/3/2 81/3/2
f 78/3/4 81/3/4 80/3/4 79/3/4
f 42/3/5 44/3/5 81/3/5 78/3/5
f 46/1/1 82/1/1 83/1/1 47/1/1
f 82/1/4 84/1/4 85/1/4 83/1/4
f 46/1/5 51/1/5 84/1/5 82/1/5
f 84/1/4 86/1/4 87/1/4 85/1/4
f 51/1/5 54/1/5 86/1/5 84/1/5
f 86/1/4 88/1/4 89/1/4 87/1/4
f 54/1/5 57/1/5 88/1/5 86/1/5
f 61/1/2 60/1/2 90/1/2 91/1/2
f 88/1/4 91/1/4 90/1/4 89/1/4
f 57/1/5 61/1/5 91/1/5 88/1/5
f 92/4/1 93/4/1 94/4/1 95/4/1
f 92/4/3 95/4/3 96/4/3 97/4/3
f 92/4/5 97/4/5 98/4/5 93/4/5
f 99/4/2 100/4/2 101/4/2 102/4/2
f 97/4/3 96/4/3 100/4/3 99/4/3
f 97/4/5 99/4/5 102/4/5 98/4/5
f 103/4/1 104/4/1 105/4/1 106/4/1
f 103/4/3 106/4/3 107/4/3 108/4/3
f 103/4/5 108/4/5 109/4/5 104/4/5
f 110/4/2 111/4/2 112/4/2 113/4/2
f 108/4/3 107/4/3 111/4/3 110/4/3
f 108/4/5 110/4/5 113/4/5 109/4/5
f 4/2/1 3/2/1 114/2/1 115/2/1
f 4/2/3 115/2/3 116/2/3 5/2/3
f 5/1/3 116/1/3 117/1/3 8/1/3
f 8/1/3 117/1/3 118/1/3 11/1/3
f 11/2/3 118/2/3 119/2/3 14/2/3
f 14/1/3 119/1/3 120/1/3 17/1/3
f 17/3/3 120/3/3 121/3/3 20/3/3
f 20/3/3 121/3/3 122/3/3 23/3/3
f 23/3/3 122/3/3 123/3/3 26/3/3
f 30/3/2 124/3/2 125/3/2 31/3/2
f 26/3/3 123/3/3 124/3/3 30/3/3
f 93/4/1 126/4/1 127/4/1 94/4/1
f 93/4/5 98/4/5 128/4/5 126/4/5
f 102/4/2 101/4/2 129/4/2 130/4/2
f 98/4/5 102/4/5 130/4/5 128/4/5
f 131/4/1 132/4/1 133/4/1 134/4/1
f 131/4/3 134/4/3 135/4/3 136/4/3
f 131/4/5 136/4/5 137/4/5 132/4/5
f 136/4/3 135/4/3 138/4/3 139/4/3
f 136/4/5 139/4/5 48/4/5 137/4/5
f 139/4/3 138/4/3 140/4/3 141/4/3
f 139/4/5 141/4/5 49/4/5 48/4/5
f 141/4/3 140/4/3 142/4/3 143/4/3
f 141/4/5 143/4/5 52/4/5 49/4/5
f 143/4/3 142/4/3 144/4/3 145/4/3
f 143/4/5 145/4/5 55/4/5 52/4/5
f 145/4/3 144/4/3 146/4/3 147/4/3
f 145/4/5 147/4/5 59/4/5 55/4/5
f 147/4/3 146/4/3 105/4/3 104/4/3
f 147/4/5 104/4/5 148/4/5 59/4/5
f 104/4/5 109/4/5 149/4/5 148/4/5
f 113/4/2 112/4/2 150/4/2 151/4/2
f 109/4/5 113/4/5 151/4/5 149/4/5
f 3/1/1 34/1/1 152/1/1 114/1/1
f 31/3/2 125/3/2 153/3/2 43/3/2
f 154/4/1 155/4/1 156/4/1 157/4/1
f 154/4/3 157/4/3 127/4/3 126/4/3
f 155/4/4 158/4/4 159/4/4 156/4/4
f 154/4/5 126/4/5 158/4/5 155/4/5
f 126/4/5 128/4/5 160/4/5 158/4/5
f 128/4/5 130/4/5 161/4/5 160/4/5
f 130/4/3 129/4/3 133/4/3 132/4/3
f 130/4/5 132/4/5 162/4/5 161/4/5
f 132/4/5 137/4/5 163/4/5 162/4/5
f 137/4/5 48/4/5 47/4/5 163/4/5
f 59/4/5 148/4/5 164/4/5 60/4/5
f 148/4/5 149/4/5 165/4/5 164/4/5
f 151/4/2 150/4/2 166/4/2 167/4/2
f 149/4/5 151/4/5 167/4/5 165/4/5
f 34/1/1 63/1/1 168/1/1 152/1/1
f 63/1/4 65/1/4 169/1/4 168/1/4
f 65/1/4 67/1/4 170/1/4 169/1/4
f 67/1/4 69/1/4 171/1/4 170/1/4
f 69/1/4 71/1/4 172/1/4 171/1/4
f 71/2/4 73/2/4 173/2/4 172/2/4
f 73/3/4 75/3/4 174/3/4 173/3/4
f 75/3/4 77/3/4 175/3/4 174/3/4
f 77/3/4 79/3/4 176/3/4 175/3/4
f 43/3/2 153/3/2 177/3/2 80/3/2
f 79/3/4 80/3/4 177/3/4 176/3/4
f 158/4/1 178/4/1 179/4/1 159/4/1
f 158/4/5 160/4/5 180/4/5 178/4/5
f 160/4/5 161/4/5 181/4/5 180/4/5
f 161/4/5 162/4/5 182/4/5 181/4/5
f 162/4/5 163/4/5 183/4/5 182/4/5
f 163/4/5 47/4/5 83/4/5 183/4/5
f 60/4/5 164/4/5 184/4/5 90/4/5
f 164/4/5 165/4/5 185/4/5 184/4/5
f 167/4/2 166/4/2 186/4/2 187/4/2
f 165/4/5 167/4/5 187/4/5 185/4/5
f 178/4/1 188/4/1 189/4/1 179/4/1
f 188/4/4 190/4/4 191/4/4 189/4/4
f 178/4/5 180/4/5 190/4/5 188/4/5
f 190/4/4 192/4/4 193/4/4 191/4/4
f 180/4/5 181/4/5 192/4/5 190/4/5
f 192/4/4 194/4/4 195/4/4 193/4/4
f 181/4/5 182/4/5 194/4/5 192/4/5
f 182/4/5 183/4/5 196/4/5 194/4/5
f 183/4/5 83/4/5 197/4/5 196/4/5
f 83/4/5 85/4/5 198/4/5 197/4/5
f 85/4/5 87/4/5 199/4/5 198/4/5
f 87/4/5 89/4/5 200/4/5 199/4/5
f 89/4/5 90/4/5 201/4/5 200/4/5
f 90/4/5 184/4/5 202/4/5 201/4/5
f 184/4/5 185/4/5 203/4/5 202/4/5
f 187/4/2 186/4/2 204/4/2 205/4/2
f 185/4/5 187/4/5 205/4/5 203/4/5
f 194/4/1 206/4/1 207/4/1 195/4/1
f 206/4/4 208/4/4 209/4/4 207/4/4
f 194/4/5 196/4/5 208/4/5 206/4/5
f 208/4/4 210/4/4 211/4/4 209/4/4
f 196/4/5 197/4/5 210/4/5 208/4/5
f 197/4/5 198/4/5 212/4/5 210/4/5
f 198/4/5 199/4/5 213/4/5 212/4/5
f 199/4/5 200/4/5 214/4/5 213/4/5
f 214/4/4 215/4/4 216/4/4 217/4/4
f 200/4/5 201/4/5 215/4/5 214/4/5
f 215/4/4 218/4/4 219/4/4 216/4/4
f 201/4/5 202/4/5 218/4/5 215/4/5
f 218/4/4 220/4/4 221/4/4 219/4/4
f 202/4/5 203/4/5 220/4/5 218/4/5
f 205/4/2 204/4/2 222/4/2 223/4/2
f 220/4/4 223/4/4 222/4/4 221/4/4
f 203/4/5 205/4/5 223/4/5 220/4/5
f 210/4/1 224/4/1 225/4/1 211/4/1
f 224/4/4 226/4/4 227/4/4 225/4/4
f 211/4/6 225/4/6 227/4/6 228/4/6
f 210/4/5 212/4/5 226/4/5 224/4/5
f 226/4/4 229/4/4 230/4/4 227/4/4
f 228/4/6 227/4/6 230/4/6 231/4/6
f 212/4/5 213/4/5 229/4/5 226/4/5
f 214/4/2 217/4/2 232/4/2 233/4/2
f 229/4/4 233/4/4 232/4/4 230/4/4
f 231/4/6 230/4/6 232/4/6 217/4/6
f 213/4/5 214/4/5 233/4/5 229/4/5
f 234/5/2 235/5/2 236/5/2 237/5/2
f 238/5/1 239/5/1 240/5/1 241/5/1
f 238/5/3 241/5/3 235/5/3 234/5/3
f 238/5/5 234/5/5 237/5/5 239/5/5
f 242/4/1 243/4/1 244/4/1 245/4/1
f 242/4/3 245/4/3 246/4/3 247/4/3
f 242/4/5 247/4/5 248/4/5 243/4/5
f 247/4/3 246/4/3 249/4/3 250/4/3
f 247/4/5 250/4/5 95/4/5 248/4/5
f 250/4/3 249/4/3 251/4/3 252/4/3
f 250/4/5 252/4/5 96/4/5 95/4/5
f 253/4/2 254/4/2 255/4/2 100/4/2
f 252/4/3 251/4/3 254/4/3 253/4/3
f 252/4/5 253/4/5 100/4/5 96/4/5
f 239/5/1 256/5/1 257/5/1 240/5/1
f 239/5/5 237/5/5 258/5/5 256/5/5
f 237/6/3 236/6/3 259/6/3 260/6/3
f 237/6/5 260/6/5 261/6/5 258/6/5
f 260/6/3 259/6/3 262/6/3 263/6/3
f 260/6/5 263/6/5 264/6/5 261/6/5
f 263/6/3 262/6/3 265/6/3 266/6/3
f 263/6/5 266/6/5 115/6/5 264/6/5
f 266/6/3 265/6/3 267/6/3 268/6/3
f 266/6/5 268/6/5 116/6/5 115/6/5
f 268/6/3 267/6/3 269/6/3 270/6/3
f 268/6/5 270/6/5 117/6/5 116/6/5
f 270/3/3 269/3/3 271/3/3 272/3/3
f 270/3/5 272/3/5 118/3/5 117/3/5
f 272/3/3 271/3/3 273/3/3 274/3/3
f 272/3/5 274/3/5 119/3/5 118/3/5
f 274/3/3 273/3/3 275/3/3 276/3/3
f 274/3/5 276/3/5 120/3/5 119/3/5
f 276/3/3 275/3/3 277/3/3 278/3/3
f 276/3/5 278/3/5 121/3/5 120/3/5
f 278/3/3 277/3/3 279/3/3 280/3/3
f 278/3/5 280/3/5 122/3/5 121/3/5
f 280/3/3 279/3/3 281/3/3 282/3/3
f 280/3/5 282/3/5 123/3/5 122/3/5
f 283/3/2 284/3/2 285/3/2 124/3/2
f 282/3/3 281/3/3 284/3/3 283/3/3
f 282/3/5 283/3/5 124/3/5 123/3/5
f 243/4/1 286/4/1 287/4/1 244/4/1
f 243/4/5 248/4/5 288/4/5 286/4/5
f 248/4/5 95/4/5 94/4/5 288/4/5
f 100/1/3 255/1/3 289/1/3 290/1/3
f 100/1/5 290/1/5 134/1/5 101/1/5
f 290/1/3 289/1/3 291/1/3 292/1/3
f 290/1/5 292/1/5 135/1/5 134/1/5
f 292/1/3 291/1/3 293/1/3 294/1/3
f 292/1/5 294/1/5 138/1/5 135/1/5
f 294/1/3 293/1/3 295/1/3 296/1/3
f 294/1/5 296/1/5 140/1/5 138/1/5
f 296/1/3 295/1/3 297/1/3 298/1/3
f 296/1/5 298/1/5 142/1/5 140/1/5
f 298/1/3 297/1/3 299/1/3 300/1/3
f 298/1/5 300/1/5 144/1/5 142/1/5
f 300/1/3 299/1/3 301/1/3 302/1/3
f 300/1/5 302/1/5 146/1/5 144/1/5
f 302/1/3 301/1/3 303/1/3 106/1/3
f 302/1/5 106/1/5 105/1/5 146/1/5
f 106/1/3 303/1/3 304/1/3 107/1/3
f 111/1/2 305/1/2 306/1/2 112/1/2
f 107/1/3 304/1/3 305/1/3 111/1/3
f 256/5/1 307/5/1 308/5/1 257/5/1
f 256/5/5 258/5/5 309/5/5 307/5/5
f 258/6/5 261/6/5 310/6/5 309/6/5
f 261/6/5 264/6/5 311/6/5 310/6/5
f 264/6/5 115/6/5 114/6/5 311/6/5
f 124/3/2 285/3/2 312/3/2 125/3/2
f 286/4/1 313/4/1 314/4/1 287/4/1
f 286/4/5 288/4/5 157/4/5 313/4/5
f 288/4/5 94/4/5 127/4/5 157/4/5
f 101/1/5 134/1/5 133/1/5 129/1/5
f 112/2/2 306/2/2 315/2/2 150/2/2
f 307/5/1 316/5/1 317/5/1 308/5/1
f 307/5/5 309/5/5 318/5/5 316/5/5
f 309/6/5 310/6/5 319/6/5 318/6/5
f 310/6/5 311/6/5 320/6/5 319/6/5
f 311/6/5 114/6/5 152/6/5 320/6/5
f 125/3/2 312/3/2 321/3/2 153/3/2
f 313/4/1 322/4/1 323/4/1 314/4/1
f 322/4/4 156/4/4 324/4/4 323/4/4
f 313/4/5 157/4/5 156/4/5 322/4/5
f 156/4/4 159/4/4 325/4/4 324/4/4
f 326/4/2 327/4/2 328/4/2 329/4/2
f 150/4/3 315/4/3 327/4/3 326/4/3
f 150/4/5 326/4/5 329/4/5 166/4/5
f 316/5/1 330/5/1 331/5/1 317/5/1
f 316/5/5 318/5/5 332/5/5 330/5/5
f 318/6/5 319/6/5 333/6/5 332/6/5
f 319/6/5 320/6/5 334/6/5 333/6/5
f 320/6/5 152/6/5 168/6/5 334/6/5
f 153/3/2 321/3/2 335/3/2 177/3/2
f 159/1/1 179/1/1 336/1/1 325/1/1
f 329/4/2 328/4/2 337/4/2 338/4/2
f 166/4/5 329/4/5 338/4/5 186/4/5
f 330/5/1 339/5/1 340/5/1 331/5/1
f 339/5/4 341/5/4 342/5/4 340/5/4
f 330/5/5 332/5/5 341/5/5 339/5/5
f 341/6/4 343/6/4 344/6/4 342/6/4
f 332/6/5 333/6/5 343/6/5 341/6/5
f 343/6/4 345/6/4 346/6/4 344/6/4
f 333/6/5 334/6/5 345/6/5 343/6/5
f 345/6/4 347/6/4 348/6/4 346/6/4
f 334/6/5 168/6/5 347/6/5 345/6/5
f 347/6/4 349/6/4 350/6/4 348/6/4
f 168/6/5 169/6/5 349/6/5 347/6/5
f 349/6/4 351/6/4 352/6/4 350/6/4
f 169/6/5 170/6/5 351/6/5 349/6/5
f 351/3/4 353/3/4 354/3/4 352/3/4
f 170/3/5 171/3/5 353/3/5 351/3/5
f 353/3/4 355/3/4 356/3/4 354/3/4
f 171/3/5 172/3/5 355/3/5 353/3/5
f 355/3/4 357/3/4 358/3/4 356/3/4
f 172/3/5 173/3/5 357/3/5 355/3/5
f 357/3/4 359/3/4 360/3/4 358/3/4
f 173/3/5 174/3/5 359/3/5 357/3/5
f 359/3/4 361/3/4 362/3/4 360/3/4
f 174/3/5 175/3/5 361/3/5 359/3/5
f 361/3/4 363/3/4 364/3/4 362/3/4
f 175/3/5 176/3/5 363/3/5 361/3/5
f 363/3/4 365/3/4 366/3/4 364/3/4
f 176/3/5 177/3/5 365/3/5 363/3/5
f 367/3/2 368/3/2 369/3/2 370/3/2
f 177/3/3 335/3/3 368/3/3 367/3/3
f 335/3/6 366/3/6 369/3/6 368/3/6
f 177/3/5 367/3/5 370/3/5 365/3/5
f 179/1/1 189/1/1 371/1/1 336/1/1
f 338/4/2 337/4/2 372/4/2 373/4/2
f 204/4/4 373/4/4 372/4/4 374/4/4
f 186/4/5 338/4/5 373/4/5 204/4/5
f 365/3/1 375/3/1 376/3/1 366/3/1
f 375/3/4 377/3/4 378/3/4 376/3/4
f 365/3/5 370/3/5 377/3/5 375/3/5
f 379/3/2 380/3/2 381/3/2 382/3/2
f 370/3/3 369/3/3 380/3/3 379/3/3
f 369/3/6 378/3/6 381/3/6 380/3/6
f 370/3/5 379/3/5 382/3/5 377/3/5
f 189/4/1 383/4/1 384/4/1 371/4/1
f 189/4/5 191/4/5 385/4/5 383/4/5
f 385/4/4 386/4/4 387/4/4 388/4/4
f 191/4/5 193/4/5 386/4/5 385/4/5
f 386/4/4 207/4/4 389/4/4 387/4/4
f 193/4/5 195/4/5 207/4/5 386/4/5
f 207/1/4 209/1/4 390/1/4 389/1/4
f 209/1/4 211/1/4 391/1/4 390/1/4
f 211/2/4 228/2/4 392/2/4 391/2/4
f 228/1/4 231/1/4 393/1/4 392/1/4
f 231/1/4 217/1/4 394/1/4 393/1/4
f 217/1/4 216/1/4 395/1/4 394/1/4
f 216/1/4 219/1/4 396/1/4 395/1/4
f 219/1/4 221/1/4 397/1/4 396/1/4
f 204/1/2 374/1/2 398/1/2 222/1/2
f 221/1/4 222/1/4 398/1/4 397/1/4
f 382/3/2 381/3/2 399/3/2 400/3/2
f 377/3/1 401/3/1 402/3/1 378/3/1
f 401/3/4 400/3/4 399/3/4 402/3/4
f 377/3/5 382/3/5 400/3/5 401/3/5
f 385/4/2 388/4/2 403/4/2 404/4/2
f 383/4/1 405/4/1 406/4/1 384/4/1
f 405/4/4 404/4/4 403/4/4 406/4/4
f 384/4/6 406/4/6 403/4/6 388/4/6
f 383/4/5 385/4/5 404/4/5 405/4/5
f 407/4/2 408/4/2 409/4/2 245/4/2
f 410/4/1 411/4/1 412/4/1 413/4/1
f 410/4/3 413/4/3 408/4/3 407/4/3
f 410/4/5 407/4/5 245/4/5 411/4/5
f 235/5/2 414/5/2 415/5/2 236/5/2
f 241/5/1 240/5/1 416/5/1 417/5/1
f 241/5/3 417/5/3 414/5/3 235/5/3
f 411/3/1 284/3/1 418/3/1 412/3/1
f 411/3/5 245/3/5 244/3/5 284/3/5
f 245/4/3 409/4/3 419/4/3 246/4/3
f 246/4/3 419/4/3 420/4/3 249/4/3
f 249/4/3 420/4/3 421/4/3 251/4/3
f 254/4/2 422/4/2 423/4/2 255/4/2
f 251/4/3 421/4/3 422/4/3 254/4/3
f 424/4/2 425/4/2 426/4/2 301/4/2
f 427/4/1 299/4/1 428/4/1 429/4/1
f 427/4/3 429/4/3 425/4/3 424/4/3
f 427/4/5 424/4/5 301/4/5 299/4/5
f 240/5/1 257/5/1 430/5/1 416/5/1
f 236/6/3 415/6/3 431/6/3 259/6/3
f 259/6/3 431/6/3 432/6/3 262/6/3
f 262/6/3 432/6/3 433/6/3 265/6/3
f 265/6/3 433/6/3 434/6/3 267/6/3
f 267/6/3 434/6/3 435/6/3 269/6/3
f 269/3/3 435/3/3 436/3/3 271/3/3
f 271/3/3 436/3/3 437/3/3 273/3/3
f 273/3/3 437/3/3 438/3/3 275/3/3
f 275/3/3 438/3/3 439/3/3 277/3/3
f 277/3/3 439/3/3 440/3/3 279/3/3
f 279/3/3 440/3/3 441/3/3 281/3/3
f 281/3/3 441/3/3 418/3/3 284/3/3
f 285/3/4 287/3/4 442/3/4 443/3/4
f 284/3/5 244/3/5 287/3/5 285/3/5
f 255/1/3 423/1/3 444/1/3 289/1/3
f 289/1/3 444/1/3 445/1/3 291/1/3
f 291/1/3 445/1/3 446/1/3 293/1/3
f 293/7/3 446/7/3 447/7/3 295/7/3
f 295/7/3 447/7/3 448/7/3 297/7/3
f 297/7/3 448/7/3 428/7/3 299/7/3
f 301/1/3 426/1/3 449/1/3 303/1/3
f 303/1/3 449/1/3 450/1/3 304/1/3
f 304/1/3 450/1/3 451/1/3 305/1/3
f 305/1/3 451/1/3 452/1/3 453/1/3
f 305/1/5 453/1/5 454/1/5 306/1/5
f 455/4/2 456/4/2 457/4/2 458/4/2
f 453/4/3 452/4/3 456/4/3 455/4/3
f 453/4/5 455/4/5 458/4/5 454/4/5
f 257/5/1 308/5/1 459/5/1 430/5/1
f 285/3/2 443/3/2 460/3/2 312/3/2
f 287/1/1 314/1/1 461/1/1 442/1/1
f 306/1/5 454/1/5 327/1/5 315/1/5
f 458/4/2 457/4/2 462/4/2 463/4/2
f 327/4/4 463/4/4 462/4/4 464/4/4
f 454/4/5 458/4/5 463/4/5 327/4/5
f 308/5/1 317/5/1 465/5/1 459/5/1
f 312/3/2 460/3/2 466/3/2 321/3/2
f 314/1/1 323/1/1 467/1/1 461/1/1
f 327/1/2 464/1/2 468/1/2 328/1/2
f 317/5/1 331/5/1 469/5/1 465/5/1
f 321/3/2 466/3/2 470/3/2 335/3/2
f 323/1/1 368/1/1 471/1/1 467/1/1
f 323/1/5 324/1/5 472/1/5 368/1/5
f 324/1/5 325/1/5 336/1/5 472/1/5
f 328/1/2 468/1/2 473/1/2 337/1/2
f 331/5/1 340/5/1 474/5/1 469/5/1
f 340/5/4 342/5/4 475/5/4 474/5/4
f 342/6/4 344/6/4 476/6/4 475/6/4
f 344/6/4 346/6/4 477/6/4 476/6/4
f 346/6/4 348/6/4 478/6/4 477/6/4
f 348/6/4 350/6/4 479/6/4 478/6/4
f 350/6/4 352/6/4 480/6/4 479/6/4
f 352/3/4 354/3/4 481/3/4 480/3/4
f 354/3/4 356/3/4 482/3/4 481/3/4
f 356/3/4 358/3/4 483/3/4 482/3/4
f 358/3/4 360/3/4 484/3/4 483/3/4
f 360/3/4 362/3/4 485/3/4 484/3/4
f 362/3/4 364/3/4 486/3/4 485/3/4
f 335/3/2 470/3/2 487/3/2 366/3/2
f 368/1/1 369/1/1 488/1/1 471/1/1
f 369/1/4 380/1/4 489/1/4 488/1/4
f 368/1/5 472/1/5 380/1/5 369/1/5
f 472/1/5 336/1/5 371/1/5 380/1/5
f 337/1/2 473/1/2 490/1/2 372/1/2
f 364/3/1 491/3/1 492/3/1 486/3/1
f 364/3/5 366/3/5 376/3/5 491/3/5
f 369/3/2 488/3/2 493/3/2 378/3/2
f 366/3/3 487/3/3 488/3/3 369/3/3
f 380/4/1 381/4/1 494/4/1 489/4/1
f 381/4/4 384/4/4 495/4/4 494/4/4
f 380/4/5 371/4/5 384/4/5 381/4/5
f 384/4/4 388/4/4 496/4/4 495/4/4
f 388/4/4 387/4/4 497/4/4 496/4/4
f 387/4/4 389/4/4 498/4/4 497/4/4
f 389/1/4 390/1/4 499/1/4 498/1/4
f 390/1/4 391/1/4 500/1/4 499/1/4
f 391/1/4 392/1/4 501/1/4 500/1/4
f 392/1/4 393/1/4 502/1/4 501/1/4
f 393/1/4 394/1/4 503/1/4 502/1/4
f 394/2/4 395/2/4 504/2/4 503/2/4
f 395/1/4 396/1/4 505/1/4 504/1/4
f 396/2/4 397/2/4 506/2/4 505/2/4
f 397/1/4 398/1/4 507/1/4 506/1/4
f 372/2/2 490/2/2 508/2/2 509/2/2
f 398/2/4 509/2/4 508/2/4 507/2/4
f 374/2/5 372/2/5 509/2/5 398/2/5
f 491/3/1 510/3/1 511/3/1 492/3/1
f 510/3/4 512/3/4 513/3/4 511/3/4
f 491/3/5 376/3/5 512/3/5 510/3/5
f 512/3/4 402/3/4 514/3/4 513/3/4
f 376/3/5 378/3/5 402/3/5 512/3/5
f 381/3/2 494/3/2 515/3/2 399/3/2
f 378/3/3 493/3/3 494/3/3 381/3/3
f 402/3/4 399/3/4 515/3/4 514/3/4
f 408/4/2 516/4/2 517/4/2 409/4/2
f 413/4/1 412/4/1 518/4/1 519/4/1
f 413/4/3 519/4/3 516/4/3 408/4/3
f 414/5/2 520/5/2 521/5/2 415/5/2
f 417/5/1 416/5/1 522/5/1 523/5/1
f 417/5/3 523/5/3 520/5/3 414/5/3
f 412/3/1 418/3/1 524/3/1 518/3/1
f 409/4/3 517/4/3 525/4/3 419/4/3
f 419/4/3 525/4/3 526/4/3 420/4/3
f 420/4/3 526/4/3 527/4/3 421/4/3
f 421/4/3 527/4/3 528/4/3 422/4/3
f 529/4/2 530/4/2 531/4/2 444/4/2
f 422/4/3 528/4/3 530/4/3 529/4/3
f 422/4/5 529/4/5 444/4/5 423/4/5
f 425/4/2 532/4/2 533/4/2 426/4/2
f 429/4/1 428/4/1 534/4/1 535/4/1
f 429/4/3 535/4/3 532/4/3 425/4/3
f 416/5/1 430/5/1 536/5/1 522/5/1
f 415/6/3 521/6/3 537/6/3 431/6/3
f 431/6/3 537/6/3 538/6/3 432/6/3
f 432/6/3 538/6/3 539/6/3 433/6/3
f 433/6/3 539/6/3 540/6/3 434/6/3
f 434/6/3 540/6/3 541/6/3 435/6/3
f 435/3/3 541/3/3 542/3/3 436/3/3
f 436/3/3 542/3/3 543/3/3 437/3/3
f 437/3/3 543/3/3 544/3/3 438/3/3
f 438/3/3 544/3/3 545/3/3 439/3/3
f 439/3/3 545/3/3 546/3/3 440/3/3
f 440/3/3 546/3/3 547/3/3 441/3/3
f 441/3/3 547/3/3 524/3/3 418/3/3
f 444/1/3 531/1/3 548/1/3 445/1/3
f 445/1/3 548/1/3 549/1/3 446/1/3
f 446/9/3 549/9/3 550/9/3 447/9/3
f 447/9/3 550/9/3 551/9/3 448/9/3
f 448/7/3 551/7/3 534/7/3 428/7/3
f 426/1/3 533/1/3 552/1/3 449/1/3
f 449/1/3 552/1/3 553/1/3 450/1/3
f 450/1/3 553/1/3 554/1/3 451/1/3
f 451/1/3 554/1/3 555/1/3 452/1/3
f 456/1/2 556/1/2 557/1/2 457/1/2
f 452/1/3 555/1/3 556/1/3 456/1/3
f 430/5/1 459/5/1 558/5/1 536/5/1
f 460/4/4 461/4/4 559/4/4 560/4/4
f 443/4/5 442/4/5 461/4/5 460/4/5
f 457/1/2 557/1/2 561/1/2 462/1/2
f 459/5/1 465/5/1 562/5/1 558/5/1
f 460/3/2 560/3/2 563/3/2 466/3/2
f 461/1/1 467/1/1 564/1/1 559/1/1
f 462/2/2 561/2/2 565/2/2 566/2/2
f 464/2/5 462/2/5 566/2/5 468/2/5
f 465/5/1 469/5/1 567/5/1 562/5/1
f 466/3/2 563/3/2 568/3/2 470/3/2
f 467/1/1 471/1/1 569/1/1 564/1/1
f 566/1/2 565/1/2 570/1/2 571/1/2
f 468/1/5 566/1/5 571/1/5 473/1/5
f 469/5/1 474/5/1 572/5/1 567/5/1
f 474/5/4 475/5/4 573/5/4 572/5/4
f 475/6/4 476/6/4 574/6/4 573/6/4
f 476/6/4 477/6/4 575/6/4 574/6/4
f 477/6/4 478/6/4 576/6/4 575/6/4
f 478/6/4 479/6/4 577/6/4 576/6/4
f 479/6/4 480/6/4 578/6/4 577/6/4
f 480/3/4 481/3/4 579/3/4 578/3/4
f 481/3/4 482/3/4 580/3/4 579/3/4
f 482/3/4 483/3/4 581/3/4 580/3/4
f 483/3/4 484/3/4 582/3/4 581/3/4
f 484/3/4 485/3/4 583/3/4 582/3/4
f 485/3/4 486/3/4 584/3/4 583/3/4
f 470/3/3 568/3/3 569/3/3 471/3/3
f 470/3/5 471/3/5 488/3/5 487/3/5
f 488/1/4 489/1/4 585/1/4 586/1/4
f 571/2/2 570/2/2 587/2/2 588/2/2
f 473/2/5 571/2/5 588/2/5 490/2/5
f 486/3/1 492/3/1 589/3/1 584/3/1
f 488/3/2 586/3/2 590/3/2 493/3/2
f 489/4/1 494/4/1 591/4/1 585/4/1
f 494/4/4 495/4/4 592/4/4 591/4/4
f 497/4/4 498/4/4 593/4/4 594/4/4
f 498/2/4 499/2/4 595/2/4 593/2/4
f 499/1/4 500/1/4 596/1/4 595/1/4
f 500/1/4 501/1/4 597/1/4 596/1/4
f 501/1/4 502/1/4 598/1/4 597/1/4
f 502/1/4 503/1/4 599/1/4 598/1/4
f 503/1/4 504/1/4 600/1/4 599/1/4
f 504/1/4 505/1/4 601/1/4 600/1/4
f 505/1/4 506/1/4 602/1/4 601/1/4
f 506/1/4 507/1/4 603/1/4 602/1/4
f 507/1/4 508/1/4 604/1/4 603/1/4
f 588/2/2 587/2/2 605/2/2 606/2/2
f 508/2/4 606/2/4 605/2/4 604/2/4
f 490/2/5 588/2/5 606/2/5 508/2/5
f 492/3/1 511/3/1 607/3/1 589/3/1
f 511/3/4 513/3/4 608/3/4 607/3/4
f 513/3/4 514/3/4 609/3/4 608/3/4
f 494/3/2 591/3/2 610/3/2 515/3/2
f 493/3/3 590/3/3 591/3/3 494/3/3
f 514/3/4 515/3/4 610/3/4 609/3/4
f 495/4/1 611/4/1 612/4/1 592/4/1
f 611/4/4 613/4/4 614/4/4 612/4/4
f 495/4/5 496/4/5 613/4/5 611/4/5
f 497/4/2 594/4/2 615/4/2 616/4/2
f 613/4/4 616/4/4 615/4/4 614/4/4
f 617/4/6 614/4/6 615/4/6 594/4/6
f 496/4/5 497/4/5 616/4/5 613/4/5
f 519/4/1 518/4/1 618/4/1 619/4/1
f 519/4/3 619/4/3 620/4/3 516/4/3
f 621/4/2 622/4/2 623/4/2 525/4/2
f 516/4/3 620/4/3 622/4/3 621/4/3
f 516/4/5 621/4/5 525/4/5 517/4/5
f 520/5/2 624/5/2 625/5/2 521/5/2
f 523/5/1 522/5/1 626/5/1 627/5/1
f 523/5/3 627/5/3 624/5/3 520/5/3
f 627/5/6 626/5/6 625/5/6 624/5/6
f 518/3/1 524/3/1 628/3/1 618/3/1
f 525/1/3 623/1/3 629/1/3 526/1/3
f 526/1/3 629/1/3 630/1/3 527/1/3
f 629/1/6 631/1/6 632/1/6 630/1/6
f 527/1/3 630/1/3 633/1/3 528/1/3
f 530/4/2 634/4/2 635/4/2 531/4/2
f 528/4/3 633/4/3 634/4/3 530/4/3
f 532/4/2 636/4/2 637/4/2 533/4/2
f 535/4/1 534/4/1 638/4/1 639/4/1
f 535/4/3 639/4/3 636/4/3 532/4/3
f 639/4/6 638/4/6 637/4/6 636/4/6
f 522/5/1 536/5/1 640/5/1 626/5/1
f 626/5/6 640/5/6 641/5/6 625/5/6
f 521/6/3 625/6/3 642/6/3 537/6/3
f 625/6/6 641/6/6 643/6/6 642/6/6
f 537/6/3 642/6/3 644/6/3 538/6/3
f 642/6/6 643/6/6 645/6/6 644/6/6
f 538/6/3 644/6/3 646/6/3 539/6/3
f 539/6/3 646/6/3 647/6/3 540/6/3
f 540/6/3 647/6/3 648/6/3 541/6/3
f 541/3/3 648/3/3 649/3/3 542/3/3
f 542/3/3 649/3/3 650/3/3 543/3/3
f 543/3/3 650/3/3 651/3/3 544/3/3
f 544/3/3 651/3/3 652/3/3 545/3/3
f 545/3/3 652/3/3 653/3/3 546/3/3
f 546/3/3 653/3/3 654/3/3 547/3/3
f 547/3/3 654/3/3 628/3/3 524/3/3
f 531/1/3 635/1/3 655/1/3 548/1/3
f 548/1/3 655/1/3 656/1/3 549/1/3
f 549/10/3 656/10/3 657/10/3 550/10/3
f 550/10/3 657/10/3 658/10/3 551/10/3
f 551/7/3 658/7/3 638/7/3 534/7/3
f 533/1/3 637/1/3 659/1/3 552/1/3
f 552/1/3 659/1/3 660/1/3 553/1/3
f 553/1/3 660/1/3 661/1/3 554/1/3
f 554/1/3 661/1/3 662/1/3 555/1/3
f 555/1/3 662/1/3 663/1/3 556/1/3
f 664/4/2 665/4/2 666/4/2 667/4/2
f 556/4/3 663/4/3 665/4/3 664/4/3
f 556/4/5 664/4/5 667/4/5 557/4/5
f 536/5/1 558/5/1 668/5/1 640/5/1
f 640/5/6 668/5/6 669/5/6 641/5/6
f 641/6/6 669/6/6 670/6/6 643/6/6
f 643/6/6 670/6/6 671/6/6 645/6/6
f 667/4/2 666/4/2 672/4/2 673/4/2
f 557/4/5 667/4/5 673/4/5 561/4/5
f 558/5/1 562/5/1 674/5/1 668/5/1
f 668/5/6 674/5/6 675/5/6 669/5/6
f 669/6/6 675/6/6 676/6/6 670/6/6
f 670/6/6 676/6/6 677/6/6 671/6/6
f 560/1/5 559/1/5 564/1/5 563/1/5
f 673/4/2 672/4/2 678/4/2 679/4/2
f 561/4/5 673/4/5 679/4/5 565/4/5
f 562/5/1 567/5/1 680/5/1 674/5/1
f 674/5/6 680/5/6 681/5/6 675/5/6
f 675/6/6 681/6/6 682/6/6 676/6/6
f 676/6/6 682/6/6 683/6/6 677/6/6
f 563/1/5 564/1/5 569/1/5 568/1/5
f 679/4/2 678/4/2 684/4/2 685/4/2
f 565/4/5 679/4/5 685/4/5 570/4/5
f 567/5/1 572/5/1 686/5/1 680/5/1
f 572/5/4 573/5/4 687/5/4 686/5/4
f 680/5/6 686/5/6 687/5/6 681/5/6
f 573/6/4 574/6/4 688/6/4 687/6/4
f 681/6/6 687/6/6 688/6/6 682/6/6
f 574/6/4 575/6/4 689/6/4 688/6/4
f 682/6/6 688/6/6 689/6/6 683/6/6
f 575/6/4 576/6/4 690/6/4 689/6/4
f 576/6/4 577/6/4 691/6/4 690/6/4
f 577/6/4 578/6/4 692/6/4 691/6/4
f 578/3/4 579/3/4 693/3/4 692/3/4
f 579/3/4 580/3/4 694/3/4 693/3/4
f 580/3/4 581/3/4 695/3/4 694/3/4
f 581/3/4 582/3/4 696/3/4 695/3/4
f 582/3/4 583/3/4 697/3/4 696/3/4
f 583/3/4 584/3/4 698/3/4 697/3/4
f 685/4/2 684/4/2 699/4/2 700/4/2
f 570/4/5 685/4/5 700/4/5 587/4/5
f 584/3/1 589/3/1 701/3/1 698/3/1
f 702/4/6 703/4/6 704/4/6 705/4/6
f 586/4/5 585/4/5 591/4/5 590/4/5
f 591/4/4 592/4/4 706/4/4 704/4/4
f 617/4/4 594/4/4 707/4/4 708/4/4
f 594/4/4 593/4/4 709/4/4 707/4/4
f 593/1/4 595/1/4 710/1/4 709/1/4
f 595/1/4 596/1/4 711/1/4 710/1/4
f 596/1/4 597/1/4 712/1/4 711/1/4
f 598/1/4 599/1/4 713/1/4 714/1/4
f 599/1/4 600/1/4 715/1/4 713/1/4
f 600/2/4 601/2/4 716/2/4 715/2/4
f 601/1/4 602/1/4 717/1/4 716/1/4
f 602/1/4 603/1/4 718/1/4 717/1/4
f 603/2/4 604/2/4 719/2/4 718/2/4
f 700/4/2 699/4/2 720/4/2 721/4/2
f 605/4/4 721/4/4 720/4/4 722/4/4
f 587/4/5 700/4/5 721/4/5 605/4/5
f 589/3/1 607/3/1 723/3/1 701/3/1
f 607/3/4 608/3/4 724/3/4 723/3/4
f 608/3/4 609/3/4 725/3/4 724/3/4
f 591/3/2 704/3/2 726/3/2 610/3/2
f 609/3/4 610/3/4 726/3/4 725/3/4
f 617/4/2 708/4/2 727/4/2 614/4/2
f 592/4/1 612/4/1 728/4/1 706/4/1
f 612/4/4 614/4/4 727/4/4 728/4/4
f 706/4/6 728/4/6 727/4/6 708/4/6
f 598/4/2 714/4/2 729/4/2 730/4/2
f 597/4/1 731/4/1 732/4/1 712/4/1
f 731/4/4 730/4/4 729/4/4 732/4/4
f 712/4/6 732/4/6 729/4/6 714/4/6
f 597/4/5 598/4/5 730/4/5 731/4/5
f 605/4/2 722/4/2 733/4/2 734/4/2
f 604/4/1 735/4/1 736/4/1 719/4/1
f 735/4/4 734/4/4 733/4/4 736/4/4
f 604/4/5 605/4/5 734/4/5 735/4/5
f 619/4/1 618/4/1 737/4/1 738/4/1
f 619/4/3 738/4/3 739/4/3 620/4/3
f 622/4/2 740/4/2 741/4/2 623/4/2
f 620/4/3 739/4/3 740/4/3 622/4/3
f 742/11/1 634/11/1 743/11/1 744/11/1
f 742/11/3 744/11/3 745/11/3 746/11/3
f 742/11/5 746/11/5 747/11/5 634/11/5
f 748/11/2 749/11/2 750/11/2 751/11/2
f 746/11/3 745/11/3 749/11/3 748/11/3
f 746/11/5 748/11/5 751/11/5 747/11/5
f 618/3/1 628/3/1 752/3/1 737/3/1
f 629/1/2 753/1/2 754/1/2 631/1/2
f 623/1/3 741/1/3 753/1/3 629/1/3
f 630/1/1 632/1/1 755/1/1 756/1/1
f 630/1/3 756/1/3 757/1/3 633/1/3
f 633/4/3 757/4/3 743/4/3 634/4/3
f 634/11/5 747/11/5 655/11/5 635/11/5
f 751/11/2 750/11/2 758/11/2 656/11/2
f 747/11/5 751/11/5 656/11/5 655/11/5
f 644/6/1 645/6/1 759/6/1 760/6/1
f 644/6/3 760/6/3 761/6/3 646/6/3
f 646/6/3 761/6/3 762/6/3 647/6/3
f 647/6/3 762/6/3 763/6/3 648/6/3
f 648/3/3 763/3/3 764/3/3 649/3/3
f 649/3/3 764/3/3 765/3/3 650/3/3
f 650/3/3 765/3/3 766/3/3 651/3/3
f 651/3/3 766/3/3 767/3/3 652/3/3
f 652/3/3 767/3/3 768/3/3 653/3/3
f 653/3/3 768/3/3 769/3/3 654/3/3
f 654/3/3 769/3/3 752/3/3 628/3/3
f 631/11/3 754/11/3 755/11/3 632/11/3
f 656/1/3 758/1/3 770/1/3 657/1/3
f 657/1/3 770/1/3 771/1/3 658/1/3
f 658/1/3 771/1/3 772/1/3 638/1/3
f 638/1/3 772/1/3 773/1/3 637/1/3
f 637/1/3 773/1/3 774/1/3 659/1/3
f 659/1/3 774/1/3 775/1/3 660/1/3
f 660/1/3 775/1/3 776/1/3 661/1/3
f 661/1/3 776/1/3 777/1/3 662/1/3
f 662/1/3 777/1/3 778/1/3 663/1/3
f 663/4/3 778/4/3 779/4/3 665/4/3
f 780/4/2 781/4/2 782/4/2 783/4/2
f 665/4/3 779/4/3 781/4/3 780/4/3
f 665/4/5 780/4/5 783/4/5 666/4/5
f 645/6/1 671/6/1 784/6/1 759/6/1
f 783/4/2 782/4/2 785/4/2 786/4/2
f 666/4/5 783/4/5 786/4/5 672/4/5
f 671/6/1 677/6/1 787/6/1 784/6/1
f 786/4/2 785/4/2 788/4/2 789/4/2
f 672/4/5 786/4/5 789/4/5 678/4/5
f 677/6/1 683/6/1 790/6/1 787/6/1
f 789/4/2 788/4/2 791/4/2 792/4/2
f 678/4/5 789/4/5 792/4/5 684/4/5
f 683/6/1 689/6/1 793/6/1 790/6/1
f 689/6/4 690/6/4 794/6/4 793/6/4
f 690/6/4 691/6/4 795/6/4 794/6/4
f 691/6/4 692/6/4 796/6/4 795/6/4
f 692/3/4 693/3/4 797/3/4 796/3/4
f 693/3/4 694/3/4 798/3/4 797/3/4
f 694/3/4 695/3/4 799/3/4 798/3/4
f 695/3/4 696/3/4 800/3/4 799/3/4
f 696/3/4 697/3/4 801/3/4 800/3/4
f 697/3/4 698/3/4 802/3/4 801/3/4
f 702/1/4 705/1/4 803/1/4 804/1/4
f 792/4/2 791/4/2 805/4/2 806/4/2
f 684/4/5 792/4/5 806/4/5 699/4/5
f 698/3/1 701/3/1 807/3/1 802/3/1
f 702/8/2 804/8/2 808/8/2 703/8/2
f 705/4/1 704/4/1 809/4/1 803/4/1
f 704/4/4 706/4/4 810/4/4 809/4/4
f 706/4/4 708/4/4 811/4/4 810/4/4
f 708/4/4 707/4/4 812/4/4 811/4/4
f 707/4/4 709/4/4 813/4/4 812/4/4
f 709/1/4 710/1/4 814/1/4 813/1/4
f 710/2/4 711/2/4 815/2/4 814/2/4
f 712/1/4 714/1/4 816/1/4 817/1/4
f 714/1/4 713/1/4 818/1/4 816/1/4
f 713/1/4 715/1/4 819/1/4 818/1/4
f 715/1/4 716/1/4 820/1/4 819/1/4
f 722/4/4 720/4/4 821/4/4 822/4/4
f 806/4/2 805/4/2 823/4/2 824/4/2
f 720/4/4 824/4/4 823/4/4 821/4/4
f 699/4/5 806/4/5 824/4/5 720/4/5
f 701/3/1 723/3/1 825/3/1 807/3/1
f 723/3/4 724/3/4 826/3/4 825/3/4
f 724/3/4 725/3/4 827/3/4 826/3/4
f 704/3/2 809/3/2 828/3/2 726/3/2
f 703/3/3 808/3/3 809/3/3 704/3/3
f 725/3/4 726/3/4 828/3/4 827/3/4
f 712/4/2 817/4/2 829/4/2 732/4/2
f 711/4/1 830/4/1 831/4/1 815/4/1
f 830/4/4 732/4/4 829/4/4 831/4/4
f 711/4/5 712/4/5 732/4/5 830/4/5
f 716/4/1 832/4/1 833/4/1 820/4/1
f 832/4/4 834/4/4 835/4/4 833/4/4
f 716/4/5 717/4/5 834/4/5 832/4/5
f 834/4/4 836/4/4 837/4/4 835/4/4
f 717/4/5 718/4/5 836/4/5 834/4/5
f 836/4/4 736/4/4 838/4/4 837/4/4
f 718/4/5 719/4/5 736/4/5 836/4/5
f 722/4/2 822/4/2 839/4/2 733/4/2
f 736/4/4 733/4/4 839/4/4 838/4/4
f 738/4/1 737/4/1 840/4/1 841/4/1
f 738/4/3 841/4/3 842/4/3 739/4/3
f 740/4/2 843/4/2 844/4/2 741/4/2
f 739/4/3 842/4/3 843/4/3 740/4/3
f 744/11/1 743/11/1 845/11/1 846/11/1
f 744/11/3 846/11/3 847/11/3 745/11/3
f 846/11/6 845/11/6 848/11/6 847/11/6
f 749/11/2 849/11/2 850/11/2 750/11/2
f 745/11/3 847/11/3 849/11/3 749/11/3
f 847/11/6 848/11/6 850/11/6 849/11/6
f 737/3/1 752/3/1 851/3/1 840/3/1
f 753/1/2 852/1/2 853/1/2 754/1/2
f 741/1/3 844/1/3 852/1/3 753/1/3
f 756/1/1 755/1/1 854/1/1 855/1/1
f 756/1/3 855/1/3 856/1/3 757/1/3
f 757/4/3 856/4/3 845/4/3 743/4/3
f 845/11/6 857/11/6 858/11/6 848/11/6
f 750/11/2 850/11/2 859/11/2 758/11/2
f 848/11/6 858/11/6 859/11/6 850/11/6
f 760/6/1 759/6/1 860/6/1 861/6/1
f 760/6/3 861/6/3 862/6/3 761/6/3
f 761/6/3 862/6/3 863/6/3 762/6/3
f 762/6/3 863/6/3 864/6/3 763/6/3
f 763/3/3 864/3/3 865/3/3 764/3/3
f 764/3/3 865/3/3 866/3/3 765/3/3
f 765/3/3 866/3/3 867/3/3 766/3/3
f 766/3/3 867/3/3 868/3/3 767/3/3
f 767/3/3 868/3/3 869/3/3 768/3/3
f 768/3/3 869/3/3 870/3/3 769/3/3
f 769/3/3 870/3/3 851/3/3 752/3/3
f 754/11/3 853/11/3 854/11/3 755/11/3
f 758/1/3 859/1/3 871/1/3 770/1/3
f 770/1/3 871/1/3 872/1/3 771/1/3
f 771/1/3 872/1/3 873/1/3 772/1/3
f 772/1/3 873/1/3 874/1/3 773/1/3
f 773/1/3 874/1/3 875/1/3 774/1/3
f 774/1/3 875/1/3 876/1/3 775/1/3
f 775/1/3 876/1/3 877/1/3 776/1/3
f 776/1/3 877/1/3 878/1/3 777/1/3
f 777/1/3 878/1/3 879/1/3 778/1/3
f 778/4/3 879/4/3 880/4/3 779/4/3
f 781/4/2 881/4/2 882/4/2 782/4/2
f 779/4/3 880/4/3 881/4/3 781/4/3
f 880/4/6 883/4/6 882/4/6 881/4/6
f 759/6/1 784/6/1 884/6/1 860/6/1
f 782/4/2 882/4/2 885/4/2 785/4/2
f 883/4/6 886/4/6 885/4/6 882/4/6
f 784/6/1 787/6/1 887/6/1 884/6/1
f 785/4/2 885/4/2 888/4/2 788/4/2
f 886/4/6 889/4/6 888/4/6 885/4/6
f 787/6/1 790/6/1 890/6/1 887/6/1
f 788/4/2 888/4/2 891/4/2 791/4/2
f 889/4/6 892/4/6 891/4/6 888/4/6
f 790/6/1 793/6/1 893/6/1 890/6/1
f 793/6/4 794/6/4 894/6/4 893/6/4
f 794/6/4 795/6/4 895/6/4 894/6/4
f 795/6/4 796/6/4 896/6/4 895/6/4
f 796/3/4 797/3/4 897/3/4 896/3/4
f 797/3/4 798/3/4 898/3/4 897/3/4
f 798/3/4 799/3/4 899/3/4 898/3/4
f 799/3/4 800/3/4 900/3/4 899/3/4
f 800/3/4 801/3/4 901/3/4 900/3/4
f 801/3/4 802/3/4 902/3/4 901/3/4
f 804/1/4 803/1/4 903/1/4 904/1/4
f 791/4/2 891/4/2 905/4/2 805/4/2
f 892/4/6 906/4/6 905/4/6 891/4/6
f 802/3/1 807/3/1 907/3/1 902/3/1
f 804/3/2 904/3/2 908/3/2 808/3/2
f 803/4/1 809/4/1 909/4/1 903/4/1
f 809/4/4 810/4/4 910/4/4 909/4/4
f 810/4/4 811/4/4 911/4/4 910/4/4
f 811/4/4 812/4/4 912/4/4 911/4/4
f 812/4/4 813/4/4 913/4/4 912/4/4
f 813/1/4 814/1/4 914/1/4 913/1/4
f 814/1/4 815/1/4 915/1/4 914/1/4
f 817/1/4 816/1/4 916/1/4 917/1/4
f 816/1/4 818/1/4 918/1/4 916/1/4
f 818/2/4 819/2/4 919/2/4 918/2/4
f 819/1/4 820/1/4 920/1/4 919/1/4
f 822/4/4 821/4/4 921/4/4 922/4/4
f 805/4/2 905/4/2 923/4/2 823/4/2
f 821/4/4 823/4/4 923/4/4 921/4/4
f 906/4/6 921/4/6 923/4/6 905/4/6
f 807/3/1 825/3/1 924/3/1 907/3/1
f 825/3/4 826/3/4 925/3/4 924/3/4
f 826/3/4 827/3/4 926/3/4 925/3/4
f 809/3/2 909/3/2 927/3/2 828/3/2
f 808/3/3 908/3/3 909/3/3 809/3/3
f 827/3/4 828/3/4 927/3/4 926/3/4
f 817/4/2 917/4/2 928/4/2 829/4/2
f 815/4/1 831/4/1 929/4/1 915/4/1
f 831/4/4 829/4/4 928/4/4 929/4/4
f 915/4/6 929/4/6 928/4/6 917/4/6
f 820/4/1 833/4/1 930/4/1 920/4/1
f 833/4/4 835/4/4 931/4/4 930/4/4
f 920/4/6 930/4/6 931/4/6 932/4/6
f 835/4/4 837/4/4 933/4/4 931/4/4
f 932/4/6 931/4/6 933/4/6 934/4/6
f 837/4/4 838/4/4 935/4/4 933/4/4
f 934/4/6 933/4/6 935/4/6 936/4/6
f 822/4/2 922/4/2 937/4/2 839/4/2
f 838/4/4 839/4/4 937/4/4 935/4/4
f 841/4/1 840/4/1 938/4/1 939/4/1
f 841/4/3 939/4/3 940/4/3 842/4/3
f 843/4/2 941/4/2 942/4/2 844/4/2
f 842/4/3 940/4/3 941/4/3 843/4/3
f 940/4/6 943/4/6 942/4/6 941/4/6
f 944/5/2 945/5/2 946/5/2 947/5/2
f 948/5/1 949/5/1 950/5/1 951/5/1
f 948/5/3 951/5/3 945/5/3 944/5/3
f 948/5/5 944/5/5 947/5/5 949/5/5
f 840/3/1 851/3/1 952/3/1 938/3/1
f 844/1/3 942/1/3 953/1/3 852/1/3
f 852/1/3 953/1/3 954/1/3 855/1/3
f 852/1/5 855/1/5 854/1/5 853/1/5
f 855/1/3 954/1/3 955/1/3 856/1/3
f 845/4/2 956/4/2 957/4/2 857/4/2
f 856/4/3 955/4/3 956/4/3 845/4/3
f 958/4/2 959/4/2 960/4/2 874/4/2
f 961/4/1 873/4/1 962/4/1 963/4/1
f 961/4/3 963/4/3 959/4/3 958/4/3
f 961/4/5 958/4/5 874/4/5 873/4/5
f 949/5/1 964/5/1 965/5/1 950/5/1
f 949/5/5 947/5/5 966/5/5 964/5/5
f 947/6/3 946/6/3 967/6/3 968/6/3
f 947/6/5 968/6/5 969/6/5 966/6/5
f 968/6/3 967/6/3 970/6/3 861/6/3
f 968/6/5 861/6/5 860/6/5 969/6/5
f 861/6/3 970/6/3 971/6/3 862/6/3
f 862/6/3 971/6/3 972/6/3 863/6/3
f 863/6/3 972/6/3 973/6/3 864/6/3
f 864/3/3 973/3/3 974/3/3 865/3/3
f 865/3/3 974/3/3 975/3/3 866/3/3
f 866/3/3 975/3/3 976/3/3 867/3/3
f 867/3/3 976/3/3 977/3/3 868/3/3
f 868/3/3 977/3/3 978/3/3 869/3/3
f 869/3/3 978/3/3 979/3/3 870/3/3
f 870/3/3 979/3/3 952/3/3 851/3/3
f 857/1/3 957/1/3 980/1/3 858/1/3
f 858/1/3 980/1/3 981/1/3 859/1/3
f 859/10/3 981/10/3 982/10/3 871/10/3
f 871/10/3 982/10/3 983/10/3 872/10/3
f 872/7/3 983/7/3 962/7/3 873/7/3
f 874/1/3 960/1/3 984/1/3 875/1/3
f 875/1/3 984/1/3 985/1/3 876/1/3
f 876/1/3 985/1/3 986/1/3 877/1/3
f 877/1/3 986/1/3 987/1/3 878/1/3
f 878/1/3 987/1/3 988/1/3 879/1/3
f 880/4/2 989/4/2 990/4/2 883/4/2
f 879/4/3 988/4/3 989/4/3 880/4/3
f 988/4/6 991/4/6 990/4/6 989/4/6
f 964/5/1 992/5/1 993/5/1 965/5/1
f 964/5/5 966/5/5 994/5/5 992/5/5
f 966/6/5 969/6/5 995/6/5 994/6/5
f 969/6/5 860/6/5 884/6/5 995/6/5
f 883/4/2 990/4/2 996/4/2 886/4/2
f 991/4/6 997/4/6 996/4/6 990/4/6
f 992/5/1 998/5/1 999/5/1 993/5/1
f 992/5/5 994/5/5 1000/5/5 998/5/5
f 994/6/5 995/6/5 1001/6/5 1000/6/5
f 995/6/5 884/6/5 887/6/5 1001/6/5
f 1002/1/6 1003/1/6 1004/1/6 1005/1/6
f 886/4/2 996/4/2 1006/4/2 889/4/2
f 997/4/6 1007/4/6 1006/4/6 996/4/6
f 998/5/1 1008/5/1 1009/5/1 999/5/1
f 998/5/5 1000/5/5 1010/5/5 1008/5/5
f 1000/6/5 1001/6/5 1011/6/5 1010/6/5
f 1001/6/5 887/6/5 890/6/5 1011/6/5
f 1003/1/6 1012/1/6 1013/1/6 1004/1/6
f 889/4/2 1006/4/2 1014/4/2 892/4/2
f 1007/4/6 1015/4/6 1014/4/6 1006/4/6
f 1008/5/1 1016/5/1 1017/5/1 1009/5/1
f 1016/5/4 1018/5/4 1019/5/4 1017/5/4
f 1008/5/5 1010/5/5 1018/5/5 1016/5/5
f 1018/6/4 1020/6/4 1021/6/4 1019/6/4
f 1010/6/5 1011/6/5 1020/6/5 1018/6/5
f 1020/6/4 893/6/4 1022/6/4 1021/6/4
f 1011/6/5 890/6/5 893/6/5 1020/6/5
f 893/6/4 894/6/4 1023/6/4 1022/6/4
f 894/6/4 895/6/4 1024/6/4 1023/6/4
f 895/6/4 896/6/4 1025/6/4 1024/6/4
f 896/3/4 897/3/4 1026/3/4 1025/3/4
f 897/3/4 898/3/4 1027/3/4 1026/3/4
f 898/3/4 899/3/4 1028/3/4 1027/3/4
f 899/3/4 900/3/4 1029/3/4 1028/3/4
f 900/3/4 901/3/4 1030/3/4 1029/3/4
f 901/3/4 902/3/4 1031/3/4 1030/3/4
f 892/4/2 1014/4/2 1032/4/2 906/4/2
f 1015/4/6 1033/4/6 1032/4/6 1014/4/6
f 902/3/1 907/3/1 1034/3/1 1031/3/1
f 1035/4/6 1036/4/6 1037/4/6 1038/4/6
f 904/4/5 903/4/5 909/4/5 908/4/5
f 909/4/4 910/4/4 1039/4/4 1037/4/4
f 911/4/4 912/4/4 1040/4/4 1041/4/4
f 912/4/4 913/4/4 1042/4/4 1040/4/4
f 913/1/4 914/1/4 1043/1/4 1042/1/4
f 914/1/4 915/1/4 1044/1/4 1043/1/4
f 915/1/4 917/1/4 1045/1/4 1044/1/4
f 916/1/4 918/1/4 1046/1/4 1047/1/4
f 918/1/4 919/1/4 1048/1/4 1046/1/4
f 919/1/4 920/1/4 1049/1/4 1048/1/4
f 920/1/4 932/1/4 1050/1/4 1049/1/4
f 932/1/4 934/1/4 1051/1/4 1050/1/4
f 934/1/4 936/1/4 1052/1/4 1051/1/4
f 906/4/2 1032/4/2 1053/4/2 921/4/2
f 922/4/4 921/4/4 1053/4/4 1054/4/4
f 1033/4/6 1054/4/6 1053/4/6 1032/4/6
f 907/3/1 924/3/1 1055/3/1 1034/3/1
f 924/3/4 925/3/4 1056/3/4 1055/3/4
f 925/3/4 926/3/4 1057/3/4 1056/3/4
f 909/3/2 1037/3/2 1058/3/2 927/3/2
f 926/3/4 927/3/4 1058/3/4 1057/3/4
f 911/4/2 1041/4/2 1059/4/2 1060/4/2
f 910/4/1 1061/4/1 1062/4/1 1039/4/1
f 1061/4/4 1060/4/4 1059/4/4 1062/4/4
f 910/4/5 911/4/5 1060/4/5 1061/4/5
f 916/4/2 1047/4/2 1063/4/2 1064/4/2
f 917/4/1 928/4/1 1065/4/1 1045/4/1
f 928/4/4 1064/4/4 1063/4/4 1065/4/4
f 1045/4/6 1065/4/6 1063/4/6 1047/4/6
f 917/4/5 916/4/5 1064/4/5 928/4/5
f 922/4/2 1054/4/2 1066/4/2 937/4/2
f 936/4/1 935/4/1 1067/4/1 1052/4/1
f 935/4/4 937/4/4 1066/4/4 1067/4/4
f 1052/4/6 1067/4/6 1066/4/6 1054/4/6
f 940/4/2 1068/4/2 1069/4/2 943/4/2
f 939/4/1 938/4/1 1070/4/1 1071/4/1
f 939/4/3 1071/4/3 1068/4/3 940/4/3
f 945/5/2 1072/5/2 1073/5/2 946/5/2
f 951/5/1 950/5/1 1074/5/1 1075/5/1
f 951/5/3 1075/5/3 1072/5/3 945/5/3
f 938/3/1 952/3/1 1076/3/1 1070/3/1
f 943/4/3 1069/4/3 1077/4/3 942/4/3
f 942/4/3 1077/4/3 1078/4/3 953/4/3
f 953/4/3 1078/4/3 1079/4/3 954/4/3
f 954/4/3 1079/4/3 1080/4/3 955/4/3
f 956/4/2 1081/4/2 1082/4/2 957/4/2
f 955/4/3 1080/4/3 1081/4/3 956/4/3
f 1080/4/6 1083/4/6 1082/4/6 1081/4/6
f 959/4/2 1084/4/2 1085/4/2 960/4/2
f 963/4/1 962/4/1 1086/4/1 1087/4/1
f 963/4/3 1087/4/3 1084/4/3 959/4/3
f 950/5/1 965/5/1 1088/5/1 1074/5/1
f 946/6/3 1073/6/3 1089/6/3 967/6/3
f 967/6/3 1089/6/3 1090/6/3 970/6/3
f 970/6/3 1090/6/3 1091/6/3 971/6/3
f 971/6/3 1091/6/3 1092/6/3 972/6/3
f 972/6/3 1092/6/3 1093/6/3 973/6/3
f 973/3/3 1093/3/3 1094/3/3 974/3/3
f 974/3/3 1094/3/3 1095/3/3 975/3/3
f 975/3/3 1095/3/3 1096/3/3 976/3/3
f 976/3/3 1096/3/3 1097/3/3 977/3/3
f 977/3/3 1097/3/3 1098/3/3 978/3/3
f 978/3/3 1098/3/3 1099/3/3 979/3/3
f 979/3/3 1099/3/3 1076/3/3 952/3/3
f 957/1/3 1082/1/3 1100/1/3 980/1/3
f 980/1/3 1100/1/3 1101/1/3 981/1/3
f 981/9/3 1101/9/3 1102/9/3 982/9/3
f 982/9/3 1102/9/3 1103/9/3 983/9/3
f 983/7/3 1103/7/3 1086/7/3 962/7/3
f 960/1/3 1085/1/3 1104/1/3 984/1/3
f 984/1/3 1104/1/3 1105/1/3 985/1/3
f 985/1/3 1105/1/3 1106/1/3 986/1/3
f 986/1/3 1106/1/3 1107/1/3 987/1/3
f 988/1/2 1108/1/2 1109/1/2 991/1/2
f 987/1/3 1107/1/3 1108/1/3 988/1/3
f 965/5/1 993/5/1 1110/5/1 1088/5/1
f 1002/4/4 1005/4/4 1111/4/4 1112/4/4
f 1113/4/6 1112/4/6 1111/4/6 1114/4/6
f 991/1/2 1109/1/2 1115/1/2 997/1/2
f 993/5/1 999/5/1 1116/5/1 1110/5/1
f 1002/3/2 1112/3/2 1117/3/2 1003/3/2
f 1005/1/1 1004/1/1 1118/1/1 1111/1/1
f 997/2/2 1115/2/2 1119/2/2 1007/2/2
f 1120/2/6 1121/2/6 1119/2/6 1115/2/6
f 999/5/1 1009/5/1 1122/5/1 1116/5/1
f 1003/3/2 1117/3/2 1123/3/2 1012/3/2
f 1004/1/1 1013/1/1 1124/1/1 1118/1/1
f 1007/1/2 1119/1/2 1125/1/2 1015/1/2
f 1121/1/6 1126/1/6 1125/1/6 1119/1/6
f 1009/5/1 1017/5/1 1127/5/1 1122/5/1
f 1017/5/4 1019/5/4 1128/5/4 1127/5/4
f 1019/6/4 1021/6/4 1129/6/4 1128/6/4
f 1021/6/4 1022/6/4 1130/6/4 1129/6/4
f 1022/6/4 1023/6/4 1131/6/4 1130/6/4
f 1023/6/4 1024/6/4 1132/6/4 1131/6/4
f 1024/6/4 1025/6/4 1133/6/4 1132/6/4
f 1025/3/4 1026/3/4 1134/3/4 1133/3/4
f 1026/3/4 1027/3/4 1135/3/4 1134/3/4
f 1027/3/4 1028/3/4 1136/3/4 1135/3/4
f 1028/3/4 1029/3/4 1137/3/4 1136/3/4
f 1029/3/4 1030/3/4 1138/3/4 1137/3/4
f 1030/3/4 1031/3/4 1139/3/4 1138/3/4
f 1012/3/3 1123/3/3 1124/3/3 1013/3/3
f 1123/3/6 1140/3/6 1141/3/6 1124/3/6
f 1035/1/4 1038/1/4 1142/1/4 1141/1/4
f 1015/2/2 1125/2/2 1143/2/2 1033/2/2
f 1126/2/6 1144/2/6 1143/2/6 1125/2/6
f 1031/3/1 1034/3/1 1145/3/1 1139/3/1
f 1035/3/2 1141/3/2 1146/3/2 1036/3/2
f 1038/4/1 1037/4/1 1147/4/1 1142/4/1
f 1037/4/4 1039/4/4 1148/4/4 1147/4/4
f 1041/4/4 1040/4/4 1149/4/4 1150/4/4
f 1040/4/4 1042/4/4 1151/4/4 1149/4/4
f 1042/1/4 1043/1/4 1152/1/4 1151/1/4
f 1043/1/4 1044/1/4 1153/1/4 1152/1/4
f 1044/1/4 1045/1/4 1154/1/4 1153/1/4
f 1045/1/4 1047/1/4 1155/1/4 1154/1/4
f 1047/1/4 1046/1/4 1156/1/4 1155/1/4
f 1046/1/4 1048/1/4 1157/1/4 1156/1/4
f 1048/1/4 1049/1/4 1158/1/4 1157/1/4
f 1049/1/4 1050/1/4 1159/1/4 1158/1/4
f 1050/1/4 1051/1/4 1160/1/4 1159/1/4
f 1051/1/4 1052/1/4 1161/1/4 1160/1/4
f 1033/2/2 1143/2/2 1162/2/2 1054/2/2
f 1052/2/4 1054/2/4 1162/2/4 1161/2/4
f 1144/2/6 1161/2/6 1162/2/6 1143/2/6
f 1034/3/1 1055/3/1 1163/3/1 1145/3/1
f 1055/3/4 1056/3/4 1164/3/4 1163/3/4
f 1056/3/4 1057/3/4 1165/3/4 1164/3/4
f 1037/3/2 1147/3/2 1166/3/2 1058/3/2
f 1036/3/3 1146/3/3 1147/3/3 1037/3/3
f 1057/3/4 1058/3/4 1166/3/4 1165/3/4
f 1041/4/2 1150/4/2 1167/4/2 1059/4/2
f 1039/4/1 1062/4/1 1168/4/1 1148/4/1
f 1062/4/4 1059/4/4 1167/4/4 1168/4/4
f 1148/4/6 1168/4/6 1167/4/6 1150/4/6
f 1068/4/2 1169/4/2 1170/4/2 1069/4/2
f 1071/4/1 1070/4/1 1171/4/1 1172/4/1
f 1071/4/3 1172/4/3 1169/4/3 1068/4/3
f 1172/4/6 1171/4/6 1170/4/6 1169/4/6
f 1072/5/2 1173/5/2 1174/5/2 1073/5/2
f 1075/5/1 1074/5/1 1175/5/1 1176/5/1
f 1075/5/3 1176/5/3 1173/5/3 1072/5/3
f 1070/3/1 1076/3/1 1177/3/1 1171/3/1
f 1171/3/6 1177/3/6 1178/3/6 1170/3/6
f 1069/4/3 1170/4/3 1179/4/3 1077/4/3
f 1077/4/3 1179/4/3 1180/4/3 1078/4/3
f 1078/4/3 1180/4/3 1181/4/3 1079/4/3
f 1080/4/2 1182/4/2 1183/4/2 1083/4/2
f 1079/4/3 1181/4/3 1182/4/3 1080/4/3
f 1084/4/2 1184/4/2 1185/4/2 1085/4/2
f 1087/4/1 1086/4/1 1186/4/1 1187/4/1
f 1087/4/3 1187/4/3 1184/4/3 1084/4/3
f 1187/4/6 1186/4/6 1185/4/6 1184/4/6
f 1074/5/1 1088/5/1 1188/5/1 1175/5/1
f 1073/6/3 1174/6/3 1189/6/3 1089/6/3
f 1089/6/3 1189/6/3 1190/6/3 1090/6/3
f 1090/6/3 1190/6/3 1191/6/3 1091/6/3
f 1091/6/3 1191/6/3 1192/6/3 1092/6/3
f 1092/6/3 1192/6/3 1193/6/3 1093/6/3
f 1093/3/3 1193/3/3 1194/3/3 1094/3/3
f 1094/3/3 1194/3/3 1195/3/3 1095/3/3
f 1095/3/3 1195/3/3 1196/3/3 1096/3/3
f 1096/3/3 1196/3/3 1197/3/3 1097/3/3
f 1097/3/3 1197/3/3 1198/3/3 1098/3/3
f 1098/3/3 1198/3/3 1199/3/3 1099/3/3
f 1099/3/3 1199/3/3 1177/3/3 1076/3/3
f 1113/3/4 1114/3/4 1200/3/4 1201/3/4
f 1177/3/6 1201/3/6 1200/3/6 1178/3/6
f 1083/1/3 1183/1/3 1202/1/3 1082/1/3
f 1082/1/3 1202/1/3 1203/1/3 1100/1/3
f 1100/1/3 1203/1/3 1204/1/3 1101/1/3
f 1101/7/3 1204/7/3 1205/7/3 1102/7/3
f 1102/7/3 1205/7/3 1206/7/3 1103/7/3
f 1103/7/3 1206/7/3 1186/7/3 1086/7/3
f 1085/1/3 1185/1/3 1207/1/3 1104/1/3
f 1104/1/3 1207/1/3 1208/1/3 1105/1/3
f 1105/1/3 1208/1/3 1209/1/3 1106/1/3
f 1106/1/3 1209/1/3 1210/1/3 1107/1/3
f 1209/1/6 1211/1/6 1212/1/6 1210/1/6
f 1108/4/2 1213/4/2 1214/4/2 1109/4/2
f 1107/4/3 1210/4/3 1213/4/3 1108/4/3
f 1210/4/6 1212/4/6 1214/4/6 1213/4/6
f 1088/5/1 1110/5/1 1215/5/1 1188/5/1
f 1113/3/2 1201/3/2 1216/3/2 1112/3/2
f 1114/1/1 1111/1/1 1217/1/1 1200/1/1
f 1211/1/6 1218/1/6 1219/1/6 1212/1/6
f 1109/4/2 1214/4/2 1220/4/2 1115/4/2
f 1120/4/4 1115/4/4 1220/4/4 1219/4/4
f 1212/4/6 1219/4/6 1220/4/6 1214/4/6
f 1110/5/1 1116/5/1 1221/5/1 1215/5/1
f 1112/3/2 1216/3/2 1222/3/2 1117/3/2
f 1111/1/1 1118/1/1 1223/1/1 1217/1/1
f 1120/1/2 1219/1/2 1224/1/2 1121/1/2
f 1116/5/1 1122/5/1 1225/5/1 1221/5/1
f 1117/3/2 1222/3/2 1226/3/2 1123/3/2
f 1118/1/1 1124/1/1 1227/1/1 1223/1/1
f 1223/1/6 1227/1/6 1228/1/6 1229/1/6
f 1229/1/6 1228/1/6 1230/1/6 1231/1/6
f 1121/1/2 1224/1/2 1232/1/2 1126/1/2
f 1122/5/1 1127/5/1 1233/5/1 1225/5/1
f 1127/5/4 1128/5/4 1234/5/4 1233/5/4
f 1128/6/4 1129/6/4 1235/6/4 1234/6/4
f 1129/6/4 1130/6/4 1236/6/4 1235/6/4
f 1130/6/4 1131/6/4 1237/6/4 1236/6/4
f 1131/6/4 1132/6/4 1238/6/4 1237/6/4
f 1132/6/4 1133/6/4 1239/6/4 1238/6/4
f 1133/3/4 1134/3/4 1240/3/4 1239/3/4
f 1134/3/4 1135/3/4 1241/3/4 1240/3/4
f 1135/3/4 1136/3/4 1242/3/4 1241/3/4
f 1136/3/4 1137/3/4 1243/3/4 1242/3/4
f 1137/3/4 1138/3/4 1244/3/4 1243/3/4
f 1138/3/4 1139/3/4 1245/3/4 1244/3/4
f 1123/3/2 1226/3/2 1246/3/2 1140/3/2
f 1124/1/1 1141/1/1 1247/1/1 1227/1/1
f 1141/1/4 1142/1/4 1248/1/4 1247/1/4
f 1227/1/6 1247/1/6 1248/1/6 1228/1/6
f 1228/1/6 1248/1/6 1249/1/6 1230/1/6
f 1126/2/2 1232/2/2 1250/2/2 1144/2/2
f 1139/3/1 1145/3/1 1251/3/1 1245/3/1
f 1245/3/6 1251/3/6 1252/3/6 1246/3/6
f 1141/3/2 1247/3/2 1253/3/2 1146/3/2
f 1140/3/3 1246/3/3 1247/3/3 1141/3/3
f 1142/4/1 1147/4/1 1254/4/1 1248/4/1
f 1147/4/4 1148/4/4 1255/4/4 1254/4/4
f 1248/4/6 1254/4/6 1255/4/6 1249/4/6
f 1148/4/4 1150/4/4 1256/4/4 1255/4/4
f 1150/4/4 1149/4/4 1257/4/4 1256/4/4
f 1149/4/4 1151/4/4 1258/4/4 1257/4/4
f 1151/1/4 1152/1/4 1259/1/4 1258/1/4
f 1152/2/4 1153/2/4 1260/2/4 1259/2/4
f 1153/1/4 1154/1/4 1261/1/4 1260/1/4
f 1154/1/4 1155/1/4 1262/1/4 1261/1/4
f 1155/1/4 1156/1/4 1263/1/4 1262/1/4
f 1156/2/4 1157/2/4 1264/2/4 1263/2/4
f 1157/1/4 1158/1/4 1265/1/4 1264/1/4
f 1158/2/4 1159/2/4 1266/2/4 1265/2/4
f 1159/1/4 1160/1/4 1267/1/4 1266/1/4
f 1144/2/2 1250/2/2 1268/2/2 1161/2/2
f 1160/2/4 1161/2/4 1268/2/4 1267/2/4
f 1269/2/6 1267/2/6 1268/2/6 1250/2/6
f 1145/3/1 1163/3/1 1270/3/1 1251/3/1
f 1163/3/4 1164/3/4 1271/3/4 1270/3/4
f 1251/3/6 1270/3/6 1271/3/6 1252/3/6
f 1164/3/4 1165/3/4 1272/3/4 1271/3/4
f 1252/3/6 1271/3/6 1272/3/6 1253/3/6
f 1147/3/2 1254/3/2 1273/3/2 1166/3/2
f 1146/3/3 1253/3/3 1254/3/3 1147/3/3
f 1165/3/4 1166/3/4 1273/3/4 1272/3/4
f 1173/5/2 1274/5/2 1275/5/2 1174/5/2
f 1176/5/1 1175/5/1 1276/5/1 1277/5/1
f 1176/5/3 1277/5/3 1274/5/3 1173/5/3
f 1277/5/6 1276/5/6 1275/5/6 1274/5/6
f 1170/4/1 1178/4/1 1278/4/1 1279/4/1
f 1170/4/3 1279/4/3 1280/4/3 1179/4/3
f 1279/4/6 1278/4/6 1281/4/6 1280/4/6
f 1179/4/3 1280/4/3 1282/4/3 1180/4/3
f 1280/4/6 1281/4/6 1283/4/6 1282/4/6
f 1180/4/3 1282/4/3 1284/4/3 1181/4/3
f 1282/4/6 1283/4/6 1285/4/6 1284/4/6
f 1182/4/2 1286/4/2 1287/4/2 1183/4/2
f 1181/4/3 1284/4/3 1286/4/3 1182/4/3
f 1284/4/6 1285/4/6 1287/4/6 1286/4/6
f 1175/5/1 1188/5/1 1288/5/1 1276/5/1
f 1276/5/6 1288/5/6 1289/5/6 1275/5/6
f 1174/6/3 1275/6/3 1290/6/3 1189/6/3
f 1275/6/6 1289/6/6 1291/6/6 1290/6/6
f 1189/6/3 1290/6/3 1292/6/3 1190/6/3
f 1290/6/6 1291/6/6 1293/6/6 1292/6/6
f 1190/6/3 1292/6/3 1294/6/3 1191/6/3
f 1292/6/6 1293/6/6 1295/6/6 1294/6/6
f 1191/6/3 1294/6/3 1296/6/3 1192/6/3
f 1294/6/6 1295/6/6 1297/6/6 1296/6/6
f 1192/6/3 1296/6/3 1298/6/3 1193/6/3
f 1296/6/6 1297/6/6 1299/6/6 1298/6/6
f 1193/3/3 1298/3/3 1300/3/3 1194/3/3
f 1298/3/6 1299/3/6 1301/3/6 1300/3/6
f 1194/3/3 1300/3/3 1302/3/3 1195/3/3
f 1300/3/6 1301/3/6 1303/3/6 1302/3/6
f 1195/3/3 1302/3/3 1304/3/3 1196/3/3
f 1302/3/6 1303/3/6 1305/3/6 1304/3/6
f 1196/3/3 1304/3/3 1306/3/3 1197/3/3
f 1304/3/6 1305/3/6 1307/3/6 1306/3/6
f 1197/3/3 1306/3/3 1308/3/3 1198/3/3
f 1306/3/6 1307/3/6 1309/3/6 1308/3/6
f 1198/3/3 1308/3/3 1310/3/3 1199/3/3
f 1308/3/6 1309/3/6 1311/3/6 1310/3/6
f 1177/3/2 1312/3/2 1313/3/2 1201/3/2
f 1199/3/3 1310/3/3 1312/3/3 1177/3/3
f 1310/3/6 1311/3/6 1313/3/6 1312/3/6
f 1178/4/1 1200/4/1 1314/4/1 1278/4/1
f 1278/4/6 1314/4/6 1315/4/6 1281/4/6
f 1281/4/6 1315/4/6 1316/4/6 1283/4/6
f 1183/1/3 1287/1/3 1317/1/3 1202/1/3
f 1287/1/6 1318/1/6 1319/1/6 1317/1/6
f 1202/1/3 1317/1/3 1320/1/3 1203/1/3
f 1317/1/6 1319/1/6 1321/1/6 1320/1/6
f 1203/1/3 1320/1/3 1322/1/3 1204/1/3
f 1320/1/6 1321/1/6 1323/1/6 1322/1/6
f 1204/1/3 1322/1/3 1324/1/3 1205/1/3
f 1322/1/6 1323/1/6 1325/1/6 1324/1/6
f 1205/1/3 1324/1/3 1326/1/3 1206/1/3
f 1324/1/6 1325/1/6 1327/1/6 1326/1/6
f 1206/1/3 1326/1/3 1328/1/3 1186/1/3
f 1326/1/6 1327/1/6 1329/1/6 1328/1/6
f 1186/1/3 1328/1/3 1330/1/3 1185/1/3
f 1328/1/6 1329/1/6 1331/1/6 1330/1/6
f 1185/1/3 1330/1/3 1332/1/3 1207/1/3
f 1330/1/6 1331/1/6 1333/1/6 1332/1/6
f 1207/1/3 1332/1/3 1334/1/3 1208/1/3
f 1209/2/2 1335/2/2 1336/2/2 1211/2/2
f 1208/2/3 1334/2/3 1335/2/3 1209/2/3
f 1188/5/1 1215/5/1 1337/5/1 1288/5/1
f 1288/5/6 1337/5/6 1338/5/6 1289/5/6
f 1289/6/6 1338/6/6 1339/6/6 1291/6/6
f 1291/6/6 1339/6/6 1340/6/6 1293/6/6
f 1293/6/6 1340/6/6 1341/6/6 1295/6/6
f 1201/3/2 1313/3/2 1342/3/2 1216/3/2
f 1200/4/1 1217/4/1 1343/4/1 1314/4/1
f 1314/4/6 1343/4/6 1344/4/6 1315/4/6
f 1315/4/6 1344/4/6 1345/4/6 1316/4/6
f 1318/1/6 1346/1/6 1347/1/6 1319/1/6
f 1319/1/6 1347/1/6 1348/1/6 1321/1/6
f 1211/1/2 1336/1/2 1349/1/2 1218/1/2
f 1215/5/1 1221/5/1 1350/5/1 1337/5/1
f 1337/5/6 1350/5/6 1351/5/6 1338/5/6
f 1338/6/6 1351/6/6 1352/6/6 1339/6/6
f 1339/6/6 1352/6/6 1353/6/6 1340/6/6
f 1340/6/6 1353/6/6 1354/6/6 1341/6/6
f 1216/3/2 1342/3/2 1355/3/2 1222/3/2
f 1217/4/1 1223/4/1 1356/4/1 1343/4/1
f 1223/4/4 1229/4/4 1357/4/4 1356/4/4
f 1343/4/6 1356/4/6 1357/4/6 1344/4/6
f 1229/4/4 1231/4/4 1358/4/4 1357/4/4
f 1219/4/2 1359/4/2 1360/4/2 1224/4/2
f 1218/4/3 1349/4/3 1359/4/3 1219/4/3
f 1349/4/6 1361/4/6 1360/4/6 1359/4/6
f 1221/5/1 1225/5/1 1362/5/1 1350/5/1
f 1350/5/6 1362/5/6 1363/5/6 1351/5/6
f 1351/6/6 1363/6/6 1364/6/6 1352/6/6
f 1352/6/6 1364/6/6 1365/6/6 1353/6/6
f 1353/6/6 1365/6/6 1366/6/6 1354/6/6
f 1222/3/2 1355/3/2 1367/3/2 1226/3/2
f 1231/1/1 1230/1/1 1368/1/1 1358/1/1
f 1224/4/2 1360/4/2 1369/4/2 1232/4/2
f 1361/4/6 1370/4/6 1369/4/6 1360/4/6
f 1225/5/1 1233/5/1 1371/5/1 1362/5/1
f 1233/5/4 1234/5/4 1372/5/4 1371/5/4
f 1362/5/6 1371/5/6 1372/5/6 1363/5/6
f 1234/6/4 1235/6/4 1373/6/4 1372/6/4
f 1363/6/6 1372/6/6 1373/6/6 1364/6/6
f 1235/6/4 1236/6/4 1374/6/4 1373/6/4
f 1364/6/6 1373/6/6 1374/6/6 1365/6/6
f 1236/6/4 1237/6/4 1375/6/4 1374/6/4
f 1365/6/6 1374/6/6 1375/6/6 1366/6/6
f 1237/6/4 1238/6/4 1376/6/4 1375/6/4
f 1366/6/6 1375/6/6 1376/6/6 1377/6/6
f 1238/6/4 1239/6/4 1378/6/4 1376/6/4
f 1377/6/6 1376/6/6 1378/6/6 1379/6/6
f 1239/3/4 1240/3/4 1380/3/4 1378/3/4
f 1379/3/6 1378/3/6 1380/3/6 1381/3/6
f 1240/3/4 1241/3/4 1382/3/4 1380/3/4
f 1381/3/6 1380/3/6 1382/3/6 1383/3/6
f 1241/3/4 1242/3/4 1384/3/4 1382/3/4
f 1383/3/6 1382/3/6 1384/3/6 1385/3/6
f 1242/3/4 1243/3/4 1386/3/4 1384/3/4
f 1385/3/6 1384/3/6 1386/3/6 1387/3/6
f 1243/3/4 1244/3/4 1388/3/4 1386/3/4
f 1387/3/6 1386/3/6 1388/3/6 1389/3/6
f 1244/3/4 1245/3/4 1390/3/4 1388/3/4
f 1389/3/6 1388/3/6 1390/3/6 1391/3/6
f 1245/3/4 1246/3/4 1392/3/4 1390/3/4
f 1391/3/6 1390/3/6 1392/3/6 1367/3/6
f 1227/3/2 1393/3/2 1394/3/2 1247/3/2
f 1226/3/3 1367/3/3 1393/3/3 1227/3/3
f 1367/3/6 1392/3/6 1394/3/6 1393/3/6
f 1226/3/5 1227/3/5 1247/3/5 1246/3/5
f 1230/1/1 1249/1/1 1395/1/1 1368/1/1
f 1232/4/2 1369/4/2 1396/4/2 1250/4/2
f 1269/4/4 1250/4/4 1396/4/4 1397/4/4
f 1370/4/6 1397/4/6 1396/4/6 1369/4/6
f 1246/3/1 1252/3/1 1398/3/1 1392/3/1
f 1252/3/4 1253/3/4 1399/3/4 1398/3/4
f 1392/3/6 1398/3/6 1399/3/6 1394/3/6
f 1248/3/2 1400/3/2 1401/3/2 1254/3/2
f 1247/3/3 1394/3/3 1400/3/3 1248/3/3
f 1394/3/6 1399/3/6 1401/3/6 1400/3/6
f 1247/3/5 1248/3/5 1254/3/5 1253/3/5
f 1249/4/1 1255/4/1 1402/4/1 1395/4/1
f 1395/4/6 1402/4/6 1403/4/6 1404/4/6
f 1256/4/4 1257/4/4 1405/4/4 1403/4/4
f 1257/4/4 1258/4/4 1406/4/4 1405/4/4
f 1407/4/6 1405/4/6 1406/4/6 1408/4/6
f 1259/1/4 1260/1/4 1409/1/4 1410/1/4
f 1260/2/4 1261/2/4 1411/2/4 1409/2/4
f 1261/1/4 1262/1/4 1412/1/4 1411/1/4
f 1262/1/4 1263/1/4 1413/1/4 1412/1/4
f 1263/1/4 1264/1/4 1414/1/4 1413/1/4
f 1264/1/4 1265/1/4 1415/1/4 1414/1/4
f 1265/1/4 1266/1/4 1416/1/4 1415/1/4
f 1269/1/2 1397/1/2 1417/1/2 1267/1/2
f 1266/1/4 1267/1/4 1417/1/4 1416/1/4
f 1254/3/2 1401/3/2 1418/3/2 1273/3/2
f 1253/3/1 1272/3/1 1419/3/1 1399/3/1
f 1272/3/4 1273/3/4 1418/3/4 1419/3/4
f 1399/3/6 1419/3/6 1418/3/6 1401/3/6
f 1256/4/2 1403/4/2 1420/4/2 1421/4/2
f 1255/4/1 1422/4/1 1423/4/1 1402/4/1
f 1422/4/4 1421/4/4 1420/4/4 1423/4/4
f 1402/4/6 1423/4/6 1420/4/6 1403/4/6
f 1255/4/5 1256/4/5 1421/4/5 1422/4/5
f 1259/4/2 1410/4/2 1424/4/2 1425/4/2
f 1258/4/1 1426/4/1 1427/4/1 1406/4/1
f 1426/4/4 1425/4/4 1424/4/4 1427/4/4
f 1406/4/6 1427/4/6 1424/4/6 1410/4/6
f 1258/4/5 1259/4/5 1425/4/5 1426/4/5
f 1283/4/1 1316/4/1 1428/4/1 1429/4/1
f 1283/4/3 1429/4/3 1430/4/3 1285/4/3
f 1429/4/6 1428/4/6 1431/4/6 1430/4/6
f 1287/4/2 1432/4/2 1433/4/2 1318/4/2
f 1285/4/3 1430/4/3 1432/4/3 1287/4/3
f 1430/4/6 1431/4/6 1433/4/6 1432/4/6
f 1332/4/1 1333/4/1 1434/4/1 1435/4/1
f 1332/4/3 1435/4/3 1436/4/3 1334/4/3
f 1435/4/6 1434/4/6 1437/4/6 1436/4/6
f 1335/4/2 1438/4/2 1439/4/2 1336/4/2
f 1334/4/3 1436/4/3 1438/4/3 1335/4/3
f 1436/4/6 1437/4/6 1439/4/6 1438/4/6
f 1295/1/1 1341/1/1 1440/1/1 1441/1/1
f 1295/1/3 1441/1/3 1442/1/3 1297/1/3
f 1297/2/3 1442/2/3 1443/2/3 1299/2/3
f 1299/2/3 1443/2/3 1444/2/3 1301/2/3
f 1301/2/3 1444/2/3 1445/2/3 1303/2/3
f 1303/2/3 1445/2/3 1446/2/3 1305/2/3
f 1305/3/3 1446/3/3 1447/3/3 1307/3/3
f 1307/3/3 1447/3/3 1448/3/3 1309/3/3
f 1309/3/3 1448/3/3 1449/3/3 1311/3/3
f 1313/3/2 1450/3/2 1451/3/2 1342/3/2
f 1311/3/3 1449/3/3 1450/3/3 1313/3/3
f 1316/4/1 1345/4/1 1452/4/1 1428/4/1
f 1428/4/6 1452/4/6 1453/4/6 1431/4/6
f 1318/4/2 1433/4/2 1454/4/2 1346/4/2
f 1431/4/6 1453/4/6 1454/4/6 1433/4/6
f 1321/4/1 1348/4/1 1455/4/1 1456/4/1
f 1321/4/3 1456/4/3 1457/4/3 1323/4/3
f 1456/4/6 1455/4/6 1458/4/6 1457/4/6
f 1323/4/3 1457/4/3 1459/4/3 1325/4/3
f 1457/4/6 1458/4/6 1460/4/6 1459/4/6
f 1325/4/3 1459/4/3 1461/4/3 1327/4/3
f 1459/4/6 1460/4/6 1462/4/6 1461/4/6
f 1327/4/3 1461/4/3 1463/4/3 1329/4/3
f 1461/4/6 1462/4/6 1464/4/6 1463/4/6
f 1329/4/3 1463/4/3 1465/4/3 1331/4/3
f 1463/4/6 1464/4/6 1466/4/6 1465/4/6
f 1331/4/3 1465/4/3 1434/4/3 1333/4/3
f 1465/4/6 1466/4/6 1467/4/6 1434/4/6
f 1434/4/6 1467/4/6 1468/4/6 1437/4/6
f 1336/4/2 1439/4/2 1469/4/2 1349/4/2
f 1437/4/6 1468/4/6 1469/4/6 1439/4/6
f 1341/1/1 1354/1/1 1470/1/1 1440/1/1
f 1342/3/2 1451/3/2 1471/3/2 1355/3/2
f 1344/4/1 1357/4/1 1472/4/1 1473/4/1
f 1344/4/3 1473/4/3 1452/4/3 1345/4/3
f 1357/4/4 1358/4/4 1474/4/4 1472/4/4
f 1473/4/6 1472/4/6 1474/4/6 1452/4/6
f 1452/4/6 1474/4/6 1475/4/6 1453/4/6
f 1453/4/6 1475/4/6 1476/4/6 1454/4/6
f 1346/4/3 1454/4/3 1477/4/3 1347/4/3
f 1454/4/6 1476/4/6 1478/4/6 1477/4/6
f 1347/4/3 1477/4/3 1455/4/3 1348/4/3
f 1477/4/6 1478/4/6 1479/4/6 1455/4/6
f 1455/4/6 1479/4/6 1480/4/6 1458/4/6
f 1466/4/6 1481/4/6 1482/4/6 1467/4/6
f 1467/4/6 1482/4/6 1483/4/6 1468/4/6
f 1349/4/2 1469/4/2 1484/4/2 1361/4/2
f 1468/4/6 1483/4/6 1484/4/6 1469/4/6
f 1354/1/1 1366/1/1 1485/1/1 1470/1/1
f 1366/1/4 1377/1/4 1486/1/4 1485/1/4
f 1377/1/4 1379/1/4 1487/1/4 1486/1/4
f 1379/2/4 1381/2/4 1488/2/4 1487/2/4
f 1381/2/4 1383/2/4 1489/2/4 1488/2/4
f 1383/2/4 1385/2/4 1490/2/4 1489/2/4
f 1385/3/4 1387/3/4 1491/3/4 1490/3/4
f 1387/3/4 1389/3/4 1492/3/4 1491/3/4
f 1389/3/4 1391/3/4 1493/3/4 1492/3/4
f 1355/3/2 1471/3/2 1494/3/2 1367/3/2
f 1391/3/4 1367/3/4 1494/3/4 1493/3/4
f 1358/4/1 1368/4/1 1495/4/1 1474/4/1
f 1474/4/6 1495/4/6 1496/4/6 1475/4/6
f 1475/4/6 1496/4/6 1497/4/6 1476/4/6
f 1476/4/6 1497/4/6 1498/4/6 1478/4/6
f 1478/4/6 1498/4/6 1499/4/6 1479/4/6
f 1479/4/6 1499/4/6 1500/4/6 1480/4/6
f 1481/4/6 1501/4/6 1502/4/6 1482/4/6
f 1482/4/6 1502/4/6 1503/4/6 1483/4/6
f 1361/4/2 1484/4/2 1504/4/2 1370/4/2
f 1483/4/6 1503/4/6 1504/4/6 1484/4/6
f 1368/4/1 1395/4/1 1505/4/1 1495/4/1
f 1395/4/4 1404/4/4 1506/4/4 1505/4/4
f 1495/4/6 1505/4/6 1506/4/6 1496/4/6
f 1496/4/6 1506/4/6 1507/4/6 1497/4/6
f 1407/4/4 1408/4/4 1508/4/4 1507/4/4
f 1497/4/6 1507/4/6 1508/4/6 1498/4/6
f 1498/4/6 1508/4/6 1509/4/6 1499/4/6
f 1499/4/6 1509/4/6 1510/4/6 1500/4/6
f 1500/4/6 1510/4/6 1511/4/6 1512/4/6
f 1512/4/6 1511/4/6 1513/4/6 1514/4/6
f 1514/4/6 1513/4/6 1515/4/6 1516/4/6
f 1516/4/6 1515/4/6 1517/4/6 1501/4/6
f 1501/4/6 1517/4/6 1518/4/6 1502/4/6
f 1502/4/6 1518/4/6 1519/4/6 1503/4/6
f 1370/4/2 1504/4/2 1520/4/2 1397/4/2
f 1503/4/6 1519/4/6 1520/4/6 1504/4/6
f 1407/4/2 1507/4/2 1521/4/2 1405/4/2
f 1404/4/1 1403/4/1 1522/4/1 1506/4/1
f 1403/4/4 1405/4/4 1521/4/4 1522/4/4
f 1506/4/6 1522/4/6 1521/4/6 1507/4/6
f 1408/4/1 1406/4/1 1523/4/1 1508/4/1
f 1406/4/4 1410/4/4 1524/4/4 1523/4/4
f 1508/4/6 1523/4/6 1524/4/6 1509/4/6
f 1410/4/4 1409/4/4 1525/4/4 1524/4/4
f 1509/4/6 1524/4/6 1525/4/6 1510/4/6
f 1510/4/6 1525/4/6 1526/4/6 1511/4/6
f 1511/4/6 1526/4/6 1527/4/6 1513/4/6
f 1513/4/6 1527/4/6 1528/4/6 1515/4/6
f 1413/4/4 1414/4/4 1529/4/4 1528/4/4
f 1515/4/6 1528/4/6 1529/4/6 1517/4/6
f 1414/4/4 1415/4/4 1530/4/4 1529/4/4
f 1517/4/6 1529/4/6 1530/4/6 1518/4/6
f 1415/4/4 1416/4/4 1531/4/4 1530/4/4
f 1518/4/6 1530/4/6 1531/4/6 1519/4/6
f 1397/4/2 1520/4/2 1532/4/2 1417/4/2
f 1416/4/4 1417/4/4 1532/4/4 1531/4/4
f 1519/4/6 1531/4/6 1532/4/6 1520/4/6
f 1409/4/1 1533/4/1 1534/4/1 1525/4/1
f 1533/4/4 1535/4/4 1536/4/4 1534/4/4
f 1525/4/6 1534/4/6 1536/4/6 1526/4/6
f 1409/4/5 1411/4/5 1535/4/5 1533/4/5
f 1535/4/4 1537/4/4 1538/4/4 1536/4/4
f 1526/4/6 1536/4/6 1538/4/6 1527/4/6
f 1411/4/5 1412/4/5 1537/4/5 1535/4/5
f 1413/4/2 1528/4/2 1539/4/2 1540/4/2
f 1537/4/4 1540/4/4 1539/4/4 1538/4/4
f 1527/4/6 1538/4/6 1539/4/6 1528/4/6
f 1412/4/5 1413/4/5 1540/4/5 1537/4/5
f 1441/1/1 1440/1/1 1541/1/1 1542/1/1
f 1441/1/3 1542/1/3 1543/1/3 1442/1/3
f 1542/1/6 1541/1/6 1544/1/6 1543/1/6
f 1442/1/3 1543/1/3 1545/1/3 1443/1/3
f 1543/1/6 1544/1/6 1546/1/6 1545/1/6
f 1443/2/3 1545/2/3 1547/2/3 1444/2/3
f 1545/2/6 1546/2/6 1548/2/6 1547/2/6
f 1444/2/3 1547/2/3 1549/2/3 1445/2/3
f 1547/2/6 1548/2/6 1550/2/6 1549/2/6
f 1445/2/3 1549/2/3 1551/2/3 1446/2/3
f 1549/2/6 1550/2/6 1552/2/6 1551/2/6
f 1446/3/3 1551/3/3 1553/3/3 1447/3/3
f 1551/3/6 1552/3/6 1554/3/6 1553/3/6
f 1447/3/3 1553/3/3 1555/3/3 1448/3/3
f 1553/3/6 1554/3/6 1556/3/6 1555/3/6
f 1448/3/3 1555/3/3 1557/3/3 1449/3/3
f 1555/3/6 1556/3/6 1558/3/6 1557/3/6
f 1450/3/2 1559/3/2 1560/3/2 1451/3/2
f 1449/3/3 1557/3/3 1559/3/3 1450/3/3
f 1557/3/6 1558/3/6 1560/3/6 1559/3/6
f 1440/2/1 1470/2/1 1561/2/1 1541/2/1
f 1541/2/6 1561/2/6 1562/2/6 1544/2/6
f 1544/2/6 1562/2/6 1563/2/6 1546/2/6
f 1546/2/6 1563/2/6 1564/2/6 1548/2/6
f 1548/1/6 1564/1/6 1565/1/6 1550/1/6
f 1550/2/6 1565/2/6 1566/2/6 1552/2/6
f 1552/3/6 1566/3/6 1567/3/6 1554/3/6
f 1554/3/6 1567/3/6 1568/3/6 1556/3/6
f 1556/3/6 1568/3/6 1569/3/6 1558/3/6
f 1451/3/2 1560/3/2 1570/3/2 1471/3/2
f 1558/3/6 1569/3/6 1570/3/6 1560/3/6
f 1458/1/1 1480/1/1 1571/1/1 1572/1/1
f 1458/1/3 1572/1/3 1573/1/3 1460/1/3
f 1572/1/6 1571/1/6 1574/1/6 1573/1/6
f 1460/2/3 1573/2/3 1575/2/3 1462/2/3
f 1573/2/6 1574/2/6 1576/2/6 1575/2/6
f 1462/2/3 1575/2/3 1577/2/3 1464/2/3
f 1575/2/6 1576/2/6 1578/2/6 1577/2/6
f 1466/1/2 1579/1/2 1580/1/2 1481/1/2
f 1464/1/3 1577/1/3 1579/1/3 1466/1/3
f 1577/1/6 1578/1/6 1580/1/6 1579/1/6
f 1470/2/1 1485/2/1 1581/2/1 1561/2/1
f 1485/2/4 1486/2/4 1582/2/4 1581/2/4
f 1561/2/6 1581/2/6 1582/2/6 1562/2/6
f 1486/2/4 1487/2/4 1583/2/4 1582/2/4
f 1562/2/6 1582/2/6 1583/2/6 1563/2/6
f 1487/2/4 1488/2/4 1584/2/4 1583/2/4
f 1563/2/6 1583/2/6 1584/2/6 1564/2/6
f 1488/2/4 1489/2/4 1585/2/4 1584/2/4
f 1564/2/6 1584/2/6 1585/2/6 1565/2/6
f 1489/2/4 1490/2/4 1586/2/4 1585/2/4
f 1565/2/6 1585/2/6 1586/2/6 1566/2/6
f 1490/3/4 1491/3/4 1587/3/4 1586/3/4
f 1566/3/6 1586/3/6 1587/3/6 1567/3/6
f 1491/3/4 1492/3/4 1588/3/4 1587/3/4
f 1567/3/6 1587/3/6 1588/3/6 1568/3/6
f 1492/3/4 1493/3/4 1589/3/4 1588/3/4
f 1568/3/6 1588/3/6 1589/3/6 1569/3/6
f 1471/3/2 1570/3/2 1590/3/2 1494/3/2
f 1493/3/4 1494/3/4 1590/3/4 1589/3/4
f 1569/3/6 1589/3/6 1590/3/6 1570/3/6
f 1480/1/1 1500/1/1 1591/1/1 1571/1/1
f 1500/1/4 1512/1/4 1592/1/4 1591/1/4
f 1571/1/6 1591/1/6 1592/1/6 1574/1/6
f 1512/1/4 1514/1/4 1593/1/4 1592/1/4
f 1574/1/6 1592/1/6 1593/1/6 1576/1/6
f 1514/1/4 1516/1/4 1594/1/4 1593/1/4
f 1576/1/6 1593/1/6 1594/1/6 1578/1/6
f 1481/1/2 1580/1/2 1595/1/2 1501/1/2
f 1516/1/4 1501/1/4 1595/1/4 1594/1/4
f 1578/1/6 1594/1/6 1595/1/6 1580/1/6
