mtllib Liseth_Tatiana_Castro_Rodríguez_fase_1.mtl
o Liseth_Tatiana_Castro_Rodríguez_fase_1
v -2.0000 0.0000 2.0000
v -1.0000 0.0000 2.0000
v -1.0000 0.0000 1.0000
v -2.0000 0.0000 1.0000
v -2.0000 -1.0000 2.0000
v -2.0000 -1.0000 1.0000
v -1.0000 -1.0000 1.0000
v -1.0000 -1.0000 2.0000
v -2.0000 -1.0000 -0.0000
v -1.0000 -1.0000 -0.0000
v -2.0000 0.0000 -0.0000
v -2.0000 1.0000 1.0000
v -1.0000 1.0000 1.0000
v -1.0000 1.0000 -0.0000
v -2.0000 1.0000 -0.0000
v -2.0000 -1.0000 -1.0000
v -1.0000 -1.0000 -1.0000
v -2.0000 0.0000 -1.0000
v -1.0000 1.0000 -1.0000
v -2.0000 1.0000 -1.0000
v -1.0000 0.0000 -1.0000
v -1.0000 0.0000 -2.0000
v -2.0000 0.0000 -2.0000
v -2.0000 -1.0000 -2.0000
v -1.0000 -1.0000 -2.0000
v 0.0000 -1.0000 1.0000
v 0.0000 -1.0000 2.0000
v 0.0000 0.0000 2.0000
v -1.0000 1.0000 2.0000
v 0.0000 1.0000 2.0000
v 0.0000 1.0000 1.0000
v -1.0000 -2.0000 1.0000
v -1.0000 -2.0000 -0.0000
v 0.0000 -2.0000 -0.0000
v 0.0000 -2.0000 1.0000
v 0.0000 1.0000 -0.0000
v -1.0000 -2.0000 -1.0000
v 0.0000 -2.0000 -1.0000
v 0.0000 -1.0000 -1.0000
v -1.0000 2.0000 -0.0000
v 0.0000 2.0000 -0.0000
v 0.0000 2.0000 -1.0000
v -1.0000 2.0000 -1.0000
v 0.0000 1.0000 -1.0000
v 0.0000 -1.0000 -2.0000
v 0.0000 0.0000 -2.0000
v 0.0000 1.0000 -2.0000
v -1.0000 1.0000 -2.0000
v 1.0000 -1.0000 1.0000
v 1.0000 -1.0000 2.0000
v 1.0000 0.0000 2.0000
v 1.0000 1.0000 2.0000
v 1.0000 1.0000 1.0000
v 1.0000 0.0000 1.0000
v 1.0000 -2.0000 -0.0000
v 1.0000 -2.0000 1.0000
v 1.0000 -1.0000 -0.0000
v 1.0000 0.0000 -0.0000
v 1.0000 1.0000 -0.0000
v 0.0000 2.0000 1.0000
v 1.0000 2.0000 1.0000
v 1.0000 2.0000 -0.0000
v 1.0000 -2.0000 -1.0000
v 1.0000 -1.0000 -1.0000
v 1.0000 2.0000 -1.0000
v 1.0000 1.0000 -1.0000
v 1.0000 -1.0000 -2.0000
v 1.0000 0.0000 -2.0000
v 1.0000 1.0000 -2.0000
v 1.0000 0.0000 -1.0000
v 2.0000 0.0000 2.0000
v 2.0000 0.0000 1.0000
v 2.0000 -1.0000 1.0000
v 2.0000 -1.0000 2.0000
v 2.0000 0.0000 -0.0000
v 2.0000 -1.0000 -0.0000
v 2.0000 -1.0000 -1.0000
v 2.0000 0.0000 -1.0000
v 2.0000 1.0000 -0.0000
v 2.0000 1.0000 -1.0000
v 2.0000 0.0000 -2.0000
v 2.0000 -1.0000 -2.0000
vt 0.001953 0.500000
vt 0.005859 0.500000
vt 0.009766 0.500000
vt 0.013672 0.500000
vt 0.017578 0.500000
vt 0.021484 0.500000
vt 0.025391 0.500000
vn 0.0 -1.0 0.0
vn 0.0 1.0 0.0
vn 0.0 0.0 1.0
vn 0.0 0.0 -1.0
vn -1.0 0.0 0.0
vn 1.0 0.0 0.0
usemtl mat_Liseth_Tatiana_Castro_Rodríguez_fase_1
s off
f 1/1/2 2/1/2 3/1/2 4/1/2
f 5/1/1 6/1/1 7/1/1 8/1/1
f 5/1/3 8/1/3 2/1/3 1/1/3
f 5/1/5 1/1/5 4/1/5 6/1/5
f 6/2/1 9/2/1 10/2/1 7/2/1
f 6/2/5 4/2/5 11/2/5 9/2/5
f 12/1/2 13/1/2 14/1/2 15/1/2
f 4/1/3 3/1/3 13/1/3 12/1/3
f 4/1/5 12/1/5 15/1/5 11/1/5
f 9/1/1 16/1/1 17/1/1 10/1/1
f 9/1/5 11/1/5 18/1/5 16/1/5
f 15/1/2 14/1/2 19/1/2 20/1/2
f 18/1/4 20/1/4 19/1/4 21/1/4
f 11/1/5 15/1/5 20/1/5 18/1/5
f 18/3/2 21/3/2 22/3/2 23/3/2
f 16/3/1 24/3/1 25/3/1 17/3/1
f 24/3/4 23/3/4 22/3/4 25/3/4
f 16/3/5 18/3/5 23/3/5 24/3/5
f 8/1/1 7/1/1 26/1/1 27/1/1
f 8/1/3 27/1/3 28/1/3 2/1/3
f 29/4/2 30/4/2 31/4/2 13/4/2
f 2/4/3 28/4/3 30/4/3 29/4/3
f 2/4/5 29/4/5 13/4/5 3/4/5
f 32/3/1 33/3/1 34/3/1 35/3/1
f 32/3/3 35/3/3 26/3/3 7/3/3
f 32/3/5 7/3/5 10/3/5 33/3/5
f 13/1/2 31/1/2 36/1/2 14/1/2
f 33/3/1 37/3/1 38/3/1 34/3/1
f 37/3/4 17/3/4 39/3/4 38/3/4
f 33/3/5 10/3/5 17/3/5 37/3/5
f 40/6/2 41/6/2 42/6/2 43/6/2
f 14/6/3 36/6/3 41/6/3 40/6/3
f 19/6/4 43/6/4 42/6/4 44/6/4
f 14/6/5 40/6/5 43/6/5 19/6/5
f 17/1/1 25/1/1 45/1/1 39/1/1
f 25/1/4 22/1/4 46/1/4 45/1/4
f 19/1/2 44/1/2 47/1/2 48/1/2
f 22/1/4 48/1/4 47/1/4 46/1/4
f 21/1/5 19/1/5 48/1/5 22/1/5
f 27/1/1 26/1/1 49/1/1 50/1/1
f 27/1/3 50/1/3 51/1/3 28/1/3
f 30/4/2 52/4/2 53/4/2 31/4/2
f 28/4/3 51/4/3 52/4/3 30/4/3
f 51/4/6 54/4/6 53/4/6 52/4/6
f 35/3/1 34/3/1 55/3/1 56/3/1
f 35/3/3 56/3/3 49/3/3 26/3/3
f 56/3/6 55/3/6 57/3/6 49/3/6
f 54/1/6 58/1/6 59/1/6 53/1/6
f 60/7/2 61/7/2 62/7/2 41/7/2
f 31/7/3 53/7/3 61/7/3 60/7/3
f 53/7/6 59/7/6 62/7/6 61/7/6
f 31/7/5 60/7/5 41/7/5 36/7/5
f 34/3/1 38/3/1 63/3/1 55/3/1
f 38/3/4 39/3/4 64/3/4 63/3/4
f 55/3/6 63/3/6 64/3/6 57/3/6
f 41/5/2 62/5/2 65/5/2 42/5/2
f 44/5/4 42/5/4 65/5/4 66/5/4
f 59/5/6 66/5/6 65/5/6 62/5/6
f 39/1/1 45/1/1 67/1/1 64/1/1
f 45/1/4 46/1/4 68/1/4 67/1/4
f 44/1/2 66/1/2 69/1/2 47/1/2
f 46/1/4 47/1/4 69/1/4 68/1/4
f 70/1/6 68/1/6 69/1/6 66/1/6
f 51/4/2 71/4/2 72/4/2 54/4/2
f 50/4/1 49/4/1 73/4/1 74/4/1
f 50/4/3 74/4/3 71/4/3 51/4/3
f 74/4/6 73/4/6 72/4/6 71/4/6
f 54/1/2 72/1/2 75/1/2 58/1/2
f 49/1/1 57/1/1 76/1/1 73/1/1
f 73/1/6 76/1/6 75/1/6 72/1/6
f 57/1/1 64/1/1 77/1/1 76/1/1
f 76/1/6 77/1/6 78/1/6 75/1/6
f 59/4/2 79/4/2 80/4/2 66/4/2
f 58/4/3 75/4/3 79/4/3 59/4/3
f 70/4/4 66/4/4 80/4/4 78/4/4
f 75/4/6 78/4/6 80/4/6 79/4/6
f 70/2/2 78/2/2 81/2/2 68/2/2
f 64/2/1 67/2/1 82/2/1 77/2/1
f 67/2/4 68/2/4 81/2/4 82/2/4
f 77/2/6 82/2/6 81/2/6 78/2/6
